<?xml version="1.0" encoding="UTF-8"?><svg
  xmlns="http://www.w3.org/2000/svg"
  viewBox="0 0 1404 1080"
>
  <g id="Layer_border-2">
    <path
      d="m921.5,116.5v24h-493l-3.02.98-15.5,15.5-26-26-159.5,159.5,26,26-19.5,19.5c.17,18.75.34,37.5.52,56.25-10.5,23.69-26,66.83-26,122.76,0,46.4,9.73,89.05,26,122.76v291.74h289v-463.97l57.03-57.03h575.97V116.5h-232Z"
      fill="#fdf3f2"
      stroke="#e18686"
      stroke-miterlimit="10"
      stroke-width="5"
    />
    <rect
      x="372.5"
      y="929.5"
      width="128"
      height="59"
      fill="none"
      stroke="#e18686"
      stroke-miterlimit="10"
      stroke-width="5"
    />
    <rect
      x="1153.5"
      y="194.5"
      width="54"
      height="127"
      fill="none"
      stroke="#e18686"
      stroke-miterlimit="10"
      stroke-width="5"
    />
  </g>
  <g id="Layer_others">
    <rect
      x="924"
      y="116"
      width="230"
      height="292"
      fill="none"
      stroke="#e18686"
      stroke-miterlimit="10"
      stroke-width="2"
    />
    <polygon
      points="325 346 350.55 320.45 274.65 244.55 228.6 290.6 284 346 325 346"
      fill="none"
      stroke="#e18686"
      stroke-miterlimit="10"
      stroke-width="2"
    />
    <path
      d="m234,346v47.58c-10.43,23.31-25.24,64.38-26,117.42-.83,57.65,15.32,102.12,26,126v290.19h285.02v-462.49l56.98-56.7h-117v-62.03c-75,.01-150,.02-225,.03Z"
      fill="none"
      stroke="#e18686"
      stroke-miterlimit="10"
      stroke-width="2"
    />
    <rect
      x="422"
      y="274"
      width="38"
      height="36"
      fill="none"
      stroke="#e18686"
      stroke-miterlimit="10"
      stroke-width="2"
    />
    <line
      x1="427"
      y1="274"
      x2="427"
      y2="310"
      fill="none"
      stroke="#e18686"
      stroke-miterlimit="10"
      stroke-width="2"
    />
    <line
      x1="432.6"
      y1="274"
      x2="432.6"
      y2="310"
      fill="none"
      stroke="#e18686"
      stroke-miterlimit="10"
      stroke-width="2"
    />
    <line
      x1="438.2"
      y1="274"
      x2="438.2"
      y2="310"
      fill="none"
      stroke="#e18686"
      stroke-miterlimit="10"
      stroke-width="2"
    />
    <line
      x1="443.8"
      y1="274"
      x2="443.8"
      y2="310"
      fill="none"
      stroke="#e18686"
      stroke-miterlimit="10"
      stroke-width="2"
    />
    <line
      x1="449.4"
      y1="274"
      x2="449.4"
      y2="310"
      fill="none"
      stroke="#e18686"
      stroke-miterlimit="10"
      stroke-width="2"
    />
    <line
      x1="455"
      y1="274"
      x2="455"
      y2="310"
      fill="none"
      stroke="#e18686"
      stroke-miterlimit="10"
      stroke-width="2"
    />
    <rect
      x="395.98"
      y="161.69"
      width="38"
      height="36"
      transform="translate(248.6 -240.81) rotate(45)"
      fill="none"
      stroke="#e18686"
      stroke-miterlimit="10"
      stroke-width="2"
    />
    <line
      x1="417.81"
      y1="157.06"
      x2="392.36"
      y2="182.51"
      fill="none"
      stroke="#e18686"
      stroke-miterlimit="10"
      stroke-width="2"
    />
    <line
      x1="421.77"
      y1="161.02"
      x2="396.32"
      y2="186.47"
      fill="none"
      stroke="#e18686"
      stroke-miterlimit="10"
      stroke-width="2"
    />
    <line
      x1="425.73"
      y1="164.98"
      x2="400.28"
      y2="190.43"
      fill="none"
      stroke="#e18686"
      stroke-miterlimit="10"
      stroke-width="2"
    />
    <line
      x1="429.69"
      y1="168.94"
      x2="404.24"
      y2="194.39"
      fill="none"
      stroke="#e18686"
      stroke-miterlimit="10"
      stroke-width="2"
    />
    <line
      x1="433.65"
      y1="172.9"
      x2="408.2"
      y2="198.35"
      fill="none"
      stroke="#e18686"
      stroke-miterlimit="10"
      stroke-width="2"
    />
    <line
      x1="437.61"
      y1="176.86"
      x2="412.16"
      y2="202.31"
      fill="none"
      stroke="#e18686"
      stroke-miterlimit="10"
      stroke-width="2"
    />
    <rect
      x="396.43"
      y="215.16"
      width="38"
      height="36"
      transform="translate(-43.19 362.05) rotate(-45)"
      fill="none"
      stroke="#e18686"
      stroke-miterlimit="10"
      stroke-width="2"
    />
    <line
      x1="392.81"
      y1="230.33"
      x2="418.26"
      y2="255.79"
      fill="none"
      stroke="#e18686"
      stroke-miterlimit="10"
      stroke-width="2"
    />
    <line
      x1="396.76"
      y1="226.37"
      x2="422.22"
      y2="251.83"
      fill="none"
      stroke="#e18686"
      stroke-miterlimit="10"
      stroke-width="2"
    />
    <line
      x1="400.72"
      y1="222.41"
      x2="426.18"
      y2="247.87"
      fill="none"
      stroke="#e18686"
      stroke-miterlimit="10"
      stroke-width="2"
    />
    <line
      x1="404.68"
      y1="218.45"
      x2="430.14"
      y2="243.91"
      fill="none"
      stroke="#e18686"
      stroke-miterlimit="10"
      stroke-width="2"
    />
    <line
      x1="408.64"
      y1="214.49"
      x2="434.1"
      y2="239.95"
      fill="none"
      stroke="#e18686"
      stroke-miterlimit="10"
      stroke-width="2"
    />
    <line
      x1="412.6"
      y1="210.53"
      x2="438.06"
      y2="235.99"
      fill="none"
      stroke="#e18686"
      stroke-miterlimit="10"
      stroke-width="2"
    />
    <path
      d="m467.5,206.5l-25.45-25.45-8.74,8.74.02.02-44.06,44.06,25.46,25.46,44.8-44.8-.02-.02,8-8Z"
      fill="none"
      stroke="#e18686"
      stroke-miterlimit="10"
      stroke-width="2"
    />
    <rect
      x="477"
      y="612"
      width="42"
      height="63"
      fill="none"
      stroke="#e18686"
      stroke-miterlimit="10"
      stroke-width="2"
    />
    <rect
      x="684"
      y="411"
      width="249"
      height="30"
      fill="none"
      stroke="#e18686"
      stroke-miterlimit="10"
      stroke-width="2"
    />
    <rect
      x="691"
      y="416"
      width="54.82"
      height="20"
      fill="none"
      stroke="#e18686"
      stroke-miterlimit="10"
      stroke-width="2"
    />
    <rect
      x="751.39"
      y="416"
      width="54.82"
      height="20"
      fill="none"
      stroke="#e18686"
      stroke-miterlimit="10"
      stroke-width="2"
    />
    <rect
      x="811.79"
      y="416"
      width="54.82"
      height="20"
      fill="none"
      stroke="#e18686"
      stroke-miterlimit="10"
      stroke-width="2"
    />
    <rect
      x="872.18"
      y="416"
      width="54.82"
      height="20"
      fill="none"
      stroke="#e18686"
      stroke-miterlimit="10"
      stroke-width="2"
    />
    <polygon
      points="696 103 696 70 568 70 568 103 460 103 460 139 920 139 920 103 696 103"
      fill="none"
      stroke="#e18686"
      stroke-miterlimit="10"
      stroke-width="2"
    />
    <rect
      x="574"
      y="75"
      width="116"
      height="56"
      fill="none"
      stroke="#e18686"
      stroke-miterlimit="10"
      stroke-width="2"
    />
    <rect
      x="466"
      y="108"
      width="46.86"
      height="27"
      fill="none"
      stroke="#e18686"
      stroke-miterlimit="10"
      stroke-width="2"
    />
    <rect
      x="520.14"
      y="108"
      width="46.86"
      height="27"
      fill="none"
      stroke="#e18686"
      stroke-miterlimit="10"
      stroke-width="2"
    />
    <rect
      x="699"
      y="108"
      width="47.98"
      height="27"
      fill="none"
      stroke="#e18686"
      stroke-miterlimit="10"
      stroke-width="2"
    />
    <rect
      x="754.44"
      y="108"
      width="47.98"
      height="27"
      fill="none"
      stroke="#e18686"
      stroke-miterlimit="10"
      stroke-width="2"
    />
    <rect
      x="809.58"
      y="108"
      width="47.98"
      height="27"
      fill="none"
      stroke="#e18686"
      stroke-miterlimit="10"
      stroke-width="2"
    />
    <rect
      x="865.02"
      y="108"
      width="47.98"
      height="27"
      fill="none"
      stroke="#e18686"
      stroke-miterlimit="10"
      stroke-width="2"
    />
    <rect
      x="726"
      y="108"
      width="14"
      height="19"
      fill="none"
      stroke="#e18686"
      stroke-miterlimit="10"
      stroke-width="2"
    />
    <line
      x1="726"
      y1="111"
      x2="740"
      y2="111"
      fill="none"
      stroke="#e18686"
      stroke-miterlimit="10"
      stroke-width="2"
    />
    <line
      x1="726"
      y1="115"
      x2="740"
      y2="115"
      fill="none"
      stroke="#e18686"
      stroke-miterlimit="10"
      stroke-width="2"
    />
    <line
      x1="726"
      y1="119"
      x2="740"
      y2="119"
      fill="none"
      stroke="#e18686"
      stroke-miterlimit="10"
      stroke-width="2"
    />
    <line
      x1="726"
      y1="123"
      x2="740"
      y2="123"
      fill="none"
      stroke="#e18686"
      stroke-miterlimit="10"
      stroke-width="2"
    />
  </g>
  <g id="Layer_B104">
    <polygon
      points="833 143 711 143 711 407 924 407 924 262.5 833 262.5 833 143"
      fill="#f8cdce"
      stroke="#e18686"
      stroke-miterlimit="10"
      stroke-width="2"
    />
    <text
      transform="translate(747.95 355.61)"
      fill="#434142"
      font-family="NanumSquareNeovariable-Heavy, 'NanumSquare Neo variable'"
      font-size="22"
      font-variation-settings="'wght' 900"
      font-weight="800"
    >
      <tspan x="0" y="0">B104</tspan>
    </text>
  </g>
  <g id="Layer_B105">
    <rect
      x="833"
      y="143"
      width="91"
      height="119.5"
      transform="translate(1757 405.5) rotate(180)"
      fill="#f8cdce"
      stroke="#e18686"
      stroke-miterlimit="10"
      stroke-width="2"
    />
    <text
      transform="translate(848.78 211.73)"
      fill="#434142"
      font-family="NanumSquareNeovariable-Heavy, 'NanumSquare Neo variable'"
      font-size="22"
      font-variation-settings="'wght' 900"
      font-weight="800"
    >
      <tspan x="0" y="0">B105</tspan>
    </text>
  </g>
  <g id="Layer_B103">
    <rect
      x="460"
      y="143"
      width="251"
      height="264"
      fill="#f8cdce"
      stroke="#e18686"
      stroke-miterlimit="10"
      stroke-width="2"
    />
    <text
      transform="translate(554.92 264.88)"
      fill="#434142"
      font-family="NanumSquareNeovariable-Heavy, 'NanumSquare Neo variable'"
      font-size="22"
      font-variation-settings="'wght' 900"
      font-weight="800"
    >
      <tspan x="0" y="0">B103</tspan>
    </text>
    <text
      transform="translate(553.81 292.88)"
      fill="#434142"
      font-family="NanumSquareNeovariable-Regular, 'NanumSquare Neo variable'"
      font-size="22"
      font-variation-settings="'wght' 300"
    >
      <tspan x="0" y="0">기계실</tspan>
    </text>
  </g>
  <g id="Layer_B102">
    <rect
      x="305.88"
      y="212.61"
      width="45.9"
      height="107.34"
      transform="translate(-91.98 310.5) rotate(-45)"
      fill="#f8cdce"
      stroke="#e18686"
      stroke-miterlimit="10"
      stroke-width="2"
    />
    <text
      transform="translate(310.86 271)"
      fill="#434142"
      font-family="NanumSquareNeovariable-Heavy, 'NanumSquare Neo variable'"
      font-size="14"
      font-variation-settings="'wght' 900"
      font-weight="800"
    >
      <tspan x="0" y="0">B102</tspan>
    </text>
  </g>
  <g id="Layer_B101">
    <rect
      x="302.31"
      y="168.98"
      width="109.53"
      height="33.09"
      transform="translate(-26.6 306.83) rotate(-45)"
      fill="#f8cdce"
      stroke="#e18686"
      stroke-miterlimit="10"
      stroke-width="2"
    />
    <text
      transform="translate(350.48 175.7)"
      fill="#434142"
      font-family="NanumSquareNeovariable-Heavy, 'NanumSquare Neo variable'"
      font-size="10"
      font-variation-settings="'wght' 900"
      font-weight="800"
    >
      <tspan x="0" y="0">B101</tspan>
    </text>
    <text
      transform="translate(338.45 187.7)"
      fill="#434142"
      font-family="NanumSquareNeovariable-Regular, 'NanumSquare Neo variable'"
      font-size="10"
      font-variation-settings="'wght' 300"
    >
      <tspan x="0" y="0">여자샤워실</tspan>
    </text>
  </g>
</svg>
