<?xml version="1.0" encoding="UTF-8"?><svg xmlns="http://www.w3.org/2000/svg" viewBox="0 0 1800 1400"><defs><style>.cls-1{fill:#fdf2f2;stroke-width:5px;}.cls-1,.cls-2,.cls-3,.cls-4,.cls-5,.cls-6{stroke:#d88282;stroke-miterlimit:10;}.cls-7{letter-spacing:0em;}.cls-8{letter-spacing:-.02em;}.cls-9{letter-spacing:-.03em;}.cls-10{letter-spacing:-.03em;}.cls-11{font-size:18px;}.cls-11,.cls-12{fill:#434142;font-family:NanumSquareNeovariable-Heavy, 'NanumSquare Neo variable';font-variation-settings:'wght' 900;font-weight:800;}.cls-2{fill:#f5cbcc;}.cls-2,.cls-3{stroke-width:2px;}.cls-12{font-size:22px;}.cls-3,.cls-4,.cls-5,.cls-6{fill:none;}.cls-4{stroke-width:2.04px;}.cls-13{letter-spacing:0em;}.cls-5{stroke-width:2.19px;}.cls-14{letter-spacing:0em;}.cls-6{stroke-width:1.87px;}</style></defs><g id="Layer_border"><path class="cls-1" d="m1614.43,451.21h-51.09v-101.1h-328.82v43.55h-52.6v-43.55H446.01v-76.66h-206.7c.11,292.79.23,585.57.34,878.36h20.49v43.42h189.14v-46.67h107.44c-.02-91.69-.04-183.37-.06-275.06h398.16v-199.15c32.21,4.07,71.95,5.79,116.83.46,54.57-6.49,98.85-21.28,130.31-34.59h232v-23.91h125.29v-38.26h55.47c-.09-42.28-.19-84.57-.28-126.85Z"/></g><g id="Layer_others"><line class="cls-6" x1="330.72" y1="1170.17" x2="450.36" y2="1170.17"/><line class="cls-6" x1="361.44" y1="1148.69" x2="361.44" y2="1170.17"/><line class="cls-6" x1="366.63" y1="1148.69" x2="366.63" y2="1170.17"/><line class="cls-6" x1="371.82" y1="1148.69" x2="371.82" y2="1170.17"/><line class="cls-6" x1="377.01" y1="1148.69" x2="377.01" y2="1170.17"/><line class="cls-6" x1="382.2" y1="1148.69" x2="382.2" y2="1170.17"/><line class="cls-6" x1="387.39" y1="1148.69" x2="387.39" y2="1170.17"/><line class="cls-6" x1="392.58" y1="1148.69" x2="392.58" y2="1170.17"/><line class="cls-6" x1="397.78" y1="1148.69" x2="397.78" y2="1170.17"/><line class="cls-6" x1="402.97" y1="1148.69" x2="402.97" y2="1170.17"/><line class="cls-6" x1="408.16" y1="1148.69" x2="408.16" y2="1170.17"/><line class="cls-6" x1="413.35" y1="1148.69" x2="413.35" y2="1170.17"/><line class="cls-6" x1="418.54" y1="1148.69" x2="418.54" y2="1170.17"/><line class="cls-6" x1="361.44" y1="1193.92" x2="361.44" y2="1170.17"/><line class="cls-6" x1="366.63" y1="1193.92" x2="366.63" y2="1170.17"/><line class="cls-6" x1="371.82" y1="1193.92" x2="371.82" y2="1170.17"/><line class="cls-6" x1="377.01" y1="1193.92" x2="377.01" y2="1170.17"/><line class="cls-6" x1="382.2" y1="1193.92" x2="382.2" y2="1170.17"/><line class="cls-6" x1="387.39" y1="1193.92" x2="387.39" y2="1170.17"/><line class="cls-6" x1="392.59" y1="1193.92" x2="392.59" y2="1170.17"/><line class="cls-6" x1="397.78" y1="1193.92" x2="397.78" y2="1170.17"/><line class="cls-6" x1="402.97" y1="1193.92" x2="402.97" y2="1170.17"/><line class="cls-6" x1="408.16" y1="1193.92" x2="408.16" y2="1170.17"/><line class="cls-6" x1="413.35" y1="1193.92" x2="413.35" y2="1170.17"/><line class="cls-6" x1="418.54" y1="1193.92" x2="418.54" y2="1170.17"/><line class="cls-3" x1="1590.49" y1="452.87" x2="1590.49" y2="576.55"/><line class="cls-3" x1="1612.3" y1="468.58" x2="1590.49" y2="468.58"/><line class="cls-3" x1="1612.3" y1="474.88" x2="1590.49" y2="474.88"/><line class="cls-3" x1="1612.3" y1="481.18" x2="1590.49" y2="481.18"/><line class="cls-3" x1="1612.3" y1="487.49" x2="1590.49" y2="487.49"/><line class="cls-3" x1="1612.3" y1="493.79" x2="1590.49" y2="493.79"/><line class="cls-3" x1="1612.3" y1="500.09" x2="1590.49" y2="500.09"/><line class="cls-3" x1="1612.3" y1="506.39" x2="1590.49" y2="506.39"/><line class="cls-3" x1="1612.3" y1="512.7" x2="1590.49" y2="512.7"/><line class="cls-3" x1="1612.3" y1="519" x2="1590.49" y2="519"/><line class="cls-3" x1="1612.3" y1="525.3" x2="1590.49" y2="525.3"/><line class="cls-3" x1="1612.3" y1="531.61" x2="1590.49" y2="531.61"/><line class="cls-3" x1="1612.3" y1="537.91" x2="1590.49" y2="537.91"/><line class="cls-3" x1="1566.39" y1="468.58" x2="1590.49" y2="468.58"/><line class="cls-3" x1="1566.39" y1="474.88" x2="1590.49" y2="474.88"/><line class="cls-3" x1="1566.39" y1="481.19" x2="1590.49" y2="481.19"/><line class="cls-3" x1="1566.39" y1="487.49" x2="1590.49" y2="487.49"/><line class="cls-3" x1="1566.39" y1="493.79" x2="1590.49" y2="493.79"/><line class="cls-3" x1="1566.39" y1="500.09" x2="1590.49" y2="500.09"/><line class="cls-3" x1="1566.39" y1="506.4" x2="1590.49" y2="506.4"/><line class="cls-3" x1="1566.39" y1="512.7" x2="1590.49" y2="512.7"/><line class="cls-3" x1="1566.39" y1="519" x2="1590.49" y2="519"/><line class="cls-3" x1="1566.39" y1="525.3" x2="1590.49" y2="525.3"/><line class="cls-3" x1="1566.39" y1="531.61" x2="1590.49" y2="531.61"/><line class="cls-3" x1="1566.39" y1="537.91" x2="1590.49" y2="537.91"/><path class="cls-4" d="m1048.35,601.4c-25.65.49-51.29.99-76.94,1.48.04,5.02.08,10.04.12,15.07h86.23l75.25-10.65v-5.9h-65.84"/><polyline class="cls-4" points="975.3 628.88 1044.37 628.88 1044.37 651.12 975.3 651.12"/><line class="cls-3" x1="975.3" y1="617.94" x2="975.3" y2="661.05"/><line class="cls-3" x1="981.3" y1="617.94" x2="981.3" y2="661.05"/><line class="cls-3" x1="987.3" y1="617.94" x2="987.3" y2="661.05"/><line class="cls-3" x1="993.3" y1="617.94" x2="993.3" y2="661.05"/><line class="cls-3" x1="999.3" y1="617.94" x2="999.3" y2="661.05"/><line class="cls-3" x1="1005.3" y1="617.94" x2="1005.3" y2="661.05"/><line class="cls-3" x1="1011.3" y1="617.94" x2="1011.3" y2="661.05"/><line class="cls-3" x1="1017.3" y1="617.94" x2="1017.3" y2="661.05"/><line class="cls-3" x1="1023.3" y1="617.94" x2="1023.3" y2="661.05"/><line class="cls-3" x1="1029.3" y1="617.94" x2="1029.3" y2="661.05"/><line class="cls-3" x1="1035.3" y1="617.94" x2="1035.3" y2="661.05"/><line class="cls-3" x1="1073.23" y1="616.55" x2="1078.89" y2="655.24"/><line class="cls-3" x1="1079.17" y1="615.68" x2="1084.83" y2="654.37"/><line class="cls-3" x1="1085.1" y1="614.81" x2="1090.77" y2="653.5"/><line class="cls-3" x1="1091.04" y1="613.94" x2="1096.7" y2="652.63"/><line class="cls-3" x1="1096.98" y1="613.07" x2="1102.64" y2="651.76"/><line class="cls-3" x1="1102.91" y1="612.2" x2="1108.58" y2="650.89"/><line class="cls-3" x1="1108.85" y1="611.34" x2="1114.51" y2="650.02"/><line class="cls-3" x1="1114.79" y1="610.47" x2="1120.45" y2="649.16"/><line class="cls-3" x1="1120.72" y1="609.6" x2="1126.39" y2="648.29"/><line class="cls-3" x1="1126.66" y1="608.73" x2="1132.32" y2="647.42"/><line class="cls-3" x1="1132.6" y1="607.86" x2="1138.26" y2="646.55"/><polyline class="cls-3" points="1139.96 616.77 1064.57 627.8 1067.79 649.8 1143.18 638.77"/><polygon class="cls-4" points="1067.16 607.29 1048.35 607.29 1048.35 601.4 1048.35 588.48 1067.16 588.48 1067.16 607.29"/><line class="cls-3" x1="547.85" y1="450.57" x2="547.85" y2="562.53"/><line class="cls-3" x1="573.9" y1="476.85" x2="547.85" y2="476.85"/><line class="cls-3" x1="573.9" y1="481.86" x2="547.85" y2="481.86"/><line class="cls-3" x1="573.9" y1="486.86" x2="547.85" y2="486.86"/><line class="cls-3" x1="573.9" y1="491.86" x2="547.85" y2="491.86"/><line class="cls-3" x1="573.9" y1="496.86" x2="547.85" y2="496.86"/><line class="cls-3" x1="573.9" y1="501.86" x2="547.85" y2="501.86"/><line class="cls-3" x1="573.9" y1="506.86" x2="547.85" y2="506.86"/><line class="cls-3" x1="573.9" y1="511.86" x2="547.85" y2="511.86"/><line class="cls-3" x1="573.9" y1="516.87" x2="547.85" y2="516.87"/><line class="cls-3" x1="573.9" y1="521.87" x2="547.85" y2="521.87"/><line class="cls-3" x1="573.9" y1="526.87" x2="547.85" y2="526.87"/><line class="cls-3" x1="573.9" y1="531.87" x2="547.85" y2="531.87"/><line class="cls-3" x1="519.08" y1="476.86" x2="547.85" y2="476.86"/><line class="cls-3" x1="519.08" y1="481.86" x2="547.85" y2="481.86"/><line class="cls-3" x1="519.08" y1="486.86" x2="547.85" y2="486.86"/><line class="cls-3" x1="519.08" y1="491.86" x2="547.85" y2="491.86"/><line class="cls-3" x1="519.08" y1="496.86" x2="547.85" y2="496.86"/><line class="cls-3" x1="519.08" y1="501.86" x2="547.85" y2="501.86"/><line class="cls-3" x1="519.08" y1="506.86" x2="547.85" y2="506.86"/><line class="cls-3" x1="519.08" y1="511.86" x2="547.85" y2="511.86"/><line class="cls-3" x1="519.08" y1="516.87" x2="547.85" y2="516.87"/><line class="cls-3" x1="519.08" y1="521.87" x2="547.85" y2="521.87"/><line class="cls-3" x1="519.08" y1="526.87" x2="547.85" y2="526.87"/><line class="cls-3" x1="519.08" y1="531.87" x2="547.85" y2="531.87"/><rect class="cls-3" x="486.93" y="489.72" width="26.67" height="32.51"/><rect class="cls-3" x="486.93" y="528.87" width="26.67" height="32.51"/><rect class="cls-3" x="562.99" y="407.21" width="46.29" height="37.75"/><rect class="cls-3" x="614.37" y="407.21" width="46.29" height="37.75"/><line class="cls-3" x1="421.75" y1="618.63" x2="421.75" y2="435.53"/><rect class="cls-3" x="355.79" y="398.35" width="65.96" height="56.06"/><rect class="cls-3" x="355.79" y="454.41" width="65.96" height="42.45"/><line class="cls-3" x1="448.18" y1="454.41" x2="421.75" y2="454.41"/><polyline class="cls-3" points="519.08 450.57 473.03 450.57 473.03 483.04"/><line class="cls-3" x1="519.08" y1="481.86" x2="440.07" y2="481.86"/><polyline class="cls-3" points="562.99 377.55 540.61 377.55 540.61 435.53"/><line class="cls-3" x1="523.21" y1="403.02" x2="540.61" y2="403.02"/><path class="cls-3" d="m564.26,638.26c8.67-.28,17.34-.56,26.01-.84,1.36,18.94,6.01,49.25,22.74,82.1,11.67,22.93,25.55,39.87,36.63,51.37"/><line class="cls-3" x1="613.57" y1="643.42" x2="591.64" y2="650.77"/><line class="cls-3" x1="614.81" y1="649.99" x2="592.65" y2="657.48"/><line class="cls-3" x1="616.38" y1="656.92" x2="593.95" y2="664.57"/><line class="cls-3" x1="617.98" y1="663.07" x2="595.34" y2="671.01"/><line class="cls-3" x1="619.85" y1="669.44" x2="596.99" y2="677.64"/><line class="cls-3" x1="621.86" y1="675.58" x2="598.77" y2="683.93"/><line class="cls-3" x1="624.39" y1="682.51" x2="600.96" y2="690.84"/><line class="cls-3" x1="626.82" y1="688.63" x2="603.73" y2="697.11"/><line class="cls-3" x1="628.85" y1="695.38" x2="605.94" y2="704.15"/><line class="cls-3" x1="632.41" y1="700.95" x2="609.19" y2="711.63"/><line class="cls-3" x1="635.12" y1="706.29" x2="612.67" y2="717.56"/><line class="cls-3" x1="637.43" y1="711.92" x2="615.28" y2="723.86"/><line class="cls-3" x1="640.8" y1="716.75" x2="618.46" y2="729.8"/><line class="cls-3" x1="644.12" y1="722.17" x2="622" y2="735.64"/><line class="cls-3" x1="648.48" y1="727.6" x2="625.9" y2="741.48"/><line class="cls-3" x1="650.91" y1="733.34" x2="629.33" y2="747.65"/><line class="cls-3" x1="654.87" y1="738.61" x2="634.19" y2="752.99"/><line class="cls-3" x1="659.19" y1="744.01" x2="639.12" y2="759.14"/><line class="cls-3" x1="663.71" y1="748.96" x2="643.63" y2="764.1"/><line class="cls-3" x1="669.23" y1="754.65" x2="649.16" y2="769.78"/><polyline class="cls-3" points="1441.34 378.69 1475.18 378.69 1475.18 468.46"/><rect class="cls-3" x="1441.34" y="378.69" width="33.84" height="37.68"/><polyline class="cls-3" points="450.48 608.41 562.9 608.41 562.9 873.5"/><rect class="cls-3" x="562.99" y="351.25" width="97.67" height="55.96"/><rect class="cls-3" x="519.08" y="450.57" width="54.82" height="110.81"/><polygon class="cls-3" points="330.72 1088.19 241.29 1088.19 241.29 1148.69 261.7 1148.69 261.7 1193.92 330.61 1193.92 330.61 1148.69 330.72 1148.69 330.72 1088.19"/></g><g id="Layer_toilet1"><rect class="cls-3" x="444.79" y="351.25" width="42.14" height="84.27"/></g><g id="Layer_toilet2"><rect class="cls-3" x="486.93" y="351.25" width="35.46" height="84.27" transform="translate(1009.31 786.78) rotate(180)"/></g><g id="Layer_toilet3"><rect class="cls-5" x="1475.18" y="498.38" width="91.21" height="46.56"/></g><g id="Layer_toilet4"><rect class="cls-3" x="1475.18" y="468.46" width="91.21" height="29.91"/></g><g id="Layer_509"><rect class="cls-2" x="355.34" y="1088.19" width="95.26" height="58.9"/><text class="cls-12" transform="translate(378.29 1123.07)"><tspan x="0" y="0">509</tspan></text></g><g id="Layer_508"><polygon class="cls-2" points="450.36 1056.05 450.36 1032.05 377.01 1032.05 377.01 1056.05 355.34 1056.05 355.34 1088.19 450.59 1088.19 450.59 1056.05 450.36 1056.05"/><text class="cls-12" transform="translate(378.93 1070.21)"><tspan x="0" y="0">508</tspan></text></g><g id="Layer_507"><rect class="cls-2" x="355.34" y="972.34" width="95.02" height="59.71"/><text class="cls-12" transform="translate(380.02 1009.33)"><tspan x="0" y="0">507</tspan></text></g><g id="Layer_506"><rect class="cls-2" x="355.46" y="912.63" width="95.02" height="59.71"/><text class="cls-12" transform="translate(379.14 949.62)"><tspan x="0" y="0">506</tspan></text></g><g id="Layer_505"><polygon class="cls-2" points="355.46 848.01 355.46 880.32 379.33 880.32 379.33 912.63 450.48 912.63 450.48 880.32 450.48 848.01 355.46 848.01"/><text class="cls-12" transform="translate(391.18 886.77)"><tspan x="0" y="0">505</tspan></text></g><g id="Layer_504"><polygon class="cls-2" points="355.46 848.01 355.46 818.38 379.33 818.38 379.33 788.75 450.48 788.75 450.48 818.38 450.48 848.01 355.46 848.01"/><text class="cls-12" transform="translate(390.67 826.55)"><tspan x="0" y="0">504</tspan></text></g><g id="Layer_503"><rect class="cls-2" x="355.46" y="734.34" width="95.02" height="54.41"/><text class="cls-12" transform="translate(379.01 767.85)"><tspan x="0" y="0">503</tspan></text></g><g id="Layer_502"><rect class="cls-2" x="355.34" y="679.93" width="95.02" height="54.41"/><text class="cls-12" transform="translate(379.15 713.44)"><tspan x="0" y="0">502</tspan></text></g><g id="Layer_501"><polygon class="cls-2" points="355.46 608.41 355.46 643.46 377.24 643.46 377.24 679.93 450.48 679.93 450.48 643.46 450.48 608.41 355.46 608.41"/><text class="cls-12" transform="translate(390.71 650.77)"><tspan x="0" y="0">501</tspan></text></g><g id="Layer_511"><polygon class="cls-2" points="241.51 1056.05 241.51 1032.05 310.37 1032.05 310.37 1056.05 330.72 1056.05 330.72 1088.19 241.29 1088.19 241.29 1056.05 241.51 1056.05"/><text class="cls-12" transform="translate(262.38 1070.21)"><tspan class="cls-13" x="0" y="0">5</tspan><tspan x="15.16" y="0">11</tspan></text></g><g id="Layer_512"><rect class="cls-2" x="241.4" y="972.34" width="89.21" height="59.71"/><text class="cls-12" transform="translate(265.16 1007.91)"><tspan class="cls-13" x="0" y="0">5</tspan><tspan x="15.16" y="0">12</tspan></text></g><g id="Layer_513"><rect class="cls-2" x="241.4" y="912.63" width="89.21" height="59.71"/><text class="cls-12" transform="translate(264.91 948.2)"><tspan class="cls-13" x="0" y="0">5</tspan><tspan x="15.16" y="0">13</tspan></text></g><g id="Layer_514"><polygon class="cls-2" points="330.61 848.01 330.61 880.32 308.19 880.32 308.19 912.63 241.4 912.63 241.4 880.32 241.4 848.01 330.61 848.01"/><text class="cls-12" transform="translate(255.79 886.77)"><tspan class="cls-13" x="0" y="0">5</tspan><tspan x="15.16" y="0">14</tspan></text></g><g id="Layer_515"><polygon class="cls-2" points="330.61 848.01 330.61 818.38 308.19 818.38 308.19 788.75 241.4 788.75 241.4 818.38 241.4 848.01 330.61 848.01"/><text class="cls-12" transform="translate(255.43 829.22)"><tspan class="cls-13" x="0" y="0">5</tspan><tspan x="15.16" y="0">15</tspan></text></g><g id="Layer_516"><rect class="cls-2" x="241.4" y="734.34" width="89.21" height="54.41"/><text class="cls-12" transform="translate(263.38 767.85)"><tspan class="cls-13" x="0" y="0">5</tspan><tspan x="15.16" y="0">16</tspan></text></g><g id="Layer_517"><rect class="cls-2" x="241.4" y="679.93" width="89.21" height="54.41"/><text class="cls-12" transform="translate(264.37 713.44)"><tspan class="cls-13" x="0" y="0">5</tspan><tspan x="15.16" y="0">17</tspan></text></g><g id="Layer_518"><polygon class="cls-2" points="330.61 608.41 330.61 643.46 310.16 643.46 310.16 679.93 241.4 679.93 241.4 643.46 241.4 608.41 330.61 608.41"/><text class="cls-12" transform="translate(255.52 650.77)"><tspan class="cls-13" x="0" y="0">5</tspan><tspan x="15.16" y="0">18</tspan></text></g><g id="Layer_519"><polygon class="cls-2" points="330.61 608.41 330.61 581.74 310.16 581.74 310.16 554 241.4 554 241.4 581.74 241.4 608.41 330.61 608.41"/><text class="cls-12" transform="translate(255.73 590.42)"><tspan class="cls-13" x="0" y="0">5</tspan><tspan x="15.16" y="0">19</tspan></text></g><g id="Layer_520"><rect class="cls-2" x="241.4" y="501.72" width="89.21" height="52.28"/><text class="cls-12" transform="translate(260.96 533.38)"><tspan x="0" y="0">520</tspan></text></g><g id="Layer_521"><rect class="cls-2" x="241.47" y="455.68" width="89.21" height="52.28"/><text class="cls-12" transform="translate(263.59 487.34)"><tspan x="0" y="0">521</tspan></text></g><g id="Layer_522"><rect class="cls-2" x="241.47" y="379.71" width="89.21" height="75.97"/><text class="cls-12" transform="translate(261.55 425.14)"><tspan x="0" y="0">522</tspan></text></g><g id="Layer_523"><rect class="cls-2" x="241.47" y="276.34" width="65.08" height="103.37"/><text class="cls-12" transform="translate(250.69 332.49)"><tspan x="0" y="0">523</tspan></text></g><g id="Layer_524"><rect class="cls-2" x="306.55" y="276.34" width="56.09" height="88.54" transform="translate(669.2 641.22) rotate(180)"/><text class="cls-12" transform="translate(311.67 332.49)"><tspan x="0" y="0">5</tspan><tspan class="cls-10" x="15.38" y="0">2</tspan><tspan x="30.1" y="0">4</tspan></text></g><g id="Layer_525"><rect class="cls-2" x="362.64" y="276.34" width="82.14" height="122.01"/><text class="cls-12" transform="translate(380.65 332.49)"><tspan x="0" y="0">525</tspan></text></g><g id="Layer_529"><polygon class="cls-2" points="837.42 351.25 837.42 450.57 875.22 450.57 875.22 496.86 914.02 496.86 914.02 538.4 990.61 538.4 990.61 496.86 990.61 461.8 990.61 450.57 990.61 416.71 990.61 351.25 837.42 351.25"/><text class="cls-12" transform="translate(890.71 425.14)"><tspan x="0" y="0">529</tspan></text></g><g id="Layer_530"><rect class="cls-2" x="990.61" y="351.25" width="191.31" height="187.15"/><text class="cls-12" transform="translate(1062.44 426.38)"><tspan x="0" y="0">530</tspan></text></g><g id="Layer_531"><rect class="cls-2" x="1237.33" y="351.25" width="204.01" height="187.15"/><text class="cls-12" transform="translate(1318.16 423.58)"><tspan x="0" y="0">5</tspan><tspan class="cls-13" x="15.38" y="0">3</tspan><tspan x="31.04" y="0">1</tspan></text></g><g id="Layer_534"><text class="cls-12" transform="translate(732.03 679.93)"><tspan x="0" y="0">534</tspan></text><path class="cls-3" d="m869.04,581.42c-4.7-7.78-9.77-15.13-15.15-22.06-23.75-30.56-53.59-52.57-84.42-64.05l-16.78,53.68-72.18,35.4-65.56-9.64h0c-7.23,30.62-5.11,65.99,6.95,100.95,4.99,14.49,11.69,28.9,20.13,42.88,49.61,82.11,140.64,117.97,203.32,80.1s73.29-135.14,23.69-217.25Z"/></g><g id="Layer_조정실"><path class="cls-3" d="m680.51,584.38l72.18-35.4,16.78-53.68c-35.93-13.38-73.21-12.45-103.76,6.01-26.27,15.87-43.39,42.18-50.76,73.42l65.56,9.64Z"/><text class="cls-11" transform="translate(656.67 533.38)"><tspan x="0" y="0">Co</tspan><tspan class="cls-14" x="26.06" y="0">n</tspan><tspan x="38" y="0">t</tspan><tspan class="cls-9" x="46.15" y="0">r</tspan><tspan class="cls-7" x="53.8" y="0">ol</tspan><tspan class="cls-8" x="8.23" y="21.6">R</tspan><tspan x="21.38" y="21.6">oom</tspan></text></g></svg>