<?xml version="1.0" encoding="UTF-8"?><svg xmlns="http://www.w3.org/2000/svg" viewBox="0 0 1800 1400"><defs><style>.cls-1{fill:#f5cbcc;}.cls-1,.cls-2,.cls-3,.cls-4,.cls-5{stroke-miterlimit:10;}.cls-1,.cls-3{stroke-width:2px;}.cls-1,.cls-3,.cls-4,.cls-5{stroke:#d88282;}.cls-2{fill:#fdf3f2;stroke:#e18686;stroke-width:9px;}.cls-6{font-family:NanumSquareNeovariable-Heavy, 'NanumSquare Neo variable';font-size:26px;font-variation-settings:'wght' 900;font-weight:800;}.cls-6,.cls-7{fill:#434142;}.cls-3,.cls-4,.cls-5{fill:none;}.cls-7{font-family:NanumSquareNeovariable-Regular, 'NanumSquare Neo variable';font-size:22px;font-variation-settings:'wght' 300;}.cls-8{letter-spacing:0em;}.cls-9{letter-spacing:0em;}.cls-4{stroke-width:1.91px;}.cls-5{stroke-width:1.96px;}</style></defs><g id="Layer_border"><path class="cls-2" d="m715.64,352.88v338.45H245.92v420.19h458.05v-34.4h54.94v34.4h749.64v-420.19c-.13-112.92-.26-225.83-.4-338.75-264.18.1-528.35.2-792.53.3Z"/><rect class="cls-2" x="390.61" y="632.5" width="162.37" height="58.84"/></g><g id="Layer_others"><line class="cls-3" x1="1348.24" y1="703.14" x2="1348.24" y2="795.72"/><line class="cls-3" x1="1356.24" y1="703.14" x2="1356.24" y2="795.72"/><line class="cls-3" x1="1364.24" y1="703.14" x2="1364.24" y2="795.72"/><line class="cls-3" x1="1372.24" y1="703.14" x2="1372.24" y2="795.72"/><line class="cls-3" x1="1380.24" y1="703.14" x2="1380.24" y2="795.72"/><line class="cls-3" x1="1388.24" y1="703.14" x2="1388.24" y2="795.72"/><line class="cls-3" x1="1396.24" y1="703.14" x2="1396.24" y2="795.72"/><line class="cls-3" x1="1404.24" y1="703.14" x2="1404.24" y2="795.72"/><line class="cls-3" x1="1412.24" y1="703.14" x2="1412.24" y2="795.72"/><line class="cls-3" x1="1420.24" y1="703.14" x2="1420.24" y2="795.72"/><line class="cls-3" x1="1428.24" y1="703.14" x2="1428.24" y2="795.72"/><rect class="cls-5" x="1291.33" y="703.14" width="212.08" height="92.58"/><rect class="cls-4" x="1074.72" y="739.71" width="83.62" height="83.62"/><line class="cls-3" x1="818.94" y1="709.58" x2="818.94" y2="802.16"/><line class="cls-3" x1="826.94" y1="709.58" x2="826.94" y2="802.16"/><line class="cls-3" x1="834.94" y1="709.58" x2="834.94" y2="802.16"/><line class="cls-3" x1="842.94" y1="709.58" x2="842.94" y2="802.16"/><line class="cls-3" x1="850.94" y1="709.58" x2="850.94" y2="802.16"/><line class="cls-3" x1="858.94" y1="709.58" x2="858.94" y2="802.16"/><line class="cls-3" x1="866.94" y1="709.58" x2="866.94" y2="802.16"/><line class="cls-3" x1="874.94" y1="709.58" x2="874.94" y2="802.16"/><line class="cls-3" x1="882.94" y1="709.58" x2="882.94" y2="802.16"/><line class="cls-3" x1="890.94" y1="709.58" x2="890.94" y2="802.16"/><line class="cls-3" x1="898.94" y1="709.58" x2="898.94" y2="802.16"/><rect class="cls-3" x="762.6" y="709.58" width="181.01" height="92.58"/><line class="cls-3" x1="378.72" y1="691.69" x2="402.5" y2="691.69"/><line class="cls-3" x1="700.2" y1="1078.95" x2="700.2" y2="692.9"/><rect class="cls-3" x="357.09" y="790.29" width="238.17" height="230.64"/><rect class="cls-3" x="297.18" y="732.28" width="357.99" height="346.67"/><line class="cls-3" x1="717.05" y1="691.33" x2="717.05" y2="1077.13"/></g><g id="Layer_toilet1"><rect class="cls-3" x="762.6" y="599.14" width="181.01" height="110.44"/></g><g id="Layer_toilet2"><rect class="cls-3" x="762.6" y="802.16" width="181.01" height="117.7"/></g><g id="Layer_301"><polygon class="cls-1" points="1001.23 904.71 1001.23 872.44 943.61 872.44 943.61 919.86 866.94 919.86 866.94 1111.52 1235.56 1111.52 1235.56 963.3 1235.56 919.86 1235.56 904.71 1001.23 904.71"/><text class="cls-6" transform="translate(1025.49 991.98)"><tspan x="0" y="0">301</tspan></text><text class="cls-7" transform="translate(959.73 1025.99)"><tspan class="cls-9" x="0" y="0">S</tspan><tspan x="14.89" y="0">tude</tspan><tspan class="cls-9" x="65.98" y="0">n</tspan><tspan x="79.68" y="0">tSucc</tspan><tspan class="cls-9" x="144.41" y="0">e</tspan><tspan x="158" y="0">ss</tspan><tspan x="53.82" y="26.4">Ce</tspan><tspan class="cls-9" x="84.14" y="26.4">nt</tspan><tspan class="cls-8" x="106.6" y="26.4">er</tspan></text></g><g id="Layer_301A"><rect class="cls-1" x="762.6" y="959.42" width="104.34" height="152.11"/><text class="cls-6" transform="translate(778.63 1038.3)"><tspan x="0" y="0">301A</tspan></text></g><g id="Layer_301B"><rect class="cls-1" x="762.6" y="919.86" width="104.34" height="39.56"/><text class="cls-6" transform="translate(779.11 947.87)"><tspan x="0" y="0">301B</tspan></text></g><g id="Layer_302"><rect class="cls-1" x="762.6" y="357.78" width="241.36" height="241.36"/><text class="cls-6" transform="translate(855.11 450.12)"><tspan x="0" y="0">302</tspan></text><text class="cls-7" transform="translate(807.61 486.97)"><tspan x="0" y="0">커리어 네트워크</tspan><tspan x="36.67" y="26.4">라운지 1</tspan></text></g><g id="Layer_303"><rect class="cls-1" x="1003.96" y="357.78" width="287.37" height="177.21" transform="translate(2295.28 892.78) rotate(180)"/><text class="cls-6" transform="translate(1119.17 421.19)"><tspan x="0" y="0">303</tspan></text><text class="cls-7" transform="translate(1071.97 458.04)"><tspan x="0" y="0">커리어 네트워크</tspan><tspan x="34.31" y="26.4">라운지 2</tspan></text></g><g id="Layer_304"><rect class="cls-1" x="1291.33" y="357.78" width="212.08" height="235.05"/><text class="cls-6" transform="translate(1370.17 446.18)"><tspan x="0" y="0">304</tspan></text><text class="cls-7" transform="translate(1322.9 483.03)"><tspan x="0" y="0">커리어 네트워크</tspan><tspan x="34.13" y="26.4">라운지 3</tspan></text></g><g id="Layer_305"><rect class="cls-1" x="1291.33" y="592.83" width="212.08" height="110.3"/><text class="cls-6" transform="translate(1367.84 629.56)"><tspan x="0" y="0">304</tspan></text><text class="cls-7" transform="translate(1320.57 659.33)"><tspan x="0" y="0">커리어 네트워크</tspan><tspan x="33.84" y="26.4">라운지 4</tspan></text></g><g id="Layer_김정호_플로어"><path class="cls-3" d="m1003.96,535v64.15h-60.35v273.29h57.57v33.18h290.15v-370.62c-95.79,0-191.58,0-287.37,0Z"/><text class="cls-6" transform="translate(1064.43 662.8)"><tspan x="0" y="0">김정호 플로어</tspan></text></g><g id="Layer_306"><polygon class="cls-1" points="1291.33 795.72 1291.33 904.71 1235.56 904.71 1235.56 1111.52 1508.56 1111.52 1508.56 904.71 1508.56 795.72 1291.33 795.72"/><text class="cls-6" transform="translate(1343.78 943.05)"><tspan x="0" y="0">306</tspan></text><text class="cls-7" transform="translate(1283.47 975.78)"><tspan x="0" y="0">커리어 전문 상담실</tspan></text><rect class="cls-1" x="1380.24" y="795.72" width="128.32" height="108.99"/><rect class="cls-1" x="1235.56" y="995.12" width="87.83" height="116.4"/><rect class="cls-1" x="1323.39" y="995.12" width="93.13" height="116.4" transform="translate(2739.91 2106.65) rotate(180)"/><rect class="cls-1" x="1416.52" y="995.12" width="92.04" height="116.4"/><text class="cls-7" transform="translate(1248.36 1060.35)"><tspan x="0" y="0">306B</tspan></text><text class="cls-7" transform="translate(1338.68 1060.35)"><tspan x="0" y="0">306C</tspan></text><text class="cls-7" transform="translate(1431.09 1060.35)"><tspan x="0" y="0">306D</tspan></text><text class="cls-7" transform="translate(1413.04 855.84)"><tspan x="0" y="0">306A</tspan></text></g></svg>