<?xml version="1.0" encoding="UTF-8"?>
<svg
  xmlns="http://www.w3.org/2000/svg"
  version="1.1"
  viewBox="0 0 4083.1 2452.9"
>
  <defs>
    <style>
      .cls-1 {
        fill: none;
      }

      .cls-1,
      .cls-2,
      .cls-3 {
        stroke: #e38789;
        stroke-miterlimit: 10;
      }

      .cls-1,
      .cls-3 {
        stroke-width: 3px;
      }

      .cls-4 {
        fill: #221f20;
        font-family: NanumSquareNeoTTF-dEb, "NanumSquare Neo";
        font-size: 36px;
      }

      .cls-4,
      .cls-5 {
        isolation: isolate;
      }

      .cls-2 {
        fill: #fcf4f3;
        stroke-width: 10px;
      }

      .cls-3 {
        fill: #f4d1d1;
      }
    </style>
  </defs>
  <!-- Generator: Adobe Illustrator 28.6.0, SVG Export Plug-In . SVG Version: 1.2.0 Build 709)  -->
  <g>
    <g id="_x32_">
      <g id="Layer_x5F_border">
        <rect class="cls-2" x="348.8" y="597.5" width="3419" height="1178.4" />
      </g>
      <g id="Layer_33">
        <rect class="cls-3" x="348.8" y="1271.1" width="265.5" height="155.4" />
        <g class="cls-5">
          <text class="cls-4" transform="translate(443.1 1356.8)">
            <tspan x="0" y="0">230</tspan>
          </text>
        </g>
      </g>
      <g id="Layer_34">
        <rect class="cls-3" x="348.8" y="1426.5" width="265.5" height="183.8" />
        <g class="cls-5">
          <text class="cls-4" transform="translate(443.9 1503.2)">
            <tspan x="0" y="0">229</tspan>
          </text>
          <text class="cls-4" transform="translate(430.3 1546.4)">
            <tspan x="0" y="0">회의실</tspan>
          </text>
        </g>
      </g>
      <g id="Layer_35">
        <rect class="cls-3" x="348.8" y="1610.4" width="265.5" height="165.6" />
        <g class="cls-5">
          <text class="cls-4" transform="translate(429.7 1688.2)">
            <tspan x="0" y="0">229A</tspan>
          </text>
          <text class="cls-4" transform="translate(430.3 1731.4)">
            <tspan x="0" y="0">장비실</tspan>
          </text>
        </g>
      </g>
      <g id="Layer_36">
        <g class="cls-5">
          <text class="cls-4" transform="translate(1016.4 1175.9)">
            <tspan x="0" y="0">213-228</tspan>
          </text>
          <text class="cls-4" transform="translate(960.3 1219.1)">
            <tspan x="0" y="0">일진창업지원센터</tspan>
          </text>
        </g>
        <polyline
          class="cls-1"
          points="1592.7 931.1 1592.7 1116.9 1820.4 1116.9 1820.4 595.6 602 601.5 602 1088.8 348.8 1088.8 348.8 1271.1 614.2 1271.1 614.2 1776 1592.7 1776 1592.7 1273.2 1820.4 1271.1"
        />
      </g>
      <g id="Layer_37">
        <rect
          class="cls-3"
          x="1592.7"
          y="1273.2"
          width="1188.1"
          height="502.7"
        />
        <g class="cls-5">
          <text class="cls-4" transform="translate(2152.2 1524.6)">
            <tspan x="0" y="0">201</tspan>
          </text>
          <text class="cls-4" transform="translate(2096.9 1567.8)">
            <tspan x="0" y="0">더 스테이지</tspan>
          </text>
        </g>
      </g>
      <g id="Layer_38">
        <rect
          class="cls-3"
          x="2780.8"
          y="1452.7"
          width="253.9"
          height="323.3"
        />
        <g class="cls-5">
          <text class="cls-4" transform="translate(2875.1 1603.4)">
            <tspan x="0" y="0">203</tspan>
          </text>
          <text class="cls-4" transform="translate(2862.3 1646.6)">
            <tspan x="0" y="0">행정실</tspan>
          </text>
        </g>
      </g>
      <g id="Layer_39">
        <rect class="cls-3" x="3034.6" y="1511.7" width="235" height="264.2" />
        <g class="cls-5">
          <text class="cls-4" transform="translate(3117.6 1640.8)">
            <tspan x="0" y="0">204</tspan>
          </text>
          <text class="cls-4" transform="translate(3105 1684)">
            <tspan x="0" y="0">연구실</tspan>
          </text>
        </g>
      </g>
      <g id="Layer_40">
        <rect
          class="cls-3"
          x="3269.6"
          y="1511.7"
          width="227.9"
          height="264.2"
        />
        <g class="cls-5">
          <text class="cls-4" transform="translate(3349.5 1637.8)">
            <tspan x="0" y="0">205</tspan>
          </text>
          <text class="cls-4" transform="translate(3336.4 1681)">
            <tspan x="0" y="0">연구실</tspan>
          </text>
        </g>
      </g>
      <g id="Layer_41">
        <rect
          class="cls-3"
          x="3497.6"
          y="1452.7"
          width="270.2"
          height="323.3"
        />
        <g class="cls-5">
          <text class="cls-4" transform="translate(3598 1609.6)">
            <tspan x="0" y="0">206</tspan>
          </text>
          <text class="cls-4" transform="translate(3566.7 1652.8)">
            <tspan x="0" y="0">미팅룸 A</tspan>
          </text>
        </g>
      </g>
      <g id="Layer_42">
        <rect
          class="cls-3"
          x="3497.6"
          y="1268.5"
          width="270.2"
          height="184.2"
        />
        <g class="cls-5">
          <text class="cls-4" transform="translate(3595.7 1360.6)">
            <tspan x="0" y="0">207</tspan>
          </text>
          <text class="cls-4" transform="translate(3581.5 1403.8)">
            <tspan x="0" y="0">원장실</tspan>
          </text>
        </g>
      </g>
      <g id="Layer_43">
        <g class="cls-5">
          <text class="cls-4" transform="translate(3114.1 1311.7)">
            <tspan x="0" y="0">202</tspan>
          </text>
          <text class="cls-4" transform="translate(3101 1354.9)">
            <tspan x="0" y="0">행정실</tspan>
          </text>
        </g>
        <polygon
          class="cls-1"
          points="2780.8 1088.8 2780.8 1452.7 3034.6 1452.7 3034.6 1511.7 3497.6 1511.7 3497.6 1268.5 3767.8 1268.5 3767.8 1088.8 2780.8 1088.8"
        />
        <rect class="cls-3" x="3111.4" y="597.5" width="419" height="491.3" />
        <g class="cls-5">
          <text class="cls-4" transform="translate(3282.6 843.2)">
            <tspan x="0" y="0">208</tspan>
          </text>
          <text class="cls-4" transform="translate(3251.9 886.4)">
            <tspan x="0" y="0">미팅룸 C</tspan>
          </text>
        </g>
      </g>
      <g id="Layer_44">
        <rect class="cls-3" x="2780.8" y="895.1" width="330.6" height="193.8" />
        <g class="cls-5">
          <text class="cls-4" transform="translate(2915.1 972.7)">
            <tspan x="0" y="0">210</tspan>
          </text>
          <text class="cls-4" transform="translate(2898.5 1015.9)">
            <tspan x="0" y="0">탕비실</tspan>
          </text>
        </g>
      </g>
      <g id="Layer_45">
        <rect class="cls-3" x="2780.8" y="597.5" width="330.6" height="297.5" />
        <g class="cls-5">
          <text class="cls-4" transform="translate(2909.1 746.3)">
            <tspan x="0" y="0">209</tspan>
          </text>
          <text class="cls-4" transform="translate(2862.3 789.5)">
            <tspan x="0" y="0">디바이스룸</tspan>
          </text>
        </g>
      </g>
      <g id="Layer_46">
        <rect class="cls-1" x="2544.2" y="597.5" width="236.5" height="491.3" />
      </g>
      <g id="Layer_x5F_others">
        <rect class="cls-1" x="348.8" y="597.5" width="253.3" height="491.3" />
        <g>
          <rect class="cls-1" x="348.8" y="602.1" width="126.6" height="32.5" />
          <rect class="cls-1" x="348.8" y="634.5" width="126.6" height="33.8" />
          <rect class="cls-1" x="348.8" y="668.3" width="126.6" height="38.9" />
          <rect class="cls-1" x="348.8" y="707.2" width="126.6" height="31.2" />
          <rect class="cls-1" x="348.8" y="738.4" width="126.6" height="38.9" />
          <rect class="cls-1" x="348.8" y="777.3" width="126.6" height="27.9" />
          <rect class="cls-1" x="348.8" y="805.2" width="126.6" height="42.2" />
          <rect class="cls-1" x="348.8" y="847.4" width="126.6" height="38.9" />
          <rect class="cls-1" x="348.8" y="886.4" width="126.6" height="33.8" />
          <rect class="cls-1" x="348.8" y="920.1" width="126.6" height="33.8" />
        </g>
        <g>
          <rect class="cls-1" x="475.4" y="601.5" width="126.6" height="32.5" />
          <rect class="cls-1" x="475.4" y="633.9" width="126.6" height="33.8" />
          <rect class="cls-1" x="475.4" y="667.7" width="126.6" height="38.9" />
          <rect class="cls-1" x="475.4" y="706.6" width="126.6" height="31.2" />
          <rect class="cls-1" x="475.4" y="737.8" width="126.6" height="38.9" />
          <rect class="cls-1" x="475.4" y="776.7" width="126.6" height="27.9" />
          <rect class="cls-1" x="475.4" y="804.6" width="126.6" height="42.2" />
          <rect class="cls-1" x="475.4" y="846.8" width="126.6" height="38.9" />
          <rect class="cls-1" x="475.4" y="885.7" width="126.6" height="33.8" />
          <rect class="cls-1" x="475.4" y="919.5" width="126.6" height="33.8" />
        </g>
        <rect class="cls-1" x="3532" y="597.5" width="235.8" height="491.3" />
        <g>
          <rect class="cls-1" x="3530.4" y="597.5" width="116.1" height="34" />
          <rect
            class="cls-1"
            x="3530.4"
            y="631.5"
            width="116.1"
            height="35.3"
          />
          <rect
            class="cls-1"
            x="3530.4"
            y="666.8"
            width="116.1"
            height="40.8"
          />
          <rect
            class="cls-1"
            x="3530.4"
            y="707.6"
            width="116.1"
            height="32.6"
          />
          <rect
            class="cls-1"
            x="3530.4"
            y="740.2"
            width="116.1"
            height="40.8"
          />
          <rect class="cls-1" x="3530.4" y="781" width="116.1" height="29.2" />
          <rect
            class="cls-1"
            x="3530.4"
            y="810.2"
            width="116.1"
            height="44.2"
          />
          <rect
            class="cls-1"
            x="3530.4"
            y="854.3"
            width="116.1"
            height="40.8"
          />
          <rect
            class="cls-1"
            x="3530.4"
            y="895.1"
            width="116.1"
            height="35.3"
          />
          <rect
            class="cls-1"
            x="3530.4"
            y="930.4"
            width="116.1"
            height="35.3"
          />
        </g>
        <g>
          <rect class="cls-1" x="3649.9" y="597.5" width="116.1" height="34" />
          <rect
            class="cls-1"
            x="3649.9"
            y="631.5"
            width="116.1"
            height="35.3"
          />
          <rect
            class="cls-1"
            x="3649.9"
            y="666.8"
            width="116.1"
            height="40.8"
          />
          <rect
            class="cls-1"
            x="3649.9"
            y="707.6"
            width="116.1"
            height="32.6"
          />
          <rect
            class="cls-1"
            x="3649.9"
            y="740.2"
            width="116.1"
            height="40.8"
          />
          <rect class="cls-1" x="3649.9" y="781" width="116.1" height="29.2" />
          <rect
            class="cls-1"
            x="3649.9"
            y="810.2"
            width="116.1"
            height="44.2"
          />
          <rect
            class="cls-1"
            x="3649.9"
            y="854.3"
            width="116.1"
            height="40.8"
          />
          <rect
            class="cls-1"
            x="3649.9"
            y="895.1"
            width="116.1"
            height="35.3"
          />
          <rect
            class="cls-1"
            x="3649.9"
            y="930.4"
            width="116.1"
            height="35.3"
          />
        </g>
        <rect class="cls-1" x="1973.8" y="755.4" width="187.9" height="265.6" />
        <rect class="cls-1" x="1820.4" y="597.5" width="491.3" height="491.3" />
        <rect class="cls-3" x="1973.8" y="875" width="187.9" height="146.1" />
        <g>
          <rect class="cls-1" x="2161.7" y="596.2" width="150" height="32.5" />
          <rect class="cls-1" x="2161.7" y="628.7" width="150" height="33.8" />
          <rect class="cls-1" x="2161.7" y="662.4" width="150" height="38.9" />
          <rect class="cls-1" x="2161.7" y="701.4" width="150" height="31.2" />
          <rect class="cls-1" x="2161.7" y="732.5" width="150" height="38.9" />
          <rect class="cls-1" x="2161.7" y="771.5" width="150" height="27.9" />
          <rect class="cls-1" x="2161.7" y="799.4" width="150" height="42.2" />
          <rect class="cls-1" x="2161.7" y="841.6" width="150" height="38.9" />
          <rect class="cls-1" x="2161.7" y="880.5" width="150" height="33.8" />
          <rect class="cls-1" x="2161.7" y="914.3" width="150" height="33.8" />
        </g>
        <g>
          <rect class="cls-1" x="1820.4" y="595.6" width="150" height="32.5" />
          <rect class="cls-1" x="1820.4" y="628" width="150" height="33.8" />
          <rect class="cls-1" x="1820.4" y="661.8" width="150" height="38.9" />
          <rect class="cls-1" x="1820.4" y="700.7" width="150" height="31.2" />
          <rect class="cls-1" x="1820.4" y="731.9" width="150" height="38.9" />
          <rect class="cls-1" x="1820.4" y="770.8" width="150" height="27.9" />
          <rect class="cls-1" x="1820.4" y="798.7" width="150" height="42.2" />
          <rect class="cls-1" x="1820.4" y="840.9" width="150" height="38.9" />
          <rect class="cls-1" x="1820.4" y="879.9" width="150" height="33.8" />
          <rect class="cls-1" x="1820.4" y="913.6" width="150" height="33.8" />
        </g>
      </g>
    </g>
  </g>
</svg>
