<?xml version="1.0" encoding="UTF-8"?><svg xmlns="http://www.w3.org/2000/svg" viewBox="0 0 1404 1080"><g id="Layer_border"><circle cx="508" cy="406" r="194" fill="none" stroke="#e18686" stroke-miterlimit="10" stroke-width="2.23"/><circle cx="314.5" cy="221.5" r="96" fill="#fdf3f2" opacity=".7" stroke="#e18686" stroke-miterlimit="10" stroke-width="5"/><path d="m921.5,140.5h-493l-3.02.98-15.5,15.5-26-26-159.5,159.5,26,26-19.5,19.5c.17,18.75.34,37.5.52,56.25-10.5,23.69-26,66.83-26,122.76,0,46.4,9.73,89.05,26,122.76v291.74h289v-463.97l57.03-57.03h575.97V140.5h-232Z" fill="#fdf3f2" stroke="#e18686" stroke-miterlimit="10" stroke-width="5"/><rect x="340.5" y="929.5" width="158" height="52" fill="#fdf3f2" stroke="#e18686" stroke-miterlimit="10" stroke-width="5"/><rect x="529.5" y="429.5" width="80" height="58" transform="translate(-157.41 536.99) rotate(-45)" fill="#fdf3f2" stroke="#e18686" stroke-miterlimit="10" stroke-width="5"/><rect x="1153.5" y="204.5" width="45" height="176" fill="#fdf3f2" stroke="#e18686" stroke-miterlimit="10" stroke-width="5.98"/></g><g id="Layer_others"><line x1="391.57" y1="243.6" x2="417.4" y2="269.43" fill="none" stroke="#e18686" stroke-miterlimit="10" stroke-width="2"/><line x1="394.94" y1="240.24" x2="420.76" y2="266.07" fill="none" stroke="#e18686" stroke-miterlimit="10" stroke-width="2"/><line x1="398.3" y1="236.88" x2="424.13" y2="262.7" fill="none" stroke="#e18686" stroke-miterlimit="10" stroke-width="2"/><line x1="401.66" y1="233.51" x2="427.49" y2="259.34" fill="none" stroke="#e18686" stroke-miterlimit="10" stroke-width="2"/><line x1="405.03" y1="230.15" x2="430.85" y2="255.98" fill="none" stroke="#e18686" stroke-miterlimit="10" stroke-width="2"/><line x1="408.39" y1="226.78" x2="434.22" y2="252.61" fill="none" stroke="#e18686" stroke-miterlimit="10" stroke-width="2"/><line x1="411.75" y1="223.42" x2="437.58" y2="249.25" fill="none" stroke="#e18686" stroke-miterlimit="10" stroke-width="2"/><line x1="415.12" y1="220.06" x2="440.94" y2="245.88" fill="none" stroke="#e18686" stroke-miterlimit="10" stroke-width="2"/><rect x="395.16" y="226.55" width="42.09" height="36.52" transform="translate(-51.2 366.01) rotate(-45)" fill="none" stroke="#e18686" stroke-miterlimit="10" stroke-width="2"/><line x1="415" y1="212.45" x2="440.83" y2="186.62" fill="none" stroke="#e18686" stroke-miterlimit="10" stroke-width="2"/><line x1="411.64" y1="209.08" x2="437.46" y2="183.26" fill="none" stroke="#e18686" stroke-miterlimit="10" stroke-width="2"/><line x1="408.27" y1="205.72" x2="434.1" y2="179.89" fill="none" stroke="#e18686" stroke-miterlimit="10" stroke-width="2"/><line x1="404.91" y1="202.36" x2="430.73" y2="176.53" fill="none" stroke="#e18686" stroke-miterlimit="10" stroke-width="2"/><line x1="401.54" y1="198.99" x2="427.37" y2="173.17" fill="none" stroke="#e18686" stroke-miterlimit="10" stroke-width="2"/><line x1="398.18" y1="195.63" x2="424.01" y2="169.8" fill="none" stroke="#e18686" stroke-miterlimit="10" stroke-width="2"/><line x1="394.82" y1="192.26" x2="420.64" y2="166.44" fill="none" stroke="#e18686" stroke-miterlimit="10" stroke-width="2"/><line x1="391.45" y1="188.9" x2="417.28" y2="163.07" fill="none" stroke="#e18686" stroke-miterlimit="10" stroke-width="2"/><rect x="395.16" y="169.55" width="42.09" height="36.52" transform="translate(577.71 614.92) rotate(-135)" fill="none" stroke="#e18686" stroke-miterlimit="10" stroke-width="2"/><line x1="383.84" y1="189.02" x2="358.02" y2="163.19" fill="none" stroke="#e18686" stroke-miterlimit="10" stroke-width="2"/><line x1="380.48" y1="192.38" x2="354.65" y2="166.56" fill="none" stroke="#e18686" stroke-miterlimit="10" stroke-width="2"/><line x1="377.12" y1="195.75" x2="351.29" y2="169.92" fill="none" stroke="#e18686" stroke-miterlimit="10" stroke-width="2"/><line x1="373.75" y1="199.11" x2="347.92" y2="173.28" fill="none" stroke="#e18686" stroke-miterlimit="10" stroke-width="2"/><line x1="370.39" y1="202.47" x2="344.56" y2="176.65" fill="none" stroke="#e18686" stroke-miterlimit="10" stroke-width="2"/><line x1="367.02" y1="205.84" x2="341.2" y2="180.01" fill="none" stroke="#e18686" stroke-miterlimit="10" stroke-width="2"/><line x1="363.66" y1="209.2" x2="337.83" y2="183.37" fill="none" stroke="#e18686" stroke-miterlimit="10" stroke-width="2"/><line x1="360.3" y1="212.56" x2="334.47" y2="186.74" fill="none" stroke="#e18686" stroke-miterlimit="10" stroke-width="2"/><rect x="338.16" y="169.55" width="42.09" height="36.52" transform="translate(746.01 66.62) rotate(135)" fill="none" stroke="#e18686" stroke-miterlimit="10" stroke-width="2"/><rect x="265" y="272" width="38" height="38" transform="translate(-122.59 286.05) rotate(-45)" fill="none" stroke="#e18686" stroke-miterlimit="10" stroke-width="2"/><rect x="306.84" y="306.41" width="30.31" height="30.31" transform="translate(-133.07 321.87) rotate(-45)" fill="none" stroke="#e18686" stroke-miterlimit="10" stroke-width="2"/><line x1="400" y1="930" x2="400" y2="981" fill="none" stroke="#e18686" stroke-miterlimit="10" stroke-width="2"/><line x1="410.29" y1="930" x2="410.29" y2="981" fill="none" stroke="#e18686" stroke-miterlimit="10" stroke-width="2"/><line x1="420.57" y1="930" x2="420.57" y2="981" fill="none" stroke="#e18686" stroke-miterlimit="10" stroke-width="2"/><line x1="430.86" y1="930" x2="430.86" y2="981" fill="none" stroke="#e18686" stroke-miterlimit="10" stroke-width="2"/><line x1="441.14" y1="930" x2="441.14" y2="981" fill="none" stroke="#e18686" stroke-miterlimit="10" stroke-width="2"/><line x1="451.43" y1="930" x2="451.43" y2="981" fill="none" stroke="#e18686" stroke-miterlimit="10" stroke-width="2"/><line x1="461.71" y1="930" x2="461.71" y2="981" fill="none" stroke="#e18686" stroke-miterlimit="10" stroke-width="2"/><line x1="472" y1="930" x2="472" y2="981" fill="none" stroke="#e18686" stroke-miterlimit="10" stroke-width="2"/><line x1="1197.43" y1="255.11" x2="1154" y2="255.11" fill="none" stroke="#e18686" stroke-miterlimit="10" stroke-width="2"/><line x1="1197.43" y1="265.4" x2="1154" y2="265.4" fill="none" stroke="#e18686" stroke-miterlimit="10" stroke-width="2"/><line x1="1197.43" y1="275.68" x2="1154" y2="275.68" fill="none" stroke="#e18686" stroke-miterlimit="10" stroke-width="2"/><line x1="1197.43" y1="285.97" x2="1154" y2="285.97" fill="none" stroke="#e18686" stroke-miterlimit="10" stroke-width="2"/><line x1="1197.43" y1="296.25" x2="1154" y2="296.25" fill="none" stroke="#e18686" stroke-miterlimit="10" stroke-width="2"/><line x1="1197.43" y1="306.54" x2="1154" y2="306.54" fill="none" stroke="#e18686" stroke-miterlimit="10" stroke-width="2"/><line x1="1197.43" y1="316.83" x2="1154" y2="316.83" fill="none" stroke="#e18686" stroke-miterlimit="10" stroke-width="2"/><line x1="1197.43" y1="327.11" x2="1154" y2="327.11" fill="none" stroke="#e18686" stroke-miterlimit="10" stroke-width="2"/></g><g id="Layer_201"><rect x="233.64" y="353" width="154" height="117.5" fill="#f8cdce" stroke="#e18686" stroke-miterlimit="10" stroke-width="2"/><text transform="translate(289.09 415.85)" fill="#434142" font-family="NanumSquareNeovariable-Heavy, &apos;NanumSquare Neo variable&apos;" font-size="22" font-variation-settings="&apos;wght&apos; 900" font-weight="800"><tspan x="0" y="0">201</tspan></text></g><g id="Layer_202"><rect x="233.64" y="468" width="154" height="113" fill="#f8cdce" stroke="#e18686" stroke-miterlimit="10" stroke-width="2"/><text transform="translate(287.06 528.85)" fill="#434142" font-family="NanumSquareNeovariable-Heavy, &apos;NanumSquare Neo variable&apos;" font-size="22" font-variation-settings="&apos;wght&apos; 900" font-weight="800"><tspan x="0" y="0">202</tspan></text></g><g id="Layer_203"><rect x="234" y="580" width="154" height="118" fill="#f8cdce" stroke="#e18686" stroke-miterlimit="10" stroke-width="2"/><text transform="translate(287.16 644.85)" fill="#434142" font-family="NanumSquareNeovariable-Heavy, &apos;NanumSquare Neo variable&apos;" font-size="22" font-variation-settings="&apos;wght&apos; 900" font-weight="800"><tspan x="0" y="0">203</tspan></text></g><g id="Layer_204"><rect x="234" y="698.5" width="154" height="57.5" fill="#f8cdce" stroke="#e18686" stroke-miterlimit="10" stroke-width="2"/><text transform="translate(287.23 732.85)" fill="#434142" font-family="NanumSquareNeovariable-Heavy, &apos;NanumSquare Neo variable&apos;" font-size="22" font-variation-settings="&apos;wght&apos; 900" font-weight="800"><tspan x="0" y="0">204</tspan></text></g><g id="Layer_205"><rect x="234" y="755.5" width="154" height="57.5" fill="#f8cdce" stroke="#e18686" stroke-miterlimit="10" stroke-width="2"/><text transform="translate(287.42 789.85)" fill="#434142" font-family="NanumSquareNeovariable-Heavy, &apos;NanumSquare Neo variable&apos;" font-size="22" font-variation-settings="&apos;wght&apos; 900" font-weight="800"><tspan x="0" y="0">205</tspan></text></g><g id="Layer_206"><rect x="234" y="811.5" width="154" height="57.5" fill="#f8cdce" stroke="#e18686" stroke-miterlimit="10" stroke-width="2"/><text transform="translate(287.17 845.85)" fill="#434142" font-family="NanumSquareNeovariable-Heavy, &apos;NanumSquare Neo variable&apos;" font-size="22" font-variation-settings="&apos;wght&apos; 900" font-weight="800"><tspan x="0" y="0">206</tspan></text></g><g id="Layer_207"><rect x="234" y="867.5" width="154" height="58.5" fill="#f8cdce" stroke="#e18686" stroke-miterlimit="10" stroke-width="2"/><text transform="translate(288.16 903.85)" fill="#434142" font-family="NanumSquareNeovariable-Heavy, &apos;NanumSquare Neo variable&apos;" font-size="22" font-variation-settings="&apos;wght&apos; 900" font-weight="800"><tspan x="0" y="0">207</tspan></text></g><g id="Layer_208"><rect x="420" y="867.27" width="98.55" height="58.5" fill="#f8cdce" stroke="#e18686" stroke-miterlimit="10" stroke-width="2"/><text transform="translate(445.51 902.61)" fill="#434142" font-family="NanumSquareNeovariable-Heavy, &apos;NanumSquare Neo variable&apos;" font-size="22" font-variation-settings="&apos;wght&apos; 900" font-weight="800"><tspan x="0" y="0">208</tspan></text></g><g id="Layer_209"><rect x="420" y="814" width="98.55" height="53.77" fill="#f8cdce" stroke="#e18686" stroke-miterlimit="10" stroke-width="2"/><text transform="translate(445.72 846.61)" fill="#434142" font-family="NanumSquareNeovariable-Heavy, &apos;NanumSquare Neo variable&apos;" font-size="22" font-variation-settings="&apos;wght&apos; 900" font-weight="800"><tspan x="0" y="0">209</tspan></text></g><g id="Layer_210"><rect x="420" y="757" width="98.55" height="57.77" fill="#f8cdce" stroke="#e18686" stroke-miterlimit="10" stroke-width="2"/><text transform="translate(448 791.61)" fill="#434142" font-family="NanumSquareNeovariable-Heavy, &apos;NanumSquare Neo variable&apos;" font-size="22" font-variation-settings="&apos;wght&apos; 900" font-weight="800"><tspan x="0" y="0">210</tspan></text></g><g id="Layer_211"><rect x="420" y="700" width="98.55" height="57.77" fill="#f8cdce" stroke="#e18686" stroke-miterlimit="10" stroke-width="2"/><text transform="translate(450.55 734.61)" fill="#434142" font-family="NanumSquareNeovariable-Heavy, &apos;NanumSquare Neo variable&apos;" font-size="22" font-variation-settings="&apos;wght&apos; 900" font-weight="800"><tspan x="0" y="0">211</tspan></text></g><g id="Layer_212"><rect x="420" y="643" width="98.55" height="57.77" fill="#f8cdce" stroke="#e18686" stroke-miterlimit="10" stroke-width="2"/><text transform="translate(448.51 677.61)" fill="#434142" font-family="NanumSquareNeovariable-Heavy, &apos;NanumSquare Neo variable&apos;" font-size="22" font-variation-settings="&apos;wght&apos; 900" font-weight="800"><tspan x="0" y="0">212</tspan></text></g><g id="Layer_213"><rect x="420" y="587" width="98.55" height="57.77" fill="#f8cdce" stroke="#e18686" stroke-miterlimit="10" stroke-width="2"/><text transform="translate(448.26 621.61)" fill="#434142" font-family="NanumSquareNeovariable-Heavy, &apos;NanumSquare Neo variable&apos;" font-size="22" font-variation-settings="&apos;wght&apos; 900" font-weight="800"><tspan x="0" y="0">213</tspan></text></g><g id="Layer_214"><rect x="420" y="530" width="98.55" height="57.77" fill="#f8cdce" stroke="#e18686" stroke-miterlimit="10" stroke-width="2"/><text transform="translate(448.33 564.61)" fill="#434142" font-family="NanumSquareNeovariable-Heavy, &apos;NanumSquare Neo variable&apos;" font-size="22" font-variation-settings="&apos;wght&apos; 900" font-weight="800"><tspan x="0" y="0">214</tspan></text></g><g id="Layer_215"><rect x="420" y="468" width="98.55" height="63.77" fill="#f8cdce" stroke="#e18686" stroke-miterlimit="10" stroke-width="2"/><text transform="translate(448.51 506.61)" fill="#434142" font-family="NanumSquareNeovariable-Heavy, &apos;NanumSquare Neo variable&apos;" font-size="22" font-variation-settings="&apos;wght&apos; 900" font-weight="800"><tspan x="0" y="0">215</tspan></text><polygon points="458.05 316 420 354.05 420 468 516.43 468 576 408.43 576 316 458.05 316" fill="#f8cdce" stroke="#e18686" stroke-miterlimit="10" stroke-width="2"/><text transform="translate(446.13 382.9)" fill="#434142" font-family="NanumSquareNeovariable-Heavy, &apos;NanumSquare Neo variable&apos;" font-size="22" font-variation-settings="&apos;wght&apos; 900" font-weight="800"><tspan x="0" y="0">열린도서관</tspan><tspan x="33.78" y="26.4">6호</tspan></text></g><g id="Layer_217"><rect x="576" y="316" width="55" height="90" fill="#f8cdce" stroke="#e18686" stroke-miterlimit="10" stroke-width="2"/><text transform="translate(583.36 369.4)" fill="#434142" font-family="NanumSquareNeovariable-Heavy, &apos;NanumSquare Neo variable&apos;" font-size="22" font-variation-settings="&apos;wght&apos; 900" font-weight="800"><tspan x="0" y="0">217</tspan></text></g><g id="Layer_218"><rect x="631" y="316" width="55" height="90" fill="#f8cdce" stroke="#e18686" stroke-miterlimit="10" stroke-width="2"/><text transform="translate(638.16 369.4)" fill="#434142" font-family="NanumSquareNeovariable-Heavy, &apos;NanumSquare Neo variable&apos;" font-size="22" font-variation-settings="&apos;wght&apos; 900" font-weight="800"><tspan x="0" y="0">218</tspan></text></g><g id="Layer_219"><rect x="686" y="316" width="117" height="90" fill="#f8cdce" stroke="#e18686" stroke-miterlimit="10" stroke-width="2"/><text transform="translate(721.37 367.4)" fill="#434142" font-family="NanumSquareNeovariable-Heavy, &apos;NanumSquare Neo variable&apos;" font-size="22" font-variation-settings="&apos;wght&apos; 900" font-weight="800"><tspan x="0" y="0">219</tspan></text></g><g id="Layer_220"><rect x="803" y="316" width="228" height="90" fill="#f8cdce" stroke="#e18686" stroke-miterlimit="10" stroke-width="2"/><text transform="translate(893.06 367.4)" fill="#434142" font-family="NanumSquareNeovariable-Heavy, &apos;NanumSquare Neo variable&apos;" font-size="22" font-variation-settings="&apos;wght&apos; 900" font-weight="800"><tspan x="0" y="0">220</tspan></text></g><g id="Layer_221"><rect x="1031" y="316" width="120" height="90" transform="translate(2182 722) rotate(180)" fill="#f8cdce" stroke="#e18686" stroke-miterlimit="10" stroke-width="2"/><text transform="translate(1070.52 367.59)" fill="#434142" font-family="NanumSquareNeovariable-Heavy, &apos;NanumSquare Neo variable&apos;" font-size="22" font-variation-settings="&apos;wght&apos; 900" font-weight="800"><tspan x="0" y="0">221</tspan></text></g><g id="Layer_222"><rect x="917" y="143" width="234" height="139" fill="#f8cdce" stroke="#e18686" stroke-miterlimit="10" stroke-width="2"/><text transform="translate(1008.37 217.63)" fill="#434142" font-family="NanumSquareNeovariable-Heavy, &apos;NanumSquare Neo variable&apos;" font-size="22" font-variation-settings="&apos;wght&apos; 900" font-weight="800"><tspan x="0" y="0">222</tspan></text></g><g id="Layer_223"><rect x="803" y="143" width="114" height="139" transform="translate(1720 425) rotate(180)" fill="#f8cdce" stroke="#e18686" stroke-miterlimit="10" stroke-width="2"/><text transform="translate(837.11 215.63)" fill="#434142" font-family="NanumSquareNeovariable-Heavy, &apos;NanumSquare Neo variable&apos;" font-size="22" font-variation-settings="&apos;wght&apos; 900" font-weight="800"><tspan x="0" y="0">223</tspan></text></g><g id="Layer_224"><rect x="690" y="143" width="114" height="139" transform="translate(1494 425) rotate(180)" fill="#f8cdce" stroke="#e18686" stroke-miterlimit="10" stroke-width="2"/><text transform="translate(724.51 215.63)" fill="#434142" font-family="NanumSquareNeovariable-Heavy, &apos;NanumSquare Neo variable&apos;" font-size="22" font-variation-settings="&apos;wght&apos; 900" font-weight="800"><tspan x="0" y="0">2</tspan><tspan x="15.38" y="0" letter-spacing="-.03em">2</tspan><tspan x="30.1" y="0">4</tspan></text></g><g id="Layer_225"><rect x="576" y="143" width="114" height="139" transform="translate(1266 425) rotate(180)" fill="#f8cdce" stroke="#e18686" stroke-miterlimit="10" stroke-width="2"/><text transform="translate(610.37 215.63)" fill="#434142" font-family="NanumSquareNeovariable-Heavy, &apos;NanumSquare Neo variable&apos;" font-size="22" font-variation-settings="&apos;wght&apos; 900" font-weight="800"><tspan x="0" y="0">225</tspan></text></g><g id="Layer_toilet1"><polygon points="516.5 142.5 516.5 222.49 546.5 222.49 546.5 282 576.5 282 576.5 222.49 576.5 142.5 516.5 142.5" fill="none" stroke="#e18686" stroke-miterlimit="10" stroke-width="2"/></g><g id="Layer_toilet2"><polygon points="516.5 142.5 516.5 222.49 487.25 222.49 487.25 282 458 282 458 222.49 458 142.5 516.5 142.5" fill="none" stroke="#e18686" stroke-miterlimit="10" stroke-width="1.97"/></g></svg>