<?xml version="1.0" encoding="UTF-8"?>
<svg id="_x32_" xmlns="http://www.w3.org/2000/svg" viewBox="0 0 1031 873">
  <defs>
    <style>
      .cls-1, .cls-2, .cls-3 {
        fill: none;
      }

      .cls-1, .cls-2, .cls-3, .cls-4, .cls-5 {
        stroke-miterlimit: 10;
      }

      .cls-1, .cls-3, .cls-4 {
        stroke-width: 3px;
      }

      .cls-1, .cls-4, .cls-5 {
        stroke: #de8f8d;
      }

      .cls-2 {
        stroke-width: 2px;
      }

      .cls-2, .cls-3 {
        stroke: #d98f8d;
      }

      .cls-6 {
        font-size: 10px;
      }

      .cls-7 {
        font-size: 12px;
      }

      .cls-8 {
        font-size: 13.4px;
      }

      .cls-9 {
        font-size: 14px;
      }

      .cls-10 {
        font-size: 16.27px;
      }

      .cls-11, .cls-12 {
        font-size: 17px;
      }

      .cls-13, .cls-14, .cls-12 {
        fill: #221f20;
        font-family: NanumSquareNeoTTF-dEb, 'NanumSquare Neo';
      }

      .cls-4 {
        fill: #f4d1d1;
      }

      .cls-14 {
        font-size: 21px;
      }

      .cls-5 {
        fill: #fcf4f3;
        stroke-width: 10px;
      }
    </style>
  </defs>
  <g id="Layer_x5F_border-2" data-name="Layer_x5F_border">
    <path class="cls-5" d="M579.76,37v47h-24.76l1,369H163v358.41h697.63V37h-280.87ZM582.18,680.5h-157v-95h157v95Z"/>
  </g>
  <g id="Layer_x5F_others-2" data-name="Layer_x5F_others">
    <g>
      <rect class="cls-4" x="255.46" y="585" width="25.54" height="79"/>
      <rect class="cls-4" x="255.46" y="664" width="25.54" height="16.2"/>
      <g>
        <rect class="cls-3" x="281" y="626.57" width="83" height="52.88"/>
        <g>
          <rect class="cls-2" x="299.9" y="627.12" width="4.24" height="26.44"/>
          <rect class="cls-2" x="304.14" y="627.12" width="4.24" height="26.44"/>
          <rect class="cls-2" x="308.38" y="627.12" width="4.24" height="26.44"/>
          <rect class="cls-2" x="312.62" y="627.12" width="4.24" height="26.44"/>
          <rect class="cls-2" x="316.87" y="627.12" width="4.24" height="26.44"/>
          <rect class="cls-2" x="321.13" y="627.12" width="4.24" height="26.44"/>
          <rect class="cls-2" x="325.37" y="627.12" width="4.24" height="26.44"/>
          <rect class="cls-2" x="329.61" y="627.12" width="4.24" height="26.44"/>
          <rect class="cls-2" x="333.85" y="627.12" width="4.24" height="26.44"/>
          <rect class="cls-2" x="338.09" y="627.12" width="4.24" height="26.44"/>
        </g>
        <g>
          <rect class="cls-2" x="299.82" y="653.56" width="4.24" height="26.44"/>
          <rect class="cls-2" x="304.06" y="653.56" width="4.24" height="26.44"/>
          <rect class="cls-2" x="308.3" y="653.56" width="4.24" height="26.44"/>
          <rect class="cls-2" x="312.55" y="653.56" width="4.24" height="26.44"/>
          <rect class="cls-2" x="316.79" y="653.56" width="4.24" height="26.44"/>
          <rect class="cls-2" x="321.05" y="653.56" width="4.24" height="26.44"/>
          <rect class="cls-2" x="325.29" y="653.56" width="4.24" height="26.44"/>
          <rect class="cls-2" x="329.53" y="653.56" width="4.24" height="26.44"/>
          <rect class="cls-2" x="333.77" y="653.56" width="4.24" height="26.44"/>
          <rect class="cls-2" x="338.02" y="653.56" width="4.24" height="26.44"/>
        </g>
      </g>
    </g>
    <g>
      <rect class="cls-4" x="755.5" y="660.5" width="27" height="22"/>
      <rect class="cls-4" x="755.5" y="604.5" width="27" height="56"/>
      <rect class="cls-4" x="755.5" y="584.5" width="27" height="20"/>
      <g>
        <rect class="cls-3" x="673.5" y="625.5" width="82.5" height="55.92"/>
        <g>
          <rect class="cls-2" x="692.28" y="626.08" width="4.22" height="27.96"/>
          <rect class="cls-2" x="696.5" y="626.08" width="4.22" height="27.96"/>
          <rect class="cls-2" x="700.72" y="626.08" width="4.22" height="27.96"/>
          <rect class="cls-2" x="704.93" y="626.08" width="4.22" height="27.96"/>
          <rect class="cls-2" x="709.15" y="626.08" width="4.22" height="27.96"/>
          <rect class="cls-2" x="713.39" y="626.08" width="4.22" height="27.96"/>
          <rect class="cls-2" x="717.6" y="626.08" width="4.22" height="27.96"/>
          <rect class="cls-2" x="721.82" y="626.08" width="4.22" height="27.96"/>
          <rect class="cls-2" x="726.03" y="626.08" width="4.22" height="27.96"/>
          <rect class="cls-2" x="730.25" y="626.08" width="4.22" height="27.96"/>
        </g>
        <g>
          <rect class="cls-2" x="692.21" y="654.04" width="4.22" height="27.96"/>
          <rect class="cls-2" x="696.42" y="654.04" width="4.22" height="27.96"/>
          <rect class="cls-2" x="700.64" y="654.04" width="4.22" height="27.96"/>
          <rect class="cls-2" x="704.86" y="654.04" width="4.22" height="27.96"/>
          <rect class="cls-2" x="709.07" y="654.04" width="4.22" height="27.96"/>
          <rect class="cls-2" x="713.31" y="654.04" width="4.22" height="27.96"/>
          <rect class="cls-2" x="717.52" y="654.04" width="4.22" height="27.96"/>
          <rect class="cls-2" x="721.74" y="654.04" width="4.22" height="27.96"/>
          <rect class="cls-2" x="725.96" y="654.04" width="4.22" height="27.96"/>
          <rect class="cls-2" x="730.17" y="654.04" width="4.22" height="27.96"/>
        </g>
      </g>
    </g>
    <rect class="cls-4" x="582.5" y="604.5" width="31" height="31"/>
    <rect class="cls-4" x="582.5" y="635.5" width="31" height="31"/>
    <g>
      <rect class="cls-4" x="647.5" y="289.5" width="23" height="47"/>
      <rect class="cls-4" x="647.5" y="336.5" width="23" height="29"/>
      <rect class="cls-4" x="717.5" y="289.5" width="75" height="28"/>
      <g>
        <rect class="cls-3" x="717.5" y="317.5" width="74" height="48"/>
        <g>
          <rect class="cls-2" x="734.35" y="318" width="3.78" height="24"/>
          <rect class="cls-2" x="738.13" y="318" width="3.78" height="24"/>
          <rect class="cls-2" x="741.91" y="318" width="3.78" height="24"/>
          <rect class="cls-2" x="745.7" y="318" width="3.78" height="24"/>
          <rect class="cls-2" x="749.48" y="318" width="3.78" height="24"/>
          <rect class="cls-2" x="753.28" y="318" width="3.78" height="24"/>
          <rect class="cls-2" x="757.06" y="318" width="3.78" height="24"/>
          <rect class="cls-2" x="760.84" y="318" width="3.78" height="24"/>
          <rect class="cls-2" x="764.62" y="318" width="3.78" height="24"/>
          <rect class="cls-2" x="768.4" y="318" width="3.78" height="24"/>
        </g>
        <g>
          <rect class="cls-2" x="734.28" y="342" width="3.78" height="24"/>
          <rect class="cls-2" x="738.06" y="342" width="3.78" height="24"/>
          <rect class="cls-2" x="741.84" y="342" width="3.78" height="24"/>
          <rect class="cls-2" x="745.63" y="342" width="3.78" height="24"/>
          <rect class="cls-2" x="749.41" y="342" width="3.78" height="24"/>
          <rect class="cls-2" x="753.21" y="342" width="3.78" height="24"/>
          <rect class="cls-2" x="756.99" y="342" width="3.78" height="24"/>
          <rect class="cls-2" x="760.77" y="342" width="3.78" height="24"/>
          <rect class="cls-2" x="764.55" y="342" width="3.78" height="24"/>
          <rect class="cls-2" x="768.33" y="342" width="3.78" height="24"/>
        </g>
      </g>
      <g>
        <rect class="cls-3" x="577" y="37.99" width="143" height="44.01"/>
        <g>
          <rect class="cls-3" x="610.08" y="37.99" width="7.21" height="22"/>
          <rect class="cls-3" x="617.29" y="37.99" width="7.21" height="22"/>
          <rect class="cls-3" x="624.5" y="37.99" width="7.21" height="22"/>
          <rect class="cls-3" x="631.71" y="37.99" width="7.21" height="22"/>
          <rect class="cls-3" x="638.92" y="37.99" width="7.21" height="22"/>
          <rect class="cls-3" x="646.17" y="37.99" width="7.21" height="22"/>
          <rect class="cls-3" x="653.38" y="37.99" width="7.21" height="22"/>
          <rect class="cls-3" x="660.59" y="37.99" width="7.21" height="22"/>
          <rect class="cls-3" x="667.8" y="37.99" width="7.21" height="22"/>
          <rect class="cls-3" x="675.01" y="37.99" width="7.21" height="22"/>
        </g>
        <g>
          <rect class="cls-3" x="609.95" y="60" width="7.21" height="22"/>
          <rect class="cls-3" x="617.16" y="60" width="7.21" height="22"/>
          <rect class="cls-3" x="624.37" y="60" width="7.21" height="22"/>
          <rect class="cls-3" x="631.58" y="60" width="7.21" height="22"/>
          <rect class="cls-3" x="638.79" y="60" width="7.21" height="22"/>
          <rect class="cls-3" x="646.03" y="59.99" width="7.21" height="22"/>
          <rect class="cls-3" x="653.24" y="59.99" width="7.21" height="22"/>
          <rect class="cls-3" x="660.45" y="59.99" width="7.21" height="22"/>
          <rect class="cls-3" x="667.67" y="59.99" width="7.21" height="22"/>
          <rect class="cls-3" x="674.88" y="59.99" width="7.21" height="22"/>
        </g>
      </g>
      <g>
        <rect class="cls-2" x="720.47" y="78.55" width="21.53" height="4.45"/>
        <rect class="cls-2" x="720.47" y="74.1" width="21.53" height="4.45"/>
        <rect class="cls-2" x="720.47" y="69.65" width="21.53" height="4.45"/>
        <rect class="cls-2" x="720.47" y="65.2" width="21.53" height="4.45"/>
        <rect class="cls-2" x="720.47" y="60.75" width="21.53" height="4.45"/>
        <rect class="cls-2" x="720.47" y="56.28" width="21.53" height="4.45"/>
        <rect class="cls-2" x="720.47" y="51.83" width="21.53" height="4.45"/>
        <rect class="cls-2" x="720.47" y="47.39" width="21.53" height="4.45"/>
        <rect class="cls-2" x="720.47" y="42.94" width="21.53" height="4.45"/>
        <rect class="cls-2" x="720.47" y="38.49" width="21.53" height="4.45"/>
      </g>
      <rect class="cls-4" x="792.5" y="289.5" width="68" height="76"/>
      <rect class="cls-4" x="741.5" y="37.5" width="119" height="45"/>
    </g>
  </g>
  <g id="Layer_22">
    <rect class="cls-4" x="163.18" y="585.5" width="92" height="226"/>
    <text class="cls-12" transform="translate(191.2 692.52)"><tspan x="0" y="0">202</tspan><tspan x="1.86" y="20.4">캐럴</tspan></text>
  </g>
  <g id="Layer_23">
    <polygon class="cls-4" points="335.97 585.5 163.18 585.5 163 453 556 453 555.76 365.5 670.5 365.5 670.5 289.5 717.5 289.5 717.5 365.5 764.18 365.5 764.62 455.84 860.5 455.84 860.63 811.41 673.18 811.5 673.5 681.42 782.5 682.5 782.5 584.5 704.86 584.5 704.86 558.85 335.9 558.85 335.97 585.5"/>
    <text class="cls-14" transform="translate(621.89 491.09)"><tspan x="0" y="0">201</tspan><tspan x="-24.85" y="25.2">제1자료실</tspan></text>
  </g>
  <g id="Layer_24">
    <rect class="cls-4" x="255.18" y="707.5" width="41" height="104"/>
    <text class="cls-13" transform="translate(258.15 756.78)"><tspan class="cls-7"><tspan x="0" y="0">203A</tspan></tspan><tspan class="cls-6"><tspan x="-1.43" y="12">부관장실</tspan></tspan></text>
  </g>
  <g id="Layer_25">
    <rect class="cls-4" x="296.18" y="707.5" width="68" height="104"/>
    <text class="cls-12" transform="translate(312.02 753.52)"><tspan x="0" y="0">203</tspan><tspan x="-6.02" y="20.4">회의실</tspan></text>
  </g>
  <g id="Layer_26">
    <rect class="cls-4" x="364.18" y="707.5" width="61" height="104"/>
    <text class="cls-13" transform="translate(376.48 747.38)"><tspan class="cls-11"><tspan x="0" y="0">204</tspan></tspan><tspan class="cls-9"><tspan x="-8.35" y="16.8">학술정보</tspan></tspan><tspan class="cls-9"><tspan x="-6.54" y="33.6">개발팀2</tspan></tspan></text>
  </g>
  <g id="Layer_27">
    <rect class="cls-4" x="425.18" y="707.5" width="53" height="104"/>
    <text class="cls-13" transform="translate(433.69 747.38)"><tspan class="cls-11"><tspan x="0" y="0">205</tspan></tspan><tspan class="cls-9"><tspan x="4.71" y="16.8">도서</tspan></tspan><tspan class="cls-9"><tspan x="-1.92" y="33.6">관장실</tspan></tspan></text>
  </g>
  <g id="Layer_28">
    <rect class="cls-4" x="478.18" y="707.5" width="54" height="104"/>
    <text class="cls-13" transform="translate(487.82 747.9)"><tspan class="cls-10"><tspan x="0" y="0">206</tspan></tspan><tspan class="cls-8"><tspan x="-8.03" y="16.07">장애학생</tspan></tspan><tspan class="cls-8"><tspan x="-1.68" y="32.15">휴게실</tspan></tspan></text>
  </g>
  <g id="Layer_29">
    <rect class="cls-4" x="532.18" y="707.5" width="141" height="104"/>
    <text class="cls-12" transform="translate(585.2 743.32)"><tspan x="0" y="0">207</tspan><tspan x="-14.76" y="20.4">학술정보</tspan><tspan x="-14.76" y="40.8">서비스팀</tspan></text>
  </g>
  <g id="Layer_30">
    <rect class="cls-1" x="673.5" y="584.5" width="82" height="41"/>
  </g>
  <g id="Layer_31">
    <polyline class="cls-4" points="807.18 408.5 807.18 365.5 860.5 365.5 860.5 455.84 764.62 455.84 764.62 408.93 806.75 408.93"/>
    <text class="cls-12" transform="translate(803.24 431.89)"><tspan x="0" y="0">201</tspan></text>
  </g>
  <g id="Layer_32">
    <rect class="cls-4" x="764.18" y="365.5" width="43" height="43"/>
    <text class="cls-13" transform="translate(766.97 379.08)"><tspan class="cls-9"><tspan x="0" y="0">201B</tspan></tspan><tspan class="cls-6"><tspan x="9.23" y="12">무인</tspan></tspan><tspan class="cls-6"><tspan x="4.49" y="24">복사실</tspan></tspan></text>
  </g>
  <g id="Layer_33">
    <polygon class="cls-4" points="555 84 860.5 84 860.5 289.5 647.5 289.5 647.5 365.5 555.76 365.5 555 84"/>
    <text class="cls-12" transform="translate(691.63 197.97)"><tspan x="0" y="0">서고</tspan></text>
  </g>
  <g id="Layer_34">
    <rect class="cls-1" x="281" y="585" width="83" height="41"/>
  </g>
</svg>