<?xml version="1.0" encoding="UTF-8"?>
<svg id="Layer_1" data-name="Layer 1" xmlns="http://www.w3.org/2000/svg" version="1.1" viewBox="0 0 3364 1627">
  <defs>
    <style>
      .cls-1 {
        fill: #fef3f2;
        stroke-width: 10px;
      }

      .cls-1, .cls-2, .cls-3, .cls-4 {
        stroke: #f88487;
        stroke-miterlimit: 10;
      }

      .cls-5 {
        font-size: 18.9px;
      }

      .cls-5, .cls-6, .cls-7, .cls-8 {
        fill: #000;
        font-family: NanumSquareNeoTTF-dEb, 'NanumSquare Neo';
      }

      .cls-6 {
        font-size: 24px;
      }

      .cls-9 {
        letter-spacing: 1.25em;
      }

      .cls-7 {
        font-size: 18.79px;
      }

      .cls-2 {
        fill: none;
      }

      .cls-2, .cls-3, .cls-4 {
        stroke-width: 3px;
      }

      .cls-8 {
        font-size: 48px;
      }

      .cls-3 {
        fill: #fed0d0;
      }

      .cls-4 {
        fill: #ffcdce;
      }
    </style>
  </defs>
  <g id="Layer_border">
    <rect class="cls-1" x="231" y="144" width="2773" height="758"/>
    <text class="cls-8" transform="translate(1515 528.05)"><tspan x="0" y="0">주차장</tspan></text>
  </g>
  <g id="Layer_2" data-name="Layer 2">
    <rect class="cls-3" x="1041" y="819.96" width="138" height="80"/>
    <text class="cls-6" transform="translate(1080.51 873.79)"><tspan x="0" y="0">B309</tspan></text>
  </g>
  <g id="Layer_3" data-name="Layer 3">
    <polygon class="cls-3" points="1637.52 812.56 1666.73 901.98 1751.17 901.98 1751.17 812.56 1637.52 812.56"/>
    <text class="cls-6" transform="translate(1663.2 868.02)"><tspan x="0" y="0">B313</tspan></text>
  </g>
  <g id="Layer_4" data-name="Layer 4">
    <rect class="cls-3" x="2716" y="813" width="148" height="89"/>
    <text class="cls-6" transform="translate(2748.19 864.23)"><tspan x="0" y="0">B304</tspan></text>
  </g>
  <g id="Layer_5" data-name="Layer 5">
    <rect class="cls-3" x="2864.5" y="487.46" width="139" height="415"/>
    <text class="cls-6" transform="translate(2902.46 694.59)"><tspan x="0" y="0">B304</tspan></text>
  </g>
  <g id="Layer_6" data-name="Layer 6">
    <rect class="cls-3" x="2864.5" y="402.46" width="139" height="85"/>
    <text class="cls-6" transform="translate(2902.79 454.34)"><tspan x="0" y="0">B303</tspan></text>
  </g>
  <g id="Layer_7" data-name="Layer 7">
    <rect class="cls-3" x="2864.5" y="144.46" width="140" height="258"/>
    <text class="cls-6" transform="translate(2901.15 273.3)"><tspan x="0" y="0">B302</tspan></text>
  </g>
  <g id="Layer_8" data-name="Layer 8">
    <rect class="cls-3" x="2702" y="144" width="162" height="89"/>
    <text class="cls-6" transform="translate(2747.88 199.49)"><tspan x="0" y="0">B305</tspan></text>
  </g>
  <g id="Layer_10" data-name="Layer 10">
    <polygon class="cls-3" points="1650.46 147.66 1699.35 147.66 1699.35 233.46 1622.84 235.78 1650.46 147.66"/>
    <text class="cls-6" transform="translate(1645.99 200.7) scale(.64 1)"><tspan x="0" y="0">B310</tspan></text>
  </g>
  <g id="Layer_9" data-name="Layer 9">
    <polygon class="cls-3" points="1699.35 147.66 1699.35 233.46 1749.5 233.46 1749.5 147.46 1699.35 147.66"/>
    <text class="cls-5" transform="translate(1697.14 195.87) scale(.94 1)"><tspan x="0" y="0">B308</tspan></text>
  </g>
  <g id="Layer_11" data-name="Layer 11">
    <rect class="cls-3" x="1041.5" y="147.46" width="138" height="80"/>
    <text class="cls-6" transform="translate(1041.54 197.61)"><tspan class="cls-9" x="0" y="0">	</tspan><tspan x="36" y="0">B307</tspan></text>
  </g>
  <g id="Layer_12" data-name="Layer 12">
    <rect class="cls-3" x="231.5" y="473.46" width="55" height="96"/>
    <text class="cls-7" transform="translate(256.36 494.63) scale(1.31 1)"><tspan x="0" y="0">B</tspan><tspan x="0" y="22.55">3</tspan><tspan x="0" y="45.09">1</tspan><tspan x="0" y="67.64">2</tspan></text>
  </g>
  <g id="Layer_others">
    <rect class="cls-3" x="306" y="585" width="44" height="44"/>
    <rect class="cls-3" x="350" y="585" width="44" height="44"/>
    <rect class="cls-2" x="231" y="430" width="163" height="199"/>
    <g>
      <line class="cls-4" x1="231" y1="431.06" x2="395" y2="430.5"/>
      <line class="cls-4" x1="395" y1="474" x2="231" y2="472.87"/>
      <line class="cls-2" x1="231.61" y1="430.78" x2="231.61" y2="472.59"/>
      <line class="cls-2" x1="244.97" y1="430.78" x2="244.97" y2="473.15"/>
      <line class="cls-2" x1="260.76" y1="430.78" x2="260.76" y2="472.59"/>
      <line class="cls-2" x1="274.13" y1="430.78" x2="274.13" y2="472.59"/>
      <line class="cls-2" x1="287.49" y1="430.78" x2="287.49" y2="473.15"/>
      <line class="cls-2" x1="303.28" y1="430.78" x2="302.07" y2="473.15"/>
      <line class="cls-2" x1="314.21" y1="430.78" x2="314.21" y2="472.59"/>
      <line class="cls-2" x1="326.36" y1="430.78" x2="325.15" y2="473.72"/>
      <line class="cls-2" x1="338.51" y1="430.78" x2="337.3" y2="473.72"/>
      <line class="cls-2" x1="351.87" y1="430.78" x2="350.66" y2="473.72"/>
      <line class="cls-2" x1="362.81" y1="430.78" x2="361.59" y2="473.72"/>
    </g>
    <g>
      <g>
        <line class="cls-2" x1="1489.66" y1="144.62" x2="1489.66" y2="235.76"/>
        <line class="cls-2" x1="1502.66" y1="144.62" x2="1501.66" y2="235.76"/>
        <line class="cls-2" x1="1511.66" y1="144.62" x2="1511.66" y2="234.55"/>
        <line class="cls-2" x1="1521.66" y1="144.62" x2="1520.66" y2="236.98"/>
        <line class="cls-2" x1="1531.66" y1="144.62" x2="1530.66" y2="236.98"/>
        <line class="cls-2" x1="1542.66" y1="144.62" x2="1541.66" y2="236.98"/>
        <line class="cls-2" x1="1551.66" y1="144.62" x2="1550.66" y2="236.98"/>
        <line class="cls-2" x1="1457.66" y1="147.66" x2="1457.66" y2="233.94"/>
      </g>
      <line class="cls-2" x1="1561.34" y1="145.27" x2="1561.34" y2="236.41"/>
      <line class="cls-2" x1="1574.34" y1="145.27" x2="1573.34" y2="236.41"/>
      <line class="cls-2" x1="1583.34" y1="145.27" x2="1583.34" y2="235.2"/>
      <line class="cls-2" x1="1593.34" y1="145.27" x2="1592.34" y2="237.63"/>
      <line class="cls-2" x1="1603.34" y1="145.27" x2="1602.34" y2="237.63"/>
      <line class="cls-2" x1="1614.34" y1="145.27" x2="1613.34" y2="237.63"/>
      <line class="cls-2" x1="1623.34" y1="145.27" x2="1622.34" y2="237.63"/>
      <line class="cls-2" x1="1621.98" y1="237.28" x2="1457.98" y2="234.28"/>
    </g>
    <rect class="cls-3" x="2122" y="573" width="41" height="41"/>
    <rect class="cls-3" x="2205" y="573" width="41" height="41"/>
    <rect class="cls-2" x="2122" y="435" width="124" height="179"/>
    <g>
      <line class="cls-4" x1="2120" y1="436" x2="2245" y2="435.5"/>
      <line class="cls-4" x1="2245" y1="474" x2="2120" y2="473"/>
      <line class="cls-2" x1="2120.46" y1="435.75" x2="2120.46" y2="472.75"/>
      <line class="cls-2" x1="2130.65" y1="435.75" x2="2130.65" y2="473.25"/>
      <line class="cls-2" x1="2142.69" y1="435.75" x2="2142.69" y2="472.75"/>
      <line class="cls-2" x1="2152.87" y1="435.75" x2="2152.87" y2="472.75"/>
      <line class="cls-2" x1="2163.06" y1="435.75" x2="2163.06" y2="473.25"/>
      <line class="cls-2" x1="2175.09" y1="435.75" x2="2174.17" y2="473.25"/>
      <line class="cls-2" x1="2183.43" y1="435.75" x2="2183.43" y2="472.75"/>
      <line class="cls-2" x1="2192.69" y1="435.75" x2="2191.76" y2="473.75"/>
      <line class="cls-2" x1="2201.94" y1="435.75" x2="2201.02" y2="473.75"/>
      <line class="cls-2" x1="2212.13" y1="435.75" x2="2211.2" y2="473.75"/>
      <line class="cls-2" x1="2220.46" y1="435.75" x2="2219.54" y2="473.75"/>
    </g>
    <g>
      <g>
        <line class="cls-2" x1="1518.44" y1="811.97" x2="1518.44" y2="903.1"/>
        <line class="cls-2" x1="1531.44" y1="811.97" x2="1530.44" y2="903.1"/>
        <line class="cls-2" x1="1540.44" y1="811.97" x2="1540.44" y2="901.89"/>
        <line class="cls-2" x1="1550.44" y1="811.97" x2="1549.44" y2="904.32"/>
        <line class="cls-2" x1="1560.44" y1="811.97" x2="1559.44" y2="904.32"/>
        <line class="cls-2" x1="1571.44" y1="811.97" x2="1570.44" y2="904.32"/>
        <line class="cls-2" x1="1580.44" y1="811.97" x2="1579.44" y2="904.32"/>
        <line class="cls-2" x1="1486.44" y1="815" x2="1486.44" y2="901.28"/>
      </g>
      <line class="cls-2" x1="1628.31" y1="812.06" x2="1628.31" y2="901.98"/>
      <line class="cls-2" x1="1618.31" y1="812.06" x2="1619.31" y2="904.41"/>
      <line class="cls-2" x1="1608.31" y1="812.06" x2="1609.31" y2="904.41"/>
      <line class="cls-2" x1="1597.31" y1="812.06" x2="1598.31" y2="904.41"/>
      <line class="cls-2" x1="1588.31" y1="812.06" x2="1589.31" y2="904.41"/>
      <line class="cls-2" x1="1486.67" y1="815.06" x2="1637.67" y2="813.06"/>
    </g>
  </g>
  <g id="Layer_15" data-name="Layer 15">
    <rect class="cls-3" x="351" y="819.96" width="690" height="80"/>
    <text class="cls-6" transform="translate(682.25 873.89)"><tspan x="0" y="0">B306A</tspan></text>
  </g>
  <g id="Layer_16" data-name="Layer 16">
    <rect class="cls-3" x="350.5" y="146.46" width="690" height="80"/>
    <text class="cls-6" transform="translate(680.4 194.83)"><tspan x="0" y="0">B306</tspan></text>
  </g>
</svg>