<svg width="321" height="321" viewBox="0 0 321 321" fill="none" xmlns="http://www.w3.org/2000/svg">
<mask id="mask0_1109_106" style="mask-type:luminance" maskUnits="userSpaceOnUse" x="0" y="0" width="321" height="321">
<path d="M320.562 160.637C320.562 72.3137 248.964 0.716095 160.641 0.716095C117.018 0.716095 77.4749 18.1817 48.6233 46.5019L27.5792 22.2656L6.53874 40.5339L30.3216 67.925C11.6818 94.0751 0.71936 126.078 0.71936 160.637C0.71936 248.961 72.317 320.559 160.641 320.559C200.57 320.559 237.077 305.925 265.1 281.73L279.626 293.175L296.872 271.291L284.631 261.644C307.091 234.104 320.566 198.946 320.566 160.637H320.562Z" fill="white"/>
</mask>
<g mask="url(#mask0_1109_106)">
<path d="M42.1987 -14.0144C42.9419 4.66256 43.6852 23.3396 44.4284 42.0203C53.347 52.0202 62.2655 62.0239 71.1841 72.0239V95.227H156.301V-14.0144H42.1987Z" fill="#FFD0D0" stroke="#EA8B8B" stroke-width="1.11482" stroke-miterlimit="10"/>
<path d="M106.271 60.3591H104.558V52.5591H104.506L102.298 53.9712V52.4179L104.636 50.9017H106.271V60.3591Z" fill="#424242"/>
<path d="M108.426 55.6286C108.419 52.5442 109.79 50.7679 112.057 50.7679C114.324 50.7679 115.688 52.5442 115.688 55.6286C115.688 58.7129 114.327 60.4892 112.057 60.4892C109.786 60.4892 108.419 58.7241 108.426 55.6286ZM112.057 59.0659C113.239 59.0585 113.978 57.9028 113.978 55.6286C113.971 53.3766 113.239 52.1875 112.057 52.1801C110.875 52.1875 110.143 53.3766 110.136 55.6286C110.136 57.9028 110.868 59.0585 112.057 59.0659Z" fill="#424242"/>
<path d="M120.954 60.3591H119.241V52.5591H119.189L116.981 53.9712V52.4179L119.319 50.9017H120.95V60.3591H120.954Z" fill="#424242"/>
</g>
</svg>
