<svg width="321" height="321" viewBox="0 0 321 321" fill="none" xmlns="http://www.w3.org/2000/svg">
<mask id="mask0_1109_124" style="mask-type:luminance" maskUnits="userSpaceOnUse" x="0" y="0" width="321" height="321">
<path d="M320.562 160.637C320.562 72.3137 248.964 0.716095 160.641 0.716095C117.018 0.716095 77.4749 18.1817 48.6233 46.5019L27.5792 22.2656L6.53874 40.5339L30.3216 67.925C11.6818 94.0751 0.71936 126.078 0.71936 160.637C0.71936 248.961 72.317 320.559 160.641 320.559C200.57 320.559 237.077 305.925 265.1 281.73L279.626 293.175L296.872 271.291L284.631 261.644C307.091 234.104 320.566 198.946 320.566 160.637H320.562Z" fill="white"/>
</mask>
<g mask="url(#mask0_1109_124)">
<path d="M189.779 -13.9921C215.94 -10.8855 242.098 -7.77885 268.259 -4.67221C274.004 6.06725 279.749 16.803 285.494 27.5425C260.715 56.7657 235.936 85.9926 211.158 115.216C204.03 108.456 196.906 101.693 189.779 94.9335V-13.9921Z" fill="#FFD0D0" stroke="#EA8B8B" stroke-width="1.11482" stroke-miterlimit="10"/>
<path d="M214.962 60.3591H213.249V52.5591H213.197L210.99 53.9712V52.4179L213.327 50.9017H214.959V60.3591H214.962Z" fill="#424242"/>
<path d="M217.118 55.6286C217.11 52.5442 218.482 50.7679 220.748 50.7679C223.015 50.7679 224.379 52.5442 224.379 55.6286C224.379 58.7129 223.019 60.4892 220.748 60.4892C218.478 60.4892 217.11 58.7241 217.118 55.6286ZM220.748 59.0659C221.93 59.0585 222.67 57.9028 222.67 55.6286C222.662 53.3766 221.93 52.1875 220.748 52.1801C219.567 52.1875 218.835 53.3766 218.827 55.6286C218.827 57.9028 219.559 59.0585 220.748 59.0659Z" fill="#424242"/>
<path d="M225.806 59.1328L229.151 55.9073C230.106 54.9522 230.6 54.3911 230.6 53.5959C230.6 52.7151 229.901 52.1577 228.98 52.1577C228.006 52.1577 227.378 52.7635 227.385 53.7259H225.765C225.758 51.9348 227.103 50.7716 228.991 50.7716C230.878 50.7716 232.224 51.9273 232.231 53.5141C232.224 54.5806 231.715 55.4427 229.853 57.1967L228.166 58.869V58.9359H232.372V60.3591H225.802V59.1328H225.806Z" fill="#424242"/>
</g>
</svg>
