<svg width="321" height="321" viewBox="0 0 321 321" fill="none" xmlns="http://www.w3.org/2000/svg">
<mask id="mask0_1275_165" style="mask-type:luminance" maskUnits="userSpaceOnUse" x="0" y="0" width="321" height="321">
<path d="M320.562 160.637C320.562 72.3137 248.964 0.716095 160.641 0.716095C117.018 0.716095 77.4749 18.1817 48.6233 46.5019L27.5792 22.2656L6.53874 40.5339L30.3216 67.925C11.6818 94.0751 0.71936 126.078 0.71936 160.637C0.71936 248.961 72.317 320.559 160.641 320.559C200.57 320.559 237.077 305.925 265.1 281.73L279.626 293.175L296.872 271.291L284.631 261.644C307.091 234.104 320.566 198.946 320.566 160.637H320.562Z" fill="white"/>
</mask>
<g mask="url(#mask0_1275_165)">
<path d="M211.158 115.216L285.494 27.5425" stroke="#EA8B8B" stroke-width="1.11482" stroke-miterlimit="10"/>
<path d="M223.766 127.174L311.057 75.3312" stroke="#EA8B8B" stroke-width="1.11482" stroke-miterlimit="10"/>
<path d="M238.779 82.6407L272.811 133.005" stroke="#EA8B8B" stroke-width="1.11482" stroke-miterlimit="10"/>
<path d="M255.954 108.055C250.228 99.5823 244.505 91.1097 238.779 82.637C254.349 64.2722 269.923 45.9073 285.493 27.5425C294.014 43.4733 302.539 59.4004 311.06 75.3312C292.692 86.2416 274.323 97.1483 255.954 108.059V108.055Z" fill="#FFD0D0" stroke="#EA8B8B" stroke-width="1.11482" stroke-miterlimit="10"/>
<path d="M257.2 83.5511H255.486V75.7511H255.434L253.227 77.1632V75.6099L255.564 74.0937H257.196V83.5511H257.2Z" fill="#424242"/>
<path d="M259.355 78.8243C259.348 75.74 260.719 73.9637 262.986 73.9637C265.253 73.9637 266.617 75.74 266.617 78.8243C266.617 81.9086 265.257 83.6849 262.986 83.6849C260.715 83.6849 259.348 81.9198 259.355 78.8243ZM262.986 82.2617C264.168 82.2542 264.907 81.0985 264.907 78.8243C264.9 76.5724 264.168 75.3832 262.986 75.3758C261.804 75.3832 261.072 76.5724 261.065 78.8243C261.065 81.0985 261.797 82.2542 262.986 82.2617Z" fill="#424242"/>
<path d="M267.976 80.9908H269.689C269.734 81.7488 270.492 82.2505 271.48 82.2468C272.517 82.2542 273.271 81.6782 273.271 80.8347C273.271 79.9911 272.539 79.378 271.313 79.3706H270.462V78.0625H271.313C272.32 78.0625 273.019 77.5014 273.011 76.6764C273.019 75.8812 272.417 75.3423 271.495 75.3423C270.573 75.3423 269.841 75.8403 269.808 76.6355H268.177C268.217 75.0488 269.659 73.9562 271.506 73.9562C273.353 73.9562 274.668 75.1305 274.654 76.5835C274.668 77.6426 273.962 78.4044 272.929 78.6199V78.698C274.263 78.8726 275.018 79.731 275.007 80.9202C275.022 82.5218 273.524 83.6775 271.48 83.6775C269.436 83.6775 268.017 82.5813 267.98 80.9871L267.976 80.9908Z" fill="#424242"/>
<path d="M276.587 74.0937H280.206C282.258 74.0937 283.268 75.1379 283.276 76.5501C283.268 77.6983 282.544 78.3412 281.618 78.5605V78.6534C282.625 78.7054 283.644 79.5415 283.644 80.9796C283.644 82.4177 282.577 83.5549 280.418 83.5549H276.59V74.0974L276.587 74.0937ZM279.998 78.1182C280.894 78.1182 281.574 77.6017 281.577 76.7582C281.57 76.0335 281.05 75.5021 280.035 75.5021H278.285V78.1145H279.998V78.1182ZM280.154 82.1279C281.395 82.1279 281.912 81.6002 281.919 80.8458C281.912 79.9949 281.254 79.3483 280.195 79.3445H278.289V82.1279H280.158H280.154Z" fill="#424242"/>
<path d="M272.811 133.005C267.192 124.688 261.573 116.372 255.955 108.059C274.323 97.1483 292.692 86.2416 311.06 75.3312C319.161 90.4742 327.262 105.617 335.363 120.76C314.513 124.84 293.662 128.924 272.814 133.005H272.811Z" fill="#FFD0D0" stroke="#EA8B8B" stroke-width="1.11482" stroke-miterlimit="10"/>
<path d="M275.731 116.914H274.018V109.114H273.966L271.759 110.526V108.973L274.096 107.457H275.728V116.914H275.731Z" fill="#424242"/>
<path d="M277.887 112.184C277.88 109.099 279.251 107.323 281.518 107.323C283.785 107.323 285.148 109.099 285.148 112.184C285.148 115.268 283.788 117.044 281.518 117.044C279.247 117.044 277.88 115.279 277.887 112.184ZM281.518 115.621C282.7 115.613 283.439 114.458 283.439 112.184C283.432 109.932 282.7 108.742 281.518 108.735C280.336 108.742 279.604 109.932 279.597 112.184C279.597 114.458 280.329 115.613 281.518 115.621Z" fill="#424242"/>
<path d="M286.512 114.354H288.225C288.27 115.112 289.028 115.613 290.016 115.61C291.053 115.617 291.807 115.041 291.807 114.198C291.807 113.354 291.075 112.741 289.849 112.733H288.998V111.425H289.849C290.856 111.425 291.555 110.864 291.547 110.039C291.555 109.244 290.953 108.705 290.031 108.705C289.11 108.705 288.377 109.203 288.344 109.998H286.713C286.754 108.412 288.195 107.319 290.042 107.319C291.889 107.319 293.205 108.493 293.19 109.946C293.205 111.006 292.499 111.767 291.465 111.983V112.061C292.8 112.236 293.554 113.094 293.543 114.283C293.558 115.885 292.06 117.04 290.016 117.04C287.972 117.04 286.553 115.944 286.516 114.35L286.512 114.354Z" fill="#424242"/>
<path d="M294.505 116.914L297.835 107.457H299.923L303.268 116.914H301.45L300.659 114.577H297.099L296.315 116.914H294.498H294.505ZM300.209 113.205L298.923 109.389H298.845L297.563 113.205H300.209Z" fill="#424242"/>
<path d="M237.252 139.965C232.755 135.703 228.259 131.436 223.762 127.174C234.491 120.801 245.223 114.428 255.951 108.059C261.57 116.375 267.188 124.692 272.807 133.005C260.953 135.324 249.102 137.646 237.248 139.965H237.252Z" fill="#FFD0D0" stroke="#EA8B8B" stroke-width="1.11482" stroke-miterlimit="10"/>
<path d="M241.562 131.054H239.849V123.254H239.797L237.59 124.666V123.112L239.927 121.596H241.559V131.054H241.562Z" fill="#424242"/>
<path d="M243.718 126.323C243.71 123.239 245.082 121.463 247.348 121.463C249.615 121.463 250.979 123.239 250.979 126.323C250.979 129.408 249.619 131.184 247.348 131.184C245.078 131.184 243.71 129.419 243.718 126.323ZM247.348 129.761C248.53 129.753 249.27 128.597 249.27 126.323C249.262 124.071 248.53 122.882 247.348 122.875C246.167 122.882 245.435 124.071 245.427 126.323C245.427 128.597 246.159 129.753 247.348 129.761Z" fill="#424242"/>
<path d="M252.343 128.493H254.056C254.101 129.251 254.859 129.753 255.847 129.749C256.884 129.757 257.638 129.181 257.638 128.337C257.638 127.494 256.906 126.881 255.68 126.873H254.829V125.565H255.68C256.687 125.565 257.386 125.004 257.378 124.179C257.386 123.384 256.784 122.845 255.862 122.845C254.94 122.845 254.208 123.343 254.175 124.138H252.544C252.584 122.551 254.026 121.459 255.873 121.459C257.72 121.459 259.036 122.633 259.021 124.086C259.036 125.145 258.33 125.907 257.296 126.123V126.201C258.631 126.375 259.385 127.234 259.374 128.423C259.389 130.024 257.891 131.18 255.847 131.18C253.803 131.18 252.384 130.084 252.347 128.49L252.343 128.493Z" fill="#424242"/>
<path d="M223.766 127.174C219.563 123.191 215.36 119.203 211.158 115.22C220.366 104.361 229.571 93.4991 238.779 82.6407C244.506 91.1134 250.228 99.586 255.955 108.059C245.227 114.432 234.495 120.805 223.766 127.174Z" fill="#FFD0D0" stroke="#EA8B8B" stroke-width="1.11482" stroke-miterlimit="10"/>
</g>
</svg>
