<svg width="321" height="321" viewBox="0 0 321 321" fill="none" xmlns="http://www.w3.org/2000/svg">
<mask id="mask0_1275_164" style="mask-type:luminance" maskUnits="userSpaceOnUse" x="0" y="0" width="321" height="321">
<path d="M320.562 160.637C320.562 72.3137 248.964 0.716095 160.641 0.716095C117.018 0.716095 77.4749 18.1817 48.6233 46.5019L27.5792 22.2656L6.53874 40.5339L30.3216 67.925C11.6818 94.0751 0.71936 126.078 0.71936 160.637C0.71936 248.961 72.317 320.559 160.641 320.559C200.57 320.559 237.077 305.925 265.1 281.73L279.626 293.175L296.872 271.291L284.631 261.644C307.091 234.104 320.566 198.946 320.566 160.637H320.562Z" fill="white"/>
</mask>
<g mask="url(#mask0_1275_164)">
<path d="M323.892 163.302C325.23 149.656 326.568 136.011 327.905 122.366C297.686 128.23 267.467 134.097 237.252 139.961C237.337 147.739 237.419 155.52 237.504 163.298H323.892V163.302Z" fill="#FFD0D0" stroke="#EA8B8B" stroke-width="1.11482" stroke-miterlimit="10"/>
<path d="M269.638 151.559H267.924V143.759H267.872L265.665 145.171V143.618L268.002 142.102H269.634V151.559H269.638Z" fill="#424242"/>
<path d="M271.793 146.832C271.785 143.748 273.157 141.972 275.423 141.972C277.69 141.972 279.054 143.748 279.054 146.832C279.054 149.917 277.694 151.693 275.423 151.693C273.153 151.693 271.785 149.928 271.793 146.832ZM275.423 150.27C276.605 150.262 277.345 149.106 277.345 146.832C277.337 144.58 276.605 143.391 275.423 143.384C274.242 143.391 273.51 144.58 273.502 146.832C273.502 149.106 274.234 150.262 275.423 150.27Z" fill="#424242"/>
<path d="M280.31 148.438L284.397 142.102H286.516V148.4H287.757V149.798H286.516V151.563H284.895V149.798H280.31V148.438ZM284.921 148.397V144.034H284.817L282.049 148.333V148.4H284.921V148.397Z" fill="#424242"/>
<path d="M288.593 151.559L291.923 142.102H294.011L297.356 151.559H295.539L294.747 149.222H291.187L290.403 151.559H288.586H288.593ZM294.297 147.85L293.012 144.034H292.934L291.652 147.85H294.297Z" fill="#424242"/>
<path d="M237.505 163.302L237.765 187.107C265.267 191.488 292.77 195.866 320.269 200.247C321.477 187.932 322.685 175.617 323.892 163.302H237.505Z" fill="#FFD0D0" stroke="#EA8B8B" stroke-width="1.11482" stroke-miterlimit="10"/>
<path d="M273.636 183.358H271.923V175.557H271.871L269.663 176.97V175.416L272.001 173.9H273.632V183.358H273.636Z" fill="#424242"/>
<path d="M275.791 178.627C275.783 175.543 277.155 173.766 279.421 173.766C281.688 173.766 283.052 175.543 283.052 178.627C283.052 181.711 281.692 183.488 279.421 183.488C277.151 183.488 275.783 181.722 275.791 178.627ZM279.421 182.064C280.603 182.057 281.343 180.901 281.343 178.627C281.335 176.375 280.603 175.186 279.421 175.178C278.24 175.186 277.508 176.375 277.5 178.627C277.5 180.901 278.232 182.057 279.421 182.064Z" fill="#424242"/>
<path d="M284.309 180.236L288.396 173.9H290.514V180.199H291.756V181.596H290.514V183.361H288.894V181.596H284.309V180.236ZM288.92 180.195V175.832H288.816L286.048 180.132V180.199H288.92V180.195Z" fill="#424242"/>
</g>
</svg>
