<svg width="321" height="321" viewBox="0 0 321 321" fill="none" xmlns="http://www.w3.org/2000/svg">
<mask id="mask0_1109_118" style="mask-type:luminance" maskUnits="userSpaceOnUse" x="0" y="0" width="321" height="321">
<path d="M320.562 160.637C320.562 72.3137 248.964 0.716095 160.641 0.716095C117.018 0.716095 77.4749 18.1817 48.6233 46.5019L27.5792 22.2656L6.53874 40.5339L30.3216 67.925C11.6818 94.0751 0.71936 126.078 0.71936 160.637C0.71936 248.961 72.317 320.559 160.641 320.559C200.57 320.559 237.077 305.925 265.1 281.73L279.626 293.175L296.872 271.291L284.631 261.644C307.091 234.104 320.566 198.946 320.566 160.637H320.562Z" fill="white"/>
</mask>
<g mask="url(#mask0_1109_118)">
<path d="M237.764 187.107C232.699 193.502 227.634 199.901 222.569 206.297L222.473 212.618C246.434 231.406 270.392 250.195 294.353 268.98C302.993 246.066 311.629 223.157 320.269 200.243C292.766 195.862 265.263 191.485 237.764 187.103V187.107Z" fill="#FFD0D0" stroke="#EA8B8B" stroke-width="1.11482" stroke-miterlimit="10"/>
<path d="M262.818 220.243H261.105V212.443H261.053L258.846 213.855V212.302L261.183 210.786H262.814V220.243H262.818Z" fill="#424242"/>
<path d="M264.974 215.513C264.966 212.428 266.337 210.652 268.604 210.652C270.871 210.652 272.235 212.428 272.235 215.513C272.235 218.597 270.875 220.373 268.604 220.373C266.334 220.373 264.966 218.608 264.974 215.513ZM268.604 218.95C269.786 218.943 270.525 217.787 270.525 215.513C270.518 213.261 269.786 212.072 268.604 212.064C267.422 212.072 266.69 213.261 266.683 215.513C266.683 217.787 267.415 218.943 268.604 218.95Z" fill="#424242"/>
<path d="M273.688 217.683H275.345C275.397 218.448 276.122 218.995 277.017 219.002C278.076 218.995 278.838 218.233 278.835 217.185C278.842 216.1 278.058 215.338 276.965 215.331C276.226 215.323 275.691 215.587 275.397 216.141H273.818L274.394 210.786H279.986V212.209H275.791L275.505 214.717H275.598C275.962 214.305 276.649 214.004 277.426 214C279.184 214.008 280.488 215.312 280.484 217.137C280.492 219.024 279.069 220.377 277.021 220.377C275.133 220.377 273.743 219.247 273.691 217.687L273.688 217.683Z" fill="#424242"/>
</g>
</svg>
