<svg width="321" height="321" viewBox="0 0 321 321" fill="none" xmlns="http://www.w3.org/2000/svg">
<mask id="mask0_1109_115" style="mask-type:luminance" maskUnits="userSpaceOnUse" x="0" y="0" width="321" height="321">
<path d="M320.562 160.637C320.562 72.3137 248.964 0.716095 160.641 0.716095C117.018 0.716095 77.4749 18.1817 48.6233 46.5019L27.5792 22.2656L6.53874 40.5339L30.3216 67.925C11.6818 94.0751 0.71936 126.078 0.71936 160.637C0.71936 248.961 72.317 320.559 160.641 320.559C200.57 320.559 237.077 305.925 265.1 281.73L279.626 293.175L296.872 271.291L284.631 261.644C307.091 234.104 320.566 198.946 320.566 160.637H320.562Z" fill="white"/>
</mask>
<g mask="url(#mask0_1109_115)">
<path d="M125.212 264.732H93.1456V314.769H125.212V264.732Z" fill="#FFD0D0" stroke="#EA8B8B" stroke-width="1.11482" stroke-miterlimit="10"/>
<path d="M111.466 292.417H93.1456V314.769H111.466V292.417Z" fill="#FFD0D0" stroke="#EA8B8B" stroke-width="1.11482" stroke-miterlimit="10"/>
<path d="M102.823 284.498H101.11V276.698H101.058L98.8506 278.11V276.557L101.188 275.041H102.819V284.498H102.823Z" fill="#424242"/>
<path d="M104.978 279.767C104.971 276.683 106.342 274.907 108.609 274.907C110.875 274.907 112.239 276.683 112.239 279.767C112.239 282.852 110.879 284.628 108.609 284.628C106.338 284.628 104.971 282.863 104.978 279.767ZM108.609 283.205C109.79 283.197 110.53 282.042 110.53 279.767C110.522 277.515 109.79 276.326 108.609 276.319C107.427 276.326 106.695 277.515 106.687 279.767C106.687 282.042 107.419 283.197 108.609 283.205Z" fill="#424242"/>
<path d="M113.521 280.031C113.521 276.798 114.993 274.91 117.312 274.91C119.132 274.91 120.388 276.055 120.604 277.59H118.917C118.746 276.865 118.174 276.382 117.312 276.389C115.94 276.382 115.175 277.597 115.167 279.589H115.26C115.743 278.771 116.65 278.288 117.691 278.296C119.389 278.288 120.701 279.578 120.697 281.365C120.704 283.246 119.3 284.643 117.207 284.632C115.361 284.617 113.517 283.521 113.525 280.031H113.521ZM117.204 283.257C118.255 283.249 119.039 282.439 119.047 281.402C119.039 280.395 118.281 279.585 117.23 279.585C116.178 279.585 115.361 280.429 115.349 281.414C115.364 282.398 116.134 283.249 117.204 283.257Z" fill="#424242"/>
<path d="M125.208 264.732H-2.82153V202.295C30.5934 202.295 64.0121 202.295 97.427 202.295C97.4828 206.419 97.5422 210.544 97.598 214.669C100.675 217.508 103.752 220.344 106.829 223.183C112.953 223.168 119.081 223.149 125.205 223.134V264.736L125.208 264.732Z" fill="#FFD0D0" stroke="#EA8B8B" stroke-width="1.11482" stroke-miterlimit="10"/>
<path d="M45.383 208.266C43.8334 208.266 42.7372 209.456 42.7446 211.596C42.7372 213.77 43.8409 214.926 45.383 214.926C46.5053 214.926 47.4157 214.298 47.6424 213.186H49.3555C49.0954 215.004 47.5978 216.453 45.357 216.453C42.8635 216.453 41.0278 214.643 41.0315 211.592C41.0241 208.534 42.8784 206.732 45.357 206.732C47.4455 206.732 49.062 207.947 49.3555 210.05H47.6424C47.4418 208.913 46.5313 208.259 45.383 208.259V208.266Z" fill="#424242"/>
<path d="M112.934 238.303H116.553C118.605 238.303 119.615 239.348 119.623 240.76C119.615 241.908 118.891 242.551 117.965 242.77V242.863C118.972 242.915 119.991 243.751 119.991 245.189C119.991 246.627 118.924 247.765 116.765 247.765H112.938V238.307L112.934 238.303ZM116.345 242.328C117.241 242.328 117.921 241.811 117.925 240.968C117.917 240.243 117.397 239.712 116.382 239.712H114.632V242.324H116.345V242.328ZM116.501 246.338C117.742 246.338 118.259 245.81 118.266 245.056C118.259 244.205 117.601 243.558 116.542 243.554H114.636V246.338H116.505H116.501Z" fill="#424242"/>
<path d="M49.4337 220.645H97.0143C100.173 225.479 103.328 230.318 106.487 235.152V264.732H49.3519C49.3779 250.035 49.4077 235.342 49.4337 220.645Z" fill="#FFD0D0" stroke="#EA8B8B" stroke-width="1.11482" stroke-miterlimit="10"/>
<path d="M72.9938 247.761L76.3234 238.303H78.4118L81.7563 247.761H79.9391L79.1476 245.423H75.5876L74.8035 247.761H72.9863H72.9938ZM78.6979 244.052L77.4122 240.236H77.3341L76.0521 244.052H78.6979Z" fill="#424242"/>
<path d="M49.3522 220.645H8.82092V264.732H49.3522V220.645Z" fill="#FFD0D0" stroke="#EA8B8B" stroke-width="1.11482" stroke-miterlimit="10"/>
<path d="M34.0935 247.761V238.303H37.3599C40.1804 238.303 41.8861 240.072 41.8936 243.019C41.8861 245.977 40.1804 247.761 37.3079 247.761H34.0935ZM37.215 246.286C39.1957 246.293 40.1953 245.2 40.1953 243.019C40.1953 240.838 39.1957 239.771 37.267 239.779H35.7918V246.286H37.215Z" fill="#424242"/>
<path d="M93.1423 264.732H39.2295V314.769H93.1423V264.732Z" fill="#FFD0D0" stroke="#EA8B8B" stroke-width="1.11482" stroke-miterlimit="10"/>
<path d="M71.6816 275.041H77.8355V276.464H73.3799V279.05H77.5084V280.473H73.3799V283.06H77.8615V284.498H71.6816V275.041Z" fill="#424242"/>
</g>
</svg>
