<svg width="321" height="321" viewBox="0 0 321 321" fill="none" xmlns="http://www.w3.org/2000/svg">
<mask id="mask0_1109_117" style="mask-type:luminance" maskUnits="userSpaceOnUse" x="0" y="0" width="321" height="321">
<path d="M320.562 160.637C320.562 72.3137 248.964 0.716095 160.641 0.716095C117.018 0.716095 77.4749 18.1817 48.6233 46.5019L27.5792 22.2656L6.53874 40.5339L30.3216 67.925C11.6818 94.0751 0.71936 126.078 0.71936 160.637C0.71936 248.961 72.317 320.559 160.641 320.559C200.57 320.559 237.077 305.925 265.1 281.73L279.626 293.175L296.872 271.291L284.631 261.644C307.091 234.104 320.566 198.946 320.566 160.637H320.562Z" fill="white"/>
</mask>
<g mask="url(#mask0_1109_117)">
<path d="M213.231 280.436H152.804V325.553C179.036 325.375 205.268 325.193 231.499 325.014C225.409 310.154 219.322 295.293 213.231 280.436Z" fill="#FFD0D0" stroke="#EA8B8B" stroke-width="1.11482" stroke-miterlimit="10"/>
<path d="M172.284 301.663H170.571V293.862H170.519L168.311 295.275V293.721L170.649 292.205H172.28V301.663H172.284Z" fill="#424242"/>
<path d="M174.439 296.932C174.432 293.848 175.803 292.071 178.07 292.071C180.336 292.071 181.7 293.848 181.7 296.932C181.7 300.016 180.34 301.793 178.07 301.793C175.799 301.793 174.432 300.027 174.439 296.932ZM178.07 300.369C179.251 300.362 179.991 299.206 179.991 296.932C179.983 294.68 179.251 293.491 178.07 293.483C176.888 293.491 176.156 294.68 176.148 296.932C176.148 299.206 176.88 300.362 178.07 300.369Z" fill="#424242"/>
<path d="M187.323 293.692V293.625H182.566V292.201H189.084V293.651L184.982 301.659H183.217L187.319 293.688L187.323 293.692Z" fill="#424242"/>
</g>
</svg>
