<svg width="321" height="321" viewBox="0 0 321 321" fill="none" xmlns="http://www.w3.org/2000/svg">
<mask id="mask0_1109_116" style="mask-type:luminance" maskUnits="userSpaceOnUse" x="0" y="0" width="321" height="321">
<path d="M320.562 160.637C320.562 72.3137 248.964 0.716095 160.641 0.716095C117.018 0.716095 77.4749 18.1817 48.6233 46.5019L27.5792 22.2656L6.53874 40.5339L30.3216 67.925C11.6818 94.0751 0.71936 126.078 0.71936 160.637C0.71936 248.961 72.317 320.559 160.641 320.559C200.57 320.559 237.077 305.925 265.1 281.73L279.626 293.175L296.872 271.291L284.631 261.644C307.091 234.104 320.566 198.946 320.566 160.637H320.562Z" fill="white"/>
</mask>
<g mask="url(#mask0_1109_116)">
<path d="M213.231 280.436C207.282 265.918 201.328 251.395 195.379 236.876H152.804V280.436H213.231Z" fill="#FFD0D0" stroke="#EA8B8B" stroke-width="1.11482" stroke-miterlimit="10"/>
<path d="M171.005 263.848H169.292V256.048H169.24L167.033 257.46V255.906L169.37 254.39H171.002V263.848H171.005Z" fill="#424242"/>
<path d="M173.164 259.117C173.157 256.033 174.528 254.257 176.795 254.257C179.062 254.257 180.426 256.033 180.426 259.117C180.426 262.201 179.066 263.978 176.795 263.978C174.525 263.978 173.157 262.213 173.164 259.117ZM176.795 262.555C177.977 262.547 178.716 261.391 178.716 259.117C178.709 256.865 177.977 255.676 176.795 255.669C175.613 255.676 174.881 256.865 174.874 259.117C174.874 261.391 175.606 262.547 176.795 262.555Z" fill="#424242"/>
<path d="M181.693 261.313C181.685 260.113 182.581 259.132 183.718 258.95V258.898C182.726 258.69 182.053 257.828 182.046 256.795C182.053 255.33 183.417 254.26 185.286 254.26C187.155 254.26 188.512 255.33 188.512 256.795C188.512 257.831 187.82 258.69 186.839 258.898V258.95C187.969 259.132 188.872 260.113 188.876 261.313C188.868 262.856 187.374 263.978 185.282 263.978C183.19 263.978 181.681 262.856 181.689 261.313H181.693ZM185.286 262.633C186.397 262.633 187.122 262.031 187.129 261.157C187.122 260.269 186.353 259.608 185.286 259.615C184.22 259.608 183.439 260.262 183.443 261.157C183.435 262.034 184.16 262.633 185.286 262.633ZM185.286 258.348C186.193 258.348 186.854 257.779 186.854 256.951C186.854 256.122 186.215 255.591 185.286 255.591C184.357 255.591 183.71 256.144 183.707 256.951C183.714 257.779 184.368 258.348 185.286 258.348Z" fill="#424242"/>
</g>
</svg>
