<svg width="321" height="321" viewBox="0 0 321 321" fill="none" xmlns="http://www.w3.org/2000/svg">
<mask id="mask0_1109_110" style="mask-type:luminance" maskUnits="userSpaceOnUse" x="0" y="0" width="321" height="321">
<path d="M320.562 160.637C320.562 72.3137 248.964 0.716095 160.641 0.716095C117.018 0.716095 77.4749 18.1817 48.6233 46.5019L27.5792 22.2656L6.53874 40.5339L30.3216 67.925C11.6818 94.0751 0.71936 126.078 0.71936 160.637C0.71936 248.961 72.317 320.559 160.641 320.559C200.57 320.559 237.077 305.925 265.1 281.73L279.626 293.175L296.872 271.291L284.631 261.644C307.091 234.104 320.566 198.946 320.566 160.637H320.562Z" fill="white"/>
</mask>
<g mask="url(#mask0_1109_110)">
<path d="M97.3529 140.154H-6.77893V202.295H97.3529V140.154Z" fill="#FFD0D0" stroke="#EA8B8B" stroke-width="1.11482" stroke-miterlimit="10"/>
<path d="M97.3526 184.818H81.9978V202.295H97.3526V184.818Z" fill="#FFD0D0" stroke="#EA8B8B" stroke-width="1.11482" stroke-miterlimit="10"/>
<path d="M39.3109 176.371H37.5978V168.571H37.5457L35.3384 169.983V168.43L37.6758 166.914H39.3071V176.371H39.3109Z" fill="#424242"/>
<path d="M41.47 171.641C41.4626 168.556 42.8338 166.78 45.1006 166.78C47.3674 166.78 48.7312 168.556 48.7312 171.641C48.7312 174.725 47.3711 176.501 45.1006 176.501C42.8301 176.501 41.4626 174.736 41.47 171.641ZM45.1006 175.078C46.2823 175.071 47.0218 173.915 47.0218 171.641C47.0144 169.389 46.2823 168.2 45.1006 168.192C43.9189 168.2 43.1868 169.389 43.1794 171.641C43.1794 173.915 43.9115 175.071 45.1006 175.078Z" fill="#424242"/>
<path d="M57.2114 171.355C57.2114 174.614 55.7361 176.501 53.4099 176.501C51.589 176.501 50.3255 175.364 50.1174 173.796H51.8045C51.9755 174.547 52.5552 175.022 53.4099 175.022C54.7811 175.022 55.5541 173.815 55.5652 171.782H55.4612C54.9855 172.603 54.0713 173.094 53.0308 173.09C51.34 173.097 50.032 171.808 50.0245 170.021C50.0245 168.174 51.4143 166.769 53.5139 166.78C55.3608 166.795 57.204 167.899 57.2114 171.351V171.355ZM53.5028 171.801C54.5544 171.801 55.3645 170.95 55.3571 169.972C55.3571 169.013 54.5879 168.162 53.5288 168.155C52.4623 168.162 51.6745 168.973 51.6856 169.983C51.6856 171.002 52.4437 171.801 53.5028 171.801Z" fill="#424242"/>
</g>
</svg>
