<svg width="321" height="321" viewBox="0 0 321 321" fill="none" xmlns="http://www.w3.org/2000/svg">
<mask id="mask0_1109_109" style="mask-type:luminance" maskUnits="userSpaceOnUse" x="0" y="0" width="321" height="321">
<path d="M320.562 160.637C320.562 72.3137 248.964 0.716095 160.641 0.716095C117.018 0.716095 77.4749 18.1817 48.6233 46.5019L27.5792 22.2656L6.53874 40.5339L30.3216 67.925C11.6818 94.0751 0.71936 126.078 0.71936 160.637C0.71936 248.961 72.317 320.559 160.641 320.559C200.57 320.559 237.077 305.925 265.1 281.73L279.626 293.175L296.872 271.291L284.631 261.644C307.091 234.104 320.566 198.946 320.566 160.637H320.562Z" fill="white"/>
</mask>
<g mask="url(#mask0_1109_109)">
<path d="M82.9084 95.2271H-11.8032V140.154H82.9084V95.2271Z" fill="#FFD0D0" stroke="#EA8B8B" stroke-width="1.11482" stroke-miterlimit="10"/>
<path d="M39.7235 122.024H38.0104V114.224H37.9583L35.751 115.636V114.082L38.0884 112.566H39.7197V122.024H39.7235Z" fill="#424242"/>
<path d="M45.8626 122.024H44.1495V114.224H44.0975L41.8901 115.636V114.082L44.2275 112.566H45.8589V122.024H45.8626Z" fill="#424242"/>
<path d="M48.0176 117.293C48.0102 114.209 49.3814 112.433 51.6482 112.433C53.915 112.433 55.2788 114.209 55.2788 117.293C55.2788 120.377 53.9187 122.154 51.6482 122.154C49.3777 122.154 48.0102 120.389 48.0176 117.293ZM51.6482 120.731C52.8299 120.723 53.5694 119.567 53.5694 117.293C53.562 115.041 52.8299 113.852 51.6482 113.845C50.4665 113.852 49.7344 115.041 49.727 117.293C49.727 119.567 50.4591 120.723 51.6482 120.731Z" fill="#424242"/>
</g>
</svg>
