<svg width="321" height="321" viewBox="0 0 321 321" fill="none" xmlns="http://www.w3.org/2000/svg">
<mask id="mask0_1109_108" style="mask-type:luminance" maskUnits="userSpaceOnUse" x="0" y="0" width="321" height="321">
<path d="M320.562 160.637C320.562 72.3137 248.964 0.716095 160.641 0.716095C117.018 0.716095 77.4749 18.1817 48.6233 46.5019L27.5792 22.2656L6.53874 40.5339L30.3216 67.925C11.6818 94.0751 0.71936 126.078 0.71936 160.637C0.71936 248.961 72.317 320.559 160.641 320.559C200.57 320.559 237.077 305.925 265.1 281.73L279.626 293.175L296.872 271.291L284.631 261.644C307.091 234.104 320.566 198.946 320.566 160.637H320.562Z" fill="white"/>
</mask>
<g mask="url(#mask0_1109_108)">
<path d="M156.301 95.2271H119.794V135.208H156.301V95.2271Z" fill="#FFD0D0" stroke="#EA8B8B" stroke-width="1.11482" stroke-miterlimit="10"/>
<path d="M132.499 120.076H130.786V112.276H130.734L128.527 113.689V112.135L130.864 110.619H132.495V120.076H132.499Z" fill="#424242"/>
<path d="M138.642 120.076H136.929V112.276H136.877L134.67 113.689V112.135L137.007 110.619H138.638V120.076H138.642Z" fill="#424242"/>
<path d="M140.939 118.846L144.283 115.621C145.238 114.666 145.732 114.105 145.732 113.309C145.732 112.429 145.034 111.871 144.112 111.871C143.139 111.871 142.511 112.477 142.518 113.44H140.898C140.89 111.648 142.236 110.485 144.123 110.485C146.011 110.485 147.356 111.641 147.364 113.228C147.356 114.294 146.847 115.156 144.985 116.91L143.298 118.583V118.649H147.505V120.073H140.935V118.846H140.939Z" fill="#424242"/>
</g>
</svg>
