<svg width="328" height="328" viewBox="0 0 328 328" fill="none" xmlns="http://www.w3.org/2000/svg">
<path d="M163.641 325.417C141.802 325.417 120.616 321.14 100.668 312.704C81.4043 304.555 64.1022 292.89 49.2454 278.033C34.3885 263.176 22.7237 245.874 14.5744 226.61C6.1389 206.666 1.86169 185.477 1.86169 163.637C1.86169 130.256 11.9211 98.2754 30.966 71.044L6.91927 43.348L30.7653 22.6458L51.7389 46.804C81.9952 17.8037 121.653 1.85806 163.641 1.85806C185.48 1.85806 206.666 6.13527 226.614 14.5708C245.878 22.7201 263.18 34.3849 278.037 49.2417C292.894 64.0986 304.558 81.4007 312.708 100.665C321.143 120.613 325.42 141.798 325.42 163.637C325.42 182.593 322.173 201.155 315.766 218.814C309.791 235.287 301.21 250.597 290.255 264.351L302.481 273.983L282.935 298.787L268.148 287.138C254.057 299.077 238.2 308.434 220.995 314.96C202.69 321.901 183.396 325.421 163.641 325.421V325.417Z" fill="#FFE8E8"/>
<path d="M163.641 3.71608C251.965 3.71608 323.562 75.3137 323.562 163.637C323.562 201.946 310.092 237.108 287.628 264.644L299.869 274.291L282.622 296.175L268.096 284.729C240.073 308.925 203.567 323.559 163.637 323.559C75.3137 323.559 3.71608 251.961 3.71608 163.637C3.71608 129.078 14.6785 97.0751 33.3183 70.925L9.53545 43.5338L30.5759 25.2656L51.62 49.5019C80.4716 21.1816 120.014 3.71608 163.637 3.71608M163.637 0C141.817 0 120.628 4.22518 100.657 12.5603C82.5824 20.104 66.187 30.7134 51.8653 44.121L33.3815 22.8316L30.9438 20.0259L28.1381 22.4637L7.0977 40.7319L4.29207 43.1697L6.72981 45.9753L28.6101 71.1777C19.7509 84.0874 12.8205 98.1341 7.99328 112.984C2.69044 129.29 0 146.335 0 163.645C0 185.733 4.32551 207.164 12.8613 227.342C21.1036 246.829 32.9021 264.328 47.9299 279.356C62.9578 294.384 80.4568 306.182 99.9439 314.425C120.118 322.957 141.549 327.286 163.641 327.286C183.619 327.286 203.136 323.726 221.653 316.703C238.583 310.281 254.224 301.151 268.185 289.538L280.326 299.103L283.243 301.404L285.543 298.486L302.79 276.602L305.09 273.685L302.173 271.385L292.864 264.049C303.395 250.519 311.678 235.536 317.513 219.457C323.994 201.597 327.279 182.82 327.279 163.645C327.279 141.556 322.953 120.126 314.417 99.9476C306.175 80.4605 294.376 62.9615 279.349 47.9337C264.321 32.9059 246.822 21.1073 227.335 12.8651C207.16 4.33295 185.729 0.00371687 163.637 0.00371687V0Z" fill="#EA8B8B"/>
</svg>
