<svg width="321" height="321" viewBox="0 0 321 321" fill="none" xmlns="http://www.w3.org/2000/svg">
<mask id="mask0_1275_155" style="mask-type:luminance" maskUnits="userSpaceOnUse" x="0" y="0" width="321" height="321">
<path d="M320.562 160.637C320.562 72.3137 248.964 0.716095 160.641 0.716095C117.018 0.716095 77.4749 18.1817 48.6233 46.5019L27.5792 22.2656L6.53874 40.5339L30.3216 67.925C11.6818 94.0751 0.71936 126.078 0.71936 160.637C0.71936 248.961 72.317 320.559 160.641 320.559C200.57 320.559 237.077 305.925 265.1 281.73L279.626 293.175L296.872 271.291L284.631 261.644C307.091 234.104 320.566 198.946 320.566 160.637H320.562Z" fill="white"/>
</mask>
<g mask="url(#mask0_1275_155)">
<path d="M371.77 -28.8267H-30.8373V350.105H371.77V-28.8267Z" fill="#FFE8E8"/>
</g>
</svg>
