<svg width="321" height="321" viewBox="0 0 321 321" fill="none" xmlns="http://www.w3.org/2000/svg">
<mask id="mask0_1275_162" style="mask-type:luminance" maskUnits="userSpaceOnUse" x="0" y="0" width="321" height="321">
<path d="M320.562 160.637C320.562 72.3137 248.964 0.716095 160.641 0.716095C117.018 0.716095 77.4749 18.1817 48.6233 46.5019L27.5792 22.2656L6.53874 40.5339L30.3216 67.925C11.6818 94.0751 0.71936 126.078 0.71936 160.637C0.71936 248.961 72.317 320.559 160.641 320.559C200.57 320.559 237.077 305.925 265.1 281.73L279.626 293.175L296.872 271.291L284.631 261.644C307.091 234.104 320.566 198.946 320.566 160.637H320.562Z" fill="white"/>
</mask>
<g mask="url(#mask0_1275_162)">
<path d="M27.5811 22.2727L6.53979 40.5378L35.9229 74.3869L56.9642 56.1218L27.5811 22.2727Z" fill="#FFE8E8" stroke="#EA8B8B" stroke-width="1.11482" stroke-miterlimit="10"/>
<path d="M52.0869 50.493L31.1803 68.9173" stroke="#EA8B8B" stroke-width="1.11482" stroke-miterlimit="10"/>
<path d="M47.1668 44.8259L26.2601 63.2465" stroke="#EA8B8B" stroke-width="1.11482" stroke-miterlimit="10"/>
<path d="M42.5627 38.8022L21.656 57.2227" stroke="#EA8B8B" stroke-width="1.11482" stroke-miterlimit="10"/>
<path d="M37.4271 32.9716L16.5205 51.3922" stroke="#EA8B8B" stroke-width="1.11482" stroke-miterlimit="10"/>
<path d="M32.0831 27.7952L11.1802 46.2157" stroke="#EA8B8B" stroke-width="1.11482" stroke-miterlimit="10"/>
</g>
</svg>
