<?xml version="1.0" encoding="UTF-8"?>
<svg id="_x33_" xmlns="http://www.w3.org/2000/svg" viewBox="0 0 1031 873">
  <defs>
    <style>
      .cls-1, .cls-2, .cls-3, .cls-4 {
        fill: none;
      }

      .cls-1, .cls-2, .cls-3, .cls-4, .cls-5, .cls-6 {
        stroke-miterlimit: 10;
      }

      .cls-1, .cls-4, .cls-5 {
        stroke-width: 3px;
      }

      .cls-1, .cls-5, .cls-6 {
        stroke: #de8f8d;
      }

      .cls-2, .cls-3, .cls-4 {
        stroke: #d98f8d;
      }

      .cls-3 {
        stroke-width: 2px;
      }

      .cls-7 {
        font-size: 8px;
      }

      .cls-8 {
        font-size: 10px;
      }

      .cls-9 {
        font-size: 12.53px;
      }

      .cls-10, .cls-11 {
        font-size: 17px;
      }

      .cls-12, .cls-11 {
        fill: #221f20;
        font-family: NanumSquareNeoTTF-dEb, 'NanumSquare Neo';
      }

      .cls-5 {
        fill: #f4d1d1;
      }

      .cls-6 {
        fill: #fcf4f3;
        stroke-width: 10px;
      }
    </style>
  </defs>
  <g id="Layer_x5F_border-3" data-name="Layer_x5F_border">
    <path class="cls-6" d="M719.86,82.5v-45.5h-140.1v47h-24.76l1,369H163v358.41h697.63V82.5h-140.77ZM582.18,680.5h-157v-95h157v95Z"/>
  </g>
  <g id="Layer_x5F_others-3" data-name="Layer_x5F_others">
    <g>
      <rect class="cls-5" x="255.46" y="585" width="25.54" height="79"/>
      <rect class="cls-5" x="255.46" y="664" width="25.54" height="16.2"/>
      <g>
        <rect class="cls-4" x="281" y="626.57" width="83" height="52.88"/>
        <g>
          <rect class="cls-3" x="299.9" y="627.12" width="4.24" height="26.44"/>
          <rect class="cls-3" x="304.14" y="627.12" width="4.24" height="26.44"/>
          <rect class="cls-3" x="308.38" y="627.12" width="4.24" height="26.44"/>
          <rect class="cls-3" x="312.62" y="627.12" width="4.24" height="26.44"/>
          <rect class="cls-3" x="316.87" y="627.12" width="4.24" height="26.44"/>
          <rect class="cls-3" x="321.13" y="627.12" width="4.24" height="26.44"/>
          <rect class="cls-3" x="325.37" y="627.12" width="4.24" height="26.44"/>
          <rect class="cls-3" x="329.61" y="627.12" width="4.24" height="26.44"/>
          <rect class="cls-3" x="333.85" y="627.12" width="4.24" height="26.44"/>
          <rect class="cls-3" x="338.09" y="627.12" width="4.24" height="26.44"/>
        </g>
        <g>
          <rect class="cls-3" x="299.82" y="653.56" width="4.24" height="26.44"/>
          <rect class="cls-3" x="304.06" y="653.56" width="4.24" height="26.44"/>
          <rect class="cls-3" x="308.3" y="653.56" width="4.24" height="26.44"/>
          <rect class="cls-3" x="312.55" y="653.56" width="4.24" height="26.44"/>
          <rect class="cls-3" x="316.79" y="653.56" width="4.24" height="26.44"/>
          <rect class="cls-3" x="321.05" y="653.56" width="4.24" height="26.44"/>
          <rect class="cls-3" x="325.29" y="653.56" width="4.24" height="26.44"/>
          <rect class="cls-3" x="329.53" y="653.56" width="4.24" height="26.44"/>
          <rect class="cls-3" x="333.77" y="653.56" width="4.24" height="26.44"/>
          <rect class="cls-3" x="338.02" y="653.56" width="4.24" height="26.44"/>
        </g>
      </g>
    </g>
    <g>
      <rect class="cls-5" x="755.5" y="660.5" width="27" height="22"/>
      <rect class="cls-5" x="755.5" y="604.5" width="27" height="56"/>
      <rect class="cls-5" x="755.5" y="584.5" width="27" height="20"/>
      <g>
        <rect class="cls-4" x="673.5" y="625.5" width="82.5" height="55.92"/>
        <g>
          <rect class="cls-3" x="692.28" y="626.08" width="4.22" height="27.96"/>
          <rect class="cls-3" x="696.5" y="626.08" width="4.22" height="27.96"/>
          <rect class="cls-3" x="700.72" y="626.08" width="4.22" height="27.96"/>
          <rect class="cls-3" x="704.93" y="626.08" width="4.22" height="27.96"/>
          <rect class="cls-3" x="709.15" y="626.08" width="4.22" height="27.96"/>
          <rect class="cls-3" x="713.39" y="626.08" width="4.22" height="27.96"/>
          <rect class="cls-3" x="717.6" y="626.08" width="4.22" height="27.96"/>
          <rect class="cls-3" x="721.82" y="626.08" width="4.22" height="27.96"/>
          <rect class="cls-3" x="726.03" y="626.08" width="4.22" height="27.96"/>
          <rect class="cls-3" x="730.25" y="626.08" width="4.22" height="27.96"/>
        </g>
        <g>
          <rect class="cls-3" x="692.21" y="654.04" width="4.22" height="27.96"/>
          <rect class="cls-3" x="696.42" y="654.04" width="4.22" height="27.96"/>
          <rect class="cls-3" x="700.64" y="654.04" width="4.22" height="27.96"/>
          <rect class="cls-3" x="704.86" y="654.04" width="4.22" height="27.96"/>
          <rect class="cls-3" x="709.07" y="654.04" width="4.22" height="27.96"/>
          <rect class="cls-3" x="713.31" y="654.04" width="4.22" height="27.96"/>
          <rect class="cls-3" x="717.52" y="654.04" width="4.22" height="27.96"/>
          <rect class="cls-3" x="721.74" y="654.04" width="4.22" height="27.96"/>
          <rect class="cls-3" x="725.96" y="654.04" width="4.22" height="27.96"/>
          <rect class="cls-3" x="730.17" y="654.04" width="4.22" height="27.96"/>
        </g>
      </g>
    </g>
    <rect class="cls-5" x="582.5" y="604.5" width="31" height="31"/>
    <rect class="cls-5" x="582.5" y="635.5" width="31" height="31"/>
    <g>
      <rect class="cls-5" x="647.5" y="289.5" width="23" height="47"/>
      <rect class="cls-5" x="647.5" y="336.5" width="23" height="29"/>
      <rect class="cls-5" x="717.5" y="289.5" width="75" height="28"/>
      <g>
        <rect class="cls-4" x="717.5" y="317.5" width="74" height="48"/>
        <g>
          <rect class="cls-3" x="734.35" y="318" width="3.78" height="24"/>
          <rect class="cls-3" x="738.13" y="318" width="3.78" height="24"/>
          <rect class="cls-3" x="741.91" y="318" width="3.78" height="24"/>
          <rect class="cls-3" x="745.7" y="318" width="3.78" height="24"/>
          <rect class="cls-3" x="749.48" y="318" width="3.78" height="24"/>
          <rect class="cls-3" x="753.28" y="318" width="3.78" height="24"/>
          <rect class="cls-3" x="757.06" y="318" width="3.78" height="24"/>
          <rect class="cls-3" x="760.84" y="318" width="3.78" height="24"/>
          <rect class="cls-3" x="764.62" y="318" width="3.78" height="24"/>
          <rect class="cls-3" x="768.4" y="318" width="3.78" height="24"/>
        </g>
        <g>
          <rect class="cls-3" x="734.28" y="342" width="3.78" height="24"/>
          <rect class="cls-3" x="738.06" y="342" width="3.78" height="24"/>
          <rect class="cls-3" x="741.84" y="342" width="3.78" height="24"/>
          <rect class="cls-3" x="745.63" y="342" width="3.78" height="24"/>
          <rect class="cls-3" x="749.41" y="342" width="3.78" height="24"/>
          <rect class="cls-3" x="753.21" y="342" width="3.78" height="24"/>
          <rect class="cls-3" x="756.99" y="342" width="3.78" height="24"/>
          <rect class="cls-3" x="760.77" y="342" width="3.78" height="24"/>
          <rect class="cls-3" x="764.55" y="342" width="3.78" height="24"/>
          <rect class="cls-3" x="768.33" y="342" width="3.78" height="24"/>
        </g>
      </g>
      <g>
        <rect class="cls-4" x="577" y="37.99" width="143" height="44.01"/>
        <g>
          <rect class="cls-4" x="610.08" y="37.99" width="7.21" height="22"/>
          <rect class="cls-4" x="617.29" y="37.99" width="7.21" height="22"/>
          <rect class="cls-4" x="624.5" y="37.99" width="7.21" height="22"/>
          <rect class="cls-4" x="631.71" y="37.99" width="7.21" height="22"/>
          <rect class="cls-4" x="638.92" y="37.99" width="7.21" height="22"/>
          <rect class="cls-4" x="646.17" y="37.99" width="7.21" height="22"/>
          <rect class="cls-4" x="653.38" y="37.99" width="7.21" height="22"/>
          <rect class="cls-4" x="660.59" y="37.99" width="7.21" height="22"/>
          <rect class="cls-4" x="667.8" y="37.99" width="7.21" height="22"/>
          <rect class="cls-4" x="675.01" y="37.99" width="7.21" height="22"/>
        </g>
        <g>
          <rect class="cls-4" x="609.95" y="60" width="7.21" height="22"/>
          <rect class="cls-4" x="617.16" y="60" width="7.21" height="22"/>
          <rect class="cls-4" x="624.37" y="60" width="7.21" height="22"/>
          <rect class="cls-4" x="631.58" y="60" width="7.21" height="22"/>
          <rect class="cls-4" x="638.79" y="60" width="7.21" height="22"/>
          <rect class="cls-4" x="646.03" y="59.99" width="7.21" height="22"/>
          <rect class="cls-4" x="653.24" y="59.99" width="7.21" height="22"/>
          <rect class="cls-4" x="660.45" y="59.99" width="7.21" height="22"/>
          <rect class="cls-4" x="667.67" y="59.99" width="7.21" height="22"/>
          <rect class="cls-4" x="674.88" y="59.99" width="7.21" height="22"/>
        </g>
      </g>
      <g>
        <rect class="cls-4" x="671.63" y="365.53" width="45.73" height="56.47"/>
        <g>
          <rect class="cls-2" x="694.02" y="378.38" width="22.86" height="2.89"/>
          <rect class="cls-2" x="694.02" y="381.27" width="22.86" height="2.89"/>
          <rect class="cls-2" x="694.02" y="384.16" width="22.86" height="2.89"/>
          <rect class="cls-2" x="694.02" y="387.04" width="22.86" height="2.89"/>
          <rect class="cls-2" x="694.02" y="389.93" width="22.86" height="2.89"/>
          <rect class="cls-2" x="694.02" y="392.83" width="22.86" height="2.89"/>
          <rect class="cls-2" x="694.02" y="395.71" width="22.86" height="2.89"/>
          <rect class="cls-2" x="694.02" y="398.6" width="22.86" height="2.89"/>
          <rect class="cls-2" x="694.02" y="401.49" width="22.86" height="2.89"/>
          <rect class="cls-2" x="694.02" y="404.37" width="22.86" height="2.89"/>
        </g>
        <g>
          <rect class="cls-2" x="671.15" y="378.33" width="22.86" height="2.89"/>
          <rect class="cls-2" x="671.15" y="381.22" width="22.86" height="2.89"/>
          <rect class="cls-2" x="671.15" y="384.1" width="22.86" height="2.89"/>
          <rect class="cls-2" x="671.15" y="386.99" width="22.86" height="2.89"/>
          <rect class="cls-2" x="671.15" y="389.88" width="22.86" height="2.89"/>
          <rect class="cls-2" x="671.16" y="392.77" width="22.86" height="2.89"/>
          <rect class="cls-2" x="671.16" y="395.66" width="22.86" height="2.89"/>
          <rect class="cls-2" x="671.16" y="398.55" width="22.86" height="2.89"/>
          <rect class="cls-2" x="671.16" y="401.43" width="22.86" height="2.89"/>
          <rect class="cls-2" x="671.16" y="404.32" width="22.86" height="2.89"/>
        </g>
      </g>
    </g>
  </g>
  <g id="Layer_41">
    <path class="cls-5" d="M670.86,422.5v30l-507.86.5v358.41l315.18.09h103.68l278.77-.09,1.23-388.91h-191ZM782.5,682.5h-109v25h-309.5v-28.05h-108.54v-94.45h76.27v-31.22h368.99v30.72h81.78v98Z"/>
    <text class="cls-11" transform="translate(530.95 505.58)"><tspan x="0" y="0">301</tspan><tspan x="-21.6" y="20.4">제2자료실</tspan></text>
  </g>
  <g id="Layer_39">
    <rect class="cls-5" x="555.86" y="365.5" width="115" height="87"/>
    <text class="cls-11" transform="translate(589.18 413.22)"><tspan x="0" y="0">라운지</tspan></text>
  </g>
  <g id="Layer_40">
    <rect class="cls-1" x="281" y="585" width="83" height="41"/>
  </g>
  <g id="Layer_42">
    <rect class="cls-5" x="792.5" y="289.5" width="68" height="76"/>
  </g>
  <g id="Layer_43">
    <rect class="cls-5" x="822.86" y="365.5" width="39" height="57"/>
  </g>
  <g id="Layer_44">
    <rect class="cls-5" x="787.86" y="365.5" width="35" height="57"/>
    <text class="cls-12" transform="translate(789.13 385.1)"><tspan class="cls-9"><tspan x="0" y="0">301E</tspan></tspan><tspan class="cls-7"><tspan x="1.06" y="15.79">학술정보</tspan></tspan><tspan class="cls-7"><tspan x="1.06" y="25.39">서비스팀</tspan></tspan></text>
  </g>
  <g id="Layer_45">
    <rect class="cls-5" x="717.86" y="365.5" width="70" height="57"/>
    <text class="cls-12" transform="translate(729.69 393.28)"><tspan class="cls-10"><tspan x="0" y="0">301A</tspan></tspan><tspan class="cls-8"><tspan x="-5.27" y="12">특수컬렉션실</tspan></tspan></text>
  </g>
  <g id="Layer_46">
    <rect class="cls-1" x="673.5" y="584.5" width="82" height="41"/>
  </g>
  <g id="Layer_47">
    <polygon class="cls-5" points="555 84 860.5 84 860.5 289.5 647.5 289.5 647.5 365.5 555.76 365.5 555 84"/>
    <text class="cls-11" transform="translate(691.63 197.97)"><tspan x="0" y="0">서고</tspan></text>
  </g>
</svg>