<?xml version="1.0" encoding="UTF-8"?>
<svg xmlns="http://www.w3.org/2000/svg" viewBox="0 0 1920 1080">
  <g id="Layer_x5F_border">
    <g>
      <polygon points="1338 711 1338 598 1067 598 1067 711 530 711 530 395 1067.21 395 1067.21 430.05 1419 430.05 1419 711 1338 711" fill="#fff"/>
      <path d="M1062.21,400v35.05h351.79v270.95h-71v-113h-281v113h-527v-306h527.21M1072.21,390h-547.21v326h547v-113h261v113h91v-290.95h-351.79v-35.05h0Z" fill="#e18686"/>
    </g>
  </g>
  <g id="Layer_x5F_others">
    <g>
      <g>
        <line x1="1132.29" y1="479.98" x2="1097" y2="479.98" fill="none" stroke="#e18686" stroke-miterlimit="10" stroke-width="3"/>
        <line x1="1132.29" y1="494.96" x2="1097.35" y2="494.96" fill="none" stroke="#e18686" stroke-miterlimit="10" stroke-width="3"/>
        <line x1="1132.29" y1="487.47" x2="1097.35" y2="487.47" fill="none" stroke="#e18686" stroke-miterlimit="10" stroke-width="3"/>
        <rect x="1096.29" y="465.77" width="36.71" height="35.28" transform="translate(1598.05 -631.24) rotate(90)" fill="none" stroke="#e18686" stroke-miterlimit="10" stroke-width="3"/>
        <line x1="1132.29" y1="472.68" x2="1097" y2="472.68" fill="none" stroke="#e18686" stroke-miterlimit="10" stroke-width="3"/>
      </g>
      <rect x="1042.3" y="455.36" width="110.6" height="70.2" transform="translate(1588.06 -607.14) rotate(90)" fill="none" stroke="#e18686" stroke-miterlimit="10" stroke-width="3"/>
    </g>
    <g>
      <line x1="574" y1="626.1" x2="535.97" y2="626.1" fill="none" stroke="#e18686" stroke-miterlimit="10" stroke-width="3"/>
      <line x1="574" y1="641.07" x2="536.35" y2="641.07" fill="none" stroke="#e18686" stroke-miterlimit="10" stroke-width="3"/>
      <line x1="574" y1="633.58" x2="536.35" y2="633.58" fill="none" stroke="#e18686" stroke-miterlimit="10" stroke-width="3"/>
      <rect x="536.64" y="610.51" width="36.71" height="38.02" transform="translate(1184.51 74.53) rotate(90)" fill="none" stroke="#e18686" stroke-miterlimit="10" stroke-width="3"/>
      <line x1="574" y1="618.79" x2="535.97" y2="618.79" fill="none" stroke="#e18686" stroke-miterlimit="10" stroke-width="3"/>
    </g>
    <line x1="535.97" y1="611.5" x2="535.97" y2="493.5" fill="none" stroke="#e18686" stroke-miterlimit="10" stroke-width="3"/>
    <rect x="578.1" y="493.39" width="33.4" height="13.11" transform="translate(1189.6 999.89) rotate(180)" fill="none" stroke="#e18686" stroke-miterlimit="10" stroke-width="3"/>
    <rect x="609.44" y="580.5" width="16.06" height="11.58" transform="translate(1234.94 1172.58) rotate(180)" fill="none" stroke="#e18686" stroke-miterlimit="10" stroke-width="3"/>
    <rect x="595.5" y="595.83" width="9.96" height="23.67" transform="translate(1200.96 1215.33) rotate(180)" fill="none" stroke="#e18686" stroke-miterlimit="10" stroke-width="3"/>
    <rect x="678.5" y="580.93" width="168" height="11.58" transform="translate(1525 1173.43) rotate(180)" fill="none" stroke="#e18686" stroke-miterlimit="10" stroke-width="3"/>
    <rect x="717.5" y="545.5" width="61" height="15" transform="translate(1496 1106) rotate(180)" fill="none" stroke="#e18686" stroke-miterlimit="10" stroke-width="3"/>
    <rect x="929.03" y="580.5" width="96.47" height="11.58" transform="translate(1954.53 1172.57) rotate(180)" fill="none" stroke="#e18686" stroke-miterlimit="10" stroke-width="3"/>
    <line x1="1061.62" y1="592.5" x2="1131.5" y2="592.5" fill="none" stroke="#e18686" stroke-miterlimit="10" stroke-width="3"/>
  </g>
  <g id="Layer_x5F_B110">
    <g>
      <rect x="535.98" y="640.95" width="69.53" height="63.64" fill="#f8cdce" stroke="#e18686" stroke-miterlimit="10" stroke-width="3"/>
      <text transform="translate(550.61 668.43)" fill="#434142"><tspan font-family="NanumSquareNeo-eHv-KSCpc-EUC-H, &apos;NanumSquare Neo OTF&apos;" font-size="16"><tspan x="0" y="0">B110</tspan></tspan><tspan font-family="NanumSquareNeo-bRg-KSCpc-EUC-H, &apos;NanumSquare Neo OTF&apos;" font-size="8"><tspan x="12.7" y="19.2">창고</tspan></tspan></text>
    </g>
  </g>
  <g id="Layer_x5F_B109">
    <g>
      <rect x="535.97" y="401.36" width="104.52" height="91.09" fill="#f8cdce" stroke="#e18686" stroke-miterlimit="10" stroke-width="3"/>
      <text transform="translate(566.45 442.57)" fill="#434142"><tspan font-family="NanumSquareNeo-eHv-KSCpc-EUC-H, &apos;NanumSquare Neo OTF&apos;" font-size="16"><tspan x="0" y="0">B109</tspan></tspan><tspan font-family="NanumSquareNeo-bRg-KSCpc-EUC-H, &apos;NanumSquare Neo OTF&apos;" font-size="8"><tspan x="2.98" y="19.2">교대원창고</tspan></tspan></text>
    </g>
  </g>
  <g id="Layer_x5F_B108A">
    <g>
      <rect x="641.03" y="401.6" width="210.53" height="144.14" fill="#f8cdce" stroke="#e18686" stroke-miterlimit="10" stroke-width="3"/>
      <text transform="translate(718.02 469.33)" fill="#434142"><tspan font-family="NanumSquareNeo-eHv-KSCpc-EUC-H, &apos;NanumSquare Neo OTF&apos;" font-size="16"><tspan x="0" y="0">B108A</tspan></tspan><tspan font-family="NanumSquareNeo-bRg-KSCpc-EUC-H, &apos;NanumSquare Neo OTF&apos;" font-size="8"><tspan x="-9.45" y="19.2">운동영양생화학실험실</tspan></tspan></text>
    </g>
  </g>
  <g id="Layer_x5F_B108">
    <g>
      <rect x="851.79" y="401.6" width="141.47" height="144.14" fill="#f8cdce" stroke="#e18686" stroke-miterlimit="10" stroke-width="3"/>
      <text transform="translate(900.6 464.23)" fill="#434142"><tspan font-family="NanumSquareNeo-eHv-KSCpc-EUC-H, &apos;NanumSquare Neo OTF&apos;" font-size="16"><tspan x="0" y="0">B108</tspan></tspan><tspan font-family="NanumSquareNeo-bRg-KSCpc-EUC-H, &apos;NanumSquare Neo OTF&apos;" font-size="8"><tspan x="-4.46" y="19.2">미래국토연구소</tspan></tspan><tspan font-family="NanumSquareNeo-bRg-KSCpc-EUC-H, &apos;NanumSquare Neo OTF&apos;" font-size="8"><tspan x="-4.46" y="28.8">자연지리실습실</tspan></tspan></text>
    </g>
  </g>
  <g id="Layer_x5F_B107">
    <g>
      <rect x="992.97" y="401.62" width="69.71" height="144.14" fill="#f8cdce" stroke="#e18686" stroke-miterlimit="10" stroke-width="3"/>
      <text transform="translate(1006.76 469.21)" fill="#434142"><tspan font-family="NanumSquareNeo-eHv-KSCpc-EUC-H, &apos;NanumSquare Neo OTF&apos;" font-size="16"><tspan x="0" y="0">B107</tspan></tspan><tspan font-family="NanumSquareNeo-bRg-KSCpc-EUC-H, &apos;NanumSquare Neo OTF&apos;" font-size="8"><tspan x="9.84" y="19.2">당직실</tspan></tspan></text>
    </g>
  </g>
  <g id="Layer_x5F_B106">
    <g>
      <rect x="1343.03" y="435.16" width="69.47" height="156.34" fill="#f8cdce" stroke="#e18686" stroke-miterlimit="10" stroke-width="3"/>
      <text transform="translate(1356.7 508.99)" fill="#434142"><tspan font-family="NanumSquareNeo-eHv-KSCpc-EUC-H, &apos;NanumSquare Neo OTF&apos;" font-size="16"><tspan x="0" y="0">B106</tspan></tspan><tspan font-family="NanumSquareNeo-bRg-KSCpc-EUC-H, &apos;NanumSquare Neo OTF&apos;" font-size="8"><tspan x="-4.61" y="19.2">식품화학기재실</tspan></tspan></text>
    </g>
  </g>
  <g id="Layer_x5F_B105">
    <g>
      <rect x="1343.03" y="591.16" width="69.47" height="113.34" fill="#f8cdce" stroke="#e18686" stroke-miterlimit="10" stroke-width="3"/>
      <text transform="translate(1355.9 644.99)" fill="#434142"><tspan font-family="NanumSquareNeo-eHv-KSCpc-EUC-H, &apos;NanumSquare Neo OTF&apos;" font-size="16"><tspan x="0" y="0">B105</tspan></tspan><tspan font-family="NanumSquareNeo-bRg-KSCpc-EUC-H, &apos;NanumSquare Neo OTF&apos;" font-size="8"><tspan x="-8.58" y="19.2">식품학실습준비실</tspan></tspan></text>
    </g>
  </g>
  <g id="Layer_x5F_B104">
    <g>
      <rect x="1133.03" y="435.16" width="210.53" height="156.34" fill="#f8cdce" stroke="#e18686" stroke-miterlimit="10" stroke-width="3"/>
      <text transform="translate(1216.55 508.99)" fill="#434142"><tspan font-family="NanumSquareNeo-eHv-KSCpc-EUC-H, &apos;NanumSquare Neo OTF&apos;" font-size="16"><tspan x="0" y="0">B104</tspan></tspan><tspan font-family="NanumSquareNeo-bRg-KSCpc-EUC-H, &apos;NanumSquare Neo OTF&apos;" font-size="8"><tspan x="-1.83" y="19.2">식품학 실험실</tspan></tspan></text>
    </g>
  </g>
  <g id="Layer_x5F_B103">
    <g>
      <rect x="886.5" y="592.5" width="174" height="112.09" fill="#f8cdce" stroke="#e18686" stroke-miterlimit="10" stroke-width="3"/>
      <text transform="translate(953.81 644.2)" fill="#434142"><tspan font-family="NanumSquareNeo-eHv-KSCpc-EUC-H, &apos;NanumSquare Neo OTF&apos;" font-size="16"><tspan x="0" y="0">B103</tspan></tspan><tspan font-family="NanumSquareNeo-bRg-KSCpc-EUC-H, &apos;NanumSquare Neo OTF&apos;" font-size="8"><tspan x="-5.57" y="19.2">역량진단 자료실</tspan></tspan></text>
    </g>
  </g>
  <g id="Layer_x5F_B102A">
    <g>
      <rect x="708.5" y="592.5" width="178.2" height="112.09" fill="#f8cdce" stroke="#e18686" stroke-miterlimit="10" stroke-width="3"/>
      <text transform="translate(769.66 644.2)" fill="#434142"><tspan font-family="NanumSquareNeo-eHv-KSCpc-EUC-H, &apos;NanumSquare Neo OTF&apos;" font-size="16"><tspan x="0" y="0">B102A</tspan></tspan><tspan font-family="NanumSquareNeo-bRg-KSCpc-EUC-H, &apos;NanumSquare Neo OTF&apos;" font-size="8"><tspan x="1.6" y="19.2">수학교육실습실</tspan></tspan></text>
    </g>
  </g>
  <g id="Layer_x5F_B102">
    <g>
      <rect x="605.3" y="592.5" width="103" height="112.09" fill="#f8cdce" stroke="#e18686" stroke-miterlimit="10" stroke-width="3"/>
      <text transform="translate(635.19 644.2)" fill="#434142"><tspan font-family="NanumSquareNeo-eHv-KSCpc-EUC-H, &apos;NanumSquare Neo OTF&apos;" font-size="16"><tspan x="0" y="0">B102</tspan></tspan><tspan font-family="NanumSquareNeo-bRg-KSCpc-EUC-H, &apos;NanumSquare Neo OTF&apos;" font-size="8"><tspan x="-13.34" y="19.2">지리학과 합동연구실</tspan></tspan></text>
    </g>
  </g>
</svg>