<?xml version="1.0" encoding="utf-8"?>
<!-- Generator: Adobe Illustrator 27.7.0, SVG Export Plug-In . SVG Version: 6.00 Build 0)  -->
<svg version="1.1" id="레이어_1" xmlns="http://www.w3.org/2000/svg" xmlns:xlink="http://www.w3.org/1999/xlink" x="0px"
	 y="0px" viewBox="0 0 1920 1080" style="enable-background:new 0 0 1920 1080;" xml:space="preserve">
<style type="text/css">
	.st0{fill:#FDF3F2;}
	.st1{fill:#E18686;}
	.st2{fill:none;stroke:#E18686;stroke-width:3;stroke-miterlimit:10;}
	.st3{fill:none;stroke:#E18686;stroke-width:2.94;stroke-miterlimit:10;}
	.st4{fill:none;stroke:#E18686;stroke-width:2.75;stroke-miterlimit:10;}
	.st5{fill:none;stroke:#E18686;stroke-width:2.98;stroke-miterlimit:10;}
	.st6{fill:#F8CDCE;stroke:#E18686;stroke-width:3;stroke-miterlimit:10;}
	.st7{fill:#434142;}
	.st8{font-family:'NanumSquareOTFEB-KSCpc-EUC-H';}
	.st9{font-size:22px;}
	.st10{font-size:16px;}
	.st11{font-size:18px;}
	.st12{fill:#F8CDCE;stroke:#E18686;stroke-width:2.92;stroke-miterlimit:10;}
	.st13{fill:#F8CDCE;stroke:#E18686;stroke-width:3.06;stroke-miterlimit:10;}
	.st14{fill:none;stroke:#E18686;stroke-width:2.66;stroke-miterlimit:10;}
	.st15{fill:none;stroke:#E18686;stroke-width:3.06;stroke-miterlimit:10;}
</style>
<g id="Layer_border">
	<polygon class="st0" points="1499.5,817 1430.6,770 484.9,770 416,817 74.5,817 74.5,192 419.5,192 419.5,471 729.5,471 729.5,418 
		1186,418 1186,471 1496,471 1496,192 1841,192 1841,817 	"/>
	<path class="st1" d="M1836,197v615h-335c-22.9-15.7-45.9-31.3-68.8-47H483.3c-22.9,15.7-45.9,31.3-68.8,47h-335V197h335v279h320
		v-53H1181v53h320V197H1836 M1846,187h-355v279h-300v-53H724.5v53h-300V187h-355v635h348.1l2.5-1.7l19.9-13.6l46.4-31.7h942.7
		l12,8.2l54.3,37.1l2.6,1.7H1846L1846,187L1846,187L1846,187z"/>
	<line class="st2" x1="1548" y1="595" x2="1500" y2="595"/>
	<line class="st2" x1="1837" y1="321.5" x2="1773" y2="321.5"/>
	<line class="st2" x1="907.5" y1="492.5" x2="1005.5" y2="492.5"/>
	<polygon class="st2" points="400.5,636.5 400.5,673 378.5,673 378.5,776 415.5,776 415.5,680.5 415.5,673 415.5,636.5 	"/>
</g>
<g id="Layer_others">
	<rect x="1005.5" y="421.5" class="st2" width="47" height="126"/>
	<rect x="1135.5" y="421.5" class="st2" width="47" height="126"/>
	<rect x="415.5" y="636.5" class="st2" width="52" height="140"/>
	<line class="st2" x1="415.5" y1="600.5" x2="415.5" y2="812.5"/>
	<path class="st2" d="M415.5,611.5c-17.7,26.7-35.3,53.3-53,80v8"/>
	<rect x="78.5" y="196.5" class="st2" width="337" height="121"/>
	<polygon class="st2" points="133.5,196.5 78.5,196.5 78.5,241.5 78.5,248.5 78.5,287.5 106.5,287.5 106.5,248.5 133.5,248.5 	"/>
	<line class="st2" x1="132" y1="231" x2="80" y2="231"/>
	<line class="st2" x1="132" y1="236.3" x2="80" y2="236.3"/>
	<line class="st2" x1="132" y1="241.7" x2="80" y2="241.7"/>
	<line class="st2" x1="132" y1="247" x2="80" y2="247"/>
	<line class="st2" x1="105.5" y1="252.3" x2="80" y2="252.3"/>
	<line class="st2" x1="105.5" y1="257.7" x2="80" y2="257.7"/>
	<line class="st2" x1="105.5" y1="263" x2="80" y2="263"/>
	<line class="st2" x1="105.5" y1="268.3" x2="80" y2="268.3"/>
	<line class="st2" x1="105.5" y1="273.7" x2="80" y2="273.7"/>
	<line class="st2" x1="105.5" y1="279" x2="80" y2="279"/>
	<polygon class="st2" points="360.5,196.5 415.5,196.5 415.5,241.5 415.5,248.5 415.5,287.5 387.5,287.5 387.5,248.5 360.5,248.5 	
		"/>
	<line class="st2" x1="362" y1="231" x2="414" y2="231"/>
	<line class="st2" x1="362" y1="236.3" x2="414" y2="236.3"/>
	<line class="st2" x1="362" y1="241.7" x2="414" y2="241.7"/>
	<line class="st2" x1="362" y1="247" x2="414" y2="247"/>
	<line class="st2" x1="388.5" y1="252.3" x2="414" y2="252.3"/>
	<line class="st2" x1="388.5" y1="257.7" x2="414" y2="257.7"/>
	<line class="st2" x1="388.5" y1="263" x2="414" y2="263"/>
	<line class="st2" x1="388.5" y1="268.3" x2="414" y2="268.3"/>
	<line class="st2" x1="388.5" y1="273.7" x2="414" y2="273.7"/>
	<line class="st2" x1="388.5" y1="279" x2="414" y2="279"/>
	<path class="st2" d="M75.5,611c17.7,26.7,35.3,53.3,53,80v8"/>
	<rect x="1431.5" y="636.5" class="st3" width="74.5" height="128"/>
	<line class="st3" x1="1431.5" y1="692.5" x2="1505.5" y2="692.5"/>
	<line class="st3" x1="1431.5" y1="702.5" x2="1505.5" y2="702.5"/>
	<line class="st3" x1="1431.5" y1="712.5" x2="1505.5" y2="712.5"/>
	<line class="st3" x1="1431.5" y1="722.5" x2="1505.5" y2="722.5"/>
	<line class="st3" x1="1431.5" y1="732.5" x2="1505.5" y2="732.5"/>
	<line class="st3" x1="1431.5" y1="742.5" x2="1505.5" y2="742.5"/>
	<line class="st3" x1="1431.5" y1="752.5" x2="1505.5" y2="752.5"/>
	<line class="st2" x1="417" y1="704.5" x2="467" y2="704.5"/>
	<line class="st2" x1="417" y1="714.5" x2="467" y2="714.5"/>
	<line class="st2" x1="417" y1="724.5" x2="467" y2="724.5"/>
	<line class="st2" x1="417" y1="734.5" x2="467" y2="734.5"/>
	<line class="st2" x1="417" y1="744.5" x2="467" y2="744.5"/>
	<line class="st2" x1="417" y1="754.5" x2="467" y2="754.5"/>
	<line class="st2" x1="417" y1="764.5" x2="467" y2="764.5"/>
	<line class="st2" x1="911" y1="441" x2="1005" y2="441"/>
	<line class="st2" x1="911" y1="448.1" x2="1005" y2="448.1"/>
	<line class="st2" x1="911" y1="455.2" x2="1005" y2="455.2"/>
	<line class="st2" x1="911" y1="462.2" x2="1005" y2="462.2"/>
	<line class="st2" x1="911" y1="469.3" x2="1005" y2="469.3"/>
	<line class="st2" x1="911" y1="476.4" x2="1005" y2="476.4"/>
	<line class="st2" x1="911" y1="483.5" x2="1005" y2="483.5"/>
	<line class="st4" x1="1773" y1="240.5" x2="1838" y2="240.5"/>
	<line class="st4" x1="1773" y1="250.5" x2="1838" y2="250.5"/>
	<line class="st4" x1="1773" y1="260.5" x2="1838" y2="260.5"/>
	<line class="st4" x1="1773" y1="270.5" x2="1838" y2="270.5"/>
	<line class="st4" x1="1773" y1="280.5" x2="1838" y2="280.5"/>
	<line class="st4" x1="1773" y1="290.5" x2="1838" y2="290.5"/>
	<line class="st4" x1="1773" y1="300.5" x2="1838" y2="300.5"/>
	<rect x="1012.5" y="433.5" class="st5" width="33.5" height="27"/>
	<rect x="1012.5" y="469.5" class="st5" width="33.5" height="27"/>
	<rect x="1012.5" y="505.5" class="st5" width="33.5" height="27"/>
	<rect x="1142.5" y="433.5" class="st5" width="33.5" height="27"/>
	<rect x="1142.5" y="469.5" class="st5" width="33.5" height="27"/>
	<rect x="1142.5" y="505.5" class="st5" width="33.5" height="27"/>
</g>
<g id="Layer_623">
	<rect x="1182.5" y="475.5" class="st6" width="94" height="120"/>
	<text transform="matrix(1 0 0 1 1204.33 541.47)" class="st7 st8 st9">623</text>
</g>
<g id="Layer_622">
	<rect x="1276.5" y="475.5" class="st6" width="112" height="120"/>
	<text transform="matrix(1 0 0 1 1309.6 541.27)" class="st7 st8 st9">622</text>
</g>
<g id="Layer_621">
	<rect x="1388.5" y="475.5" class="st6" width="111" height="120"/>
	<text transform="matrix(1 0 0 1 1422.64 541.27)" class="st7 st8 st9">621</text>
</g>
<g id="Layer_620">
	<rect x="1547.5" y="488" class="st6" width="66" height="107.5"/>
	<text transform="matrix(1 0 0 1 1557.08 547.68)" class="st7 st8 st9">620</text>
</g>
<g id="Layer_619">
	<rect x="1499.5" y="373" class="st6" width="114" height="114.5"/>
	<text transform="matrix(1 0 0 1 1535.25 435.9)" class="st7 st8 st9">6</text>
	<text transform="matrix(1 0 0 1 1550.89 435.9)" class="st7 st8 st9">19</text>
</g>
<g id="Layer_618">
	<polygon class="st6" points="1624.5,270.5 1613.5,270.5 1608.5,270.5 1499.5,270.5 1499.5,373 1613.5,373 1613.5,321.5 
		1624.5,321.5 	"/>
	<text transform="matrix(1 0 0 1 1538.13 327.22)" class="st7 st8 st9">6</text>
	<text transform="matrix(1 0 0 1 1553.77 327.22)" class="st7 st8 st9">18A</text>
</g>
<g id="Layer_619D">
	<rect x="905.2" y="636.4" class="st6" width="54.2" height="128"/>
	<text transform="matrix(1 0 0 1 910.36 702.45)" class="st7 st8 st10">6</text>
	<text transform="matrix(1 0 0 1 921.74 702.45)" class="st7 st8 st10">19D</text>
</g>
<g id="Layer_619C">
	<rect x="851.2" y="636.4" class="st6" width="54.2" height="128"/>
	<text transform="matrix(1 0 0 1 856.41 702.45)" class="st7 st8 st10">6</text>
	<text transform="matrix(1 0 0 1 867.79 702.45)" class="st7 st8 st10">19C</text>
</g>
<g id="Layer_619B">
	<rect x="797.1" y="636.3" class="st6" width="54.2" height="128"/>
	<text transform="matrix(1 0 0 1 803.26 702.45)" class="st7 st8 st10">6</text>
	<text transform="matrix(1 0 0 1 814.64 702.45)" class="st7 st8 st10">19B</text>
</g>
<g id="Layer_619A">
	<rect x="743.3" y="636.5" class="st6" width="54.2" height="128"/>
	<text transform="matrix(1 0 0 1 748.26 702.45)" class="st7 st8 st10">6</text>
	<text transform="matrix(1 0 0 1 759.64 702.45)" class="st7 st8 st10">19A</text>
</g>
<g id="Layer_618A">
	<path class="st6" d="M1499.5,197v73.5h125v51h38V197H1499.5z"/>
	<text transform="matrix(1 0 0 1 1550.1 243.21)" class="st7 st8 st9">6</text>
	<text transform="matrix(1 0 0 1 1565.74 243.21)" class="st7 st8 st9">18B</text>
</g>
<g id="Layer_617B">
	<rect x="1660.5" y="197.5" class="st6" width="57" height="124"/>
	<text transform="matrix(1 0 0 1 1665.9399 259.21)" class="st7 st8 st11">6</text>
	<text transform="matrix(1 0 0 1 1678.74 259.21)" class="st7 st8 st11">17B</text>
</g>
<g id="Layer_617A">
	<rect x="1717.5" y="197.5" class="st6" width="55" height="124"/>
	<text transform="matrix(1 0 0 1 1721.15 259.89)" class="st7 st8 st11">6</text>
	<text transform="matrix(1 0 0 1 1733.9501 259.89)" class="st7 st8 st11">17A</text>
</g>
<g id="Layer_616D">
	<rect x="1717.5" y="372.5" class="st6" width="119" height="61.5"/>
	<text transform="matrix(1 0 0 1 1752.85 409.17)" class="st7 st8 st11">6</text>
	<text transform="matrix(1 0 0 1 1765.65 409.17)" class="st7 st8 st11">16D</text>
</g>
<g id="Layer_616C">
	<rect x="1717.5" y="433.5" class="st6" width="119" height="61.5"/>
	<text transform="matrix(1 0 0 1 1752.4301 468.38)" class="st7 st8 st11">6</text>
	<text transform="matrix(1 0 0 1 1765.2301 468.38)" class="st7 st8 st11">16C</text>
</g>
<g id="Layer_616B">
	<rect x="1717.5" y="494.5" class="st6" width="119" height="61.5"/>
	<text transform="matrix(1 0 0 1 1752.64 530.38)" class="st7 st8 st11">6</text>
	<text transform="matrix(1 0 0 1 1765.4401 530.38)" class="st7 st8 st11">16B</text>
</g>
<g id="Layer_616A">
	<rect x="1717.5" y="554.5" class="st6" width="119" height="61.5"/>
	<text transform="matrix(1 0 0 1 1752.3101 590.38)" class="st7 st8 st11">6</text>
	<text transform="matrix(1 0 0 1 1765.1101 590.38)" class="st7 st8 st11">16A</text>
</g>
<g id="Layer_615">
	<rect x="1717.5" y="616" class="st6" width="119" height="195.5"/>
	<text transform="matrix(1 0 0 1 1755.84 726.38)" class="st7 st8 st9">6</text>
	<text transform="matrix(1 0 0 1 1771.48 726.38)" class="st7 st8 st9">15</text>
</g>
<g id="Layer_614B">
	<rect x="1613.5" y="663.5" class="st6" width="104" height="148"/>
	<text transform="matrix(1 0 0 1 1637.28 726.38)" class="st7 st8 st9">6</text>
	<text transform="matrix(1 0 0 1 1652.92 726.38)" class="st7 st8 st9">14B</text>
</g>
<g id="Layer_614A">
	<rect x="1506.5" y="663.5" class="st6" width="107" height="148"/>
	<rect x="1506.5" y="663.5" class="st6" width="37" height="106"/>
	<text transform="matrix(1 0 0 1 1548.88 726.38)" class="st7 st8 st9">6</text>
	<text transform="matrix(1 0 0 1 1564.52 726.38)" class="st7 st8 st9">14A</text>
</g>
<g id="Layer_612">
	<rect x="1281.5" y="636.4" class="st6" width="107" height="128"/>
	<text transform="matrix(1 0 0 1 1313.65 705.85)" class="st7 st8 st9">6</text>
	<text transform="matrix(1 0 0 1 1329.29 705.85)" class="st7 st8 st9">12</text>
</g>
<g id="Layer_611">
	<rect x="1063.5" y="636.4" class="st6" width="218" height="128"/>
	<text transform="matrix(1 0 0 1 1153.2 705.64)" class="st7 st8 st9">6</text>
	<text transform="matrix(1 0 0 1 1168.84 705.64)" class="st7 st8 st9">11</text>
</g>
<g id="Layer_610">
	<rect x="959.4" y="636.4" class="st6" width="104.1" height="128"/>
	<text transform="matrix(1 0 0 1 989.49 705.64)" class="st7 st8 st9">6</text>
	<text transform="matrix(1 0 0 1 1005.13 705.64)" class="st7 st8 st9">10</text>
</g>
<g id="Layer_608B">
	<rect x="637.8" y="636.5" class="st6" width="105.7" height="128"/>
	<text transform="matrix(1 0 0 1 659.33 706.16)" class="st7 st8 st9">608B</text>
</g>
<g id="Layer_608A">
	<rect x="523" y="636.5" class="st12" width="114.5" height="128"/>
	<text transform="matrix(1 0 0 1 547.33 706.16)" class="st7 st8 st9">608A</text>
</g>
<g id="Layer_606">
	<rect x="185.5" y="260.5" class="st6" width="116" height="66"/>
	<text transform="matrix(1 0 0 1 219.02 298.23)" class="st7 st8 st9">606</text>
</g>
<g id="Layer_605">
	<rect x="416.4" y="476" class="st6" width="115.5" height="124"/>
	<text transform="matrix(1 0 0 1 450.27 543.78)" class="st7 st8 st9">605</text>
</g>
<g id="Layer_604D">
	<rect x="531" y="476" class="st13" width="51.5" height="124"/>
</g>
<g id="Layer_604C">
	<rect x="582.5" y="476" class="st13" width="53" height="124"/>
	<text transform="matrix(1 0 0 1 585.57 543.83)" class="st7 st8 st10">604C</text>
	<text transform="matrix(1 0 0 1 532.52 544.05)" class="st7 st8 st10">604D</text>
</g>
<g id="Layer_604B">
	<rect x="635.5" y="476" class="st13" width="55" height="124"/>
	<text transform="matrix(1 0 0 1 639.71 544.2)" class="st7 st8 st10">604B</text>
</g>
<g id="Layer_604A">
	<polygon class="st6" points="734.5,423.5 734.5,476 690.5,476 690.5,600 797.5,600 797.5,509.5 797.5,476 797.5,423.5 	"/>
	<rect x="738.5" y="546.5" class="st6" width="59" height="53"/>
	<text transform="matrix(1 0 0 1 709.54 512.16)" class="st7 st8 st9">604A</text>
</g>
<g id="Layer_toilet1">
	<rect x="797.5" y="423.5" class="st0" width="57" height="124"/>
	<path class="st1" d="M853,425v121h-54V425H853 M856,422h-60v127h60V422L856,422z"/>
</g>
<g id="Layer_toilet2">
	<rect x="853.5" y="423.5" class="st0" width="57" height="124"/>
	<path class="st1" d="M909,425v121h-54V425H909 M912,422h-60v127h60V422L912,422z"/>
</g>
<g id="Layer_toilet3">
	<rect x="1388.5" y="636.5" class="st14" width="43" height="128"/>
</g>
<g id="Layer_toilet4">
	<rect x="467.5" y="636.5" class="st15" width="56" height="128"/>
</g>
</svg>
