<?xml version="1.0" encoding="UTF-8"?>
<svg xmlns="http://www.w3.org/2000/svg" viewBox="0 0 1920 1080">
  <g id="Layer_border">
    <g>
      <polygon points="1322.48 989.48 1322.48 946.98 1297.98 946.98 1297.98 924.48 764.48 924.48 764.48 923.98 724.98 923.98 724.98 960.98 631.98 960.98 631.98 923.98 447.98 923.98 447.98 697.98 573.98 697.98 573.98 414.98 764.98 414.98 764.98 774.98 822.48 774.98 822.48 738.48 892.48 738.48 892.48 774.98 913.98 774.98 913.98 738 1087.98 738 1087.98 774.98 1234.98 774.98 1234.98 603.98 1235 603.98 1235 545 1445 545 1445 650 1444.98 650 1444.98 771.98 1472.98 771.98 1472.98 946.98 1442.48 946.98 1442.48 989.48 1322.48 989.48" fill="#fff" stroke-width="0"/>
      <path d="M759.98,419.98v360h67.5v-36.5h60v36.5h31.5v-36.98h164v36.98h157v-171h.02v-58.98h200v95h-.02v131.98h28v165h-30.5v42.5h-110v-42.5h-24.5v-27h-9.5v4.5h-524v-4.5h-9.5v4h-40v37h-83v-37h-184v-216h126v-283h181M769.98,409.98h-201v283h-126v236h184v37h103v-37h29.5v.5h533.5v22.5h24.5v42.5h130v-42.5h30.5v-185h-28v-111.98l.02-10v-105h-220v58.98l-.02,10v161h-137v-36.98h-184v36.98h-11.5v-36.5h-80v36.5h-47.5v-360h0Z" fill="#e18686" stroke-width="0"/>
    </g>
  </g>
  <g id="Layer_others">
    <g>
      <line x1="695.86" y1="731.99" x2="695.86" y2="779" fill="none" stroke="#e18686" stroke-miterlimit="10" stroke-width="3"/>
      <line x1="712.26" y1="731.99" x2="712.26" y2="778.54" fill="none" stroke="#e18686" stroke-miterlimit="10" stroke-width="3"/>
      <line x1="704.06" y1="731.99" x2="704.06" y2="778.54" fill="none" stroke="#e18686" stroke-miterlimit="10" stroke-width="3"/>
      <line x1="720.46" y1="731.99" x2="720.46" y2="778.54" fill="none" stroke="#e18686" stroke-miterlimit="10" stroke-width="3"/>
      <line x1="728.66" y1="731.99" x2="728.66" y2="778.54" fill="none" stroke="#e18686" stroke-miterlimit="10" stroke-width="3"/>
      <rect x="679.5" y="731.99" width="57" height="47" fill="none" stroke="#e18686" stroke-miterlimit="10" stroke-width="3"/>
      <line x1="687.86" y1="731.99" x2="687.86" y2="779" fill="none" stroke="#e18686" stroke-miterlimit="10" stroke-width="3"/>
    </g>
    <line x1="659.5" y1="779" x2="679.5" y2="779" fill="none" stroke="#e18686" stroke-miterlimit="10" stroke-width="3"/>
    <g>
      <rect x="1384.02" y="777.77" width="82.5" height="35" fill="none" stroke="#e18686" stroke-miterlimit="10" stroke-width="3"/>
      <rect x="1384.02" y="812.56" width="82.5" height="35" fill="none" stroke="#e18686" stroke-miterlimit="10" stroke-width="3"/>
      <line x1="1393.63" y1="777.28" x2="1393.63" y2="812.41" fill="none" stroke="#e18686" stroke-miterlimit="10" stroke-width="3"/>
      <line x1="1410.03" y1="777.28" x2="1410.03" y2="812.07" fill="none" stroke="#e18686" stroke-miterlimit="10" stroke-width="3"/>
      <line x1="1401.83" y1="777.28" x2="1401.83" y2="812.07" fill="none" stroke="#e18686" stroke-miterlimit="10" stroke-width="3"/>
      <line x1="1418.23" y1="777.28" x2="1418.23" y2="812.07" fill="none" stroke="#e18686" stroke-miterlimit="10" stroke-width="3"/>
      <line x1="1434.63" y1="777.28" x2="1434.63" y2="812.07" fill="none" stroke="#e18686" stroke-miterlimit="10" stroke-width="3"/>
      <line x1="1426.43" y1="777.28" x2="1426.43" y2="812.07" fill="none" stroke="#e18686" stroke-miterlimit="10" stroke-width="3"/>
      <line x1="1441.63" y1="777.28" x2="1441.63" y2="812.07" fill="none" stroke="#e18686" stroke-miterlimit="10" stroke-width="3"/>
      <line x1="1410.03" y1="812.28" x2="1410.03" y2="847.07" fill="none" stroke="#e18686" stroke-miterlimit="10" stroke-width="3"/>
      <line x1="1418.23" y1="812.28" x2="1418.23" y2="847.07" fill="none" stroke="#e18686" stroke-miterlimit="10" stroke-width="3"/>
      <line x1="1434.63" y1="812.28" x2="1434.63" y2="847.07" fill="none" stroke="#e18686" stroke-miterlimit="10" stroke-width="3"/>
      <line x1="1426.43" y1="812.28" x2="1426.43" y2="847.07" fill="none" stroke="#e18686" stroke-miterlimit="10" stroke-width="3"/>
      <line x1="1441.63" y1="812.28" x2="1441.63" y2="847.07" fill="none" stroke="#e18686" stroke-miterlimit="10" stroke-width="3"/>
    </g>
  </g>
  <g id="Layer_rounge2">
    <rect x="920.5" y="744.5" width="161" height="34" fill="none" stroke="#e18686" stroke-miterlimit="10" stroke-width="3"/>
  </g>
  <g id="Layer_rounge1">
    <rect x="637.5" y="918.5" width="81" height="37" fill="none" stroke="#e18686" stroke-miterlimit="10" stroke-width="3"/>
  </g>
  <g id="Layer_toilet2">
    <rect x="1240.84" y="721.01" width="81.36" height="56.86" fill="none" stroke="#e18686" stroke-miterlimit="10" stroke-width="3"/>
  </g>
  <g id="Layer_toilet1">
    <rect x="579.5" y="733.48" width="80" height="45.52" fill="none" stroke="#e18686" stroke-miterlimit="10" stroke-width="3"/>
  </g>
  <g id="Layer_322B">
    <g>
      <rect x="1240.84" y="664" width="81.36" height="56.86" fill="#f8cdce" stroke="#e18686" stroke-miterlimit="10" stroke-width="3"/>
      <text transform="translate(1255.6 697.59)" fill="#000" font-family="NanumSquareNeo-eHv-KSCpc-EUC-H, &apos;NanumSquare Neo OTF&apos;" font-size="18"><tspan x="0" y="0">322B</tspan></text>
    </g>
  </g>
  <g id="Layer_322A">
    <g>
      <rect x="1240.84" y="607" width="81.36" height="56.86" fill="#f8cdce" stroke="#e18686" stroke-miterlimit="10" stroke-width="3"/>
      <text transform="translate(1255.26 640.59)" fill="#000" font-family="NanumSquareNeo-eHv-KSCpc-EUC-H, &apos;NanumSquare Neo OTF&apos;" font-size="18"><tspan x="0" y="0">322A</tspan></text>
    </g>
  </g>
  <g id="Layer_321">
    <g>
      <rect x="1240.84" y="550" width="81.36" height="56.86" fill="#f8cdce" stroke="#e18686" stroke-miterlimit="10" stroke-width="3"/>
      <text transform="translate(1264.11 583.59)" fill="#000" font-family="NanumSquareNeo-eHv-KSCpc-EUC-H, &apos;NanumSquare Neo OTF&apos;" font-size="18"><tspan x="0" y="0">321</tspan></text>
    </g>
  </g>
  <g id="Layer_320">
    <g>
      <rect x="1357.86" y="550" width="81.36" height="56.86" fill="#f8cdce" stroke="#e18686" stroke-miterlimit="10" stroke-width="3"/>
      <text transform="translate(1379.03 583.35)" fill="#000" font-family="NanumSquareNeo-eHv-KSCpc-EUC-H, &apos;NanumSquare Neo OTF&apos;" font-size="18"><tspan x="0" y="0">320</tspan></text>
    </g>
  </g>
  <g id="Layer_319B">
    <g>
      <rect x="1357.84" y="664" width="81.36" height="56.86" fill="#f8cdce" stroke="#e18686" stroke-miterlimit="10" stroke-width="3"/>
      <text transform="translate(1374.15 697.59)" fill="#000" font-family="NanumSquareNeo-eHv-KSCpc-EUC-H, &apos;NanumSquare Neo OTF&apos;" font-size="18"><tspan x="0" y="0" letter-spacing="0em">3</tspan><tspan x="12.82" y="0">19B</tspan></text>
    </g>
  </g>
  <g id="Layer_319A">
    <g>
      <rect x="1357.84" y="607" width="81.36" height="56.86" fill="#f8cdce" stroke="#e18686" stroke-miterlimit="10" stroke-width="3"/>
      <text transform="translate(1373.82 640.59)" fill="#000" font-family="NanumSquareNeo-eHv-KSCpc-EUC-H, &apos;NanumSquare Neo OTF&apos;" font-size="18"><tspan x="0" y="0" letter-spacing="0em">3</tspan><tspan x="12.82" y="0">19A</tspan></text>
    </g>
  </g>
  <g id="Layer_318">
    <g>
      <rect x="1357.84" y="721" width="81.36" height="56.86" fill="#f8cdce" stroke="#e18686" stroke-miterlimit="10" stroke-width="3"/>
      <text transform="translate(1380.83 754.59)" fill="#000" font-family="NanumSquareNeo-eHv-KSCpc-EUC-H, &apos;NanumSquare Neo OTF&apos;" font-size="18"><tspan x="0" y="0" letter-spacing="0em">3</tspan><tspan x="12.82" y="0">18</tspan></text>
    </g>
  </g>
  <g id="Layer_317">
    <g>
      <rect x="1301.5" y="847.5" width="165" height="93" fill="#f8cdce" stroke="#e18686" stroke-miterlimit="10" stroke-width="3"/>
      <text transform="translate(1367.29 899.16)" fill="#000" font-family="NanumSquareNeo-eHv-KSCpc-EUC-H, &apos;NanumSquare Neo OTF&apos;" font-size="18"><tspan x="0" y="0" letter-spacing="0em">3</tspan><tspan x="12.82" y="0">17</tspan></text>
    </g>
  </g>
  <g id="Layer_316B">
    <g>
      <rect x="1150.2" y="813.73" width="151.3" height="104.82" fill="#f8cdce" stroke="#e18686" stroke-miterlimit="10" stroke-width="3"/>
      <text transform="translate(1201.91 871.54)" fill="#000" font-family="NanumSquareNeo-eHv-KSCpc-EUC-H, &apos;NanumSquare Neo OTF&apos;" font-size="18"><tspan x="0" y="0" letter-spacing="0em">3</tspan><tspan x="12.82" y="0">16B</tspan></text>
    </g>
  </g>
  <g id="Layer_316A">
    <g>
      <rect x="1066.2" y="813.73" width="84.3" height="104.82" fill="#f8cdce" stroke="#e18686" stroke-miterlimit="10" stroke-width="3"/>
      <text transform="translate(1084.58 871.54)" fill="#000" font-family="NanumSquareNeo-eHv-KSCpc-EUC-H, &apos;NanumSquare Neo OTF&apos;" font-size="18"><tspan x="0" y="0" letter-spacing="0em">3</tspan><tspan x="12.82" y="0">16A</tspan></text>
    </g>
  </g>
  <g id="Layer_315">
    <g>
      <rect x="930.2" y="813.73" width="136.3" height="104.82" fill="#f8cdce" stroke="#e18686" stroke-miterlimit="10" stroke-width="3"/>
      <text transform="translate(981.96 871.54)" fill="#000" font-family="NanumSquareNeo-eHv-KSCpc-EUC-H, &apos;NanumSquare Neo OTF&apos;" font-size="18"><tspan x="0" y="0" letter-spacing="0em">3</tspan><tspan x="12.82" y="0">15</tspan></text>
    </g>
  </g>
  <g id="Layer_314B">
    <g>
      <rect x="814.2" y="813.73" width="116.17" height="104.82" fill="#f8cdce" stroke="#e18686" stroke-miterlimit="10" stroke-width="3"/>
      <text transform="translate(847.96 871.54)" fill="#000" font-family="NanumSquareNeo-eHv-KSCpc-EUC-H, &apos;NanumSquare Neo OTF&apos;" font-size="18"><tspan x="0" y="0" letter-spacing="0em">3</tspan><tspan x="12.82" y="0">14B</tspan></text>
    </g>
  </g>
  <g id="Layer_314A">
    <g>
      <rect x="698.2" y="813.73" width="116.17" height="104.82" fill="#f8cdce" stroke="#e18686" stroke-miterlimit="10" stroke-width="3"/>
      <text transform="translate(731.63 871.54)" fill="#000" font-family="NanumSquareNeo-eHv-KSCpc-EUC-H, &apos;NanumSquare Neo OTF&apos;" font-size="18"><tspan x="0" y="0" letter-spacing="0em">3</tspan><tspan x="12.82" y="0">14A</tspan></text>
    </g>
  </g>
  <g id="Layer_313">
    <g>
      <rect x="679.5" y="680.5" width="80" height="53" fill="#f8cdce" stroke="#e18686" stroke-miterlimit="10" stroke-width="3"/>
      <text transform="translate(701.97 712.62)" fill="#434142" font-family="NanumSquareNeo-eHv-KSCpc-EUC-H, &apos;NanumSquare Neo OTF&apos;" font-size="18"><tspan x="0" y="0" letter-spacing="0em">3</tspan><tspan x="12.82" y="0">13</tspan></text>
    </g>
  </g>
  <g id="Layer_312">
    <g>
      <rect x="679.5" y="628.5" width="80" height="53" fill="#f8cdce" stroke="#e18686" stroke-miterlimit="10" stroke-width="3"/>
      <text transform="translate(702.18 660.62)" fill="#434142" font-family="NanumSquareNeo-eHv-KSCpc-EUC-H, &apos;NanumSquare Neo OTF&apos;" font-size="18"><tspan x="0" y="0" letter-spacing="0em">3</tspan><tspan x="12.82" y="0">12</tspan></text>
    </g>
  </g>
  <g id="Layer_311">
    <g>
      <rect x="679.5" y="576.5" width="80" height="53" fill="#f8cdce" stroke="#e18686" stroke-miterlimit="10" stroke-width="3"/>
      <text transform="translate(703.84 608.62)" fill="#434142" font-family="NanumSquareNeo-eHv-KSCpc-EUC-H, &apos;NanumSquare Neo OTF&apos;" font-size="18"><tspan x="0" y="0" letter-spacing="0em">3</tspan><tspan x="12.82" y="0">11</tspan></text>
    </g>
  </g>
  <g id="Layer_310">
    <g>
      <rect x="679.5" y="524.5" width="80" height="53" fill="#f8cdce" stroke="#e18686" stroke-miterlimit="10" stroke-width="3"/>
      <text transform="translate(701.75 556.62)" fill="#434142" font-family="NanumSquareNeo-eHv-KSCpc-EUC-H, &apos;NanumSquare Neo OTF&apos;" font-size="18"><tspan x="0" y="0" letter-spacing="0em">3</tspan><tspan x="12.82" y="0">10</tspan></text>
    </g>
  </g>
  <g id="Layer_309">
    <g>
      <rect x="679.5" y="472.5" width="80" height="53" fill="#f8cdce" stroke="#e18686" stroke-miterlimit="10" stroke-width="3"/>
      <text transform="translate(699.8 504.62)" fill="#434142" font-family="NanumSquareNeo-eHv-KSCpc-EUC-H, &apos;NanumSquare Neo OTF&apos;" font-size="18"><tspan x="0" y="0">309</tspan></text>
    </g>
  </g>
  <g id="Layer_308">
    <g>
      <rect x="679.5" y="420.5" width="80" height="53" fill="#f8cdce" stroke="#e18686" stroke-miterlimit="10" stroke-width="3"/>
      <text transform="translate(699.63 453.62)" fill="#434142" font-family="NanumSquareNeo-eHv-KSCpc-EUC-H, &apos;NanumSquare Neo OTF&apos;" font-size="18"><tspan x="0" y="0">308</tspan></text>
    </g>
  </g>
  <g id="Layer_307">
    <g>
      <rect x="480.62" y="779" width="178.88" height="139.5" fill="#f8cdce" stroke="#e18686" stroke-miterlimit="10" stroke-width="3"/>
      <text transform="translate(544.15 854.11)" fill="#434142" font-family="NanumSquareNeo-eHv-KSCpc-EUC-H, &apos;NanumSquare Neo OTF&apos;" font-size="24.17"><tspan x="0" y="0">307</tspan></text>
    </g>
  </g>
  <g id="Layer_306B">
    <g>
      <rect x="579.5" y="680.5" width="80" height="53" fill="#f8cdce" stroke="#e18686" stroke-miterlimit="10" stroke-width="3"/>
      <text transform="translate(593.35 712.62)" fill="#434142" font-family="NanumSquareNeo-eHv-KSCpc-EUC-H, &apos;NanumSquare Neo OTF&apos;" font-size="18"><tspan x="0" y="0">306B</tspan></text>
    </g>
  </g>
  <g id="Layer_305">
    <g>
      <rect x="579.5" y="628.5" width="80" height="53" fill="#f8cdce" stroke="#e18686" stroke-miterlimit="10" stroke-width="3"/>
      <text transform="translate(600 660.62)" fill="#434142" font-family="NanumSquareNeo-eHv-KSCpc-EUC-H, &apos;NanumSquare Neo OTF&apos;" font-size="18"><tspan x="0" y="0">305</tspan></text>
    </g>
  </g>
  <g id="Layer_304">
    <g>
      <rect x="579.5" y="576.5" width="80" height="53" fill="#f8cdce" stroke="#e18686" stroke-miterlimit="10" stroke-width="3"/>
      <text transform="translate(601.92 600.8)" fill="#434142"><tspan font-family="NanumSquareNeo-eHv-KSCpc-EUC-H, &apos;NanumSquare Neo OTF&apos;" font-size="16"><tspan x="0" y="0">304</tspan></tspan><tspan font-family="NanumSquareNeo-bRg-KSCpc-EUC-H, &apos;NanumSquare Neo OTF&apos;" font-size="6"><tspan x="-8.85" y="14.4">국어국문 교육연구단</tspan></tspan></text>
    </g>
  </g>
  <g id="Layer_303">
    <g>
      <rect x="579.5" y="524.5" width="80" height="53" fill="#f8cdce" stroke="#e18686" stroke-miterlimit="10" stroke-width="3"/>
      <text transform="translate(599.79 556.62)" fill="#434142" font-family="NanumSquareNeo-eHv-KSCpc-EUC-H, &apos;NanumSquare Neo OTF&apos;" font-size="18"><tspan x="0" y="0">303</tspan></text>
    </g>
  </g>
  <g id="Layer_302">
    <g>
      <rect x="579.5" y="472.5" width="80" height="53" fill="#f8cdce" stroke="#e18686" stroke-miterlimit="10" stroke-width="3"/>
      <text transform="translate(600 504.62)" fill="#434142" font-family="NanumSquareNeo-eHv-KSCpc-EUC-H, &apos;NanumSquare Neo OTF&apos;" font-size="18"><tspan x="0" y="0">302</tspan></text>
    </g>
  </g>
  <g id="Layer_301">
    <g>
      <rect x="579.5" y="420.5" width="80" height="53" fill="#f8cdce" stroke="#e18686" stroke-miterlimit="10" stroke-width="3"/>
      <text transform="translate(601.66 453.62)" fill="#434142" font-family="NanumSquareNeo-eHv-KSCpc-EUC-H, &apos;NanumSquare Neo OTF&apos;" font-size="18"><tspan x="0" y="0">301</tspan></text>
    </g>
  </g>
</svg>