<svg width="1389" height="477" viewBox="0 0 1389 477" fill="none" xmlns="http://www.w3.org/2000/svg">
<path d="M24.876 72.0181H3V168.336H24.876V72.0181Z" fill="#FEF3F2" stroke="#EA8B8B" stroke-width="5.832" stroke-miterlimit="10"/>
<path d="M24.876 239.844H3V336.163H24.876V239.844Z" fill="#FEF3F2" stroke="#EA8B8B" stroke-width="5.832" stroke-miterlimit="10"/>
<path d="M817.398 324.792H591.48V472.872H817.398V324.792Z" fill="#FEF3F2"/>
<path d="M814.542 327.655V470.023H594.342V327.655H814.542ZM820.254 321.937H588.624V475.735H820.254V321.937Z" fill="#EA8B8B"/>
<path d="M863.304 393.72H817.248V458.832H863.304V393.72Z" fill="#FEF3F2"/>
<path d="M860.304 396.714V455.832H820.242V396.714H860.304ZM866.298 390.72H814.248V461.832H866.298V390.72Z" fill="#EA8B8B"/>
<path d="M851.688 396.714V455.838" stroke="#EA8B8B" stroke-width="1.188" stroke-miterlimit="10"/>
<path d="M845.982 396.714V455.838" stroke="#EA8B8B" stroke-width="1.188" stroke-miterlimit="10"/>
<path d="M840.276 396.714V455.838" stroke="#EA8B8B" stroke-width="1.188" stroke-miterlimit="10"/>
<path d="M834.57 396.714V455.838" stroke="#EA8B8B" stroke-width="1.188" stroke-miterlimit="10"/>
<path d="M828.864 396.714V455.838" stroke="#EA8B8B" stroke-width="1.188" stroke-miterlimit="10"/>
<path d="M591.63 393.72H545.574V458.832H591.63V393.72Z" fill="#FEF3F2"/>
<path d="M588.636 396.714V455.832H548.574V396.714H588.636ZM594.63 390.72H542.58V461.832H594.63V390.72Z" fill="#EA8B8B"/>
<path d="M580.014 396.714V455.838" stroke="#EA8B8B" stroke-width="1.188" stroke-miterlimit="10"/>
<path d="M574.308 396.714V455.838" stroke="#EA8B8B" stroke-width="1.188" stroke-miterlimit="10"/>
<path d="M568.602 396.714V455.838" stroke="#EA8B8B" stroke-width="1.188" stroke-miterlimit="10"/>
<path d="M562.896 396.714V455.838" stroke="#EA8B8B" stroke-width="1.188" stroke-miterlimit="10"/>
<path d="M557.19 396.714V455.838" stroke="#EA8B8B" stroke-width="1.188" stroke-miterlimit="10"/>
<path d="M818.352 378.432V351.63H790.314V331.776H617.118V351.63H589.086V378.432H21.6479V31.0802H166.116V56.7962H585.642V3.00024H620.274V35.2742H787.158V3.00024H821.79V56.7962H1241.32V31.0802H1385.79V378.432H818.352Z" fill="#FEF3F2"/>
<path d="M818.79 6.00024V59.7962H1244.32V34.0802H1382.78V375.438H821.346V348.63H793.308V328.776H614.112V348.63H586.074V375.438H24.6479V34.0802H163.116V59.7962H588.642V6.00024H617.274V38.2742H790.158V6.00024H818.79ZM824.79 0.000244141H784.158V32.2742H623.274V0.000244141H582.642V53.7962H169.116V28.0802H18.6479V381.438H592.086V354.63H620.124V334.776H787.32V354.63H815.358V381.438H1388.8V28.0802H1238.33V53.7962H824.802V0.000244141H824.79Z" fill="#EA8B8B"/>
<path opacity="0.7" d="M697.944 38.2744V177.174" stroke="#EA8B8B" stroke-width="5.928" stroke-miterlimit="10"/>
<path d="M817.548 372.432H591.336V473.016H817.548V372.432Z" fill="#FEF3F2"/>
<path d="M814.548 375.432V470.016H594.336V375.432H814.548ZM820.548 369.432H588.336V476.016H820.548V369.432Z" fill="#EA8B8B"/>
<mask id="mask0_1138_1528" style="mask-type:luminance" maskUnits="userSpaceOnUse" x="24" y="6" width="1359" height="370">
<path d="M1244.32 34.0805V59.7965H818.79V6.00049H790.158V38.2745H617.274V6.00049H588.642V59.7965H163.116V34.0805H24.6479V59.7965V153.018V375.432H586.086V348.63H614.118V328.777H793.314V348.63H821.352V375.432H1382.79V153.018V59.7965V34.0805H1244.32Z" fill="white"/>
</mask>
<g mask="url(#mask0_1138_1528)">
<path d="M256.566 60.4802H98.5498V172.572H256.566V60.4802Z" fill="#FED0D0" stroke="#EA8B8B" stroke-width="1.8" stroke-miterlimit="10"/>
<path d="M163.164 121.512V109.704L160.284 111.912L158.616 109.686L163.74 105.732H166.176V121.512H163.164Z" fill="#424142"/>
<path d="M175.26 121.8C174.144 121.8 173.136 121.548 172.224 121.044C171.318 120.54 170.592 119.778 170.052 118.77C169.512 117.756 169.248 116.526 169.248 115.062V112.182C169.248 110.724 169.518 109.488 170.052 108.474C170.586 107.46 171.312 106.704 172.224 106.2C173.136 105.696 174.144 105.444 175.26 105.444C176.376 105.444 177.384 105.696 178.296 106.2C179.202 106.704 179.928 107.466 180.468 108.474C181.008 109.482 181.272 110.718 181.272 112.182V115.062C181.272 116.52 181.002 117.756 180.468 118.77C179.928 119.778 179.208 120.54 178.296 121.044C177.384 121.548 176.376 121.8 175.26 121.8ZM175.26 119.13C175.86 119.13 176.388 118.974 176.832 118.668C177.282 118.362 177.63 117.894 177.876 117.264C178.122 116.634 178.248 115.86 178.248 114.942V112.29C178.248 111.366 178.122 110.592 177.876 109.968C177.63 109.344 177.276 108.876 176.832 108.564C176.382 108.258 175.86 108.102 175.26 108.102C174.66 108.102 174.132 108.258 173.688 108.564C173.238 108.87 172.89 109.338 172.644 109.968C172.398 110.598 172.272 111.372 172.272 112.29V114.942C172.272 115.866 172.398 116.64 172.644 117.264C172.89 117.888 173.244 118.356 173.688 118.668C174.138 118.974 174.66 119.13 175.26 119.13Z" fill="#424142"/>
<path d="M189.486 121.8C188.088 121.8 186.918 121.518 185.97 120.948C185.022 120.378 184.272 119.532 183.726 118.404L186.186 117.12C186.57 117.822 187.008 118.338 187.5 118.668C187.992 118.998 188.604 119.16 189.336 119.16C190.23 119.16 190.962 118.806 191.532 118.092C192.102 117.384 192.384 116.316 192.384 114.894V113.646H192.75C192.48 114.468 191.964 115.098 191.196 115.536C190.428 115.98 189.57 116.196 188.622 116.196C187.674 116.196 186.858 115.968 186.048 115.512C185.244 115.056 184.596 114.42 184.11 113.592C183.624 112.764 183.378 111.828 183.378 110.778C183.378 109.728 183.636 108.78 184.146 107.976C184.656 107.172 185.364 106.548 186.258 106.104C187.152 105.66 188.16 105.444 189.27 105.444C190.38 105.444 191.418 105.66 192.306 106.098C193.194 106.536 193.878 107.178 194.37 108.03C194.862 108.882 195.108 109.908 195.108 111.114V115.014C195.108 116.484 194.844 117.732 194.31 118.758C193.776 119.784 193.086 120.546 192.228 121.05C191.37 121.554 190.452 121.806 189.48 121.806L189.486 121.8ZM189.258 113.58C189.822 113.58 190.32 113.466 190.746 113.232C191.172 113.004 191.508 112.68 191.754 112.26C192 111.84 192.12 111.366 192.12 110.832C192.12 110.298 192 109.818 191.754 109.404C191.508 108.99 191.172 108.666 190.746 108.432C190.32 108.204 189.822 108.084 189.258 108.084C188.694 108.084 188.172 108.198 187.734 108.432C187.29 108.66 186.948 108.984 186.708 109.404C186.462 109.818 186.342 110.298 186.342 110.832C186.342 111.366 186.462 111.846 186.708 112.26C186.948 112.674 187.296 112.998 187.734 113.232C188.178 113.46 188.682 113.58 189.258 113.58Z" fill="#424142"/>
<path d="M483.414 60.4802H256.566V172.572H483.414V60.4802Z" fill="#FED0D0" stroke="#EA8B8B" stroke-width="1.8" stroke-miterlimit="10"/>
<path d="M354.648 121.512V109.704L351.768 111.912L350.1 109.686L355.224 105.732H357.66V121.512H354.648Z" fill="#424142"/>
<path d="M366.744 121.8C365.628 121.8 364.62 121.548 363.708 121.044C362.802 120.54 362.076 119.778 361.536 118.77C360.996 117.756 360.732 116.526 360.732 115.062V112.182C360.732 110.724 361.002 109.488 361.536 108.474C362.07 107.46 362.796 106.704 363.708 106.2C364.62 105.696 365.628 105.444 366.744 105.444C367.86 105.444 368.868 105.696 369.78 106.2C370.686 106.704 371.412 107.466 371.952 108.474C372.492 109.482 372.756 110.718 372.756 112.182V115.062C372.756 116.52 372.486 117.756 371.952 118.77C371.412 119.778 370.692 120.54 369.78 121.044C368.868 121.548 367.86 121.8 366.744 121.8ZM366.744 119.13C367.344 119.13 367.872 118.974 368.316 118.668C368.766 118.362 369.114 117.894 369.36 117.264C369.606 116.634 369.732 115.86 369.732 114.942V112.29C369.732 111.366 369.606 110.592 369.36 109.968C369.114 109.344 368.76 108.876 368.316 108.564C367.866 108.258 367.344 108.102 366.744 108.102C366.144 108.102 365.616 108.258 365.172 108.564C364.722 108.87 364.374 109.338 364.128 109.968C363.882 110.598 363.756 111.372 363.756 112.29V114.942C363.756 115.866 363.882 116.64 364.128 117.264C364.374 117.888 364.728 118.356 365.172 118.668C365.622 118.974 366.144 119.13 366.744 119.13Z" fill="#424142"/>
<path d="M381.012 121.8C379.884 121.8 378.876 121.626 377.976 121.272C377.082 120.918 376.368 120.39 375.846 119.676C375.318 118.968 375.06 118.086 375.06 117.036C375.06 116.244 375.3 115.524 375.78 114.888C376.26 114.246 376.98 113.736 377.94 113.352C377.082 113.004 376.452 112.542 376.05 111.96C375.648 111.378 375.444 110.724 375.444 109.992C375.444 108.996 375.684 108.156 376.164 107.478C376.644 106.8 377.304 106.29 378.15 105.954C378.996 105.612 379.95 105.444 381.012 105.444C382.074 105.444 383.028 105.612 383.874 105.954C384.72 106.296 385.38 106.8 385.86 107.478C386.34 108.156 386.58 108.996 386.58 109.992C386.58 110.724 386.376 111.378 385.974 111.96C385.572 112.542 384.942 113.004 384.084 113.352C385.044 113.736 385.764 114.246 386.244 114.888C386.724 115.53 386.964 116.244 386.964 117.036C386.964 118.086 386.706 118.968 386.184 119.676C385.668 120.384 384.96 120.918 384.06 121.272C383.166 121.626 382.146 121.8 381.006 121.8H381.012ZM381.012 119.112C381.624 119.112 382.158 119.028 382.608 118.854C383.058 118.68 383.4 118.428 383.634 118.098C383.868 117.768 383.988 117.366 383.988 116.91C383.988 116.454 383.868 116.07 383.634 115.728C383.394 115.386 383.052 115.128 382.608 114.948C382.158 114.768 381.63 114.678 381.012 114.678C380.394 114.678 379.866 114.768 379.416 114.948C378.966 115.128 378.624 115.386 378.39 115.728C378.15 116.07 378.036 116.46 378.036 116.91C378.036 117.36 378.156 117.768 378.39 118.098C378.624 118.428 378.966 118.686 379.416 118.854C379.866 119.028 380.394 119.112 381.012 119.112ZM381.012 112.14C381.552 112.14 382.014 112.062 382.404 111.9C382.794 111.738 383.094 111.51 383.298 111.21C383.502 110.91 383.604 110.556 383.604 110.142C383.604 109.728 383.502 109.356 383.298 109.056C383.094 108.756 382.794 108.528 382.404 108.366C382.014 108.204 381.552 108.126 381.012 108.126C380.472 108.126 380.01 108.204 379.62 108.366C379.23 108.528 378.93 108.756 378.726 109.056C378.522 109.356 378.42 109.716 378.42 110.142C378.42 110.568 378.522 110.904 378.726 111.21C378.93 111.51 379.23 111.744 379.62 111.9C380.01 112.062 380.472 112.14 381.012 112.14Z" fill="#424142"/>
<path d="M1160.19 60.4802H926.1V172.572H1160.19V60.4802Z" fill="#FED0D0" stroke="#EA8B8B" stroke-width="1.8" stroke-miterlimit="10"/>
<path d="M1029.28 123.841V112.033L1026.4 114.241L1024.73 112.015L1029.85 108.061H1032.29V123.841H1029.28Z" fill="#424142"/>
<path d="M1041.37 124.128C1040.26 124.128 1039.25 123.876 1038.34 123.372C1037.43 122.868 1036.7 122.106 1036.16 121.098C1035.62 120.084 1035.36 118.854 1035.36 117.39V114.51C1035.36 113.052 1035.63 111.816 1036.16 110.802C1036.7 109.788 1037.42 109.032 1038.34 108.528C1039.25 108.024 1040.26 107.772 1041.37 107.772C1042.49 107.772 1043.5 108.024 1044.41 108.528C1045.31 109.032 1046.04 109.794 1046.58 110.802C1047.12 111.81 1047.38 113.046 1047.38 114.51V117.39C1047.38 118.848 1047.11 120.084 1046.58 121.098C1046.04 122.106 1045.32 122.868 1044.41 123.372C1043.5 123.876 1042.49 124.128 1041.37 124.128ZM1041.37 121.458C1041.97 121.458 1042.5 121.302 1042.94 120.996C1043.39 120.69 1043.74 120.222 1043.99 119.592C1044.23 118.962 1044.36 118.188 1044.36 117.27V114.618C1044.36 113.694 1044.23 112.92 1043.99 112.296C1043.74 111.672 1043.39 111.204 1042.94 110.892C1042.49 110.586 1041.97 110.43 1041.37 110.43C1040.77 110.43 1040.24 110.586 1039.8 110.892C1039.35 111.198 1039 111.666 1038.76 112.296C1038.51 112.926 1038.38 113.7 1038.38 114.618V117.27C1038.38 118.194 1038.51 118.968 1038.76 119.592C1039 120.216 1039.36 120.684 1039.8 120.996C1040.25 121.302 1040.77 121.458 1041.37 121.458Z" fill="#424142"/>
<path d="M1055.27 124.129C1054.01 124.129 1052.84 123.859 1051.77 123.313C1050.7 122.767 1049.94 121.993 1049.5 120.979L1052.07 119.539C1052.34 120.151 1052.74 120.613 1053.26 120.919C1053.78 121.225 1054.39 121.381 1055.08 121.381C1055.67 121.381 1056.17 121.279 1056.59 121.075C1057 120.871 1057.32 120.577 1057.54 120.199C1057.75 119.821 1057.86 119.377 1057.86 118.867C1057.86 118.357 1057.74 117.931 1057.51 117.553C1057.27 117.175 1056.94 116.881 1056.52 116.671C1056.1 116.461 1055.62 116.353 1055.08 116.353C1054.49 116.353 1054 116.467 1053.62 116.689C1053.23 116.911 1052.92 117.271 1052.66 117.757H1049.99L1050.95 108.061H1060.24V110.809H1053.46L1052.89 115.837H1052.29C1052.56 115.135 1053.02 114.589 1053.67 114.193C1054.31 113.803 1055 113.605 1055.75 113.605C1056.68 113.605 1057.54 113.821 1058.3 114.259C1059.07 114.697 1059.68 115.309 1060.13 116.113C1060.58 116.911 1060.8 117.829 1060.8 118.867C1060.8 119.905 1060.57 120.859 1060.12 121.651C1059.66 122.443 1059.02 123.055 1058.18 123.487C1057.35 123.913 1056.38 124.129 1055.27 124.129H1055.27Z" fill="#424142"/>
<path d="M1313.13 60.4802H1160.2V172.572H1313.13V60.4802Z" fill="#FED0D0" stroke="#EA8B8B" stroke-width="1.8" stroke-miterlimit="10"/>
<path d="M1222.63 123.841V112.033L1219.75 114.241L1218.08 112.015L1223.2 108.061H1225.64V123.841H1222.63Z" fill="#424142"/>
<path d="M1234.72 124.128C1233.61 124.128 1232.6 123.876 1231.69 123.372C1230.78 122.868 1230.05 122.106 1229.51 121.098C1228.97 120.084 1228.71 118.854 1228.71 117.39V114.51C1228.71 113.052 1228.98 111.816 1229.51 110.802C1230.05 109.788 1230.77 109.032 1231.69 108.528C1232.6 108.024 1233.61 107.772 1234.72 107.772C1235.84 107.772 1236.85 108.024 1237.76 108.528C1238.66 109.032 1239.39 109.794 1239.93 110.802C1240.47 111.816 1240.73 113.046 1240.73 114.51V117.39C1240.73 118.848 1240.46 120.084 1239.93 121.098C1239.39 122.106 1238.67 122.868 1237.76 123.372C1236.85 123.876 1235.84 124.128 1234.72 124.128ZM1234.72 121.458C1235.32 121.458 1235.85 121.302 1236.29 120.996C1236.74 120.69 1237.09 120.222 1237.34 119.592C1237.58 118.962 1237.71 118.188 1237.71 117.27V114.618C1237.71 113.694 1237.58 112.92 1237.34 112.296C1237.09 111.672 1236.74 111.204 1236.29 110.892C1235.84 110.586 1235.32 110.43 1234.72 110.43C1234.12 110.43 1233.59 110.586 1233.15 110.892C1232.7 111.198 1232.35 111.666 1232.11 112.296C1231.86 112.926 1231.73 113.7 1231.73 114.618V117.27C1231.73 118.194 1231.86 118.968 1232.11 119.592C1232.35 120.216 1232.71 120.684 1233.15 120.996C1233.6 121.302 1234.12 121.458 1234.72 121.458Z" fill="#424142"/>
<path d="M1242.65 121.056V118.692L1249.14 108.054H1252.31L1246.28 118.308H1255.05V121.056H1242.65ZM1250.12 124.128V108.06H1253.09V124.128H1250.12Z" fill="#424142"/>
<path d="M1160.19 227.352H926.1V375.438H1160.19V227.352Z" fill="#FED0D0" stroke="#EA8B8B" stroke-width="1.8" stroke-miterlimit="10"/>
<path d="M1029.28 305.748V293.94L1026.4 296.148L1024.73 293.922L1029.85 289.968H1032.29V305.748H1029.28Z" fill="#424142"/>
<path d="M1041.37 306.036C1040.26 306.036 1039.25 305.784 1038.34 305.28C1037.43 304.776 1036.7 304.014 1036.16 303.006C1035.62 301.992 1035.36 300.762 1035.36 299.298V296.418C1035.36 294.96 1035.63 293.724 1036.16 292.71C1036.7 291.696 1037.42 290.94 1038.34 290.436C1039.25 289.932 1040.26 289.68 1041.37 289.68C1042.49 289.68 1043.5 289.932 1044.41 290.436C1045.31 290.94 1046.04 291.702 1046.58 292.71C1047.12 293.718 1047.38 294.954 1047.38 296.418V299.298C1047.38 300.756 1047.11 301.992 1046.58 303.006C1046.04 304.014 1045.32 304.776 1044.41 305.28C1043.5 305.784 1042.49 306.036 1041.37 306.036ZM1041.37 303.366C1041.97 303.366 1042.5 303.21 1042.94 302.904C1043.39 302.598 1043.74 302.13 1043.99 301.5C1044.23 300.87 1044.36 300.096 1044.36 299.178V296.526C1044.36 295.602 1044.23 294.828 1043.99 294.204C1043.74 293.58 1043.39 293.112 1042.94 292.8C1042.49 292.494 1041.97 292.338 1041.37 292.338C1040.77 292.338 1040.24 292.494 1039.8 292.8C1039.35 293.106 1039 293.574 1038.76 294.204C1038.51 294.834 1038.38 295.608 1038.38 296.526V299.178C1038.38 300.102 1038.51 300.876 1038.76 301.5C1039 302.124 1039.36 302.592 1039.8 302.904C1040.25 303.21 1040.77 303.366 1041.37 303.366Z" fill="#424142"/>
<path d="M1049.8 305.748V303.426L1055.43 297.858C1056.19 297.102 1056.73 296.466 1057.05 295.95C1057.37 295.434 1057.54 294.9 1057.54 294.348C1057.54 293.76 1057.34 293.28 1056.93 292.92C1056.52 292.554 1055.93 292.374 1055.14 292.374C1054.41 292.374 1053.82 292.614 1053.35 293.082C1052.89 293.556 1052.56 294.204 1052.33 295.02L1049.49 294.33C1049.85 292.998 1050.51 291.894 1051.48 291.006C1052.44 290.124 1053.66 289.68 1055.14 289.68C1056.2 289.68 1057.13 289.854 1057.94 290.208C1058.74 290.562 1059.37 291.078 1059.82 291.762C1060.27 292.446 1060.49 293.262 1060.49 294.21C1060.49 295.158 1060.28 296.052 1059.84 296.82C1059.4 297.588 1058.72 298.434 1057.81 299.352L1054.08 303H1060.8V305.748H1049.8H1049.8Z" fill="#424142"/>
<path d="M1382.79 227.352H1160.2V375.438H1382.79V227.352Z" fill="#FED0D0" stroke="#EA8B8B" stroke-width="1.8" stroke-miterlimit="10"/>
<path d="M1257.4 303.426V291.618L1254.52 293.826L1252.85 291.6L1257.97 287.646H1260.41V303.426H1257.4Z" fill="#424142"/>
<path d="M1269.49 303.714C1268.38 303.714 1267.37 303.462 1266.46 302.958C1265.55 302.454 1264.82 301.692 1264.28 300.684C1263.74 299.67 1263.48 298.44 1263.48 296.976V294.096C1263.48 292.638 1263.75 291.402 1264.28 290.388C1264.82 289.374 1265.54 288.618 1266.46 288.114C1267.37 287.61 1268.38 287.358 1269.49 287.358C1270.61 287.358 1271.62 287.61 1272.53 288.114C1273.44 288.618 1274.16 289.38 1274.7 290.388C1275.24 291.402 1275.5 292.632 1275.5 294.096V296.976C1275.5 298.434 1275.23 299.67 1274.7 300.684C1274.16 301.692 1273.44 302.454 1272.53 302.958C1271.62 303.462 1270.61 303.714 1269.49 303.714ZM1269.49 301.044C1270.09 301.044 1270.62 300.888 1271.06 300.582C1271.51 300.276 1271.86 299.808 1272.11 299.178C1272.35 298.548 1272.48 297.774 1272.48 296.856V294.204C1272.48 293.28 1272.35 292.506 1272.11 291.882C1271.86 291.258 1271.51 290.79 1271.06 290.478C1270.61 290.172 1270.09 290.016 1269.49 290.016C1268.89 290.016 1268.36 290.172 1267.92 290.478C1267.47 290.784 1267.12 291.252 1266.88 291.882C1266.63 292.512 1266.5 293.286 1266.5 294.204V296.856C1266.5 297.78 1266.63 298.554 1266.88 299.178C1267.12 299.802 1267.48 300.27 1267.92 300.582C1268.37 300.888 1268.89 301.044 1269.49 301.044Z" fill="#424142"/>
<path d="M1280.17 298.644C1280.45 299.364 1280.85 299.94 1281.38 300.372C1281.9 300.81 1282.61 301.026 1283.49 301.026C1284.1 301.026 1284.63 300.936 1285.07 300.75C1285.52 300.564 1285.85 300.306 1286.08 299.982C1286.31 299.658 1286.43 299.286 1286.43 298.878C1286.43 298.446 1286.31 298.05 1286.08 297.708C1285.84 297.36 1285.48 297.084 1284.99 296.88C1284.5 296.676 1283.91 296.574 1283.2 296.574H1281.09V294.06H1283.2C1284.14 294.06 1284.85 293.874 1285.33 293.496C1285.81 293.118 1286.05 292.614 1286.05 291.99C1286.05 291.366 1285.81 290.898 1285.34 290.562C1284.88 290.226 1284.24 290.052 1283.44 290.052C1282.09 290.052 1281.15 290.736 1280.62 292.104L1277.96 291.108C1278.38 289.968 1279.05 289.062 1279.96 288.384C1280.87 287.706 1282.03 287.364 1283.44 287.364C1284.5 287.364 1285.45 287.538 1286.29 287.88C1287.13 288.228 1287.79 288.732 1288.27 289.398C1288.75 290.064 1288.99 290.862 1288.99 291.798C1288.99 292.68 1288.78 293.4 1288.36 293.958C1287.95 294.516 1287.39 294.966 1286.7 295.314C1287.48 295.62 1288.12 296.094 1288.62 296.724C1289.12 297.354 1289.37 298.128 1289.37 299.04C1289.37 299.952 1289.12 300.81 1288.62 301.518C1288.12 302.22 1287.43 302.766 1286.54 303.15C1285.65 303.534 1284.64 303.726 1283.5 303.726C1281.95 303.726 1280.68 303.36 1279.69 302.622C1278.7 301.884 1277.98 300.894 1277.53 299.634L1280.18 298.656L1280.17 298.644Z" fill="#424142"/>
<path d="M926.1 227.352H859.674V279.504H926.1V227.352Z" fill="#FED0D0" stroke="#EA8B8B" stroke-width="1.8" stroke-miterlimit="10"/>
<path d="M880.794 262.152V250.344L877.914 252.552L876.246 250.326L881.37 246.372H883.806V262.152H880.794Z" fill="#424142"/>
<path d="M892.89 262.441C891.774 262.441 890.766 262.189 889.854 261.685C888.948 261.181 888.222 260.419 887.682 259.411C887.142 258.397 886.878 257.167 886.878 255.703V252.823C886.878 251.365 887.148 250.129 887.682 249.115C888.216 248.101 888.942 247.345 889.854 246.841C890.766 246.337 891.774 246.085 892.89 246.085C894.006 246.085 895.014 246.337 895.926 246.841C896.832 247.345 897.558 248.107 898.098 249.115C898.638 250.123 898.902 251.359 898.902 252.823V255.703C898.902 257.161 898.632 258.397 898.098 259.411C897.558 260.419 896.838 261.181 895.926 261.685C895.014 262.189 894.006 262.441 892.89 262.441ZM892.89 259.771C893.49 259.771 894.018 259.615 894.462 259.309C894.912 259.003 895.26 258.535 895.506 257.905C895.752 257.275 895.878 256.501 895.878 255.583V252.931C895.878 252.007 895.752 251.233 895.506 250.609C895.26 249.985 894.906 249.517 894.462 249.205C894.012 248.899 893.49 248.743 892.89 248.743C892.29 248.743 891.762 248.899 891.318 249.205C890.868 249.511 890.52 249.979 890.274 250.609C890.028 251.239 889.902 252.013 889.902 252.931V255.583C889.902 256.507 890.028 257.281 890.274 257.905C890.52 258.529 890.874 258.997 891.318 259.309C891.768 259.615 892.29 259.771 892.89 259.771Z" fill="#424142"/>
<path d="M904.986 262.152V250.344L902.106 252.552L900.438 250.326L905.562 246.372H907.998V262.152H904.986Z" fill="#424142"/>
<path d="M926.1 279.498H859.674V323.286H926.1V279.498Z" fill="#FED0D0" stroke="#EA8B8B" stroke-width="1.8" stroke-miterlimit="10"/>
<path d="M873.132 308.071V296.263L870.252 298.471L868.584 296.245L873.708 292.291H876.144V308.071H873.132Z" fill="#424142"/>
<path d="M885.228 308.358C884.112 308.358 883.104 308.106 882.192 307.602C881.286 307.098 880.56 306.336 880.02 305.328C879.48 304.314 879.216 303.084 879.216 301.62V298.74C879.216 297.282 879.486 296.046 880.02 295.032C880.554 294.018 881.28 293.262 882.192 292.758C883.104 292.254 884.112 292.002 885.228 292.002C886.344 292.002 887.352 292.254 888.264 292.758C889.17 293.262 889.896 294.024 890.436 295.032C890.976 296.04 891.24 297.276 891.24 298.74V301.62C891.24 303.078 890.97 304.314 890.436 305.328C889.896 306.336 889.176 307.098 888.264 307.602C887.352 308.106 886.344 308.358 885.228 308.358ZM885.228 305.688C885.828 305.688 886.356 305.532 886.8 305.226C887.25 304.92 887.598 304.452 887.844 303.822C888.09 303.192 888.216 302.418 888.216 301.5V298.848C888.216 297.924 888.09 297.15 887.844 296.526C887.598 295.902 887.244 295.434 886.8 295.122C886.35 294.816 885.828 294.66 885.228 294.66C884.628 294.66 884.1 294.816 883.656 295.122C883.206 295.428 882.858 295.896 882.612 296.526C882.366 297.156 882.24 297.93 882.24 298.848V301.5C882.24 302.424 882.366 303.198 882.612 303.822C882.858 304.446 883.212 304.914 883.656 305.226C884.106 305.532 884.628 305.688 885.228 305.688Z" fill="#424142"/>
<path d="M897.324 308.071V296.263L894.444 298.471L892.776 296.245L897.9 292.291H900.336V308.071H897.324Z" fill="#424142"/>
<path d="M902.544 308.071L908.034 292.291H911.028L905.616 308.071H902.544ZM906.27 303.691V300.985H913.566V303.691H906.27ZM914.22 308.071L908.808 292.291H911.802L917.292 308.071H914.22Z" fill="#424142"/>
<path d="M926.1 323.287H859.674V375.439H926.1V323.287Z" fill="#FED0D0" stroke="#EA8B8B" stroke-width="1.8" stroke-miterlimit="10"/>
<path d="M873.486 355.944V344.136L870.606 346.344L868.938 344.118L874.062 340.164H876.498V355.944H873.486Z" fill="#424142"/>
<path d="M885.582 356.232C884.466 356.232 883.458 355.98 882.546 355.476C881.64 354.972 880.914 354.21 880.374 353.202C879.834 352.188 879.57 350.958 879.57 349.494V346.614C879.57 345.156 879.84 343.92 880.374 342.906C880.908 341.892 881.634 341.136 882.546 340.632C883.458 340.128 884.466 339.876 885.582 339.876C886.698 339.876 887.706 340.128 888.618 340.632C889.524 341.136 890.25 341.898 890.79 342.906C891.33 343.914 891.594 345.15 891.594 346.614V349.494C891.594 350.952 891.324 352.188 890.79 353.202C890.25 354.21 889.53 354.972 888.618 355.476C887.706 355.98 886.698 356.232 885.582 356.232ZM885.582 353.562C886.182 353.562 886.71 353.406 887.154 353.1C887.604 352.794 887.952 352.326 888.198 351.696C888.444 351.066 888.57 350.292 888.57 349.374V346.722C888.57 345.798 888.444 345.024 888.198 344.4C887.952 343.776 887.598 343.308 887.154 342.996C886.704 342.69 886.182 342.534 885.582 342.534C884.982 342.534 884.454 342.69 884.01 342.996C883.56 343.302 883.212 343.77 882.966 344.4C882.72 345.03 882.594 345.804 882.594 346.722V349.374C882.594 350.298 882.72 351.072 882.966 351.696C883.212 352.32 883.566 352.788 884.01 353.1C884.46 353.406 884.982 353.562 885.582 353.562Z" fill="#424142"/>
<path d="M897.678 355.944V344.136L894.798 346.344L893.13 344.118L898.254 340.164H900.69V355.944H897.678Z" fill="#424142"/>
<path d="M903.96 355.944V340.164H906.972V355.944H903.96ZM905.322 355.944V353.292H910.986C911.778 353.292 912.396 353.124 912.828 352.794C913.266 352.464 913.482 351.954 913.482 351.276C913.482 350.598 913.26 350.088 912.822 349.74C912.378 349.392 911.772 349.224 910.986 349.224H905.322V346.764H910.236C911.016 346.764 911.628 346.596 912.072 346.254C912.516 345.912 912.732 345.42 912.732 344.766C912.732 344.112 912.516 343.608 912.078 343.29C911.64 342.972 911.028 342.81 910.236 342.81H905.34V340.158H910.254C911.928 340.158 913.26 340.536 914.238 341.292C915.216 342.048 915.708 343.188 915.708 344.712C915.708 345.378 915.546 345.966 915.228 346.476C914.91 346.986 914.406 347.394 913.728 347.688C914.652 348.006 915.336 348.48 915.78 349.098C916.23 349.716 916.452 350.466 916.452 351.336C916.452 352.884 915.966 354.042 914.994 354.804C914.022 355.566 912.69 355.944 910.998 355.944H905.316H905.322Z" fill="#424142"/>
<path d="M255.942 227.352H24.8757V375.438H255.942V227.352Z" fill="#FED0D0" stroke="#EA8B8B" stroke-width="1.8" stroke-miterlimit="10"/>
<path d="M128.31 310.398V298.59L125.43 300.798L123.762 298.572L128.886 294.618H131.322V310.398H128.31Z" fill="#424142"/>
<path d="M138.18 310.398V298.59L135.3 300.798L133.632 298.572L138.756 294.618H141.192V310.398H138.18Z" fill="#424142"/>
<path d="M150.276 310.686C149.16 310.686 148.152 310.434 147.24 309.93C146.334 309.426 145.608 308.664 145.068 307.656C144.528 306.642 144.264 305.412 144.264 303.948V301.068C144.264 299.61 144.534 298.374 145.068 297.36C145.602 296.346 146.328 295.59 147.24 295.086C148.152 294.582 149.16 294.33 150.276 294.33C151.392 294.33 152.4 294.582 153.312 295.086C154.218 295.59 154.944 296.352 155.484 297.36C156.024 298.368 156.288 299.604 156.288 301.068V303.948C156.288 305.406 156.018 306.642 155.484 307.656C154.944 308.664 154.224 309.426 153.312 309.93C152.4 310.434 151.392 310.686 150.276 310.686ZM150.276 308.016C150.876 308.016 151.404 307.86 151.848 307.554C152.298 307.248 152.646 306.78 152.892 306.15C153.138 305.52 153.264 304.746 153.264 303.828V301.176C153.264 300.252 153.138 299.478 152.892 298.854C152.646 298.23 152.292 297.762 151.848 297.45C151.398 297.144 150.876 296.988 150.276 296.988C149.676 296.988 149.148 297.144 148.704 297.45C148.254 297.756 147.906 298.224 147.66 298.854C147.414 299.484 147.288 300.258 147.288 301.176V303.828C147.288 304.752 147.414 305.526 147.66 306.15C147.906 306.774 148.26 307.242 148.704 307.554C149.154 307.86 149.676 308.016 150.276 308.016Z" fill="#424142"/>
<path d="M427.56 227.352H255.942V375.438H427.56V227.352Z" fill="#FED0D0" stroke="#EA8B8B" stroke-width="1.8" stroke-miterlimit="10"/>
<path d="M331.884 312.72V300.912L329.004 303.12L327.336 300.894L332.46 296.94H334.896V312.72H331.884Z" fill="#424142"/>
<path d="M341.748 312.72V300.912L338.868 303.12L337.2 300.894L342.324 296.94H344.76V312.72H341.748Z" fill="#424142"/>
<path d="M351.618 312.72V300.912L348.738 303.12L347.07 300.894L352.194 296.94H354.63V312.72H351.618Z" fill="#424142"/>
<path d="M1383.17 24.4866H1313.11V172.573H1383.17V24.4866Z" fill="#FED0D0" stroke="#EA8B8B" stroke-width="1.8" stroke-miterlimit="10"/>
<path d="M1382.77 35.4724H1313.11V120.642H1382.77V35.4724Z" fill="#FEF3F2" stroke="#EA8B8B" stroke-width="1.8" stroke-miterlimit="10"/>
<path d="M1383.15 45.1025H1312.69" stroke="#EA8B8B" stroke-width="1.2" stroke-miterlimit="10"/>
<path d="M1383.15 56.0823H1312.69" stroke="#EA8B8B" stroke-width="1.2" stroke-miterlimit="10"/>
<path d="M1383.15 67.0681H1312.69" stroke="#EA8B8B" stroke-width="1.2" stroke-miterlimit="10"/>
<path d="M1383.15 78.0542H1312.69" stroke="#EA8B8B" stroke-width="1.2" stroke-miterlimit="10"/>
<path d="M1383.15 89.04H1312.69" stroke="#EA8B8B" stroke-width="1.2" stroke-miterlimit="10"/>
<path d="M1383.15 100.026H1312.69" stroke="#EA8B8B" stroke-width="1.2" stroke-miterlimit="10"/>
<path d="M1383.16 111.012H1312.71" stroke="#EA8B8B" stroke-width="1.2" stroke-miterlimit="10"/>
<path d="M98.34 23.9641H23.7V172.566H98.34V23.9641Z" fill="#FED0D0" stroke="#EA8B8B" stroke-width="1.8" stroke-miterlimit="10"/>
<path d="M98.1298 41.9043H23.9158V127.074H98.1298V41.9043Z" fill="#FEF3F2" stroke="#EA8B8B" stroke-width="1.86" stroke-miterlimit="10"/>
<path d="M98.5439 51.5344H23.4839" stroke="#EA8B8B" stroke-width="1.236" stroke-miterlimit="10"/>
<path d="M98.5439 62.52H23.4839" stroke="#EA8B8B" stroke-width="1.236" stroke-miterlimit="10"/>
<path d="M98.5439 73.5063H23.4839" stroke="#EA8B8B" stroke-width="1.236" stroke-miterlimit="10"/>
<path d="M98.5439 84.4924H23.4839" stroke="#EA8B8B" stroke-width="1.236" stroke-miterlimit="10"/>
<path d="M98.5439 95.4785H23.4839" stroke="#EA8B8B" stroke-width="1.236" stroke-miterlimit="10"/>
<path d="M98.5439 106.464H23.4839" stroke="#EA8B8B" stroke-width="1.236" stroke-miterlimit="10"/>
<path d="M98.5558 117.45H23.4958" stroke="#EA8B8B" stroke-width="1.236" stroke-miterlimit="10"/>
<path d="M818.88 67.0986H698.652V120.673H818.88V67.0986Z" fill="#FEF3F2" stroke="#EA8B8B" stroke-width="1.878" stroke-miterlimit="10"/>
<path d="M819.54 75.8103H697.944" stroke="#EA8B8B" stroke-width="1.248" stroke-miterlimit="10"/>
<path d="M819.54 84.8467H697.944" stroke="#EA8B8B" stroke-width="1.248" stroke-miterlimit="10"/>
<path d="M819.54 93.8823H697.944" stroke="#EA8B8B" stroke-width="1.248" stroke-miterlimit="10"/>
<path d="M819.54 102.918H697.944" stroke="#EA8B8B" stroke-width="1.248" stroke-miterlimit="10"/>
<path d="M819.54 111.954H697.944" stroke="#EA8B8B" stroke-width="1.248" stroke-miterlimit="10"/>
<path d="M587.928 60.4802H483.414V172.572H587.928V60.4802Z" fill="#FED0D0" stroke="#EA8B8B" stroke-width="1.8" stroke-miterlimit="10"/>
<path d="M522.45 152.04V140.232L519.57 142.44L517.902 140.214L523.026 136.26H525.462V152.04H522.45Z" fill="#424142"/>
<path d="M534.546 152.328C533.43 152.328 532.422 152.076 531.51 151.572C530.604 151.068 529.878 150.306 529.338 149.298C528.798 148.284 528.534 147.054 528.534 145.59V142.71C528.534 141.252 528.804 140.016 529.338 139.002C529.872 137.988 530.598 137.232 531.51 136.728C532.422 136.224 533.43 135.972 534.546 135.972C535.662 135.972 536.67 136.224 537.582 136.728C538.488 137.232 539.214 137.994 539.754 139.002C540.294 140.01 540.558 141.246 540.558 142.71V145.59C540.558 147.048 540.288 148.284 539.754 149.298C539.214 150.306 538.494 151.068 537.582 151.572C536.67 152.076 535.662 152.328 534.546 152.328ZM534.546 149.658C535.146 149.658 535.674 149.502 536.118 149.196C536.568 148.89 536.916 148.422 537.162 147.792C537.408 147.162 537.534 146.388 537.534 145.47V142.818C537.534 141.894 537.408 141.12 537.162 140.496C536.916 139.872 536.562 139.404 536.118 139.092C535.668 138.786 535.146 138.63 534.546 138.63C533.946 138.63 533.418 138.786 532.974 139.092C532.524 139.398 532.176 139.866 531.93 140.496C531.684 141.126 531.558 141.9 531.558 142.818V145.47C531.558 146.394 531.684 147.168 531.93 147.792C532.176 148.416 532.53 148.884 532.974 149.196C533.424 149.502 533.946 149.658 534.546 149.658Z" fill="#424142"/>
<path d="M553.248 136.254V138.978L546.492 152.322H543.114L549.894 138.978H542.388V136.254H553.254H553.248Z" fill="#424142"/>
<path d="M926.106 60.4802H819.54V172.572H926.106V60.4802Z" fill="#FED0D0" stroke="#EA8B8B" stroke-width="1.8" stroke-miterlimit="10"/>
<path d="M858.738 152.04V140.232L855.858 142.44L854.19 140.214L859.314 136.26H861.75V152.04H858.738Z" fill="#424142"/>
<path d="M870.834 152.328C869.718 152.328 868.71 152.076 867.798 151.572C866.892 151.068 866.166 150.306 865.626 149.298C865.086 148.284 864.822 147.054 864.822 145.59V142.71C864.822 141.252 865.092 140.016 865.626 139.002C866.16 137.988 866.886 137.232 867.798 136.728C868.71 136.224 869.718 135.972 870.834 135.972C871.95 135.972 872.958 136.224 873.87 136.728C874.776 137.232 875.502 137.994 876.042 139.002C876.582 140.01 876.846 141.246 876.846 142.71V145.59C876.846 147.048 876.576 148.284 876.042 149.298C875.502 150.306 874.782 151.068 873.87 151.572C872.958 152.076 871.95 152.328 870.834 152.328ZM870.834 149.658C871.434 149.658 871.962 149.502 872.406 149.196C872.856 148.89 873.204 148.422 873.45 147.792C873.696 147.162 873.822 146.388 873.822 145.47V142.818C873.822 141.894 873.696 141.12 873.45 140.496C873.204 139.872 872.85 139.404 872.406 139.092C871.956 138.786 871.434 138.63 870.834 138.63C870.234 138.63 869.706 138.786 869.262 139.092C868.812 139.398 868.464 139.866 868.218 140.496C867.972 141.126 867.846 141.9 867.846 142.818V145.47C867.846 146.394 867.972 147.168 868.218 147.792C868.464 148.416 868.818 148.884 869.262 149.196C869.712 149.502 870.234 149.658 870.834 149.658Z" fill="#424142"/>
<path d="M884.772 135.972C886.17 135.972 887.34 136.254 888.288 136.824C889.236 137.394 889.986 138.24 890.532 139.368L888.072 140.652C887.688 139.95 887.25 139.434 886.758 139.104C886.266 138.774 885.654 138.612 884.922 138.612C884.028 138.612 883.296 138.966 882.726 139.68C882.156 140.388 881.874 141.456 881.874 142.878V144.126H881.508C881.778 143.304 882.294 142.674 883.062 142.236C883.83 141.792 884.688 141.576 885.636 141.576C886.584 141.576 887.4 141.804 888.21 142.26C889.014 142.716 889.662 143.352 890.148 144.18C890.634 145.008 890.88 145.944 890.88 146.994C890.88 148.044 890.622 148.992 890.112 149.796C889.602 150.6 888.894 151.224 888 151.668C887.106 152.112 886.098 152.328 884.988 152.328C883.878 152.328 882.84 152.112 881.952 151.674C881.07 151.236 880.38 150.594 879.888 149.742C879.396 148.89 879.15 147.864 879.15 146.658V142.758C879.15 141.288 879.414 140.04 879.948 139.014C880.476 137.988 881.172 137.226 882.03 136.722C882.888 136.218 883.8 135.966 884.778 135.966L884.772 135.972ZM885 144.192C884.436 144.192 883.938 144.306 883.512 144.54C883.08 144.768 882.744 145.092 882.504 145.512C882.258 145.926 882.138 146.406 882.138 146.94C882.138 147.474 882.258 147.954 882.504 148.368C882.744 148.782 883.08 149.106 883.512 149.34C883.938 149.568 884.436 149.688 885 149.688C885.564 149.688 886.086 149.574 886.524 149.34C886.968 149.112 887.31 148.788 887.55 148.368C887.79 147.954 887.916 147.474 887.916 146.94C887.916 146.406 887.796 145.926 887.55 145.512C887.304 145.098 886.962 144.774 886.524 144.54C886.08 144.312 885.576 144.192 885 144.192Z" fill="#424142"/>
</g>
</svg>
