<?xml version="1.0" encoding="UTF-8"?><svg xmlns="http://www.w3.org/2000/svg" viewBox="0 0 1800 1400"><defs><style>.cls-1{fill:#f5cbcc;}.cls-1,.cls-2,.cls-3,.cls-4{stroke-miterlimit:10;}.cls-1,.cls-3{stroke-width:2px;}.cls-1,.cls-3,.cls-4{stroke:#d88282;}.cls-2{fill:#fdf3f2;stroke:#e18686;stroke-width:9px;}.cls-5,.cls-6{font-family:NanumSquareNeovariable-Heavy, 'NanumSquare Neo variable';font-variation-settings:'wght' 900;font-weight:800;}.cls-5,.cls-6,.cls-7{fill:#434142;}.cls-5,.cls-7{font-size:22px;}.cls-6{font-size:26px;}.cls-3,.cls-4{fill:none;}.cls-7{font-family:NanumSquareNeovariable-Regular, 'NanumSquare Neo variable';font-variation-settings:'wght' 300;}.cls-4{stroke-width:1.91px;}</style></defs><g id="Layer_border"><path class="cls-2" d="m1229.24,353.01v102.79h-225.32v-102.79l-288.28-.13v338.45H245.92v420.19h458.05v-34.4h54.94v34.4h749.64v-420.19c-.13-112.92-.26-225.83-.4-338.75l-278.92.42Z"/><rect class="cls-2" x="390.61" y="632.5" width="162.37" height="58.84"/></g><g id="Layer_others"><line class="cls-3" x1="1348.24" y1="703.14" x2="1348.24" y2="795.72"/><line class="cls-3" x1="1356.24" y1="703.14" x2="1356.24" y2="795.72"/><line class="cls-3" x1="1364.24" y1="703.14" x2="1364.24" y2="795.72"/><line class="cls-3" x1="1372.24" y1="703.14" x2="1372.24" y2="795.72"/><line class="cls-3" x1="1380.24" y1="703.14" x2="1380.24" y2="795.72"/><line class="cls-3" x1="1388.24" y1="703.14" x2="1388.24" y2="795.72"/><line class="cls-3" x1="1396.24" y1="703.14" x2="1396.24" y2="795.72"/><line class="cls-3" x1="1404.24" y1="703.14" x2="1404.24" y2="795.72"/><line class="cls-3" x1="1412.24" y1="703.14" x2="1412.24" y2="795.72"/><line class="cls-3" x1="1420.24" y1="703.14" x2="1420.24" y2="795.72"/><line class="cls-3" x1="1428.24" y1="703.14" x2="1428.24" y2="795.72"/><rect class="cls-3" x="1281.89" y="703.14" width="221.52" height="92.58"/><rect class="cls-4" x="1074.72" y="739.71" width="83.62" height="83.62"/><line class="cls-3" x1="818.94" y1="709.58" x2="818.94" y2="802.16"/><line class="cls-3" x1="826.94" y1="709.58" x2="826.94" y2="802.16"/><line class="cls-3" x1="834.94" y1="709.58" x2="834.94" y2="802.16"/><line class="cls-3" x1="842.94" y1="709.58" x2="842.94" y2="802.16"/><line class="cls-3" x1="850.94" y1="709.58" x2="850.94" y2="802.16"/><line class="cls-3" x1="858.94" y1="709.58" x2="858.94" y2="802.16"/><line class="cls-3" x1="866.94" y1="709.58" x2="866.94" y2="802.16"/><line class="cls-3" x1="874.94" y1="709.58" x2="874.94" y2="802.16"/><line class="cls-3" x1="882.94" y1="709.58" x2="882.94" y2="802.16"/><line class="cls-3" x1="890.94" y1="709.58" x2="890.94" y2="802.16"/><line class="cls-3" x1="898.94" y1="709.58" x2="898.94" y2="802.16"/><rect class="cls-3" x="762.6" y="709.58" width="181.01" height="92.58"/><line class="cls-3" x1="378.72" y1="691.69" x2="402.5" y2="691.69"/><line class="cls-3" x1="700.2" y1="1078.95" x2="700.2" y2="692.9"/><rect class="cls-3" x="357.09" y="790.29" width="238.17" height="230.64"/><rect class="cls-3" x="297.18" y="732.28" width="357.99" height="346.67"/><polygon class="cls-3" points="1000.24 458.89 1000.24 865.36 1074.61 865.36 1074.61 823.33 1158.34 823.33 1158.34 865.36 1232.82 865.36 1232.82 457.47 1000.24 458.89"/></g><g id="Layer_toilet1"><rect class="cls-3" x="762.6" y="599.14" width="181.01" height="110.44"/></g><g id="Layer_toilet2"><rect class="cls-3" x="762.6" y="802.16" width="181.01" height="117.7"/></g><g id="Layer_201"><rect class="cls-1" x="762.6" y="356.94" width="237.64" height="242.21"/><text class="cls-6" transform="translate(858.86 486.33)"><tspan x="0" y="0">201</tspan></text></g><g id="Layer_204"><rect class="cls-1" x="927.93" y="919.86" width="575.48" height="188.62"/><text class="cls-6" transform="translate(1187.58 1000.55)"><tspan x="0" y="0">204</tspan></text><text class="cls-7" transform="translate(1163.53 1034.57)"><tspan x="0" y="0">학생지원팀</tspan></text></g><g id="Layer_204A"><rect class="cls-1" x="762.6" y="1010.59" width="165.33" height="97.88" transform="translate(1690.53 2119.07) rotate(180)"/><text class="cls-6" transform="translate(806.8 1065.2)"><tspan x="0" y="0">204A</tspan></text></g><g id="Layer_204B"><rect class="cls-1" x="762.6" y="919.86" width="165.33" height="90.74" transform="translate(1690.53 1930.45) rotate(180)"/><text class="cls-6" transform="translate(807.28 974.49)"><tspan x="0" y="0">204B</tspan></text></g><g id="Layer_205"><rect class="cls-1" x="1281.89" y="795.72" width="221.52" height="124.14"/><text class="cls-6" transform="translate(1365.53 862.42)"><tspan x="0" y="0">205</tspan></text></g><g id="Layer_206"><polygon class="cls-1" points="1314.54 356.94 1314.54 490.01 1232.82 490.01 1232.82 545.8 1314.54 545.8 1325.45 545.8 1503.41 545.8 1503.41 356.94 1314.54 356.94"/><text class="cls-6" transform="translate(1380.34 451.37)"><tspan x="0" y="0">206</tspan></text></g><g id="Layer_206A"><rect class="cls-1" x="1281.89" y="545.8" width="221.52" height="157.33"/><text class="cls-6" transform="translate(1352.54 629.89)"><tspan x="0" y="0">206A</tspan></text></g><g id="Layer_206B"><rect class="cls-1" x="1232.82" y="356.94" width="81.72" height="133.08"/><text class="cls-5" transform="translate(1241.48 432.73)"><tspan x="0" y="0">206B</tspan></text></g></svg>