<?xml version="1.0" encoding="UTF-8"?><svg xmlns="http://www.w3.org/2000/svg" viewBox="0 0 1470 1080"><g id="Layer_border"><polygon points="127.5 492.5 127.5 707.5 92.5 707.5 92.5 773.5 127.5 773.5 127.5 778.5 495.5 778.5 495.5 492.5 127.5 492.5" fill="#fdf3f2" stroke="#e18686" stroke-linecap="round" stroke-linejoin="round" stroke-width="5"/><polyline points="495 492.5 712.26 492.5 712.26 642.1 832 642.1 832 703.41 712.26 703.41 712.26 778 495 778" fill="none" stroke="#e18686" stroke-linecap="round" stroke-linejoin="round" stroke-width="5.16"/><polyline points="832.02 439 764 439 764 797.77 832.02 797.77" fill="none" stroke="#e18686" stroke-linecap="round" stroke-linejoin="round" stroke-width="5"/><polyline points="832.02 439 734 439 734 797.77 832.02 797.77" fill="none" stroke="#e18686" stroke-linecap="round" stroke-linejoin="round" stroke-width="5"/><polygon points="1256.5 271.5 1256.5 233.5 1178.5 233.5 1178.5 271.5 1121.5 271.5 1121.5 233.5 1043.5 233.5 1043.5 271.5 986.5 271.5 986.5 233.5 908.5 233.5 908.5 271.5 908.5 373.5 908.5 388.5 832.5 388.5 832.5 797.5 908.5 797.5 908.5 860.5 986.5 860.5 986.5 797.5 1043.5 797.5 1043.5 806.5 1115.5 806.5 1115.5 860.5 1121.5 860.5 1184.5 860.5 1184.5 806.5 1195.5 806.5 1215.5 806.5 1256.5 806.5 1256.5 797.5 1256.5 720.5 1256.5 688.5 1331.5 688.5 1331.5 271.5 1256.5 271.5" fill="#fdf3f2" stroke="#e18686" stroke-linecap="round" stroke-linejoin="round" stroke-width="5"/></g><g id="Layer_others"><rect x="1051.78" y="492.53" width="172.22" height="47.19" fill="none" stroke="#e18686" stroke-miterlimit="10" stroke-width="2"/><line x1="1058.64" y1="492.53" x2="1058.64" y2="539.72" fill="none" stroke="#e18686" stroke-miterlimit="10" stroke-width="2"/><line x1="1067.96" y1="492.53" x2="1067.96" y2="539.72" fill="none" stroke="#e18686" stroke-miterlimit="10" stroke-width="2"/><line x1="1077.28" y1="492.53" x2="1077.28" y2="539.72" fill="none" stroke="#e18686" stroke-miterlimit="10" stroke-width="2"/><line x1="1086.61" y1="492.53" x2="1086.61" y2="539.72" fill="none" stroke="#e18686" stroke-miterlimit="10" stroke-width="2"/><line x1="1095.93" y1="492.53" x2="1095.93" y2="539.72" fill="none" stroke="#e18686" stroke-miterlimit="10" stroke-width="2"/><line x1="1105.26" y1="492.53" x2="1105.26" y2="539.72" fill="none" stroke="#e18686" stroke-miterlimit="10" stroke-width="2"/><line x1="1114.58" y1="492.53" x2="1114.58" y2="539.72" fill="none" stroke="#e18686" stroke-miterlimit="10" stroke-width="2"/><line x1="1123.9" y1="492.53" x2="1123.9" y2="539.72" fill="none" stroke="#e18686" stroke-miterlimit="10" stroke-width="2"/><line x1="1133.23" y1="492.53" x2="1133.23" y2="539.72" fill="none" stroke="#e18686" stroke-miterlimit="10" stroke-width="2"/><line x1="1142.55" y1="492.53" x2="1142.55" y2="539.72" fill="none" stroke="#e18686" stroke-miterlimit="10" stroke-width="2"/><line x1="1151.88" y1="492.53" x2="1151.88" y2="539.72" fill="none" stroke="#e18686" stroke-miterlimit="10" stroke-width="2"/><line x1="1161.2" y1="492.53" x2="1161.2" y2="539.72" fill="none" stroke="#e18686" stroke-miterlimit="10" stroke-width="2"/><line x1="1170.52" y1="492.53" x2="1170.52" y2="539.72" fill="none" stroke="#e18686" stroke-miterlimit="10" stroke-width="2"/><line x1="1179.85" y1="492.53" x2="1179.85" y2="539.72" fill="none" stroke="#e18686" stroke-miterlimit="10" stroke-width="2"/><line x1="1189.17" y1="492.53" x2="1189.17" y2="539.72" fill="none" stroke="#e18686" stroke-miterlimit="10" stroke-width="2"/><line x1="1198.5" y1="492.53" x2="1198.5" y2="539.72" fill="none" stroke="#e18686" stroke-miterlimit="10" stroke-width="2"/><line x1="1207.82" y1="492.53" x2="1207.82" y2="539.72" fill="none" stroke="#e18686" stroke-miterlimit="10" stroke-width="2"/><line x1="1217.14" y1="492.53" x2="1217.14" y2="539.72" fill="none" stroke="#e18686" stroke-miterlimit="10" stroke-width="2"/><rect x="1051.78" y="492.53" width="172.22" height="47.19" fill="none" stroke="#e18686" stroke-miterlimit="10" stroke-width="2"/><line x1="1058.64" y1="492.53" x2="1058.64" y2="539.72" fill="none" stroke="#e18686" stroke-miterlimit="10" stroke-width="2"/><line x1="1067.96" y1="492.53" x2="1067.96" y2="539.72" fill="none" stroke="#e18686" stroke-miterlimit="10" stroke-width="2"/><line x1="1077.28" y1="492.53" x2="1077.28" y2="539.72" fill="none" stroke="#e18686" stroke-miterlimit="10" stroke-width="2"/><line x1="1086.61" y1="492.53" x2="1086.61" y2="539.72" fill="none" stroke="#e18686" stroke-miterlimit="10" stroke-width="2"/><line x1="1095.93" y1="492.53" x2="1095.93" y2="539.72" fill="none" stroke="#e18686" stroke-miterlimit="10" stroke-width="2"/><line x1="1105.26" y1="492.53" x2="1105.26" y2="539.72" fill="none" stroke="#e18686" stroke-miterlimit="10" stroke-width="2"/><line x1="1114.58" y1="492.53" x2="1114.58" y2="539.72" fill="none" stroke="#e18686" stroke-miterlimit="10" stroke-width="2"/><line x1="1123.9" y1="492.53" x2="1123.9" y2="539.72" fill="none" stroke="#e18686" stroke-miterlimit="10" stroke-width="2"/><line x1="1133.23" y1="492.53" x2="1133.23" y2="539.72" fill="none" stroke="#e18686" stroke-miterlimit="10" stroke-width="2"/><line x1="1142.55" y1="492.53" x2="1142.55" y2="539.72" fill="none" stroke="#e18686" stroke-miterlimit="10" stroke-width="2"/><line x1="1151.88" y1="492.53" x2="1151.88" y2="539.72" fill="none" stroke="#e18686" stroke-miterlimit="10" stroke-width="2"/><line x1="1161.2" y1="492.53" x2="1161.2" y2="539.72" fill="none" stroke="#e18686" stroke-miterlimit="10" stroke-width="2"/><line x1="1170.52" y1="492.53" x2="1170.52" y2="539.72" fill="none" stroke="#e18686" stroke-miterlimit="10" stroke-width="2"/><line x1="1179.85" y1="492.53" x2="1179.85" y2="539.72" fill="none" stroke="#e18686" stroke-miterlimit="10" stroke-width="2"/><line x1="1189.17" y1="492.53" x2="1189.17" y2="539.72" fill="none" stroke="#e18686" stroke-miterlimit="10" stroke-width="2"/><line x1="1198.5" y1="492.53" x2="1198.5" y2="539.72" fill="none" stroke="#e18686" stroke-miterlimit="10" stroke-width="2"/><line x1="1207.82" y1="492.53" x2="1207.82" y2="539.72" fill="none" stroke="#e18686" stroke-miterlimit="10" stroke-width="2"/><line x1="1217.14" y1="492.53" x2="1217.14" y2="539.72" fill="none" stroke="#e18686" stroke-miterlimit="10" stroke-width="2"/><rect x="1098.18" y="540.27" width="172.22" height="47.19" fill="none" stroke="#e18686" stroke-miterlimit="10" stroke-width="2"/><line x1="1105.04" y1="540.27" x2="1105.04" y2="587.46" fill="none" stroke="#e18686" stroke-miterlimit="10" stroke-width="2"/><line x1="1114.36" y1="540.27" x2="1114.36" y2="587.46" fill="none" stroke="#e18686" stroke-miterlimit="10" stroke-width="2"/><line x1="1123.69" y1="540.27" x2="1123.69" y2="587.46" fill="none" stroke="#e18686" stroke-miterlimit="10" stroke-width="2"/><line x1="1133.01" y1="540.27" x2="1133.01" y2="587.46" fill="none" stroke="#e18686" stroke-miterlimit="10" stroke-width="2"/><line x1="1142.34" y1="540.27" x2="1142.34" y2="587.46" fill="none" stroke="#e18686" stroke-miterlimit="10" stroke-width="2"/><line x1="1151.66" y1="540.27" x2="1151.66" y2="587.46" fill="none" stroke="#e18686" stroke-miterlimit="10" stroke-width="2"/><line x1="1160.98" y1="540.27" x2="1160.98" y2="587.46" fill="none" stroke="#e18686" stroke-miterlimit="10" stroke-width="2"/><line x1="1170.31" y1="540.27" x2="1170.31" y2="587.46" fill="none" stroke="#e18686" stroke-miterlimit="10" stroke-width="2"/><line x1="1179.63" y1="540.27" x2="1179.63" y2="587.46" fill="none" stroke="#e18686" stroke-miterlimit="10" stroke-width="2"/><line x1="1188.96" y1="540.27" x2="1188.96" y2="587.46" fill="none" stroke="#e18686" stroke-miterlimit="10" stroke-width="2"/><line x1="1198.28" y1="540.27" x2="1198.28" y2="587.46" fill="none" stroke="#e18686" stroke-miterlimit="10" stroke-width="2"/><line x1="1207.6" y1="540.27" x2="1207.6" y2="587.46" fill="none" stroke="#e18686" stroke-miterlimit="10" stroke-width="2"/><line x1="1216.93" y1="540.27" x2="1216.93" y2="587.46" fill="none" stroke="#e18686" stroke-miterlimit="10" stroke-width="2"/><line x1="1226.25" y1="540.27" x2="1226.25" y2="587.46" fill="none" stroke="#e18686" stroke-miterlimit="10" stroke-width="2"/><line x1="1235.58" y1="540.27" x2="1235.58" y2="587.46" fill="none" stroke="#e18686" stroke-miterlimit="10" stroke-width="2"/><line x1="1244.9" y1="540.27" x2="1244.9" y2="587.46" fill="none" stroke="#e18686" stroke-miterlimit="10" stroke-width="2"/><line x1="1254.22" y1="540.27" x2="1254.22" y2="587.46" fill="none" stroke="#e18686" stroke-miterlimit="10" stroke-width="2"/><line x1="1263.55" y1="540.27" x2="1263.55" y2="587.46" fill="none" stroke="#e18686" stroke-miterlimit="10" stroke-width="2"/><line x1="363" y1="712" x2="363" y2="778" fill="none" stroke="#e18686" stroke-miterlimit="10" stroke-width="2"/><line x1="371" y1="712" x2="371" y2="778" fill="none" stroke="#e18686" stroke-miterlimit="10" stroke-width="2"/><line x1="379" y1="712" x2="379" y2="778" fill="none" stroke="#e18686" stroke-miterlimit="10" stroke-width="2"/><line x1="387" y1="712" x2="387" y2="778" fill="none" stroke="#e18686" stroke-miterlimit="10" stroke-width="2"/><line x1="395" y1="712" x2="395" y2="778" fill="none" stroke="#e18686" stroke-miterlimit="10" stroke-width="2"/><line x1="403" y1="712" x2="403" y2="778" fill="none" stroke="#e18686" stroke-miterlimit="10" stroke-width="2"/><line x1="411" y1="712" x2="411" y2="778" fill="none" stroke="#e18686" stroke-miterlimit="10" stroke-width="2"/><line x1="419" y1="712" x2="419" y2="778" fill="none" stroke="#e18686" stroke-miterlimit="10" stroke-width="2"/><rect x="363" y="712" width="132" height="65" fill="none" stroke="#e18686" stroke-miterlimit="10" stroke-width="2"/><rect x="92" y="708" width="37" height="65" fill="none" stroke="#e18686" stroke-miterlimit="10" stroke-width="2"/><line x1="98" y1="708" x2="98" y2="773" fill="none" stroke="#e18686" stroke-miterlimit="10" stroke-width="2"/><line x1="104.5" y1="708" x2="104.5" y2="773" fill="none" stroke="#e18686" stroke-miterlimit="10" stroke-width="2"/><line x1="111" y1="708" x2="111" y2="773" fill="none" stroke="#e18686" stroke-miterlimit="10" stroke-width="2"/><line x1="117.5" y1="708" x2="117.5" y2="773" fill="none" stroke="#e18686" stroke-miterlimit="10" stroke-width="2"/><line x1="124" y1="708" x2="124" y2="773" fill="none" stroke="#e18686" stroke-miterlimit="10" stroke-width="2"/><rect x="902" y="489" width="77" height="97" fill="none" stroke="#e18686" stroke-miterlimit="10" stroke-width="2"/><rect x="1117" y="626" width="67" height="64" fill="none" stroke="#e18686" stroke-miterlimit="10" stroke-width="2"/><rect x="129" y="492" width="366" height="220" fill="none" stroke="#e18686" stroke-miterlimit="10" stroke-width="2"/></g><g id="Layer_301"><rect x="911" y="236" width="73" height="214" fill="#f8cdce" stroke="#e18686" stroke-miterlimit="10" stroke-width="2"/><text transform="translate(916.49 338.95)" fill="#434142" font-family="NanumSquareNeovariable-Heavy, &apos;NanumSquare Neo variable&apos;" font-size="22" font-variation-settings="&apos;wght&apos; 900" font-weight="800"><tspan x="0" y="0">A301</tspan></text></g><g id="Layer_302"><rect x="1046" y="236" width="73" height="214" fill="#f8cdce" stroke="#e18686" stroke-miterlimit="10" stroke-width="2"/><text transform="translate(1049.45 338.95)" fill="#434142" font-family="NanumSquareNeovariable-Heavy, &apos;NanumSquare Neo variable&apos;" font-size="22" font-variation-settings="&apos;wght&apos; 900" font-weight="800"><tspan x="0" y="0">A302</tspan></text></g><g id="Layer_303"><rect x="1181" y="236" width="73" height="214" fill="#f8cdce" stroke="#e18686" stroke-miterlimit="10" stroke-width="2"/><text transform="translate(1184.2 338.95)" fill="#434142" font-family="NanumSquareNeovariable-Heavy, &apos;NanumSquare Neo variable&apos;" font-size="22" font-variation-settings="&apos;wght&apos; 900" font-weight="800"><tspan x="0" y="0">A303</tspan></text></g><g id="Layer_304"><rect x="911" y="643" width="73" height="214" fill="#f8cdce" stroke="#e18686" stroke-miterlimit="10" stroke-width="2"/><text transform="translate(914.27 745.95)" fill="#434142" font-family="NanumSquareNeovariable-Heavy, &apos;NanumSquare Neo variable&apos;" font-size="22" font-variation-settings="&apos;wght&apos; 900" font-weight="800"><tspan x="0" y="0">A304</tspan></text></g><g id="Layer_305"><rect x="1044" y="626" width="73" height="179" fill="#f8cdce" stroke="#e18686" stroke-miterlimit="10" stroke-width="2"/><text transform="translate(1047.45 716.95)" fill="#434142" font-family="NanumSquareNeovariable-Heavy, &apos;NanumSquare Neo variable&apos;" font-size="22" font-variation-settings="&apos;wght&apos; 900" font-weight="800"><tspan x="0" y="0">A305</tspan></text></g><g id="Layer_306"><rect x="1184" y="626" width="73" height="179" fill="#f8cdce" stroke="#e18686" stroke-miterlimit="10" stroke-width="2"/><text transform="translate(1187.45 716.95)" fill="#434142" font-family="NanumSquareNeovariable-Heavy, &apos;NanumSquare Neo variable&apos;" font-size="22" font-variation-settings="&apos;wght&apos; 900" font-weight="800"><tspan x="0" y="0">A305</tspan></text></g></svg>