<?xml version="1.0" encoding="UTF-8"?><svg
  xmlns="http://www.w3.org/2000/svg"
  viewBox="0 0 1000 1300"
>
  <g id="Layer_border">
    <path
      d="m862.5,619.5l-38.95-38.95-10.38,10.38-166.55-166.55,17-17-168.89-168.89-17,17-63-63-36.35,36.35c-50.02-50.05-100.04-100.1-150.06-150.16l-106.81,106.81c47.33,47.67,94.67,95.33,142,143v371h113v390h367v-352c17.03-16.7,34.07-33.4,51.1-50.1h0s57.51-57.51,57.51-57.51l10.38-10.38Z"
      fill="#fdf3f2"
      stroke="#e18686"
      stroke-linecap="round"
      stroke-linejoin="round"
      stroke-width="5"
    />
    <path
      d="m895.68,698.68l-55.86-55.86c-32.11,31.56-64.21,63.12-96.32,94.68v79h31c40.39-39.27,80.79-78.55,121.18-117.82Z"
      fill="none"
      stroke="#e18686"
      stroke-linecap="round"
      stroke-linejoin="round"
      stroke-width="5"
    />
    <rect
      x="434.5"
      y="1088.5"
      width="244"
      height="34"
      fill="none"
      stroke="#e18686"
      stroke-linecap="round"
      stroke-linejoin="round"
      stroke-width="5"
    />
    <rect
      x="325.96"
      y="84.71"
      width="59.4"
      height="103.89"
      transform="translate(7.54 291.52) rotate(-45)"
      fill="none"
      stroke="#e18686"
      stroke-linecap="round"
      stroke-linejoin="round"
      stroke-width="5"
    />
  </g>
  <g id="Layer_others">
    <rect
      x="436"
      y="530"
      width="139"
      height="46"
      fill="none"
      stroke="#e18686"
      stroke-miterlimit="10"
      stroke-width="2"
    />
    <rect
      x="448"
      y="544"
      width="35"
      height="25"
      fill="none"
      stroke="#e18686"
      stroke-miterlimit="10"
      stroke-width="2"
    />
    <rect
      x="489"
      y="544"
      width="35"
      height="25"
      fill="none"
      stroke="#e18686"
      stroke-miterlimit="10"
      stroke-width="2"
    />
    <rect
      x="530"
      y="544"
      width="35"
      height="25"
      fill="none"
      stroke="#e18686"
      stroke-miterlimit="10"
      stroke-width="2"
    />
    <rect
      x="424.23"
      y="681.14"
      width="55.92"
      height="22.8"
      transform="translate(-240.35 1144.73) rotate(-90)"
      fill="none"
      stroke="#e18686"
      stroke-miterlimit="10"
      stroke-width="2"
    />
    <line
      x1="441.2"
      y1="695.92"
      x2="464"
      y2="695.92"
      fill="none"
      stroke="#e18686"
      stroke-miterlimit="10"
      stroke-width="2"
    />
    <line
      x1="441.2"
      y1="691.94"
      x2="464"
      y2="691.94"
      fill="none"
      stroke="#e18686"
      stroke-miterlimit="10"
      stroke-width="2"
    />
    <line
      x1="441.2"
      y1="687.96"
      x2="464"
      y2="687.96"
      fill="none"
      stroke="#e18686"
      stroke-miterlimit="10"
      stroke-width="2"
    />
    <line
      x1="441.2"
      y1="683.98"
      x2="464"
      y2="683.98"
      fill="none"
      stroke="#e18686"
      stroke-miterlimit="10"
      stroke-width="2"
    />
    <line
      x1="441.2"
      y1="680"
      x2="464"
      y2="680"
      fill="none"
      stroke="#e18686"
      stroke-miterlimit="10"
      stroke-width="2"
    />
    <line
      x1="441.2"
      y1="676.02"
      x2="464"
      y2="676.02"
      fill="none"
      stroke="#e18686"
      stroke-miterlimit="10"
      stroke-width="2"
    />
    <line
      x1="441.2"
      y1="672.04"
      x2="464"
      y2="672.04"
      fill="none"
      stroke="#e18686"
      stroke-miterlimit="10"
      stroke-width="2"
    />
    <line
      x1="441.2"
      y1="668.06"
      x2="464"
      y2="668.06"
      fill="none"
      stroke="#e18686"
      stroke-miterlimit="10"
      stroke-width="2"
    />
    <line
      x1="441.2"
      y1="707.92"
      x2="464"
      y2="707.92"
      fill="none"
      stroke="#e18686"
      stroke-miterlimit="10"
      stroke-width="2"
    />
    <line
      x1="441.2"
      y1="703.94"
      x2="464"
      y2="703.94"
      fill="none"
      stroke="#e18686"
      stroke-miterlimit="10"
      stroke-width="2"
    />
    <line
      x1="441.2"
      y1="699.96"
      x2="464"
      y2="699.96"
      fill="none"
      stroke="#e18686"
      stroke-miterlimit="10"
      stroke-width="2"
    />
    <line
      x1="441.2"
      y1="715.92"
      x2="464"
      y2="715.92"
      fill="none"
      stroke="#e18686"
      stroke-miterlimit="10"
      stroke-width="2"
    />
    <line
      x1="441.2"
      y1="711.94"
      x2="464"
      y2="711.94"
      fill="none"
      stroke="#e18686"
      stroke-miterlimit="10"
      stroke-width="2"
    />
    <rect
      x="441"
      y="643"
      width="118"
      height="162"
      fill="none"
      stroke="#e18686"
      stroke-miterlimit="10"
      stroke-width="2"
    />
    <rect
      x="451.23"
      y="681.14"
      width="55.92"
      height="22.8"
      transform="translate(-213.35 1171.73) rotate(-90)"
      fill="none"
      stroke="#e18686"
      stroke-miterlimit="10"
      stroke-width="2"
    />
    <line
      x1="468.2"
      y1="695.92"
      x2="491"
      y2="695.92"
      fill="none"
      stroke="#e18686"
      stroke-miterlimit="10"
      stroke-width="2"
    />
    <line
      x1="468.2"
      y1="691.94"
      x2="491"
      y2="691.94"
      fill="none"
      stroke="#e18686"
      stroke-miterlimit="10"
      stroke-width="2"
    />
    <line
      x1="468.2"
      y1="687.96"
      x2="491"
      y2="687.96"
      fill="none"
      stroke="#e18686"
      stroke-miterlimit="10"
      stroke-width="2"
    />
    <line
      x1="468.2"
      y1="683.98"
      x2="491"
      y2="683.98"
      fill="none"
      stroke="#e18686"
      stroke-miterlimit="10"
      stroke-width="2"
    />
    <line
      x1="468.2"
      y1="680"
      x2="491"
      y2="680"
      fill="none"
      stroke="#e18686"
      stroke-miterlimit="10"
      stroke-width="2"
    />
    <line
      x1="468.2"
      y1="676.02"
      x2="491"
      y2="676.02"
      fill="none"
      stroke="#e18686"
      stroke-miterlimit="10"
      stroke-width="2"
    />
    <line
      x1="468.2"
      y1="672.04"
      x2="491"
      y2="672.04"
      fill="none"
      stroke="#e18686"
      stroke-miterlimit="10"
      stroke-width="2"
    />
    <line
      x1="468.2"
      y1="668.06"
      x2="491"
      y2="668.06"
      fill="none"
      stroke="#e18686"
      stroke-miterlimit="10"
      stroke-width="2"
    />
    <line
      x1="468.2"
      y1="707.92"
      x2="491"
      y2="707.92"
      fill="none"
      stroke="#e18686"
      stroke-miterlimit="10"
      stroke-width="2"
    />
    <line
      x1="468.2"
      y1="703.94"
      x2="491"
      y2="703.94"
      fill="none"
      stroke="#e18686"
      stroke-miterlimit="10"
      stroke-width="2"
    />
    <line
      x1="468.2"
      y1="699.96"
      x2="491"
      y2="699.96"
      fill="none"
      stroke="#e18686"
      stroke-miterlimit="10"
      stroke-width="2"
    />
    <line
      x1="468.2"
      y1="715.92"
      x2="491"
      y2="715.92"
      fill="none"
      stroke="#e18686"
      stroke-miterlimit="10"
      stroke-width="2"
    />
    <line
      x1="468.2"
      y1="711.94"
      x2="491"
      y2="711.94"
      fill="none"
      stroke="#e18686"
      stroke-miterlimit="10"
      stroke-width="2"
    />
    <rect
      x="424.23"
      y="747.14"
      width="55.92"
      height="22.8"
      transform="translate(-306.35 1210.73) rotate(-90)"
      fill="none"
      stroke="#e18686"
      stroke-miterlimit="10"
      stroke-width="2"
    />
    <line
      x1="441.2"
      y1="761.92"
      x2="464"
      y2="761.92"
      fill="none"
      stroke="#e18686"
      stroke-miterlimit="10"
      stroke-width="2"
    />
    <line
      x1="441.2"
      y1="757.94"
      x2="464"
      y2="757.94"
      fill="none"
      stroke="#e18686"
      stroke-miterlimit="10"
      stroke-width="2"
    />
    <line
      x1="441.2"
      y1="753.96"
      x2="464"
      y2="753.96"
      fill="none"
      stroke="#e18686"
      stroke-miterlimit="10"
      stroke-width="2"
    />
    <line
      x1="441.2"
      y1="749.98"
      x2="464"
      y2="749.98"
      fill="none"
      stroke="#e18686"
      stroke-miterlimit="10"
      stroke-width="2"
    />
    <line
      x1="441.2"
      y1="746"
      x2="464"
      y2="746"
      fill="none"
      stroke="#e18686"
      stroke-miterlimit="10"
      stroke-width="2"
    />
    <line
      x1="441.2"
      y1="742.02"
      x2="464"
      y2="742.02"
      fill="none"
      stroke="#e18686"
      stroke-miterlimit="10"
      stroke-width="2"
    />
    <line
      x1="441.2"
      y1="738.04"
      x2="464"
      y2="738.04"
      fill="none"
      stroke="#e18686"
      stroke-miterlimit="10"
      stroke-width="2"
    />
    <line
      x1="441.2"
      y1="734.06"
      x2="464"
      y2="734.06"
      fill="none"
      stroke="#e18686"
      stroke-miterlimit="10"
      stroke-width="2"
    />
    <line
      x1="441.2"
      y1="773.92"
      x2="464"
      y2="773.92"
      fill="none"
      stroke="#e18686"
      stroke-miterlimit="10"
      stroke-width="2"
    />
    <line
      x1="441.2"
      y1="769.94"
      x2="464"
      y2="769.94"
      fill="none"
      stroke="#e18686"
      stroke-miterlimit="10"
      stroke-width="2"
    />
    <line
      x1="441.2"
      y1="765.96"
      x2="464"
      y2="765.96"
      fill="none"
      stroke="#e18686"
      stroke-miterlimit="10"
      stroke-width="2"
    />
    <line
      x1="441.2"
      y1="781.92"
      x2="464"
      y2="781.92"
      fill="none"
      stroke="#e18686"
      stroke-miterlimit="10"
      stroke-width="2"
    />
    <line
      x1="441.2"
      y1="777.94"
      x2="464"
      y2="777.94"
      fill="none"
      stroke="#e18686"
      stroke-miterlimit="10"
      stroke-width="2"
    />
    <rect
      x="451.23"
      y="747.14"
      width="55.92"
      height="22.8"
      transform="translate(-279.35 1237.73) rotate(-90)"
      fill="none"
      stroke="#e18686"
      stroke-miterlimit="10"
      stroke-width="2"
    />
    <line
      x1="468.2"
      y1="761.92"
      x2="491"
      y2="761.92"
      fill="none"
      stroke="#e18686"
      stroke-miterlimit="10"
      stroke-width="2"
    />
    <line
      x1="468.2"
      y1="757.94"
      x2="491"
      y2="757.94"
      fill="none"
      stroke="#e18686"
      stroke-miterlimit="10"
      stroke-width="2"
    />
    <line
      x1="468.2"
      y1="753.96"
      x2="491"
      y2="753.96"
      fill="none"
      stroke="#e18686"
      stroke-miterlimit="10"
      stroke-width="2"
    />
    <line
      x1="468.2"
      y1="749.98"
      x2="491"
      y2="749.98"
      fill="none"
      stroke="#e18686"
      stroke-miterlimit="10"
      stroke-width="2"
    />
    <line
      x1="468.2"
      y1="746"
      x2="491"
      y2="746"
      fill="none"
      stroke="#e18686"
      stroke-miterlimit="10"
      stroke-width="2"
    />
    <line
      x1="468.2"
      y1="742.02"
      x2="491"
      y2="742.02"
      fill="none"
      stroke="#e18686"
      stroke-miterlimit="10"
      stroke-width="2"
    />
    <line
      x1="468.2"
      y1="738.04"
      x2="491"
      y2="738.04"
      fill="none"
      stroke="#e18686"
      stroke-miterlimit="10"
      stroke-width="2"
    />
    <line
      x1="468.2"
      y1="734.06"
      x2="491"
      y2="734.06"
      fill="none"
      stroke="#e18686"
      stroke-miterlimit="10"
      stroke-width="2"
    />
    <line
      x1="468.2"
      y1="773.92"
      x2="491"
      y2="773.92"
      fill="none"
      stroke="#e18686"
      stroke-miterlimit="10"
      stroke-width="2"
    />
    <line
      x1="468.2"
      y1="769.94"
      x2="491"
      y2="769.94"
      fill="none"
      stroke="#e18686"
      stroke-miterlimit="10"
      stroke-width="2"
    />
    <line
      x1="468.2"
      y1="765.96"
      x2="491"
      y2="765.96"
      fill="none"
      stroke="#e18686"
      stroke-miterlimit="10"
      stroke-width="2"
    />
    <line
      x1="468.2"
      y1="781.92"
      x2="491"
      y2="781.92"
      fill="none"
      stroke="#e18686"
      stroke-miterlimit="10"
      stroke-width="2"
    />
    <line
      x1="468.2"
      y1="777.94"
      x2="491"
      y2="777.94"
      fill="none"
      stroke="#e18686"
      stroke-miterlimit="10"
      stroke-width="2"
    />
    <rect
      x="494"
      y="669"
      width="64"
      height="46"
      fill="none"
      stroke="#e18686"
      stroke-miterlimit="10"
      stroke-width="2"
    />
    <rect
      x="494"
      y="721"
      width="64"
      height="62"
      fill="none"
      stroke="#e18686"
      stroke-miterlimit="10"
      stroke-width="2"
    />
    <rect
      x="400.34"
      y="201.37"
      width="52.54"
      height="86.17"
      transform="translate(-47.91 373.26) rotate(-45)"
      fill="none"
      stroke="#e18686"
      stroke-miterlimit="10"
      stroke-width="2"
    />
    <rect
      x="667.17"
      y="833.19"
      width="90.65"
      height="56.97"
      transform="translate(-149.18 1574.17) rotate(-90)"
      fill="none"
      stroke="#e18686"
      stroke-miterlimit="10"
      stroke-width="2"
    />
    <line
      x1="685.03"
      y1="867.15"
      x2="742"
      y2="867.15"
      fill="none"
      stroke="#e18686"
      stroke-miterlimit="10"
      stroke-width="2"
    />
    <line
      x1="685.03"
      y1="860.7"
      x2="742"
      y2="860.7"
      fill="none"
      stroke="#e18686"
      stroke-miterlimit="10"
      stroke-width="2"
    />
    <line
      x1="685.03"
      y1="854.24"
      x2="742"
      y2="854.24"
      fill="none"
      stroke="#e18686"
      stroke-miterlimit="10"
      stroke-width="2"
    />
    <line
      x1="685.03"
      y1="847.79"
      x2="742"
      y2="847.79"
      fill="none"
      stroke="#e18686"
      stroke-miterlimit="10"
      stroke-width="2"
    />
    <line
      x1="685.03"
      y1="841.34"
      x2="742"
      y2="841.34"
      fill="none"
      stroke="#e18686"
      stroke-miterlimit="10"
      stroke-width="2"
    />
    <line
      x1="685.03"
      y1="834.89"
      x2="742"
      y2="834.89"
      fill="none"
      stroke="#e18686"
      stroke-miterlimit="10"
      stroke-width="2"
    />
    <line
      x1="685.03"
      y1="828.44"
      x2="742"
      y2="828.44"
      fill="none"
      stroke="#e18686"
      stroke-miterlimit="10"
      stroke-width="2"
    />
    <line
      x1="685.03"
      y1="821.99"
      x2="742"
      y2="821.99"
      fill="none"
      stroke="#e18686"
      stroke-miterlimit="10"
      stroke-width="2"
    />
    <line
      x1="685.03"
      y1="886.6"
      x2="742"
      y2="886.6"
      fill="none"
      stroke="#e18686"
      stroke-miterlimit="10"
      stroke-width="2"
    />
    <line
      x1="685.03"
      y1="880.15"
      x2="742"
      y2="880.15"
      fill="none"
      stroke="#e18686"
      stroke-miterlimit="10"
      stroke-width="2"
    />
    <line
      x1="685.03"
      y1="873.7"
      x2="742"
      y2="873.7"
      fill="none"
      stroke="#e18686"
      stroke-miterlimit="10"
      stroke-width="2"
    />
    <line
      x1="685.03"
      y1="899.57"
      x2="742"
      y2="899.57"
      fill="none"
      stroke="#e18686"
      stroke-miterlimit="10"
      stroke-width="2"
    />
    <line
      x1="685.03"
      y1="893.12"
      x2="742"
      y2="893.12"
      fill="none"
      stroke="#e18686"
      stroke-miterlimit="10"
      stroke-width="2"
    />
    <rect
      x="744.18"
      y="618.44"
      width="52.33"
      height="108.44"
      transform="translate(701.27 -347.7) rotate(45)"
      fill="none"
      stroke="#e18686"
      stroke-miterlimit="10"
      stroke-width="2"
    />
    <line
      x1="414"
      y1="366"
      x2="729"
      y2="681"
      fill="none"
      stroke="#e18686"
      stroke-miterlimit="10"
      stroke-width="2"
    />
    <rect
      x="799.68"
      y="592.89"
      width="52.33"
      height="48.53"
      transform="translate(678.28 -403.2) rotate(45)"
      fill="none"
      stroke="#e18686"
      stroke-miterlimit="10"
      stroke-width="2"
    />
    <rect
      x="772.27"
      y="575.42"
      width="34.65"
      height="32.98"
      transform="translate(929.37 1568.78) rotate(-135)"
      fill="none"
      stroke="#e18686"
      stroke-miterlimit="10"
      stroke-width="2"
    />
    <rect
      x="540.56"
      y="476.09"
      width="58.73"
      height="37.03"
      transform="translate(623.18 1247.33) rotate(-135)"
      fill="none"
      stroke="#e18686"
      stroke-miterlimit="10"
      stroke-width="2"
    />
    <line
      x1="559.81"
      y1="509.73"
      x2="585.99"
      y2="483.55"
      fill="none"
      stroke="#e18686"
      stroke-miterlimit="10"
      stroke-width="2"
    />
    <line
      x1="556.85"
      y1="506.78"
      x2="583.03"
      y2="480.59"
      fill="none"
      stroke="#e18686"
      stroke-miterlimit="10"
      stroke-width="2"
    />
    <line
      x1="553.9"
      y1="503.82"
      x2="580.08"
      y2="477.64"
      fill="none"
      stroke="#e18686"
      stroke-miterlimit="10"
      stroke-width="2"
    />
    <line
      x1="550.94"
      y1="500.86"
      x2="577.12"
      y2="474.68"
      fill="none"
      stroke="#e18686"
      stroke-miterlimit="10"
      stroke-width="2"
    />
    <line
      x1="547.99"
      y1="497.91"
      x2="574.17"
      y2="471.73"
      fill="none"
      stroke="#e18686"
      stroke-miterlimit="10"
      stroke-width="2"
    />
    <line
      x1="545.03"
      y1="494.95"
      x2="571.21"
      y2="468.77"
      fill="none"
      stroke="#e18686"
      stroke-miterlimit="10"
      stroke-width="2"
    />
    <line
      x1="542.08"
      y1="492"
      x2="568.26"
      y2="465.82"
      fill="none"
      stroke="#e18686"
      stroke-miterlimit="10"
      stroke-width="2"
    />
    <line
      x1="539.12"
      y1="489.04"
      x2="565.3"
      y2="462.86"
      fill="none"
      stroke="#e18686"
      stroke-miterlimit="10"
      stroke-width="2"
    />
    <line
      x1="568.72"
      y1="518.64"
      x2="594.9"
      y2="492.46"
      fill="none"
      stroke="#e18686"
      stroke-miterlimit="10"
      stroke-width="2"
    />
    <line
      x1="565.76"
      y1="515.69"
      x2="591.94"
      y2="489.5"
      fill="none"
      stroke="#e18686"
      stroke-miterlimit="10"
      stroke-width="2"
    />
    <line
      x1="562.81"
      y1="512.73"
      x2="588.99"
      y2="486.55"
      fill="none"
      stroke="#e18686"
      stroke-miterlimit="10"
      stroke-width="2"
    />
    <line
      x1="574.66"
      y1="524.58"
      x2="600.84"
      y2="498.4"
      fill="none"
      stroke="#e18686"
      stroke-miterlimit="10"
      stroke-width="2"
    />
    <line
      x1="571.7"
      y1="521.63"
      x2="597.89"
      y2="495.45"
      fill="none"
      stroke="#e18686"
      stroke-miterlimit="10"
      stroke-width="2"
    />
    <path
      d="m482,434c-15.24.04-30.47.09-45.71.13,0,13.79,0,27.59,0,41.38h51.31v53.64"
      fill="none"
      stroke="#e18686"
      stroke-miterlimit="10"
      stroke-width="2"
    />
    <rect
      x="488"
      y="495"
      width="35"
      height="25"
      transform="translate(1013 2) rotate(90)"
      fill="none"
      stroke="#e18686"
      stroke-miterlimit="10"
      stroke-width="2"
    />
    <rect
      x="436"
      y="476"
      width="52"
      height="53"
      fill="none"
      stroke="#e18686"
      stroke-miterlimit="10"
      stroke-width="2"
    />
    <path
      d="m714,693c-10.33,11-20.67,22-31,33v79"
      fill="none"
      stroke="#e18686"
      stroke-miterlimit="10"
      stroke-width="2"
    />
  </g>
  <g id="Layer_toilet1">
    <rect
      x="354.5"
      y="597.5"
      width="40"
      height="69"
      fill="none"
      stroke="#e18686"
      stroke-linecap="round"
      stroke-linejoin="round"
      stroke-width="2"
    />
    <polygon
      points="355 666.5 355 640 265 640 265 699 355 699 371.5 699 371.5 666.5 355 666.5"
      fill="none"
      stroke="#e18686"
      stroke-linecap="round"
      stroke-linejoin="round"
      stroke-width="2"
    />
  </g>
  <g id="Layer_toilet2">
    <polygon
      points="355 571 264 571 264 640 355 640 355 597 370 597 370 571 355 571"
      fill="none"
      stroke="#e18686"
      stroke-linecap="round"
      stroke-linejoin="round"
      stroke-width="1.23"
    />
  </g>
  <g id="Layer_103">
    <rect
      x="264"
      y="458"
      width="134"
      height="113"
      fill="#f8cdce"
      stroke="#e18686"
      stroke-miterlimit="10"
      stroke-width="2"
    />
    <text
      transform="translate(315.26 517.31)"
      fill="#434142"
      font-family="NanumSquareNeovariable-Heavy, 'NanumSquare Neo variable'"
      font-size="16"
      font-variation-settings="'wght' 900"
      font-weight="800"
    >
      <tspan x="0" y="0">103</tspan>
    </text>
  </g>
  <g id="Layer_102">
    <rect
      x="264"
      y="383"
      width="134"
      height="75"
      fill="#f8cdce"
      stroke="#e18686"
      stroke-miterlimit="10"
      stroke-width="2"
    />
    <text
      transform="translate(315.45 426.31)"
      fill="#434142"
      font-family="NanumSquareNeovariable-Heavy, 'NanumSquare Neo variable'"
      font-size="16"
      font-variation-settings="'wght' 900"
      font-weight="800"
    >
      <tspan x="0" y="0">102</tspan>
    </text>
  </g>
  <g id="Layer_101C">
    <path
      d="m289,297v35h-25v51h85v-26.18l-60-59.82Z"
      fill="#f8cdce"
      stroke="#e18686"
      stroke-miterlimit="10"
      stroke-width="2"
    />
    <text
      transform="translate(284.81 362.31)"
      fill="#434142"
      font-family="NanumSquareNeovariable-Heavy, 'NanumSquare Neo variable'"
      font-size="16"
      font-variation-settings="'wght' 900"
      font-weight="800"
    >
      <tspan x="0" y="0">101C</tspan>
    </text>
  </g>
  <g id="Layer_101">
    <path
      d="m341.09,196.09l-8,8-.21-.21-68.58,68.58,84.71,84.71v25.84h48l.5-.5,46.02-46.02,10.98-10.98,7.99-7.99-121.41-121.41Z"
      fill="#f8cdce"
      stroke="#e18686"
      stroke-miterlimit="10"
      stroke-width="2"
    />
    <text
      transform="translate(349.99 294.28)"
      fill="#434142"
      font-family="NanumSquareNeovariable-Heavy, 'NanumSquare Neo variable'"
      font-size="16"
      font-variation-settings="'wght' 900"
      font-weight="800"
    >
      <tspan x="0" y="0">101</tspan>
    </text>
    <text
      transform="translate(322.66 312.28)"
      fill="#434142"
      font-family="NanumSquareNeovariable-Regular, 'NanumSquare Neo variable'"
      font-size="14"
      font-variation-settings="'wght' 300"
    >
      <tspan x="0" y="0">원우현 열람실</tspan>
    </text>
  </g>
  <g id="Layer_101A">
    <rect
      x="215.49"
      y="155.36"
      width="108.89"
      height="93.15"
      transform="translate(-63.73 250.02) rotate(-45)"
      fill="#f8cdce"
      stroke="#e18686"
      stroke-miterlimit="10"
      stroke-width="2"
    />
    <text
      transform="translate(249.84 206.49)"
      fill="#434142"
      font-family="NanumSquareNeovariable-Heavy, 'NanumSquare Neo variable'"
      font-size="16"
      font-variation-settings="'wght' 900"
      font-weight="800"
    >
      <tspan x="0" y="0">101A</tspan>
    </text>
  </g>
  <g id="Layer_101B">
    <rect
      x="166.05"
      y="129.17"
      width="108.89"
      height="46.67"
      transform="translate(-43.25 200.58) rotate(-45)"
      fill="#f8cdce"
      stroke="#e18686"
      stroke-miterlimit="10"
      stroke-width="2"
    />
    <text
      transform="translate(202.14 156.49)"
      fill="#434142"
      font-family="NanumSquareNeovariable-Heavy, 'NanumSquare Neo variable'"
      font-size="16"
      font-variation-settings="'wght' 900"
      font-weight="800"
    >
      <tspan x="0" y="0">101B</tspan>
    </text>
  </g>
  <g id="Layer_라운지">
    <polygon
      points="377 805 377 1068 377 1088 638 1088 638 1068 683 1068 683 805 377 805"
      fill="none"
      stroke="#e18686"
      stroke-miterlimit="10"
      stroke-width="2"
    />
    <text
      transform="translate(487.96 949.1)"
      fill="#434142"
      font-family="NanumSquareNeovariable-Heavy, 'NanumSquare Neo variable'"
      font-size="16"
      font-variation-settings="'wght' 900"
      font-weight="800"
    >
      <tspan x="0" y="0">동원라운지</tspan>
    </text>
  </g>
  <g id="Layer_아리카페">
    <polygon
      points="645.12 424.88 662 408 632.5 378.5 615.62 395.38 594.5 416.5 696.14 518.14 717.27 497.02 645.12 424.88"
      fill="#f8cdce"
      stroke="#e18686"
      stroke-miterlimit="10"
      stroke-width="2"
    />
    <text
      transform="translate(638.79 445.44) rotate(45)"
      fill="#434142"
      font-family="NanumSquareNeovariable-Heavy, 'NanumSquare Neo variable'"
      font-size="16"
      font-variation-settings="'wght' 900"
      font-weight="800"
    >
      <tspan x="0" y="0">아리카페</tspan>
    </text>
  </g>
</svg>
