<?xml version="1.0" encoding="UTF-8"?><svg xmlns="http://www.w3.org/2000/svg" viewBox="0 0 1100 1100"><g id="Layer_border"><path d="m731.5,723c-1-86.83-2-173.67-3-260.5-29.33-29-58.67-58-88-87h11c3.83-3.79,7.66-7.59,11.49-11.38-31.61-32.71-63.23-65.41-94.84-98.12h-66.65V105.5h-224v399c66,.17,132,.33,198,.5v99h-56v333.5h268v-26h44v60h102v-248c-34-.17-68-.33-102-.5Z" fill="#fdf3f2" stroke="#e18686" stroke-linecap="round" stroke-linejoin="round" stroke-width="5"/><path d="m663.5,364.5c43.19,43.39,86.38,86.79,129.57,130.18-20.52,19.61-41.05,39.21-61.57,58.82" fill="none" stroke="#e18686" stroke-linecap="round" stroke-linejoin="round" stroke-width="5"/></g><g id="Layer_others"><rect x="469.48" y="480.14" width="55.92" height="22.8" transform="translate(5.9 988.98) rotate(-90)" fill="none" stroke="#e18686" stroke-miterlimit="10" stroke-width="2"/><line x1="486.45" y1="494.92" x2="509.25" y2="494.92" fill="none" stroke="#e18686" stroke-miterlimit="10" stroke-width="2"/><line x1="486.45" y1="490.94" x2="509.25" y2="490.94" fill="none" stroke="#e18686" stroke-miterlimit="10" stroke-width="2"/><line x1="486.45" y1="486.96" x2="509.25" y2="486.96" fill="none" stroke="#e18686" stroke-miterlimit="10" stroke-width="2"/><line x1="486.45" y1="482.98" x2="509.25" y2="482.98" fill="none" stroke="#e18686" stroke-miterlimit="10" stroke-width="2"/><line x1="486.45" y1="479" x2="509.25" y2="479" fill="none" stroke="#e18686" stroke-miterlimit="10" stroke-width="2"/><line x1="486.45" y1="475.02" x2="509.25" y2="475.02" fill="none" stroke="#e18686" stroke-miterlimit="10" stroke-width="2"/><line x1="486.45" y1="471.04" x2="509.25" y2="471.04" fill="none" stroke="#e18686" stroke-miterlimit="10" stroke-width="2"/><line x1="486.45" y1="467.06" x2="509.25" y2="467.06" fill="none" stroke="#e18686" stroke-miterlimit="10" stroke-width="2"/><line x1="486.45" y1="506.92" x2="509.25" y2="506.92" fill="none" stroke="#e18686" stroke-miterlimit="10" stroke-width="2"/><line x1="486.45" y1="502.94" x2="509.25" y2="502.94" fill="none" stroke="#e18686" stroke-miterlimit="10" stroke-width="2"/><line x1="486.45" y1="498.96" x2="509.25" y2="498.96" fill="none" stroke="#e18686" stroke-miterlimit="10" stroke-width="2"/><line x1="486.45" y1="514.92" x2="509.25" y2="514.92" fill="none" stroke="#e18686" stroke-miterlimit="10" stroke-width="2"/><line x1="486.45" y1="510.94" x2="509.25" y2="510.94" fill="none" stroke="#e18686" stroke-miterlimit="10" stroke-width="2"/><rect x="486.25" y="442" width="118" height="181" fill="none" stroke="#e18686" stroke-miterlimit="10" stroke-width="2"/><rect x="496.48" y="480.14" width="55.92" height="22.8" transform="translate(32.9 1015.98) rotate(-90)" fill="none" stroke="#e18686" stroke-miterlimit="10" stroke-width="2"/><line x1="513.45" y1="494.92" x2="536.25" y2="494.92" fill="none" stroke="#e18686" stroke-miterlimit="10" stroke-width="2"/><line x1="513.45" y1="490.94" x2="536.25" y2="490.94" fill="none" stroke="#e18686" stroke-miterlimit="10" stroke-width="2"/><line x1="513.45" y1="486.96" x2="536.25" y2="486.96" fill="none" stroke="#e18686" stroke-miterlimit="10" stroke-width="2"/><line x1="513.45" y1="482.98" x2="536.25" y2="482.98" fill="none" stroke="#e18686" stroke-miterlimit="10" stroke-width="2"/><line x1="513.45" y1="479" x2="536.25" y2="479" fill="none" stroke="#e18686" stroke-miterlimit="10" stroke-width="2"/><line x1="513.45" y1="475.02" x2="536.25" y2="475.02" fill="none" stroke="#e18686" stroke-miterlimit="10" stroke-width="2"/><line x1="513.45" y1="471.04" x2="536.25" y2="471.04" fill="none" stroke="#e18686" stroke-miterlimit="10" stroke-width="2"/><line x1="513.45" y1="467.06" x2="536.25" y2="467.06" fill="none" stroke="#e18686" stroke-miterlimit="10" stroke-width="2"/><line x1="513.45" y1="506.92" x2="536.25" y2="506.92" fill="none" stroke="#e18686" stroke-miterlimit="10" stroke-width="2"/><line x1="513.45" y1="502.94" x2="536.25" y2="502.94" fill="none" stroke="#e18686" stroke-miterlimit="10" stroke-width="2"/><line x1="513.45" y1="498.96" x2="536.25" y2="498.96" fill="none" stroke="#e18686" stroke-miterlimit="10" stroke-width="2"/><line x1="513.45" y1="514.92" x2="536.25" y2="514.92" fill="none" stroke="#e18686" stroke-miterlimit="10" stroke-width="2"/><line x1="513.45" y1="510.94" x2="536.25" y2="510.94" fill="none" stroke="#e18686" stroke-miterlimit="10" stroke-width="2"/><rect x="469.48" y="546.14" width="55.92" height="22.8" transform="translate(-60.1 1054.98) rotate(-90)" fill="none" stroke="#e18686" stroke-miterlimit="10" stroke-width="2"/><line x1="486.45" y1="560.92" x2="509.25" y2="560.92" fill="none" stroke="#e18686" stroke-miterlimit="10" stroke-width="2"/><line x1="486.45" y1="556.94" x2="509.25" y2="556.94" fill="none" stroke="#e18686" stroke-miterlimit="10" stroke-width="2"/><line x1="486.45" y1="552.96" x2="509.25" y2="552.96" fill="none" stroke="#e18686" stroke-miterlimit="10" stroke-width="2"/><line x1="486.45" y1="548.98" x2="509.25" y2="548.98" fill="none" stroke="#e18686" stroke-miterlimit="10" stroke-width="2"/><line x1="486.45" y1="545" x2="509.25" y2="545" fill="none" stroke="#e18686" stroke-miterlimit="10" stroke-width="2"/><line x1="486.45" y1="541.02" x2="509.25" y2="541.02" fill="none" stroke="#e18686" stroke-miterlimit="10" stroke-width="2"/><line x1="486.45" y1="537.04" x2="509.25" y2="537.04" fill="none" stroke="#e18686" stroke-miterlimit="10" stroke-width="2"/><line x1="486.45" y1="533.06" x2="509.25" y2="533.06" fill="none" stroke="#e18686" stroke-miterlimit="10" stroke-width="2"/><line x1="486.45" y1="572.92" x2="509.25" y2="572.92" fill="none" stroke="#e18686" stroke-miterlimit="10" stroke-width="2"/><line x1="486.45" y1="568.94" x2="509.25" y2="568.94" fill="none" stroke="#e18686" stroke-miterlimit="10" stroke-width="2"/><line x1="486.45" y1="564.96" x2="509.25" y2="564.96" fill="none" stroke="#e18686" stroke-miterlimit="10" stroke-width="2"/><line x1="486.45" y1="580.92" x2="509.25" y2="580.92" fill="none" stroke="#e18686" stroke-miterlimit="10" stroke-width="2"/><line x1="486.45" y1="576.94" x2="509.25" y2="576.94" fill="none" stroke="#e18686" stroke-miterlimit="10" stroke-width="2"/><rect x="496.48" y="546.14" width="55.92" height="22.8" transform="translate(-33.1 1081.98) rotate(-90)" fill="none" stroke="#e18686" stroke-miterlimit="10" stroke-width="2"/><line x1="513.45" y1="560.92" x2="536.25" y2="560.92" fill="none" stroke="#e18686" stroke-miterlimit="10" stroke-width="2"/><line x1="513.45" y1="556.94" x2="536.25" y2="556.94" fill="none" stroke="#e18686" stroke-miterlimit="10" stroke-width="2"/><line x1="513.45" y1="552.96" x2="536.25" y2="552.96" fill="none" stroke="#e18686" stroke-miterlimit="10" stroke-width="2"/><line x1="513.45" y1="548.98" x2="536.25" y2="548.98" fill="none" stroke="#e18686" stroke-miterlimit="10" stroke-width="2"/><line x1="513.45" y1="545" x2="536.25" y2="545" fill="none" stroke="#e18686" stroke-miterlimit="10" stroke-width="2"/><line x1="513.45" y1="541.02" x2="536.25" y2="541.02" fill="none" stroke="#e18686" stroke-miterlimit="10" stroke-width="2"/><line x1="513.45" y1="537.04" x2="536.25" y2="537.04" fill="none" stroke="#e18686" stroke-miterlimit="10" stroke-width="2"/><line x1="513.45" y1="533.06" x2="536.25" y2="533.06" fill="none" stroke="#e18686" stroke-miterlimit="10" stroke-width="2"/><line x1="513.45" y1="572.92" x2="536.25" y2="572.92" fill="none" stroke="#e18686" stroke-miterlimit="10" stroke-width="2"/><line x1="513.45" y1="568.94" x2="536.25" y2="568.94" fill="none" stroke="#e18686" stroke-miterlimit="10" stroke-width="2"/><line x1="513.45" y1="564.96" x2="536.25" y2="564.96" fill="none" stroke="#e18686" stroke-miterlimit="10" stroke-width="2"/><line x1="513.45" y1="580.92" x2="536.25" y2="580.92" fill="none" stroke="#e18686" stroke-miterlimit="10" stroke-width="2"/><line x1="513.45" y1="576.94" x2="536.25" y2="576.94" fill="none" stroke="#e18686" stroke-miterlimit="10" stroke-width="2"/><rect x="539.25" y="468" width="64" height="46" fill="none" stroke="#e18686" stroke-miterlimit="10" stroke-width="2"/><rect x="539.25" y="520" width="64" height="62" fill="none" stroke="#e18686" stroke-miterlimit="10" stroke-width="2"/><line x1="486" y1="592" x2="604" y2="592" fill="none" stroke="#e18686" stroke-miterlimit="10" stroke-width="2"/><rect x="489.25" y="329" width="139" height="46" fill="none" stroke="#e18686" stroke-miterlimit="10" stroke-width="2"/><rect x="501.25" y="343" width="35" height="25" fill="none" stroke="#e18686" stroke-miterlimit="10" stroke-width="2"/><rect x="542.25" y="343" width="35" height="25" fill="none" stroke="#e18686" stroke-miterlimit="10" stroke-width="2"/><rect x="583.25" y="343" width="35" height="25" fill="none" stroke="#e18686" stroke-miterlimit="10" stroke-width="2"/><rect x="541" y="295.5" width="35" height="25" transform="translate(866.5 -250.5) rotate(90)" fill="none" stroke="#e18686" stroke-miterlimit="10" stroke-width="2"/><rect x="489" y="276.5" width="52" height="53" fill="none" stroke="#e18686" stroke-miterlimit="10" stroke-width="2"/><polyline points="628.25 375 651.2 375 663 364" fill="none" stroke="#e18686" stroke-miterlimit="10" stroke-width="2"/><polyline points="680.55 704.65 680.55 776.32 691.7 776.32 691.7 895.77 675.77 895.77 675.77 911.88 690.11 911.88" fill="none" stroke="#e18686" stroke-miterlimit="10" stroke-width="2"/><line x1="738" y1="724" x2="738" y2="760" fill="none" stroke="#e18686" stroke-miterlimit="10" stroke-width="2"/></g><g id="Layer_toilet1"><rect x="604" y="522.5" width="82" height="66" fill="none" stroke="#e18686" stroke-miterlimit="10" stroke-width="2"/></g><g id="Layer_toilet2"><path d="m646.73,442c-14.24,0-28.49,0-42.73,0v80.5h82v-41c-13.09-13.17-26.18-26.33-39.27-39.5Z" fill="none" stroke="#e18686" stroke-miterlimit="10" stroke-width="2"/></g><g id="Layer_1107"><rect x="435" y="405" width="50" height="98" fill="#f8cdce" stroke="#e18686" stroke-miterlimit="10" stroke-width="2"/><text transform="translate(440.97 457.18)" fill="#434142" font-family="NanumSquareNeovariable-Heavy, &apos;NanumSquare Neo variable&apos;" font-size="16" font-variation-settings="&apos;wght&apos; 900" font-weight="800"><tspan x="0" y="0">1107</tspan></text></g><g id="Layer_CTL"><polygon points="498 106 435 106 426 106 281 106 281 503 435 503 435 264 498 264 498 106" fill="none" stroke="#e18686" stroke-miterlimit="10" stroke-width="2"/><text transform="translate(348.6 183.63)" fill="#434142" font-family="NanumSquareNeovariable-Heavy, &apos;NanumSquare Neo variable&apos;" font-size="16" font-variation-settings="&apos;wght&apos; 900" font-weight="800"><tspan x="0" y="0" letter-spacing="-.03em">C</tspan><tspan x="12.08" y="0">TL 라운지</tspan></text></g><g id="Layer_1102A"><polygon points="486 617.14 486 617.04 486 603.5 420 603.5 420 687.15 420 701.03 420 717 486 717 486 617.14" fill="#f8cdce" stroke="#e18686" stroke-miterlimit="10" stroke-width="2"/><text transform="translate(427.22 667.12)" fill="#434142" font-family="NanumSquareNeovariable-Heavy, &apos;NanumSquare Neo variable&apos;" font-size="16" font-variation-settings="&apos;wght&apos; 900" font-weight="800"><tspan x="0" y="0">1102A</tspan></text></g><g id="Layer_1102"><rect x="486" y="644" width="161" height="73" fill="#f8cdce" stroke="#e18686" stroke-miterlimit="10" stroke-width="2"/><text transform="translate(546.65 684.04)" fill="#434142" font-family="NanumSquareNeovariable-Heavy, &apos;NanumSquare Neo variable&apos;" font-size="16" font-variation-settings="&apos;wght&apos; 900" font-weight="800"><tspan x="0" y="0">1102</tspan></text></g><g id="Layer_1103"><rect x="420" y="717" width="76" height="121" fill="#f8cdce" stroke="#e18686" stroke-miterlimit="10" stroke-width="2"/><text transform="translate(437.81 779.71)" fill="#434142" font-family="NanumSquareNeovariable-Heavy, &apos;NanumSquare Neo variable&apos;" font-size="16" font-variation-settings="&apos;wght&apos; 900" font-weight="800"><tspan x="0" y="0">1103</tspan></text></g><g id="Layer_1104"><rect x="420" y="837" width="76" height="72" fill="#f8cdce" stroke="#e18686" stroke-miterlimit="10" stroke-width="2"/><text transform="translate(437.86 877.71)" fill="#434142" font-family="NanumSquareNeovariable-Heavy, &apos;NanumSquare Neo variable&apos;" font-size="16" font-variation-settings="&apos;wght&apos; 900" font-weight="800"><tspan x="0" y="0">1104</tspan></text></g><g id="Layer_1101A"><rect x="420" y="909" width="76" height="27" fill="#f8cdce" stroke="#e18686" stroke-miterlimit="10" stroke-width="2"/><text transform="translate(433.09 926.71)" fill="#434142" font-family="NanumSquareNeovariable-Heavy, &apos;NanumSquare Neo variable&apos;" font-size="16" font-variation-settings="&apos;wght&apos; 900" font-weight="800"><tspan x="0" y="0">1101A</tspan></text></g><g id="Layer_1106"><polygon points="691 628 691 644 671 644 671 682 691 682 709 682 728 682 728 628 691 628" fill="#f8cdce" stroke="#e18686" stroke-miterlimit="10" stroke-width="2"/><text transform="translate(679.08 664.85)" fill="#434142" font-family="NanumSquareNeovariable-Heavy, &apos;NanumSquare Neo variable&apos;" font-size="16" font-variation-settings="&apos;wght&apos; 900" font-weight="800"><tspan x="0" y="0">1106</tspan></text></g><g id="Layer_1101"><text transform="translate(577.6 826.58)" fill="#434142" font-family="NanumSquareNeovariable-Heavy, &apos;NanumSquare Neo variable&apos;" font-size="16" font-variation-settings="&apos;wght&apos; 900" font-weight="800"><tspan x="0" y="0">1101</tspan></text><rect x="496" y="717" width="183" height="221" fill="none"/></g><g id="Layer_1105"><polygon points="680 760 680 776 692 776 692 896 677 896 677 912 692 912 697 912 738 912 738 776 738 772 738 760 680 760" fill="#f8cdce" stroke="#e18686" stroke-miterlimit="10" stroke-width="2"/><text transform="translate(694.71 845.03)" fill="#434142" font-family="NanumSquareNeovariable-Heavy, &apos;NanumSquare Neo variable&apos;" font-size="16" font-variation-settings="&apos;wght&apos; 900" font-weight="800"><tspan x="0" y="0">1105</tspan></text></g></svg>