<?xml version="1.0" encoding="UTF-8"?>
<svg id="_x35_" xmlns="http://www.w3.org/2000/svg" viewBox="0 0 1394 788">
  <defs>
    <style>
      .cls-1 {
        fill: #fcf2f2;
        stroke-width: 10px;
      }

      .cls-1, .cls-2, .cls-3 {
        stroke: #e68b8b;
        stroke-miterlimit: 10;
      }

      .cls-4 {
        font-size: 12px;
      }

      .cls-5, .cls-6 {
        font-size: 14px;
      }

      .cls-7 {
        letter-spacing: 0em;
      }

      .cls-2 {
        fill: none;
      }

      .cls-2, .cls-3 {
        stroke-width: 3px;
      }

      .cls-8, .cls-6 {
        fill: #221f20;
        font-family: NanumSquareNeoTTF-dEb, 'NanumSquare Neo';
      }

      .cls-9 {
        letter-spacing: 0em;
      }

      .cls-3 {
        fill: #f3cdcf;
      }
    </style>
  </defs>
  <g id="Layer_x5F_border-5" data-name="Layer_x5F_border">
    <polygon class="cls-1" points="40 253 40 600.4 1351.67 600.4 1351.67 401 1257.65 401 1257.65 253 40 253"/>
  </g>
  <g id="Layer_x5F_others-5" data-name="Layer_x5F_others">
    <rect class="cls-3" x="40.5" y="253.5" width="69" height="151"/>
    <g>
      <rect class="cls-2" x="75.68" y="286.68" width="117.64" height="51" transform="translate(446.68 177.68) rotate(90)"/>
      <g>
        <rect class="cls-2" x="144.28" y="270.79" width="5.93" height="25.5" transform="translate(430.79 136.29) rotate(90)"/>
        <rect class="cls-2" x="144.28" y="276.72" width="5.93" height="25.5" transform="translate(436.72 142.22) rotate(90)"/>
        <rect class="cls-2" x="144.28" y="282.65" width="5.93" height="25.5" transform="translate(442.65 148.15) rotate(90)"/>
        <rect class="cls-2" x="144.28" y="288.59" width="5.93" height="25.5" transform="translate(448.59 154.09) rotate(90)"/>
        <rect class="cls-2" x="144.28" y="294.52" width="5.93" height="25.5" transform="translate(454.52 160.02) rotate(90)"/>
        <rect class="cls-2" x="144.28" y="300.48" width="5.93" height="25.5" transform="translate(460.48 165.98) rotate(90)"/>
        <rect class="cls-2" x="144.28" y="306.41" width="5.93" height="25.5" transform="translate(466.41 171.91) rotate(90)"/>
        <rect class="cls-2" x="144.28" y="312.35" width="5.93" height="25.5" transform="translate(472.35 177.85) rotate(90)"/>
        <rect class="cls-2" x="144.28" y="318.28" width="5.93" height="25.5" transform="translate(478.28 183.78) rotate(90)"/>
        <rect class="cls-2" x="144.28" y="324.21" width="5.93" height="25.5" transform="translate(484.21 189.71) rotate(90)"/>
      </g>
      <g>
        <rect class="cls-2" x="118.78" y="270.67" width="5.93" height="25.5" transform="translate(405.17 161.67) rotate(90)"/>
        <rect class="cls-2" x="118.78" y="276.61" width="5.93" height="25.5" transform="translate(411.11 167.61) rotate(90)"/>
        <rect class="cls-2" x="118.78" y="282.54" width="5.93" height="25.5" transform="translate(417.04 173.54) rotate(90)"/>
        <rect class="cls-2" x="118.78" y="288.47" width="5.93" height="25.5" transform="translate(422.97 179.47) rotate(90)"/>
        <rect class="cls-2" x="118.78" y="294.4" width="5.93" height="25.5" transform="translate(428.9 185.4) rotate(90)"/>
        <rect class="cls-2" x="118.78" y="300.37" width="5.93" height="25.5" transform="translate(434.87 191.37) rotate(90)"/>
        <rect class="cls-2" x="118.78" y="306.3" width="5.93" height="25.5" transform="translate(440.8 197.3) rotate(90)"/>
        <rect class="cls-2" x="118.78" y="312.23" width="5.93" height="25.5" transform="translate(446.73 203.23) rotate(90)"/>
        <rect class="cls-2" x="118.78" y="318.16" width="5.93" height="25.5" transform="translate(452.66 209.16) rotate(90)"/>
        <rect class="cls-2" x="118.78" y="324.1" width="5.93" height="25.5" transform="translate(458.6 215.1) rotate(90)"/>
      </g>
    </g>
    <g>
      <polygon class="cls-3" points="895.82 404.29 951.6 404.29 951.6 315.21 929.14 315.21 929.14 347.29 895.82 347.29 895.82 404.29"/>
      <g>
        <rect class="cls-2" x="920.39" y="285.18" width="150.31" height="86.91" transform="translate(1324.18 -666.91) rotate(90)"/>
        <g>
          <rect class="cls-2" x="1013.48" y="270.31" width="7.58" height="43.45" transform="translate(1309.31 -725.23) rotate(90)"/>
          <rect class="cls-2" x="1013.48" y="277.89" width="7.58" height="43.45" transform="translate(1316.89 -717.65) rotate(90)"/>
          <rect class="cls-2" x="1013.48" y="285.47" width="7.58" height="43.45" transform="translate(1324.47 -710.07) rotate(90)"/>
          <rect class="cls-2" x="1013.48" y="293.05" width="7.58" height="43.45" transform="translate(1332.05 -702.49) rotate(90)"/>
          <rect class="cls-2" x="1013.48" y="300.63" width="7.58" height="43.45" transform="translate(1339.63 -694.91) rotate(90)"/>
          <rect class="cls-2" x="1013.48" y="308.25" width="7.58" height="43.45" transform="translate(1347.25 -687.29) rotate(90)"/>
          <rect class="cls-2" x="1013.48" y="315.83" width="7.58" height="43.45" transform="translate(1354.83 -679.72) rotate(90)"/>
          <rect class="cls-2" x="1013.48" y="323.41" width="7.58" height="43.45" transform="translate(1362.41 -672.14) rotate(90)"/>
          <rect class="cls-2" x="1013.48" y="330.99" width="7.58" height="43.45" transform="translate(1369.99 -664.56) rotate(90)"/>
          <rect class="cls-2" x="1013.48" y="338.57" width="7.58" height="43.45" transform="translate(1377.57 -656.98) rotate(90)"/>
        </g>
        <g>
          <rect class="cls-2" x="970.03" y="270.17" width="7.58" height="43.45" transform="translate(1265.71 -681.92) rotate(90)"/>
          <rect class="cls-2" x="970.03" y="277.75" width="7.58" height="43.45" transform="translate(1273.29 -674.34) rotate(90)"/>
          <rect class="cls-2" x="970.03" y="285.33" width="7.58" height="43.45" transform="translate(1280.87 -666.76) rotate(90)"/>
          <rect class="cls-2" x="970.03" y="292.91" width="7.58" height="43.45" transform="translate(1288.45 -659.18) rotate(90)"/>
          <rect class="cls-2" x="970.03" y="300.49" width="7.58" height="43.45" transform="translate(1296.03 -651.6) rotate(90)"/>
          <rect class="cls-2" x="970.03" y="308.1" width="7.58" height="43.45" transform="translate(1303.65 -643.99) rotate(90)"/>
          <rect class="cls-2" x="970.03" y="315.68" width="7.58" height="43.45" transform="translate(1311.23 -636.41) rotate(90)"/>
          <rect class="cls-2" x="970.03" y="323.26" width="7.58" height="43.45" transform="translate(1318.81 -628.83) rotate(90)"/>
          <rect class="cls-2" x="970.03" y="330.84" width="7.58" height="43.45" transform="translate(1326.39 -621.25) rotate(90)"/>
          <rect class="cls-2" x="970.03" y="338.42" width="7.58" height="43.45" transform="translate(1333.97 -613.67) rotate(90)"/>
        </g>
      </g>
    </g>
    <g>
      <rect class="cls-3" x="1224.5" y="253.5" width="34" height="59"/>
      <rect class="cls-3" x="1158.5" y="253.5" width="66" height="59"/>
      <rect class="cls-3" x="1114.5" y="312.5" width="44" height="44"/>
      <rect class="cls-3" x="1114.5" y="356.5" width="44" height="48"/>
      <rect class="cls-3" x="1158.5" y="312.5" width="51" height="92"/>
      <rect class="cls-3" x="1114.5" y="253.5" width="44" height="59"/>
    </g>
    <rect class="cls-3" x="713.5" y="404.5" width="85" height="0"/>
  </g>
  <g id="Layer_135">
    <rect class="cls-3" x="871.5" y="441.5" width="182" height="42"/>
  </g>
  <g id="Layer_136">
    <rect class="cls-3" x="934.5" y="483.5" width="61" height="117"/>
    <text class="cls-6" transform="translate(945.33 537.08)"><tspan x="0" y="0">507B</tspan><tspan x="-.24" y="16.8">연구실</tspan></text>
  </g>
  <g id="Layer_137">
    <rect class="cls-3" x="871.5" y="483.5" width="63" height="117"/>
    <text class="cls-6" transform="translate(882.48 537.08)"><tspan x="0" y="0">508C</tspan><tspan x=".61" y="16.8">연구실</tspan></text>
  </g>
  <g id="Layer_138">
    <rect class="cls-3" x="754.5" y="442" width="117" height="158.5"/>
    <text class="cls-6" transform="translate(792.4 516.33)"><tspan x="0" y="0">508A</tspan><tspan x="-12.58" y="16.8">명예교수실</tspan></text>
  </g>
  <g id="Layer_139">
    <rect class="cls-3" x="695.5" y="442" width="59" height="158.5"/>
    <text class="cls-6" transform="translate(704.62 516.33)"><tspan x="0" y="0">508B</tspan><tspan x=".47" y="16.8">연구실</tspan></text>
  </g>
  <g id="Layer_140">
    <rect class="cls-3" x="636.5" y="442" width="59" height="158.5"/>
    <text class="cls-6" transform="translate(645.48 516.33)"><tspan x="0" y="0">508C</tspan><tspan x=".61" y="16.8">연구실</tspan></text>
  </g>
  <g id="Layer_141">
    <rect class="cls-3" x="577.5" y="442" width="59" height="158.5"/>
    <text class="cls-6" transform="translate(586.55 516.33)"><tspan x="0" y="0">509A</tspan><tspan x=".55" y="16.8">연구실</tspan></text>
  </g>
  <g id="Layer_142">
    <rect class="cls-3" x="518.5" y="442" width="59" height="158.5"/>
    <text class="cls-6" transform="translate(527.77 516.33)"><tspan x="0" y="0">509B</tspan><tspan x=".32" y="16.8">연구실</tspan></text>
  </g>
  <g id="Layer_143">
    <rect class="cls-3" x="458.5" y="442" width="60" height="158.5"/>
    <text class="cls-6" transform="translate(469.63 499.53)"><tspan class="cls-9" x="0" y="0">5</tspan><tspan x="9.53" y="0">10A</tspan><tspan x="-7.67" y="16.8">중소기업</tspan><tspan x="-7.67" y="33.6">산학협력</tspan><tspan x="5.6" y="50.4">센터</tspan></text>
  </g>
  <g id="Layer_144">
    <rect class="cls-3" x="400.5" y="442" width="58" height="158.5"/>
    <text class="cls-6" transform="translate(410.85 516.33)"><tspan class="cls-9" x="0" y="0">5</tspan><tspan x="9.53" y="0">10B</tspan><tspan x="-1.26" y="16.8">연구소</tspan></text>
  </g>
  <g id="Layer_145">
    <rect class="cls-3" x="282.5" y="442" width="118" height="158.5"/>
    <text class="cls-6" transform="translate(329.8 507.93)"><tspan class="cls-9" x="0" y="0">5</tspan><tspan x="9.53" y="0">11</tspan><tspan x="-34.75" y="16.8">융합에너지공학</tspan><tspan x="-37.68" y="33.6">PBL 실험실습실</tspan></text>
  </g>
  <g id="Layer_146">
    <rect class="cls-3" x="223.5" y="442" width="59" height="158.5"/>
    <text class="cls-6" transform="translate(234.44 516.33)"><tspan class="cls-9" x="0" y="0">5</tspan><tspan class="cls-7" x="9.53" y="0">12A</tspan><tspan x="-1.35" y="16.8">연구실</tspan></text>
  </g>
  <g id="Layer_147">
    <rect class="cls-3" x="159.5" y="442" width="64" height="158.5"/>
    <text class="cls-6" transform="translate(173.17 516.33)"><tspan class="cls-9" x="0" y="0">5</tspan><tspan class="cls-7" x="9.53" y="0">12B</tspan><tspan x="-1.57" y="16.8">실험실</tspan></text>
  </g>
  <g id="Layer_148">
    <rect class="cls-3" x="39.5" y="442" width="120" height="158.5"/>
    <text class="cls-6" transform="translate(86.29 516.33)"><tspan class="cls-9" x="0" y="0">5</tspan><tspan class="cls-7" x="9.53" y="0">13</tspan><tspan x="-6.7" y="16.8">실험실</tspan></text>
  </g>
  <g id="Layer_116">
    <rect class="cls-3" x="160.5" y="253.5" width="122" height="150.5"/>
    <text class="cls-6" transform="translate(208.26 323.83)"><tspan class="cls-9" x="0" y="0">5</tspan><tspan x="9.53" y="0">14</tspan><tspan x="-6.66" y="16.8">연구실</tspan></text>
  </g>
  <g id="Layer_117">
    <rect class="cls-3" x="282.5" y="253.5" width="118" height="150.5"/>
    <text class="cls-6" transform="translate(328.43 323.83)"><tspan class="cls-9" x="0" y="0">5</tspan><tspan x="9.53" y="0">15</tspan><tspan x="-6.84" y="16.8">연구실</tspan></text>
  </g>
  <g id="Layer_118">
    <rect class="cls-3" x="400.5" y="253.5" width="58" height="150.5"/>
    <text class="cls-6" transform="translate(410.8 323.83)"><tspan class="cls-9" x="0" y="0">5</tspan><tspan class="cls-7" x="9.53" y="0">16A</tspan><tspan x="-1.2" y="16.8">연구실</tspan></text>
  </g>
  <g id="Layer_119">
    <rect class="cls-3" x="458.5" y="253.5" width="60" height="150.5"/>
    <text class="cls-6" transform="translate(470.02 323.83)"><tspan class="cls-9" x="0" y="0">5</tspan><tspan x="9.53" y="0">16B</tspan><tspan x="-1.43" y="16.8">연구실</tspan></text>
  </g>
  <g id="Layer_120">
    <rect class="cls-3" x="518.5" y="253.5" width="59" height="150.5"/>
    <text class="cls-6" transform="translate(529.86 323.83)"><tspan class="cls-9" x="0" y="0">5</tspan><tspan x="9.53" y="0">17A</tspan><tspan x="-1.76" y="16.8">연구실</tspan></text>
  </g>
  <g id="Layer_121">
    <rect class="cls-3" x="577.5" y="253.5" width="59" height="150.5"/>
    <text class="cls-6" transform="translate(589.08 323.83)"><tspan class="cls-9" x="0" y="0">5</tspan><tspan class="cls-7" x="9.53" y="0">17B</tspan><tspan x="-1.99" y="16.8">연구실</tspan></text>
  </g>
  <g id="Layer_122">
    <rect class="cls-3" x="636.5" y="253.5" width="52" height="95"/>
    <text class="cls-6" transform="translate(643.87 296.08)"><tspan class="cls-9" x="0" y="0">5</tspan><tspan class="cls-7" x="9.53" y="0">18B</tspan><tspan x="-1.28" y="16.8">연구실</tspan></text>
  </g>
  <g id="Layer_123">
    <rect class="cls-3" x="636.5" y="348.5" width="77" height="56"/>
    <text class="cls-6" transform="translate(656.15 371.58)"><tspan class="cls-9" x="0" y="0">5</tspan><tspan x="9.53" y="0">18A</tspan><tspan x="-1.06" y="16.8">연구실</tspan></text>
  </g>
  <g id="Layer_124">
    <rect class="cls-3" x="688.5" y="253.5" width="66" height="71"/>
    <text class="cls-6" transform="translate(702.73 284.08)"><tspan class="cls-9" x="0" y="0">5</tspan><tspan x="9.53" y="0">18C</tspan><tspan x="-1.14" y="16.8">연구실</tspan></text>
  </g>
  <g id="Layer_125">
    <rect class="cls-3" x="754.5" y="253.5" width="69" height="71"/>
    <text class="cls-6" transform="translate(770.3 285.08)"><tspan class="cls-9" x="0" y="0">5</tspan><tspan class="cls-7" x="9.53" y="0">19A</tspan><tspan x="-1.2" y="16.8">연구실</tspan></text>
  </g>
  <g id="Layer_126">
    <rect class="cls-3" x="823.5" y="253.5" width="45" height="95"/>
    <text class="cls-6" transform="translate(827.52 296.08)"><tspan class="cls-9" x="0" y="0">5</tspan><tspan x="9.53" y="0">19B</tspan><tspan x="-1.43" y="16.8">연구실</tspan></text>
  </g>
  <g id="Layer_127">
    <rect class="cls-3" x="798.5" y="348.5" width="70" height="56"/>
    <text class="cls-6" transform="translate(814.88 371.58)"><tspan class="cls-9" x="0" y="0">5</tspan><tspan class="cls-7" x="9.53" y="0">19C</tspan><tspan x="-1.29" y="16.8">연구실</tspan></text>
  </g>
  <g id="Layer_128">
    <polygon class="cls-2" points="868.6 253.29 868.6 364.29 868.6 404.29 895.94 404.29 895.94 364.29 895.82 364.29 895.82 347.29 929.14 347.29 929.14 315.21 951.6 315.21 951.6 253.29 868.6 253.29"/>
  </g>
  <g id="Layer_129">
    <rect class="cls-2" x="1209.5" y="312.5" width="49" height="92"/>
  </g>
  <g id="Layer_130">
    <rect class="cls-3" x="1298.5" y="404.5" width="53" height="73"/>
    <text class="cls-8" transform="translate(1306.06 430.38)"><tspan class="cls-5"><tspan x="0" y="0">501A</tspan></tspan><tspan class="cls-4"><tspan x="1.88" y="14.4">샤워실</tspan></tspan><tspan class="cls-4"><tspan x="8.32" y="28.8">(남)</tspan></tspan></text>
  </g>
  <g id="Layer_131">
    <polygon class="cls-3" points="1226.39 404.5 1226.39 441.5 1187.5 441.5 1187.5 477.59 1298.5 477.59 1298.5 404.5 1226.39 404.5"/>
    <text class="cls-8" transform="translate(1240.28 440.72)"><tspan class="cls-5"><tspan x="0" y="0">501B</tspan></tspan><tspan class="cls-4"><tspan x="-18.41" y="14.4">락커룸/탈의실</tspan></tspan><tspan class="cls-4"><tspan x="8.1" y="28.8">(남)</tspan></tspan></text>
  </g>
  <g id="Layer_132">
    <rect class="cls-3" x="1249.5" y="477.5" width="102" height="40"/>
    <text class="cls-6" transform="translate(1281.64 492.58)"><tspan x="0" y="0">501C</tspan><tspan x="-13.44" y="16.8">샤워실(여)</tspan></text>
  </g>
  <g id="Layer_133">
    <polygon class="cls-3" points="1351.67 600.4 1053.5 600.5 1053.5 441.5 1187.5 441.5 1187.5 477.59 1249.5 477.59 1249.5 517.5 1351.67 517.5 1351.67 600.4"/>
    <text class="cls-6" transform="translate(1155.14 519.08)"><tspan x="0" y="0">501</tspan><tspan x="-26.37" y="16.8">휘트니스센터</tspan></text>
  </g>
  <g id="Layer_134">
    <rect class="cls-3" x="995.5" y="483.5" width="58" height="117"/>
    <text class="cls-6" transform="translate(1004.61 537.08)"><tspan x="0" y="0">507A</tspan><tspan x="-.01" y="16.8">연구실</tspan></text>
  </g>
</svg>