<?xml version="1.0" encoding="UTF-8"?>
<svg xmlns="http://www.w3.org/2000/svg" version="1.1" viewBox="0 0 4083.1 2452.9">
  <defs>
    <style>
      .cls-1 {
        fill: none;
      }

      .cls-1, .cls-2, .cls-3 {
        stroke: #e38789;
        stroke-miterlimit: 10;
      }

      .cls-1, .cls-3 {
        stroke-width: 3px;
      }

      .cls-4 {
        fill: #221f20;
        font-family: NanumSquareNeoTTF-dEb, 'NanumSquare Neo';
        font-size: 36px;
      }

      .cls-4, .cls-5 {
        isolation: isolate;
      }

      .cls-2 {
        fill: #fcf4f3;
        stroke-width: 10px;
      }

      .cls-3 {
        fill: #f4d1d1;
      }
    </style>
  </defs>
  <!-- Generator: Adobe Illustrator 28.6.0, SVG Export Plug-In . SVG Version: 1.2.0 Build 709)  -->
  <g>
    <g id="_x31_">
      <g id="Layer_x5F_border">
        <rect class="cls-2" x="348.8" y="597.5" width="3419" height="1178.4"/>
      </g>
      <g id="Layer_15">
        <rect class="cls-3" x="1337.9" y="1271.1" width="246.9" height="223.2"/>
        <g class="cls-5">
          <text class="cls-4" transform="translate(1404.9 1370.9)"><tspan x="0" y="0">103D</tspan></text>
          <text class="cls-4" transform="translate(1385.7 1414.1)"><tspan x="0" y="0">기자재실</tspan></text>
        </g>
      </g>
      <g id="Layer_29">
        <rect class="cls-3" x="348.8" y="1477.6" width="265.5" height="298.4"/>
        <g class="cls-5">
          <text class="cls-4" transform="translate(426 1612)"><tspan x="0" y="0">103A</tspan></text>
          <text class="cls-4" transform="translate(440.9 1655.2)"><tspan x="0" y="0">창고</tspan></text>
        </g>
      </g>
      <g id="Layer_30">
        <rect class="cls-3" x="348.8" y="1271.1" width="265.5" height="206.4"/>
        <g class="cls-5">
          <text class="cls-4" transform="translate(423.5 1370.9)"><tspan x="0" y="0">103C</tspan></text>
          <text class="cls-4" transform="translate(421.2 1414.1)"><tspan x="0" y="0">부장실</tspan></text>
        </g>
      </g>
      <g id="Layer_31">
        <rect class="cls-3" x="614.2" y="1271.1" width="723.6" height="504.8"/>
        <g class="cls-5">
          <text class="cls-4" transform="translate(941.1 1508.1)"><tspan x="0" y="0">103</tspan></text>
          <text class="cls-4" transform="translate(852.2 1551.3)"><tspan x="0" y="0">경영대학 행정팀</tspan></text>
        </g>
      </g>
      <g id="Layer_16">
        <rect class="cls-3" x="1337.9" y="1491.6" width="246.9" height="284.3"/>
        <g class="cls-5">
          <text class="cls-4" transform="translate(1405.4 1612)"><tspan x="0" y="0">103B</tspan></text>
          <text class="cls-4" transform="translate(1402.7 1655.2)"><tspan x="0" y="0">탕비실</tspan></text>
        </g>
      </g>
      <g id="Layer_17">
        <rect class="cls-3" x="2544.2" y="1271.1" width="243.4" height="504.8"/>
        <g class="cls-5">
          <text class="cls-4" transform="translate(2617.8 1518)"><tspan x="0" y="0">102B</tspan></text>
          <text class="cls-4" transform="translate(2597.7 1561.2)"><tspan x="0" y="0">부원장실</tspan></text>
        </g>
      </g>
      <g id="Layer_18">
        <rect class="cls-3" x="2787.6" y="1397.1" width="126.5" height="126.5"/>
        <g class="cls-5">
          <text class="cls-4" transform="translate(2802.2 1453.3)"><tspan x="0" y="0">102D</tspan></text>
          <text class="cls-4" transform="translate(2799.7 1496.5)"><tspan x="0" y="0">비서실</tspan></text>
        </g>
      </g>
      <g id="Layer_19">
        <rect class="cls-3" x="2787.6" y="1523.6" width="494.5" height="252.4"/>
        <g class="cls-5">
          <text class="cls-4" transform="translate(2979.5 1633.8)"><tspan x="0" y="0">102A</tspan></text>
          <text class="cls-4" transform="translate(2959.9 1677)"><tspan x="0" y="0">부학장실</tspan></text>
        </g>
      </g>
      <g id="Layer_20">
        <polygon class="cls-3" points="2787.6 1271.1 2787.6 1397.1 2914.1 1397.1 2914.1 1523.6 3282.1 1523.6 3282.1 1271.1 2787.6 1271.1"/>
        <g class="cls-5">
          <text class="cls-4" transform="translate(2982.4 1370.9)"><tspan x="0" y="0">102C</tspan></text>
          <text class="cls-4" transform="translate(2979.6 1414.1)"><tspan x="0" y="0">비서실</tspan></text>
        </g>
      </g>
      <g id="Layer_21">
        <rect class="cls-3" x="3282.1" y="1271.1" width="485.7" height="504.8"/>
        <g class="cls-5">
          <text class="cls-4" transform="translate(3495.9 1518)"><tspan x="0" y="0">102</tspan></text>
          <text class="cls-4" transform="translate(3447.4 1561.2)"><tspan x="0" y="0">학(원)장실</tspan></text>
        </g>
      </g>
      <g id="Layer_22">
        <rect class="cls-3" x="3296" y="856.5" width="236" height="232.3"/>
        <g class="cls-5">
          <text class="cls-4" transform="translate(3382.9 948.1)"><tspan x="0" y="0">110</tspan></text>
          <text class="cls-4" transform="translate(3379.8 991.3)"><tspan x="0" y="0">창고</tspan></text>
        </g>
      </g>
      <g id="Layer_23">
        <rect class="cls-3" x="3296" y="597.5" width="236" height="258.9"/>
        <g class="cls-5">
          <text class="cls-4" transform="translate(3364.9 707.6)"><tspan x="0" y="0">109A</tspan></text>
          <text class="cls-4" transform="translate(3362.8 750.8)"><tspan x="0" y="0">탕비실</tspan></text>
        </g>
      </g>
      <g id="Layer_24">
        <rect class="cls-3" x="2815.8" y="597.5" width="480.2" height="491.3"/>
        <g class="cls-5">
          <text class="cls-4" transform="translate(3020.9 839.1)"><tspan x="0" y="0">109</tspan></text>
          <text class="cls-4" transform="translate(3004.7 882.3)"><tspan x="0" y="0">홍보팀</tspan></text>
        </g>
      </g>
      <g id="Layer_25">
        <rect class="cls-1" x="2311.7" y="597.5" width="232.6" height="491.3"/>
        <rect class="cls-3" x="2544.2" y="597.5" width="271.6" height="491.3"/>
        <g class="cls-5">
          <text class="cls-4" transform="translate(2644.7 843.2)"><tspan x="0" y="0">108</tspan></text>
          <text class="cls-4" transform="translate(2611.8 886.4)"><tspan x="0" y="0">부원장실</tspan></text>
        </g>
      </g>
      <g id="Layer_26">
        <rect class="cls-3" x="1337.9" y="597.5" width="246.9" height="253"/>
        <g class="cls-5">
          <text class="cls-4" transform="translate(1426.4 724.1)"><tspan x="0" y="0">106</tspan></text>
          <text class="cls-4" transform="translate(1410.2 767.3)"><tspan x="0" y="0">안내실</tspan></text>
        </g>
      </g>
      <g id="Layer_27">
        <rect class="cls-3" x="1093.3" y="597.5" width="244.6" height="491.3"/>
        <g class="cls-5">
          <text class="cls-4" transform="translate(1181 825.7)"><tspan x="0" y="0">105</tspan></text>
          <text class="cls-4" transform="translate(1147.3 868.9)"><tspan x="0" y="0">부원장실</tspan></text>
        </g>
      </g>
      <g id="Layer_28">
        <rect class="cls-3" x="602" y="597.5" width="491.3" height="491.3"/>
        <g class="cls-5">
          <text class="cls-4" transform="translate(812.6 826.3)"><tspan x="0" y="0">104</tspan></text>
          <text class="cls-4" transform="translate(740.8 869.5)"><tspan x="0" y="0">교직원 휴게실</tspan></text>
        </g>
      </g>
      <g id="Layer_x5F_others">
        <rect class="cls-1" x="348.8" y="597.5" width="253.3" height="491.3"/>
        <g>
          <rect class="cls-1" x="348.8" y="602.1" width="126.6" height="32.5"/>
          <rect class="cls-1" x="348.8" y="634.5" width="126.6" height="33.8"/>
          <rect class="cls-1" x="348.8" y="668.3" width="126.6" height="38.9"/>
          <rect class="cls-1" x="348.8" y="707.2" width="126.6" height="31.2"/>
          <rect class="cls-1" x="348.8" y="738.4" width="126.6" height="38.9"/>
          <rect class="cls-1" x="348.8" y="777.3" width="126.6" height="27.9"/>
          <rect class="cls-1" x="348.8" y="805.2" width="126.6" height="42.2"/>
          <rect class="cls-1" x="348.8" y="847.4" width="126.6" height="38.9"/>
          <rect class="cls-1" x="348.8" y="886.4" width="126.6" height="33.8"/>
          <rect class="cls-1" x="348.8" y="920.1" width="126.6" height="33.8"/>
        </g>
        <g>
          <rect class="cls-1" x="475.4" y="601.5" width="126.6" height="32.5"/>
          <rect class="cls-1" x="475.4" y="633.9" width="126.6" height="33.8"/>
          <rect class="cls-1" x="475.4" y="667.7" width="126.6" height="38.9"/>
          <rect class="cls-1" x="475.4" y="706.6" width="126.6" height="31.2"/>
          <rect class="cls-1" x="475.4" y="737.8" width="126.6" height="38.9"/>
          <rect class="cls-1" x="475.4" y="776.7" width="126.6" height="27.9"/>
          <rect class="cls-1" x="475.4" y="804.6" width="126.6" height="42.2"/>
          <rect class="cls-1" x="475.4" y="846.8" width="126.6" height="38.9"/>
          <rect class="cls-1" x="475.4" y="885.7" width="126.6" height="33.8"/>
          <rect class="cls-1" x="475.4" y="919.5" width="126.6" height="33.8"/>
        </g>
        <rect class="cls-1" x="1973.8" y="755.4" width="187.9" height="265.6"/>
        <rect class="cls-1" x="1820.4" y="597.5" width="491.3" height="491.3"/>
        <rect class="cls-3" x="1973.8" y="875" width="187.9" height="146.1"/>
        <g>
          <rect class="cls-1" x="2161.7" y="596.2" width="150" height="32.5"/>
          <rect class="cls-1" x="2161.7" y="628.7" width="150" height="33.8"/>
          <rect class="cls-1" x="2161.7" y="662.4" width="150" height="38.9"/>
          <rect class="cls-1" x="2161.7" y="701.4" width="150" height="31.2"/>
          <rect class="cls-1" x="2161.7" y="732.5" width="150" height="38.9"/>
          <rect class="cls-1" x="2161.7" y="771.5" width="150" height="27.9"/>
          <rect class="cls-1" x="2161.7" y="799.4" width="150" height="42.2"/>
          <rect class="cls-1" x="2161.7" y="841.6" width="150" height="38.9"/>
          <rect class="cls-1" x="2161.7" y="880.5" width="150" height="33.8"/>
          <rect class="cls-1" x="2161.7" y="914.3" width="150" height="33.8"/>
        </g>
        <g>
          <rect class="cls-1" x="1820.4" y="595.6" width="150" height="32.5"/>
          <rect class="cls-1" x="1820.4" y="628" width="150" height="33.8"/>
          <rect class="cls-1" x="1820.4" y="661.8" width="150" height="38.9"/>
          <rect class="cls-1" x="1820.4" y="700.7" width="150" height="31.2"/>
          <rect class="cls-1" x="1820.4" y="731.9" width="150" height="38.9"/>
          <rect class="cls-1" x="1820.4" y="770.8" width="150" height="27.9"/>
          <rect class="cls-1" x="1820.4" y="798.7" width="150" height="42.2"/>
          <rect class="cls-1" x="1820.4" y="840.9" width="150" height="38.9"/>
          <rect class="cls-1" x="1820.4" y="879.9" width="150" height="33.8"/>
          <rect class="cls-1" x="1820.4" y="913.6" width="150" height="33.8"/>
        </g>
        <rect class="cls-1" x="3532" y="597.5" width="235.8" height="491.3"/>
        <g>
          <rect class="cls-1" x="3530.4" y="597.5" width="116.1" height="34"/>
          <rect class="cls-1" x="3530.4" y="631.5" width="116.1" height="35.3"/>
          <rect class="cls-1" x="3530.4" y="666.8" width="116.1" height="40.8"/>
          <rect class="cls-1" x="3530.4" y="707.6" width="116.1" height="32.6"/>
          <rect class="cls-1" x="3530.4" y="740.2" width="116.1" height="40.8"/>
          <rect class="cls-1" x="3530.4" y="781" width="116.1" height="29.2"/>
          <rect class="cls-1" x="3530.4" y="810.2" width="116.1" height="44.2"/>
          <rect class="cls-1" x="3530.4" y="854.3" width="116.1" height="40.8"/>
          <rect class="cls-1" x="3530.4" y="895.1" width="116.1" height="35.3"/>
          <rect class="cls-1" x="3530.4" y="930.4" width="116.1" height="35.3"/>
        </g>
        <g>
          <rect class="cls-1" x="3649.9" y="597.5" width="116.1" height="34"/>
          <rect class="cls-1" x="3649.9" y="631.5" width="116.1" height="35.3"/>
          <rect class="cls-1" x="3649.9" y="666.8" width="116.1" height="40.8"/>
          <rect class="cls-1" x="3649.9" y="707.6" width="116.1" height="32.6"/>
          <rect class="cls-1" x="3649.9" y="740.2" width="116.1" height="40.8"/>
          <rect class="cls-1" x="3649.9" y="781" width="116.1" height="29.2"/>
          <rect class="cls-1" x="3649.9" y="810.2" width="116.1" height="44.2"/>
          <rect class="cls-1" x="3649.9" y="854.3" width="116.1" height="40.8"/>
          <rect class="cls-1" x="3649.9" y="895.1" width="116.1" height="35.3"/>
          <rect class="cls-1" x="3649.9" y="930.4" width="116.1" height="35.3"/>
        </g>
      </g>
    </g>
  </g>
</svg>