<?xml version="1.0" encoding="UTF-8"?>
<svg id="_x32_" xmlns="http://www.w3.org/2000/svg" viewBox="0 0 1132.38 826.13">
  <defs>
    <style>
      .cls-1 {
        fill: #fcf2f2;
        stroke-width: 10px;
      }

      .cls-1, .cls-2, .cls-3 {
        stroke: #e68b8b;
        stroke-miterlimit: 10;
      }

      .cls-4 {
        font-size: 6px;
      }

      .cls-5 {
        font-size: 8px;
      }

      .cls-6, .cls-7 {
        font-size: 12px;
      }

      .cls-2 {
        fill: none;
      }

      .cls-2, .cls-3 {
        stroke-width: 3px;
      }

      .cls-8 {
        letter-spacing: 0em;
      }

      .cls-9, .cls-7 {
        fill: #221f20;
        font-family: NanumSquareNeoTTF-dEb, 'NanumSquare Neo';
      }

      .cls-10 {
        letter-spacing: -.02em;
      }

      .cls-11 {
        letter-spacing: -.03em;
      }

      .cls-12 {
        letter-spacing: -.01em;
      }

      .cls-3 {
        fill: #f3cdcf;
      }
    </style>
  </defs>
  <g id="Layer_x5F_border-3" data-name="Layer_x5F_border">
    <polygon class="cls-1" points="777.46 573.01 917.02 492.43 760.11 222.59 760.11 45.76 554.2 45.76 554.2 542.19 612.53 542.19 612.53 573.01 79.16 571.86 79.16 777.38 1068.9 777.38 1068.9 573.01 777.46 573.01"/>
  </g>
  <g id="Layer_x5F_others-3" data-name="Layer_x5F_others">
    <rect class="cls-3" x="554.2" y="442.37" width="65.53" height="15.31"/>
    <rect class="cls-3" x="554.2" y="372.04" width="65.53" height="14.75"/>
    <g>
      <rect class="cls-2" x="554.2" y="387.26" width="6.05" height="27.6"/>
      <rect class="cls-2" x="560.24" y="387.26" width="6.29" height="27.6"/>
      <rect class="cls-2" x="566.53" y="387.26" width="7.25" height="27.6"/>
      <rect class="cls-2" x="573.78" y="387.26" width="5.8" height="27.6"/>
      <rect class="cls-2" x="579.59" y="387.26" width="7.25" height="27.6"/>
      <rect class="cls-2" x="586.84" y="387.26" width="5.2" height="27.6"/>
      <rect class="cls-2" x="592.04" y="387.26" width="7.86" height="27.6"/>
      <rect class="cls-2" x="599.9" y="387.26" width="7.25" height="27.6"/>
      <rect class="cls-2" x="607.15" y="387.26" width="6.29" height="27.6"/>
      <rect class="cls-2" x="613.44" y="387.26" width="6.29" height="27.6"/>
    </g>
    <g>
      <rect class="cls-2" x="554.2" y="414.86" width="6.05" height="27.51"/>
      <rect class="cls-2" x="560.24" y="414.86" width="6.29" height="27.51"/>
      <rect class="cls-2" x="566.53" y="414.86" width="7.25" height="27.51"/>
      <rect class="cls-2" x="573.78" y="414.86" width="5.8" height="27.51"/>
      <rect class="cls-2" x="579.59" y="414.86" width="7.25" height="27.51"/>
      <rect class="cls-2" x="586.84" y="414.86" width="5.2" height="27.51"/>
      <rect class="cls-2" x="592.04" y="414.86" width="7.86" height="27.51"/>
      <rect class="cls-2" x="599.9" y="414.86" width="7.25" height="27.51"/>
      <rect class="cls-2" x="607.15" y="414.86" width="6.29" height="27.51"/>
      <rect class="cls-2" x="613.44" y="414.86" width="6.29" height="27.51"/>
    </g>
    <rect class="cls-3" x="612.53" y="540.17" width="42.92" height="32.84"/>
    <rect class="cls-3" x="618.09" y="573.01" width="37.36" height="50.21"/>
    <rect class="cls-3" x="618.09" y="623.22" width="37.36" height="38.61"/>
    <rect class="cls-3" x="791.9" y="646.83" width="26.47" height="28.88"/>
    <rect class="cls-2" x="736.6" y="573.01" width="40.86" height="90.67"/>
    <rect class="cls-3" x="710.68" y="573.01" width="25.92" height="29.9"/>
    <rect class="cls-3" x="710.68" y="602.91" width="25.92" height="29.69"/>
    <rect class="cls-3" x="710.68" y="632.6" width="25.92" height="31.08"/>
    <g>
      <rect class="cls-2" x="757.12" y="573.01" width="20.34" height="5.76"/>
      <rect class="cls-2" x="757.12" y="578.76" width="20.34" height="5.99"/>
      <rect class="cls-2" x="757.12" y="584.75" width="20.34" height="6.91"/>
      <rect class="cls-2" x="757.12" y="591.66" width="20.34" height="5.53"/>
      <rect class="cls-2" x="757.12" y="597.18" width="20.34" height="6.91"/>
      <rect class="cls-2" x="757.12" y="604.09" width="20.34" height="4.95"/>
      <rect class="cls-2" x="757.12" y="609.04" width="20.34" height="7.48"/>
      <rect class="cls-2" x="757.12" y="616.52" width="20.34" height="6.91"/>
      <rect class="cls-2" x="757.12" y="623.43" width="20.34" height="5.99"/>
      <rect class="cls-2" x="757.12" y="629.41" width="20.34" height="5.99"/>
    </g>
    <g>
      <rect class="cls-2" x="736.85" y="573.01" width="20.27" height="5.76"/>
      <rect class="cls-2" x="736.85" y="578.76" width="20.27" height="5.99"/>
      <rect class="cls-2" x="736.85" y="584.75" width="20.27" height="6.91"/>
      <rect class="cls-2" x="736.85" y="591.66" width="20.27" height="5.53"/>
      <rect class="cls-2" x="736.85" y="597.18" width="20.27" height="6.91"/>
      <rect class="cls-2" x="736.85" y="604.09" width="20.27" height="4.95"/>
      <rect class="cls-2" x="736.85" y="609.04" width="20.27" height="7.48"/>
      <rect class="cls-2" x="736.85" y="616.52" width="20.27" height="6.91"/>
      <rect class="cls-2" x="736.85" y="623.43" width="20.27" height="5.99"/>
      <rect class="cls-2" x="736.85" y="629.41" width="20.27" height="5.99"/>
    </g>
    <rect class="cls-3" x="576.86" y="645.93" width="27.96" height="30.26"/>
    <path class="cls-2" d="M680,535.41c47.43.1,94.87.21,142.3.31,26.03-15.54,52.05-31.09,78.08-46.63-38.36-65.88-76.72-131.76-115.09-197.64-35.11.07-70.22.14-105.33.21.1,9.51.2,19.02.3,28.53-.03,1.27-.32,6.44-4.44,10.77-4.83,5.07-11.18,5.02-12.21,4.99v159.5c1.2-.05,6.36-.1,10.75,3.74,5.7,4.99,5.21,12.28,5.14,13.08.16,7.71.33,15.42.49,23.14Z"/>
    <rect class="cls-2" x="655.45" y="535.72" width="81.15" height="37.21"/>
    <g>
      <rect class="cls-2" x="682.07" y="296.65" width="6.05" height="15.61"/>
      <rect class="cls-2" x="688.11" y="296.65" width="6.29" height="15.61"/>
      <rect class="cls-2" x="694.4" y="296.65" width="7.25" height="15.61"/>
      <rect class="cls-2" x="701.65" y="296.65" width="5.8" height="15.61"/>
      <rect class="cls-2" x="707.46" y="296.65" width="7.25" height="15.61"/>
      <rect class="cls-2" x="714.71" y="296.65" width="5.2" height="15.61"/>
      <rect class="cls-2" x="719.91" y="296.65" width="7.86" height="15.61"/>
      <rect class="cls-2" x="727.77" y="296.65" width="7.25" height="15.61"/>
      <rect class="cls-2" x="735.03" y="296.65" width="6.29" height="15.61"/>
      <rect class="cls-2" x="741.31" y="296.65" width="6.29" height="15.61"/>
    </g>
    <g>
      <rect class="cls-2" x="732.4" y="311.89" width="15.61" height="5.1"/>
      <rect class="cls-2" x="732.4" y="317" width="15.61" height="5.31"/>
      <rect class="cls-2" x="732.4" y="322.31" width="15.61" height="6.13"/>
      <rect class="cls-2" x="732.4" y="328.43" width="15.61" height="4.9"/>
      <rect class="cls-2" x="732.4" y="333.33" width="15.61" height="6.13"/>
      <rect class="cls-2" x="732.4" y="339.46" width="15.61" height="4.39"/>
      <rect class="cls-2" x="732.4" y="343.85" width="15.61" height="6.64"/>
      <rect class="cls-2" x="732.4" y="350.48" width="15.61" height="6.13"/>
      <rect class="cls-2" x="732.4" y="356.61" width="15.61" height="5.31"/>
      <rect class="cls-2" x="732.4" y="361.92" width="15.61" height="5.31"/>
    </g>
    <rect class="cls-2" x="685.09" y="312.26" width="46.31" height="49.66"/>
    <rect class="cls-2" x="79.16" y="572.71" width="46.54" height="77.86"/>
    <rect class="cls-2" x="79.16" y="701.03" width="46.54" height="33.23"/>
    <rect class="cls-2" x="79.16" y="734.25" width="46.54" height="43.12"/>
    <g>
      <rect class="cls-2" x="102.39" y="572.71" width="23.31" height="5.76"/>
      <rect class="cls-2" x="102.39" y="578.46" width="23.31" height="5.99"/>
      <rect class="cls-2" x="102.39" y="584.45" width="23.31" height="6.91"/>
      <rect class="cls-2" x="102.39" y="591.35" width="23.31" height="5.53"/>
      <rect class="cls-2" x="102.39" y="596.88" width="23.31" height="6.91"/>
      <rect class="cls-2" x="102.39" y="603.79" width="23.31" height="4.95"/>
      <rect class="cls-2" x="102.39" y="608.73" width="23.31" height="7.48"/>
      <rect class="cls-2" x="102.39" y="616.22" width="23.31" height="6.91"/>
      <rect class="cls-2" x="102.39" y="623.12" width="23.31" height="5.99"/>
      <rect class="cls-2" x="102.39" y="629.11" width="23.31" height="5.99"/>
    </g>
    <g>
      <rect class="cls-2" x="79.16" y="572.71" width="23.23" height="5.76"/>
      <rect class="cls-2" x="79.16" y="578.46" width="23.23" height="5.99"/>
      <rect class="cls-2" x="79.16" y="584.45" width="23.23" height="6.91"/>
      <rect class="cls-2" x="79.16" y="591.35" width="23.23" height="5.53"/>
      <rect class="cls-2" x="79.16" y="596.88" width="23.23" height="6.91"/>
      <rect class="cls-2" x="79.16" y="603.79" width="23.23" height="4.95"/>
      <rect class="cls-2" x="79.16" y="608.73" width="23.23" height="7.48"/>
      <rect class="cls-2" x="79.16" y="616.22" width="23.23" height="6.91"/>
      <rect class="cls-2" x="79.16" y="623.12" width="23.23" height="5.99"/>
      <rect class="cls-2" x="79.16" y="629.11" width="23.23" height="5.99"/>
    </g>
    <rect class="cls-2" x="1022.32" y="706.06" width="46.57" height="28.61"/>
    <rect class="cls-2" x="1023.83" y="734.67" width="45.07" height="42.71"/>
  </g>
  <g id="Layer_101">
    <rect class="cls-3" x="736.85" y="701.03" width="40.61" height="76.35"/>
    <text class="cls-7" transform="translate(745.78 734.98)"><tspan x="0" y="0">216</tspan><tspan x="-5.69" y="14.4">연구실</tspan></text>
  </g>
  <g id="Layer_102">
    <rect class="cls-3" x="777.46" y="701.03" width="40.91" height="76.35"/>
    <text class="cls-7" transform="translate(787.02 734.98)"><tspan x="0" y="0">217</tspan><tspan x="-6.17" y="14.4">연구실</tspan></text>
  </g>
  <g id="Layer_103">
    <rect class="cls-3" x="818.37" y="701.03" width="40.61" height="76.35"/>
    <text class="cls-7" transform="translate(827.17 734.98)"><tspan x="0" y="0">218</tspan><tspan x="-5.56" y="14.4">연구실</tspan></text>
  </g>
  <g id="Layer_104">
    <rect class="cls-3" x="858.98" y="701.03" width="41.51" height="76.35"/>
    <text class="cls-7" transform="translate(868.36 734.98)"><tspan x="0" y="0">219</tspan><tspan x="-5.69" y="14.4">연구실</tspan></text>
  </g>
  <g id="Layer_105">
    <rect class="cls-3" x="900.49" y="701.03" width="40.31" height="76.35"/>
    <text class="cls-7" transform="translate(907.96 734.98)"><tspan x="0" y="0">220</tspan><tspan x="-4.37" y="14.4">연구실</tspan></text>
  </g>
  <g id="Layer_106">
    <rect class="cls-3" x="940.8" y="701.03" width="40.01" height="76.35"/>
    <text class="cls-7" transform="translate(949.56 734.98)"><tspan x="0" y="0">221</tspan><tspan x="-5.81" y="14.4">연구실</tspan></text>
  </g>
  <g id="Layer_107">
    <rect class="cls-3" x="980.81" y="701.03" width="41.51" height="76.35"/>
    <text class="cls-7" transform="translate(989.15 734.98)"><tspan x="0" y="0">222</tspan><tspan x="-4.64" y="14.4">연구실</tspan></text>
  </g>
  <g id="Layer_108">
    <rect class="cls-3" x="1023.83" y="573.01" width="45.07" height="102.7"/>
    <text class="cls-7" transform="translate(1033.81 620.14)"><tspan x="0" y="0">253</tspan><tspan x="-4.51" y="14.4">연구실</tspan></text>
  </g>
  <g id="Layer_109">
    <rect class="cls-3" x="980.81" y="573.01" width="43.02" height="102.7"/>
    <text class="cls-7" transform="translate(989.89 620.14)"><tspan x="0" y="0">252</tspan><tspan x="-4.64" y="14.4">연구실</tspan></text>
  </g>
  <g id="Layer_110">
    <rect class="cls-3" x="900.49" y="573.01" width="80.32" height="102.7"/>
    <text class="cls-7" transform="translate(927.95 620.14)"><tspan x="0" y="0">250</tspan><tspan x="-4.37" y="14.4">강의실</tspan></text>
  </g>
  <g id="Layer_111">
    <rect class="cls-3" x="818.37" y="573.01" width="82.12" height="102.7"/>
    <text class="cls-7" transform="translate(846.78 620.14)"><tspan class="cls-11" x="0" y="0">2</tspan><tspan x="7.92" y="0">48</tspan><tspan x="-4.42" y="14.4">연구실</tspan></text>
  </g>
  <g id="Layer_86">
    <rect class="cls-3" x="166.09" y="701.03" width="41.59" height="76.35"/>
    <text class="cls-7" transform="translate(174.2 734.98)"><tspan x="0" y="0">202</tspan><tspan x="-4.37" y="14.4">연구실</tspan></text>
  </g>
  <g id="Layer_87">
    <rect class="cls-3" x="207.68" y="701.03" width="40.06" height="76.35"/>
    <text class="cls-7" transform="translate(214.9 734.98)"><tspan x="0" y="0">203</tspan><tspan x="-4.25" y="14.4">연구실</tspan></text>
  </g>
  <g id="Layer_88">
    <rect class="cls-3" x="247.75" y="701.03" width="40.97" height="76.35"/>
    <text class="cls-7" transform="translate(255.39 734.98)"><tspan x="0" y="0">204</tspan><tspan x="-4.22" y="14.4">연구실</tspan></text>
  </g>
  <g id="Layer_89">
    <rect class="cls-3" x="288.72" y="701.03" width="40.68" height="76.35"/>
    <text class="cls-7" transform="translate(296.37 734.98)"><tspan x="0" y="0">205</tspan><tspan x="-4.37" y="14.4">연구실</tspan></text>
  </g>
  <g id="Layer_90">
    <rect class="cls-3" x="329.4" y="701.03" width="41.26" height="76.35"/>
    <text class="cls-7" transform="translate(337.22 734.98)"><tspan x="0" y="0">206</tspan><tspan x="-4.25" y="14.4">연구실</tspan></text>
  </g>
  <g id="Layer_91">
    <rect class="cls-3" x="370.67" y="701.03" width="40.1" height="76.35"/>
    <text class="cls-7" transform="translate(378.38 734.98)"><tspan x="0" y="0">207</tspan><tspan x="-4.73" y="14.4">연구실</tspan></text>
  </g>
  <g id="Layer_92">
    <rect class="cls-3" x="410.77" y="701.03" width="40.09" height="76.35"/>
    <text class="cls-7" transform="translate(417.87 734.98)"><tspan x="0" y="0">208</tspan><tspan x="-4.12" y="14.4">연구실</tspan></text>
  </g>
  <g id="Layer_93">
    <rect class="cls-3" x="450.86" y="701.03" width="40.85" height="76.35"/>
    <text class="cls-7" transform="translate(458.47 734.98)"><tspan x="0" y="0">209</tspan><tspan x="-4.25" y="14.4">연구실</tspan></text>
  </g>
  <g id="Layer_94">
    <rect class="cls-3" x="491.71" y="701.03" width="41.84" height="76.35"/>
    <text class="cls-7" transform="translate(501.12 734.98)"><tspan x="0" y="0">210</tspan><tspan x="-5.54" y="14.4">연구실</tspan></text>
  </g>
  <g id="Layer_95">
    <rect class="cls-3" x="533.56" y="701.03" width="43.3" height="76.35"/>
    <text class="cls-7" transform="translate(545.13 734.98)"><tspan x="0" y="0">211</tspan><tspan x="-6.98" y="14.4">연구실</tspan></text>
  </g>
  <g id="Layer_96">
    <rect class="cls-3" x="576.86" y="701.03" width="38.16" height="76.35"/>
    <text class="cls-7" transform="translate(584.69 734.98)"><tspan x="0" y="0">212</tspan><tspan x="-5.81" y="14.4">연구실</tspan></text>
  </g>
  <g id="Layer_97">
    <rect class="cls-3" x="615.02" y="701.03" width="40.44" height="76.35"/>
    <text class="cls-7" transform="translate(623.86 734.98)"><tspan x="0" y="0">213</tspan><tspan x="-5.69" y="14.4">연구실</tspan></text>
  </g>
  <g id="Layer_98">
    <rect class="cls-3" x="655.45" y="701.03" width="40.57" height="76.35"/>
    <text class="cls-7" transform="translate(664.33 734.98)"><tspan x="0" y="0">214</tspan><tspan x="-5.66" y="14.4">연구실</tspan></text>
  </g>
  <g id="Layer_99">
    <rect class="cls-3" x="696.02" y="701.03" width="40.82" height="76.35"/>
    <text class="cls-7" transform="translate(705.18 734.98)"><tspan x="0" y="0">215</tspan><tspan x="-5.81" y="14.4">연구실</tspan></text>
  </g>
  <g id="Layer_100">
    <rect class="cls-3" x="125.7" y="701.03" width="40.39" height="76.35"/>
    <text class="cls-7" transform="translate(134.37 734.98)"><tspan x="0" y="0">201</tspan><tspan x="-5.54" y="14.4">연구실</tspan></text>
  </g>
  <g id="Layer_72">
    <rect class="cls-3" x="554.2" y="498.92" width="84.6" height="41.24"/>
    <text class="cls-7" transform="translate(585.18 515.33)"><tspan x="0" y="0">2</tspan><tspan class="cls-12" x="8.28" y="0">6</tspan><tspan class="cls-8" x="16.69" y="0">1</tspan><tspan x="-11.44" y="14.4">스터디룸</tspan></text>
  </g>
  <g id="Layer_73">
    <polygon class="cls-2" points="618.09 661.83 604.82 661.83 604.82 645.93 576.86 645.93 576.86 572.93 618.09 572.93 618.09 661.83"/>
  </g>
  <g id="Layer_74">
    <polygon class="cls-2" points="777.46 663.68 791.9 663.68 791.9 646.83 818.37 646.83 818.37 573.01 777.46 573.01 777.46 663.68"/>
  </g>
  <g id="Layer_75">
    <rect class="cls-3" x="533.56" y="572.93" width="43.3" height="103.26"/>
    <text class="cls-7" transform="translate(544.1 620.35)"><tspan class="cls-11" x="0" y="0">2</tspan><tspan class="cls-10" x="7.92" y="0">4</tspan><tspan class="cls-8" x="16.27" y="0">1</tspan><tspan x="-5.96" y="14.4">연구실</tspan></text>
  </g>
  <g id="Layer_76">
    <rect class="cls-3" x="491.71" y="572.93" width="41.84" height="103.26"/>
    <text class="cls-7" transform="translate(499.97 620.35)"><tspan class="cls-11" x="0" y="0">2</tspan><tspan x="7.92" y="0">40</tspan><tspan x="-4.4" y="14.4">연구실</tspan></text>
  </g>
  <g id="Layer_77">
    <rect class="cls-3" x="450.86" y="572.71" width="40.85" height="103.49"/>
    <text class="cls-7" transform="translate(458.62 620.23)"><tspan x="0" y="0">239</tspan><tspan x="-4.39" y="14.4">연구실</tspan></text>
  </g>
  <g id="Layer_78">
    <rect class="cls-3" x="410.77" y="572.71" width="40.09" height="103.49"/>
    <text class="cls-7" transform="translate(418.02 620.23)"><tspan x="0" y="0">238</tspan><tspan x="-4.27" y="14.4">연구실</tspan></text>
  </g>
  <g id="Layer_79">
    <rect class="cls-3" x="370.67" y="572.71" width="40.1" height="103.49"/>
    <text class="cls-7" transform="translate(378.53 620.23)"><tspan x="0" y="0">237</tspan><tspan x="-4.87" y="14.4">연구실</tspan></text>
  </g>
  <g id="Layer_80">
    <rect class="cls-3" x="329.4" y="572.71" width="41.26" height="103.49"/>
    <text class="cls-7" transform="translate(337.36 620.23)"><tspan x="0" y="0">236</tspan><tspan x="-4.39" y="14.4">연구실</tspan></text>
  </g>
  <g id="Layer_81">
    <rect class="cls-3" x="288.72" y="572.71" width="40.68" height="103.49"/>
    <text class="cls-7" transform="translate(296.51 620.23)"><tspan x="0" y="0">235</tspan><tspan x="-4.51" y="14.4">연구실</tspan></text>
  </g>
  <g id="Layer_82">
    <rect class="cls-3" x="247.75" y="572.71" width="40.97" height="103.49"/>
    <text class="cls-7" transform="translate(255.53 620.23)"><tspan x="0" y="0">234</tspan><tspan x="-4.36" y="14.4">연구실</tspan></text>
  </g>
  <g id="Layer_83">
    <rect class="cls-3" x="206.77" y="572.71" width="40.97" height="103.49"/>
    <text class="cls-7" transform="translate(214.59 620.23)"><tspan x="0" y="0">233</tspan><tspan x="-4.39" y="14.4">연구실</tspan></text>
  </g>
  <g id="Layer_84">
    <rect class="cls-3" x="166.09" y="572.71" width="40.68" height="103.49"/>
    <text class="cls-7" transform="translate(173.88 620.23)"><tspan x="0" y="0">232</tspan><tspan x="-4.52" y="14.4">연구실</tspan></text>
  </g>
  <g id="Layer_85">
    <rect class="cls-3" x="125.7" y="572.71" width="40.39" height="103.49"/>
    <text class="cls-7" transform="translate(134.58 620.23)"><tspan x="0" y="0">2</tspan><tspan class="cls-12" x="8.28" y="0">3</tspan><tspan class="cls-8" x="16.69" y="0">1</tspan><tspan x="-5.75" y="14.4">연구실</tspan></text>
  </g>
  <g id="Layer_58">
    <polygon class="cls-3" points="586.64 253.38 586.64 91.63 554.79 91.63 554.79 45.76 760.7 45.76 760.7 291.66 614.03 291.66 614.03 281.71 639.39 281.71 639.39 253.38 586.64 253.38"/>
    <text class="cls-7" transform="translate(656.98 158.71)"><tspan x="0" y="0">268</tspan><tspan x="-9.95" y="14.4">해동학술</tspan><tspan x="-4.27" y="28.8">정보실</tspan></text>
  </g>
  <g id="Layer_59">
    <rect class="cls-3" x="554.2" y="91.63" width="31.86" height="23.08"/>
    <text class="cls-9" transform="translate(558.49 103.17)"><tspan class="cls-5"><tspan x="0" y="0">268G</tspan></tspan><tspan class="cls-4"><tspan x=".26" y="7.2">스터디룸</tspan></tspan></text>
  </g>
  <g id="Layer_60">
    <rect class="cls-3" x="554.2" y="114.71" width="31.86" height="23.33"/>
    <text class="cls-9" transform="translate(559.13 125.07)"><tspan class="cls-5"><tspan x="0" y="0">268F</tspan></tspan><tspan class="cls-4"><tspan x="-.38" y="7.2">스터디룸</tspan></tspan></text>
  </g>
  <g id="Layer_61">
    <rect class="cls-3" x="554.2" y="138.05" width="31.86" height="22.95"/>
    <text class="cls-9" transform="translate(558.99 148.21)"><tspan class="cls-5"><tspan x="0" y="0">268E</tspan></tspan><tspan class="cls-4"><tspan x="-.24" y="7.2">스터디룸</tspan></tspan></text>
  </g>
  <g id="Layer_62">
    <rect class="cls-3" x="554.2" y="160.99" width="31.86" height="22.95"/>
    <text class="cls-9" transform="translate(558.49 171.16)"><tspan class="cls-5"><tspan x="0" y="0">268D</tspan></tspan><tspan class="cls-4"><tspan x=".29" y="7.2">스터디룸</tspan></tspan></text>
  </g>
  <g id="Layer_63">
    <rect class="cls-3" x="554.2" y="183.94" width="31.86" height="23.78"/>
    <text class="cls-9" transform="translate(558.5 194.52)"><tspan class="cls-5"><tspan x="0" y="0">268C</tspan></tspan><tspan class="cls-4"><tspan x=".25" y="7.2">스터디룸</tspan></tspan></text>
  </g>
  <g id="Layer_64">
    <rect class="cls-3" x="554.2" y="207.72" width="31.86" height="23.48"/>
    <text class="cls-9" transform="translate(558.58 218.15)"><tspan class="cls-5"><tspan x="0" y="0">268B</tspan></tspan><tspan class="cls-4"><tspan x=".17" y="7.2">스터디룸</tspan></tspan></text>
  </g>
  <g id="Layer_65">
    <rect class="cls-3" x="554.2" y="231.19" width="31.86" height="22.18"/>
    <text class="cls-9" transform="translate(558.45 240.98)"><tspan class="cls-5"><tspan x="0" y="0">268A</tspan></tspan><tspan class="cls-4"><tspan x=".3" y="7.2">스터디룸</tspan></tspan></text>
  </g>
  <g id="Layer_66">
    <polygon class="cls-2" points="554.2 253.38 554.2 291.66 613.44 291.66 613.44 281.71 638.8 281.71 638.8 253.38 554.2 253.38"/>
  </g>
  <g id="Layer_67">
    <polygon class="cls-3" points="596.5 327.36 596.5 291.66 554.2 291.66 554.2 335.08 586.05 335.08 586.05 327.36 596.5 327.36"/>
    <text class="cls-9" transform="translate(562.79 312.16)"><tspan class="cls-6"><tspan x="0" y="0">265</tspan></tspan><tspan class="cls-5"><tspan x="-2.62" y="9.6">스터디룸</tspan></tspan></text>
  </g>
  <g id="Layer_68">
    <rect class="cls-3" x="596.5" y="291.66" width="42.3" height="35.7"/>
    <text class="cls-9" transform="translate(604.98 308.3)"><tspan class="cls-6"><tspan x="0" y="0">266</tspan></tspan><tspan class="cls-5"><tspan x="-2.5" y="9.6">스터디룸</tspan></tspan></text>
  </g>
  <g id="Layer_69">
    <polygon class="cls-3" points="554.2 372.04 596.5 372.04 596.5 342.2 586.05 342.2 586.05 335.08 554.2 335.08 554.2 372.04"/>
    <text class="cls-9" transform="translate(561.76 354.35)"><tspan class="cls-6"><tspan x="0" y="0">2</tspan><tspan class="cls-10" x="8.28" y="0">6</tspan><tspan x="16.57" y="0">4</tspan></tspan><tspan class="cls-5"><tspan x="-2.59" y="9.6">스터디룸</tspan></tspan></text>
  </g>
  <g id="Layer_70">
    <rect class="cls-3" x="596.5" y="342.2" width="42.3" height="29.84"/>
    <text class="cls-9" transform="translate(604.98 355.91)"><tspan class="cls-6"><tspan x="0" y="0">263</tspan></tspan><tspan class="cls-5"><tspan x="-2.5" y="9.6">스터디룸</tspan></tspan></text>
  </g>
  <g id="Layer_71">
    <rect class="cls-3" x="554.2" y="457.68" width="84.6" height="41.24"/>
    <text class="cls-7" transform="translate(583.95 474.09)"><tspan x="0" y="0">262</tspan><tspan x="-10.21" y="14.4">스터디룸</tspan></text>
  </g>
</svg>