<?xml version="1.0" encoding="UTF-8"?><svg xmlns="http://www.w3.org/2000/svg" viewBox="0 0 1800 1400"><defs><style>.cls-1{font-size:12px;}.cls-1,.cls-2,.cls-3,.cls-4{font-family:NanumSquareNeovariable-Heavy, 'NanumSquare Neo variable';font-variation-settings:'wght' 900;font-weight:800;}.cls-1,.cls-2,.cls-3,.cls-4,.cls-5{fill:#434142;}.cls-6{opacity:.6;}.cls-6,.cls-7,.cls-8,.cls-9,.cls-10{stroke:#d88282;stroke-miterlimit:10;}.cls-6,.cls-9{fill:#fdf2f2;stroke-width:3px;}.cls-7{fill:#f5cbcc;}.cls-7,.cls-8{stroke-width:2px;}.cls-2{font-size:22px;}.cls-3,.cls-5{font-size:20px;}.cls-4{font-size:14px;}.cls-8,.cls-10{fill:none;}.cls-5{font-family:NanumSquareNeovariable-Regular, 'NanumSquare Neo variable';font-variation-settings:'wght' 300;}.cls-10{stroke-width:1.9px;}</style></defs><g id="Layer_border"><path class="cls-9" d="m890.69,1066.79h-71.87v24.77h62.42l68.85,68.85v31.31h24.77v-42.21l-84.16-82.71Z"/><path class="cls-9" d="m819.95,858.45v10.53h-49.5v-8.4h-6.62v-9.94h-49.41v9.94h-7.39v8.4h-13V237.75h-308.79v70.41h-17.03v22.08h17.03v57.53h-17.03v22.08h17.03v10.66h-17.03v22.08h17.03v60.07h-17.03v22.08h17.03v10.66h-17.03v22.08h17.03v60.07h-17.03v22.08h17.03v10.66h-17.03v22.08h17.03v196.59h-14.13v-8.4h-6.62v-9.94h-49.41v9.94h-7.39v8.4h-49.59v-8.4h-7.1v243.12h7.1v-11.34h49.44v11.34h6.72v9.94h50.49v-9.94h7.1v9.94h51.1v-9.94h5.68v-11.34h220.62v11.34h6.72v9.94h50.49v-9.94h7.1v9.94h51.1v-9.94h4.13v63.88h58.24v-309.12h-7.1Zm0,194.15H258.12v-37.19h561.83v37.19Z"/><polygon class="cls-9" points="687.92 871.8 687.92 242.94 390.3 242.94 390.3 871.8 253.97 871.8 253.97 1087.92 823.5 1087.92 823.5 871.8 687.92 871.8"/><polygon class="cls-6" points="656.76 834.62 656.76 303.36 558.82 303.36 558.82 834.62 558.82 836.44 558.82 871.8 678.14 871.8 678.14 834.62 656.76 834.62"/><polygon class="cls-9" points="1503.49 855.38 1503.49 956.48 1271.87 956.48 1271.87 994.2 1503.49 994.2 1503.49 1110.61 1527.28 1110.61 1527.28 855.38 1503.49 855.38"/><polygon class="cls-9" points="1254.17 956.48 1229.08 956.48 827.05 956.48 827.05 994.2 1229.08 994.2 1261.23 994.2 1254.17 956.48"/><rect class="cls-9" x="318.21" y="1095.08" width="42.42" height="15.04"/><rect class="cls-9" x="375.98" y="1095.08" width="42.42" height="15.04"/><rect class="cls-9" x="318.76" y="854.09" width="42.42" height="17.83"/><rect class="cls-9" x="659.76" y="1095.08" width="42.42" height="15.04"/><rect class="cls-9" x="717.54" y="1095.08" width="42.42" height="15.04"/><rect class="cls-9" x="774.73" y="1095.08" width="47.03" height="67.97"/><rect class="cls-9" x="717.78" y="853.97" width="42.42" height="17.83"/><polygon class="cls-9" points="705.88 237.75 705.88 300.06 694.04 300.06 694.04 304.78 705.88 304.78 710.9 304.78 710.9 300.06 710.9 237.75 705.88 237.75"/><rect class="cls-9" x="503.87" y="208.28" width="59.96" height="34.65"/></g><g id="Layer_others"><line class="cls-8" x1="485.26" y1="994.2" x2="485.26" y2="947.56"/><line class="cls-8" x1="596.04" y1="994.2" x2="548.89" y2="994.2"/><line class="cls-8" x1="596.04" y1="1005.61" x2="548.89" y2="1005.61"/><line class="cls-8" x1="596.04" y1="1010.29" x2="548.89" y2="1010.29"/><line class="cls-8" x1="596.04" y1="1014.59" x2="548.89" y2="1014.59"/><line class="cls-8" x1="596.04" y1="1019.46" x2="548.89" y2="1019.46"/><polyline class="cls-8" points="565.92 902.55 565.92 962 549.29 962"/><line class="cls-8" x1="609.23" y1="962" x2="609.23" y2="994.2"/><line class="cls-8" x1="550.32" y1="962" x2="550.32" y2="994.2"/><line class="cls-8" x1="554.21" y1="962" x2="554.21" y2="994.2"/><line class="cls-8" x1="558.27" y1="962" x2="558.27" y2="994.2"/><line class="cls-8" x1="562.78" y1="961.55" x2="562.78" y2="993.76"/><line class="cls-8" x1="627.22" y1="962.22" x2="627.22" y2="994.42"/><line class="cls-8" x1="631.1" y1="962.22" x2="631.1" y2="994.42"/><line class="cls-8" x1="635.16" y1="962.22" x2="635.16" y2="994.42"/><line class="cls-8" x1="639.67" y1="961.78" x2="639.67" y2="993.98"/><line class="cls-10" x1="594.86" y1="949.6" x2="565.92" y2="949.6"/><line class="cls-10" x1="594.86" y1="953.61" x2="565.92" y2="953.61"/><line class="cls-10" x1="594.86" y1="957.62" x2="565.92" y2="957.62"/><line class="cls-10" x1="594.86" y1="961.78" x2="565.92" y2="961.78"/><line class="cls-10" x1="594.86" y1="933.56" x2="565.92" y2="933.56"/><line class="cls-10" x1="594.86" y1="937.57" x2="565.92" y2="937.57"/><line class="cls-10" x1="594.86" y1="941.58" x2="565.92" y2="941.58"/><line class="cls-10" x1="594.86" y1="945.59" x2="565.92" y2="945.59"/><line class="cls-10" x1="595.29" y1="917.52" x2="566.35" y2="917.52"/><line class="cls-10" x1="595.29" y1="921.53" x2="566.35" y2="921.53"/><line class="cls-10" x1="595.29" y1="925.54" x2="566.35" y2="925.54"/><line class="cls-10" x1="595.29" y1="929.55" x2="566.35" y2="929.55"/><line class="cls-10" x1="595.29" y1="905.49" x2="566.35" y2="905.49"/><line class="cls-10" x1="595.29" y1="909.5" x2="566.35" y2="909.5"/><line class="cls-10" x1="595.29" y1="913.51" x2="566.35" y2="913.51"/><rect class="cls-8" x="643.52" y="839.1" width="29.52" height="28.4"/><line class="cls-8" x1="638.85" y1="242.94" x2="638.85" y2="302.55"/><line class="cls-8" x1="618.48" y1="242.94" x2="618.48" y2="273.15"/><line class="cls-8" x1="610.98" y1="242.94" x2="610.98" y2="273.15"/><line class="cls-8" x1="603.48" y1="242.94" x2="603.48" y2="273.55"/><line class="cls-8" x1="595.99" y1="242.94" x2="595.99" y2="274.16"/><line class="cls-8" x1="589.34" y1="242.94" x2="589.34" y2="274.16"/><line class="cls-8" x1="558.82" y1="243.91" x2="558.82" y2="307.62"/></g><g id="Layer_B101"><rect class="cls-7" x="252.8" y="871.93" width="112.33" height="215.34"/><text class="cls-2" transform="translate(279.67 973.97)"><tspan x="0" y="0">B101</tspan></text><text class="cls-5" transform="translate(279.12 1000.87)"><tspan x="0" y="0">전기실</tspan></text></g><g id="Layer_B102"><rect class="cls-7" x="365.13" y="994.2" width="183.76" height="93.07"/><text class="cls-2" transform="translate(427.09 1032.18)"><tspan x="0" y="0">B102</tspan></text><text class="cls-5" transform="translate(419.09 1059.08)"><tspan x="0" y="0">사물함실</tspan></text></g><g id="Layer_B103"><rect class="cls-7" x="596.04" y="994.2" width="198.81" height="93.07"/><text class="cls-2" transform="translate(657.74 1032.37)"><tspan x="0" y="0">B103</tspan></text><text class="cls-5" transform="translate(650 1059.27)"><tspan x="0" y="0">사물함실</tspan></text></g><g id="Layer_B110"><rect class="cls-7" x="365.13" y="871.93" width="60.07" height="75.43"/><text class="cls-3" transform="translate(370.11 916.78)"><tspan x="0" y="0">B110</tspan></text></g><g id="Layer_B109"><rect class="cls-7" x="425.2" y="871.93" width="60.07" height="75.43"/><text class="cls-3" transform="translate(427.81 916.37)"><tspan x="0" y="0">B109</tspan></text></g><g id="Layer_B105"><polygon class="cls-7" points="716.77 905.74 716.77 894.03 633.44 894.03 633.44 947.36 695.53 947.36 716.77 947.36 766.61 947.36 766.61 905.74 716.77 905.74"/><text class="cls-2" transform="translate(668.69 931.22)"><tspan x="0" y="0">B105</tspan></text></g><g id="Layer_L101"><rect class="cls-7" x="390.3" y="815.15" width="130" height="56.78"/><text class="cls-3" transform="translate(430.29 848.25)"><tspan x="0" y="0">L101</tspan></text></g><g id="Layer_L102"><rect class="cls-7" x="390.3" y="644.42" width="130" height="170.73"/><text class="cls-3" transform="translate(429.56 736.89)"><tspan x="0" y="0">L102</tspan></text></g><g id="Layer_L103"><rect class="cls-7" x="390.3" y="473.89" width="130" height="170.53"/><text class="cls-3" transform="translate(428.21 563.44)"><tspan x="0" y="0">L103</tspan></text></g><g id="Layer_L104"><rect class="cls-7" x="390.3" y="418.53" width="130" height="55.36"/><text class="cls-3" transform="translate(428.27 452.28)"><tspan x="0" y="0">L104</tspan></text></g><g id="Layer_L105"><rect class="cls-7" x="390.3" y="303.36" width="130" height="115.17"/><text class="cls-3" transform="translate(428.44 369.94)"><tspan x="0" y="0">L105</tspan></text></g><g id="Layer_L106"><rect class="cls-7" x="390.3" y="242.94" width="130" height="60.43"/><text class="cls-3" transform="translate(428.22 279.68)"><tspan x="0" y="0">L106</tspan></text></g><g id="Layer_B104"><polygon class="cls-7" points="633.44 873.35 628.43 873.35 595.73 873.35 595.73 924.28 633.44 924.28 633.44 894.03 716.77 894.03 716.77 907.45 766.61 907.45 766.61 994.2 794.76 994.2 794.76 1087.27 823.03 1087.27 823.03 994.2 823.03 986.96 823.03 907.45 823.03 897.77 823.03 894.03 823.03 880.15 823.03 873.35 633.44 873.35"/><text class="cls-2" transform="translate(742.57 897.77)"><tspan x="0" y="0">B104</tspan></text></g><g id="Layer_B106"><rect class="cls-7" x="595.73" y="924.28" width="37.72" height="37.72"/><text class="cls-1" transform="translate(598.13 947.36)"><tspan x="0" y="0">B106</tspan></text></g><g id="Layer_B107"><rect class="cls-7" x="485.26" y="871.8" width="80.66" height="30.74"/><text class="cls-3" transform="translate(499.07 893.46)"><tspan x="0" y="0">B107</tspan></text></g><g id="Layer_B108"><rect class="cls-7" x="485.26" y="902.55" width="27.33" height="56.17"/><text class="cls-4" transform="translate(479.6 934.6)"><tspan x="0" y="0">B108</tspan></text></g></svg>