<?xml version="1.0" encoding="UTF-8"?><svg xmlns="http://www.w3.org/2000/svg" viewBox="0 0 1800 1400"><defs><style>.cls-1,.cls-2{fill:#fdf3f2;}.cls-3{fill:#f5cbcc;}.cls-3,.cls-2,.cls-4,.cls-5{stroke-miterlimit:10;}.cls-3,.cls-4{stroke-width:2px;}.cls-3,.cls-4,.cls-5{stroke:#d88282;}.cls-2{stroke:#e18686;stroke-width:9px;}.cls-6,.cls-7{font-family:NanumSquareNeovariable-Heavy, 'NanumSquare Neo variable';font-variation-settings:'wght' 900;font-weight:800;}.cls-6,.cls-7,.cls-8{fill:#434142;}.cls-6,.cls-8{font-size:22px;}.cls-7{font-size:26px;}.cls-4,.cls-5{fill:none;}.cls-8{font-family:NanumSquareNeovariable-Regular, 'NanumSquare Neo variable';font-variation-settings:'wght' 300;}.cls-5{stroke-width:2.13px;}</style></defs><g id="Layer_border"><polygon class="cls-2" points="703.97 1111.52 703.97 1077.13 758.92 1077.13 758.92 1111.52 1508.56 1111.52 1508.56 691.33 1508.56 399.69 1525.69 399.69 1525.69 264.42 1237.78 264.42 1237.78 250.51 975.33 250.51 975.33 348.37 715.64 348.37 715.64 691.33 582.96 691.33 582.96 602.24 375.08 602.24 375.08 691.33 245.92 691.33 245.92 1111.52 703.97 1111.52"/><rect class="cls-1" x="1343.92" y="258.34" width="56.45" height="21.66"/></g><g id="Layer_others"><line class="cls-4" x1="1348.24" y1="703.14" x2="1348.24" y2="795.72"/><line class="cls-4" x1="1356.24" y1="703.14" x2="1356.24" y2="795.72"/><line class="cls-4" x1="1364.24" y1="703.14" x2="1364.24" y2="795.72"/><line class="cls-4" x1="1372.24" y1="703.14" x2="1372.24" y2="795.72"/><line class="cls-4" x1="1380.24" y1="703.14" x2="1380.24" y2="795.72"/><line class="cls-4" x1="1388.24" y1="703.14" x2="1388.24" y2="795.72"/><line class="cls-4" x1="1396.24" y1="703.14" x2="1396.24" y2="795.72"/><line class="cls-4" x1="1404.24" y1="703.14" x2="1404.24" y2="795.72"/><line class="cls-4" x1="1412.24" y1="703.14" x2="1412.24" y2="795.72"/><line class="cls-4" x1="1420.24" y1="703.14" x2="1420.24" y2="795.72"/><line class="cls-4" x1="1428.24" y1="703.14" x2="1428.24" y2="795.72"/><rect class="cls-4" x="1308.11" y="703.14" width="195.3" height="92.58"/><rect class="cls-4" x="1074.61" y="739.71" width="92.17" height="83.62"/><line class="cls-4" x1="818.94" y1="709.58" x2="818.94" y2="802.16"/><line class="cls-4" x1="826.94" y1="709.58" x2="826.94" y2="802.16"/><line class="cls-4" x1="834.94" y1="709.58" x2="834.94" y2="802.16"/><line class="cls-4" x1="842.94" y1="709.58" x2="842.94" y2="802.16"/><line class="cls-4" x1="850.94" y1="709.58" x2="850.94" y2="802.16"/><line class="cls-4" x1="858.94" y1="709.58" x2="858.94" y2="802.16"/><line class="cls-4" x1="866.94" y1="709.58" x2="866.94" y2="802.16"/><line class="cls-4" x1="874.94" y1="709.58" x2="874.94" y2="802.16"/><line class="cls-4" x1="882.94" y1="709.58" x2="882.94" y2="802.16"/><line class="cls-4" x1="890.94" y1="709.58" x2="890.94" y2="802.16"/><line class="cls-4" x1="898.94" y1="709.58" x2="898.94" y2="802.16"/><rect class="cls-4" x="762.6" y="709.58" width="181.01" height="92.58"/><polygon class="cls-4" points="1400.37 267.83 1400.37 353.01 1236.54 353.01 1236.54 381.04 1474.97 381.04 1474.97 397.01 1525.69 397.01 1525.69 381.04 1525.69 370.1 1525.69 357.56 1525.69 353.01 1525.69 267.83 1400.37 267.83"/><polygon class="cls-4" points="1343.92 236.21 1343.92 311.16 1236.54 311.16 1236.54 353.01 1400.37 353.01 1400.37 311.16 1400.37 236.21 1343.92 236.21"/><line class="cls-4" x1="1245.74" y1="311.16" x2="1245.74" y2="353.01"/><line class="cls-4" x1="1253.74" y1="311.16" x2="1253.74" y2="353.01"/><line class="cls-4" x1="1261.74" y1="311.16" x2="1261.74" y2="353.01"/><line class="cls-4" x1="1269.74" y1="311.16" x2="1269.74" y2="353.01"/><line class="cls-4" x1="1277.74" y1="311.16" x2="1277.74" y2="353.01"/><line class="cls-4" x1="1285.74" y1="311.16" x2="1285.74" y2="353.01"/><line class="cls-4" x1="1293.74" y1="311.16" x2="1293.74" y2="353.01"/><line class="cls-4" x1="1301.74" y1="311.16" x2="1301.74" y2="353.01"/><line class="cls-4" x1="1309.74" y1="311.16" x2="1309.74" y2="353.01"/><line class="cls-4" x1="1317.74" y1="311.16" x2="1317.74" y2="353.01"/><line class="cls-4" x1="1325.74" y1="311.16" x2="1325.74" y2="353.01"/><line class="cls-4" x1="1333.74" y1="311.16" x2="1333.74" y2="353.01"/><line class="cls-4" x1="1344.12" y1="301.11" x2="1400.37" y2="301.11"/><line class="cls-4" x1="1344.12" y1="293.11" x2="1400.37" y2="293.11"/><line class="cls-4" x1="1344.12" y1="285.11" x2="1400.37" y2="285.11"/><line class="cls-4" x1="1344.12" y1="277.11" x2="1400.37" y2="277.11"/><line class="cls-4" x1="1344.12" y1="269.11" x2="1400.37" y2="269.11"/><line class="cls-4" x1="1344.12" y1="261.11" x2="1400.37" y2="261.11"/><line class="cls-4" x1="1344.12" y1="253.11" x2="1400.37" y2="253.11"/><line class="cls-4" x1="1344.12" y1="245.11" x2="1400.37" y2="245.11"/><polygon class="cls-4" points="1233.06 250.51 977.39 250.51 977.39 294.61 977.39 304.95 977.39 353.01 1033.26 353.01 1033.26 304.95 1233.06 304.95 1233.06 250.51"/><polyline class="cls-4" points="1008.94 353.01 1008.94 558.59 1236.54 558.59 1236.54 381.04"/><rect class="cls-4" x="1092.72" y="527.05" width="61.97" height="55.12"/><line class="cls-4" x1="762.6" y1="802.16" x2="699.87" y2="802.16"/><line class="cls-4" x1="762.6" y1="810.16" x2="699.87" y2="810.16"/><line class="cls-4" x1="762.6" y1="818.16" x2="699.87" y2="818.16"/><line class="cls-4" x1="762.6" y1="826.16" x2="699.87" y2="826.16"/><line class="cls-4" x1="762.6" y1="834.16" x2="699.87" y2="834.16"/><line class="cls-4" x1="762.6" y1="842.16" x2="699.87" y2="842.16"/><line class="cls-4" x1="762.6" y1="850.16" x2="699.87" y2="850.16"/><line class="cls-4" x1="762.6" y1="858.16" x2="699.87" y2="858.16"/><rect class="cls-4" x="700.2" y="755.87" width="62.4" height="318.37"/><polygon class="cls-4" points="505.09 865.55 505.09 988.05 464.68 988.05 464.68 865.55 392.33 865.55 392.33 1045.99 407.01 1045.99 464.68 1045.99 505.09 1045.99 577.44 1045.99 577.44 988.05 577.44 865.55 505.09 865.55"/><rect class="cls-4" x="249.22" y="865.55" width="450.98" height="219.77"/><line class="cls-4" x1="464.68" y1="876.44" x2="392.33" y2="876.44"/><line class="cls-4" x1="464.68" y1="884.44" x2="392.33" y2="884.44"/><line class="cls-4" x1="464.68" y1="892.44" x2="392.33" y2="892.44"/><line class="cls-4" x1="464.68" y1="900.44" x2="392.33" y2="900.44"/><line class="cls-4" x1="464.68" y1="908.44" x2="392.33" y2="908.44"/><line class="cls-4" x1="464.68" y1="916.44" x2="392.33" y2="916.44"/><line class="cls-4" x1="464.68" y1="924.44" x2="392.33" y2="924.44"/><line class="cls-4" x1="464.68" y1="932.44" x2="392.33" y2="932.44"/><line class="cls-4" x1="464.68" y1="939.62" x2="392.33" y2="939.62"/><line class="cls-4" x1="464.68" y1="947.62" x2="392.33" y2="947.62"/><line class="cls-4" x1="464.68" y1="955.62" x2="392.33" y2="955.62"/><line class="cls-4" x1="464.68" y1="963.62" x2="392.33" y2="963.62"/><line class="cls-4" x1="464.68" y1="970.3" x2="392.33" y2="970.3"/><line class="cls-4" x1="464.68" y1="978.3" x2="392.33" y2="978.3"/><line class="cls-4" x1="464.68" y1="986.3" x2="392.33" y2="986.3"/><line class="cls-4" x1="577.44" y1="875.91" x2="505.09" y2="875.91"/><line class="cls-4" x1="577.44" y1="883.91" x2="505.09" y2="883.91"/><line class="cls-4" x1="577.44" y1="891.91" x2="505.09" y2="891.91"/><line class="cls-4" x1="577.44" y1="899.91" x2="505.09" y2="899.91"/><line class="cls-4" x1="577.44" y1="907.91" x2="505.09" y2="907.91"/><line class="cls-4" x1="577.44" y1="915.91" x2="505.09" y2="915.91"/><line class="cls-4" x1="577.44" y1="923.91" x2="505.09" y2="923.91"/><line class="cls-4" x1="577.44" y1="931.91" x2="505.09" y2="931.91"/><line class="cls-4" x1="577.44" y1="939.09" x2="505.09" y2="939.09"/><line class="cls-4" x1="577.44" y1="947.09" x2="505.09" y2="947.09"/><line class="cls-4" x1="577.44" y1="955.09" x2="505.09" y2="955.09"/><line class="cls-4" x1="577.44" y1="963.09" x2="505.09" y2="963.09"/><line class="cls-4" x1="577.44" y1="969.77" x2="505.09" y2="969.77"/><line class="cls-4" x1="577.44" y1="977.77" x2="505.09" y2="977.77"/><line class="cls-4" x1="577.44" y1="985.77" x2="505.09" y2="985.77"/><polyline class="cls-4" points="700.2 755.87 700.2 713.46 552.98 713.46 552.98 692.06 589.84 692.06"/><polyline class="cls-4" points="401.45 692.06 401.45 713.58 249.22 713.58"/><line class="cls-4" x1="378.72" y1="691.69" x2="402.5" y2="691.69"/><rect class="cls-4" x="402.5" y="659.4" width="150.48" height="99.05"/></g><g id="Layer_101"><rect class="cls-3" x="934.82" y="381.58" width="74.12" height="177.01"/><text class="cls-6" transform="translate(952.36 455.8)"><tspan x="0" y="0">101</tspan></text></g><g id="Layer_101A"><rect class="cls-3" x="834.94" y="381.58" width="99.87" height="111" transform="translate(1769.76 874.15) rotate(180)"/><text class="cls-6" transform="translate(857.51 439.72)"><tspan x="0" y="0">101A</tspan></text></g><g id="Layer_102"><polygon class="cls-3" points="836.64 492.57 836.64 381.58 762.6 381.58 762.6 599.14 806.6 599.14 836.64 599.14 934.82 599.14 934.82 492.57 836.64 492.57"/><text class="cls-6" transform="translate(825.68 550.66)"><tspan x="0" y="0">102</tspan></text></g><g id="Layer_103"><polygon class="cls-3" points="1104.79 919.86 1093.08 919.86 879.73 919.86 879.73 993.85 762.6 993.85 762.6 1107.99 1104.79 1107.99 1104.79 965.75 1209.86 965.75 1209.86 919.86 1104.79 919.86"/><text class="cls-7" transform="translate(917.84 1015.27)"><tspan x="0" y="0">103</tspan></text><text class="cls-8" transform="translate(860.18 1046.45)"><tspan x="0" y="0">현장실습지원센터</tspan></text></g><g id="Layer_103A"><rect class="cls-3" x="1104.79" y="965.75" width="105.07" height="142.24" transform="translate(2314.64 2073.73) rotate(180)"/><text class="cls-7" transform="translate(1121.18 1042.95)"><tspan x="0" y="0">103A</tspan></text></g><g id="Layer_103B"><rect class="cls-3" x="762.6" y="919.86" width="117.13" height="74"/><text class="cls-7" transform="translate(787.62 964.51)"><tspan x="0" y="0">103B</tspan></text></g><g id="Layer_105"><rect class="cls-3" x="1308.11" y="795.72" width="195.3" height="312.27"/><text class="cls-7" transform="translate(1380.29 957.42)"><tspan x="0" y="0">105</tspan></text></g><g id="Layer_105A"><rect class="cls-3" x="1209.86" y="919.86" width="98.25" height="76.41"/><text class="cls-7" transform="translate(1223.14 966.98)"><tspan x="0" y="0">105A</tspan></text></g><g id="Layer_105B"><rect class="cls-3" x="1209.86" y="996.26" width="98.25" height="111.72"/><text class="cls-7" transform="translate(1223.62 1057.02)"><tspan x="0" y="0">105B</tspan></text></g><g id="Layer_106"><polygon class="cls-3" points="1475.93 397.01 1475.93 381.04 1236.54 381.04 1236.54 558.59 1308.11 558.59 1308.11 703.14 1505.7 703.14 1505.7 558.59 1505.7 534.58 1505.7 397.01 1475.93 397.01"/><text class="cls-7" transform="translate(1380.01 534.58)"><tspan x="0" y="0">106</tspan></text><polyline class="cls-4" points="1505.7 499.95 1461.55 499.95 1461.55 542.09 1353.79 542.09 1353.79 703.14"/><text class="cls-6" transform="translate(1389.67 625.34)"><tspan x="0" y="0">106A</tspan></text><polyline class="cls-5" points="1350.34 381.58 1350.34 505.04 1308.32 505.04 1308.32 558.59"/><text class="cls-6" transform="translate(1266.7 455.8)"><tspan x="0" y="0">106B</tspan></text><polyline class="cls-5" points="1430.21 381.58 1430.21 506.29 1365.53 506.29"/><text class="cls-6" transform="translate(1357.81 455.8)"><tspan x="0" y="0">106C</tspan></text><text class="cls-6" transform="translate(1439.31 455.8)"><tspan x="0" y="0">106D</tspan></text><text class="cls-8" transform="translate(1332.76 564.3)"><tspan x="0" y="0">장애학생휴게실</tspan></text></g><g id="Layer_toilet1"><rect class="cls-4" x="762.6" y="599.14" width="181.01" height="110.44"/></g><g id="Layer_toilet2"><rect class="cls-4" x="762.6" y="802.16" width="181.01" height="117.7"/></g></svg>