<?xml version="1.0" encoding="UTF-8"?>
<svg
  id="Layer_1"
  data-name="Layer 1"
  xmlns="http://www.w3.org/2000/svg"
  version="1.1"
  viewBox="0 0 1000 1000"
>
  <defs>
    <style>
      .cls-1 {
        fill: #fed0d0;
      }

      .cls-1,
      .cls-2,
      .cls-3,
      .cls-4,
      .cls-5,
      .cls-6 {
        stroke: #ea8b8b;
        stroke-miterlimit: 10;
      }

      .cls-1,
      .cls-5,
      .cls-6 {
        stroke-width: 3px;
      }

      .cls-7 {
        font-family: NanumSquareNeoTTF-dEb, "NanumSquare Neo";
        font-size: 11.45px;
      }

      .cls-7,
      .cls-4 {
        fill: #000;
      }

      .cls-7,
      .cls-8 {
        isolation: isolate;
      }

      .cls-2,
      .cls-4 {
        stroke-width: 0.25px;
      }

      .cls-2,
      .cls-6 {
        fill: none;
      }

      .cls-3 {
        fill: #fef3f2;
        stroke-width: 10px;
      }

      .cls-4 {
        fill-rule: evenodd;
      }

      .cls-5 {
        fill: #ffcecf;
      }
    </style>
  </defs>
  <g id="Layer_border">
    <polygon
      class="cls-3"
      points="93 284.47 93 796.57 620.74 796.57 620.74 858.15 876 857.98 876 584.7 731.08 584.7 727.55 342.52 394.84 342.52 394.84 142.52 239.2 142.52 239.2 283.32 93 284.47"
    />
  </g>
  <g id="Layer_2" data-name="Layer 2">
    <rect class="cls-1" x="790.72" y="670.81" width="84.71" height="46.93" />
    <g class="cls-8">
      <text class="cls-7" transform="translate(820.22 697.88)">
        <tspan x="0" y="0">104</tspan>
      </text>
    </g>
  </g>
  <g id="Layer_16" data-name="Layer 16">
    <rect class="cls-1" x="790.72" y="717.75" width="84.71" height="38.92" />
    <g class="cls-8">
      <text class="cls-7" transform="translate(821.39 740.24)">
        <tspan x="0" y="0">103</tspan>
      </text>
    </g>
  </g>
  <g id="Layer_17" data-name="Layer 17">
    <rect class="cls-1" x="790.72" y="756.67" width="41.21" height="29.76" />
    <g class="cls-8">
      <text class="cls-7" transform="translate(796.29 774.58)">
        <tspan x="0" y="0">103A</tspan>
      </text>
    </g>
  </g>
  <g id="Layer_18" data-name="Layer 18">
    <polygon
      class="cls-1"
      points="876 857.98 875.43 786.43 790.72 786.43 790.72 812.59 768.97 812.59 768.97 858.15 876 857.98"
    />
    <g class="cls-8">
      <text class="cls-7" transform="translate(815.79 826.09)">
        <tspan x="0" y="0">102</tspan>
      </text>
    </g>
  </g>
  <g id="Layer_19" data-name="Layer 19">
    <polygon
      class="cls-1"
      points="614.25 685.7 614.25 796.57 620.74 796.57 620.74 858.15 768.97 858.15 768.97 786.43 693.41 786.43 693.41 685.7 614.25 685.7"
    />
    <g class="cls-8">
      <text class="cls-7" transform="translate(652.06 792.9)">
        <tspan x="0" y="0">101</tspan>
      </text>
    </g>
  </g>
  <g id="Layer_20" data-name="Layer 20">
    <rect class="cls-6" x="733.48" y="685.7" width="35.49" height="100.74" />
  </g>
  <g id="Layer_21" data-name="Layer 21">
    <rect class="cls-6" x="693.41" y="685.7" width="40.07" height="100.74" />
  </g>
  <g id="Layer_3" data-name="Layer 3">
    <polygon
      class="cls-1"
      points="790.72 652.5 790.72 670.81 875.43 670.81 876 584.7 806.74 584.96 806.74 652.5 790.72 652.5"
    />
    <g class="cls-8">
      <text class="cls-7" transform="translate(824.56 633.46)">
        <tspan x="0" y="0">105</tspan>
      </text>
    </g>
  </g>
  <g id="Layer_4" data-name="Layer 4">
    <polygon
      class="cls-1"
      points="669.38 547.09 693.41 547.09 693.41 524.29 726.61 524.29 726.61 462.47 669.38 462.47 669.38 547.09"
    />
    <g class="cls-8">
      <text class="cls-7" transform="translate(687.07 500.67)">
        <tspan x="0" y="0">106</tspan>
      </text>
    </g>
  </g>
  <g id="Layer_5" data-name="Layer 5">
    <rect class="cls-1" x="669.38" y="342.27" width="57.24" height="120.2" />
    <g class="cls-8">
      <text class="cls-7" transform="translate(683.34 409.1)">
        <tspan x="0" y="0">107A</tspan>
      </text>
    </g>
  </g>
  <g id="Layer_6" data-name="Layer 6">
    <rect class="cls-1" x="615.57" y="410.96" width="53.8" height="113.33" />
    <g class="cls-8">
      <text class="cls-7" transform="translate(632.25 472.23)">
        <tspan x="0" y="0">107</tspan>
      </text>
    </g>
  </g>
  <g id="Layer_7" data-name="Layer 7">
    <rect class="cls-1" x="615.57" y="342.27" width="53.8" height="68.68" />
    <g class="cls-8">
      <text class="cls-7" transform="translate(627.85 381.7)">
        <tspan x="0" y="0">107B</tspan>
      </text>
    </g>
  </g>
  <g id="Layer_8" data-name="Layer 8">
    <rect class="cls-1" x="344.27" y="342.27" width="271.3" height="182.01" />
    <g class="cls-8">
      <text class="cls-7" transform="translate(472.94 433.95)">
        <tspan x="0" y="0">108</tspan>
      </text>
      <text class="cls-7" transform="translate(462.47 447.69)">
        <tspan x="0" y="0">최종현홀</tspan>
      </text>
    </g>
  </g>
  <g id="Layer_9" data-name="Layer 9">
    <rect class="cls-1" x="378.61" y="287.33" width="16.03" height="57.24" />
  </g>
  <g id="Layer_10" data-name="Layer 10">
    <rect class="cls-6" x="344.27" y="287.33" width="34.34" height="57.24" />
  </g>
  <g id="Layer_11" data-name="Layer 11">
    <rect class="cls-6" x="367.16" y="251.84" width="27.47" height="21.75" />
  </g>
  <g id="Layer_12" data-name="Layer 12">
    <rect class="cls-6" x="344.27" y="251.84" width="22.89" height="21.75" />
  </g>
  <g id="Layer_13" data-name="Layer 13">
    <rect class="cls-6" x="344.27" y="175.14" width="50.37" height="61.82" />
  </g>
  <g id="Layer_others">
    <rect class="cls-6" x="315.65" y="140.8" width="80.13" height="34.34" />
    <g>
      <path class="cls-2" d="M394.07,174.17v.4M361.37,140.23v.4" />
      <path class="cls-2" d="M361.37,141.04v32.73" />
      <path class="cls-2" d="M361.37,174.17v.4M350.06,140.23v.4" />
      <path class="cls-2" d="M350.06,141.04v32.73" />
      <path class="cls-2" d="M350.06,174.17v.4" />
      <path class="cls-2" d="M390.06,174.57h-28.72" />
      <path class="cls-2" d="M388.01,140.23h2.06M394.07,140.23h-.11" />
      <path class="cls-2" d="M385.95,140.23h-24.6" />
      <path class="cls-2" d="M350.06,174.57h-30.78" />
      <path class="cls-2" d="M350.06,140.23h-30.78" />
      <path class="cls-2" d="M388.01,140.23v.4" />
      <path class="cls-2" d="M388.01,141.04v32.73" />
      <path class="cls-2" d="M388.01,174.17v.4M385.95,140.23v.4" />
      <path class="cls-2" d="M385.95,141.04v32.73" />
      <path class="cls-2" d="M385.95,174.17v.4M383.89,140.23v.4" />
      <path class="cls-2" d="M383.89,141.04v32.73" />
      <path class="cls-2" d="M383.89,174.17v.4M381.83,140.23v.4" />
      <path class="cls-2" d="M381.83,141.04v32.73" />
      <path class="cls-2" d="M381.83,174.17v.4M379.78,140.23v.4" />
      <path class="cls-2" d="M379.78,141.04v32.73" />
      <path class="cls-2" d="M379.78,174.17v.4M377.72,140.23v.4" />
      <path class="cls-2" d="M377.72,141.04v32.73" />
      <path class="cls-2" d="M377.72,174.17v.4M375.66,140.23v.4" />
      <path class="cls-2" d="M375.66,141.04v32.73" />
      <path class="cls-2" d="M375.66,174.17v.4M373.6,140.23v.4" />
      <path class="cls-2" d="M373.6,141.04v32.73" />
      <path class="cls-2" d="M373.6,174.17v.4M371.55,140.23v.4" />
      <path class="cls-2" d="M371.55,141.04v32.73" />
      <path class="cls-2" d="M371.55,174.17v.4M369.6,140.23v.4" />
      <path class="cls-2" d="M369.6,141.04v32.73" />
      <path class="cls-2" d="M369.6,174.17v.4M367.55,140.23v.4" />
      <path class="cls-2" d="M367.55,141.04v32.73" />
      <path class="cls-2" d="M367.55,174.17v.4M365.49,140.23v.4" />
      <path class="cls-2" d="M365.49,141.04v32.73" />
      <path class="cls-2" d="M365.49,174.17v.4M363.43,140.23v.4" />
      <path class="cls-2" d="M363.43,141.04v32.73" />
      <path class="cls-2" d="M363.43,174.17v.4M361.37,140.23v.4" />
      <path class="cls-2" d="M361.37,141.04v32.73" />
      <path class="cls-2" d="M361.37,174.17v.4M350.06,140.23v.4" />
      <path class="cls-2" d="M350.06,141.04v32.73" />
      <path class="cls-2" d="M350.06,174.17v.4M348,140.23v.4" />
      <path class="cls-2" d="M348,141.04v32.73" />
      <path class="cls-2" d="M348,174.17v.4M345.94,140.23v.4" />
      <path class="cls-2" d="M345.94,141.04v32.73" />
      <path class="cls-2" d="M345.94,174.17v.4M343.88,140.23v.4" />
      <path class="cls-2" d="M343.88,141.04v32.73" />
      <path class="cls-2" d="M343.88,174.17v.4M341.83,140.23v.4" />
      <path class="cls-2" d="M341.83,141.04v32.73" />
      <path class="cls-2" d="M341.83,174.17v.4M339.77,140.23v.4" />
      <path class="cls-2" d="M339.77,141.04v32.73" />
      <path class="cls-2" d="M339.77,174.17v.4M337.71,140.23v.4" />
      <path class="cls-2" d="M337.71,141.04v32.73" />
      <path class="cls-2" d="M337.71,174.17v.4M335.65,140.23v.4" />
      <path class="cls-2" d="M335.65,141.04v32.73" />
      <path class="cls-2" d="M335.65,174.17v.4M333.6,140.23v.4" />
      <path class="cls-2" d="M333.6,141.04v32.73" />
      <path class="cls-2" d="M333.6,174.17v.4M331.65,140.23v.4" />
      <path class="cls-2" d="M331.65,141.04v32.73" />
      <path class="cls-2" d="M331.65,174.17v.4M329.6,140.23v.4" />
      <path class="cls-2" d="M329.6,141.04v32.73" />
      <path class="cls-2" d="M329.6,174.17v.4M327.54,140.23v.4" />
      <path class="cls-2" d="M327.54,141.04v32.73" />
      <path class="cls-2" d="M327.54,174.17v.4M325.48,140.23v.4" />
      <path class="cls-2" d="M325.48,141.04v32.73" />
      <path class="cls-2" d="M325.48,174.17v.4M323.42,140.23v.4" />
      <path class="cls-2" d="M323.42,141.04v32.73" />
      <path class="cls-2" d="M323.42,174.17v.4M321.37,140.23v.4" />
      <path class="cls-2" d="M321.37,141.04v32.73" />
      <path class="cls-2" d="M321.37,174.17v.4M388.01,140.23v.4" />
      <path class="cls-2" d="M388.01,141.04v32.73" />
      <path class="cls-2" d="M388.01,174.17v.4M385.95,140.23v.4" />
      <path class="cls-2" d="M385.95,141.04v32.73" />
      <path class="cls-2" d="M385.95,174.17v.4M383.89,140.23v.4" />
      <path class="cls-2" d="M383.89,141.04v32.73" />
      <path class="cls-2" d="M383.89,174.17v.4M381.83,140.23v.4" />
      <path class="cls-2" d="M381.83,141.04v32.73" />
      <path class="cls-2" d="M381.83,174.17v.4M379.78,140.23v.4" />
      <path class="cls-2" d="M379.78,141.04v32.73" />
      <path class="cls-2" d="M379.78,174.17v.4M377.72,140.23v.4" />
      <path class="cls-2" d="M377.72,141.04v32.73" />
      <path class="cls-2" d="M377.72,174.17v.4M375.66,140.23v.4" />
      <path class="cls-2" d="M375.66,141.04v32.73" />
      <path class="cls-2" d="M375.66,174.17v.4M373.6,140.23v.4" />
      <path class="cls-2" d="M373.6,141.04v32.73" />
      <path class="cls-2" d="M373.6,174.17v.4M371.55,140.23v.4" />
      <path class="cls-2" d="M371.55,141.04v32.73" />
      <path class="cls-2" d="M371.55,174.17v.4M369.6,140.23v.4" />
      <path class="cls-2" d="M369.6,141.04v32.73" />
      <path class="cls-2" d="M369.6,174.17v.4M367.55,140.23v.4" />
      <path class="cls-2" d="M367.55,141.04v32.73" />
      <path class="cls-2" d="M367.55,174.17v.4M365.49,140.23v.4" />
      <path class="cls-2" d="M365.49,141.04v32.73" />
      <path class="cls-2" d="M365.49,174.17v.4M363.43,140.23v.4" />
      <path class="cls-2" d="M363.43,141.04v32.73" />
      <path class="cls-2" d="M363.43,174.17v.4M348,140.23v.4" />
      <path class="cls-2" d="M348,141.04v32.73" />
      <path class="cls-2" d="M348,174.17v.4M345.94,140.23v.4" />
      <path class="cls-2" d="M345.94,141.04v32.73" />
      <path class="cls-2" d="M345.94,174.17v.4M343.88,140.23v.4" />
      <path class="cls-2" d="M343.88,141.04v32.73" />
      <path class="cls-2" d="M343.88,174.17v.4M341.83,140.23v.4" />
      <path class="cls-2" d="M341.83,141.04v32.73" />
      <path class="cls-2" d="M341.83,174.17v.4M339.77,140.23v.4" />
      <path class="cls-2" d="M339.77,141.04v32.73" />
      <path class="cls-2" d="M339.77,174.17v.4M337.71,140.23v.4" />
      <path class="cls-2" d="M337.71,141.04v32.73" />
      <path class="cls-2" d="M337.71,174.17v.4M335.65,140.23v.4" />
      <path class="cls-2" d="M335.65,141.04v32.73" />
      <path class="cls-2" d="M335.65,174.17v.4M333.6,140.23v.4" />
      <path class="cls-2" d="M333.6,141.04v32.73" />
      <path class="cls-2" d="M333.6,174.17v.4M331.65,140.23v.4" />
      <path class="cls-2" d="M331.65,141.04v32.73" />
      <path class="cls-2" d="M331.65,174.17v.4M329.6,140.23v.4" />
      <path class="cls-2" d="M329.6,141.04v32.73" />
      <path class="cls-2" d="M329.6,174.17v.4M327.54,140.23v.4" />
      <path class="cls-2" d="M327.54,141.04v32.73" />
      <path class="cls-2" d="M327.54,174.17v.4M325.48,140.23v.4" />
      <path class="cls-2" d="M325.48,141.04v32.73" />
      <path class="cls-2" d="M325.48,174.17v.4M323.42,140.23v.4" />
      <path class="cls-2" d="M323.42,141.04v32.73" />
      <path class="cls-2" d="M323.42,174.17v.4M321.37,140.23v.4" />
      <path class="cls-2" d="M321.37,141.04v32.73" />
      <path class="cls-2" d="M321.37,174.17v.4" />
      <path class="cls-2" d="M394.07,174.17v-.4h-78.87v.4" />
      <path class="cls-2" d="M394.07,174.17h-78.87" />
      <path class="cls-2" d="M394.07,141.04v-.4h-78.87v.4" />
      <path class="cls-2" d="M394.07,141.04h-78.87" />
      <path class="cls-2" d="M316.79,159.35l-1.6-2.02,1.6-1.89" />
      <path class="cls-2" d="M316.79,159.35l.34-.54M316.79,155.45l.34.54" />
      <path class="cls-2" d="M317.14,158.81l-1.14-1.48,1.14-1.35" />
      <path class="cls-2" d="M319.31,140.23v.4" />
      <path class="cls-2" d="M319.31,141.04v32.73" />
      <path class="cls-2" d="M319.31,174.17v.4M319.31,140.23v.4" />
      <path class="cls-2" d="M319.31,141.04v32.73" />
      <path class="cls-2" d="M319.31,174.17v.4M317.25,140.23v.4" />
      <path class="cls-2" d="M317.25,141.04v32.73" />
      <path class="cls-2" d="M317.25,174.17v.4M317.25,140.23v.4" />
      <path class="cls-2" d="M317.25,141.04v32.73" />
      <path class="cls-2" d="M317.25,174.17v.4M315.19,140.23v.4" />
      <path class="cls-2" d="M315.19,141.04v32.73" />
      <path class="cls-2" d="M315.19,174.17v.4M315.19,140.23v.4" />
      <path class="cls-2" d="M315.19,141.04v32.73" />
      <path
        class="cls-2"
        d="M315.19,174.17v.4M317.25,174.57h2.06M317.25,140.23h2.06M315.19,174.57h2.06M315.19,140.23h2.06M390.06,140.23v.4"
      />
      <path class="cls-2" d="M390.06,141.04v32.73" />
      <path class="cls-2" d="M390.06,174.17v.4M390.06,140.23v.4" />
      <path class="cls-2" d="M390.06,141.04v32.73" />
      <path class="cls-2" d="M390.06,140.23h2.06v.4" />
      <path class="cls-2" d="M392.12,141.04v32.73" />
      <path class="cls-2" d="M392.12,174.17v.4M392.12,140.23v.4" />
      <path class="cls-2" d="M392.12,141.04v32.73" />
      <path class="cls-2" d="M392.12,174.17v.4h1.94" />
      <path class="cls-2" d="M315.19,140.9v-.13" />
      <path class="cls-2" d="M315.19,140.9h-.11" />
      <path class="cls-2" d="M315.19,173.9v.13" />
      <path class="cls-2" d="M315.19,173.9h-.11" />
    </g>
    <rect class="cls-6" x="733.48" y="584.96" width="73.26" height="33.2" />
    <rect class="cls-1" x="790.72" y="618.16" width="16.03" height="34.34" />
    <rect class="cls-1" x="757.52" y="618.16" width="33.2" height="34.34" />
    <rect class="cls-1" x="714.02" y="614.72" width="19.46" height="37.78" />
    <rect class="cls-1" x="714.02" y="584.96" width="19.46" height="29.76" />
    <rect class="cls-1" x="693.41" y="584.96" width="20.61" height="67.54" />
    <rect class="cls-1" x="693.41" y="524.29" width="33.2" height="61.82" />
    <g>
      <path class="cls-2" d="M806.17,617.18v.41M776.48,583.02v.41" />
      <path class="cls-2" d="M776.48,583.84v32.94" />
      <path class="cls-2" d="M776.48,617.18v.41M766.2,583.02v.41" />
      <path class="cls-2" d="M766.2,583.84v32.94" />
      <path class="cls-2" d="M766.2,617.18v.41" />
      <path class="cls-2" d="M802.54,617.58h-26.07" />
      <path class="cls-2" d="M800.67,583.02h1.87M806.17,583.02h-.1" />
      <path class="cls-2" d="M798.8,583.02h-22.33" />
      <path class="cls-2" d="M766.2,617.58h-27.94" />
      <path class="cls-2" d="M766.2,583.02h-27.94" />
      <path class="cls-2" d="M800.67,583.02v.41" />
      <path class="cls-2" d="M800.67,583.84v32.94" />
      <path class="cls-2" d="M800.67,617.18v.41M798.8,583.02v.41" />
      <path class="cls-2" d="M798.8,583.84v32.94" />
      <path class="cls-2" d="M798.8,617.18v.41M796.93,583.02v.41" />
      <path class="cls-2" d="M796.93,583.84v32.94" />
      <path class="cls-2" d="M796.93,617.18v.41M795.06,583.02v.41" />
      <path class="cls-2" d="M795.06,583.84v32.94" />
      <path class="cls-2" d="M795.06,617.18v.41M793.19,583.02v.41" />
      <path class="cls-2" d="M793.19,583.84v32.94" />
      <path class="cls-2" d="M793.19,617.18v.41M791.32,583.02v.41" />
      <path class="cls-2" d="M791.32,583.84v32.94" />
      <path class="cls-2" d="M791.32,617.18v.41M789.46,583.02v.41" />
      <path class="cls-2" d="M789.46,583.84v32.94" />
      <path class="cls-2" d="M789.46,617.18v.41M787.59,583.02v.41" />
      <path class="cls-2" d="M787.59,583.84v32.94" />
      <path class="cls-2" d="M787.59,617.18v.41M785.72,583.02v.41" />
      <path class="cls-2" d="M785.72,583.84v32.94" />
      <path class="cls-2" d="M785.72,617.18v.41M783.95,583.02v.41" />
      <path class="cls-2" d="M783.95,583.84v32.94" />
      <path class="cls-2" d="M783.95,617.18v.41M782.08,583.02v.41" />
      <path class="cls-2" d="M782.08,583.84v32.94" />
      <path class="cls-2" d="M782.08,617.18v.41M780.22,583.02v.41" />
      <path class="cls-2" d="M780.22,583.84v32.94" />
      <path class="cls-2" d="M780.22,617.18v.41M778.35,583.02v.41" />
      <path class="cls-2" d="M778.35,583.84v32.94" />
      <path class="cls-2" d="M778.35,617.18v.41M776.48,583.02v.41" />
      <path class="cls-2" d="M776.48,583.84v32.94" />
      <path class="cls-2" d="M776.48,617.18v.41M766.2,583.02v.41" />
      <path class="cls-2" d="M766.2,583.84v32.94" />
      <path class="cls-2" d="M766.2,617.18v.41M764.33,583.02v.41" />
      <path class="cls-2" d="M764.33,583.84v32.94" />
      <path class="cls-2" d="M764.33,617.18v.41M762.46,583.02v.41" />
      <path class="cls-2" d="M762.46,583.84v32.94" />
      <path class="cls-2" d="M762.46,617.18v.41M760.59,583.02v.41" />
      <path class="cls-2" d="M760.59,583.84v32.94" />
      <path class="cls-2" d="M760.59,617.18v.41M758.72,583.02v.41" />
      <path class="cls-2" d="M758.72,583.84v32.94" />
      <path class="cls-2" d="M758.72,617.18v.41M756.86,583.02v.41" />
      <path class="cls-2" d="M756.86,583.84v32.94" />
      <path class="cls-2" d="M756.86,617.18v.41M754.99,583.02v.41" />
      <path class="cls-2" d="M754.99,583.84v32.94" />
      <path class="cls-2" d="M754.99,617.18v.41M753.12,583.02v.41" />
      <path class="cls-2" d="M753.12,583.84v32.94" />
      <path class="cls-2" d="M753.12,617.18v.41M751.25,583.02v.41" />
      <path class="cls-2" d="M751.25,583.84v32.94" />
      <path class="cls-2" d="M751.25,617.18v.41M749.48,583.02v.41" />
      <path class="cls-2" d="M749.48,583.84v32.94" />
      <path class="cls-2" d="M749.48,617.18v.41M747.62,583.02v.41" />
      <path class="cls-2" d="M747.62,583.84v32.94" />
      <path class="cls-2" d="M747.62,617.18v.41M745.75,583.02v.41" />
      <path class="cls-2" d="M745.75,583.84v32.94" />
      <path class="cls-2" d="M745.75,617.18v.41M743.88,583.02v.41" />
      <path class="cls-2" d="M743.88,583.84v32.94" />
      <path class="cls-2" d="M743.88,617.18v.41M742.01,583.02v.41" />
      <path class="cls-2" d="M742.01,583.84v32.94" />
      <path class="cls-2" d="M742.01,617.18v.41M740.14,583.02v.41" />
      <path class="cls-2" d="M740.14,583.84v32.94" />
      <path class="cls-2" d="M740.14,617.18v.41M800.67,583.02v.41" />
      <path class="cls-2" d="M800.67,583.84v32.94" />
      <path class="cls-2" d="M800.67,617.18v.41M798.8,583.02v.41" />
      <path class="cls-2" d="M798.8,583.84v32.94" />
      <path class="cls-2" d="M798.8,617.18v.41M796.93,583.02v.41" />
      <path class="cls-2" d="M796.93,583.84v32.94" />
      <path class="cls-2" d="M796.93,617.18v.41M795.06,583.02v.41" />
      <path class="cls-2" d="M795.06,583.84v32.94" />
      <path class="cls-2" d="M795.06,617.18v.41M793.19,583.02v.41" />
      <path class="cls-2" d="M793.19,583.84v32.94" />
      <path class="cls-2" d="M793.19,617.18v.41M791.32,583.02v.41" />
      <path class="cls-2" d="M791.32,583.84v32.94" />
      <path class="cls-2" d="M791.32,617.18v.41M789.46,583.02v.41" />
      <path class="cls-2" d="M789.46,583.84v32.94" />
      <path class="cls-2" d="M789.46,617.18v.41M787.59,583.02v.41" />
      <path class="cls-2" d="M787.59,583.84v32.94" />
      <path class="cls-2" d="M787.59,617.18v.41M785.72,583.02v.41" />
      <path class="cls-2" d="M785.72,583.84v32.94" />
      <path class="cls-2" d="M785.72,617.18v.41M783.95,583.02v.41" />
      <path class="cls-2" d="M783.95,583.84v32.94" />
      <path class="cls-2" d="M783.95,617.18v.41M782.08,583.02v.41" />
      <path class="cls-2" d="M782.08,583.84v32.94" />
      <path class="cls-2" d="M782.08,617.18v.41M780.22,583.02v.41" />
      <path class="cls-2" d="M780.22,583.84v32.94" />
      <path class="cls-2" d="M780.22,617.18v.41M778.35,583.02v.41" />
      <path class="cls-2" d="M778.35,583.84v32.94" />
      <path class="cls-2" d="M778.35,617.18v.41M764.33,583.02v.41" />
      <path class="cls-2" d="M764.33,583.84v32.94" />
      <path class="cls-2" d="M764.33,617.18v.41M762.46,583.02v.41" />
      <path class="cls-2" d="M762.46,583.84v32.94" />
      <path class="cls-2" d="M762.46,617.18v.41M760.59,583.02v.41" />
      <path class="cls-2" d="M760.59,583.84v32.94" />
      <path class="cls-2" d="M760.59,617.18v.41M758.72,583.02v.41" />
      <path class="cls-2" d="M758.72,583.84v32.94" />
      <path class="cls-2" d="M758.72,617.18v.41M756.86,583.02v.41" />
      <path class="cls-2" d="M756.86,583.84v32.94" />
      <path class="cls-2" d="M756.86,617.18v.41M754.99,583.02v.41" />
      <path class="cls-2" d="M754.99,583.84v32.94" />
      <path class="cls-2" d="M754.99,617.18v.41M753.12,583.02v.41" />
      <path class="cls-2" d="M753.12,583.84v32.94" />
      <path class="cls-2" d="M753.12,617.18v.41M751.25,583.02v.41" />
      <path class="cls-2" d="M751.25,583.84v32.94" />
      <path class="cls-2" d="M751.25,617.18v.41M749.48,583.02v.41" />
      <path class="cls-2" d="M749.48,583.84v32.94" />
      <path class="cls-2" d="M749.48,617.18v.41M747.62,583.02v.41" />
      <path class="cls-2" d="M747.62,583.84v32.94" />
      <path class="cls-2" d="M747.62,617.18v.41M745.75,583.02v.41" />
      <path class="cls-2" d="M745.75,583.84v32.94" />
      <path class="cls-2" d="M745.75,617.18v.41M743.88,583.02v.41" />
      <path class="cls-2" d="M743.88,583.84v32.94" />
      <path class="cls-2" d="M743.88,617.18v.41M742.01,583.02v.41" />
      <path class="cls-2" d="M742.01,583.84v32.94" />
      <path class="cls-2" d="M742.01,617.18v.41M740.14,583.02v.41" />
      <path class="cls-2" d="M740.14,583.84v32.94" />
      <path class="cls-2" d="M740.14,617.18v.41" />
      <path class="cls-2" d="M806.17,617.18v-.41h-71.64v.41" />
      <path class="cls-2" d="M806.17,617.18h-71.64" />
      <path class="cls-2" d="M806.17,583.84v-.41h-71.64v.41" />
      <path class="cls-2" d="M806.17,583.84h-71.64" />
      <path class="cls-2" d="M735.99,602.27l-1.45-2.03,1.45-1.9" />
      <path class="cls-2" d="M735.99,602.27l.31-.54M735.99,598.34l.31.54" />
      <path class="cls-2" d="M736.3,601.73l-1.04-1.49,1.04-1.36" />
      <path class="cls-2" d="M738.27,583.02v.41" />
      <path class="cls-2" d="M738.27,583.84v32.94" />
      <path class="cls-2" d="M738.27,617.18v.41M738.27,583.02v.41" />
      <path class="cls-2" d="M738.27,583.84v32.94" />
      <path class="cls-2" d="M738.27,617.18v.41M736.4,583.02v.41" />
      <path class="cls-2" d="M736.4,583.84v32.94" />
      <path class="cls-2" d="M736.4,617.18v.41M736.4,583.02v.41" />
      <path class="cls-2" d="M736.4,583.84v32.94" />
      <path class="cls-2" d="M736.4,617.18v.41M734.53,583.02v.41" />
      <path class="cls-2" d="M734.53,583.84v32.94" />
      <path class="cls-2" d="M734.53,617.18v.41M734.53,583.02v.41" />
      <path class="cls-2" d="M734.53,583.84v32.94" />
      <path
        class="cls-2"
        d="M734.53,617.18v.41M736.4,617.58h1.87M736.4,583.02h1.87M734.53,617.58h1.87M734.53,583.02h1.87M802.54,583.02v.41"
      />
      <path class="cls-2" d="M802.54,583.84v32.94" />
      <path class="cls-2" d="M802.54,617.18v.41M802.54,583.02v.41" />
      <path class="cls-2" d="M802.54,583.84v32.94" />
      <path class="cls-2" d="M802.54,583.02h1.87v.41" />
      <path class="cls-2" d="M804.41,583.84v32.94" />
      <path class="cls-2" d="M804.41,617.18v.41M804.41,583.02v.41" />
      <path class="cls-2" d="M804.41,583.84v32.94" />
      <path class="cls-2" d="M804.41,617.18v.41h1.76" />
      <path class="cls-2" d="M734.53,583.7v-.14" />
      <path class="cls-2" d="M734.53,583.7h-.1" />
      <path class="cls-2" d="M734.53,616.91v.14" />
      <path class="cls-2" d="M734.53,616.91h-.1" />
    </g>
    <g>
      <path
        class="cls-2"
        d="M615.57,588.2l.15.71.15.57.3.57.3.57.6.42.45.42.6.14.75.28h1.35l.6-.28.6-.14.6-.57.45-.28.3-.57.3-.57.15-.57.15-.71-.15-.57-.15-.71-.3-.42-.3-.57-.45-.42-.6-.42-.6-.28-.6-.14h-1.35l-.75.14-.6.28-.45.42-.6.42-.3.57-.3.57-.15.57-.15.57h0Z"
      />
      <path
        class="cls-2"
        d="M615.72,588.2v.71l.15.57.3.57.45.57.45.42.45.42.6.14.75.28h1.35l.6-.28.6-.14.6-.57.45-.28.3-.57.3-.57.15-.57.15-.71-.15-.57-.15-.71-.3-.42-.3-.57-.45-.42-.6-.42-.6-.28-.6-.14h-1.35l-.75.14-.6.28-.45.42-.45.42-.45.57-.3.57-.15.57v.57h0Z"
      />
      <path
        class="cls-2"
        d="M619.45,592.72l1.49-.14,1.34-.71,1.04-.99.75-1.27.15-1.41-.15-1.27-.75-1.27-1.04-.99-1.34-.71-1.49-.28-1.49.28-1.34.71-1.04.99-.6,1.27-.3,1.27.3,1.41.6,1.27,1.04.99,1.34.71,1.49.14Z"
      />
      <path
        class="cls-2"
        d="M619.45,592.44l1.64-.42,1.49-.85.89-1.27.3-1.7-.3-1.56-.89-1.27-1.49-.99-1.64-.28-1.64.28-1.49.99-.89,1.27-.3,1.56.3,1.7.89,1.27,1.49.85,1.64.42Z"
      />
      <path
        class="cls-2"
        d="M612.74,546.61v2.12M613.78,546.61v1.13M613.93,546.61v.85M613.78,546.61v.99M613.93,547.46h80.04M682.94,578.58v33.1"
      />
      <path class="cls-4" d="M683.39,578.58l-.15-.42v.71l.15-.28h0Z" />
      <path class="cls-4" d="M683.24,578.15l-.3-.14v.99l.3-.85Z" />
      <path class="cls-4" d="M683.24,578.15v.71l-.3.14.3-.85h0Z" />
      <path class="cls-4" d="M682.94,578.01l-.3.14v.71l.3-.85h0Z" />
      <path class="cls-4" d="M682.94,578.01v.99l-.3-.14.3-.85Z" />
      <path class="cls-4" d="M682.64,578.15v.71l-.15-.28.15-.42h0Z" />
      <path
        class="cls-2"
        d="M682.94,579l.3-.14.15-.28-.15-.42-.3-.14-.3.14-.15.42.15.28.3.14Z"
      />
      <path
        class="cls-2"
        d="M688.75,578.15h.45M676.83,579.29h12.37M676.83,580.42h12.37M676.83,581.55h12.37M676.83,582.68h12.37M676.83,583.95h12.37M676.83,585.09h12.37M676.83,586.22h12.37M676.83,587.35h12.37M676.83,588.48h12.37M676.83,589.61h12.37M676.83,590.74h12.37M676.83,591.88h12.37M676.83,593.15h12.37M676.83,594.28h12.37M676.83,595.41h12.37M676.83,596.54h12.37M676.83,597.68h12.37M676.83,598.81h12.37M676.83,599.94h12.37M676.83,601.07h12.37M676.83,602.34h12.37M676.83,603.48h12.37M676.83,604.61h12.37M676.83,605.74h12.37M676.83,606.87h12.37M676.83,608h12.37M676.83,609.13h12.37M676.83,610.27h12.37M676.83,611.54h12.37"
      />
      <path
        class="cls-2"
        d="M680.85,609.7l.45-.42,1.64,1.56,1.64-1.56.45.42-2.09,1.98-2.09-1.98Z"
      />
      <path
        class="cls-2"
        d="M632.12,652.14l1.64-8.91-1.49-.14,1.04-5.38-4.17-.71,1.64-8.91h-.15"
      />
      <path
        class="cls-2"
        d="M629.58,627.95l1.04.85M628.69,627.81l1.79,1.7M627.94,627.95l2.38,2.26M627.79,628.65l2.38,2.26M627.64,629.36l2.38,2.26M627.5,630.07l2.38,2.26M627.5,630.78l2.38,2.26M627.35,631.34l2.38,2.26M627.2,632.05l2.38,2.26M633.01,637.57l.3.28M627.05,632.76l2.38,2.26M631.97,637.43l1.19,1.13M626.9,633.46l2.38,2.26M630.92,637.28l2.09,1.98M626.75,634.17l2.38,2.26M629.88,637.14l2.98,2.83M626.6,634.88l6.11,5.8M626.6,635.59l5.96,5.8M626.45,636.29l5.96,5.66M626.3,636.86l6.11,5.8M632.71,643.08l.89.85M626.15,637.57l7.3,6.93M626.01,638.27l7.3,6.93M625.86,638.98l7.3,6.93M625.71,639.69l7.3,6.93M625.56,640.4l7.45,6.93M625.56,641.1l7.3,6.93M625.41,641.81l7.3,6.93M625.26,642.52l7.3,6.93M625.11,643.08l7.3,7.07M624.96,643.79l7.3,6.93M624.81,644.5l7.3,6.93M624.66,645.21l7.45,6.93M624.66,645.91l6.41,6.08M624.51,646.62l5.51,5.23M624.37,647.33l4.62,4.39M624.22,648.03l3.73,3.54M624.07,648.74l2.83,2.69M623.92,649.31l2.09,1.98M623.77,650.01l1.19,1.13M623.77,650.72l.15.28"
      />
      <path
        class="cls-2"
        d="M601.71,563.44l9.54.85-.15,1.27,5.66.57v1.27l9.39.85"
      />
      <path
        class="cls-2"
        d="M653.13,572.07l.89,8.91-1.49.14.45,4.53-1.49.14.89,9.05"
      />
      <path
        class="cls-2"
        d="M625.71,568.25l.45.28M624.81,568.11l1.19,1.13M623.92,568.11l2.09,1.84M623.02,567.97l2.83,2.83M621.98,567.83l3.43,3.25M621.09,567.83l3.43,3.25M620.19,567.69l3.28,3.25M619.15,567.69l3.43,3.25M616.76,566.13v.14M618.25,567.55l3.43,3.25M615.72,565.99l1.04.99M617.36,567.55l3.43,3.11M614.83,565.99l4.92,4.67M613.93,565.85l4.92,4.67M612.89,565.71l5.07,4.81M610.36,564.15l.89.71M611.99,565.71l4.92,4.67M609.46,564.15l6.56,6.22M608.57,564.01l6.56,6.22M607.67,564.01l6.41,6.22M606.63,563.87l6.56,6.22M605.73,563.87l6.56,6.08M604.84,563.73l6.56,6.22M603.8,563.58l6.56,6.22M602.9,563.58l6.56,6.22M602.01,563.44l6.56,6.22M601.71,564.01l5.81,5.66M601.56,564.72l5.07,4.81M601.56,565.57l4.17,3.96M601.41,566.27l3.43,3.11M601.41,566.98l2.38,2.4M601.26,567.69l1.64,1.56M601.26,568.39l.75.71M652.98,572.07l.15.14M652.09,572.07l1.19,1.13M651.34,572.07l2.09,1.98M650.45,572.21l2.98,2.69M649.7,572.21l3.88,3.68M648.96,572.21l4.62,4.53M648.06,572.36l5.66,5.23M647.32,572.5l6.41,6.08M647.47,573.35l6.41,6.08M647.47,574.19l6.41,6.08M647.62,575.04l6.26,5.94M647.62,576.03l5.51,5.09M647.77,576.88l4.77,4.53M647.92,577.73l4.77,4.67M647.92,578.72l4.92,4.53M648.06,579.57l4.77,4.53M648.06,580.42l4.92,4.67M648.21,581.27l4.47,4.39M648.21,582.26l3.73,3.54M648.36,583.11l3.28,3.11M648.36,583.95l3.28,3.11M648.51,584.94l3.28,3.11M648.66,585.79l3.13,3.11M648.66,586.64l3.28,3.11M648.81,587.63l3.28,2.97M648.81,588.48l3.28,3.11M648.96,589.33l3.28,3.11M648.96,590.18l3.28,3.11M649.11,591.17l3.28,3.11M649.11,592.02l2.98,2.83M649.26,592.87l2.09,1.98M649.26,593.86l1.19.99M649.41,594.71l.3.14M645.98,549.58v11.74M644.64,549.58v11.74M643.44,549.58v11.74M642.25,549.58v11.74M641.06,549.58v11.74M639.87,549.58v11.74M638.67,549.58v11.74M637.48,549.58v11.74M636.29,549.58v11.74M634.95,549.58v11.74M633.76,549.58v11.74M632.56,549.58v11.74M631.37,549.58v11.74M630.18,549.58v11.74M628.99,549.58v11.74M627.79,549.58v11.74M626.6,549.58v11.74M625.26,549.58v11.74M624.07,549.58v11.74M622.88,549.58v11.74M621.68,549.58v11.74M620.49,549.58v11.74M619.3,549.58v11.74M618.11,549.58v11.74M616.91,549.58v11.74M615.57,549.58v11.74M614.38,549.58v11.74M613.19,549.58v11.74M611.99,556.09v5.23"
      />
      <path class="cls-2" d="M689.65,612.53h.15v-.28h-.3v.28h.15Z" />
      <path class="cls-2" d="M689.65,577.59l.15-.14v-.28h-.3v.28l.15.14Z" />
      <path
        class="cls-2"
        d="M676.23,612.53h.15l.15-.14-.15-.14h-.15l-.15.14.15.14Z"
      />
      <path
        class="cls-2"
        d="M676.23,578.58h.15l.15-.14-.15-.14h-.15l-.15.14.15.14Z"
      />
      <path class="cls-2" d="M647.77,562.03l.15-.14v-.28h-.3v.28l.15.14Z" />
      <path
        class="cls-2"
        d="M610.65,562.03l.15-.14.15-.14-.15-.14h-.15l-.15.14.15.14v.14Z"
      />
      <path class="cls-2" d="M647.02,561.32h-35.47" />
      <path
        class="cls-2"
        d="M623.02,562.03l.15-.14.15-.14-.15-.14h-.3v.28l.15.14h0Z"
      />
      <path class="cls-2" d="M676.83,611.68v-32.53M689.2,611.68v-33.53" />
      <path
        class="cls-2"
        d="M676.23,589.9h.15l.15-.14-.15-.14h-.15l-.15.14.15.14Z"
      />
      <path class="cls-2" d="M611.4,562.31h-1.79v-.28" />
      <path class="cls-2" d="M611.55,561.32h-1.94v.28" />
      <path class="cls-2" d="M647.02,561.32h1.94v.28" />
      <path class="cls-2" d="M647.02,562.31h1.94v-.28" />
      <path class="cls-2" d="M689.2,578.15v-1.84h.3" />
      <path class="cls-2" d="M690.1,578.01v-1.7h-.3" />
      <path class="cls-2" d="M689.2,611.68v1.84h.3" />
      <path class="cls-2" d="M690.1,611.68v1.84h-.3" />
      <path class="cls-2" d="M676.83,579.15v-1.84h-.3" />
      <path class="cls-2" d="M675.79,579.29v-1.98h.3" />
      <path class="cls-2" d="M635.4,562.03l.15-.14v-.28h-.3v.28l.15.14Z" />
      <path
        class="cls-2"
        d="M676.23,601.21h.15l.15-.14-.15-.14h-.15l-.15.14.15.14Z"
      />
      <path class="cls-2" d="M689.65,589.9h.15v-.28h-.3v.28h.15Z" />
      <path class="cls-2" d="M689.65,601.21h.15v-.28h-.3v.28h.15Z" />
      <path class="cls-2" d="M676.53,611.68h12.97" />
      <path class="cls-2" d="M675.79,579.29v32.39h.3" />
      <path class="cls-2" d="M689.8,578.01h.3v66.34" />
      <path
        class="cls-2"
        d="M676.53,579.15l12.97-.99M620.34,583.81l55.74-4.67"
      />
      <path class="cls-2" d="M647.02,562.03v.28h-35.62" />
      <path class="cls-2" d="M647.02,549.44v12.17" />
      <path
        class="cls-2"
        d="M617.21,562.31l-5.51,59.98v2.4l.45,2.26.89,2.12,1.34,1.98,1.64,1.84,1.94,1.41,2.24.99,2.38.57,71.24,11.88"
      />
      <path
        class="cls-2"
        d="M611.4,562.03l-5.51,59.84v2.97l.6,2.97.89,2.83,1.49,2.55,1.94,2.4,2.24,1.98,2.68,1.7,2.83,1.27,3.13.71,72.14,12.02"
      />
      <path
        class="cls-2"
        d="M612.59,549.44l-1.04,12.17M612.74,548.73l-.15.42"
      />
      <path class="cls-2" d="M676.09,613.52h-.3v-1.84" />
      <path class="cls-2" d="M676.83,611.68v1.84h-.3" />
      <path
        class="cls-2"
        d="M607.82,561.6h-.15v.28l.15.14h42.78l.15-.14.15-.14-.15-.14h-42.93,0Z"
      />
      <path class="cls-2" d="M676.09,615.08l.15.14v.14l.15-.14.15-.14" />
      <path class="cls-2" d="M676.09,615.08v-39.32" />
      <path class="cls-2" d="M676.53,575.75l-.15-.14h-.15l-.15.14" />
      <path class="cls-2" d="M676.53,575.75v39.32" />
      <path
        class="cls-2"
        d="M689.5,615.08v.14l.15.14.15-.14v-40.74h-.3v40.6Z"
      />
    </g>
    <rect class="cls-1" x="831.93" y="756.67" width="43.5" height="29.76" />
    <g>
      <path
        class="cls-2"
        d="M548.85,699.11l-.14-.75,63.05-10.51h1.24l.27.6-64.43,10.66h.01Z"
      />
      <path
        class="cls-2"
        d="M564.1,791.28v1.2M563,784.52v7.96M561.9,777.92v14.56M560.67,771.17v21.32M559.57,750.45v.45M559.57,764.41v28.07M558.47,749.85v1.2M558.47,757.66v34.83M557.37,749.1v2.25M557.37,753.45v39.03M556.27,744v7.51M556.27,752.7v39.78M555.17,737.24v14.56M555.17,752.1v40.38M554.07,730.49v62M552.97,723.73v68.75M551.74,716.98v75.51M550.64,710.22v82.26M549.54,703.47v81.36M548.44,698.36v86.46M547.34,698.51v86.31M546.24,698.81v86.01M545.14,698.96v85.86M544.04,699.11v85.71M542.81,699.26v85.56M541.71,699.56v85.26M540.61,699.71v92.77M539.51,699.86v92.62M538.41,700.01v92.47M537.31,700.31v92.17M536.21,700.46v92.02M535.12,700.61v91.87M533.88,700.76v91.72M532.78,701.06v91.42M531.68,701.21v91.27M530.58,701.36v91.12M529.48,701.51v90.97M528.38,701.81v90.67M527.29,701.96v90.52M526.19,702.11v90.37M524.95,702.26v90.22M523.85,702.41v19.81M522.75,702.71v19.51M521.65,702.86v19.51M520.55,703.01v19.36M548.44,699.41l.55.6M543.77,699.11l.27.3M546.24,701.81l1.1,1.2M549.54,705.42l.41.45M540.61,700.61l1.1,1.2M544.04,704.22l1.1,1.2M547.34,707.97l1.1,1.2M550.64,711.57l.27.3M536.08,700.46l.14.15M538.41,703.01l1.1,1.2M541.71,706.62l1.1,1.35M545.14,710.37l1.1,1.2M548.44,713.97l1.1,1.2M551.74,717.73l.27.15M532.78,701.81l1.1,1.2M536.21,705.42l1.1,1.2M539.51,709.17l1.1,1.2M542.81,712.77l1.24,1.2M546.24,716.37l1.1,1.35M549.54,720.13l1.1,1.2M552.97,723.73v.15M528.25,701.81h.14M530.58,704.22l1.1,1.2M533.88,707.97l1.24,1.2M537.31,711.57l1.1,1.2M540.61,715.17l1.1,1.2M544.04,718.93l1.1,1.2M547.34,722.53l1.1,1.2M550.64,726.13l1.1,1.35M524.95,703.01l1.24,1.2M528.38,706.62l1.1,1.35M531.68,710.37l1.1,1.2M535.12,713.97l1.1,1.2M538.41,717.73l1.1,1.2M541.71,721.33l1.1,1.2M545.14,724.93l1.1,1.2M548.44,728.68l1.1,1.2M551.74,732.29l1.24,1.2M522.75,705.42l1.1,1.2M526.19,709.17l1.1,1.2M529.48,712.77l1.1,1.2M532.78,716.37l1.1,1.35M536.21,720.13l1.1,1.2M539.51,723.73l1.1,1.2M542.81,727.48l1.24,1.2M546.24,731.09l1.1,1.2M549.54,734.69l1.1,1.2M552.97,738.44l1.1,1.2M520.55,707.97l1.1,1.2M523.85,711.57l1.1,1.2M527.29,715.17l1.1,1.2M530.58,718.93l1.1,1.2M533.88,722.53l1.24,1.2M537.31,726.13l1.1,1.35M540.61,729.88l1.1,1.2M544.04,733.49l1.1,1.2M547.34,737.24l1.1,1.2M550.64,740.84l1.1,1.2M554.07,744.45l1.1,1.2M521.65,713.97l1.1,1.2M524.95,717.73l1.24,1.2M528.38,721.33l1.1,1.2M531.68,724.93l1.1,1.2M535.12,728.68l1.1,1.2M538.41,732.29l1.1,1.2M541.71,735.89l1.1,1.35M545.14,739.64l1.1,1.2M548.44,743.24l1.1,1.2M551.74,747l1.24,1.2M555.17,750.6l.96,1.05M519.46,716.52l1.1,1.2M522.75,720.13l1.1,1.2M526.19,723.73l1.1,1.2M529.48,727.48l1.1,1.2M532.78,731.09l1.1,1.2M536.21,734.69l1.1,1.2M539.51,738.44l1.1,1.2M542.81,742.04l1.24,1.2M546.24,745.65l1.1,1.35M549.54,749.4l1.1,1.2M552.97,753l1.1,1.2M556.27,756.75l1.1,1.2M524.68,727.03l.27.45"
      />
      <path
        class="cls-2"
        d="M527.29,729.88l1.1,1.2M530.58,733.49l1.1,1.2M533.88,737.24l1.24,1.2M537.31,740.84l1.1,1.2M540.61,744.45l1.1,1.2M544.04,748.2l1.1,1.2M547.34,751.8l1.1,1.2M550.64,755.4l1.1,1.35M554.07,759.16l1.1,1.2M557.37,762.76l1.1,1.2M524.95,732.29l1.24,1.2M528.38,735.89l1.1,1.35M531.68,739.64l1.1,1.2M535.12,743.24l1.1,1.2M538.41,747l1.1,1.2M541.71,750.6l1.1,1.2M545.14,754.2l1.1,1.2M548.44,757.96l1.1,1.2M551.74,761.56l1.24,1.2M555.17,765.16l1.1,1.35M558.47,768.91l1.1,1.2M526.19,738.44l1.1,1.2M529.48,742.04l1.1,1.2M532.78,745.65l1.1,1.35M536.21,749.4l1.1,1.2M539.51,753l1.1,1.2M542.81,756.75l1.24,1.2M546.24,760.36l1.1,1.2M549.54,763.96l1.1,1.2M552.97,767.71l1.1,1.2M556.27,771.32l1.1,1.2M559.57,774.92l1.1,1.2M524.68,741.74l.27.3M527.29,744.45l1.1,1.2M530.58,748.2l1.1,1.2M533.88,751.8l1.24,1.2M537.31,755.4l1.1,1.35M540.61,759.16l1.1,1.2M544.04,762.76l1.1,1.2M547.34,766.51l1.1,1.2M550.64,770.11l1.1,1.2M554.07,773.72l1.1,1.2M557.37,777.47l1.1,1.2M560.67,781.07l1.24,1.2M524.95,747l1.24,1.2M528.38,750.6l1.1,1.2M531.68,754.2l1.1,1.2M535.12,757.96l1.1,1.2M538.41,761.56l1.1,1.2M541.71,765.16l1.1,1.35M545.14,768.91l1.1,1.2M548.44,772.52l1.1,1.2M551.74,776.12l1.24,1.35M555.17,779.87l1.1,1.2M558.47,783.47l1.1,1.2M561.9,787.23l1.1,1.2M526.19,753l1.1,1.2M529.48,756.75l1.1,1.2M532.78,760.36l1.1,1.2M536.21,763.96l1.1,1.2M539.51,767.71l1.1,1.2M542.81,771.32l1.24,1.2M546.24,774.92l1.1,1.2M549.54,778.67l1.1,1.2M552.97,782.27l1.1,1.2M556.27,785.88l1.1,1.35M559.57,789.63l1.1,1.2M524.68,756.3l.27.45M527.29,759.16l1.1,1.2M530.58,762.76l1.1,1.2M533.88,766.51l1.24,1.2M537.31,770.11l1.1,1.2M540.61,773.72l1.1,1.2M544.04,777.47l1.1,1.2M547.34,781.07l1.1,1.2M550.64,784.68l1.1,1.2M554.07,788.43l1.1,1.2M557.37,792.03l.41.45M524.95,761.56l1.24,1.2M528.38,765.16l1.1,1.35M531.68,768.91l1.1,1.2M535.12,772.52l1.1,1.2M538.41,776.12l1.1,1.35M541.71,779.87l1.1,1.2M545.14,783.47l1.1,1.2M551.74,790.83l1.24,1.2M526.19,767.71l1.1,1.2M529.48,771.32l1.1,1.2M532.78,774.92l1.1,1.2M536.21,778.67l1.1,1.2M539.51,782.27l1.1,1.2M524.68,771.01l.27.3M527.29,773.72l1.1,1.2M530.58,777.47l1.1,1.2M533.88,781.07l1.24,1.2M537.31,784.68l1.1,1.2M540.61,788.43l.41.3M524.95,776.12l1.24,1.35M528.38,779.87l1.1,1.2M531.68,783.47l1.1,1.2M535.12,787.23l1.1,1.2M538.41,790.83l1.1,1.2M526.19,782.27l1.1,1.2M529.48,785.88l1.1,1.35M532.78,789.63l1.1,1.2M524.68,785.58l.27.3M527.29,788.43l1.1,1.2M530.58,792.03l.41.45M524.95,790.83l1.24,1.2M603.8,689.2v28.37M595.97,690.56v27.47M580.04,693.11v25.82M572.21,694.46v24.92M564.24,695.81v24.02M548.44,698.36v22.37M540.61,699.71v21.47M532.64,701.06v20.57M524.68,702.41v19.66M609.16,717.28v-28.97M606.41,717.43v-28.67M601.19,689.66v28.07M598.58,690.11v27.77M590.61,691.31v27.02M593.22,691.01v27.17M574.82,694.01v25.22M577.43,693.56v25.52M566.85,695.36v24.32M569.6,694.91v24.62"
      />
      <path
        class="cls-2"
        d="M559.02,696.71v23.42M561.63,696.26v23.72M543.22,699.26v21.77M545.83,698.81v22.07M535.25,700.61v20.87M537.86,700.16v21.17M527.42,701.96v19.96M530.03,701.51v20.26M519.46,703.16v19.21"
      />
      <path
        class="cls-2"
        d="M611.77,687.85l-63.05,10.51M548.3,698.36l-28.85,4.8"
      />
      <path class="cls-2" d="M519.46,722.38l5.22-.3,7.97-.45,7.97-.45" />
      <path
        class="cls-2"
        d="M552.37,720.66l11.79-.75M603.63,717.66l7.95-.45M611.58,687.97l-63.33,10.5M524.68,722.16v70.32M532.63,721.71v70.77M540.58,721.26v71.22M564.15,719.91v72.57M595.82,718.11v74.37M603.63,717.66v74.82M611.58,687.97v104.51M721.65,578.66h4.39"
      />
      <path
        class="cls-2"
        d="M519.46,703.16v.9l29.4-4.95-.14-.75-26.65,4.35-2.61.45Z"
      />
      <path class="cls-2" d="M540.61,721.18l7.83-.45v64.1" />
      <path class="cls-2" d="M548.44,720.73l3.98-.15" />
      <path class="cls-2" d="M564.24,719.83l7.97-.45v73.1" />
      <path class="cls-2" d="M572.21,719.38l7.83-.45v72.2" />
      <path class="cls-2" d="M580.04,718.93l15.93-.9,7.83-.45" />
      <path class="cls-2" d="M548.72,698.21l64.15-10.81-64.15,10.66" />
      <path class="cls-2" d="M593.63,734.54v6.75h.14" />
      <path class="cls-2" d="M593.77,740.84v-5.7M593.77,734.54h-.14" />
      <path
        class="cls-2"
        d="M593.77,735.14v-43.83l20.19-3.3.82.9,1.1.75-20.33,3.3v42.18h-1.79.01Z"
      />
      <path class="cls-2" d="M595.56,740.84v53.59h-1.79v-53.59h1.79Z" />
    </g>
    <rect class="cls-6" x="361.44" y="721.64" width="91.46" height="45.76" />
    <rect class="cls-6" x="344.84" y="613" width="90.43" height="33.2" />
    <rect class="cls-5" x="344.27" y="560.92" width="90.43" height="50.37" />
    <rect class="cls-6" x="344.27" y="524.29" width="90.43" height="36.63" />
    <g>
      <path class="cls-2" d="M435.28,645.8v.4M397.85,612.09v.4" />
      <path class="cls-2" d="M397.85,612.89v32.51" />
      <path class="cls-2" d="M397.85,645.8v.4M384.89,612.09v.4" />
      <path class="cls-2" d="M384.89,612.89v32.51" />
      <path class="cls-2" d="M384.89,645.8v.4" />
      <path class="cls-2" d="M430.7,646.2h-32.9" />
      <path class="cls-2" d="M428.34,612.09h2.36M435.28,612.09h-.13" />
      <path class="cls-2" d="M425.98,612.09h-28.18" />
      <path class="cls-2" d="M384.89,646.2h-35.26" />
      <path class="cls-2" d="M384.89,612.09h-35.26" />
      <path class="cls-2" d="M428.34,612.09v.4" />
      <path class="cls-2" d="M428.34,612.89v32.51" />
      <path class="cls-2" d="M428.34,645.8v.4M425.98,612.09v.4" />
      <path class="cls-2" d="M425.98,612.89v32.51" />
      <path class="cls-2" d="M425.98,645.8v.4M423.63,612.09v.4" />
      <path class="cls-2" d="M423.63,612.89v32.51" />
      <path class="cls-2" d="M423.63,645.8v.4M421.27,612.09v.4" />
      <path class="cls-2" d="M421.27,612.89v32.51" />
      <path class="cls-2" d="M421.27,645.8v.4M418.92,612.09v.4" />
      <path class="cls-2" d="M418.92,612.89v32.51" />
      <path class="cls-2" d="M418.92,645.8v.4M416.56,612.09v.4" />
      <path class="cls-2" d="M416.56,612.89v32.51" />
      <path class="cls-2" d="M416.56,645.8v.4M414.21,612.09v.4" />
      <path class="cls-2" d="M414.21,612.89v32.51" />
      <path class="cls-2" d="M414.21,645.8v.4M411.85,612.09v.4" />
      <path class="cls-2" d="M411.85,612.89v32.51" />
      <path class="cls-2" d="M411.85,645.8v.4M409.49,612.09v.4" />
      <path class="cls-2" d="M409.49,612.89v32.51" />
      <path class="cls-2" d="M409.49,645.8v.4M407.27,612.09v.4" />
      <path class="cls-2" d="M407.27,612.89v32.51" />
      <path class="cls-2" d="M407.27,645.8v.4M404.91,612.09v.4" />
      <path class="cls-2" d="M404.91,612.89v32.51" />
      <path class="cls-2" d="M404.91,645.8v.4M402.56,612.09v.4" />
      <path class="cls-2" d="M402.56,612.89v32.51" />
      <path class="cls-2" d="M402.56,645.8v.4M400.2,612.09v.4" />
      <path class="cls-2" d="M400.2,612.89v32.51" />
      <path class="cls-2" d="M400.2,645.8v.4M397.85,612.09v.4" />
      <path class="cls-2" d="M397.85,612.89v32.51" />
      <path class="cls-2" d="M397.85,645.8v.4M384.89,612.09v.4" />
      <path class="cls-2" d="M384.89,612.89v32.51" />
      <path class="cls-2" d="M384.89,645.8v.4M382.53,612.09v.4" />
      <path class="cls-2" d="M382.53,612.89v32.51" />
      <path class="cls-2" d="M382.53,645.8v.4M380.18,612.09v.4" />
      <path class="cls-2" d="M380.18,612.89v32.51" />
      <path class="cls-2" d="M380.18,645.8v.4M377.82,612.09v.4" />
      <path class="cls-2" d="M377.82,612.89v32.51" />
      <path class="cls-2" d="M377.82,645.8v.4M375.47,612.09v.4" />
      <path class="cls-2" d="M375.47,612.89v32.51" />
      <path class="cls-2" d="M375.47,645.8v.4M373.11,612.09v.4" />
      <path class="cls-2" d="M373.11,612.89v32.51" />
      <path class="cls-2" d="M373.11,645.8v.4M370.76,612.09v.4" />
      <path class="cls-2" d="M370.76,612.89v32.51" />
      <path class="cls-2" d="M370.76,645.8v.4M368.4,612.09v.4" />
      <path class="cls-2" d="M368.4,612.89v32.51" />
      <path class="cls-2" d="M368.4,645.8v.4M366.04,612.09v.4" />
      <path class="cls-2" d="M366.04,612.89v32.51" />
      <path class="cls-2" d="M366.04,645.8v.4M363.82,612.09v.4" />
      <path class="cls-2" d="M363.82,612.89v32.51" />
      <path class="cls-2" d="M363.82,645.8v.4M361.46,612.09v.4" />
      <path class="cls-2" d="M361.46,612.89v32.51" />
      <path class="cls-2" d="M361.46,645.8v.4M359.11,612.09v.4" />
      <path class="cls-2" d="M359.11,612.89v32.51" />
      <path class="cls-2" d="M359.11,645.8v.4M356.75,612.09v.4" />
      <path class="cls-2" d="M356.75,612.89v32.51" />
      <path class="cls-2" d="M356.75,645.8v.4M354.4,612.09v.4" />
      <path class="cls-2" d="M354.4,612.89v32.51" />
      <path class="cls-2" d="M354.4,645.8v.4M352.04,612.09v.4" />
      <path class="cls-2" d="M352.04,612.89v32.51" />
      <path class="cls-2" d="M352.04,645.8v.4M428.34,612.09v.4" />
      <path class="cls-2" d="M428.34,612.89v32.51" />
      <path class="cls-2" d="M428.34,645.8v.4M425.98,612.09v.4" />
      <path class="cls-2" d="M425.98,612.89v32.51" />
      <path class="cls-2" d="M425.98,645.8v.4M423.63,612.09v.4" />
      <path class="cls-2" d="M423.63,612.89v32.51" />
      <path class="cls-2" d="M423.63,645.8v.4M421.27,612.09v.4" />
      <path class="cls-2" d="M421.27,612.89v32.51" />
      <path class="cls-2" d="M421.27,645.8v.4M418.92,612.09v.4" />
      <path class="cls-2" d="M418.92,612.89v32.51" />
      <path class="cls-2" d="M418.92,645.8v.4M416.56,612.09v.4" />
      <path class="cls-2" d="M416.56,612.89v32.51" />
      <path class="cls-2" d="M416.56,645.8v.4M414.21,612.09v.4" />
      <path class="cls-2" d="M414.21,612.89v32.51" />
      <path class="cls-2" d="M414.21,645.8v.4M411.85,612.09v.4" />
      <path class="cls-2" d="M411.85,612.89v32.51" />
      <path class="cls-2" d="M411.85,645.8v.4M409.49,612.09v.4" />
      <path class="cls-2" d="M409.49,612.89v32.51" />
      <path class="cls-2" d="M409.49,645.8v.4M407.27,612.09v.4" />
      <path class="cls-2" d="M407.27,612.89v32.51" />
      <path class="cls-2" d="M407.27,645.8v.4M404.91,612.09v.4" />
      <path class="cls-2" d="M404.91,612.89v32.51" />
      <path class="cls-2" d="M404.91,645.8v.4M402.56,612.09v.4" />
      <path class="cls-2" d="M402.56,612.89v32.51" />
      <path class="cls-2" d="M402.56,645.8v.4M400.2,612.09v.4" />
      <path class="cls-2" d="M400.2,612.89v32.51" />
      <path class="cls-2" d="M400.2,645.8v.4M382.53,612.09v.4" />
      <path class="cls-2" d="M382.53,612.89v32.51" />
      <path class="cls-2" d="M382.53,645.8v.4M380.18,612.09v.4" />
      <path class="cls-2" d="M380.18,612.89v32.51" />
      <path class="cls-2" d="M380.18,645.8v.4M377.82,612.09v.4" />
      <path class="cls-2" d="M377.82,612.89v32.51" />
      <path class="cls-2" d="M377.82,645.8v.4M375.47,612.09v.4" />
      <path class="cls-2" d="M375.47,612.89v32.51" />
      <path class="cls-2" d="M375.47,645.8v.4M373.11,612.09v.4" />
      <path class="cls-2" d="M373.11,612.89v32.51" />
      <path class="cls-2" d="M373.11,645.8v.4M370.76,612.09v.4" />
      <path class="cls-2" d="M370.76,612.89v32.51" />
      <path class="cls-2" d="M370.76,645.8v.4M368.4,612.09v.4" />
      <path class="cls-2" d="M368.4,612.89v32.51" />
      <path class="cls-2" d="M368.4,645.8v.4M366.04,612.09v.4" />
      <path class="cls-2" d="M366.04,612.89v32.51" />
      <path class="cls-2" d="M366.04,645.8v.4M363.82,612.09v.4" />
      <path class="cls-2" d="M363.82,612.89v32.51" />
      <path class="cls-2" d="M363.82,645.8v.4M361.46,612.09v.4" />
      <path class="cls-2" d="M361.46,612.89v32.51" />
      <path class="cls-2" d="M361.46,645.8v.4M359.11,612.09v.4" />
      <path class="cls-2" d="M359.11,612.89v32.51" />
      <path class="cls-2" d="M359.11,645.8v.4M356.75,612.09v.4" />
      <path class="cls-2" d="M356.75,612.89v32.51" />
      <path class="cls-2" d="M356.75,645.8v.4M354.4,612.09v.4" />
      <path class="cls-2" d="M354.4,612.89v32.51" />
      <path class="cls-2" d="M354.4,645.8v.4M352.04,612.09v.4" />
      <path class="cls-2" d="M352.04,612.89v32.51" />
      <path class="cls-2" d="M352.04,645.8v.4" />
      <path class="cls-2" d="M435.28,645.8v-.4h-90.31v.4" />
      <path class="cls-2" d="M435.28,645.8h-90.31" />
      <path class="cls-2" d="M435.28,612.89v-.4h-90.31v.4" />
      <path class="cls-2" d="M435.28,612.89h-90.31" />
      <path class="cls-2" d="M346.81,631.09l-1.83-2.01,1.83-1.87" />
      <path class="cls-2" d="M346.81,631.09l.39-.54M346.81,627.21l.39.54" />
      <path class="cls-2" d="M347.2,630.55l-1.31-1.47,1.31-1.34" />
      <path class="cls-2" d="M349.68,612.09v.4" />
      <path class="cls-2" d="M349.68,612.89v32.51" />
      <path class="cls-2" d="M349.68,645.8v.4M349.68,612.09v.4" />
      <path class="cls-2" d="M349.68,612.89v32.51" />
      <path class="cls-2" d="M349.68,645.8v.4M347.33,612.09v.4" />
      <path class="cls-2" d="M347.33,612.89v32.51" />
      <path class="cls-2" d="M347.33,645.8v.4M347.33,612.09v.4" />
      <path class="cls-2" d="M347.33,612.89v32.51" />
      <path class="cls-2" d="M347.33,645.8v.4M344.97,612.09v.4" />
      <path class="cls-2" d="M344.97,612.89v32.51" />
      <path class="cls-2" d="M344.97,645.8v.4M344.97,612.09v.4" />
      <path class="cls-2" d="M344.97,612.89v32.51" />
      <path
        class="cls-2"
        d="M344.97,645.8v.4M347.33,646.2h2.36M347.33,612.09h2.36M344.97,646.2h2.36M344.97,612.09h2.36M430.7,612.09v.4"
      />
      <path class="cls-2" d="M430.7,612.89v32.51" />
      <path class="cls-2" d="M430.7,645.8v.4M430.7,612.09v.4" />
      <path class="cls-2" d="M430.7,612.89v32.51" />
      <path class="cls-2" d="M430.7,612.09h2.36v.4" />
      <path class="cls-2" d="M433.05,612.89v32.51" />
      <path class="cls-2" d="M433.05,645.8v.4M433.05,612.09v.4" />
      <path class="cls-2" d="M433.05,612.89v32.51" />
      <path class="cls-2" d="M433.05,645.8v.4h2.22" />
      <path class="cls-2" d="M344.97,612.76v-.13" />
      <path class="cls-2" d="M344.97,612.76h-.13" />
      <path class="cls-2" d="M344.97,645.53v.13" />
      <path class="cls-2" d="M344.97,645.53h-.13" />
    </g>
    <g>
      <path class="cls-2" d="M432.99,559.94v.41M396.46,525.44v.41" />
      <path class="cls-2" d="M396.46,526.27v33.26" />
      <path class="cls-2" d="M396.46,559.94v.41M383.82,525.44v.41" />
      <path class="cls-2" d="M383.82,526.27v33.26" />
      <path class="cls-2" d="M383.82,559.94v.41" />
      <path class="cls-2" d="M428.52,560.35h-32.07" />
      <path class="cls-2" d="M426.22,525.44h2.3M432.99,525.44h-.13" />
      <path class="cls-2" d="M423.92,525.44h-27.47" />
      <path class="cls-2" d="M383.82,560.35h-34.37" />
      <path class="cls-2" d="M383.82,525.44h-34.37" />
      <path class="cls-2" d="M426.22,525.44v.41" />
      <path class="cls-2" d="M426.22,526.27v33.26" />
      <path class="cls-2" d="M426.22,559.94v.41M423.92,525.44v.41" />
      <path class="cls-2" d="M423.92,526.27v33.26" />
      <path class="cls-2" d="M423.92,559.94v.41M421.62,525.44v.41" />
      <path class="cls-2" d="M421.62,526.27v33.26" />
      <path class="cls-2" d="M421.62,559.94v.41M419.32,525.44v.41" />
      <path class="cls-2" d="M419.32,526.27v33.26" />
      <path class="cls-2" d="M419.32,559.94v.41M417.02,525.44v.41" />
      <path class="cls-2" d="M417.02,526.27v33.26" />
      <path class="cls-2" d="M417.02,559.94v.41M414.72,525.44v.41" />
      <path class="cls-2" d="M414.72,526.27v33.26" />
      <path class="cls-2" d="M414.72,559.94v.41M412.42,525.44v.41" />
      <path class="cls-2" d="M412.42,526.27v33.26" />
      <path class="cls-2" d="M412.42,559.94v.41M410.13,525.44v.41" />
      <path class="cls-2" d="M410.13,526.27v33.26" />
      <path class="cls-2" d="M410.13,559.94v.41M407.83,525.44v.41" />
      <path class="cls-2" d="M407.83,526.27v33.26" />
      <path class="cls-2" d="M407.83,559.94v.41M405.66,525.44v.41" />
      <path class="cls-2" d="M405.66,526.27v33.26" />
      <path class="cls-2" d="M405.66,559.94v.41M403.36,525.44v.41" />
      <path class="cls-2" d="M403.36,526.27v33.26" />
      <path class="cls-2" d="M403.36,559.94v.41M401.06,525.44v.41" />
      <path class="cls-2" d="M401.06,526.27v33.26" />
      <path class="cls-2" d="M401.06,559.94v.41M398.76,525.44v.41" />
      <path class="cls-2" d="M398.76,526.27v33.26" />
      <path class="cls-2" d="M398.76,559.94v.41M396.46,525.44v.41" />
      <path class="cls-2" d="M396.46,526.27v33.26" />
      <path class="cls-2" d="M396.46,559.94v.41M383.82,525.44v.41" />
      <path class="cls-2" d="M383.82,526.27v33.26" />
      <path class="cls-2" d="M383.82,559.94v.41M381.52,525.44v.41" />
      <path class="cls-2" d="M381.52,526.27v33.26" />
      <path class="cls-2" d="M381.52,559.94v.41M379.22,525.44v.41" />
      <path class="cls-2" d="M379.22,526.27v33.26" />
      <path class="cls-2" d="M379.22,559.94v.41M376.92,525.44v.41" />
      <path class="cls-2" d="M376.92,526.27v33.26" />
      <path class="cls-2" d="M376.92,559.94v.41M374.62,525.44v.41" />
      <path class="cls-2" d="M374.62,526.27v33.26" />
      <path class="cls-2" d="M374.62,559.94v.41M372.32,525.44v.41" />
      <path class="cls-2" d="M372.32,526.27v33.26" />
      <path class="cls-2" d="M372.32,559.94v.41M370.02,525.44v.41" />
      <path class="cls-2" d="M370.02,526.27v33.26" />
      <path class="cls-2" d="M370.02,559.94v.41M367.72,525.44v.41" />
      <path class="cls-2" d="M367.72,526.27v33.26" />
      <path class="cls-2" d="M367.72,559.94v.41M365.42,525.44v.41" />
      <path class="cls-2" d="M365.42,526.27v33.26" />
      <path class="cls-2" d="M365.42,559.94v.41M363.25,525.44v.41" />
      <path class="cls-2" d="M363.25,526.27v33.26" />
      <path class="cls-2" d="M363.25,559.94v.41M360.95,525.44v.41" />
      <path class="cls-2" d="M360.95,526.27v33.26" />
      <path class="cls-2" d="M360.95,559.94v.41M358.66,525.44v.41" />
      <path class="cls-2" d="M358.66,526.27v33.26" />
      <path class="cls-2" d="M358.66,559.94v.41M356.36,525.44v.41" />
      <path class="cls-2" d="M356.36,526.27v33.26" />
      <path class="cls-2" d="M356.36,559.94v.41M354.06,525.44v.41" />
      <path class="cls-2" d="M354.06,526.27v33.26" />
      <path class="cls-2" d="M354.06,559.94v.41M351.76,525.44v.41" />
      <path class="cls-2" d="M351.76,526.27v33.26" />
      <path class="cls-2" d="M351.76,559.94v.41M426.22,525.44v.41" />
      <path class="cls-2" d="M426.22,526.27v33.26" />
      <path class="cls-2" d="M426.22,559.94v.41M423.92,525.44v.41" />
      <path class="cls-2" d="M423.92,526.27v33.26" />
      <path class="cls-2" d="M423.92,559.94v.41M421.62,525.44v.41" />
      <path class="cls-2" d="M421.62,526.27v33.26" />
      <path class="cls-2" d="M421.62,559.94v.41M419.32,525.44v.41" />
      <path class="cls-2" d="M419.32,526.27v33.26" />
      <path class="cls-2" d="M419.32,559.94v.41M417.02,525.44v.41" />
      <path class="cls-2" d="M417.02,526.27v33.26" />
      <path class="cls-2" d="M417.02,559.94v.41M414.72,525.44v.41" />
      <path class="cls-2" d="M414.72,526.27v33.26" />
      <path class="cls-2" d="M414.72,559.94v.41M412.42,525.44v.41" />
      <path class="cls-2" d="M412.42,526.27v33.26" />
      <path class="cls-2" d="M412.42,559.94v.41M410.13,525.44v.41" />
      <path class="cls-2" d="M410.13,526.27v33.26" />
      <path class="cls-2" d="M410.13,559.94v.41M407.83,525.44v.41" />
      <path class="cls-2" d="M407.83,526.27v33.26" />
      <path class="cls-2" d="M407.83,559.94v.41M405.66,525.44v.41" />
      <path class="cls-2" d="M405.66,526.27v33.26" />
      <path class="cls-2" d="M405.66,559.94v.41M403.36,525.44v.41" />
      <path class="cls-2" d="M403.36,526.27v33.26" />
      <path class="cls-2" d="M403.36,559.94v.41M401.06,525.44v.41" />
      <path class="cls-2" d="M401.06,526.27v33.26" />
      <path class="cls-2" d="M401.06,559.94v.41M398.76,525.44v.41" />
      <path class="cls-2" d="M398.76,526.27v33.26" />
      <path class="cls-2" d="M398.76,559.94v.41M381.52,525.44v.41" />
      <path class="cls-2" d="M381.52,526.27v33.26" />
      <path class="cls-2" d="M381.52,559.94v.41M379.22,525.44v.41" />
      <path class="cls-2" d="M379.22,526.27v33.26" />
      <path class="cls-2" d="M379.22,559.94v.41M376.92,525.44v.41" />
      <path class="cls-2" d="M376.92,526.27v33.26" />
      <path class="cls-2" d="M376.92,559.94v.41M374.62,525.44v.41" />
      <path class="cls-2" d="M374.62,526.27v33.26" />
      <path class="cls-2" d="M374.62,559.94v.41M372.32,525.44v.41" />
      <path class="cls-2" d="M372.32,526.27v33.26" />
      <path class="cls-2" d="M372.32,559.94v.41M370.02,525.44v.41" />
      <path class="cls-2" d="M370.02,526.27v33.26" />
      <path class="cls-2" d="M370.02,559.94v.41M367.72,525.44v.41" />
      <path class="cls-2" d="M367.72,526.27v33.26" />
      <path class="cls-2" d="M367.72,559.94v.41M365.42,525.44v.41" />
      <path class="cls-2" d="M365.42,526.27v33.26" />
      <path class="cls-2" d="M365.42,559.94v.41M363.25,525.44v.41" />
      <path class="cls-2" d="M363.25,526.27v33.26" />
      <path class="cls-2" d="M363.25,559.94v.41M360.95,525.44v.41" />
      <path class="cls-2" d="M360.95,526.27v33.26" />
      <path class="cls-2" d="M360.95,559.94v.41M358.66,525.44v.41" />
      <path class="cls-2" d="M358.66,526.27v33.26" />
      <path class="cls-2" d="M358.66,559.94v.41M356.36,525.44v.41" />
      <path class="cls-2" d="M356.36,526.27v33.26" />
      <path class="cls-2" d="M356.36,559.94v.41M354.06,525.44v.41" />
      <path class="cls-2" d="M354.06,526.27v33.26" />
      <path class="cls-2" d="M354.06,559.94v.41M351.76,525.44v.41" />
      <path class="cls-2" d="M351.76,526.27v33.26" />
      <path class="cls-2" d="M351.76,559.94v.41" />
      <path class="cls-2" d="M432.99,559.94v-.41h-88.12v.41" />
      <path class="cls-2" d="M432.99,559.94h-88.12" />
      <path class="cls-2" d="M432.99,526.27v-.41h-88.12v.41" />
      <path class="cls-2" d="M432.99,526.27h-88.12" />
      <path class="cls-2" d="M346.65,544.88l-1.79-2.05,1.79-1.92" />
      <path class="cls-2" d="M346.65,544.88l.38-.55M346.65,540.91l.38.55" />
      <path class="cls-2" d="M347.03,544.33l-1.28-1.51,1.28-1.37" />
      <path class="cls-2" d="M349.46,525.44v.41" />
      <path class="cls-2" d="M349.46,526.27v33.26" />
      <path class="cls-2" d="M349.46,559.94v.41M349.46,525.44v.41" />
      <path class="cls-2" d="M349.46,526.27v33.26" />
      <path class="cls-2" d="M349.46,559.94v.41M347.16,525.44v.41" />
      <path class="cls-2" d="M347.16,526.27v33.26" />
      <path class="cls-2" d="M347.16,559.94v.41M347.16,525.44v.41" />
      <path class="cls-2" d="M347.16,526.27v33.26" />
      <path class="cls-2" d="M347.16,559.94v.41M344.86,525.44v.41" />
      <path class="cls-2" d="M344.86,526.27v33.26" />
      <path class="cls-2" d="M344.86,559.94v.41M344.86,525.44v.41" />
      <path class="cls-2" d="M344.86,526.27v33.26" />
      <path
        class="cls-2"
        d="M344.86,559.94v.41M347.16,560.35h2.3M347.16,525.44h2.3M344.86,560.35h2.3M344.86,525.44h2.3M428.52,525.44v.41"
      />
      <path class="cls-2" d="M428.52,526.27v33.26" />
      <path class="cls-2" d="M428.52,559.94v.41M428.52,525.44v.41" />
      <path class="cls-2" d="M428.52,526.27v33.26" />
      <path class="cls-2" d="M428.52,525.44h2.3v.41" />
      <path class="cls-2" d="M430.82,526.27v33.26" />
      <path class="cls-2" d="M430.82,559.94v.41M430.82,525.44v.41" />
      <path class="cls-2" d="M430.82,526.27v33.26" />
      <path class="cls-2" d="M430.82,559.94v.41h2.17" />
      <path class="cls-2" d="M344.86,526.13v-.14" />
      <path class="cls-2" d="M344.86,526.13h-.13" />
      <path class="cls-2" d="M344.86,559.66v.14" />
      <path class="cls-2" d="M344.86,559.66h-.13" />
    </g>
    <rect class="cls-1" x="155.39" y="584.96" width="64.11" height="26.33" />
    <rect class="cls-6" x="155.39" y="610.14" width="64.11" height="29.76" />
    <rect class="cls-1" x="155.39" y="639.91" width="64.11" height="21.75" />
    <rect class="cls-1" x="219.49" y="615.87" width="22.89" height="45.79" />
    <g>
      <path class="cls-2" d="M218.92,640.14v.34M192.75,611.64v.34" />
      <path class="cls-2" d="M192.75,612.32v27.49" />
      <path class="cls-2" d="M192.75,640.14v.34M183.69,611.64v.34" />
      <path class="cls-2" d="M183.69,612.32v27.49" />
      <path class="cls-2" d="M183.69,640.14v.34" />
      <path class="cls-2" d="M215.72,640.48h-23.01" />
      <path class="cls-2" d="M214.07,611.64h1.65M218.92,611.64h-.09" />
      <path class="cls-2" d="M212.42,611.64h-19.71" />
      <path class="cls-2" d="M183.69,640.48h-24.66" />
      <path class="cls-2" d="M183.69,611.64h-24.66" />
      <path class="cls-2" d="M214.07,611.64v.34" />
      <path class="cls-2" d="M214.07,612.32v27.49" />
      <path class="cls-2" d="M214.07,640.14v.34M212.42,611.64v.34" />
      <path class="cls-2" d="M212.42,612.32v27.49" />
      <path class="cls-2" d="M212.42,640.14v.34M210.78,611.64v.34" />
      <path class="cls-2" d="M210.78,612.32v27.49" />
      <path class="cls-2" d="M210.78,640.14v.34M209.13,611.64v.34" />
      <path class="cls-2" d="M209.13,612.32v27.49" />
      <path class="cls-2" d="M209.13,640.14v.34M207.48,611.64v.34" />
      <path class="cls-2" d="M207.48,612.32v27.49" />
      <path class="cls-2" d="M207.48,640.14v.34M205.84,611.64v.34" />
      <path class="cls-2" d="M205.84,612.32v27.49" />
      <path class="cls-2" d="M205.84,640.14v.34M204.19,611.64v.34" />
      <path class="cls-2" d="M204.19,612.32v27.49" />
      <path class="cls-2" d="M204.19,640.14v.34M202.54,611.64v.34" />
      <path class="cls-2" d="M202.54,612.32v27.49" />
      <path class="cls-2" d="M202.54,640.14v.34M200.9,611.64v.34" />
      <path class="cls-2" d="M200.9,612.32v27.49" />
      <path class="cls-2" d="M200.9,640.14v.34M199.34,611.64v.34" />
      <path class="cls-2" d="M199.34,612.32v27.49" />
      <path class="cls-2" d="M199.34,640.14v.34M197.69,611.64v.34" />
      <path class="cls-2" d="M197.69,612.32v27.49" />
      <path class="cls-2" d="M197.69,640.14v.34M196.05,611.64v.34" />
      <path class="cls-2" d="M196.05,612.32v27.49" />
      <path class="cls-2" d="M196.05,640.14v.34M194.4,611.64v.34" />
      <path class="cls-2" d="M194.4,612.32v27.49" />
      <path class="cls-2" d="M194.4,640.14v.34M192.75,611.64v.34" />
      <path class="cls-2" d="M192.75,612.32v27.49" />
      <path class="cls-2" d="M192.75,640.14v.34M183.69,611.64v.34" />
      <path class="cls-2" d="M183.69,612.32v27.49" />
      <path class="cls-2" d="M183.69,640.14v.34M182.05,611.64v.34" />
      <path class="cls-2" d="M182.05,612.32v27.49" />
      <path class="cls-2" d="M182.05,640.14v.34M180.4,611.64v.34" />
      <path class="cls-2" d="M180.4,612.32v27.49" />
      <path class="cls-2" d="M180.4,640.14v.34M178.75,611.64v.34" />
      <path class="cls-2" d="M178.75,612.32v27.49" />
      <path class="cls-2" d="M178.75,640.14v.34M177.11,611.64v.34" />
      <path class="cls-2" d="M177.11,612.32v27.49" />
      <path class="cls-2" d="M177.11,640.14v.34M175.46,611.64v.34" />
      <path class="cls-2" d="M175.46,612.32v27.49" />
      <path class="cls-2" d="M175.46,640.14v.34M173.81,611.64v.34" />
      <path class="cls-2" d="M173.81,612.32v27.49" />
      <path class="cls-2" d="M173.81,640.14v.34M172.17,611.64v.34" />
      <path class="cls-2" d="M172.17,612.32v27.49" />
      <path class="cls-2" d="M172.17,640.14v.34M170.52,611.64v.34" />
      <path class="cls-2" d="M170.52,612.32v27.49" />
      <path class="cls-2" d="M170.52,640.14v.34M168.96,611.64v.34" />
      <path class="cls-2" d="M168.96,612.32v27.49" />
      <path class="cls-2" d="M168.96,640.14v.34M167.32,611.64v.34" />
      <path class="cls-2" d="M167.32,612.32v27.49" />
      <path class="cls-2" d="M167.32,640.14v.34M165.67,611.64v.34" />
      <path class="cls-2" d="M165.67,612.32v27.49" />
      <path class="cls-2" d="M165.67,640.14v.34M164.02,611.64v.34" />
      <path class="cls-2" d="M164.02,612.32v27.49" />
      <path class="cls-2" d="M164.02,640.14v.34M162.38,611.64v.34" />
      <path class="cls-2" d="M162.38,612.32v27.49" />
      <path class="cls-2" d="M162.38,640.14v.34M160.73,611.64v.34" />
      <path class="cls-2" d="M160.73,612.32v27.49" />
      <path class="cls-2" d="M160.73,640.14v.34M214.07,611.64v.34" />
      <path class="cls-2" d="M214.07,612.32v27.49" />
      <path class="cls-2" d="M214.07,640.14v.34M212.42,611.64v.34" />
      <path class="cls-2" d="M212.42,612.32v27.49" />
      <path class="cls-2" d="M212.42,640.14v.34M210.78,611.64v.34" />
      <path class="cls-2" d="M210.78,612.32v27.49" />
      <path class="cls-2" d="M210.78,640.14v.34M209.13,611.64v.34" />
      <path class="cls-2" d="M209.13,612.32v27.49" />
      <path class="cls-2" d="M209.13,640.14v.34M207.48,611.64v.34" />
      <path class="cls-2" d="M207.48,612.32v27.49" />
      <path class="cls-2" d="M207.48,640.14v.34M205.84,611.64v.34" />
      <path class="cls-2" d="M205.84,612.32v27.49" />
      <path class="cls-2" d="M205.84,640.14v.34M204.19,611.64v.34" />
      <path class="cls-2" d="M204.19,612.32v27.49" />
      <path class="cls-2" d="M204.19,640.14v.34M202.54,611.64v.34" />
      <path class="cls-2" d="M202.54,612.32v27.49" />
      <path class="cls-2" d="M202.54,640.14v.34M200.9,611.64v.34" />
      <path class="cls-2" d="M200.9,612.32v27.49" />
      <path class="cls-2" d="M200.9,640.14v.34M199.34,611.64v.34" />
      <path class="cls-2" d="M199.34,612.32v27.49" />
      <path class="cls-2" d="M199.34,640.14v.34M197.69,611.64v.34" />
      <path class="cls-2" d="M197.69,612.32v27.49" />
      <path class="cls-2" d="M197.69,640.14v.34M196.05,611.64v.34" />
      <path class="cls-2" d="M196.05,612.32v27.49" />
      <path class="cls-2" d="M196.05,640.14v.34M194.4,611.64v.34" />
      <path class="cls-2" d="M194.4,612.32v27.49" />
      <path class="cls-2" d="M194.4,640.14v.34M182.05,611.64v.34" />
      <path class="cls-2" d="M182.05,612.32v27.49" />
      <path class="cls-2" d="M182.05,640.14v.34M180.4,611.64v.34" />
      <path class="cls-2" d="M180.4,612.32v27.49" />
      <path class="cls-2" d="M180.4,640.14v.34M178.75,611.64v.34" />
      <path class="cls-2" d="M178.75,612.32v27.49" />
      <path class="cls-2" d="M178.75,640.14v.34M177.11,611.64v.34" />
      <path class="cls-2" d="M177.11,612.32v27.49" />
      <path class="cls-2" d="M177.11,640.14v.34M175.46,611.64v.34" />
      <path class="cls-2" d="M175.46,612.32v27.49" />
      <path class="cls-2" d="M175.46,640.14v.34M173.81,611.64v.34" />
      <path class="cls-2" d="M173.81,612.32v27.49" />
      <path class="cls-2" d="M173.81,640.14v.34M172.17,611.64v.34" />
      <path class="cls-2" d="M172.17,612.32v27.49" />
      <path class="cls-2" d="M172.17,640.14v.34M170.52,611.64v.34" />
      <path class="cls-2" d="M170.52,612.32v27.49" />
      <path class="cls-2" d="M170.52,640.14v.34M168.96,611.64v.34" />
      <path class="cls-2" d="M168.96,612.32v27.49" />
      <path class="cls-2" d="M168.96,640.14v.34M167.32,611.64v.34" />
      <path class="cls-2" d="M167.32,612.32v27.49" />
      <path class="cls-2" d="M167.32,640.14v.34M165.67,611.64v.34" />
      <path class="cls-2" d="M165.67,612.32v27.49" />
      <path class="cls-2" d="M165.67,640.14v.34M164.02,611.64v.34" />
      <path class="cls-2" d="M164.02,612.32v27.49" />
      <path class="cls-2" d="M164.02,640.14v.34M162.38,611.64v.34" />
      <path class="cls-2" d="M162.38,612.32v27.49" />
      <path class="cls-2" d="M162.38,640.14v.34M160.73,611.64v.34" />
      <path class="cls-2" d="M160.73,612.32v27.49" />
      <path class="cls-2" d="M160.73,640.14v.34" />
      <path class="cls-2" d="M218.92,640.14v-.34h-63.14v.34" />
      <path class="cls-2" d="M218.92,640.14h-63.14" />
      <path class="cls-2" d="M218.92,612.32v-.34h-63.14v.34" />
      <path class="cls-2" d="M218.92,612.32h-63.14" />
      <path class="cls-2" d="M157.07,627.7l-1.28-1.7,1.28-1.58" />
      <path class="cls-2" d="M157.07,627.7l.27-.45M157.07,624.42l.27.45" />
      <path class="cls-2" d="M157.34,627.25l-.91-1.24.91-1.13" />
      <path class="cls-2" d="M159.08,611.64v.34" />
      <path class="cls-2" d="M159.08,612.32v27.49" />
      <path class="cls-2" d="M159.08,640.14v.34M159.08,611.64v.34" />
      <path class="cls-2" d="M159.08,612.32v27.49" />
      <path class="cls-2" d="M159.08,640.14v.34M157.44,611.64v.34" />
      <path class="cls-2" d="M157.44,612.32v27.49" />
      <path class="cls-2" d="M157.44,640.14v.34M157.44,611.64v.34" />
      <path class="cls-2" d="M157.44,612.32v27.49" />
      <path class="cls-2" d="M157.44,640.14v.34M155.79,611.64v.34" />
      <path class="cls-2" d="M155.79,612.32v27.49" />
      <path class="cls-2" d="M155.79,640.14v.34M155.79,611.64v.34" />
      <path class="cls-2" d="M155.79,612.32v27.49" />
      <path
        class="cls-2"
        d="M155.79,640.14v.34M157.44,640.48h1.65M157.44,611.64h1.65M155.79,640.48h1.65M155.79,611.64h1.65M215.72,611.64v.34"
      />
      <path class="cls-2" d="M215.72,612.32v27.49" />
      <path class="cls-2" d="M215.72,640.14v.34M215.72,611.64v.34" />
      <path class="cls-2" d="M215.72,612.32v27.49" />
      <path class="cls-2" d="M215.72,611.64h1.65v.34" />
      <path class="cls-2" d="M217.37,612.32v27.49" />
      <path class="cls-2" d="M217.37,640.14v.34M217.37,611.64v.34" />
      <path class="cls-2" d="M217.37,612.32v27.49" />
      <path class="cls-2" d="M217.37,640.14v.34h1.56" />
      <path class="cls-2" d="M155.79,612.2v-.11" />
      <path class="cls-2" d="M155.79,612.2h-.09" />
      <path class="cls-2" d="M155.79,639.91v.11" />
      <path class="cls-2" d="M155.79,639.91h-.09" />
    </g>
    <rect class="cls-6" x="93" y="283.32" width="149.39" height="187.43" />
    <polygon
      class="cls-6"
      points="93 581.94 131.53 581.94 131.53 737.21 219.49 737.21 219.49 796.57 93 796.57 93 581.94"
    />
  </g>
</svg>
