<?xml version="1.0" encoding="UTF-8"?>
<svg
  xmlns="http://www.w3.org/2000/svg"
  version="1.1"
  viewBox="0 0 4083.1 2452.9"
>
  <defs>
    <style>
      .cls-1 {
        fill: none;
      }

      .cls-1,
      .cls-2,
      .cls-3 {
        stroke: #e38789;
        stroke-miterlimit: 10;
      }

      .cls-1,
      .cls-3 {
        stroke-width: 3px;
      }

      .cls-4,
      .cls-5,
      .cls-6,
      .cls-7,
      .cls-8,
      .cls-9 {
        isolation: isolate;
      }

      .cls-4,
      .cls-6,
      .cls-7,
      .cls-8,
      .cls-9 {
        fill: #221f20;
        font-family: NanumSquareNeoTTF-dEb, "NanumSquare Neo";
        font-size: 36px;
      }

      .cls-6 {
        letter-spacing: 0em;
      }

      .cls-7 {
        letter-spacing: 0em;
      }

      .cls-2 {
        fill: #fcf4f3;
        stroke-width: 10px;
      }

      .cls-8 {
        letter-spacing: 0em;
      }

      .cls-9 {
        letter-spacing: 0em;
      }

      .cls-3 {
        fill: #f4d1d1;
      }
    </style>
  </defs>
  <!-- Generator: Adobe Illustrator 28.6.0, SVG Export Plug-In . SVG Version: 1.2.0 Build 709)  -->
  <g>
    <g id="_x33_">
      <g id="Layer_x5F_border">
        <rect class="cls-2" x="348.8" y="597.5" width="3419" height="1178.4" />
      </g>
      <g id="Layer_50">
        <rect class="cls-3" x="348.8" y="1277.5" width="468" height="498.5" />
        <g class="cls-5">
          <text class="cls-4" transform="translate(544.3 1526.7)">
            <tspan x="0" y="0">305</tspan>
          </text>
        </g>
      </g>
      <g id="Layer_51">
        <rect class="cls-3" x="816.7" y="1277.5" width="692.1" height="498.5" />
        <g class="cls-5">
          <text class="cls-4" transform="translate(1123.8 1498.8)">
            <tspan x="0" y="0">304</tspan>
          </text>
          <text class="cls-4" transform="translate(842.1 1542)">
            <tspan x="0" y="0">국제팀,경력개발센터,일반대학원,CDTB</tspan>
          </text>
        </g>
      </g>
      <g id="Layer_52">
        <rect
          class="cls-3"
          x="1508.8"
          y="1277.5"
          width="311.6"
          height="498.5"
        />
        <g class="cls-5">
          <text class="cls-4" transform="translate(1625.8 1468.3)">
            <tspan x="0" y="0">303</tspan>
          </text>
          <text class="cls-6" transform="translate(1612.5 1511.5)">
            <tspan x="0" y="0">K</tspan>
          </text>
          <text class="cls-4" transform="translate(1636.2 1511.5)">
            <tspan x="0" y="0">U</tspan>
          </text>
          <text class="cls-7" transform="translate(1664.8 1511.5)">
            <tspan x="0" y="0">B</tspan>
          </text>
          <text class="cls-4" transform="translate(1691.4 1511.5)">
            <tspan x="0" y="0">S</tspan>
          </text>
          <text class="cls-4" transform="translate(1545 1554.7)">
            <tspan x="0" y="0">I</tspan>
          </text>
          <text class="cls-4" transform="translate(1555 1554.7)">
            <tspan x="0" y="0">nt</tspan>
          </text>
          <text class="cls-4" transform="translate(1593.8 1554.7)">
            <tspan x="0" y="0">ern</tspan>
          </text>
          <text class="cls-4" transform="translate(1656.5 1554.7)">
            <tspan x="0" y="0">a</tspan>
          </text>
          <text class="cls-4" transform="translate(1678.5 1554.7)">
            <tspan x="0" y="0">t</tspan>
          </text>
          <text class="cls-9" transform="translate(1694.3 1554.7)">
            <tspan x="0" y="0">i</tspan>
          </text>
          <text class="cls-4" transform="translate(1704.5 1554.7)">
            <tspan x="0" y="0">onal</tspan>
          </text>
          <text class="cls-9" transform="translate(1594.8 1597.9)">
            <tspan x="0" y="0">L</tspan>
          </text>
          <text class="cls-4" transform="translate(1615.7 1597.9)">
            <tspan x="0" y="0">ounge</tspan>
          </text>
        </g>
      </g>
      <g id="Layer_53">
        <rect
          class="cls-3"
          x="1820.4"
          y="1277.5"
          width="247.3"
          height="498.5"
        />
        <g class="cls-5">
          <text class="cls-4" transform="translate(1905.6 1494.5)">
            <tspan x="0" y="0">302</tspan>
          </text>
          <text class="cls-4" transform="translate(1892.9 1537.7)">
            <tspan x="0" y="0">탁마정</tspan>
          </text>
        </g>
      </g>
      <g id="Layer_54">
        <rect class="cls-3" x="2067.7" y="1277.5" width="1700" height="498.5" />
        <g class="cls-5">
          <text class="cls-4" transform="translate(2902.3 1494.5)">
            <tspan x="0" y="0">301</tspan>
          </text>
          <text class="cls-4" transform="translate(2734.7 1537.7)">
            <tspan x="0" y="0">정진초(공인회계사준비반)</tspan>
          </text>
        </g>
      </g>
      <g id="Layer_55">
        <rect class="cls-3" x="3159.7" y="597.5" width="370.7" height="491.3" />
        <g class="cls-5">
          <text class="cls-4" transform="translate(3325.9 820.5)">
            <tspan x="0" y="0">3</tspan>
          </text>
          <text class="cls-4" transform="translate(3351.2 820.5)">
            <tspan x="0" y="0">11</tspan>
          </text>
          <text class="cls-4" transform="translate(3319.1 863.7)">
            <tspan x="0" y="0">EEC</tspan>
          </text>
        </g>
      </g>
      <g id="Layer_56">
        <rect class="cls-3" x="2780.8" y="597.5" width="378.9" height="491.3" />
        <g class="cls-5">
          <text class="cls-4" transform="translate(2935.5 827.2)">
            <tspan x="0" y="0">3</tspan>
          </text>
          <text class="cls-4" transform="translate(2960.7 827.2)">
            <tspan x="0" y="0">10</tspan>
          </text>
          <text class="cls-4" transform="translate(2919 870.4)">
            <tspan x="0" y="0">회계팀</tspan>
          </text>
        </g>
      </g>
      <g id="Layer_57">
        <rect class="cls-1" x="2544.2" y="597.5" width="236.5" height="491.3" />
      </g>
      <g id="Layer_58">
        <rect class="cls-1" x="2311.7" y="597.5" width="232.6" height="491.3" />
      </g>
      <g id="Layer_59">
        <rect class="cls-3" x="1531.4" y="913.6" width="289" height="175.2" />
        <g class="cls-5">
          <text class="cls-4" transform="translate(1625 1010.2)">
            <tspan x="0" y="0">307B</tspan>
          </text>
        </g>
      </g>
      <g id="Layer_60">
        <rect class="cls-3" x="913" y="597.5" width="618.4" height="491.3" />
        <g class="cls-5">
          <text class="cls-4" transform="translate(1184.8 843.2)">
            <tspan x="0" y="0">307</tspan>
          </text>
          <text class="cls-4" transform="translate(1051.6 886.4)">
            <tspan x="0" y="0">경영전문대학원 행정팀</tspan>
          </text>
        </g>
      </g>
      <g id="Layer_61">
        <rect class="cls-3" x="602" y="597.5" width="311" height="491.3" />
        <g class="cls-5">
          <text class="cls-4" transform="translate(718.7 862.3)">
            <tspan x="0" y="0">306</tspan>
          </text>
        </g>
      </g>
      <g id="Layer_62">
        <rect class="cls-3" x="1531.4" y="597.5" width="289" height="316.1" />
        <g class="cls-5">
          <text class="cls-4" transform="translate(1624.4 737.8)">
            <tspan x="0" y="0">307A</tspan>
          </text>
          <text class="cls-4" transform="translate(1624.7 781)">
            <tspan x="0" y="0">회의실</tspan>
          </text>
        </g>
      </g>
      <g id="Layer_x5F_others">
        <rect class="cls-1" x="3532" y="597.5" width="235.8" height="491.3" />
        <g>
          <rect class="cls-1" x="3530.4" y="597.5" width="116.1" height="34" />
          <rect
            class="cls-1"
            x="3530.4"
            y="631.5"
            width="116.1"
            height="35.3"
          />
          <rect
            class="cls-1"
            x="3530.4"
            y="666.8"
            width="116.1"
            height="40.8"
          />
          <rect
            class="cls-1"
            x="3530.4"
            y="707.6"
            width="116.1"
            height="32.6"
          />
          <rect
            class="cls-1"
            x="3530.4"
            y="740.2"
            width="116.1"
            height="40.8"
          />
          <rect class="cls-1" x="3530.4" y="781" width="116.1" height="29.2" />
          <rect
            class="cls-1"
            x="3530.4"
            y="810.2"
            width="116.1"
            height="44.2"
          />
          <rect
            class="cls-1"
            x="3530.4"
            y="854.3"
            width="116.1"
            height="40.8"
          />
          <rect
            class="cls-1"
            x="3530.4"
            y="895.1"
            width="116.1"
            height="35.3"
          />
          <rect
            class="cls-1"
            x="3530.4"
            y="930.4"
            width="116.1"
            height="35.3"
          />
        </g>
        <g>
          <rect class="cls-1" x="3649.9" y="597.5" width="116.1" height="34" />
          <rect
            class="cls-1"
            x="3649.9"
            y="631.5"
            width="116.1"
            height="35.3"
          />
          <rect
            class="cls-1"
            x="3649.9"
            y="666.8"
            width="116.1"
            height="40.8"
          />
          <rect
            class="cls-1"
            x="3649.9"
            y="707.6"
            width="116.1"
            height="32.6"
          />
          <rect
            class="cls-1"
            x="3649.9"
            y="740.2"
            width="116.1"
            height="40.8"
          />
          <rect class="cls-1" x="3649.9" y="781" width="116.1" height="29.2" />
          <rect
            class="cls-1"
            x="3649.9"
            y="810.2"
            width="116.1"
            height="44.2"
          />
          <rect
            class="cls-1"
            x="3649.9"
            y="854.3"
            width="116.1"
            height="40.8"
          />
          <rect
            class="cls-1"
            x="3649.9"
            y="895.1"
            width="116.1"
            height="35.3"
          />
          <rect
            class="cls-1"
            x="3649.9"
            y="930.4"
            width="116.1"
            height="35.3"
          />
        </g>
        <rect class="cls-1" x="1973.8" y="755.4" width="187.9" height="265.6" />
        <rect class="cls-1" x="1820.4" y="597.5" width="491.3" height="491.3" />
        <rect class="cls-3" x="1973.8" y="875" width="187.9" height="146.1" />
        <g>
          <rect class="cls-1" x="2161.7" y="596.2" width="150" height="32.5" />
          <rect class="cls-1" x="2161.7" y="628.7" width="150" height="33.8" />
          <rect class="cls-1" x="2161.7" y="662.4" width="150" height="38.9" />
          <rect class="cls-1" x="2161.7" y="701.4" width="150" height="31.2" />
          <rect class="cls-1" x="2161.7" y="732.5" width="150" height="38.9" />
          <rect class="cls-1" x="2161.7" y="771.5" width="150" height="27.9" />
          <rect class="cls-1" x="2161.7" y="799.4" width="150" height="42.2" />
          <rect class="cls-1" x="2161.7" y="841.6" width="150" height="38.9" />
          <rect class="cls-1" x="2161.7" y="880.5" width="150" height="33.8" />
          <rect class="cls-1" x="2161.7" y="914.3" width="150" height="33.8" />
        </g>
        <g>
          <rect class="cls-1" x="1820.4" y="595.6" width="150" height="32.5" />
          <rect class="cls-1" x="1820.4" y="628" width="150" height="33.8" />
          <rect class="cls-1" x="1820.4" y="661.8" width="150" height="38.9" />
          <rect class="cls-1" x="1820.4" y="700.7" width="150" height="31.2" />
          <rect class="cls-1" x="1820.4" y="731.9" width="150" height="38.9" />
          <rect class="cls-1" x="1820.4" y="770.8" width="150" height="27.9" />
          <rect class="cls-1" x="1820.4" y="798.7" width="150" height="42.2" />
          <rect class="cls-1" x="1820.4" y="840.9" width="150" height="38.9" />
          <rect class="cls-1" x="1820.4" y="879.9" width="150" height="33.8" />
          <rect class="cls-1" x="1820.4" y="913.6" width="150" height="33.8" />
        </g>
        <rect class="cls-1" x="348.8" y="597.5" width="253.3" height="491.3" />
        <g>
          <rect class="cls-1" x="348.8" y="602.1" width="126.6" height="32.5" />
          <rect class="cls-1" x="348.8" y="634.5" width="126.6" height="33.8" />
          <rect class="cls-1" x="348.8" y="668.3" width="126.6" height="38.9" />
          <rect class="cls-1" x="348.8" y="707.2" width="126.6" height="31.2" />
          <rect class="cls-1" x="348.8" y="738.4" width="126.6" height="38.9" />
          <rect class="cls-1" x="348.8" y="777.3" width="126.6" height="27.9" />
          <rect class="cls-1" x="348.8" y="805.2" width="126.6" height="42.2" />
          <rect class="cls-1" x="348.8" y="847.4" width="126.6" height="38.9" />
          <rect class="cls-1" x="348.8" y="886.4" width="126.6" height="33.8" />
          <rect class="cls-1" x="348.8" y="920.1" width="126.6" height="33.8" />
        </g>
        <g>
          <rect class="cls-1" x="475.4" y="601.5" width="126.6" height="32.5" />
          <rect class="cls-1" x="475.4" y="633.9" width="126.6" height="33.8" />
          <rect class="cls-1" x="475.4" y="667.7" width="126.6" height="38.9" />
          <rect class="cls-1" x="475.4" y="706.6" width="126.6" height="31.2" />
          <rect class="cls-1" x="475.4" y="737.8" width="126.6" height="38.9" />
          <rect class="cls-1" x="475.4" y="776.7" width="126.6" height="27.9" />
          <rect class="cls-1" x="475.4" y="804.6" width="126.6" height="42.2" />
          <rect class="cls-1" x="475.4" y="846.8" width="126.6" height="38.9" />
          <rect class="cls-1" x="475.4" y="885.7" width="126.6" height="33.8" />
          <rect class="cls-1" x="475.4" y="919.5" width="126.6" height="33.8" />
        </g>
      </g>
    </g>
  </g>
</svg>
