<?xml version="1.0" encoding="UTF-8"?>
<svg id="_x37_" xmlns="http://www.w3.org/2000/svg" viewBox="0 0 1394 788">
  <defs>
    <style>
      .cls-1, .cls-2, .cls-3 {
        fill: #231f20;
        font-family: NanumSquareNeoTTF-dEb, 'NanumSquare Neo';
      }

      .cls-4 {
        font-size: 8px;
      }

      .cls-5 {
        fill: none;
      }

      .cls-5, .cls-6 {
        stroke-width: 3px;
      }

      .cls-5, .cls-6, .cls-7 {
        stroke: #f48589;
        stroke-miterlimit: 10;
      }

      .cls-6 {
        fill: #facbcf;
      }

      .cls-8, .cls-3 {
        font-size: 14px;
      }

      .cls-2 {
        font-size: 13.08px;
      }

      .cls-7 {
        fill: #fef2f2;
        stroke-width: 10px;
      }
    </style>
  </defs>
  <g id="Layer_x5F_border-7" data-name="Layer_x5F_border">
    <polygon class="cls-7" points="40 253 40 600.4 1351.67 600.4 1351.67 401 1257.65 401 1257.65 253 40 253"/>
  </g>
  <g id="Layer_x5F_others-7" data-name="Layer_x5F_others">
    <rect class="cls-6" x="40.5" y="253.5" width="69" height="151"/>
    <g>
      <rect class="cls-5" x="75.68" y="286.68" width="117.64" height="51" transform="translate(446.68 177.68) rotate(90)"/>
      <g>
        <rect class="cls-5" x="144.28" y="270.79" width="5.93" height="25.5" transform="translate(430.79 136.29) rotate(90)"/>
        <rect class="cls-5" x="144.28" y="276.72" width="5.93" height="25.5" transform="translate(436.72 142.22) rotate(90)"/>
        <rect class="cls-5" x="144.28" y="282.65" width="5.93" height="25.5" transform="translate(442.65 148.15) rotate(90)"/>
        <rect class="cls-5" x="144.28" y="288.59" width="5.93" height="25.5" transform="translate(448.59 154.09) rotate(90)"/>
        <rect class="cls-5" x="144.28" y="294.52" width="5.93" height="25.5" transform="translate(454.52 160.02) rotate(90)"/>
        <rect class="cls-5" x="144.28" y="300.48" width="5.93" height="25.5" transform="translate(460.48 165.98) rotate(90)"/>
        <rect class="cls-5" x="144.28" y="306.41" width="5.93" height="25.5" transform="translate(466.41 171.91) rotate(90)"/>
        <rect class="cls-5" x="144.28" y="312.35" width="5.93" height="25.5" transform="translate(472.35 177.85) rotate(90)"/>
        <rect class="cls-5" x="144.28" y="318.28" width="5.93" height="25.5" transform="translate(478.28 183.78) rotate(90)"/>
        <rect class="cls-5" x="144.28" y="324.21" width="5.93" height="25.5" transform="translate(484.21 189.71) rotate(90)"/>
      </g>
      <g>
        <rect class="cls-5" x="118.78" y="270.67" width="5.93" height="25.5" transform="translate(405.17 161.67) rotate(90)"/>
        <rect class="cls-5" x="118.78" y="276.61" width="5.93" height="25.5" transform="translate(411.11 167.61) rotate(90)"/>
        <rect class="cls-5" x="118.78" y="282.54" width="5.93" height="25.5" transform="translate(417.04 173.54) rotate(90)"/>
        <rect class="cls-5" x="118.78" y="288.47" width="5.93" height="25.5" transform="translate(422.97 179.47) rotate(90)"/>
        <rect class="cls-5" x="118.78" y="294.4" width="5.93" height="25.5" transform="translate(428.9 185.4) rotate(90)"/>
        <rect class="cls-5" x="118.78" y="300.37" width="5.93" height="25.5" transform="translate(434.87 191.37) rotate(90)"/>
        <rect class="cls-5" x="118.78" y="306.3" width="5.93" height="25.5" transform="translate(440.8 197.3) rotate(90)"/>
        <rect class="cls-5" x="118.78" y="312.23" width="5.93" height="25.5" transform="translate(446.73 203.23) rotate(90)"/>
        <rect class="cls-5" x="118.78" y="318.16" width="5.93" height="25.5" transform="translate(452.66 209.16) rotate(90)"/>
        <rect class="cls-5" x="118.78" y="324.1" width="5.93" height="25.5" transform="translate(458.6 215.1) rotate(90)"/>
      </g>
    </g>
    <g>
      <polygon class="cls-6" points="895.82 404.29 951.6 404.29 951.6 315.21 929.14 315.21 929.14 347.29 895.82 347.29 895.82 404.29"/>
      <g>
        <rect class="cls-5" x="920.39" y="285.18" width="150.31" height="86.91" transform="translate(1324.18 -666.91) rotate(90)"/>
        <g>
          <rect class="cls-5" x="1013.48" y="270.31" width="7.58" height="43.45" transform="translate(1309.31 -725.23) rotate(90)"/>
          <rect class="cls-5" x="1013.48" y="277.89" width="7.58" height="43.45" transform="translate(1316.89 -717.65) rotate(90)"/>
          <rect class="cls-5" x="1013.48" y="285.47" width="7.58" height="43.45" transform="translate(1324.47 -710.07) rotate(90)"/>
          <rect class="cls-5" x="1013.48" y="293.05" width="7.58" height="43.45" transform="translate(1332.05 -702.49) rotate(90)"/>
          <rect class="cls-5" x="1013.48" y="300.63" width="7.58" height="43.45" transform="translate(1339.63 -694.91) rotate(90)"/>
          <rect class="cls-5" x="1013.48" y="308.25" width="7.58" height="43.45" transform="translate(1347.25 -687.29) rotate(90)"/>
          <rect class="cls-5" x="1013.48" y="315.83" width="7.58" height="43.45" transform="translate(1354.83 -679.72) rotate(90)"/>
          <rect class="cls-5" x="1013.48" y="323.41" width="7.58" height="43.45" transform="translate(1362.41 -672.14) rotate(90)"/>
          <rect class="cls-5" x="1013.48" y="330.99" width="7.58" height="43.45" transform="translate(1369.99 -664.56) rotate(90)"/>
          <rect class="cls-5" x="1013.48" y="338.57" width="7.58" height="43.45" transform="translate(1377.57 -656.98) rotate(90)"/>
        </g>
        <g>
          <rect class="cls-5" x="970.03" y="270.17" width="7.58" height="43.45" transform="translate(1265.71 -681.92) rotate(90)"/>
          <rect class="cls-5" x="970.03" y="277.75" width="7.58" height="43.45" transform="translate(1273.29 -674.34) rotate(90)"/>
          <rect class="cls-5" x="970.03" y="285.33" width="7.58" height="43.45" transform="translate(1280.87 -666.76) rotate(90)"/>
          <rect class="cls-5" x="970.03" y="292.91" width="7.58" height="43.45" transform="translate(1288.45 -659.18) rotate(90)"/>
          <rect class="cls-5" x="970.03" y="300.49" width="7.58" height="43.45" transform="translate(1296.03 -651.6) rotate(90)"/>
          <rect class="cls-5" x="970.03" y="308.1" width="7.58" height="43.45" transform="translate(1303.65 -643.99) rotate(90)"/>
          <rect class="cls-5" x="970.03" y="315.68" width="7.58" height="43.45" transform="translate(1311.23 -636.41) rotate(90)"/>
          <rect class="cls-5" x="970.03" y="323.26" width="7.58" height="43.45" transform="translate(1318.81 -628.83) rotate(90)"/>
          <rect class="cls-5" x="970.03" y="330.84" width="7.58" height="43.45" transform="translate(1326.39 -621.25) rotate(90)"/>
          <rect class="cls-5" x="970.03" y="338.42" width="7.58" height="43.45" transform="translate(1333.97 -613.67) rotate(90)"/>
        </g>
      </g>
    </g>
    <g>
      <rect class="cls-6" x="1224.5" y="253.5" width="34" height="59"/>
      <rect class="cls-6" x="1158.5" y="253.5" width="66" height="59"/>
      <rect class="cls-6" x="1114.5" y="312.5" width="44" height="44"/>
      <rect class="cls-6" x="1114.5" y="356.5" width="44" height="48"/>
      <rect class="cls-6" x="1158.5" y="312.5" width="51" height="92"/>
      <rect class="cls-6" x="1114.5" y="253.5" width="44" height="59"/>
    </g>
    <rect class="cls-6" x="396.5" y="404.5" width="60" height="0"/>
  </g>
  <g id="Layer_205">
    <rect class="cls-6" x="39.5" y="441.91" width="120" height="130.09"/>
    <text class="cls-3" transform="translate(88.15 502.03)"><tspan x="0" y="0">711</tspan><tspan x="-8.56" y="16.8">연구실</tspan></text>
  </g>
  <g id="Layer_206">
    <rect class="cls-6" x="159.5" y="441.91" width="123" height="130.09"/>
    <text class="cls-3" transform="translate(207.97 502.03)"><tspan x="0" y="0">710</tspan><tspan x="-6.88" y="16.8">연구실</tspan></text>
  </g>
  <g id="Layer_207">
    <rect class="cls-6" x="282.5" y="441.91" width="118" height="130.09"/>
    <text class="cls-3" transform="translate(326.96 502.03)"><tspan x="0" y="0">709</tspan><tspan x="-5.37" y="16.8">연구실</tspan></text>
  </g>
  <g id="Layer_208">
    <rect class="cls-6" x="400.5" y="441.91" width="118" height="130.09"/>
    <text class="cls-3" transform="translate(444.81 502.03)"><tspan x="0" y="0">708</tspan><tspan x="-5.22" y="16.8">연구실</tspan></text>
  </g>
  <g id="Layer_209">
    <polygon class="cls-6" points="548.25 441.91 518.5 441.91 518.5 471.05 518.5 572 548.25 572 578 572 578 441.91 548.25 441.91"/>
    <text class="cls-3" transform="translate(529 502.03)"><tspan x="0" y="0">707B</tspan><tspan x="-.66" y="16.8">연구실</tspan></text>
  </g>
  <g id="Layer_210">
    <rect class="cls-6" x="577.5" y="441.5" width="59" height="130"/>
    <text class="cls-3" transform="translate(587.53 501.58)"><tspan x="0" y="0">707A</tspan><tspan x="-.43" y="16.8">연구실</tspan></text>
  </g>
  <g id="Layer_211">
    <rect class="cls-6" x="636.5" y="441.91" width="118" height="130.09"/>
    <text class="cls-3" transform="translate(680.96 502.03)"><tspan x="0" y="0">706</tspan><tspan x="-33.65" y="16.8">건축학과 설계실</tspan></text>
  </g>
  <g id="Layer_212">
    <rect class="cls-6" x="754.5" y="441.91" width="59" height="130.09"/>
    <text class="cls-3" transform="translate(764.33 502.03)"><tspan x="0" y="0">705B</tspan><tspan x="-.24" y="16.8">연구실</tspan></text>
  </g>
  <g id="Layer_213">
    <rect class="cls-6" x="813.5" y="441.5" width="58" height="130.5"/>
    <text class="cls-3" transform="translate(822.61 501.83)"><tspan x="0" y="0">705A</tspan><tspan x="-.01" y="16.8">연구실</tspan></text>
  </g>
  <g id="Layer_214">
    <rect class="cls-6" x="934.5" y="441.91" width="56" height="130.09"/>
    <text class="cls-1" transform="translate(942.43 492.14)"><tspan class="cls-8"><tspan x="0" y="0">704A</tspan></tspan><tspan class="cls-4"><tspan x="-3.67" y="16.8">복원력을 가진</tspan></tspan><tspan class="cls-4"><tspan x="3.91" y="26.4">자율 운영</tspan></tspan><tspan class="cls-4"><tspan x="8.69" y="36">전력망</tspan></tspan><tspan class="cls-4"><tspan x="12.48" y="45.6">센터</tspan></tspan></text>
  </g>
  <g id="Layer_322">
    <rect class="cls-6" x="871.5" y="441.91" width="63" height="130.09"/>
    <text class="cls-1" transform="translate(883.15 492.14)"><tspan class="cls-8"><tspan x="0" y="0">704B</tspan></tspan><tspan class="cls-4"><tspan x="-7.81" y="16.8">자동차융합학과,</tspan></tspan><tspan class="cls-4"><tspan x="-6.7" y="26.4">스마트모빌리티</tspan></tspan><tspan class="cls-4"><tspan x="12.26" y="36">학부</tspan></tspan><tspan class="cls-4"><tspan x="8.47" y="45.6">행정실</tspan></tspan></text>
  </g>
  <g id="Layer_215">
    <rect class="cls-6" x="990.5" y="441.91" width="63" height="130.09"/>
    <text class="cls-3" transform="translate(1002.19 502.03)"><tspan x="0" y="0">703B</tspan><tspan x="-.1" y="16.8">연구실</tspan></text>
  </g>
  <g id="Layer_216">
    <rect class="cls-6" x="1053.5" y="442.32" width="119" height="129.68"/>
    <text class="cls-3" transform="translate(1092.97 502.24)"><tspan x="0" y="0">703A</tspan><tspan x=".13" y="16.8">연구실</tspan></text>
  </g>
  <g id="Layer_217">
    <rect class="cls-6" x="1172.5" y="442.32" width="58" height="129.68"/>
    <text class="cls-3" transform="translate(1181.84 502.24)"><tspan x="0" y="0">702B</tspan><tspan x="-.25" y="16.8">연구실</tspan></text>
  </g>
  <g id="Layer_218">
    <rect class="cls-6" x="1230.5" y="442.32" width="61" height="129.68"/>
    <text class="cls-3" transform="translate(1241.11 502.24)"><tspan x="0" y="0">702A</tspan><tspan x="-.02" y="16.8">연구실</tspan></text>
  </g>
  <g id="Layer_185">
    <rect class="cls-6" x="160.5" y="253.5" width="60" height="150.5"/>
    <text class="cls-3" transform="translate(172.29 323.83)"><tspan x="0" y="0">712A</tspan><tspan x="-1.7" y="16.8">연구실</tspan></text>
  </g>
  <g id="Layer_186">
    <rect class="cls-6" x="220.5" y="253.5" width="42.5" height="151"/>
    <text class="cls-2" transform="translate(224.64 323.34)"><tspan x="0" y="0">712B</tspan><tspan x="-1.8" y="15.69">연구실</tspan></text>
  </g>
  <g id="Layer_187">
    <rect class="cls-6" x="262.5" y="253.5" width="73" height="151"/>
    <text class="cls-3" transform="translate(286.14 324.08)"><tspan x="0" y="0">713</tspan><tspan x="-7.05" y="16.8">연구실</tspan></text>
  </g>
  <g id="Layer_188">
    <rect class="cls-6" x="335.5" y="336.5" width="61" height="68"/>
    <text class="cls-3" transform="translate(347.61 365.58)"><tspan x="0" y="0">714A</tspan><tspan x="-1.52" y="16.8">연구실</tspan></text>
  </g>
  <g id="Layer_189">
    <rect class="cls-6" x="335.5" y="253.5" width="61" height="66"/>
    <text class="cls-3" transform="translate(347.83 281.58)"><tspan x="0" y="0">714B</tspan><tspan x="-1.74" y="16.8">연구실</tspan></text>
  </g>
  <g id="Layer_190">
    <rect class="cls-6" x="396.5" y="253.5" width="60" height="66"/>
    <text class="cls-3" transform="translate(408.2 281.58)"><tspan x="0" y="0">714C</tspan><tspan x="-1.6" y="16.8">연구실</tspan></text>
  </g>
  <g id="Layer_191">
    <rect class="cls-6" x="456.5" y="253.5" width="62" height="66"/>
    <text class="cls-3" transform="translate(469.12 281.58)"><tspan x="0" y="0">714D</tspan><tspan x="-1.53" y="16.8">연구실</tspan></text>
  </g>
  <g id="Layer_192">
    <rect class="cls-6" x="518.5" y="253.5" width="59" height="66"/>
    <text class="cls-3" transform="translate(530.56 281.58)"><tspan x="0" y="0">714E</tspan><tspan x="-2.46" y="16.8">연구실</tspan></text>
  </g>
  <g id="Layer_193">
    <rect class="cls-6" x="518.5" y="336.5" width="59" height="68"/>
    <text class="cls-3" transform="translate(530.8 365.58)"><tspan x="0" y="0">714F</tspan><tspan x="-2.71" y="16.8">연구실</tspan></text>
  </g>
  <g id="Layer_194">
    <rect class="cls-6" x="456.5" y="336.5" width="62" height="68"/>
    <text class="cls-3" transform="translate(469.18 365.58)"><tspan x="0" y="0">714G</tspan><tspan x="-1.59" y="16.8">연구실</tspan></text>
  </g>
  <g id="Layer_195">
    <rect class="cls-6" x="577.5" y="253.5" width="59" height="150.5"/>
    <text class="cls-3" transform="translate(594.28 323.83)"><tspan x="0" y="0">715</tspan><tspan x="-7.19" y="16.8">연구실</tspan></text>
  </g>
  <g id="Layer_196">
    <rect class="cls-6" x="636.5" y="253.5" width="61" height="150"/>
    <text class="cls-3" transform="translate(648.65 323.58)"><tspan x="0" y="0">716A</tspan><tspan x="-1.55" y="16.8">연구실</tspan></text>
  </g>
  <g id="Layer_197">
    <rect class="cls-6" x="697.5" y="253.5" width="57" height="150"/>
    <text class="cls-3" transform="translate(707.87 323.58)"><tspan x="0" y="0">716B</tspan><tspan x="-1.78" y="16.8">연구실</tspan></text>
  </g>
  <g id="Layer_198">
    <rect class="cls-6" x="754.5" y="253.5" width="59" height="150"/>
    <text class="cls-3" transform="translate(766.21 323.58)"><tspan x="0" y="0">717A</tspan><tspan x="-2.11" y="16.8">연구실</tspan></text>
  </g>
  <g id="Layer_199">
    <rect class="cls-6" x="813.5" y="253.5" width="55" height="150"/>
    <text class="cls-3" transform="translate(823.43 323.58)"><tspan x="0" y="0">717B</tspan><tspan x="-2.34" y="16.8">연구실</tspan></text>
  </g>
  <g id="Layer_200">
    <polygon class="cls-5" points="868.6 253.29 868.6 364.29 868.6 404.29 895.94 404.29 895.94 364.29 895.82 364.29 895.82 347.29 929.14 347.29 929.14 315.21 951.6 315.21 951.6 253.29 868.6 253.29"/>
  </g>
  <g id="Layer_201">
    <rect class="cls-5" x="1209.5" y="312.5" width="49" height="92"/>
  </g>
  <g id="Layer_202">
    <rect class="cls-6" x="1291.5" y="442.32" width="60" height="129.68"/>
    <text class="cls-3" transform="translate(1308.47 502.24)"><tspan x="0" y="0">701</tspan><tspan x="-6.88" y="16.8">연구실</tspan></text>
  </g>
</svg>