<?xml version="1.0" encoding="UTF-8"?>
<svg id="_x33_" xmlns="http://www.w3.org/2000/svg" viewBox="0 0 1215.05 601.97">
  <defs>
    <style>
      .cls-1,
      .cls-2 {
        fill: #231f20;
        font-family: NanumSquareNeoTTF-dEb, "NanumSquare Neo";
      }

      .cls-3 {
        fill: #fef3f2;
        stroke-width: 10px;
      }

      .cls-3,
      .cls-4,
      .cls-5 {
        stroke: #f48589;
        stroke-miterlimit: 10;
      }

      .cls-6 {
        font-size: 6px;
      }

      .cls-4 {
        fill: none;
      }

      .cls-4,
      .cls-5 {
        stroke-width: 3px;
      }

      .cls-7 {
        letter-spacing: 0em;
      }

      .cls-5 {
        fill: #facbcf;
      }

      .cls-8,
      .cls-2 {
        font-size: 12px;
      }

      .cls-9 {
        letter-spacing: -0.06em;
      }

      .cls-10 {
        letter-spacing: -0.02em;
      }

      .cls-11 {
        letter-spacing: -0.04em;
      }

      .cls-12 {
        letter-spacing: -0.01em;
      }
    </style>
  </defs>
  <g id="Layer_x5F_border-3" data-name="Layer_x5F_border">
    <polygon
      class="cls-3"
      points="55.14 111.02 55.14 485.69 55.14 559.38 100.38 559.38 100.38 485.69 463.65 485.69 763.3 485.69 1164.06 485.69 1164.06 111.02 55.14 111.02"
    />
  </g>
  <g id="Layer_x5F_others-3" data-name="Layer_x5F_others">
    <g>
      <rect class="cls-5" x="789.15" y="275.3" width="80.75" height="29.09" />
      <rect class="cls-5" x="758.89" y="275.3" width="30.26" height="29.09" />
      <rect class="cls-4" x="758.89" y="304.39" width="111.01" height="55.86" />
      <rect class="cls-5" x="653.45" y="311.44" width="58.3" height="48.81" />
      <rect class="cls-5" x="711.76" y="311.44" width="17.62" height="48.81" />
      <rect class="cls-5" x="552.73" y="275.3" width="46.25" height="41.87" />
      <rect class="cls-5" x="552.73" y="317.16" width="46.25" height="43.09" />
      <g>
        <rect class="cls-4" x="789.21" y="304.41" width="5.35" height="27.76" />
        <rect class="cls-4" x="794.56" y="304.41" width="5.35" height="27.76" />
        <rect class="cls-4" x="799.91" y="304.41" width="5.35" height="27.76" />
        <rect class="cls-4" x="805.26" y="304.41" width="5.35" height="27.76" />
        <rect class="cls-4" x="810.6" y="304.41" width="5.35" height="27.76" />
        <rect class="cls-4" x="815.98" y="304.41" width="5.35" height="27.76" />
        <rect class="cls-4" x="821.33" y="304.41" width="5.35" height="27.76" />
        <rect class="cls-4" x="826.67" y="304.41" width="5.35" height="27.76" />
        <rect class="cls-4" x="832.02" y="304.41" width="5.35" height="27.76" />
        <rect class="cls-4" x="837.37" y="304.41" width="5.35" height="27.76" />
      </g>
      <g>
        <rect class="cls-4" x="789.11" y="332.17" width="5.35" height="27.76" />
        <rect class="cls-4" x="794.46" y="332.17" width="5.35" height="27.76" />
        <rect class="cls-4" x="799.81" y="332.17" width="5.35" height="27.76" />
        <rect class="cls-4" x="805.15" y="332.17" width="5.35" height="27.76" />
        <rect class="cls-4" x="810.5" y="332.17" width="5.35" height="27.76" />
        <rect class="cls-4" x="815.88" y="332.17" width="5.35" height="27.76" />
        <rect class="cls-4" x="821.22" y="332.17" width="5.35" height="27.76" />
        <rect class="cls-4" x="826.57" y="332.17" width="5.35" height="27.76" />
        <rect class="cls-4" x="831.92" y="332.17" width="5.35" height="27.76" />
        <rect class="cls-4" x="837.27" y="332.17" width="5.35" height="27.76" />
      </g>
    </g>
    <g>
      <rect class="cls-4" x="352.85" y="275.3" width="106.04" height="55.52" />
      <rect class="cls-5" x="352.53" y="330.82" width="106.36" height="29.43" />
      <g>
        <rect class="cls-4" x="377.39" y="275.3" width="5.35" height="27.76" />
        <rect class="cls-4" x="382.73" y="275.3" width="5.35" height="27.76" />
        <rect class="cls-4" x="388.08" y="275.3" width="5.35" height="27.76" />
        <rect class="cls-4" x="393.43" y="275.3" width="5.35" height="27.76" />
        <rect class="cls-4" x="398.78" y="275.3" width="5.35" height="27.76" />
        <rect class="cls-4" x="404.15" y="275.3" width="5.35" height="27.76" />
        <rect class="cls-4" x="409.5" y="275.3" width="5.35" height="27.76" />
        <rect class="cls-4" x="414.85" y="275.3" width="5.35" height="27.76" />
        <rect class="cls-4" x="420.19" y="275.3" width="5.35" height="27.76" />
        <rect class="cls-4" x="425.54" y="275.3" width="5.35" height="27.76" />
      </g>
      <g>
        <rect class="cls-4" x="377.28" y="303.06" width="5.35" height="27.76" />
        <rect class="cls-4" x="382.63" y="303.06" width="5.35" height="27.76" />
        <rect class="cls-4" x="387.98" y="303.06" width="5.35" height="27.76" />
        <rect class="cls-4" x="393.33" y="303.06" width="5.35" height="27.76" />
        <rect class="cls-4" x="398.67" y="303.06" width="5.35" height="27.76" />
        <rect class="cls-4" x="404.05" y="303.06" width="5.35" height="27.76" />
        <rect class="cls-4" x="409.4" y="303.06" width="5.35" height="27.76" />
        <rect class="cls-4" x="414.74" y="303.06" width="5.35" height="27.76" />
        <rect class="cls-4" x="420.09" y="303.06" width="5.35" height="27.76" />
        <rect class="cls-4" x="425.44" y="303.06" width="5.35" height="27.76" />
      </g>
    </g>
  </g>
  <g id="Layer_85">
    <rect class="cls-5" x="55.14" y="111.02" width="90.48" height="133.55" />
    <text class="cls-2" transform="translate(87.71 173.58)">
      <tspan x="0" y="0">323</tspan>
      <tspan x="-4.39" y="14.4">공조실</tspan>
    </text>
  </g>
  <g id="Layer_86">
    <rect class="cls-5" x="145.61" y="111.02" width="104.09" height="133.55" />
    <text class="cls-2" transform="translate(186.01 173.58)">
      <tspan x="0" y="0">301</tspan>
      <tspan x="-16.04" y="14.4">(주)디엠랩</tspan>
    </text>
  </g>
  <g id="Layer_87">
    <rect class="cls-5" x="249.71" y="111.02" width="103.15" height="134.72" />
    <text class="cls-2" transform="translate(288.46 174.06)">
      <tspan x="0" y="0">302</tspan>
      <tspan x="-26.24" y="14.4">(주)쿠노소프트</tspan>
    </text>
  </g>
  <g id="Layer_67">
    <rect class="cls-5" x="352.85" y="111.02" width="104.79" height="134.72" />
    <text class="cls-2" transform="translate(392.31 174.06)">
      <tspan x="0" y="0">303</tspan>
      <tspan x="-26.12" y="14.4">(주)이뮤노맥스</tspan>
    </text>
  </g>
  <g id="Layer_68">
    <rect class="cls-5" x="459.21" y="111.02" width="205.7" height="134.22" />
    <text class="cls-2" transform="translate(548.93 173.58)">
      <tspan x="0" y="0">304</tspan>
      <tspan x="-38.95" y="14.4">(주)씨앤피 솔루션즈</tspan>
    </text>
  </g>
  <g id="Layer_69">
    <rect class="cls-5" x="664.47" y="111.02" width="101.76" height="134.51" />
    <text class="cls-2" transform="translate(702.4 174.06)">
      <tspan x="0" y="0">306</tspan>
      <tspan x="-15.5" y="14.4">실리콘핸즈</tspan>
    </text>
  </g>
  <g id="Layer_70">
    <rect class="cls-5" x="766.23" y="111.02" width="103.68" height="134.51" />
    <text class="cls-2" transform="translate(805.6 174.06)">
      <tspan x="0" y="0">307</tspan>
      <tspan class="cls-9" x="-19.02" y="14.4">K</tspan>
      <tspan x="-11.1" y="14.4">U네트웍스</tspan>
    </text>
  </g>
  <g id="Layer_71">
    <rect class="cls-5" x="869.9" y="111.02" width="98.81" height="134.51" />
    <text class="cls-2" transform="translate(906.24 174.06)">
      <tspan x="0" y="0">308</tspan>
      <tspan x="-25.99" y="14.4">(주)다오솔루션</tspan>
    </text>
  </g>
  <g id="Layer_72">
    <rect class="cls-5" x="968.71" y="111.02" width="103" height="134.51" />
    <text class="cls-2" transform="translate(1007.27 174.06)">
      <tspan x="0" y="0">309</tspan>
      <tspan x="-20.43" y="14.4">(주)에이코트</tspan>
    </text>
  </g>
  <g id="Layer_73">
    <rect class="cls-5" x="1071.71" y="111.02" width="92.35" height="134.51" />
    <text class="cls-2" transform="translate(1106.45 174.06)">
      <tspan class="cls-12" x="0" y="0">3</tspan>
      <tspan x="8.41" y="0">19</tspan>
      <tspan x="-5.62" y="14.4">공조실</tspan>
    </text>
  </g>
  <g id="Layer_74">
    <polygon
      class="cls-5"
      points="1124.35 245.53 1124.35 275.3 1084.19 275.3 1079.52 275.3 1012.27 275.3 1012.27 485.69 1079.52 485.69 1084.19 485.69 1164.06 485.69 1164.06 275.3 1164.06 245.53 1124.35 245.53"
    />
    <text class="cls-2" transform="translate(1069.95 375.19)">
      <tspan class="cls-12" x="0" y="0">3</tspan>
      <tspan x="8.41" y="0">12-2</tspan>
      <tspan x="-39.64" y="14.4">Incu</tspan>
      <tspan class="cls-12" x="-12.95" y="14.4">ba</tspan>
      <tspan x="2.42" y="14.4">ting Ce</tspan>
      <tspan class="cls-12" x="47.29" y="14.4">nt</tspan>
      <tspan x="60.23" y="14.4">e</tspan>
      <tspan class="cls-11" x="67.97" y="14.4">r</tspan>
      <tspan x="72.73" y="14.4">,</tspan>
      <tspan x="-34.71" y="28.8">Incu</tspan>
      <tspan class="cls-12" x="-8.02" y="28.8">ba</tspan>
      <tspan x="7.35" y="28.8">ting</tspan>
      <tspan class="cls-10" x="35.2" y="28.8">R</tspan>
      <tspan class="cls-7" x="43.84" y="28.8">oom</tspan>
    </text>
  </g>
  <g id="Layer_75">
    <polygon
      class="cls-5"
      points="818.06 485.69 1012.27 485.69 1012.27 275.3 869.9 275.3 869.9 360.25 818.21 361.24 818.06 485.69"
    />
    <text class="cls-2" transform="translate(902.76 376.28)">
      <tspan class="cls-12" x="0" y="0">3</tspan>
      <tspan class="cls-7" x="8.41" y="0">12</tspan>
      <tspan x="-52.74" y="14.4">고려대학교 기술지주회사</tspan>
    </text>
  </g>
  <g id="Layer_76">
    <rect class="cls-5" x="691.41" y="391.17" width="126.65" height="94.52" />
    <text class="cls-2" transform="translate(737.57 434.21)">
      <tspan class="cls-12" x="0" y="0">3</tspan>
      <tspan class="cls-7" x="8.41" y="0">11-3</tspan>
      <tspan x="-21.89" y="14.4">(주)큐심플러스</tspan>
    </text>
  </g>
  <g id="Layer_79">
    <rect class="cls-5" x="407.94" y="391.17" width="283.47" height="94.52" />
    <text class="cls-2" transform="translate(532.63 434.21)">
      <tspan class="cls-12" x="0" y="0">3</tspan>
      <tspan x="8.41" y="0">11-2</tspan>
      <tspan x="-33.39" y="14.4">(주)뉴라클사이언스</tspan>
    </text>
    <polygon
      class="cls-5"
      points="407.94 485.69 407.94 360.25 352.53 360.25 352.85 275.3 249.71 275.3 249.71 485.69 407.94 485.69"
    />
    <text class="cls-2" transform="translate(310.34 376.28)">
      <tspan class="cls-12" x="0" y="0">3</tspan>
      <tspan x="8.41" y="0">10-2</tspan>
      <tspan x="-31.95" y="14.4">(주)뉴라클사이언스</tspan>
    </text>
    <rect class="cls-5" x="55.14" y="275.3" width="194.57" height="210.39" />
    <text class="cls-2" transform="translate(135.11 376.28)">
      <tspan class="cls-12" x="0" y="0">3</tspan>
      <tspan x="8.41" y="0">10-1</tspan>
      <tspan x="-33.12" y="14.4">(주)뉴라클사이언스</tspan>
    </text>
  </g>
  <g id="Layer_80">
    <polygon
      class="cls-4"
      points="653.45 311.44 653.45 275.3 729.38 275.3 729.38 298.35 706.47 298.35 706.47 311.44 653.45 311.44"
    />
  </g>
  <g id="Layer_81">
    <polygon
      class="cls-4"
      points="506.91 296.02 506.91 311.44 484.01 311.44 484.01 360.25 552.73 360.25 552.73 296.02 506.91 296.02"
    />
  </g>
  <g id="Layer_82">
    <rect class="cls-5" x="520.57" y="275.3" width="32.16" height="20.72" />
    <text class="cls-1" transform="translate(520.76 285.95)">
      <tspan class="cls-8"><tspan x="0" y="0">321B</tspan></tspan>
      <tspan class="cls-6"><tspan x="10.21" y="7.2">창고</tspan></tspan>
    </text>
  </g>
  <g id="Layer_83">
    <rect class="cls-5" x="484.01" y="275.3" width="36.56" height="20.72" />
    <text class="cls-1" transform="translate(486.2 285.95)">
      <tspan class="cls-8"><tspan x="0" y="0">321A</tspan></tspan>
      <tspan class="cls-6"><tspan x="10.4" y="7.2">창고</tspan></tspan>
    </text>
  </g>
</svg>
