<svg width="321" height="321" viewBox="0 0 321 321" fill="none" xmlns="http://www.w3.org/2000/svg">
<mask id="mask0_1109_361" style="mask-type:luminance" maskUnits="userSpaceOnUse" x="0" y="0" width="321" height="321">
<path d="M320.564 160.634C320.564 72.3123 248.966 0.716003 160.642 0.716003C117.019 0.716003 77.4756 18.1812 48.6239 46.5009L27.5796 22.2651L6.53913 40.533L30.3221 67.9237C11.6822 94.0733 0.719727 126.076 0.719727 160.634C0.719727 248.956 72.3177 320.553 160.642 320.553C200.571 320.553 237.078 305.919 265.101 281.724L279.627 293.17L296.874 271.286L284.633 261.639C307.093 234.1 320.568 198.943 320.568 160.634H320.564Z" fill="white"/>
</mask>
<g mask="url(#mask0_1109_361)">
<path d="M107.097 83.4604L89.1479 96.6857C82.615 107.235 76.0784 117.785 69.5455 128.335C67.576 140.538 65.6102 152.742 63.6406 164.941C66.6321 177.145 69.6235 189.348 72.615 201.548C79.7016 211.626 86.7844 221.7 93.871 231.777C104.499 238.626 115.127 245.475 125.755 252.323C133.786 230.83 141.816 209.34 149.847 187.847C149.297 171.314 148.743 154.782 148.193 138.249C138.825 117.466 129.456 96.6819 120.088 75.8983C115.759 78.4178 111.43 80.9372 107.097 83.4567V83.4604Z" fill="#FFD0D0" stroke="#EA8B8B" stroke-width="1.11" stroke-miterlimit="10" stroke-linejoin="round"/>
<path d="M96.1307 168.732L96.4428 167.32C96.9222 167.617 98.011 167.855 98.7579 167.855C99.9434 167.855 100.579 167.36 100.579 166.342C100.579 165.324 99.9285 165.016 98.784 164.986L97.7249 164.956V163.559L98.6725 163.529C99.7316 163.499 100.382 163.05 100.382 162.188C100.382 161.326 99.817 160.973 98.7988 160.973C98.1076 160.973 97.3012 161.184 96.7364 161.426L96.5246 159.973C97.1452 159.65 98.3455 159.423 99.3488 159.423C101.185 159.423 102.355 160.255 102.355 161.838C102.355 162.998 101.705 163.745 100.646 164.128C101.861 164.354 102.678 165.06 102.678 166.483C102.678 168.304 101.352 169.408 99.1073 169.408C97.9218 169.408 96.6918 169.085 96.127 168.732H96.1307Z" fill="#424242"/>
<path d="M103.993 164.737V164.228C103.993 160.712 105.87 159.427 107.903 159.427C109.935 159.427 111.771 160.739 111.771 164.183V164.677C111.771 168.163 109.95 169.434 107.873 169.434C105.796 169.434 103.99 168.078 103.99 164.733L103.993 164.737ZM109.698 164.793V164.187C109.698 161.942 109.092 160.924 107.892 160.924C106.691 160.924 106.097 161.883 106.097 164.087V164.692C106.097 166.881 106.647 167.94 107.877 167.94C109.107 167.94 109.698 167.052 109.698 164.793Z" fill="#424242"/>
<path d="M114.403 161.545L112.823 161.842V160.672L115.391 159.542H116.42V169.326H114.403V161.549V161.545Z" fill="#424242"/>
</g>
</svg>
