<svg width="321" height="321" viewBox="0 0 321 321" fill="none" xmlns="http://www.w3.org/2000/svg">
<mask id="mask0_1109_366" style="mask-type:luminance" maskUnits="userSpaceOnUse" x="0" y="0" width="321" height="321">
<path d="M320.564 160.634C320.564 72.3123 248.966 0.716003 160.642 0.716003C117.019 0.716003 77.4756 18.1812 48.6239 46.5009L27.5796 22.2651L6.53913 40.533L30.3221 67.9237C11.6822 94.0733 0.719727 126.076 0.719727 160.634C0.719727 248.956 72.3177 320.553 160.642 320.553C200.571 320.553 237.078 305.919 265.101 281.724L279.627 293.17L296.874 271.286L284.633 261.639C307.093 234.1 320.568 198.943 320.568 160.634H320.564Z" fill="white"/>
</mask>
<g mask="url(#mask0_1109_366)">
<path d="M195.134 146.655L145.06 131.308C136.736 112.839 128.412 94.3743 120.088 75.9057C131.348 72.6468 142.607 69.3916 153.867 66.1326C167.115 67.9163 180.363 69.7 193.614 71.4837C204.57 78.4475 215.525 85.4113 226.48 92.3751C233.745 102.832 241.01 113.285 248.275 123.742C230.56 131.378 212.845 139.018 195.134 146.655Z" fill="#FFD0D0" stroke="#EA8B8B" stroke-width="1.11" stroke-miterlimit="10" stroke-linejoin="round"/>
<path d="M168.07 108.882L168.382 107.47C168.862 107.767 169.95 108.005 170.697 108.005C171.883 108.005 172.518 107.51 172.518 106.492C172.518 105.474 171.868 105.166 170.723 105.136L169.664 105.106V103.709L170.612 103.679C171.671 103.649 172.321 103.2 172.321 102.338C172.321 101.476 171.756 101.123 170.738 101.123C170.047 101.123 169.241 101.334 168.676 101.576L168.464 100.123C169.085 99.7997 170.285 99.573 171.288 99.573C173.124 99.573 174.295 100.405 174.295 101.988C174.295 103.148 173.644 103.895 172.585 104.277C173.8 104.504 174.618 105.21 174.618 106.633C174.618 108.454 173.291 109.558 171.047 109.558C169.861 109.558 168.631 109.235 168.066 108.882H168.07Z" fill="#424242"/>
<path d="M175.937 104.887V104.378C175.937 100.862 177.814 99.5767 179.847 99.5767C181.879 99.5767 183.715 100.888 183.715 104.333V104.827C183.715 108.313 181.894 109.584 179.817 109.584C177.74 109.584 175.934 108.228 175.934 104.883L175.937 104.887ZM181.642 104.943V104.337C181.642 102.092 181.036 101.074 179.835 101.074C178.635 101.074 178.041 102.033 178.041 104.237V104.842C178.041 107.031 178.591 108.09 179.821 108.09C181.051 108.09 181.642 107.202 181.642 104.943Z" fill="#424242"/>
<path d="M185 108.261L186.68 106.466C188.007 105.054 189.166 103.783 189.166 102.639C189.166 101.494 188.516 101.115 187.316 101.115C186.71 101.115 185.903 101.412 185.368 101.695L185.116 100.268C185.792 99.8851 186.781 99.5767 187.91 99.5767C190.14 99.5767 191.244 100.58 191.244 102.36C191.244 104.14 189.564 105.834 188.575 106.864L187.572 107.882H191.27V109.42H185V108.261Z" fill="#424242"/>
</g>
</svg>
