<svg width="321" height="321" viewBox="0 0 321 321" fill="none" xmlns="http://www.w3.org/2000/svg">
<mask id="mask0_1109_365" style="mask-type:luminance" maskUnits="userSpaceOnUse" x="0" y="0" width="321" height="321">
<path d="M320.564 160.634C320.564 72.3123 248.966 0.716003 160.642 0.716003C117.019 0.716003 77.4756 18.1812 48.6239 46.5009L27.5796 22.2651L6.53913 40.533L30.3221 67.9237C11.6822 94.0733 0.719727 126.076 0.719727 160.634C0.719727 248.956 72.3177 320.553 160.642 320.553C200.571 320.553 237.078 305.919 265.101 281.724L279.627 293.17L296.874 271.286L284.633 261.639C307.093 234.1 320.568 198.943 320.568 160.634H320.564Z" fill="white"/>
</mask>
<g mask="url(#mask0_1109_365)">
<path d="M195.135 146.655C212.849 139.018 230.564 131.378 248.275 123.742C251.036 135.93 253.801 148.119 256.562 160.307L248.932 196.245C231.166 189.289 213.399 182.332 195.633 175.38C195.465 165.807 195.298 156.231 195.131 146.659L195.135 146.655Z" fill="#FFD0D0" stroke="#EA8B8B" stroke-width="1.11" stroke-miterlimit="10" stroke-linejoin="round"/>
<path d="M214.971 164.703L215.283 163.291C215.763 163.589 216.852 163.826 217.598 163.826C218.784 163.826 219.419 163.332 219.419 162.314C219.419 161.296 218.769 160.987 217.624 160.958L216.565 160.928V159.531L217.513 159.501C218.572 159.471 219.222 159.022 219.222 158.16C219.222 157.297 218.658 156.944 217.643 156.944C216.952 156.944 216.145 157.156 215.581 157.398L215.369 155.945C215.989 155.622 217.19 155.395 218.193 155.395C220.029 155.395 221.199 156.227 221.199 157.81C221.199 158.97 220.549 159.717 219.49 160.099C220.705 160.326 221.523 161.032 221.523 162.455C221.523 164.276 220.196 165.38 217.952 165.38C216.766 165.38 215.536 165.056 214.971 164.703Z" fill="#424242"/>
<path d="M222.834 160.705V160.196C222.834 156.681 224.711 155.395 226.744 155.395C228.776 155.395 230.612 156.707 230.612 160.151V160.646C230.612 164.131 228.791 165.402 226.714 165.402C224.637 165.402 222.831 164.046 222.831 160.701L222.834 160.705ZM228.538 160.761V160.155C228.538 157.911 227.933 156.892 226.732 156.892C225.532 156.892 224.938 157.851 224.938 160.055V160.66C224.938 162.849 225.488 163.908 226.718 163.908C227.948 163.908 228.538 163.02 228.538 160.761Z" fill="#424242"/>
<path d="M231.493 164.703L231.805 163.291C232.285 163.589 233.373 163.826 234.12 163.826C235.306 163.826 235.941 163.332 235.941 162.314C235.941 161.296 235.291 160.987 234.146 160.958L233.087 160.928V159.531L234.035 159.501C235.094 159.471 235.744 159.022 235.744 158.16C235.744 157.297 235.179 156.944 234.161 156.944C233.47 156.944 232.664 157.156 232.099 157.398L231.887 155.945C232.507 155.622 233.708 155.395 234.711 155.395C236.547 155.395 237.717 156.227 237.717 157.81C237.717 158.97 237.067 159.717 236.008 160.099C237.223 160.326 238.041 161.032 238.041 162.455C238.041 164.276 236.714 165.38 234.47 165.38C233.284 165.38 232.054 165.056 231.489 164.703H231.493Z" fill="#424242"/>
</g>
</svg>
