<svg width="321" height="321" viewBox="0 0 321 321" fill="none" xmlns="http://www.w3.org/2000/svg">
<mask id="mask0_1109_364" style="mask-type:luminance" maskUnits="userSpaceOnUse" x="0" y="0" width="321" height="321">
<path d="M320.564 160.634C320.564 72.3123 248.966 0.716003 160.642 0.716003C117.019 0.716003 77.4756 18.1812 48.6239 46.5009L27.5796 22.2651L6.53913 40.533L30.3221 67.9237C11.6822 94.0733 0.719727 126.076 0.719727 160.634C0.719727 248.956 72.3177 320.553 160.642 320.553C200.571 320.553 237.078 305.919 265.101 281.724L279.627 293.17L296.874 271.286L284.633 261.639C307.093 234.1 320.568 198.943 320.568 160.634H320.564Z" fill="white"/>
</mask>
<g mask="url(#mask0_1109_364)">
<path d="M175.554 198.415C182.247 190.734 188.94 183.057 195.633 175.376C213.399 182.332 231.166 189.289 248.932 196.241C242.355 207.278 235.777 218.318 229.2 229.355C219.412 236.225 209.624 243.093 199.835 249.964C191.742 232.781 183.644 215.598 175.551 198.415H175.554Z" fill="#FFD0D0" stroke="#EA8B8B" stroke-width="1.11" stroke-miterlimit="10" stroke-linejoin="round"/>
<path d="M198.907 211.826L199.219 210.414C199.698 210.711 200.787 210.949 201.534 210.949C202.719 210.949 203.355 210.455 203.355 209.437C203.355 208.419 202.704 208.11 201.56 208.08L200.501 208.051V206.653L201.448 206.624C202.507 206.594 203.158 206.144 203.158 205.282C203.158 204.42 202.593 204.067 201.575 204.067C200.884 204.067 200.077 204.279 199.512 204.52L199.3 203.068C199.921 202.744 201.121 202.518 202.125 202.518C203.96 202.518 205.131 203.35 205.131 204.933C205.131 206.092 204.481 206.839 203.422 207.222C204.637 207.449 205.454 208.155 205.454 209.578C205.454 211.399 204.128 212.502 201.883 212.502C200.698 212.502 199.468 212.179 198.903 211.826H198.907Z" fill="#424242"/>
<path d="M206.77 207.831V207.322C206.77 203.807 208.646 202.521 210.679 202.521C212.712 202.521 214.548 203.833 214.548 207.278V207.772C214.548 211.258 212.727 212.528 210.649 212.528C208.572 212.528 206.766 211.172 206.766 207.828L206.77 207.831ZM212.474 207.887V207.281C212.474 205.037 211.868 204.019 210.668 204.019C209.468 204.019 208.873 204.978 208.873 207.181V207.787C208.873 209.976 209.423 211.035 210.653 211.035C211.883 211.035 212.474 210.147 212.474 207.887Z" fill="#424242"/>
<path d="M219.958 210.641H215.595V209.567L220.538 202.633H221.849V209.199H223.317V210.641H221.849V212.562H219.958V210.641ZM219.973 209.199V205.936L217.643 209.199H219.973Z" fill="#424242"/>
<path d="M149.56 179.285C164.071 178.943 178.583 178.601 193.094 178.259C187.249 184.978 181.4 191.697 175.554 198.419C165.721 198.471 155.892 198.523 146.06 198.575C147.323 195 148.583 191.429 149.846 187.854C149.75 184.997 149.657 182.143 149.56 179.285Z" fill="#FFD0D0" stroke="#EA8B8B" stroke-width="1.11" stroke-miterlimit="10" stroke-linejoin="round"/>
<path d="M152.311 192.473L152.556 191.358C152.935 191.592 153.793 191.782 154.384 191.782C155.321 191.782 155.822 191.392 155.822 190.589C155.822 189.787 155.309 189.541 154.406 189.519L153.57 189.497V188.393L154.317 188.371C155.153 188.348 155.666 187.992 155.666 187.312C155.666 186.632 155.22 186.353 154.418 186.353C153.871 186.353 153.236 186.52 152.79 186.71L152.623 185.561C153.113 185.305 154.061 185.127 154.852 185.127C156.302 185.127 157.227 185.784 157.227 187.033C157.227 187.947 156.714 188.538 155.878 188.839C156.837 189.017 157.483 189.575 157.483 190.701C157.483 192.139 156.435 193.008 154.663 193.008C153.726 193.008 152.756 192.752 152.311 192.473Z" fill="#424242"/>
<path d="M158.52 189.318V188.917C158.52 186.141 160.003 185.127 161.608 185.127C163.213 185.127 164.663 186.163 164.663 188.884V189.274C164.663 192.027 163.225 193.031 161.586 193.031C159.947 193.031 158.52 191.96 158.52 189.318ZM163.024 189.363V188.884C163.024 187.111 162.545 186.308 161.597 186.308C160.649 186.308 160.181 187.066 160.181 188.805V189.285C160.181 191.013 160.616 191.849 161.586 191.849C162.556 191.849 163.024 191.147 163.024 189.363Z" fill="#424242"/>
<path d="M168.933 191.537H165.488V190.69L169.39 185.216H170.426V190.4H171.586V191.537H170.426V193.053H168.933V191.537ZM168.944 190.4V187.824L167.104 190.4H168.944Z" fill="#424242"/>
<path d="M174.819 185.249H176.469L179.155 192.897H177.528L176.892 191.069H174.172L173.548 192.897H172.099L174.819 185.249ZM174.529 189.943H176.525L175.532 187.044H175.488L174.529 189.943Z" fill="#424242"/>
</g>
</svg>
