<svg width="321" height="321" viewBox="0 0 321 321" fill="none" xmlns="http://www.w3.org/2000/svg">
<mask id="mask0_1109_363" style="mask-type:luminance" maskUnits="userSpaceOnUse" x="0" y="0" width="321" height="321">
<path d="M320.564 160.634C320.564 72.3123 248.966 0.716003 160.642 0.716003C117.019 0.716003 77.4756 18.1812 48.6239 46.5009L27.5796 22.2651L6.53913 40.533L30.3221 67.9237C11.6822 94.0733 0.719727 126.076 0.719727 160.634C0.719727 248.956 72.3177 320.553 160.642 320.553C200.571 320.553 237.078 305.919 265.101 281.724L279.627 293.17L296.874 271.286L284.633 261.639C307.093 234.1 320.568 198.943 320.568 160.634H320.564Z" fill="white"/>
</mask>
<g mask="url(#mask0_1109_363)">
<path fill-rule="evenodd" clip-rule="evenodd" d="M159.769 198.434L159.769 198.434V198.43L159.769 198.434ZM159.772 198.434L159.769 198.434L159.769 198.434C157.485 198.456 155.2 198.479 152.916 198.502C150.631 198.526 148.345 198.549 146.06 198.571V198.575C142.677 207.533 139.293 216.492 135.909 225.45C132.524 234.41 129.139 243.37 125.755 252.331C132.05 253.34 138.346 254.349 144.642 255.359C150.938 256.369 157.234 257.379 163.529 258.388L163.529 258.383C169.576 256.981 175.624 255.579 181.671 254.176C187.726 252.772 193.781 251.367 199.835 249.964C195.788 241.371 191.74 232.779 187.692 224.186C183.644 215.596 179.597 207.005 175.551 198.415L159.772 198.434Z" fill="#FFD0D0"/>
<path d="M159.769 198.434H159.214C159.214 198.581 159.272 198.722 159.376 198.826C159.481 198.93 159.622 198.989 159.769 198.989L159.769 198.434ZM159.769 198.43L160.322 198.395C160.304 198.096 160.051 197.866 159.751 197.875C159.452 197.885 159.214 198.13 159.214 198.43H159.769ZM159.772 198.434L159.772 197.879L159.772 197.879L159.772 198.434ZM159.769 198.434L159.774 198.989C159.932 198.987 160.082 198.918 160.187 198.799C160.291 198.68 160.339 198.522 160.32 198.365L159.769 198.434ZM152.916 198.502L152.922 199.057L152.916 198.502ZM146.06 198.571L146.055 198.016C145.75 198.019 145.505 198.267 145.505 198.571H146.06ZM146.06 198.575L146.579 198.771C146.603 198.708 146.615 198.642 146.615 198.575H146.06ZM135.909 225.45L135.39 225.254L135.909 225.45ZM125.755 252.331L125.236 252.135C125.177 252.291 125.192 252.465 125.275 252.609C125.359 252.753 125.503 252.852 125.668 252.879L125.755 252.331ZM144.642 255.359L144.73 254.811L144.642 255.359ZM163.529 258.388L163.442 258.936C163.608 258.962 163.778 258.912 163.903 258.799C164.027 258.685 164.094 258.521 164.083 258.353L163.529 258.388ZM163.529 258.383L163.404 257.843C163.14 257.904 162.958 258.147 162.975 258.418L163.529 258.383ZM181.671 254.176L181.797 254.717L181.671 254.176ZM199.835 249.964L199.961 250.504C200.124 250.466 200.262 250.357 200.335 250.206C200.408 250.055 200.409 249.879 200.338 249.727L199.835 249.964ZM187.692 224.186L187.19 224.423L187.692 224.186ZM175.551 198.415L176.053 198.179C175.961 197.984 175.765 197.86 175.55 197.86L175.551 198.415ZM159.769 198.989L159.769 198.989L159.768 197.879L159.768 197.879L159.769 198.989ZM159.214 198.43V198.434H160.324V198.43H159.214ZM160.323 198.399L160.322 198.395L159.215 198.465L159.215 198.468L160.323 198.399ZM159.77 198.989L159.773 198.989L159.772 197.879L159.768 197.879L159.77 198.989ZM160.32 198.365L160.32 198.365L159.218 198.502L159.218 198.502L160.32 198.365ZM152.922 199.057C155.206 199.034 157.49 199.011 159.774 198.989L159.763 197.879C157.479 197.901 155.195 197.924 152.911 197.947L152.922 199.057ZM146.066 199.126C148.351 199.104 150.637 199.081 152.922 199.057L152.911 197.947C150.625 197.971 148.34 197.994 146.055 198.016L146.066 199.126ZM146.615 198.575V198.571H145.505V198.575H146.615ZM136.428 225.646C139.812 216.688 143.196 207.729 146.579 198.771L145.541 198.379C142.158 207.337 138.774 216.295 135.39 225.254L136.428 225.646ZM126.275 252.527C129.658 243.567 133.043 234.606 136.428 225.646L135.39 225.254C132.005 234.214 128.62 243.174 125.236 252.135L126.275 252.527ZM144.73 254.811C138.434 253.801 132.138 252.792 125.843 251.783L125.668 252.879C131.962 253.888 138.258 254.897 144.554 255.907L144.73 254.811ZM163.617 257.84C157.322 256.831 151.026 255.821 144.73 254.811L144.554 255.907C150.85 256.917 157.146 257.927 163.442 258.936L163.617 257.84ZM162.975 258.418L162.976 258.423L164.083 258.353L164.083 258.348L162.975 258.418ZM181.546 253.635C175.498 255.038 169.451 256.441 163.404 257.843L163.654 258.924C169.702 257.522 175.749 256.119 181.797 254.717L181.546 253.635ZM199.71 249.423C193.655 250.826 187.601 252.231 181.546 253.635L181.797 254.717C187.851 253.312 193.906 251.908 199.961 250.504L199.71 249.423ZM187.19 224.423C191.238 233.015 195.286 241.608 199.333 250.2L200.338 249.727C196.29 241.135 192.242 232.542 188.194 223.95L187.19 224.423ZM175.049 198.652C179.095 207.242 183.142 215.832 187.19 224.423L188.194 223.95C184.146 215.359 180.099 206.769 176.053 198.179L175.049 198.652ZM159.773 198.989L175.551 198.97L175.55 197.86L159.772 197.879L159.773 198.989Z" fill="#EA8B8B"/>
<path d="M152 233.347L152.245 232.232C152.624 232.466 153.483 232.655 154.074 232.655C155.01 232.655 155.512 232.265 155.512 231.463C155.512 230.66 154.999 230.415 154.096 230.392L153.26 230.37V229.266L154.007 229.244C154.843 229.222 155.356 228.865 155.356 228.185C155.356 227.505 154.91 227.226 154.107 227.226C153.561 227.226 152.925 227.394 152.479 227.583L152.312 226.435C152.803 226.178 153.75 226 154.542 226C155.991 226 156.916 226.658 156.916 227.906C156.916 228.82 156.404 229.411 155.567 229.712C156.526 229.891 157.173 230.448 157.173 231.574C157.173 233.012 156.125 233.882 154.352 233.882C153.416 233.882 152.446 233.625 152 233.347Z" fill="#424242"/>
<path d="M158.21 230.192V229.79C158.21 227.014 159.693 226 161.298 226C162.903 226 164.353 227.037 164.353 229.757V230.147C164.353 232.901 162.915 233.904 161.276 233.904C159.637 233.904 158.21 232.834 158.21 230.192ZM162.714 230.236V229.757C162.714 227.984 162.234 227.182 161.287 227.182C160.339 227.182 159.871 227.94 159.871 229.679V230.158C159.871 231.886 160.306 232.722 161.276 232.722C162.246 232.722 162.714 232.02 162.714 230.236Z" fill="#424242"/>
<path d="M165.311 233.369L165.579 232.187C166.013 232.41 166.526 232.611 167.095 232.611C168.109 232.611 168.722 232.165 168.722 231.306C168.722 230.403 168.176 230.024 167.162 230.024C166.705 230.024 165.98 230.27 165.623 230.448L165.913 226.123H169.971V227.315H167.084L166.972 229.021C167.184 228.943 167.596 228.887 167.864 228.887C169.414 228.887 170.35 229.69 170.35 231.329C170.35 232.778 169.291 233.882 167.518 233.882C166.638 233.882 165.824 233.659 165.311 233.369Z" fill="#424242"/>
</g>
</svg>
