<svg width="321" height="321" viewBox="0 0 321 321" fill="none" xmlns="http://www.w3.org/2000/svg">
<mask id="mask0_1109_382" style="mask-type:luminance" maskUnits="userSpaceOnUse" x="0" y="0" width="321" height="321">
<path d="M320.564 160.634C320.564 72.3123 248.966 0.716003 160.642 0.716003C117.019 0.716003 77.4756 18.1812 48.6239 46.5009L27.5796 22.2651L6.53913 40.533L30.3221 67.9237C11.6822 94.0733 0.719727 126.076 0.719727 160.634C0.719727 248.956 72.3177 320.553 160.642 320.553C200.571 320.553 237.078 305.919 265.101 281.724L279.627 293.17L296.874 271.286L284.633 261.639C307.093 234.1 320.568 198.943 320.568 160.634H320.564Z" fill="white"/>
</mask>
<g mask="url(#mask0_1109_382)">
<path d="M151.608 -11.5988L154.295 47.9725C140.214 51.3912 126.134 54.8099 112.058 58.2249L82.0278 -1.82946C105.224 -5.08468 128.416 -8.33991 151.612 -11.5951L151.608 -11.5988Z" fill="#FFD0D0" stroke="#EA8B8B" stroke-width="1.11" stroke-miterlimit="10" stroke-linejoin="round"/>
<path d="M114.005 30.5407L114.317 29.1286C114.796 29.4259 115.885 29.6637 116.632 29.6637C117.817 29.6637 118.453 29.1695 118.453 28.1513C118.453 27.1331 117.803 26.8247 116.658 26.795L115.599 26.7652V25.368L116.546 25.3383C117.606 25.3086 118.256 24.8589 118.256 23.9968C118.256 23.1347 117.691 22.7817 116.673 22.7817C115.982 22.7817 115.175 22.9935 114.61 23.235L114.399 21.7821C115.019 21.4588 116.219 21.2321 117.223 21.2321C119.059 21.2321 120.229 22.0645 120.229 23.6475C120.229 24.8069 119.579 25.5538 118.52 25.9366C119.735 26.1632 120.552 26.8693 120.552 28.2925C120.552 30.1134 119.226 31.217 116.981 31.217C115.796 31.217 114.566 30.8937 114.001 30.5407H114.005Z" fill="#424242"/>
<path d="M121.872 26.546V26.0369C121.872 22.5215 123.749 21.2358 125.781 21.2358C127.814 21.2358 129.65 22.5476 129.65 25.9923V26.4865C129.65 29.9721 127.829 31.243 125.751 31.243C123.674 31.243 121.868 29.8867 121.868 26.5423L121.872 26.546ZM127.576 26.6017V25.996C127.576 23.7515 126.97 22.7334 125.77 22.7334C124.57 22.7334 123.975 23.6921 123.975 25.8957V26.5014C123.975 28.6901 124.525 29.7492 125.755 29.7492C126.985 29.7492 127.576 28.8611 127.576 26.6017Z" fill="#424242"/>
<path d="M134.804 22.9303H130.597V21.3919H136.978V22.5513L133.574 31.0795H131.37L134.8 22.934L134.804 22.9303Z" fill="#424242"/>
</g>
</svg>
