<svg width="321" height="321" viewBox="0 0 321 321" fill="none" xmlns="http://www.w3.org/2000/svg">
<mask id="mask0_1109_381" style="mask-type:luminance" maskUnits="userSpaceOnUse" x="0" y="0" width="321" height="321">
<path d="M320.564 160.634C320.564 72.3123 248.966 0.716003 160.642 0.716003C117.019 0.716003 77.4756 18.1812 48.6239 46.5009L27.5796 22.2651L6.53913 40.533L30.3221 67.9237C11.6822 94.0733 0.719727 126.076 0.719727 160.634C0.719727 248.956 72.3177 320.553 160.642 320.553C200.571 320.553 237.078 305.919 265.101 281.724L279.627 293.17L296.874 271.286L284.633 261.639C307.093 234.1 320.568 198.943 320.568 160.634H320.564Z" fill="white"/>
</mask>
<g mask="url(#mask0_1109_381)">
<path d="M199.308 55.6832C184.302 53.1117 169.3 50.544 154.295 47.9725L151.608 -11.5988L220.913 -3.02973C213.711 16.5425 206.509 36.111 199.308 55.6832Z" fill="#FFD0D0" stroke="#EA8B8B" stroke-width="1.11" stroke-miterlimit="10" stroke-linejoin="round"/>
<path d="M167.855 30.1319L168.167 28.7199C168.647 29.0171 169.735 29.255 170.482 29.255C171.668 29.255 172.303 28.7607 172.303 27.7425C172.303 26.7244 171.653 26.4159 170.508 26.3862L169.449 26.3565V24.9592L170.397 24.9295C171.456 24.8998 172.106 24.4502 172.106 23.588C172.106 22.7259 171.541 22.3729 170.527 22.3729C169.836 22.3729 169.029 22.5847 168.464 22.8263L168.253 21.3733C168.873 21.05 170.073 20.8233 171.077 20.8233C172.913 20.8233 174.083 21.6557 174.083 23.2387C174.083 24.3981 173.433 25.1451 172.374 25.5278C173.589 25.7545 174.406 26.4605 174.406 27.8837C174.406 29.7046 173.08 30.8082 170.835 30.8082C169.65 30.8082 168.42 30.485 167.855 30.1319Z" fill="#424242"/>
<path d="M175.721 26.1372V25.6281C175.721 22.1128 177.598 20.8271 179.631 20.8271C181.664 20.8271 183.499 22.1388 183.499 25.5835V26.0778C183.499 29.5634 181.678 30.8343 179.601 30.8343C177.524 30.8343 175.718 29.4779 175.718 26.1335L175.721 26.1372ZM181.426 26.193V25.5873C181.426 23.3428 180.82 22.3246 179.62 22.3246C178.419 22.3246 177.825 23.2833 177.825 25.4869V26.0926C177.825 28.2814 178.375 29.3404 179.605 29.3404C180.835 29.3404 181.426 28.4523 181.426 26.193Z" fill="#424242"/>
<path d="M184.785 28.2256C184.785 27.0254 185.647 26.1521 186.706 25.7285C185.718 25.264 185.053 24.6137 185.053 23.4283C185.053 21.8601 186.379 20.8308 188.512 20.8308C190.645 20.8308 191.901 21.7338 191.901 23.2722C191.901 24.2904 191.225 25.093 190.207 25.5464C191.322 25.9403 192.284 26.6612 192.284 28.0027C192.284 29.6674 190.902 30.8417 188.501 30.8417C186.101 30.8417 184.789 29.7826 184.789 28.2294L184.785 28.2256ZM190.292 28.0993C190.292 27.1814 189.571 26.6463 188.219 26.3342C187.386 26.6166 186.61 27.252 186.61 28.0287C186.61 28.9057 187.286 29.4408 188.446 29.4408C189.605 29.4408 190.296 28.8908 190.296 28.0993H190.292ZM190.081 23.4246C190.081 22.7334 189.586 22.2391 188.542 22.2391C187.595 22.2391 187.03 22.6776 187.03 23.3688C187.03 24.1455 187.565 24.6397 188.754 24.9072C189.445 24.6397 190.081 24.1455 190.081 23.4246Z" fill="#424242"/>
</g>
</svg>
