<svg width="321" height="321" viewBox="0 0 321 321" fill="none" xmlns="http://www.w3.org/2000/svg">
<mask id="mask0_1109_380" style="mask-type:luminance" maskUnits="userSpaceOnUse" x="0" y="0" width="321" height="321">
<path d="M320.564 160.634C320.564 72.3123 248.966 0.716003 160.642 0.716003C117.019 0.716003 77.4756 18.1812 48.6239 46.5009L27.5796 22.2651L6.53913 40.533L30.3221 67.9237C11.6822 94.0733 0.719727 126.076 0.719727 160.634C0.719727 248.956 72.3177 320.553 160.642 320.553C200.571 320.553 237.078 305.919 265.101 281.724L279.627 293.17L296.874 271.286L284.633 261.639C307.093 234.1 320.568 198.943 320.568 160.634H320.564Z" fill="white"/>
</mask>
<g mask="url(#mask0_1109_380)">
<path d="M239.048 79.9264C225.8 71.8441 212.555 63.7655 199.308 55.6832C206.509 36.111 213.711 16.5425 220.913 -3.02972C238.446 11.6745 255.982 26.3788 273.514 41.083C262.024 54.0296 250.534 66.9799 239.048 79.9264Z" fill="#FFD0D0" stroke="#EA8B8B" stroke-width="1.11" stroke-miterlimit="10" stroke-linejoin="round"/>
<path d="M220.604 48.7491L220.917 47.337C221.396 47.6343 222.485 47.8721 223.232 47.8721C224.417 47.8721 225.053 47.3779 225.053 46.3597C225.053 45.3415 224.402 45.0331 223.258 45.0034L222.199 44.9737V43.5764L223.146 43.5467C224.205 43.517 224.856 43.0673 224.856 42.2052C224.856 41.3431 224.291 40.9901 223.276 40.9901C222.585 40.9901 221.779 41.2019 221.214 41.4434L221.002 39.9905C221.623 39.6672 222.823 39.4405 223.826 39.4405C225.662 39.4405 226.833 40.2729 226.833 41.8559C226.833 43.0153 226.182 43.7622 225.123 44.145C226.338 44.3717 227.156 45.0777 227.156 46.5009C227.156 48.3218 225.829 49.4254 223.585 49.4254C222.399 49.4254 221.169 49.1021 220.604 48.7491Z" fill="#424242"/>
<path d="M228.471 44.7544V44.2453C228.471 40.73 230.348 39.4442 232.381 39.4442C234.414 39.4442 236.249 40.756 236.249 44.2007V44.695C236.249 48.1806 234.428 49.4515 232.351 49.4515C230.274 49.4515 228.468 48.0951 228.468 44.7507L228.471 44.7544ZM234.176 44.8102V44.2044C234.176 41.96 233.57 40.9418 232.37 40.9418C231.169 40.9418 230.575 41.9005 230.575 44.1041V44.7098C230.575 46.8986 231.125 47.9576 232.355 47.9576C233.585 47.9576 234.176 47.0695 234.176 44.8102Z" fill="#424242"/>
<path d="M244.555 43.766V44.4311C244.555 48.3404 242.634 49.4589 240.278 49.4589C239.304 49.4589 238.357 49.1059 237.907 48.8383L238.189 47.3853C238.583 47.5972 239.501 47.8796 240.166 47.8796C241.508 47.8796 242.496 47.4708 242.582 45.1C242.102 45.4939 241.326 45.8767 240.352 45.8767C238.643 45.8767 237.472 44.747 237.472 42.8815C237.472 40.9195 238.531 39.4665 240.776 39.4665C243.206 39.4665 244.559 41.0198 244.559 43.7734L244.555 43.766ZM239.36 42.7069C239.36 43.9332 240.036 44.472 240.954 44.472C241.575 44.472 242.266 44.0632 242.563 43.6545V43.4278C242.563 41.8894 242.039 40.886 240.828 40.886C239.869 40.886 239.36 41.5772 239.36 42.7069Z" fill="#424242"/>
</g>
</svg>
