<svg width="321" height="321" viewBox="0 0 321 321" fill="none" xmlns="http://www.w3.org/2000/svg">
<mask id="mask0_1109_379" style="mask-type:luminance" maskUnits="userSpaceOnUse" x="0" y="0" width="321" height="321">
<path d="M320.564 160.634C320.564 72.3123 248.966 0.716003 160.642 0.716003C117.019 0.716003 77.4756 18.1812 48.6239 46.5009L27.5796 22.2651L6.53913 40.533L30.3221 67.9237C11.6822 94.0733 0.719727 126.076 0.719727 160.634C0.719727 248.956 72.3177 320.553 160.642 320.553C200.571 320.553 237.078 305.919 265.101 281.724L279.627 293.17L296.874 271.286L284.633 261.639C307.093 234.1 320.568 198.943 320.568 160.634H320.564Z" fill="white"/>
</mask>
<g mask="url(#mask0_1109_379)">
<path d="M239.047 79.9265C247.903 90.8181 256.755 101.713 265.61 112.605C282.507 106.083 299.404 99.5618 316.301 93.0402C302.039 75.7199 287.78 58.3996 273.518 41.083C262.028 54.0296 250.538 66.9799 239.051 79.9265H239.047Z" fill="#FFD0D0" stroke="#EA8B8B" stroke-width="1.11" stroke-miterlimit="10" stroke-linejoin="round"/>
<path d="M260.292 87.2247L260.604 85.8126C261.084 86.1099 262.173 86.3477 262.92 86.3477C264.105 86.3477 264.74 85.8535 264.74 84.8353C264.74 83.8171 264.09 83.5087 262.946 83.479L261.886 83.4492V82.052L262.834 82.0223C263.893 81.9926 264.544 81.5429 264.544 80.6808C264.544 79.8187 263.979 79.4657 262.96 79.4657C262.269 79.4657 261.463 79.6775 260.898 79.919L260.686 78.4661C261.307 78.1428 262.507 77.9161 263.51 77.9161C265.346 77.9161 266.517 78.7485 266.517 80.3315C266.517 81.4909 265.866 82.2378 264.807 82.6206C266.023 82.8472 266.84 83.5533 266.84 84.9765C266.84 86.7974 265.513 87.901 263.269 87.901C262.083 87.901 260.853 87.5777 260.289 87.2247H260.292Z" fill="#424242"/>
<path d="M269.427 80.0416L267.844 80.3389V79.1684L270.415 78.0387H271.445V87.823H269.427V80.0454V80.0416Z" fill="#424242"/>
<path d="M273.381 83.23V82.7209C273.381 79.2055 275.257 77.9198 277.29 77.9198C279.323 77.9198 281.158 79.2316 281.158 82.6763V83.1705C281.158 86.6561 279.338 87.927 277.26 87.927C275.183 87.927 273.377 86.5707 273.377 83.2263L273.381 83.23ZM279.085 83.2857V82.68C279.085 80.4355 278.479 79.4174 277.279 79.4174C276.079 79.4174 275.484 80.3761 275.484 82.5797V83.1854C275.484 85.3741 276.034 86.4332 277.264 86.4332C278.494 86.4332 279.085 85.545 279.085 83.2857Z" fill="#424242"/>
</g>
</svg>
