<svg width="321" height="321" viewBox="0 0 321 321" fill="none" xmlns="http://www.w3.org/2000/svg">
<mask id="mask0_1109_378" style="mask-type:luminance" maskUnits="userSpaceOnUse" x="0" y="0" width="321" height="321">
<path d="M320.564 160.634C320.564 72.3123 248.966 0.716003 160.642 0.716003C117.019 0.716003 77.4756 18.1812 48.6239 46.5009L27.5796 22.2651L6.53913 40.533L30.3221 67.9237C11.6822 94.0733 0.719727 126.076 0.719727 160.634C0.719727 248.956 72.3177 320.553 160.642 320.553C200.571 320.553 237.078 305.919 265.101 281.724L279.627 293.17L296.874 271.286L284.633 261.639C307.093 234.1 320.568 198.943 320.568 160.634H320.564Z" fill="white"/>
</mask>
<g mask="url(#mask0_1109_378)">
<path d="M265.61 112.605C269.572 127.986 273.533 143.366 277.494 158.75C294.982 158.461 312.47 158.167 329.958 157.877C325.406 136.265 320.854 114.656 316.302 93.044C299.405 99.5656 282.507 106.087 265.61 112.609V112.605Z" fill="#FFD0D0" stroke="#EA8B8B" stroke-width="1.11" stroke-miterlimit="10" stroke-linejoin="round"/>
<path d="M284.276 136.228L284.588 134.816C285.067 135.113 286.156 135.351 286.903 135.351C288.089 135.351 288.724 134.856 288.724 133.838C288.724 132.82 288.074 132.512 286.929 132.482L285.87 132.452V131.055L286.818 131.025C287.877 130.996 288.527 130.546 288.527 129.684C288.527 128.822 287.962 128.469 286.948 128.469C286.257 128.469 285.45 128.68 284.885 128.922L284.674 127.469C285.294 127.146 286.494 126.919 287.498 126.919C289.333 126.919 290.504 127.751 290.504 129.335C290.504 130.494 289.854 131.241 288.795 131.624C290.01 131.85 290.827 132.556 290.827 133.98C290.827 135.8 289.501 136.904 287.256 136.904C286.071 136.904 284.841 136.581 284.276 136.228Z" fill="#424242"/>
<path d="M293.414 129.041L291.835 129.338V128.168L294.403 127.038H295.432V136.822H293.414V129.045V129.041Z" fill="#424242"/>
<path d="M298.639 129.041L297.06 129.338V128.168L299.627 127.038H300.657V136.822H298.639V129.045V129.041Z" fill="#424242"/>
</g>
</svg>
