<svg width="321" height="321" viewBox="0 0 321 321" fill="none" xmlns="http://www.w3.org/2000/svg">
<mask id="mask0_1109_377" style="mask-type:luminance" maskUnits="userSpaceOnUse" x="0" y="0" width="321" height="321">
<path d="M320.564 160.634C320.564 72.3123 248.966 0.716003 160.642 0.716003C117.019 0.716003 77.4756 18.1812 48.6239 46.5009L27.5796 22.2651L6.53913 40.533L30.3221 67.9237C11.6822 94.0733 0.719727 126.076 0.719727 160.634C0.719727 248.956 72.3177 320.553 160.642 320.553C200.571 320.553 237.078 305.919 265.101 281.724L279.627 293.17L296.874 271.286L284.633 261.639C307.093 234.1 320.568 198.943 320.568 160.634H320.564Z" fill="white"/>
</mask>
<g mask="url(#mask0_1109_377)">
<path d="M258.527 216.404C255.473 221.451 252.418 226.501 249.363 231.547C260.478 239.477 271.589 247.411 282.704 255.341C286.777 247.961 290.85 240.581 294.919 233.201C282.786 227.601 270.656 222.004 258.523 216.404H258.527Z" fill="#FFD0D0" stroke="#EA8B8B" stroke-width="1.11" stroke-miterlimit="10" stroke-linejoin="round"/>
<path d="M261.11 238.106L261.422 236.694C261.902 236.991 262.991 237.229 263.737 237.229C264.923 237.229 265.558 236.735 265.558 235.716C265.558 234.698 264.908 234.39 263.763 234.36L262.704 234.33V232.933L263.652 232.903C264.711 232.874 265.361 232.424 265.361 231.562C265.361 230.7 264.797 230.347 263.778 230.347C263.087 230.347 262.281 230.559 261.716 230.8L261.504 229.347C262.125 229.024 263.325 228.797 264.328 228.797C266.164 228.797 267.335 229.63 267.335 231.213C267.335 232.372 266.684 233.119 265.625 233.502C266.84 233.728 267.658 234.434 267.658 235.858C267.658 237.678 266.331 238.782 264.087 238.782C262.901 238.782 261.671 238.459 261.106 238.106H261.11Z" fill="#424242"/>
<path d="M270.248 230.919L268.665 231.216V230.046L271.237 228.916H272.266V238.7H270.248V230.923V230.919Z" fill="#424242"/>
<path d="M274.228 237.485L275.908 235.69C277.234 234.278 278.394 233.007 278.394 231.863C278.394 230.718 277.743 230.339 276.543 230.339C275.937 230.339 275.131 230.637 274.596 230.919L274.343 229.492C275.02 229.109 276.008 228.801 277.138 228.801C279.367 228.801 280.471 229.804 280.471 231.584C280.471 233.364 278.791 235.059 277.803 236.088L276.8 237.106H280.501V238.645H274.232V237.485H274.228Z" fill="#424242"/>
</g>
</svg>
