<svg width="321" height="321" viewBox="0 0 321 321" fill="none" xmlns="http://www.w3.org/2000/svg">
<mask id="mask0_1109_367" style="mask-type:luminance" maskUnits="userSpaceOnUse" x="0" y="0" width="321" height="321">
<path d="M320.564 160.634C320.564 72.3123 248.966 0.716003 160.642 0.716003C117.019 0.716003 77.4756 18.1812 48.6239 46.5009L27.5796 22.2651L6.53913 40.533L30.3221 67.9237C11.6822 94.0733 0.719727 126.076 0.719727 160.634C0.719727 248.956 72.3177 320.553 160.642 320.553C200.571 320.553 237.078 305.919 265.101 281.724L279.627 293.17L296.874 271.286L284.633 261.639C307.093 234.1 320.568 198.943 320.568 160.634H320.564Z" fill="white"/>
</mask>
<g mask="url(#mask0_1109_367)">
<path d="M229.999 250.707C222.726 256.236 215.45 261.766 208.178 267.299C200.697 268.767 193.217 270.231 185.736 271.699C190.285 291.94 194.83 312.184 199.378 332.426C223.522 317.286 247.665 302.147 271.808 287.008C257.873 274.909 243.938 262.81 230.002 250.707H229.999Z" fill="#FFD0D0" stroke="#EA8B8B" stroke-width="1.11" stroke-miterlimit="10" stroke-linejoin="round"/>
<path d="M211.084 290.453L211.396 289.041C211.875 289.338 212.964 289.576 213.711 289.576C214.897 289.576 215.532 289.082 215.532 288.064C215.532 287.046 214.882 286.737 213.737 286.707L212.678 286.678V285.281L213.626 285.251C214.685 285.221 215.335 284.771 215.335 283.909C215.335 283.047 214.77 282.694 213.756 282.694C213.065 282.694 212.258 282.906 211.693 283.148L211.482 281.695C212.102 281.371 213.302 281.145 214.306 281.145C216.142 281.145 217.312 281.977 217.312 283.56C217.312 284.719 216.662 285.466 215.603 285.849C216.818 286.076 217.635 286.782 217.635 288.205C217.635 290.026 216.309 291.13 214.064 291.13C212.879 291.13 211.649 290.806 211.084 290.453Z" fill="#424242"/>
<path d="M220.222 283.266L218.643 283.564V282.393L221.21 281.264H222.24V291.048H220.222V283.27V283.266Z" fill="#424242"/>
<path d="M223.879 290.453L224.191 289.041C224.67 289.338 225.759 289.576 226.506 289.576C227.691 289.576 228.327 289.082 228.327 288.064C228.327 287.046 227.677 286.737 226.532 286.707L225.473 286.678V285.281L226.421 285.251C227.48 285.221 228.13 284.771 228.13 283.909C228.13 283.047 227.565 282.694 226.547 282.694C225.856 282.694 225.049 282.906 224.484 283.148L224.273 281.695C224.893 281.371 226.094 281.145 227.097 281.145C228.933 281.145 230.103 281.977 230.103 283.56C230.103 284.719 229.453 285.466 228.394 285.849C229.609 286.076 230.426 286.782 230.426 288.205C230.426 290.026 229.1 291.13 226.855 291.13C225.67 291.13 224.44 290.806 223.875 290.453H223.879Z" fill="#424242"/>
</g>
</svg>
