<svg width="321" height="321" viewBox="0 0 321 321" fill="none" xmlns="http://www.w3.org/2000/svg">
<mask id="mask0_1109_368" style="mask-type:luminance" maskUnits="userSpaceOnUse" x="0" y="0" width="321" height="321">
<path d="M320.564 160.634C320.564 72.3123 248.966 0.716003 160.642 0.716003C117.019 0.716003 77.4756 18.1812 48.6239 46.5009L27.5796 22.2651L6.53913 40.533L30.3221 67.9237C11.6822 94.0733 0.719727 126.076 0.719727 160.634C0.719727 248.956 72.3177 320.553 160.642 320.553C200.571 320.553 237.078 305.919 265.101 281.724L279.627 293.17L296.874 271.286L284.633 261.639C307.093 234.1 320.568 198.943 320.568 160.634H320.564Z" fill="white"/>
</mask>
<g mask="url(#mask0_1109_368)">
<path d="M164.15 276.161C171.344 274.675 178.539 273.185 185.733 271.698C190.281 291.94 194.826 312.184 199.375 332.425C188.134 332.715 176.892 333.005 165.647 333.295C165.15 314.25 164.648 295.206 164.15 276.161Z" fill="#FFD0D0" stroke="#EA8B8B" stroke-width="1.11" stroke-miterlimit="10" stroke-linejoin="round"/>
<path d="M169.482 296.544L169.728 295.429C170.107 295.663 170.965 295.853 171.556 295.853C172.492 295.853 172.994 295.462 172.994 294.66C172.994 293.857 172.481 293.612 171.578 293.589L170.742 293.567V292.464L171.489 292.441C172.325 292.419 172.838 292.062 172.838 291.382C172.838 290.702 172.392 290.423 171.589 290.423C171.043 290.423 170.408 290.591 169.962 290.78L169.795 289.632C170.285 289.376 171.233 289.197 172.024 289.197C173.474 289.197 174.399 289.855 174.399 291.103C174.399 292.018 173.886 292.608 173.05 292.909C174.009 293.088 174.655 293.645 174.655 294.771C174.655 296.209 173.607 297.079 171.835 297.079C170.898 297.079 169.928 296.822 169.482 296.544Z" fill="#424242"/>
<path d="M176.695 290.869L175.447 291.103V290.178L177.476 289.286H178.29V297.012H176.695V290.869Z" fill="#424242"/>
<path d="M182.96 295.607H179.516V294.76L183.418 289.286H184.454V294.47H185.614V295.607H184.454V297.123H182.96V295.607ZM182.972 294.47V291.895L181.132 294.47H182.972Z" fill="#424242"/>
</g>
</svg>
