<svg width="321" height="321" viewBox="0 0 321 321" fill="none" xmlns="http://www.w3.org/2000/svg">
<mask id="mask0_1109_369" style="mask-type:luminance" maskUnits="userSpaceOnUse" x="0" y="0" width="321" height="321">
<path d="M320.564 160.634C320.564 72.3123 248.966 0.716003 160.642 0.716003C117.019 0.716003 77.4756 18.1812 48.6239 46.5009L27.5796 22.2651L6.53913 40.533L30.3221 67.9237C11.6822 94.0733 0.719727 126.076 0.719727 160.634C0.719727 248.956 72.3177 320.553 160.642 320.553C200.571 320.553 237.078 305.919 265.101 281.724L279.627 293.17L296.874 271.286L284.633 261.639C307.093 234.1 320.568 198.943 320.568 160.634H320.564Z" fill="white"/>
</mask>
<g mask="url(#mask0_1109_369)">
<path d="M141.831 272.497C149.27 273.72 156.71 274.939 164.15 276.161C164.648 295.206 165.149 314.25 165.647 333.295C154.376 332.351 143.105 331.407 131.834 330.463C135.164 311.14 138.497 291.821 141.827 272.497H141.831Z" fill="#FFD0D0" stroke="#EA8B8B" stroke-width="1.11" stroke-miterlimit="10" stroke-linejoin="round"/>
<path d="M144.648 296.544L144.893 295.429C145.272 295.663 146.131 295.853 146.722 295.853C147.658 295.853 148.16 295.462 148.16 294.66C148.16 293.857 147.647 293.612 146.744 293.589L145.908 293.567V292.464L146.655 292.441C147.491 292.419 148.004 292.062 148.004 291.382C148.004 290.702 147.558 290.423 146.755 290.423C146.209 290.423 145.573 290.591 145.127 290.78L144.96 289.632C145.451 289.376 146.398 289.197 147.19 289.197C148.639 289.197 149.564 289.855 149.564 291.103C149.564 292.018 149.052 292.608 148.215 292.909C149.174 293.088 149.821 293.645 149.821 294.771C149.821 296.209 148.773 297.079 147 297.079C146.064 297.079 145.094 296.822 144.648 296.544Z" fill="#424242"/>
<path d="M151.86 290.869L150.612 291.103V290.178L152.641 289.286H153.455V297.012H151.86V290.869Z" fill="#424242"/>
<path d="M154.815 296.566L155.083 295.384C155.517 295.607 156.03 295.808 156.599 295.808C157.613 295.808 158.226 295.362 158.226 294.504C158.226 293.601 157.68 293.222 156.666 293.222C156.208 293.222 155.484 293.467 155.127 293.645L155.417 289.32H159.475V290.513H156.588L156.476 292.218C156.688 292.14 157.1 292.084 157.368 292.084C158.918 292.084 159.854 292.887 159.854 294.526C159.854 295.975 158.795 297.079 157.022 297.079C156.142 297.079 155.328 296.856 154.815 296.566Z" fill="#424242"/>
</g>
</svg>
