<svg width="321" height="321" viewBox="0 0 321 321" fill="none" xmlns="http://www.w3.org/2000/svg">
<mask id="mask0_1109_370" style="mask-type:luminance" maskUnits="userSpaceOnUse" x="0" y="0" width="321" height="321">
<path d="M320.564 160.634C320.564 72.3123 248.966 0.716003 160.642 0.716003C117.019 0.716003 77.4756 18.1812 48.6239 46.5009L27.5796 22.2651L6.53913 40.533L30.3221 67.9237C11.6822 94.0733 0.719727 126.076 0.719727 160.634C0.719727 248.956 72.3177 320.553 160.642 320.553C200.571 320.553 237.078 305.919 265.101 281.724L279.627 293.17L296.874 271.286L284.633 261.639C307.093 234.1 320.568 198.943 320.568 160.634H320.564Z" fill="white"/>
</mask>
<g mask="url(#mask0_1109_370)">
<path d="M141.831 272.497C134.566 271.052 127.297 269.603 120.032 268.157C114.202 284.37 108.368 300.583 102.537 316.8C112.522 320.096 122.507 323.396 132.489 326.692C135.603 308.628 138.717 290.561 141.835 272.497H141.831Z" fill="#FFD0D0" stroke="#EA8B8B" stroke-width="1.11" stroke-miterlimit="10" stroke-linejoin="round"/>
<path d="M117.52 292.571L117.765 291.456C118.144 291.691 119.003 291.88 119.594 291.88C120.53 291.88 121.032 291.49 121.032 290.687C121.032 289.885 120.519 289.639 119.616 289.617L118.78 289.595V288.491L119.527 288.469C120.363 288.447 120.876 288.09 120.876 287.41C120.876 286.73 120.43 286.451 119.627 286.451C119.081 286.451 118.445 286.618 117.999 286.808L117.832 285.66C118.323 285.403 119.27 285.225 120.062 285.225C121.511 285.225 122.436 285.882 122.436 287.131C122.436 288.045 121.924 288.636 121.087 288.937C122.046 289.115 122.693 289.673 122.693 290.799C122.693 292.237 121.645 293.106 119.872 293.106C118.936 293.106 117.966 292.85 117.52 292.571Z" fill="#424242"/>
<path d="M124.733 286.897L123.484 287.131V286.206L125.513 285.314H126.327V293.039H124.733V286.897Z" fill="#424242"/>
<path d="M127.833 289.729V289.205C127.833 286.25 129.416 285.236 131.277 285.236C132.047 285.236 132.738 285.47 133.072 285.66L132.805 286.819C132.492 286.663 131.857 286.484 131.333 286.484C130.274 286.484 129.505 287.008 129.393 288.803C129.772 288.491 130.385 288.179 131.155 288.179C132.493 288.179 133.429 289.004 133.429 290.464C133.429 291.925 132.515 293.129 130.742 293.129C128.825 293.129 127.833 291.813 127.833 289.729ZM131.935 290.587C131.935 289.628 131.389 289.271 130.664 289.271C130.174 289.271 129.65 289.606 129.404 289.929V289.996C129.404 291.245 129.783 291.992 130.709 291.992C131.456 291.992 131.935 291.49 131.935 290.587Z" fill="#424242"/>
</g>
</svg>
