<svg width="321" height="321" viewBox="0 0 321 321" fill="none" xmlns="http://www.w3.org/2000/svg">
<mask id="mask0_1109_371" style="mask-type:luminance" maskUnits="userSpaceOnUse" x="0" y="0" width="321" height="321">
<path d="M320.564 160.634C320.564 72.3123 248.966 0.716003 160.642 0.716003C117.019 0.716003 77.4756 18.1812 48.6239 46.5009L27.5796 22.2651L6.53913 40.533L30.3221 67.9237C11.6822 94.0733 0.719727 126.076 0.719727 160.634C0.719727 248.956 72.3177 320.553 160.642 320.553C200.571 320.553 237.078 305.919 265.101 281.724L279.627 293.17L296.874 271.286L284.633 261.639C307.093 234.1 320.568 198.943 320.568 160.634H320.564Z" fill="white"/>
</mask>
<g mask="url(#mask0_1109_371)">
<path d="M101.065 257.344L120.032 268.157C114.202 284.37 108.367 300.583 102.537 316.8C92.8007 311.567 83.0646 306.335 73.3247 301.107C82.5703 286.518 91.8197 271.933 101.065 257.344Z" fill="#FFD0D0" stroke="#EA8B8B" stroke-width="1.11" stroke-miterlimit="10" stroke-linejoin="round"/>
<path d="M93.3618 286.124L93.6071 285.009C93.9861 285.243 94.8445 285.433 95.4354 285.433C96.3718 285.433 96.8735 285.043 96.8735 284.24C96.8735 283.437 96.3607 283.192 95.4577 283.17L94.6216 283.147V282.044L95.3685 282.022C96.2046 281.999 96.7174 281.643 96.7174 280.962C96.7174 280.282 96.2715 280.004 95.4688 280.004C94.9226 280.004 94.2871 280.171 93.8412 280.36L93.674 279.212C94.1645 278.956 95.1121 278.777 95.9036 278.777C97.3529 278.777 98.2782 279.435 98.2782 280.684C98.2782 281.598 97.7654 282.189 96.9293 282.49C97.888 282.668 98.5346 283.226 98.5346 284.351C98.5346 285.79 97.4867 286.659 95.7141 286.659C94.7776 286.659 93.8077 286.403 93.3618 286.124Z" fill="#424242"/>
<path d="M100.575 280.45L99.3262 280.684V279.758L101.355 278.867H102.169V286.592H100.575V280.45Z" fill="#424242"/>
<path d="M106.94 280.115H103.618V278.9H108.657V279.814L105.97 286.548H104.231L106.94 280.115Z" fill="#424242"/>
</g>
</svg>
