<svg width="321" height="321" viewBox="0 0 321 321" fill="none" xmlns="http://www.w3.org/2000/svg">
<mask id="mask0_1109_372" style="mask-type:luminance" maskUnits="userSpaceOnUse" x="0" y="0" width="321" height="321">
<path d="M320.564 160.634C320.564 72.3123 248.966 0.716003 160.642 0.716003C117.019 0.716003 77.4756 18.1812 48.6239 46.5009L27.5796 22.2651L6.53913 40.533L30.3221 67.9237C11.6822 94.0733 0.719727 126.076 0.719727 160.634C0.719727 248.956 72.3177 320.553 160.642 320.553C200.571 320.553 237.078 305.919 265.101 281.724L279.627 293.17L296.874 271.286L284.633 261.639C307.093 234.1 320.568 198.943 320.568 160.634H320.564Z" fill="white"/>
</mask>
<g mask="url(#mask0_1109_372)">
<path d="M82.3699 244.289C88.6018 248.641 94.83 252.992 101.062 257.344C90.1328 274.552 79.2038 291.761 68.2748 308.97C61.5486 300.07 54.8225 291.167 48.1001 282.267C59.5234 269.606 70.9466 256.95 82.3699 244.289Z" fill="#FFD0D0" stroke="#EA8B8B" stroke-width="1.11" stroke-miterlimit="10" stroke-linejoin="round"/>
<path d="M70.4595 271.617L70.7047 270.502C71.0838 270.736 71.9422 270.926 72.5331 270.926C73.4695 270.926 73.9712 270.535 73.9712 269.733C73.9712 268.93 73.4584 268.685 72.5553 268.663L71.7192 268.64V267.537L72.4662 267.514C73.3023 267.492 73.8151 267.135 73.8151 266.455C73.8151 265.775 73.3692 265.496 72.5665 265.496C72.0202 265.496 71.3848 265.664 70.9389 265.853L70.7716 264.705C71.2621 264.449 72.2098 264.27 73.0013 264.27C74.4506 264.27 75.3759 264.928 75.3759 266.176C75.3759 267.091 74.863 267.681 74.0269 267.982C74.9857 268.161 75.6323 268.718 75.6323 269.844C75.6323 271.282 74.5843 272.152 72.8118 272.152C71.8753 272.152 70.9054 271.895 70.4595 271.617Z" fill="#424242"/>
<path d="M77.6724 265.942L76.4238 266.176V265.251L78.4528 264.359H79.2666V272.085H77.6724V265.942Z" fill="#424242"/>
<path d="M80.6826 270.112C80.6826 269.164 81.3627 268.473 82.1988 268.139C81.4184 267.771 80.8944 267.258 80.8944 266.321C80.8944 265.084 81.9424 264.27 83.6258 264.27C85.3092 264.27 86.3013 264.984 86.3013 266.199C86.3013 267.001 85.7662 267.637 84.9636 267.994C85.8443 268.306 86.6023 268.874 86.6023 269.933C86.6023 271.249 85.5098 272.174 83.6146 272.174C81.7194 272.174 80.6826 271.338 80.6826 270.112ZM85.0304 270.011C85.0304 269.287 84.4619 268.863 83.3916 268.618C82.7339 268.841 82.1207 269.343 82.1207 269.956C82.1207 270.647 82.6559 271.07 83.57 271.07C84.4842 271.07 85.0304 270.636 85.0304 270.011ZM84.8632 266.321C84.8632 265.775 84.473 265.385 83.6481 265.385C82.9011 265.385 82.4552 265.731 82.4552 266.277C82.4552 266.89 82.8788 267.28 83.8153 267.492C84.3615 267.28 84.8632 266.89 84.8632 266.321Z" fill="#424242"/>
</g>
</svg>
