<svg width="321" height="321" viewBox="0 0 321 321" fill="none" xmlns="http://www.w3.org/2000/svg">
<mask id="mask0_1109_373" style="mask-type:luminance" maskUnits="userSpaceOnUse" x="0" y="0" width="321" height="321">
<path d="M320.564 160.634C320.564 72.3123 248.966 0.716003 160.642 0.716003C117.019 0.716003 77.4756 18.1812 48.6239 46.5009L27.5796 22.2651L6.53913 40.533L30.3221 67.9237C11.6822 94.0733 0.719727 126.076 0.719727 160.634C0.719727 248.956 72.3177 320.553 160.642 320.553C200.571 320.553 237.078 305.919 265.101 281.724L279.627 293.17L296.874 271.286L284.633 261.639C307.093 234.1 320.568 198.943 320.568 160.634H320.564Z" fill="white"/>
</mask>
<g mask="url(#mask0_1109_373)">
<path d="M69.3186 227.333C73.6702 232.985 78.0217 238.637 82.3733 244.289C70.95 256.95 59.5267 269.606 48.1035 282.267C41.1469 273.75 34.1904 265.233 27.2339 256.719C41.2621 246.924 55.2904 237.128 69.3186 227.333Z" fill="#FFD0D0" stroke="#EA8B8B" stroke-width="1.11" stroke-miterlimit="10" stroke-linejoin="round"/>
<path d="M53.0127 253.917L53.258 252.803C53.637 253.037 54.4954 253.226 55.0863 253.226C56.0227 253.226 56.5244 252.836 56.5244 252.033C56.5244 251.231 56.0116 250.985 55.1086 250.963L54.2725 250.941V249.837L55.0194 249.815C55.8555 249.793 56.3683 249.436 56.3683 248.756C56.3683 248.076 55.9224 247.797 55.1197 247.797C54.5735 247.797 53.938 247.964 53.4921 248.154L53.3248 247.006C53.8154 246.749 54.763 246.571 55.5545 246.571C57.0038 246.571 57.9291 247.229 57.9291 248.477C57.9291 249.391 57.4163 249.982 56.5801 250.283C57.5389 250.461 58.1855 251.019 58.1855 252.145C58.1855 253.583 57.1376 254.452 55.365 254.452C54.4285 254.452 53.4586 254.196 53.0127 253.917Z" fill="#424242"/>
<path d="M60.2257 248.243L58.9771 248.477V247.552L61.006 246.66H61.8199V254.386H60.2257V248.243Z" fill="#424242"/>
<path d="M68.8318 249.982V250.506C68.8318 253.594 67.3156 254.475 65.4539 254.475C64.6846 254.475 63.9377 254.196 63.581 253.984L63.8039 252.836C64.1161 253.003 64.8407 253.226 65.3647 253.226C66.4238 253.226 67.2041 252.903 67.271 251.03C66.892 251.342 66.2788 251.643 65.5096 251.643C64.1607 251.643 63.2354 250.751 63.2354 249.28C63.2354 247.73 64.0715 246.582 65.8441 246.582C67.7616 246.582 68.8318 247.808 68.8318 249.982ZM64.7292 249.146C64.7292 250.116 65.2643 250.54 65.989 250.54C66.4795 250.54 67.0258 250.216 67.2599 249.893V249.715C67.2599 248.499 66.8474 247.708 65.8886 247.708C65.1306 247.708 64.7292 248.254 64.7292 249.146Z" fill="#424242"/>
</g>
</svg>
