<svg width="321" height="321" viewBox="0 0 321 321" fill="none" xmlns="http://www.w3.org/2000/svg">
<mask id="mask0_1109_374" style="mask-type:luminance" maskUnits="userSpaceOnUse" x="0" y="0" width="321" height="321">
<path d="M320.564 160.634C320.564 72.3123 248.966 0.716003 160.642 0.716003C117.019 0.716003 77.4756 18.1812 48.6239 46.5009L27.5796 22.2651L6.53913 40.533L30.3221 67.9237C11.6822 94.0733 0.719727 126.076 0.719727 160.634C0.719727 248.956 72.3177 320.553 160.642 320.553C200.571 320.553 237.078 305.919 265.101 281.724L279.627 293.17L296.874 271.286L284.633 261.639C307.093 234.1 320.568 198.943 320.568 160.634H320.564Z" fill="white"/>
</mask>
<g mask="url(#mask0_1109_374)">
<path d="M56.7286 210.128C60.9241 215.862 65.1233 221.596 69.3187 227.333C55.2905 237.128 41.2622 246.924 27.234 256.719C21.5558 248.02 15.8813 239.325 10.2031 230.625C25.7141 223.795 41.2213 216.962 56.7323 210.132L56.7286 210.128Z" fill="#FFD0D0" stroke="#EA8B8B" stroke-width="1.11" stroke-miterlimit="10" stroke-linejoin="round"/>
<path d="M37.2046 232.539L37.4499 231.424C37.8289 231.659 38.6873 231.848 39.2782 231.848C40.2146 231.848 40.7163 231.458 40.7163 230.655C40.7163 229.853 40.2035 229.607 39.3005 229.585L38.4643 229.563V228.459L39.2113 228.437C40.0474 228.414 40.5602 228.058 40.5602 227.378C40.5602 226.698 40.1143 226.419 39.3116 226.419C38.7653 226.419 38.1299 226.586 37.684 226.776L37.5167 225.627C38.0073 225.371 38.9549 225.193 39.7464 225.193C41.1957 225.193 42.121 225.85 42.121 227.099C42.121 228.013 41.6082 228.604 40.772 228.905C41.7308 229.083 42.3774 229.641 42.3774 230.767C42.3774 232.205 41.3295 233.074 39.5569 233.074C38.6204 233.074 37.6505 232.818 37.2046 232.539Z" fill="#424242"/>
<path d="M43.269 232.052L44.5957 230.637C45.6436 229.522 46.5578 228.518 46.5578 227.615C46.5578 226.712 46.045 226.411 45.0974 226.411C44.618 226.411 43.9825 226.646 43.5589 226.869L43.3582 225.743C43.8933 225.442 44.6737 225.196 45.5656 225.196C47.327 225.196 48.1966 225.988 48.1966 227.393C48.1966 228.797 46.8699 230.135 46.0896 230.949L45.298 231.751H48.2189V232.967H43.269V232.052Z" fill="#424242"/>
<path d="M49.1665 229.388V228.987C49.1665 226.211 50.6492 225.196 52.2546 225.196C53.8599 225.196 55.3092 226.233 55.3092 228.953V229.343C55.3092 232.097 53.8711 233.1 52.2323 233.1C50.5935 233.1 49.1665 232.03 49.1665 229.388ZM53.6704 229.433V228.953C53.6704 227.181 53.191 226.378 52.2434 226.378C51.2958 226.378 50.8276 227.136 50.8276 228.875V229.355C50.8276 231.083 51.2624 231.919 52.2323 231.919C53.2022 231.919 53.6704 231.216 53.6704 229.433Z" fill="#424242"/>
</g>
</svg>
