<svg width="321" height="321" viewBox="0 0 321 321" fill="none" xmlns="http://www.w3.org/2000/svg">
<mask id="mask0_1109_375" style="mask-type:luminance" maskUnits="userSpaceOnUse" x="0" y="0" width="321" height="321">
<path d="M320.564 160.634C320.564 72.3123 248.966 0.716003 160.642 0.716003C117.019 0.716003 77.4756 18.1812 48.6239 46.5009L27.5796 22.2651L6.53913 40.533L30.3221 67.9237C11.6822 94.0733 0.719727 126.076 0.719727 160.634C0.719727 248.956 72.3177 320.553 160.642 320.553C200.571 320.553 237.078 305.919 265.101 281.724L279.627 293.17L296.874 271.286L284.633 261.639C307.093 234.1 320.568 198.943 320.568 160.634H320.564Z" fill="white"/>
</mask>
<g mask="url(#mask0_1109_375)">
<path d="M45.9633 165.818C49.553 180.589 53.1427 195.357 56.7325 210.128L5.59535 232.283L-4.91748 167.494C12.0428 166.937 28.9993 166.379 45.9595 165.818H45.9633Z" fill="#FFD0D0" stroke="#EA8B8B" stroke-width="1.11" stroke-miterlimit="10" stroke-linejoin="round"/>
<path d="M19.1849 197.3L19.497 195.888C19.9764 196.185 21.0652 196.423 21.8121 196.423C22.9976 196.423 23.633 195.929 23.633 194.911C23.633 193.893 22.9827 193.584 21.8382 193.555L20.7791 193.525V192.128L21.7267 192.098C22.7858 192.068 23.4361 191.619 23.4361 190.756C23.4361 189.894 22.8712 189.541 21.853 189.541C21.1618 189.541 20.3554 189.753 19.7906 189.995L19.5788 188.542C20.1994 188.218 21.3997 187.992 22.403 187.992C24.2388 187.992 25.4093 188.824 25.4093 190.407C25.4093 191.566 24.759 192.313 23.6999 192.696C24.9151 192.923 25.7326 193.629 25.7326 195.052C25.7326 196.873 24.406 197.977 22.1615 197.977C20.976 197.977 19.746 197.653 19.1812 197.3H19.1849Z" fill="#424242"/>
<path d="M26.8662 196.68L28.5459 194.885C29.8725 193.473 31.032 192.202 31.032 191.057C31.032 189.913 30.3816 189.534 29.1813 189.534C28.5756 189.534 27.7692 189.831 27.2341 190.114L26.9814 188.687C27.6577 188.304 28.6462 187.995 29.7759 187.995C32.0056 187.995 33.1092 188.999 33.1092 190.779C33.1092 192.559 31.4296 194.253 30.4411 195.282L29.4377 196.301H33.1353V197.839H26.8662V196.68Z" fill="#424242"/>
<path d="M35.7515 190.114L34.1685 190.411V189.24L36.74 188.111H37.7694V197.895H35.7515V190.117V190.114Z" fill="#424242"/>
</g>
</svg>
