<svg width="321" height="321" viewBox="0 0 321 321" fill="none" xmlns="http://www.w3.org/2000/svg">
<mask id="mask0_1109_376" style="mask-type:luminance" maskUnits="userSpaceOnUse" x="0" y="0" width="321" height="321">
<path d="M320.564 160.634C320.564 72.3123 248.966 0.716003 160.642 0.716003C117.019 0.716003 77.4756 18.1812 48.6239 46.5009L27.5796 22.2651L6.53913 40.533L30.3221 67.9237C11.6822 94.0733 0.719727 126.076 0.719727 160.634C0.719727 248.956 72.3177 320.553 160.642 320.553C200.571 320.553 237.078 305.919 265.101 281.724L279.627 293.17L296.874 271.286L284.633 261.639C307.093 234.1 320.568 198.943 320.568 160.634H320.564Z" fill="white"/>
</mask>
<g mask="url(#mask0_1109_376)">
<path d="M51.8235 124.571L45.9595 165.815C28.9993 166.372 12.0428 166.929 -4.91748 167.49L2.83057 107.191C19.1628 112.984 35.4913 118.777 51.8235 124.567V124.571Z" fill="#FFD0D0" stroke="#EA8B8B" stroke-width="1.11" stroke-miterlimit="10" stroke-linejoin="round"/>
<path d="M15.0117 147.677L15.3239 146.265C15.8032 146.562 16.8921 146.8 17.639 146.8C18.8244 146.8 19.4599 146.306 19.4599 145.287C19.4599 144.269 18.8096 143.961 17.665 143.931L16.6059 143.901V142.504L17.5535 142.474C18.6126 142.445 19.2629 141.995 19.2629 141.133C19.2629 140.271 18.6981 139.918 17.6836 139.918C16.9924 139.918 16.186 140.13 15.6212 140.371L15.4093 138.918C16.0299 138.595 17.2302 138.368 18.2336 138.368C20.0693 138.368 21.2399 139.201 21.2399 140.784C21.2399 141.943 20.5896 142.69 19.5305 143.073C20.7456 143.299 21.5632 144.005 21.5632 145.429C21.5632 147.249 20.2365 148.353 17.992 148.353C16.8066 148.353 15.5766 148.03 15.0117 147.677Z" fill="#424242"/>
<path d="M22.6929 147.052L24.3725 145.258C25.6992 143.846 26.8586 142.575 26.8586 141.43C26.8586 140.286 26.2083 139.907 25.008 139.907C24.4023 139.907 23.5959 140.204 23.0608 140.486L22.8081 139.059C23.4844 138.677 24.4729 138.368 25.6026 138.368C27.8322 138.368 28.9359 139.371 28.9359 141.151C28.9359 142.931 27.2562 144.626 26.2678 145.655L25.2644 146.673H28.9656V148.212H22.6966V147.052H22.6929Z" fill="#424242"/>
<path d="M30.2627 147.052L31.9424 145.258C33.269 143.846 34.4284 142.575 34.4284 141.43C34.4284 140.286 33.7781 139.907 32.5778 139.907C31.9721 139.907 31.1657 140.204 30.6306 140.486L30.3779 139.059C31.0542 138.677 32.0427 138.368 33.1724 138.368C35.4021 138.368 36.5057 139.371 36.5057 141.151C36.5057 142.931 34.8261 144.626 33.8376 145.655L32.8342 146.673H36.5317V148.212H30.2627V147.052Z" fill="#424242"/>
</g>
</svg>
