<svg width="328" height="328" viewBox="0 0 328 328" fill="none" xmlns="http://www.w3.org/2000/svg">
<path d="M163.642 3.71601C251.966 3.71601 323.564 75.3123 323.564 163.634C323.564 201.943 310.093 237.104 287.629 264.639L299.87 274.286L282.624 296.17L268.098 284.724C240.074 308.919 203.568 323.553 163.638 323.553C75.3141 323.553 3.71609 251.956 3.71609 163.634C3.71609 129.076 14.6786 97.0733 33.3185 70.9237L9.53549 43.533L30.576 25.2651L51.6202 49.5009C80.472 21.1812 120.015 3.71601 163.638 3.71601M163.638 0C141.817 0 120.628 4.2251 100.658 12.5601C82.5827 20.1036 66.1873 30.7128 51.8655 44.1202L33.3817 22.8312L30.9439 20.0256L28.1383 22.4633L7.09774 40.7312L4.29209 43.1689L6.72984 45.9745L28.6102 71.1764C19.7548 84.0821 12.8205 98.1361 7.99332 112.982C2.69045 129.287 0 146.333 0 163.642C0 185.73 4.32553 207.16 12.8614 227.338C21.1037 246.825 32.9023 264.323 47.9302 279.351C62.958 294.378 80.4571 306.177 99.9443 314.419C120.123 322.951 141.55 327.28 163.642 327.28C183.62 327.28 203.137 323.72 221.654 316.697C238.584 310.276 254.225 301.145 268.187 289.533L280.327 299.098L283.244 301.398L285.545 298.481L302.791 276.597L305.091 273.68L302.174 271.38L292.865 264.045C303.397 250.515 311.68 235.532 317.514 219.453C323.995 201.593 327.28 182.816 327.28 163.642C327.28 141.554 322.954 120.124 314.419 99.9457C306.176 80.459 294.378 62.9603 279.35 47.9328C264.322 32.9052 246.823 21.1069 227.336 12.8648C207.161 4.33287 185.73 0.00371609 163.638 0.00371609V0Z" fill="#EA8B8B"/>
</svg>
