<svg width="328" height="328" viewBox="0 0 328 328" fill="none" xmlns="http://www.w3.org/2000/svg">
<path d="M163.642 325.411C141.802 325.411 120.617 321.134 100.669 312.698C81.4048 304.549 64.1026 292.885 49.2457 278.028C34.3888 263.171 22.724 245.87 14.5746 226.606C6.13904 206.662 1.86182 185.473 1.86182 163.634C1.86182 130.254 11.9213 98.2735 30.9663 71.0426L6.91942 43.3472L30.7656 22.6454L51.7392 46.8031C81.9956 17.8034 121.657 1.858 163.642 1.858C185.481 1.858 206.667 6.13513 226.615 14.5705C245.879 22.7197 263.181 34.3842 278.038 49.2408C292.895 64.0974 304.56 81.3991 312.709 100.663C321.145 120.61 325.422 141.795 325.422 163.634C325.422 182.59 322.174 201.151 315.768 218.81C309.792 235.283 301.212 250.593 290.257 264.346L302.483 273.978L282.936 298.782L268.15 287.132C254.058 299.072 238.202 308.429 220.996 314.954C202.691 321.895 183.397 325.415 163.642 325.415V325.411Z" fill="#FFE8E8"/>
</svg>
