<svg width="321" height="321" viewBox="0 0 321 321" fill="none" xmlns="http://www.w3.org/2000/svg">
<mask id="mask0_584_2231" style="mask-type:luminance" maskUnits="userSpaceOnUse" x="0" y="0" width="321" height="321">
<path d="M320.564 160.634C320.564 72.3123 248.966 0.716003 160.642 0.716003C117.019 0.716003 77.4756 18.1812 48.6239 46.5009L27.5796 22.2651L6.53913 40.533L30.3221 67.9237C11.6822 94.0733 0.719727 126.076 0.719727 160.634C0.719727 248.956 72.3177 320.553 160.642 320.553C200.571 320.553 237.078 305.919 265.101 281.724L279.627 293.17L296.874 271.286L284.633 261.639C307.093 234.1 320.568 198.943 320.568 160.634H320.564Z" fill="white"/>
</mask>
<g mask="url(#mask0_584_2231)">
<path d="M1.53369 98.1014C1.82355 98.2315 2.1134 98.3653 2.40326 98.4953C17.5723 105.396 32.7452 112.293 47.9142 119.193C53.7485 108.77 59.5828 98.3504 65.417 87.927C59.6831 83.936 53.9455 79.9487 48.2115 75.9577C45.1681 81.7436 42.1283 87.5257 39.0848 93.3115C29.5605 89.2722 20.0361 85.2329 10.5118 81.1936C7.52032 86.8271 4.52886 92.4643 1.53369 98.0977V98.1014Z" fill="#FFD0D0" stroke="#EA8B8B" stroke-width="1.11" stroke-miterlimit="10" stroke-linejoin="round"/>
<path d="M46.8333 84H30.1667C28.4178 84 27 85.4178 27 87.1668V103.833C27 105.582 28.4178 107 30.1667 107H46.8333C48.5822 107 50 105.582 50 103.833V87.1668C50 85.4178 48.5822 84 46.8333 84Z" fill="#F85C5C"/>
<path d="M29.8931 91.6081H31.1281L32.7241 97.7357L34.3012 91.6176L35.5457 91.6081L37.1227 97.7357L38.7188 91.6081H39.9538L37.9112 99.3603H36.4292L34.9187 93.5841L33.4176 99.3603H31.9356L29.8931 91.6081Z" fill="#FDFDFD"/>
<path d="M40.4092 96.1587V94.8002C40.4092 92.6911 41.9292 91.4656 43.7248 91.4656C45.3493 91.4656 46.4988 92.4156 46.8788 93.9737L45.7103 94.3062C45.4348 93.1946 44.8078 92.6056 43.7248 92.6056C42.5752 92.6056 41.6347 93.3656 41.6347 94.8667V96.1017C41.6347 97.6027 42.5752 98.3628 43.7248 98.3628C44.8078 98.3628 45.4348 97.7737 45.7103 96.6622L46.8788 96.9947C46.4988 98.5528 45.3493 99.5028 43.7248 99.5028C41.9292 99.5028 40.4092 98.2868 40.4092 96.1587Z" fill="#FDFDFD"/>
</g>
</svg>
