<svg width="321" height="321" viewBox="0 0 321 321" fill="none" xmlns="http://www.w3.org/2000/svg">
<mask id="mask0_584_2227" style="mask-type:luminance" maskUnits="userSpaceOnUse" x="0" y="0" width="321" height="321">
<path d="M320.564 160.634C320.564 72.3123 248.966 0.716003 160.642 0.716003C117.019 0.716003 77.4756 18.1812 48.6239 46.5009L27.5796 22.2651L6.53913 40.533L30.3221 67.9237C11.6822 94.0733 0.719727 126.076 0.719727 160.634C0.719727 248.956 72.3177 320.553 160.642 320.553C200.571 320.553 237.078 305.919 265.101 281.724L279.627 293.17L296.874 271.286L284.633 261.639C307.093 234.1 320.568 198.943 320.568 160.634H320.564Z" fill="white"/>
</mask>
<g mask="url(#mask0_584_2227)">
<path d="M277.494 170.255C274.354 184.829 271.21 199.4 268.07 213.974L318.074 232.038C321.214 212.053 324.358 192.072 327.498 172.087L277.494 170.255Z" fill="#FFD0D0" stroke="#EA8B8B" stroke-width="1.11" stroke-miterlimit="10" stroke-linejoin="round"/>
<path d="M302.833 182H286.167C284.418 182 283 183.418 283 185.167V201.833C283 203.582 284.418 205 286.167 205H302.833C304.582 205 306 203.582 306 201.833V185.167C306 183.418 304.582 182 302.833 182Z" fill="#F85C5C"/>
<path d="M285.893 189.608H287.128L288.724 195.736L290.301 189.618L291.546 189.608L293.123 195.736L294.719 189.608H295.954L293.911 197.36H292.429L290.919 191.584L289.418 197.36H287.936L285.893 189.608Z" fill="#FDFDFD"/>
<path d="M296.409 194.159V192.8C296.409 190.691 297.929 189.466 299.725 189.466C301.349 189.466 302.499 190.416 302.879 191.974L301.71 192.306C301.435 191.195 300.808 190.606 299.725 190.606C298.575 190.606 297.635 191.366 297.635 192.867V194.102C297.635 195.603 298.575 196.363 299.725 196.363C300.808 196.363 301.435 195.774 301.71 194.662L302.879 194.995C302.499 196.553 301.349 197.503 299.725 197.503C297.929 197.503 296.409 196.287 296.409 194.159Z" fill="#FDFDFD"/>
</g>
</svg>
