<?xml version="1.0" encoding="UTF-8"?><svg xmlns="http://www.w3.org/2000/svg" viewBox="0 0 2500 1100"><g id="Layer_border"><polygon points="2151.65 210.12 2151.65 252.98 1442.44 252.98 1442.44 163.32 1394.72 163.32 1394.72 217.11 1106.58 217.11 1106.58 163.32 1058.86 163.32 1058.86 252.98 349.65 252.98 349.65 210.12 118.87 210.12 118.87 252.98 118.87 408.35 118.87 779.04 923.84 779.04 1054.59 779.04 1068.35 779.04 1068.35 828.73 1435.37 828.73 1435.37 779.04 1446.71 779.04 1511.63 779.04 2382.44 779.04 2382.44 408.35 2382.44 252.98 2382.44 210.12 2151.65 210.12" fill="none"/><polygon points="1063.57 833.52 1063.57 783.83 301.45 783.83 301.45 833.51 112.49 833.51 114.08 252.97 114.08 205.33 354.44 205.33 354.44 248.19 1054.07 248.19 1054.07 158.53 1111.37 158.53 1111.37 212.32 1389.93 212.32 1389.93 158.53 1447.23 158.53 1447.23 248.19 2146.86 248.19 2146.86 205.33 2387.22 205.33 2387.87 833.51 2198.91 833.51 2198.91 783.83 1440.16 783.83 1440.16 833.52 1063.57 833.52" fill="#fef3f2"/><path d="m1442.44,163.32v89.66h709.21v-42.86h230.78c.21,206.2.43,412.41.64,618.61h-179.38v-49.68h-768.33v49.68h-367.02v-49.68H296.67v49.68H117.29c.53-191.91,1.05-383.83,1.58-575.74v-42.86h230.78v42.86h709.21v-89.66h47.72v53.79h288.14v-53.79h47.72m9.58-9.58h-66.87v53.79h-268.98v-53.79h-66.87v89.66H359.23v-42.86H109.29v52.44l-1.58,575.72-.03,9.6h198.56v-49.68h752.53v49.68h386.17v-49.68h749.18v49.68h198.54v-9.59s-.65-618.61-.65-618.61v-9.57h-249.94v42.86h-690.06v-89.66h0Z" fill="#ea8b8b"/><polygon points="2382.44 741.33 2382.44 408.35 2382.44 252.98 2382.44 210.12 2151.65 210.12 2151.65 252.98 1442.44 252.98 1442.44 163.32 1394.72 163.32 1394.72 217.11 1106.58 217.11 1106.58 163.32 1058.86 163.32 1058.86 252.98 349.65 252.98 349.65 210.12 118.87 210.12 118.87 252.98 118.87 408.35 118.87 741.33 117.29 741.33 117.29 828.73 296.67 828.73 296.67 779.04 923.84 779.04 1054.59 779.04 1068.35 779.04 1068.35 828.73 1435.37 828.73 1435.37 779.04 1446.71 779.04 1511.63 779.04 2203.7 779.04 2203.7 828.73 2383.07 828.73 2383.07 741.33 2382.44 741.33" fill="none"/><path d="m2382.44,210.12h-230.78v42.86h-709.21v-89.66h-47.72v53.79h-288.14v-53.79h-47.72v89.66H349.65v-42.86H118.87v42.86c-.53,191.91-1.05,383.83-1.58,575.74h179.38v-49.68h771.69v49.68h367.02v-49.68h768.33v49.68h179.38c-.21-206.2-.43-412.41-.64-618.61Z" fill="none"/></g><g id="Layer_others"><rect x="2265.69" y="210.5" width="116.77" height="230.44" fill="#fed0d0" stroke="#ea8b8b" stroke-miterlimit="10" stroke-width="2.9"/><rect x="2265.68" y="212.44" width="116.11" height="141.95" fill="#fef3f2" stroke="#ea8b8b" stroke-miterlimit="10" stroke-width="3"/><line x1="2382.43" y1="228.49" x2="2265" y2="228.49" fill="none" stroke="#ea8b8b" stroke-miterlimit="10" stroke-width="2"/><line x1="2382.43" y1="246.79" x2="2265" y2="246.79" fill="none" stroke="#ea8b8b" stroke-miterlimit="10" stroke-width="2"/><line x1="2382.43" y1="265.1" x2="2265" y2="265.1" fill="none" stroke="#ea8b8b" stroke-miterlimit="10" stroke-width="2"/><line x1="2382.43" y1="283.41" x2="2265" y2="283.41" fill="none" stroke="#ea8b8b" stroke-miterlimit="10" stroke-width="2"/><line x1="2382.43" y1="301.72" x2="2265" y2="301.72" fill="none" stroke="#ea8b8b" stroke-miterlimit="10" stroke-width="2"/><line x1="2382.43" y1="320.03" x2="2265" y2="320.03" fill="none" stroke="#ea8b8b" stroke-miterlimit="10" stroke-width="2"/><line x1="2382.45" y1="338.34" x2="2265.02" y2="338.34" fill="none" stroke="#ea8b8b" stroke-miterlimit="10" stroke-width="2"/><rect x="116.68" y="210.5" width="124.4" height="230.44" fill="#fed0d0" stroke="#ea8b8b" stroke-miterlimit="10" stroke-width="2.89"/><rect x="117.04" y="223.16" width="123.69" height="141.95" fill="#fef3f2" stroke="#ea8b8b" stroke-miterlimit="10" stroke-width="3.1"/><line x1="241.41" y1="239.21" x2="116.31" y2="239.21" fill="none" stroke="#ea8b8b" stroke-miterlimit="10" stroke-width="2.06"/><line x1="241.41" y1="257.52" x2="116.31" y2="257.52" fill="none" stroke="#ea8b8b" stroke-miterlimit="10" stroke-width="2.06"/><line x1="241.41" y1="275.83" x2="116.31" y2="275.83" fill="none" stroke="#ea8b8b" stroke-miterlimit="10" stroke-width="2.06"/><line x1="241.41" y1="294.14" x2="116.31" y2="294.14" fill="none" stroke="#ea8b8b" stroke-miterlimit="10" stroke-width="2.06"/><line x1="241.41" y1="312.45" x2="116.31" y2="312.45" fill="none" stroke="#ea8b8b" stroke-miterlimit="10" stroke-width="2.06"/><line x1="241.41" y1="330.76" x2="116.31" y2="330.76" fill="none" stroke="#ea8b8b" stroke-miterlimit="10" stroke-width="2.06"/><line x1="241.44" y1="349.07" x2="116.34" y2="349.07" fill="none" stroke="#ea8b8b" stroke-miterlimit="10" stroke-width="2.06"/><line x1="1241.02" y1="217.11" x2="1241.02" y2="448.61" fill="none" opacity=".7" stroke="#ea8b8b" stroke-miterlimit="10" stroke-width="9.88"/><rect x="1242.2" y="265.15" width="200.38" height="89.29" fill="#fef3f2" stroke="#ea8b8b" stroke-miterlimit="10" stroke-width="3.13"/><line x1="1443.69" y1="279.67" x2="1241.02" y2="279.67" fill="none" stroke="#ea8b8b" stroke-miterlimit="10" stroke-width="2.08"/><line x1="1443.69" y1="294.73" x2="1241.02" y2="294.73" fill="none" stroke="#ea8b8b" stroke-miterlimit="10" stroke-width="2.08"/><line x1="1443.69" y1="309.79" x2="1241.02" y2="309.79" fill="none" stroke="#ea8b8b" stroke-miterlimit="10" stroke-width="2.08"/><line x1="1443.69" y1="324.85" x2="1241.02" y2="324.85" fill="none" stroke="#ea8b8b" stroke-miterlimit="10" stroke-width="2.08"/><line x1="1443.69" y1="339.91" x2="1241.02" y2="339.91" fill="none" stroke="#ea8b8b" stroke-miterlimit="10" stroke-width="2.08"/></g><g id="Layer_toilet1"><rect x="1443.69" y="254.12" width="177.61" height="186.82" fill="none" stroke="#ea8b8b" stroke-miterlimit="10" stroke-width="3"/></g><g id="Layer_toilet2"><rect x="883.48" y="254.12" width="174.19" height="186.82" fill="none" stroke="#ea8b8b" stroke-miterlimit="10" stroke-width="3"/></g><g id="Layer_301"><rect x="1253.27" y="532.24" width="182.1" height="296.49" fill="#fed0d0" stroke="#ea8b8b" stroke-miterlimit="10" stroke-width="2.62"/><text transform="translate(1312.61 667.25)" fill="#424142" font-family="NanumSquareNeovariable-Heavy, &apos;NanumSquare Neo variable&apos;" font-size="32" font-variation-settings="&apos;wght&apos; 900" font-weight="800"><tspan x="0" y="0">301</tspan></text></g><g id="Layer_302"><rect x="1435.37" y="532.24" width="185.92" height="246.81" fill="#fed0d0" stroke="#ea8b8b" stroke-miterlimit="10" stroke-width="2.42"/><text transform="translate(1493.66 667.25)" fill="#424142" font-family="NanumSquareNeovariable-Heavy, &apos;NanumSquare Neo variable&apos;" font-size="32" font-variation-settings="&apos;wght&apos; 900" font-weight="800"><tspan x="0" y="0">302</tspan></text></g><g id="Layer_303"><rect x="1621.29" y="532.24" width="390.15" height="246.81" fill="#fed0d0" stroke="#ea8b8b" stroke-miterlimit="10" stroke-width="3"/><text transform="translate(1781.33 659.51)" fill="#424142" font-family="NanumSquareNeovariable-Heavy, &apos;NanumSquare Neo variable&apos;" font-size="32" font-variation-settings="&apos;wght&apos; 900" font-weight="800"><tspan x="0" y="0">303</tspan></text></g><g id="Layer_304"><polygon points="2012.51 532.24 2012.51 779.5 2203.5 779.5 2203.5 828.5 2383.5 828.5 2383.5 779.5 2383.5 746.5 2383.5 532.24 2012.51 532.24" fill="#fed0d0" stroke="#ea8b8b" stroke-miterlimit="10" stroke-width="2.95"/><text transform="translate(2162 655.64)" fill="#424142" font-family="NanumSquareNeovariable-Heavy, &apos;NanumSquare Neo variable&apos;" font-size="32" font-variation-settings="&apos;wght&apos; 900" font-weight="800"><tspan x="0" y="0">304</tspan></text></g><g id="Layer_305"><rect x="2011.44" y="254.12" width="254.89" height="186.82" fill="#fed0d0" stroke="#ea8b8b" stroke-miterlimit="10" stroke-width="3"/><text transform="translate(2104.22 356.32)" fill="#424142" font-family="NanumSquareNeovariable-Heavy, &apos;NanumSquare Neo variable&apos;" font-size="32" font-variation-settings="&apos;wght&apos; 900" font-weight="800"><tspan x="0" y="0">305</tspan></text></g><g id="Layer_306"><rect x="1621.29" y="254.12" width="390.15" height="186.82" fill="#fed0d0" stroke="#ea8b8b" stroke-miterlimit="10" stroke-width="3"/><text transform="translate(1781.34 356.32)" fill="#424142" font-family="NanumSquareNeovariable-Heavy, &apos;NanumSquare Neo variable&apos;" font-size="32" font-variation-settings="&apos;wght&apos; 900" font-weight="800"><tspan x="0" y="0">306</tspan></text></g><g id="Layer_309"><rect x="505.4" y="254.12" width="378.08" height="186.82" fill="#fed0d0" stroke="#ea8b8b" stroke-miterlimit="10" stroke-width="3"/><text transform="translate(657.62 352.45)" fill="#424142" font-family="NanumSquareNeovariable-Heavy, &apos;NanumSquare Neo variable&apos;" font-size="32" font-variation-settings="&apos;wght&apos; 900" font-weight="800"><tspan x="0" y="0">309</tspan></text></g><g id="Layer_310"><rect x="242.04" y="254.12" width="263.36" height="186.82" fill="#fed0d0" stroke="#ea8b8b" stroke-miterlimit="10" stroke-width="3"/><text transform="translate(341.65 352.45)" fill="#424142" font-family="NanumSquareNeovariable-Heavy, &apos;NanumSquare Neo variable&apos;" font-size="32" font-variation-settings="&apos;wght&apos; 900" font-weight="800"><tspan x="0" y="0" letter-spacing="0em">3</tspan><tspan x="22.78" y="0">10</tspan></text></g><g id="Layer_311"><polygon points="489.56 532.08 489.56 779.35 298.57 779.35 298.57 828.35 118.57 828.35 118.57 779.35 118.57 746.35 118.57 532.08 489.56 532.08" fill="#fed0d0" stroke="#ea8b8b" stroke-miterlimit="10" stroke-width="2.95"/><text transform="translate(283.96 667.25)" fill="#424142" font-family="NanumSquareNeovariable-Heavy, &apos;NanumSquare Neo variable&apos;" font-size="32" font-variation-settings="&apos;wght&apos; 900" font-weight="800"><tspan x="0" y="0" letter-spacing="0em">3</tspan><tspan x="22.78" y="0">11</tspan></text></g><g id="Layer_312"><rect x="490" y="532.24" width="204.44" height="246.81" fill="#fed0d0" stroke="#ea8b8b" stroke-miterlimit="10" stroke-width="2.54"/><text transform="translate(564.6 667.25)" fill="#424142" font-family="NanumSquareNeovariable-Heavy, &apos;NanumSquare Neo variable&apos;" font-size="32" font-variation-settings="&apos;wght&apos; 900" font-weight="800"><tspan x="0" y="0" letter-spacing="0em">3</tspan><tspan x="22.78" y="0">12</tspan></text></g><g id="Layer_313"><rect x="694.44" y="532.23" width="190.08" height="246.81" fill="#fed0d0" stroke="#ea8b8b" stroke-miterlimit="10" stroke-width="2.45"/><text transform="translate(758.31 667.25)" fill="#424142" font-family="NanumSquareNeovariable-Heavy, &apos;NanumSquare Neo variable&apos;" font-size="32" font-variation-settings="&apos;wght&apos; 900" font-weight="800"><tspan x="0" y="0" letter-spacing="0em">3</tspan><tspan x="22.78" y="0">13</tspan></text></g><g id="Layer_314"><rect x="884.52" y="532.23" width="183.83" height="246.81" fill="#fed0d0" stroke="#ea8b8b" stroke-miterlimit="10" stroke-width="2.41"/><text transform="translate(945.36 667.25)" fill="#424142" font-family="NanumSquareNeovariable-Heavy, &apos;NanumSquare Neo variable&apos;" font-size="32" font-variation-settings="&apos;wght&apos; 900" font-weight="800"><tspan x="0" y="0" letter-spacing="0em">3</tspan><tspan x="22.78" y="0">14</tspan></text></g><g id="Layer_315"><rect x="1068.35" y="532.23" width="184.92" height="296.49" fill="#fed0d0" stroke="#ea8b8b" stroke-miterlimit="10" stroke-width="2.64"/><text transform="translate(1130.01 667.25)" fill="#424142" font-family="NanumSquareNeovariable-Heavy, &apos;NanumSquare Neo variable&apos;" font-size="32" font-variation-settings="&apos;wght&apos; 900" font-weight="800"><tspan x="0" y="0" letter-spacing="0em">3</tspan><tspan x="22.78" y="0">15</tspan></text></g></svg>