<?xml version="1.0" encoding="UTF-8"?>
<svg id="_x36_" xmlns="http://www.w3.org/2000/svg" viewBox="0 0 1394 788">
  <defs>
    <style>
      .cls-1 {
        fill: #fcf2f2;
        stroke-width: 10px;
      }

      .cls-1, .cls-2, .cls-3 {
        stroke: #e68b8b;
        stroke-miterlimit: 10;
      }

      .cls-4 {
        font-size: 10px;
      }

      .cls-5, .cls-6 {
        font-size: 14px;
      }

      .cls-2 {
        fill: none;
      }

      .cls-2, .cls-3 {
        stroke-width: 3px;
      }

      .cls-7, .cls-8, .cls-6 {
        fill: #221f20;
        font-family: NanumSquareNeoTTF-dEb, 'NanumSquare Neo';
      }

      .cls-9 {
        letter-spacing: 0em;
      }

      .cls-8 {
        font-size: 12px;
      }

      .cls-10 {
        letter-spacing: -.03em;
      }

      .cls-11 {
        letter-spacing: -.01em;
      }

      .cls-3 {
        fill: #f3cdcf;
      }
    </style>
  </defs>
  <g id="Layer_x5F_border-6" data-name="Layer_x5F_border">
    <polygon class="cls-1" points="40 253 40 600.4 1351.67 600.4 1351.67 401 1257.65 401 1257.65 253 40 253"/>
  </g>
  <g id="Layer_x5F_others-6" data-name="Layer_x5F_others">
    <rect class="cls-3" x="40.5" y="253.5" width="69" height="151"/>
    <g>
      <rect class="cls-2" x="75.68" y="286.68" width="117.64" height="51" transform="translate(446.68 177.68) rotate(90)"/>
      <g>
        <rect class="cls-2" x="144.28" y="270.79" width="5.93" height="25.5" transform="translate(430.79 136.29) rotate(90)"/>
        <rect class="cls-2" x="144.28" y="276.72" width="5.93" height="25.5" transform="translate(436.72 142.22) rotate(90)"/>
        <rect class="cls-2" x="144.28" y="282.65" width="5.93" height="25.5" transform="translate(442.65 148.15) rotate(90)"/>
        <rect class="cls-2" x="144.28" y="288.59" width="5.93" height="25.5" transform="translate(448.59 154.09) rotate(90)"/>
        <rect class="cls-2" x="144.28" y="294.52" width="5.93" height="25.5" transform="translate(454.52 160.02) rotate(90)"/>
        <rect class="cls-2" x="144.28" y="300.48" width="5.93" height="25.5" transform="translate(460.48 165.98) rotate(90)"/>
        <rect class="cls-2" x="144.28" y="306.41" width="5.93" height="25.5" transform="translate(466.41 171.91) rotate(90)"/>
        <rect class="cls-2" x="144.28" y="312.35" width="5.93" height="25.5" transform="translate(472.35 177.85) rotate(90)"/>
        <rect class="cls-2" x="144.28" y="318.28" width="5.93" height="25.5" transform="translate(478.28 183.78) rotate(90)"/>
        <rect class="cls-2" x="144.28" y="324.21" width="5.93" height="25.5" transform="translate(484.21 189.71) rotate(90)"/>
      </g>
      <g>
        <rect class="cls-2" x="118.78" y="270.67" width="5.93" height="25.5" transform="translate(405.17 161.67) rotate(90)"/>
        <rect class="cls-2" x="118.78" y="276.61" width="5.93" height="25.5" transform="translate(411.11 167.61) rotate(90)"/>
        <rect class="cls-2" x="118.78" y="282.54" width="5.93" height="25.5" transform="translate(417.04 173.54) rotate(90)"/>
        <rect class="cls-2" x="118.78" y="288.47" width="5.93" height="25.5" transform="translate(422.97 179.47) rotate(90)"/>
        <rect class="cls-2" x="118.78" y="294.4" width="5.93" height="25.5" transform="translate(428.9 185.4) rotate(90)"/>
        <rect class="cls-2" x="118.78" y="300.37" width="5.93" height="25.5" transform="translate(434.87 191.37) rotate(90)"/>
        <rect class="cls-2" x="118.78" y="306.3" width="5.93" height="25.5" transform="translate(440.8 197.3) rotate(90)"/>
        <rect class="cls-2" x="118.78" y="312.23" width="5.93" height="25.5" transform="translate(446.73 203.23) rotate(90)"/>
        <rect class="cls-2" x="118.78" y="318.16" width="5.93" height="25.5" transform="translate(452.66 209.16) rotate(90)"/>
        <rect class="cls-2" x="118.78" y="324.1" width="5.93" height="25.5" transform="translate(458.6 215.1) rotate(90)"/>
      </g>
    </g>
    <g>
      <polygon class="cls-3" points="895.82 404.29 951.6 404.29 951.6 315.21 929.14 315.21 929.14 347.29 895.82 347.29 895.82 404.29"/>
      <g>
        <rect class="cls-2" x="920.39" y="285.18" width="150.31" height="86.91" transform="translate(1324.18 -666.91) rotate(90)"/>
        <g>
          <rect class="cls-2" x="1013.48" y="270.31" width="7.58" height="43.45" transform="translate(1309.31 -725.23) rotate(90)"/>
          <rect class="cls-2" x="1013.48" y="277.89" width="7.58" height="43.45" transform="translate(1316.89 -717.65) rotate(90)"/>
          <rect class="cls-2" x="1013.48" y="285.47" width="7.58" height="43.45" transform="translate(1324.47 -710.07) rotate(90)"/>
          <rect class="cls-2" x="1013.48" y="293.05" width="7.58" height="43.45" transform="translate(1332.05 -702.49) rotate(90)"/>
          <rect class="cls-2" x="1013.48" y="300.63" width="7.58" height="43.45" transform="translate(1339.63 -694.91) rotate(90)"/>
          <rect class="cls-2" x="1013.48" y="308.25" width="7.58" height="43.45" transform="translate(1347.25 -687.29) rotate(90)"/>
          <rect class="cls-2" x="1013.48" y="315.83" width="7.58" height="43.45" transform="translate(1354.83 -679.72) rotate(90)"/>
          <rect class="cls-2" x="1013.48" y="323.41" width="7.58" height="43.45" transform="translate(1362.41 -672.14) rotate(90)"/>
          <rect class="cls-2" x="1013.48" y="330.99" width="7.58" height="43.45" transform="translate(1369.99 -664.56) rotate(90)"/>
          <rect class="cls-2" x="1013.48" y="338.57" width="7.58" height="43.45" transform="translate(1377.57 -656.98) rotate(90)"/>
        </g>
        <g>
          <rect class="cls-2" x="970.03" y="270.17" width="7.58" height="43.45" transform="translate(1265.71 -681.92) rotate(90)"/>
          <rect class="cls-2" x="970.03" y="277.75" width="7.58" height="43.45" transform="translate(1273.29 -674.34) rotate(90)"/>
          <rect class="cls-2" x="970.03" y="285.33" width="7.58" height="43.45" transform="translate(1280.87 -666.76) rotate(90)"/>
          <rect class="cls-2" x="970.03" y="292.91" width="7.58" height="43.45" transform="translate(1288.45 -659.18) rotate(90)"/>
          <rect class="cls-2" x="970.03" y="300.49" width="7.58" height="43.45" transform="translate(1296.03 -651.6) rotate(90)"/>
          <rect class="cls-2" x="970.03" y="308.1" width="7.58" height="43.45" transform="translate(1303.65 -643.99) rotate(90)"/>
          <rect class="cls-2" x="970.03" y="315.68" width="7.58" height="43.45" transform="translate(1311.23 -636.41) rotate(90)"/>
          <rect class="cls-2" x="970.03" y="323.26" width="7.58" height="43.45" transform="translate(1318.81 -628.83) rotate(90)"/>
          <rect class="cls-2" x="970.03" y="330.84" width="7.58" height="43.45" transform="translate(1326.39 -621.25) rotate(90)"/>
          <rect class="cls-2" x="970.03" y="338.42" width="7.58" height="43.45" transform="translate(1333.97 -613.67) rotate(90)"/>
        </g>
      </g>
    </g>
    <g>
      <rect class="cls-3" x="1224.5" y="253.5" width="34" height="59"/>
      <rect class="cls-3" x="1158.5" y="253.5" width="66" height="59"/>
      <rect class="cls-3" x="1114.5" y="312.5" width="44" height="44"/>
      <rect class="cls-3" x="1114.5" y="356.5" width="44" height="48"/>
      <rect class="cls-3" x="1158.5" y="312.5" width="51" height="92"/>
      <rect class="cls-3" x="1114.5" y="253.5" width="44" height="59"/>
    </g>
  </g>
  <g id="Layer_169">
    <rect class="cls-3" x="990.5" y="442" width="63" height="158.5"/>
    <text class="cls-7" transform="translate(1006.9 509.74)"><tspan class="cls-5"><tspan x="0" y="0">606</tspan></tspan><tspan class="cls-4"><tspan x="-13.34" y="19.2">반도체공학과</tspan></tspan><tspan class="cls-4"><tspan x=".88" y="31.2">행정실</tspan></tspan></text>
  </g>
  <g id="Layer_170">
    <rect class="cls-3" x="934.5" y="442" width="56" height="158.5"/>
    <text class="cls-6" transform="translate(947.96 516.33)"><tspan x="0" y="0">607</tspan><tspan x="-5.37" y="16.8">연구실</tspan></text>
  </g>
  <g id="Layer_171">
    <rect class="cls-3" x="871.5" y="442" width="63" height="158.5"/>
    <text class="cls-6" transform="translate(887.75 516.33)"><tspan x="0" y="0">608</tspan><tspan x="-4.66" y="16.8">연구실</tspan></text>
  </g>
  <g id="Layer_172">
    <rect class="cls-3" x="813.5" y="441.5" width="58" height="159"/>
    <text class="cls-6" transform="translate(827.4 516.08)"><tspan x="0" y="0">609</tspan><tspan x="-4.81" y="16.8">연구실</tspan></text>
  </g>
  <g id="Layer_173">
    <rect class="cls-3" x="754.5" y="442" width="59" height="158.5"/>
    <text class="cls-6" transform="translate(770.48 516.33)"><tspan class="cls-11" x="0" y="0">6</tspan><tspan class="cls-9" x="9.81" y="0">10</tspan><tspan x="-6.39" y="16.8">연구실</tspan></text>
  </g>
  <g id="Layer_174">
    <rect class="cls-3" x="695.5" y="442" width="59" height="158.5"/>
    <text class="cls-6" transform="translate(713.16 516.33)"><tspan class="cls-11" x="0" y="0">6</tspan><tspan x="9.81" y="0">11</tspan><tspan x="-8.07" y="16.8">연구실</tspan></text>
  </g>
  <g id="Layer_175">
    <rect class="cls-3" x="636.5" y="442" width="59" height="158.5"/>
    <text class="cls-6" transform="translate(652.8 516.33)"><tspan class="cls-11" x="0" y="0">6</tspan><tspan class="cls-9" x="9.81" y="0">12</tspan><tspan x="-6.71" y="16.8">연구실</tspan></text>
  </g>
  <g id="Layer_176">
    <polygon class="cls-3" points="577.5 442 518.5 442 518.5 477.5 518.5 600.5 577.5 600.5 636.5 600.5 636.5 442 577.5 442"/>
    <text class="cls-6" transform="translate(564.15 516.33)"><tspan class="cls-11" x="0" y="0">6</tspan><tspan class="cls-9" x="9.81" y="0">13</tspan><tspan x="-6.56" y="16.8">연구실</tspan></text>
  </g>
  <g id="Layer_177">
    <rect class="cls-3" x="282.5" y="442" width="118" height="158.5"/>
    <text class="cls-6" transform="translate(328.29 516.33)"><tspan class="cls-11" x="0" y="0">6</tspan><tspan x="9.81" y="0">15</tspan><tspan x="-6.7" y="16.8">연구실</tspan></text>
  </g>
  <g id="Layer_178">
    <rect class="cls-3" x="400.5" y="442" width="118" height="158.5"/>
    <text class="cls-6" transform="translate(446.12 516.33)"><tspan class="cls-11" x="0" y="0">6</tspan><tspan x="9.81" y="0">14</tspan><tspan x="-6.52" y="16.8">연구실</tspan></text>
  </g>
  <g id="Layer_179">
    <rect class="cls-3" x="99.5" y="441.5" width="60" height="159"/>
    <text class="cls-6" transform="translate(116.71 516.08)"><tspan class="cls-11" x="0" y="0">6</tspan><tspan x="9.81" y="0">17</tspan><tspan x="-7.12" y="16.8">연구실</tspan></text>
  </g>
  <g id="Layer_180">
    <rect class="cls-3" x="39.5" y="442" width="60" height="158.5"/>
    <text class="cls-6" transform="translate(56 516.33)"><tspan class="cls-11" x="0" y="0">6</tspan><tspan x="9.81" y="0">18</tspan><tspan x="-6.41" y="16.8">연구실</tspan></text>
  </g>
  <g id="Layer_181">
    <rect class="cls-3" x="159.5" y="442" width="123" height="158.5"/>
    <text class="cls-6" transform="translate(207.65 516.33)"><tspan class="cls-11" x="0" y="0">6</tspan><tspan class="cls-9" x="9.81" y="0">16</tspan><tspan x="-6.56" y="16.8">연구실</tspan></text>
  </g>
  <g id="Layer_151">
    <rect class="cls-3" x="160.5" y="253.5" width="60" height="150.5"/>
    <text class="cls-6" transform="translate(175.55 323.83)"><tspan x="0" y="0">620</tspan><tspan x="-4.96" y="16.8">연구실</tspan></text>
  </g>
  <g id="Layer_152">
    <rect class="cls-3" x="220.5" y="253.5" width="62" height="151"/>
    <text class="cls-6" transform="translate(238.23 324.08)"><tspan x="0" y="0">621</tspan><tspan x="-6.64" y="16.8">연구실</tspan></text>
  </g>
  <g id="Layer_153">
    <rect class="cls-3" x="282.5" y="253.5" width="118" height="150.5"/>
    <text class="cls-6" transform="translate(326.86 323.83)"><tspan x="0" y="0">622</tspan><tspan x="-5.27" y="16.8">연구실</tspan></text>
  </g>
  <g id="Layer_154">
    <rect class="cls-3" x="400.5" y="253.5" width="78" height="150.5"/>
    <text class="cls-6" transform="translate(419.22 323.83)"><tspan x="0" y="0">623A</tspan><tspan x=".37" y="16.8">연구실</tspan></text>
  </g>
  <g id="Layer_155">
    <rect class="cls-3" x="478.5" y="253.5" width="40" height="150.5"/>
    <text class="cls-8" transform="translate(481.31 323.83)"><tspan x="0" y="0">623B</tspan><tspan x=".13" y="14.4">연구실</tspan></text>
  </g>
  <g id="Layer_156">
    <rect class="cls-3" x="518.5" y="253.5" width="59" height="150.5"/>
    <text class="cls-6" transform="translate(527.9 323.83)"><tspan x="0" y="0">6</tspan><tspan class="cls-10" x="9.95" y="0">2</tspan><tspan x="19.19" y="0">4A</tspan><tspan x=".2" y="16.8">연구실</tspan></text>
  </g>
  <g id="Layer_157">
    <rect class="cls-3" x="577.5" y="253.5" width="59" height="150.5"/>
    <text class="cls-6" transform="translate(587.12 323.83)"><tspan x="0" y="0">6</tspan><tspan class="cls-10" x="9.95" y="0">2</tspan><tspan x="19.19" y="0">4B</tspan><tspan x="-.03" y="16.8">연구실</tspan></text>
  </g>
  <g id="Layer_158">
    <rect class="cls-3" x="636.5" y="253.5" width="61" height="150"/>
    <text class="cls-6" transform="translate(652.36 323.58)"><tspan x="0" y="0">625</tspan><tspan x="-5.26" y="16.8">연구실</tspan></text>
  </g>
  <g id="Layer_159">
    <rect class="cls-3" x="697.5" y="253.5" width="57" height="150"/>
    <text class="cls-6" transform="translate(711.22 323.58)"><tspan x="0" y="0">626</tspan><tspan x="-5.12" y="16.8">연구실</tspan></text>
  </g>
  <g id="Layer_160">
    <rect class="cls-3" x="754.5" y="253.5" width="59" height="150"/>
    <text class="cls-6" transform="translate(769.78 323.58)"><tspan x="0" y="0">627</tspan><tspan x="-5.68" y="16.8">연구실</tspan></text>
  </g>
  <g id="Layer_161">
    <rect class="cls-3" x="813.5" y="253.5" width="55" height="150"/>
    <text class="cls-6" transform="translate(826.07 323.58)"><tspan x="0" y="0">628</tspan><tspan x="-4.98" y="16.8">연구실</tspan></text>
  </g>
  <g id="Layer_162">
    <polygon class="cls-2" points="868.6 253.29 868.6 364.29 868.6 404.29 895.94 404.29 895.94 364.29 895.82 364.29 895.82 347.29 929.14 347.29 929.14 315.21 951.6 315.21 951.6 253.29 868.6 253.29"/>
  </g>
  <g id="Layer_163">
    <rect class="cls-2" x="1209.5" y="312.5" width="49" height="92"/>
  </g>
  <g id="Layer_164">
    <rect class="cls-3" x="1291.5" y="442.5" width="60" height="158"/>
    <text class="cls-6" transform="translate(1307.91 516.58)"><tspan x="0" y="0">601</tspan><tspan x="-6.32" y="16.8">행정실</tspan></text>
  </g>
  <g id="Layer_165">
    <rect class="cls-3" x="1230.5" y="442.5" width="61" height="158"/>
    <text class="cls-6" transform="translate(1246.05 516.58)"><tspan x="0" y="0">602</tspan><tspan x="-4.96" y="16.8">연구실</tspan></text>
  </g>
  <g id="Layer_166">
    <rect class="cls-3" x="1172.5" y="442.5" width="58" height="158"/>
    <text class="cls-6" transform="translate(1186.4 516.58)"><tspan x="0" y="0">603</tspan><tspan x="-4.81" y="16.8">연구실</tspan></text>
  </g>
  <g id="Layer_167">
    <rect class="cls-3" x="1114.5" y="442.5" width="58" height="158"/>
    <text class="cls-6" transform="translate(1128.37 516.58)"><tspan x="0" y="0">604</tspan><tspan x="-4.77" y="16.8">연구실</tspan></text>
  </g>
  <g id="Layer_168">
    <rect class="cls-3" x="1053.5" y="442.5" width="61" height="158"/>
    <text class="cls-7" transform="translate(1069.04 509.99)"><tspan class="cls-5"><tspan x="0" y="0">605</tspan></tspan><tspan class="cls-4"><tspan x="-13.48" y="19.2">반도체공학과</tspan></tspan><tspan class="cls-4"><tspan x=".74" y="31.2">행정실</tspan></tspan></text>
  </g>
</svg>