<?xml version="1.0" encoding="UTF-8"?><svg xmlns="http://www.w3.org/2000/svg" viewBox="0 0 1800 1400"><defs><style>.cls-1{fill:#fdf2f2;stroke-width:5px;}.cls-1,.cls-2,.cls-3,.cls-4,.cls-5,.cls-6,.cls-7{stroke:#d88282;stroke-miterlimit:10;}.cls-8{letter-spacing:-.02em;}.cls-9{letter-spacing:-.03em;}.cls-2,.cls-3{fill:#f5cbcc;}.cls-2,.cls-4{stroke-width:2px;}.cls-3{stroke-width:2.05px;}.cls-10{font-family:NanumSquareNeovariable-Heavy, 'NanumSquare Neo variable';font-size:22px;font-variation-settings:'wght' 900;font-weight:800;}.cls-10,.cls-11{fill:#434142;}.cls-4,.cls-5,.cls-6,.cls-7{fill:none;}.cls-5{stroke-width:2.04px;}.cls-12{letter-spacing:0em;}.cls-13{letter-spacing:0em;}.cls-6{stroke-width:2.19px;}.cls-11{font-family:NanumSquareNeovariable-Regular, 'NanumSquare Neo variable';font-size:20px;font-variation-settings:'wght' 300;}.cls-7{stroke-width:1.87px;}</style></defs><g id="Layer_border"><path class="cls-1" d="m1563.34,451.21v-101.1h-909.86v-76.66H239.31c.11,292.79.23,585.57.34,878.36h20.49v43.42h189.14v-46.67h107.44c-.02-91.69-.04-183.37-.06-275.06h398.16v-199.15c32.21,4.07,71.95,5.79,116.83.46,54.57-6.49,98.85-21.28,130.31-34.59h232v-23.91h125.29v-38.26h55.47c-.09-42.28-.19-84.57-.28-126.85h-51.09Z"/></g><g id="Layer_others"><line class="cls-7" x1="330.72" y1="1170.17" x2="450.36" y2="1170.17"/><line class="cls-7" x1="361.44" y1="1148.69" x2="361.44" y2="1170.17"/><line class="cls-7" x1="366.63" y1="1148.69" x2="366.63" y2="1170.17"/><line class="cls-7" x1="371.82" y1="1148.69" x2="371.82" y2="1170.17"/><line class="cls-7" x1="377.01" y1="1148.69" x2="377.01" y2="1170.17"/><line class="cls-7" x1="382.2" y1="1148.69" x2="382.2" y2="1170.17"/><line class="cls-7" x1="387.39" y1="1148.69" x2="387.39" y2="1170.17"/><line class="cls-7" x1="392.58" y1="1148.69" x2="392.58" y2="1170.17"/><line class="cls-7" x1="397.78" y1="1148.69" x2="397.78" y2="1170.17"/><line class="cls-7" x1="402.97" y1="1148.69" x2="402.97" y2="1170.17"/><line class="cls-7" x1="408.16" y1="1148.69" x2="408.16" y2="1170.17"/><line class="cls-7" x1="413.35" y1="1148.69" x2="413.35" y2="1170.17"/><line class="cls-7" x1="418.54" y1="1148.69" x2="418.54" y2="1170.17"/><line class="cls-7" x1="361.44" y1="1193.92" x2="361.44" y2="1170.17"/><line class="cls-7" x1="366.63" y1="1193.92" x2="366.63" y2="1170.17"/><line class="cls-7" x1="371.82" y1="1193.92" x2="371.82" y2="1170.17"/><line class="cls-7" x1="377.01" y1="1193.92" x2="377.01" y2="1170.17"/><line class="cls-7" x1="382.2" y1="1193.92" x2="382.2" y2="1170.17"/><line class="cls-7" x1="387.39" y1="1193.92" x2="387.39" y2="1170.17"/><line class="cls-7" x1="392.59" y1="1193.92" x2="392.59" y2="1170.17"/><line class="cls-7" x1="397.78" y1="1193.92" x2="397.78" y2="1170.17"/><line class="cls-7" x1="402.97" y1="1193.92" x2="402.97" y2="1170.17"/><line class="cls-7" x1="408.16" y1="1193.92" x2="408.16" y2="1170.17"/><line class="cls-7" x1="413.35" y1="1193.92" x2="413.35" y2="1170.17"/><line class="cls-7" x1="418.54" y1="1193.92" x2="418.54" y2="1170.17"/><line class="cls-4" x1="543.91" y1="458.36" x2="543.91" y2="558.32"/><line class="cls-4" x1="568.49" y1="481.82" x2="543.91" y2="481.82"/><line class="cls-4" x1="568.49" y1="486.29" x2="543.91" y2="486.29"/><line class="cls-4" x1="568.49" y1="490.75" x2="543.91" y2="490.75"/><line class="cls-4" x1="568.49" y1="495.22" x2="543.91" y2="495.22"/><line class="cls-4" x1="568.49" y1="499.68" x2="543.91" y2="499.68"/><line class="cls-4" x1="568.49" y1="504.15" x2="543.91" y2="504.15"/><line class="cls-4" x1="568.49" y1="508.61" x2="543.91" y2="508.61"/><line class="cls-4" x1="568.49" y1="513.08" x2="543.91" y2="513.08"/><line class="cls-4" x1="568.49" y1="517.54" x2="543.91" y2="517.54"/><line class="cls-4" x1="568.49" y1="522.01" x2="543.91" y2="522.01"/><line class="cls-4" x1="568.49" y1="526.48" x2="543.91" y2="526.48"/><line class="cls-4" x1="568.49" y1="530.94" x2="543.91" y2="530.94"/><line class="cls-4" x1="516.76" y1="481.82" x2="543.91" y2="481.82"/><line class="cls-4" x1="516.76" y1="486.29" x2="543.91" y2="486.29"/><line class="cls-4" x1="516.76" y1="490.75" x2="543.91" y2="490.75"/><line class="cls-4" x1="516.76" y1="495.22" x2="543.91" y2="495.22"/><line class="cls-4" x1="516.76" y1="499.68" x2="543.91" y2="499.68"/><line class="cls-4" x1="516.76" y1="504.15" x2="543.91" y2="504.15"/><line class="cls-4" x1="516.76" y1="508.61" x2="543.91" y2="508.61"/><line class="cls-4" x1="516.76" y1="513.08" x2="543.91" y2="513.08"/><line class="cls-4" x1="516.76" y1="517.55" x2="543.91" y2="517.55"/><line class="cls-4" x1="516.76" y1="522.01" x2="543.91" y2="522.01"/><line class="cls-4" x1="516.76" y1="526.48" x2="543.91" y2="526.48"/><line class="cls-4" x1="516.76" y1="530.94" x2="543.91" y2="530.94"/><rect class="cls-4" x="516.76" y="458.36" width="51.74" height="99.96"/><rect class="cls-4" x="486.41" y="493.3" width="25.17" height="29.03"/><rect class="cls-4" x="486.41" y="528.26" width="25.17" height="29.03"/><path class="cls-5" d="m1048.35,601.4c-25.65.49-51.29.99-76.94,1.48.04,5.02.08,10.04.12,15.07h86.23l75.25-10.65v-5.9h-65.84"/><polyline class="cls-5" points="975.3 628.88 1044.37 628.88 1044.37 651.12 975.3 651.12"/><line class="cls-4" x1="975.3" y1="617.94" x2="975.3" y2="661.05"/><line class="cls-4" x1="981.3" y1="617.94" x2="981.3" y2="661.05"/><line class="cls-4" x1="987.3" y1="617.94" x2="987.3" y2="661.05"/><line class="cls-4" x1="993.3" y1="617.94" x2="993.3" y2="661.05"/><line class="cls-4" x1="999.3" y1="617.94" x2="999.3" y2="661.05"/><line class="cls-4" x1="1005.3" y1="617.94" x2="1005.3" y2="661.05"/><line class="cls-4" x1="1011.3" y1="617.94" x2="1011.3" y2="661.05"/><line class="cls-4" x1="1017.3" y1="617.94" x2="1017.3" y2="661.05"/><line class="cls-4" x1="1023.3" y1="617.94" x2="1023.3" y2="661.05"/><line class="cls-4" x1="1029.3" y1="617.94" x2="1029.3" y2="661.05"/><line class="cls-4" x1="1035.3" y1="617.94" x2="1035.3" y2="661.05"/><line class="cls-4" x1="1073.23" y1="616.55" x2="1078.89" y2="655.24"/><line class="cls-4" x1="1079.17" y1="615.68" x2="1084.83" y2="654.37"/><line class="cls-4" x1="1085.1" y1="614.81" x2="1090.77" y2="653.5"/><line class="cls-4" x1="1091.04" y1="613.94" x2="1096.7" y2="652.63"/><line class="cls-4" x1="1096.98" y1="613.07" x2="1102.64" y2="651.76"/><line class="cls-4" x1="1102.91" y1="612.2" x2="1108.58" y2="650.89"/><line class="cls-4" x1="1108.85" y1="611.34" x2="1114.51" y2="650.02"/><line class="cls-4" x1="1114.79" y1="610.47" x2="1120.45" y2="649.16"/><line class="cls-4" x1="1120.72" y1="609.6" x2="1126.39" y2="648.29"/><line class="cls-4" x1="1126.66" y1="608.73" x2="1132.32" y2="647.42"/><line class="cls-4" x1="1132.6" y1="607.86" x2="1138.26" y2="646.55"/><polyline class="cls-4" points="1139.96 616.77 1064.57 627.8 1067.79 649.8 1143.18 638.77"/><polygon class="cls-5" points="1067.16 607.29 1048.35 607.29 1048.35 601.4 1048.35 588.48 1067.16 588.48 1067.16 607.29"/><rect class="cls-4" x="558.2" y="419.64" width="43.68" height="33.71"/><rect class="cls-4" x="606.69" y="419.64" width="43.68" height="33.71"/><line class="cls-4" x1="1590.49" y1="452.87" x2="1590.49" y2="576.55"/><line class="cls-4" x1="1612.3" y1="468.58" x2="1590.49" y2="468.58"/><line class="cls-4" x1="1612.3" y1="474.88" x2="1590.49" y2="474.88"/><line class="cls-4" x1="1612.3" y1="481.18" x2="1590.49" y2="481.18"/><line class="cls-4" x1="1612.3" y1="487.49" x2="1590.49" y2="487.49"/><line class="cls-4" x1="1612.3" y1="493.79" x2="1590.49" y2="493.79"/><line class="cls-4" x1="1612.3" y1="500.09" x2="1590.49" y2="500.09"/><line class="cls-4" x1="1612.3" y1="506.39" x2="1590.49" y2="506.39"/><line class="cls-4" x1="1612.3" y1="512.7" x2="1590.49" y2="512.7"/><line class="cls-4" x1="1612.3" y1="519" x2="1590.49" y2="519"/><line class="cls-4" x1="1612.3" y1="525.3" x2="1590.49" y2="525.3"/><line class="cls-4" x1="1612.3" y1="531.61" x2="1590.49" y2="531.61"/><line class="cls-4" x1="1612.3" y1="537.91" x2="1590.49" y2="537.91"/><line class="cls-4" x1="1566.39" y1="468.58" x2="1590.49" y2="468.58"/><line class="cls-4" x1="1566.39" y1="474.88" x2="1590.49" y2="474.88"/><line class="cls-4" x1="1566.39" y1="481.19" x2="1590.49" y2="481.19"/><line class="cls-4" x1="1566.39" y1="487.49" x2="1590.49" y2="487.49"/><line class="cls-4" x1="1566.39" y1="493.79" x2="1590.49" y2="493.79"/><line class="cls-4" x1="1566.39" y1="500.09" x2="1590.49" y2="500.09"/><line class="cls-4" x1="1566.39" y1="506.4" x2="1590.49" y2="506.4"/><line class="cls-4" x1="1566.39" y1="512.7" x2="1590.49" y2="512.7"/><line class="cls-4" x1="1566.39" y1="519" x2="1590.49" y2="519"/><line class="cls-4" x1="1566.39" y1="525.3" x2="1590.49" y2="525.3"/><line class="cls-4" x1="1566.39" y1="531.61" x2="1590.49" y2="531.61"/><line class="cls-4" x1="1566.39" y1="537.91" x2="1590.49" y2="537.91"/><line class="cls-4" x1="1566.39" y1="576.55" x2="1566.39" y2="452.87"/><line class="cls-4" x1="424.9" y1="608.41" x2="424.9" y2="444.92"/><rect class="cls-4" x="362.64" y="411.73" width="62.26" height="50.05"/><rect class="cls-4" x="362.64" y="461.78" width="62.26" height="37.9"/><line class="cls-4" x1="449.85" y1="461.78" x2="424.9" y2="461.78"/><polyline class="cls-4" points="516.76 458.36 473.29 458.36 473.29 487.34"/><line class="cls-4" x1="516.76" y1="486.29" x2="442.19" y2="486.29"/><polyline class="cls-4" points="450.48 619.81 564.26 619.81 564.26 871.72"/><path class="cls-4" d="m564.26,638.26c8.67-.28,17.34-.56,26.01-.84,1.36,18.94,6.01,49.25,22.74,82.1,11.67,22.93,25.55,39.87,36.63,51.37"/><line class="cls-4" x1="613.57" y1="643.42" x2="591.64" y2="650.77"/><line class="cls-4" x1="614.81" y1="649.99" x2="592.65" y2="657.48"/><line class="cls-4" x1="616.38" y1="656.92" x2="593.95" y2="664.57"/><line class="cls-4" x1="617.98" y1="663.07" x2="595.34" y2="671.01"/><line class="cls-4" x1="619.85" y1="669.44" x2="596.99" y2="677.64"/><line class="cls-4" x1="621.86" y1="675.58" x2="598.77" y2="683.93"/><line class="cls-4" x1="624.39" y1="682.51" x2="600.96" y2="690.84"/><line class="cls-4" x1="626.82" y1="688.63" x2="603.73" y2="697.11"/><line class="cls-4" x1="628.85" y1="695.38" x2="605.94" y2="704.15"/><line class="cls-4" x1="632.41" y1="700.95" x2="609.19" y2="711.63"/><line class="cls-4" x1="635.12" y1="706.29" x2="612.67" y2="717.56"/><line class="cls-4" x1="637.43" y1="711.92" x2="615.28" y2="723.86"/><line class="cls-4" x1="640.8" y1="716.75" x2="618.46" y2="729.8"/><line class="cls-4" x1="644.12" y1="722.17" x2="622" y2="735.64"/><line class="cls-4" x1="648.48" y1="727.6" x2="625.9" y2="741.48"/><line class="cls-4" x1="650.91" y1="733.34" x2="629.33" y2="747.65"/><line class="cls-4" x1="654.87" y1="738.61" x2="634.19" y2="752.99"/><line class="cls-4" x1="659.19" y1="744.01" x2="639.12" y2="759.14"/><line class="cls-4" x1="663.71" y1="748.96" x2="643.63" y2="764.1"/><line class="cls-4" x1="669.23" y1="754.65" x2="649.16" y2="769.78"/><polygon class="cls-4" points="330.72 1088.19 241.29 1088.19 241.29 1148.69 261.7 1148.69 261.7 1193.92 330.61 1193.92 330.61 1148.69 330.72 1148.69 330.72 1088.19"/><polyline class="cls-4" points="1441.34 378.69 1475.18 378.69 1475.18 462.4"/><rect class="cls-4" x="1441.34" y="378.69" width="33.84" height="37.68"/></g><g id="Layer_409"><rect class="cls-2" x="355.34" y="1088.19" width="95.26" height="58.9"/><text class="cls-10" transform="translate(378.1 1123.07)"><tspan x="0" y="0">409</tspan></text></g><g id="Layer_408"><polygon class="cls-2" points="450.36 1056.05 450.36 1032.05 377.01 1032.05 377.01 1056.05 355.34 1056.05 355.34 1088.19 450.59 1088.19 450.59 1056.05 450.36 1056.05"/><text class="cls-10" transform="translate(378.75 1070.21)"><tspan x="0" y="0">408</tspan></text></g><g id="Layer_407"><rect class="cls-2" x="355.34" y="972.34" width="95.02" height="59.71"/><text class="cls-10" transform="translate(379.83 1009.33)"><tspan x="0" y="0">407</tspan></text></g><g id="Layer_406"><rect class="cls-2" x="355.46" y="912.63" width="95.02" height="59.71"/><text class="cls-10" transform="translate(378.95 949.62)"><tspan x="0" y="0">406</tspan></text></g><g id="Layer_405"><polygon class="cls-2" points="355.46 848.01 355.46 880.32 379.33 880.32 379.33 912.63 450.48 912.63 450.48 880.32 450.48 848.01 355.46 848.01"/><text class="cls-10" transform="translate(391 886.77)"><tspan x="0" y="0">405</tspan></text></g><g id="Layer_404"><polygon class="cls-2" points="355.46 848.01 355.46 818.38 379.33 818.38 379.33 788.75 450.48 788.75 450.48 818.38 450.48 848.01 355.46 848.01"/><text class="cls-10" transform="translate(390.48 826.55)"><tspan x="0" y="0">404</tspan></text></g><g id="Layer_403"><rect class="cls-2" x="355.46" y="734.34" width="95.02" height="54.41"/><text class="cls-10" transform="translate(378.83 767.85)"><tspan x="0" y="0">403</tspan></text></g><g id="Layer_402"><rect class="cls-2" x="355.34" y="679.93" width="95.02" height="54.41"/><text class="cls-10" transform="translate(378.96 713.44)"><tspan x="0" y="0">402</tspan></text></g><g id="Layer_401"><polygon class="cls-2" points="355.46 608.41 355.46 643.46 377.24 643.46 377.24 679.93 450.48 679.93 450.48 643.46 450.48 608.41 355.46 608.41"/><text class="cls-10" transform="translate(390.52 650.77)"><tspan x="0" y="0">401</tspan></text></g><g id="Layer_411"><polygon class="cls-2" points="241.51 1056.05 241.51 1032.05 310.37 1032.05 310.37 1056.05 330.72 1056.05 330.72 1088.19 241.29 1088.19 241.29 1056.05 241.51 1056.05"/><text class="cls-10" transform="translate(262.3 1070.21)"><tspan class="cls-8" x="0" y="0">4</tspan><tspan class="cls-12" x="15.31" y="0">11</tspan></text></g><g id="Layer_412"><rect class="cls-2" x="241.4" y="972.34" width="89.21" height="59.71"/><text class="cls-10" transform="translate(265.08 1007.91)"><tspan class="cls-8" x="0" y="0">4</tspan><tspan class="cls-12" x="15.31" y="0">12</tspan></text></g><g id="Layer_413"><rect class="cls-2" x="241.4" y="912.63" width="89.21" height="59.71"/><text class="cls-10" transform="translate(264.83 948.2)"><tspan class="cls-8" x="0" y="0">4</tspan><tspan class="cls-12" x="15.31" y="0">13</tspan></text></g><g id="Layer_414"><polygon class="cls-2" points="330.61 848.01 330.61 880.32 308.19 880.32 308.19 912.63 241.4 912.63 241.4 880.32 241.4 848.01 330.61 848.01"/><text class="cls-10" transform="translate(255.71 886.77)"><tspan class="cls-8" x="0" y="0">4</tspan><tspan class="cls-12" x="15.31" y="0">14</tspan></text></g><g id="Layer_415"><polygon class="cls-2" points="330.61 848.01 330.61 818.38 308.19 818.38 308.19 788.75 241.4 788.75 241.4 818.38 241.4 848.01 330.61 848.01"/><text class="cls-10" transform="translate(255.35 829.22)"><tspan class="cls-8" x="0" y="0">4</tspan><tspan class="cls-12" x="15.31" y="0">15</tspan></text></g><g id="Layer_416"><rect class="cls-2" x="241.4" y="734.34" width="89.21" height="54.41"/><text class="cls-10" transform="translate(263.3 767.85)"><tspan class="cls-8" x="0" y="0">4</tspan><tspan class="cls-12" x="15.31" y="0">16</tspan></text></g><g id="Layer_417"><rect class="cls-2" x="241.4" y="679.93" width="89.21" height="54.41"/><text class="cls-10" transform="translate(264.29 713.44)"><tspan class="cls-8" x="0" y="0">4</tspan><tspan class="cls-12" x="15.31" y="0">17</tspan></text></g><g id="Layer_418"><polygon class="cls-2" points="330.61 608.41 330.61 643.46 310.16 643.46 310.16 679.93 241.4 679.93 241.4 643.46 241.4 608.41 330.61 608.41"/><text class="cls-10" transform="translate(255.45 650.77)"><tspan class="cls-8" x="0" y="0">4</tspan><tspan class="cls-12" x="15.31" y="0">18</tspan></text></g><g id="Layer_419"><polygon class="cls-2" points="330.61 608.41 330.61 581.74 310.16 581.74 310.16 554 241.4 554 241.4 581.74 241.4 608.41 330.61 608.41"/><text class="cls-10" transform="translate(255.66 590.42)"><tspan class="cls-8" x="0" y="0">4</tspan><tspan class="cls-12" x="15.31" y="0">19</tspan></text></g><g id="Layer_420"><rect class="cls-2" x="241.4" y="501.72" width="89.21" height="52.28"/><text class="cls-10" transform="translate(260.77 533.38)"><tspan x="0" y="0">420</tspan></text></g><g id="Layer_421"><rect class="cls-2" x="241.47" y="455.68" width="89.21" height="52.28"/><text class="cls-10" transform="translate(263.4 487.34)"><tspan x="0" y="0">421</tspan></text></g><g id="Layer_422"><rect class="cls-2" x="241.47" y="379.71" width="89.21" height="75.97"/><text class="cls-10" transform="translate(261.36 425.14)"><tspan x="0" y="0">422</tspan></text></g><g id="Layer_423"><rect class="cls-2" x="241.47" y="276.34" width="65.08" height="103.37"/><text class="cls-10" transform="translate(250.51 332.49)"><tspan x="0" y="0">423</tspan></text></g><g id="Layer_424"><rect class="cls-2" x="306.55" y="276.34" width="56.09" height="88.54" transform="translate(669.2 641.22) rotate(180)"/><text class="cls-10" transform="translate(311.49 332.49)"><tspan x="0" y="0">4</tspan><tspan class="cls-9" x="15.75" y="0">2</tspan><tspan x="30.47" y="0">4</tspan></text></g><g id="Layer_425"><polygon class="cls-2" points="558.2 276.34 362.64 276.34 362.64 346.61 362.64 369.65 362.64 411.73 402.12 411.73 402.12 369.65 558.2 369.65 558.2 276.34"/><text class="cls-10" transform="translate(434.9 332.49)"><tspan x="0" y="0">425</tspan></text></g><g id="Layer_428"><rect class="cls-2" x="558.2" y="276.34" width="92.18" height="139.56"/><text class="cls-10" transform="translate(580.58 351.87)"><tspan x="0" y="0">428</tspan></text></g><g id="Layer_429"><rect class="cls-3" x="671.84" y="351.87" width="130.76" height="103.81"/><text class="cls-10" transform="translate(713.73 407.3)"><tspan x="0" y="0">429</tspan></text></g><g id="Layer_430"><rect class="cls-3" x="802.61" y="351.87" width="65.64" height="103.81" transform="translate(1670.85 807.55) rotate(180)"/><text class="cls-10" transform="translate(811.4 407.3)"><tspan x="0" y="0">430</tspan></text></g><g id="Layer_431"><rect class="cls-3" x="868.24" y="351.87" width="60.98" height="103.81"/><text class="cls-10" transform="translate(877.37 407.3)"><tspan x="0" y="0">4</tspan><tspan class="cls-13" x="15.75" y="0">3</tspan><tspan x="31.42" y="0">1</tspan></text></g><g id="Layer_432"><rect class="cls-2" x="929.23" y="351.87" width="244.69" height="181.51" transform="translate(2103.15 885.25) rotate(180)"/><text class="cls-10" transform="translate(1024.84 444.92)"><tspan x="0" y="0">432</tspan></text></g><g id="Layer_433"><rect class="cls-2" x="1173.92" y="351.87" width="267.42" height="181.51"/><text class="cls-10" transform="translate(1283.87 442.62)"><tspan x="0" y="0">433</tspan></text></g><g id="Layer_toilet1"><rect class="cls-4" x="424.9" y="369.68" width="43.48" height="75.24"/></g><g id="Layer_toilet2"><rect class="cls-4" x="468.38" y="369.68" width="51.5" height="75.24" transform="translate(988.25 814.6) rotate(180)"/><polyline class="cls-4" points="558.2 393.15 537.08 393.15 537.08 444.92"/><line class="cls-4" x1="520.65" y1="415.9" x2="537.08" y2="415.9"/></g><g id="Layer_toilet3"><rect class="cls-4" x="1475.18" y="452.87" width="91.21" height="29.91"/><rect class="cls-6" x="1475.18" y="482.79" width="91.21" height="46.56"/></g><g id="Layer_435"><path class="cls-4" d="m853.89,559.36c-51.44-66.18-131.42-92.33-188.17-58.05-52.02,31.43-68.17,103.75-43.82,174.37,26.21-20.17,57.2-41,93.23-60.36,49.75-26.73,97.23-44.29,138.77-55.97Z"/><text class="cls-10" transform="translate(685.64 542.78)"><tspan x="0" y="0">435</tspan></text><text class="cls-10" transform="translate(743.08 697.36)"><tspan x="0" y="0">436</tspan></text><text class="cls-11" transform="translate(649.56 567.43)"><tspan x="0" y="0">박현주 라운지</tspan></text></g><g id="Layer_436"><path class="cls-4" d="m853.89,559.36c-41.54,11.68-89.02,29.23-138.77,55.97-36.02,19.36-67.02,40.19-93.23,60.36,4.99,14.49,11.69,28.9,20.13,42.88,49.61,82.11,140.64,117.97,203.32,80.1s73.29-135.14,23.69-217.25c-4.7-7.78-9.77-15.13-15.15-22.06Z"/></g><g id="Layer_라운지"><text class="cls-10" transform="translate(635.2 836.99)"><tspan class="cls-8" x="0" y="0">L</tspan><tspan x="12.94" y="0">ounge</tspan></text></g></svg>