<?xml version="1.0" encoding="UTF-8"?><svg
  xmlns="http://www.w3.org/2000/svg"
  viewBox="0 0 1920 1080"
>
  <g id="Layer_border">
    <polygon
      points="869 827 869 808 273 808 273 430 705 430 705 136 1178 136 1178 430 1573 430 1573 808 1001 808 1001 827 869 827"
      fill="#fdf3f2"
    />
    <path
      d="m1173,141v294h395v368h-572v19h-122v-19H278v-368h432V141h463m10-10h-483v294h-432v388h596v19h142v-19h572v-388h-395V131h0Z"
      fill="#e18686"
    />
    <rect x="198" y="554" width="74" height="136" fill="#fdf3f2" />
    <path
      d="m267,559v126h-64v-126h64m10-10h-84v146h84v-146h0Z"
      fill="#e18686"
    />
    <rect x="1577.5" y="557.5" width="71" height="129" fill="#fdf3f2" />
    <path d="m1647,559v126h-68v-126h68m3-3h-74v132h74v-132h0Z" fill="#e18686" />
    <polygon
      points="845.5 858.5 845.5 808.5 867.5 808.5 867.5 831.5 1003.5 831.5 1003.5 808.5 1025.5 808.5 1025.5 858.5 845.5 858.5"
      fill="#fdf3f2"
    />
    <path
      d="m1024,810v47h-177v-47h19v23h139v-23h19m3-3h-25v23h-133v-23h-25v53h183v-53h0Z"
      fill="#e18686"
    />
  </g>
  <g id="Layer_others">
    <rect
      x="663.11"
      y="503.84"
      width="195.56"
      height="56.76"
      transform="translate(228.67 1293.11) rotate(-90)"
      fill="none"
      stroke="#e18686"
      stroke-miterlimit="10"
      stroke-width="3"
    />
    <line
      x1="732.51"
      y1="586.15"
      x2="789.27"
      y2="586.15"
      fill="none"
      stroke="#e18686"
      stroke-miterlimit="10"
      stroke-width="3"
    />
    <line
      x1="732.51"
      y1="570.68"
      x2="789.27"
      y2="570.68"
      fill="none"
      stroke="#e18686"
      stroke-miterlimit="10"
      stroke-width="3"
    />
    <line
      x1="732.51"
      y1="555.22"
      x2="789.27"
      y2="555.22"
      fill="none"
      stroke="#e18686"
      stroke-miterlimit="10"
      stroke-width="3"
    />
    <line
      x1="732.51"
      y1="539.76"
      x2="789.27"
      y2="539.76"
      fill="none"
      stroke="#e18686"
      stroke-miterlimit="10"
      stroke-width="3"
    />
    <line
      x1="732.51"
      y1="524.29"
      x2="789.27"
      y2="524.29"
      fill="none"
      stroke="#e18686"
      stroke-miterlimit="10"
      stroke-width="3"
    />
    <line
      x1="732.51"
      y1="508.83"
      x2="789.27"
      y2="508.83"
      fill="none"
      stroke="#e18686"
      stroke-miterlimit="10"
      stroke-width="3"
    />
    <line
      x1="732.51"
      y1="493.36"
      x2="789.27"
      y2="493.36"
      fill="none"
      stroke="#e18686"
      stroke-miterlimit="10"
      stroke-width="3"
    />
    <line
      x1="732.51"
      y1="477.9"
      x2="789.27"
      y2="477.9"
      fill="none"
      stroke="#e18686"
      stroke-miterlimit="10"
      stroke-width="3"
    />
    <line
      x1="732.51"
      y1="462.43"
      x2="789.27"
      y2="462.43"
      fill="none"
      stroke="#e18686"
      stroke-miterlimit="10"
      stroke-width="3"
    />
    <line
      x1="732.51"
      y1="446.97"
      x2="789.27"
      y2="446.97"
      fill="none"
      stroke="#e18686"
      stroke-miterlimit="10"
      stroke-width="3"
    />
    <rect
      x="789.5"
      y="493.5"
      width="93"
      height="137"
      fill="none"
      stroke="#e18686"
      stroke-miterlimit="10"
      stroke-width="3"
    />
    <rect
      x="789.5"
      y="493.5"
      width="93"
      height="34"
      fill="none"
      stroke="#e18686"
      stroke-miterlimit="10"
      stroke-width="3"
    />
    <rect
      x="792.89"
      y="550.62"
      width="102"
      height="56.76"
      transform="translate(264.89 1422.89) rotate(-90)"
      fill="none"
      stroke="#e18686"
      stroke-miterlimit="10"
      stroke-width="2.99"
    />
    <line
      x1="815.51"
      y1="607.13"
      x2="872.27"
      y2="607.13"
      fill="none"
      stroke="#e18686"
      stroke-miterlimit="10"
      stroke-width="2.99"
    />
    <line
      x1="815.51"
      y1="598.05"
      x2="872.27"
      y2="598.05"
      fill="none"
      stroke="#e18686"
      stroke-miterlimit="10"
      stroke-width="2.99"
    />
    <line
      x1="815.51"
      y1="588.98"
      x2="872.27"
      y2="588.98"
      fill="none"
      stroke="#e18686"
      stroke-miterlimit="10"
      stroke-width="2.99"
    />
    <line
      x1="815.51"
      y1="579.91"
      x2="872.27"
      y2="579.91"
      fill="none"
      stroke="#e18686"
      stroke-miterlimit="10"
      stroke-width="2.99"
    />
    <line
      x1="815.51"
      y1="570.83"
      x2="872.27"
      y2="570.83"
      fill="none"
      stroke="#e18686"
      stroke-miterlimit="10"
      stroke-width="2.99"
    />
    <line
      x1="815.51"
      y1="561.76"
      x2="872.27"
      y2="561.76"
      fill="none"
      stroke="#e18686"
      stroke-miterlimit="10"
      stroke-width="2.99"
    />
    <line
      x1="815.51"
      y1="552.68"
      x2="872.27"
      y2="552.68"
      fill="none"
      stroke="#e18686"
      stroke-miterlimit="10"
      stroke-width="2.99"
    />
    <line
      x1="815.51"
      y1="543.61"
      x2="872.27"
      y2="543.61"
      fill="none"
      stroke="#e18686"
      stroke-miterlimit="10"
      stroke-width="2.99"
    />
    <line
      x1="815.51"
      y1="534.54"
      x2="872.27"
      y2="534.54"
      fill="none"
      stroke="#e18686"
      stroke-miterlimit="10"
      stroke-width="2.99"
    />
    <rect
      x="984.5"
      y="499.5"
      width="49"
      height="138"
      fill="none"
      stroke="#e18686"
      stroke-miterlimit="10"
      stroke-width="3"
    />
    <rect
      x="992.5"
      y="550.5"
      width="29"
      height="29"
      fill="none"
      stroke="#e18686"
      stroke-miterlimit="10"
      stroke-width="3"
    />
    <rect
      x="992.5"
      y="590.5"
      width="29"
      height="29"
      fill="none"
      stroke="#e18686"
      stroke-miterlimit="10"
      stroke-width="3"
    />
    <rect
      x="170.31"
      y="588.69"
      width="127.92"
      height="66.55"
      transform="translate(856.24 387.69) rotate(90)"
      fill="none"
      stroke="#e18686"
      stroke-miterlimit="10"
      stroke-width="3"
    />
    <line
      x1="267.55"
      y1="569.21"
      x2="201"
      y2="569.21"
      fill="none"
      stroke="#e18686"
      stroke-miterlimit="10"
      stroke-width="3"
    />
    <line
      x1="267.55"
      y1="580.07"
      x2="201"
      y2="580.07"
      fill="none"
      stroke="#e18686"
      stroke-miterlimit="10"
      stroke-width="3"
    />
    <line
      x1="267.55"
      y1="590.92"
      x2="201"
      y2="590.92"
      fill="none"
      stroke="#e18686"
      stroke-miterlimit="10"
      stroke-width="3"
    />
    <line
      x1="267.55"
      y1="601.77"
      x2="201"
      y2="601.77"
      fill="none"
      stroke="#e18686"
      stroke-miterlimit="10"
      stroke-width="3"
    />
    <line
      x1="267.55"
      y1="612.62"
      x2="201"
      y2="612.62"
      fill="none"
      stroke="#e18686"
      stroke-miterlimit="10"
      stroke-width="3"
    />
    <line
      x1="267.55"
      y1="623.47"
      x2="201"
      y2="623.47"
      fill="none"
      stroke="#e18686"
      stroke-miterlimit="10"
      stroke-width="3"
    />
    <line
      x1="267.55"
      y1="634.32"
      x2="201"
      y2="634.32"
      fill="none"
      stroke="#e18686"
      stroke-miterlimit="10"
      stroke-width="3"
    />
    <line
      x1="267.55"
      y1="645.17"
      x2="201"
      y2="645.17"
      fill="none"
      stroke="#e18686"
      stroke-miterlimit="10"
      stroke-width="3"
    />
    <line
      x1="267.55"
      y1="656.02"
      x2="201"
      y2="656.02"
      fill="none"
      stroke="#e18686"
      stroke-miterlimit="10"
      stroke-width="3"
    />
    <line
      x1="267.55"
      y1="666.87"
      x2="201"
      y2="666.87"
      fill="none"
      stroke="#e18686"
      stroke-miterlimit="10"
      stroke-width="3"
    />
    <line
      x1="267.55"
      y1="677.73"
      x2="201"
      y2="677.73"
      fill="none"
      stroke="#e18686"
      stroke-miterlimit="10"
      stroke-width="3"
    />
    <rect
      x="1549.3"
      y="588.83"
      width="127.8"
      height="66.55"
      transform="translate(2235.3 -991.09) rotate(90)"
      fill="none"
      stroke="#e18686"
      stroke-miterlimit="10"
      stroke-width="3"
    />
    <line
      x1="1646.47"
      y1="569.41"
      x2="1579.92"
      y2="569.41"
      fill="none"
      stroke="#e18686"
      stroke-miterlimit="10"
      stroke-width="3"
    />
    <line
      x1="1646.47"
      y1="580.25"
      x2="1579.92"
      y2="580.25"
      fill="none"
      stroke="#e18686"
      stroke-miterlimit="10"
      stroke-width="3"
    />
    <line
      x1="1646.47"
      y1="591.09"
      x2="1579.92"
      y2="591.09"
      fill="none"
      stroke="#e18686"
      stroke-miterlimit="10"
      stroke-width="3"
    />
    <line
      x1="1646.47"
      y1="601.93"
      x2="1579.92"
      y2="601.93"
      fill="none"
      stroke="#e18686"
      stroke-miterlimit="10"
      stroke-width="3"
    />
    <line
      x1="1646.47"
      y1="612.77"
      x2="1579.92"
      y2="612.77"
      fill="none"
      stroke="#e18686"
      stroke-miterlimit="10"
      stroke-width="3"
    />
    <line
      x1="1646.47"
      y1="623.61"
      x2="1579.92"
      y2="623.61"
      fill="none"
      stroke="#e18686"
      stroke-miterlimit="10"
      stroke-width="3"
    />
    <line
      x1="1646.47"
      y1="634.45"
      x2="1579.92"
      y2="634.45"
      fill="none"
      stroke="#e18686"
      stroke-miterlimit="10"
      stroke-width="3"
    />
    <line
      x1="1646.47"
      y1="645.29"
      x2="1579.92"
      y2="645.29"
      fill="none"
      stroke="#e18686"
      stroke-miterlimit="10"
      stroke-width="3"
    />
    <line
      x1="1646.47"
      y1="656.13"
      x2="1579.92"
      y2="656.13"
      fill="none"
      stroke="#e18686"
      stroke-miterlimit="10"
      stroke-width="3"
    />
    <line
      x1="1646.47"
      y1="666.97"
      x2="1579.92"
      y2="666.97"
      fill="none"
      stroke="#e18686"
      stroke-miterlimit="10"
      stroke-width="3"
    />
    <line
      x1="1646.47"
      y1="677.81"
      x2="1579.92"
      y2="677.81"
      fill="none"
      stroke="#e18686"
      stroke-miterlimit="10"
      stroke-width="3"
    />
  </g>
  <g id="Layer_toilet1">
    <rect
      x="1154.5"
      y="499.5"
      width="62"
      height="138"
      fill="none"
      stroke="#e18686"
      stroke-miterlimit="10"
      stroke-width="3"
    />
    <rect
      x="1154.5"
      y="434.5"
      width="62"
      height="65"
      fill="none"
      stroke="#e18686"
      stroke-miterlimit="10"
      stroke-width="3"
    />
    <rect
      x="872.5"
      y="672.5"
      width="126"
      height="106"
      fill="none"
      stroke="#e18686"
      stroke-miterlimit="10"
      stroke-width="3"
    />
  </g>
  <g id="Layer_toilet2">
    <rect
      x="1033.5"
      y="499.5"
      width="121"
      height="138"
      transform="translate(2188 1137) rotate(180)"
      fill="none"
      stroke="#e18686"
      stroke-miterlimit="10"
      stroke-width="3"
    />
  </g>
  <g id="Layer_201">
    <rect
      x="709.5"
      y="140.5"
      width="230"
      height="294"
      fill="#f8cdce"
      stroke="#e18686"
      stroke-miterlimit="10"
      stroke-width="3"
    />
    <text
      transform="translate(802.9 294.61)"
      fill="#434142"
      font-family="NanumSquareNeovariable-Heavy, 'NanumSquare Neo variable'"
      font-size="22"
      font-variation-settings="'wght' 900"
      font-weight="800"
    >
      <tspan x="0" y="0">201</tspan>
    </text>
  </g>
  <g id="Layer_202">
    <rect
      x="939.5"
      y="140.5"
      width="233"
      height="294"
      transform="translate(2112 575) rotate(180)"
      fill="#f8cdce"
      stroke="#e18686"
      stroke-miterlimit="10"
      stroke-width="3"
    />
    <text
      transform="translate(1032.77 294.61)"
      fill="#434142"
      font-family="NanumSquareNeovariable-Heavy, 'NanumSquare Neo variable'"
      font-size="22"
      font-variation-settings="'wght' 900"
      font-weight="800"
    >
      <tspan x="0" y="0">202</tspan>
    </text>
  </g>
  <g id="Layer_203">
    <rect
      x="576.5"
      y="434.5"
      width="145"
      height="194"
      fill="#f8cdce"
      stroke="#e18686"
      stroke-miterlimit="10"
      stroke-width="3"
    />
    <text
      transform="translate(625.03 537.55)"
      fill="#434142"
      font-family="NanumSquareNeovariable-Heavy, 'NanumSquare Neo variable'"
      font-size="22"
      font-variation-settings="'wght' 900"
      font-weight="800"
    >
      <tspan x="0" y="0">203</tspan>
    </text>
  </g>
  <g id="Layer_204">
    <rect
      x="278.5"
      y="434.5"
      width="298"
      height="194"
      transform="translate(855 1063) rotate(180)"
      fill="#f8cdce"
      stroke="#e18686"
      stroke-miterlimit="10"
      stroke-width="3"
    />
    <text
      transform="translate(404.08 537.55)"
      fill="#434142"
      font-family="NanumSquareNeovariable-Heavy, 'NanumSquare Neo variable'"
      font-size="22"
      font-variation-settings="'wght' 900"
      font-weight="800"
    >
      <tspan x="0" y="0">204</tspan>
    </text>
  </g>
  <g id="Layer_205">
    <rect
      x="278.5"
      y="672.5"
      width="298"
      height="130"
      transform="translate(855 1475) rotate(180)"
      fill="#f8cdce"
      stroke="#e18686"
      stroke-miterlimit="10"
      stroke-width="3"
    />
    <text
      transform="translate(404.27 745.55)"
      fill="#434142"
      font-family="NanumSquareNeovariable-Heavy, 'NanumSquare Neo variable'"
      font-size="22"
      font-variation-settings="'wght' 900"
      font-weight="800"
    >
      <tspan x="0" y="0">205</tspan>
    </text>
  </g>
  <g id="Layer_206">
    <rect
      x="576.5"
      y="672.5"
      width="296"
      height="130"
      fill="#f8cdce"
      stroke="#e18686"
      stroke-miterlimit="10"
      stroke-width="3"
    />
    <text
      transform="translate(708.6 745.78)"
      fill="#434142"
      font-family="NanumSquareNeovariable-Heavy, 'NanumSquare Neo variable'"
      font-size="22"
      font-variation-settings="'wght' 900"
      font-weight="800"
    >
      <tspan x="0" y="0">206</tspan>
    </text>
  </g>
  <g id="Layer_207">
    <rect
      x="998.5"
      y="672.5"
      width="296"
      height="130"
      fill="#f8cdce"
      stroke="#e18686"
      stroke-miterlimit="10"
      stroke-width="3"
    />
    <text
      transform="translate(1131.59 745.78)"
      fill="#434142"
      font-family="NanumSquareNeovariable-Heavy, 'NanumSquare Neo variable'"
      font-size="22"
      font-variation-settings="'wght' 900"
      font-weight="800"
    >
      <tspan x="0" y="0">207</tspan>
    </text>
  </g>
  <g id="Layer_208">
    <rect
      x="1294.5"
      y="672.5"
      width="273"
      height="130"
      transform="translate(2862 1475) rotate(180)"
      fill="#f8cdce"
      stroke="#e18686"
      stroke-miterlimit="10"
      stroke-width="3"
    />
    <text
      transform="translate(1412.73 745.76)"
      fill="#434142"
      font-family="NanumSquareNeovariable-Heavy, 'NanumSquare Neo variable'"
      font-size="22"
      font-variation-settings="'wght' 900"
      font-weight="800"
    >
      <tspan x="0" y="0">208</tspan>
    </text>
  </g>
  <g id="Layer_209">
    <rect
      x="1295.5"
      y="432.5"
      width="273"
      height="204.5"
      transform="translate(2864 1069.5) rotate(180)"
      fill="#f8cdce"
      stroke="#e18686"
      stroke-miterlimit="10"
      stroke-width="3"
    />
    <text
      transform="translate(1413.94 541.76)"
      fill="#434142"
      font-family="NanumSquareNeovariable-Heavy, 'NanumSquare Neo variable'"
      font-size="22"
      font-variation-settings="'wght' 900"
      font-weight="800"
    >
      <tspan x="0" y="0">209</tspan>
    </text>
  </g>
  <g id="Layer_210">
    <rect
      x="1216.5"
      y="432.5"
      width="79"
      height="204.5"
      fill="#f8cdce"
      stroke="#e18686"
      stroke-miterlimit="10"
      stroke-width="3"
    />
    <text
      transform="translate(1234.21 541.76)"
      fill="#434142"
      font-family="NanumSquareNeovariable-Heavy, 'NanumSquare Neo variable'"
      font-size="22"
      font-variation-settings="'wght' 900"
      font-weight="800"
    >
      <tspan x="0" y="0">210</tspan>
    </text>
  </g>
</svg>
