<?xml version="1.0" encoding="UTF-8"?><svg xmlns="http://www.w3.org/2000/svg" viewBox="0 0 1470 1080"><g id="Layer_border"><polygon points="960 295 960 372.5 892.5 372.5 892.5 407.5 828.5 407.5 828.5 574.5 892.5 574.5 892.5 626.5 828.5 626.5 828.5 793.5 892.5 793.5 897.5 793.5 1089.5 793.5 1089.5 847.5 1155.5 847.5 1155.5 793.5 1222.5 793.5 1222.5 686 1290 686 1290 295 960 295" fill="#fdf3f2" stroke="#e18686" stroke-linecap="round" stroke-linejoin="round" stroke-width="5"/><rect x="166.5" y="497.5" width="338" height="271" fill="#fdf3f2" stroke="#e18686" stroke-linecap="round" stroke-linejoin="round" stroke-width="5"/><path d="m827.5,459.5h-67v269h-84l-3-510" fill="none" stroke="#e18686" stroke-linecap="round" stroke-linejoin="round" stroke-width="5"/><polyline points="627.05 218.96 627.05 498 503 498" fill="none" stroke="#e18686" stroke-linecap="round" stroke-linejoin="round" stroke-width="5"/><path d="m505,768.5h255.51v25.5" fill="none" stroke="#e18686" stroke-miterlimit="10" stroke-width="5"/></g><g id="Layer_others"><rect x="1048" y="502" width="176.9" height="47.19" fill="none" stroke="#e18686" stroke-miterlimit="10" stroke-width="2"/><line x1="1055.04" y1="502" x2="1055.04" y2="549.19" fill="none" stroke="#e18686" stroke-miterlimit="10" stroke-width="2"/><line x1="1064.62" y1="502" x2="1064.62" y2="549.19" fill="none" stroke="#e18686" stroke-miterlimit="10" stroke-width="2"/><line x1="1074.2" y1="502" x2="1074.2" y2="549.19" fill="none" stroke="#e18686" stroke-miterlimit="10" stroke-width="2"/><line x1="1083.77" y1="502" x2="1083.77" y2="549.19" fill="none" stroke="#e18686" stroke-miterlimit="10" stroke-width="2"/><line x1="1093.35" y1="502" x2="1093.35" y2="549.19" fill="none" stroke="#e18686" stroke-miterlimit="10" stroke-width="2"/><line x1="1102.93" y1="502" x2="1102.93" y2="549.19" fill="none" stroke="#e18686" stroke-miterlimit="10" stroke-width="2"/><line x1="1112.51" y1="502" x2="1112.51" y2="549.19" fill="none" stroke="#e18686" stroke-miterlimit="10" stroke-width="2"/><line x1="1122.08" y1="502" x2="1122.08" y2="549.19" fill="none" stroke="#e18686" stroke-miterlimit="10" stroke-width="2"/><line x1="1131.66" y1="502" x2="1131.66" y2="549.19" fill="none" stroke="#e18686" stroke-miterlimit="10" stroke-width="2"/><line x1="1141.24" y1="502" x2="1141.24" y2="549.19" fill="none" stroke="#e18686" stroke-miterlimit="10" stroke-width="2"/><line x1="1150.82" y1="502" x2="1150.82" y2="549.19" fill="none" stroke="#e18686" stroke-miterlimit="10" stroke-width="2"/><line x1="1160.39" y1="502" x2="1160.39" y2="549.19" fill="none" stroke="#e18686" stroke-miterlimit="10" stroke-width="2"/><line x1="1169.97" y1="502" x2="1169.97" y2="549.19" fill="none" stroke="#e18686" stroke-miterlimit="10" stroke-width="2"/><line x1="1179.55" y1="502" x2="1179.55" y2="549.19" fill="none" stroke="#e18686" stroke-miterlimit="10" stroke-width="2"/><line x1="1189.13" y1="502" x2="1189.13" y2="549.19" fill="none" stroke="#e18686" stroke-miterlimit="10" stroke-width="2"/><line x1="1198.7" y1="502" x2="1198.7" y2="549.19" fill="none" stroke="#e18686" stroke-miterlimit="10" stroke-width="2"/><line x1="1208.28" y1="502" x2="1208.28" y2="549.19" fill="none" stroke="#e18686" stroke-miterlimit="10" stroke-width="2"/><line x1="1217.86" y1="502" x2="1217.86" y2="549.19" fill="none" stroke="#e18686" stroke-miterlimit="10" stroke-width="2"/><rect x="715" y="795" width="169" height="56" fill="none" stroke="#e18686" stroke-miterlimit="10" stroke-width="1.98"/><line x1="723" y1="795" x2="723" y2="851" fill="none" stroke="#e18686" stroke-miterlimit="10" stroke-width="1.98"/><line x1="731" y1="795" x2="731" y2="851" fill="none" stroke="#e18686" stroke-miterlimit="10" stroke-width="1.98"/><line x1="739" y1="795" x2="739" y2="851" fill="none" stroke="#e18686" stroke-miterlimit="10" stroke-width="1.98"/><line x1="747" y1="795" x2="747" y2="851" fill="none" stroke="#e18686" stroke-miterlimit="10" stroke-width="1.98"/><line x1="755" y1="795" x2="755" y2="851" fill="none" stroke="#e18686" stroke-miterlimit="10" stroke-width="1.98"/><line x1="763" y1="851" x2="763" y2="795" fill="none" stroke="#e18686" stroke-miterlimit="10" stroke-width="1.98"/><line x1="771" y1="795" x2="771" y2="851" fill="none" stroke="#e18686" stroke-miterlimit="10" stroke-width="1.98"/><line x1="779" y1="795" x2="779" y2="851" fill="none" stroke="#e18686" stroke-miterlimit="10" stroke-width="1.98"/><line x1="821" y1="796" x2="821" y2="852" fill="none" stroke="#e18686" stroke-miterlimit="10" stroke-width="1.98"/><line x1="829" y1="796" x2="829" y2="852" fill="none" stroke="#e18686" stroke-miterlimit="10" stroke-width="1.98"/><line x1="837" y1="796" x2="837" y2="852" fill="none" stroke="#e18686" stroke-miterlimit="10" stroke-width="1.98"/><line x1="845" y1="796" x2="845" y2="852" fill="none" stroke="#e18686" stroke-miterlimit="10" stroke-width="1.98"/><line x1="853" y1="796" x2="853" y2="852" fill="none" stroke="#e18686" stroke-miterlimit="10" stroke-width="1.98"/><line x1="861" y1="796" x2="861" y2="852" fill="none" stroke="#e18686" stroke-miterlimit="10" stroke-width="1.98"/><line x1="869" y1="796" x2="869" y2="852" fill="none" stroke="#e18686" stroke-miterlimit="10" stroke-width="1.98"/><line x1="877" y1="796" x2="877" y2="852" fill="none" stroke="#e18686" stroke-miterlimit="10" stroke-width="1.98"/><line x1="707" y1="281" x2="707" y2="347" fill="none" stroke="#e18686" stroke-miterlimit="10" stroke-width="2"/><line x1="715" y1="279" x2="715" y2="347" fill="none" stroke="#e18686" stroke-miterlimit="10" stroke-width="2"/><line x1="723" y1="277" x2="723" y2="347" fill="none" stroke="#e18686" stroke-miterlimit="10" stroke-width="2"/><line x1="731" y1="275" x2="731" y2="347" fill="none" stroke="#e18686" stroke-miterlimit="10" stroke-width="2"/><line x1="739" y1="273" x2="739" y2="347" fill="none" stroke="#e18686" stroke-miterlimit="10" stroke-width="2"/><line x1="747" y1="272" x2="747" y2="347" fill="none" stroke="#e18686" stroke-miterlimit="10" stroke-width="2"/><line x1="755" y1="269" x2="755" y2="347" fill="none" stroke="#e18686" stroke-miterlimit="10" stroke-width="2"/><line x1="763" y1="267" x2="763" y2="347" fill="none" stroke="#e18686" stroke-miterlimit="10" stroke-width="2"/><line x1="811" y1="256.02" x2="811" y2="345" fill="none" stroke="#e18686" stroke-miterlimit="10" stroke-width="2"/><line x1="819" y1="254" x2="819" y2="345" fill="none" stroke="#e18686" stroke-miterlimit="10" stroke-width="2"/><line x1="827" y1="252" x2="827" y2="345" fill="none" stroke="#e18686" stroke-miterlimit="10" stroke-width="2"/><line x1="835" y1="249.5" x2="835" y2="345" fill="none" stroke="#e18686" stroke-miterlimit="10" stroke-width="2"/><line x1="843" y1="248.5" x2="843" y2="345" fill="none" stroke="#e18686" stroke-miterlimit="10" stroke-width="2"/><line x1="851" y1="246.5" x2="851" y2="345" fill="none" stroke="#e18686" stroke-miterlimit="10" stroke-width="2"/><line x1="859" y1="244.5" x2="859" y2="345" fill="none" stroke="#e18686" stroke-miterlimit="10" stroke-width="2"/><line x1="867" y1="242.5" x2="867" y2="345" fill="none" stroke="#e18686" stroke-miterlimit="10" stroke-width="2"/><path d="m698,283c59.67-14.33,119.33-28.67,179-43-.33,35.33-.67,70.67-1,106h-178v-63Z" fill="none" stroke="#e18686" stroke-miterlimit="10" stroke-width="1.98"/><rect x="1222" y="686" width="78" height="73" fill="none" stroke="#e18686" stroke-miterlimit="10" stroke-width="2"/><line x1="439" y1="702" x2="439" y2="768" fill="none" stroke="#e18686" stroke-miterlimit="10" stroke-width="2"/><line x1="447" y1="702" x2="447" y2="768" fill="none" stroke="#e18686" stroke-miterlimit="10" stroke-width="2"/><line x1="455" y1="702" x2="455" y2="768" fill="none" stroke="#e18686" stroke-miterlimit="10" stroke-width="2"/><line x1="463" y1="702" x2="463" y2="768" fill="none" stroke="#e18686" stroke-miterlimit="10" stroke-width="2"/><line x1="471" y1="702" x2="471" y2="768" fill="none" stroke="#e18686" stroke-miterlimit="10" stroke-width="2"/><line x1="479" y1="702" x2="479" y2="768" fill="none" stroke="#e18686" stroke-miterlimit="10" stroke-width="2"/><line x1="487" y1="702" x2="487" y2="768" fill="none" stroke="#e18686" stroke-miterlimit="10" stroke-width="2"/><line x1="495" y1="702" x2="495" y2="768" fill="none" stroke="#e18686" stroke-miterlimit="10" stroke-width="2"/><line x1="375" y1="702" x2="375" y2="768" fill="none" stroke="#e18686" stroke-miterlimit="10" stroke-width="2"/><line x1="383" y1="702" x2="383" y2="768" fill="none" stroke="#e18686" stroke-miterlimit="10" stroke-width="2"/><line x1="391" y1="702" x2="391" y2="768" fill="none" stroke="#e18686" stroke-miterlimit="10" stroke-width="2"/><line x1="399" y1="702" x2="399" y2="768" fill="none" stroke="#e18686" stroke-miterlimit="10" stroke-width="2"/><line x1="407" y1="702" x2="407" y2="768" fill="none" stroke="#e18686" stroke-miterlimit="10" stroke-width="2"/><line x1="415" y1="702" x2="415" y2="768" fill="none" stroke="#e18686" stroke-miterlimit="10" stroke-width="2"/><line x1="423" y1="702" x2="423" y2="768" fill="none" stroke="#e18686" stroke-miterlimit="10" stroke-width="2"/><line x1="431" y1="702" x2="431" y2="768" fill="none" stroke="#e18686" stroke-miterlimit="10" stroke-width="2"/></g><g id="Layer_toilet1"><rect x="1225" y="518" width="64" height="108" fill="none" stroke="#e18686" stroke-miterlimit="10" stroke-width="2"/></g><g id="Layer_toilet2"><rect x="1225" y="626" width="64" height="59" fill="none" stroke="#e18686" stroke-miterlimit="10" stroke-width="2"/></g><g id="Layer_S207"><rect x="1091" y="684" width="64" height="162" fill="#f8cdce" stroke="#e18686" stroke-miterlimit="10" stroke-width="2"/><text transform="translate(1092 767.85)" fill="#434142" font-family="NanumSquareNeovariable-Heavy, &apos;NanumSquare Neo variable&apos;" font-size="22" font-variation-settings="&apos;wght&apos; 900" font-weight="800"><tspan x="0" y="0">S207</tspan></text></g><g id="Layer_S206"><rect x="959" y="630" width="64" height="162" fill="#f8cdce" stroke="#e18686" stroke-miterlimit="10" stroke-width="2"/><text transform="translate(959.01 713.85)" fill="#434142" font-family="NanumSquareNeovariable-Heavy, &apos;NanumSquare Neo variable&apos;" font-size="22" font-variation-settings="&apos;wght&apos; 900" font-weight="800"><tspan x="0" y="0">S206</tspan></text></g><g id="Layer_S205"><rect x="829" y="628" width="64" height="163" fill="#f8cdce" stroke="#e18686" stroke-miterlimit="10" stroke-width="2.01"/><text transform="translate(829.25 712.85)" fill="#434142" font-family="NanumSquareNeovariable-Heavy, &apos;NanumSquare Neo variable&apos;" font-size="22" font-variation-settings="&apos;wght&apos; 900" font-weight="800"><tspan x="0" y="0">S205</tspan></text></g><g id="Layer_S201"><rect x="829" y="410" width="64" height="163" fill="#f8cdce" stroke="#e18686" stroke-miterlimit="10" stroke-width="2"/><text transform="translate(831.28 494.85)" fill="#434142" font-family="NanumSquareNeovariable-Heavy, &apos;NanumSquare Neo variable&apos;" font-size="22" font-variation-settings="&apos;wght&apos; 900" font-weight="800"><tspan x="0" y="0">S201</tspan></text></g><g id="Layer_S202"><rect x="962" y="298" width="64" height="163" fill="#f8cdce" stroke="#e18686" stroke-miterlimit="10" stroke-width="2.01"/><text transform="translate(962.25 382.85)" fill="#434142" font-family="NanumSquareNeovariable-Heavy, &apos;NanumSquare Neo variable&apos;" font-size="22" font-variation-settings="&apos;wght&apos; 900" font-weight="800"><tspan x="0" y="0">S202</tspan></text></g><g id="Layer_S203"><rect x="1094" y="298" width="64" height="163" fill="#f8cdce" stroke="#e18686" stroke-miterlimit="10" stroke-width="2.01"/><text transform="translate(1094 382.85)" fill="#434142" font-family="NanumSquareNeovariable-Heavy, &apos;NanumSquare Neo variable&apos;" font-size="22" font-variation-settings="&apos;wght&apos; 900" font-weight="800"><tspan x="0" y="0">S203</tspan></text></g><g id="Layer_S204"><rect x="1224" y="298" width="64" height="163" fill="#f8cdce" stroke="#e18686" stroke-miterlimit="10" stroke-width="2.01"/><text transform="translate(1224.06 382.85)" fill="#434142" font-family="NanumSquareNeovariable-Heavy, &apos;NanumSquare Neo variable&apos;" font-size="22" font-variation-settings="&apos;wght&apos; 900" font-weight="800"><tspan x="0" y="0">S204</tspan></text></g><g id="Layer_A201"><rect x="167" y="498" width="336" height="204" fill="#f8cdce" stroke="#e18686" stroke-miterlimit="10" stroke-width="2"/><text transform="translate(304.74 592.95)" fill="#434142" font-family="NanumSquareNeovariable-Heavy, &apos;NanumSquare Neo variable&apos;" font-size="22" font-variation-settings="&apos;wght&apos; 900" font-weight="800"><tspan x="0" y="0">A201</tspan></text><text transform="translate(228.59 618.95)" fill="#434142" font-family="NanumSquareNeovariable-Regular, &apos;NanumSquare Neo variable&apos;" font-size="20" font-variation-settings="&apos;wght&apos; 300"><tspan x="0" y="0">VR STUDIO 창업지원팀</tspan></text><rect x="167" y="702" width="84" height="65" fill="#f8cdce" stroke="#e18686" stroke-miterlimit="10" stroke-width="2.03"/><text transform="translate(173.93 736.69)" fill="#434142" font-family="NanumSquareNeovariable-Heavy, &apos;NanumSquare Neo variable&apos;" font-size="20" font-variation-settings="&apos;wght&apos; 900" font-weight="800"><tspan x="0" y="0" letter-spacing="-.03em">A</tspan><tspan x="15.36" y="0">U201</tspan></text></g><g id="Layer_toilet3"><rect x="251" y="702" width="84" height="65" transform="translate(586 1469) rotate(180)" fill="none" stroke="#e18686" stroke-miterlimit="10" stroke-width="2.03"/></g></svg>