<?xml version="1.0" encoding="UTF-8"?>
<svg id="Layer_1" data-name="Layer 1" xmlns="http://www.w3.org/2000/svg" version="1.1" viewBox="0 0 1000 1000">
  <defs>
    <style>
      .cls-1, .cls-2, .cls-3, .cls-4, .cls-5, .cls-6, .cls-7, .cls-8, .cls-9 {
        stroke: #ea8b8b;
      }

      .cls-1, .cls-2, .cls-5, .cls-6, .cls-7, .cls-8, .cls-9 {
        stroke-miterlimit: 10;
      }

      .cls-1, .cls-5, .cls-7, .cls-8 {
        stroke-width: 3px;
      }

      .cls-1, .cls-8 {
        fill: #fed0d0;
      }

      .cls-2 {
        stroke-width: .2px;
      }

      .cls-2, .cls-3, .cls-4, .cls-5, .cls-6, .cls-7 {
        fill: none;
      }

      .cls-3 {
        stroke-miterlimit: 10;
        stroke-width: .5px;
      }

      .cls-4 {
        stroke-miterlimit: 10;
        stroke-width: .5px;
      }

      .cls-5, .cls-8, .cls-9 {
        isolation: isolate;
      }

      .cls-6 {
        stroke-width: .5px;
      }

      .cls-10 {
        font-size: 8px;
      }

      .cls-10, .cls-11 {
        fill: #000;
        font-family: NanumSquareNeoTTF-dEb, 'NanumSquare Neo';
      }

      .cls-9 {
        fill: #fef3f2;
        stroke-width: 8px;
      }

      .cls-11 {
        font-size: 10px;
      }
    </style>
  </defs>
  <g id="Layer_border">
    <polygon class="cls-9" points="119.1 255.2 119.1 742.1 841.5 742.1 841.5 544.4 373.2 544.4 373.2 255.2 119.1 255.2"/>
  </g>
  <g id="Layer_18" data-name="Layer 18">
    <rect class="cls-1" x="119.1" y="368.3" width="80.3" height="62.1"/>
    <text class="cls-11" transform="translate(148.5 399.4)"><tspan x="0" y="0">506</tspan><tspan x="-17.8" y="12">그룹스터디룸</tspan></text>
  </g>
  <g id="Layer_20" data-name="Layer 20">
    <rect class="cls-1" x="119.1" y="430.4" width="51.3" height="35.2"/>
    <text class="cls-10" transform="translate(136.1 445.7)"><tspan x="0" y="0">507</tspan><tspan x="-14.5" y="9.6">그룹스터디룸</tspan></text>
  </g>
  <g id="Layer_21" data-name="Layer 21">
    <rect class="cls-1" x="119.1" y="465.7" width="51.3" height="33.8"/>
    <text class="cls-10" transform="translate(136.1 482.6)"><tspan x="0" y="0">508</tspan><tspan x="-14.1" y="9.6">그룹스터디룸</tspan></text>
  </g>
  <g id="Layer_22" data-name="Layer 22">
    <rect class="cls-5" x="296.9" y="544.4" width="76.3" height="37.4"/>
  </g>
  <g id="Layer_23" data-name="Layer 23">
    <rect class="cls-5" x="296.9" y="581.8" width="76.3" height="34.4"/>
  </g>
  <g id="Layer_24" data-name="Layer 24">
    <rect class="cls-1" x="119.1" y="499.5" width="51.3" height="34.3"/>
    <text class="cls-10" transform="translate(136.2 516.6)"><tspan x="0" y="0">509</tspan><tspan x="-14.2" y="9.6">그룹스터디룸</tspan></text>
  </g>
  <g id="Layer_25" data-name="Layer 25">
    <rect class="cls-1" x="119.1" y="533.8" width="51.3" height="35"/>
    <text class="cls-10" transform="translate(137 549.5)"><tspan x="0" y="0">510</tspan><tspan x="-15.1" y="9.6">그룹스터디룸</tspan></text>
  </g>
  <g id="Layer_26" data-name="Layer 26">
    <rect class="cls-1" x="119.1" y="569.3" width="80.3" height="68.1"/>
    <text class="cls-11" transform="translate(148.3 603.1)"><tspan x="0" y="0">511</tspan><tspan x="-20" y="12">그룹스터디룸</tspan></text>
  </g>
  <g id="Layer_27" data-name="Layer 27">
    <rect class="cls-7" x="804.8" y="641.2" width="36.7" height="100.9"/>
  </g>
  <g id="Layer_28" data-name="Layer 28">
    <rect class="cls-5" x="763.7" y="641.2" width="41.1" height="100.9"/>
  </g>
  <g id="Layer_29" data-name="Layer 29">
    <polygon class="cls-1" points="119.1 742.1 234.1 742.1 234.1 616.2 199.4 616.2 199.4 637.3 119.1 637.3 119.1 742.1"/>
    <text class="cls-11" transform="translate(164.9 686.7)"><tspan x="0" y="0">512</tspan></text>
  </g>
  <g id="Layer_30" data-name="Layer 30">
    <polygon class="cls-1" points="338.5 742.1 338.5 637.3 282.8 637.3 282.8 616.2 234.1 616.2 234.1 742.1 338.5 742.1"/>
    <text class="cls-11" transform="translate(276.8 686.7)"><tspan x="0" y="0">513</tspan></text>
  </g>
  <g id="Layer_31" data-name="Layer 31">
    <rect class="cls-1" x="338.5" y="637.3" width="41.9" height="104.8"/>
    <text class="cls-11" transform="translate(349.9 681.5)"><tspan x="0" y="0">514</tspan><tspan x="0" y="12">그룹</tspan><tspan x="-9.5" y="24">스터디룸</tspan></text>
  </g>
  <g id="Layer_32" data-name="Layer 32">
    <rect class="cls-1" x="380.4" y="637.3" width="70.8" height="104.8"/>
    <text class="cls-11" transform="translate(406.4 681.5)"><tspan x="0" y="0">515</tspan><tspan x="0" y="12">그룹</tspan><tspan x="-9.6" y="24">스터디룸</tspan></text>
  </g>
  <g id="Layer_33" data-name="Layer 33">
    <rect class="cls-1" x="451.2" y="637.3" width="68.4" height="104.8"/>
    <text class="cls-11" transform="translate(475.9 681.5)"><tspan x="0" y="0">516</tspan><tspan x="0" y="12">그룹</tspan><tspan x="-9.5" y="24">스터디룸</tspan></text>
  </g>
  <g id="Layer_34" data-name="Layer 34">
    <rect class="cls-1" x="519.6" y="637.3" width="147.4" height="104.8"/>
    <text class="cls-11" transform="translate(582.5 686)"><tspan x="0" y="0">517</tspan><tspan x="-5.1" y="12">라운지</tspan></text>
  </g>
  <g id="Layer_35" data-name="Layer 35">
    <rect class="cls-1" x="667" y="637.3" width="96.7" height="104.8"/>
    <text class="cls-11" transform="translate(705.8 691.7)"><tspan x="0" y="0">518</tspan></text>
  </g>
  <g id="Layer_others">
    <rect class="cls-5" x="727.4" y="544.4" width="20.2" height="73"/>
    <rect class="cls-5" x="747.7" y="544.4" width="20" height="27.7"/>
    <rect class="cls-5" x="747.7" y="572.1" width="20" height="45.3"/>
    <rect class="cls-5" x="767.7" y="544.4" width="74.8" height="32.1"/>
    <rect class="cls-8" x="821.7" y="576.5" width="20.7" height="32.4"/>
    <rect class="cls-8" x="789.8" y="576.5" width="31.9" height="32.4"/>
    <g>
      <path class="cls-2" d="M842.5,576.2v.3M811.5,546v.3"/>
      <path class="cls-2" d="M811.5,546.8v29"/>
      <path class="cls-2" d="M811.5,576.2v.3M800.8,546v.3"/>
      <path class="cls-2" d="M800.8,546.8v29"/>
      <path class="cls-2" d="M800.8,576.2v.3"/>
      <path class="cls-2" d="M838.7,576.5h-27.2"/>
      <path class="cls-2" d="M836.7,546h2M842.5,546h0"/>
      <path class="cls-2" d="M834.8,546h-23.3"/>
      <path class="cls-2" d="M800.8,576.5h-29.1"/>
      <path class="cls-2" d="M800.8,546h-29.1"/>
      <path class="cls-2" d="M836.7,546v.3"/>
      <path class="cls-2" d="M836.7,546.8v29"/>
      <path class="cls-2" d="M836.7,576.2v.3M834.8,546v.3"/>
      <path class="cls-2" d="M834.8,546.8v29"/>
      <path class="cls-2" d="M834.8,576.2v.3M832.8,546v.3"/>
      <path class="cls-2" d="M832.8,546.8v29"/>
      <path class="cls-2" d="M832.8,576.2v.3M830.9,546v.3"/>
      <path class="cls-2" d="M830.9,546.8v29"/>
      <path class="cls-2" d="M830.9,576.2v.3M828.9,546v.3"/>
      <path class="cls-2" d="M828.9,546.8v29"/>
      <path class="cls-2" d="M828.9,576.2v.3M827,546v.3"/>
      <path class="cls-2" d="M827,546.8v29"/>
      <path class="cls-2" d="M827,576.2v.3M825,546v.3"/>
      <path class="cls-2" d="M825,546.8v29"/>
      <path class="cls-2" d="M825,576.2v.3M823.1,546v.3"/>
      <path class="cls-2" d="M823.1,546.8v29"/>
      <path class="cls-2" d="M823.1,576.2v.3M821.1,546v.3"/>
      <path class="cls-2" d="M821.1,546.8v29"/>
      <path class="cls-2" d="M821.1,576.2v.3M819.3,546v.3"/>
      <path class="cls-2" d="M819.3,546.8v29"/>
      <path class="cls-2" d="M819.3,576.2v.3M817.3,546v.3"/>
      <path class="cls-2" d="M817.3,546.8v29"/>
      <path class="cls-2" d="M817.3,576.2v.3M815.4,546v.3"/>
      <path class="cls-2" d="M815.4,546.8v29"/>
      <path class="cls-2" d="M815.4,576.2v.3M813.4,546v.3"/>
      <path class="cls-2" d="M813.4,546.8v29"/>
      <path class="cls-2" d="M813.4,576.2v.3M811.5,546v.3"/>
      <path class="cls-2" d="M811.5,546.8v29"/>
      <path class="cls-2" d="M811.5,576.2v.3M800.8,546v.3"/>
      <path class="cls-2" d="M800.8,546.8v29"/>
      <path class="cls-2" d="M800.8,576.2v.3M798.8,546v.3"/>
      <path class="cls-2" d="M798.8,546.8v29"/>
      <path class="cls-2" d="M798.8,576.2v.3M796.9,546v.3"/>
      <path class="cls-2" d="M796.9,546.8v29"/>
      <path class="cls-2" d="M796.9,576.2v.3M794.9,546v.3"/>
      <path class="cls-2" d="M794.9,546.8v29"/>
      <path class="cls-2" d="M794.9,576.2v.3M793,546v.3"/>
      <path class="cls-2" d="M793,546.8v29"/>
      <path class="cls-2" d="M793,576.2v.3M791,546v.3"/>
      <path class="cls-2" d="M791,546.8v29"/>
      <path class="cls-2" d="M791,576.2v.3M789.1,546v.3"/>
      <path class="cls-2" d="M789.1,546.8v29"/>
      <path class="cls-2" d="M789.1,576.2v.3M787.1,546v.3"/>
      <path class="cls-2" d="M787.1,546.8v29"/>
      <path class="cls-2" d="M787.1,576.2v.3M785.2,546v.3"/>
      <path class="cls-2" d="M785.2,546.8v29"/>
      <path class="cls-2" d="M785.2,576.2v.3M783.3,546v.3"/>
      <path class="cls-2" d="M783.3,546.8v29"/>
      <path class="cls-2" d="M783.3,576.2v.3M781.4,546v.3"/>
      <path class="cls-2" d="M781.4,546.8v29"/>
      <path class="cls-2" d="M781.4,576.2v.3M779.5,546v.3"/>
      <path class="cls-2" d="M779.5,546.8v29"/>
      <path class="cls-2" d="M779.5,576.2v.3M777.5,546v.3"/>
      <path class="cls-2" d="M777.5,546.8v29"/>
      <path class="cls-2" d="M777.5,576.2v.3M775.6,546v.3"/>
      <path class="cls-2" d="M775.6,546.8v29"/>
      <path class="cls-2" d="M775.6,576.2v.3M773.6,546v.3"/>
      <path class="cls-2" d="M773.6,546.8v29"/>
      <path class="cls-2" d="M773.6,576.2v.3M836.7,546v.3"/>
      <path class="cls-2" d="M836.7,546.8v29"/>
      <path class="cls-2" d="M836.7,576.2v.3M834.8,546v.3"/>
      <path class="cls-2" d="M834.8,546.8v29"/>
      <path class="cls-2" d="M834.8,576.2v.3M832.8,546v.3"/>
      <path class="cls-2" d="M832.8,546.8v29"/>
      <path class="cls-2" d="M832.8,576.2v.3M830.9,546v.3"/>
      <path class="cls-2" d="M830.9,546.8v29"/>
      <path class="cls-2" d="M830.9,576.2v.3M828.9,546v.3"/>
      <path class="cls-2" d="M828.9,546.8v29"/>
      <path class="cls-2" d="M828.9,576.2v.3M827,546v.3"/>
      <path class="cls-2" d="M827,546.8v29"/>
      <path class="cls-2" d="M827,576.2v.3M825,546v.3"/>
      <path class="cls-2" d="M825,546.8v29"/>
      <path class="cls-2" d="M825,576.2v.3M823.1,546v.3"/>
      <path class="cls-2" d="M823.1,546.8v29"/>
      <path class="cls-2" d="M823.1,576.2v.3M821.1,546v.3"/>
      <path class="cls-2" d="M821.1,546.8v29"/>
      <path class="cls-2" d="M821.1,576.2v.3M819.3,546v.3"/>
      <path class="cls-2" d="M819.3,546.8v29"/>
      <path class="cls-2" d="M819.3,576.2v.3M817.3,546v.3"/>
      <path class="cls-2" d="M817.3,546.8v29"/>
      <path class="cls-2" d="M817.3,576.2v.3M815.4,546v.3"/>
      <path class="cls-2" d="M815.4,546.8v29"/>
      <path class="cls-2" d="M815.4,576.2v.3M813.4,546v.3"/>
      <path class="cls-2" d="M813.4,546.8v29"/>
      <path class="cls-2" d="M813.4,576.2v.3M798.8,546v.3"/>
      <path class="cls-2" d="M798.8,546.8v29"/>
      <path class="cls-2" d="M798.8,576.2v.3M796.9,546v.3"/>
      <path class="cls-2" d="M796.9,546.8v29"/>
      <path class="cls-2" d="M796.9,576.2v.3M794.9,546v.3"/>
      <path class="cls-2" d="M794.9,546.8v29"/>
      <path class="cls-2" d="M794.9,576.2v.3M793,546v.3"/>
      <path class="cls-2" d="M793,546.8v29"/>
      <path class="cls-2" d="M793,576.2v.3M791,546v.3"/>
      <path class="cls-2" d="M791,546.8v29"/>
      <path class="cls-2" d="M791,576.2v.3M789.1,546v.3"/>
      <path class="cls-2" d="M789.1,546.8v29"/>
      <path class="cls-2" d="M789.1,576.2v.3M787.1,546v.3"/>
      <path class="cls-2" d="M787.1,546.8v29"/>
      <path class="cls-2" d="M787.1,576.2v.3M785.2,546v.3"/>
      <path class="cls-2" d="M785.2,546.8v29"/>
      <path class="cls-2" d="M785.2,576.2v.3M783.3,546v.3"/>
      <path class="cls-2" d="M783.3,546.8v29"/>
      <path class="cls-2" d="M783.3,576.2v.3M781.4,546v.3"/>
      <path class="cls-2" d="M781.4,546.8v29"/>
      <path class="cls-2" d="M781.4,576.2v.3M779.5,546v.3"/>
      <path class="cls-2" d="M779.5,546.8v29"/>
      <path class="cls-2" d="M779.5,576.2v.3M777.5,546v.3"/>
      <path class="cls-2" d="M777.5,546.8v29"/>
      <path class="cls-2" d="M777.5,576.2v.3M775.6,546v.3"/>
      <path class="cls-2" d="M775.6,546.8v29"/>
      <path class="cls-2" d="M775.6,576.2v.3M773.6,546v.3"/>
      <path class="cls-2" d="M773.6,546.8v29"/>
      <path class="cls-2" d="M773.6,576.2v.3"/>
      <path class="cls-2" d="M842.5,576.2v-.3h-74.7v.3"/>
      <path class="cls-2" d="M842.5,576.2h-74.7"/>
      <path class="cls-2" d="M842.5,546.8v-.3h-74.7v.3"/>
      <path class="cls-2" d="M842.5,546.8h-74.7"/>
      <path class="cls-2" d="M769.3,563l-1.5-1.8,1.5-1.7"/>
      <path class="cls-2" d="M769.3,563l.3-.5M769.3,559.5l.3.5"/>
      <path class="cls-2" d="M769.6,562.5l-1.1-1.3,1.1-1.2"/>
      <path class="cls-2" d="M771.7,546v.3"/>
      <path class="cls-2" d="M771.7,546.8v29"/>
      <path class="cls-2" d="M771.7,576.2v.3M771.7,546v.3"/>
      <path class="cls-2" d="M771.7,546.8v29"/>
      <path class="cls-2" d="M771.7,576.2v.3M769.7,546v.3"/>
      <path class="cls-2" d="M769.7,546.8v29"/>
      <path class="cls-2" d="M769.7,576.2v.3M769.7,546v.3"/>
      <path class="cls-2" d="M769.7,546.8v29"/>
      <path class="cls-2" d="M769.7,576.2v.3M767.8,546v.3"/>
      <path class="cls-2" d="M767.8,546.8v29"/>
      <path class="cls-2" d="M767.8,576.2v.3M767.8,546v.3"/>
      <path class="cls-2" d="M767.8,546.8v29"/>
      <path class="cls-2" d="M767.8,576.2v.3M769.7,576.5h2M769.7,546h2M767.8,576.5h2M767.8,546h2M838.7,546v.3"/>
      <path class="cls-2" d="M838.7,546.8v29"/>
      <path class="cls-2" d="M838.7,576.2v.3M838.7,546v.3"/>
      <path class="cls-2" d="M838.7,546.8v29"/>
      <path class="cls-2" d="M838.7,546h2v.3"/>
      <path class="cls-2" d="M840.6,546.8v29"/>
      <path class="cls-2" d="M840.6,576.2v.3M840.6,546v.3"/>
      <path class="cls-2" d="M840.6,546.8v29"/>
      <path class="cls-2" d="M840.6,576.2v.3h1.8"/>
      <path class="cls-2" d="M767.8,546.6h0"/>
      <path class="cls-2" d="M767.8,546.6h0"/>
      <path class="cls-2" d="M767.8,575.9h0"/>
      <path class="cls-2" d="M767.8,575.9h0"/>
    </g>
    <rect class="cls-8" x="296.9" y="519.6" width="76.3" height="24.8"/>
    <g>
      <polyline class="cls-6" points="243.8 454.6 241.4 478.2 216.7 475.5 215.6 480 204.6 478.8 205.2 477.2 205.2 476.9 206.9 470.5 206.9 470.2 211.7 451.3 243.8 454.6 241.4 478.2"/>
      <polyline class="cls-6" points="243.8 454.6 276 458 276.2 477.4 276.2 477.7 276.2 478 276.3 483.9 276.3 484.4 276.3 486.2 275.9 486.2 265.6 485.2 265.5 480.6 241.4 478.2"/>
      <polyline class="cls-6" points="231.3 408.5 231.1 411.1 231.3 408.5 231.1 411.1"/>
      <path class="cls-6" d="M228.7,408.2l-.2,2.6.2-2.6Z"/>
      <line class="cls-6" x1="226" y1="407.9" x2="225.8" y2="410.6"/>
      <rect class="cls-4" x="231.2" y="408.6" width="2.7" height="2.7" transform="translate(-197.5 602.8) rotate(-84.6)"/>
      <rect class="cls-4" x="228.5" y="408.3" width="2.7" height="2.7" transform="translate(-199.6 600) rotate(-84.6)"/>
      <polygon class="cls-6" points="228.7 408.2 226 407.9 225.8 410.6 228.4 410.9 228.7 408.2"/>
      <polygon class="cls-6" points="226 407.9 223.4 407.6 223.1 410.3 225.8 410.6 226 407.9"/>
      <polyline class="cls-6" points="216.3 479.4 216.5 479.5 216.5 480.5"/>
      <line class="cls-6" x1="205.9" y1="477" x2="205.6" y2="478.4"/>
      <line class="cls-6" x1="216.5" y1="479.5" x2="216.2" y2="479.6"/>
      <path class="cls-6" d="M244.2,455.3l-2.3,22.3M243.8,454.6l-2.4,23.6"/>
      <path class="cls-6" d="M244.1,455l-2.4,22.9M244.2,455.2l-2.4,22.6M243.5,455l-2.4,22.7M243.4,455.2l-2.4,22.5M265,484.6v.8M265.1,484.8v.6"/>
      <polyline class="cls-6" points="215.4 479.6 216.4 475.1 241 477.6"/>
      <polyline class="cls-6" points="215.5 479.6 216.6 475.2 265.8 480.3 265.8 484.9"/>
      <polyline class="cls-6" points="216.1 479.7 217 475.9 265.2 480.9 265.3 484.8"/>
      <polyline class="cls-6" points="216.2 479.6 217.1 476.1 265.1 481 265.1 484.6"/>
      <polyline class="cls-6" points="241.8 477.8 265.9 480.3 266 484.7"/>
      <path class="cls-6" d="M270.3,484.6h.8M270.3,484.7h.8"/>
      <line class="cls-6" x1="270.1" y1="484.4" x2="270.3" y2="484.6"/>
      <polyline class="cls-6" points="270 484.4 270 484.6 270.3 484.7"/>
      <line class="cls-6" x1="271.1" y1="484.7" x2="271.1" y2="484.5"/>
      <path class="cls-6" d="M276.1,483.9v-6c0,0,0,6,0,6Z"/>
      <path class="cls-6" d="M211,478.6l-.7-.3M211,478.8l-.8-.3"/>
      <path class="cls-6" d="M211.6,478.4h-.4c0-.1.4,0,.4,0Z"/>
      <polyline class="cls-6" points="211.2 478.2 211.6 478.2 211.6 478.4"/>
      <path class="cls-6" d="M211.2,478.2h0M211.6,478.4h0M210.2,478.5h0M211.2,478.2h0M211.3,478.5v-.3M211.4,478.5h0"/>
      <polyline class="cls-6" points="211 478.6 211.2 478.5 211.3 478.5"/>
      <polyline class="cls-6" points="211 478.8 211.3 478.8 211.4 478.5"/>
      <polyline class="cls-6" points="210.3 478.4 210.2 478.4 210.2 478.5"/>
      <path class="cls-6" d="M211.7,477.8h-.4c0-.1.4,0,.4,0Z"/>
      <polyline class="cls-6" points="211.3 477.8 211.7 477.9 211.7 477.8"/>
      <polyline class="cls-6" points="211.4 477.5 211.4 477.4 211.3 477.4"/>
      <path class="cls-6" d="M205.6,476.6l1.5-5.7-1.5,5.7Z"/>
      <line class="cls-6" x1="264.6" y1="485.5" x2="264.9" y2="485.6"/>
      <polyline class="cls-6" points="254.9 500.6 254.2 501.3 255.9 503 257.8 504.2 259.9 505.1 262.1 505.7 264.5 505.6 266.9 505.3 269.1 504.5 271 503.4 272.8 501.8 274.2 499.8 275.3 497.7 276 495.5 275 495.4"/>
      <polyline class="cls-6" points="254.9 500.6 256.7 502.5 258.9 503.8 261.4 504.6 264 504.8 266.6 504.5 269.1 503.5 271.2 502.1 273 500.1 274.3 497.9 275 495.4"/>
      <polyline class="cls-6" points="203.8 488.2 204.1 490.7 204.8 493.2 206.1 495.3 207.9 497 210 498.4 212.4 499.4 214.9 499.6 217.4 499.3 219.9 498.5 221.9 497.2"/>
      <polyline class="cls-6" points="203.8 488.2 202.9 488.2 203.1 490.4 203.7 492.6 204.6 494.7 205.9 496.5 207.6 498 209.6 499.3 211.7 500.1 213.9 500.5 216.3 500.5 218.5 500 220.6 499.1 222.5 497.9 221.9 497.2"/>
      <path class="cls-6" d="M243.2,455.2l-2.3,22.5M264.9,484.5v1.1"/>
      <polyline class="cls-6" points="241.9 478.2 265.5 480.6 265.5 484.6"/>
      <polyline class="cls-6" points="241.9 477.6 266.1 480.1 266.1 484.6"/>
      <polyline class="cls-6" points="215.2 479.4 216.4 475 241 477.6"/>
      <polyline class="cls-6" points="216.3 479.4 217.1 476.1 265 481.1 265 484.5"/>
      <path class="cls-6" d="M276.8,495.6h-.8M212.3,452l30.9,3.1M244.2,455.3l31.2,3.3M212.7,450.8l64,6.7"/>
      <polyline class="cls-6" points="254.2 501.3 255.9 503 257.7 504.2 259.9 505.1 262.1 505.7 264.5 505.6 266.9 505.3 269.1 504.5 271 503.4 272.8 501.8 274.2 499.8 275.3 497.7 276 495.5"/>
      <polyline class="cls-6" points="254.2 501.3 251.2 498.8 248 496.9 244.5 495.4 240.7 494.5 237 494.1 233.2 494.3 229.4 494.9 225.8 496.2 222.5 497.9"/>
      <polyline class="cls-6" points="202.9 488.2 203.1 490.4 203.7 492.6 204.6 494.7 205.9 496.5 207.6 498 209.6 499.3 211.7 500.1 213.9 500.5 216.3 500.5 218.5 500 220.6 499.1 222.5 497.9"/>
      <polyline class="cls-6" points="202.9 488.2 201.9 488.2 202.1 490.6 202.8 492.9 203.8 495.1 205.4 497.1 207.1 498.7 209.2 500 211.4 500.9 213.9 501.3 216.3 501.3 218.6 500.8 220.9 500 222.9 498.6"/>
      <polyline class="cls-6" points="253.5 501.9 250.7 499.5 247.4 497.6 244.1 496.2 240.6 495.3 237 494.9 233.4 495.1 229.7 495.7 226.3 497 222.9 498.6"/>
      <polyline class="cls-6" points="253.5 501.9 255.3 503.7 257.4 505 259.6 506 262.2 506.5 264.7 506.6 267.2 506.2 269.4 505.3 271.6 504 273.5 502.4 275 500.4 276.1 498.1 276.8 495.6"/>
      <path class="cls-6" d="M276.8,467.4l-.5-48.9M221.1,412.8l-9.4,36.5M227.8,445.7l-1.1,5.3M229.5,437.8l-1.1,5.3M231.1,430l-1.1,5.3M232.7,422l-1.1,5.3M234.3,414.2l-1.1,5.2M276.3,418.5l-55.2-5.7M233.8,416.8l-13.4-1.4M233.2,419.4l-13.5-1.4M276.4,426.5l-57.3-5.9M232.2,424.6l-13.8-1.4M231.7,427.3l-13.9-1.4M276.4,434.6l-59.4-6.2M230.6,432.6l-14.2-1.5M230.1,435.3l-14.4-1.5M276.5,442.7l-61.5-6.3M229,440.4l-14.6-1.5M228.5,443.1l-14.8-1.5M276.6,450.8l-63.6-6.6M227.3,448.4l-14.9-1.5M226.8,451l-13.7-1.5"/>
      <polygon class="cls-6" points="227.6 414 228 413.8 228.2 413.4 228 413.1 227.6 413 227.3 413.1 227.2 413.4 227.3 413.8 227.6 414"/>
      <line class="cls-6" x1="206" y1="475.6" x2="205" y2="475.6"/>
      <line class="cls-6" x1="207.3" y1="470.5" x2="206.4" y2="470.3"/>
      <line class="cls-6" x1="206.8" y1="473.1" x2="205.7" y2="473"/>
      <line class="cls-6" x1="205.6" y1="478.3" x2="204.3" y2="478.1"/>
      <line class="cls-6" x1="206.9" y1="497.2" x2="205.5" y2="497.1"/>
      <line class="cls-6" x1="221.5" y1="411.5" x2="211.7" y2="449.2"/>
      <polyline class="cls-6" points="212.2 449.4 221.9 411.5 221.5 411.5"/>
      <line class="cls-6" x1="275.7" y1="417.1" x2="276.2" y2="467.2"/>
      <polyline class="cls-6" points="276.8 467.4 276.3 417.2 275.7 417.1"/>
      <path class="cls-6" d="M203.8,480.5l-.5,1.7M204.3,477.9l-.4,1.8M205,475.4l-.4,1.7M205.7,472.7l-.4,1.7M206.4,470.2l-.4,1.7M207,467.5l-.4,1.7M207.7,464.9l-.4,1.8M208.4,462.4l-.4,1.7M209,459.7l-.4,1.8M209.7,457.2l-.4,1.7M210.4,454.5l-.4,1.8M211,452l-.4,1.7M211.7,449.2l-.4,2"/>
      <path class="cls-6" d="M210,500.4l1.7.7M207.8,499.1l1.4,1M205.7,497.4l1.3,1.2M204.1,495.1l1,1.5M203,492.8l.7,1.7M202.4,490.1l.3,1.8M202.2,487.5v1.8"/>
      <polyline class="cls-6" points="212.5 501.3 214.2 501.6 215.2 501.7"/>
      <polyline class="cls-6" points="261.2 506.5 262.3 506.5 263.7 506.6"/>
      <polyline class="cls-6" points="264.7 506.6 264.8 506.6 266.3 506.3"/>
      <path class="cls-6" d="M275.3,499.7l.8-1.7M273.8,501.8l1.1-1.4M272,503.8l1.2-1.3M269.7,505.2l1.5-1M267.2,506.2l1.7-.7"/>
      <polyline class="cls-6" points="276.4 497.2 276.8 495.6 276.8 495.5"/>
      <polyline class="cls-6" points="276.9 494.5 277.1 493.1 277 491.3"/>
      <path class="cls-6" d="M276.8,471.8v-1.8M276.9,474.5v-1.8M276.9,477.1v-1.8M276.9,479.8v-1.7M277,482.5v-1.8M277,485.2v-1.8M277,487.8v-1.8M277,490.5v-1.8"/>
      <line class="cls-6" x1="276.8" y1="469.2" x2="276.8" y2="467.4"/>
      <polygon class="cls-6" points="218.5 448.6 219.6 450.4 221.4 449.3 221.7 449.7 219.5 451.1 218.1 448.9 218.5 448.6"/>
      <rect class="cls-3" x="205.3" y="496.4" width=".1" height=".1" transform="translate(-5.3 2.2) rotate(-.6)"/>
      <rect class="cls-3" x="205.7" y="496.8" width=".1" height=".1" transform="translate(-5.3 2.2) rotate(-.6)"/>
      <polygon class="cls-6" points="206.1 497.4 206.1 497.2 205.9 497.2 206.1 497.4"/>
      <polygon class="cls-6" points="206.5 497.6 206.5 497.5 206.4 497.6 206.5 497.6"/>
      <rect class="cls-3" x="206.8" y="497.9" width=".1" height=".1" transform="translate(-5.3 2.2) rotate(-.6)"/>
      <polygon class="cls-6" points="207.2 498.3 207.3 498.3 207.2 498.2 207.2 498.3"/>
      <rect class="cls-3" x="207.7" y="498.6" width=".1" height=".1" transform="translate(-5.3 2.2) rotate(-.6)"/>
      <rect class="cls-3" x="208.1" y="498.8" width=".1" height=".1" transform="translate(-5.3 2.2) rotate(-.6)"/>
      <polygon class="cls-6" points="208.6 499.3 208.6 499.1 208.5 499.1 208.6 499.3"/>
      <rect class="cls-3" x="209.1" y="499.4" width=".1" height=".1" transform="translate(-5.3 2.3) rotate(-.6)"/>
      <rect class="cls-3" x="209.5" y="499.7" width=".1" height=".1" transform="translate(-5.3 2.3) rotate(-.6)"/>
      <polygon class="cls-6" points="210 500 210.1 500 210 499.8 210 500"/>
      <rect class="cls-3" x="210.5" y="500.1" width=".1" height=".1" transform="translate(-5.3 2.3) rotate(-.6)"/>
      <rect class="cls-3" x="211" y="500.2" width=".1" height=".1" transform="translate(-5.3 2.3) rotate(-.6)"/>
      <polygon class="cls-6" points="211.5 500.5 211.5 500.4 211.4 500.5 211.5 500.5"/>
      <rect class="cls-3" x="212" y="500.5" width=".1" height=".1" transform="translate(-5.3 2.3) rotate(-.6)"/>
      <rect class="cls-3" x="212.6" y="500.6" width=".1" height=".1" transform="translate(-5.3 2.3) rotate(-.6)"/>
      <polygon class="cls-6" points="213.1 500.9 213.2 500.8 213.1 500.8 213.1 500.9"/>
      <polygon class="cls-6" points="213.6 500.9 213.6 500.8 213.5 500.9 213.6 500.9"/>
      <rect class="cls-3" x="214.1" y="500.9" width=".1" height=".1" transform="translate(-5.3 2.3) rotate(-.6)"/>
      <rect class="cls-3" x="214.7" y="500.9" width=".1" height=".1" transform="translate(-5.3 2.3) rotate(-.6)"/>
      <rect class="cls-3" x="215.2" y="500.9" width=".1" height=".1" transform="translate(-5.3 2.3) rotate(-.6)"/>
      <rect class="cls-3" x="215.8" y="500.9" width=".1" height=".1" transform="translate(-5.3 2.3) rotate(-.6)"/>
      <path class="cls-6" d="M216.3,500.9h.1-.1Z"/>
      <rect class="cls-3" x="216.7" y="500.7" width=".1" height=".1" transform="translate(-5.3 2.3) rotate(-.6)"/>
      <polygon class="cls-6" points="217.4 500.7 217.4 500.6 217.2 500.7 217.4 500.7"/>
      <polygon class="cls-6" points="217.8 500.7 217.9 500.6 217.8 500.6 217.8 500.7"/>
      <polygon class="cls-6" points="218.4 500.6 218.5 500.4 218.4 500.4 218.4 500.6"/>
      <polygon class="cls-6" points="218.9 500.4 218.9 500.3 218.8 500.3 218.9 500.4"/>
      <polygon class="cls-6" points="219.3 500.1 219.5 500.1 219.3 500 219.3 500.1"/>
      <polygon class="cls-6" points="219.9 500 219.9 499.9 219.8 499.9 219.9 500"/>
      <polygon class="cls-6" points="220.3 499.7 220.4 499.7 220.3 499.6 220.3 499.7"/>
      <polygon class="cls-6" points="220.9 499.6 220.9 499.4 220.7 499.4 220.9 499.6"/>
      <rect class="cls-3" x="221.3" y="499.1" width=".1" height=".1" transform="translate(-5.3 2.4) rotate(-.6)"/>
      <rect class="cls-3" x="221.7" y="498.8" width=".1" height=".1" transform="translate(-5.3 2.4) rotate(-.6)"/>
      <rect class="cls-3" x="222.1" y="498.5" width=".1" height=".1" transform="translate(-5.3 2.4) rotate(-.6)"/>
      <polygon class="cls-6" points="222.7 498.3 222.7 498.1 222.5 498.3 222.7 498.3"/>
      <rect class="cls-3" x="223.1" y="497.9" width=".1" height=".1" transform="translate(-5.3 2.4) rotate(-.6)"/>
      <polygon class="cls-6" points="223.5 497.9 223.6 497.7 223.5 497.7 223.5 497.9"/>
      <polygon class="cls-6" points="224 497.6 224 497.4 223.9 497.4 224 497.6"/>
      <rect class="cls-3" x="224.5" y="497.1" width=".1" height=".1" transform="translate(-5.3 2.4) rotate(-.6)"/>
      <polygon class="cls-6" points="225 497 225 496.9 224.9 497 225 497"/>
      <rect class="cls-3" x="225.5" y="496.7" width=".1" height=".1" transform="translate(-5.3 2.4) rotate(-.6)"/>
      <polygon class="cls-6" points="226 496.6 226 496.4 225.8 496.6 226 496.6"/>
      <rect class="cls-3" x="226.4" y="496.3" width=".1" height=".1" transform="translate(-5.3 2.4) rotate(-.6)"/>
      <rect class="cls-3" x="226.9" y="496.1" width=".1" height=".1" transform="translate(-5.3 2.4) rotate(-.6)"/>
      <polygon class="cls-6" points="227.5 496 227.5 495.9 227.4 496 227.5 496"/>
      <rect class="cls-3" x="228" y="495.7" width=".1" height=".1" transform="translate(-5.3 2.5) rotate(-.6)"/>
      <polygon class="cls-6" points="228.5 495.7 228.5 495.6 228.3 495.7 228.5 495.7"/>
      <rect class="cls-3" x="228.9" y="495.4" width=".1" height=".1" transform="translate(-5.3 2.5) rotate(-.6)"/>
      <rect class="cls-3" x="229.5" y="495.3" width=".1" height=".1" transform="translate(-5.3 2.5) rotate(-.6)"/>
      <polygon class="cls-6" points="230 495.3 230.1 495.3 230 495.1 230 495.3"/>
      <rect class="cls-3" x="230.5" y="495" width=".1" height=".1" transform="translate(-5.3 2.5) rotate(-.6)"/>
      <polygon class="cls-6" points="231.1 495.1 231.1 495 231 495 231.1 495.1"/>
      <rect class="cls-3" x="231.6" y="494.8" width=".1" height=".1" transform="translate(-5.3 2.5) rotate(-.6)"/>
      <polygon class="cls-6" points="232.1 494.9 232.2 494.9 232.1 494.7 232.1 494.9"/>
      <polygon class="cls-6" points="232.6 494.8 232.6 494.7 232.5 494.7 232.6 494.8"/>
      <polygon class="cls-6" points="233.2 494.7 233.2 494.6 233.1 494.7 233.2 494.7"/>
      <rect class="cls-3" x="233.7" y="494.5" width=".1" height=".1" transform="translate(-5.3 2.5) rotate(-.6)"/>
      <rect class="cls-3" x="234.2" y="494.5" width=".1" height=".1" transform="translate(-5.3 2.5) rotate(-.6)"/>
      <polygon class="cls-6" points="234.7 494.7 234.9 494.5 234.7 494.5 234.7 494.7"/>
      <rect class="cls-3" x="235.3" y="494.4" width=".1" height=".1" transform="translate(-5.3 2.5) rotate(-.6)"/>
      <rect class="cls-3" x="235.8" y="494.4" width=".1" height=".1" transform="translate(-5.3 2.5) rotate(-.6)"/>
      <polygon class="cls-6" points="236.4 494.5 236.4 494.4 236.3 494.5 236.4 494.5"/>
      <polygon class="cls-6" points="237 494.7 237 494.5 236.8 494.5 237 494.7"/>
      <rect class="cls-3" x="237.4" y="494.5" width=".1" height=".1" transform="translate(-5.3 2.6) rotate(-.6)"/>
      <rect class="cls-3" x="238" y="494.5" width=".1" height=".1" transform="translate(-5.3 2.6) rotate(-.6)"/>
      <rect class="cls-3" x="238.5" y="494.5" width=".1" height=".1" transform="translate(-5.3 2.6) rotate(-.6)"/>
      <rect class="cls-3" x="239" y="494.6" width=".1" height=".1" transform="translate(-5.3 2.6) rotate(-.6)"/>
      <polygon class="cls-6" points="239.6 494.8 239.6 494.6 239.5 494.8 239.6 494.8"/>
      <rect class="cls-3" x="240.1" y="494.7" width=".1" height=".1" transform="translate(-5.3 2.6) rotate(-.6)"/>
      <polygon class="cls-6" points="240.6 495 240.7 494.9 240.6 494.9 240.6 495"/>
      <rect class="cls-3" x="241.1" y="494.9" width=".1" height=".1" transform="translate(-5.3 2.6) rotate(-.6)"/>
      <rect class="cls-3" x="241.6" y="495" width=".1" height=".1" transform="translate(-5.3 2.6) rotate(-.6)"/>
      <rect class="cls-3" x="242.2" y="495.1" width=".1" height=".1" transform="translate(-5.3 2.6) rotate(-.6)"/>
      <polygon class="cls-6" points="242.7 495.4 242.8 495.4 242.7 495.3 242.7 495.4"/>
      <polygon class="cls-6" points="243.2 495.6 243.2 495.4 243.1 495.6 243.2 495.6"/>
      <rect class="cls-3" x="243.7" y="495.5" width=".1" height=".1" transform="translate(-5.3 2.6) rotate(-.6)"/>
      <rect class="cls-3" x="244.2" y="495.8" width=".1" height=".1" transform="translate(-5.3 2.6) rotate(-.6)"/>
      <rect class="cls-3" x="244.7" y="495.9" width=".1" height=".1" transform="translate(-5.3 2.6) rotate(-.6)"/>
      <rect class="cls-3" x="245.2" y="496.1" width=".1" height=".1" transform="translate(-5.3 2.6) rotate(-.6)"/>
      <rect class="cls-3" x="245.7" y="496.3" width=".1" height=".1" transform="translate(-5.3 2.6) rotate(-.6)"/>
      <rect class="cls-3" x="246.2" y="496.5" width=".1" height=".1" transform="translate(-5.3 2.7) rotate(-.6)"/>
      <polygon class="cls-6" points="246.7 496.9 246.7 496.8 246.6 496.8 246.7 496.9"/>
      <rect class="cls-3" x="247.2" y="496.9" width=".1" height=".1" transform="translate(-5.3 2.7) rotate(-.6)"/>
      <rect class="cls-3" x="247.6" y="497.2" width=".1" height=".1" transform="translate(-5.3 2.7) rotate(-.6)"/>
      <rect class="cls-3" x="248.2" y="497.4" width=".1" height=".1" transform="translate(-5.3 2.7) rotate(-.6)"/>
      <rect class="cls-3" x="248.6" y="497.7" width=".1" height=".1" transform="translate(-5.3 2.7) rotate(-.6)"/>
      <rect class="cls-3" x="249" y="498" width=".1" height=".1" transform="translate(-5.3 2.7) rotate(-.6)"/>
      <polygon class="cls-6" points="249.5 498.4 249.7 498.3 249.5 498.3 249.5 498.4"/>
      <rect class="cls-3" x="250" y="498.5" width=".1" height=".1" transform="translate(-5.3 2.7) rotate(-.6)"/>
      <rect class="cls-3" x="250.4" y="498.8" width=".1" height=".1" transform="translate(-5.3 2.7) rotate(-.6)"/>
      <rect class="cls-3" x="250.8" y="499.1" width=".1" height=".1" transform="translate(-5.3 2.7) rotate(-.6)"/>
      <polygon class="cls-6" points="251.4 499.5 251.4 499.4 251.2 499.5 251.4 499.5"/>
      <rect class="cls-3" x="251.7" y="499.7" width=".1" height=".1" transform="translate(-5.3 2.7) rotate(-.6)"/>
      <polygon class="cls-6" points="252.2 500.2 252.2 500.1 252.1 500.1 252.2 500.2"/>
      <rect class="cls-3" x="252.6" y="500.4" width=".1" height=".1" transform="translate(-5.3 2.7) rotate(-.6)"/>
      <rect class="cls-3" x="252.9" y="500.7" width=".1" height=".1" transform="translate(-5.3 2.7) rotate(-.6)"/>
      <path class="cls-6" d="M253.5,501.2h-.1.1Z"/>
      <rect class="cls-3" x="253.8" y="501.4" width=".1" height=".1" transform="translate(-5.3 2.7) rotate(-.6)"/>
      <polygon class="cls-6" points="254.2 502 254.2 501.9 254 502 254.2 502"/>
      <rect class="cls-3" x="254.5" y="502.3" width=".1" height=".1" transform="translate(-5.3 2.7) rotate(-.6)"/>
      <polygon class="cls-6" points="254.9 502.8 255 502.7 254.9 502.7 254.9 502.8"/>
      <polygon class="cls-6" points="255.3 503.1 255.4 503.1 255.3 503 255.3 503.1"/>
      <polygon class="cls-6" points="255.7 503.5 255.7 503.4 255.6 503.4 255.7 503.5"/>
      <path class="cls-6" d="M256.1,503.8h0c0-.1,0,0,0,0Z"/>
      <polygon class="cls-6" points="256.6 504.1 256.7 504.1 256.6 503.9 256.6 504.1"/>
      <polygon class="cls-6" points="257 504.3 257.1 504.3 257 504.2 257 504.3"/>
      <rect class="cls-3" x="257.4" y="504.5" width=".1" height=".1" transform="translate(-5.4 2.8) rotate(-.6)"/>
      <path class="cls-6" d="M258,504.9h0c0-.1,0,0,0,0Z"/>
      <rect class="cls-3" x="258.4" y="505" width=".1" height=".1" transform="translate(-5.4 2.8) rotate(-.6)"/>
      <path class="cls-6" d="M258.9,505.3h0c0-.1,0,0,0,0Z"/>
      <rect class="cls-3" x="259.4" y="505.4" width=".1" height=".1" transform="translate(-5.4 2.8) rotate(-.6)"/>
      <rect class="cls-3" x="260" y="505.5" width=".1" height=".1" transform="translate(-5.4 2.8) rotate(-.6)"/>
      <polygon class="cls-6" points="260.5 505.8 260.5 505.7 260.3 505.8 260.5 505.8"/>
      <rect class="cls-3" x="260.9" y="505.8" width=".1" height=".1" transform="translate(-5.4 2.8) rotate(-.6)"/>
      <rect class="cls-3" x="261.5" y="505.9" width=".1" height=".1" transform="translate(-5.4 2.8) rotate(-.6)"/>
      <rect class="cls-3" x="262" y="506" width=".1" height=".1" transform="translate(-5.4 2.8) rotate(-.6)"/>
      <polygon class="cls-6" points="262.6 506.2 262.6 506.1 262.4 506.1 262.6 506.2"/>
      <rect class="cls-3" x="263" y="506.1" width=".1" height=".1" transform="translate(-5.4 2.8) rotate(-.6)"/>
      <rect class="cls-3" x="263.6" y="506" width=".1" height=".1" transform="translate(-5.4 2.8) rotate(-.6)"/>
      <rect class="cls-3" x="264.2" y="506" width=".1" height=".1" transform="translate(-5.4 2.8) rotate(-.6)"/>
      <rect class="cls-3" x="264.7" y="506" width=".1" height=".1" transform="translate(-5.4 2.8) rotate(-.6)"/>
      <polygon class="cls-6" points="265.2 506.2 265.4 506.1 265.2 506.1 265.2 506.2"/>
      <polygon class="cls-6" points="265.8 506 265.8 505.9 265.6 506 265.8 506"/>
      <polygon class="cls-6" points="266.3 506 266.3 505.9 266.2 505.9 266.3 506"/>
      <rect class="cls-3" x="266.8" y="505.7" width=".1" height=".1" transform="translate(-5.4 2.9) rotate(-.6)"/>
      <polygon class="cls-6" points="267.3 505.8 267.4 505.6 267.3 505.6 267.3 505.8"/>
      <rect class="cls-3" x="267.8" y="505.5" width=".1" height=".1" transform="translate(-5.4 2.9) rotate(-.6)"/>
      <polygon class="cls-6" points="268.3 505.3 268.4 505.3 268.3 505.2 268.3 505.3"/>
      <path class="cls-6" d="M268.8,505.2h0c0-.1,0,0,0,0Z"/>
      <polygon class="cls-6" points="269.4 504.9 269.4 504.8 269.2 504.9 269.4 504.9"/>
      <polygon class="cls-6" points="269.8 504.8 269.8 504.6 269.7 504.6 269.8 504.8"/>
      <rect class="cls-3" x="270.3" y="504.3" width=".1" height=".1" transform="translate(-5.4 2.9) rotate(-.6)"/>
      <rect class="cls-3" x="270.7" y="504" width=".1" height=".1" transform="translate(-5.4 2.9) rotate(-.6)"/>
      <rect class="cls-3" x="271.1" y="503.7" width=".1" height=".1" transform="translate(-5.3 2.9) rotate(-.6)"/>
      <path class="cls-6" d="M271.6,503.5h-.1.1Z"/>
      <polygon class="cls-6" points="272 503.2 272 503.1 271.9 503.2 272 503.2"/>
      <polygon class="cls-6" points="272.4 502.9 272.4 502.8 272.3 502.8 272.4 502.9"/>
      <rect class="cls-3" x="272.7" y="502.3" width=".1" height=".1" transform="translate(-5.3 2.9) rotate(-.6)"/>
      <rect class="cls-3" x="273.2" y="501.9" width=".1" height=".1" transform="translate(-5.3 2.9) rotate(-.6)"/>
      <rect class="cls-3" x="273.5" y="501.5" width=".1" height=".1" transform="translate(-5.3 2.9) rotate(-.6)"/>
      <polygon class="cls-6" points="273.8 501.2 273.9 501.2 273.8 501.1 273.8 501.2"/>
      <polygon class="cls-6" points="274.2 500.8 274.2 500.7 274.1 500.8 274.2 500.8"/>
      <rect class="cls-3" x="274.4" y="500.2" width=".1" height=".1" transform="translate(-5.3 3) rotate(-.6)"/>
      <polygon class="cls-6" points="274.8 500 274.8 499.8 274.6 500 274.8 500"/>
      <rect class="cls-3" x="274.9" y="499.4" width=".1" height=".1" transform="translate(-5.3 3) rotate(-.6)"/>
      <rect class="cls-3" x="275.2" y="498.8" width=".1" height=".1" transform="translate(-5.3 3) rotate(-.6)"/>
      <rect class="cls-3" x="275.5" y="498.4" width=".1" height=".1" transform="translate(-5.3 3) rotate(-.6)"/>
      <rect class="cls-3" x="275.6" y="497.8" width=".1" height=".1" transform="translate(-5.3 3) rotate(-.6)"/>
      <polygon class="cls-6" points="275.9 497.6 276 497.5 275.9 497.5 275.9 497.6"/>
      <rect class="cls-3" x="276" y="496.9" width=".1" height=".1" transform="translate(-5.3 3) rotate(-.6)"/>
      <polygon class="cls-6" points="276.1 496.5 276.3 496.5 276.1 496.3 276.1 496.5"/>
      <polygon class="cls-6" points="276.3 496 276.4 495.9 276.3 495.9 276.3 496"/>
      <polygon class="cls-6" points="206 476.9 207.5 470.9 204.7 476.5 206.2 470.6 206 476.9"/>
      <polygon class="cls-6" points="207.6 470.6 206.4 470.3 206.2 470.6 207.1 470.9 207.1 470.7 207.5 470.9 207.6 470.6"/>
      <polygon class="cls-6" points="206 476.9 206.1 476.5 212 477.9 212 478.4 206 476.9"/>
      <polygon class="cls-6" points="206 477.2 204.6 476.8 204.7 476.5 205.6 476.6 205.6 476.7 206 476.9 206 477.2"/>
      <polygon class="cls-6" points="275.6 484.1 275.5 477.8 277 483.9 276.9 477.9 275.6 484.1"/>
      <polygon class="cls-6" points="275.5 477.7 276.9 477.7 276.9 477.9 276.1 478 276.1 477.8 275.5 477.8 275.5 477.7"/>
      <polygon class="cls-6" points="275.6 484.4 277 484.4 277 483.9 276.1 483.9 276.1 484.1 275.6 484.1 275.6 484.4"/>
      <polyline class="cls-6" points="262.3 506.5 264.8 506.6 267.2 506.2 269.5 505.3 271.7 503.9 273.5 502.2 275 500.2 276.1 498 276.8 495.6 277.1 493.1 275.8 375.7 275.5 373.6 274.7 371.8 273.5 370 272 368.8 270.2 367.8 244.2 359.2 241.9 358.8 239.6 359 237.5 359.8 235.6 361.1 234.2 362.9 233.4 365.2 202.6 485 202.2 487.8 202.4 490.6 203.1 493.2 204.4 495.7 206.2 497.9 208.5 499.7"/>
      <polygon class="cls-6" points="264.6 485.5 264.9 485.6 264.9 485.3 264.6 485.3 264.6 485.5"/>
      <rect class="cls-3" x="216.5" y="480.4" width=".3" height=".1" transform="translate(-5.1 2.3) rotate(-.6)"/>
    </g>
    <rect class="cls-8" x="213.9" y="542.3" width="63" height="26"/>
    <rect class="cls-5" x="213.9" y="568.3" width="63" height="28"/>
    <rect class="cls-5" x="213.9" y="596.4" width="48.8" height="19.8"/>
    <g>
      <path class="cls-2" d="M277,596v.3M251.1,568.6v.3"/>
      <path class="cls-2" d="M251.1,569.3v26.5"/>
      <path class="cls-2" d="M251.1,596v.3M242.2,568.6v.3"/>
      <path class="cls-2" d="M242.2,569.3v26.5"/>
      <path class="cls-2" d="M242.2,596v.3"/>
      <path class="cls-2" d="M273.8,596.4h-22.7"/>
      <path class="cls-2" d="M272.2,568.6h1.6M277,568.6h0"/>
      <path class="cls-2" d="M270.6,568.6h-19.4"/>
      <path class="cls-2" d="M242.2,596.4h-24.3"/>
      <path class="cls-2" d="M242.2,568.6h-24.3"/>
      <path class="cls-2" d="M272.2,568.6v.3"/>
      <path class="cls-2" d="M272.2,569.3v26.5"/>
      <path class="cls-2" d="M272.2,596v.3M270.6,568.6v.3"/>
      <path class="cls-2" d="M270.6,569.3v26.5"/>
      <path class="cls-2" d="M270.6,596v.3M268.9,568.6v.3"/>
      <path class="cls-2" d="M268.9,569.3v26.5"/>
      <path class="cls-2" d="M268.9,596v.3M267.3,568.6v.3"/>
      <path class="cls-2" d="M267.3,569.3v26.5"/>
      <path class="cls-2" d="M267.3,596v.3M265.7,568.6v.3"/>
      <path class="cls-2" d="M265.7,569.3v26.5"/>
      <path class="cls-2" d="M265.7,596v.3M264,568.6v.3"/>
      <path class="cls-2" d="M264,569.3v26.5"/>
      <path class="cls-2" d="M264,596v.3M262.4,568.6v.3"/>
      <path class="cls-2" d="M262.4,569.3v26.5"/>
      <path class="cls-2" d="M262.4,596v.3M260.8,568.6v.3"/>
      <path class="cls-2" d="M260.8,569.3v26.5"/>
      <path class="cls-2" d="M260.8,596v.3M259.2,568.6v.3"/>
      <path class="cls-2" d="M259.2,569.3v26.5"/>
      <path class="cls-2" d="M259.2,596v.3M257.6,568.6v.3"/>
      <path class="cls-2" d="M257.6,569.3v26.5"/>
      <path class="cls-2" d="M257.6,596v.3M256,568.6v.3"/>
      <path class="cls-2" d="M256,569.3v26.5"/>
      <path class="cls-2" d="M256,596v.3M254.4,568.6v.3"/>
      <path class="cls-2" d="M254.4,569.3v26.5"/>
      <path class="cls-2" d="M254.4,596v.3M252.8,568.6v.3"/>
      <path class="cls-2" d="M252.8,569.3v26.5"/>
      <path class="cls-2" d="M252.8,596v.3M251.1,568.6v.3"/>
      <path class="cls-2" d="M251.1,569.3v26.5"/>
      <path class="cls-2" d="M251.1,596v.3M242.2,568.6v.3"/>
      <path class="cls-2" d="M242.2,569.3v26.5"/>
      <path class="cls-2" d="M242.2,596v.3M240.6,568.6v.3"/>
      <path class="cls-2" d="M240.6,569.3v26.5"/>
      <path class="cls-2" d="M240.6,596v.3M238.9,568.6v.3"/>
      <path class="cls-2" d="M238.9,569.3v26.5"/>
      <path class="cls-2" d="M238.9,596v.3M237.3,568.6v.3"/>
      <path class="cls-2" d="M237.3,569.3v26.5"/>
      <path class="cls-2" d="M237.3,596v.3M235.7,568.6v.3"/>
      <path class="cls-2" d="M235.7,569.3v26.5"/>
      <path class="cls-2" d="M235.7,596v.3M234.1,568.6v.3"/>
      <path class="cls-2" d="M234.1,569.3v26.5"/>
      <path class="cls-2" d="M234.1,596v.3M232.4,568.6v.3"/>
      <path class="cls-2" d="M232.4,569.3v26.5"/>
      <path class="cls-2" d="M232.4,596v.3M230.8,568.6v.3"/>
      <path class="cls-2" d="M230.8,569.3v26.5"/>
      <path class="cls-2" d="M230.8,596v.3M229.2,568.6v.3"/>
      <path class="cls-2" d="M229.2,569.3v26.5"/>
      <path class="cls-2" d="M229.2,596v.3M227.6,568.6v.3"/>
      <path class="cls-2" d="M227.6,569.3v26.5"/>
      <path class="cls-2" d="M227.6,596v.3M226,568.6v.3"/>
      <path class="cls-2" d="M226,569.3v26.5"/>
      <path class="cls-2" d="M226,596v.3M224.4,568.6v.3"/>
      <path class="cls-2" d="M224.4,569.3v26.5"/>
      <path class="cls-2" d="M224.4,596v.3M222.8,568.6v.3"/>
      <path class="cls-2" d="M222.8,569.3v26.5"/>
      <path class="cls-2" d="M222.8,596v.3M221.1,568.6v.3"/>
      <path class="cls-2" d="M221.1,569.3v26.5"/>
      <path class="cls-2" d="M221.1,596v.3M219.5,568.6v.3"/>
      <path class="cls-2" d="M219.5,569.3v26.5"/>
      <path class="cls-2" d="M219.5,596v.3M272.2,568.6v.3"/>
      <path class="cls-2" d="M272.2,569.3v26.5"/>
      <path class="cls-2" d="M272.2,596v.3M270.6,568.6v.3"/>
      <path class="cls-2" d="M270.6,569.3v26.5"/>
      <path class="cls-2" d="M270.6,596v.3M268.9,568.6v.3"/>
      <path class="cls-2" d="M268.9,569.3v26.5"/>
      <path class="cls-2" d="M268.9,596v.3M267.3,568.6v.3"/>
      <path class="cls-2" d="M267.3,569.3v26.5"/>
      <path class="cls-2" d="M267.3,596v.3M265.7,568.6v.3"/>
      <path class="cls-2" d="M265.7,569.3v26.5"/>
      <path class="cls-2" d="M265.7,596v.3M264,568.6v.3"/>
      <path class="cls-2" d="M264,569.3v26.5"/>
      <path class="cls-2" d="M264,596v.3M262.4,568.6v.3"/>
      <path class="cls-2" d="M262.4,569.3v26.5"/>
      <path class="cls-2" d="M262.4,596v.3M260.8,568.6v.3"/>
      <path class="cls-2" d="M260.8,569.3v26.5"/>
      <path class="cls-2" d="M260.8,596v.3M259.2,568.6v.3"/>
      <path class="cls-2" d="M259.2,569.3v26.5"/>
      <path class="cls-2" d="M259.2,596v.3M257.6,568.6v.3"/>
      <path class="cls-2" d="M257.6,569.3v26.5"/>
      <path class="cls-2" d="M257.6,596v.3M256,568.6v.3"/>
      <path class="cls-2" d="M256,569.3v26.5"/>
      <path class="cls-2" d="M256,596v.3M254.4,568.6v.3"/>
      <path class="cls-2" d="M254.4,569.3v26.5"/>
      <path class="cls-2" d="M254.4,596v.3M252.8,568.6v.3"/>
      <path class="cls-2" d="M252.8,569.3v26.5"/>
      <path class="cls-2" d="M252.8,596v.3M240.6,568.6v.3"/>
      <path class="cls-2" d="M240.6,569.3v26.5"/>
      <path class="cls-2" d="M240.6,596v.3M238.9,568.6v.3"/>
      <path class="cls-2" d="M238.9,569.3v26.5"/>
      <path class="cls-2" d="M238.9,596v.3M237.3,568.6v.3"/>
      <path class="cls-2" d="M237.3,569.3v26.5"/>
      <path class="cls-2" d="M237.3,596v.3M235.7,568.6v.3"/>
      <path class="cls-2" d="M235.7,569.3v26.5"/>
      <path class="cls-2" d="M235.7,596v.3M234.1,568.6v.3"/>
      <path class="cls-2" d="M234.1,569.3v26.5"/>
      <path class="cls-2" d="M234.1,596v.3M232.4,568.6v.3"/>
      <path class="cls-2" d="M232.4,569.3v26.5"/>
      <path class="cls-2" d="M232.4,596v.3M230.8,568.6v.3"/>
      <path class="cls-2" d="M230.8,569.3v26.5"/>
      <path class="cls-2" d="M230.8,596v.3M229.2,568.6v.3"/>
      <path class="cls-2" d="M229.2,569.3v26.5"/>
      <path class="cls-2" d="M229.2,596v.3M227.6,568.6v.3"/>
      <path class="cls-2" d="M227.6,569.3v26.5"/>
      <path class="cls-2" d="M227.6,596v.3M226,568.6v.3"/>
      <path class="cls-2" d="M226,569.3v26.5"/>
      <path class="cls-2" d="M226,596v.3M224.4,568.6v.3"/>
      <path class="cls-2" d="M224.4,569.3v26.5"/>
      <path class="cls-2" d="M224.4,596v.3M222.8,568.6v.3"/>
      <path class="cls-2" d="M222.8,569.3v26.5"/>
      <path class="cls-2" d="M222.8,596v.3M221.1,568.6v.3"/>
      <path class="cls-2" d="M221.1,569.3v26.5"/>
      <path class="cls-2" d="M221.1,596v.3M219.5,568.6v.3"/>
      <path class="cls-2" d="M219.5,569.3v26.5"/>
      <path class="cls-2" d="M219.5,596v.3"/>
      <path class="cls-2" d="M277,596v-.3h-62.3v.3"/>
      <path class="cls-2" d="M277,596h-62.3"/>
      <path class="cls-2" d="M277,569.3v-.3h-62.3v.3"/>
      <path class="cls-2" d="M277,569.3h-62.3"/>
      <path class="cls-2" d="M215.9,584.1l-1.3-1.6,1.3-1.5"/>
      <path class="cls-2" d="M215.9,584.1l.3-.4M215.9,580.9l.3.4"/>
      <path class="cls-2" d="M216.2,583.6l-.9-1.2.9-1.1"/>
      <path class="cls-2" d="M217.9,568.6v.3"/>
      <path class="cls-2" d="M217.9,569.3v26.5"/>
      <path class="cls-2" d="M217.9,596v.3M217.9,568.6v.3"/>
      <path class="cls-2" d="M217.9,569.3v26.5"/>
      <path class="cls-2" d="M217.9,596v.3M216.3,568.6v.3"/>
      <path class="cls-2" d="M216.3,569.3v26.5"/>
      <path class="cls-2" d="M216.3,596v.3M216.3,568.6v.3"/>
      <path class="cls-2" d="M216.3,569.3v26.5"/>
      <path class="cls-2" d="M216.3,596v.3M214.6,568.6v.3"/>
      <path class="cls-2" d="M214.6,569.3v26.5"/>
      <path class="cls-2" d="M214.6,596v.3M214.6,568.6v.3"/>
      <path class="cls-2" d="M214.6,569.3v26.5"/>
      <path class="cls-2" d="M214.6,596v.3M216.3,596.4h1.6M216.3,568.6h1.6M214.6,596.4h1.6M214.6,568.6h1.6M273.8,568.6v.3"/>
      <path class="cls-2" d="M273.8,569.3v26.5"/>
      <path class="cls-2" d="M273.8,596v.3M273.8,568.6v.3"/>
      <path class="cls-2" d="M273.8,569.3v26.5"/>
      <path class="cls-2" d="M273.8,568.6h1.6v.3"/>
      <path class="cls-2" d="M275.4,569.3v26.5"/>
      <path class="cls-2" d="M275.4,596v.3M275.4,568.6v.3"/>
      <path class="cls-2" d="M275.4,569.3v26.5"/>
      <path class="cls-2" d="M275.4,596v.3h1.5"/>
      <path class="cls-2" d="M214.6,569.2h0"/>
      <path class="cls-2" d="M214.6,569.2h0"/>
      <path class="cls-2" d="M214.6,595.8h0"/>
      <path class="cls-2" d="M214.6,595.8h0"/>
    </g>
    <rect class="cls-1" x="225.8" y="542.3" width="26" height="26"/>
    <rect class="cls-1" x="251.1" y="542.3" width="25.9" height="26.3"/>
  </g>
  <g id="Layer_37" data-name="Layer 37">
    <rect class="cls-1" x="698.5" y="544.4" width="28.9" height="73"/>
    <text class="cls-11" transform="translate(703.5 585)"><tspan x="0" y="0">519</tspan></text>
  </g>
  <g id="Layer_38" data-name="Layer 38">
    <rect class="cls-1" x="593.3" y="544.4" width="105.1" height="73"/>
    <text class="cls-11" transform="translate(635.3 586.2)"><tspan x="0" y="0">520</tspan></text>
  </g>
  <g id="Layer_39" data-name="Layer 39">
    <rect class="cls-1" x="485.4" y="544.4" width="107.9" height="73"/>
    <text class="cls-11" transform="translate(526.8 585)"><tspan x="0" y="0">521</tspan></text>
  </g>
  <g id="Layer_40" data-name="Layer 40">
    <rect class="cls-1" x="373.2" y="544.4" width="112.2" height="71.8"/>
    <text class="cls-11" transform="translate(414.1 582.4)"><tspan x="0" y="0">522</tspan></text>
  </g>
  <g id="Layer_41" data-name="Layer 41">
    <rect class="cls-1" x="320.4" y="475" width="52.8" height="44.7"/>
    <text class="cls-11" transform="translate(337.2 488.7)"><tspan x="0" y="0">501</tspan><tspan x=".1" y="12">그룹</tspan><tspan x="-9.4" y="24">스터디룸</tspan></text>
  </g>
  <g id="Layer_42" data-name="Layer 42">
    <rect class="cls-1" x="320.4" y="428.4" width="52.8" height="46.5"/>
    <text class="cls-11" transform="translate(336.2 445.7)"><tspan x="0" y="0">502</tspan><tspan x="1.1" y="12">그룹</tspan><tspan x="-8.4" y="24">스터디룸</tspan></text>
  </g>
  <g id="Layer_43" data-name="Layer 43">
    <rect class="cls-1" x="320.4" y="362.4" width="52.8" height="66"/>
    <text class="cls-11" transform="translate(336.4 386.4)"><tspan x="0" y="0">503</tspan><tspan x="1.2" y="12">그룹</tspan><tspan x="-8.3" y="24">스터디룸</tspan></text>
  </g>
  <g id="Layer_44" data-name="Layer 44">
    <rect class="cls-8" x="296.9" y="255.2" width="76.3" height="107.2"/>
    <text class="cls-11" transform="translate(327.8 313.3)"><tspan x="0" y="0">504</tspan></text>
  </g>
  <g id="Layer_47" data-name="Layer 47">
    <rect class="cls-1" x="119.1" y="255.2" width="80.3" height="113.1"/>
    <text class="cls-11" transform="translate(149.9 317.3)"><tspan x="0" y="0">505</tspan></text>
  </g>
</svg>