<?xml version="1.0" encoding="UTF-8"?><svg xmlns="http://www.w3.org/2000/svg" viewBox="0 0 1800 1400"><defs><style>.cls-1,.cls-2,.cls-3,.cls-4{fill:none;}.cls-5{fill:#fdf2f2;stroke-width:5px;}.cls-5,.cls-6,.cls-7,.cls-2,.cls-3,.cls-8,.cls-4{stroke:#d88282;stroke-miterlimit:10;}.cls-6,.cls-7,.cls-8{fill:#f5cbcc;}.cls-6,.cls-2{stroke-width:2px;}.cls-7,.cls-3{stroke-width:2.08px;}.cls-9{font-family:NanumSquareNeovariable-Heavy, 'NanumSquare Neo variable';font-size:22px;font-variation-settings:'wght' 900;font-weight:800;}.cls-9,.cls-10{fill:#434142;}.cls-8{stroke-width:2.24px;}.cls-11{letter-spacing:0em;}.cls-10{font-family:NanumSquareNeovariable-Regular, 'NanumSquare Neo variable';font-size:20px;font-variation-settings:'wght' 300;}.cls-4{stroke-width:1.9px;}</style></defs><g id="Layer_border"><path class="cls-5" d="m1631.46,343.72H566.39v-105.15H208.93v237.14h30.37v391.33h25.7v54.06h-35.22v19.43h-20.85v208.03h9.67v46.67h230.67v-46.67h107.44v-208.03h-20.35v-119.05h30.02v-28.91h314.4v-163.25h37.08v38.91c36.15,7.46,89.75,14.21,153.77,6.6,55.85-6.64,100.93-21.98,132.5-35.52v-40.35h278.61v-60.11h106.97v-93.43h41.74v-101.68Z"/></g><g id="Layer_others"><line class="cls-2" x1="316.69" y1="1167.06" x2="442.39" y2="1167.06"/><line class="cls-2" x1="346.2" y1="1144.23" x2="346.2" y2="1167.06"/><line class="cls-2" x1="351.81" y1="1144.23" x2="351.81" y2="1167.06"/><line class="cls-2" x1="357.43" y1="1144.23" x2="357.43" y2="1167.06"/><line class="cls-2" x1="363.04" y1="1144.23" x2="363.04" y2="1167.06"/><line class="cls-2" x1="368.66" y1="1144.23" x2="368.66" y2="1167.06"/><line class="cls-2" x1="374.27" y1="1144.23" x2="374.27" y2="1167.06"/><line class="cls-2" x1="379.89" y1="1144.23" x2="379.89" y2="1167.06"/><line class="cls-2" x1="385.5" y1="1144.23" x2="385.5" y2="1167.06"/><line class="cls-2" x1="391.12" y1="1144.23" x2="391.12" y2="1167.06"/><line class="cls-2" x1="396.73" y1="1144.23" x2="396.73" y2="1167.06"/><line class="cls-2" x1="402.35" y1="1144.23" x2="402.35" y2="1167.06"/><line class="cls-2" x1="407.96" y1="1144.23" x2="407.96" y2="1167.06"/><line class="cls-2" x1="346.2" y1="1192.28" x2="346.2" y2="1167.06"/><line class="cls-2" x1="351.81" y1="1192.28" x2="351.81" y2="1167.06"/><line class="cls-2" x1="357.43" y1="1192.28" x2="357.43" y2="1167.06"/><line class="cls-2" x1="363.04" y1="1192.28" x2="363.04" y2="1167.06"/><line class="cls-2" x1="368.66" y1="1192.28" x2="368.66" y2="1167.06"/><line class="cls-2" x1="374.27" y1="1192.28" x2="374.27" y2="1167.06"/><line class="cls-2" x1="379.89" y1="1192.28" x2="379.89" y2="1167.06"/><line class="cls-2" x1="385.5" y1="1192.28" x2="385.5" y2="1167.06"/><line class="cls-2" x1="391.12" y1="1192.28" x2="391.12" y2="1167.06"/><line class="cls-2" x1="396.73" y1="1192.28" x2="396.73" y2="1167.06"/><line class="cls-2" x1="402.35" y1="1192.28" x2="402.35" y2="1167.06"/><line class="cls-2" x1="407.96" y1="1192.28" x2="407.96" y2="1167.06"/><rect class="cls-4" x="316.69" y="1144.23" width="125.69" height="49.86"/><polyline class="cls-3" points="524.96 729.44 524.96 594.25 465.04 594.25 465.04 818.59 566.39 818.59 566.39 594.25"/><line class="cls-3" x1="524.96" y1="621.02" x2="566.39" y2="621.02"/><line class="cls-3" x1="524.96" y1="627.02" x2="566.39" y2="627.02"/><line class="cls-3" x1="524.96" y1="633.02" x2="566.39" y2="633.02"/><line class="cls-3" x1="524.96" y1="639.02" x2="566.39" y2="639.02"/><line class="cls-3" x1="524.96" y1="645.02" x2="566.39" y2="645.02"/><line class="cls-3" x1="524.96" y1="651.02" x2="566.39" y2="651.02"/><line class="cls-3" x1="524.96" y1="657.02" x2="566.39" y2="657.02"/><line class="cls-3" x1="524.96" y1="663.02" x2="566.39" y2="663.02"/><line class="cls-3" x1="524.96" y1="669.02" x2="566.39" y2="669.02"/><line class="cls-3" x1="524.96" y1="675.02" x2="566.39" y2="675.02"/><line class="cls-3" x1="524.96" y1="681.02" x2="566.39" y2="681.02"/><line class="cls-3" x1="524.96" y1="687.02" x2="566.39" y2="687.02"/><line class="cls-3" x1="524.96" y1="693.02" x2="566.39" y2="693.02"/><line class="cls-3" x1="524.96" y1="699.02" x2="566.39" y2="699.02"/><line class="cls-3" x1="524.96" y1="705.02" x2="566.39" y2="705.02"/><line class="cls-3" x1="524.96" y1="711.02" x2="566.39" y2="711.02"/><line class="cls-3" x1="524.96" y1="717.02" x2="566.39" y2="717.02"/><line class="cls-3" x1="524.96" y1="723.02" x2="566.39" y2="723.02"/><line class="cls-3" x1="524.96" y1="729.02" x2="566.39" y2="729.02"/><rect class="cls-3" x="470.25" y="435.07" width="57.81" height="39.5"/><rect class="cls-3" x="481.12" y="474.58" width="46.93" height="23.73"/><rect class="cls-3" x="481.12" y="498.31" width="46.93" height="26.63"/><line class="cls-2" x1="548.6" y1="429.8" x2="548.6" y2="529.76"/><line class="cls-2" x1="567.2" y1="453.26" x2="548.6" y2="453.26"/><line class="cls-2" x1="567.2" y1="457.73" x2="548.6" y2="457.73"/><line class="cls-2" x1="567.2" y1="462.19" x2="548.6" y2="462.19"/><line class="cls-2" x1="567.2" y1="466.66" x2="548.6" y2="466.66"/><line class="cls-2" x1="567.2" y1="471.12" x2="548.6" y2="471.12"/><line class="cls-2" x1="567.2" y1="475.59" x2="548.6" y2="475.59"/><line class="cls-2" x1="567.2" y1="480.05" x2="548.6" y2="480.05"/><line class="cls-2" x1="567.2" y1="484.52" x2="548.6" y2="484.52"/><line class="cls-2" x1="567.2" y1="488.99" x2="548.6" y2="488.99"/><line class="cls-2" x1="567.2" y1="493.45" x2="548.6" y2="493.45"/><line class="cls-2" x1="567.2" y1="497.92" x2="548.6" y2="497.92"/><line class="cls-2" x1="567.2" y1="502.38" x2="548.6" y2="502.38"/><line class="cls-2" x1="528.06" y1="453.26" x2="548.6" y2="453.26"/><line class="cls-2" x1="528.06" y1="457.73" x2="548.6" y2="457.73"/><line class="cls-2" x1="528.06" y1="462.19" x2="548.6" y2="462.19"/><line class="cls-2" x1="528.06" y1="466.66" x2="548.6" y2="466.66"/><line class="cls-2" x1="528.06" y1="471.12" x2="548.6" y2="471.12"/><line class="cls-2" x1="528.06" y1="475.59" x2="548.6" y2="475.59"/><line class="cls-2" x1="528.06" y1="480.06" x2="548.6" y2="480.06"/><line class="cls-2" x1="528.06" y1="484.52" x2="548.6" y2="484.52"/><line class="cls-2" x1="528.06" y1="488.99" x2="548.6" y2="488.99"/><line class="cls-2" x1="528.06" y1="493.45" x2="548.6" y2="493.45"/><line class="cls-2" x1="528.06" y1="497.92" x2="548.6" y2="497.92"/><line class="cls-2" x1="528.06" y1="502.38" x2="548.6" y2="502.38"/><rect class="cls-2" x="528.06" y="429.8" width="39.14" height="99.96"/><rect class="cls-2" x="567.2" y="345.21" width="82.59" height="84.59"/><rect class="cls-2" x="608.5" y="387.5" width="41.3" height="42.29"/><rect class="cls-2" x="567.2" y="387.5" width="41.3" height="42.29" transform="translate(1175.7 817.3) rotate(180)"/><rect class="cls-2" x="470.25" y="239.94" width="94.04" height="57.31"/><polyline class="cls-2" points="878.02 625.9 878.02 591.46 920.2 591.46 920.2 625.9"/><rect class="cls-6" x="814.73" y="346.39" width="116.92" height="183.37"/><line class="cls-2" x1="885.1" y1="487.23" x2="885.1" y2="529.76"/><rect class="cls-2" x="1446.38" y="346.39" width="39.64" height="39.64"/><path class="cls-2" d="m1009.83,632.35h-26.18v-25.92h32.28c-2.04,8.64-4.07,17.28-6.11,25.92Z"/><line class="cls-2" x1="987.28" y1="606.42" x2="987.28" y2="632.35"/><line class="cls-2" x1="991.75" y1="606.42" x2="991.75" y2="632.35"/><line class="cls-2" x1="996.23" y1="606.42" x2="996.23" y2="632.35"/><line class="cls-2" x1="1000.7" y1="606.75" x2="1000.7" y2="632.35"/><line class="cls-2" x1="1005.17" y1="606.75" x2="1005.17" y2="632.35"/><line class="cls-2" x1="1009.64" y1="606.42" x2="1009.64" y2="632.35"/><path class="cls-2" d="m1109.33,625.23c8.73,0,17.45,0,26.18,0v-25.92s-32.28,0-32.28,0c2.04,8.64,4.07,17.28,6.11,25.92Z"/><line class="cls-2" x1="1131.88" y1="599.31" x2="1131.88" y2="625.23"/><line class="cls-2" x1="1127.41" y1="599.31" x2="1127.41" y2="625.23"/><line class="cls-2" x1="1122.94" y1="599.31" x2="1122.94" y2="625.23"/><line class="cls-2" x1="1118.47" y1="599.64" x2="1118.47" y2="625.23"/><line class="cls-2" x1="1114" y1="599.64" x2="1114" y2="625.23"/><line class="cls-2" x1="1109.52" y1="599.31" x2="1109.52" y2="625.23"/></g><g id="Layer_201"><rect class="cls-6" x="442.37" y="992.58" width="49.96" height="49.96"/><text class="cls-9" transform="translate(445.8 1023.58)"><tspan x="0" y="0">201</tspan></text></g><g id="Layer_202"><rect class="cls-6" x="442.37" y="1042.54" width="49.96" height="49.96"/><text class="cls-9" transform="translate(443.77 1073.54)"><tspan x="0" y="0">202</tspan></text></g><g id="Layer_203"><polygon class="cls-6" points="442.37 940.76 442.37 992.58 492.33 992.58 492.33 1092.5 553.99 1092.5 553.99 992.58 553.99 982.04 553.99 940.76 442.37 940.76"/><rect class="cls-6" x="442.37" y="1092.5" width="111.61" height="54.88"/><text class="cls-9" transform="translate(474.34 1125.68)"><tspan x="0" y="0">203</tspan></text></g><g id="Layer_A.H.U"><polygon class="cls-7" points="323.06 1111.73 323.06 1073.54 210.57 1073.54 210.57 1137.16 210.57 1144.23 210.57 1148.11 219.66 1148.11 219.66 1194.09 316.69 1194.09 316.69 1144.23 323.06 1144.23 402.35 1144.23 402.35 1111.73 323.06 1111.73"/><rect class="cls-7" x="321.56" y="1073.54" width="80.79" height="38.2"/><text class="cls-9" transform="translate(232.65 1125.51)"><tspan x="0" y="0">A.H</tspan><tspan class="cls-11" x="42.33" y="0">.</tspan><tspan x="48.66" y="0">U</tspan></text></g><g id="Layer_205"><polygon class="cls-7" points="232.98 923.74 232.98 942.52 210.57 942.52 210.57 1073.54 402.35 1073.54 402.35 942.52 402.35 923.74 232.98 923.74"/><text class="cls-9" transform="translate(282.87 1007.49)"><tspan x="0" y="0">205</tspan></text></g><g id="Layer_206"><rect class="cls-7" x="239.31" y="642.5" width="173.94" height="222.73"/><text class="cls-9" transform="translate(302.45 742.23)"><tspan x="0" y="0">206</tspan></text><text class="cls-10" transform="translate(266.97 768.52)"><tspan x="0" y="0">이윤재 강의실</tspan></text></g><g id="Layer_207"><rect class="cls-7" x="239.31" y="474.58" width="173.94" height="167.92"/><text class="cls-9" transform="translate(303.44 553.69)"><tspan x="0" y="0">207</tspan></text><text class="cls-10" transform="translate(266.97 579.7)"><tspan x="0" y="0">이양섭 강의실</tspan></text></g><g id="Layer_208"><rect class="cls-8" x="211.47" y="241.86" width="201.77" height="232.72"/><text class="cls-9" transform="translate(288.41 345.21)"><tspan x="0" y="0">208</tspan></text><text class="cls-10" transform="translate(262.61 371.22)"><tspan x="0" y="0">상일 강의실</tspan></text><rect class="cls-1" x="566.39" y="588.86" width="314.4" height="203.7"/></g><g id="Layer_toilet1"><polygon class="cls-2" points="470.25 342.35 470.25 429.8 470.25 435.07 528.06 435.07 528.06 429.8 567.2 429.8 567.2 342.35 470.25 342.35"/><rect class="cls-2" x="1476.51" y="442.98" width="113.21" height="93.56"/></g><g id="Layer_210"><rect class="cls-8" x="649.79" y="345.21" width="164.94" height="184.55"/><text class="cls-9" transform="translate(709.57 428.73)"><tspan x="0" y="0">210</tspan></text><text class="cls-10" transform="translate(674.09 458.1)"><tspan x="0" y="0">유상옥 강의실</tspan></text></g><g id="Layer_211"><rect class="cls-8" x="814.73" y="428.73" width="52.76" height="59.99"/><text class="cls-9" transform="translate(822.12 464.57)"><tspan x="0" y="0">211</tspan></text></g><g id="Layer_212"><polygon class="cls-6" points="877.07 346.39 867.5 346.39 856.43 346.39 814.73 346.39 814.73 428.73 867.5 428.73 867.5 407.22 877.07 407.22 877.07 346.39"/><text class="cls-9" transform="translate(823.34 387.56)"><tspan x="0" y="0">212</tspan></text></g><g id="Layer_213"><polygon class="cls-6" points="877.07 346.39 877.07 407.07 885.1 407.07 885.1 428.73 931.65 428.73 931.65 407.07 931.65 396.52 931.65 346.39 877.07 346.39"/><text class="cls-9" transform="translate(883.08 387.56)"><tspan x="0" y="0">213</tspan></text></g><g id="Layer_214"><rect class="cls-6" x="885.1" y="428.73" width="46.55" height="58.5"/><text class="cls-9" transform="translate(887.16 464.57)"><tspan x="0" y="0">214</tspan></text></g><g id="Layer_216"><rect class="cls-6" x="931.65" y="346.39" width="171.58" height="183.37"/><text class="cls-9" transform="translate(996.17 427.22)"><tspan x="0" y="0">216</tspan></text><text class="cls-10" transform="translate(967.61 458.72)"><tspan x="0" y="0">마루 강의실</tspan></text></g><g id="Layer_217"><rect class="cls-6" x="1103.23" y="346.39" width="171.58" height="183.37"/><text class="cls-9" transform="translate(1168.73 427.22)"><tspan x="0" y="0">217</tspan></text><text class="cls-10" transform="translate(1129.71 458.72)"><tspan x="0" y="0">김승유 강의실</tspan></text></g><g id="Layer_218"><rect class="cls-6" x="1274.8" y="346.39" width="171.58" height="183.37"/><text class="cls-9" transform="translate(1339.11 427.22)"><tspan x="0" y="0">218</tspan></text><text class="cls-10" transform="translate(1301.28 458.72)"><tspan x="0" y="0">구자훈 강의실</tspan></text></g><g id="Layer_A.H.U-2"><rect class="cls-6" x="1486.02" y="346.39" width="142.54" height="96.59"/><text class="cls-9" transform="translate(1524.07 403.33)"><tspan x="0" y="0">A.H</tspan><tspan class="cls-11" x="42.33" y="0">.</tspan><tspan x="48.66" y="0">U</tspan></text></g><g id="Layer_toilet2"><rect class="cls-2" x="470.25" y="297.24" width="96.95" height="45.1"/></g><g id="Layer_이명박라운지"><text class="cls-9" transform="translate(661.02 711.02)"><tspan x="0" y="0">이명박라운지</tspan></text><polyline class="cls-3" points="635.03 606.42 635.03 627.02 817.73 627.02 817.73 606.42"/></g></svg>