<?xml version="1.0" encoding="UTF-8"?><svg xmlns="http://www.w3.org/2000/svg" viewBox="0 0 1920 1080"><g id="Layer_border"><polygon points="869 827 869 808 273 808 273 430 705 430 705 136 1178 136 1178 430 1573 430 1573 808 1001 808 1001 827 869 827" fill="#fdf3f2"/><path d="m1173,141v294h395v368h-572v19h-122v-19H278v-368h432V141h463m10-10h-483v294h-432v388h596v19h142v-19h572v-388h-395V131h0Z" fill="#e18686"/><rect x="198" y="554" width="74" height="136" fill="#fdf3f2"/><path d="m267,559v126h-64v-126h64m10-10h-84v146h84v-146h0Z" fill="#e18686"/><rect x="1577.5" y="557.5" width="71" height="129" fill="#fdf3f2"/><path d="m1647,559v126h-68v-126h68m3-3h-74v132h74v-132h0Z" fill="#e18686"/><polygon points="845.5 858.5 845.5 808.5 867.5 808.5 867.5 831.5 1003.5 831.5 1003.5 808.5 1025.5 808.5 1025.5 858.5 845.5 858.5" fill="#fdf3f2"/><path d="m1024,810v47h-177v-47h19v23h139v-23h19m3-3h-25v23h-133v-23h-25v53h183v-53h0Z" fill="#e18686"/></g><g id="Layer_others"><rect x="801.5" y="495.5" width="93" height="137" fill="none" stroke="#e18686" stroke-miterlimit="10" stroke-width="3"/><rect x="801.5" y="495.5" width="93" height="34" fill="none" stroke="#e18686" stroke-miterlimit="10" stroke-width="3"/><rect x="804.89" y="552.62" width="102" height="56.76" transform="translate(274.89 1436.89) rotate(-90)" fill="none" stroke="#e18686" stroke-miterlimit="10" stroke-width="2.99"/><line x1="827.51" y1="609.13" x2="884.27" y2="609.13" fill="none" stroke="#e18686" stroke-miterlimit="10" stroke-width="2.99"/><line x1="827.51" y1="600.05" x2="884.27" y2="600.05" fill="none" stroke="#e18686" stroke-miterlimit="10" stroke-width="2.99"/><line x1="827.51" y1="590.98" x2="884.27" y2="590.98" fill="none" stroke="#e18686" stroke-miterlimit="10" stroke-width="2.99"/><line x1="827.51" y1="581.91" x2="884.27" y2="581.91" fill="none" stroke="#e18686" stroke-miterlimit="10" stroke-width="2.99"/><line x1="827.51" y1="572.83" x2="884.27" y2="572.83" fill="none" stroke="#e18686" stroke-miterlimit="10" stroke-width="2.99"/><line x1="827.51" y1="563.76" x2="884.27" y2="563.76" fill="none" stroke="#e18686" stroke-miterlimit="10" stroke-width="2.99"/><line x1="827.51" y1="554.68" x2="884.27" y2="554.68" fill="none" stroke="#e18686" stroke-miterlimit="10" stroke-width="2.99"/><line x1="827.51" y1="545.61" x2="884.27" y2="545.61" fill="none" stroke="#e18686" stroke-miterlimit="10" stroke-width="2.99"/><line x1="827.51" y1="536.54" x2="884.27" y2="536.54" fill="none" stroke="#e18686" stroke-miterlimit="10" stroke-width="2.99"/><rect x="984.5" y="499.5" width="49" height="138" fill="none" stroke="#e18686" stroke-miterlimit="10" stroke-width="3"/><rect x="992.5" y="550.5" width="29" height="29" fill="none" stroke="#e18686" stroke-miterlimit="10" stroke-width="3"/><rect x="992.5" y="590.5" width="29" height="29" fill="none" stroke="#e18686" stroke-miterlimit="10" stroke-width="3"/><rect x="1174" y="434.5" width="62.5" height="65" fill="none" stroke="#e18686" stroke-miterlimit="10" stroke-width="3"/><rect x="170.31" y="588.69" width="127.92" height="66.55" transform="translate(856.24 387.69) rotate(90)" fill="none" stroke="#e18686" stroke-miterlimit="10" stroke-width="3"/><line x1="267.55" y1="569.21" x2="201" y2="569.21" fill="none" stroke="#e18686" stroke-miterlimit="10" stroke-width="3"/><line x1="267.55" y1="580.07" x2="201" y2="580.07" fill="none" stroke="#e18686" stroke-miterlimit="10" stroke-width="3"/><line x1="267.55" y1="590.92" x2="201" y2="590.92" fill="none" stroke="#e18686" stroke-miterlimit="10" stroke-width="3"/><line x1="267.55" y1="601.77" x2="201" y2="601.77" fill="none" stroke="#e18686" stroke-miterlimit="10" stroke-width="3"/><line x1="267.55" y1="612.62" x2="201" y2="612.62" fill="none" stroke="#e18686" stroke-miterlimit="10" stroke-width="3"/><line x1="267.55" y1="623.47" x2="201" y2="623.47" fill="none" stroke="#e18686" stroke-miterlimit="10" stroke-width="3"/><line x1="267.55" y1="634.32" x2="201" y2="634.32" fill="none" stroke="#e18686" stroke-miterlimit="10" stroke-width="3"/><line x1="267.55" y1="645.17" x2="201" y2="645.17" fill="none" stroke="#e18686" stroke-miterlimit="10" stroke-width="3"/><line x1="267.55" y1="656.02" x2="201" y2="656.02" fill="none" stroke="#e18686" stroke-miterlimit="10" stroke-width="3"/><line x1="267.55" y1="666.87" x2="201" y2="666.87" fill="none" stroke="#e18686" stroke-miterlimit="10" stroke-width="3"/><line x1="267.55" y1="677.73" x2="201" y2="677.73" fill="none" stroke="#e18686" stroke-miterlimit="10" stroke-width="3"/><rect x="1549.3" y="588.83" width="127.8" height="66.55" transform="translate(2235.3 -991.09) rotate(90)" fill="none" stroke="#e18686" stroke-miterlimit="10" stroke-width="3"/><line x1="1646.47" y1="569.41" x2="1579.92" y2="569.41" fill="none" stroke="#e18686" stroke-miterlimit="10" stroke-width="3"/><line x1="1646.47" y1="580.25" x2="1579.92" y2="580.25" fill="none" stroke="#e18686" stroke-miterlimit="10" stroke-width="3"/><line x1="1646.47" y1="591.09" x2="1579.92" y2="591.09" fill="none" stroke="#e18686" stroke-miterlimit="10" stroke-width="3"/><line x1="1646.47" y1="601.93" x2="1579.92" y2="601.93" fill="none" stroke="#e18686" stroke-miterlimit="10" stroke-width="3"/><line x1="1646.47" y1="612.77" x2="1579.92" y2="612.77" fill="none" stroke="#e18686" stroke-miterlimit="10" stroke-width="3"/><line x1="1646.47" y1="623.61" x2="1579.92" y2="623.61" fill="none" stroke="#e18686" stroke-miterlimit="10" stroke-width="3"/><line x1="1646.47" y1="634.45" x2="1579.92" y2="634.45" fill="none" stroke="#e18686" stroke-miterlimit="10" stroke-width="3"/><line x1="1646.47" y1="645.29" x2="1579.92" y2="645.29" fill="none" stroke="#e18686" stroke-miterlimit="10" stroke-width="3"/><line x1="1646.47" y1="656.13" x2="1579.92" y2="656.13" fill="none" stroke="#e18686" stroke-miterlimit="10" stroke-width="3"/><line x1="1646.47" y1="666.97" x2="1579.92" y2="666.97" fill="none" stroke="#e18686" stroke-miterlimit="10" stroke-width="3"/><line x1="1646.47" y1="677.81" x2="1579.92" y2="677.81" fill="none" stroke="#e18686" stroke-miterlimit="10" stroke-width="3"/></g><g id="Layer_toilet2"><rect x="1033.5" y="499.5" width="140" height="138" transform="translate(2207 1137) rotate(180)" fill="none" stroke="#e18686" stroke-miterlimit="10" stroke-width="3"/></g><g id="Layer_toilet1"><rect x="1174" y="499.5" width="62.5" height="138" fill="none" stroke="#e18686" stroke-miterlimit="10" stroke-width="3"/></g><g id="Layer_401A"><rect x="1006.5" y="350.5" width="167" height="149" fill="#f8cdce" stroke="#e18686" stroke-miterlimit="10" stroke-width="3"/><text transform="translate(1059.93 432.72)" fill="#434142" font-family="NanumSquareNeovariable-Heavy, &apos;NanumSquare Neo variable&apos;" font-size="22" font-variation-settings="&apos;wght&apos; 900" font-weight="800"><tspan x="0" y="0">401A</tspan></text></g><g id="Layer_401B"><rect x="1006.5" y="245.5" width="167" height="105" fill="#f8cdce" stroke="#e18686" stroke-miterlimit="10" stroke-width="3"/><g fill="none" opacity=".6"><text transform="translate(1059.67 305.46)" fill="#434142" font-family="NanumSquareNeovariable-Heavy, &apos;NanumSquare Neo variable&apos;" font-size="22" font-variation-settings="&apos;wght&apos; 900" font-weight="800"><tspan x="0" y="0">401B</tspan></text></g></g><g id="Layer_304"><rect x="1006.5" y="141.5" width="167" height="104" fill="#f8cdce" opacity=".6" stroke="#e18686" stroke-miterlimit="10" stroke-width="3"/><g fill="none" opacity=".6"><text transform="translate(1059.41 201.46)" fill="#434142" font-family="NanumSquareNeovariable-Heavy, &apos;NanumSquare Neo variable&apos;" font-size="22" font-variation-settings="&apos;wght&apos; 900" font-weight="800"><tspan x="0" y="0">401C</tspan></text></g></g><g id="Layer_340"><polygon points="711.12 139.5 711.12 207.5 711.12 208 711.12 265.5 711.12 266 711.12 323.5 711.12 324 711.12 381.5 711.12 382 711.12 434 942.62 434 942.62 382 942.62 381.5 942.62 324 942.62 323.5 942.62 266 942.62 265.5 942.62 208 942.62 207.5 942.62 139.5 711.12 139.5" fill="#f8cdce" stroke="#e18686" stroke-miterlimit="10" stroke-width="3"/><g fill="none" opacity=".6"><text transform="translate(805.88 297.54)" fill="#434142" font-family="NanumSquareNeovariable-Heavy, &apos;NanumSquare Neo variable&apos;" font-size="22" font-variation-settings="&apos;wght&apos; 900" font-weight="800"><tspan x="0" y="0">401</tspan></text></g></g><g id="Layer_305"><rect x="851" y="434.44" width="44" height="94.06" fill="#f8cdce" stroke="#e18686" stroke-miterlimit="10" stroke-width="3"/><text transform="translate(848.71 488.4)" fill="#434142" font-family="NanumSquareNeovariable-Heavy, &apos;NanumSquare Neo variable&apos;" font-size="22" font-variation-settings="&apos;wght&apos; 900" font-weight="800"><tspan x="0" y="0">438</tspan></text></g><g id="Layer_402"><rect x="658.5" y="435.04" width="143" height="196.96" fill="#f8cdce" stroke="#e18686" stroke-miterlimit="10" stroke-width="3"/><text transform="translate(706.19 541.54)" fill="#434142" font-family="NanumSquareNeovariable-Heavy, &apos;NanumSquare Neo variable&apos;" font-size="22" font-variation-settings="&apos;wght&apos; 900" font-weight="800"><tspan x="0" y="0">402</tspan></text></g><g id="Layer_403"><rect x="521.5" y="435.04" width="137" height="196.96" transform="translate(1180 1067.04) rotate(180)" fill="#f8cdce" stroke="#e18686" stroke-miterlimit="10" stroke-width="3"/><text transform="translate(565.93 541.54)" fill="#434142" font-family="NanumSquareNeovariable-Heavy, &apos;NanumSquare Neo variable&apos;" font-size="22" font-variation-settings="&apos;wght&apos; 900" font-weight="800"><tspan x="0" y="0">403</tspan></text></g><g id="Layer_308"><rect x="443.5" y="435.41" width="78" height="196.96" transform="translate(965 1067.79) rotate(180)" fill="#f8cdce" stroke="#e18686" stroke-miterlimit="10" stroke-width="3"/><text transform="translate(459 541.92)" fill="#434142" font-family="NanumSquareNeovariable-Heavy, &apos;NanumSquare Neo variable&apos;" font-size="22" font-variation-settings="&apos;wght&apos; 900" font-weight="800"><tspan x="0" y="0">404</tspan></text></g><g id="Layer_405A"><rect x="365.5" y="435.41" width="78" height="196.96" transform="translate(809 1067.79) rotate(180)" fill="#f8cdce" stroke="#e18686" stroke-miterlimit="10" stroke-width="3"/><text transform="translate(372.41 541.92)" fill="#434142" font-family="NanumSquareNeovariable-Heavy, &apos;NanumSquare Neo variable&apos;" font-size="22" font-variation-settings="&apos;wght&apos; 900" font-weight="800"><tspan x="0" y="0">405A</tspan></text></g><g id="Layer_405B"><rect x="278.5" y="435.41" width="87" height="196.96" transform="translate(644 1067.79) rotate(180)" fill="#f8cdce" stroke="#e18686" stroke-miterlimit="10" stroke-width="3"/><text transform="translate(290.82 541.92)" fill="#434142" font-family="NanumSquareNeovariable-Heavy, &apos;NanumSquare Neo variable&apos;" font-size="22" font-variation-settings="&apos;wght&apos; 900" font-weight="800"><tspan x="0" y="0">405B</tspan></text></g><g id="Layer_311"><rect x="278.5" y="681.36" width="87" height="122.14" transform="translate(644 1484.86) rotate(180)" fill="#f8cdce" stroke="#e18686" stroke-miterlimit="10" stroke-width="3"/><text transform="translate(298.94 747.86)" fill="#434142" font-family="NanumSquareNeovariable-Heavy, &apos;NanumSquare Neo variable&apos;" font-size="22" font-variation-settings="&apos;wght&apos; 900" font-weight="800"><tspan x="0" y="0">406</tspan></text></g><g id="Layer_312"><rect x="364.5" y="681.36" width="47" height="122.14" transform="translate(776 1484.86) rotate(180)" fill="#f8cdce" stroke="#e18686" stroke-miterlimit="10" stroke-width="3"/><text transform="translate(369.12 747.86)" fill="#434142" font-family="NanumSquareNeovariable-Heavy, &apos;NanumSquare Neo variable&apos;" font-size="18" font-variation-settings="&apos;wght&apos; 900" font-weight="800"><tspan x="0" y="0">407</tspan></text></g><g id="Layer_313"><rect x="410.5" y="681.36" width="47" height="122.14" transform="translate(868 1484.86) rotate(180)" fill="#f8cdce" stroke="#e18686" stroke-miterlimit="10" stroke-width="3"/><text transform="translate(414.14 747.86)" fill="#434142" font-family="NanumSquareNeovariable-Heavy, &apos;NanumSquare Neo variable&apos;" font-size="18" font-variation-settings="&apos;wght&apos; 900" font-weight="800"><tspan x="0" y="0">408</tspan></text></g><g id="Layer_314"><rect x="457.5" y="681.36" width="61" height="122.14" transform="translate(976 1484.86) rotate(180)" fill="#f8cdce" stroke="#e18686" stroke-miterlimit="10" stroke-width="3"/><text transform="translate(468.31 747.86)" fill="#434142" font-family="NanumSquareNeovariable-Heavy, &apos;NanumSquare Neo variable&apos;" font-size="18" font-variation-settings="&apos;wght&apos; 900" font-weight="800"><tspan x="0" y="0">409</tspan></text></g><g id="Layer_315"><rect x="518.5" y="681.36" width="66" height="122.14" transform="translate(1103 1484.86) rotate(180)" fill="#f8cdce" stroke="#e18686" stroke-miterlimit="10" stroke-width="3"/><text transform="translate(534.35 747.86)" fill="#434142" font-family="NanumSquareNeovariable-Heavy, &apos;NanumSquare Neo variable&apos;" font-size="18" font-variation-settings="&apos;wght&apos; 900" font-weight="800"><tspan x="0" y="0" letter-spacing="-.02em">4</tspan><tspan x="12.53" y="0">10</tspan></text></g><g id="Layer_316"><rect x="584.5" y="681.36" width="45" height="122.14" fill="#f8cdce" stroke="#e18686" stroke-miterlimit="10" stroke-width="3"/><text transform="translate(591.44 747.86)" fill="#434142" font-family="NanumSquareNeovariable-Heavy, &apos;NanumSquare Neo variable&apos;" font-size="18" font-variation-settings="&apos;wght&apos; 900" font-weight="800"><tspan x="0" y="0" letter-spacing="-.02em">4</tspan><tspan x="12.53" y="0">11</tspan></text></g><g id="Layer_317"><rect x="628.5" y="681.36" width="45" height="122.14" fill="#f8cdce" stroke="#e18686" stroke-miterlimit="10" stroke-width="3"/><text transform="translate(633.78 747.86)" fill="#434142" font-family="NanumSquareNeovariable-Heavy, &apos;NanumSquare Neo variable&apos;" font-size="18" font-variation-settings="&apos;wght&apos; 900" font-weight="800"><tspan x="0" y="0" letter-spacing="-.02em">4</tspan><tspan x="12.53" y="0">12</tspan></text></g><g id="Layer_318"><rect x="673.5" y="681.36" width="60" height="122.14" fill="#f8cdce" stroke="#e18686" stroke-miterlimit="10" stroke-width="3"/><text transform="translate(686.57 746.86)" fill="#434142" font-family="NanumSquareNeovariable-Heavy, &apos;NanumSquare Neo variable&apos;" font-size="18" font-variation-settings="&apos;wght&apos; 900" font-weight="800"><tspan x="0" y="0" letter-spacing="-.02em">4</tspan><tspan x="12.53" y="0">13</tspan></text></g><g id="Layer_319"><rect x="733.5" y="681.36" width="60" height="122.14" fill="#f8cdce" stroke="#e18686" stroke-miterlimit="10" stroke-width="3"/><text transform="translate(746.62 746.86)" fill="#434142" font-family="NanumSquareNeovariable-Heavy, &apos;NanumSquare Neo variable&apos;" font-size="18" font-variation-settings="&apos;wght&apos; 900" font-weight="800"><tspan x="0" y="0" letter-spacing="-.02em">4</tspan><tspan x="12.53" y="0">14</tspan></text></g><g id="Layer_320"><rect x="793.5" y="681.36" width="40.16" height="122.14" fill="#f8cdce" stroke="#e18686" stroke-miterlimit="10" stroke-width="3"/><text transform="translate(798.69 746.86)" fill="#434142" font-family="NanumSquareNeovariable-Heavy, &apos;NanumSquare Neo variable&apos;" font-size="16" font-variation-settings="&apos;wght&apos; 900" font-weight="800"><tspan x="0" y="0" letter-spacing="-.02em">4</tspan><tspan x="11.14" y="0">15</tspan></text></g><g id="Layer_321"><rect x="832.84" y="681.36" width="40.16" height="122.14" fill="#f8cdce" stroke="#e18686" stroke-miterlimit="10" stroke-width="3"/><text transform="translate(837.51 746.86)" fill="#434142" font-family="NanumSquareNeovariable-Heavy, &apos;NanumSquare Neo variable&apos;" font-size="16" font-variation-settings="&apos;wght&apos; 900" font-weight="800"><tspan x="0" y="0" letter-spacing="-.02em">4</tspan><tspan x="11.14" y="0" letter-spacing="0em">16</tspan></text></g><g id="Layer_322"><rect x="872.84" y="681.36" width="63.65" height="143.64" fill="#f8cdce" stroke="#e18686" stroke-miterlimit="10" stroke-width="3"/><text transform="translate(887.39 747.86)" fill="#434142" font-family="NanumSquareNeovariable-Heavy, &apos;NanumSquare Neo variable&apos;" font-size="18" font-variation-settings="&apos;wght&apos; 900" font-weight="800"><tspan x="0" y="0" letter-spacing="-.02em">4</tspan><tspan x="12.53" y="0">17</tspan></text></g><g id="Layer_323"><rect x="936.35" y="681.36" width="63.65" height="143.64" fill="#f8cdce" stroke="#e18686" stroke-miterlimit="10" stroke-width="3"/><text transform="translate(950.41 747.86)" fill="#434142" font-family="NanumSquareNeovariable-Heavy, &apos;NanumSquare Neo variable&apos;" font-size="18" font-variation-settings="&apos;wght&apos; 900" font-weight="800"><tspan x="0" y="0" letter-spacing="-.02em">4</tspan><tspan x="12.53" y="0">18</tspan></text></g><g id="Layer_324"><rect x="999.35" y="681.36" width="55.15" height="122.14" fill="#f8cdce" stroke="#e18686" stroke-miterlimit="10" stroke-width="3"/><text transform="translate(1009.58 747.86)" fill="#434142" font-family="NanumSquareNeovariable-Heavy, &apos;NanumSquare Neo variable&apos;" font-size="18" font-variation-settings="&apos;wght&apos; 900" font-weight="800"><tspan x="0" y="0" letter-spacing="-.02em">4</tspan><tspan x="12.53" y="0">19</tspan></text></g><g id="Layer_325"><rect x="1054.35" y="681.36" width="42.15" height="122.14" fill="#f8cdce" stroke="#e18686" stroke-miterlimit="10" stroke-width="3"/><text transform="translate(1058.67 747.86)" fill="#434142" font-family="NanumSquareNeovariable-Heavy, &apos;NanumSquare Neo variable&apos;" font-size="16" font-variation-settings="&apos;wght&apos; 900" font-weight="800"><tspan x="0" y="0">420</tspan></text></g><g id="Layer_326"><rect x="1096.35" y="681.36" width="63.15" height="122.14" fill="#f8cdce" stroke="#e18686" stroke-miterlimit="10" stroke-width="3"/><text transform="translate(1110.6 747.86)" fill="#434142" font-family="NanumSquareNeovariable-Heavy, &apos;NanumSquare Neo variable&apos;" font-size="18" font-variation-settings="&apos;wght&apos; 900" font-weight="800"><tspan x="0" y="0">421</tspan></text></g><g id="Layer_327"><rect x="1210.5" y="681.36" width="39" height="122.14" fill="#f8cdce" stroke="#e18686" stroke-miterlimit="10" stroke-width="3"/><text transform="translate(1212.86 747.86)" fill="#434142" font-family="NanumSquareNeovariable-Heavy, &apos;NanumSquare Neo variable&apos;" font-size="16" font-variation-settings="&apos;wght&apos; 900" font-weight="800"><tspan x="0" y="0">423</tspan></text></g><g id="Layer_328"><rect x="1249.35" y="681.36" width="45.15" height="122.14" fill="#f8cdce" stroke="#e18686" stroke-miterlimit="10" stroke-width="3"/><text transform="translate(1255.15 747.86)" fill="#434142" font-family="NanumSquareNeovariable-Heavy, &apos;NanumSquare Neo variable&apos;" font-size="16" font-variation-settings="&apos;wght&apos; 900" font-weight="800"><tspan x="0" y="0">4</tspan><tspan x="11.46" y="0" letter-spacing="-.03em">2</tspan><tspan x="22.16" y="0">4</tspan></text></g><g id="Layer_329"><rect x="1294.5" y="681.36" width="63" height="122.14" fill="#f8cdce" stroke="#e18686" stroke-miterlimit="10" stroke-width="3"/><text transform="translate(1310.04 747.86)" fill="#434142" font-family="NanumSquareNeovariable-Heavy, &apos;NanumSquare Neo variable&apos;" font-size="16" font-variation-settings="&apos;wght&apos; 900" font-weight="800"><tspan x="0" y="0">425</tspan></text></g><g id="Layer_330"><rect x="1358.35" y="681.36" width="61.15" height="122.14" fill="#f8cdce" stroke="#e18686" stroke-miterlimit="10" stroke-width="3"/><text transform="translate(1369.73 747.86)" fill="#434142" font-family="NanumSquareNeovariable-Heavy, &apos;NanumSquare Neo variable&apos;" font-size="18" font-variation-settings="&apos;wght&apos; 900" font-weight="800"><tspan x="0" y="0">426</tspan></text></g><g id="Layer_331"><rect x="1420.5" y="681.36" width="42" height="122.14" fill="#f8cdce" stroke="#e18686" stroke-miterlimit="10" stroke-width="3"/><text transform="translate(1423.54 747.86)" fill="#434142" font-family="NanumSquareNeovariable-Heavy, &apos;NanumSquare Neo variable&apos;" font-size="18" font-variation-settings="&apos;wght&apos; 900" font-weight="800"><tspan x="0" y="0">427</tspan></text></g><g id="Layer_333"><rect x="1463.35" y="681.36" width="40.15" height="122.14" fill="#f8cdce" stroke="#e18686" stroke-miterlimit="10" stroke-width="3"/><text transform="translate(1466.72 747.86)" fill="#434142" font-family="NanumSquareNeovariable-Heavy, &apos;NanumSquare Neo variable&apos;" font-size="16" font-variation-settings="&apos;wght&apos; 900" font-weight="800"><tspan x="0" y="0">428</tspan></text></g><g id="Layer_334"><rect x="1503.5" y="681.36" width="64" height="122.14" fill="#f8cdce" stroke="#e18686" stroke-miterlimit="10" stroke-width="3"/><text transform="translate(1516.73 747.86)" fill="#434142" font-family="NanumSquareNeovariable-Heavy, &apos;NanumSquare Neo variable&apos;" font-size="18" font-variation-settings="&apos;wght&apos; 900" font-weight="800"><tspan x="0" y="0">429</tspan></text></g><g id="Layer_335"><rect x="1509.5" y="435.34" width="57.71" height="177.66" fill="#f8cdce" stroke="#e18686" stroke-miterlimit="10" stroke-width="3"/><text transform="translate(1519.01 529.84)" fill="#434142" font-family="NanumSquareNeovariable-Heavy, &apos;NanumSquare Neo variable&apos;" font-size="18" font-variation-settings="&apos;wght&apos; 900" font-weight="800"><tspan x="0" y="0">430</tspan></text></g><g id="Layer_336"><rect x="1439.5" y="435.34" width="69.71" height="177.66" fill="#f8cdce" stroke="#e18686" stroke-miterlimit="10" stroke-width="3"/><text transform="translate(1457.19 529.84)" fill="#434142" font-family="NanumSquareNeovariable-Heavy, &apos;NanumSquare Neo variable&apos;" font-size="18" font-variation-settings="&apos;wght&apos; 900" font-weight="800"><tspan x="0" y="0">4</tspan><tspan x="12.89" y="0" letter-spacing="0em">3</tspan><tspan x="25.7" y="0" letter-spacing="0em">1</tspan></text></g><g id="Layer_337"><rect x="1373.5" y="435.34" width="69.71" height="177.66" fill="#f8cdce" stroke="#e18686" stroke-miterlimit="10" stroke-width="3"/><text transform="translate(1389.43 529.84)" fill="#434142" font-family="NanumSquareNeovariable-Heavy, &apos;NanumSquare Neo variable&apos;" font-size="18" font-variation-settings="&apos;wght&apos; 900" font-weight="800"><tspan x="0" y="0">432</tspan></text></g><g id="Layer_338"><rect x="1303.5" y="435.34" width="71.71" height="177.66" fill="#f8cdce" stroke="#e18686" stroke-miterlimit="10" stroke-width="3"/><text transform="translate(1320.22 529.84)" fill="#434142" font-family="NanumSquareNeovariable-Heavy, &apos;NanumSquare Neo variable&apos;" font-size="18" font-variation-settings="&apos;wght&apos; 900" font-weight="800"><tspan x="0" y="0">433</tspan></text></g><g id="Layer_339"><rect x="1236.5" y="435.34" width="67" height="177.66" fill="#f8cdce" stroke="#e18686" stroke-miterlimit="10" stroke-width="3"/><text transform="translate(1250.22 529.84)" fill="#434142" font-family="NanumSquareNeovariable-Heavy, &apos;NanumSquare Neo variable&apos;" font-size="18" font-variation-settings="&apos;wght&apos; 900" font-weight="800"><tspan x="0" y="0">433</tspan></text></g><g id="_레이어_49"><rect x="1159.5" y="681.36" width="51" height="122.14" fill="#f8cdce" stroke="#e18686" stroke-miterlimit="10" stroke-width="2.7"/><text transform="translate(1165.93 747.86)" fill="#434142" font-family="NanumSquareNeovariable-Heavy, &apos;NanumSquare Neo variable&apos;" font-size="18" font-variation-settings="&apos;wght&apos; 900" font-weight="800"><tspan x="0" y="0">422</tspan></text></g></svg>