<?xml version="1.0" encoding="UTF-8"?><svg
  xmlns="http://www.w3.org/2000/svg"
  viewBox="0 0 1100 1600"
>
  <g id="Layer_border">
    <path
      d="m851.63,939.28c-65.52-65.52-131.04-131.04-196.56-196.56l-125.58-212.22c-12.67,6.67-25.33,13.33-38,20,9.5,13.47,19,26.94,28.5,40.41l-.47-.47c-28.18-33.48-56.35-66.96-84.53-100.44-22.67-22.33-45.33-44.67-68-67-11.23-8.28-22.46-16.56-33.69-24.85l25-35.83-134.38-100.07-124.18,127.09c13.3,16.41,26.6,32.82,39.9,49.23l-.1.1c30.81,40.11,61.63,80.22,92.44,120.33l78,78c6.17,4.76,12.33,9.52,18.5,14.28v300.72h186v473.5h338v-451.41l-.87-34.81Z"
      fill="#fdf3f2"
      stroke="#e18686"
      stroke-linecap="round"
      stroke-linejoin="round"
      stroke-width="5.18"
    />
    <path
      d="m359.5,206.5c-20.33,20.67-40.67,41.33-61,62,63.67,63.67,127.33,127.33,191,191,13.33,23.67,26.67,47.33,40,71"
      fill="none"
      stroke="#e18686"
      stroke-linecap="round"
      stroke-linejoin="round"
      stroke-width="5.18"
    />
    <path
      d="m320.5,165.5c-32.33,32.33-64.67,64.67-97,97"
      fill="none"
      stroke="#e18686"
      stroke-linecap="round"
      stroke-linejoin="round"
      stroke-width="5.18"
    />
  </g>
  <g id="Layer_others">
    <rect
      x="520.25"
      y="829.5"
      width="139"
      height="46"
      fill="none"
      stroke="#e18686"
      stroke-miterlimit="10"
      stroke-width="2"
    />
    <rect
      x="532.25"
      y="843.5"
      width="35"
      height="25"
      fill="none"
      stroke="#e18686"
      stroke-miterlimit="10"
      stroke-width="2"
    />
    <rect
      x="573.25"
      y="843.5"
      width="35"
      height="25"
      fill="none"
      stroke="#e18686"
      stroke-miterlimit="10"
      stroke-width="2"
    />
    <rect
      x="614.25"
      y="843.5"
      width="35"
      height="25"
      fill="none"
      stroke="#e18686"
      stroke-miterlimit="10"
      stroke-width="2"
    />
    <rect
      x="572"
      y="796"
      width="35"
      height="25"
      transform="translate(1398 219) rotate(90)"
      fill="none"
      stroke="#e18686"
      stroke-miterlimit="10"
      stroke-width="2"
    />
    <rect
      x="520"
      y="777"
      width="52"
      height="53"
      fill="none"
      stroke="#e18686"
      stroke-miterlimit="10"
      stroke-width="2"
    />
    <rect
      x="508.48"
      y="980.64"
      width="55.92"
      height="22.8"
      transform="translate(-455.6 1528.48) rotate(-90)"
      fill="none"
      stroke="#e18686"
      stroke-miterlimit="10"
      stroke-width="2"
    />
    <line
      x1="525.45"
      y1="995.42"
      x2="548.25"
      y2="995.42"
      fill="none"
      stroke="#e18686"
      stroke-miterlimit="10"
      stroke-width="2"
    />
    <line
      x1="525.45"
      y1="991.44"
      x2="548.25"
      y2="991.44"
      fill="none"
      stroke="#e18686"
      stroke-miterlimit="10"
      stroke-width="2"
    />
    <line
      x1="525.45"
      y1="987.46"
      x2="548.25"
      y2="987.46"
      fill="none"
      stroke="#e18686"
      stroke-miterlimit="10"
      stroke-width="2"
    />
    <line
      x1="525.45"
      y1="983.48"
      x2="548.25"
      y2="983.48"
      fill="none"
      stroke="#e18686"
      stroke-miterlimit="10"
      stroke-width="2"
    />
    <line
      x1="525.45"
      y1="979.5"
      x2="548.25"
      y2="979.5"
      fill="none"
      stroke="#e18686"
      stroke-miterlimit="10"
      stroke-width="2"
    />
    <line
      x1="525.45"
      y1="975.52"
      x2="548.25"
      y2="975.52"
      fill="none"
      stroke="#e18686"
      stroke-miterlimit="10"
      stroke-width="2"
    />
    <line
      x1="525.45"
      y1="971.54"
      x2="548.25"
      y2="971.54"
      fill="none"
      stroke="#e18686"
      stroke-miterlimit="10"
      stroke-width="2"
    />
    <line
      x1="525.45"
      y1="967.56"
      x2="548.25"
      y2="967.56"
      fill="none"
      stroke="#e18686"
      stroke-miterlimit="10"
      stroke-width="2"
    />
    <line
      x1="525.45"
      y1="1007.42"
      x2="548.25"
      y2="1007.42"
      fill="none"
      stroke="#e18686"
      stroke-miterlimit="10"
      stroke-width="2"
    />
    <line
      x1="525.45"
      y1="1003.44"
      x2="548.25"
      y2="1003.44"
      fill="none"
      stroke="#e18686"
      stroke-miterlimit="10"
      stroke-width="2"
    />
    <line
      x1="525.45"
      y1="999.46"
      x2="548.25"
      y2="999.46"
      fill="none"
      stroke="#e18686"
      stroke-miterlimit="10"
      stroke-width="2"
    />
    <line
      x1="525.45"
      y1="1015.42"
      x2="548.25"
      y2="1015.42"
      fill="none"
      stroke="#e18686"
      stroke-miterlimit="10"
      stroke-width="2"
    />
    <line
      x1="525.45"
      y1="1011.44"
      x2="548.25"
      y2="1011.44"
      fill="none"
      stroke="#e18686"
      stroke-miterlimit="10"
      stroke-width="2"
    />
    <rect
      x="525.25"
      y="942.5"
      width="118"
      height="162"
      fill="none"
      stroke="#e18686"
      stroke-miterlimit="10"
      stroke-width="2"
    />
    <rect
      x="535.48"
      y="980.64"
      width="55.92"
      height="22.8"
      transform="translate(-428.6 1555.48) rotate(-90)"
      fill="none"
      stroke="#e18686"
      stroke-miterlimit="10"
      stroke-width="2"
    />
    <line
      x1="552.45"
      y1="995.42"
      x2="575.25"
      y2="995.42"
      fill="none"
      stroke="#e18686"
      stroke-miterlimit="10"
      stroke-width="2"
    />
    <line
      x1="552.45"
      y1="991.44"
      x2="575.25"
      y2="991.44"
      fill="none"
      stroke="#e18686"
      stroke-miterlimit="10"
      stroke-width="2"
    />
    <line
      x1="552.45"
      y1="987.46"
      x2="575.25"
      y2="987.46"
      fill="none"
      stroke="#e18686"
      stroke-miterlimit="10"
      stroke-width="2"
    />
    <line
      x1="552.45"
      y1="983.48"
      x2="575.25"
      y2="983.48"
      fill="none"
      stroke="#e18686"
      stroke-miterlimit="10"
      stroke-width="2"
    />
    <line
      x1="552.45"
      y1="979.5"
      x2="575.25"
      y2="979.5"
      fill="none"
      stroke="#e18686"
      stroke-miterlimit="10"
      stroke-width="2"
    />
    <line
      x1="552.45"
      y1="975.52"
      x2="575.25"
      y2="975.52"
      fill="none"
      stroke="#e18686"
      stroke-miterlimit="10"
      stroke-width="2"
    />
    <line
      x1="552.45"
      y1="971.54"
      x2="575.25"
      y2="971.54"
      fill="none"
      stroke="#e18686"
      stroke-miterlimit="10"
      stroke-width="2"
    />
    <line
      x1="552.45"
      y1="967.56"
      x2="575.25"
      y2="967.56"
      fill="none"
      stroke="#e18686"
      stroke-miterlimit="10"
      stroke-width="2"
    />
    <line
      x1="552.45"
      y1="1007.42"
      x2="575.25"
      y2="1007.42"
      fill="none"
      stroke="#e18686"
      stroke-miterlimit="10"
      stroke-width="2"
    />
    <line
      x1="552.45"
      y1="1003.44"
      x2="575.25"
      y2="1003.44"
      fill="none"
      stroke="#e18686"
      stroke-miterlimit="10"
      stroke-width="2"
    />
    <line
      x1="552.45"
      y1="999.46"
      x2="575.25"
      y2="999.46"
      fill="none"
      stroke="#e18686"
      stroke-miterlimit="10"
      stroke-width="2"
    />
    <line
      x1="552.45"
      y1="1015.42"
      x2="575.25"
      y2="1015.42"
      fill="none"
      stroke="#e18686"
      stroke-miterlimit="10"
      stroke-width="2"
    />
    <line
      x1="552.45"
      y1="1011.44"
      x2="575.25"
      y2="1011.44"
      fill="none"
      stroke="#e18686"
      stroke-miterlimit="10"
      stroke-width="2"
    />
    <rect
      x="508.48"
      y="1046.64"
      width="55.92"
      height="22.8"
      transform="translate(-521.6 1594.48) rotate(-90)"
      fill="none"
      stroke="#e18686"
      stroke-miterlimit="10"
      stroke-width="2"
    />
    <line
      x1="525.45"
      y1="1061.42"
      x2="548.25"
      y2="1061.42"
      fill="none"
      stroke="#e18686"
      stroke-miterlimit="10"
      stroke-width="2"
    />
    <line
      x1="525.45"
      y1="1057.44"
      x2="548.25"
      y2="1057.44"
      fill="none"
      stroke="#e18686"
      stroke-miterlimit="10"
      stroke-width="2"
    />
    <line
      x1="525.45"
      y1="1053.46"
      x2="548.25"
      y2="1053.46"
      fill="none"
      stroke="#e18686"
      stroke-miterlimit="10"
      stroke-width="2"
    />
    <line
      x1="525.45"
      y1="1049.48"
      x2="548.25"
      y2="1049.48"
      fill="none"
      stroke="#e18686"
      stroke-miterlimit="10"
      stroke-width="2"
    />
    <line
      x1="525.45"
      y1="1045.5"
      x2="548.25"
      y2="1045.5"
      fill="none"
      stroke="#e18686"
      stroke-miterlimit="10"
      stroke-width="2"
    />
    <line
      x1="525.45"
      y1="1041.52"
      x2="548.25"
      y2="1041.52"
      fill="none"
      stroke="#e18686"
      stroke-miterlimit="10"
      stroke-width="2"
    />
    <line
      x1="525.45"
      y1="1037.54"
      x2="548.25"
      y2="1037.54"
      fill="none"
      stroke="#e18686"
      stroke-miterlimit="10"
      stroke-width="2"
    />
    <line
      x1="525.45"
      y1="1033.56"
      x2="548.25"
      y2="1033.56"
      fill="none"
      stroke="#e18686"
      stroke-miterlimit="10"
      stroke-width="2"
    />
    <line
      x1="525.45"
      y1="1073.42"
      x2="548.25"
      y2="1073.42"
      fill="none"
      stroke="#e18686"
      stroke-miterlimit="10"
      stroke-width="2"
    />
    <line
      x1="525.45"
      y1="1069.44"
      x2="548.25"
      y2="1069.44"
      fill="none"
      stroke="#e18686"
      stroke-miterlimit="10"
      stroke-width="2"
    />
    <line
      x1="525.45"
      y1="1065.46"
      x2="548.25"
      y2="1065.46"
      fill="none"
      stroke="#e18686"
      stroke-miterlimit="10"
      stroke-width="2"
    />
    <line
      x1="525.45"
      y1="1081.42"
      x2="548.25"
      y2="1081.42"
      fill="none"
      stroke="#e18686"
      stroke-miterlimit="10"
      stroke-width="2"
    />
    <line
      x1="525.45"
      y1="1077.44"
      x2="548.25"
      y2="1077.44"
      fill="none"
      stroke="#e18686"
      stroke-miterlimit="10"
      stroke-width="2"
    />
    <rect
      x="535.48"
      y="1046.64"
      width="55.92"
      height="22.8"
      transform="translate(-494.6 1621.48) rotate(-90)"
      fill="none"
      stroke="#e18686"
      stroke-miterlimit="10"
      stroke-width="2"
    />
    <line
      x1="552.45"
      y1="1061.42"
      x2="575.25"
      y2="1061.42"
      fill="none"
      stroke="#e18686"
      stroke-miterlimit="10"
      stroke-width="2"
    />
    <line
      x1="552.45"
      y1="1057.44"
      x2="575.25"
      y2="1057.44"
      fill="none"
      stroke="#e18686"
      stroke-miterlimit="10"
      stroke-width="2"
    />
    <line
      x1="552.45"
      y1="1053.46"
      x2="575.25"
      y2="1053.46"
      fill="none"
      stroke="#e18686"
      stroke-miterlimit="10"
      stroke-width="2"
    />
    <line
      x1="552.45"
      y1="1049.48"
      x2="575.25"
      y2="1049.48"
      fill="none"
      stroke="#e18686"
      stroke-miterlimit="10"
      stroke-width="2"
    />
    <line
      x1="552.45"
      y1="1045.5"
      x2="575.25"
      y2="1045.5"
      fill="none"
      stroke="#e18686"
      stroke-miterlimit="10"
      stroke-width="2"
    />
    <line
      x1="552.45"
      y1="1041.52"
      x2="575.25"
      y2="1041.52"
      fill="none"
      stroke="#e18686"
      stroke-miterlimit="10"
      stroke-width="2"
    />
    <line
      x1="552.45"
      y1="1037.54"
      x2="575.25"
      y2="1037.54"
      fill="none"
      stroke="#e18686"
      stroke-miterlimit="10"
      stroke-width="2"
    />
    <line
      x1="552.45"
      y1="1033.56"
      x2="575.25"
      y2="1033.56"
      fill="none"
      stroke="#e18686"
      stroke-miterlimit="10"
      stroke-width="2"
    />
    <line
      x1="552.45"
      y1="1073.42"
      x2="575.25"
      y2="1073.42"
      fill="none"
      stroke="#e18686"
      stroke-miterlimit="10"
      stroke-width="2"
    />
    <line
      x1="552.45"
      y1="1069.44"
      x2="575.25"
      y2="1069.44"
      fill="none"
      stroke="#e18686"
      stroke-miterlimit="10"
      stroke-width="2"
    />
    <line
      x1="552.45"
      y1="1065.46"
      x2="575.25"
      y2="1065.46"
      fill="none"
      stroke="#e18686"
      stroke-miterlimit="10"
      stroke-width="2"
    />
    <line
      x1="552.45"
      y1="1081.42"
      x2="575.25"
      y2="1081.42"
      fill="none"
      stroke="#e18686"
      stroke-miterlimit="10"
      stroke-width="2"
    />
    <line
      x1="552.45"
      y1="1077.44"
      x2="575.25"
      y2="1077.44"
      fill="none"
      stroke="#e18686"
      stroke-miterlimit="10"
      stroke-width="2"
    />
    <rect
      x="578.25"
      y="968.5"
      width="64"
      height="46"
      fill="none"
      stroke="#e18686"
      stroke-miterlimit="10"
      stroke-width="2"
    />
    <rect
      x="578.25"
      y="1020.5"
      width="64"
      height="62"
      fill="none"
      stroke="#e18686"
      stroke-miterlimit="10"
      stroke-width="2"
    />
    <path
      d="m656.2,824.9l-88.44-88.44c-15.92.18-31.84.36-47.76.54v40"
      fill="none"
      stroke="#e18686"
      stroke-miterlimit="10"
      stroke-width="2"
    />
  </g>
  <g id="Layer_toilet1">
    <rect
      x="330"
      y="876.5"
      width="145"
      height="74"
      fill="none"
      stroke="#e18686"
      stroke-miterlimit="10"
      stroke-width="2"
    />
  </g>
  <g id="Layer_toilet2">
    <rect
      x="330"
      y="813"
      width="145"
      height="63.5"
      fill="none"
      stroke="#e18686"
      stroke-miterlimit="10"
      stroke-width="2"
    />
  </g>
  <g id="Layer_401">
    <rect
      x="517"
      y="1119"
      width="152"
      height="61"
      fill="#f8cdce"
      stroke="#e18686"
      stroke-miterlimit="10"
      stroke-width="2"
    />
    <text
      transform="translate(577.41 1153.09)"
      fill="#434142"
      font-family="NanumSquareNeovariable-Heavy, 'NanumSquare Neo variable'"
      font-size="16"
      font-variation-settings="'wght' 900"
      font-weight="800"
    >
      <tspan x="0" y="0">401</tspan>
    </text>
  </g>
  <g id="Layer_402">
    <rect
      x="517"
      y="1179"
      width="152"
      height="61"
      fill="#f8cdce"
      stroke="#e18686"
      stroke-miterlimit="10"
      stroke-width="2"
    />
    <text
      transform="translate(575.93 1213.09)"
      fill="#434142"
      font-family="NanumSquareNeovariable-Heavy, 'NanumSquare Neo variable'"
      font-size="16"
      font-variation-settings="'wght' 900"
      font-weight="800"
    >
      <tspan x="0" y="0">402</tspan>
    </text>
  </g>
  <g id="Layer_403">
    <rect
      x="517"
      y="1239"
      width="152"
      height="61"
      fill="#f8cdce"
      stroke="#e18686"
      stroke-miterlimit="10"
      stroke-width="2"
    />
    <text
      transform="translate(575.74 1273.09)"
      fill="#434142"
      font-family="NanumSquareNeovariable-Heavy, 'NanumSquare Neo variable'"
      font-size="16"
      font-variation-settings="'wght' 900"
      font-weight="800"
    >
      <tspan x="0" y="0">403</tspan>
    </text>
  </g>
  <g id="Layer_404">
    <rect
      x="517"
      y="1300"
      width="152"
      height="66"
      fill="#f8cdce"
      stroke="#e18686"
      stroke-miterlimit="10"
      stroke-width="2"
    />
    <text
      transform="translate(575.79 1337.09)"
      fill="#434142"
      font-family="NanumSquareNeovariable-Heavy, 'NanumSquare Neo variable'"
      font-size="16"
      font-variation-settings="'wght' 900"
      font-weight="800"
    >
      <tspan x="0" y="0">404</tspan>
    </text>
  </g>
  <g id="Layer_405">
    <rect
      x="517"
      y="1366"
      width="152"
      height="58"
      fill="#f8cdce"
      stroke="#e18686"
      stroke-miterlimit="10"
      stroke-width="2"
    />
    <text
      transform="translate(575.93 1397.09)"
      fill="#434142"
      font-family="NanumSquareNeovariable-Heavy, 'NanumSquare Neo variable'"
      font-size="16"
      font-variation-settings="'wght' 900"
      font-weight="800"
    >
      <tspan x="0" y="0">405</tspan>
    </text>
  </g>
  <g id="Layer_406">
    <rect
      x="703"
      y="1366"
      width="147"
      height="58"
      fill="#f8cdce"
      stroke="#e18686"
      stroke-miterlimit="10"
      stroke-width="2"
    />
    <text
      transform="translate(756.75 1397.09)"
      fill="#434142"
      font-family="NanumSquareNeovariable-Heavy, 'NanumSquare Neo variable'"
      font-size="16"
      font-variation-settings="'wght' 900"
      font-weight="800"
    >
      <tspan x="0" y="0">406</tspan>
    </text>
  </g>
  <g id="Layer_407">
    <rect
      x="703"
      y="1300"
      width="147"
      height="66"
      fill="#f8cdce"
      stroke="#e18686"
      stroke-miterlimit="10"
      stroke-width="2"
    />
    <text
      transform="translate(757.47 1337.09)"
      fill="#434142"
      font-family="NanumSquareNeovariable-Heavy, 'NanumSquare Neo variable'"
      font-size="16"
      font-variation-settings="'wght' 900"
      font-weight="800"
    >
      <tspan x="0" y="0">407</tspan>
    </text>
  </g>
  <g id="Layer_408">
    <rect
      x="703"
      y="1240"
      width="147"
      height="66"
      fill="#f8cdce"
      stroke="#e18686"
      stroke-miterlimit="10"
      stroke-width="2"
    />
    <text
      transform="translate(756.6 1277.09)"
      fill="#434142"
      font-family="NanumSquareNeovariable-Heavy, 'NanumSquare Neo variable'"
      font-size="16"
      font-variation-settings="'wght' 900"
      font-weight="800"
    >
      <tspan x="0" y="0">408</tspan>
    </text>
  </g>
  <g id="Layer_409">
    <rect
      x="703"
      y="1174"
      width="147"
      height="66"
      fill="#f8cdce"
      stroke="#e18686"
      stroke-miterlimit="10"
      stroke-width="2"
    />
    <text
      transform="translate(756.75 1211.09)"
      fill="#434142"
      font-family="NanumSquareNeovariable-Heavy, 'NanumSquare Neo variable'"
      font-size="16"
      font-variation-settings="'wght' 900"
      font-weight="800"
    >
      <tspan x="0" y="0">409</tspan>
    </text>
  </g>
  <g id="Layer_410">
    <rect
      x="703"
      y="991"
      width="147"
      height="189"
      fill="#f8cdce"
      stroke="#e18686"
      stroke-miterlimit="10"
      stroke-width="2"
    />
    <text
      transform="translate(758.57 1087.09)"
      fill="#434142"
      font-family="NanumSquareNeovariable-Heavy, 'NanumSquare Neo variable'"
      font-size="16"
      font-variation-settings="'wght' 900"
      font-weight="800"
    >
      <tspan x="0" y="0" letter-spacing="-.02em">4</tspan>
      <tspan x="11.14" y="0" letter-spacing="0em">10</tspan>
    </text>
  </g>
  <g id="Layer_411">
    <path
      d="m850.48,942.52l-59-59-.98.98-.14-.14c-29.12,29.21-58.24,58.43-87.36,87.64v19h147v-48h0l.48-.48Z"
      fill="#f8cdce"
      stroke="#e18686"
      stroke-miterlimit="10"
      stroke-width="2"
    />
    <text
      transform="translate(769.32 958.56)"
      fill="#434142"
      font-family="NanumSquareNeovariable-Heavy, 'NanumSquare Neo variable'"
      font-size="16"
      font-variation-settings="'wght' 900"
      font-weight="800"
    >
      <tspan x="0" y="0" letter-spacing="-.02em">4</tspan>
      <tspan x="11.14" y="0" letter-spacing="0em">11</tspan>
    </text>
  </g>
  <g id="Layer_413">
    <polygon
      points="360 742 360 759 330 759 330 813 475 813 475 780 475 759 475 742 360 742"
      fill="#f8cdce"
      stroke="#e18686"
      stroke-miterlimit="10"
      stroke-width="2"
    />
    <text
      transform="translate(388.69 784.44)"
      fill="#434142"
      font-family="NanumSquareNeovariable-Heavy, 'NanumSquare Neo variable'"
      font-size="16"
      font-variation-settings="'wght' 900"
      font-weight="800"
    >
      <tspan x="0" y="0" letter-spacing="-.02em">4</tspan>
      <tspan x="11.14" y="0" letter-spacing="0em">13</tspan>
    </text>
  </g>
  <g id="Layer_412">
    <path
      d="m367,423c21.81,19.61,44.73,41.88,68,67,25.6,27.64,47.82,54.62,67,80-43.67,38.67-87.33,77.33-131,116-20.33-16.33-40.67-32.67-61-49l-78-78c-30.81-40.11-61.63-80.22-92.44-120.33l105.56-105.56c40.63,29.96,81.26,59.93,121.89,89.89Z"
      fill="#f8cdce"
      stroke="#e18686"
      stroke-miterlimit="10"
      stroke-width="2"
    />
    <text
      transform="translate(304.03 494.12)"
      fill="#434142"
      font-family="NanumSquareNeovariable-Heavy, 'NanumSquare Neo variable'"
      font-size="16"
      font-variation-settings="'wght' 900"
      font-weight="800"
    >
      <tspan x="0" y="0" letter-spacing="-.02em">4</tspan>
      <tspan x="11.14" y="0">12</tspan>
    </text>
    <text
      transform="translate(275.75 513.12)"
      fill="#434142"
      font-family="NanumSquareNeovariable-Regular, 'NanumSquare Neo variable'"
      font-size="14"
      font-variation-settings="'wght' 300"
    >
      <tspan x="0" y="0" letter-spacing="-.06em">K</tspan>
      <tspan x="8.58" y="0">U 시네마트랩</tspan>
      <tspan x="-10.24" y="16.8">미디어학부 행정팀</tspan>
    </text>
  </g>
  <g id="Layer_412C">
    <path
      d="m515.5,653.5l-55.5,55.5c-16.67-.33-33.33-.67-50-1-.33-18-.67-36-1-54,18.8-16.86,37.61-33.73,56.41-50.59l50.09,50.09Z"
      fill="#f8cdce"
      stroke="#e18686"
      stroke-miterlimit="10"
      stroke-width="2"
    />
    <text
      transform="translate(433.11 662.3)"
      fill="#434142"
      font-family="NanumSquareNeovariable-Heavy, 'NanumSquare Neo variable'"
      font-size="16"
      font-variation-settings="'wght' 900"
      font-weight="800"
    >
      <tspan x="0" y="0" letter-spacing="-.02em">4</tspan>
      <tspan x="11.14" y="0" letter-spacing="0em">12C</tspan>
    </text>
  </g>
  <g id="Layer_412B">
    <path
      d="m196.23,381.64l-56.8,56.8c-12.15-16.15-24.29-32.29-36.44-48.44,16.6-17.27,33.2-34.53,49.8-51.8l43.44,43.44Z"
      fill="#f8cdce"
      stroke="#e18686"
      stroke-miterlimit="10"
      stroke-width="2"
    />
    <text
      transform="translate(125.17 390.62)"
      fill="#434142"
      font-family="NanumSquareNeovariable-Heavy, 'NanumSquare Neo variable'"
      font-size="16"
      font-variation-settings="'wght' 900"
      font-weight="800"
    >
      <tspan x="0" y="0" letter-spacing="-.02em">4</tspan>
      <tspan x="11.14" y="0">12B</tspan>
    </text>
  </g>
  <g id="Layer_412A">
    <path
      d="m354,363c-7.33,11-14.67,22-22,33l-87-63-48.61,48.61c-14.42-14.42-28.83-28.83-43.25-43.25l71.61-71.61c43.08,32.08,86.16,64.16,129.25,96.25Z"
      fill="#f8cdce"
      stroke="#e18686"
      stroke-miterlimit="10"
      stroke-width="2"
    />
    <text
      transform="translate(199.39 323.92)"
      fill="#434142"
      font-family="NanumSquareNeovariable-Heavy, 'NanumSquare Neo variable'"
      font-size="16"
      font-variation-settings="'wght' 900"
      font-weight="800"
    >
      <tspan x="0" y="0" letter-spacing="-.02em">4</tspan>
      <tspan x="11.14" y="0">12A</tspan>
    </text>
  </g>
  <g id="Layer_413A">
    <path
      d="m367,684c-12.33-10-24.67-20-37-30v104h30v-17h7v-57Z"
      fill="#f8cdce"
      stroke="#e18686"
      stroke-miterlimit="10"
      stroke-width="1.9"
    />
    <text
      transform="translate(331.76 713.11)"
      fill="#434142"
      font-family="NanumSquareNeovariable-Heavy, 'NanumSquare Neo variable'"
      font-size="12"
      font-variation-settings="'wght' 900"
      font-weight="800"
    >
      <tspan x="0" y="0" letter-spacing="-.02em">4</tspan>
      <tspan x="8.35" y="0">13A</tspan>
    </text>
  </g>
  <g id="Layer_412D">
    <path
      d="m607,777h-87v-40h48c13,13.33,26,26.67,39,40Z"
      fill="#f8cdce"
      stroke="#e18686"
      stroke-miterlimit="10"
      stroke-width="1.9"
    />
    <text
      transform="translate(534.9 761.12)"
      fill="#434142"
      font-family="NanumSquareNeovariable-Heavy, 'NanumSquare Neo variable'"
      font-size="12"
      font-variation-settings="'wght' 900"
      font-weight="800"
    >
      <tspan x="0" y="0" letter-spacing="-.02em">4</tspan>
      <tspan x="8.35" y="0">13D</tspan>
    </text>
  </g>
</svg>
