<svg width="360" height="368" viewBox="0 0 360 368" fill="none" xmlns="http://www.w3.org/2000/svg">
<g filter="url(#filter0_d_577_1612)">
<path d="M179.641 345.417C157.802 345.417 136.616 341.14 116.668 332.704C97.4043 324.555 80.1022 312.89 65.2454 298.033C50.3885 283.176 38.7237 265.874 30.5744 246.61C22.1389 226.666 17.8617 205.477 17.8617 183.637C17.8617 150.256 27.9211 118.275 46.966 91.044L22.9193 63.348L46.7653 42.6458L67.7389 66.804C97.9952 37.8037 137.653 21.8581 179.641 21.8581C201.48 21.8581 222.666 26.1353 242.614 34.5708C261.878 42.7201 279.18 54.3849 294.037 69.2417C308.894 84.0986 320.558 101.401 328.708 120.665C337.143 140.613 341.42 161.798 341.42 183.637C341.42 202.593 338.173 221.155 331.766 238.814C325.791 255.287 317.21 270.597 306.255 284.351L318.481 293.983L298.935 318.787L284.148 307.138C270.057 319.077 254.2 328.434 236.995 334.96C218.69 341.901 199.396 345.421 179.641 345.421V345.417Z" fill="#FFE8E8"/>
<path d="M179.641 23.7161C267.965 23.7161 339.562 95.3137 339.562 183.637C339.562 221.946 326.092 257.108 303.628 284.644L315.869 294.291L298.622 316.175L284.096 304.729C256.073 328.925 219.567 343.559 179.637 343.559C91.3137 343.559 19.7161 271.961 19.7161 183.637C19.7161 149.078 30.6785 117.075 49.3183 90.925L25.5354 63.5338L46.5759 45.2656L67.62 69.5019C96.4716 41.1816 136.014 23.7161 179.637 23.7161M179.637 20C157.817 20 136.628 24.2252 116.657 32.5603C98.5824 40.104 82.187 50.7134 67.8653 64.121L49.3815 42.8316L46.9438 40.0259L44.1381 42.4637L23.0977 60.7319L20.2921 63.1697L22.7298 65.9753L44.6101 91.1777C35.7509 104.087 28.8205 118.134 23.9933 132.984C18.6904 149.29 16 166.335 16 183.645C16 205.733 20.3255 227.164 28.8613 247.342C37.1036 266.829 48.9021 284.328 63.9299 299.356C78.9578 314.384 96.4568 326.182 115.944 334.425C136.118 342.957 157.549 347.286 179.641 347.286C199.619 347.286 219.136 343.726 237.653 336.703C254.583 330.281 270.224 321.151 284.185 309.538L296.326 319.103L299.243 321.404L301.543 318.486L318.79 296.602L321.09 293.685L318.173 291.385L308.864 284.049C319.395 270.519 327.678 255.536 333.513 239.457C339.994 221.597 343.279 202.82 343.279 183.645C343.279 161.556 338.953 140.126 330.417 119.948C322.175 100.46 310.376 82.9615 295.349 67.9337C280.321 52.9059 262.822 41.1073 243.335 32.8651C223.16 24.3329 201.729 20.0037 179.637 20.0037V20Z" fill="#EA8B8B"/>
<mask id="mask0_577_1612" style="mask-type:luminance" maskUnits="userSpaceOnUse" x="19" y="23" width="321" height="321">
<path d="M339.562 183.637C339.562 95.3137 267.964 23.7161 179.641 23.7161C136.018 23.7161 96.4749 41.1817 67.6233 69.5019L46.5792 45.2656L25.5387 63.5339L49.3216 90.925C30.6818 117.075 19.7194 149.078 19.7194 183.637C19.7194 271.961 91.317 343.559 179.641 343.559C219.57 343.559 256.077 328.925 284.1 304.73L298.626 316.175L315.872 294.291L303.631 284.644C326.091 257.104 339.566 221.946 339.566 183.637H339.562Z" fill="white"/>
</mask>
<g mask="url(#mask0_577_1612)">
<path d="M390.77 -5.82669H-11.8373V373.105H390.77V-5.82669Z" fill="#FFE8E8"/>
<path d="M144.208 287.732H16.1785V225.295C49.5934 225.295 83.0121 225.295 116.427 225.295C116.483 229.419 116.542 233.544 116.598 237.669C119.675 240.508 122.752 243.344 125.829 246.183C131.953 246.168 138.081 246.149 144.205 246.134V287.736L144.208 287.732Z" fill="#FFD0D0" stroke="#EA8B8B" stroke-width="1.11482" stroke-miterlimit="10"/>
<path d="M64.383 231.266C62.8334 231.266 61.7372 232.456 61.7446 234.596C61.7372 236.77 62.8409 237.926 64.383 237.926C65.5053 237.926 66.4157 237.298 66.6424 236.186H68.3555C68.0954 238.004 66.5978 239.453 64.357 239.453C61.8635 239.453 60.0278 237.643 60.0315 234.592C60.0241 231.534 61.8784 229.732 64.357 229.732C66.4455 229.732 68.062 230.947 68.3555 233.05H66.6424C66.4418 231.913 65.5313 231.259 64.383 231.259V231.266Z" fill="#424242"/>
<path d="M131.934 261.303H135.553C137.605 261.303 138.615 262.348 138.623 263.76C138.615 264.908 137.891 265.551 136.965 265.77V265.863C137.972 265.915 138.991 266.751 138.991 268.189C138.991 269.627 137.924 270.765 135.765 270.765H131.938V261.307L131.934 261.303ZM135.345 265.328C136.241 265.328 136.921 264.811 136.925 263.968C136.917 263.243 136.397 262.712 135.382 262.712H133.632V265.324H135.345V265.328ZM135.501 269.338C136.742 269.338 137.259 268.81 137.266 268.056C137.259 267.205 136.601 266.558 135.542 266.554H133.636V269.338H135.505H135.501Z" fill="#424242"/>
<path d="M208.779 9.00787V117.945C224.606 132.95 240.429 147.959 256.256 162.965C288.961 156.562 321.662 150.163 354.367 143.76C332 101.951 309.63 60.1411 287.262 18.3315C261.101 15.2249 234.944 12.1182 208.783 9.01159L208.779 9.00787Z" stroke="#EA8B8B" stroke-width="1.11482" stroke-miterlimit="10"/>
<path d="M230.158 138.216L304.494 50.5425" stroke="#EA8B8B" stroke-width="1.11482" stroke-miterlimit="10"/>
<path d="M242.766 150.174L330.057 98.3312" stroke="#EA8B8B" stroke-width="1.11482" stroke-miterlimit="10"/>
<path d="M257.779 105.641L291.811 156.005" stroke="#EA8B8B" stroke-width="1.11482" stroke-miterlimit="10"/>
<path d="M61.1987 8.98557C61.9419 27.6626 62.6852 46.3396 63.4284 65.0203C72.347 75.0202 81.2655 85.0239 90.1841 95.0239V118.227H175.301V8.98557H61.1987Z" fill="#FFD0D0" stroke="#EA8B8B" stroke-width="1.11482" stroke-miterlimit="10"/>
<path d="M125.271 83.3591H123.558V75.5591H123.506L121.298 76.9712V75.4179L123.636 73.9017H125.271V83.3591Z" fill="#424242"/>
<path d="M127.426 78.6286C127.419 75.5442 128.79 73.7679 131.057 73.7679C133.324 73.7679 134.688 75.5442 134.688 78.6286C134.688 81.7129 133.327 83.4892 131.057 83.4892C128.786 83.4892 127.419 81.7241 127.426 78.6286ZM131.057 82.0659C132.239 82.0585 132.978 80.9028 132.978 78.6286C132.971 76.3766 132.239 75.1875 131.057 75.1801C129.875 75.1875 129.143 76.3766 129.136 78.6286C129.136 80.9028 129.868 82.0585 131.057 82.0659Z" fill="#424242"/>
<path d="M139.954 83.3591H138.241V75.5591H138.189L135.981 76.9712V75.4179L138.319 73.9017H139.95V83.3591H139.954Z" fill="#424242"/>
<path d="M175.301 118.227H138.794V158.208H175.301V118.227Z" fill="#FFD0D0" stroke="#EA8B8B" stroke-width="1.11482" stroke-miterlimit="10"/>
<path d="M151.499 143.076H149.786V135.276H149.734L147.527 136.689V135.135L149.864 133.619H151.495V143.076H151.499Z" fill="#424242"/>
<path d="M157.642 143.076H155.929V135.276H155.877L153.67 136.689V135.135L156.007 133.619H157.638V143.076H157.642Z" fill="#424242"/>
<path d="M159.939 141.846L163.283 138.621C164.238 137.666 164.732 137.105 164.732 136.309C164.732 135.429 164.034 134.871 163.112 134.871C162.139 134.871 161.511 135.477 161.518 136.44H159.898C159.89 134.648 161.236 133.485 163.123 133.485C165.011 133.485 166.356 134.641 166.364 136.228C166.356 137.294 165.847 138.156 163.985 139.91L162.298 141.583V141.649H166.505V143.073H159.935V141.846H159.939Z" fill="#424242"/>
<path d="M138.794 118.227H101.908V158.208H138.794V118.227Z" fill="#FFD0D0" stroke="#EA8B8B" stroke-width="1.11482" stroke-miterlimit="10"/>
<path d="M115.818 143.076H114.105V135.276H114.053L111.845 136.689V135.135L114.183 133.619H115.814V143.076H115.818Z" fill="#424242"/>
<path d="M121.96 143.076H120.247V135.276H120.195L117.988 136.689V135.135L120.325 133.619H121.956V143.076H121.96Z" fill="#424242"/>
<path d="M128.099 143.076H126.386V135.276H126.334L124.127 136.689V135.135L126.464 133.619H128.096V143.076H128.099Z" fill="#424242"/>
<path d="M101.908 118.227H7.19678V163.154H101.908V118.227Z" fill="#FFD0D0" stroke="#EA8B8B" stroke-width="1.11482" stroke-miterlimit="10"/>
<path d="M58.7235 145.024H57.0104V137.224H56.9583L54.751 138.636V137.082L57.0884 135.566H58.7197V145.024H58.7235Z" fill="#424242"/>
<path d="M64.8626 145.024H63.1495V137.224H63.0975L60.8901 138.636V137.082L63.2275 135.566H64.8589V145.024H64.8626Z" fill="#424242"/>
<path d="M67.0176 140.293C67.0102 137.209 68.3814 135.433 70.6482 135.433C72.915 135.433 74.2788 137.209 74.2788 140.293C74.2788 143.377 72.9187 145.154 70.6482 145.154C68.3777 145.154 67.0102 143.389 67.0176 140.293ZM70.6482 143.731C71.8299 143.723 72.5694 142.567 72.5694 140.293C72.562 138.041 71.8299 136.852 70.6482 136.845C69.4665 136.852 68.7344 138.041 68.727 140.293C68.727 142.567 69.4591 143.723 70.6482 143.731Z" fill="#424242"/>
<path d="M116.353 163.154H12.2211V225.295H116.353V163.154Z" fill="#FFD0D0" stroke="#EA8B8B" stroke-width="1.11482" stroke-miterlimit="10"/>
<path d="M116.353 207.818H100.998V225.295H116.353V207.818Z" fill="#FFD0D0" stroke="#EA8B8B" stroke-width="1.11482" stroke-miterlimit="10"/>
<path d="M58.3109 199.371H56.5978V191.571H56.5457L54.3384 192.983V191.43L56.6758 189.914H58.3071V199.371H58.3109Z" fill="#424242"/>
<path d="M60.47 194.641C60.4626 191.556 61.8338 189.78 64.1006 189.78C66.3674 189.78 67.7312 191.556 67.7312 194.641C67.7312 197.725 66.3711 199.501 64.1006 199.501C61.8301 199.501 60.4626 197.736 60.47 194.641ZM64.1006 198.078C65.2823 198.071 66.0218 196.915 66.0218 194.641C66.0144 192.389 65.2823 191.2 64.1006 191.192C62.9189 191.2 62.1868 192.389 62.1794 194.641C62.1794 196.915 62.9115 198.071 64.1006 198.078Z" fill="#424242"/>
<path d="M76.2114 194.355C76.2114 197.614 74.7361 199.501 72.4099 199.501C70.589 199.501 69.3255 198.364 69.1174 196.796H70.8045C70.9755 197.547 71.5552 198.022 72.4099 198.022C73.7811 198.022 74.5541 196.815 74.5652 194.782H74.4612C73.9855 195.603 73.0713 196.094 72.0308 196.09C70.34 196.097 69.032 194.808 69.0245 193.021C69.0245 191.174 70.4143 189.769 72.5139 189.78C74.3608 189.795 76.204 190.899 76.2114 194.351V194.355ZM72.5028 194.801C73.5544 194.801 74.3645 193.95 74.3571 192.972C74.3571 192.013 73.5879 191.162 72.5288 191.155C71.4623 191.162 70.6745 191.973 70.6856 192.983C70.6856 194.002 71.4437 194.801 72.5028 194.801Z" fill="#424242"/>
<path d="M68.4337 243.645H116.014C119.173 248.479 122.328 253.318 125.487 258.152V287.732H68.3519C68.3779 273.035 68.4077 258.342 68.4337 243.645Z" fill="#FFD0D0" stroke="#EA8B8B" stroke-width="1.11482" stroke-miterlimit="10"/>
<path d="M91.9938 270.761L95.3234 261.303H97.4118L100.756 270.761H98.9391L98.1476 268.423H94.5876L93.8035 270.761H91.9863H91.9938ZM97.6979 267.052L96.4122 263.236H96.3341L95.0521 267.052H97.6979Z" fill="#424242"/>
<path d="M68.3522 243.645H27.8209V287.732H68.3522V243.645Z" fill="#FFD0D0" stroke="#EA8B8B" stroke-width="1.11482" stroke-miterlimit="10"/>
<path d="M53.0935 270.761V261.303H56.3599C59.1804 261.303 60.8861 263.072 60.8936 266.019C60.8861 268.977 59.1804 270.761 56.3079 270.761H53.0935ZM56.215 269.286C58.1957 269.293 59.1953 268.2 59.1953 266.019C59.1953 263.838 58.1957 262.771 56.267 262.779H54.7918V269.286H56.215Z" fill="#424242"/>
<path d="M112.142 287.732H58.2295V337.769H112.142V287.732Z" fill="#FFD0D0" stroke="#EA8B8B" stroke-width="1.11482" stroke-miterlimit="10"/>
<path d="M90.6816 298.041H96.8355V299.464H92.3799V302.05H96.5084V303.473H92.3799V306.06H96.8615V307.498H90.6816V298.041Z" fill="#424242"/>
<path d="M242.766 150.174C238.563 146.191 234.36 142.203 230.158 138.22C239.366 127.361 248.571 116.499 257.779 105.641C263.506 114.113 269.228 122.586 274.955 131.059C264.227 137.432 253.495 143.805 242.766 150.174Z" fill="#FFD0D0" stroke="#EA8B8B" stroke-width="1.11482" stroke-miterlimit="10"/>
<path d="M144.212 287.732H112.146V337.769H144.212V287.732Z" fill="#FFD0D0" stroke="#EA8B8B" stroke-width="1.11482" stroke-miterlimit="10"/>
<path d="M130.466 315.417H112.146V337.769H130.466V315.417Z" fill="#FFD0D0" stroke="#EA8B8B" stroke-width="1.11482" stroke-miterlimit="10"/>
<path d="M121.823 307.498H120.11V299.698H120.058L117.851 301.11V299.557L120.188 298.041H121.819V307.498H121.823Z" fill="#424242"/>
<path d="M123.978 302.767C123.971 299.683 125.342 297.907 127.609 297.907C129.875 297.907 131.239 299.683 131.239 302.767C131.239 305.852 129.879 307.628 127.609 307.628C125.338 307.628 123.971 305.863 123.978 302.767ZM127.609 306.205C128.79 306.197 129.53 305.042 129.53 302.767C129.522 300.515 128.79 299.326 127.609 299.319C126.427 299.326 125.695 300.515 125.687 302.767C125.687 305.042 126.419 306.197 127.609 306.205Z" fill="#424242"/>
<path d="M132.521 303.031C132.521 299.798 133.993 297.91 136.312 297.91C138.132 297.91 139.388 299.055 139.604 300.59H137.917C137.746 299.865 137.174 299.382 136.312 299.389C134.94 299.382 134.175 300.597 134.167 302.589H134.26C134.743 301.771 135.65 301.288 136.691 301.296C138.389 301.288 139.701 302.578 139.697 304.365C139.704 306.246 138.3 307.643 136.207 307.632C134.361 307.617 132.517 306.521 132.525 303.031H132.521ZM136.204 306.257C137.255 306.249 138.039 305.439 138.047 304.402C138.039 303.395 137.281 302.585 136.23 302.585C135.178 302.585 134.361 303.429 134.349 304.414C134.364 305.398 135.134 306.249 136.204 306.257Z" fill="#424242"/>
<path d="M208.779 9.00787C234.94 12.1145 261.098 15.2212 287.259 18.3278C293.004 29.0673 298.749 39.803 304.494 50.5425C279.715 79.7657 254.936 108.993 230.158 138.216C223.03 131.456 215.906 124.693 208.779 117.933V9.00787Z" fill="#FFD0D0" stroke="#EA8B8B" stroke-width="1.11482" stroke-miterlimit="10"/>
<path d="M233.962 83.3591H232.249V75.5591H232.197L229.99 76.9712V75.4179L232.327 73.9017H233.959V83.3591H233.962Z" fill="#424242"/>
<path d="M236.118 78.6286C236.11 75.5442 237.482 73.7679 239.748 73.7679C242.015 73.7679 243.379 75.5442 243.379 78.6286C243.379 81.7129 242.019 83.4892 239.748 83.4892C237.478 83.4892 236.11 81.7241 236.118 78.6286ZM239.748 82.0659C240.93 82.0585 241.67 80.9028 241.67 78.6286C241.662 76.3766 240.93 75.1875 239.748 75.1801C238.567 75.1875 237.835 76.3766 237.827 78.6286C237.827 80.9028 238.559 82.0585 239.748 82.0659Z" fill="#424242"/>
<path d="M244.806 82.1328L248.151 78.9073C249.106 77.9522 249.6 77.3911 249.6 76.5959C249.6 75.7151 248.901 75.1577 247.98 75.1577C247.006 75.1577 246.378 75.7635 246.385 76.7259H244.765C244.758 74.9348 246.103 73.7716 247.991 73.7716C249.878 73.7716 251.224 74.9273 251.231 76.5141C251.224 77.5806 250.715 78.4427 248.853 80.1967L247.166 81.869V81.9359H251.372V83.3591H244.802V82.1328H244.806Z" fill="#424242"/>
<path d="M274.954 131.055C269.228 122.582 263.505 114.11 257.779 105.637C273.349 87.2722 288.923 68.9073 304.493 50.5425C313.014 66.4733 321.539 82.4004 330.06 98.3312C311.692 109.242 293.323 120.148 274.954 131.059V131.055Z" fill="#FFD0D0" stroke="#EA8B8B" stroke-width="1.11482" stroke-miterlimit="10"/>
<path d="M276.2 106.551H274.486V98.7511H274.434L272.227 100.163V98.6099L274.564 97.0937H276.196V106.551H276.2Z" fill="#424242"/>
<path d="M278.355 101.824C278.348 98.74 279.719 96.9637 281.986 96.9637C284.253 96.9637 285.617 98.74 285.617 101.824C285.617 104.909 284.257 106.685 281.986 106.685C279.715 106.685 278.348 104.92 278.355 101.824ZM281.986 105.262C283.168 105.254 283.907 104.099 283.907 101.824C283.9 99.5724 283.168 98.3832 281.986 98.3758C280.804 98.3832 280.072 99.5724 280.065 101.824C280.065 104.099 280.797 105.254 281.986 105.262Z" fill="#424242"/>
<path d="M286.976 103.991H288.689C288.734 104.749 289.492 105.251 290.48 105.247C291.517 105.254 292.271 104.678 292.271 103.835C292.271 102.991 291.539 102.378 290.313 102.371H289.462V101.063H290.313C291.32 101.063 292.019 100.501 292.011 99.6764C292.019 98.8812 291.417 98.3423 290.495 98.3423C289.573 98.3423 288.841 98.8403 288.808 99.6355H287.177C287.217 98.0488 288.659 96.9562 290.506 96.9562C292.353 96.9562 293.668 98.1305 293.654 99.5835C293.668 100.643 292.962 101.404 291.929 101.62V101.698C293.263 101.873 294.018 102.731 294.007 103.92C294.022 105.522 292.524 106.677 290.48 106.677C288.436 106.677 287.017 105.581 286.98 103.987L286.976 103.991Z" fill="#424242"/>
<path d="M295.587 97.0937H299.206C301.258 97.0937 302.268 98.1379 302.276 99.5501C302.268 100.698 301.544 101.341 300.618 101.56V101.653C301.625 101.705 302.644 102.541 302.644 103.98C302.644 105.418 301.577 106.555 299.418 106.555H295.59V97.0974L295.587 97.0937ZM298.998 101.118C299.894 101.118 300.574 100.602 300.577 99.7582C300.57 99.0335 300.05 98.5021 299.035 98.5021H297.285V101.115H298.998V101.118ZM299.154 105.128C300.395 105.128 300.912 104.6 300.919 103.846C300.912 102.995 300.254 102.348 299.195 102.345H297.289V105.128H299.158H299.154Z" fill="#424242"/>
<path d="M291.811 156.005C286.192 147.688 280.573 139.372 274.955 131.059C293.323 120.148 311.692 109.242 330.06 98.3312C338.161 113.474 346.262 128.617 354.363 143.76C333.513 147.84 312.662 151.924 291.814 156.005H291.811Z" fill="#FFD0D0" stroke="#EA8B8B" stroke-width="1.11482" stroke-miterlimit="10"/>
<path d="M294.731 139.914H293.018V132.114H292.966L290.759 133.526V131.973L293.096 130.457H294.728V139.914H294.731Z" fill="#424242"/>
<path d="M296.887 135.184C296.88 132.099 298.251 130.323 300.518 130.323C302.785 130.323 304.148 132.099 304.148 135.184C304.148 138.268 302.788 140.044 300.518 140.044C298.247 140.044 296.88 138.279 296.887 135.184ZM300.518 138.621C301.7 138.613 302.439 137.458 302.439 135.184C302.432 132.932 301.7 131.742 300.518 131.735C299.336 131.742 298.604 132.932 298.597 135.184C298.597 137.458 299.329 138.613 300.518 138.621Z" fill="#424242"/>
<path d="M305.512 137.354H307.225C307.27 138.112 308.028 138.613 309.016 138.61C310.053 138.617 310.807 138.041 310.807 137.198C310.807 136.354 310.075 135.741 308.849 135.733H307.998V134.425H308.849C309.856 134.425 310.555 133.864 310.547 133.039C310.555 132.244 309.953 131.705 309.031 131.705C308.11 131.705 307.377 132.203 307.344 132.998H305.713C305.754 131.412 307.195 130.319 309.042 130.319C310.889 130.319 312.205 131.493 312.19 132.946C312.205 134.006 311.499 134.767 310.465 134.983V135.061C311.8 135.236 312.554 136.094 312.543 137.283C312.558 138.885 311.06 140.04 309.016 140.04C306.972 140.04 305.553 138.944 305.516 137.35L305.512 137.354Z" fill="#424242"/>
<path d="M313.505 139.914L316.835 130.457H318.923L322.268 139.914H320.45L319.659 137.577H316.099L315.315 139.914H313.498H313.505ZM319.209 136.205L317.923 132.389H317.845L316.563 136.205H319.209Z" fill="#424242"/>
<path d="M256.252 162.965C251.755 158.703 247.259 154.436 242.762 150.174C253.491 143.801 264.223 137.428 274.951 131.059C280.57 139.375 286.188 147.692 291.807 156.005C279.953 158.324 268.102 160.646 256.248 162.965H256.252Z" fill="#FFD0D0" stroke="#EA8B8B" stroke-width="1.11482" stroke-miterlimit="10"/>
<path d="M260.562 154.054H258.849V146.254H258.797L256.59 147.666V146.112L258.927 144.596H260.559V154.054H260.562Z" fill="#424242"/>
<path d="M262.718 149.323C262.71 146.239 264.082 144.463 266.348 144.463C268.615 144.463 269.979 146.239 269.979 149.323C269.979 152.408 268.619 154.184 266.348 154.184C264.078 154.184 262.71 152.419 262.718 149.323ZM266.348 152.761C267.53 152.753 268.27 151.597 268.27 149.323C268.262 147.071 267.53 145.882 266.348 145.875C265.167 145.882 264.435 147.071 264.427 149.323C264.427 151.597 265.159 152.753 266.348 152.761Z" fill="#424242"/>
<path d="M271.343 151.493H273.056C273.101 152.251 273.859 152.753 274.847 152.749C275.884 152.757 276.638 152.181 276.638 151.337C276.638 150.494 275.906 149.881 274.68 149.873H273.829V148.565H274.68C275.687 148.565 276.386 148.004 276.378 147.179C276.386 146.384 275.784 145.845 274.862 145.845C273.94 145.845 273.208 146.343 273.175 147.138H271.544C271.584 145.551 273.026 144.459 274.873 144.459C276.72 144.459 278.036 145.633 278.021 147.086C278.036 148.145 277.33 148.907 276.296 149.123V149.201C277.631 149.375 278.385 150.234 278.374 151.423C278.389 153.024 276.891 154.18 274.847 154.18C272.803 154.18 271.384 153.084 271.347 151.49L271.343 151.493Z" fill="#424242"/>
<path d="M342.892 186.302C344.23 172.656 345.568 159.011 346.905 145.366C316.686 151.23 286.467 157.097 256.252 162.961C256.337 170.739 256.419 178.52 256.504 186.298H342.892V186.302Z" fill="#FFD0D0" stroke="#EA8B8B" stroke-width="1.11482" stroke-miterlimit="10"/>
<path d="M288.638 174.559H286.924V166.759H286.872L284.665 168.171V166.618L287.002 165.102H288.634V174.559H288.638Z" fill="#424242"/>
<path d="M290.793 169.832C290.785 166.748 292.157 164.972 294.423 164.972C296.69 164.972 298.054 166.748 298.054 169.832C298.054 172.917 296.694 174.693 294.423 174.693C292.153 174.693 290.785 172.928 290.793 169.832ZM294.423 173.27C295.605 173.262 296.345 172.106 296.345 169.832C296.337 167.58 295.605 166.391 294.423 166.384C293.242 166.391 292.51 167.58 292.502 169.832C292.502 172.106 293.234 173.262 294.423 173.27Z" fill="#424242"/>
<path d="M299.31 171.438L303.397 165.102H305.516V171.4H306.757V172.798H305.516V174.563H303.895V172.798H299.31V171.438ZM303.921 171.397V167.034H303.817L301.049 171.333V171.4H303.921V171.397Z" fill="#424242"/>
<path d="M307.593 174.559L310.923 165.102H313.011L316.356 174.559H314.539L313.747 172.222H310.187L309.403 174.559H307.586H307.593ZM313.297 170.85L312.012 167.034H311.934L310.652 170.85H313.297Z" fill="#424242"/>
<path d="M256.505 186.302L256.765 210.107C284.267 214.488 311.77 218.866 339.269 223.247C340.477 210.932 341.685 198.617 342.892 186.302H256.505Z" fill="#FFD0D0" stroke="#EA8B8B" stroke-width="1.11482" stroke-miterlimit="10"/>
<path d="M292.636 206.358H290.923V198.557H290.871L288.663 199.97V198.416L291.001 196.9H292.632V206.358H292.636Z" fill="#424242"/>
<path d="M294.791 201.627C294.783 198.543 296.155 196.766 298.421 196.766C300.688 196.766 302.052 198.543 302.052 201.627C302.052 204.711 300.692 206.488 298.421 206.488C296.151 206.488 294.783 204.722 294.791 201.627ZM298.421 205.064C299.603 205.057 300.343 203.901 300.343 201.627C300.335 199.375 299.603 198.186 298.421 198.178C297.24 198.186 296.508 199.375 296.5 201.627C296.5 203.901 297.232 205.057 298.421 205.064Z" fill="#424242"/>
<path d="M303.309 203.236L307.396 196.9H309.514V203.199H310.756V204.596H309.514V206.361H307.894V204.596H303.309V203.236ZM307.92 203.195V198.832H307.816L305.048 203.132V203.199H307.92V203.195Z" fill="#424242"/>
<path d="M256.764 210.107C251.699 216.502 246.634 222.901 241.569 229.297L241.473 235.618C265.434 254.406 289.392 273.195 313.353 291.98C321.993 269.066 330.629 246.157 339.269 223.243C311.766 218.862 284.263 214.485 256.764 210.103V210.107Z" fill="#FFD0D0" stroke="#EA8B8B" stroke-width="1.11482" stroke-miterlimit="10"/>
<path d="M281.818 243.243H280.105V235.443H280.053L277.846 236.855V235.302L280.183 233.786H281.814V243.243H281.818Z" fill="#424242"/>
<path d="M283.974 238.513C283.966 235.428 285.337 233.652 287.604 233.652C289.871 233.652 291.235 235.428 291.235 238.513C291.235 241.597 289.875 243.373 287.604 243.373C285.334 243.373 283.966 241.608 283.974 238.513ZM287.604 241.95C288.786 241.943 289.525 240.787 289.525 238.513C289.518 236.261 288.786 235.072 287.604 235.064C286.422 235.072 285.69 236.261 285.683 238.513C285.683 240.787 286.415 241.943 287.604 241.95Z" fill="#424242"/>
<path d="M292.688 240.683H294.345C294.397 241.448 295.122 241.995 296.017 242.002C297.076 241.995 297.838 241.233 297.835 240.185C297.842 239.1 297.058 238.338 295.965 238.331C295.226 238.323 294.691 238.587 294.397 239.141H292.818L293.394 233.786H298.986V235.209H294.791L294.505 237.717H294.598C294.962 237.305 295.649 237.004 296.426 237C298.184 237.008 299.488 238.312 299.484 240.137C299.492 242.024 298.069 243.377 296.021 243.377C294.133 243.377 292.743 242.247 292.691 240.687L292.688 240.683Z" fill="#424242"/>
<path d="M232.231 303.436C226.282 288.918 220.328 274.395 214.379 259.876H171.804V303.436H232.231Z" fill="#FFD0D0" stroke="#EA8B8B" stroke-width="1.11482" stroke-miterlimit="10"/>
<path d="M190.005 286.848H188.292V279.048H188.24L186.033 280.46V278.906L188.37 277.39H190.002V286.848H190.005Z" fill="#424242"/>
<path d="M192.164 282.117C192.157 279.033 193.528 277.257 195.795 277.257C198.062 277.257 199.426 279.033 199.426 282.117C199.426 285.201 198.066 286.978 195.795 286.978C193.525 286.978 192.157 285.213 192.164 282.117ZM195.795 285.555C196.977 285.547 197.716 284.391 197.716 282.117C197.709 279.865 196.977 278.676 195.795 278.669C194.613 278.676 193.881 279.865 193.874 282.117C193.874 284.391 194.606 285.547 195.795 285.555Z" fill="#424242"/>
<path d="M200.693 284.313C200.685 283.113 201.581 282.132 202.718 281.95V281.898C201.726 281.69 201.053 280.828 201.046 279.795C201.053 278.33 202.417 277.26 204.286 277.26C206.155 277.26 207.512 278.33 207.512 279.795C207.512 280.831 206.82 281.69 205.839 281.898V281.95C206.969 282.132 207.872 283.113 207.876 284.313C207.868 285.856 206.374 286.978 204.282 286.978C202.19 286.978 200.681 285.856 200.689 284.313H200.693ZM204.286 285.633C205.397 285.633 206.122 285.031 206.129 284.157C206.122 283.269 205.353 282.608 204.286 282.615C203.22 282.608 202.439 283.262 202.443 284.157C202.435 285.034 203.16 285.633 204.286 285.633ZM204.286 281.348C205.193 281.348 205.854 280.779 205.854 279.951C205.854 279.122 205.215 278.591 204.286 278.591C203.357 278.591 202.71 279.144 202.707 279.951C202.714 280.779 203.368 281.348 204.286 281.348Z" fill="#424242"/>
<path d="M232.231 303.436H171.804V348.553C198.036 348.375 224.268 348.193 250.499 348.014C244.409 333.154 238.322 318.293 232.231 303.436Z" fill="#FFD0D0" stroke="#EA8B8B" stroke-width="1.11482" stroke-miterlimit="10"/>
<path d="M191.284 324.663H189.571V316.862H189.519L187.311 318.275V316.721L189.649 315.205H191.28V324.663H191.284Z" fill="#424242"/>
<path d="M193.439 319.932C193.432 316.848 194.803 315.071 197.07 315.071C199.336 315.071 200.7 316.848 200.7 319.932C200.7 323.016 199.34 324.793 197.07 324.793C194.799 324.793 193.432 323.027 193.439 319.932ZM197.07 323.369C198.251 323.362 198.991 322.206 198.991 319.932C198.983 317.68 198.251 316.491 197.07 316.483C195.888 316.491 195.156 317.68 195.148 319.932C195.148 322.206 195.88 323.362 197.07 323.369Z" fill="#424242"/>
<path d="M206.323 316.692V316.625H201.566V315.201H208.084V316.651L203.982 324.659H202.217L206.319 316.688L206.323 316.692Z" fill="#424242"/>
<path d="M280.667 266.561L263.421 288.446L298.627 316.189L315.873 294.305L280.667 266.561Z" fill="#FFE8E8" stroke="#EA8B8B" stroke-width="1.11482" stroke-miterlimit="10"/>
<path d="M310.027 289.687L292.941 311.701" stroke="#EA8B8B" stroke-width="1.11482" stroke-miterlimit="10"/>
<path d="M304.13 285.042L287.043 307.052" stroke="#EA8B8B" stroke-width="1.11482" stroke-miterlimit="10"/>
<path d="M298.481 279.988L281.395 301.998" stroke="#EA8B8B" stroke-width="1.11482" stroke-miterlimit="10"/>
<path d="M292.342 275.22L275.256 297.234" stroke="#EA8B8B" stroke-width="1.11482" stroke-miterlimit="10"/>
<path d="M286.125 271.136L269.038 293.146" stroke="#EA8B8B" stroke-width="1.11482" stroke-miterlimit="10"/>
<path d="M46.5811 45.2727L25.5398 63.5379L54.9229 97.387L75.9642 79.1218L46.5811 45.2727Z" fill="#FFE8E8" stroke="#EA8B8B" stroke-width="1.11482" stroke-miterlimit="10"/>
<path d="M71.0869 73.493L50.1803 91.9173" stroke="#EA8B8B" stroke-width="1.11482" stroke-miterlimit="10"/>
<path d="M66.1668 67.8259L45.2601 86.2465" stroke="#EA8B8B" stroke-width="1.11482" stroke-miterlimit="10"/>
<path d="M61.5627 61.8022L40.656 80.2228" stroke="#EA8B8B" stroke-width="1.11482" stroke-miterlimit="10"/>
<path d="M56.4271 55.9716L35.5205 74.3922" stroke="#EA8B8B" stroke-width="1.11482" stroke-miterlimit="10"/>
<path d="M51.0831 50.7952L30.1802 69.2157" stroke="#EA8B8B" stroke-width="1.11482" stroke-miterlimit="10"/>
</g>
</g>
<defs>
<filter id="filter0_d_577_1612" x="-4" y="0" width="367.279" height="367.286" filterUnits="userSpaceOnUse" color-interpolation-filters="sRGB">
<feFlood flood-opacity="0" result="BackgroundImageFix"/>
<feColorMatrix in="SourceAlpha" type="matrix" values="0 0 0 0 0 0 0 0 0 0 0 0 0 0 0 0 0 0 127 0" result="hardAlpha"/>
<feOffset/>
<feGaussianBlur stdDeviation="10"/>
<feComposite in2="hardAlpha" operator="out"/>
<feColorMatrix type="matrix" values="0 0 0 0 0.880859 0 0 0 0 0.775698 0 0 0 0 0.775698 0 0 0 0.6 0"/>
<feBlend mode="normal" in2="BackgroundImageFix" result="effect1_dropShadow_577_1612"/>
<feBlend mode="normal" in="SourceGraphic" in2="effect1_dropShadow_577_1612" result="shape"/>
</filter>
</defs>
</svg>
