<svg width="328" height="328" viewBox="0 0 328 328" fill="none" xmlns="http://www.w3.org/2000/svg">
<path d="M163.642 325.418C141.802 325.418 120.617 321.141 100.669 312.705C81.4045 304.556 64.1024 292.891 49.2455 278.034C34.3885 263.177 22.7237 245.875 14.5743 226.611C6.13879 206.667 1.86157 185.478 1.86157 163.638C1.86157 130.256 11.921 98.2757 30.966 71.0442L6.91917 43.3482L30.7653 22.6458L51.739 46.8041C81.9954 17.8038 121.654 1.858 163.638 1.858C185.477 1.858 206.663 6.13522 226.611 14.5708C245.875 22.7201 263.177 34.385 278.034 49.2419C292.891 64.0988 304.556 81.401 312.705 100.665C321.141 120.613 325.418 141.799 325.418 163.638C325.418 182.594 322.17 201.156 315.764 218.815C309.788 235.288 301.208 250.598 290.253 264.352L302.479 273.984L282.932 298.789L268.146 287.139C254.054 299.079 238.198 308.436 220.992 314.961C202.687 321.903 183.393 325.422 163.638 325.422L163.642 325.418Z" fill="#FEF3F2"/>
<mask id="mask0_725_1201" style="mask-type:luminance" maskUnits="userSpaceOnUse" x="3" y="3" width="321" height="321">
<path d="M323.564 163.638C323.564 75.3141 251.966 3.71613 163.642 3.71613C120.019 3.71613 80.4759 21.1818 51.6241 49.5021L30.5799 25.2657L9.53937 43.5341L33.3224 70.9254C14.6824 97.0755 3.71997 129.079 3.71997 163.638C3.71997 251.962 75.3179 323.56 163.642 323.56C203.571 323.56 240.078 308.926 268.101 284.731L282.628 296.176L299.874 274.292L287.633 264.645C310.093 237.105 323.568 201.947 323.568 163.638H323.564Z" fill="white"/>
</mask>
<g mask="url(#mask0_725_1201)">
<path d="M264.667 246.56L247.421 268.445L282.626 296.189L299.873 274.304L264.667 246.56Z" fill="#FEF3F2" stroke="#EA8B8B" stroke-width="1.11" stroke-miterlimit="10"/>
<path d="M294.028 269.688L276.946 291.699" stroke="#EA8B8B" stroke-width="1.11" stroke-miterlimit="10"/>
<path d="M288.131 265.043L271.048 287.053" stroke="#EA8B8B" stroke-width="1.11" stroke-miterlimit="10"/>
<path d="M282.483 259.985L265.4 282" stroke="#EA8B8B" stroke-width="1.11" stroke-miterlimit="10"/>
<path d="M276.344 255.221L259.261 277.236" stroke="#EA8B8B" stroke-width="1.11" stroke-miterlimit="10"/>
<path d="M270.126 251.137L253.043 273.148" stroke="#EA8B8B" stroke-width="1.11" stroke-miterlimit="10"/>
</g>
<mask id="mask1_725_1201" style="mask-type:luminance" maskUnits="userSpaceOnUse" x="3" y="3" width="321" height="321">
<path d="M323.564 163.638C323.564 75.3141 251.966 3.71613 163.642 3.71613C120.019 3.71613 80.4759 21.1818 51.6241 49.5021L30.5799 25.2657L9.53937 43.5341L33.3224 70.9254C14.6824 97.0755 3.71997 129.079 3.71997 163.638C3.71997 251.962 75.3179 323.56 163.642 323.56C203.571 323.56 240.078 308.926 268.101 284.731L282.628 296.176L299.874 274.292L287.633 264.645C310.093 237.105 323.568 201.947 323.568 163.638H323.564Z" fill="white"/>
</mask>
<g mask="url(#mask1_725_1201)">
<path d="M30.5832 25.2716L9.54175 43.5368L38.925 77.3861L59.9664 59.1208L30.5832 25.2716Z" fill="#FEF3F2" stroke="#EA8B8B" stroke-width="1.11" stroke-miterlimit="10"/>
<path d="M55.0911 53.4933L34.1843 71.914" stroke="#EA8B8B" stroke-width="1.11" stroke-miterlimit="10"/>
<path d="M50.1672 47.8262L29.2605 66.2468" stroke="#EA8B8B" stroke-width="1.11" stroke-miterlimit="10"/>
<path d="M45.5669 41.8024L24.6602 60.2231" stroke="#EA8B8B" stroke-width="1.11" stroke-miterlimit="10"/>
<path d="M40.4275 35.9718L19.5208 54.3925" stroke="#EA8B8B" stroke-width="1.11" stroke-miterlimit="10"/>
<path d="M35.0874 30.7953L14.1807 49.216" stroke="#EA8B8B" stroke-width="1.11" stroke-miterlimit="10"/>
</g>
<mask id="mask2_725_1201" style="mask-type:luminance" maskUnits="userSpaceOnUse" x="3" y="3" width="321" height="321">
<path d="M323.564 163.638C323.564 75.3141 251.966 3.71613 163.642 3.71613C120.019 3.71613 80.4759 21.1818 51.6241 49.5021L30.5799 25.2657L9.53937 43.5341L33.3224 70.9254C14.6824 97.0755 3.71997 129.079 3.71997 163.638C3.71997 251.962 75.3179 323.56 163.642 323.56C203.571 323.56 240.078 308.926 268.101 284.731L282.628 296.176L299.874 274.292L287.633 264.645C310.093 237.105 323.568 201.947 323.568 163.638H323.564Z" fill="white"/>
</mask>
<g mask="url(#mask2_725_1201)">
<path d="M163.114 234.471C201.218 234.471 232.107 203.581 232.107 165.478C232.107 127.374 201.218 96.4847 163.114 96.4847C125.01 96.4847 94.1211 127.374 94.1211 165.478C94.1211 203.581 125.01 234.471 163.114 234.471Z" fill="#FED0D0" stroke="#EA8B8B" stroke-width="1.11" stroke-miterlimit="10"/>
<path d="M149.904 167.674V165.091H151.684V167.674H156.808V169.186H144.775V167.674H149.9H149.904ZM146.262 158.763H155.329V160.275H151.698V160.628C151.698 161.081 151.791 161.461 151.981 161.765C152.17 162.07 152.509 162.371 152.999 162.661C153.441 162.936 153.91 163.2 154.404 163.46C154.898 163.72 155.433 163.995 156.005 164.285L155.214 165.667C154.98 165.556 154.727 165.426 154.46 165.284C154.192 165.143 153.917 164.998 153.642 164.846C153.363 164.694 153.092 164.545 152.824 164.393C152.557 164.244 152.308 164.103 152.081 163.969C151.713 163.753 151.435 163.564 151.241 163.404C151.048 163.244 150.918 163.099 150.855 162.966H150.84C150.784 163.099 150.647 163.244 150.431 163.411C150.216 163.575 149.915 163.772 149.528 163.999C149.302 164.132 149.056 164.274 148.785 164.422C148.517 164.575 148.246 164.723 147.975 164.876C147.7 165.028 147.429 165.173 147.157 165.314C146.882 165.455 146.63 165.582 146.396 165.697L145.589 164.285C146.161 163.991 146.697 163.716 147.191 163.46C147.685 163.2 148.153 162.936 148.596 162.661C149.086 162.371 149.424 162.07 149.614 161.765C149.803 161.461 149.896 161.081 149.896 160.628V160.275H146.266V158.763H146.262Z" fill="#424142"/>
<path d="M160.309 166.206H161.68C162.33 166.206 163.003 166.184 163.698 166.143C164.393 166.102 165.073 166.035 165.73 165.953L165.927 167.451C165.258 167.555 164.53 167.626 163.739 167.663C162.947 167.7 162.118 167.718 161.253 167.718H158.54V162.382H162.776V160.234H158.54V158.722H164.541V163.835H160.305V166.206H160.309ZM168.681 170.836H166.886V157.704H168.681V170.836Z" fill="#424142"/>
<path d="M174.63 161.929C174.582 162.051 174.474 162.204 174.3 162.382C174.125 162.561 173.917 162.75 173.672 162.947C173.371 163.192 173.058 163.445 172.731 163.709C172.404 163.973 172.033 164.255 171.609 164.556L170.58 163.255C171.015 162.954 171.39 162.676 171.71 162.423C172.029 162.17 172.349 161.907 172.668 161.632C173.025 161.319 173.281 161 173.43 160.673C173.579 160.346 173.657 159.967 173.657 159.543V158.031H175.463V159.513C175.463 159.74 175.478 159.941 175.504 160.119C175.533 160.297 175.582 160.465 175.66 160.621C175.734 160.777 175.838 160.925 175.964 161.067C176.091 161.208 176.254 161.36 176.451 161.52C176.563 161.605 176.7 161.702 176.853 161.817C177.009 161.929 177.172 162.048 177.347 162.17C177.521 162.293 177.7 162.416 177.882 162.538C178.064 162.661 178.242 162.78 178.41 162.891L177.421 164.121C177.128 163.932 176.834 163.731 176.533 163.516C176.232 163.3 175.931 163.081 175.63 162.865C175.348 162.65 175.125 162.468 174.961 162.323C174.798 162.178 174.69 162.048 174.642 161.936H174.627L174.63 161.929ZM181.394 164.824V168.566H174.883V169.554H181.788V170.966H173.159V167.224H179.669V166.236H173.088V164.824H181.39H181.394ZM181.394 164.229H179.614V157.704H181.394V164.229Z" fill="#424142"/>
</g>
<mask id="mask3_725_1201" style="mask-type:luminance" maskUnits="userSpaceOnUse" x="3" y="3" width="321" height="321">
<path d="M323.564 163.638C323.564 75.3141 251.966 3.71613 163.642 3.71613C120.019 3.71613 80.4759 21.1818 51.6241 49.5021L30.5799 25.2657L9.53937 43.5341L33.3224 70.9254C14.6824 97.0755 3.71997 129.079 3.71997 163.638C3.71997 251.962 75.3179 323.56 163.642 323.56C203.571 323.56 240.078 308.926 268.101 284.731L282.628 296.176L299.874 274.292L287.633 264.645C310.093 237.105 323.568 201.947 323.568 163.638H323.564Z" fill="white"/>
</mask>
<g mask="url(#mask3_725_1201)">
<path d="M163.642 258.685C155.648 258.517 126.73 257.473 101.661 234.924C85.2395 220.153 74.121 199.595 71.5123 176.462C42.0028 181.814 12.497 187.165 -17.0125 192.52C-4.15105 280.766 71.8282 348.536 163.642 348.536C188.725 348.536 208.725 343.189 217.863 340.35C246.425 331.472 266.786 317.388 278.621 307.789C255.158 288.202 231.698 268.614 208.235 249.027C199.818 253.014 184.017 259.112 163.642 258.688V258.685Z" fill="#FED0D0" stroke="#EA8B8B" stroke-width="1.11" stroke-miterlimit="10"/>
<path d="M98.2648 272.457C98.2351 272.579 98.1385 272.728 97.975 272.902C97.8115 273.077 97.6182 273.263 97.4027 273.46C97.0831 273.761 96.7598 274.051 96.4365 274.329C96.1132 274.608 95.7267 274.924 95.2845 275.284L94.1846 273.984C94.5525 273.701 94.9241 273.397 95.2994 273.066C95.6747 272.735 96.0278 272.416 96.3585 272.107C96.6967 271.777 96.9382 271.449 97.0868 271.119C97.2318 270.788 97.3061 270.383 97.3061 269.904V268.168H99.1121V269.833C99.1121 270.086 99.127 270.312 99.153 270.509C99.1827 270.706 99.2273 270.885 99.2942 271.044C99.3611 271.204 99.4503 271.357 99.5692 271.505C99.6881 271.65 99.8405 271.803 100.03 271.962C100.368 272.256 100.714 272.535 101.067 272.802C101.42 273.07 101.765 273.326 102.104 273.571L101.074 274.813C100.799 274.616 100.506 274.396 100.19 274.155C99.8739 273.913 99.5506 273.657 99.2236 273.386C98.9783 273.189 98.7702 273.014 98.603 272.862C98.4321 272.709 98.3243 272.575 98.2797 272.453H98.2648V272.457ZM96.3436 275.931H105.043V280.959H103.263V277.444H96.3436V275.931ZM105.043 275.337H103.263V267.67H105.043V275.337Z" fill="#424142"/>
<path d="M107.514 268.462H113.657V269.974H109.279V273.01C109.77 273.01 110.234 273.01 110.676 273.003C111.119 272.999 111.55 272.988 111.97 272.973C112.389 272.958 112.809 272.936 113.233 272.902C113.657 272.869 114.095 272.828 114.545 272.784L114.701 274.266C114.277 274.322 113.831 274.367 113.367 274.4C112.902 274.433 112.386 274.459 111.821 274.478C111.256 274.497 110.624 274.508 109.922 274.511C109.22 274.515 108.417 274.519 107.514 274.519V268.462ZM113.415 281.2C112.813 281.2 112.263 281.137 111.769 281.018C111.275 280.899 110.851 280.721 110.498 280.494C110.145 280.268 109.87 279.996 109.68 279.684C109.487 279.368 109.391 279.023 109.391 278.648V278.053C109.391 277.678 109.487 277.332 109.68 277.016C109.874 276.7 110.145 276.429 110.498 276.206C110.851 275.983 111.275 275.805 111.769 275.682C112.263 275.559 112.813 275.5 113.415 275.5C114.017 275.5 114.567 275.563 115.061 275.682C115.556 275.805 115.979 275.979 116.332 276.206C116.685 276.433 116.957 276.704 117.15 277.016C117.343 277.332 117.44 277.678 117.44 278.053V278.648C117.44 279.023 117.343 279.368 117.15 279.684C116.957 280 116.685 280.271 116.332 280.494C115.979 280.721 115.556 280.896 115.061 281.018C114.567 281.141 114.017 281.2 113.415 281.2ZM113.415 276.949C113.058 276.949 112.739 276.986 112.456 277.061C112.174 277.135 111.936 277.232 111.743 277.351C111.55 277.47 111.401 277.6 111.297 277.737C111.193 277.878 111.141 278.019 111.141 278.161V278.529C111.141 278.67 111.193 278.811 111.297 278.952C111.401 279.093 111.55 279.223 111.743 279.339C111.936 279.458 112.174 279.554 112.456 279.629C112.739 279.703 113.058 279.74 113.415 279.74C113.772 279.74 114.091 279.703 114.374 279.629C114.656 279.554 114.894 279.458 115.087 279.339C115.281 279.22 115.429 279.09 115.533 278.952C115.637 278.811 115.689 278.67 115.689 278.529V278.161C115.689 278.019 115.637 277.878 115.533 277.737C115.429 277.596 115.281 277.466 115.087 277.351C114.894 277.232 114.656 277.135 114.374 277.061C114.091 276.986 113.772 276.949 113.415 276.949ZM117.399 270.554H119.123V272.107H117.399V275.441H115.619V267.674H117.399V270.554Z" fill="#424142"/>
</g>
<mask id="mask4_725_1201" style="mask-type:luminance" maskUnits="userSpaceOnUse" x="3" y="3" width="321" height="321">
<path d="M323.564 163.638C323.564 75.3141 251.966 3.71613 163.642 3.71613C120.019 3.71613 80.4759 21.1818 51.6241 49.5021L30.5799 25.2657L9.53937 43.5341L33.3224 70.9254C14.6824 97.0755 3.71997 129.079 3.71997 163.638C3.71997 251.962 75.3179 323.56 163.642 323.56C203.571 323.56 240.078 308.926 268.101 284.731L282.628 296.176L299.874 274.292L287.633 264.645C310.093 237.105 323.568 201.947 323.568 163.638H323.564Z" fill="white"/>
</mask>
<g mask="url(#mask4_725_1201)">
<path d="M163.642 73.2331C214.853 73.2331 256.369 114.749 256.369 165.961C256.369 170.242 256.072 174.452 255.511 178.581C285.125 183.103 314.738 187.626 344.352 192.148C345.582 183.597 346.217 174.853 346.217 165.964C346.217 65.1245 264.478 -16.6183 163.642 -16.6183C135.05 -16.6183 107.993 -10.0446 83.8982 1.67226C96.9305 28.6474 109.959 55.6225 122.991 82.5976C135.266 76.5998 149.06 73.2331 163.638 73.2331H163.642Z" fill="#FED0D0" stroke="#EA8B8B" stroke-width="1.11" stroke-miterlimit="10"/>
<path d="M230.963 62.3041C230.933 62.4268 230.836 62.5754 230.673 62.7501C230.509 62.9247 230.316 63.1105 230.1 63.3075C229.781 63.6085 229.458 63.8983 229.134 64.177C228.811 64.4557 228.425 64.7716 227.982 65.1321L226.882 63.8314C227.25 63.549 227.622 63.2443 227.997 62.9136C228.372 62.5828 228.726 62.2632 229.056 61.9548C229.394 61.6241 229.636 61.2971 229.785 60.9663C229.93 60.6356 230.004 60.2305 230.004 59.7512V58.0157H231.81V59.6806C231.81 59.9333 231.825 60.1599 231.851 60.3569C231.88 60.5538 231.925 60.7322 231.992 60.892C232.059 61.0518 232.148 61.2042 232.267 61.3528C232.386 61.4977 232.538 61.6501 232.728 61.8099C233.066 62.1035 233.412 62.3822 233.765 62.6497C234.118 62.9173 234.463 63.1737 234.801 63.4189L233.772 64.6601C233.497 64.4632 233.203 64.2439 232.888 64.0024C232.572 63.7608 232.248 63.5044 231.921 63.2331C231.676 63.0362 231.468 62.8615 231.301 62.7092C231.13 62.5568 231.022 62.423 230.977 62.3004H230.963V62.3041ZM229.041 65.7787H237.741V70.8065H235.961V67.2911H229.041V65.7787ZM237.741 65.1841H235.961V57.5178H237.741V65.1841Z" fill="#424142"/>
<path d="M240.212 58.3093H246.355V59.8217H241.977V62.8577C242.468 62.8577 242.932 62.8578 243.374 62.8503C243.817 62.8466 244.248 62.8355 244.668 62.8206C245.087 62.8057 245.507 62.7834 245.931 62.75C246.355 62.7165 246.793 62.6757 247.243 62.6311L247.399 64.1138C246.975 64.1695 246.529 64.2141 246.065 64.2476C245.6 64.281 245.084 64.307 244.519 64.3256C243.954 64.3442 243.322 64.3553 242.62 64.3591C241.918 64.3628 241.115 64.3665 240.212 64.3665V58.3093ZM246.113 71.048C245.511 71.048 244.961 70.9848 244.467 70.8659C243.973 70.747 243.549 70.5686 243.196 70.342C242.843 70.1153 242.568 69.844 242.378 69.5319C242.185 69.216 242.089 68.8704 242.089 68.4951V67.9005C242.089 67.5252 242.185 67.1796 242.378 66.8637C242.572 66.5478 242.843 66.2766 243.196 66.0536C243.549 65.8306 243.973 65.6523 244.467 65.5296C244.961 65.407 245.511 65.3475 246.113 65.3475C246.715 65.3475 247.265 65.4107 247.759 65.5296C248.254 65.6523 248.677 65.8269 249.03 66.0536C249.383 66.2803 249.655 66.5515 249.848 66.8637C250.041 67.1796 250.138 67.5252 250.138 67.9005V68.4951C250.138 68.8704 250.041 69.216 249.848 69.5319C249.655 69.8477 249.383 70.119 249.03 70.342C248.677 70.5686 248.254 70.7433 247.759 70.8659C247.265 70.9886 246.715 71.048 246.113 71.048ZM246.113 66.7968C245.756 66.7968 245.437 66.834 245.154 66.9083C244.872 66.9826 244.634 67.0792 244.441 67.1981C244.248 67.3171 244.099 67.4471 243.995 67.5846C243.891 67.7258 243.839 67.867 243.839 68.0083V68.3761C243.839 68.5174 243.891 68.6586 243.995 68.7998C244.099 68.941 244.248 69.0711 244.441 69.1863C244.634 69.3052 244.872 69.4018 245.154 69.4761C245.437 69.5504 245.756 69.5876 246.113 69.5876C246.47 69.5876 246.789 69.5504 247.072 69.4761C247.354 69.4018 247.592 69.3052 247.785 69.1863C247.979 69.0673 248.127 68.9373 248.231 68.7998C248.335 68.6586 248.387 68.5174 248.387 68.3761V68.0083C248.387 67.867 248.335 67.7258 248.231 67.5846C248.127 67.4434 247.979 67.3133 247.785 67.1981C247.592 67.0792 247.354 66.9826 247.072 66.9083C246.789 66.834 246.47 66.7968 246.113 66.7968ZM250.097 60.4014H251.821V61.9547H250.097V65.2881H248.317V57.5214H250.097V60.4014Z" fill="#424142"/>
</g>
<mask id="mask5_725_1201" style="mask-type:luminance" maskUnits="userSpaceOnUse" x="3" y="3" width="321" height="321">
<path d="M323.564 163.638C323.564 75.3141 251.966 3.71613 163.642 3.71613C120.019 3.71613 80.4759 21.1818 51.6241 49.5021L30.5799 25.2657L9.53937 43.5341L33.3224 70.9254C14.6824 97.0755 3.71997 129.079 3.71997 163.638C3.71997 251.962 75.3179 323.56 163.642 323.56C203.571 323.56 240.078 308.926 268.101 284.731L282.628 296.176L299.874 274.292L287.633 264.645C310.093 237.105 323.568 201.947 323.568 163.638H323.564Z" fill="white"/>
</mask>
<g mask="url(#mask5_725_1201)">
<path d="M-12.7872 118.826C-16.7931 133.861 -18.9336 149.658 -18.9336 165.957C-18.9336 174.98 -18.2758 183.846 -17.0124 192.516C12.4971 187.165 42.0029 181.814 71.5124 176.459C71.1222 173.01 70.9178 169.506 70.9178 165.957C70.9178 157.146 72.1478 148.625 74.4444 140.554C45.3697 133.311 16.2913 126.069 -12.7835 118.826H-12.7872Z" fill="#FED0D0" stroke="#EA8B8B" stroke-width="1.11" stroke-miterlimit="10"/>
<path d="M22.0475 160.665C22.7052 160.309 23.2849 159.982 23.7792 159.684C24.2734 159.387 24.6933 159.112 25.0426 158.852C25.392 158.592 25.6707 158.347 25.8825 158.109C26.0943 157.875 26.2578 157.637 26.3693 157.403L22.0623 157.514L22.0066 155.991L26.5551 155.92V154.155H22.3039V152.631H28.3054V155.879C28.3054 156.555 28.231 157.146 28.0861 157.652C27.9412 158.157 27.6699 158.636 27.276 159.093C26.8821 159.551 26.3321 160.015 25.6298 160.491C24.9274 160.966 24.0207 161.509 22.9133 162.122L22.0512 160.669L22.0475 160.665ZM32.1144 156.202H33.9204V157.756H32.1144V164.619H30.3195V151.487H32.1144V156.202Z" fill="#424142"/>
<path d="M35.6747 159.677V154.185H34.6156V152.758H41.1262V154.185H40.1377V159.591C40.3272 159.573 40.5131 159.554 40.6951 159.536C40.8772 159.517 41.0593 159.499 41.2377 159.48L41.3938 160.877C40.9032 160.952 40.3421 161.007 39.7141 161.048C39.0861 161.089 38.3763 161.104 37.5959 161.104H34.5896V159.677H35.6784H35.6747ZM38.4581 154.185H37.3581V159.677H38.4581V154.185ZM41.9029 157.588H40.7026V156.05H41.9029V151.758H43.5825V163.988H41.9029V157.592V157.588ZM44.3889 151.487H46.0686V164.619H44.3889V151.487Z" fill="#424142"/>
</g>
<mask id="mask6_725_1201" style="mask-type:luminance" maskUnits="userSpaceOnUse" x="3" y="3" width="321" height="321">
<path d="M323.564 163.638C323.564 75.3141 251.966 3.71613 163.642 3.71613C120.019 3.71613 80.4759 21.1818 51.6241 49.5021L30.5799 25.2657L9.53937 43.5341L33.3224 70.9254C14.6824 97.0755 3.71997 129.079 3.71997 163.638C3.71997 251.962 75.3179 323.56 163.642 323.56C203.571 323.56 240.078 308.926 268.101 284.731L282.628 296.176L299.874 274.292L287.633 264.645C310.093 237.105 323.568 201.947 323.568 163.638H323.564Z" fill="white"/>
</mask>
<g mask="url(#mask6_725_1201)">
<path d="M328.28 244.965C336.161 228.566 341.669 210.81 344.352 192.144C314.738 187.622 285.125 183.099 255.511 178.577C254.032 189.432 250.673 199.688 245.779 209.012C273.278 220.996 300.78 232.98 328.28 244.965Z" fill="#FED0D0" stroke="#EA8B8B" stroke-width="1.11" stroke-miterlimit="10"/>
<path d="M294.833 192H278.167C276.418 192 275 193.418 275 195.167V211.833C275 213.582 276.418 215 278.167 215H294.833C296.582 215 298 213.582 298 211.833V195.167C298 193.418 296.582 192 294.833 192Z" fill="#F85C5C"/>
<path d="M277.893 199.608H279.128L280.724 205.736L282.301 199.618L283.546 199.608L285.123 205.736L286.719 199.608H287.954L285.911 207.36H284.429L282.919 201.584L281.418 207.36H279.936L277.893 199.608Z" fill="#FDFDFD"/>
<path d="M288.409 204.159V202.8C288.409 200.691 289.929 199.466 291.725 199.466C293.349 199.466 294.499 200.416 294.879 201.974L293.71 202.306C293.435 201.195 292.808 200.606 291.725 200.606C290.575 200.606 289.635 201.366 289.635 202.867V204.102C289.635 205.603 290.575 206.363 291.725 206.363C292.808 206.363 293.435 205.774 293.71 204.662L294.879 204.995C294.499 206.553 293.349 207.503 291.725 207.503C289.929 207.503 288.409 206.287 288.409 204.159Z" fill="#FDFDFD"/>
</g>
<mask id="mask7_725_1201" style="mask-type:luminance" maskUnits="userSpaceOnUse" x="3" y="3" width="321" height="321">
<path d="M323.564 163.638C323.564 75.3141 251.966 3.71613 163.642 3.71613C120.019 3.71613 80.4759 21.1818 51.6241 49.5021L30.5799 25.2657L9.53937 43.5341L33.3224 70.9254C14.6824 97.0755 3.71997 129.079 3.71997 163.638C3.71997 251.962 75.3179 323.56 163.642 323.56C203.571 323.56 240.078 308.926 268.101 284.731L282.628 296.176L299.874 274.292L287.633 264.645C310.093 237.105 323.568 201.947 323.568 163.638H323.564Z" fill="white"/>
</mask>
<g mask="url(#mask7_725_1201)">
<path d="M81.0554 128.48C58.6659 107.038 36.2765 85.6002 13.887 64.1584C8.70306 70.6876 2.70157 79.4352 -2.63474 90.4609C-7.78525 101.107 -10.877 110.907 -12.7871 118.826C16.2876 126.069 45.366 133.311 74.4407 140.554C75.013 138.759 75.8491 136.615 77.0977 134.315C78.4021 131.914 79.8105 129.974 81.0517 128.48H81.0554Z" fill="#FED0D0" stroke="#EA8B8B" stroke-width="1.11" stroke-miterlimit="10"/>
<path d="M50.8333 103H34.1667C32.4178 103 31 104.418 31 106.167V122.833C31 124.582 32.4178 126 34.1667 126H50.8333C52.5822 126 54 124.582 54 122.833V106.167C54 104.418 52.5822 103 50.8333 103Z" fill="#F85C5C"/>
<path d="M33.8931 110.608H35.1281L36.7241 116.736L38.3012 110.618L39.5457 110.608L41.1227 116.736L42.7188 110.608H43.9538L41.9112 118.36H40.4292L38.9187 112.584L37.4176 118.36H35.9356L33.8931 110.608Z" fill="#FDFDFD"/>
<path d="M44.4092 115.159V113.8C44.4092 111.691 45.9292 110.466 47.7248 110.466C49.3493 110.466 50.4988 111.416 50.8788 112.974L49.7103 113.306C49.4348 112.195 48.8078 111.606 47.7248 111.606C46.5752 111.606 45.6347 112.366 45.6347 113.867V115.102C45.6347 116.603 46.5752 117.363 47.7248 117.363C48.8078 117.363 49.4348 116.774 49.7103 115.662L50.8788 115.995C50.4988 117.553 49.3493 118.503 47.7248 118.503C45.9292 118.503 44.4092 117.287 44.4092 115.159Z" fill="#FDFDFD"/>
</g>
<path d="M163.642 3.71609C251.966 3.71609 323.564 75.3141 323.564 163.638C323.564 201.947 310.093 237.109 287.629 264.645L299.87 274.292L282.624 296.176L268.098 284.731C240.074 308.926 203.568 323.56 163.638 323.56C75.314 323.56 3.71609 251.962 3.71609 163.638C3.71609 129.078 14.6786 97.0755 33.3185 70.9254L9.53549 43.534L30.576 25.2657L51.6202 49.5021C80.472 21.1817 120.015 3.71609 163.638 3.71609M163.638 0C141.817 0 120.628 4.2252 100.658 12.5604C82.5827 20.1041 66.1873 30.7135 51.8655 44.1212L33.3817 22.8317L30.9439 20.026L28.1383 22.4638L7.09774 40.7321L4.29209 43.1699L6.72984 45.9755L28.6102 71.178C19.7548 84.084 12.8205 98.1383 7.99331 112.984C2.69045 129.29 0 146.336 0 163.646C0 185.734 4.32553 207.165 12.8614 227.343C21.1037 246.83 32.9023 264.329 47.9302 279.357C62.958 294.385 80.4571 306.184 99.9443 314.426C120.123 322.958 141.55 327.287 163.642 327.287C183.62 327.287 203.136 323.727 221.654 316.704C238.584 310.283 254.225 301.152 268.187 289.539L280.327 299.105L283.244 301.405L285.545 298.488L302.791 276.604L305.091 273.687L302.174 271.386L292.865 264.051C303.397 250.52 311.68 235.537 317.514 219.458C323.995 201.598 327.28 182.821 327.28 163.646C327.28 141.557 322.954 120.126 314.419 99.948C306.176 80.4608 294.378 62.9618 279.35 47.9339C264.322 32.906 246.823 21.1074 227.336 12.8651C207.161 4.33296 185.73 0.00371547 163.638 0.00371547V0Z" fill="#EA8B8B"/>
</svg>
