<svg width="328" height="328" viewBox="0 0 328 328" fill="none" xmlns="http://www.w3.org/2000/svg">
<path d="M163.642 325.411C141.802 325.411 120.617 321.134 100.669 312.698C81.4048 304.549 64.1026 292.885 49.2457 278.028C34.3888 263.171 22.724 245.87 14.5746 226.606C6.13904 206.662 1.86182 185.473 1.86182 163.634C1.86182 130.254 11.9213 98.2735 30.9663 71.0426L6.91942 43.3472L30.7656 22.6454L51.7392 46.8031C81.9956 17.8034 121.657 1.858 163.642 1.858C185.481 1.858 206.667 6.13513 226.615 14.5705C245.879 22.7197 263.181 34.3842 278.038 49.2408C292.895 64.0974 304.56 81.3991 312.709 100.663C321.145 120.61 325.422 141.795 325.422 163.634C325.422 182.59 322.174 201.151 315.768 218.81C309.792 235.283 301.212 250.593 290.257 264.346L302.483 273.978L282.936 298.782L268.15 287.132C254.058 299.072 238.202 308.429 220.996 314.954C202.691 321.895 183.397 325.415 163.642 325.415V325.411Z" fill="#FFE8E8"/>
<path d="M163.642 3.71601C251.966 3.71601 323.564 75.3123 323.564 163.634C323.564 201.943 310.093 237.104 287.629 264.639L299.87 274.286L282.624 296.17L268.098 284.724C240.074 308.919 203.568 323.553 163.638 323.553C75.3141 323.553 3.71609 251.956 3.71609 163.634C3.71609 129.076 14.6786 97.0733 33.3185 70.9237L9.53549 43.533L30.576 25.2651L51.6202 49.5009C80.472 21.1812 120.015 3.71601 163.638 3.71601M163.638 0C141.817 0 120.628 4.2251 100.658 12.5601C82.5827 20.1036 66.1873 30.7128 51.8655 44.1202L33.3817 22.8312L30.9439 20.0256L28.1383 22.4633L7.09774 40.7312L4.29209 43.1689L6.72984 45.9745L28.6102 71.1764C19.7548 84.0821 12.8205 98.1361 7.99332 112.982C2.69045 129.287 0 146.333 0 163.642C0 185.73 4.32553 207.16 12.8614 227.338C21.1037 246.825 32.9023 264.323 47.9302 279.351C62.958 294.378 80.4571 306.177 99.9443 314.419C120.123 322.951 141.55 327.28 163.642 327.28C183.62 327.28 203.137 323.72 221.654 316.697C238.584 310.276 254.225 301.145 268.187 289.533L280.327 299.098L283.244 301.398L285.545 298.481L302.791 276.597L305.091 273.68L302.174 271.38L292.865 264.045C303.397 250.515 311.68 235.532 317.514 219.453C323.995 201.593 327.28 182.816 327.28 163.642C327.28 141.554 322.954 120.124 314.419 99.9457C306.176 80.459 294.378 62.9603 279.35 47.9328C264.322 32.9052 246.823 21.1069 227.336 12.8648C207.161 4.33287 185.73 0.00371609 163.638 0.00371609V0Z" fill="#EA8B8B"/>
<mask id="mask0_583_1933" style="mask-type:luminance" maskUnits="userSpaceOnUse" x="3" y="3" width="321" height="321">
<path d="M323.564 163.634C323.564 75.3123 251.966 3.716 163.642 3.716C120.019 3.716 80.4756 21.1812 51.6239 49.5009L30.5796 25.2651L9.53913 43.533L33.3221 70.9237C14.6822 97.0733 3.71973 129.076 3.71973 163.634C3.71973 251.956 75.3177 323.553 163.642 323.553C203.571 323.553 240.078 308.919 268.101 284.724L282.627 296.17L299.874 274.286L287.633 264.639C310.093 237.1 323.568 201.943 323.568 163.634H323.564Z" fill="white"/>
</mask>
<g mask="url(#mask0_583_1933)">
<path d="M264.666 246.551L247.42 268.435L282.625 296.179L299.872 274.295L264.666 246.551Z" fill="#FFE8E8" stroke="#EA8B8B" stroke-width="1.11" stroke-miterlimit="10" stroke-linejoin="round"/>
<path d="M294.029 269.682L276.942 291.692" stroke="#EA8B8B" stroke-width="1.11" stroke-miterlimit="10" stroke-linejoin="round"/>
<path d="M288.131 265.033L271.044 287.047" stroke="#EA8B8B" stroke-width="1.11" stroke-miterlimit="10" stroke-linejoin="round"/>
<path d="M282.483 259.979L265.396 281.989" stroke="#EA8B8B" stroke-width="1.11" stroke-miterlimit="10" stroke-linejoin="round"/>
<path d="M276.343 255.215L259.257 277.225" stroke="#EA8B8B" stroke-width="1.11" stroke-miterlimit="10" stroke-linejoin="round"/>
<path d="M270.126 251.132L253.04 273.141" stroke="#EA8B8B" stroke-width="1.11" stroke-miterlimit="10" stroke-linejoin="round"/>
</g>
<mask id="mask1_583_1933" style="mask-type:luminance" maskUnits="userSpaceOnUse" x="3" y="3" width="321" height="321">
<path d="M323.564 163.634C323.564 75.3124 251.966 3.71603 163.642 3.71603C120.019 3.71603 80.4756 21.1813 51.6239 49.501L30.5796 25.2652L9.53913 43.5331L33.3221 70.9238C14.6822 97.0733 3.71973 129.076 3.71973 163.634C3.71973 251.957 75.3177 323.553 163.642 323.553C203.571 323.553 240.078 308.919 268.101 284.724L282.627 296.17L299.874 274.286L287.633 264.639C310.093 237.1 323.568 201.943 323.568 163.634H323.564Z" fill="white"/>
</mask>
<g mask="url(#mask1_583_1933)">
<path d="M30.581 25.2715L9.53955 43.5363L38.9228 77.3848L59.9642 59.12L30.581 25.2715Z" fill="#FFE8E8" stroke="#EA8B8B" stroke-width="1.11" stroke-miterlimit="10" stroke-linejoin="round"/>
<path d="M55.0874 53.492L34.1807 71.9122" stroke="#EA8B8B" stroke-width="1.11" stroke-miterlimit="10" stroke-linejoin="round"/>
<path d="M50.167 47.8213L29.2603 66.2453" stroke="#EA8B8B" stroke-width="1.11" stroke-miterlimit="10" stroke-linejoin="round"/>
<path d="M45.563 41.7977L24.6562 60.2217" stroke="#EA8B8B" stroke-width="1.11" stroke-miterlimit="10" stroke-linejoin="round"/>
<path d="M40.4272 35.971L19.5205 54.3912" stroke="#EA8B8B" stroke-width="1.11" stroke-miterlimit="10" stroke-linejoin="round"/>
<path d="M35.0837 30.7909L14.1807 49.2111" stroke="#EA8B8B" stroke-width="1.11" stroke-miterlimit="10" stroke-linejoin="round"/>
</g>
<mask id="mask2_583_1933" style="mask-type:luminance" maskUnits="userSpaceOnUse" x="3" y="3" width="321" height="321">
<path d="M323.564 163.634C323.564 75.3123 251.966 3.716 163.642 3.716C120.019 3.716 80.4756 21.1812 51.6239 49.5009L30.5796 25.2651L9.53913 43.533L33.3221 70.9237C14.6822 97.0733 3.71973 129.076 3.71973 163.634C3.71973 251.956 75.3177 323.553 163.642 323.553C203.571 323.553 240.078 308.919 268.101 284.724L282.627 296.17L299.874 274.286L287.633 264.639C310.093 237.1 323.568 201.943 323.568 163.634H323.564Z" fill="white"/>
</mask>
<g mask="url(#mask2_583_1933)">
<path d="M110.097 86.4604L92.1479 99.6857C85.615 110.235 79.0784 120.785 72.5455 131.335C70.576 143.538 68.6102 155.742 66.6406 167.941C69.6321 180.145 72.6235 192.348 75.615 204.548C82.7016 214.626 89.7844 224.7 96.871 234.777C107.499 241.626 118.127 248.475 128.755 255.323C136.786 233.83 144.816 212.34 152.847 190.847C152.297 174.314 151.743 157.782 151.193 141.249C141.825 120.466 132.456 99.6819 123.088 78.8983C118.759 81.4178 114.43 83.9372 110.097 86.4567V86.4604Z" fill="#FFD0D0" stroke="#EA8B8B" stroke-width="1.11" stroke-miterlimit="10" stroke-linejoin="round"/>
<path d="M99.1307 171.732L99.4428 170.32C99.9222 170.617 101.011 170.855 101.758 170.855C102.943 170.855 103.579 170.36 103.579 169.342C103.579 168.324 102.929 168.016 101.784 167.986L100.725 167.956V166.559L101.672 166.529C102.732 166.499 103.382 166.05 103.382 165.188C103.382 164.326 102.817 163.973 101.799 163.973C101.108 163.973 100.301 164.184 99.7364 164.426L99.5246 162.973C100.145 162.65 101.345 162.423 102.349 162.423C104.185 162.423 105.355 163.255 105.355 164.838C105.355 165.998 104.705 166.745 103.646 167.128C104.861 167.354 105.678 168.06 105.678 169.483C105.678 171.304 104.352 172.408 102.107 172.408C100.922 172.408 99.6918 172.085 99.127 171.732H99.1307Z" fill="#424242"/>
<path d="M106.993 167.737V167.228C106.993 163.712 108.87 162.427 110.903 162.427C112.935 162.427 114.771 163.739 114.771 167.183V167.677C114.771 171.163 112.95 172.434 110.873 172.434C108.796 172.434 106.99 171.078 106.99 167.733L106.993 167.737ZM112.698 167.793V167.187C112.698 164.942 112.092 163.924 110.892 163.924C109.691 163.924 109.097 164.883 109.097 167.087V167.692C109.097 169.881 109.647 170.94 110.877 170.94C112.107 170.94 112.698 170.052 112.698 167.793Z" fill="#424242"/>
<path d="M117.403 164.545L115.823 164.842V163.672L118.391 162.542H119.42V172.326H117.403V164.549V164.545Z" fill="#424242"/>
</g>
<mask id="mask3_583_1933" style="mask-type:luminance" maskUnits="userSpaceOnUse" x="3" y="3" width="321" height="321">
<path d="M323.564 163.634C323.564 75.3123 251.966 3.716 163.642 3.716C120.019 3.716 80.4756 21.1812 51.6239 49.5009L30.5796 25.2651L9.53913 43.533L33.3221 70.9237C14.6822 97.0733 3.71973 129.076 3.71973 163.634C3.71973 251.956 75.3177 323.553 163.642 323.553C203.571 323.553 240.078 308.919 268.101 284.724L282.627 296.17L299.874 274.286L287.633 264.639C310.093 237.1 323.568 201.943 323.568 163.634H323.564Z" fill="white"/>
</mask>
<g mask="url(#mask3_583_1933)">
<path d="M198.134 149.655L148.06 134.308C139.736 115.839 131.412 97.3743 123.088 78.9057C134.348 75.6468 145.607 72.3916 156.867 69.1326C170.115 70.9163 183.363 72.7 196.614 74.4837C207.57 81.4475 218.525 88.4113 229.48 95.3751C236.745 105.832 244.01 116.285 251.275 126.742C233.56 134.378 215.845 142.018 198.134 149.655Z" fill="#FFD0D0" stroke="#EA8B8B" stroke-width="1.11" stroke-miterlimit="10" stroke-linejoin="round"/>
<path d="M171.07 111.882L171.382 110.47C171.862 110.767 172.95 111.005 173.697 111.005C174.883 111.005 175.518 110.51 175.518 109.492C175.518 108.474 174.868 108.166 173.723 108.136L172.664 108.106V106.709L173.612 106.679C174.671 106.649 175.321 106.2 175.321 105.338C175.321 104.476 174.756 104.123 173.738 104.123C173.047 104.123 172.241 104.334 171.676 104.576L171.464 103.123C172.085 102.8 173.285 102.573 174.288 102.573C176.124 102.573 177.295 103.405 177.295 104.988C177.295 106.148 176.644 106.895 175.585 107.277C176.8 107.504 177.618 108.21 177.618 109.633C177.618 111.454 176.291 112.558 174.047 112.558C172.861 112.558 171.631 112.235 171.066 111.882H171.07Z" fill="#424242"/>
<path d="M178.937 107.887V107.378C178.937 103.862 180.814 102.577 182.847 102.577C184.879 102.577 186.715 103.888 186.715 107.333V107.827C186.715 111.313 184.894 112.584 182.817 112.584C180.74 112.584 178.934 111.228 178.934 107.883L178.937 107.887ZM184.642 107.943V107.337C184.642 105.092 184.036 104.074 182.835 104.074C181.635 104.074 181.041 105.033 181.041 107.237V107.842C181.041 110.031 181.591 111.09 182.821 111.09C184.051 111.09 184.642 110.202 184.642 107.943Z" fill="#424242"/>
<path d="M188 111.261L189.68 109.466C191.007 108.054 192.166 106.783 192.166 105.639C192.166 104.494 191.516 104.115 190.316 104.115C189.71 104.115 188.903 104.412 188.368 104.695L188.116 103.268C188.792 102.885 189.781 102.577 190.91 102.577C193.14 102.577 194.244 103.58 194.244 105.36C194.244 107.14 192.564 108.834 191.575 109.864L190.572 110.882H194.27V112.42H188V111.261Z" fill="#424242"/>
</g>
<mask id="mask4_583_1933" style="mask-type:luminance" maskUnits="userSpaceOnUse" x="3" y="3" width="321" height="321">
<path d="M323.564 163.634C323.564 75.3123 251.966 3.716 163.642 3.716C120.019 3.716 80.4756 21.1812 51.6239 49.5009L30.5796 25.2651L9.53913 43.533L33.3221 70.9237C14.6822 97.0733 3.71973 129.076 3.71973 163.634C3.71973 251.956 75.3177 323.553 163.642 323.553C203.571 323.553 240.078 308.919 268.101 284.724L282.627 296.17L299.874 274.286L287.633 264.639C310.093 237.1 323.568 201.943 323.568 163.634H323.564Z" fill="white"/>
</mask>
<g mask="url(#mask4_583_1933)">
<path d="M198.135 149.655C215.849 142.018 233.564 134.378 251.275 126.742C254.036 138.93 256.801 151.119 259.562 163.307L251.932 199.245C234.166 192.289 216.399 185.332 198.633 178.38C198.465 168.807 198.298 159.231 198.131 149.659L198.135 149.655Z" fill="#FFD0D0" stroke="#EA8B8B" stroke-width="1.11" stroke-miterlimit="10" stroke-linejoin="round"/>
<path d="M217.971 167.703L218.283 166.291C218.763 166.589 219.852 166.826 220.598 166.826C221.784 166.826 222.419 166.332 222.419 165.314C222.419 164.296 221.769 163.987 220.624 163.958L219.565 163.928V162.531L220.513 162.501C221.572 162.471 222.222 162.022 222.222 161.16C222.222 160.297 221.658 159.944 220.643 159.944C219.952 159.944 219.145 160.156 218.581 160.398L218.369 158.945C218.989 158.622 220.19 158.395 221.193 158.395C223.029 158.395 224.199 159.227 224.199 160.81C224.199 161.97 223.549 162.717 222.49 163.099C223.705 163.326 224.523 164.032 224.523 165.455C224.523 167.276 223.196 168.38 220.952 168.38C219.766 168.38 218.536 168.056 217.971 167.703Z" fill="#424242"/>
<path d="M225.834 163.705V163.196C225.834 159.681 227.711 158.395 229.744 158.395C231.776 158.395 233.612 159.707 233.612 163.151V163.646C233.612 167.131 231.791 168.402 229.714 168.402C227.637 168.402 225.831 167.046 225.831 163.701L225.834 163.705ZM231.538 163.761V163.155C231.538 160.911 230.933 159.892 229.732 159.892C228.532 159.892 227.938 160.851 227.938 163.055V163.66C227.938 165.849 228.488 166.908 229.718 166.908C230.948 166.908 231.538 166.02 231.538 163.761Z" fill="#424242"/>
<path d="M234.493 167.703L234.805 166.291C235.285 166.589 236.373 166.826 237.12 166.826C238.306 166.826 238.941 166.332 238.941 165.314C238.941 164.296 238.291 163.987 237.146 163.958L236.087 163.928V162.531L237.035 162.501C238.094 162.471 238.744 162.022 238.744 161.16C238.744 160.297 238.179 159.944 237.161 159.944C236.47 159.944 235.664 160.156 235.099 160.398L234.887 158.945C235.507 158.622 236.708 158.395 237.711 158.395C239.547 158.395 240.717 159.227 240.717 160.81C240.717 161.97 240.067 162.717 239.008 163.099C240.223 163.326 241.041 164.032 241.041 165.455C241.041 167.276 239.714 168.38 237.47 168.38C236.284 168.38 235.054 168.056 234.489 167.703H234.493Z" fill="#424242"/>
</g>
<mask id="mask5_583_1933" style="mask-type:luminance" maskUnits="userSpaceOnUse" x="3" y="3" width="321" height="321">
<path d="M323.564 163.634C323.564 75.3123 251.966 3.716 163.642 3.716C120.019 3.716 80.4756 21.1812 51.6239 49.5009L30.5796 25.2651L9.53913 43.533L33.3221 70.9237C14.6822 97.0733 3.71973 129.076 3.71973 163.634C3.71973 251.956 75.3177 323.553 163.642 323.553C203.571 323.553 240.078 308.919 268.101 284.724L282.627 296.17L299.874 274.286L287.633 264.639C310.093 237.1 323.568 201.943 323.568 163.634H323.564Z" fill="white"/>
</mask>
<g mask="url(#mask5_583_1933)">
<path d="M178.554 201.415C185.247 193.734 191.94 186.057 198.633 178.376C216.399 185.332 234.166 192.289 251.932 199.241C245.355 210.278 238.777 221.318 232.2 232.355C222.412 239.225 212.624 246.093 202.835 252.964C194.742 235.781 186.644 218.598 178.551 201.415H178.554Z" fill="#FFD0D0" stroke="#EA8B8B" stroke-width="1.11" stroke-miterlimit="10" stroke-linejoin="round"/>
<path d="M201.907 214.826L202.219 213.414C202.698 213.711 203.787 213.949 204.534 213.949C205.719 213.949 206.355 213.455 206.355 212.437C206.355 211.419 205.704 211.11 204.56 211.08L203.501 211.051V209.653L204.448 209.624C205.507 209.594 206.158 209.144 206.158 208.282C206.158 207.42 205.593 207.067 204.575 207.067C203.884 207.067 203.077 207.279 202.512 207.52L202.3 206.068C202.921 205.744 204.121 205.518 205.125 205.518C206.96 205.518 208.131 206.35 208.131 207.933C208.131 209.092 207.481 209.839 206.422 210.222C207.637 210.449 208.454 211.155 208.454 212.578C208.454 214.399 207.128 215.502 204.883 215.502C203.698 215.502 202.468 215.179 201.903 214.826H201.907Z" fill="#424242"/>
<path d="M209.77 210.831V210.322C209.77 206.807 211.646 205.521 213.679 205.521C215.712 205.521 217.548 206.833 217.548 210.278V210.772C217.548 214.258 215.727 215.528 213.649 215.528C211.572 215.528 209.766 214.172 209.766 210.828L209.77 210.831ZM215.474 210.887V210.281C215.474 208.037 214.868 207.019 213.668 207.019C212.468 207.019 211.873 207.978 211.873 210.181V210.787C211.873 212.976 212.423 214.035 213.653 214.035C214.883 214.035 215.474 213.147 215.474 210.887Z" fill="#424242"/>
<path d="M222.958 213.641H218.595V212.567L223.538 205.633H224.849V212.199H226.317V213.641H224.849V215.562H222.958V213.641ZM222.973 212.199V208.936L220.643 212.199H222.973Z" fill="#424242"/>
<path d="M152.56 182.285C167.071 181.943 181.583 181.601 196.094 181.259C190.249 187.978 184.4 194.697 178.554 201.419C168.721 201.471 158.892 201.523 149.06 201.575C150.323 198 151.583 194.429 152.846 190.854C152.75 187.997 152.657 185.143 152.56 182.285Z" fill="#FFD0D0" stroke="#EA8B8B" stroke-width="1.11" stroke-miterlimit="10" stroke-linejoin="round"/>
<path d="M155.311 195.473L155.556 194.358C155.935 194.592 156.793 194.782 157.384 194.782C158.321 194.782 158.822 194.392 158.822 193.589C158.822 192.787 158.309 192.541 157.406 192.519L156.57 192.497V191.393L157.317 191.371C158.153 191.348 158.666 190.992 158.666 190.312C158.666 189.632 158.22 189.353 157.418 189.353C156.871 189.353 156.236 189.52 155.79 189.71L155.623 188.561C156.113 188.305 157.061 188.127 157.852 188.127C159.302 188.127 160.227 188.784 160.227 190.033C160.227 190.947 159.714 191.538 158.878 191.839C159.837 192.017 160.483 192.575 160.483 193.701C160.483 195.139 159.435 196.008 157.663 196.008C156.726 196.008 155.756 195.752 155.311 195.473Z" fill="#424242"/>
<path d="M161.52 192.318V191.917C161.52 189.141 163.003 188.127 164.608 188.127C166.213 188.127 167.663 189.163 167.663 191.884V192.274C167.663 195.027 166.225 196.031 164.586 196.031C162.947 196.031 161.52 194.96 161.52 192.318ZM166.024 192.363V191.884C166.024 190.111 165.545 189.308 164.597 189.308C163.649 189.308 163.181 190.066 163.181 191.805V192.285C163.181 194.013 163.616 194.849 164.586 194.849C165.556 194.849 166.024 194.147 166.024 192.363Z" fill="#424242"/>
<path d="M171.933 194.537H168.488V193.69L172.39 188.216H173.426V193.4H174.586V194.537H173.426V196.053H171.933V194.537ZM171.944 193.4V190.824L170.104 193.4H171.944Z" fill="#424242"/>
<path d="M177.819 188.249H179.469L182.155 195.897H180.528L179.892 194.069H177.172L176.548 195.897H175.099L177.819 188.249ZM177.529 192.943H179.525L178.532 190.044H178.488L177.529 192.943Z" fill="#424242"/>
</g>
<mask id="mask6_583_1933" style="mask-type:luminance" maskUnits="userSpaceOnUse" x="3" y="3" width="321" height="321">
<path d="M323.564 163.634C323.564 75.3123 251.966 3.716 163.642 3.716C120.019 3.716 80.4756 21.1812 51.6239 49.5009L30.5796 25.2651L9.53913 43.533L33.3221 70.9237C14.6822 97.0733 3.71973 129.076 3.71973 163.634C3.71973 251.956 75.3177 323.553 163.642 323.553C203.571 323.553 240.078 308.919 268.101 284.724L282.627 296.17L299.874 274.286L287.633 264.639C310.093 237.1 323.568 201.943 323.568 163.634H323.564Z" fill="white"/>
</mask>
<g mask="url(#mask6_583_1933)">
<path fill-rule="evenodd" clip-rule="evenodd" d="M162.769 201.434L162.769 201.434V201.43L162.769 201.434ZM162.772 201.434L162.769 201.434L162.769 201.434C160.485 201.456 158.2 201.479 155.916 201.502C153.631 201.526 151.345 201.549 149.06 201.571V201.575C145.677 210.533 142.293 219.492 138.909 228.45C135.524 237.41 132.139 246.37 128.755 255.331C135.05 256.34 141.346 257.349 147.642 258.359C153.938 259.369 160.234 260.379 166.529 261.388L166.529 261.383C172.576 259.981 178.624 258.579 184.671 257.176C190.726 255.772 196.781 254.367 202.835 252.964C198.788 244.371 194.74 235.779 190.692 227.186C186.644 218.596 182.597 210.005 178.551 201.415L162.772 201.434Z" fill="#FFD0D0"/>
<path d="M162.769 201.434H162.214C162.214 201.581 162.272 201.722 162.376 201.826C162.481 201.93 162.622 201.989 162.769 201.989L162.769 201.434ZM162.769 201.43L163.322 201.395C163.304 201.096 163.051 200.866 162.751 200.875C162.452 200.885 162.214 201.13 162.214 201.43H162.769ZM162.772 201.434L162.772 200.879L162.772 200.879L162.772 201.434ZM162.769 201.434L162.774 201.989C162.932 201.987 163.082 201.918 163.187 201.799C163.291 201.68 163.339 201.522 163.32 201.365L162.769 201.434ZM155.916 201.502L155.922 202.057L155.916 201.502ZM149.06 201.571L149.055 201.016C148.75 201.019 148.505 201.267 148.505 201.571H149.06ZM149.06 201.575L149.579 201.771C149.603 201.708 149.615 201.642 149.615 201.575H149.06ZM138.909 228.45L138.39 228.254L138.909 228.45ZM128.755 255.331L128.236 255.135C128.177 255.291 128.192 255.465 128.275 255.609C128.359 255.753 128.503 255.852 128.668 255.879L128.755 255.331ZM147.642 258.359L147.73 257.811L147.642 258.359ZM166.529 261.388L166.442 261.936C166.608 261.962 166.778 261.912 166.903 261.799C167.027 261.685 167.094 261.521 167.083 261.353L166.529 261.388ZM166.529 261.383L166.404 260.843C166.14 260.904 165.958 261.147 165.975 261.418L166.529 261.383ZM184.671 257.176L184.797 257.717L184.671 257.176ZM202.835 252.964L202.961 253.504C203.124 253.466 203.262 253.357 203.335 253.206C203.408 253.055 203.409 252.879 203.338 252.727L202.835 252.964ZM190.692 227.186L190.19 227.423L190.692 227.186ZM178.551 201.415L179.053 201.179C178.961 200.984 178.765 200.86 178.55 200.86L178.551 201.415ZM162.769 201.989L162.769 201.989L162.768 200.879L162.768 200.879L162.769 201.989ZM162.214 201.43V201.434H163.324V201.43H162.214ZM163.323 201.399L163.322 201.395L162.215 201.465L162.215 201.468L163.323 201.399ZM162.77 201.989L162.773 201.989L162.772 200.879L162.768 200.879L162.77 201.989ZM163.32 201.365L163.32 201.365L162.218 201.502L162.218 201.502L163.32 201.365ZM155.922 202.057C158.206 202.034 160.49 202.011 162.774 201.989L162.763 200.879C160.479 200.901 158.195 200.924 155.911 200.947L155.922 202.057ZM149.066 202.126C151.351 202.104 153.637 202.081 155.922 202.057L155.911 200.947C153.625 200.971 151.34 200.994 149.055 201.016L149.066 202.126ZM149.615 201.575V201.571H148.505V201.575H149.615ZM139.428 228.646C142.812 219.688 146.196 210.729 149.579 201.771L148.541 201.379C145.158 210.337 141.774 219.295 138.39 228.254L139.428 228.646ZM129.275 255.527C132.658 246.567 136.043 237.606 139.428 228.646L138.39 228.254C135.005 237.214 131.62 246.174 128.236 255.135L129.275 255.527ZM147.73 257.811C141.434 256.801 135.138 255.792 128.843 254.783L128.668 255.879C134.962 256.888 141.258 257.897 147.554 258.907L147.73 257.811ZM166.617 260.84C160.322 259.831 154.026 258.821 147.73 257.811L147.554 258.907C153.85 259.917 160.146 260.927 166.442 261.936L166.617 260.84ZM165.975 261.418L165.976 261.423L167.083 261.353L167.083 261.348L165.975 261.418ZM184.546 256.635C178.498 258.038 172.451 259.441 166.404 260.843L166.654 261.924C172.702 260.522 178.749 259.119 184.797 257.717L184.546 256.635ZM202.71 252.423C196.655 253.826 190.601 255.231 184.546 256.635L184.797 257.717C190.851 256.312 196.906 254.908 202.961 253.504L202.71 252.423ZM190.19 227.423C194.238 236.015 198.286 244.608 202.333 253.2L203.338 252.727C199.29 244.135 195.242 235.542 191.194 226.95L190.19 227.423ZM178.049 201.652C182.095 210.242 186.142 218.832 190.19 227.423L191.194 226.95C187.146 218.359 183.099 209.769 179.053 201.179L178.049 201.652ZM162.773 201.989L178.551 201.97L178.55 200.86L162.772 200.879L162.773 201.989Z" fill="#EA8B8B"/>
<path d="M155 236.347L155.245 235.232C155.624 235.466 156.483 235.655 157.074 235.655C158.01 235.655 158.512 235.265 158.512 234.463C158.512 233.66 157.999 233.415 157.096 233.392L156.26 233.37V232.266L157.007 232.244C157.843 232.222 158.356 231.865 158.356 231.185C158.356 230.505 157.91 230.226 157.107 230.226C156.561 230.226 155.925 230.394 155.479 230.583L155.312 229.435C155.803 229.178 156.75 229 157.542 229C158.991 229 159.916 229.658 159.916 230.906C159.916 231.82 159.404 232.411 158.567 232.712C159.526 232.891 160.173 233.448 160.173 234.574C160.173 236.012 159.125 236.882 157.352 236.882C156.416 236.882 155.446 236.625 155 236.347Z" fill="#424242"/>
<path d="M161.21 233.192V232.79C161.21 230.014 162.693 229 164.298 229C165.903 229 167.353 230.037 167.353 232.757V233.147C167.353 235.901 165.915 236.904 164.276 236.904C162.637 236.904 161.21 235.834 161.21 233.192ZM165.714 233.236V232.757C165.714 230.984 165.234 230.182 164.287 230.182C163.339 230.182 162.871 230.94 162.871 232.679V233.158C162.871 234.886 163.306 235.722 164.276 235.722C165.246 235.722 165.714 235.02 165.714 233.236Z" fill="#424242"/>
<path d="M168.311 236.369L168.579 235.187C169.013 235.41 169.526 235.611 170.095 235.611C171.109 235.611 171.722 235.165 171.722 234.306C171.722 233.403 171.176 233.024 170.162 233.024C169.705 233.024 168.98 233.27 168.623 233.448L168.913 229.123H172.971V230.315H170.084L169.972 232.021C170.184 231.943 170.596 231.887 170.864 231.887C172.414 231.887 173.35 232.69 173.35 234.329C173.35 235.778 172.291 236.882 170.518 236.882C169.638 236.882 168.824 236.659 168.311 236.369Z" fill="#424242"/>
</g>
<mask id="mask7_583_1933" style="mask-type:luminance" maskUnits="userSpaceOnUse" x="3" y="3" width="321" height="321">
<path d="M323.564 163.634C323.564 75.3123 251.966 3.716 163.642 3.716C120.019 3.716 80.4756 21.1812 51.6239 49.5009L30.5796 25.2651L9.53913 43.533L33.3221 70.9237C14.6822 97.0733 3.71973 129.076 3.71973 163.634C3.71973 251.956 75.3177 323.553 163.642 323.553C203.571 323.553 240.078 308.919 268.101 284.724L282.627 296.17L299.874 274.286L287.633 264.639C310.093 237.1 323.568 201.943 323.568 163.634H323.564Z" fill="white"/>
</mask>
<g mask="url(#mask7_583_1933)">
<path d="M154.608 -8.59885L157.295 50.9725C143.214 54.3912 129.134 57.8099 115.058 61.2249L85.0278 1.17054C108.224 -2.08468 131.416 -5.33991 154.612 -8.59513L154.608 -8.59885Z" fill="#FFD0D0" stroke="#EA8B8B" stroke-width="1.11" stroke-miterlimit="10" stroke-linejoin="round"/>
<path d="M117.005 33.5407L117.317 32.1286C117.796 32.4259 118.885 32.6637 119.632 32.6637C120.817 32.6637 121.453 32.1695 121.453 31.1513C121.453 30.1331 120.803 29.8247 119.658 29.795L118.599 29.7652V28.368L119.546 28.3383C120.606 28.3086 121.256 27.8589 121.256 26.9968C121.256 26.1347 120.691 25.7817 119.673 25.7817C118.982 25.7817 118.175 25.9935 117.61 26.235L117.399 24.7821C118.019 24.4588 119.219 24.2321 120.223 24.2321C122.059 24.2321 123.229 25.0645 123.229 26.6475C123.229 27.8069 122.579 28.5538 121.52 28.9366C122.735 29.1632 123.552 29.8693 123.552 31.2925C123.552 33.1134 122.226 34.217 119.981 34.217C118.796 34.217 117.566 33.8937 117.001 33.5407H117.005Z" fill="#424242"/>
<path d="M124.872 29.546V29.0369C124.872 25.5215 126.749 24.2358 128.781 24.2358C130.814 24.2358 132.65 25.5476 132.65 28.9923V29.4865C132.65 32.9721 130.829 34.243 128.751 34.243C126.674 34.243 124.868 32.8867 124.868 29.5423L124.872 29.546ZM130.576 29.6017V28.996C130.576 26.7515 129.97 25.7334 128.77 25.7334C127.57 25.7334 126.975 26.6921 126.975 28.8957V29.5014C126.975 31.6901 127.525 32.7492 128.755 32.7492C129.985 32.7492 130.576 31.8611 130.576 29.6017Z" fill="#424242"/>
<path d="M137.804 25.9303H133.597V24.3919H139.978V25.5513L136.574 34.0795H134.37L137.8 25.934L137.804 25.9303Z" fill="#424242"/>
</g>
<mask id="mask8_583_1933" style="mask-type:luminance" maskUnits="userSpaceOnUse" x="3" y="3" width="321" height="321">
<path d="M323.564 163.634C323.564 75.3123 251.966 3.716 163.642 3.716C120.019 3.716 80.4756 21.1812 51.6239 49.5009L30.5796 25.2651L9.53913 43.533L33.3221 70.9237C14.6822 97.0733 3.71973 129.076 3.71973 163.634C3.71973 251.956 75.3177 323.553 163.642 323.553C203.571 323.553 240.078 308.919 268.101 284.724L282.627 296.17L299.874 274.286L287.633 264.639C310.093 237.1 323.568 201.943 323.568 163.634H323.564Z" fill="white"/>
</mask>
<g mask="url(#mask8_583_1933)">
<path d="M202.308 58.6832C187.302 56.1117 172.3 53.544 157.295 50.9725L154.608 -8.59885L223.913 -0.0297318C216.711 19.5425 209.509 39.111 202.308 58.6832Z" fill="#FFD0D0" stroke="#EA8B8B" stroke-width="1.11" stroke-miterlimit="10" stroke-linejoin="round"/>
<path d="M170.855 33.1319L171.167 31.7199C171.647 32.0171 172.735 32.255 173.482 32.255C174.668 32.255 175.303 31.7607 175.303 30.7425C175.303 29.7244 174.653 29.4159 173.508 29.3862L172.449 29.3565V27.9592L173.397 27.9295C174.456 27.8998 175.106 27.4502 175.106 26.588C175.106 25.7259 174.541 25.3729 173.527 25.3729C172.836 25.3729 172.029 25.5847 171.464 25.8263L171.253 24.3733C171.873 24.05 173.073 23.8233 174.077 23.8233C175.913 23.8233 177.083 24.6557 177.083 26.2387C177.083 27.3981 176.433 28.1451 175.374 28.5278C176.589 28.7545 177.406 29.4605 177.406 30.8837C177.406 32.7046 176.08 33.8082 173.835 33.8082C172.65 33.8082 171.42 33.485 170.855 33.1319Z" fill="#424242"/>
<path d="M178.721 29.1372V28.6281C178.721 25.1128 180.598 23.8271 182.631 23.8271C184.664 23.8271 186.499 25.1388 186.499 28.5835V29.0778C186.499 32.5634 184.678 33.8343 182.601 33.8343C180.524 33.8343 178.718 32.4779 178.718 29.1335L178.721 29.1372ZM184.426 29.193V28.5873C184.426 26.3428 183.82 25.3246 182.62 25.3246C181.419 25.3246 180.825 26.2833 180.825 28.4869V29.0926C180.825 31.2814 181.375 32.3404 182.605 32.3404C183.835 32.3404 184.426 31.4523 184.426 29.193Z" fill="#424242"/>
<path d="M187.785 31.2256C187.785 30.0254 188.647 29.1521 189.706 28.7285C188.718 28.264 188.053 27.6137 188.053 26.4283C188.053 24.8601 189.379 23.8308 191.512 23.8308C193.645 23.8308 194.901 24.7338 194.901 26.2722C194.901 27.2904 194.225 28.093 193.207 28.5464C194.322 28.9403 195.284 29.6612 195.284 31.0027C195.284 32.6674 193.902 33.8417 191.501 33.8417C189.101 33.8417 187.789 32.7826 187.789 31.2294L187.785 31.2256ZM193.292 31.0993C193.292 30.1814 192.571 29.6463 191.219 29.3342C190.386 29.6166 189.61 30.252 189.61 31.0287C189.61 31.9057 190.286 32.4408 191.446 32.4408C192.605 32.4408 193.296 31.8908 193.296 31.0993H193.292ZM193.081 26.4246C193.081 25.7334 192.586 25.2391 191.542 25.2391C190.595 25.2391 190.03 25.6776 190.03 26.3688C190.03 27.1455 190.565 27.6397 191.754 27.9072C192.445 27.6397 193.081 27.1455 193.081 26.4246Z" fill="#424242"/>
</g>
<mask id="mask9_583_1933" style="mask-type:luminance" maskUnits="userSpaceOnUse" x="3" y="3" width="321" height="321">
<path d="M323.564 163.634C323.564 75.3123 251.966 3.716 163.642 3.716C120.019 3.716 80.4756 21.1812 51.6239 49.5009L30.5796 25.2651L9.53913 43.533L33.3221 70.9237C14.6822 97.0733 3.71973 129.076 3.71973 163.634C3.71973 251.956 75.3177 323.553 163.642 323.553C203.571 323.553 240.078 308.919 268.101 284.724L282.627 296.17L299.874 274.286L287.633 264.639C310.093 237.1 323.568 201.943 323.568 163.634H323.564Z" fill="white"/>
</mask>
<g mask="url(#mask9_583_1933)">
<path d="M242.048 82.9264C228.8 74.8441 215.555 66.7655 202.308 58.6832C209.509 39.111 216.711 19.5425 223.913 -0.0297241C241.446 14.6745 258.982 29.3788 276.514 44.083C265.024 57.0296 253.534 69.9799 242.048 82.9264Z" fill="#FFD0D0" stroke="#EA8B8B" stroke-width="1.11" stroke-miterlimit="10" stroke-linejoin="round"/>
<path d="M223.604 51.7491L223.917 50.337C224.396 50.6343 225.485 50.8721 226.232 50.8721C227.417 50.8721 228.053 50.3779 228.053 49.3597C228.053 48.3415 227.402 48.0331 226.258 48.0034L225.199 47.9737V46.5764L226.146 46.5467C227.205 46.517 227.856 46.0673 227.856 45.2052C227.856 44.3431 227.291 43.9901 226.276 43.9901C225.585 43.9901 224.779 44.2019 224.214 44.4434L224.002 42.9905C224.623 42.6672 225.823 42.4405 226.826 42.4405C228.662 42.4405 229.833 43.2729 229.833 44.8559C229.833 46.0153 229.182 46.7622 228.123 47.145C229.338 47.3717 230.156 48.0777 230.156 49.5009C230.156 51.3218 228.829 52.4254 226.585 52.4254C225.399 52.4254 224.169 52.1021 223.604 51.7491Z" fill="#424242"/>
<path d="M231.471 47.7544V47.2453C231.471 43.73 233.348 42.4442 235.381 42.4442C237.414 42.4442 239.249 43.756 239.249 47.2007V47.695C239.249 51.1806 237.428 52.4515 235.351 52.4515C233.274 52.4515 231.468 51.0951 231.468 47.7507L231.471 47.7544ZM237.176 47.8102V47.2044C237.176 44.96 236.57 43.9418 235.37 43.9418C234.169 43.9418 233.575 44.9005 233.575 47.1041V47.7098C233.575 49.8986 234.125 50.9576 235.355 50.9576C236.585 50.9576 237.176 50.0695 237.176 47.8102Z" fill="#424242"/>
<path d="M247.555 46.766V47.4311C247.555 51.3404 245.634 52.4589 243.278 52.4589C242.304 52.4589 241.357 52.1059 240.907 51.8383L241.189 50.3853C241.583 50.5972 242.501 50.8796 243.166 50.8796C244.508 50.8796 245.496 50.4708 245.582 48.1C245.102 48.4939 244.326 48.8767 243.352 48.8767C241.643 48.8767 240.472 47.747 240.472 45.8815C240.472 43.9195 241.531 42.4665 243.776 42.4665C246.206 42.4665 247.559 44.0198 247.559 46.7734L247.555 46.766ZM242.36 45.7069C242.36 46.9332 243.036 47.472 243.954 47.472C244.575 47.472 245.266 47.0632 245.563 46.6545V46.4278C245.563 44.8894 245.039 43.886 243.828 43.886C242.869 43.886 242.36 44.5772 242.36 45.7069Z" fill="#424242"/>
</g>
<mask id="mask10_583_1933" style="mask-type:luminance" maskUnits="userSpaceOnUse" x="3" y="3" width="321" height="321">
<path d="M323.564 163.634C323.564 75.3123 251.966 3.716 163.642 3.716C120.019 3.716 80.4756 21.1812 51.6239 49.5009L30.5796 25.2651L9.53913 43.533L33.3221 70.9237C14.6822 97.0733 3.71973 129.076 3.71973 163.634C3.71973 251.956 75.3177 323.553 163.642 323.553C203.571 323.553 240.078 308.919 268.101 284.724L282.627 296.17L299.874 274.286L287.633 264.639C310.093 237.1 323.568 201.943 323.568 163.634H323.564Z" fill="white"/>
</mask>
<g mask="url(#mask10_583_1933)">
<path d="M242.047 82.9265C250.903 93.8181 259.755 104.713 268.61 115.605C285.507 109.083 302.404 102.562 319.301 96.0402C305.039 78.7199 290.78 61.3996 276.518 44.083C265.028 57.0296 253.538 69.9799 242.051 82.9265H242.047Z" fill="#FFD0D0" stroke="#EA8B8B" stroke-width="1.11" stroke-miterlimit="10" stroke-linejoin="round"/>
<path d="M263.292 90.2247L263.604 88.8126C264.084 89.1099 265.173 89.3477 265.92 89.3477C267.105 89.3477 267.74 88.8535 267.74 87.8353C267.74 86.8171 267.09 86.5087 265.946 86.479L264.886 86.4492V85.052L265.834 85.0223C266.893 84.9926 267.544 84.5429 267.544 83.6808C267.544 82.8187 266.979 82.4657 265.96 82.4657C265.269 82.4657 264.463 82.6775 263.898 82.919L263.686 81.4661C264.307 81.1428 265.507 80.9161 266.51 80.9161C268.346 80.9161 269.517 81.7485 269.517 83.3315C269.517 84.4909 268.866 85.2378 267.807 85.6206C269.023 85.8472 269.84 86.5533 269.84 87.9765C269.84 89.7974 268.513 90.901 266.269 90.901C265.083 90.901 263.853 90.5777 263.289 90.2247H263.292Z" fill="#424242"/>
<path d="M272.427 83.0416L270.844 83.3389V82.1684L273.415 81.0387H274.445V90.823H272.427V83.0454V83.0416Z" fill="#424242"/>
<path d="M276.381 86.23V85.7209C276.381 82.2055 278.257 80.9198 280.29 80.9198C282.323 80.9198 284.158 82.2316 284.158 85.6763V86.1705C284.158 89.6561 282.338 90.927 280.26 90.927C278.183 90.927 276.377 89.5707 276.377 86.2263L276.381 86.23ZM282.085 86.2857V85.68C282.085 83.4355 281.479 82.4174 280.279 82.4174C279.079 82.4174 278.484 83.3761 278.484 85.5797V86.1854C278.484 88.3741 279.034 89.4332 280.264 89.4332C281.494 89.4332 282.085 88.545 282.085 86.2857Z" fill="#424242"/>
</g>
<mask id="mask11_583_1933" style="mask-type:luminance" maskUnits="userSpaceOnUse" x="3" y="3" width="321" height="321">
<path d="M323.564 163.634C323.564 75.3123 251.966 3.716 163.642 3.716C120.019 3.716 80.4756 21.1812 51.6239 49.5009L30.5796 25.2651L9.53913 43.533L33.3221 70.9237C14.6822 97.0733 3.71973 129.076 3.71973 163.634C3.71973 251.956 75.3177 323.553 163.642 323.553C203.571 323.553 240.078 308.919 268.101 284.724L282.627 296.17L299.874 274.286L287.633 264.639C310.093 237.1 323.568 201.943 323.568 163.634H323.564Z" fill="white"/>
</mask>
<g mask="url(#mask11_583_1933)">
<path d="M268.61 115.605C272.572 130.986 276.533 146.366 280.494 161.75C297.982 161.461 315.47 161.167 332.958 160.877C328.406 139.265 323.854 117.656 319.302 96.044C302.405 102.566 285.507 109.087 268.61 115.609V115.605Z" fill="#FFD0D0" stroke="#EA8B8B" stroke-width="1.11" stroke-miterlimit="10" stroke-linejoin="round"/>
<path d="M287.276 139.228L287.588 137.816C288.067 138.113 289.156 138.351 289.903 138.351C291.089 138.351 291.724 137.856 291.724 136.838C291.724 135.82 291.074 135.512 289.929 135.482L288.87 135.452V134.055L289.818 134.025C290.877 133.996 291.527 133.546 291.527 132.684C291.527 131.822 290.962 131.469 289.948 131.469C289.257 131.469 288.45 131.68 287.885 131.922L287.674 130.469C288.294 130.146 289.494 129.919 290.498 129.919C292.333 129.919 293.504 130.751 293.504 132.335C293.504 133.494 292.854 134.241 291.795 134.624C293.01 134.85 293.827 135.556 293.827 136.98C293.827 138.8 292.501 139.904 290.256 139.904C289.071 139.904 287.841 139.581 287.276 139.228Z" fill="#424242"/>
<path d="M296.414 132.041L294.835 132.338V131.168L297.403 130.038H298.432V139.822H296.414V132.045V132.041Z" fill="#424242"/>
<path d="M301.639 132.041L300.06 132.338V131.168L302.627 130.038H303.657V139.822H301.639V132.045V132.041Z" fill="#424242"/>
</g>
<mask id="mask12_583_1933" style="mask-type:luminance" maskUnits="userSpaceOnUse" x="3" y="3" width="321" height="321">
<path d="M323.564 163.634C323.564 75.3123 251.966 3.716 163.642 3.716C120.019 3.716 80.4756 21.1812 51.6239 49.5009L30.5796 25.2651L9.53913 43.533L33.3221 70.9237C14.6822 97.0733 3.71973 129.076 3.71973 163.634C3.71973 251.956 75.3177 323.553 163.642 323.553C203.571 323.553 240.078 308.919 268.101 284.724L282.627 296.17L299.874 274.286L287.633 264.639C310.093 237.1 323.568 201.943 323.568 163.634H323.564Z" fill="white"/>
</mask>
<g mask="url(#mask12_583_1933)">
<path d="M261.527 219.404C258.473 224.451 255.418 229.501 252.363 234.547C263.478 242.477 274.589 250.411 285.704 258.341C289.777 250.961 293.85 243.581 297.919 236.201C285.786 230.601 273.656 225.004 261.523 219.404H261.527Z" fill="#FFD0D0" stroke="#EA8B8B" stroke-width="1.11" stroke-miterlimit="10" stroke-linejoin="round"/>
<path d="M264.11 241.106L264.422 239.694C264.902 239.991 265.991 240.229 266.737 240.229C267.923 240.229 268.558 239.735 268.558 238.716C268.558 237.698 267.908 237.39 266.763 237.36L265.704 237.33V235.933L266.652 235.903C267.711 235.874 268.361 235.424 268.361 234.562C268.361 233.7 267.797 233.347 266.778 233.347C266.087 233.347 265.281 233.559 264.716 233.8L264.504 232.347C265.125 232.024 266.325 231.797 267.328 231.797C269.164 231.797 270.335 232.63 270.335 234.213C270.335 235.372 269.684 236.119 268.625 236.502C269.84 236.728 270.658 237.434 270.658 238.858C270.658 240.678 269.331 241.782 267.087 241.782C265.901 241.782 264.671 241.459 264.106 241.106H264.11Z" fill="#424242"/>
<path d="M273.248 233.919L271.665 234.216V233.046L274.237 231.916H275.266V241.7H273.248V233.923V233.919Z" fill="#424242"/>
<path d="M277.228 240.485L278.908 238.69C280.234 237.278 281.394 236.007 281.394 234.863C281.394 233.718 280.743 233.339 279.543 233.339C278.937 233.339 278.131 233.637 277.596 233.919L277.343 232.492C278.02 232.109 279.008 231.801 280.138 231.801C282.367 231.801 283.471 232.804 283.471 234.584C283.471 236.364 281.791 238.059 280.803 239.088L279.8 240.106H283.501V241.645H277.232V240.485H277.228Z" fill="#424242"/>
</g>
<mask id="mask13_583_1933" style="mask-type:luminance" maskUnits="userSpaceOnUse" x="3" y="3" width="321" height="321">
<path d="M323.564 163.634C323.564 75.3123 251.966 3.716 163.642 3.716C120.019 3.716 80.4756 21.1812 51.6239 49.5009L30.5796 25.2651L9.53913 43.533L33.3221 70.9237C14.6822 97.0733 3.71973 129.076 3.71973 163.634C3.71973 251.956 75.3177 323.553 163.642 323.553C203.571 323.553 240.078 308.919 268.101 284.724L282.627 296.17L299.874 274.286L287.633 264.639C310.093 237.1 323.568 201.943 323.568 163.634H323.564Z" fill="white"/>
</mask>
<g mask="url(#mask13_583_1933)">
<path d="M232.999 253.707C225.726 259.236 218.45 264.766 211.178 270.299C203.697 271.767 196.217 273.231 188.736 274.699C193.285 294.94 197.83 315.184 202.378 335.426C226.522 320.286 250.665 305.147 274.808 290.008C260.873 277.909 246.938 265.81 233.002 253.707H232.999Z" fill="#FFD0D0" stroke="#EA8B8B" stroke-width="1.11" stroke-miterlimit="10" stroke-linejoin="round"/>
<path d="M214.084 293.453L214.396 292.041C214.875 292.338 215.964 292.576 216.711 292.576C217.897 292.576 218.532 292.082 218.532 291.064C218.532 290.046 217.882 289.737 216.737 289.707L215.678 289.678V288.281L216.626 288.251C217.685 288.221 218.335 287.771 218.335 286.909C218.335 286.047 217.77 285.694 216.756 285.694C216.065 285.694 215.258 285.906 214.693 286.148L214.482 284.695C215.102 284.371 216.302 284.145 217.306 284.145C219.142 284.145 220.312 284.977 220.312 286.56C220.312 287.719 219.662 288.466 218.603 288.849C219.818 289.076 220.635 289.782 220.635 291.205C220.635 293.026 219.309 294.13 217.064 294.13C215.879 294.13 214.649 293.806 214.084 293.453Z" fill="#424242"/>
<path d="M223.222 286.266L221.643 286.564V285.393L224.21 284.264H225.24V294.048H223.222V286.27V286.266Z" fill="#424242"/>
<path d="M226.879 293.453L227.191 292.041C227.67 292.338 228.759 292.576 229.506 292.576C230.691 292.576 231.327 292.082 231.327 291.064C231.327 290.046 230.677 289.737 229.532 289.707L228.473 289.678V288.281L229.421 288.251C230.48 288.221 231.13 287.771 231.13 286.909C231.13 286.047 230.565 285.694 229.547 285.694C228.856 285.694 228.049 285.906 227.484 286.148L227.273 284.695C227.893 284.371 229.094 284.145 230.097 284.145C231.933 284.145 233.103 284.977 233.103 286.56C233.103 287.719 232.453 288.466 231.394 288.849C232.609 289.076 233.426 289.782 233.426 291.205C233.426 293.026 232.1 294.13 229.855 294.13C228.67 294.13 227.44 293.806 226.875 293.453H226.879Z" fill="#424242"/>
</g>
<mask id="mask14_583_1933" style="mask-type:luminance" maskUnits="userSpaceOnUse" x="3" y="3" width="321" height="321">
<path d="M323.564 163.634C323.564 75.3123 251.966 3.716 163.642 3.716C120.019 3.716 80.4756 21.1812 51.6239 49.5009L30.5796 25.2651L9.53913 43.533L33.3221 70.9237C14.6822 97.0733 3.71973 129.076 3.71973 163.634C3.71973 251.956 75.3177 323.553 163.642 323.553C203.571 323.553 240.078 308.919 268.101 284.724L282.627 296.17L299.874 274.286L287.633 264.639C310.093 237.1 323.568 201.943 323.568 163.634H323.564Z" fill="white"/>
</mask>
<g mask="url(#mask14_583_1933)">
<path d="M167.15 279.161C174.344 277.675 181.539 276.185 188.733 274.698C193.281 294.94 197.826 315.184 202.375 335.425C191.134 335.715 179.892 336.005 168.647 336.295C168.15 317.25 167.648 298.206 167.15 279.161Z" fill="#FFD0D0" stroke="#EA8B8B" stroke-width="1.11" stroke-miterlimit="10" stroke-linejoin="round"/>
<path d="M172.482 299.544L172.728 298.429C173.107 298.663 173.965 298.853 174.556 298.853C175.492 298.853 175.994 298.462 175.994 297.66C175.994 296.857 175.481 296.612 174.578 296.589L173.742 296.567V295.464L174.489 295.441C175.325 295.419 175.838 295.062 175.838 294.382C175.838 293.702 175.392 293.423 174.589 293.423C174.043 293.423 173.408 293.591 172.962 293.78L172.795 292.632C173.285 292.376 174.233 292.197 175.024 292.197C176.474 292.197 177.399 292.855 177.399 294.103C177.399 295.018 176.886 295.608 176.05 295.909C177.009 296.088 177.655 296.645 177.655 297.771C177.655 299.209 176.607 300.079 174.835 300.079C173.898 300.079 172.928 299.822 172.482 299.544Z" fill="#424242"/>
<path d="M179.695 293.869L178.447 294.103V293.178L180.476 292.286H181.29V300.012H179.695V293.869Z" fill="#424242"/>
<path d="M185.96 298.607H182.516V297.76L186.418 292.286H187.454V297.47H188.614V298.607H187.454V300.123H185.96V298.607ZM185.972 297.47V294.895L184.132 297.47H185.972Z" fill="#424242"/>
</g>
<mask id="mask15_583_1933" style="mask-type:luminance" maskUnits="userSpaceOnUse" x="3" y="3" width="321" height="321">
<path d="M323.564 163.634C323.564 75.3123 251.966 3.716 163.642 3.716C120.019 3.716 80.4756 21.1812 51.6239 49.5009L30.5796 25.2651L9.53913 43.533L33.3221 70.9237C14.6822 97.0733 3.71973 129.076 3.71973 163.634C3.71973 251.956 75.3177 323.553 163.642 323.553C203.571 323.553 240.078 308.919 268.101 284.724L282.627 296.17L299.874 274.286L287.633 264.639C310.093 237.1 323.568 201.943 323.568 163.634H323.564Z" fill="white"/>
</mask>
<g mask="url(#mask15_583_1933)">
<path d="M144.831 275.497C152.27 276.72 159.71 277.939 167.15 279.161C167.648 298.206 168.149 317.25 168.647 336.295C157.376 335.351 146.105 334.407 134.834 333.463C138.164 314.14 141.497 294.821 144.827 275.497H144.831Z" fill="#FFD0D0" stroke="#EA8B8B" stroke-width="1.11" stroke-miterlimit="10" stroke-linejoin="round"/>
<path d="M147.648 299.544L147.893 298.429C148.272 298.663 149.131 298.853 149.722 298.853C150.658 298.853 151.16 298.462 151.16 297.66C151.16 296.857 150.647 296.612 149.744 296.589L148.908 296.567V295.464L149.655 295.441C150.491 295.419 151.004 295.062 151.004 294.382C151.004 293.702 150.558 293.423 149.755 293.423C149.209 293.423 148.573 293.591 148.127 293.78L147.96 292.632C148.451 292.376 149.398 292.197 150.19 292.197C151.639 292.197 152.564 292.855 152.564 294.103C152.564 295.018 152.052 295.608 151.215 295.909C152.174 296.088 152.821 296.645 152.821 297.771C152.821 299.209 151.773 300.079 150 300.079C149.064 300.079 148.094 299.822 147.648 299.544Z" fill="#424242"/>
<path d="M154.86 293.869L153.612 294.103V293.178L155.641 292.286H156.455V300.012H154.86V293.869Z" fill="#424242"/>
<path d="M157.815 299.566L158.083 298.384C158.517 298.607 159.03 298.808 159.599 298.808C160.613 298.808 161.226 298.362 161.226 297.504C161.226 296.601 160.68 296.222 159.666 296.222C159.208 296.222 158.484 296.467 158.127 296.645L158.417 292.32H162.475V293.513H159.588L159.476 295.218C159.688 295.14 160.1 295.084 160.368 295.084C161.918 295.084 162.854 295.887 162.854 297.526C162.854 298.975 161.795 300.079 160.022 300.079C159.142 300.079 158.328 299.856 157.815 299.566Z" fill="#424242"/>
</g>
<mask id="mask16_583_1933" style="mask-type:luminance" maskUnits="userSpaceOnUse" x="3" y="3" width="321" height="321">
<path d="M323.564 163.634C323.564 75.3123 251.966 3.716 163.642 3.716C120.019 3.716 80.4756 21.1812 51.6239 49.5009L30.5796 25.2651L9.53913 43.533L33.3221 70.9237C14.6822 97.0733 3.71973 129.076 3.71973 163.634C3.71973 251.956 75.3177 323.553 163.642 323.553C203.571 323.553 240.078 308.919 268.101 284.724L282.627 296.17L299.874 274.286L287.633 264.639C310.093 237.1 323.568 201.943 323.568 163.634H323.564Z" fill="white"/>
</mask>
<g mask="url(#mask16_583_1933)">
<path d="M144.831 275.497C137.566 274.052 130.297 272.603 123.032 271.157C117.202 287.37 111.368 303.583 105.537 319.8C115.522 323.096 125.507 326.396 135.489 329.692C138.603 311.628 141.717 293.561 144.835 275.497H144.831Z" fill="#FFD0D0" stroke="#EA8B8B" stroke-width="1.11" stroke-miterlimit="10" stroke-linejoin="round"/>
<path d="M120.52 295.571L120.765 294.456C121.144 294.691 122.003 294.88 122.594 294.88C123.53 294.88 124.032 294.49 124.032 293.687C124.032 292.885 123.519 292.639 122.616 292.617L121.78 292.595V291.491L122.527 291.469C123.363 291.447 123.876 291.09 123.876 290.41C123.876 289.73 123.43 289.451 122.627 289.451C122.081 289.451 121.445 289.618 120.999 289.808L120.832 288.66C121.323 288.403 122.27 288.225 123.062 288.225C124.511 288.225 125.436 288.882 125.436 290.131C125.436 291.045 124.924 291.636 124.087 291.937C125.046 292.115 125.693 292.673 125.693 293.799C125.693 295.237 124.645 296.106 122.872 296.106C121.936 296.106 120.966 295.85 120.52 295.571Z" fill="#424242"/>
<path d="M127.733 289.897L126.484 290.131V289.206L128.513 288.314H129.327V296.039H127.733V289.897Z" fill="#424242"/>
<path d="M130.833 292.729V292.205C130.833 289.25 132.416 288.236 134.277 288.236C135.047 288.236 135.738 288.47 136.072 288.66L135.805 289.819C135.492 289.663 134.857 289.484 134.333 289.484C133.274 289.484 132.505 290.008 132.393 291.803C132.772 291.491 133.385 291.179 134.155 291.179C135.493 291.179 136.429 292.004 136.429 293.464C136.429 294.925 135.515 296.129 133.742 296.129C131.825 296.129 130.833 294.813 130.833 292.729ZM134.935 293.587C134.935 292.628 134.389 292.271 133.664 292.271C133.174 292.271 132.65 292.606 132.404 292.929V292.996C132.404 294.245 132.783 294.992 133.709 294.992C134.456 294.992 134.935 294.49 134.935 293.587Z" fill="#424242"/>
</g>
<mask id="mask17_583_1933" style="mask-type:luminance" maskUnits="userSpaceOnUse" x="3" y="3" width="321" height="321">
<path d="M323.564 163.634C323.564 75.3123 251.966 3.716 163.642 3.716C120.019 3.716 80.4756 21.1812 51.6239 49.5009L30.5796 25.2651L9.53913 43.533L33.3221 70.9237C14.6822 97.0733 3.71973 129.076 3.71973 163.634C3.71973 251.956 75.3177 323.553 163.642 323.553C203.571 323.553 240.078 308.919 268.101 284.724L282.627 296.17L299.874 274.286L287.633 264.639C310.093 237.1 323.568 201.943 323.568 163.634H323.564Z" fill="white"/>
</mask>
<g mask="url(#mask17_583_1933)">
<path d="M104.065 260.344L123.032 271.157C117.202 287.37 111.367 303.583 105.537 319.8C95.8007 314.567 86.0646 309.335 76.3247 304.107C85.5703 289.518 94.8197 274.933 104.065 260.344Z" fill="#FFD0D0" stroke="#EA8B8B" stroke-width="1.11" stroke-miterlimit="10" stroke-linejoin="round"/>
<path d="M96.3618 289.124L96.6071 288.009C96.9861 288.243 97.8445 288.433 98.4354 288.433C99.3718 288.433 99.8735 288.043 99.8735 287.24C99.8735 286.437 99.3607 286.192 98.4577 286.17L97.6216 286.147V285.044L98.3685 285.022C99.2046 284.999 99.7174 284.643 99.7174 283.962C99.7174 283.282 99.2715 283.004 98.4688 283.004C97.9226 283.004 97.2871 283.171 96.8412 283.36L96.674 282.212C97.1645 281.956 98.1121 281.777 98.9036 281.777C100.353 281.777 101.278 282.435 101.278 283.684C101.278 284.598 100.765 285.189 99.9293 285.49C100.888 285.668 101.535 286.226 101.535 287.351C101.535 288.79 100.487 289.659 98.7141 289.659C97.7776 289.659 96.8077 289.403 96.3618 289.124Z" fill="#424242"/>
<path d="M103.575 283.45L102.326 283.684V282.758L104.355 281.867H105.169V289.592H103.575V283.45Z" fill="#424242"/>
<path d="M109.94 283.115H106.618V281.9H111.657V282.814L108.97 289.548H107.231L109.94 283.115Z" fill="#424242"/>
</g>
<mask id="mask18_583_1933" style="mask-type:luminance" maskUnits="userSpaceOnUse" x="3" y="3" width="321" height="321">
<path d="M323.564 163.634C323.564 75.3123 251.966 3.716 163.642 3.716C120.019 3.716 80.4756 21.1812 51.6239 49.5009L30.5796 25.2651L9.53913 43.533L33.3221 70.9237C14.6822 97.0733 3.71973 129.076 3.71973 163.634C3.71973 251.956 75.3177 323.553 163.642 323.553C203.571 323.553 240.078 308.919 268.101 284.724L282.627 296.17L299.874 274.286L287.633 264.639C310.093 237.1 323.568 201.943 323.568 163.634H323.564Z" fill="white"/>
</mask>
<g mask="url(#mask18_583_1933)">
<path d="M85.3699 247.289C91.6018 251.641 97.83 255.992 104.062 260.344C93.1328 277.552 82.2038 294.761 71.2748 311.97C64.5486 303.07 57.8225 294.167 51.1001 285.267C62.5234 272.606 73.9466 259.95 85.3699 247.289Z" fill="#FFD0D0" stroke="#EA8B8B" stroke-width="1.11" stroke-miterlimit="10" stroke-linejoin="round"/>
<path d="M73.4595 274.617L73.7047 273.502C74.0838 273.736 74.9422 273.926 75.5331 273.926C76.4695 273.926 76.9712 273.535 76.9712 272.733C76.9712 271.93 76.4584 271.685 75.5553 271.663L74.7192 271.64V270.537L75.4662 270.514C76.3023 270.492 76.8151 270.135 76.8151 269.455C76.8151 268.775 76.3692 268.496 75.5665 268.496C75.0202 268.496 74.3848 268.664 73.9389 268.853L73.7716 267.705C74.2621 267.449 75.2098 267.27 76.0013 267.27C77.4506 267.27 78.3759 267.928 78.3759 269.176C78.3759 270.091 77.863 270.681 77.0269 270.982C77.9857 271.161 78.6323 271.718 78.6323 272.844C78.6323 274.282 77.5843 275.152 75.8118 275.152C74.8753 275.152 73.9054 274.895 73.4595 274.617Z" fill="#424242"/>
<path d="M80.6724 268.942L79.4238 269.176V268.251L81.4528 267.359H82.2666V275.085H80.6724V268.942Z" fill="#424242"/>
<path d="M83.6826 273.112C83.6826 272.164 84.3627 271.473 85.1988 271.139C84.4184 270.771 83.8944 270.258 83.8944 269.321C83.8944 268.084 84.9424 267.27 86.6258 267.27C88.3092 267.27 89.3013 267.984 89.3013 269.199C89.3013 270.001 88.7662 270.637 87.9636 270.994C88.8443 271.306 89.6023 271.874 89.6023 272.933C89.6023 274.249 88.5098 275.174 86.6146 275.174C84.7194 275.174 83.6826 274.338 83.6826 273.112ZM88.0304 273.011C88.0304 272.287 87.4619 271.863 86.3916 271.618C85.7339 271.841 85.1207 272.343 85.1207 272.956C85.1207 273.647 85.6559 274.07 86.57 274.07C87.4842 274.07 88.0304 273.636 88.0304 273.011ZM87.8632 269.321C87.8632 268.775 87.473 268.385 86.6481 268.385C85.9011 268.385 85.4552 268.731 85.4552 269.277C85.4552 269.89 85.8788 270.28 86.8153 270.492C87.3615 270.28 87.8632 269.89 87.8632 269.321Z" fill="#424242"/>
</g>
<mask id="mask19_583_1933" style="mask-type:luminance" maskUnits="userSpaceOnUse" x="3" y="3" width="321" height="321">
<path d="M323.564 163.634C323.564 75.3123 251.966 3.716 163.642 3.716C120.019 3.716 80.4756 21.1812 51.6239 49.5009L30.5796 25.2651L9.53913 43.533L33.3221 70.9237C14.6822 97.0733 3.71973 129.076 3.71973 163.634C3.71973 251.956 75.3177 323.553 163.642 323.553C203.571 323.553 240.078 308.919 268.101 284.724L282.627 296.17L299.874 274.286L287.633 264.639C310.093 237.1 323.568 201.943 323.568 163.634H323.564Z" fill="white"/>
</mask>
<g mask="url(#mask19_583_1933)">
<path d="M72.3186 230.333C76.6702 235.985 81.0217 241.637 85.3733 247.289C73.95 259.95 62.5267 272.606 51.1035 285.267C44.1469 276.75 37.1904 268.233 30.2339 259.719C44.2621 249.924 58.2904 240.128 72.3186 230.333Z" fill="#FFD0D0" stroke="#EA8B8B" stroke-width="1.11" stroke-miterlimit="10" stroke-linejoin="round"/>
<path d="M56.0127 256.917L56.258 255.803C56.637 256.037 57.4954 256.226 58.0863 256.226C59.0227 256.226 59.5244 255.836 59.5244 255.033C59.5244 254.231 59.0116 253.985 58.1086 253.963L57.2725 253.941V252.837L58.0194 252.815C58.8555 252.793 59.3683 252.436 59.3683 251.756C59.3683 251.076 58.9224 250.797 58.1197 250.797C57.5735 250.797 56.938 250.964 56.4921 251.154L56.3248 250.006C56.8154 249.749 57.763 249.571 58.5545 249.571C60.0038 249.571 60.9291 250.229 60.9291 251.477C60.9291 252.391 60.4163 252.982 59.5801 253.283C60.5389 253.461 61.1855 254.019 61.1855 255.145C61.1855 256.583 60.1376 257.452 58.365 257.452C57.4285 257.452 56.4586 257.196 56.0127 256.917Z" fill="#424242"/>
<path d="M63.2257 251.243L61.9771 251.477V250.552L64.006 249.66H64.8199V257.386H63.2257V251.243Z" fill="#424242"/>
<path d="M71.8318 252.982V253.506C71.8318 256.594 70.3156 257.475 68.4539 257.475C67.6846 257.475 66.9377 257.196 66.581 256.984L66.8039 255.836C67.1161 256.003 67.8407 256.226 68.3647 256.226C69.4238 256.226 70.2041 255.903 70.271 254.03C69.892 254.342 69.2788 254.643 68.5096 254.643C67.1607 254.643 66.2354 253.751 66.2354 252.28C66.2354 250.73 67.0715 249.582 68.8441 249.582C70.7616 249.582 71.8318 250.808 71.8318 252.982ZM67.7292 252.146C67.7292 253.116 68.2643 253.54 68.989 253.54C69.4795 253.54 70.0258 253.216 70.2599 252.893V252.715C70.2599 251.499 69.8474 250.708 68.8886 250.708C68.1306 250.708 67.7292 251.254 67.7292 252.146Z" fill="#424242"/>
</g>
<mask id="mask20_583_1933" style="mask-type:luminance" maskUnits="userSpaceOnUse" x="3" y="3" width="321" height="321">
<path d="M323.564 163.634C323.564 75.3123 251.966 3.716 163.642 3.716C120.019 3.716 80.4756 21.1812 51.6239 49.5009L30.5796 25.2651L9.53913 43.533L33.3221 70.9237C14.6822 97.0733 3.71973 129.076 3.71973 163.634C3.71973 251.956 75.3177 323.553 163.642 323.553C203.571 323.553 240.078 308.919 268.101 284.724L282.627 296.17L299.874 274.286L287.633 264.639C310.093 237.1 323.568 201.943 323.568 163.634H323.564Z" fill="white"/>
</mask>
<g mask="url(#mask20_583_1933)">
<path d="M59.7286 213.128C63.9241 218.862 68.1233 224.596 72.3187 230.333C58.2905 240.128 44.2622 249.924 30.234 259.719C24.5558 251.02 18.8813 242.325 13.2031 233.625C28.7141 226.795 44.2213 219.962 59.7323 213.132L59.7286 213.128Z" fill="#FFD0D0" stroke="#EA8B8B" stroke-width="1.11" stroke-miterlimit="10" stroke-linejoin="round"/>
<path d="M40.2046 235.539L40.4499 234.424C40.8289 234.659 41.6873 234.848 42.2782 234.848C43.2146 234.848 43.7163 234.458 43.7163 233.655C43.7163 232.853 43.2035 232.607 42.3005 232.585L41.4643 232.563V231.459L42.2113 231.437C43.0474 231.414 43.5602 231.058 43.5602 230.378C43.5602 229.698 43.1143 229.419 42.3116 229.419C41.7653 229.419 41.1299 229.586 40.684 229.776L40.5167 228.627C41.0073 228.371 41.9549 228.193 42.7464 228.193C44.1957 228.193 45.121 228.85 45.121 230.099C45.121 231.013 44.6082 231.604 43.772 231.905C44.7308 232.083 45.3774 232.641 45.3774 233.767C45.3774 235.205 44.3295 236.074 42.5569 236.074C41.6204 236.074 40.6505 235.818 40.2046 235.539Z" fill="#424242"/>
<path d="M46.269 235.052L47.5957 233.637C48.6436 232.522 49.5578 231.518 49.5578 230.615C49.5578 229.712 49.045 229.411 48.0974 229.411C47.618 229.411 46.9825 229.646 46.5589 229.869L46.3582 228.743C46.8933 228.442 47.6737 228.196 48.5656 228.196C50.327 228.196 51.1966 228.988 51.1966 230.393C51.1966 231.797 49.8699 233.135 49.0896 233.949L48.298 234.751H51.2189V235.967H46.269V235.052Z" fill="#424242"/>
<path d="M52.1665 232.388V231.987C52.1665 229.211 53.6492 228.196 55.2546 228.196C56.8599 228.196 58.3092 229.233 58.3092 231.953V232.343C58.3092 235.097 56.8711 236.1 55.2323 236.1C53.5935 236.1 52.1665 235.03 52.1665 232.388ZM56.6704 232.433V231.953C56.6704 230.181 56.191 229.378 55.2434 229.378C54.2958 229.378 53.8276 230.136 53.8276 231.875V232.355C53.8276 234.083 54.2624 234.919 55.2323 234.919C56.2022 234.919 56.6704 234.216 56.6704 232.433Z" fill="#424242"/>
</g>
<mask id="mask21_583_1933" style="mask-type:luminance" maskUnits="userSpaceOnUse" x="3" y="3" width="321" height="321">
<path d="M323.564 163.634C323.564 75.3123 251.966 3.716 163.642 3.716C120.019 3.716 80.4756 21.1812 51.6239 49.5009L30.5796 25.2651L9.53913 43.533L33.3221 70.9237C14.6822 97.0733 3.71973 129.076 3.71973 163.634C3.71973 251.956 75.3177 323.553 163.642 323.553C203.571 323.553 240.078 308.919 268.101 284.724L282.627 296.17L299.874 274.286L287.633 264.639C310.093 237.1 323.568 201.943 323.568 163.634H323.564Z" fill="white"/>
</mask>
<g mask="url(#mask21_583_1933)">
<path d="M48.9633 168.818C52.553 183.589 56.1427 198.357 59.7325 213.128L8.59535 235.283L-1.91748 170.494C15.0428 169.937 31.9993 169.379 48.9595 168.818H48.9633Z" fill="#FFD0D0" stroke="#EA8B8B" stroke-width="1.11" stroke-miterlimit="10" stroke-linejoin="round"/>
<path d="M22.1849 200.3L22.497 198.888C22.9764 199.185 24.0652 199.423 24.8121 199.423C25.9976 199.423 26.633 198.929 26.633 197.911C26.633 196.893 25.9827 196.584 24.8382 196.555L23.7791 196.525V195.128L24.7267 195.098C25.7858 195.068 26.4361 194.619 26.4361 193.756C26.4361 192.894 25.8712 192.541 24.853 192.541C24.1618 192.541 23.3554 192.753 22.7906 192.995L22.5788 191.542C23.1994 191.218 24.3997 190.992 25.403 190.992C27.2388 190.992 28.4093 191.824 28.4093 193.407C28.4093 194.566 27.759 195.313 26.6999 195.696C27.9151 195.923 28.7326 196.629 28.7326 198.052C28.7326 199.873 27.406 200.977 25.1615 200.977C23.976 200.977 22.746 200.653 22.1812 200.3H22.1849Z" fill="#424242"/>
<path d="M29.8662 199.68L31.5459 197.885C32.8725 196.473 34.032 195.202 34.032 194.057C34.032 192.913 33.3816 192.534 32.1813 192.534C31.5756 192.534 30.7692 192.831 30.2341 193.114L29.9814 191.687C30.6577 191.304 31.6462 190.995 32.7759 190.995C35.0056 190.995 36.1092 191.999 36.1092 193.779C36.1092 195.559 34.4296 197.253 33.4411 198.282L32.4377 199.301H36.1353V200.839H29.8662V199.68Z" fill="#424242"/>
<path d="M38.7515 193.114L37.1685 193.411V192.24L39.74 191.111H40.7694V200.895H38.7515V193.117V193.114Z" fill="#424242"/>
</g>
<mask id="mask22_583_1933" style="mask-type:luminance" maskUnits="userSpaceOnUse" x="3" y="3" width="321" height="321">
<path d="M323.564 163.634C323.564 75.3123 251.966 3.716 163.642 3.716C120.019 3.716 80.4756 21.1812 51.6239 49.5009L30.5796 25.2651L9.53913 43.533L33.3221 70.9237C14.6822 97.0733 3.71973 129.076 3.71973 163.634C3.71973 251.956 75.3177 323.553 163.642 323.553C203.571 323.553 240.078 308.919 268.101 284.724L282.627 296.17L299.874 274.286L287.633 264.639C310.093 237.1 323.568 201.943 323.568 163.634H323.564Z" fill="white"/>
</mask>
<g mask="url(#mask22_583_1933)">
<path d="M54.8235 127.571L48.9595 168.815C31.9993 169.372 15.0428 169.929 -1.91748 170.49L5.83057 110.191C22.1628 115.984 38.4913 121.777 54.8235 127.567V127.571Z" fill="#FFD0D0" stroke="#EA8B8B" stroke-width="1.11" stroke-miterlimit="10" stroke-linejoin="round"/>
<path d="M18.0117 150.677L18.3239 149.265C18.8032 149.562 19.8921 149.8 20.639 149.8C21.8244 149.8 22.4599 149.306 22.4599 148.287C22.4599 147.269 21.8096 146.961 20.665 146.931L19.6059 146.901V145.504L20.5535 145.474C21.6126 145.445 22.2629 144.995 22.2629 144.133C22.2629 143.271 21.6981 142.918 20.6836 142.918C19.9924 142.918 19.186 143.13 18.6212 143.371L18.4093 141.918C19.0299 141.595 20.2302 141.368 21.2336 141.368C23.0693 141.368 24.2399 142.201 24.2399 143.784C24.2399 144.943 23.5896 145.69 22.5305 146.073C23.7456 146.299 24.5632 147.005 24.5632 148.429C24.5632 150.249 23.2365 151.353 20.992 151.353C19.8066 151.353 18.5766 151.03 18.0117 150.677Z" fill="#424242"/>
<path d="M25.6929 150.052L27.3725 148.258C28.6992 146.846 29.8586 145.575 29.8586 144.43C29.8586 143.286 29.2083 142.907 28.008 142.907C27.4023 142.907 26.5959 143.204 26.0608 143.486L25.8081 142.059C26.4844 141.677 27.4729 141.368 28.6026 141.368C30.8322 141.368 31.9359 142.371 31.9359 144.151C31.9359 145.931 30.2562 147.626 29.2678 148.655L28.2644 149.673H31.9656V151.212H25.6966V150.052H25.6929Z" fill="#424242"/>
<path d="M33.2627 150.052L34.9424 148.258C36.269 146.846 37.4284 145.575 37.4284 144.43C37.4284 143.286 36.7781 142.907 35.5778 142.907C34.9721 142.907 34.1657 143.204 33.6306 143.486L33.3779 142.059C34.0542 141.677 35.0427 141.368 36.1724 141.368C38.4021 141.368 39.5057 142.371 39.5057 144.151C39.5057 145.931 37.8261 147.626 36.8376 148.655L35.8342 149.673H39.5317V151.212H33.2627V150.052Z" fill="#424242"/>
</g>
<mask id="mask23_583_1933" style="mask-type:luminance" maskUnits="userSpaceOnUse" x="3" y="3" width="321" height="321">
<path d="M323.564 163.634C323.564 75.3123 251.966 3.716 163.642 3.716C120.019 3.716 80.4756 21.1812 51.6239 49.5009L30.5796 25.2651L9.53913 43.533L33.3221 70.9237C14.6822 97.0733 3.71973 129.076 3.71973 163.634C3.71973 251.956 75.3177 323.553 163.642 323.553C203.571 323.553 240.078 308.919 268.101 284.724L282.627 296.17L299.874 274.286L287.633 264.639C310.093 237.1 323.568 201.943 323.568 163.634H323.564Z" fill="white"/>
</mask>
<g mask="url(#mask23_583_1933)">
<path d="M280.494 173.255C277.354 187.829 274.21 202.4 271.07 216.974L321.074 235.038C324.214 215.053 327.358 195.072 330.498 175.087L280.494 173.255Z" fill="#FFD0D0" stroke="#EA8B8B" stroke-width="1.11" stroke-miterlimit="10" stroke-linejoin="round"/>
<path d="M305.833 185H289.167C287.418 185 286 186.418 286 188.167V204.833C286 206.582 287.418 208 289.167 208H305.833C307.582 208 309 206.582 309 204.833V188.167C309 186.418 307.582 185 305.833 185Z" fill="#F85C5C"/>
<path d="M288.893 192.608H290.128L291.724 198.736L293.301 192.618L294.546 192.608L296.123 198.736L297.719 192.608H298.954L296.911 200.36H295.429L293.919 194.584L292.418 200.36H290.936L288.893 192.608Z" fill="#FDFDFD"/>
<path d="M299.409 197.159V195.8C299.409 193.691 300.929 192.466 302.725 192.466C304.349 192.466 305.499 193.416 305.879 194.974L304.71 195.306C304.435 194.195 303.808 193.606 302.725 193.606C301.575 193.606 300.635 194.366 300.635 195.867V197.102C300.635 198.603 301.575 199.363 302.725 199.363C303.808 199.363 304.435 198.774 304.71 197.662L305.879 197.995C305.499 199.553 304.349 200.503 302.725 200.503C300.929 200.503 299.409 199.287 299.409 197.159Z" fill="#FDFDFD"/>
</g>
<mask id="mask24_583_1933" style="mask-type:luminance" maskUnits="userSpaceOnUse" x="3" y="3" width="321" height="321">
<path d="M323.564 163.634C323.564 75.3123 251.966 3.716 163.642 3.716C120.019 3.716 80.4756 21.1812 51.6239 49.5009L30.5796 25.2651L9.53913 43.533L33.3221 70.9237C14.6822 97.0733 3.71973 129.076 3.71973 163.634C3.71973 251.956 75.3177 323.553 163.642 323.553C203.571 323.553 240.078 308.919 268.101 284.724L282.627 296.17L299.874 274.286L287.633 264.639C310.093 237.1 323.568 201.943 323.568 163.634H323.564Z" fill="white"/>
</mask>
<g mask="url(#mask24_583_1933)">
<path d="M4.53369 101.101C4.82355 101.232 5.1134 101.365 5.40326 101.495C20.5723 108.396 35.7452 115.293 50.9142 122.194C56.7485 111.77 62.5828 101.35 68.417 90.927C62.6831 86.936 56.9455 82.9487 51.2115 78.9577C48.1681 84.7436 45.1283 90.5257 42.0848 96.3115C32.5605 92.2722 23.0361 88.2329 13.5118 84.1936C10.5203 89.8271 7.52886 95.4643 4.53369 101.098V101.101Z" fill="#FFD0D0" stroke="#EA8B8B" stroke-width="1.11" stroke-miterlimit="10" stroke-linejoin="round"/>
<path d="M49.8333 87H33.1667C31.4178 87 30 88.4178 30 90.1668V106.833C30 108.582 31.4178 110 33.1667 110H49.8333C51.5822 110 53 108.582 53 106.833V90.1668C53 88.4178 51.5822 87 49.8333 87Z" fill="#F85C5C"/>
<path d="M32.8931 94.6081H34.1281L35.7241 100.736L37.3012 94.6176L38.5457 94.6081L40.1227 100.736L41.7188 94.6081H42.9538L40.9112 102.36H39.4292L37.9187 96.5841L36.4176 102.36H34.9356L32.8931 94.6081Z" fill="#FDFDFD"/>
<path d="M43.4092 99.1587V97.8002C43.4092 95.6911 44.9292 94.4656 46.7248 94.4656C48.3493 94.4656 49.4988 95.4156 49.8788 96.9737L48.7103 97.3062C48.4348 96.1946 47.8078 95.6056 46.7248 95.6056C45.5752 95.6056 44.6347 96.3656 44.6347 97.8667V99.1017C44.6347 100.603 45.5752 101.363 46.7248 101.363C47.8078 101.363 48.4348 100.774 48.7103 99.6622L49.8788 99.9947C49.4988 101.553 48.3493 102.503 46.7248 102.503C44.9292 102.503 43.4092 101.287 43.4092 99.1587Z" fill="#FDFDFD"/>
</g>
</svg>
