<?xml version="1.0" encoding="UTF-8"?><svg xmlns="http://www.w3.org/2000/svg" viewBox="0 0 1920 1080"><g id="Layer_border"><path d="m236.5,150v753.5c176.67-.11,353.33-.23,530-.34v-73.66h244v-.25h669V150H236.5Z" fill="#fdf3f2" stroke="#e18686" stroke-miterlimit="10" stroke-width="5"/></g><g id="Layer_others"><rect x="582" y="730" width="81" height="171" fill="none" stroke="#e18686" stroke-miterlimit="10" stroke-width="2"/><line x1="582" y1="745" x2="663" y2="745" fill="none" stroke="#e18686" stroke-miterlimit="10" stroke-width="2"/><line x1="582" y1="760.78" x2="663" y2="760.78" fill="none" stroke="#e18686" stroke-miterlimit="10" stroke-width="2"/><line x1="582" y1="776.56" x2="663" y2="776.56" fill="none" stroke="#e18686" stroke-miterlimit="10" stroke-width="2"/><line x1="582" y1="792.33" x2="663" y2="792.33" fill="none" stroke="#e18686" stroke-miterlimit="10" stroke-width="2"/><line x1="582" y1="808.11" x2="663" y2="808.11" fill="none" stroke="#e18686" stroke-miterlimit="10" stroke-width="2"/><line x1="582" y1="823.89" x2="663" y2="823.89" fill="none" stroke="#e18686" stroke-miterlimit="10" stroke-width="2"/><line x1="582" y1="839.67" x2="663" y2="839.67" fill="none" stroke="#e18686" stroke-miterlimit="10" stroke-width="2"/><line x1="582" y1="855.44" x2="663" y2="855.44" fill="none" stroke="#e18686" stroke-miterlimit="10" stroke-width="2"/><line x1="582" y1="871.22" x2="663" y2="871.22" fill="none" stroke="#e18686" stroke-miterlimit="10" stroke-width="2"/><line x1="582" y1="887" x2="663" y2="887" fill="none" stroke="#e18686" stroke-miterlimit="10" stroke-width="2"/><rect x="422" y="150" width="119" height="236" fill="none" stroke="#e18686" stroke-miterlimit="10" stroke-width="2"/><line x1="422.37" y1="171.06" x2="540" y2="171.06" fill="none" stroke="#e18686" stroke-miterlimit="10" stroke-width="2"/><line x1="422.37" y1="186.89" x2="540" y2="186.89" fill="none" stroke="#e18686" stroke-miterlimit="10" stroke-width="2"/><line x1="422.37" y1="202.73" x2="540" y2="202.73" fill="none" stroke="#e18686" stroke-miterlimit="10" stroke-width="2"/><line x1="422.37" y1="218.56" x2="540" y2="218.56" fill="none" stroke="#e18686" stroke-miterlimit="10" stroke-width="2"/><line x1="422.37" y1="234.39" x2="540" y2="234.39" fill="none" stroke="#e18686" stroke-miterlimit="10" stroke-width="2"/><line x1="422.37" y1="250.23" x2="540" y2="250.23" fill="none" stroke="#e18686" stroke-miterlimit="10" stroke-width="2"/><line x1="422.37" y1="266.06" x2="540" y2="266.06" fill="none" stroke="#e18686" stroke-miterlimit="10" stroke-width="2"/><line x1="422.37" y1="281.89" x2="540" y2="281.89" fill="none" stroke="#e18686" stroke-miterlimit="10" stroke-width="2"/><line x1="422.37" y1="297.73" x2="540" y2="297.73" fill="none" stroke="#e18686" stroke-miterlimit="10" stroke-width="2"/><line x1="422.37" y1="313.56" x2="540" y2="313.56" fill="none" stroke="#e18686" stroke-miterlimit="10" stroke-width="2"/><line x1="422.37" y1="329.39" x2="540" y2="329.39" fill="none" stroke="#e18686" stroke-miterlimit="10" stroke-width="2"/><line x1="422.37" y1="345.23" x2="540" y2="345.23" fill="none" stroke="#e18686" stroke-miterlimit="10" stroke-width="2"/><line x1="422.37" y1="361.06" x2="540" y2="361.06" fill="none" stroke="#e18686" stroke-miterlimit="10" stroke-width="2"/><rect x="238" y="510" width="97" height="74" fill="none" stroke="#e18686" stroke-miterlimit="10" stroke-width="2"/></g><g id="Layer_B202"><rect x="541" y="151" width="230" height="235.65" fill="#f8cdce" stroke="#e18686" stroke-miterlimit="10" stroke-width="2"/><text transform="translate(624.25 270.89)" fill="#434142" font-family="NanumSquareNeovariable-Heavy, &apos;NanumSquare Neo variable&apos;" font-size="22" font-variation-settings="&apos;wght&apos; 900" font-weight="800"><tspan x="0" y="0">B202</tspan></text></g><g id="Layer_B201"><polygon points="1677 372.67 1677 151 771 151 771 386.65 765 386.65 720 386.65 541 386.65 541 657.25 765 657.25 765 633.29 855 633.29 855 826 1679 826 1679 372.67 1677 372.67" fill="#f8cdce" stroke="#e18686" stroke-miterlimit="10" stroke-width="2"/><text transform="translate(1095.31 464.67)" fill="#434142" font-family="NanumSquareNeovariable-Heavy, &apos;NanumSquare Neo variable&apos;" font-size="30" font-variation-settings="&apos;wght&apos; 900" font-weight="800"><tspan x="0" y="0">B201</tspan></text></g><g id="Layer_B204"><rect x="765" y="633.5" width="90" height="193.5" fill="#f8cdce" stroke="#e18686" stroke-miterlimit="10" stroke-width="2"/><text transform="translate(777.86 736.89)" fill="#434142" font-family="NanumSquareNeovariable-Heavy, &apos;NanumSquare Neo variable&apos;" font-size="22" font-variation-settings="&apos;wght&apos; 900" font-weight="800"><tspan x="0" y="0">B204</tspan></text></g><g id="Layer_B205"><rect x="663" y="656" width="102" height="245" fill="#f8cdce" stroke="#e18686" stroke-miterlimit="10" stroke-width="2"/><text transform="translate(682.05 780.89)" fill="#434142" font-family="NanumSquareNeovariable-Heavy, &apos;NanumSquare Neo variable&apos;" font-size="22" font-variation-settings="&apos;wght&apos; 900" font-weight="800"><tspan x="0" y="0">B205</tspan></text></g><g id="Layer_B206"><text transform="translate(423.8 780.77)" fill="#434142" font-family="NanumSquareNeovariable-Heavy, &apos;NanumSquare Neo variable&apos;" font-size="22" font-variation-settings="&apos;wght&apos; 900" font-weight="800"><tspan x="0" y="0">B206</tspan></text><polygon points="335 656 335 765 238 765 238 901 582 901 582 730 663 730 663 656 335 656" fill="#f8cdce" stroke="#e18686" stroke-miterlimit="10" stroke-width="2"/><text transform="translate(386.47 791.59)" fill="#434142" font-family="NanumSquareNeovariable-Heavy, &apos;NanumSquare Neo variable&apos;" font-size="22" font-variation-settings="&apos;wght&apos; 900" font-weight="800"><tspan x="0" y="0">B206</tspan></text></g><g id="Layer_toilet1"><rect x="238" y="314" width="143" height="70" fill="none" stroke="#e18686" stroke-miterlimit="10" stroke-width="2"/></g><g id="Layer_toilet2"><rect x="238" y="248" width="143" height="66" fill="none" stroke="#e18686" stroke-miterlimit="10" stroke-width="2"/></g><g id="Layer_B210"><rect x="238" y="151" width="184" height="97" fill="#f8cdce" stroke="#e18686" stroke-miterlimit="10" stroke-width="2"/><text transform="translate(300.1 207.02)" fill="#434142" font-family="NanumSquareNeovariable-Heavy, &apos;NanumSquare Neo variable&apos;" font-size="22" font-variation-settings="&apos;wght&apos; 900" font-weight="800"><tspan x="0" y="0">B210</tspan></text></g><g id="Layer_B207"><rect x="238" y="584" width="97" height="181" fill="#f8cdce" stroke="#e18686" stroke-miterlimit="10" stroke-width="2"/><text transform="translate(255.27 680.82)" fill="#434142" font-family="NanumSquareNeovariable-Heavy, &apos;NanumSquare Neo variable&apos;" font-size="22" font-variation-settings="&apos;wght&apos; 900" font-weight="800"><tspan x="0" y="0">B207</tspan></text></g></svg>