<?xml version="1.0" encoding="UTF-8"?>
<svg id="_x38_" xmlns="http://www.w3.org/2000/svg" viewBox="0 0 1350.69 867.01">
  <defs>
    <style>
      .cls-1 {
        fill: #fcf2f2;
        stroke-width: 10px;
      }

      .cls-1, .cls-2, .cls-3 {
        stroke: #e68b8b;
        stroke-miterlimit: 10;
      }

      .cls-2 {
        fill: none;
      }

      .cls-2, .cls-3 {
        stroke-width: 3px;
      }

      .cls-4 {
        letter-spacing: 0em;
      }

      .cls-5 {
        font-size: 12px;
      }

      .cls-5, .cls-6 {
        fill: #221f20;
        font-family: NanumSquareNeoTTF-dEb, 'NanumSquare Neo';
      }

      .cls-6 {
        font-size: 10px;
      }

      .cls-7 {
        letter-spacing: -.03em;
      }

      .cls-8 {
        letter-spacing: -.01em;
      }

      .cls-9 {
        letter-spacing: -.01em;
      }

      .cls-10 {
        letter-spacing: 0em;
      }

      .cls-3 {
        fill: #f3cdcf;
      }
    </style>
  </defs>
  <g id="Layer_x5F_border-10" data-name="Layer_x5F_border">
    <rect class="cls-1" x="90.96" y="188.88" width="1175.42" height="517.29"/>
  </g>
  <g id="Layer_x5F_others-10" data-name="Layer_x5F_others">
    <rect class="cls-2" x="936.71" y="401.35" width="48.41" height="137.84"/>
    <rect class="cls-2" x="936.71" y="352.75" width="126.24" height="48.59"/>
    <rect class="cls-3" x="936.71" y="407.2" width="48.41" height="48.41"/>
    <rect class="cls-3" x="936.71" y="462.45" width="48.41" height="41.99"/>
    <rect class="cls-3" x="1005.22" y="514.6" width="87.07" height="24.59"/>
    <g>
      <rect class="cls-2" x="969.86" y="352.75" width="8.59" height="22.73"/>
      <rect class="cls-2" x="978.45" y="352.75" width="8.93" height="22.73"/>
      <rect class="cls-2" x="987.38" y="352.75" width="10.3" height="22.73"/>
      <rect class="cls-2" x="997.68" y="352.75" width="8.24" height="22.73"/>
      <rect class="cls-2" x="1005.93" y="352.75" width="10.3" height="22.73"/>
      <rect class="cls-2" x="1016.23" y="352.75" width="7.38" height="22.73"/>
      <rect class="cls-2" x="1023.62" y="352.75" width="11.16" height="22.73"/>
      <rect class="cls-2" x="1034.78" y="352.75" width="10.3" height="22.73"/>
      <rect class="cls-2" x="1045.08" y="352.75" width="8.93" height="22.73"/>
      <rect class="cls-2" x="1054.01" y="352.75" width="8.93" height="22.73"/>
    </g>
    <g>
      <rect class="cls-2" x="969.69" y="377.05" width="8.59" height="22.73"/>
      <rect class="cls-2" x="978.28" y="377.05" width="8.93" height="22.73"/>
      <rect class="cls-2" x="987.21" y="377.05" width="10.3" height="22.73"/>
      <rect class="cls-2" x="997.51" y="377.05" width="8.24" height="22.73"/>
      <rect class="cls-2" x="1005.75" y="377.05" width="10.3" height="22.73"/>
      <rect class="cls-2" x="1016.06" y="377.05" width="7.38" height="22.73"/>
      <rect class="cls-2" x="1023.44" y="377.05" width="11.16" height="22.73"/>
      <rect class="cls-2" x="1034.61" y="377.05" width="10.3" height="22.73"/>
      <rect class="cls-2" x="1044.91" y="377.05" width="8.93" height="22.73"/>
      <rect class="cls-2" x="1053.84" y="377.05" width="8.93" height="22.73"/>
    </g>
    <rect class="cls-2" x="1062.94" y="352.75" width="29.35" height="48.59"/>
    <rect class="cls-3" x="1152.43" y="305.61" width="42.43" height="17.99"/>
    <rect class="cls-3" x="927.7" y="305.61" width="55.21" height="17.99"/>
    <rect class="cls-3" x="716.5" y="305.61" width="55.96" height="17.99"/>
    <rect class="cls-3" x="505.97" y="305.61" width="56.46" height="17.99"/>
    <rect class="cls-3" x="295" y="305.61" width="57.13" height="17.99"/>
    <rect class="cls-2" x="280.48" y="515.98" width="74.26" height="22.39"/>
    <rect class="cls-3" x="389.63" y="467.59" width="42.04" height="42.04"/>
    <rect class="cls-2" x="309.52" y="350.06" width="124.9" height="50.11"/>
    <rect class="cls-3" x="334.11" y="400.17" width="55.52" height="55.52"/>
    <polygon class="cls-2" points="389.63 455.7 389.63 509.63 431.67 509.63 431.67 538.37 376.59 538.37 376.59 455.7 389.63 455.7"/>
    <g>
      <rect class="cls-2" x="311.05" y="351.91" width="8.59" height="25.11"/>
      <rect class="cls-2" x="319.64" y="351.91" width="8.93" height="25.11"/>
      <rect class="cls-2" x="328.57" y="351.91" width="10.3" height="25.11"/>
      <rect class="cls-2" x="338.87" y="351.91" width="8.24" height="25.11"/>
      <rect class="cls-2" x="347.11" y="351.91" width="10.3" height="25.11"/>
      <rect class="cls-2" x="357.42" y="351.91" width="7.38" height="25.11"/>
      <rect class="cls-2" x="364.8" y="351.91" width="11.16" height="25.11"/>
      <rect class="cls-2" x="375.97" y="351.91" width="10.3" height="25.11"/>
      <rect class="cls-2" x="386.27" y="351.91" width="8.93" height="25.11"/>
      <rect class="cls-2" x="395.2" y="351.91" width="8.93" height="25.11"/>
    </g>
    <g>
      <rect class="cls-2" x="310.91" y="376.73" width="8.59" height="22.73"/>
      <rect class="cls-2" x="319.49" y="376.73" width="8.93" height="22.73"/>
      <rect class="cls-2" x="328.43" y="376.73" width="10.3" height="22.73"/>
      <rect class="cls-2" x="338.73" y="376.73" width="8.24" height="22.73"/>
      <rect class="cls-2" x="346.97" y="376.73" width="10.3" height="22.73"/>
      <rect class="cls-2" x="357.28" y="376.73" width="7.38" height="22.73"/>
      <rect class="cls-2" x="364.66" y="376.73" width="11.16" height="22.73"/>
      <rect class="cls-2" x="375.82" y="376.73" width="10.3" height="22.73"/>
      <rect class="cls-2" x="386.13" y="376.73" width="8.93" height="22.73"/>
      <rect class="cls-2" x="395.06" y="376.73" width="8.93" height="22.73"/>
    </g>
    <rect class="cls-2" x="280.48" y="350.06" width="29.04" height="50.11"/>
    <rect class="cls-2" x="644.55" y="369.93" width="195.41" height="153.79"/>
  </g>
  <g id="Layer_290">
    <rect class="cls-3" x="480.32" y="446.82" width="164.23" height="91.55"/>
    <text class="cls-5" transform="translate(549.51 488.38)"><tspan x="0" y="0">836</tspan><tspan x="-4.14" y="14.4">회의실</tspan></text>
  </g>
  <g id="Layer_291">
    <rect class="cls-3" x="480.32" y="352.75" width="164.23" height="95.16"/>
    <text class="cls-5" transform="translate(549.48 367.31)"><tspan x="0" y="0">834</tspan><tspan x="-26.86" y="14.4">화공생명공학과</tspan><tspan x="-7.11" y="28.8">행정실/</tspan><tspan x="-48.41" y="43.2">융합화공시스템 연구소/</tspan><tspan x="-57.16" y="57.6">BK21플러스 창조적 융합형</tspan><tspan x="-51.1" y="72">화학공학 인력양성사업단</tspan></text>
  </g>
  <g id="Layer_282">
    <polygon class="cls-2" points="280.48 400.17 280.48 515.98 354.73 515.98 354.73 538.37 376.59 538.37 376.59 455.7 334.11 455.7 334.11 400.17 280.48 400.17"/>
  </g>
  <g id="Layer_283">
    <rect class="cls-3" x="204.72" y="497.03" width="75.75" height="41.34"/>
    <text class="cls-5" transform="translate(214.16 520.68)"><tspan x="0" y="0">교수화장실</tspan></text>
  </g>
  <g id="Layer_284">
    <rect class="cls-3" x="204.72" y="350.06" width="75.75" height="146.97"/>
    <text class="cls-5" transform="translate(229.8 412.13)"><tspan x="0" y="0">835</tspan><tspan x="-22.81" y="14.4">차세대 반도체</tspan><tspan x="-4.26" y="28.8">연구실</tspan></text>
  </g>
  <g id="Layer_285">
    <polygon class="cls-3" points="204.72 323.6 295 323.6 295 305.61 323.56 305.61 324.1 188.88 204.72 188.88 204.72 323.6"/>
    <text class="cls-5" transform="translate(251.74 244.82)"><tspan x="0" y="0">822</tspan><tspan x="-21.46" y="14.4">나노유기재료</tspan><tspan x="-4.39" y="28.8">연구실</tspan></text>
  </g>
  <g id="Layer_286">
    <polygon class="cls-3" points="352.12 323.6 427.03 323.6 427.03 188.88 324.1 188.88 323.56 305.61 352.12 305.61 352.12 323.6"/>
    <text class="cls-5" transform="translate(362.5 237.62)"><tspan x="0" y="0">823</tspan><tspan x="-11.44" y="14.4">프론티어 </tspan><tspan x="-9.95" y="28.8">계면공학</tspan><tspan x="-4.27" y="43.2">연구실</tspan></text>
  </g>
  <g id="Layer_287">
    <polygon class="cls-3" points="505.97 323.6 427.03 323.6 427.03 188.88 534.2 188.88 534.2 305.61 505.97 305.61 505.97 323.6"/>
    <text class="cls-5" transform="translate(467.97 237.62)"><tspan x="0" y="0">8</tspan><tspan class="cls-7" x="8.78" y="0">2</tspan><tspan class="cls-4" x="16.7" y="0">4</tspan><tspan x="-15.79" y="14.4">나노바이오</tspan><tspan x="-10.1" y="28.8">계면공학</tspan><tspan x="-4.42" y="43.2">연구실</tspan></text>
  </g>
  <g id="Layer_288">
    <polygon class="cls-3" points="562.43 323.6 637.89 323.6 637.89 188.88 534.2 188.88 534.2 305.61 562.43 305.61 562.43 323.6"/>
    <text class="cls-5" transform="translate(573.37 244.82)"><tspan x="0" y="0">825</tspan><tspan x="-35.8" y="14.4">나노재료 및 기능성</tspan><tspan x="-22.94" y="28.8">초박막 연구실</tspan></text>
  </g>
  <g id="Layer_289">
    <polygon class="cls-3" points="716.5 323.6 716.5 305.61 742.25 305.61 742.25 188.88 637.89 188.88 637.89 323.6 716.5 323.6"/>
    <text class="cls-5" transform="translate(677.27 237.62)"><tspan x="0" y="0">826</tspan><tspan x="-29.99" y="14.4">차세대 반도체 및</tspan><tspan x="-24.31" y="28.8">양자 박막 소재</tspan><tspan x="-4.27" y="43.2">연구실</tspan></text>
  </g>
  <g id="Layer_268">
    <rect class="cls-3" x="847.11" y="567.54" width="105.43" height="138.63"/>
    <text class="cls-5" transform="translate(886.88 618.24)"><tspan x="0" y="0">805</tspan><tspan x="-9.8" y="14.4">나노소재</tspan><tspan x="-9.8" y="28.8">첨단분석</tspan><tspan x="-4.12" y="43.2">실험실</tspan></text>
  </g>
  <g id="Layer_269">
    <rect class="cls-3" x="952.7" y="567.54" width="105.93" height="138.63"/>
    <text class="cls-5" transform="translate(992.57 625.44)"><tspan x="0" y="0">804</tspan><tspan x="-26.72" y="14.4">나노에너지재료</tspan><tspan x="-3.97" y="28.8">실험실</tspan></text>
  </g>
  <g id="Layer_270">
    <rect class="cls-3" x="1058.48" y="567.54" width="50.51" height="138.63"/>
    <text class="cls-6" transform="translate(1072.84 621.34)"><tspan x="0" y="0">803</tspan><tspan x="1.41" y="12">나노</tspan><tspan x="-12.81" y="24">에너지재료</tspan><tspan x="-3.33" y="36">연구실</tspan></text>
  </g>
  <g id="Layer_271">
    <rect class="cls-3" x="1108.99" y="567.54" width="55.23" height="138.63"/>
    <text class="cls-5" transform="translate(1123.66 611.04)"><tspan x="0" y="0">802</tspan><tspan x="-4.12" y="14.4">초전도</tspan><tspan x=".08" y="28.8" xml:space="preserve"> 재료</tspan><tspan x="-5.61" y="43.2">및 응용</tspan><tspan x="-4.12" y="57.6">연구실</tspan></text>
  </g>
  <g id="Layer_272">
    <rect class="cls-3" x="1164.22" y="567.54" width="102.16" height="138.63"/>
    <text class="cls-5" transform="translate(1203.53 625.44)"><tspan x="0" y="0">801</tspan><tspan x="-25.33" y="14.4">초전도 재료 및</tspan><tspan x="-18.16" y="28.8">응용 실험실</tspan></text>
  </g>
  <g id="Layer_273">
    <rect class="cls-3" x="1218.4" y="352.75" width="47.98" height="186.44"/>
    <text class="cls-5" transform="translate(1231.02 448.95)"><tspan x="0" y="0">창고</tspan></text>
  </g>
  <g id="Layer_274">
    <rect class="cls-3" x="1092.3" y="352.75" width="126.11" height="186.44"/>
    <text class="cls-5" transform="translate(1142.91 434.55)"><tspan x="0" y="0">837</tspan><tspan x="-16" y="14.4">광전자재료</tspan><tspan x="-4.62" y="28.8">연구실</tspan></text>
  </g>
  <g id="Layer_275">
    <polygon class="cls-2" points="1005.22 539.19 1005.22 514.6 1092.3 514.6 1092.3 401.35 985.11 401.35 985.11 539.19 1005.22 539.19"/>
  </g>
  <g id="Layer_276">
    <polygon class="cls-3" points="1194.86 323.6 1266.38 323.6 1266.38 188.88 1166.21 188.88 1166.21 305.61 1194.86 305.61 1194.86 323.6"/>
    <text class="cls-5" transform="translate(1203.5 244.82)"><tspan x="0" y="0">832</tspan><tspan x="-28.51" y="14.4">유기반도체 공정</tspan><tspan x="-4.27" y="28.8">연구실</tspan></text>
  </g>
  <g id="Layer_277">
    <polygon class="cls-3" points="1152.43 323.6 1152.43 305.61 1166.21 305.61 1166.21 188.88 1114.29 188.88 1114.29 323.6 1152.43 323.6"/>
    <text class="cls-5" transform="translate(1128.68 252.02)"><tspan x="0" y="0">8</tspan><tspan class="cls-9" x="8.78" y="0">3</tspan><tspan x="17.2" y="0">1</tspan><tspan x="-5.5" y="14.4">가공실</tspan></text>
  </g>
  <g id="Layer_278">
    <rect class="cls-3" x="1058.31" y="188.88" width="55.98" height="134.71"/>
    <text class="cls-5" transform="translate(1073.23 230.42)"><tspan x="0" y="0">830</tspan><tspan x="-9.68" y="14.4">나노전자</tspan><tspan x="1.69" y="28.8">유기</tspan><tspan x="-9.68" y="43.2">복합재료</tspan><tspan x="-4" y="57.6">연구실</tspan></text>
  </g>
  <g id="Layer_279">
    <polygon class="cls-3" points="982.91 323.6 1058.31 323.6 1058.31 188.88 955.31 188.88 955.31 305.61 982.91 305.61 982.91 323.6"/>
    <text class="cls-5" transform="translate(994.01 237.62)"><tspan x="0" y="0">829</tspan><tspan x="-21.33" y="14.4">나노전자유기</tspan><tspan x="-9.95" y="28.8">복합재료</tspan><tspan x="-4.27" y="43.2">실험실</tspan></text>
  </g>
  <g id="Layer_280">
    <polygon class="cls-3" points="927.7 323.6 927.7 305.61 955.31 305.61 955.31 188.88 846.31 188.88 846.31 323.6 927.7 323.6"/>
    <text class="cls-5" transform="translate(887.89 244.82)"><tspan x="0" y="0">828</tspan><tspan x="-15.52" y="14.4">마그네틱스</tspan><tspan x="-4.14" y="28.8">실험실</tspan></text>
  </g>
  <g id="Layer_281">
    <polygon class="cls-3" points="772.47 323.6 846.31 323.6 846.31 188.88 742.25 188.88 742.25 305.61 772.47 305.61 772.47 323.6"/>
    <text class="cls-5" transform="translate(781.96 244.82)"><tspan x="0" y="0">827</tspan><tspan x="-21.81" y="14.4">나노전자재료</tspan><tspan x="-4.75" y="28.8">연구실</tspan></text>
  </g>
  <g id="Layer_252">
    <rect class="cls-3" x="90.96" y="188.88" width="77.8" height="59.92"/>
    <text class="cls-5" transform="translate(118.36 214.62)"><tspan x="0" y="0">821</tspan><tspan x="-16.94" y="14.4">교수연구실</tspan></text>
  </g>
  <g id="Layer_253">
    <rect class="cls-3" x="90.96" y="248.8" width="77.8" height="54.76"/>
    <text class="cls-5" transform="translate(116.92 271.96)"><tspan x="0" y="0">820</tspan><tspan x="-15.5" y="14.4">교수연구실</tspan></text>
  </g>
  <g id="Layer_254">
    <rect class="cls-3" x="90.96" y="303.56" width="77.8" height="57.3"/>
    <text class="cls-5" transform="translate(118.29 327.99)"><tspan class="cls-8" x="0" y="0">8</tspan><tspan x="8.66" y="0">19</tspan><tspan x="-16.87" y="14.4">교수연구실</tspan></text>
  </g>
  <g id="Layer_255">
    <rect class="cls-3" x="90.96" y="360.85" width="77.8" height="57.1"/>
    <text class="cls-5" transform="translate(118.17 385.19)"><tspan class="cls-8" x="0" y="0">8</tspan><tspan x="8.66" y="0">18</tspan><tspan x="-16.75" y="14.4">교수연구실</tspan></text>
  </g>
  <g id="Layer_256">
    <rect class="cls-3" x="90.96" y="417.95" width="77.8" height="55.69"/>
    <text class="cls-5" transform="translate(118.77 441.58)"><tspan class="cls-10" x="0" y="0">8</tspan><tspan x="8.66" y="0">17</tspan><tspan x="-17.35" y="14.4">교수연구실</tspan></text>
  </g>
  <g id="Layer_257">
    <rect class="cls-3" x="90.96" y="473.64" width="77.8" height="56.22"/>
    <text class="cls-5" transform="translate(118.29 497.54)"><tspan class="cls-8" x="0" y="0">8</tspan><tspan x="8.66" y="0">16</tspan><tspan x="-16.87" y="14.4">교수연구실</tspan></text>
  </g>
  <g id="Layer_258">
    <rect class="cls-3" x="90.96" y="529.86" width="77.8" height="56.48"/>
    <text class="cls-5" transform="translate(118.41 553.88)"><tspan class="cls-8" x="0" y="0">8</tspan><tspan x="8.66" y="0">15</tspan><tspan x="-16.99" y="14.4">교수연구실</tspan></text>
  </g>
  <g id="Layer_259">
    <rect class="cls-3" x="90.96" y="586.34" width="77.8" height="56.39"/>
    <text class="cls-5" transform="translate(118.26 610.32)"><tspan class="cls-8" x="0" y="0">8</tspan><tspan x="8.66" y="0">14</tspan><tspan x="-16.84" y="14.4">교수연구실</tspan></text>
  </g>
  <g id="Layer_260">
    <rect class="cls-3" x="90.96" y="642.73" width="77.8" height="63.44"/>
    <text class="cls-5" transform="translate(118.29 670.24)"><tspan class="cls-8" x="0" y="0">8</tspan><tspan x="8.66" y="0">13</tspan><tspan x="-16.87" y="14.4">교수연구실</tspan></text>
  </g>
  <g id="Layer_261">
    <rect class="cls-3" x="204.72" y="567.54" width="114.91" height="138.63"/>
    <text class="cls-5" transform="translate(250.74 611.04)"><tspan class="cls-8" x="0" y="0">8</tspan><tspan x="8.66" y="0">12</tspan><tspan x="-37.04" y="14.4">나노재료 및 기능성</tspan><tspan x="-27.17" y="28.8">초박막 연구실/</tspan><tspan x="-19.97" y="43.2">무기 재료 및</tspan><tspan x="-29.86" y="57.6">분리반응 연구실</tspan></text>
  </g>
  <g id="Layer_262">
    <rect class="cls-3" x="319.64" y="567.54" width="107.39" height="138.63"/>
    <text class="cls-5" transform="translate(363.06 625.44)"><tspan class="cls-8" x="0" y="0">8</tspan><tspan x="8.66" y="0">11</tspan><tspan x="-29.54" y="14.4">광전에너지변환</tspan><tspan x="-6.79" y="28.8">연구실</tspan></text>
  </g>
  <g id="Layer_263">
    <rect class="cls-3" x="427.03" y="567.54" width="106.25" height="138.63"/>
    <text class="cls-5" transform="translate(468.44 625.44)"><tspan class="cls-10" x="0" y="0">8</tspan><tspan x="8.66" y="0">10</tspan><tspan x="-28.1" y="14.4">전기화학에너지</tspan><tspan x="-5.35" y="28.8">연구실</tspan></text>
  </g>
  <g id="Layer_264">
    <rect class="cls-3" x="533.27" y="567.54" width="104.61" height="138.63"/>
    <text class="cls-5" transform="translate(572.51 618.24)"><tspan x="0" y="0">809</tspan><tspan x="-16.86" y="14.4">나노에너지 </tspan><tspan x="-15.37" y="28.8">융합시슨템</tspan><tspan x="-4" y="43.2">연구실</tspan></text>
  </g>
  <g id="Layer_265">
    <rect class="cls-3" x="637.89" y="567.54" width="104.36" height="138.63"/>
    <text class="cls-5" transform="translate(676.88 625.44)"><tspan x="0" y="0">808</tspan><tspan x="-9.56" y="14.4">전자재료</tspan><tspan x="-3.87" y="28.8">실험실</tspan></text>
  </g>
  <g id="Layer_266">
    <rect class="cls-3" x="742.25" y="567.54" width="52.03" height="138.63"/>
    <text class="cls-5" transform="translate(755.68 621.34)"><tspan x="0" y="0">807</tspan><tspan x="-10.16" y="14.4">전자재료</tspan><tspan x="-4.48" y="28.8">연구실</tspan></text>
  </g>
  <g id="Layer_267">
    <rect class="cls-3" x="794.28" y="567.54" width="52.83" height="138.63"/>
    <text class="cls-5" transform="translate(807.63 618.24)"><tspan x="0" y="0">806</tspan><tspan x="-9.68" y="14.4">나노소재</tspan><tspan x="-9.68" y="28.8">첨단분석</tspan><tspan x="-4" y="43.2">연구실</tspan></text>
  </g>
</svg>