<?xml version="1.0" encoding="UTF-8"?>
<svg
  xmlns="http://www.w3.org/2000/svg"
  version="1.1"
  viewBox="0 0 4083.1 2452.9"
>
  <defs>
    <style>
      .cls-1 {
        fill: none;
      }

      .cls-1,
      .cls-2,
      .cls-3 {
        stroke: #e38789;
        stroke-miterlimit: 10;
      }

      .cls-1,
      .cls-3 {
        stroke-width: 3px;
      }

      .cls-4,
      .cls-5,
      .cls-6,
      .cls-7,
      .cls-8,
      .cls-9,
      .cls-10 {
        isolation: isolate;
      }

      .cls-4,
      .cls-6,
      .cls-7,
      .cls-8,
      .cls-9,
      .cls-10 {
        fill: #221f20;
        font-family: NanumSquareNeoTTF-dEb, "NanumSquare Neo";
        font-size: 36px;
      }

      .cls-6 {
        letter-spacing: 0em;
      }

      .cls-7 {
        letter-spacing: 0em;
      }

      .cls-8 {
        letter-spacing: 0em;
      }

      .cls-2 {
        fill: #fcf4f3;
        stroke-width: 10px;
      }

      .cls-9 {
        letter-spacing: 0em;
      }

      .cls-10 {
        letter-spacing: 0em;
      }

      .cls-3 {
        fill: #f4d1d1;
      }
    </style>
  </defs>
  <!-- Generator: Adobe Illustrator 28.6.0, SVG Export Plug-In . SVG Version: 1.2.0 Build 709)  -->
  <g>
    <g id="_x35_">
      <g id="Layer_x5F_border">
        <rect class="cls-2" x="348.8" y="597.5" width="3419" height="1178.4" />
      </g>
      <g id="Layer_93">
        <rect class="cls-3" x="602" y="595.6" width="250" height="493.2" />
        <g class="cls-5">
          <text class="cls-4" transform="translate(693.4 805.2)">
            <tspan x="0" y="0">5</tspan>
          </text>
          <text class="cls-4" transform="translate(717.9 805.2)">
            <tspan x="0" y="0">12</tspan>
          </text>
          <text class="cls-4" transform="translate(658.8 848.5)">
            <tspan x="0" y="0">박사과정</tspan>
          </text>
          <text class="cls-4" transform="translate(675.8 891.7)">
            <tspan x="0" y="0">연구실</tspan>
          </text>
        </g>
      </g>
      <g id="Layer_94">
        <rect class="cls-3" x="852" y="595.6" width="238.9" height="493.2" />
        <g class="cls-5">
          <text class="cls-4" transform="translate(946.8 808.8)">
            <tspan x="0" y="0">5</tspan>
          </text>
          <text class="cls-4" transform="translate(971.3 808.8)">
            <tspan x="0" y="0">13</tspan>
          </text>
          <text class="cls-4" transform="translate(912.5 852)">
            <tspan x="0" y="0">박사과정</tspan>
          </text>
          <text class="cls-4" transform="translate(929.5 895.2)">
            <tspan x="0" y="0">연구실</tspan>
          </text>
        </g>
      </g>
      <g id="Layer_95">
        <rect class="cls-3" x="1090.9" y="595.6" width="242.2" height="493.2" />
        <g class="cls-5">
          <text class="cls-8" transform="translate(1177.9 810)">
            <tspan x="0" y="0">5</tspan>
          </text>
          <text class="cls-4" transform="translate(1202.4 810)">
            <tspan x="0" y="0">14</tspan>
          </text>
          <text class="cls-4" transform="translate(1143.7 853.2)">
            <tspan x="0" y="0">박사과정</tspan>
          </text>
          <text class="cls-4" transform="translate(1160.7 896.4)">
            <tspan x="0" y="0">연구실</tspan>
          </text>
        </g>
      </g>
      <g id="Layer_96">
        <rect class="cls-3" x="1332.3" y="595.6" width="242.2" height="493.2" />
        <g class="cls-5">
          <text class="cls-8" transform="translate(1430.5 805.2)">
            <tspan x="0" y="0">5</tspan>
          </text>
          <text class="cls-4" transform="translate(1455 805.2)">
            <tspan x="0" y="0">15</tspan>
          </text>
          <text class="cls-4" transform="translate(1395.9 848.5)">
            <tspan x="0" y="0">박사과정</tspan>
          </text>
          <text class="cls-4" transform="translate(1412.9 891.7)">
            <tspan x="0" y="0">연구실</tspan>
          </text>
        </g>
      </g>
      <g id="Layer_97">
        <rect class="cls-3" x="1573.8" y="595.6" width="246.6" height="493.2" />
        <g class="cls-5">
          <text class="cls-8" transform="translate(1663.2 810)">
            <tspan x="0" y="0">5</tspan>
          </text>
          <text class="cls-4" transform="translate(1687.7 810)">
            <tspan x="0" y="0">16</tspan>
          </text>
          <text class="cls-4" transform="translate(1628.9 853.2)">
            <tspan x="0" y="0">박사과정</tspan>
          </text>
          <text class="cls-4" transform="translate(1645.9 896.4)">
            <tspan x="0" y="0">연구실</tspan>
          </text>
        </g>
      </g>
      <g id="Layer_98">
        <polygon
          class="cls-3"
          points="2067.7 755.4 2067.7 595.6 1820.4 595.6 1820.4 1088.8 1973.8 1088.8 1973.8 755.4 2067.7 755.4"
        />
        <g class="cls-5">
          <text class="cls-8" transform="translate(1863.7 798.6)">
            <tspan x="0" y="0">5</tspan>
          </text>
          <text class="cls-4" transform="translate(1888.2 798.6)">
            <tspan x="0" y="0">17</tspan>
          </text>
          <text class="cls-4" transform="translate(1827.9 841.8)">
            <tspan x="0" y="0">박사과정</tspan>
          </text>
          <text class="cls-4" transform="translate(1845 885)">
            <tspan x="0" y="0">연구실</tspan>
          </text>
        </g>
      </g>
      <g id="Layer_99">
        <rect class="cls-1" x="2311.7" y="597.5" width="232.6" height="491.3" />
      </g>
      <g id="Layer_100">
        <rect class="cls-1" x="2544.2" y="597.5" width="236.5" height="491.3" />
      </g>
      <g id="Layer_101">
        <rect
          class="cls-3"
          x="2780.8"
          y="597.5"
          width="751.2"
          height="1178.4"
        />
        <g class="cls-5">
          <text class="cls-4" transform="translate(3137.9 1151.4)">
            <tspan x="0" y="0">501</tspan>
          </text>
          <text class="cls-7" transform="translate(2978 1194.6)">
            <tspan x="0" y="0">KUBS Fitness Center</tspan>
          </text>
         
        </g>
      </g>
      <g id="Layer_102">
        <rect class="cls-3" x="3532" y="1266.4" width="235.8" height="509.6" />
        <g class="cls-5">
          <text class="cls-4" transform="translate(3601.2 1521.2)">
            <tspan x="0" y="0">501A</tspan>
          </text>
          <text class="cls-6" transform="translate(3552.2 1564.4)">
            <tspan x="0" y="0">Yoga Zone</tspan>
          </text>
        </g>
      </g>
      <g id="Layer_103">
        <rect
          class="cls-3"
          x="2544.2"
          y="1266.4"
          width="246.5"
          height="509.6"
        />
        <g class="cls-5">
          <text class="cls-4" transform="translate(2629.4 1499.2)">
            <tspan x="0" y="0">502</tspan>
          </text>
          <text class="cls-4" transform="translate(2582.1 1542.4)">
            <tspan x="0" y="0">교수연구실</tspan>
          </text>
        </g>
      </g>
      <g id="Layer_104">
        <rect
          class="cls-3"
          x="2302.7"
          y="1266.4"
          width="241.5"
          height="509.6"
        />
        <g class="cls-5">
          <text class="cls-4" transform="translate(2389.5 1490.6)">
            <tspan x="0" y="0">503</tspan>
          </text>
          <text class="cls-4" transform="translate(2342.6 1533.8)">
            <tspan x="0" y="0">교수연구실</tspan>
          </text>
        </g>
      </g>
      <g id="Layer_105">
        <rect
          class="cls-3"
          x="2058.3"
          y="1266.4"
          width="244.4"
          height="509.6"
        />
        <g class="cls-5">
          <text class="cls-4" transform="translate(2141.9 1499.2)">
            <tspan x="0" y="0">504</tspan>
          </text>
          <text class="cls-4" transform="translate(2095.2 1542.4)">
            <tspan x="0" y="0">교수연구실</tspan>
          </text>
        </g>
      </g>
      <g id="Layer_106">
        <rect
          class="cls-3"
          x="1820.4"
          y="1266.4"
          width="237.9"
          height="509.6"
        />
        <g class="cls-5">
          <text class="cls-4" transform="translate(1901.2 1495)">
            <tspan x="0" y="0">505</tspan>
          </text>
          <text class="cls-4" transform="translate(1854 1538.2)">
            <tspan x="0" y="0">교수연구실</tspan>
          </text>
        </g>
      </g>
      <g id="Layer_107">
        <rect
          class="cls-3"
          x="1573.8"
          y="1266.4"
          width="246.6"
          height="509.6"
        />
        <g class="cls-5">
          <text class="cls-4" transform="translate(1658.7 1501.5)">
            <tspan x="0" y="0">506</tspan>
          </text>
          <text class="cls-4" transform="translate(1611.8 1544.7)">
            <tspan x="0" y="0">교수연구실</tspan>
          </text>
        </g>
      </g>
      <g id="Layer_108">
        <rect class="cls-3" x="1333" y="1266.4" width="240.8" height="509.6" />
        <g class="cls-5">
          <text class="cls-4" transform="translate(1418.6 1505.7)">
            <tspan x="0" y="0">507</tspan>
          </text>
          <text class="cls-4" transform="translate(1370.3 1548.9)">
            <tspan x="0" y="0">교수연구실</tspan>
          </text>
        </g>
      </g>
      <g id="Layer_109">
        <rect
          class="cls-3"
          x="1090.9"
          y="1266.4"
          width="242.2"
          height="509.6"
        />
        <g class="cls-5">
          <text class="cls-4" transform="translate(1173.1 1501.5)">
            <tspan x="0" y="0">508</tspan>
          </text>
          <text class="cls-4" transform="translate(1126.6 1544.7)">
            <tspan x="0" y="0">교수연구실</tspan>
          </text>
        </g>
      </g>
      <g id="Layer_110">
        <rect class="cls-3" x="852" y="1266.4" width="238.9" height="509.6" />
        <g class="cls-5">
          <text class="cls-4" transform="translate(933 1501.5)">
            <tspan x="0" y="0">509</tspan>
          </text>
          <text class="cls-4" transform="translate(886.1 1544.7)">
            <tspan x="0" y="0">교수연구실</tspan>
          </text>
        </g>
      </g>
      <g id="Layer_111">
        <rect class="cls-3" x="602" y="1266.4" width="250" height="509.6" />
        <g class="cls-5">
          <text class="cls-4" transform="translate(692.6 1505.7)">
            <tspan x="0" y="0">5</tspan>
          </text>
          <text class="cls-4" transform="translate(717.1 1505.7)">
            <tspan x="0" y="0">10</tspan>
          </text>
          <text class="cls-4" transform="translate(641.7 1548.9)">
            <tspan x="0" y="0">교수연구실</tspan>
          </text>
        </g>
      </g>
      <g id="Layer_114">
        <rect class="cls-3" x="348.8" y="1266.4" width="253.3" height="509.6" />
        <g class="cls-5">
          <text class="cls-4" transform="translate(445.3 1505.8)">
            <tspan x="0" y="0">5</tspan>
          </text>
          <text class="cls-4" transform="translate(469.8 1505.8)">
            <tspan x="0" y="0">11</tspan>
          </text>
          <text class="cls-4" transform="translate(424.2 1549)">
            <tspan x="0" y="0">수장고</tspan>
          </text>
        </g>
      </g>
      <g id="Layer_x5F_others">
        <rect class="cls-1" x="348.8" y="597.5" width="253.3" height="491.3" />
        <g>
          <rect class="cls-1" x="348.8" y="602.1" width="126.6" height="32.5" />
          <rect class="cls-1" x="348.8" y="634.5" width="126.6" height="33.8" />
          <rect class="cls-1" x="348.8" y="668.3" width="126.6" height="38.9" />
          <rect class="cls-1" x="348.8" y="707.2" width="126.6" height="31.2" />
          <rect class="cls-1" x="348.8" y="738.4" width="126.6" height="38.9" />
          <rect class="cls-1" x="348.8" y="777.3" width="126.6" height="27.9" />
          <rect class="cls-1" x="348.8" y="805.2" width="126.6" height="42.2" />
          <rect class="cls-1" x="348.8" y="847.4" width="126.6" height="38.9" />
          <rect class="cls-1" x="348.8" y="886.4" width="126.6" height="33.8" />
          <rect class="cls-1" x="348.8" y="920.1" width="126.6" height="33.8" />
        </g>
        <g>
          <rect class="cls-1" x="475.4" y="601.5" width="126.6" height="32.5" />
          <rect class="cls-1" x="475.4" y="633.9" width="126.6" height="33.8" />
          <rect class="cls-1" x="475.4" y="667.7" width="126.6" height="38.9" />
          <rect class="cls-1" x="475.4" y="706.6" width="126.6" height="31.2" />
          <rect class="cls-1" x="475.4" y="737.8" width="126.6" height="38.9" />
          <rect class="cls-1" x="475.4" y="776.7" width="126.6" height="27.9" />
          <rect class="cls-1" x="475.4" y="804.6" width="126.6" height="42.2" />
          <rect class="cls-1" x="475.4" y="846.8" width="126.6" height="38.9" />
          <rect class="cls-1" x="475.4" y="885.7" width="126.6" height="33.8" />
          <rect class="cls-1" x="475.4" y="919.5" width="126.6" height="33.8" />
        </g>
        <rect class="cls-1" x="1973.8" y="755.4" width="187.9" height="265.6" />
        <rect class="cls-3" x="1973.8" y="875" width="187.9" height="146.1" />
        <rect class="cls-1" x="3532" y="597.5" width="235.8" height="491.3" />
        <g>
          <rect class="cls-1" x="3530.4" y="597.5" width="116.1" height="34" />
          <rect
            class="cls-1"
            x="3530.4"
            y="631.5"
            width="116.1"
            height="35.3"
          />
          <rect
            class="cls-1"
            x="3530.4"
            y="666.8"
            width="116.1"
            height="40.8"
          />
          <rect
            class="cls-1"
            x="3530.4"
            y="707.6"
            width="116.1"
            height="32.6"
          />
          <rect
            class="cls-1"
            x="3530.4"
            y="740.2"
            width="116.1"
            height="40.8"
          />
          <rect class="cls-1" x="3530.4" y="781" width="116.1" height="29.2" />
          <rect
            class="cls-1"
            x="3530.4"
            y="810.2"
            width="116.1"
            height="44.2"
          />
          <rect
            class="cls-1"
            x="3530.4"
            y="854.3"
            width="116.1"
            height="40.8"
          />
          <rect
            class="cls-1"
            x="3530.4"
            y="895.1"
            width="116.1"
            height="35.3"
          />
          <rect
            class="cls-1"
            x="3530.4"
            y="930.4"
            width="116.1"
            height="35.3"
          />
        </g>
        <g>
          <rect class="cls-1" x="3649.9" y="597.5" width="116.1" height="34" />
          <rect
            class="cls-1"
            x="3649.9"
            y="631.5"
            width="116.1"
            height="35.3"
          />
          <rect
            class="cls-1"
            x="3649.9"
            y="666.8"
            width="116.1"
            height="40.8"
          />
          <rect
            class="cls-1"
            x="3649.9"
            y="707.6"
            width="116.1"
            height="32.6"
          />
          <rect
            class="cls-1"
            x="3649.9"
            y="740.2"
            width="116.1"
            height="40.8"
          />
          <rect class="cls-1" x="3649.9" y="781" width="116.1" height="29.2" />
          <rect
            class="cls-1"
            x="3649.9"
            y="810.2"
            width="116.1"
            height="44.2"
          />
          <rect
            class="cls-1"
            x="3649.9"
            y="854.3"
            width="116.1"
            height="40.8"
          />
          <rect
            class="cls-1"
            x="3649.9"
            y="895.1"
            width="116.1"
            height="35.3"
          />
          <rect
            class="cls-1"
            x="3649.9"
            y="930.4"
            width="116.1"
            height="35.3"
          />
        </g>
      </g>
    </g>
  </g>
</svg>
