<?xml version="1.0" encoding="UTF-8"?>
<svg id="_x32_" xmlns="http://www.w3.org/2000/svg" viewBox="0 0 1055.73 781.56">
  <defs>
    <style>
      .cls-1 {
        fill: #fcf2f2;
        stroke-width: 10px;
      }

      .cls-1, .cls-2, .cls-3 {
        stroke: #e68b8b;
        stroke-miterlimit: 10;
      }

      .cls-2 {
        fill: none;
      }

      .cls-2, .cls-3 {
        stroke-width: 3px;
      }

      .cls-4 {
        fill: #221f20;
        font-family: NanumSquareNeoTTF-dEb, 'NanumSquare Neo';
        font-size: 21px;
      }

      .cls-5 {
        letter-spacing: 0em;
      }

      .cls-3 {
        fill: #f3cdcf;
      }
    </style>
  </defs>
  <g id="Layer_x5F_border-3" data-name="Layer_x5F_border">
    <polygon class="cls-1" points="355.94 299.63 86.47 299.63 86.47 662.97 539.26 662.97 539.26 464.18 982.11 464.18 982.11 306.25 945.67 306.25 945.67 266.5 963.34 266.5 963.34 202.44 835.23 202.44 835.23 121.83 384.65 121.83 384.65 195.82 254.34 195.82 254.34 265.39 355.94 265.39 355.94 299.63"/>
  </g>
  <g id="Layer_x5F_others-3" data-name="Layer_x5F_others">
    <rect class="cls-2" x="835.23" y="202.44" width="128.11" height="64.05"/>
    <rect class="cls-3" x="468.69" y="121.83" width="65.6" height="40.99"/>
    <rect class="cls-3" x="468.69" y="162.81" width="65.6" height="57.52"/>
    <rect class="cls-3" x="468.69" y="220.33" width="65.6" height="46.17"/>
    <rect class="cls-2" x="254.34" y="195.82" width="130.32" height="69.58"/>
    <g>
      <rect class="cls-2" x="254.29" y="195.23" width="10.16" height="35.08"/>
      <rect class="cls-2" x="264.45" y="195.23" width="10.16" height="35.08"/>
      <rect class="cls-2" x="274.6" y="195.23" width="10.16" height="35.08"/>
      <rect class="cls-2" x="284.76" y="195.23" width="10.16" height="35.08"/>
      <rect class="cls-2" x="294.92" y="195.23" width="10.16" height="35.08"/>
      <rect class="cls-2" x="305.13" y="195.23" width="10.16" height="35.08"/>
      <rect class="cls-2" x="315.28" y="195.23" width="10.16" height="35.08"/>
      <rect class="cls-2" x="325.44" y="195.23" width="10.16" height="35.08"/>
      <rect class="cls-2" x="335.6" y="195.23" width="10.16" height="35.08"/>
      <rect class="cls-2" x="345.76" y="195.23" width="10.16" height="35.08"/>
    </g>
    <g>
      <rect class="cls-2" x="254.32" y="230.31" width="10.16" height="35.08"/>
      <rect class="cls-2" x="264.47" y="230.31" width="10.16" height="35.08"/>
      <rect class="cls-2" x="274.63" y="230.31" width="10.16" height="35.08"/>
      <rect class="cls-2" x="284.79" y="230.31" width="10.16" height="35.08"/>
      <rect class="cls-2" x="294.94" y="230.31" width="10.16" height="35.08"/>
      <rect class="cls-2" x="305.15" y="230.31" width="10.16" height="35.08"/>
      <rect class="cls-2" x="315.31" y="230.31" width="10.16" height="35.08"/>
      <rect class="cls-2" x="325.47" y="230.31" width="10.16" height="35.08"/>
      <rect class="cls-2" x="335.62" y="230.31" width="10.16" height="35.08"/>
      <rect class="cls-2" x="345.78" y="230.31" width="10.16" height="35.08"/>
    </g>
    <g>
      <rect class="cls-2" x="835.23" y="202.44" width="10.62" height="32.03"/>
      <rect class="cls-2" x="845.85" y="202.44" width="10.62" height="32.03"/>
      <rect class="cls-2" x="856.47" y="202.44" width="10.62" height="32.03"/>
      <rect class="cls-2" x="867.09" y="202.44" width="10.62" height="32.03"/>
      <rect class="cls-2" x="877.71" y="202.44" width="10.62" height="32.03"/>
      <rect class="cls-2" x="888.38" y="202.44" width="10.62" height="32.03"/>
      <rect class="cls-2" x="899" y="202.44" width="10.62" height="32.03"/>
      <rect class="cls-2" x="909.62" y="202.44" width="10.62" height="32.03"/>
      <rect class="cls-2" x="920.23" y="202.44" width="10.62" height="32.03"/>
      <rect class="cls-2" x="930.85" y="202.44" width="10.62" height="32.03"/>
    </g>
    <g>
      <rect class="cls-2" x="835.26" y="234.47" width="10.62" height="32.03"/>
      <rect class="cls-2" x="845.88" y="234.47" width="10.62" height="32.03"/>
      <rect class="cls-2" x="856.5" y="234.47" width="10.62" height="32.03"/>
      <rect class="cls-2" x="867.12" y="234.47" width="10.62" height="32.03"/>
      <rect class="cls-2" x="877.73" y="234.47" width="10.62" height="32.03"/>
      <rect class="cls-2" x="888.41" y="234.47" width="10.62" height="32.03"/>
      <rect class="cls-2" x="899.02" y="234.47" width="10.62" height="32.03"/>
      <rect class="cls-2" x="909.64" y="234.47" width="10.62" height="32.03"/>
      <rect class="cls-2" x="920.26" y="234.47" width="10.62" height="32.03"/>
      <rect class="cls-2" x="930.88" y="234.47" width="10.62" height="32.03"/>
    </g>
  </g>
  <g id="Layer_29">
    <rect class="cls-3" x="86.47" y="299.63" width="306.72" height="164.12"/>
    <text class="cls-4" transform="translate(217.62 374.31)"><tspan x="0" y="0">205</tspan><tspan x="-7.64" y="25.2">강의실</tspan></text>
  </g>
  <g id="Layer_30">
    <rect class="cls-3" x="86.47" y="505.04" width="76.67" height="157.92"/>
    <text class="cls-4" transform="translate(94.14 576.62)"><tspan x="0" y="0">206A</tspan><tspan x=".81" y="25.2">연구실</tspan></text>
  </g>
  <g id="Layer_31">
    <rect class="cls-3" x="163.14" y="505.04" width="73" height="157.92"/>
    <text class="cls-4" transform="translate(169.31 576.62)"><tspan x="0" y="0">206B</tspan><tspan x=".47" y="25.2">연구실</tspan></text>
  </g>
  <g id="Layer_32">
    <rect class="cls-3" x="236.14" y="505.04" width="161.48" height="157.92"/>
    <text class="cls-4" transform="translate(295.29 564.02)"><tspan x="0" y="0">207</tspan><tspan class="cls-5" x="-17.13" y="25.2">S</tspan><tspan x="-2.55" y="25.2">W중심</tspan><tspan x="-28.18" y="50.4">대학사업단</tspan></text>
  </g>
  <g id="Layer_33">
    <rect class="cls-3" x="397.62" y="505.04" width="141.64" height="157.92"/>
    <text class="cls-4" transform="translate(445.79 576.62)"><tspan x="0" y="0">208</tspan><tspan x="-24.63" y="25.2">세미나실3</tspan></text>
  </g>
  <g id="Layer_34">
    <polygon class="cls-2" points="539.26 464.18 437.55 464.18 437.55 412.38 472.69 412.38 472.69 387.67 539.26 387.67 539.26 464.18"/>
  </g>
  <g id="Layer_27">
    <polygon class="cls-2" points="539.26 306.25 539.26 387.67 472.69 387.67 472.69 367.33 437.55 367.33 437.55 306.25 539.26 306.25"/>
  </g>
  <g id="Layer_35">
    <rect class="cls-3" x="539.26" y="306.25" width="142.72" height="157.5"/>
    <text class="cls-4" transform="translate(590.46 377.62)"><tspan x="0" y="0">201</tspan><tspan x="-19.66" y="25.2">세미나실</tspan></text>
  </g>
  <g id="Layer_36">
    <rect class="cls-3" x="681.98" y="306.25" width="300.13" height="157.5"/>
    <text class="cls-4" transform="translate(809.84 377.62)"><tspan x="0" y="0">202</tspan><tspan x="-30.17" y="25.2">해긴 강의실</tspan></text>
  </g>
  <g id="Layer_37">
    <rect class="cls-3" x="681.98" y="121.83" width="153.25" height="144.67"/>
    <text class="cls-4" transform="translate(736.18 186.78)"><tspan x="0" y="0">203</tspan><tspan x="-7.43" y="25.2">테크숍</tspan></text>
  </g>
  <g id="Layer_38">
    <rect class="cls-3" x="534.29" y="121.83" width="147.69" height="144.67"/>
    <text class="cls-4" transform="translate(585.66 186.78)"><tspan x="0" y="0">204</tspan><tspan x="-17.34" y="25.2">스튜디오</tspan></text>
  </g>
</svg>