<?xml version="1.0" encoding="UTF-8"?>
<svg id="_x36_" xmlns="http://www.w3.org/2000/svg" viewBox="0 0 1215.05 601.97">
  <defs>
    <style>
      .cls-1 {
        fill: #fef3f2;
        stroke-width: 10px;
      }

      .cls-1,
      .cls-2,
      .cls-3 {
        stroke: #f48589;
        stroke-miterlimit: 10;
      }

      .cls-2 {
        fill: none;
      }

      .cls-2,
      .cls-3 {
        stroke-width: 3px;
      }

      .cls-4 {
        letter-spacing: 0em;
      }

      .cls-3 {
        fill: #facbcf;
      }

      .cls-5 {
        font-size: 6px;
      }

      .cls-5,
      .cls-6,
      .cls-7 {
        fill: #231f20;
        font-family: NanumSquareNeoTTF-dEb, "NanumSquare Neo";
      }

      .cls-8 {
        letter-spacing: 0em;
      }

      .cls-6 {
        font-size: 12px;
      }

      .cls-7 {
        font-size: 11.71px;
      }

      .cls-9 {
        letter-spacing: -0.01em;
      }

      .cls-10 {
        letter-spacing: 0em;
      }
    </style>
  </defs>
  <g id="Layer_x5F_border-6" data-name="Layer_x5F_border">
    <polygon
      class="cls-1"
      points="55.14 111.02 55.14 485.69 100.38 485.69 463.65 485.69 763.3 485.69 1164.06 485.69 1164.06 111.02 55.14 111.02"
    />
  </g>
  <g id="Layer_x5F_others-6" data-name="Layer_x5F_others">
    <g>
      <rect class="cls-3" x="789.15" y="275.3" width="80.75" height="29.09" />
      <rect class="cls-3" x="758.89" y="275.3" width="30.26" height="29.09" />
      <rect class="cls-2" x="758.89" y="304.39" width="111.01" height="55.86" />
      <rect class="cls-3" x="653.45" y="311.44" width="58.3" height="48.81" />
      <rect class="cls-3" x="711.76" y="311.44" width="17.62" height="48.81" />
      <rect class="cls-3" x="552.73" y="275.3" width="46.25" height="41.87" />
      <rect class="cls-3" x="552.73" y="317.16" width="46.25" height="43.09" />
      <g>
        <rect class="cls-2" x="789.21" y="304.41" width="5.35" height="27.76" />
        <rect class="cls-2" x="794.56" y="304.41" width="5.35" height="27.76" />
        <rect class="cls-2" x="799.91" y="304.41" width="5.35" height="27.76" />
        <rect class="cls-2" x="805.26" y="304.41" width="5.35" height="27.76" />
        <rect class="cls-2" x="810.6" y="304.41" width="5.35" height="27.76" />
        <rect class="cls-2" x="815.98" y="304.41" width="5.35" height="27.76" />
        <rect class="cls-2" x="821.33" y="304.41" width="5.35" height="27.76" />
        <rect class="cls-2" x="826.67" y="304.41" width="5.35" height="27.76" />
        <rect class="cls-2" x="832.02" y="304.41" width="5.35" height="27.76" />
        <rect class="cls-2" x="837.37" y="304.41" width="5.35" height="27.76" />
      </g>
      <g>
        <rect class="cls-2" x="789.11" y="332.17" width="5.35" height="27.76" />
        <rect class="cls-2" x="794.46" y="332.17" width="5.35" height="27.76" />
        <rect class="cls-2" x="799.81" y="332.17" width="5.35" height="27.76" />
        <rect class="cls-2" x="805.15" y="332.17" width="5.35" height="27.76" />
        <rect class="cls-2" x="810.5" y="332.17" width="5.35" height="27.76" />
        <rect class="cls-2" x="815.88" y="332.17" width="5.35" height="27.76" />
        <rect class="cls-2" x="821.22" y="332.17" width="5.35" height="27.76" />
        <rect class="cls-2" x="826.57" y="332.17" width="5.35" height="27.76" />
        <rect class="cls-2" x="831.92" y="332.17" width="5.35" height="27.76" />
        <rect class="cls-2" x="837.27" y="332.17" width="5.35" height="27.76" />
      </g>
    </g>
    <g>
      <rect class="cls-2" x="352.85" y="275.3" width="106.04" height="55.52" />
      <rect class="cls-3" x="352.53" y="330.82" width="106.36" height="29.43" />
      <g>
        <rect class="cls-2" x="377.39" y="275.3" width="5.35" height="27.76" />
        <rect class="cls-2" x="382.73" y="275.3" width="5.35" height="27.76" />
        <rect class="cls-2" x="388.08" y="275.3" width="5.35" height="27.76" />
        <rect class="cls-2" x="393.43" y="275.3" width="5.35" height="27.76" />
        <rect class="cls-2" x="398.78" y="275.3" width="5.35" height="27.76" />
        <rect class="cls-2" x="404.15" y="275.3" width="5.35" height="27.76" />
        <rect class="cls-2" x="409.5" y="275.3" width="5.35" height="27.76" />
        <rect class="cls-2" x="414.85" y="275.3" width="5.35" height="27.76" />
        <rect class="cls-2" x="420.19" y="275.3" width="5.35" height="27.76" />
        <rect class="cls-2" x="425.54" y="275.3" width="5.35" height="27.76" />
      </g>
      <g>
        <rect class="cls-2" x="377.28" y="303.06" width="5.35" height="27.76" />
        <rect class="cls-2" x="382.63" y="303.06" width="5.35" height="27.76" />
        <rect class="cls-2" x="387.98" y="303.06" width="5.35" height="27.76" />
        <rect class="cls-2" x="393.33" y="303.06" width="5.35" height="27.76" />
        <rect class="cls-2" x="398.67" y="303.06" width="5.35" height="27.76" />
        <rect class="cls-2" x="404.05" y="303.06" width="5.35" height="27.76" />
        <rect class="cls-2" x="409.4" y="303.06" width="5.35" height="27.76" />
        <rect class="cls-2" x="414.74" y="303.06" width="5.35" height="27.76" />
        <rect class="cls-2" x="420.09" y="303.06" width="5.35" height="27.76" />
        <rect class="cls-2" x="425.44" y="303.06" width="5.35" height="27.76" />
      </g>
    </g>
  </g>
  <g id="Layer_176">
    <rect class="cls-3" x="484.01" y="275.3" width="36.56" height="20.72" />
    <text class="cls-5" transform="translate(496.6 287.15)">
      <tspan x="0" y="0">창고</tspan>
    </text>
  </g>
  <g id="Layer_177">
    <rect class="cls-3" x="765.43" y="388.35" width="49" height="97" />
    <text class="cls-7" transform="translate(773.39 425.71) scale(.99 1)">
      <tspan class="cls-10" x="0" y="0">6</tspan>
      <tspan class="cls-8" x="8.21" y="0">11-4</tspan>
      <tspan x="-5.42" y="14.05">에스볼트</tspan>
      <tspan x=".13" y="28.1">에너지</tspan>
    </text>
    <rect class="cls-3" x="814.43" y="360.35" width="55" height="125" />
    <text class="cls-6" transform="translate(824.88 426.43)">
      <tspan class="cls-9" x="0" y="0">6</tspan>
      <tspan x="8.41" y="0">11-2</tspan>
      <tspan x="-5.71" y="14.4">에스볼트</tspan>
      <tspan x="-.02" y="28.8">에너지</tspan>
    </text>
  </g>
  <g id="Layer_180">
    <rect class="cls-3" x="659.43" y="388.35" width="106" height="97" />
    <text class="cls-6" transform="translate(695.37 432.63)">
      <tspan class="cls-9" x="0" y="0">6</tspan>
      <tspan x="8.41" y="0">11-5</tspan>
      <tspan x="-27.7" y="14.4">(주)코리아이앤피</tspan>
    </text>
    <rect class="cls-3" x="476.43" y="388.35" width="183" height="97" />
    <text class="cls-6" transform="translate(550.75 432.63)">
      <tspan class="cls-9" x="0" y="0">6</tspan>
      <tspan class="cls-4" x="8.41" y="0">11-3</tspan>
      <tspan x="-27.58" y="14.4">(주)코리아이앤피</tspan>
    </text>
    <polygon
      class="cls-3"
      points="476.39 485.69 476.39 388.35 401.35 388.35 401.35 360.25 352.53 360.25 352.53 485.35 476.39 485.69"
    />
    <text class="cls-6" transform="translate(398.58 430.75)">
      <tspan class="cls-9" x="0" y="0">6</tspan>
      <tspan x="8.41" y="0">11-1</tspan>
      <tspan x="-28.87" y="14.4">(주)코리아이앤피</tspan>
    </text>
  </g>
  <g id="Layer_181">
    <rect class="cls-3" x="249.48" y="275.35" width="103" height="210" />
    <text class="cls-6" transform="translate(281.01 368.93)">
      <tspan x="0" y="0">606-3</tspan>
      <tspan x="-14.89" y="14.4">(주)넥스트 앤</tspan>
      <tspan x="2.9" y="28.8">바이오</tspan>
    </text>
  </g>
  <g id="Layer_182">
    <rect class="cls-3" x="55.48" y="275.35" width="194" height="210" />
    <text class="cls-6" transform="translate(128 376.13)">
      <tspan x="0" y="0">606-1,2</tspan>
      <tspan x="-20.27" y="14.4">(주)코리아이앤피</tspan>
    </text>
  </g>
  <g id="Layer_154">
    <rect class="cls-3" x="55.14" y="111.02" width="90.48" height="133.55" />
    <text class="cls-6" transform="translate(87.56 173.58)">
      <tspan x="0" y="0">620</tspan>
      <tspan x="-4.25" y="14.4">공조실</tspan>
    </text>
  </g>
  <g id="Layer_155">
    <rect class="cls-3" x="145.61" y="111.02" width="206.81" height="133.55" />
    <text class="cls-6" transform="translate(224.67 173.58)">
      <tspan x="0" y="0">602-1,2</tspan>
      <tspan x="-29.06" y="14.4">(주)넥스트 앤 바이오</tspan>
    </text>
    <rect class="cls-3" x="352.48" y="111.35" width="103" height="133" />
    <text class="cls-6" transform="translate(384.14 166.43)">
      <tspan x="0" y="0">602-3</tspan>
      <tspan x="-15.02" y="14.4">(주)넥스트 앤</tspan>
      <tspan x="2.78" y="28.8">바이오</tspan>
    </text>
  </g>
  <g id="Layer_157">
    <rect class="cls-3" x="455.48" y="111.35" width="151.95" height="133" />
    <text class="cls-6" transform="translate(511.58 173.63)">
      <tspan x="0" y="0">602-4</tspan>
      <tspan x="2.81" y="14.4">스텝랩</tspan>
    </text>
    <rect class="cls-3" x="607.43" y="111.35" width="161.05" height="133" />
    <text class="cls-6" transform="translate(669.28 173.63)">
      <tspan x="0" y="0">603-1</tspan>
      <tspan x="1.61" y="14.4">스텝랩</tspan>
    </text>
  </g>
  <g id="Layer_159">
    <rect class="cls-3" x="768.48" y="111.35" width="100.95" height="133" />
    <text class="cls-6" transform="translate(798.95 173.63)">
      <tspan x="0" y="0">603-4</tspan>
      <tspan x="-19.06" y="14.4">(주)에스와이텍</tspan>
    </text>
  </g>
  <g id="Layer_160">
    <rect class="cls-3" x="869.48" y="111.35" width="103.95" height="133" />
    <text class="cls-6" transform="translate(901.61 173.63)">
      <tspan x="0" y="0">603-2</tspan>
      <tspan x="-21.46" y="14.4">한화솔루션 큐셀</tspan>
    </text>
  </g>
  <g id="Layer_161">
    <rect class="cls-3" x="973.48" y="111.35" width="103.95" height="133" />
    <text class="cls-6" transform="translate(1005.48 173.63)">
      <tspan x="0" y="0">603-3</tspan>
      <tspan x="8.59" y="14.4">하엘</tspan>
    </text>
  </g>
  <g id="Layer_162">
    <rect class="cls-3" x="1077.48" y="111.35" width="87" height="133" />
    <text class="cls-6" transform="translate(1109.54 173.63)">
      <tspan class="cls-9" x="0" y="0">6</tspan>
      <tspan x="8.41" y="0">19</tspan>
      <tspan x="-5.62" y="14.4">공조실</tspan>
    </text>
  </g>
  <g id="Layer_184">
    <rect class="cls-3" x="1124.43" y="244.35" width="40" height="31" />
    <text class="cls-6" transform="translate(1127.36 262.83)">
      <tspan x="0" y="0">휴게실</tspan>
    </text>
  </g>
  <g id="Layer_172">
    <rect class="cls-3" x="1103.43" y="275.35" width="61" height="69" />
    <text class="cls-6" transform="translate(1117.9 305.63)">
      <tspan class="cls-9" x="0" y="0">6</tspan>
      <tspan class="cls-4" x="8.41" y="0">12A</tspan>
      <tspan x="-12.41" y="14.4">교수연구실</tspan>
    </text>
    <rect class="cls-3" x="1103.43" y="344.35" width="61" height="71" />
    <text class="cls-6" transform="translate(1118.09 375.63)">
      <tspan class="cls-9" x="0" y="0">6</tspan>
      <tspan class="cls-4" x="8.41" y="0">12B</tspan>
      <tspan x="-12.61" y="14.4">교수연구실</tspan>
    </text>
    <rect class="cls-3" x="1103.43" y="415.35" width="61" height="70" />
    <text class="cls-6" transform="translate(1117.97 446.13)">
      <tspan class="cls-9" x="0" y="0">6</tspan>
      <tspan x="8.41" y="0">12C</tspan>
      <tspan x="-12.49" y="14.4">교수연구실</tspan>
    </text>
    <polygon
      class="cls-3"
      points="973.43 485.35 1103.43 485.35 1103.43 439.24 1079.49 439.24 1079.49 427.35 973.43 427.35 973.43 485.35"
    />
    <text class="cls-6" transform="translate(1022.41 452.13)">
      <tspan class="cls-9" x="0" y="0">6</tspan>
      <tspan class="cls-4" x="8.41" y="0">12D</tspan>
      <tspan x="-25.29" y="14.4">대학원생 연구실</tspan>
    </text>
    <rect class="cls-3" x="1079.43" y="295.35" width="24" height="144" />
    <rect class="cls-3" x="1051.48" y="275.35" width="52" height="20" />
    <polygon
      class="cls-3"
      points="1079.84 295.35 1079.84 427.35 973.43 427.35 973.43 275.35 1051.48 275.35 1051.48 295.35 1079.84 295.35"
    />
    <text class="cls-6" transform="translate(1015.32 339.93)">
      <tspan class="cls-9" x="0" y="0">6</tspan>
      <tspan class="cls-4" x="8.41" y="0">12</tspan>
      <tspan x="-29.99" y="14.4">차세대 통신학과</tspan>
      <tspan x="-35.68" y="28.8">이노베이션 라운지</tspan>
    </text>
    <rect class="cls-3" x="869.43" y="316.35" width="104" height="169" />
    <text class="cls-6" transform="translate(887.66 403.83)">
      <tspan class="cls-9" x="0" y="0">6</tspan>
      <tspan class="cls-4" x="8.41" y="0">12E 실습실</tspan>
    </text>
    <rect class="cls-3" x="869.43" y="275.35" width="104" height="41" />
    <text class="cls-6" transform="translate(906.42 291.63)">
      <tspan class="cls-9" x="0" y="0">6</tspan>
      <tspan class="cls-4" x="8.41" y="0">12F</tspan>
      <tspan x="-13.43" y="14.4">기기보관실</tspan>
    </text>
  </g>
  <g id="Layer_173">
    <polygon
      class="cls-2"
      points="653.45 311.44 653.45 275.3 729.38 275.3 729.38 298.35 706.47 298.35 706.47 311.44 653.45 311.44"
    />
  </g>
  <g id="Layer_174">
    <polygon
      class="cls-2"
      points="506.91 296.02 506.91 311.44 484.01 311.44 484.01 360.25 552.73 360.25 552.73 296.02 506.91 296.02"
    />
  </g>
  <g id="Layer_175">
    <rect class="cls-3" x="520.57" y="275.3" width="32.16" height="20.72" />
    <text class="cls-5" transform="translate(530.96 287.15)">
      <tspan x="0" y="0">창고</tspan>
    </text>
  </g>
</svg>
