<?xml version="1.0" encoding="UTF-8"?><svg
  xmlns="http://www.w3.org/2000/svg"
  viewBox="0 0 1100 1100"
>
  <g id="Layer_border">
    <path
      d="m550,985.35c-58.77,0-115.78-11.51-169.46-34.21-51.84-21.93-98.4-53.32-138.38-93.3s-71.37-86.54-93.3-138.38c-22.7-53.67-34.21-110.69-34.21-169.46,0-89.82,27.07-175.89,78.32-249.17l-64.7-74.53,64.17-55.71,56.44,65.01c81.42-78.04,188.14-120.95,301.12-120.95,58.77,0,115.78,11.51,169.46,34.21,51.84,21.93,98.4,53.32,138.38,93.3s71.37,86.54,93.3,138.38c22.7,53.68,34.21,110.69,34.21,169.46,0,51.01-8.74,100.96-25.98,148.48-16.08,44.33-39.17,85.53-68.65,122.54l32.9,25.92-52.6,66.75-39.79-31.35c-37.92,32.13-80.59,57.3-126.89,74.87-49.26,18.68-101.18,28.15-154.34,28.15Z"
      fill="#fef3f2"
    />
    <path
      d="m550,119.65c237.68,0,430.35,192.67,430.35,430.35,0,103.09-36.25,197.71-96.7,271.81l32.94,25.96-46.41,58.89-39.09-30.8c-75.41,65.11-173.65,104.49-281.1,104.49-237.68,0-430.35-192.67-430.35-430.35,0-93,29.5-179.12,79.66-249.49l-64-73.71,56.62-49.16,56.63,65.22c77.64-76.21,184.05-123.21,301.44-123.21m0-10c-58.72,0-115.74,11.37-169.48,33.8-48.64,20.3-92.76,48.85-131.3,84.93l-49.74-57.29-6.56-7.55-7.55,6.56-56.62,49.16-7.55,6.56,6.56,7.55,58.88,67.82c-23.84,34.74-42.49,72.54-55.48,112.5-14.27,43.88-21.51,89.75-21.51,136.33,0,59.44,11.64,117.11,34.61,171.41,22.18,52.44,53.93,99.53,94.37,139.97,40.44,40.44,87.53,72.19,139.97,94.37,54.29,22.96,111.96,34.61,171.41,34.61,53.76,0,106.28-9.58,156.11-28.48,45.56-17.28,87.65-41.85,125.22-73.1l32.67,25.74,7.85,6.19,6.19-7.85,46.41-58.89,6.19-7.85-7.85-6.19-25.05-19.74c28.34-36.41,50.63-76.73,66.33-120,17.44-48.06,26.28-98.59,26.28-150.18,0-59.44-11.64-117.11-34.61-171.41-22.18-52.44-53.93-99.53-94.37-139.97-40.44-40.44-87.53-72.19-139.97-94.37-54.29-22.96-111.96-34.61-171.41-34.61h0Z"
      fill="#ea8b8b"
    />
    <line
      x1="760.27"
      y1="340.1"
      x2="851.86"
      y2="475.63"
      fill="none"
      stroke="#e95a59"
      stroke-miterlimit="10"
      stroke-width="3"
    />
    <path
      d="m980.35,550c0-237.68-192.67-430.35-430.35-430.35-117.39,0-223.8,47-301.44,123.21l-56.63-65.22-56.62,49.16,64,73.71c-50.16,70.37-79.66,156.49-79.66,249.49,0,237.68,192.67,430.35,430.35,430.35,107.45,0,205.69-39.38,281.1-104.49l39.09,30.8,46.41-58.89-32.94-25.96c60.44-74.11,96.7-168.72,96.7-271.81Z"
      fill="none"
    />
  </g>
  <g id="Layer_others">
    <rect
      x="807.03"
      y="778.08"
      width="77.98"
      height="123.62"
      transform="translate(-337.3 984.54) rotate(-51.76)"
      fill="#fef3f2"
    />
    <path
      d="m821.86,773.12l94.74,74.65-46.41,58.89-94.74-74.65,46.41-58.89m-.5-4.21l-1.86,2.36-46.41,58.89-1.86,2.36,2.36,1.86,94.74,74.65,2.36,1.86,1.86-2.36,46.41-58.89,1.86-2.36-2.36-1.86-94.74-74.65-2.36-1.86h0Z"
      fill="#ea8b8b"
    />
    <line
      x1="900.87"
      y1="835.38"
      x2="854.89"
      y2="894.61"
      fill="#fef3f2"
      stroke="#ea8b8b"
      stroke-miterlimit="10"
      stroke-width="3"
    />
    <line
      x1="885"
      y1="822.88"
      x2="839.03"
      y2="882.11"
      fill="#fef3f2"
      stroke="#ea8b8b"
      stroke-miterlimit="10"
      stroke-width="3"
    />
    <line
      x1="869.8"
      y1="809.27"
      x2="823.82"
      y2="868.51"
      fill="#fef3f2"
      stroke="#ea8b8b"
      stroke-miterlimit="10"
      stroke-width="3"
    />
    <line
      x1="853.28"
      y1="796.45"
      x2="807.3"
      y2="855.68"
      fill="#fef3f2"
      stroke="#ea8b8b"
      stroke-miterlimit="10"
      stroke-width="3"
    />
    <line
      x1="836.55"
      y1="785.46"
      x2="790.58"
      y2="844.69"
      fill="#fef3f2"
      stroke="#ea8b8b"
      stroke-miterlimit="10"
      stroke-width="3"
    />
    <rect
      x="164.17"
      y="185.95"
      width="77.98"
      height="123.62"
      transform="translate(-112.68 193.86) rotate(-40.96)"
      fill="#fef3f2"
    />
    <path
      d="m191.93,177.64l79.08,91.08-56.62,49.16-79.08-91.08,56.62-49.16m.3-4.23l-2.27,1.97-56.62,49.16-2.27,1.97,1.97,2.27,79.08,91.08,1.97,2.27,2.27-1.97,56.62-49.16,2.27-1.97-1.97-2.27-79.08-91.08-1.97-2.27h0Z"
      fill="#ea8b8b"
    />
    <line
      x1="257.88"
      y1="253.6"
      x2="201.63"
      y2="303.17"
      fill="#fef3f2"
      stroke="#ea8b8b"
      stroke-miterlimit="10"
      stroke-width="3"
    />
    <line
      x1="244.64"
      y1="238.35"
      x2="188.38"
      y2="287.92"
      fill="#fef3f2"
      stroke="#ea8b8b"
      stroke-miterlimit="10"
      stroke-width="3"
    />
    <line
      x1="232.26"
      y1="222.14"
      x2="176"
      y2="271.71"
      fill="#fef3f2"
      stroke="#ea8b8b"
      stroke-miterlimit="10"
      stroke-width="3"
    />
    <line
      x1="218.43"
      y1="206.45"
      x2="162.17"
      y2="256.02"
      fill="#fef3f2"
      stroke="#ea8b8b"
      stroke-miterlimit="10"
      stroke-width="3"
    />
    <line
      x1="204.06"
      y1="192.51"
      x2="147.8"
      y2="242.09"
      fill="#fef3f2"
      stroke="#ea8b8b"
      stroke-miterlimit="10"
      stroke-width="3"
    />
  </g>
  <g id="Layer_101">
    <path
      d="m248.52,243.4c20.25,22.71,40.5,45.42,60.76,68.13v62.44h229.05V120.16c-112.81,3.01-214.79,49.46-289.81,123.24Z"
      fill="#fed0d0"
      stroke="#ea8b8b"
      stroke-miterlimit="10"
      stroke-width="3"
    />
    <path
      d="m403.69,280.15h-4.61v-20.99h-.14l-5.94,3.8v-4.18l6.29-4.08h4.4v25.45Z"
      fill="#424142"
    />
    <path
      d="m409.49,267.42c-.02-8.3,3.67-13.08,9.77-13.08s9.77,4.78,9.77,13.08-3.66,13.08-9.77,13.08-9.79-4.75-9.77-13.08Zm9.77,9.25c3.18-.02,5.17-3.13,5.17-9.25-.02-6.06-1.99-9.26-5.17-9.28-3.18.02-5.15,3.22-5.17,9.28,0,6.12,1.97,9.23,5.17,9.25Z"
      fill="#424142"
    />
    <path
      d="m443.21,280.15h-4.61v-20.99h-.14l-5.94,3.8v-4.18l6.29-4.08h4.39v25.45Z"
      fill="#424142"
    />
  </g>
  <g id="Layer_102">
    <path
      d="m628.41,127.14v246.05c19.18,18.19,38.35,36.39,57.53,54.58,53.49-63.09,106.99-126.18,160.48-189.27-59.16-56.31-134.34-95.94-218.01-111.36Z"
      fill="#fed0d0"
      stroke="#ea8b8b"
      stroke-miterlimit="10"
      stroke-width="3"
    />
    <path
      d="m696.18,280.15h-4.61v-20.99h-.14l-5.94,3.8v-4.18l6.29-4.08h4.39v25.45Z"
      fill="#424142"
    />
    <path
      d="m701.98,267.42c-.02-8.3,3.67-13.08,9.77-13.08s9.77,4.78,9.77,13.08-3.66,13.08-9.77,13.08-9.79-4.75-9.77-13.08Zm9.77,9.25c3.18-.02,5.17-3.13,5.17-9.25-.02-6.06-1.99-9.26-5.17-9.28-3.18.02-5.15,3.22-5.17,9.28,0,6.12,1.97,9.23,5.17,9.25Z"
      fill="#424142"
    />
    <path
      d="m725.36,276.84l9-8.68c2.57-2.57,3.9-4.08,3.9-6.22,0-2.37-1.88-3.87-4.36-3.87-2.62,0-4.31,1.63-4.29,4.22h-4.36c-.02-4.82,3.6-7.95,8.68-7.95s8.7,3.11,8.72,7.38c-.02,2.87-1.39,5.19-6.4,9.91l-4.54,4.5v.18h11.32v3.83h-17.68v-3.3Z"
      fill="#424142"
    />
  </g>
  <g id="Layer_103">
    <path
      d="m719.87,459.94c-11.31-10.72-22.62-21.45-33.93-32.17,24.78-29.22,49.55-58.45,74.33-87.67,15.41,22.8,30.81,45.6,46.22,68.4-28.87,17.15-57.75,34.3-86.62,51.44Z"
      fill="#fed0d0"
      stroke="#ea8b8b"
      stroke-miterlimit="10"
      stroke-width="3"
    />
    <path
      d="m756.16,494.36c-12.1-11.47-24.2-22.95-36.3-34.42,28.87-17.15,57.75-34.3,86.62-51.44,15.12,22.38,30.24,44.76,45.36,67.13-31.9,6.24-63.79,12.49-95.69,18.73Z"
      fill="#fed0d0"
      stroke="#ea8b8b"
      stroke-miterlimit="10"
      stroke-width="3"
    />
    <path
      d="m767.77,470.39h-4.61v-20.99h-.14l-5.94,3.8v-4.18l6.29-4.08h4.39v25.45Z"
      fill="#424142"
    />
    <path
      d="m773.57,457.66c-.02-8.3,3.67-13.08,9.77-13.08s9.77,4.78,9.77,13.08-3.66,13.08-9.77,13.08-9.79-4.75-9.77-13.08Zm9.77,9.25c3.18-.02,5.17-3.13,5.17-9.25-.02-6.06-1.99-9.26-5.17-9.28-3.18.02-5.15,3.22-5.17,9.28,0,6.12,1.97,9.23,5.17,9.25Z"
      fill="#424142"
    />
    <path
      d="m796.77,463.5h4.61c.12,2.04,2.16,3.39,4.82,3.38,2.79.02,4.82-1.53,4.82-3.8s-1.97-3.92-5.27-3.94h-2.29v-3.52h2.29c2.71,0,4.59-1.51,4.57-3.73.02-2.14-1.6-3.59-4.08-3.59s-4.45,1.34-4.54,3.48h-4.39c.11-4.27,3.99-7.21,8.96-7.21s8.51,3.16,8.47,7.07c.04,2.85-1.86,4.9-4.64,5.48v.21c3.59.47,5.62,2.78,5.59,5.98.04,4.31-3.99,7.42-9.49,7.42s-9.32-2.95-9.42-7.24Z"
      fill="#424142"
    />
  </g>
  <g id="Layer_103A">
    <path
      d="m924.44,338.45c-39.32,23.35-78.63,46.7-117.95,70.05,15.12,22.38,30.24,44.76,45.36,67.13,39.03-7.64,78.06-15.28,117.09-22.92-9.39-40.59-24.53-78.98-44.51-114.26Z"
      fill="#fed0d0"
      stroke="#ea8b8b"
      stroke-miterlimit="10"
      stroke-width="3"
    />
    <path
      d="m859.72,432.34h-4.61v-20.99h-.14l-5.94,3.8v-4.18l6.29-4.08h4.39v25.45Z"
      fill="#424142"
    />
    <path
      d="m865.52,419.61c-.02-8.3,3.67-13.08,9.77-13.08s9.77,4.78,9.77,13.08-3.66,13.08-9.77,13.08-9.79-4.75-9.77-13.08Zm9.77,9.25c3.18-.02,5.17-3.13,5.17-9.25-.02-6.06-1.99-9.26-5.17-9.28-3.18.02-5.15,3.22-5.17,9.28,0,6.12,1.97,9.23,5.17,9.25Z"
      fill="#424142"
    />
    <path
      d="m888.72,425.45h4.61c.12,2.04,2.16,3.39,4.82,3.38,2.79.02,4.82-1.53,4.82-3.8s-1.97-3.92-5.27-3.94h-2.29v-3.52h2.29c2.71,0,4.59-1.51,4.57-3.73.02-2.14-1.6-3.59-4.08-3.59s-4.45,1.34-4.54,3.48h-4.39c.11-4.27,3.99-7.21,8.96-7.21s8.51,3.16,8.47,7.07c.04,2.85-1.86,4.9-4.64,5.48v.21c3.59.47,5.62,2.78,5.59,5.98.04,4.31-3.99,7.42-9.49,7.42s-9.32-2.95-9.42-7.24Z"
      fill="#424142"
    />
    <path
      d="m910.24,432.34l8.96-25.45h5.62l9,25.45h-4.89l-2.13-6.29h-9.58l-2.11,6.29h-4.89Zm15.35-9.98l-3.46-10.27h-.21l-3.45,10.27h7.12Z"
      fill="#424142"
    />
  </g>
  <g id="Layer_103B">
    <path
      d="m846.42,238.5c-28.72,33.87-57.43,67.74-86.15,101.61,15.41,22.8,30.81,45.6,46.22,68.4,39.32-23.35,78.63-46.7,117.95-70.05-21-37.1-47.36-70.77-78.02-99.96Z"
      fill="#fed0d0"
      stroke="#ea8b8b"
      stroke-miterlimit="10"
      stroke-width="3"
    />
    <path
      d="m809.84,342.56h-4.61v-20.99h-.14l-5.94,3.8v-4.18l6.29-4.08h4.39v25.45Z"
      fill="#424142"
    />
    <path
      d="m815.64,329.83c-.02-8.3,3.67-13.08,9.77-13.08s9.77,4.78,9.77,13.08-3.66,13.08-9.77,13.08-9.79-4.75-9.77-13.08Zm9.77,9.25c3.18-.02,5.17-3.13,5.17-9.25-.02-6.06-1.99-9.26-5.17-9.28-3.18.02-5.15,3.22-5.17,9.28,0,6.12,1.97,9.23,5.17,9.25Z"
      fill="#424142"
    />
    <path
      d="m838.85,335.67h4.61c.12,2.04,2.16,3.39,4.82,3.38,2.79.02,4.82-1.53,4.82-3.8s-1.97-3.92-5.27-3.94h-2.29v-3.52h2.29c2.71,0,4.59-1.51,4.57-3.73.02-2.14-1.6-3.59-4.08-3.59s-4.45,1.34-4.54,3.48h-4.39c.11-4.27,3.99-7.21,8.96-7.21s8.51,3.16,8.47,7.07c.04,2.85-1.86,4.9-4.64,5.48v.21c3.59.47,5.62,2.78,5.59,5.98.04,4.31-3.99,7.42-9.49,7.42s-9.32-2.95-9.42-7.24Z"
      fill="#424142"
    />
    <path
      d="m862.01,317.11h9.74c5.52,0,8.24,2.81,8.26,6.61-.02,3.09-1.97,4.82-4.46,5.41v.25c2.71.14,5.45,2.39,5.45,6.26s-2.87,6.93-8.68,6.93h-10.3v-25.45Zm9.18,10.83c2.41,0,4.24-1.39,4.25-3.66-.02-1.95-1.42-3.38-4.15-3.38h-4.71v7.03h4.61Zm.42,10.79c3.34,0,4.73-1.42,4.75-3.45-.02-2.29-1.79-4.03-4.64-4.04h-5.13v7.49h5.03Z"
      fill="#424142"
    />
  </g>
  <g id="Layer_104">
    <path
      d="m979.93,557.17h-223.09l.7,64.06c69.88,11.13,139.76,22.26,209.63,33.39,7.82-31.27,12.21-63.89,12.76-97.45Z"
      fill="#fed0d0"
      stroke="#ea8b8b"
      stroke-miterlimit="10"
      stroke-width="3"
    />
    <path
      d="m854.07,611.14h-4.61v-20.99h-.14l-5.94,3.8v-4.18l6.29-4.08h4.39v25.45Z"
      fill="#424142"
    />
    <path
      d="m859.87,598.41c-.02-8.3,3.67-13.08,9.77-13.08s9.77,4.78,9.77,13.08-3.66,13.08-9.77,13.08-9.79-4.75-9.77-13.08Zm9.77,9.25c3.18-.02,5.17-3.13,5.17-9.25-.02-6.06-1.99-9.26-5.17-9.28-3.18.02-5.15,3.22-5.17,9.28,0,6.12,1.97,9.23,5.17,9.25Z"
      fill="#424142"
    />
    <path
      d="m882.8,602.73l11-17.05h5.7v16.95h3.34v3.76h-3.34v4.75h-4.36v-4.75h-12.34v-3.66Zm12.41-.11v-11.74h-.28l-7.45,11.57v.18h7.73Z"
      fill="#424142"
    />
  </g>
  <g id="Layer_104A">
    <path
      d="m756.85,557.17h223.09c.04-2.39.07-4.77.07-7.17,0-33.34-3.8-65.79-10.98-96.95-70.95,13.77-141.91,27.54-212.86,41.32.23,20.93.45,41.87.68,62.8Z"
      fill="#fed0d0"
      stroke="#ea8b8b"
      stroke-miterlimit="10"
      stroke-width="3"
    />
    <path
      d="m843.31,525.57h-4.61v-20.99h-.14l-5.94,3.8v-4.18l6.29-4.08h4.39v25.45Z"
      fill="#424142"
    />
    <path
      d="m849.11,512.84c-.02-8.3,3.67-13.08,9.77-13.08s9.77,4.78,9.77,13.08-3.66,13.08-9.77,13.08-9.79-4.75-9.77-13.08Zm9.77,9.25c3.18-.02,5.17-3.13,5.17-9.25-.02-6.06-1.99-9.26-5.17-9.28-3.18.02-5.15,3.22-5.17,9.28,0,6.12,1.97,9.23,5.17,9.25Z"
      fill="#424142"
    />
    <path
      d="m872.03,517.17l11-17.05h5.7v16.95h3.34v3.76h-3.34v4.75h-4.36v-4.75h-12.34v-3.66Zm12.41-.11v-11.74h-.28l-7.45,11.57v.18h7.73Z"
      fill="#424142"
    />
    <path
      d="m894.32,525.57l8.96-25.45h5.62l9,25.45h-4.89l-2.13-6.29h-9.58l-2.11,6.29h-4.89Zm15.35-9.98l-3.46-10.27h-.21l-3.45,10.27h7.12Z"
      fill="#424142"
    />
  </g>
  <g id="Layer_105">
    <path
      d="m967.18,654.61c-69.88-11.13-139.76-22.26-209.63-33.39-13.63,17.21-27.26,34.43-40.89,51.64l-.26,17.01c55.79,43.75,111.58,87.49,167.37,131.24,39.04-48.01,67.94-104.6,83.41-166.51Z"
      fill="#fed0d0"
      stroke="#ea8b8b"
      stroke-miterlimit="10"
      stroke-width="3"
    />
    <path
      d="m824.96,710.4h-4.61v-20.99h-.14l-5.94,3.8v-4.18l6.29-4.08h4.39v25.45Z"
      fill="#424142"
    />
    <path
      d="m830.77,697.67c-.02-8.3,3.67-13.08,9.77-13.08s9.77,4.78,9.77,13.08-3.66,13.08-9.77,13.08-9.79-4.75-9.77-13.08Zm9.77,9.25c3.18-.02,5.17-3.13,5.17-9.25-.02-6.06-1.99-9.26-5.17-9.28-3.18.02-5.15,3.22-5.17,9.28,0,6.12,1.97,9.23,5.17,9.25Z"
      fill="#424142"
    />
    <path
      d="m854.21,703.51h4.46c.14,2.06,2.09,3.53,4.5,3.55,2.85-.02,4.9-2.07,4.89-4.89.02-2.92-2.09-4.97-5.03-4.99-1.99-.02-3.43.69-4.22,2.18h-4.25l1.55-14.41h15.05v3.83h-11.29l-.77,6.75h.25c.98-1.11,2.83-1.92,4.92-1.93,4.73.02,8.24,3.53,8.23,8.44.02,5.08-3.81,8.72-9.32,8.72-5.08,0-8.82-3.04-8.96-7.24Z"
      fill="#424142"
    />
  </g>
  <g id="Layer_106">
    <path
      d="m368.37,939.87c21.67,10.11,44.32,18.47,67.78,24.89h18.51v-134.65h-86.29v109.76Z"
      fill="#fed0d0"
      stroke="#ea8b8b"
      stroke-miterlimit="10"
      stroke-width="3"
    />
    <path
      d="m368.37,939.87c15.93,7.43,32.38,13.91,49.3,19.38v-54.64h-49.3v35.26Z"
      fill="#fed0d0"
      stroke="#ea8b8b"
      stroke-miterlimit="10"
      stroke-width="3"
    />
    <path
      d="m394.41,883.31h-4.61v-20.99h-.14l-5.94,3.8v-4.18l6.29-4.08h4.39v25.45Z"
      fill="#424142"
    />
    <path
      d="m400.21,870.58c-.02-8.3,3.67-13.08,9.77-13.08s9.77,4.78,9.77,13.08-3.66,13.08-9.77,13.08-9.79-4.75-9.77-13.08Zm9.77,9.25c3.18-.02,5.17-3.13,5.17-9.25-.02-6.06-1.99-9.26-5.17-9.28-3.18.02-5.15,3.22-5.17,9.28,0,6.12,1.97,9.23,5.17,9.25Z"
      fill="#424142"
    />
    <path
      d="m423.21,871.28c0-8.7,3.96-13.78,10.2-13.78,4.9,0,8.28,3.08,8.86,7.21h-4.54c-.46-1.95-2-3.25-4.32-3.23-3.69-.02-5.75,3.25-5.77,8.61h.25c1.3-2.2,3.74-3.5,6.54-3.48,4.57-.02,8.1,3.45,8.09,8.26.02,5.06-3.76,8.82-9.39,8.79-4.97-.04-9.93-2.99-9.91-12.38Zm9.91,8.68c2.83-.02,4.94-2.2,4.96-4.99-.02-2.71-2.06-4.89-4.89-4.89s-5.03,2.27-5.06,4.92c.04,2.65,2.11,4.94,4.99,4.96Z"
      fill="#424142"
    />
  </g>
  <g id="Layer_107">
    <path
      d="m528.91,979.49c6.99.34,14.02.51,21.09.51,60.82,0,118.68-12.63,171.12-35.4-9.87-24.07-19.73-48.15-29.6-72.22h-162.61v107.11Z"
      fill="#fed0d0"
      stroke="#ea8b8b"
      stroke-miterlimit="10"
      stroke-width="3"
    />
    <path
      d="m581.34,929.5h-4.61v-20.99h-.14l-5.94,3.8v-4.18l6.29-4.08h4.39v25.45Z"
      fill="#424142"
    />
    <path
      d="m587.14,916.77c-.02-8.3,3.67-13.08,9.77-13.08s9.77,4.78,9.77,13.08-3.66,13.08-9.77,13.08-9.79-4.75-9.77-13.08Zm9.77,9.25c3.18-.02,5.17-3.13,5.17-9.25-.02-6.06-1.99-9.26-5.17-9.28-3.18.02-5.15,3.22-5.17,9.28,0,6.12,1.97,9.23,5.17,9.25Z"
      fill="#424142"
    />
    <path
      d="m621.8,908.05v-.18h-12.8v-3.83h17.54v3.9l-11.04,21.55h-4.75l11.04-21.45Z"
      fill="#424142"
    />
  </g>
  <g id="Layer_108">
    <path
      d="m691.52,872.37c-16.01-39.07-32.03-78.15-48.04-117.22h-114.57v117.22h162.61Z"
      fill="#fed0d0"
      stroke="#ea8b8b"
      stroke-miterlimit="10"
      stroke-width="3"
    />
    <path
      d="m577.9,827.73h-4.61v-20.99h-.14l-5.94,3.8v-4.18l6.29-4.08h4.39v25.45Z"
      fill="#424142"
    />
    <path
      d="m583.7,815.01c-.02-8.3,3.67-13.08,9.77-13.08s9.77,4.78,9.77,13.08-3.66,13.08-9.77,13.08-9.79-4.75-9.77-13.08Zm9.77,9.25c3.18-.02,5.17-3.13,5.17-9.25-.02-6.06-1.99-9.26-5.17-9.28-3.18.02-5.15,3.22-5.17,9.28,0,6.12,1.97,9.23,5.17,9.25Z"
      fill="#424142"
    />
    <path
      d="m606.66,820.91c-.02-3.23,2.39-5.87,5.45-6.36v-.14c-2.67-.56-4.48-2.88-4.5-5.66.02-3.94,3.69-6.82,8.72-6.82s8.68,2.88,8.68,6.82c0,2.79-1.86,5.1-4.5,5.66v.14c3.04.49,5.47,3.13,5.48,6.36-.02,4.15-4.04,7.17-9.67,7.17s-9.69-3.02-9.67-7.17Zm9.67,3.55c2.99,0,4.94-1.62,4.96-3.97-.02-2.39-2.09-4.17-4.96-4.15-2.87-.02-4.97,1.74-4.96,4.15-.02,2.36,1.93,3.97,4.96,3.97Zm0-11.53c2.44,0,4.22-1.53,4.22-3.76s-1.72-3.66-4.22-3.66-4.24,1.49-4.25,3.66c.02,2.23,1.78,3.76,4.25,3.76Z"
      fill="#424142"
    />
  </g>
  <g id="Layer_109">
    <path
      d="m120,550c0,38.78,5.14,76.36,14.76,112.1h244.94v-167.22H123.5c-2.31,18.05-3.5,36.45-3.5,55.12Z"
      fill="#fed0d0"
      stroke="#ea8b8b"
      stroke-miterlimit="10"
      stroke-width="3"
    />
    <rect
      x="338.37"
      y="615.07"
      width="41.32"
      height="47.03"
      fill="#fed0d0"
      stroke="#ea8b8b"
      stroke-miterlimit="10"
      stroke-width="3"
    />
    <path
      d="m223.51,592.33h-4.61v-20.99h-.14l-5.94,3.8v-4.18l6.29-4.08h4.39v25.45Z"
      fill="#424142"
    />
    <path
      d="m229.31,579.61c-.02-8.3,3.67-13.08,9.77-13.08s9.77,4.78,9.77,13.08-3.66,13.08-9.77,13.08-9.79-4.75-9.77-13.08Zm9.77,9.25c3.18-.02,5.17-3.13,5.17-9.25-.02-6.06-1.99-9.26-5.17-9.28-3.18.02-5.15,3.22-5.17,9.28,0,6.12,1.97,9.23,5.17,9.25Z"
      fill="#424142"
    />
    <path
      d="m271.67,578.83c0,8.77-3.97,13.85-10.23,13.85-4.9,0-8.3-3.06-8.86-7.28h4.54c.46,2.02,2.02,3.3,4.32,3.3,3.69,0,5.77-3.25,5.8-8.72h-.28c-1.28,2.21-3.74,3.53-6.54,3.52-4.55.02-8.07-3.45-8.09-8.26,0-4.97,3.74-8.75,9.39-8.72,4.97.04,9.93,3.01,9.95,12.3Zm-9.98,1.2c2.83,0,5.01-2.29,4.99-4.92,0-2.58-2.07-4.87-4.92-4.89-2.87.02-4.99,2.2-4.96,4.92,0,2.74,2.04,4.89,4.89,4.89Z"
      fill="#424142"
    />
  </g>
  <g id="Layer_110">
    <path
      d="m123.5,494.88h217.32v-120.9h-183.26c-16.95,37.73-28.62,78.34-34.07,120.9Z"
      fill="#fed0d0"
      stroke="#ea8b8b"
      stroke-miterlimit="10"
      stroke-width="3"
    />
    <path
      d="m224.61,446.09h-4.61v-20.99h-.14l-5.94,3.8v-4.18l6.29-4.08h4.39v25.45Z"
      fill="#424142"
    />
    <path
      d="m241.13,446.09h-4.61v-20.99h-.14l-5.94,3.8v-4.18l6.29-4.08h4.39v25.45Z"
      fill="#424142"
    />
    <path
      d="m246.93,433.36c-.02-8.3,3.67-13.08,9.77-13.08s9.77,4.78,9.77,13.08-3.66,13.08-9.77,13.08-9.79-4.75-9.77-13.08Zm9.77,9.25c3.18-.02,5.17-3.13,5.17-9.25-.02-6.06-1.99-9.26-5.17-9.28-3.18.02-5.15,3.22-5.17,9.28,0,6.12,1.97,9.23,5.17,9.25Z"
      fill="#424142"
    />
  </g>
  <g id="Layer_111">
    <rect
      x="340.83"
      y="373.97"
      width="99.26"
      height="107.59"
      fill="#fed0d0"
      stroke="#ea8b8b"
      stroke-miterlimit="10"
      stroke-width="3"
    />
    <path
      d="m378.26,440.84h-4.61v-20.99h-.14l-5.94,3.8v-4.18l6.29-4.08h4.39v25.45Z"
      fill="#424142"
    />
    <path
      d="m394.78,440.84h-4.61v-20.99h-.14l-5.94,3.8v-4.18l6.29-4.08h4.39v25.45Z"
      fill="#424142"
    />
    <path
      d="m411.31,440.84h-4.61v-20.99h-.14l-5.94,3.8v-4.18l6.29-4.08h4.39v25.45Z"
      fill="#424142"
    />
  </g>
  <g id="Layer_112">
    <rect
      x="440.09"
      y="373.97"
      width="98.24"
      height="107.59"
      fill="#fed0d0"
      stroke="#ea8b8b"
      stroke-miterlimit="10"
      stroke-width="3"
    />
    <path
      d="m474.28,440.84h-4.61v-20.99h-.14l-5.94,3.8v-4.18l6.29-4.08h4.39v25.45Z"
      fill="#424142"
    />
    <path
      d="m490.8,440.84h-4.61v-20.99h-.14l-5.94,3.8v-4.18l6.29-4.08h4.39v25.45Z"
      fill="#424142"
    />
    <path
      d="m496.99,437.54l9-8.68c2.57-2.57,3.9-4.08,3.9-6.22,0-2.37-1.88-3.87-4.36-3.87-2.62,0-4.31,1.63-4.29,4.22h-4.36c-.02-4.82,3.6-7.95,8.68-7.95s8.7,3.11,8.72,7.38c-.02,2.87-1.39,5.19-6.4,9.91l-4.54,4.5v.18h11.32v3.83h-17.68v-3.3Z"
      fill="#424142"
    />
  </g>
  <g id="Layer_A">
    <path
      d="m250.75,711.48h128.04c8.5,13.01,16.99,26.03,25.49,39.04v79.6h-153.75c.07-39.55.15-79.09.22-118.64Z"
      fill="#fed0d0"
      stroke="#ea8b8b"
      stroke-miterlimit="10"
      stroke-width="3"
    />
    <path
      d="m314.15,784.45l8.96-25.45h5.62l9,25.45h-4.89l-2.13-6.29h-9.58l-2.11,6.29h-4.89Zm15.35-9.98l-3.46-10.27h-.21l-3.45,10.27h7.12Z"
      fill="#424142"
    />
  </g>
  <g id="Layer_C">
    <path
      d="m173.72,758.25c-1.27-2.29-2.52-4.58-3.75-6.89,1.23,2.31,2.48,4.61,3.75,6.89Z"
      fill="#fed0d0"
      stroke="#ea8b8b"
      stroke-miterlimit="10"
      stroke-width="3"
    />
    <path
      d="m169.65,750.75c-1.13-2.13-2.23-4.28-3.33-6.43,1.09,2.15,2.2,4.3,3.33,6.43Z"
      fill="#fed0d0"
      stroke="#ea8b8b"
      stroke-miterlimit="10"
      stroke-width="3"
    />
    <path
      d="m223.75,830.11c-1.68-1.95-3.33-3.92-4.97-5.9,1.64,1.98,3.29,3.95,4.97,5.9Z"
      fill="#fed0d0"
      stroke="#ea8b8b"
      stroke-miterlimit="10"
      stroke-width="3"
    />
    <path
      d="m177.95,765.7c-1.13-1.95-2.25-3.91-3.35-5.88,1.1,1.97,2.22,3.93,3.35,5.88Z"
      fill="#fed0d0"
      stroke="#ea8b8b"
      stroke-miterlimit="10"
      stroke-width="3"
    />
    <path
      d="m165.5,742.7c-2.37-4.71-4.65-9.47-6.85-14.28,2.2,4.81,4.48,9.57,6.85,14.28Z"
      fill="#fed0d0"
      stroke="#ea8b8b"
      stroke-miterlimit="10"
      stroke-width="3"
    />
    <path
      d="m154.73,719.56c-1.06-2.46-2.09-4.94-3.1-7.42,1.01,2.49,2.04,4.96,3.1,7.42Z"
      fill="#fed0d0"
      stroke="#ea8b8b"
      stroke-miterlimit="10"
      stroke-width="3"
    />
    <path
      d="m157.93,726.81c-1.06-2.34-2.1-4.69-3.11-7.05,1.02,2.36,2.06,4.71,3.11,7.05Z"
      fill="#fed0d0"
      stroke="#ea8b8b"
      stroke-miterlimit="10"
      stroke-width="3"
    />
    <path
      d="m182.55,773.43c-1.34-2.21-2.67-4.42-3.98-6.65,1.31,2.23,2.63,4.45,3.98,6.65Z"
      fill="#fed0d0"
      stroke="#ea8b8b"
      stroke-miterlimit="10"
      stroke-width="3"
    />
    <path
      d="m212.6,816.59c-1.59-2.01-3.15-4.03-4.7-6.06,1.55,2.03,3.12,4.06,4.7,6.06Z"
      fill="#fed0d0"
      stroke="#ea8b8b"
      stroke-miterlimit="10"
      stroke-width="3"
    />
    <path
      d="m217.5,822.65c-1.47-1.79-2.93-3.59-4.37-5.41,1.44,1.81,2.9,3.61,4.37,5.41Z"
      fill="#fed0d0"
      stroke="#ea8b8b"
      stroke-miterlimit="10"
      stroke-width="3"
    />
    <path
      d="m405.2,718.3c-8.28-7.64-16.56-15.27-24.84-22.91-.15-11.1-.31-22.2-.46-33.3-81.71,0-163.42,0-245.14,0,4.55,16.9,10.11,33.38,16.6,49.38h99.16v118.64c.07-39.55.15-79.09.22-118.64h128.04c8.5,13.01,16.99,26.03,25.49,39.04v79.6h50.38v-111.95c-16.48.04-32.97.09-49.45.13Z"
      fill="#fed0d0"
      stroke="#ea8b8b"
      stroke-miterlimit="10"
      stroke-width="3"
    />
    <path
      d="m206.71,808.96c-1.32-1.75-2.64-3.51-3.93-5.29,1.3,1.77,2.61,3.53,3.93,5.29Z"
      fill="#fed0d0"
      stroke="#ea8b8b"
      stroke-miterlimit="10"
      stroke-width="3"
    />
    <path
      d="m196.51,794.87c-1.23-1.77-2.44-3.54-3.64-5.33,1.2,1.79,2.42,3.56,3.64,5.33Z"
      fill="#fed0d0"
      stroke="#ea8b8b"
      stroke-miterlimit="10"
      stroke-width="3"
    />
    <path
      d="m191.98,788.23c-1.42-2.13-2.83-4.28-4.21-6.44,1.39,2.16,2.79,4.31,4.21,6.44Z"
      fill="#fed0d0"
      stroke="#ea8b8b"
      stroke-miterlimit="10"
      stroke-width="3"
    />
    <path
      d="m186.91,780.44c-1.17-1.83-2.32-3.67-3.46-5.53,1.14,1.85,2.29,3.69,3.46,5.53Z"
      fill="#fed0d0"
      stroke="#ea8b8b"
      stroke-miterlimit="10"
      stroke-width="3"
    />
    <path
      d="m202.01,802.62c-1.5-2.07-2.99-4.15-4.45-6.24,1.47,2.09,2.95,4.18,4.45,6.24Z"
      fill="#fed0d0"
      stroke="#ea8b8b"
      stroke-miterlimit="10"
      stroke-width="3"
    />
    <path
      d="m421.62,758.99h9.74c5.52,0,8.24,2.81,8.26,6.61-.02,3.09-1.97,4.82-4.46,5.41v.25c2.71.14,5.45,2.39,5.45,6.26s-2.87,6.93-8.68,6.93h-10.3v-25.45Zm9.18,10.83c2.41,0,4.24-1.39,4.25-3.66-.02-1.95-1.42-3.38-4.15-3.38h-4.71v7.03h4.61Zm.42,10.79c3.34,0,4.73-1.42,4.75-3.45-.02-2.29-1.79-4.03-4.64-4.04h-5.13v7.49h5.03Z"
      fill="#424142"
    />
    <path
      d="m239.84,678.17c-4.17,0-7.12,3.2-7.1,8.96-.02,5.85,2.95,8.96,7.1,8.96,3.02,0,5.47-1.69,6.08-4.68h4.61c-.7,4.89-4.73,8.79-10.76,8.79-6.71,0-11.65-4.87-11.64-13.08-.02-8.23,4.97-13.08,11.64-13.08,5.62,0,9.97,3.27,10.76,8.93h-4.61c-.54-3.06-2.99-4.82-6.08-4.82Z"
      fill="#424142"
    />
  </g>
  <g id="Layer_D">
    <path
      d="m223.75,830.11h26.77v-118.64h-99.17c17.66,43.55,42.25,83.55,72.4,118.64Z"
      fill="#fed0d0"
      stroke="#ea8b8b"
      stroke-miterlimit="10"
      stroke-width="3"
    />
    <path
      d="m209.46,784.45v-25.45h8.79c7.59,0,12.18,4.76,12.2,12.69-.02,7.96-4.61,12.76-12.34,12.76h-8.65Zm8.4-3.97c5.33.02,8.02-2.92,8.02-8.79s-2.69-8.74-7.88-8.72h-3.97v17.51h3.83Z"
      fill="#424142"
    />
  </g>
  <g id="Layer_E">
    <path
      d="m368.37,939.87v-109.76h-144.62c39.63,46.12,88.87,83.74,144.62,109.76Z"
      fill="#fed0d0"
      stroke="#ea8b8b"
      stroke-miterlimit="10"
      stroke-width="3"
    />
    <path
      d="m310.62,857.85h16.56v3.83h-11.99v6.96h11.11v3.83h-11.11v6.96h12.06v3.87h-16.63v-25.45Z"
      fill="#424142"
    />
  </g>
</svg>
