<?xml version="1.0" encoding="UTF-8"?><svg xmlns="http://www.w3.org/2000/svg" viewBox="0 0 1100 1100"><defs><style>.cls-1,.cls-2{fill:none;}.cls-2{stroke:#e95a59;}.cls-2,.cls-3,.cls-4{stroke-miterlimit:10;stroke-width:3px;}.cls-5{fill:#ea8b8b;}.cls-6,.cls-3{fill:#fef3f2;}.cls-7{fill:#424041;font-family:NanumSquareNeovariable-Heavy, 'NanumSquare Neo variable';font-size:36px;font-variation-settings:'wght' 900;font-weight:800;}.cls-3,.cls-4{stroke:#ea8b8b;}.cls-4{fill:#fed0d0;}</style></defs><g id="Layer_border"><path class="cls-6" d="m550,985.35c-58.77,0-115.78-11.51-169.46-34.21-51.84-21.93-98.4-53.32-138.38-93.3s-71.37-86.54-93.3-138.38c-22.7-53.67-34.21-110.69-34.21-169.46,0-89.82,27.07-175.89,78.32-249.17l-64.7-74.53,64.17-55.71,56.44,65.01c81.42-78.04,188.14-120.95,301.12-120.95,58.77,0,115.78,11.51,169.46,34.21,51.84,21.93,98.4,53.32,138.38,93.3s71.37,86.54,93.3,138.38c22.7,53.68,34.21,110.69,34.21,169.46,0,51.01-8.74,100.96-25.98,148.48-16.08,44.33-39.17,85.53-68.65,122.54l32.9,25.92-52.6,66.75-39.79-31.35c-37.92,32.13-80.59,57.3-126.89,74.87-49.26,18.68-101.18,28.15-154.34,28.15Z"/><path class="cls-5" d="m550,119.65c237.68,0,430.35,192.67,430.35,430.35,0,103.09-36.25,197.71-96.7,271.81l32.94,25.96-46.41,58.89-39.09-30.8c-75.41,65.11-173.65,104.49-281.1,104.49-237.68,0-430.35-192.67-430.35-430.35,0-93,29.5-179.12,79.66-249.49l-64-73.71,56.62-49.16,56.63,65.22c77.64-76.21,184.05-123.21,301.44-123.21m0-10c-58.72,0-115.74,11.37-169.48,33.8-48.64,20.3-92.76,48.85-131.3,84.93l-49.74-57.29-6.56-7.55-7.55,6.56-56.62,49.16-7.55,6.56,6.56,7.55,58.88,67.82c-23.84,34.74-42.49,72.54-55.48,112.5-14.27,43.88-21.51,89.75-21.51,136.33,0,59.44,11.64,117.11,34.61,171.41,22.18,52.44,53.93,99.53,94.37,139.97,40.44,40.44,87.53,72.19,139.97,94.37,54.29,22.96,111.96,34.61,171.41,34.61,53.76,0,106.28-9.58,156.11-28.48,45.56-17.28,87.65-41.85,125.22-73.1l32.67,25.74,7.85,6.19,6.19-7.85,46.41-58.89,6.19-7.85-7.85-6.19-25.05-19.74c28.34-36.41,50.63-76.73,66.33-120,17.44-48.06,26.28-98.59,26.28-150.18,0-59.44-11.64-117.11-34.61-171.41-22.18-52.44-53.93-99.53-94.37-139.97-40.44-40.44-87.53-72.19-139.97-94.37-54.29-22.96-111.96-34.61-171.41-34.61h0Z"/><line class="cls-2" x1="760.27" y1="340.1" x2="851.86" y2="475.63"/><path class="cls-1" d="m980.35,550c0-237.68-192.67-430.35-430.35-430.35-117.39,0-223.8,47-301.44,123.21l-56.63-65.22-56.62,49.16,64,73.71c-50.16,70.37-79.66,156.49-79.66,249.49,0,237.68,192.67,430.35,430.35,430.35,107.45,0,205.69-39.38,281.1-104.49l39.09,30.8,46.41-58.89-32.94-25.96c60.44-74.11,96.7-168.72,96.7-271.81Z"/></g><g id="Layer_others"><rect class="cls-6" x="807.03" y="778.08" width="77.98" height="123.62" transform="translate(-337.3 984.54) rotate(-51.76)"/><path class="cls-5" d="m821.86,773.12l94.74,74.65-46.41,58.89-94.74-74.65,46.41-58.89m-.5-4.21l-1.86,2.36-46.41,58.89-1.86,2.36,2.36,1.86,94.74,74.65,2.36,1.86,1.86-2.36,46.41-58.89,1.86-2.36-2.36-1.86-94.74-74.65-2.36-1.86h0Z"/><line class="cls-3" x1="900.87" y1="835.38" x2="854.89" y2="894.61"/><line class="cls-3" x1="885" y1="822.88" x2="839.03" y2="882.11"/><line class="cls-3" x1="869.8" y1="809.27" x2="823.82" y2="868.51"/><line class="cls-3" x1="853.28" y1="796.45" x2="807.3" y2="855.68"/><line class="cls-3" x1="836.55" y1="785.46" x2="790.58" y2="844.69"/><rect class="cls-6" x="164.17" y="185.95" width="77.98" height="123.62" transform="translate(-112.68 193.86) rotate(-40.96)"/><path class="cls-5" d="m191.93,177.64l79.08,91.08-56.62,49.16-79.08-91.08,56.62-49.16m.3-4.23l-2.27,1.97-56.62,49.16-2.27,1.97,1.97,2.27,79.08,91.08,1.97,2.27,2.27-1.97,56.62-49.16,2.27-1.97-1.97-2.27-79.08-91.08-1.97-2.27h0Z"/><line class="cls-3" x1="257.88" y1="253.6" x2="201.63" y2="303.17"/><line class="cls-3" x1="244.64" y1="238.35" x2="188.38" y2="287.92"/><line class="cls-3" x1="232.26" y1="222.14" x2="176" y2="271.71"/><line class="cls-3" x1="218.43" y1="206.45" x2="162.17" y2="256.02"/><line class="cls-3" x1="204.06" y1="192.51" x2="147.8" y2="242.09"/></g><g id="Layer_101"><path class="cls-4" d="m248.52,243.4c20.25,22.71,40.5,45.42,60.76,68.13v62.44h229.05V120.16c-112.81,3.01-214.79,49.46-289.81,123.24Z"/><text class="cls-7" transform="translate(388.01 271.16)"><tspan x="0" y="0">101</tspan></text></g><g id="Layer_102"><path class="cls-4" d="m628.41,127.14v246.05c19.18,18.19,38.35,36.39,57.53,54.58,53.49-63.09,106.99-126.18,160.48-189.27-59.16-56.31-134.34-95.94-218.01-111.36Z"/><text class="cls-7" transform="translate(674.47 278.39)"><tspan x="0" y="0">102</tspan></text></g><g id="Layer_103"><path class="cls-4" d="m719.87,459.94c-11.31-10.72-22.62-21.45-33.93-32.17,24.78-29.22,49.55-58.45,74.33-87.67,15.41,22.8,30.81,45.6,46.22,68.4-28.87,17.15-57.75,34.3-86.62,51.44Z"/><path class="cls-4" d="m756.16,494.36c-12.1-11.47-24.2-22.95-36.3-34.42,28.87-17.15,57.75-34.3,86.62-51.44,15.12,22.38,30.24,44.76,45.36,67.13-31.9,6.24-63.79,12.49-95.69,18.73Z"/><path class="cls-4" d="m924.44,338.45c-39.32,23.35-78.63,46.7-117.95,70.05,15.12,22.38,30.24,44.76,45.36,67.13,39.03-7.64,78.06-15.28,117.09-22.92-9.39-40.59-24.53-78.98-44.51-114.26Z"/><path class="cls-4" d="m846.42,238.5c-28.72,33.87-57.43,67.74-86.15,101.61,15.41,22.8,30.81,45.6,46.22,68.4,39.32-23.35,78.63-46.7,117.95-70.05-21-37.1-47.36-70.77-78.02-99.96Z"/><text class="cls-7" transform="translate(744.41 469.99)"><tspan x="0" y="0">103</tspan></text><text class="cls-7" transform="translate(841.05 433.99)"><tspan x="0" y="0">103A</tspan></text><text class="cls-7" transform="translate(792.71 337.99)"><tspan x="0" y="0">103B</tspan></text></g><g id="Layer_104"><path class="cls-4" d="m979.93,557.17h-223.09l.7,64.06c69.88,11.13,139.76,22.26,209.63,33.39,7.82-31.27,12.21-63.89,12.76-97.45Z"/><text class="cls-7" transform="translate(826.89 606.13)"><tspan x="0" y="0">104</tspan></text></g><g id="Layer_104A"><path class="cls-4" d="m756.85,557.17h223.09c.04-2.39.07-4.77.07-7.17,0-33.34-3.8-65.79-10.98-96.95-70.95,13.77-141.91,27.54-212.86,41.32.23,20.93.45,41.87.68,62.8Z"/><text class="cls-7" transform="translate(825.52 525.13)"><tspan x="0" y="0">104A</tspan></text></g><g id="Layer_105"><path class="cls-4" d="m967.18,654.61c-69.88-11.13-139.76-22.26-209.63-33.39-13.63,17.21-27.26,34.43-40.89,51.64l-.26,17.01c55.79,43.75,111.58,87.49,167.37,131.24,39.04-48.01,67.94-104.6,83.41-166.51Z"/><text class="cls-7" transform="translate(803.19 705.13)"><tspan x="0" y="0">105</tspan></text></g><g id="Layer_106"><path class="cls-4" d="m368.37,939.87c21.67,10.11,44.32,18.47,67.78,24.89h18.51v-134.65h-86.29v109.76Z"/><path class="cls-4" d="m368.37,939.87c15.93,7.43,32.38,13.91,49.3,19.38v-54.64h-49.3v35.26Z"/><path class="cls-4" d="m250.75,711.48h128.04c8.5,13.01,16.99,26.03,25.49,39.04v79.6h-153.75c.07-39.55.15-79.09.22-118.64Z"/><path class="cls-4" d="m173.72,758.25c-1.27-2.29-2.52-4.58-3.75-6.89,1.23,2.31,2.48,4.61,3.75,6.89Z"/><path class="cls-4" d="m169.65,750.75c-1.13-2.13-2.23-4.28-3.33-6.43,1.09,2.15,2.2,4.3,3.33,6.43Z"/><path class="cls-4" d="m223.75,830.11c-1.68-1.95-3.33-3.92-4.97-5.9,1.64,1.98,3.29,3.95,4.97,5.9Z"/><path class="cls-4" d="m177.95,765.7c-1.13-1.95-2.25-3.91-3.35-5.88,1.1,1.97,2.22,3.93,3.35,5.88Z"/><path class="cls-4" d="m165.5,742.7c-2.37-4.71-4.65-9.47-6.85-14.28,2.2,4.81,4.48,9.57,6.85,14.28Z"/><path class="cls-4" d="m154.73,719.56c-1.06-2.46-2.09-4.94-3.1-7.42,1.01,2.49,2.04,4.96,3.1,7.42Z"/><path class="cls-4" d="m157.93,726.81c-1.06-2.34-2.1-4.69-3.11-7.05,1.02,2.36,2.06,4.71,3.11,7.05Z"/><path class="cls-4" d="m182.55,773.43c-1.34-2.21-2.67-4.42-3.98-6.65,1.31,2.23,2.63,4.45,3.98,6.65Z"/><path class="cls-4" d="m212.6,816.59c-1.59-2.01-3.15-4.03-4.7-6.06,1.55,2.03,3.12,4.06,4.7,6.06Z"/><path class="cls-4" d="m217.5,822.65c-1.47-1.79-2.93-3.59-4.37-5.41,1.44,1.81,2.9,3.61,4.37,5.41Z"/><path class="cls-4" d="m405.2,718.3c-8.28-7.64-16.56-15.27-24.84-22.91-.15-11.1-.31-22.2-.46-33.3-81.71,0-163.42,0-245.14,0,4.55,16.9,10.11,33.38,16.6,49.38h99.16v118.64c.07-39.55.15-79.09.22-118.64h128.04c8.5,13.01,16.99,26.03,25.49,39.04v79.6h50.38v-111.95c-16.48.04-32.97.09-49.45.13Z"/><path class="cls-4" d="m206.71,808.96c-1.32-1.75-2.64-3.51-3.93-5.29,1.3,1.77,2.61,3.53,3.93,5.29Z"/><path class="cls-4" d="m196.51,794.87c-1.23-1.77-2.44-3.54-3.64-5.33,1.2,1.79,2.42,3.56,3.64,5.33Z"/><path class="cls-4" d="m191.98,788.23c-1.42-2.13-2.83-4.28-4.21-6.44,1.39,2.16,2.79,4.31,4.21,6.44Z"/><path class="cls-4" d="m186.91,780.44c-1.17-1.83-2.32-3.67-3.46-5.53,1.14,1.85,2.29,3.69,3.46,5.53Z"/><path class="cls-4" d="m202.01,802.62c-1.5-2.07-2.99-4.15-4.45-6.24,1.47,2.09,2.95,4.18,4.45,6.24Z"/><path class="cls-4" d="m223.75,830.11h26.77v-118.64h-99.17c17.66,43.55,42.25,83.55,72.4,118.64Z"/><path class="cls-4" d="m368.37,939.87v-109.76h-144.62c39.63,46.12,88.87,83.74,144.62,109.76Z"/><text class="cls-7" transform="translate(376.02 876.64)"><tspan x="0" y="0">106</tspan></text><text class="cls-7" transform="translate(312.59 784.74)"><tspan x="0" y="0">A</tspan></text><text class="cls-7" transform="translate(416.26 781.74)"><tspan x="0" y="0">B</tspan></text><text class="cls-7" transform="translate(242.83 698.74)"><tspan x="0" y="0">C</tspan></text><text class="cls-7" transform="translate(200.72 780.74)"><tspan x="0" y="0">D</tspan></text><text class="cls-7" transform="translate(296.11 872.74)"><tspan x="0" y="0">E</tspan></text></g><g id="Layer_107"><path class="cls-4" d="m528.91,979.49c6.99.34,14.02.51,21.09.51,60.82,0,118.68-12.63,171.12-35.4-9.87-24.07-19.73-48.15-29.6-72.22h-162.61v107.11Z"/><text class="cls-7" transform="translate(571.9 926.52)"><tspan x="0" y="0">107</tspan></text></g><g id="Layer_108"><path class="cls-4" d="m691.52,872.37c-16.01-39.07-32.03-78.15-48.04-117.22h-114.57v117.22h162.61Z"/><text class="cls-7" transform="translate(555.94 827.52)"><tspan x="0" y="0">108</tspan></text></g><g id="Layer_109"><path class="cls-4" d="m120,550c0,38.78,5.14,76.36,14.76,112.1h244.94v-167.22H123.5c-2.31,18.05-3.5,36.45-3.5,55.12Z"/><rect class="cls-4" x="338.37" y="615.07" width="41.32" height="47.03"/><text class="cls-7" transform="translate(207.6 585.65)"><tspan x="0" y="0">109</tspan></text></g><g id="Layer_110"><rect class="cls-4" x="440.09" y="373.97" width="98.24" height="107.59"/><text class="cls-7" transform="translate(457.63 436.81)"><tspan x="0" y="0">110</tspan></text></g><g id="Layer_111"><rect class="cls-4" x="340.83" y="373.97" width="99.26" height="107.59"/><text class="cls-7" transform="translate(363.19 437.16)"><tspan x="0" y="0">111</tspan></text></g><g id="Layer_112"><path class="cls-4" d="m123.5,494.88h217.32v-120.9h-183.26c-16.95,37.73-28.62,78.34-34.07,120.9Z"/><text class="cls-7" transform="translate(202.86 437.16)"><tspan x="0" y="0">112</tspan></text></g></svg>