<?xml version="1.0" encoding="UTF-8"?>
<svg id="_x31_" xmlns="http://www.w3.org/2000/svg" viewBox="0 0 1650.12 966.94">
  <defs>
    <style>
      .cls-1 {
        fill: #fcf2f2;
        stroke-width: 10px;
      }

      .cls-1,
      .cls-2,
      .cls-3,
      .cls-4,
      .cls-5 {
        stroke: #e68b8b;
        stroke-miterlimit: 10;
      }

      .cls-2 {
        stroke-width: 2px;
      }

      .cls-2,
      .cls-3,
      .cls-4 {
        fill: none;
      }

      .cls-6 {
        font-size: 8px;
      }

      .cls-6,
      .cls-7,
      .cls-8,
      .cls-9,
      .cls-10,
      .cls-11 {
        fill: #221f20;
        font-family: NanumSquareNeoTTF-dEb, "NanumSquare Neo";
      }

      .cls-7 {
        font-size: 9px;
      }

      .cls-8 {
        font-size: 7px;
      }

      .cls-3,
      .cls-5 {
        stroke-width: 3px;
      }

      .cls-9 {
        font-size: 11px;
      }

      .cls-10 {
        font-size: 12px;
      }

      .cls-11 {
        font-size: 10px;
      }

      .cls-12 {
        letter-spacing: -0.03em;
      }

      .cls-5 {
        fill: #f3cdcf;
      }
    </style>
  </defs>
  <g id="Layer_x5F_border">
    <path
      class="cls-1"
      d="M66.66,689.53c107,.93,213.99,1.87,320.99,2.8-.47,55.6-.93,111.2-1.4,166.8,144.98-5.47,399.47-34.54,674.45-177.58,203.83-106.02,345.41-236.43,433.13-331.51-3.89-7.22-7.77-14.44-11.66-21.66,30.54-40.54,61.08-81.07,91.62-121.61h-319.87v-113.33c-46.64,29.45-93.28,58.89-139.92,88.34H62.83c1.28,169.25,2.55,338.49,3.83,507.74Z"
    />
  </g>
  <g id="Layer_2">
    <rect class="cls-5" x="65.27" y="181.79" width="214.68" height="228.93" />
    <text class="cls-10" transform="translate(159.56 290.11)">
      <tspan x="0" y="0">133</tspan>
      <tspan x="-5.56" y="14.4">전기실</tspan>
    </text>
  </g>
  <g id="Layer_20">
    <polygon
      class="cls-5"
      points="1160.2 528.83 1107.9 437.33 1158.5 407.72 1212.86 498.46 1160.2 528.83"
    />
    <text class="cls-10" transform="translate(1148.62 460.66)">
      <tspan x="0" y="0">121</tspan>
      <tspan x="-6.98" y="14.4">강의실</tspan>
    </text>
  </g>
  <g id="Layer_32">
    <polygon
      class="cls-5"
      points="1267.08 467.19 1302.15 526.46 1201.07 599.03 1160.2 528.83 1267.08 467.19"
    />
    <text class="cls-10" transform="translate(1220.85 528.83)">
      <tspan x="0" y="0">118</tspan>
      <tspan x="-6.73" y="14.4">강사실</tspan>
    </text>
  </g>
  <g id="Layer_56">
    <rect class="cls-5" x="446.15" y="536.48" width="51.52" height="54.84" />
    <text class="cls-10" transform="translate(456.01 554.46)">
      <tspan x="0" y="0">134B</tspan>
      <tspan x="-1.01" y="14.4">기관실</tspan>
      <tspan x="-1.01" y="28.8">숙직실</tspan>
    </text>
  </g>
  <g id="Layer_57">
    <rect class="cls-5" x="391.86" y="536.48" width="54.29" height="54.84" />
    <text class="cls-10" transform="translate(408.5 553.9)">
      <tspan x="0" y="0">136</tspan>
      <tspan x="-5.56" y="14.4">경비원</tspan>
      <tspan x="-5.56" y="28.8">숙직실</tspan>
    </text>
  </g>
  <g id="Layer_58">
    <polygon
      class="cls-5"
      points="276.86 591.32 276.86 561.41 319.84 561.41 319.84 536.48 391.86 536.48 391.86 591.32 276.86 591.32"
    />
    <text class="cls-9" transform="translate(329.22 564.3)">
      <tspan x="0" y="0">135</tspan>
      <tspan x="-15.64" y="13.2">용역대기실</tspan>
    </text>
  </g>
  <g id="Layer_33">
    <polygon
      class="cls-5"
      points="1212.86 498.46 1158.5 407.72 1212.86 376.2 1267.08 467.19 1212.86 498.46"
    />
    <text class="cls-10" transform="translate(1203.27 432.6)">
      <tspan x="0" y="0">120</tspan>
      <tspan x="-5.54" y="14.4">강의실</tspan>
    </text>
  </g>
  <g id="Layer_34">
    <polygon
      class="cls-5"
      points="1267.08 467.19 1212.86 376.2 1260.29 348.25 1315.2 439.24 1267.08 467.19"
    />
    <text class="cls-10" transform="translate(1254.88 401.84)">
      <tspan x="0" y="0">119</tspan>
      <tspan x="-6.86" y="14.4">강의실</tspan>
    </text>
  </g>
  <g id="Layer_35">
    <polygon
      class="cls-5"
      points="1302.15 526.46 1278.14 485.94 1328.38 455.66 1347.86 489.46 1302.15 526.46"
    />
    <text class="cls-7" transform="translate(1303.35 487.46)">
      <tspan x="0" y="0">117</tspan>
      <tspan x="-14.04" y="10.8">강사휴게실</tspan>
    </text>
  </g>
  <g id="Layer_36">
    <polygon
      class="cls-5"
      points="1493.84 350.05 1426.31 243.71 1315.2 313.07 1398.18 445.32 1493.84 350.05"
    />
    <text class="cls-10" transform="translate(1398.76 345.63)">
      <tspan x="0" y="0">114</tspan>
    </text>
  </g>
  <g id="Layer_37">
    <polygon
      class="cls-5"
      points="1401.95 206.78 1482.18 328.39 1573.8 206.78 1401.95 206.78"
    />
    <text class="cls-10" transform="translate(1483.63 241.71)">
      <tspan x="0" y="0">113</tspan>
      <tspan x="-6.86" y="14.4">공조실</tspan>
    </text>
  </g>
  <g id="Layer_38">
    <polygon
      class="cls-3"
      points="1190.87 293.85 1239.82 263.65 1215.34 224.42 1166.44 253.31 1190.87 293.85"
    />
  </g>
  <g id="Layer_39">
    <polygon
      class="cls-3"
      points="1212.86 330.33 1262.67 300.12 1239.82 263.65 1190.87 293.85 1212.86 330.33"
    />
  </g>
  <g id="Layer_40">
    <polygon
      class="cls-5"
      points="916.61 396.11 982.73 361.87 916.61 361.87 916.61 396.11"
    />
    <text class="cls-6" transform="translate(923.84 372.44)">
      <tspan x="0" y="0">108</tspan>
      <tspan x=".26" y="9.6">창고</tspan>
    </text>
  </g>
  <g id="Layer_45">
    <polygon
      class="cls-5"
      points="916.61 361.87 982.73 361.87 992.38 355.96 992.38 274.44 918.7 274.44 916.61 361.87"
    />
    <text class="cls-10" transform="translate(944.37 314.04)">
      <tspan x="0" y="0">107</tspan>
      <tspan x="-5.9" y="14.4">강의실</tspan>
    </text>
  </g>
  <g id="Layer_46">
    <rect class="cls-5" x="918.7" y="181.79" width="73.68" height="92.65" />
    <text class="cls-10" transform="translate(943.89 225.12)">
      <tspan x="0" y="0">106</tspan>
      <tspan x="-5.42" y="14.4">강의실</tspan>
    </text>
  </g>
  <g id="Layer_47">
    <rect class="cls-5" x="887.12" y="181.79" width="31.58" height="62.74" />
    <text class="cls-11" transform="translate(893.19 212.16)">
      <tspan x="0" y="0">105</tspan>
      <tspan x="-4.62" y="12">강의실</tspan>
    </text>
  </g>
  <g id="Layer_48">
    <rect class="cls-5" x="818.32" y="181.79" width="68.8" height="62.74" />
    <text class="cls-10" transform="translate(836.54 213.16)">
      <tspan x="0" y="0">134G</tspan>
      <tspan x="4.81" y="14.4">창고</tspan>
    </text>
  </g>
  <g id="Layer_49">
    <rect class="cls-5" x="818.32" y="244.53" width="68.8" height="86.42" />
    <text class="cls-10" transform="translate(841.62 281.38)">
      <tspan x="0" y="0">104</tspan>
      <tspan x="-5.39" y="14.4">강의실</tspan>
    </text>
  </g>
  <g id="Layer_50">
    <rect class="cls-5" x="818.32" y="330.95" width="68.8" height="86.98" />
    <text class="cls-10" transform="translate(842.02 365.7)">
      <tspan x="0" y="0">103</tspan>
      <tspan x="-5.42" y="14.4">강의실</tspan>
    </text>
  </g>
  <g id="Layer_51">
    <polygon
      class="cls-5"
      points="707.59 472.25 818.32 417.93 818.32 181.79 707.59 181.79 707.59 472.25"
    />
    <text class="cls-10" transform="translate(747.03 304.51)">
      <tspan x="0" y="0">134A</tspan>
      <tspan x="-6.51" y="14.4">저수조실</tspan>
    </text>
  </g>
  <g id="Layer_52">
    <polygon
      class="cls-5"
      points="707.59 181.79 707.59 504.56 659.12 528.83 647.12 504.56 497.67 573.9 497.67 536.48 276.86 536.48 279.95 249.51 497.67 249.51 497.67 181.79 707.59 181.79"
    />
    <text class="cls-10" transform="translate(482.33 380.22)">
      <tspan x="0" y="0">134</tspan>
      <tspan x="-5.53" y="14.4">기계실</tspan>
    </text>
  </g>
  <g id="Layer_53">
    <rect class="cls-5" x="387.42" y="181.79" width="110.24" height="67.72" />
    <text class="cls-10" transform="translate(424.78 211.89)">
      <tspan x="0" y="0">134F</tspan>
      <tspan x="-13.22" y="14.4">소화가스실</tspan>
    </text>
  </g>
  <g id="Layer_54">
    <rect class="cls-5" x="279.95" y="181.79" width="31.58" height="67.72" />
    <text class="cls-9" transform="translate(280.86 210.48)">
      <tspan x="0" y="0">134D</tspan>
      <tspan x="4.45" y="13.2">창고</tspan>
    </text>
  </g>
  <g id="Layer_55">
    <rect class="cls-5" x="311.53" y="181.79" width="38.23" height="67.72" />
    <text class="cls-10" transform="translate(315.21 210.48)">
      <tspan x="0" y="0">134E</tspan>
      <tspan x="4.06" y="14.4">창고</tspan>
    </text>
  </g>
  <g id="Layer_41">
    <polygon
      class="cls-5"
      points="916.61 414.21 952.43 480.33 982.73 463.41 938.33 384.86 916.61 396.11 916.61 414.21"
    />
    <text class="cls-8" transform="translate(940.11 425.96)">
      <tspan x="0" y="0">109</tspan>
      <tspan x="-9.8" y="8.4">한국어센터</tspan>
      <tspan x=".16" y="16.8">행정</tspan>
      <tspan x="-3.16" y="25.2">지원실</tspan>
    </text>
  </g>
  <g id="Layer_42">
    <polygon
      class="cls-5"
      points="1031.45 435.14 987.47 358.97 938.33 384.86 982.73 463.41 1031.45 435.14"
    />
    <text class="cls-10" transform="translate(972.78 407.72)">
      <tspan x="0" y="0">110</tspan>
      <tspan x="-6.71" y="14.4">강의실</tspan>
    </text>
  </g>
  <g id="Layer_43">
    <polygon
      class="cls-5"
      points="1086.07 404.84 1041.44 326.24 987.47 358.97 1031.45 435.14 1086.07 404.84"
    />
    <text class="cls-10" transform="translate(1032.53 378.99)">
      <tspan x="0" y="0">111</tspan>
      <tspan x="-8.15" y="14.4">강의실</tspan>
    </text>
  </g>
  <g id="Layer_44">
    <polygon
      class="cls-5"
      points="1134.36 376.2 1086.07 404.84 1041.44 326.24 1087.9 298.6 1117.65 348.29 1134.36 376.2"
    />
    <text class="cls-10" transform="translate(1077.82 344.4)">
      <tspan x="0" y="0">112</tspan>
      <tspan x="-6.98" y="14.4">강의실</tspan>
    </text>
  </g>
  <g id="Layer_21">
    <polygon
      class="cls-5"
      points="1107.9 437.33 1050.89 469.83 1102.95 561.28 1160.2 528.83 1107.9 437.33"
    />
    <text class="cls-10" transform="translate(1093.12 492.65)">
      <tspan x="0" y="0">122</tspan>
      <tspan x="-5.81" y="14.4">강의실</tspan>
    </text>
  </g>
  <g id="Layer_22">
    <polygon
      class="cls-5"
      points="996.93 500 1048.79 592.25 1102.95 561.28 1050.89 469.83 996.93 500"
    />
    <text class="cls-10" transform="translate(1038.57 528.83)">
      <tspan x="0" y="0">123</tspan>
      <tspan x="-5.69" y="14.4">강의실</tspan>
    </text>
  </g>
  <g id="Layer_23">
    <polygon
      class="cls-5"
      points="942.04 528.83 992.57 622.73 1048.79 592.25 996.93 500 942.04 528.83"
    />
    <text class="cls-10" transform="translate(983.12 556.36)">
      <tspan x="0" y="0">1</tspan>
      <tspan class="cls-12" x="5.94" y="0">2</tspan>
      <tspan x="13.86" y="0">4</tspan>
      <tspan x="-5.84" y="14.4">강의실</tspan>
    </text>
  </g>
  <g id="Layer_24">
    <polygon
      class="cls-5"
      points="933.59 654.45 992.57 622.73 942.04 528.83 884.47 561.28 933.59 654.45"
    />
    <text class="cls-10" transform="translate(930.79 588.7)">
      <tspan x="0" y="0">125</tspan>
      <tspan x="-5.81" y="14.4">강의실</tspan>
    </text>
  </g>
  <g id="Layer_25">
    <polygon
      class="cls-5"
      points="1107.9 557.99 1124.75 587.61 1177.18 557.99 1160.2 528.83 1107.9 557.99"
    />
    <text class="cls-7" transform="translate(1133.91 553.79)">
      <tspan x="0" y="0">133</tspan>
      <tspan x="-4.17" y="10.8">전기실</tspan>
    </text>
  </g>
  <g id="Layer_26">
    <polygon
      class="cls-5"
      points="1087.9 608.44 1113.31 652.91 1201.07 599.03 1177.18 557.99 1087.9 608.44"
    />
    <text class="cls-10" transform="translate(1130.89 602.2)">
      <tspan x="0" y="0">130</tspan>
      <tspan x="-5.42" y="14.4">안경점</tspan>
    </text>
  </g>
  <g id="Layer_27">
    <polygon
      class="cls-5"
      points="949.03 684.13 970.63 724.83 1085.36 668.45 1067.52 636.63 1075.36 632.7 1067.52 619.21 949.03 684.13"
    />
    <text class="cls-10" transform="translate(1004.54 668.01)">
      <tspan x="0" y="0">129</tspan>
      <tspan x="-17.06" y="14.4">영재교육원</tspan>
    </text>
  </g>
  <g id="Layer_28">
    <polygon
      class="cls-5"
      points="852.16 771.53 833.02 734.34 904.18 698.41 907.66 704.79 949.03 684.13 970.63 724.83 852.16 771.53"
    />
    <text class="cls-10" transform="translate(884.93 723.83)">
      <tspan x="0" y="0">128</tspan>
      <tspan x="-16.94" y="14.4">강사대기실</tspan>
    </text>
  </g>
  <g id="Layer_29">
    <polygon
      class="cls-5"
      points="833.02 734.34 802.4 674.01 872.81 638.45 904.18 698.41 833.02 734.34"
    />
    <text class="cls-10" transform="translate(845.77 680.06)">
      <tspan x="0" y="0">127</tspan>
      <tspan x="-6.17" y="14.4">강의실</tspan>
    </text>
  </g>
  <g id="Layer_30">
    <polygon
      class="cls-5"
      points="773.16 619.21 843.25 582.48 872.81 638.45 802.4 674.01 773.16 619.21"
    />
    <text class="cls-10" transform="translate(811.61 623.75)">
      <tspan x="0" y="0">126</tspan>
      <tspan x="-5.69" y="14.4">강의실</tspan>
    </text>
  </g>
  <g id="Layer_31">
    <polygon
      class="cls-5"
      points="887.12 417.93 927.16 492.49 829.04 543.95 787.62 464.49 832.02 442.27 818.32 417.93 887.12 417.93"
    />
    <text class="cls-10" transform="translate(841.2 455.66)">
      <tspan x="0" y="0">102</tspan>
      <tspan x="-5.54" y="14.4">성북구</tspan>
      <tspan x="-11.23" y="28.8">건강가정</tspan>
      <tspan x="-11.23" y="43.2">지원센터</tspan>
    </text>
  </g>
  <g id="Layer_3">
    <rect class="cls-5" x="65.27" y="410.72" width="116.63" height="70.36" />
    <text class="cls-10" transform="translate(109.56 438.58)">
      <tspan x="0" y="0">133A</tspan>
      <tspan x="-6.54" y="14.4">발전기실</tspan>
    </text>
  </g>
  <g id="Layer_4">
    <rect class="cls-5" x="181.89" y="410.72" width="98.06" height="70.36" />
    <text class="cls-10" transform="translate(216.48 440.17)">
      <tspan x="0" y="0">134C</tspan>
      <tspan x="-12.27" y="14.4">중앙감시실</tspan>
    </text>
  </g>
  <g id="Layer_5">
    <rect class="cls-5" x="65.27" y="504.35" width="90.04" height="86.98" />
    <text class="cls-10" transform="translate(94.21 547.84)">
      <tspan x="0" y="0">132D</tspan>
      <tspan x="-.99" y="14.4">회의실</tspan>
    </text>
  </g>
  <g id="Layer_6">
    <rect class="cls-5" x="155.3" y="504.35" width="62.05" height="86.98" />
    <text class="cls-10" transform="translate(171.05 547.84)">
      <tspan x="0" y="0">132E</tspan>
      <tspan x="-7.48" y="14.4">세미나실</tspan>
    </text>
  </g>
  <g id="Layer_7">
    <rect class="cls-5" x="217.35" y="504.35" width="59.51" height="86.98" />
    <text class="cls-10" transform="translate(232.04 547.84)">
      <tspan x="0" y="0">132F</tspan>
      <tspan x="-7.69" y="14.4">세미나실</tspan>
    </text>
  </g>
  <g id="Layer_8">
    <rect class="cls-5" x="66.11" y="615.52" width="79.62" height="74.7" />
    <text class="cls-10" transform="translate(89.83 649.32)">
      <tspan x="0" y="0">132C</tspan>
      <tspan x="-1.05" y="14.4">회의실</tspan>
    </text>
  </g>
  <g id="Layer_9">
    <rect class="cls-5" x="145.73" y="615.52" width="66.11" height="74.7" />
    <text class="cls-10" transform="translate(162.89 649.87)">
      <tspan x="0" y="0">132B</tspan>
      <tspan x="-1.17" y="14.4">회의실</tspan>
    </text>
  </g>
  <g id="Layer_10">
    <rect class="cls-5" x="211.84" y="615.52" width="65.03" height="74.7" />
    <text class="cls-10" transform="translate(229.89 650.61)">
      <tspan x="0" y="0">132A</tspan>
      <tspan x="-.98" y="14.4">회의실</tspan>
    </text>
  </g>
  <g id="Layer_11">
    <rect class="cls-5" x="276.86" y="669.89" width="51.7" height="20.33" />
    <text class="cls-6" transform="translate(293.76 677.79)">
      <tspan x="0" y="0">132</tspan>
      <tspan x="0" y="9.6">창고</tspan>
    </text>
  </g>
  <g id="Layer_12">
    <polygon
      class="cls-3"
      points="535.24 692.33 584.27 669.52 565.5 633.02 517.97 655.12 535.24 692.33"
    />
  </g>
  <g id="Layer_13">
    <polygon
      class="cls-3"
      points="512.43 618.62 512.43 641.96 517.97 655.12 565.5 633.02 548.5 600.34 512.43 618.62"
    />
  </g>
  <g id="Layer_14">
    <rect class="cls-5" x="462.67" y="692.33" width="31.19" height="50.29" />
    <text class="cls-11" transform="translate(464.96 716.15)">
      <tspan x="0" y="0">137B</tspan>
      <tspan x="-1.27" y="12">탕비실</tspan>
    </text>
  </g>
  <g id="Layer_15">
    <rect class="cls-5" x="387.65" y="692.33" width="75.02" height="50.29" />
    <text class="cls-10" transform="translate(408.76 715.06)">
      <tspan x="0" y="0">137A</tspan>
      <tspan x="-5.47" y="14.4">회의실2</tspan>
    </text>
  </g>
  <g id="Layer_16">
    <polygon
      class="cls-5"
      points="535.24 846.56 535.24 798.95 584.27 775.79 612.69 834.45 535.24 846.56"
    />
    <text class="cls-10" transform="translate(551.84 809.29)">
      <tspan x="0" y="0">137C</tspan>
      <tspan x="-7.09" y="14.4">부처장실</tspan>
    </text>
  </g>
  <g id="Layer_17">
    <polygon
      class="cls-5"
      points="737.4 489.64 787.62 464.49 829.04 543.95 779.97 568.86 737.4 489.64"
    />
    <text class="cls-10" transform="translate(771.19 520.09)">
      <tspan x="0" y="0">101</tspan>
    </text>
  </g>
  <g id="Layer_x5F_others">
    <rect class="cls-5" x="65.27" y="481.08" width="211.59" height="23.27" />
    <g>
      <line class="cls-3" x1="328.56" y1="690.22" x2="328.56" y2="619.1" />
      <line class="cls-3" x1="512.43" y1="618.62" x2="328.56" y2="619.1" />
      <line class="cls-3" x1="512.43" y1="602.24" x2="512.43" y2="618.62" />
      <line class="cls-3" x1="558.35" y1="579.47" x2="512.43" y2="602.24" />
    </g>
    <g>
      <rect class="cls-3" x="501.79" y="630.96" width="9.92" height="43.83" />
      <rect class="cls-3" x="491.48" y="630.96" width="10.31" height="43.83" />
      <rect class="cls-3" x="479.58" y="630.96" width="11.9" height="43.83" />
      <rect class="cls-3" x="470.06" y="630.96" width="9.52" height="43.83" />
      <rect class="cls-3" x="458.15" y="630.96" width="11.9" height="43.83" />
      <rect class="cls-3" x="449.63" y="630.96" width="8.53" height="43.83" />
      <rect class="cls-3" x="436.73" y="630.96" width="12.89" height="43.83" />
      <rect class="cls-3" x="424.83" y="630.96" width="11.9" height="43.83" />
      <rect class="cls-3" x="414.52" y="630.96" width="10.31" height="43.83" />
      <rect class="cls-3" x="404.21" y="630.96" width="10.31" height="43.83" />
    </g>
    <polygon
      class="cls-3"
      points="535.24 740.03 535.24 798.95 584.27 775.79 562.76 727.83 535.24 740.03"
    />
    <g>
      <rect class="cls-4" x="550.32" y="748.49" width="15.08" height="3.94" />
      <rect class="cls-4" x="550.32" y="752.43" width="15.08" height="4.55" />
      <rect class="cls-4" x="550.32" y="756.98" width="15.08" height="3.64" />
      <rect class="cls-4" x="550.32" y="760.61" width="15.08" height="4.55" />
      <rect class="cls-4" x="550.32" y="765.16" width="15.08" height="3.26" />
      <rect class="cls-4" x="550.32" y="768.42" width="15.08" height="4.93" />
      <rect class="cls-4" x="550.32" y="773.35" width="15.08" height="4.55" />
      <rect class="cls-4" x="550.32" y="777.89" width="15.08" height="3.94" />
      <rect class="cls-4" x="550.32" y="781.83" width="15.08" height="3.94" />
    </g>
    <g>
      <rect class="cls-4" x="535.24" y="748.5" width="15.08" height="3.79" />
      <rect class="cls-4" x="535.24" y="752.29" width="15.08" height="3.94" />
      <rect class="cls-4" x="535.24" y="756.23" width="15.08" height="4.55" />
      <rect class="cls-4" x="535.24" y="760.78" width="15.08" height="3.64" />
      <rect class="cls-4" x="535.24" y="764.41" width="15.08" height="4.55" />
      <rect class="cls-4" x="535.24" y="768.96" width="15.08" height="3.26" />
      <rect class="cls-4" x="535.24" y="772.22" width="15.08" height="4.93" />
      <rect class="cls-4" x="535.24" y="777.14" width="15.08" height="4.55" />
      <rect class="cls-4" x="535.24" y="781.69" width="15.08" height="3.94" />
      <rect class="cls-4" x="535.24" y="785.63" width="15.08" height="3.94" />
    </g>
    <polygon
      class="cls-3"
      points="714.24 780.13 728.49 808.99 612.69 834.45 599.53 807.29 714.24 780.13"
    />
    <polygon
      class="cls-5"
      points="720.84 497.93 760.67 577.71 779.97 568.86 737.4 489.64 720.84 497.93"
    />
    <polygon
      class="cls-5"
      points="659.12 528.83 720.84 497.93 733.99 524.26 672.32 554.96 659.12 528.83"
    />
    <polygon
      class="cls-5"
      points="760.67 577.71 733.99 524.26 707.59 537.4 733.99 591.64 760.67 577.71"
    />
    <polygon
      class="cls-5"
      points="647.12 504.56 675.19 563.9 574.66 612.04 544.65 552.1 647.12 504.56"
    />
    <polygon
      class="cls-5"
      points="599.51 662.68 574.66 612.04 601.99 598.95 626.85 648.2 599.51 662.68"
    />
    <polygon
      class="cls-5"
      points="691.2 598.96 698 615.01 626.85 648.2 619.52 634.5 691.2 598.96"
    />
    <g>
      <rect
        class="cls-3"
        x="675.52"
        y="563.51"
        width="7.38"
        height="39.12"
        transform="translate(-188.32 362.42) rotate(-26.37)"
      />
      <rect
        class="cls-3"
        x="668.62"
        y="566.86"
        width="7.68"
        height="39.12"
        transform="translate(-190.51 359.77) rotate(-26.37)"
      />
      <rect
        class="cls-3"
        x="660.63"
        y="570.53"
        width="8.86"
        height="39.12"
        transform="translate(-192.91 356.86) rotate(-26.37)"
      />
      <rect
        class="cls-3"
        x="654.37"
        y="574.07"
        width="7.09"
        height="39.12"
        transform="translate(-195.23 354.06) rotate(-26.37)"
      />
      <rect
        class="cls-3"
        x="646.34"
        y="577.61"
        width="8.86"
        height="39.12"
        transform="translate(-197.55 351.25) rotate(-26.37)"
      />
      <rect
        class="cls-3"
        x="640.79"
        y="580.99"
        width="6.35"
        height="39.12"
        transform="translate(-199.76 348.58) rotate(-26.37)"
      />
      <rect
        class="cls-3"
        x="632.02"
        y="584.53"
        width="9.6"
        height="39.12"
        transform="translate(-202.07 345.77) rotate(-26.37)"
      />
      <rect
        class="cls-3"
        x="624.12"
        y="588.63"
        width="8.86"
        height="39.12"
        transform="translate(-204.75 342.53) rotate(-26.37)"
      />
      <rect
        class="cls-3"
        x="617.31"
        y="592.3"
        width="7.68"
        height="39.12"
        transform="translate(-207.16 339.62) rotate(-26.37)"
      />
      <rect
        class="cls-3"
        x="610.43"
        y="595.71"
        width="7.68"
        height="39.12"
        transform="translate(-209.39 336.92) rotate(-26.37)"
      />
    </g>
    <g>
      <rect
        class="cls-3"
        x="794.26"
        y="732.82"
        width="26.53"
        height="10.32"
        transform="translate(-243.78 435.54) rotate(-26.37)"
      />
      <rect
        class="cls-3"
        x="789.58"
        y="723.18"
        width="26.53"
        height="10.73"
        transform="translate(-240.08 432.48) rotate(-26.37)"
      />
      <rect
        class="cls-3"
        x="784.45"
        y="712"
        width="26.53"
        height="12.38"
        transform="translate(-236.01 429.12) rotate(-26.37)"
      />
      <rect
        class="cls-3"
        x="779.5"
        y="703.26"
        width="26.53"
        height="9.91"
        transform="translate(-232.09 425.89) rotate(-26.37)"
      />
      <rect
        class="cls-3"
        x="774.55"
        y="692.03"
        width="26.53"
        height="12.38"
        transform="translate(-228.17 422.65) rotate(-26.37)"
      />
      <rect
        class="cls-3"
        x="769.82"
        y="684.27"
        width="26.53"
        height="8.87"
        transform="translate(-224.43 419.56) rotate(-26.37)"
      />
      <rect
        class="cls-3"
        x="764.87"
        y="672.01"
        width="26.53"
        height="13.41"
        transform="translate(-220.51 416.32) rotate(-26.37)"
      />
      <rect
        class="cls-3"
        x="759.14"
        y="660.97"
        width="26.53"
        height="12.38"
        transform="translate(-215.98 412.57) rotate(-26.37)"
      />
      <rect
        class="cls-3"
        x="754.01"
        y="651.45"
        width="26.53"
        height="10.73"
        transform="translate(-211.91 409.21) rotate(-26.37)"
      />
      <rect
        class="cls-3"
        x="749.24"
        y="641.83"
        width="26.53"
        height="10.73"
        transform="translate(-208.14 406.1) rotate(-26.37)"
      />
    </g>
    <polygon
      class="cls-5"
      points="1087.9 608.44 1067.52 619.21 1075.36 632.7 1067.52 636.63 1085.36 668.45 1113.31 652.91 1087.9 608.44"
    />
    <polygon
      class="cls-5"
      points="1347.86 489.46 1398.18 445.32 1383.46 421.86 1328.38 455.66 1347.86 489.46"
    />
    <g>
      <rect
        class="cls-2"
        x="1373.01"
        y="205.49"
        width="5.49"
        height="22.67"
        transform="translate(99.36 774.07) rotate(-32.54)"
      />
      <rect
        class="cls-2"
        x="1368.19"
        y="208.5"
        width="5.71"
        height="22.67"
        transform="translate(97 772) rotate(-32.54)"
      />
      <rect
        class="cls-2"
        x="1362.57"
        y="211.8"
        width="6.58"
        height="22.67"
        transform="translate(94.41 769.74) rotate(-32.54)"
      />
      <rect
        class="cls-2"
        x="1358.23"
        y="214.99"
        width="5.27"
        height="22.67"
        transform="translate(91.91 767.55) rotate(-32.54)"
      />
      <rect
        class="cls-2"
        x="1352.58"
        y="218.18"
        width="6.58"
        height="22.67"
        transform="translate(89.41 765.36) rotate(-32.54)"
      />
      <rect
        class="cls-2"
        x="1348.74"
        y="221.22"
        width="4.72"
        height="22.67"
        transform="translate(87.03 763.28) rotate(-32.54)"
      />
      <rect
        class="cls-2"
        x="1342.54"
        y="224.4"
        width="7.13"
        height="22.67"
        transform="translate(84.53 761.09) rotate(-32.54)"
      />
      <rect
        class="cls-2"
        x="1337.04"
        y="228.09"
        width="6.58"
        height="22.67"
        transform="translate(81.64 758.56) rotate(-32.54)"
      />
      <rect
        class="cls-2"
        x="1332.29"
        y="231.4"
        width="5.71"
        height="22.67"
        transform="translate(79.05 756.29) rotate(-32.54)"
      />
      <rect
        class="cls-2"
        x="1327.48"
        y="234.47"
        width="5.71"
        height="22.67"
        transform="translate(76.64 754.19) rotate(-32.54)"
      />
    </g>
    <g>
      <rect
        class="cls-2"
        x="1338.53"
        y="203.92"
        width="4.47"
        height="21.1"
        transform="translate(-1.34 8.58) rotate(-.37)"
      />
      <rect
        class="cls-2"
        x="1333.88"
        y="203.95"
        width="4.65"
        height="21.1"
        transform="translate(-1.34 8.55) rotate(-.37)"
      />
      <rect
        class="cls-2"
        x="1328.51"
        y="203.98"
        width="5.37"
        height="21.1"
        transform="translate(-1.34 8.52) rotate(-.37)"
      />
      <rect
        class="cls-2"
        x="1324.22"
        y="204.01"
        width="4.29"
        height="21.1"
        transform="translate(-1.35 8.49) rotate(-.37)"
      />
      <rect
        class="cls-2"
        x="1318.85"
        y="204.04"
        width="5.37"
        height="21.1"
        transform="translate(-1.35 8.46) rotate(-.37)"
      />
      <rect
        class="cls-2"
        x="1315"
        y="204.07"
        width="3.85"
        height="21.1"
        transform="translate(-1.35 8.43) rotate(-.37)"
      />
      <rect
        class="cls-2"
        x="1309.19"
        y="204.1"
        width="5.82"
        height="21.1"
        transform="translate(-1.35 8.4) rotate(-.37)"
      />
      <rect
        class="cls-2"
        x="1303.82"
        y="204.14"
        width="5.37"
        height="21.1"
        transform="translate(-1.35 8.36) rotate(-.37)"
      />
      <rect
        class="cls-2"
        x="1299.17"
        y="204.17"
        width="4.65"
        height="21.1"
        transform="translate(-1.35 8.33) rotate(-.37)"
      />
      <rect
        class="cls-2"
        x="1294.51"
        y="204.2"
        width="4.65"
        height="21.1"
        transform="translate(-1.35 8.3) rotate(-.37)"
      />
    </g>
    <polygon
      class="cls-5"
      points="1235.6 256.89 1292.4 222.61 1281.52 206.78 1249.48 203.57 1215.34 224.42 1235.6 256.89"
    />
    <polygon
      class="cls-5"
      points="1189.29 344.4 1134.36 376.2 1074.3 274.44 1131.8 241.71 1145.09 265.45 1189.29 344.4"
    />
    <polygon
      class="cls-5"
      points="1166.44 253.31 1145.09 265.45 1189.29 344.4 1212.86 330.33 1166.44 253.31"
    />
    <polygon
      class="cls-5"
      points="707.59 504.56 832.02 442.27 818.32 417.93 707.59 472.25 707.59 504.56"
    />
    <g>
      <rect class="cls-3" x="349.75" y="181.79" width="37.67" height="6.25" />
      <rect class="cls-3" x="349.75" y="188.04" width="37.67" height="6.5" />
      <rect class="cls-3" x="349.75" y="194.54" width="37.67" height="7.5" />
      <rect class="cls-3" x="349.75" y="202.03" width="37.67" height="6" />
      <rect class="cls-3" x="349.75" y="208.03" width="37.67" height="7.5" />
      <rect class="cls-3" x="349.75" y="215.53" width="37.67" height="5.37" />
      <rect class="cls-3" x="349.75" y="220.9" width="37.67" height="8.12" />
      <rect class="cls-3" x="349.75" y="229.02" width="37.67" height="7.5" />
      <rect class="cls-3" x="349.75" y="236.52" width="37.67" height="6.5" />
      <rect class="cls-3" x="349.75" y="243.02" width="37.67" height="6.5" />
    </g>
    <rect class="cls-5" x="276.86" y="536.48" width="42.98" height="24.93" />
  </g>
</svg>
