<?xml version="1.0" encoding="UTF-8"?>
<svg id="Layer_1" data-name="Layer 1" xmlns="http://www.w3.org/2000/svg" version="1.1" viewBox="0 0 1000 1000">
  <defs>
    <style>
      .cls-1, .cls-2, .cls-3, .cls-4, .cls-5, .cls-6, .cls-7, .cls-8, .cls-9, .cls-10, .cls-11 {
        stroke: #ea8b8b;
      }

      .cls-1, .cls-2, .cls-3, .cls-7, .cls-8, .cls-9, .cls-10, .cls-11 {
        stroke-miterlimit: 10;
      }

      .cls-1, .cls-3, .cls-10 {
        fill: #fed0d0;
      }

      .cls-1, .cls-7, .cls-9, .cls-10 {
        stroke-width: 3px;
      }

      .cls-2 {
        stroke-width: .2px;
      }

      .cls-2, .cls-4, .cls-5, .cls-6, .cls-7, .cls-8, .cls-9 {
        fill: none;
      }

      .cls-3, .cls-7, .cls-12, .cls-10, .cls-13, .cls-11 {
        isolation: isolate;
      }

      .cls-4 {
        stroke-miterlimit: 10;
        stroke-width: .5px;
      }

      .cls-5 {
        stroke-miterlimit: 10;
        stroke-width: .5px;
      }

      .cls-6 {
        stroke-miterlimit: 10;
        stroke-width: .5px;
      }

      .cls-8 {
        stroke-width: .5px;
      }

      .cls-12 {
        fill: #000;
        font-family: NanumSquareNeoTTF-dEb, 'NanumSquare Neo';
        font-size: 6px;
      }

      .cls-11 {
        fill: #fef3f2;
        stroke-width: 8px;
      }
    </style>
  </defs>
  <polygon class="cls-11" points="119.1 255.2 119.1 742.1 841.5 742.1 841.5 544.4 373.2 544.4 373.2 255.2 119.1 255.2"/>
  <g id="Layer_17" data-name="Layer 17">
    <rect class="cls-10" x="296.9" y="255.2" width="76.3" height="107.2"/>
    <g id="Layer_25" data-name="Layer 25">
      <g class="cls-13">
        <g class="cls-13">
          <text class="cls-12" transform="translate(328.5 313.3)"><tspan x="0" y="0">4005</tspan></text>
        </g>
      </g>
    </g>
  </g>
  <g id="Layer_18" data-name="Layer 18">
    <rect class="cls-10" x="330.9" y="362.4" width="42.2" height="46.1"/>
    <g id="Layer_25-2" data-name="Layer 25-2">
      <g class="cls-13">
        <g class="cls-13">
          <text class="cls-12" transform="translate(343.3 384.2)"><tspan x="0" y="0">4004</tspan></text>
          <text class="cls-12" transform="translate(334.9 391.4)"><tspan x="0" y="0">그룹스터디룸</tspan></text>
        </g>
      </g>
    </g>
  </g>
  <g id="Layer_19" data-name="Layer 19">
    <rect class="cls-10" x="330.9" y="408.5" width="42.2" height="37.2"/>
    <g id="Layer_25-3" data-name="Layer 25-3">
      <g class="cls-13">
        <g class="cls-13">
          <text class="cls-12" transform="translate(343.4 425.9)"><tspan x="0" y="0">4003</tspan></text>
          <text class="cls-12" transform="translate(335 433.1)"><tspan x="0" y="0">그룹스터디룸</tspan></text>
        </g>
      </g>
    </g>
  </g>
  <g id="Layer_20" data-name="Layer 20">
    <rect class="cls-10" x="330.9" y="445.7" width="42.2" height="36.8"/>
    <g id="Layer_25-4" data-name="Layer 25-4">
      <g class="cls-13">
        <g class="cls-13">
          <text class="cls-12" transform="translate(343.4 461.5)"><tspan x="0" y="0">4002</tspan></text>
          <text class="cls-12" transform="translate(335 468.7)"><tspan x="0" y="0">그룹스터디룸</tspan></text>
        </g>
      </g>
    </g>
  </g>
  <g id="Layer_21" data-name="Layer 21">
    <rect class="cls-10" x="330.9" y="482.5" width="42.2" height="37.1"/>
    <g id="Layer_25-5" data-name="Layer 25-5">
      <g class="cls-13">
        <g class="cls-13">
          <text class="cls-12" transform="translate(344 499.9)"><tspan x="0" y="0">4001</tspan></text>
          <text class="cls-12" transform="translate(335 507.1)"><tspan x="0" y="0">그룹스터디룸</tspan></text>
        </g>
      </g>
    </g>
  </g>
  <rect class="cls-7" x="296.9" y="544.4" width="76.3" height="37.4"/>
  <rect class="cls-7" x="296.9" y="581.8" width="76.3" height="34.4"/>
  <g id="Layer_24-2" data-name="Layer 24-2">
    <polygon class="cls-10" points="576.1 544.4 581 592 552.4 584.2 544.5 544.4 576.1 544.4"/>
    <g id="Layer_25-6" data-name="Layer 25-6">
      <g class="cls-13">
        <g class="cls-13">
          <text class="cls-12" transform="translate(554.8 569.2)"><tspan x="0" y="0">4122</tspan></text>
        </g>
      </g>
    </g>
  </g>
  <g id="Layer_25-7" data-name="Layer 25-7">
    <polygon class="cls-10" points="583.1 620.7 592.5 714.1 737.5 714.1 737.5 653.9 583.1 620.7"/>
    <g id="Layer_25-8" data-name="Layer 25-8">
      <g class="cls-13">
        <g class="cls-13">
          <text class="cls-12" transform="translate(641 681)"><tspan x="0" y="0">4075~4114 캐럴</tspan></text>
        </g>
      </g>
    </g>
  </g>
  <g id="Layer_26" data-name="Layer 26">
    <polygon class="cls-10" points="727.4 617.4 590.9 592.7 590.9 544.4 727.4 544.4 727.4 617.4"/>
    <g id="Layer_25-9" data-name="Layer 25-9">
      <g class="cls-13">
        <g class="cls-13">
          <text class="cls-12" transform="translate(641.3 576)"><tspan x="0" y="0">4072~4118 캐럴</tspan></text>
        </g>
      </g>
    </g>
  </g>
  <g id="Layer_27" data-name="Layer 27">
    <rect class="cls-9" x="804.8" y="641.2" width="36.7" height="100.9"/>
  </g>
  <rect class="cls-7" x="763.7" y="641.2" width="41.1" height="100.9"/>
  <g id="Layer_29" data-name="Layer 29">
    <polygon class="cls-10" points="373.2 645.6 392.1 645.6 439.7 577.2 439.7 544.4 373.2 544.4 373.2 645.6"/>
    <g id="Layer_25-10" data-name="Layer 25-10">
      <g class="cls-13">
        <g class="cls-13">
          <text class="cls-12" transform="translate(379.9 585)"><tspan x="0" y="0">4063~4071 캐럴</tspan></text>
        </g>
      </g>
    </g>
  </g>
  <g id="Layer_31" data-name="Layer 31">
    <rect class="cls-10" x="410.9" y="722" width="159.3" height="20.1"/>
    <g id="Layer_25-12" data-name="Layer 25-12">
      <g class="cls-13">
        <g class="cls-13">
          <text class="cls-12" transform="translate(467.2 733.6)"><tspan x="0" y="0">4045~4053 캐럴</tspan></text>
        </g>
      </g>
    </g>
  </g>
  <g id="Layer_32" data-name="Layer 32">
    <rect class="cls-10" x="299.1" y="667.3" width="93" height="74.8"/>
    <g id="Layer_25-13" data-name="Layer 25-13">
      <g class="cls-13">
        <g class="cls-13">
          <text class="cls-12" transform="translate(338.5 706.1)"><tspan x="0" y="0">4121</tspan></text>
        </g>
      </g>
    </g>
  </g>
  <g id="Layer_33" data-name="Layer 33">
    <polygon class="cls-10" points="119.1 627.4 276.9 670.8 277.1 742.1 119.1 742.1 119.1 627.4"/>
    <g id="Layer_25-14" data-name="Layer 25-14">
      <g class="cls-13">
        <g class="cls-13">
          <text class="cls-12" transform="translate(177.7 698.9)"><tspan x="0" y="0">4025~</tspan></text>
          <text class="cls-12" transform="translate(173.2 706.1)"><tspan x="0" y="0">4042 캐럴</tspan></text>
        </g>
      </g>
    </g>
  </g>
  <g id="Layer_34" data-name="Layer 34">
    <polygon class="cls-10" points="119.1 565.8 170.8 547.6 193.9 556.7 183.9 639.8 119.1 622.5 119.1 565.8"/>
    <g id="Layer_25-15" data-name="Layer 25-15">
      <g class="cls-13">
        <g class="cls-13">
          <text class="cls-12" transform="translate(145.2 593.7)"><tspan x="0" y="0">4120</tspan></text>
        </g>
      </g>
    </g>
  </g>
  <g id="Layer_35" data-name="Layer 35">
    <polygon class="cls-10" points="119.1 551.7 162.6 532.2 213.5 343.1 119.1 310.5 119.1 551.7"/>
    <g id="Layer_25-16" data-name="Layer 25-16">
      <g class="cls-13">
        <g class="cls-13">
          <text class="cls-12" transform="translate(143.3 411.5)"><tspan x="0" y="0">4006~</tspan></text>
          <text class="cls-12" transform="translate(139 418.7)"><tspan x="0" y="0">4024 캐럴</tspan></text>
        </g>
      </g>
    </g>
  </g>
  <g id="Layer_36" data-name="Layer 36">
    <polygon class="cls-10" points="119.1 310.5 213.5 343.1 218.9 326.8 275 326.8 281.4 319.1 281.4 255.2 119.1 255.2 119.1 310.5"/>
    <g id="Layer_25-17" data-name="Layer 25-17">
      <g class="cls-13">
        <g class="cls-13">
          <text class="cls-12" transform="translate(190.7 293.7)"><tspan x="0" y="0">4119</tspan></text>
        </g>
      </g>
    </g>
  </g>
  <g id="Layer_others" data-name="Layer others">
    <rect class="cls-7" x="727.4" y="544.4" width="20.2" height="73"/>
    <rect class="cls-7" x="747.7" y="544.4" width="20" height="27.7"/>
    <rect class="cls-7" x="747.7" y="572.1" width="20" height="45.3"/>
    <rect class="cls-7" x="767.7" y="544.4" width="74.8" height="32.1"/>
    <rect class="cls-10" x="821.7" y="576.5" width="20.7" height="32.4"/>
    <rect class="cls-10" x="789.8" y="576.5" width="31.9" height="32.4"/>
    <g>
      <path class="cls-2" d="M842.5,576.2v.3M811.5,546v.3"/>
      <path class="cls-2" d="M811.5,546.8v29"/>
      <path class="cls-2" d="M811.5,576.2v.3M800.8,546v.3"/>
      <path class="cls-2" d="M800.8,546.8v29"/>
      <path class="cls-2" d="M800.8,576.2v.3"/>
      <path class="cls-2" d="M838.7,576.5h-27.2"/>
      <path class="cls-2" d="M836.7,546h2M842.5,546h0"/>
      <path class="cls-2" d="M834.8,546h-23.3"/>
      <path class="cls-2" d="M800.8,576.5h-29.1"/>
      <path class="cls-2" d="M800.8,546h-29.1"/>
      <path class="cls-2" d="M836.7,546v.3"/>
      <path class="cls-2" d="M836.7,546.8v29"/>
      <path class="cls-2" d="M836.7,576.2v.3M834.8,546v.3"/>
      <path class="cls-2" d="M834.8,546.8v29"/>
      <path class="cls-2" d="M834.8,576.2v.3M832.8,546v.3"/>
      <path class="cls-2" d="M832.8,546.8v29"/>
      <path class="cls-2" d="M832.8,576.2v.3M830.9,546v.3"/>
      <path class="cls-2" d="M830.9,546.8v29"/>
      <path class="cls-2" d="M830.9,576.2v.3M828.9,546v.3"/>
      <path class="cls-2" d="M828.9,546.8v29"/>
      <path class="cls-2" d="M828.9,576.2v.3M827,546v.3"/>
      <path class="cls-2" d="M827,546.8v29"/>
      <path class="cls-2" d="M827,576.2v.3M825,546v.3"/>
      <path class="cls-2" d="M825,546.8v29"/>
      <path class="cls-2" d="M825,576.2v.3M823.1,546v.3"/>
      <path class="cls-2" d="M823.1,546.8v29"/>
      <path class="cls-2" d="M823.1,576.2v.3M821.1,546v.3"/>
      <path class="cls-2" d="M821.1,546.8v29"/>
      <path class="cls-2" d="M821.1,576.2v.3M819.3,546v.3"/>
      <path class="cls-2" d="M819.3,546.8v29"/>
      <path class="cls-2" d="M819.3,576.2v.3M817.3,546v.3"/>
      <path class="cls-2" d="M817.3,546.8v29"/>
      <path class="cls-2" d="M817.3,576.2v.3M815.4,546v.3"/>
      <path class="cls-2" d="M815.4,546.8v29"/>
      <path class="cls-2" d="M815.4,576.2v.3M813.4,546v.3"/>
      <path class="cls-2" d="M813.4,546.8v29"/>
      <path class="cls-2" d="M813.4,576.2v.3M811.5,546v.3"/>
      <path class="cls-2" d="M811.5,546.8v29"/>
      <path class="cls-2" d="M811.5,576.2v.3M800.8,546v.3"/>
      <path class="cls-2" d="M800.8,546.8v29"/>
      <path class="cls-2" d="M800.8,576.2v.3M798.8,546v.3"/>
      <path class="cls-2" d="M798.8,546.8v29"/>
      <path class="cls-2" d="M798.8,576.2v.3M796.9,546v.3"/>
      <path class="cls-2" d="M796.9,546.8v29"/>
      <path class="cls-2" d="M796.9,576.2v.3M794.9,546v.3"/>
      <path class="cls-2" d="M794.9,546.8v29"/>
      <path class="cls-2" d="M794.9,576.2v.3M793,546v.3"/>
      <path class="cls-2" d="M793,546.8v29"/>
      <path class="cls-2" d="M793,576.2v.3M791,546v.3"/>
      <path class="cls-2" d="M791,546.8v29"/>
      <path class="cls-2" d="M791,576.2v.3M789.1,546v.3"/>
      <path class="cls-2" d="M789.1,546.8v29"/>
      <path class="cls-2" d="M789.1,576.2v.3M787.1,546v.3"/>
      <path class="cls-2" d="M787.1,546.8v29"/>
      <path class="cls-2" d="M787.1,576.2v.3M785.2,546v.3"/>
      <path class="cls-2" d="M785.2,546.8v29"/>
      <path class="cls-2" d="M785.2,576.2v.3M783.3,546v.3"/>
      <path class="cls-2" d="M783.3,546.8v29"/>
      <path class="cls-2" d="M783.3,576.2v.3M781.4,546v.3"/>
      <path class="cls-2" d="M781.4,546.8v29"/>
      <path class="cls-2" d="M781.4,576.2v.3M779.5,546v.3"/>
      <path class="cls-2" d="M779.5,546.8v29"/>
      <path class="cls-2" d="M779.5,576.2v.3M777.5,546v.3"/>
      <path class="cls-2" d="M777.5,546.8v29"/>
      <path class="cls-2" d="M777.5,576.2v.3M775.6,546v.3"/>
      <path class="cls-2" d="M775.6,546.8v29"/>
      <path class="cls-2" d="M775.6,576.2v.3M773.6,546v.3"/>
      <path class="cls-2" d="M773.6,546.8v29"/>
      <path class="cls-2" d="M773.6,576.2v.3M836.7,546v.3"/>
      <path class="cls-2" d="M836.7,546.8v29"/>
      <path class="cls-2" d="M836.7,576.2v.3M834.8,546v.3"/>
      <path class="cls-2" d="M834.8,546.8v29"/>
      <path class="cls-2" d="M834.8,576.2v.3M832.8,546v.3"/>
      <path class="cls-2" d="M832.8,546.8v29"/>
      <path class="cls-2" d="M832.8,576.2v.3M830.9,546v.3"/>
      <path class="cls-2" d="M830.9,546.8v29"/>
      <path class="cls-2" d="M830.9,576.2v.3M828.9,546v.3"/>
      <path class="cls-2" d="M828.9,546.8v29"/>
      <path class="cls-2" d="M828.9,576.2v.3M827,546v.3"/>
      <path class="cls-2" d="M827,546.8v29"/>
      <path class="cls-2" d="M827,576.2v.3M825,546v.3"/>
      <path class="cls-2" d="M825,546.8v29"/>
      <path class="cls-2" d="M825,576.2v.3M823.1,546v.3"/>
      <path class="cls-2" d="M823.1,546.8v29"/>
      <path class="cls-2" d="M823.1,576.2v.3M821.1,546v.3"/>
      <path class="cls-2" d="M821.1,546.8v29"/>
      <path class="cls-2" d="M821.1,576.2v.3M819.3,546v.3"/>
      <path class="cls-2" d="M819.3,546.8v29"/>
      <path class="cls-2" d="M819.3,576.2v.3M817.3,546v.3"/>
      <path class="cls-2" d="M817.3,546.8v29"/>
      <path class="cls-2" d="M817.3,576.2v.3M815.4,546v.3"/>
      <path class="cls-2" d="M815.4,546.8v29"/>
      <path class="cls-2" d="M815.4,576.2v.3M813.4,546v.3"/>
      <path class="cls-2" d="M813.4,546.8v29"/>
      <path class="cls-2" d="M813.4,576.2v.3M798.8,546v.3"/>
      <path class="cls-2" d="M798.8,546.8v29"/>
      <path class="cls-2" d="M798.8,576.2v.3M796.9,546v.3"/>
      <path class="cls-2" d="M796.9,546.8v29"/>
      <path class="cls-2" d="M796.9,576.2v.3M794.9,546v.3"/>
      <path class="cls-2" d="M794.9,546.8v29"/>
      <path class="cls-2" d="M794.9,576.2v.3M793,546v.3"/>
      <path class="cls-2" d="M793,546.8v29"/>
      <path class="cls-2" d="M793,576.2v.3M791,546v.3"/>
      <path class="cls-2" d="M791,546.8v29"/>
      <path class="cls-2" d="M791,576.2v.3M789.1,546v.3"/>
      <path class="cls-2" d="M789.1,546.8v29"/>
      <path class="cls-2" d="M789.1,576.2v.3M787.1,546v.3"/>
      <path class="cls-2" d="M787.1,546.8v29"/>
      <path class="cls-2" d="M787.1,576.2v.3M785.2,546v.3"/>
      <path class="cls-2" d="M785.2,546.8v29"/>
      <path class="cls-2" d="M785.2,576.2v.3M783.3,546v.3"/>
      <path class="cls-2" d="M783.3,546.8v29"/>
      <path class="cls-2" d="M783.3,576.2v.3M781.4,546v.3"/>
      <path class="cls-2" d="M781.4,546.8v29"/>
      <path class="cls-2" d="M781.4,576.2v.3M779.5,546v.3"/>
      <path class="cls-2" d="M779.5,546.8v29"/>
      <path class="cls-2" d="M779.5,576.2v.3M777.5,546v.3"/>
      <path class="cls-2" d="M777.5,546.8v29"/>
      <path class="cls-2" d="M777.5,576.2v.3M775.6,546v.3"/>
      <path class="cls-2" d="M775.6,546.8v29"/>
      <path class="cls-2" d="M775.6,576.2v.3M773.6,546v.3"/>
      <path class="cls-2" d="M773.6,546.8v29"/>
      <path class="cls-2" d="M773.6,576.2v.3"/>
      <path class="cls-2" d="M842.5,576.2v-.3h-74.7v.3"/>
      <path class="cls-2" d="M842.5,576.2h-74.7"/>
      <path class="cls-2" d="M842.5,546.8v-.3h-74.7v.3"/>
      <path class="cls-2" d="M842.5,546.8h-74.7"/>
      <path class="cls-2" d="M769.3,563l-1.5-1.8,1.5-1.7"/>
      <path class="cls-2" d="M769.3,563l.3-.5M769.3,559.5l.3.5"/>
      <path class="cls-2" d="M769.6,562.5l-1.1-1.3,1.1-1.2"/>
      <path class="cls-2" d="M771.7,546v.3"/>
      <path class="cls-2" d="M771.7,546.8v29"/>
      <path class="cls-2" d="M771.7,576.2v.3M771.7,546v.3"/>
      <path class="cls-2" d="M771.7,546.8v29"/>
      <path class="cls-2" d="M771.7,576.2v.3M769.7,546v.3"/>
      <path class="cls-2" d="M769.7,546.8v29"/>
      <path class="cls-2" d="M769.7,576.2v.3M769.7,546v.3"/>
      <path class="cls-2" d="M769.7,546.8v29"/>
      <path class="cls-2" d="M769.7,576.2v.3M767.8,546v.3"/>
      <path class="cls-2" d="M767.8,546.8v29"/>
      <path class="cls-2" d="M767.8,576.2v.3M767.8,546v.3"/>
      <path class="cls-2" d="M767.8,546.8v29"/>
      <path class="cls-2" d="M767.8,576.2v.3M769.7,576.5h2M769.7,546h2M767.8,576.5h2M767.8,546h2M838.7,546v.3"/>
      <path class="cls-2" d="M838.7,546.8v29"/>
      <path class="cls-2" d="M838.7,576.2v.3M838.7,546v.3"/>
      <path class="cls-2" d="M838.7,546.8v29"/>
      <path class="cls-2" d="M838.7,546h2v.3"/>
      <path class="cls-2" d="M840.6,546.8v29"/>
      <path class="cls-2" d="M840.6,576.2v.3M840.6,546v.3"/>
      <path class="cls-2" d="M840.6,546.8v29"/>
      <path class="cls-2" d="M840.6,576.2v.3h1.8"/>
      <path class="cls-2" d="M767.8,546.6h0"/>
      <path class="cls-2" d="M767.8,546.6h0"/>
      <path class="cls-2" d="M767.8,575.9h0"/>
      <path class="cls-2" d="M767.8,575.9h0"/>
    </g>
    <g>
      <polygon class="cls-8" points="513.9 647 515.4 646.5 516.6 645.7 517.4 644.5 517.7 643 517.4 641.4 516.6 640.1 515.3 639.3 513.8 639 512.3 639.3 511 640.1 510.1 641.5 509.9 643 510.2 644.5 511 645.8 512.4 646.6 513.9 647"/>
      <polygon class="cls-8" points="442.9 647.7 444.4 647.3 445.6 646.5 446.4 645.2 446.7 643.7 446.4 642.2 445.6 640.8 444.3 640 442.8 639.8 441.3 640 440 640.9 439.1 642.3 438.9 643.8 439.2 645.3 440 646.5 441.4 647.3 442.9 647.7"/>
      <polygon class="cls-8" points="439.7 643.5 439.7 644 439.9 644.6 440.1 645.1 440.4 645.5 440.8 646 441.2 646.4 441.8 646.6 442.3 646.8 442.9 646.8 443.4 646.6 444 646.6 444.5 646.2 444.9 645.9 445.2 645.5 445.6 645.1 445.8 644.5 445.9 644 445.9 643.3 445.7 642.9 445.6 642.3 445.2 641.8 444.9 641.4 444.3 641.1 443.9 640.8 443.4 640.7 442.8 640.6 442.1 640.7 441.7 640.9 441.2 641.2 440.8 641.4 440.4 641.8 440.1 642.4 439.8 643 439.7 643.4 439.7 643.5"/>
      <polygon class="cls-8" points="510.7 643.3 510.9 643.8 511.1 644.4 511.4 644.9 511.8 645.2 512.2 645.6 512.8 645.9 513.3 646 513.9 646 514.4 646 515 645.7 515.4 645.6 515.9 645.2 516.2 644.8 516.6 644.3 516.8 643.8 516.9 643.2 516.9 642.5 516.7 642.1 516.6 641.6 516.2 641 515.9 640.6 515.3 640.4 514.9 640.1 514.4 640 513.8 639.8 513.2 640 512.7 640.1 512.2 640.4 511.8 640.7 511.4 641.1 511.1 641.7 510.8 642.2 510.7 642.8 510.7 643.3"/>
      <line class="cls-8" x1="558.7" y1="665.5" x2="542.1" y2="665.7"/>
      <polygon class="cls-8" points="536.1 619.3 536.4 619.2 536.5 618.9 536.4 618.5 536.1 618.3 535.7 618.5 535.5 618.9 535.7 619.2 536.1 619.3"/>
      <path class="cls-8" d="M532.3,624.7l2.7-12.8M529.8,624.2l2.7-12.8M527.5,623.8l2.7-12.9M525,623.3l2.7-12.9M522.7,622.7l2.7-12.9M520.2,622.2l2.7-12.9M517.9,621.7l2.7-12.9M515.4,621.2l2.7-12.9M513.1,620.7l2.7-12.9M515.2,614.3l21.3,4.6"/>
      <polyline class="cls-8" points="534.7 625.2 537.4 612.4 505.6 605.7"/>
      <path class="cls-8" d="M539,613l-33.4-7.2M534.7,625.2l-25.7-5.5"/>
      <polyline class="cls-8" points="505.8 606.3 538.9 613.5 539 613"/>
      <polyline class="cls-8" points="536.6 624.9 536.4 625.5 508.8 619.6"/>
      <line class="cls-8" x1="536.6" y1="624.9" x2="508.7" y2="619"/>
      <polygon class="cls-8" points="557.5 660.9 557.6 660.8 557.8 660.6 557.6 660.5 557.5 660.5 557.4 660.5 557.4 660.6 557.4 660.8 557.5 660.9"/>
      <polygon class="cls-8" points="542.6 661.1 542.8 660.9 542.8 660.8 542.8 660.6 542.6 660.6 542.4 660.7 542.4 660.8 542.4 660.9 542.6 661.1"/>
      <path class="cls-8" d="M441.3,640l7.7-22M434,660.8l5.3-15.3M446.3,641.8l7.7-22M439,662.6l5.3-15.3M468.7,599.6l35.6,7.6M468.2,602.2l36.4,7.7M431.5,660l14.8-42.1M429,659.1l18-51.2M467.2,596.6l72.7,15.4M481.6,682.1v3.8M542.6,661.1l14.9-.2M542.6,660.6l14.9-.2"/>
      <polyline class="cls-8" points="467.2 596.6 464.2 596.2 461 596.4 457.9 597.1 455 598.4 452.4 600.2 450.1 602.4 448.4 605 447 607.9"/>
      <path class="cls-8" d="M471.2,676.9v5.3M472.1,671.7v10.5M469.2,607.7l34.4,7.3"/>
      <polyline class="cls-8" points="553.6 626.9 552.7 623.9 551.5 621.2 549.8 618.8 547.7 616.5 545.4 614.5 542.8 613.1 539.9 612"/>
      <path class="cls-8" d="M559.4,670.8v.7M553.6,626.9l4.3,33.3"/>
      <polyline class="cls-8" points="445.7 682.5 550.9 681.4 552.7 681.1 554.4 680.5 556.1 679.6 557.3 678.3 558.4 676.8 559.2 675.1 559.4 673.3 559.4 671.4"/>
      <line class="cls-8" x1="471.2" y1="679.5" x2="445.7" y2="679.8"/>
      <polyline class="cls-8" points="429 659.1 428.2 662.1 428 665.1 428.3 668.2 429.2 671 430.4 673.9 432.2 676.3 434.5 678.5 436.9 680.1 439.7 681.5 442.7 682.3 445.7 682.5"/>
      <polyline class="cls-8" points="431.5 660 430.9 662.8 430.6 665.7 431.1 668.4 432 671.1 433.4 673.6 435.4 675.8 437.6 677.5 440.1 678.9 442.8 679.5 445.7 679.8"/>
      <polyline class="cls-8" points="434 660.8 433.5 663.2 433.4 665.5 433.7 667.8 434.4 670 435.6 672 437.1 673.8 438.9 675.3 441.1 676.4 443.4 677 445.7 677.2"/>
      <polyline class="cls-8" points="439 662.6 438.6 664.5 438.7 666.4 439.4 668.2 440.5 669.8 441.9 670.9 443.7 671.7 445.6 672"/>
      <path class="cls-8" d="M503.8,609.8l1-5.2M503.6,615l2.1-10.3M445.6,672l26.5-.3M445.7,677.2l26.5-.3"/>
      <polyline class="cls-8" points="483.1 676.6 483.2 682.1 481.6 682.1"/>
      <polyline class="cls-8" points="550.2 642.6 555.7 642.5 555.7 644.1 559.5 644"/>
      <path class="cls-8" d="M468.1,596.7l1,5.6M467.2,596.6l2,11.1M448.8,618.9l-5-1.7M454,619.8l-9.9-3.5M542.2,678.7l-51.7.5"/>
      <polyline class="cls-8" points="542.1 670.9 542.2 676.1 542.2 681.5"/>
      <polyline class="cls-8" points="539.7 613 537.1 625.7 534.7 625.2"/>
      <line class="cls-8" x1="539.7" y1="613" x2="537.4" y2="612.4"/>
      <polyline class="cls-8" points="489.7 682 489.6 671.5 542.1 670.9"/>
      <line class="cls-8" x1="490.5" y1="676.7" x2="490.6" y2="682"/>
      <polyline class="cls-8" points="542.1 670.9 559.4 670.8 557.9 660.2"/>
      <line class="cls-8" x1="518.2" y1="608.3" x2="518.4" y2="607.4"/>
      <polygon class="cls-8" points="513.9 646.8 515.4 646.5 516.6 645.7 517.4 644.5 517.7 643 517.4 641.4 516.6 640.1 515.3 639.3 513.8 639 512.3 639.3 511 640.1 510.1 641.5 509.9 643 510.2 644.5 511 645.8 512.4 646.6 513.9 646.8"/>
      <polygon class="cls-8" points="442.9 647.6 444.4 647.3 445.6 646.5 446.4 645.2 446.7 643.7 446.4 642.2 445.6 640.8 444.3 640 442.8 639.8 441.3 640 440 640.9 439.1 642.3 438.9 643.8 439.2 645.3 440 646.5 441.4 647.3 442.9 647.6"/>
      <polygon class="cls-8" points="513.9 646.8 515.4 646.5 516.6 645.7 517.4 644.5 517.7 643 517.4 641.4 516.6 640.1 515.3 639.3 513.8 639 512.3 639.3 511 640.1 510.1 641.5 509.9 643 510.2 644.5 511 645.8 512.4 646.6 513.9 646.8"/>
      <polygon class="cls-8" points="442.9 647.6 444.4 647.3 445.6 646.5 446.4 645.2 446.7 643.7 446.4 642.2 445.6 640.8 444.3 640 442.8 639.8 441.3 640 440 640.9 439.1 642.3 438.9 643.8 439.2 645.3 440 646.5 441.4 647.3 442.9 647.6"/>
      <line class="cls-8" x1="555" y1="657.6" x2="552.4" y2="657.9"/>
      <polygon class="cls-8" points="554.6 655 552 655.3 554.6 655 552 655.3 554.6 655"/>
      <polyline class="cls-8" points="554.3 652.4 551.7 652.7 554.3 652.4 551.7 652.7"/>
      <path class="cls-8" d="M554,649.8l-2.6.3,2.6-.3Z"/>
      <line class="cls-8" x1="553.7" y1="647.2" x2="551.1" y2="647.5"/>
      <polygon class="cls-8" points="555 657.6 554.6 655 552 655.3 552.4 657.9 555 657.6"/>
      <rect class="cls-4" x="551.7" y="652.7" width="2.6" height="2.6" transform="translate(-71.5 67.9) rotate(-6.6)"/>
      <rect class="cls-4" x="551.4" y="650.1" width="2.6" height="2.6" transform="translate(-71.2 67.8) rotate(-6.6)"/>
      <rect class="cls-4" x="551" y="647.5" width="2.6" height="2.6" transform="translate(-70.9 67.8) rotate(-6.6)"/>
      <polygon class="cls-8" points="553.7 647.2 553.2 644.6 550.6 644.9 551.1 647.5 553.7 647.2"/>
      <polyline class="cls-8" points="481.7 618.4 483.2 610.7 486.7 611.5 487.8 606.4 491 607 492 601.8 491.6 601.8 491.1 604.3 483.4 602.7 485.2 594.1"/>
      <path class="cls-8" d="M492,602h0M491.9,602.6l-.3-.5M491.8,603.5l-.4-.5M485.2,594.3l-.3-.4M491.7,604.2l-.4-.4M485,595l-.8-1.2M491.4,605l-.4-.7M484.9,595.9l-1.4-2M491.3,605.8l-1-1.6M484.7,596.7l-1.4-2.2M491.1,606.5l-1.7-2.5M484.6,597.4l-1.4-2M490.7,606.9l-2-3.1M484.3,598.2l-1.3-2M490,606.8l-2.1-3.1M484.2,598.9l-1.4-2M489.2,606.7l-2.1-3.1M484.1,599.7l-1.4-2M488.4,606.5l-2-3.1M483.9,600.5l-1.4-2.2M487.7,606.5l-2.1-3.4M483.7,601.2l-1.3-2M487.6,607.2l-2.6-4.2M483.5,602l-1.4-2M487.5,608l-3.3-5.2M487.3,608.7l-5.3-8M487,609.5l-5.2-8M486.9,610.4l-5.2-8.2M486.8,611.1l-5.3-8M486.4,611.3l-5-7.5M485.6,611.2l-4.3-6.7M484.7,611.1l-3.6-5.7M484,611l-3.2-4.9M483.2,610.8l-2.5-4M483.1,611.5l-2.5-3.8M483,612.3l-2.5-4M482.8,613l-2.6-3.8M482.6,613.8l-2.5-4M482.5,614.7l-2.5-4M482.3,615.4l-2.5-3.8M482.2,616.2l-2.6-4M481.9,616.9l-2.5-3.8M481.8,617.7l-2.5-4M481.5,618.4l-2.4-3.8M480.8,618.2l-2-2.9M480,618l-1.2-1.9M479.2,617.9l-.6-1M478.5,617.7h0"/>
      <polyline class="cls-8" points="452.3 664.1 452.3 671.9 455.9 671.8 456 677 459.2 677 459.3 682.4 458.9 682.4 458.9 679.6 450.9 679.7 451 688.6"/>
      <path class="cls-8" d="M449.2,688.4l.4.3M449.2,687.5l1.2,1.1M449.2,686.7l1.8,1.8M449.2,685.9l1.8,1.8M449.2,685.2l1.8,1.8M449.2,684.4l1.8,1.8M449.2,683.6l1.8,1.8M449.2,682.7l1.8,1.8M449.2,682.1l1.8,1.8M449.1,681.2l1.8,1.8M449.1,680.4l1.8,1.8M449.1,679.7l1.8,1.6M449.1,678.9l1.8,1.8M449.1,678.1l1.8,1.8M449.1,677.3l2.5,2.4M449.1,676.6l3.3,3.1M449.1,675.8l4.1,3.9M449.1,674.9l5,4.8M449.1,674.1l5.7,5.6M449.1,673.4l6.5,6.2M458.9,682.1v.3M449.1,672.6l7.3,7M458.9,681.3l.4.5M449,671.8l8.2,7.9M458.9,680.6l.4.4M449,671l8.9,8.7M456.1,677l2.6,2.6M458.9,679.8l.4.4M449,670.3l6.9,6.6M456.9,677l2.4,2.3M449,669.5l6.9,6.6M457.6,677l1.7,1.6M449,668.6l6.9,6.8M453.2,671.9l2.8,2.7M458.4,677l.8.8M449,667.8l3.3,3.2M454,671.9l1.9,1.9M449,667.1l3.3,3.2M454.7,671.8l1.2,1.1M449,666.3l3.3,3.2M455.5,671.8l.4.4M449,665.5l3.3,3.2M449,664.7l3.3,3.2M449.1,664.1l3.2,3.1M449.9,664.1l2.4,2.3M450.8,664.1l1.5,1.5M451.6,664.1l.7.7"/>
      <polyline class="cls-8" points="500.8 663.5 500.9 671.4 504.4 671.3 504.5 676.5 507.8 676.5 507.8 681.8 507.4 681.8 507.4 679.1 499.4 679.2 499.5 688.1"/>
      <path class="cls-8" d="M480.3,685.8h.1M480.3,685l1,1M480.3,684.3l1.4,1.2M480.3,683.5l1.4,1.2M480.3,682.7l1.4,1.4M480.3,681.9l1.4,1.4M480.3,681.2l1.4,1.2M480.3,680.4l1.8,1.8M480.2,679.5l2.6,2.6M480.2,678.7l2.9,2.8M480.2,678l2.9,2.7M480.2,677.2l2.9,2.8M480.5,676.7l2.6,2.6M481.3,676.6l1.8,1.8M482.1,676.6l1,1M482.8,676.6l.3.3M559.4,645.2h0M558.6,645.3l1-.8M557.9,645.3l1.2-1.2M557.1,645.3l1.4-1.2M556.2,645.3l1.4-1.2M555.6,645.3l1.2-1.2M554.7,645.3l1.2-1.2M553.9,645.3l1.8-1.7M553.1,645.3l2.6-2.5M552.4,645.3l2.6-2.6M551.6,645.3l2.6-2.6M550.8,645.3l2.6-2.6M550.2,645.2l2.4-2.5M550.2,644.4l1.6-1.7M550.2,643.6l.8-.8M550.2,642.9h0M452.1,595.8h-.1M452.4,596.5l-1.1-.4M452.8,597.2l-1.8-.5M453.2,597.8l-1.8-.5M453.6,598.5l-1.8-.5M455.4,599l-1-.3M455.7,599.7l-3.6-1.1M456.1,600.4l-3.6-1.1M456.5,601.1l-3.6-1.1M456.8,601.8l-3.6-1.1M457.2,602.5l-3.6-1.1M457.6,603.1l-3.6-1.1M457,603.6l-2.5-.7M456.3,604l-1.5-.4M455.6,604.4h-.4"/>
      <polyline class="cls-8" points="557.9 660.2 542 660.4 542.1 670.9"/>
      <path class="cls-8" d="M497.8,688h.1M497.7,687.3l1,.8M497.7,686.5l1.8,1.6M497.7,685.7l1.8,1.8M497.7,684.8l1.8,1.8M497.7,684.2l1.8,1.6M497.7,683.3l1.8,1.8M497.7,682.5l1.8,1.8M497.7,681.7l1.8,1.8M497.7,681l1.8,1.6M497.7,680.2l1.8,1.8M497.7,679.3l1.8,1.8M497.6,678.5l1.8,1.8M497.6,677.8l1.8,1.6M497.6,677l2.4,2.2M497.6,676.2l3.2,3M497.6,675.4l3.9,3.8M497.6,674.7l4.7,4.5M497.6,673.9l5.5,5.3M497.6,673l6.4,6.1M497.6,672.2l7.1,6.9M507.4,681l.4.4M497.6,671.5l7.9,7.6M507.4,680.2l.4.4M497.6,670.7l8.7,8.4M507.4,679.5l.4.4M497.6,669.9l9.6,9.2M505.2,676.5l2.6,2.6M497.5,669.1l6.9,6.8M506,676.5l1.8,1.8M497.5,668.4l6.9,6.6M501.4,671.4l3,3M506.8,676.5l1,1.1M497.5,667.6l3.3,3.2M502.2,671.3l2.2,2.2M507.5,676.5l.3.3M497.5,666.7l3.3,3.2M503.1,671.3l1.4,1.4M497.5,665.9l3.3,3.2M503.9,671.3l.5.5M497.5,665.2l3.3,3.2M497.5,664.4l3.3,3.2M497.5,663.6l3.3,3.2M498.3,663.6l2.5,2.6M499,663.6l1.8,1.8M499.8,663.6l1,1M500.6,663.5h.1M542.2,676.1l-52.5.5"/>
      <polyline class="cls-8" points="505.1 603 506.7 610.3 509.8 611.9 504.5 613.1 507.7 614.7 509.5 622.6"/>
      <polyline class="cls-8" points="505.1 603 506.7 610.3 509.8 611.9 504.5 613.1 507.7 614.7 509.5 622.6"/>
      <polygon class="cls-8" points="517 613.2 515.2 614.3 516.3 616.1 515.9 616.4 514.4 614.2 516.6 612.8 517 613.2"/>
      <polygon class="cls-8" points="544.1 667.6 544.5 667.1 543 665.7 544.5 664.2 544.1 663.6 542.1 665.7 544.1 667.6"/>
      <polyline class="cls-8" points="509 619.7 473.9 612.3 473.1 612.2"/>
      <polyline class="cls-8" points="560.7 681.3 553.7 628.2 553.2 625.3 552.2 622.4 550.6 619.8 548.8 617.5 546.6 615.5 544.1 613.9 541.5 612.7 538.6 611.8"/>
      <polyline class="cls-8" points="473.1 612.2 470.9 611.9 468.6 612.2 466.4 612.9 464.5 614.2 462.9 615.8 461.6 617.8 445.9 648.6 446.3 682.5 560.7 681.3"/>
      <path class="cls-8" d="M475.4,606l29.5,6.3M473.9,612.3l2.7-12.8"/>
      <polygon class="cls-8" points="475.4 606.4 475.6 606.2 475.8 606 475.6 605.6 475.4 605.4 475 605.6 475 606 475 606.2 475.4 606.4"/>
      <polyline class="cls-8" points="505.1 603 506.7 610.3 509.8 611.9 504.5 613.1 507.7 614.7 509.5 622.6"/>
      <polygon class="cls-8" points="502.3 613.2 504.1 612 503 610.3 503.4 609.9 504.9 612.2 502.6 613.6 502.3 613.2"/>
    </g>
    <rect class="cls-10" x="296.9" y="519.6" width="76.3" height="24.8"/>
    <g>
      <polyline class="cls-8" points="243.8 454.6 241.4 478.2 216.7 475.5 215.6 480 204.6 478.8 205.2 477.2 205.2 476.9 206.9 470.5 206.9 470.2 211.7 451.3 243.8 454.6 241.4 478.2"/>
      <polyline class="cls-8" points="243.8 454.6 276 458 276.2 477.4 276.2 477.7 276.2 478 276.3 483.9 276.3 484.4 276.3 486.2 275.9 486.2 265.6 485.2 265.5 480.6 241.4 478.2"/>
      <polyline class="cls-8" points="231.3 408.5 231.1 411.1 231.3 408.5 231.1 411.1"/>
      <path class="cls-8" d="M228.7,408.2l-.2,2.6.2-2.6Z"/>
      <line class="cls-8" x1="226" y1="407.9" x2="225.8" y2="410.6"/>
      <rect class="cls-6" x="231.2" y="408.5" width="2.7" height="2.7" transform="translate(-197.4 602.8) rotate(-84.6)"/>
      <rect class="cls-6" x="228.5" y="408.4" width="2.7" height="2.7" transform="translate(-199.7 600) rotate(-84.6)"/>
      <polygon class="cls-8" points="228.7 408.2 226 407.9 225.8 410.6 228.4 410.9 228.7 408.2"/>
      <polygon class="cls-8" points="226 407.9 223.4 407.6 223.1 410.3 225.8 410.6 226 407.9"/>
      <polyline class="cls-8" points="216.3 479.4 216.5 479.5 216.5 480.5"/>
      <line class="cls-8" x1="205.9" y1="477" x2="205.6" y2="478.4"/>
      <line class="cls-8" x1="216.5" y1="479.5" x2="216.2" y2="479.6"/>
      <path class="cls-8" d="M244.2,455.3l-2.3,22.3M243.8,454.6l-2.4,23.6"/>
      <path class="cls-8" d="M244.1,455l-2.4,22.9M244.2,455.2l-2.4,22.6M243.5,455l-2.4,22.7M243.4,455.2l-2.4,22.5M265,484.6v.8M265.1,484.8v.6"/>
      <polyline class="cls-8" points="215.4 479.6 216.4 475.1 241 477.6"/>
      <polyline class="cls-8" points="215.5 479.6 216.6 475.2 265.8 480.3 265.8 484.9"/>
      <polyline class="cls-8" points="216.1 479.7 217 475.9 265.2 480.9 265.3 484.8"/>
      <polyline class="cls-8" points="216.2 479.6 217.1 476.1 265.1 481 265.1 484.6"/>
      <polyline class="cls-8" points="241.8 477.8 265.9 480.3 266 484.7"/>
      <path class="cls-8" d="M270.3,484.6h.8M270.3,484.7h.8"/>
      <line class="cls-8" x1="270.1" y1="484.4" x2="270.3" y2="484.6"/>
      <polyline class="cls-8" points="270 484.4 270 484.6 270.3 484.7"/>
      <line class="cls-8" x1="271.1" y1="484.7" x2="271.1" y2="484.5"/>
      <path class="cls-8" d="M276.1,483.9v-6,6Z"/>
      <path class="cls-8" d="M211,478.6l-.7-.3M211,478.8l-.8-.3"/>
      <path class="cls-8" d="M211.6,478.4h-.4c0-.1.4,0,.4,0Z"/>
      <polyline class="cls-8" points="211.2 478.2 211.6 478.2 211.6 478.4"/>
      <path class="cls-8" d="M211.2,478.2h0M211.6,478.4h0M210.2,478.5h0M211.2,478.2h0M211.3,478.5v-.3M211.4,478.5h0"/>
      <polyline class="cls-8" points="211 478.6 211.2 478.5 211.3 478.5"/>
      <polyline class="cls-8" points="211 478.8 211.3 478.8 211.4 478.5"/>
      <polyline class="cls-8" points="210.3 478.4 210.2 478.4 210.2 478.5"/>
      <path class="cls-8" d="M211.7,477.8h-.4c0-.1.4,0,.4,0Z"/>
      <polyline class="cls-8" points="211.3 477.8 211.7 477.9 211.7 477.8"/>
      <polyline class="cls-8" points="211.4 477.5 211.4 477.4 211.3 477.4"/>
      <path class="cls-8" d="M205.6,476.6l1.5-5.7-1.5,5.7Z"/>
      <line class="cls-8" x1="264.6" y1="485.5" x2="264.9" y2="485.6"/>
      <polyline class="cls-8" points="254.9 500.6 254.2 501.3 255.9 503 257.8 504.2 259.9 505.1 262.1 505.7 264.5 505.6 266.9 505.3 269.1 504.5 271 503.4 272.8 501.8 274.2 499.8 275.3 497.7 276 495.5 275 495.4"/>
      <polyline class="cls-8" points="254.9 500.6 256.7 502.5 258.9 503.8 261.4 504.6 264 504.8 266.6 504.5 269.1 503.5 271.2 502.1 273 500.1 274.3 497.9 275 495.4"/>
      <polyline class="cls-8" points="203.8 488.2 204.1 490.7 204.8 493.2 206.1 495.3 207.9 497 210 498.4 212.4 499.4 214.9 499.6 217.4 499.3 219.9 498.5 221.9 497.2"/>
      <polyline class="cls-8" points="203.8 488.2 202.9 488.2 203.1 490.4 203.7 492.6 204.6 494.7 205.9 496.5 207.6 498 209.6 499.3 211.7 500.1 213.9 500.5 216.3 500.5 218.5 500 220.6 499.1 222.5 497.9 221.9 497.2"/>
      <path class="cls-8" d="M243.2,455.2l-2.3,22.5M264.9,484.5v1.1"/>
      <polyline class="cls-8" points="241.9 478.2 265.5 480.6 265.5 484.6"/>
      <polyline class="cls-8" points="241.9 477.6 266.1 480.1 266.1 484.6"/>
      <polyline class="cls-8" points="215.2 479.4 216.4 475 241 477.6"/>
      <polyline class="cls-8" points="216.3 479.4 217.1 476.1 265 481.1 265 484.5"/>
      <path class="cls-8" d="M276.8,495.6h-.8M212.3,452l30.9,3.1M244.2,455.3l31.2,3.3M212.7,450.8l64,6.7"/>
      <polyline class="cls-8" points="254.2 501.3 255.9 503 257.7 504.2 259.9 505.1 262.1 505.7 264.5 505.6 266.9 505.3 269.1 504.5 271 503.4 272.8 501.8 274.2 499.8 275.3 497.7 276 495.5"/>
      <polyline class="cls-8" points="254.2 501.3 251.2 498.8 248 496.9 244.5 495.4 240.7 494.5 237 494.1 233.2 494.3 229.4 494.9 225.8 496.2 222.5 497.9"/>
      <polyline class="cls-8" points="202.9 488.2 203.1 490.4 203.7 492.6 204.6 494.7 205.9 496.5 207.6 498 209.6 499.3 211.7 500.1 213.9 500.5 216.3 500.5 218.5 500 220.6 499.1 222.5 497.9"/>
      <polyline class="cls-8" points="202.9 488.2 201.9 488.2 202.1 490.6 202.8 492.9 203.8 495.1 205.4 497.1 207.1 498.7 209.2 500 211.4 500.9 213.9 501.3 216.3 501.3 218.6 500.8 220.9 500 222.9 498.6"/>
      <polyline class="cls-8" points="253.5 501.9 250.7 499.5 247.4 497.6 244.1 496.2 240.6 495.3 237 494.9 233.4 495.1 229.7 495.7 226.3 497 222.9 498.6"/>
      <polyline class="cls-8" points="253.5 501.9 255.3 503.7 257.4 505 259.6 506 262.2 506.5 264.7 506.6 267.2 506.2 269.4 505.3 271.6 504 273.5 502.4 275 500.4 276.1 498.1 276.8 495.6"/>
      <path class="cls-8" d="M276.8,467.4l-.5-48.9M221.1,412.8l-9.4,36.5M227.8,445.7l-1.1,5.3M229.5,437.8l-1.1,5.3M231.1,430l-1.1,5.3M232.7,422l-1.1,5.3M234.3,414.2l-1.1,5.2M276.3,418.5l-55.2-5.7M233.8,416.8l-13.4-1.4M233.2,419.4l-13.5-1.4M276.4,426.5l-57.3-5.9M232.2,424.6l-13.8-1.4M231.7,427.3l-13.9-1.4M276.4,434.6l-59.4-6.2M230.6,432.6l-14.2-1.5M230.1,435.3l-14.4-1.5M276.5,442.7l-61.5-6.3M229,440.4l-14.6-1.5M228.5,443.1l-14.8-1.5M276.6,450.8l-63.6-6.6M227.3,448.4l-14.9-1.5M226.8,451l-13.7-1.5"/>
      <polygon class="cls-8" points="227.6 414 228 413.8 228.2 413.4 228 413.1 227.6 413 227.3 413.1 227.2 413.4 227.3 413.8 227.6 414"/>
      <line class="cls-8" x1="206" y1="475.6" x2="205" y2="475.6"/>
      <line class="cls-8" x1="207.3" y1="470.5" x2="206.4" y2="470.3"/>
      <line class="cls-8" x1="206.8" y1="473.1" x2="205.7" y2="473"/>
      <line class="cls-8" x1="205.6" y1="478.3" x2="204.3" y2="478.1"/>
      <line class="cls-8" x1="206.9" y1="497.2" x2="205.5" y2="497.1"/>
      <line class="cls-8" x1="221.5" y1="411.5" x2="211.7" y2="449.2"/>
      <polyline class="cls-8" points="212.2 449.4 221.9 411.5 221.5 411.5"/>
      <line class="cls-8" x1="275.7" y1="417.1" x2="276.2" y2="467.2"/>
      <polyline class="cls-8" points="276.8 467.4 276.3 417.2 275.7 417.1"/>
      <path class="cls-8" d="M203.8,480.5l-.5,1.7M204.3,477.9l-.4,1.8M205,475.4l-.4,1.7M205.7,472.7l-.4,1.7M206.4,470.2l-.4,1.7M207,467.5l-.4,1.7M207.7,464.9l-.4,1.8M208.4,462.4l-.4,1.7M209,459.7l-.4,1.8M209.7,457.2l-.4,1.7M210.4,454.5l-.4,1.8M211,452l-.4,1.7M211.7,449.2l-.4,2"/>
      <path class="cls-8" d="M210,500.4l1.7.7M207.8,499.1l1.4,1M205.7,497.4l1.3,1.2M204.1,495.1l1,1.5M203,492.8l.7,1.7M202.4,490.1l.3,1.8M202.2,487.5v1.8"/>
      <polyline class="cls-8" points="212.5 501.3 214.2 501.6 215.2 501.7"/>
      <polyline class="cls-8" points="261.2 506.5 262.3 506.5 263.7 506.6"/>
      <polyline class="cls-8" points="264.7 506.6 264.8 506.6 266.3 506.3"/>
      <path class="cls-8" d="M275.3,499.7l.8-1.7M273.8,501.8l1.1-1.4M272,503.8l1.2-1.3M269.7,505.2l1.5-1M267.2,506.2l1.7-.7"/>
      <polyline class="cls-8" points="276.4 497.2 276.8 495.6 276.8 495.5"/>
      <polyline class="cls-8" points="276.9 494.5 277.1 493.1 277 491.3"/>
      <path class="cls-8" d="M276.8,471.8v-1.8M276.9,474.5v-1.8M276.9,477.1v-1.8M276.9,479.8v-1.7M277,482.5v-1.8M277,485.2v-1.8M277,487.8v-1.8M277,490.5v-1.8"/>
      <line class="cls-8" x1="276.8" y1="469.2" x2="276.8" y2="467.4"/>
      <polygon class="cls-8" points="218.5 448.6 219.6 450.4 221.4 449.3 221.7 449.7 219.5 451.1 218.1 448.9 218.5 448.6"/>
      <rect class="cls-5" x="205.2" y="496.4" width=".1" height=".1" transform="translate(-5.2 2.2) rotate(-.6)"/>
      <rect class="cls-5" x="205.6" y="496.8" width=".1" height=".1" transform="translate(-5.2 2.2) rotate(-.6)"/>
      <polygon class="cls-8" points="206.1 497.4 206.1 497.2 205.9 497.2 206.1 497.4"/>
      <polygon class="cls-8" points="206.5 497.6 206.5 497.5 206.4 497.6 206.5 497.6"/>
      <rect class="cls-5" x="206.7" y="497.9" width=".1" height=".1" transform="translate(-5.2 2.2) rotate(-.6)"/>
      <polygon class="cls-8" points="207.2 498.3 207.3 498.3 207.2 498.2 207.2 498.3"/>
      <rect class="cls-5" x="207.6" y="498.6" width=".1" height=".1" transform="translate(-5.2 2.2) rotate(-.6)"/>
      <rect class="cls-5" x="208" y="498.8" width=".1" height=".1" transform="translate(-5.2 2.2) rotate(-.6)"/>
      <polygon class="cls-8" points="208.6 499.3 208.6 499.1 208.5 499.1 208.6 499.3"/>
      <rect class="cls-5" x="209" y="499.5" width=".1" height=".1" transform="translate(-5.2 2.2) rotate(-.6)"/>
      <rect class="cls-5" x="209.4" y="499.8" width=".1" height=".1" transform="translate(-5.2 2.2) rotate(-.6)"/>
      <polygon class="cls-8" points="210 500 210.1 500 210 499.8 210 500"/>
      <rect class="cls-5" x="210.4" y="500.2" width=".1" height=".1" transform="translate(-5.2 2.2) rotate(-.6)"/>
      <rect class="cls-5" x="210.9" y="500.3" width=".1" height=".1" transform="translate(-5.2 2.2) rotate(-.6)"/>
      <polygon class="cls-8" points="211.5 500.5 211.5 500.4 211.4 500.5 211.5 500.5"/>
      <rect class="cls-5" x="211.9" y="500.6" width=".1" height=".1" transform="translate(-5.2 2.2) rotate(-.6)"/>
      <rect class="cls-5" x="212.5" y="500.6" width=".1" height=".1" transform="translate(-5.2 2.3) rotate(-.6)"/>
      <polygon class="cls-8" points="213.1 500.9 213.2 500.8 213.1 500.8 213.1 500.9"/>
      <polygon class="cls-8" points="213.6 500.9 213.6 500.8 213.5 500.9 213.6 500.9"/>
      <rect class="cls-5" x="214" y="500.9" width=".1" height=".1" transform="translate(-5.2 2.3) rotate(-.6)"/>
      <rect class="cls-5" x="214.6" y="500.9" width=".1" height=".1" transform="translate(-5.2 2.3) rotate(-.6)"/>
      <rect class="cls-5" x="215.1" y="500.9" width=".1" height=".1" transform="translate(-5.2 2.3) rotate(-.6)"/>
      <rect class="cls-5" x="215.7" y="500.9" width=".1" height=".1" transform="translate(-5.2 2.3) rotate(-.6)"/>
      <path class="cls-8" d="M216.3,500.9h.1-.1Z"/>
      <rect class="cls-5" x="216.6" y="500.7" width=".1" height=".1" transform="translate(-5.2 2.3) rotate(-.6)"/>
      <polygon class="cls-8" points="217.4 500.7 217.4 500.6 217.2 500.7 217.4 500.7"/>
      <polygon class="cls-8" points="217.8 500.7 217.9 500.6 217.8 500.6 217.8 500.7"/>
      <polygon class="cls-8" points="218.4 500.6 218.5 500.4 218.4 500.4 218.4 500.6"/>
      <polygon class="cls-8" points="218.9 500.4 218.9 500.3 218.8 500.3 218.9 500.4"/>
      <polygon class="cls-8" points="219.3 500.1 219.5 500.1 219.3 500 219.3 500.1"/>
      <polygon class="cls-8" points="219.9 500 219.9 499.9 219.8 499.9 219.9 500"/>
      <polygon class="cls-8" points="220.3 499.7 220.4 499.7 220.3 499.6 220.3 499.7"/>
      <polygon class="cls-8" points="220.9 499.6 220.9 499.4 220.7 499.4 220.9 499.6"/>
      <rect class="cls-5" x="221.2" y="499.2" width=".1" height=".1" transform="translate(-5.2 2.3) rotate(-.6)"/>
      <rect class="cls-5" x="221.6" y="498.9" width=".1" height=".1" transform="translate(-5.2 2.3) rotate(-.6)"/>
      <rect class="cls-5" x="222" y="498.5" width=".1" height=".1" transform="translate(-5.2 2.4) rotate(-.6)"/>
      <polygon class="cls-8" points="222.7 498.3 222.7 498.1 222.5 498.3 222.7 498.3"/>
      <rect class="cls-5" x="223" y="497.9" width=".1" height=".1" transform="translate(-5.2 2.4) rotate(-.6)"/>
      <polygon class="cls-8" points="223.5 497.9 223.6 497.7 223.5 497.7 223.5 497.9"/>
      <polygon class="cls-8" points="224 497.6 224 497.4 223.9 497.4 224 497.6"/>
      <rect class="cls-5" x="224.4" y="497.1" width=".1" height=".1" transform="translate(-5.2 2.4) rotate(-.6)"/>
      <polygon class="cls-8" points="225 497 225 496.9 224.9 497 225 497"/>
      <rect class="cls-5" x="225.4" y="496.7" width=".1" height=".1" transform="translate(-5.2 2.4) rotate(-.6)"/>
      <polygon class="cls-8" points="226 496.6 226 496.4 225.8 496.6 226 496.6"/>
      <rect class="cls-5" x="226.3" y="496.3" width=".1" height=".1" transform="translate(-5.2 2.4) rotate(-.6)"/>
      <rect class="cls-5" x="226.8" y="496.1" width=".1" height=".1" transform="translate(-5.2 2.4) rotate(-.6)"/>
      <polygon class="cls-8" points="227.5 496 227.5 495.9 227.4 496 227.5 496"/>
      <rect class="cls-5" x="227.9" y="495.8" width=".1" height=".1" transform="translate(-5.2 2.4) rotate(-.6)"/>
      <polygon class="cls-8" points="228.5 495.7 228.5 495.6 228.3 495.7 228.5 495.7"/>
      <rect class="cls-5" x="228.8" y="495.5" width=".1" height=".1" transform="translate(-5.2 2.4) rotate(-.6)"/>
      <rect class="cls-5" x="229.4" y="495.4" width=".1" height=".1" transform="translate(-5.2 2.4) rotate(-.6)"/>
      <polygon class="cls-8" points="230 495.3 230.1 495.3 230 495.1 230 495.3"/>
      <rect class="cls-5" x="230.4" y="495.1" width=".1" height=".1" transform="translate(-5.2 2.4) rotate(-.6)"/>
      <polygon class="cls-8" points="231.1 495.1 231.1 495 231 495 231.1 495.1"/>
      <rect class="cls-5" x="231.5" y="494.8" width=".1" height=".1" transform="translate(-5.2 2.5) rotate(-.6)"/>
      <polygon class="cls-8" points="232.1 494.9 232.2 494.9 232.1 494.7 232.1 494.9"/>
      <polygon class="cls-8" points="232.6 494.8 232.6 494.7 232.5 494.7 232.6 494.8"/>
      <polygon class="cls-8" points="233.2 494.7 233.2 494.6 233.1 494.7 233.2 494.7"/>
      <rect class="cls-5" x="233.6" y="494.5" width=".1" height=".1" transform="translate(-5.2 2.5) rotate(-.6)"/>
      <rect class="cls-5" x="234.1" y="494.5" width=".1" height=".1" transform="translate(-5.2 2.5) rotate(-.6)"/>
      <polygon class="cls-8" points="234.7 494.7 234.9 494.5 234.7 494.5 234.7 494.7"/>
      <rect class="cls-5" x="235.2" y="494.4" width=".1" height=".1" transform="translate(-5.2 2.5) rotate(-.6)"/>
      <rect class="cls-5" x="235.7" y="494.4" width=".1" height=".1" transform="translate(-5.2 2.5) rotate(-.6)"/>
      <polygon class="cls-8" points="236.4 494.5 236.4 494.4 236.3 494.5 236.4 494.5"/>
      <polygon class="cls-8" points="237 494.7 237 494.5 236.8 494.5 237 494.7"/>
      <rect class="cls-5" x="237.3" y="494.6" width=".1" height=".1" transform="translate(-5.2 2.5) rotate(-.6)"/>
      <rect class="cls-5" x="237.9" y="494.6" width=".1" height=".1" transform="translate(-5.2 2.5) rotate(-.6)"/>
      <rect class="cls-5" x="238.4" y="494.6" width=".1" height=".1" transform="translate(-5.2 2.5) rotate(-.6)"/>
      <rect class="cls-5" x="238.9" y="494.7" width=".1" height=".1" transform="translate(-5.2 2.5) rotate(-.6)"/>
      <polygon class="cls-8" points="239.6 494.8 239.6 494.6 239.5 494.8 239.6 494.8"/>
      <rect class="cls-5" x="240" y="494.8" width=".1" height=".1" transform="translate(-5.2 2.5) rotate(-.6)"/>
      <polygon class="cls-8" points="240.6 495 240.7 494.9 240.6 494.9 240.6 495"/>
      <rect class="cls-5" x="241" y="494.9" width=".1" height=".1" transform="translate(-5.2 2.6) rotate(-.6)"/>
      <rect class="cls-5" x="241.5" y="495" width=".1" height=".1" transform="translate(-5.2 2.6) rotate(-.6)"/>
      <rect class="cls-5" x="242.1" y="495.1" width=".1" height=".1" transform="translate(-5.2 2.6) rotate(-.6)"/>
      <polygon class="cls-8" points="242.7 495.4 242.8 495.4 242.7 495.3 242.7 495.4"/>
      <polygon class="cls-8" points="243.2 495.6 243.2 495.4 243.1 495.6 243.2 495.6"/>
      <rect class="cls-5" x="243.6" y="495.5" width=".1" height=".1" transform="translate(-5.2 2.6) rotate(-.6)"/>
      <rect class="cls-5" x="244.1" y="495.8" width=".1" height=".1" transform="translate(-5.2 2.6) rotate(-.6)"/>
      <rect class="cls-5" x="244.6" y="495.9" width=".1" height=".1" transform="translate(-5.2 2.6) rotate(-.6)"/>
      <rect class="cls-5" x="245.1" y="496.1" width=".1" height=".1" transform="translate(-5.2 2.6) rotate(-.6)"/>
      <rect class="cls-5" x="245.6" y="496.3" width=".1" height=".1" transform="translate(-5.2 2.6) rotate(-.6)"/>
      <rect class="cls-5" x="246.1" y="496.6" width=".1" height=".1" transform="translate(-5.2 2.6) rotate(-.6)"/>
      <polygon class="cls-8" points="246.7 496.9 246.7 496.8 246.6 496.8 246.7 496.9"/>
      <rect class="cls-5" x="247.1" y="497" width=".1" height=".1" transform="translate(-5.2 2.6) rotate(-.6)"/>
      <rect class="cls-5" x="247.5" y="497.3" width=".1" height=".1" transform="translate(-5.2 2.6) rotate(-.6)"/>
      <rect class="cls-5" x="248.1" y="497.5" width=".1" height=".1" transform="translate(-5.2 2.6) rotate(-.6)"/>
      <rect class="cls-5" x="248.5" y="497.8" width=".1" height=".1" transform="translate(-5.2 2.6) rotate(-.6)"/>
      <rect class="cls-5" x="248.9" y="498.1" width=".1" height=".1" transform="translate(-5.2 2.6) rotate(-.6)"/>
      <polygon class="cls-8" points="249.5 498.4 249.7 498.3 249.5 498.3 249.5 498.4"/>
      <rect class="cls-5" x="249.9" y="498.6" width=".1" height=".1" transform="translate(-5.2 2.6) rotate(-.6)"/>
      <rect class="cls-5" x="250.3" y="498.8" width=".1" height=".1" transform="translate(-5.2 2.6) rotate(-.6)"/>
      <rect class="cls-5" x="250.7" y="499.1" width=".1" height=".1" transform="translate(-5.2 2.7) rotate(-.6)"/>
      <polygon class="cls-8" points="251.4 499.5 251.4 499.4 251.2 499.5 251.4 499.5"/>
      <rect class="cls-5" x="251.6" y="499.7" width=".1" height=".1" transform="translate(-5.2 2.7) rotate(-.6)"/>
      <polygon class="cls-8" points="252.2 500.2 252.2 500.1 252.1 500.1 252.2 500.2"/>
      <rect class="cls-5" x="252.5" y="500.4" width=".1" height=".1" transform="translate(-5.2 2.7) rotate(-.6)"/>
      <rect class="cls-5" x="252.8" y="500.7" width=".1" height=".1" transform="translate(-5.2 2.7) rotate(-.6)"/>
      <path class="cls-8" d="M253.5,501.2h-.1.1Z"/>
      <rect class="cls-5" x="253.7" y="501.4" width=".1" height=".1" transform="translate(-5.2 2.7) rotate(-.6)"/>
      <polygon class="cls-8" points="254.2 502 254.2 501.9 254 502 254.2 502"/>
      <rect class="cls-5" x="254.4" y="502.3" width=".1" height=".1" transform="translate(-5.2 2.7) rotate(-.6)"/>
      <polygon class="cls-8" points="254.9 502.8 255 502.7 254.9 502.7 254.9 502.8"/>
      <polygon class="cls-8" points="255.3 503.1 255.4 503.1 255.3 503 255.3 503.1"/>
      <polygon class="cls-8" points="255.7 503.5 255.7 503.4 255.6 503.4 255.7 503.5"/>
      <path class="cls-8" d="M256.1,503.8h0c0-.1,0,0,0,0Z"/>
      <polygon class="cls-8" points="256.6 504.1 256.7 504.1 256.6 503.9 256.6 504.1"/>
      <polygon class="cls-8" points="257 504.3 257.1 504.3 257 504.2 257 504.3"/>
      <rect class="cls-5" x="257.3" y="504.6" width=".1" height=".1" transform="translate(-5.3 2.7) rotate(-.6)"/>
      <path class="cls-8" d="M258,504.9h0c0-.1,0,0,0,0Z"/>
      <rect class="cls-5" x="258.3" y="505.1" width=".1" height=".1" transform="translate(-5.3 2.7) rotate(-.6)"/>
      <path class="cls-8" d="M258.9,505.3h0c0-.1,0,0,0,0Z"/>
      <rect class="cls-5" x="259.3" y="505.5" width=".1" height=".1" transform="translate(-5.3 2.7) rotate(-.6)"/>
      <rect class="cls-5" x="259.9" y="505.5" width=".1" height=".1" transform="translate(-5.3 2.7) rotate(-.6)"/>
      <polygon class="cls-8" points="260.5 505.8 260.5 505.7 260.3 505.8 260.5 505.8"/>
      <rect class="cls-5" x="260.8" y="505.8" width=".1" height=".1" transform="translate(-5.3 2.8) rotate(-.6)"/>
      <rect class="cls-5" x="261.4" y="505.9" width=".1" height=".1" transform="translate(-5.3 2.8) rotate(-.6)"/>
      <rect class="cls-5" x="261.9" y="506" width=".1" height=".1" transform="translate(-5.3 2.8) rotate(-.6)"/>
      <polygon class="cls-8" points="262.6 506.2 262.6 506.1 262.4 506.1 262.6 506.2"/>
      <rect class="cls-5" x="262.9" y="506.1" width=".1" height=".1" transform="translate(-5.3 2.8) rotate(-.6)"/>
      <rect class="cls-5" x="263.5" y="506" width=".1" height=".1" transform="translate(-5.3 2.8) rotate(-.6)"/>
      <rect class="cls-5" x="264.1" y="506" width=".1" height=".1" transform="translate(-5.3 2.8) rotate(-.6)"/>
      <rect class="cls-5" x="264.6" y="506" width=".1" height=".1" transform="translate(-5.3 2.8) rotate(-.6)"/>
      <polygon class="cls-8" points="265.2 506.2 265.4 506.1 265.2 506.1 265.2 506.2"/>
      <polygon class="cls-8" points="265.8 506 265.8 505.9 265.6 506 265.8 506"/>
      <polygon class="cls-8" points="266.3 506 266.3 505.9 266.2 505.9 266.3 506"/>
      <rect class="cls-5" x="266.7" y="505.8" width=".1" height=".1" transform="translate(-5.3 2.8) rotate(-.6)"/>
      <polygon class="cls-8" points="267.3 505.8 267.4 505.6 267.3 505.6 267.3 505.8"/>
      <rect class="cls-5" x="267.7" y="505.6" width=".1" height=".1" transform="translate(-5.3 2.8) rotate(-.6)"/>
      <polygon class="cls-8" points="268.3 505.3 268.4 505.3 268.3 505.2 268.3 505.3"/>
      <path class="cls-8" d="M268.8,505.2h0c0-.1,0,0,0,0Z"/>
      <polygon class="cls-8" points="269.4 504.9 269.4 504.8 269.2 504.9 269.4 504.9"/>
      <polygon class="cls-8" points="269.8 504.8 269.8 504.6 269.7 504.6 269.8 504.8"/>
      <rect class="cls-5" x="270.2" y="504.3" width=".1" height=".1" transform="translate(-5.3 2.9) rotate(-.6)"/>
      <rect class="cls-5" x="270.6" y="504" width=".1" height=".1" transform="translate(-5.3 2.9) rotate(-.6)"/>
      <rect class="cls-5" x="271.1" y="503.7" width=".1" height=".1" transform="translate(-5.3 2.9) rotate(-.6)"/>
      <path class="cls-8" d="M271.6,503.5h-.1.1Z"/>
      <polygon class="cls-8" points="272 503.2 272 503.1 271.9 503.2 272 503.2"/>
      <polygon class="cls-8" points="272.4 502.9 272.4 502.8 272.3 502.8 272.4 502.9"/>
      <rect class="cls-5" x="272.6" y="502.3" width=".1" height=".1" transform="translate(-5.2 2.9) rotate(-.6)"/>
      <rect class="cls-5" x="273.1" y="501.9" width=".1" height=".1" transform="translate(-5.2 2.9) rotate(-.6)"/>
      <rect class="cls-5" x="273.4" y="501.5" width=".1" height=".1" transform="translate(-5.2 2.9) rotate(-.6)"/>
      <polygon class="cls-8" points="273.8 501.2 273.9 501.2 273.8 501.1 273.8 501.2"/>
      <polygon class="cls-8" points="274.2 500.8 274.2 500.7 274.1 500.8 274.2 500.8"/>
      <rect class="cls-5" x="274.3" y="500.3" width=".1" height=".1" transform="translate(-5.2 2.9) rotate(-.6)"/>
      <polygon class="cls-8" points="274.8 500 274.8 499.8 274.6 500 274.8 500"/>
      <rect class="cls-5" x="274.8" y="499.5" width=".1" height=".1" transform="translate(-5.2 2.9) rotate(-.6)"/>
      <rect class="cls-5" x="275.1" y="498.9" width=".1" height=".1" transform="translate(-5.2 2.9) rotate(-.6)"/>
      <rect class="cls-5" x="275.4" y="498.5" width=".1" height=".1" transform="translate(-5.2 2.9) rotate(-.6)"/>
      <rect class="cls-5" x="275.5" y="497.9" width=".1" height=".1" transform="translate(-5.2 2.9) rotate(-.6)"/>
      <polygon class="cls-8" points="275.9 497.6 276 497.5 275.9 497.5 275.9 497.6"/>
      <rect class="cls-5" x="275.9" y="497" width=".1" height=".1" transform="translate(-5.2 2.9) rotate(-.6)"/>
      <polygon class="cls-8" points="276.1 496.5 276.3 496.5 276.1 496.3 276.1 496.5"/>
      <polygon class="cls-8" points="276.3 496 276.4 495.9 276.3 495.9 276.3 496"/>
      <polygon class="cls-8" points="206 476.9 207.5 470.9 204.7 476.5 206.2 470.6 206 476.9"/>
      <polygon class="cls-8" points="207.6 470.6 206.4 470.3 206.2 470.6 207.1 470.9 207.1 470.7 207.5 470.9 207.6 470.6"/>
      <polygon class="cls-8" points="206 476.9 206.1 476.5 212 477.9 212 478.4 206 476.9"/>
      <polygon class="cls-8" points="206 477.2 204.6 476.8 204.7 476.5 205.6 476.6 205.6 476.7 206 476.9 206 477.2"/>
      <polygon class="cls-8" points="275.6 484.1 275.5 477.8 277 483.9 276.9 477.9 275.6 484.1"/>
      <polygon class="cls-8" points="275.5 477.7 276.9 477.7 276.9 477.9 276.1 478 276.1 477.8 275.5 477.8 275.5 477.7"/>
      <polygon class="cls-8" points="275.6 484.4 277 484.4 277 483.9 276.1 483.9 276.1 484.1 275.6 484.1 275.6 484.4"/>
      <polyline class="cls-8" points="262.3 506.5 264.8 506.6 267.2 506.2 269.5 505.3 271.7 503.9 273.5 502.2 275 500.2 276.1 498 276.8 495.6 277.1 493.1 275.8 375.7 275.5 373.6 274.7 371.8 273.5 370 272 368.8 270.2 367.8 244.2 359.2 241.9 358.8 239.6 359 237.5 359.8 235.6 361.1 234.2 362.9 233.4 365.2 202.6 485 202.2 487.8 202.4 490.6 203.1 493.2 204.4 495.7 206.2 497.9 208.5 499.7"/>
      <polygon class="cls-8" points="264.6 485.5 264.9 485.6 264.9 485.3 264.6 485.3 264.6 485.5"/>
      <rect class="cls-5" x="216.4" y="480.4" width=".3" height=".1" transform="translate(-5 2.3) rotate(-.6)"/>
    </g>
    <rect class="cls-10" x="213.9" y="542.3" width="63" height="26"/>
    <rect class="cls-7" x="213.9" y="568.3" width="63" height="28"/>
    <rect class="cls-7" x="213.9" y="596.4" width="48.8" height="19.8"/>
    <g>
      <path class="cls-2" d="M277,596v.3M251.1,568.6v.3"/>
      <path class="cls-2" d="M251.1,569.3v26.5"/>
      <path class="cls-2" d="M251.1,596v.3M242.2,568.6v.3"/>
      <path class="cls-2" d="M242.2,569.3v26.5"/>
      <path class="cls-2" d="M242.2,596v.3"/>
      <path class="cls-2" d="M273.8,596.4h-22.7"/>
      <path class="cls-2" d="M272.2,568.6h1.6M277,568.6h0"/>
      <path class="cls-2" d="M270.6,568.6h-19.4"/>
      <path class="cls-2" d="M242.2,596.4h-24.3"/>
      <path class="cls-2" d="M242.2,568.6h-24.3"/>
      <path class="cls-2" d="M272.2,568.6v.3"/>
      <path class="cls-2" d="M272.2,569.3v26.5"/>
      <path class="cls-2" d="M272.2,596v.3M270.6,568.6v.3"/>
      <path class="cls-2" d="M270.6,569.3v26.5"/>
      <path class="cls-2" d="M270.6,596v.3M268.9,568.6v.3"/>
      <path class="cls-2" d="M268.9,569.3v26.5"/>
      <path class="cls-2" d="M268.9,596v.3M267.3,568.6v.3"/>
      <path class="cls-2" d="M267.3,569.3v26.5"/>
      <path class="cls-2" d="M267.3,596v.3M265.7,568.6v.3"/>
      <path class="cls-2" d="M265.7,569.3v26.5"/>
      <path class="cls-2" d="M265.7,596v.3M264,568.6v.3"/>
      <path class="cls-2" d="M264,569.3v26.5"/>
      <path class="cls-2" d="M264,596v.3M262.4,568.6v.3"/>
      <path class="cls-2" d="M262.4,569.3v26.5"/>
      <path class="cls-2" d="M262.4,596v.3M260.8,568.6v.3"/>
      <path class="cls-2" d="M260.8,569.3v26.5"/>
      <path class="cls-2" d="M260.8,596v.3M259.2,568.6v.3"/>
      <path class="cls-2" d="M259.2,569.3v26.5"/>
      <path class="cls-2" d="M259.2,596v.3M257.6,568.6v.3"/>
      <path class="cls-2" d="M257.6,569.3v26.5"/>
      <path class="cls-2" d="M257.6,596v.3M256,568.6v.3"/>
      <path class="cls-2" d="M256,569.3v26.5"/>
      <path class="cls-2" d="M256,596v.3M254.4,568.6v.3"/>
      <path class="cls-2" d="M254.4,569.3v26.5"/>
      <path class="cls-2" d="M254.4,596v.3M252.8,568.6v.3"/>
      <path class="cls-2" d="M252.8,569.3v26.5"/>
      <path class="cls-2" d="M252.8,596v.3M251.1,568.6v.3"/>
      <path class="cls-2" d="M251.1,569.3v26.5"/>
      <path class="cls-2" d="M251.1,596v.3M242.2,568.6v.3"/>
      <path class="cls-2" d="M242.2,569.3v26.5"/>
      <path class="cls-2" d="M242.2,596v.3M240.6,568.6v.3"/>
      <path class="cls-2" d="M240.6,569.3v26.5"/>
      <path class="cls-2" d="M240.6,596v.3M238.9,568.6v.3"/>
      <path class="cls-2" d="M238.9,569.3v26.5"/>
      <path class="cls-2" d="M238.9,596v.3M237.3,568.6v.3"/>
      <path class="cls-2" d="M237.3,569.3v26.5"/>
      <path class="cls-2" d="M237.3,596v.3M235.7,568.6v.3"/>
      <path class="cls-2" d="M235.7,569.3v26.5"/>
      <path class="cls-2" d="M235.7,596v.3M234.1,568.6v.3"/>
      <path class="cls-2" d="M234.1,569.3v26.5"/>
      <path class="cls-2" d="M234.1,596v.3M232.4,568.6v.3"/>
      <path class="cls-2" d="M232.4,569.3v26.5"/>
      <path class="cls-2" d="M232.4,596v.3M230.8,568.6v.3"/>
      <path class="cls-2" d="M230.8,569.3v26.5"/>
      <path class="cls-2" d="M230.8,596v.3M229.2,568.6v.3"/>
      <path class="cls-2" d="M229.2,569.3v26.5"/>
      <path class="cls-2" d="M229.2,596v.3M227.6,568.6v.3"/>
      <path class="cls-2" d="M227.6,569.3v26.5"/>
      <path class="cls-2" d="M227.6,596v.3M226,568.6v.3"/>
      <path class="cls-2" d="M226,569.3v26.5"/>
      <path class="cls-2" d="M226,596v.3M224.4,568.6v.3"/>
      <path class="cls-2" d="M224.4,569.3v26.5"/>
      <path class="cls-2" d="M224.4,596v.3M222.8,568.6v.3"/>
      <path class="cls-2" d="M222.8,569.3v26.5"/>
      <path class="cls-2" d="M222.8,596v.3M221.1,568.6v.3"/>
      <path class="cls-2" d="M221.1,569.3v26.5"/>
      <path class="cls-2" d="M221.1,596v.3M219.5,568.6v.3"/>
      <path class="cls-2" d="M219.5,569.3v26.5"/>
      <path class="cls-2" d="M219.5,596v.3M272.2,568.6v.3"/>
      <path class="cls-2" d="M272.2,569.3v26.5"/>
      <path class="cls-2" d="M272.2,596v.3M270.6,568.6v.3"/>
      <path class="cls-2" d="M270.6,569.3v26.5"/>
      <path class="cls-2" d="M270.6,596v.3M268.9,568.6v.3"/>
      <path class="cls-2" d="M268.9,569.3v26.5"/>
      <path class="cls-2" d="M268.9,596v.3M267.3,568.6v.3"/>
      <path class="cls-2" d="M267.3,569.3v26.5"/>
      <path class="cls-2" d="M267.3,596v.3M265.7,568.6v.3"/>
      <path class="cls-2" d="M265.7,569.3v26.5"/>
      <path class="cls-2" d="M265.7,596v.3M264,568.6v.3"/>
      <path class="cls-2" d="M264,569.3v26.5"/>
      <path class="cls-2" d="M264,596v.3M262.4,568.6v.3"/>
      <path class="cls-2" d="M262.4,569.3v26.5"/>
      <path class="cls-2" d="M262.4,596v.3M260.8,568.6v.3"/>
      <path class="cls-2" d="M260.8,569.3v26.5"/>
      <path class="cls-2" d="M260.8,596v.3M259.2,568.6v.3"/>
      <path class="cls-2" d="M259.2,569.3v26.5"/>
      <path class="cls-2" d="M259.2,596v.3M257.6,568.6v.3"/>
      <path class="cls-2" d="M257.6,569.3v26.5"/>
      <path class="cls-2" d="M257.6,596v.3M256,568.6v.3"/>
      <path class="cls-2" d="M256,569.3v26.5"/>
      <path class="cls-2" d="M256,596v.3M254.4,568.6v.3"/>
      <path class="cls-2" d="M254.4,569.3v26.5"/>
      <path class="cls-2" d="M254.4,596v.3M252.8,568.6v.3"/>
      <path class="cls-2" d="M252.8,569.3v26.5"/>
      <path class="cls-2" d="M252.8,596v.3M240.6,568.6v.3"/>
      <path class="cls-2" d="M240.6,569.3v26.5"/>
      <path class="cls-2" d="M240.6,596v.3M238.9,568.6v.3"/>
      <path class="cls-2" d="M238.9,569.3v26.5"/>
      <path class="cls-2" d="M238.9,596v.3M237.3,568.6v.3"/>
      <path class="cls-2" d="M237.3,569.3v26.5"/>
      <path class="cls-2" d="M237.3,596v.3M235.7,568.6v.3"/>
      <path class="cls-2" d="M235.7,569.3v26.5"/>
      <path class="cls-2" d="M235.7,596v.3M234.1,568.6v.3"/>
      <path class="cls-2" d="M234.1,569.3v26.5"/>
      <path class="cls-2" d="M234.1,596v.3M232.4,568.6v.3"/>
      <path class="cls-2" d="M232.4,569.3v26.5"/>
      <path class="cls-2" d="M232.4,596v.3M230.8,568.6v.3"/>
      <path class="cls-2" d="M230.8,569.3v26.5"/>
      <path class="cls-2" d="M230.8,596v.3M229.2,568.6v.3"/>
      <path class="cls-2" d="M229.2,569.3v26.5"/>
      <path class="cls-2" d="M229.2,596v.3M227.6,568.6v.3"/>
      <path class="cls-2" d="M227.6,569.3v26.5"/>
      <path class="cls-2" d="M227.6,596v.3M226,568.6v.3"/>
      <path class="cls-2" d="M226,569.3v26.5"/>
      <path class="cls-2" d="M226,596v.3M224.4,568.6v.3"/>
      <path class="cls-2" d="M224.4,569.3v26.5"/>
      <path class="cls-2" d="M224.4,596v.3M222.8,568.6v.3"/>
      <path class="cls-2" d="M222.8,569.3v26.5"/>
      <path class="cls-2" d="M222.8,596v.3M221.1,568.6v.3"/>
      <path class="cls-2" d="M221.1,569.3v26.5"/>
      <path class="cls-2" d="M221.1,596v.3M219.5,568.6v.3"/>
      <path class="cls-2" d="M219.5,569.3v26.5"/>
      <path class="cls-2" d="M219.5,596v.3"/>
      <path class="cls-2" d="M277,596v-.3h-62.3v.3"/>
      <path class="cls-2" d="M277,596h-62.3"/>
      <path class="cls-2" d="M277,569.3v-.3h-62.3v.3"/>
      <path class="cls-2" d="M277,569.3h-62.3"/>
      <path class="cls-2" d="M215.9,584.1l-1.3-1.6,1.3-1.5"/>
      <path class="cls-2" d="M215.9,584.1l.3-.4M215.9,580.9l.3.4"/>
      <path class="cls-2" d="M216.2,583.6l-.9-1.2.9-1.1"/>
      <path class="cls-2" d="M217.9,568.6v.3"/>
      <path class="cls-2" d="M217.9,569.3v26.5"/>
      <path class="cls-2" d="M217.9,596v.3M217.9,568.6v.3"/>
      <path class="cls-2" d="M217.9,569.3v26.5"/>
      <path class="cls-2" d="M217.9,596v.3M216.3,568.6v.3"/>
      <path class="cls-2" d="M216.3,569.3v26.5"/>
      <path class="cls-2" d="M216.3,596v.3M216.3,568.6v.3"/>
      <path class="cls-2" d="M216.3,569.3v26.5"/>
      <path class="cls-2" d="M216.3,596v.3M214.6,568.6v.3"/>
      <path class="cls-2" d="M214.6,569.3v26.5"/>
      <path class="cls-2" d="M214.6,596v.3M214.6,568.6v.3"/>
      <path class="cls-2" d="M214.6,569.3v26.5"/>
      <path class="cls-2" d="M214.6,596v.3M216.3,596.4h1.6M216.3,568.6h1.6M214.6,596.4h1.6M214.6,568.6h1.6M273.8,568.6v.3"/>
      <path class="cls-2" d="M273.8,569.3v26.5"/>
      <path class="cls-2" d="M273.8,596v.3M273.8,568.6v.3"/>
      <path class="cls-2" d="M273.8,569.3v26.5"/>
      <path class="cls-2" d="M273.8,568.6h1.6v.3"/>
      <path class="cls-2" d="M275.4,569.3v26.5"/>
      <path class="cls-2" d="M275.4,596v.3M275.4,568.6v.3"/>
      <path class="cls-2" d="M275.4,569.3v26.5"/>
      <path class="cls-2" d="M275.4,596v.3h1.5"/>
      <path class="cls-2" d="M214.6,569.2h0"/>
      <path class="cls-2" d="M214.6,569.2h0"/>
      <path class="cls-2" d="M214.6,595.8h0"/>
      <path class="cls-2" d="M214.6,595.8h0"/>
    </g>
    <rect class="cls-1" x="225.8" y="542.3" width="26" height="26"/>
    <rect class="cls-1" x="251.1" y="542.3" width="25.9" height="26.3"/>
  </g>
  <g id="Layer_30" data-name="Layer 30">
    <polygon class="cls-3" points="442.7 682.3 436.6 700.9 563.7 702.3 570.2 681.8 442.7 682.3"/>
    <g id="Layer_25-11" data-name="Layer 25-11">
      <g class="cls-13">
        <g class="cls-13">
          <text class="cls-12" transform="translate(475.8 694.2)"><tspan x="0" y="0">4054~4061 캐럴</tspan></text>
        </g>
      </g>
    </g>
  </g>
</svg>