<?xml version="1.0" encoding="UTF-8"?><svg
  xmlns="http://www.w3.org/2000/svg"
  viewBox="0 0 2500 1100"
>
  <g id="Layer_border">
    <polygon
      points="2151.47 264.09 2151.47 306.96 1442.26 306.96 1442.26 217.3 1394.54 217.3 1394.54 271.09 1106.4 271.09 1106.4 217.3 1058.68 217.3 1058.68 306.96 349.47 306.96 349.47 264.09 118.68 264.09 118.68 306.96 118.68 462.33 118.68 833.02 923.65 833.02 1054.41 833.02 1068.17 833.02 1068.17 882.7 1435.19 882.7 1435.19 833.02 1446.52 833.02 1511.45 833.02 2382.25 833.02 2382.25 462.33 2382.25 306.96 2382.25 264.09 2151.47 264.09"
      fill="none"
    />
    <polygon
      points="2151.47 264.09 2151.47 306.96 1442.26 306.96 1442.26 217.3 1394.54 217.3 1394.54 271.09 1106.4 271.09 1106.4 217.3 1058.68 217.3 1058.68 306.96 349.47 306.96 349.47 264.09 118.68 264.09 118.68 306.96 118.68 462.33 118.68 833.02 923.65 833.02 1054.41 833.02 1068.17 833.02 1068.17 882.7 1435.19 882.7 1435.19 833.02 1446.52 833.02 1511.45 833.02 2382.25 833.02 2382.25 462.33 2382.25 306.96 2382.25 264.09 2151.47 264.09"
      fill="none"
    />
    <polygon
      points="2151.47 264.09 2151.47 306.96 1442.26 306.96 1442.26 217.3 1394.54 217.3 1394.54 271.09 1106.4 271.09 1106.4 217.3 1058.68 217.3 1058.68 306.96 349.47 306.96 349.47 264.09 118.68 264.09 118.68 306.96 118.68 462.33 118.68 833.02 923.65 833.02 1054.41 833.02 1068.17 833.02 1068.17 882.7 1435.19 882.7 1435.19 833.02 1446.52 833.02 1511.45 833.02 2382.25 833.02 2382.25 462.33 2382.25 306.96 2382.25 264.09 2151.47 264.09"
      fill="none"
    />
    <polygon
      points="1063.38 887.49 1063.38 837.81 301.27 837.81 301.27 887.49 112.31 887.49 113.9 306.94 113.9 259.3 354.25 259.3 354.25 302.17 1053.89 302.17 1053.89 212.51 1111.19 212.51 1111.19 266.3 1389.75 266.3 1389.75 212.51 1447.05 212.51 1447.05 302.17 2146.68 302.17 2146.68 259.3 2387.04 259.3 2387.69 887.49 2198.73 887.49 2198.73 837.81 1439.98 837.81 1439.98 887.49 1063.38 887.49"
      fill="#fef3f2"
    />
    <path
      d="m1442.26,217.3v89.66h709.21v-42.86h230.78c.21,206.2.43,412.41.64,618.61h-179.38v-49.68h-768.33v49.68h-367.02v-49.68H296.48v49.68H117.11c.53-191.91,1.05-383.83,1.58-575.74v-42.86h230.78v42.86h709.21v-89.66h47.72v53.79h288.14v-53.79h47.72m9.58-9.58h-66.87v53.79h-268.98v-53.79h-66.87v89.66H359.04v-42.86H109.11v52.44l-1.58,575.72-.03,9.6h198.56v-49.68h752.53v49.68h386.17v-49.68h749.18v49.68h198.54v-9.59s-.33-309.3-.33-309.3l-.32-309.3v-9.57h-249.94v42.86h-690.06v-89.66h0Z"
      fill="#ea8b8b"
    />
    <polygon
      points="2382.25 795.3 2382.25 462.33 2382.25 306.96 2382.25 264.09 2151.47 264.09 2151.47 306.96 1442.26 306.96 1442.26 217.3 1394.54 217.3 1394.54 271.09 1106.4 271.09 1106.4 217.3 1058.68 217.3 1058.68 306.96 349.47 306.96 349.47 264.09 118.68 264.09 118.68 306.96 118.68 462.33 118.68 795.3 117.11 795.3 117.11 882.7 296.48 882.7 296.48 833.02 923.65 833.02 1054.41 833.02 1068.17 833.02 1068.17 882.7 1435.19 882.7 1435.19 833.02 1446.52 833.02 1511.45 833.02 2203.52 833.02 2203.52 882.7 2382.89 882.7 2382.89 795.3 2382.25 795.3"
      fill="none"
    />
    <rect
      x="872.09"
      y="442.61"
      width="72.51"
      height="68.61"
      fill="#fed0d0"
      stroke="#ea8b8b"
      stroke-miterlimit="10"
      stroke-width="3"
    />
    <text
      transform="translate(877.54 486.32)"
      fill="#424142"
      font-family="NanumSquareNeovariable-Heavy, 'NanumSquare Neo variable'"
      font-size="32"
      font-variation-settings="'wght' 900"
      font-weight="800"
    >
      <tspan x="0" y="0" letter-spacing="0em">5</tspan>
      <tspan x="22.05" y="0">13</tspan>
    </text>
    <path
      d="m2382.25,264.09h-230.78v42.86h-709.21v-89.66h-47.72v53.79h-288.14v-53.79h-47.72v89.66H349.47v-42.86H118.68v42.86c-.53,191.91-1.05,383.83-1.58,575.74h179.38v-49.68h771.69v49.68h367.02v-49.68h768.33v49.68h179.38c-.21-206.2-.43-412.41-.64-618.61Z"
      fill="none"
    />
  </g>
  <g id="Layer_others">
    <line
      x1="1240.84"
      y1="271.09"
      x2="1240.84"
      y2="502.59"
      fill="none"
      opacity=".7"
      stroke="#ea8b8b"
      stroke-miterlimit="10"
      stroke-width="9.88"
    />
    <rect
      x="1242.02"
      y="319.13"
      width="200.38"
      height="89.29"
      fill="#fef3f2"
      stroke="#ea8b8b"
      stroke-miterlimit="10"
      stroke-width="3.13"
    />
    <line
      x1="1443.5"
      y1="333.65"
      x2="1240.84"
      y2="333.65"
      fill="none"
      stroke="#ea8b8b"
      stroke-miterlimit="10"
      stroke-width="2.08"
    />
    <line
      x1="1443.5"
      y1="348.71"
      x2="1240.84"
      y2="348.71"
      fill="none"
      stroke="#ea8b8b"
      stroke-miterlimit="10"
      stroke-width="2.08"
    />
    <line
      x1="1443.5"
      y1="363.77"
      x2="1240.84"
      y2="363.77"
      fill="none"
      stroke="#ea8b8b"
      stroke-miterlimit="10"
      stroke-width="2.08"
    />
    <line
      x1="1443.5"
      y1="378.83"
      x2="1240.84"
      y2="378.83"
      fill="none"
      stroke="#ea8b8b"
      stroke-miterlimit="10"
      stroke-width="2.08"
    />
    <line
      x1="1443.5"
      y1="393.89"
      x2="1240.84"
      y2="393.89"
      fill="none"
      stroke="#ea8b8b"
      stroke-miterlimit="10"
      stroke-width="2.08"
    />
    <rect
      x="2266.13"
      y="264.5"
      width="116.77"
      height="230.41"
      fill="#fed0d0"
      stroke="#ea8b8b"
      stroke-miterlimit="10"
      stroke-width="2.9"
    />
    <rect
      x="2266.11"
      y="266.41"
      width="116.11"
      height="141.95"
      fill="#fef3f2"
      stroke="#ea8b8b"
      stroke-miterlimit="10"
      stroke-width="3"
    />
    <line
      x1="2382.86"
      y1="282.46"
      x2="2265.43"
      y2="282.46"
      fill="none"
      stroke="#ea8b8b"
      stroke-miterlimit="10"
      stroke-width="3"
    />
    <line
      x1="2382.86"
      y1="300.77"
      x2="2265.43"
      y2="300.77"
      fill="none"
      stroke="#ea8b8b"
      stroke-miterlimit="10"
      stroke-width="3"
    />
    <line
      x1="2382.86"
      y1="319.08"
      x2="2265.43"
      y2="319.08"
      fill="none"
      stroke="#ea8b8b"
      stroke-miterlimit="10"
      stroke-width="3"
    />
    <line
      x1="2382.86"
      y1="337.39"
      x2="2265.43"
      y2="337.39"
      fill="none"
      stroke="#ea8b8b"
      stroke-miterlimit="10"
      stroke-width="3"
    />
    <line
      x1="2382.86"
      y1="355.7"
      x2="2265.43"
      y2="355.7"
      fill="none"
      stroke="#ea8b8b"
      stroke-miterlimit="10"
      stroke-width="3"
    />
    <line
      x1="2382.86"
      y1="374.01"
      x2="2265.43"
      y2="374.01"
      fill="none"
      stroke="#ea8b8b"
      stroke-miterlimit="10"
      stroke-width="3"
    />
    <line
      x1="2382.88"
      y1="392.32"
      x2="2265.45"
      y2="392.32"
      fill="none"
      stroke="#ea8b8b"
      stroke-miterlimit="10"
      stroke-width="3"
    />
    <rect
      x="117.11"
      y="264.5"
      width="124.4"
      height="230.41"
      fill="#fed0d0"
      stroke="#ea8b8b"
      stroke-miterlimit="10"
      stroke-width="2.89"
    />
    <rect
      x="117.47"
      y="277.14"
      width="123.69"
      height="141.95"
      fill="#fef3f2"
      stroke="#ea8b8b"
      stroke-miterlimit="10"
      stroke-width="3.1"
    />
    <line
      x1="241.84"
      y1="293.19"
      x2="116.74"
      y2="293.19"
      fill="none"
      stroke="#ea8b8b"
      stroke-miterlimit="10"
      stroke-width="2.06"
    />
    <line
      x1="241.84"
      y1="311.5"
      x2="116.74"
      y2="311.5"
      fill="none"
      stroke="#ea8b8b"
      stroke-miterlimit="10"
      stroke-width="2.06"
    />
    <line
      x1="241.84"
      y1="329.81"
      x2="116.74"
      y2="329.81"
      fill="none"
      stroke="#ea8b8b"
      stroke-miterlimit="10"
      stroke-width="2.06"
    />
    <line
      x1="241.84"
      y1="348.12"
      x2="116.74"
      y2="348.12"
      fill="none"
      stroke="#ea8b8b"
      stroke-miterlimit="10"
      stroke-width="2.06"
    />
    <line
      x1="241.84"
      y1="366.43"
      x2="116.74"
      y2="366.43"
      fill="none"
      stroke="#ea8b8b"
      stroke-miterlimit="10"
      stroke-width="2.06"
    />
    <line
      x1="241.84"
      y1="384.74"
      x2="116.74"
      y2="384.74"
      fill="none"
      stroke="#ea8b8b"
      stroke-miterlimit="10"
      stroke-width="2.06"
    />
    <line
      x1="241.87"
      y1="403.04"
      x2="116.77"
      y2="403.04"
      fill="none"
      stroke="#ea8b8b"
      stroke-miterlimit="10"
      stroke-width="2.06"
    />
    <polygon
      points="2264.5 306.5 2264.5 264.5 2151.5 264.5 2151.5 306.5 1846.2 306.5 1846.2 833.02 2266.15 833.02 2266.15 306.5 2264.5 306.5"
      fill="#fed0d0"
      stroke="#ea8b8b"
      stroke-miterlimit="10"
      stroke-width="2.85"
    />
    <rect
      x="1766.29"
      y="511.21"
      width="79.91"
      height="88.59"
      fill="#fed0d0"
      stroke="#ea8b8b"
      stroke-miterlimit="10"
      stroke-width="3"
    />
  </g>
  <g id="Layer_toilet1">
    <rect
      x="1442.4"
      y="301.5"
      width="100.95"
      height="208.7"
      fill="none"
      stroke="#ea8b8b"
      stroke-miterlimit="10"
      stroke-width="3"
    />
  </g>
  <g id="Layer_toilet2">
    <rect
      x="944.6"
      y="301.5"
      width="106.04"
      height="209.71"
      fill="none"
      stroke="#ea8b8b"
      stroke-miterlimit="10"
      stroke-width="3"
    />
  </g>
  <g id="Layer_501">
    <rect
      x="1064.28"
      y="599.8"
      width="177.75"
      height="282.7"
      fill="#fed0d0"
      stroke="#ea8b8b"
      stroke-miterlimit="10"
      stroke-width="2.78"
    />
    <text
      transform="translate(1121.81 785.68)"
      fill="#424142"
      font-family="NanumSquareNeovariable-Heavy, 'NanumSquare Neo variable'"
      font-size="32"
      font-variation-settings="'wght' 900"
      font-weight="800"
    >
      <tspan x="0" y="0">501</tspan>
    </text>
  </g>
  <g id="Layer_501A">
    <rect
      x="1064.28"
      y="599.8"
      width="95.29"
      height="95.29"
      fill="#fed0d0"
      stroke="#ea8b8b"
      stroke-miterlimit="10"
      stroke-width="3"
    />
    <text
      transform="translate(1067.81 656.67)"
      fill="#424142"
      font-family="NanumSquareNeovariable-Heavy, 'NanumSquare Neo variable'"
      font-size="32"
      font-variation-settings="'wght' 900"
      font-weight="800"
    >
      <tspan x="0" y="0">501A</tspan>
    </text>
  </g>
  <g id="Layer_502">
    <rect
      x="1242.02"
      y="599.8"
      width="193.17"
      height="125.3"
      fill="#fed0d0"
      stroke="#ea8b8b"
      stroke-miterlimit="10"
      stroke-width="3"
    />
    <text
      transform="translate(1304.3 671.85)"
      fill="#424142"
      font-family="NanumSquareNeovariable-Heavy, 'NanumSquare Neo variable'"
      font-size="32"
      font-variation-settings="'wght' 900"
      font-weight="800"
    >
      <tspan x="0" y="0">502</tspan>
    </text>
  </g>
  <g id="Layer_501B">
    <rect
      x="1242.02"
      y="725.1"
      width="193.17"
      height="157.4"
      fill="#fed0d0"
      stroke="#ea8b8b"
      stroke-miterlimit="10"
      stroke-width="2.64"
    />
    <text
      transform="translate(1295.09 813.05)"
      fill="#424142"
      font-family="NanumSquareNeovariable-Heavy, 'NanumSquare Neo variable'"
      font-size="32"
      font-variation-settings="'wght' 900"
      font-weight="800"
    >
      <tspan x="0" y="0">501B</tspan>
    </text>
  </g>
  <g id="Layer_503">
    <rect
      x="1435.19"
      y="599.8"
      width="102.75"
      height="233.2"
      fill="#fed0d0"
      stroke="#ea8b8b"
      stroke-miterlimit="10"
      stroke-width="2.72"
    />
    <text
      transform="translate(1451.89 741.25)"
      fill="#424142"
      font-family="NanumSquareNeovariable-Heavy, 'NanumSquare Neo variable'"
      font-size="32"
      font-variation-settings="'wght' 900"
      font-weight="800"
    >
      <tspan x="0" y="0">503</tspan>
    </text>
  </g>
  <g id="Layer_504">
    <rect
      x="1537.94"
      y="599.8"
      width="102.75"
      height="233.2"
      fill="#fed0d0"
      stroke="#ea8b8b"
      stroke-miterlimit="10"
      stroke-width="2.72"
    />
    <text
      transform="translate(1554.74 741.25)"
      fill="#424142"
      font-family="NanumSquareNeovariable-Heavy, 'NanumSquare Neo variable'"
      font-size="32"
      font-variation-settings="'wght' 900"
      font-weight="800"
    >
      <tspan x="0" y="0">504</tspan>
    </text>
  </g>
  <g id="Layer_505">
    <rect
      x="1640.69"
      y="599.8"
      width="102.75"
      height="233.2"
      fill="#fed0d0"
      stroke="#ea8b8b"
      stroke-miterlimit="10"
      stroke-width="2.72"
    />
    <text
      transform="translate(1657.77 741.25)"
      fill="#424142"
      font-family="NanumSquareNeovariable-Heavy, 'NanumSquare Neo variable'"
      font-size="32"
      font-variation-settings="'wght' 900"
      font-weight="800"
    >
      <tspan x="0" y="0">505</tspan>
    </text>
  </g>
  <g id="Layer_506">
    <rect
      x="1743.45"
      y="599.8"
      width="102.75"
      height="233.2"
      fill="#fed0d0"
      stroke="#ea8b8b"
      stroke-miterlimit="10"
      stroke-width="2.72"
    />
    <text
      transform="translate(1760.17 741.25)"
      fill="#424142"
      font-family="NanumSquareNeovariable-Heavy, 'NanumSquare Neo variable'"
      font-size="32"
      font-variation-settings="'wght' 900"
      font-weight="800"
    >
      <tspan x="0" y="0">506</tspan>
    </text>
  </g>
  <g id="Layer_508">
    <rect
      x="1745.25"
      y="306.5"
      width="100.95"
      height="203.7"
      fill="#fed0d0"
      stroke="#ea8b8b"
      stroke-miterlimit="10"
      stroke-width="2.79"
    />
    <text
      transform="translate(1761.67 414.96)"
      fill="#424142"
      font-family="NanumSquareNeovariable-Heavy, 'NanumSquare Neo variable'"
      font-size="32"
      font-variation-settings="'wght' 900"
      font-weight="800"
    >
      <tspan x="0" y="0">508</tspan>
    </text>
  </g>
  <g id="Layer_509">
    <rect
      x="1644.3"
      y="306.5"
      width="100.95"
      height="203.7"
      fill="#fed0d0"
      stroke="#ea8b8b"
      stroke-miterlimit="10"
      stroke-width="2.79"
    />
    <text
      transform="translate(1659.22 414.96)"
      fill="#424142"
      font-family="NanumSquareNeovariable-Heavy, 'NanumSquare Neo variable'"
      font-size="32"
      font-variation-settings="'wght' 900"
      font-weight="800"
    >
      <tspan x="0" y="0">509</tspan>
    </text>
  </g>
  <g id="Layer_510">
    <rect
      x="1543.35"
      y="306.5"
      width="100.95"
      height="203.7"
      fill="#fed0d0"
      stroke="#ea8b8b"
      stroke-miterlimit="10"
      stroke-width="2.79"
    />
  </g>
  <g id="Layer_502A">
    <polygon
      points="2340.39 798.33 2340.39 697.35 2189.86 697.35 2189.86 833.02 2305.7 833.02 2340.39 798.33"
      fill="#fed0d0"
      stroke="#ea8b8b"
      stroke-miterlimit="10"
      stroke-width="3"
    />
    <text
      transform="translate(2216.94 778.67)"
      fill="#424142"
      font-family="NanumSquareNeovariable-Heavy, 'NanumSquare Neo variable'"
      font-size="32"
      font-variation-settings="'wght' 900"
      font-weight="800"
    >
      <tspan x="0" y="0">502A</tspan>
    </text>
  </g>
  <g id="Layer_502B">
    <rect
      x="2207.03"
      y="264.5"
      width="56.98"
      height="137.7"
      fill="#fed0d0"
      stroke="#ea8b8b"
      stroke-miterlimit="10"
      stroke-width="2.84"
    />
    <text
      transform="translate(2199.09 333.65)"
      fill="#424142"
      font-family="NanumSquareNeovariable-Heavy, 'NanumSquare Neo variable'"
      font-size="32"
      font-variation-settings="'wght' 900"
      font-weight="800"
    >
      <tspan x="0" y="0">502B</tspan>
    </text>
  </g>
  <g id="Layer_513">
    <rect
      x="872.09"
      y="442.61"
      width="72.51"
      height="68.61"
      fill="#fed0d0"
      stroke="#ea8b8b"
      stroke-miterlimit="10"
      stroke-width="3"
    />
    <text
      transform="translate(877.54 486.32)"
      fill="#424142"
      font-family="NanumSquareNeovariable-Heavy, 'NanumSquare Neo variable'"
      font-size="32"
      font-variation-settings="'wght' 900"
      font-weight="800"
    >
      <tspan x="0" y="0" letter-spacing="0em">5</tspan>
      <tspan x="22.05" y="0">13</tspan>
    </text>
  </g>
  <g id="Layer_514">
    <rect
      x="872.09"
      y="307.5"
      width="72.51"
      height="135.11"
      fill="#fed0d0"
      stroke="#ea8b8b"
      stroke-miterlimit="10"
      stroke-width="2.85"
    />
    <text
      transform="translate(877.64 372.7)"
      fill="#424142"
      font-family="NanumSquareNeovariable-Heavy, 'NanumSquare Neo variable'"
      font-size="32"
      font-variation-settings="'wght' 900"
      font-weight="800"
    >
      <tspan x="0" y="0" letter-spacing="0em">5</tspan>
      <tspan x="22.05" y="0">14</tspan>
    </text>
  </g>
  <g id="Layer_515">
    <rect
      x="785.72"
      y="307"
      width="86.37"
      height="103.3"
      fill="#fed0d0"
      stroke="#ea8b8b"
      stroke-miterlimit="10"
      stroke-width="2.61"
    />
    <text
      transform="translate(800.37 383.97)"
      fill="#424142"
      font-family="NanumSquareNeovariable-Heavy, 'NanumSquare Neo variable'"
      font-size="30"
      font-variation-settings="'wght' 900"
      font-weight="800"
    >
      <tspan x="0" y="0" letter-spacing="0em">5</tspan>
      <tspan x="20.67" y="0">15</tspan>
    </text>
  </g>
  <g id="Layer_516">
    <rect
      x="699.35"
      y="307"
      width="86.37"
      height="103.3"
      fill="#fed0d0"
      stroke="#ea8b8b"
      stroke-miterlimit="10"
      stroke-width="2.61"
    />
    <text
      transform="translate(713.67 383.97)"
      fill="#424142"
      font-family="NanumSquareNeovariable-Heavy, 'NanumSquare Neo variable'"
      font-size="30"
      font-variation-settings="'wght' 900"
      font-weight="800"
    >
      <tspan x="0" y="0" letter-spacing="0em">5</tspan>
      <tspan x="20.67" y="0">16</tspan>
    </text>
  </g>
  <g id="Layer_517">
    <rect
      x="612.98"
      y="307"
      width="86.37"
      height="103.3"
      fill="#fed0d0"
      stroke="#ea8b8b"
      stroke-miterlimit="10"
      stroke-width="2.61"
    />
    <text
      transform="translate(628.66 383.97)"
      fill="#424142"
      font-family="NanumSquareNeovariable-Heavy, 'NanumSquare Neo variable'"
      font-size="30"
      font-variation-settings="'wght' 900"
      font-weight="800"
    >
      <tspan x="0" y="0" letter-spacing="0em">5</tspan>
      <tspan x="20.67" y="0">17</tspan>
    </text>
  </g>
  <g id="Layer_518">
    <rect
      x="526.61"
      y="307"
      width="86.37"
      height="103.3"
      fill="#fed0d0"
      stroke="#ea8b8b"
      stroke-miterlimit="10"
      stroke-width="2.61"
    />
    <text
      transform="translate(540.65 383.97)"
      fill="#424142"
      font-family="NanumSquareNeovariable-Heavy, 'NanumSquare Neo variable'"
      font-size="30"
      font-variation-settings="'wght' 900"
      font-weight="800"
    >
      <tspan x="0" y="0" letter-spacing="0em">5</tspan>
      <tspan x="20.67" y="0">18</tspan>
    </text>
  </g>
  <g id="Layer_519">
    <rect
      x="440.24"
      y="307"
      width="86.37"
      height="103.3"
      fill="#fed0d0"
      stroke="#ea8b8b"
      stroke-miterlimit="10"
      stroke-width="2.61"
    />
    <text
      transform="translate(454.57 383.97)"
      fill="#424142"
      font-family="NanumSquareNeovariable-Heavy, 'NanumSquare Neo variable'"
      font-size="30"
      font-variation-settings="'wght' 900"
      font-weight="800"
    >
      <tspan x="0" y="0" letter-spacing="0em">5</tspan>
      <tspan x="20.67" y="0">19</tspan>
    </text>
  </g>
  <g id="Layer_520">
    <rect
      x="353.87"
      y="307"
      width="86.37"
      height="103.3"
      fill="#fed0d0"
      stroke="#ea8b8b"
      stroke-miterlimit="10"
      stroke-width="2.61"
    />
    <text
      transform="translate(364.9 383.97)"
      fill="#424142"
      font-family="NanumSquareNeovariable-Heavy, 'NanumSquare Neo variable'"
      font-size="30"
      font-variation-settings="'wght' 900"
      font-weight="800"
    >
      <tspan x="0" y="0">520</tspan>
    </text>
  </g>
  <g id="Layer_521">
    <rect
      x="242.74"
      y="264.5"
      width="111.13"
      height="145.8"
      fill="#fed0d0"
      stroke="#ea8b8b"
      stroke-miterlimit="10"
      stroke-width="2.7"
    />
    <text
      transform="translate(269.63 383.97)"
      fill="#424142"
      font-family="NanumSquareNeovariable-Heavy, 'NanumSquare Neo variable'"
      font-size="30"
      font-variation-settings="'wght' 900"
      font-weight="800"
    >
      <tspan x="0" y="0">521</tspan>
    </text>
  </g>
  <g id="Layer_522">
    <rect
      x="322.07"
      y="452.45"
      width="80.54"
      height="97.55"
      fill="#fed0d0"
      stroke="#ea8b8b"
      stroke-miterlimit="10"
      stroke-width="3"
    />
    <text
      transform="translate(330.88 511.21)"
      fill="#424142"
      font-family="NanumSquareNeovariable-Heavy, 'NanumSquare Neo variable'"
      font-size="30"
      font-variation-settings="'wght' 900"
      font-weight="800"
    >
      <tspan x="0" y="0">522</tspan>
    </text>
  </g>
  <g id="Layer_523">
    <rect
      x="402.61"
      y="452.45"
      width="80.54"
      height="97.55"
      fill="#fed0d0"
      stroke="#ea8b8b"
      stroke-miterlimit="10"
      stroke-width="3"
    />
    <text
      transform="translate(411.08 511.21)"
      fill="#424142"
      font-family="NanumSquareNeovariable-Heavy, 'NanumSquare Neo variable'"
      font-size="30"
      font-variation-settings="'wght' 900"
      font-weight="800"
    >
      <tspan x="0" y="0">523</tspan>
    </text>
  </g>
  <g id="Layer_524">
    <rect
      x="483.15"
      y="452.45"
      width="80.54"
      height="97.55"
      fill="#fed0d0"
      stroke="#ea8b8b"
      stroke-miterlimit="10"
      stroke-width="3"
    />
    <text
      transform="translate(492.16 511.21)"
      fill="#424142"
      font-family="NanumSquareNeovariable-Heavy, 'NanumSquare Neo variable'"
      font-size="30"
      font-variation-settings="'wght' 900"
      font-weight="800"
    >
      <tspan x="0" y="0">5</tspan>
      <tspan x="20.97" y="0" letter-spacing="-.03em">2</tspan>
      <tspan x="41.04" y="0">4</tspan>
    </text>
  </g>
  <g id="Layer_525">
    <rect
      x="563.69"
      y="452.45"
      width="80.54"
      height="97.55"
      fill="#fed0d0"
      stroke="#ea8b8b"
      stroke-miterlimit="10"
      stroke-width="3"
    />
    <text
      transform="translate(572.51 511.21)"
      fill="#424142"
      font-family="NanumSquareNeovariable-Heavy, 'NanumSquare Neo variable'"
      font-size="30"
      font-variation-settings="'wght' 900"
      font-weight="800"
    >
      <tspan x="0" y="0">525</tspan>
    </text>
  </g>
  <g id="Layer_526">
    <rect
      x="644.23"
      y="452.45"
      width="80.54"
      height="97.55"
      fill="#fed0d0"
      stroke="#ea8b8b"
      stroke-miterlimit="10"
      stroke-width="3"
    />
    <text
      transform="translate(652.72 511.21)"
      fill="#424142"
      font-family="NanumSquareNeovariable-Heavy, 'NanumSquare Neo variable'"
      font-size="30"
      font-variation-settings="'wght' 900"
      font-weight="800"
    >
      <tspan x="0" y="0">526</tspan>
    </text>
  </g>
  <g id="Layer_527">
    <rect
      x="724.77"
      y="550"
      width="80.54"
      height="97.55"
      fill="#fed0d0"
      stroke="#ea8b8b"
      stroke-miterlimit="10"
      stroke-width="3"
    />
    <text
      transform="translate(734.61 605.34)"
      fill="#424142"
      font-family="NanumSquareNeovariable-Heavy, 'NanumSquare Neo variable'"
      font-size="30"
      font-variation-settings="'wght' 900"
      font-weight="800"
    >
      <tspan x="0" y="0">527</tspan>
    </text>
  </g>
  <g id="Layer_528">
    <rect
      x="644.23"
      y="550"
      width="80.54"
      height="97.55"
      fill="#fed0d0"
      stroke="#ea8b8b"
      stroke-miterlimit="10"
      stroke-width="3"
    />
    <text
      transform="translate(652.43 605.34)"
      fill="#424142"
      font-family="NanumSquareNeovariable-Heavy, 'NanumSquare Neo variable'"
      font-size="30"
      font-variation-settings="'wght' 900"
      font-weight="800"
    >
      <tspan x="0" y="0">528</tspan>
    </text>
  </g>
  <g id="Layer_529">
    <rect
      x="563.69"
      y="550"
      width="80.54"
      height="97.55"
      fill="#fed0d0"
      stroke="#ea8b8b"
      stroke-miterlimit="10"
      stroke-width="3"
    />
    <text
      transform="translate(572.18 605.34)"
      fill="#424142"
      font-family="NanumSquareNeovariable-Heavy, 'NanumSquare Neo variable'"
      font-size="30"
      font-variation-settings="'wght' 900"
      font-weight="800"
    >
      <tspan x="0" y="0">529</tspan>
    </text>
  </g>
  <g id="Layer_530">
    <rect
      x="483.15"
      y="550"
      width="80.54"
      height="97.55"
      fill="#fed0d0"
      stroke="#ea8b8b"
      stroke-miterlimit="10"
      stroke-width="3"
    />
    <text
      transform="translate(490.91 605.34)"
      fill="#424142"
      font-family="NanumSquareNeovariable-Heavy, 'NanumSquare Neo variable'"
      font-size="30"
      font-variation-settings="'wght' 900"
      font-weight="800"
    >
      <tspan x="0" y="0">530</tspan>
    </text>
  </g>
  <g id="Layer_531">
    <rect
      x="402.61"
      y="550"
      width="80.54"
      height="97.55"
      fill="#fed0d0"
      stroke="#ea8b8b"
      stroke-miterlimit="10"
      stroke-width="3"
    />
    <text
      transform="translate(414 605.34)"
      fill="#424142"
      font-family="NanumSquareNeovariable-Heavy, 'NanumSquare Neo variable'"
      font-size="30"
      font-variation-settings="'wght' 900"
      font-weight="800"
    >
      <tspan x="0" y="0">5</tspan>
      <tspan x="20.97" y="0" letter-spacing="0em">3</tspan>
      <tspan x="42.33" y="0" letter-spacing="0em">1</tspan>
    </text>
  </g>
  <g id="Layer_532">
    <rect
      x="322.07"
      y="550"
      width="80.54"
      height="97.55"
      fill="#fed0d0"
      stroke="#ea8b8b"
      stroke-miterlimit="10"
      stroke-width="3"
    />
    <text
      transform="translate(330.54 605.34)"
      fill="#424142"
      font-family="NanumSquareNeovariable-Heavy, 'NanumSquare Neo variable'"
      font-size="30"
      font-variation-settings="'wght' 900"
      font-weight="800"
    >
      <tspan x="0" y="0">532</tspan>
    </text>
  </g>
  <g id="Layer_533">
    <rect
      x="119.06"
      y="621.28"
      width="110.73"
      height="261.22"
      fill="#fed0d0"
      stroke="#ea8b8b"
      stroke-miterlimit="10"
      stroke-width="3"
    />
    <text
      transform="translate(140.14 742)"
      fill="#424142"
      font-family="NanumSquareNeovariable-Heavy, 'NanumSquare Neo variable'"
      font-size="32"
      font-variation-settings="'wght' 900"
      font-weight="800"
    >
      <tspan x="0" y="0">533</tspan>
    </text>
  </g>
  <g id="Layer_534">
    <rect
      x="229.66"
      y="687.5"
      width="72.29"
      height="195"
      fill="#fed0d0"
      stroke="#ea8b8b"
      stroke-miterlimit="10"
      stroke-width="3.08"
    />
    <text
      transform="translate(231.62 785.68)"
      fill="#424142"
      font-family="NanumSquareNeovariable-Heavy, 'NanumSquare Neo variable'"
      font-size="32"
      font-variation-settings="'wght' 900"
      font-weight="800"
    >
      <tspan x="0" y="0">534</tspan>
    </text>
  </g>
  <g id="Layer_535">
    <rect
      x="301.95"
      y="687.23"
      width="95.29"
      height="145.77"
      fill="#fed0d0"
      stroke="#ea8b8b"
      stroke-miterlimit="10"
      stroke-width="3"
    />
    <text
      transform="translate(315.68 785.68)"
      fill="#424142"
      font-family="NanumSquareNeovariable-Heavy, 'NanumSquare Neo variable'"
      font-size="32"
      font-variation-settings="'wght' 900"
      font-weight="800"
    >
      <tspan x="0" y="0">535</tspan>
    </text>
  </g>
  <g id="Layer_536">
    <rect
      x="397.24"
      y="687.23"
      width="95.29"
      height="145.77"
      fill="#fed0d0"
      stroke="#ea8b8b"
      stroke-miterlimit="10"
      stroke-width="3"
    />
    <text
      transform="translate(410.62 785.68)"
      fill="#424142"
      font-family="NanumSquareNeovariable-Heavy, 'NanumSquare Neo variable'"
      font-size="32"
      font-variation-settings="'wght' 900"
      font-weight="800"
    >
      <tspan x="0" y="0">536</tspan>
    </text>
  </g>
  <g id="Layer_537">
    <rect
      x="492.53"
      y="687.23"
      width="95.29"
      height="145.77"
      fill="#fed0d0"
      stroke="#ea8b8b"
      stroke-miterlimit="10"
      stroke-width="3"
    />
    <text
      transform="translate(507.35 785.68)"
      fill="#424142"
      font-family="NanumSquareNeovariable-Heavy, 'NanumSquare Neo variable'"
      font-size="32"
      font-variation-settings="'wght' 900"
      font-weight="800"
    >
      <tspan x="0" y="0">537</tspan>
    </text>
  </g>
  <g id="Layer_538">
    <rect
      x="587.82"
      y="687.23"
      width="95.29"
      height="145.77"
      fill="#fed0d0"
      stroke="#ea8b8b"
      stroke-miterlimit="10"
      stroke-width="3"
    />
    <text
      transform="translate(600.89 785.68)"
      fill="#424142"
      font-family="NanumSquareNeovariable-Heavy, 'NanumSquare Neo variable'"
      font-size="32"
      font-variation-settings="'wght' 900"
      font-weight="800"
    >
      <tspan x="0" y="0">538</tspan>
    </text>
  </g>
  <g id="Layer_539">
    <rect
      x="683.11"
      y="687.23"
      width="95.29"
      height="145.77"
      fill="#fed0d0"
      stroke="#ea8b8b"
      stroke-miterlimit="10"
      stroke-width="3"
    />
    <text
      transform="translate(696.49 785.68)"
      fill="#424142"
      font-family="NanumSquareNeovariable-Heavy, 'NanumSquare Neo variable'"
      font-size="32"
      font-variation-settings="'wght' 900"
      font-weight="800"
    >
      <tspan x="0" y="0">539</tspan>
    </text>
  </g>
  <g id="Layer_540">
    <rect
      x="778.4"
      y="687.23"
      width="95.29"
      height="145.77"
      fill="#fed0d0"
      stroke="#ea8b8b"
      stroke-miterlimit="10"
      stroke-width="3"
    />
    <text
      transform="translate(791.63 785.68)"
      fill="#424142"
      font-family="NanumSquareNeovariable-Heavy, 'NanumSquare Neo variable'"
      font-size="32"
      font-variation-settings="'wght' 900"
      font-weight="800"
    >
      <tspan x="0" y="0" letter-spacing="0em">5</tspan>
      <tspan x="22.05" y="0">40</tspan>
    </text>
  </g>
  <g id="Layer_541">
    <rect
      x="873.7"
      y="687.23"
      width="95.29"
      height="145.77"
      fill="#fed0d0"
      stroke="#ea8b8b"
      stroke-miterlimit="10"
      stroke-width="3"
    />
    <text
      transform="translate(890.96 785.68)"
      fill="#424142"
      font-family="NanumSquareNeovariable-Heavy, 'NanumSquare Neo variable'"
      font-size="32"
      font-variation-settings="'wght' 900"
      font-weight="800"
    >
      <tspan x="0" y="0" letter-spacing="0em">5</tspan>
      <tspan x="22.05" y="0" letter-spacing="-.02em">4</tspan>
      <tspan x="44.32" y="0">1</tspan>
    </text>
  </g>
  <g id="Layer_542">
    <rect
      x="968.99"
      y="599.8"
      width="95.29"
      height="233.2"
      fill="#fed0d0"
      stroke="#ea8b8b"
      stroke-miterlimit="10"
      stroke-width="3"
    />
    <text
      transform="translate(982.97 742)"
      fill="#424142"
      font-family="NanumSquareNeovariable-Heavy, 'NanumSquare Neo variable'"
      font-size="32"
      font-variation-settings="'wght' 900"
      font-weight="800"
    >
      <tspan x="0" y="0" letter-spacing="0em">5</tspan>
      <tspan x="22.05" y="0">42</tspan>
    </text>
  </g>
</svg>
