<?xml version="1.0" encoding="UTF-8"?><svg xmlns="http://www.w3.org/2000/svg" viewBox="0 0 1920 1080"><g id="Layer_border"><g fill="none" opacity=".6"><rect x="554.58" y="115.5" width="707.92" height="849" fill="#fdf3f2" stroke="#e18686" stroke-miterlimit="10" stroke-width="5"/><rect x="1262.21" y="374.82" width="88.79" height="165.68" fill="#fdf3f2" stroke="#e18686" stroke-miterlimit="10" stroke-width="5"/></g></g><g id="Layer_others"><rect x="940" y="118" width="84" height="190" fill="none" stroke="#e18686" stroke-miterlimit="10" stroke-width="2"/><line x1="940" y1="131.81" x2="1024" y2="131.81" fill="none" stroke="#e18686" stroke-miterlimit="10" stroke-width="2"/><line x1="940" y1="145.42" x2="1024" y2="145.42" fill="none" stroke="#e18686" stroke-miterlimit="10" stroke-width="2"/><line x1="940" y1="159.03" x2="1024" y2="159.03" fill="none" stroke="#e18686" stroke-miterlimit="10" stroke-width="2"/><line x1="940" y1="172.64" x2="1024" y2="172.64" fill="none" stroke="#e18686" stroke-miterlimit="10" stroke-width="2"/><line x1="940" y1="186.26" x2="1024" y2="186.26" fill="none" stroke="#e18686" stroke-miterlimit="10" stroke-width="2"/><line x1="940" y1="199.87" x2="1024" y2="199.87" fill="none" stroke="#e18686" stroke-miterlimit="10" stroke-width="2"/><line x1="940" y1="213.48" x2="1024" y2="213.48" fill="none" stroke="#e18686" stroke-miterlimit="10" stroke-width="2"/><line x1="940" y1="227.09" x2="1024" y2="227.09" fill="none" stroke="#e18686" stroke-miterlimit="10" stroke-width="2"/><line x1="940" y1="240.71" x2="1024" y2="240.71" fill="none" stroke="#e18686" stroke-miterlimit="10" stroke-width="2"/><line x1="940" y1="254.32" x2="1024" y2="254.32" fill="none" stroke="#e18686" stroke-miterlimit="10" stroke-width="2"/><line x1="940" y1="267.93" x2="1024" y2="267.93" fill="none" stroke="#e18686" stroke-miterlimit="10" stroke-width="2"/><line x1="940" y1="281.54" x2="1024" y2="281.54" fill="none" stroke="#e18686" stroke-miterlimit="10" stroke-width="2"/><line x1="940" y1="295.15" x2="1024" y2="295.15" fill="none" stroke="#e18686" stroke-miterlimit="10" stroke-width="2"/><rect x="1134" y="345" width="126" height="197" fill="none" stroke="#e18686" stroke-miterlimit="10" stroke-width="2"/><rect x="867" y="422" width="148" height="120" fill="none" stroke="#e18686" stroke-miterlimit="10" stroke-width="2"/><rect x="791" y="437" width="76" height="58" fill="none" stroke="#e18686" stroke-miterlimit="10" stroke-width="2"/><rect x="791" y="495" width="76" height="47" fill="none" stroke="#e18686" stroke-miterlimit="10" stroke-width="2"/><rect x="555" y="836" width="215" height="129" fill="none" stroke="#e18686" stroke-miterlimit="10" stroke-width="2"/><line x1="742.57" y1="837" x2="742.57" y2="963" fill="none" stroke="#e18686" stroke-miterlimit="10" stroke-width="2"/><line x1="728.15" y1="837" x2="728.15" y2="963" fill="none" stroke="#e18686" stroke-miterlimit="10" stroke-width="2"/><line x1="713.72" y1="837" x2="713.72" y2="963" fill="none" stroke="#e18686" stroke-miterlimit="10" stroke-width="2"/><line x1="699.3" y1="837" x2="699.3" y2="963" fill="none" stroke="#e18686" stroke-miterlimit="10" stroke-width="2"/><line x1="684.87" y1="837" x2="684.87" y2="963" fill="none" stroke="#e18686" stroke-miterlimit="10" stroke-width="2"/><line x1="670.44" y1="837" x2="670.44" y2="963" fill="none" stroke="#e18686" stroke-miterlimit="10" stroke-width="2"/><line x1="656.02" y1="837" x2="656.02" y2="963" fill="none" stroke="#e18686" stroke-miterlimit="10" stroke-width="2"/><line x1="641.59" y1="837" x2="641.59" y2="963" fill="none" stroke="#e18686" stroke-miterlimit="10" stroke-width="2"/><line x1="627.17" y1="837" x2="627.17" y2="963" fill="none" stroke="#e18686" stroke-miterlimit="10" stroke-width="2"/><line x1="612.74" y1="837" x2="612.74" y2="963" fill="none" stroke="#e18686" stroke-miterlimit="10" stroke-width="2"/><line x1="598.32" y1="837" x2="598.32" y2="963" fill="none" stroke="#e18686" stroke-miterlimit="10" stroke-width="2"/><line x1="583.89" y1="837" x2="583.89" y2="963" fill="none" stroke="#e18686" stroke-miterlimit="10" stroke-width="2"/><line x1="569.46" y1="837" x2="569.46" y2="963" fill="none" stroke="#e18686" stroke-miterlimit="10" stroke-width="2"/><line x1="757" y1="837" x2="757" y2="963" fill="none" stroke="#e18686" stroke-miterlimit="10" stroke-width="2"/></g><g id="Layer_toilet1"><rect x="793" y="241" width="147" height="104" fill="none" stroke="#e18686" stroke-miterlimit="10" stroke-width="2"/></g><g id="Layer_toilet2"><rect x="793" y="118" width="147" height="123" fill="none" stroke="#e18686" stroke-miterlimit="10" stroke-width="2"/></g><g id="Layer_206"><rect x="1024" y="117.5" width="238" height="227" fill="#f8cdce" stroke="#e18686" stroke-miterlimit="10" stroke-width="2"/><text transform="translate(1118.52 221.73)" fill="#434142" font-family="NanumSquareNeovariable-Heavy, &apos;NanumSquare Neo variable&apos;" font-size="22" font-variation-settings="&apos;wght&apos; 900" font-weight="800"><tspan x="0" y="0">206</tspan></text><text transform="translate(1091.21 249.73)" fill="#434142" font-family="NanumSquareNeovariable-Regular, &apos;NanumSquare Neo variable&apos;" font-size="22" font-variation-settings="&apos;wght&apos; 300"><tspan x="0" y="0">자유토론실</tspan></text></g><g id="Layer_201"><polygon points="730 542 730 364 555 364 555 836 699 836 730 836 1260 836 1260 542 730 542" fill="#f8cdce" stroke="#e18686" stroke-miterlimit="10" stroke-width="1.99"/><text transform="translate(872.59 676.73)" fill="#434142" font-family="NanumSquareNeovariable-Heavy, &apos;NanumSquare Neo variable&apos;" font-size="22" font-variation-settings="&apos;wght&apos; 900" font-weight="800"><tspan x="0" y="0">202</tspan></text><text transform="translate(849.43 706.73)" fill="#434142" font-family="NanumSquareNeovariable-Regular, &apos;NanumSquare Neo variable&apos;" font-size="22" font-variation-settings="&apos;wght&apos; 300"><tspan x="0" y="0">제1열람실</tspan></text></g><g id="Layer_203"><rect x="555" y="118" width="175" height="123" fill="#f8cdce" stroke="#e18686" stroke-miterlimit="10" stroke-width="2"/><text transform="translate(619.06 184.52)" fill="#434142" font-family="NanumSquareNeovariable-Heavy, &apos;NanumSquare Neo variable&apos;" font-size="22" font-variation-settings="&apos;wght&apos; 900" font-weight="800"><tspan x="0" y="0">203</tspan></text></g><g id="Layer_202"><rect x="555" y="241" width="175" height="123" fill="#f8cdce" stroke="#e18686" stroke-miterlimit="10" stroke-width="2"/><text transform="translate(619.31 307.52)" fill="#434142" font-family="NanumSquareNeovariable-Heavy, &apos;NanumSquare Neo variable&apos;" font-size="22" font-variation-settings="&apos;wght&apos; 900" font-weight="800"><tspan x="0" y="0">202</tspan></text></g></svg>