<?xml version="1.0" encoding="UTF-8"?><svg xmlns="http://www.w3.org/2000/svg" viewBox="0 0 1800 1400"><defs><style>.cls-1{font-size:19px;}.cls-1,.cls-2,.cls-3,.cls-4{fill:#231815;font-family:NanumSquareNeovariable-ExtraBold, 'NanumSquare Neo variable';font-variation-settings:'wght' 700;font-weight:700;}.cls-5{fill:#fdf2f1;stroke-width:10px;}.cls-5,.cls-6,.cls-7{stroke:#e08686;stroke-miterlimit:10;}.cls-2{font-size:36px;}.cls-6{fill:none;}.cls-6,.cls-7{stroke-width:3px;}.cls-3{font-size:24px;}.cls-4{font-size:18px;}.cls-8{letter-spacing:-.02em;}.cls-7{fill:#f8cdcd;}</style></defs><g id="_레이어_x5F_보더"><path class="cls-5" d="M1651.38,715.05h-181.31V250.97h-198.37c-328.08-5.62-688.34-11.8-1036.25-17.76,48.8,161.11,97.6,322.21,146.4,483.32-1.48,129.04-2.96,258.09-4.43,387.13h-144.93v204.29h337.52v-.6c213.67.18,427.33.36,641,.54v.05h259.06v-157.94h145.06v-193.32h36.25v-241.65Z"/></g><g id="layer_x5F_other"><rect class="cls-6" x="1022.48" y="471.89" width="247.7" height="111.58"/><line class="cls-6" x1="1109.78" y1="471.89" x2="1109.78" y2="583.47"/><line class="cls-6" x1="1124.78" y1="471.89" x2="1124.78" y2="583.47"/><line class="cls-6" x1="1139.78" y1="471.89" x2="1139.78" y2="583.47"/><line class="cls-6" x1="1154.78" y1="471.89" x2="1154.78" y2="583.47"/><line class="cls-6" x1="1169.78" y1="471.89" x2="1169.78" y2="583.47"/><line class="cls-6" x1="1184.78" y1="471.89" x2="1184.78" y2="583.47"/><line class="cls-6" x1="1199.78" y1="471.89" x2="1199.78" y2="583.47"/><line class="cls-6" x1="1214.78" y1="471.89" x2="1214.78" y2="583.47"/><line class="cls-6" x1="1229.78" y1="471.89" x2="1229.78" y2="583.47"/><line class="cls-6" x1="1244.78" y1="471.89" x2="1244.78" y2="583.47"/><line class="cls-6" x1="1259.78" y1="471.89" x2="1259.78" y2="583.47"/><polygon class="cls-6" points="1022.48 252.36 1022.48 365.08 1094.35 365.08 1094.35 404.2 1188.51 404.2 1188.51 365.08 1188.51 335.24 1188.51 252.36 1022.48 252.36"/><rect class="cls-6" x="1021.45" y="583.47" width="248.73" height="130.99"/><polygon class="cls-6" points="1470.06 245.48 1236.54 245.48 1236.54 315.66 1236.54 339.17 1236.54 409.34 1343.25 409.34 1343.25 339.17 1470.06 339.17 1470.06 245.48"/><rect class="cls-6" x="1339.67" y="465.34" width="130.4" height="98.33"/><rect class="cls-6" x="1339.67" y="563.67" width="130.4" height="74.87"/><rect class="cls-6" x="1339.67" y="638.54" width="130.4" height="80.17"/><line class="cls-6" x1="1483.27" y1="717.79" x2="1483.27" y2="902.55"/><line class="cls-6" x1="1473.27" y1="717.79" x2="1473.27" y2="902.55"/><line class="cls-6" x1="1463.27" y1="717.79" x2="1463.27" y2="902.55"/><line class="cls-6" x1="1453.27" y1="717.79" x2="1453.27" y2="902.55"/><line class="cls-6" x1="1443.27" y1="717.79" x2="1443.27" y2="902.55"/><line class="cls-6" x1="1433.27" y1="717.79" x2="1433.27" y2="902.55"/><line class="cls-6" x1="1423.27" y1="717.79" x2="1423.27" y2="902.55"/><line class="cls-6" x1="1413.27" y1="717.79" x2="1413.27" y2="902.55"/><line class="cls-6" x1="1403.27" y1="717.79" x2="1403.27" y2="902.55"/><line class="cls-6" x1="1393.27" y1="717.79" x2="1393.27" y2="902.55"/><line class="cls-6" x1="1383.27" y1="717.79" x2="1383.27" y2="902.55"/><line class="cls-6" x1="1373.27" y1="717.79" x2="1373.27" y2="902.55"/><line class="cls-6" x1="1363.27" y1="717.79" x2="1363.27" y2="902.55"/><line class="cls-6" x1="1493.36" y1="717.79" x2="1493.36" y2="902.55"/><rect class="cls-6" x="553.75" y="1088.03" width="248.73" height="112.24"/><rect class="cls-6" x="553.75" y="1200.27" width="248.73" height="107.18"/><rect class="cls-6" x="232.48" y="1164.42" width="248.73" height="143.53"/><line class="cls-6" x1="286.93" y1="1164.42" x2="286.93" y2="1307.95"/><line class="cls-6" x1="296.93" y1="1164.42" x2="296.93" y2="1307.95"/><line class="cls-6" x1="306.93" y1="1164.42" x2="306.93" y2="1307.95"/><line class="cls-6" x1="316.93" y1="1164.42" x2="316.93" y2="1307.95"/><line class="cls-6" x1="326.93" y1="1164.42" x2="326.93" y2="1307.95"/><line class="cls-6" x1="336.93" y1="1164.42" x2="336.93" y2="1307.95"/><line class="cls-6" x1="346.93" y1="1164.42" x2="346.93" y2="1307.95"/><line class="cls-6" x1="356.93" y1="1164.42" x2="356.93" y2="1307.95"/><line class="cls-6" x1="366.93" y1="1164.42" x2="366.93" y2="1307.95"/><line class="cls-6" x1="376.93" y1="1164.42" x2="376.93" y2="1307.95"/><line class="cls-6" x1="386.93" y1="1164.42" x2="386.93" y2="1307.95"/><line class="cls-6" x1="396.93" y1="1164.42" x2="396.93" y2="1307.95"/><line class="cls-6" x1="406.93" y1="1164.42" x2="406.93" y2="1307.95"/><line class="cls-6" x1="416.93" y1="1164.42" x2="416.93" y2="1307.95"/><line class="cls-6" x1="426.93" y1="1164.42" x2="426.93" y2="1307.95"/><line class="cls-6" x1="436.93" y1="1164.42" x2="436.93" y2="1307.95"/><rect class="cls-6" x="233.9" y="1104.3" width="146.42" height="60.12"/><rect class="cls-6" x="380.32" y="1024.5" width="100.89" height="139.91"/><rect class="cls-6" x="380.32" y="714.46" width="100.89" height="310.05"/><text class="cls-1" transform="translate(1391.59 612.89)"><tspan class="cls-8" x="0" y="0">P</tspan><tspan x="13.17" y="0">S</tspan></text><text class="cls-1" transform="translate(1360.77 677.44)"><tspan x="0" y="0">E</tspan><tspan class="cls-8" x="12.35" y="0">P</tspan><tspan x="25.52" y="0">S/T</tspan><tspan class="cls-8" x="61.65" y="0">P</tspan><tspan x="74.82" y="0">S</tspan></text><text class="cls-3" transform="translate(643.99 1156.87)"><tspan x="0" y="0">방재실</tspan></text><text class="cls-3" transform="translate(637.89 1256.38)"><tspan x="0" y="0">MDF실</tspan></text><text class="cls-4" transform="translate(405.17 1104.3)"><tspan x="0" y="0">경비실</tspan></text><text class="cls-4" transform="translate(279.82 1144.15)"><tspan x="0" y="0">숙실실</tspan></text></g><g id="layer_x5F_102"><polygon class="cls-7" points="1328.3 992.8 1328.3 1083.21 1105.49 1083.21 1105.49 1307.95 1474.29 1307.95 1474.29 1123.25 1474.29 1083.21 1474.29 992.8 1328.3 992.8"/><text class="cls-2" transform="translate(1267.78 1179.2)"><tspan x="0" y="0">102</tspan><tspan x="-16.63" y="43.2">실험실</tspan></text></g><g id="layer_x5F_101"><path class="cls-7" d="M1022.48,712.48c-211.75,1.35-423.51,2.69-635.26,4.04-48.39-158.86-96.78-317.72-145.18-476.57,260.14,2.6,520.29,5.2,780.43,7.8v464.74Z"/><text class="cls-2" transform="translate(616.12 488.39)"><tspan x="0" y="0">101</tspan><tspan x="-41.67" y="43.2">유임순 홀</tspan></text></g></svg>