<?xml version="1.0" encoding="UTF-8"?>
<svg id="_x32_" xmlns="http://www.w3.org/2000/svg" viewBox="0 0 1394 788">
  <defs>
    <style>
      .cls-1, .cls-2 {
        fill: #231f20;
        font-family: NanumSquareNeoTTF-dEb, 'NanumSquare Neo';
      }

      .cls-3 {
        fill: none;
      }

      .cls-3, .cls-4 {
        stroke-width: 3px;
      }

      .cls-3, .cls-4, .cls-5 {
        stroke: #f48589;
        stroke-miterlimit: 10;
      }

      .cls-4 {
        fill: #facbcf;
      }

      .cls-6 {
        font-size: 10px;
      }

      .cls-7, .cls-2 {
        font-size: 12px;
      }

      .cls-8 {
        letter-spacing: -.03em;
      }

      .cls-9 {
        letter-spacing: 0em;
      }

      .cls-5 {
        fill: #fef2f2;
        stroke-width: 10px;
      }
    </style>
  </defs>
  <g id="Layer_x5F_border-3" data-name="Layer_x5F_border">
    <polygon class="cls-5" points="1257.65 401 1257.65 253 1114.5 253 1114.5 172.5 1039.5 172.5 1039.5 253 40 253 40 600.4 1351.67 600.4 1351.67 401 1257.65 401"/>
  </g>
  <g id="Layer_x5F_others-3" data-name="Layer_x5F_others">
    <rect class="cls-4" x="40.5" y="253.5" width="69" height="151"/>
    <g>
      <rect class="cls-3" x="58.68" y="303.68" width="151.64" height="51" transform="translate(463.68 194.68) rotate(90)"/>
      <g>
        <rect class="cls-3" x="143.43" y="279.51" width="7.65" height="25.5" transform="translate(439.51 145.01) rotate(90)"/>
        <rect class="cls-3" x="143.43" y="287.16" width="7.65" height="25.5" transform="translate(447.16 152.66) rotate(90)"/>
        <rect class="cls-3" x="143.43" y="294.8" width="7.65" height="25.5" transform="translate(454.8 160.3) rotate(90)"/>
        <rect class="cls-3" x="143.43" y="302.45" width="7.65" height="25.5" transform="translate(462.45 167.95) rotate(90)"/>
        <rect class="cls-3" x="143.43" y="310.1" width="7.65" height="25.5" transform="translate(470.1 175.6) rotate(90)"/>
        <rect class="cls-3" x="143.43" y="317.78" width="7.65" height="25.5" transform="translate(477.78 183.28) rotate(90)"/>
        <rect class="cls-3" x="143.43" y="325.43" width="7.65" height="25.5" transform="translate(485.43 190.93) rotate(90)"/>
        <rect class="cls-3" x="143.43" y="333.08" width="7.65" height="25.5" transform="translate(493.08 198.58) rotate(90)"/>
        <rect class="cls-3" x="143.43" y="340.73" width="7.65" height="25.5" transform="translate(500.73 206.23) rotate(90)"/>
        <rect class="cls-3" x="143.43" y="348.37" width="7.65" height="25.5" transform="translate(508.37 213.87) rotate(90)"/>
      </g>
      <g>
        <rect class="cls-3" x="117.93" y="279.36" width="7.65" height="25.5" transform="translate(413.86 170.36) rotate(90)"/>
        <rect class="cls-3" x="117.93" y="287.01" width="7.65" height="25.5" transform="translate(421.51 178.01) rotate(90)"/>
        <rect class="cls-3" x="117.93" y="294.66" width="7.65" height="25.5" transform="translate(429.16 185.66) rotate(90)"/>
        <rect class="cls-3" x="117.93" y="302.3" width="7.65" height="25.5" transform="translate(436.81 193.3) rotate(90)"/>
        <rect class="cls-3" x="117.93" y="309.95" width="7.65" height="25.5" transform="translate(444.45 200.95) rotate(90)"/>
        <rect class="cls-3" x="117.93" y="317.64" width="7.65" height="25.5" transform="translate(452.14 208.64) rotate(90)"/>
        <rect class="cls-3" x="117.93" y="325.29" width="7.65" height="25.5" transform="translate(459.79 216.28) rotate(90)"/>
        <rect class="cls-3" x="117.93" y="332.93" width="7.65" height="25.5" transform="translate(467.43 223.93) rotate(90)"/>
        <rect class="cls-3" x="117.93" y="340.58" width="7.65" height="25.5" transform="translate(475.08 231.58) rotate(90)"/>
        <rect class="cls-3" x="117.93" y="348.23" width="7.65" height="25.5" transform="translate(482.73 239.23) rotate(90)"/>
      </g>
    </g>
    <g>
      <polygon class="cls-4" points="895.82 404.29 951.6 404.29 951.6 315.21 929.14 315.21 929.14 347.29 895.82 347.29 895.82 404.29"/>
      <g>
        <rect class="cls-3" x="920.39" y="285.18" width="150.31" height="86.91" transform="translate(1324.18 -666.91) rotate(90)"/>
        <g>
          <rect class="cls-3" x="1013.48" y="270.31" width="7.58" height="43.45" transform="translate(1309.31 -725.23) rotate(90)"/>
          <rect class="cls-3" x="1013.48" y="277.89" width="7.58" height="43.45" transform="translate(1316.89 -717.65) rotate(90)"/>
          <rect class="cls-3" x="1013.48" y="285.47" width="7.58" height="43.45" transform="translate(1324.47 -710.07) rotate(90)"/>
          <rect class="cls-3" x="1013.48" y="293.05" width="7.58" height="43.45" transform="translate(1332.05 -702.49) rotate(90)"/>
          <rect class="cls-3" x="1013.48" y="300.63" width="7.58" height="43.45" transform="translate(1339.63 -694.91) rotate(90)"/>
          <rect class="cls-3" x="1013.48" y="308.25" width="7.58" height="43.45" transform="translate(1347.25 -687.29) rotate(90)"/>
          <rect class="cls-3" x="1013.48" y="315.83" width="7.58" height="43.45" transform="translate(1354.83 -679.72) rotate(90)"/>
          <rect class="cls-3" x="1013.48" y="323.41" width="7.58" height="43.45" transform="translate(1362.41 -672.14) rotate(90)"/>
          <rect class="cls-3" x="1013.48" y="330.99" width="7.58" height="43.45" transform="translate(1369.99 -664.56) rotate(90)"/>
          <rect class="cls-3" x="1013.48" y="338.57" width="7.58" height="43.45" transform="translate(1377.57 -656.98) rotate(90)"/>
        </g>
        <g>
          <rect class="cls-3" x="970.03" y="270.17" width="7.58" height="43.45" transform="translate(1265.71 -681.92) rotate(90)"/>
          <rect class="cls-3" x="970.03" y="277.75" width="7.58" height="43.45" transform="translate(1273.29 -674.34) rotate(90)"/>
          <rect class="cls-3" x="970.03" y="285.33" width="7.58" height="43.45" transform="translate(1280.87 -666.76) rotate(90)"/>
          <rect class="cls-3" x="970.03" y="292.91" width="7.58" height="43.45" transform="translate(1288.45 -659.18) rotate(90)"/>
          <rect class="cls-3" x="970.03" y="300.49" width="7.58" height="43.45" transform="translate(1296.03 -651.6) rotate(90)"/>
          <rect class="cls-3" x="970.03" y="308.1" width="7.58" height="43.45" transform="translate(1303.65 -643.99) rotate(90)"/>
          <rect class="cls-3" x="970.03" y="315.68" width="7.58" height="43.45" transform="translate(1311.23 -636.41) rotate(90)"/>
          <rect class="cls-3" x="970.03" y="323.26" width="7.58" height="43.45" transform="translate(1318.81 -628.83) rotate(90)"/>
          <rect class="cls-3" x="970.03" y="330.84" width="7.58" height="43.45" transform="translate(1326.39 -621.25) rotate(90)"/>
          <rect class="cls-3" x="970.03" y="338.42" width="7.58" height="43.45" transform="translate(1333.97 -613.67) rotate(90)"/>
        </g>
      </g>
    </g>
    <g>
      <rect class="cls-4" x="1224.5" y="253.5" width="34" height="59"/>
      <rect class="cls-4" x="1158.5" y="253.5" width="66" height="59"/>
      <rect class="cls-4" x="1114.5" y="312.5" width="44" height="44"/>
      <rect class="cls-4" x="1114.5" y="356.5" width="44" height="48"/>
      <rect class="cls-4" x="1158.5" y="312.5" width="51" height="92"/>
      <rect class="cls-4" x="1114.5" y="253.5" width="44" height="59"/>
    </g>
    <rect class="cls-3" x="1039.5" y="172.5" width="76" height="61"/>
    <path class="cls-3" d="M812.5,476.5c17-4.4,45.64-12,71-15,15.09-1.78,40.37-4.66,73-3,29.96,1.52,53.9,6.24,78,11,18.05,3.56,26.39,5.91,50,10,20.71,3.59,34.92,5.36,52,5,10.48-.22,26.13-2.18,32-3"/>
  </g>
  <g id="Layer_66">
    <rect class="cls-4" x="159.5" y="252.5" width="65" height="152"/>
    <text class="cls-1" transform="translate(180.48 317.08)"><tspan class="cls-7"><tspan x="0" y="0">210</tspan></tspan><tspan class="cls-6"><tspan x="-16.92" y="12">생체신호측정</tspan></tspan><tspan class="cls-6"><tspan x="-2.7" y="24">분석실</tspan></tspan></text>
  </g>
  <g id="Layer_67">
    <rect class="cls-4" x="224.5" y="253.5" width="60" height="151"/>
    <text class="cls-2" transform="translate(244.42 324.78)"><tspan x="0" y="0">211</tspan><tspan x="-6.98" y="14.4">연구실</tspan></text>
  </g>
  <g id="Layer_68">
    <rect class="cls-4" x="284.5" y="253.5" width="355" height="151"/>
    <text class="cls-2" transform="translate(450.75 324.78)"><tspan x="0" y="0">212</tspan><tspan x="-38.23" y="14.4">기계공학부 </tspan><tspan class="cls-8" x="21.62" y="14.4">C</tspan><tspan x="30.54" y="14.4">AD실</tspan></text>
  </g>
  <g id="Layer_69">
    <rect class="cls-4" x="639.5" y="253.5" width="117" height="151"/>
    <text class="cls-2" transform="translate(682.04 324.78)"><tspan x="0" y="0">212A</tspan><tspan x="-12.48" y="14.4">동작분석실</tspan></text>
  </g>
  <g id="Layer_70">
    <rect class="cls-4" x="756.5" y="253.5" width="112" height="151"/>
    <text class="cls-2" transform="translate(801.12 317.58)"><tspan x="0" y="0">213</tspan><tspan x="-35.62" y="14.4">인간중심 제품혁신</tspan><tspan x="-43.48" y="28.8">연구센터 VR </tspan><tspan class="cls-9" x="26.24" y="28.8">R</tspan><tspan x="35" y="28.8">OOM</tspan></text>
  </g>
  <g id="Layer_71">
    <polygon class="cls-3" points="868.6 253.29 868.6 364.29 868.6 404.29 895.94 404.29 895.94 364.29 895.82 364.29 895.82 347.29 929.14 347.29 929.14 315.21 951.6 315.21 951.6 253.29 868.6 253.29"/>
  </g>
  <g id="Layer_72">
    <rect class="cls-3" x="1209.5" y="312.5" width="49" height="92"/>
  </g>
  <g id="Layer_73">
    <polygon class="cls-4" points="1351.67 600.4 1351.67 404.5 1226.14 404.5 1226.14 440.73 1168.5 440.73 1168.5 600.4 1351.67 600.4"/>
    <text class="cls-2" transform="translate(1248.56 498.23)"><tspan x="0" y="0">201</tspan><tspan x="-39.67" y="14.4">기술경영전문대학원</tspan></text>
  </g>
  <g id="Layer_74">
    <rect class="cls-4" x="756.5" y="441.5" width="56" height="159"/>
    <text class="cls-2" transform="translate(771.81 516.78)"><tspan x="0" y="0">202</tspan><tspan x="-4.37" y="14.4">독서실</tspan></text>
  </g>
  <g id="Layer_75">
    <rect class="cls-4" x="520.5" y="441.5" width="236" height="159"/>
    <text class="cls-2" transform="translate(625.68 516.78)"><tspan x="0" y="0">203</tspan><tspan x="-4.25" y="14.4">강의실</tspan></text>
  </g>
  <g id="Layer_76">
    <rect class="cls-4" x="284.5" y="441.5" width="236" height="159"/>
    <text class="cls-2" transform="translate(389.8 516.78)"><tspan x="0" y="0">205</tspan><tspan x="-4.37" y="14.4">강의실</tspan></text>
  </g>
  <g id="Layer_77">
    <rect class="cls-4" x="40.5" y="441.5" width="244" height="159"/>
    <text class="cls-2" transform="translate(150.16 516.78)"><tspan x="0" y="0">207</tspan><tspan x="-4.73" y="14.4">강의실</tspan></text>
  </g>
</svg>