<?xml version="1.0" encoding="UTF-8"?><svg xmlns="http://www.w3.org/2000/svg" viewBox="0 0 1800 1400"><defs><style>.cls-1{letter-spacing:-.01em;}.cls-2{font-size:8px;}.cls-2,.cls-3,.cls-4{fill:#434142;font-family:NanumSquareNeovariable-Heavy, 'NanumSquare Neo variable';font-variation-settings:'wght' 900;font-weight:800;}.cls-5{letter-spacing:-.01em;}.cls-3{font-size:12px;}.cls-6{fill:#fdf2f2;stroke-width:2.96px;}.cls-6,.cls-7,.cls-8,.cls-9,.cls-10{stroke:#d88282;stroke-miterlimit:10;}.cls-11{letter-spacing:-.03em;}.cls-7{stroke-width:2.09px;}.cls-7,.cls-9,.cls-10{fill:none;}.cls-4{font-size:18px;}.cls-8{fill:#f5cbcc;}.cls-8,.cls-9{stroke-width:2px;}.cls-10{stroke-width:2.04px;}.cls-12{letter-spacing:0em;}</style></defs><g id="Layer_border"><path class="cls-6" d="m1562.66,889.16h-358.02v39.09h-57.75v-19.15c-180.8.06-361.6.11-542.39.17l.57-646.02h-115.02v-54.12h-51v54.12h-132.17v646.02h-136.33v222.01h976.33v-40.93h57.75v40.93h57.13v34.7h63.82v-34.7h237.07v-242.12Z"/></g><g id="Layer_others"><rect class="cls-10" x="517.87" y="918.02" width="31.38" height="31.38"/><rect class="cls-10" x="517.87" y="949.4" width="44.95" height="40.48"/><line class="cls-10" x1="402.49" y1="989.88" x2="517.87" y2="989.88"/><line class="cls-10" x1="517.87" y1="897.24" x2="517.87" y2="920.11"/><line class="cls-9" x1="562.82" y1="962.32" x2="574.02" y2="962.32"/><line class="cls-10" x1="433.39" y1="925.07" x2="433.39" y2="989.88"/><line class="cls-10" x1="484.95" y1="925.07" x2="484.95" y2="989.88"/><line class="cls-10" x1="433.39" y1="932.12" x2="484.95" y2="932.12"/><line class="cls-10" x1="433.39" y1="937.94" x2="484.95" y2="937.94"/><line class="cls-10" x1="433.39" y1="943.77" x2="484.95" y2="943.77"/><line class="cls-10" x1="433.39" y1="949.6" x2="484.95" y2="949.6"/><line class="cls-10" x1="433.39" y1="955.42" x2="484.95" y2="955.42"/><line class="cls-10" x1="433.39" y1="961.25" x2="484.95" y2="961.25"/><line class="cls-10" x1="433.39" y1="967.08" x2="484.95" y2="967.08"/><line class="cls-10" x1="433.39" y1="972.9" x2="484.95" y2="972.9"/><line class="cls-10" x1="433.39" y1="978.73" x2="484.95" y2="978.73"/><line class="cls-10" x1="433.39" y1="984.56" x2="484.95" y2="984.56"/><line class="cls-9" x1="400.8" y1="932.12" x2="517.87" y2="932.12"/><line class="cls-9" x1="400.8" y1="937.94" x2="517.87" y2="937.94"/><line class="cls-9" x1="400.8" y1="943.77" x2="517.87" y2="943.77"/><line class="cls-9" x1="400.8" y1="949.6" x2="517.87" y2="949.6"/><line class="cls-9" x1="400.8" y1="955.42" x2="517.87" y2="955.42"/><line class="cls-10" x1="506.82" y1="264.29" x2="506.82" y2="324.99"/><line class="cls-10" x1="515.8" y1="264.29" x2="515.8" y2="324.99"/><line class="cls-10" x1="524.77" y1="264.29" x2="524.77" y2="324.99"/><line class="cls-10" x1="533.75" y1="264.29" x2="533.75" y2="324.99"/><line class="cls-10" x1="542.73" y1="264.29" x2="542.73" y2="324.99"/><line class="cls-10" x1="551.7" y1="264.29" x2="551.7" y2="324.99"/><line class="cls-10" x1="560.68" y1="264.29" x2="560.68" y2="324.99"/><polyline class="cls-10" points="491.48 263.24 476.63 263.24 476.63 324.99"/><line class="cls-10" x1="588.72" y1="1025.62" x2="588.72" y2="1057.57"/><line class="cls-10" x1="392.7" y1="981.33" x2="392.7" y2="1012.99"/><line class="cls-7" x1="1095.04" y1="934.47" x2="1152.09" y2="934.47"/><line class="cls-7" x1="1095.04" y1="940.02" x2="1152.09" y2="940.02"/><line class="cls-7" x1="1095.04" y1="945.57" x2="1152.09" y2="945.57"/><line class="cls-7" x1="1095.04" y1="951.12" x2="1152.09" y2="951.12"/><line class="cls-7" x1="1095.04" y1="956.67" x2="1152.09" y2="956.67"/><line class="cls-7" x1="1095.04" y1="962.22" x2="1152.09" y2="962.22"/><line class="cls-7" x1="1095.04" y1="967.77" x2="1152.09" y2="967.77"/><line class="cls-7" x1="1095.04" y1="973.32" x2="1152.09" y2="973.32"/><polyline class="cls-9" points="1093.78 1002.91 1093.78 1022.33 1152.09 1022.33 1152.09 928.92 1147.05 928.92 1095.04 928.92"/><line class="cls-7" x1="1264.17" y1="948.41" x2="1293.19" y2="948.41"/><line class="cls-7" x1="1264.17" y1="954.1" x2="1293.19" y2="954.1"/><line class="cls-7" x1="1264.17" y1="959.78" x2="1293.19" y2="959.78"/><line class="cls-7" x1="1264.17" y1="965.47" x2="1293.19" y2="965.47"/><line class="cls-7" x1="1264.17" y1="971.16" x2="1293.19" y2="971.16"/><line class="cls-7" x1="1264.17" y1="976.85" x2="1293.19" y2="976.85"/><rect class="cls-7" x="1264.17" y="942.78" width="29.63" height="39.04"/><rect class="cls-7" x="1264.12" y="942.78" width="58.48" height="78.84"/><line class="cls-7" x1="1261.52" y1="1151.04" x2="1326.49" y2="1151.04"/><line class="cls-7" x1="1261.52" y1="1158.13" x2="1326.49" y2="1158.13"/></g><g id="Layer_201"><rect class="cls-8" x="171.57" y="1012.99" width="231.19" height="117.07"/><text class="cls-4" transform="translate(266.58 1073.31)"><tspan x="0" y="0">201</tspan></text></g><g id="Layer_231"><rect class="cls-8" x="171.98" y="909.27" width="115.19" height="103.72"/><text class="cls-4" transform="translate(212.25 967.08)"><tspan x="0" y="0">2</tspan><tspan class="cls-5" x="12.58" y="0">3</tspan><tspan x="25.4" y="0">1</tspan></text></g><g id="Layer_230"><polygon class="cls-8" points="307.46 896.36 307.46 909.27 287.17 909.27 287.17 981.33 407.98 981.33 407.98 941.54 407.98 909.27 407.98 896.36 307.46 896.36"/><text class="cls-4" transform="translate(328.63 944.68)"><tspan x="0" y="0">230</tspan></text></g><g id="Layer_L301"><rect class="cls-8" x="307.4" y="782.24" width="125.99" height="113.76"/><text class="cls-4" transform="translate(347.09 841.56)"><tspan x="0" y="0">L301</tspan></text></g><g id="Layer_L302"><rect class="cls-8" x="307.4" y="670.69" width="125.99" height="113.76"/><text class="cls-4" transform="translate(345.42 730.01)"><tspan x="0" y="0">L302</tspan></text></g><g id="Layer_L303"><rect class="cls-8" x="307.4" y="557.4" width="125.99" height="113.76"/><text class="cls-4" transform="translate(345.22 616.72)"><tspan x="0" y="0">L303</tspan></text></g><g id="Layer_L304"><rect class="cls-8" x="307.4" y="439.95" width="125.99" height="117.92"/><text class="cls-4" transform="translate(345.27 502.01)"><tspan x="0" y="0">L304</tspan></text></g><g id="Layer_L305"><rect class="cls-8" x="307.4" y="329.29" width="125.99" height="117.92"/><text class="cls-4" transform="translate(345.42 391.35)"><tspan x="0" y="0">L305</tspan></text></g><g id="Layer_L306"><rect class="cls-8" x="307.4" y="265.73" width="125.99" height="63.56"/><text class="cls-4" transform="translate(344.76 302.3)"><tspan x="0" y="0">L306</tspan></text></g><g id="Layer_L307A"><rect class="cls-8" x="476.83" y="324.99" width="126.18" height="55.93"/><text class="cls-4" transform="translate(510 357.24)"><tspan x="0" y="0">L307A</tspan></text></g><g id="Layer_L307B"><rect class="cls-8" x="476.83" y="380.35" width="80.29" height="66.86"/><rect class="cls-9" x="557.12" y="380.35" width="45.87" height="66.86" transform="translate(1160.11 827.56) rotate(180)"/><text class="cls-4" transform="translate(485.76 418.49)"><tspan x="0" y="0">L307B</tspan></text></g><g id="Layer_L308"><rect class="cls-8" x="476.83" y="447.21" width="125.51" height="110.66"/><text class="cls-4" transform="translate(514.57 504.19)"><tspan x="0" y="0">L308</tspan></text></g><g id="Layer_L309"><rect class="cls-8" x="476.83" y="557.4" width="125.51" height="110.66"/><text class="cls-4" transform="translate(514.74 614.37)"><tspan x="0" y="0">L309</tspan></text></g><g id="Layer_L310"><rect class="cls-8" x="476.83" y="667.98" width="125.51" height="110.66"/><text class="cls-4" transform="translate(516.7 724.95)"><tspan x="0" y="0">L</tspan><tspan class="cls-12" x="10.94" y="0">3</tspan><tspan x="23.76" y="0">10</tspan></text></g><g id="Layer_L311"><polygon class="cls-8" points="477.07 778.59 477.07 896.36 522.18 896.36 522.18 857.67 560.87 857.67 560.87 896.36 602.58 896.36 602.58 778.59 477.07 778.59"/><text class="cls-4" transform="translate(519.03 825.64)"><tspan x="0" y="0">L</tspan><tspan class="cls-12" x="10.94" y="0">3</tspan><tspan x="23.76" y="0">11</tspan></text></g><g id="Layer_L311A"><rect class="cls-8" x="522.18" y="857.67" width="38.69" height="38.69"/><text class="cls-3" transform="translate(522.74 880.68)"><tspan x="0" y="0">L</tspan><tspan class="cls-1" x="7.3" y="0">3</tspan><tspan x="15.84" y="0">11A</tspan></text></g><g id="Layer_203"><polygon class="cls-8" points="472.03 1047.55 472.03 1038.36 402.49 1038.36 402.49 1130.05 463.37 1130.05 472.03 1130.05 516.18 1130.05 516.18 1047.55 472.03 1047.55"/><text class="cls-4" transform="translate(440.68 1094.91)"><tspan x="0" y="0">203</tspan></text></g><g id="Layer_204"><rect class="cls-8" x="516.18" y="1057.57" width="57.65" height="72.49"/><text class="cls-4" transform="translate(525.56 1097.08)"><tspan x="0" y="0">204</tspan></text></g><g id="Layer_205"><rect class="cls-8" x="573.84" y="1057.57" width="57.65" height="72.49"/><text class="cls-4" transform="translate(583.37 1097.08)"><tspan x="0" y="0">205</tspan></text></g><g id="Layer_206"><rect class="cls-8" x="631.49" y="1057.57" width="57.65" height="72.49"/><text class="cls-4" transform="translate(640.82 1097.08)"><tspan x="0" y="0">206</tspan></text></g><g id="Layer_207"><rect class="cls-8" x="686.79" y="1057.57" width="57.65" height="72.49"/><text class="cls-4" transform="translate(696.93 1097.08)"><tspan x="0" y="0">207</tspan></text></g><g id="Layer_208"><rect class="cls-8" x="744.44" y="1057.57" width="57.65" height="72.49"/><text class="cls-4" transform="translate(753.6 1097.08)"><tspan x="0" y="0">208</tspan></text></g><g id="Layer_209"><rect class="cls-8" x="802.1" y="1057.57" width="57.65" height="72.49"/><text class="cls-4" transform="translate(811.43 1097.08)"><tspan x="0" y="0">209</tspan></text></g><g id="Layer_210"><rect class="cls-8" x="859.75" y="1057.57" width="57.65" height="72.49"/><text class="cls-4" transform="translate(870.94 1097.08)"><tspan x="0" y="0">210</tspan></text></g><g id="Layer_211"><rect class="cls-8" x="917.4" y="1057.57" width="57.65" height="72.49"/><text class="cls-4" transform="translate(930.69 1097.08)"><tspan x="0" y="0">211</tspan></text></g><g id="Layer_212"><rect class="cls-8" x="975.06" y="1057.22" width="57.65" height="72.49"/><text class="cls-4" transform="translate(986.67 1096.74)"><tspan x="0" y="0">212</tspan></text></g><g id="Layer_213"><rect class="cls-8" x="1032.71" y="1057.22" width="57.65" height="72.49"/><text class="cls-4" transform="translate(1044.12 1096.74)"><tspan x="0" y="0">213</tspan></text></g><g id="Layer_214"><rect class="cls-8" x="1088.33" y="1057.22" width="57.65" height="72.49"/><text class="cls-4" transform="translate(1099.79 1096.74)"><tspan x="0" y="0">214</tspan></text></g><g id="Layer_215"><rect class="cls-8" x="1206.52" y="1057.22" width="57.65" height="72.49"/><text class="cls-4" transform="translate(1218.14 1096.74)"><tspan x="0" y="0">215</tspan></text></g><g id="Layer_216"><rect class="cls-8" x="1321.17" y="1057.22" width="57.65" height="72.49"/><text class="cls-4" transform="translate(1332.59 1096.74)"><tspan x="0" y="0">216</tspan></text></g><g id="Layer_217"><rect class="cls-8" x="1378.82" y="1057.22" width="57.65" height="72.49"/><text class="cls-4" transform="translate(1391.05 1096.74)"><tspan x="0" y="0">217</tspan></text></g><g id="Layer_218"><polygon class="cls-8" points="1526.44 1011.55 1526.44 1057.22 1436.48 1057.22 1436.48 1129.71 1561.59 1129.71 1561.59 1081.02 1561.59 1057.22 1561.59 1011.55 1526.44 1011.55"/><text class="cls-4" transform="translate(1481.46 1095.24)"><tspan x="0" y="0">218</tspan></text></g><g id="Layer_219A"><rect class="cls-8" x="1435.01" y="890.61" width="126.58" height="120.94"/><text class="cls-4" transform="translate(1474.45 955.94)"><tspan x="0" y="0">219A</tspan></text></g><g id="Layer_219B"><rect class="cls-8" x="1322.71" y="889.56" width="112.22" height="120.94"/><text class="cls-4" transform="translate(1354.57 955.94)"><tspan x="0" y="0">219B</tspan></text></g><g id="Layer_220"><rect class="cls-8" x="1264.12" y="889.56" width="58.48" height="53.22"/><text class="cls-4" transform="translate(1274.07 921.76)"><tspan x="0" y="0">220</tspan></text></g><g id="Layer_221"><rect class="cls-8" x="1206.03" y="889.56" width="58.09" height="98.06"/><text class="cls-4" transform="translate(1218.14 947.01)"><tspan x="0" y="0">221</tspan></text></g><g id="Layer_222A"><rect class="cls-8" x="1206.03" y="987.61" width="27.12" height="34.72"/><text class="cls-2" transform="translate(1208.37 1006.59)"><tspan x="0" y="0">222A</tspan></text></g><g id="Layer_222"><rect class="cls-8" x="1152.09" y="967.08" width="53.93" height="55.25"/><text class="cls-4" transform="translate(1160.19 1000.75)"><tspan x="0" y="0">222</tspan></text></g><g id="Layer_223"><rect class="cls-8" x="976.66" y="910.28" width="117.12" height="92.63"/><text class="cls-4" transform="translate(1016.52 958.66)"><tspan x="0" y="0">223</tspan></text></g><g id="Layer_224"><rect class="cls-8" x="859.73" y="910.37" width="117.12" height="92.63"/><text class="cls-4" transform="translate(899.91 958.76)"><tspan x="0" y="0">2</tspan><tspan class="cls-11" x="12.58" y="0">2</tspan><tspan x="24.62" y="0">4</tspan></text></g><g id="Layer_225"><rect class="cls-8" x="743.54" y="910.37" width="117.12" height="92.63"/><text class="cls-4" transform="translate(783.6 958.76)"><tspan x="0" y="0">225</tspan></text></g><g id="Layer_226"><rect class="cls-8" x="692.96" y="910.37" width="50.57" height="92.63" transform="translate(1436.5 1913.37) rotate(180)"/><text class="cls-4" transform="translate(699.18 960.84)"><tspan x="0" y="0">226</tspan></text></g><g id="Layer_toilet1"><polygon class="cls-9" points="602.58 910 602.58 896.36 572.77 896.36 572.77 910 572.77 917.1 572.77 1025.62 633.31 1025.62 633.31 910 602.58 910"/></g><g id="Layer_toilet2"><rect class="cls-9" x="633.31" y="910" width="59.7" height="115.62" transform="translate(1326.31 1935.61) rotate(180)"/></g></svg>