<?xml version="1.0" encoding="UTF-8"?>
<svg id="Layer_1" data-name="Layer 1" xmlns="http://www.w3.org/2000/svg" version="1.1" viewBox="0 0 1287.29 919.13">
  <defs>
    <style>
      .cls-1 {
        fill: #fed0d0;
      }

      .cls-1, .cls-2, .cls-3 {
        stroke: #ea8b8b;
        stroke-miterlimit: 10;
      }

      .cls-1, .cls-3 {
        stroke-width: 3px;
      }

      .cls-4 {
        font-family: NanumSquareNeo-dEb-KSCpc-EUC-H, 'NanumSquare Neo OTF';
      }

      .cls-4, .cls-5, .cls-6 {
        fill: #000;
      }

      .cls-4, .cls-6 {
        font-size: 12px;
      }

      .cls-2 {
        fill: #fef3f2;
        stroke-width: 10px;
      }

      .cls-5 {
        font-size: 7.43px;
      }

      .cls-5, .cls-6 {
        font-family: NanumSquareNeoTTF-dEb, 'NanumSquare Neo';
      }

      .cls-3 {
        fill: none;
      }
    </style>
  </defs>
  <g id="Layer_border">
    <path class="cls-2" d="M783.92,554.5l-.63-42.5h77l-.48-191.32h-.26c4.19-50.86-44.31-88.38-53.97-95.86-13.04-10.09-55.62-39.81-118.12-37.71-13.82.46-27.36,2.96-27.36,2.96-7.45,1.38-13.52,2.98-17.69,4.19,0,0-28.75,8.45-52.35,24.87-2.61,1.82-4.67,3.36-6.14,4.48-8.43,6.39-59.81,45.37-55.43,97.08h-.68l.49,191.32h85v43l-200-.5-.29.5-86.38-.5,1.38-322.5-79.5.12v-37.71h-100.62v37.71h-49.58v549.75l188.12.13h895.41v-227.5h-397.9Z"/>
  </g>
  <g id="Layer_5" data-name="Layer 5">
    <rect class="cls-1" x="97.92" y="342.5" width="98" height="83"/>
    <text class="cls-6" transform="translate(130.68 385.21) scale(.93 1)"><tspan x="0" y="0">344</tspan></text>
  </g>
  <g id="Layer_6" data-name="Layer 6">
    <rect class="cls-1" x="98.92" y="425.5" width="98" height="71"/>
    <text class="cls-6" transform="translate(130.53 462.82) scale(.93 1)"><tspan x="0" y="0">345A</tspan></text>
  </g>
  <g id="Layer_7" data-name="Layer 7">
    <rect class="cls-1" x="98.92" y="497.5" width="98" height="62"/>
    <text class="cls-6" transform="translate(130.46 534.08) scale(.93 1)"><tspan x="0" y="0">345B</tspan></text>
  </g>
  <g id="Layer_8" data-name="Layer 8">
    <rect class="cls-1" x="98.5" y="559.5" width="98" height="66"/>
    <text class="cls-6" transform="translate(133.06 593.37) scale(.93 1)"><tspan x="0" y="0">346</tspan></text>
  </g>
  <g id="Layer_9" data-name="Layer 9">
    <rect class="cls-3" x="97.5" y="625.5" width="99" height="43"/>
  </g>
  <g id="Layer_10" data-name="Layer 10">
    <rect class="cls-1" x="98" y="701" width="49.01" height="81"/>
    <text class="cls-6" transform="translate(109.87 747.36) scale(.93 1)"><tspan x="0" y="0">301</tspan></text>
  </g>
  <g id="Layer_11" data-name="Layer 11">
    <rect class="cls-1" x="147.26" y="701.31" width="49.01" height="81"/>
    <text class="cls-6" transform="translate(159.13 747.67) scale(.93 1)"><tspan x="0" y="0">302</tspan></text>
  </g>
  <g id="Layer_12" data-name="Layer 12">
    <rect class="cls-1" x="196.5" y="701.31" width="49.01" height="81"/>
    <text class="cls-6" transform="translate(208.37 747.67) scale(.93 1)"><tspan x="0" y="0">303</tspan></text>
  </g>
  <g id="Layer_13" data-name="Layer 13">
    <rect class="cls-1" x="246.67" y="701.31" width="49.01" height="81"/>
    <text class="cls-6" transform="translate(258.54 747.67) scale(.93 1)"><tspan x="0" y="0">304</tspan></text>
  </g>
  <g id="Layer_14" data-name="Layer 14">
    <rect class="cls-1" x="293.12" y="701.31" width="49.01" height="81"/>
    <text class="cls-6" transform="translate(304.99 747.67) scale(.93 1)"><tspan x="0" y="0">305</tspan></text>
  </g>
  <g id="Layer_15" data-name="Layer 15">
    <rect class="cls-1" x="342.03" y="701.54" width="49.01" height="81"/>
    <text class="cls-6" transform="translate(353.89 747.9) scale(.93 1)"><tspan x="0" y="0">306</tspan></text>
  </g>
  <g id="Layer_16" data-name="Layer 16">
    <rect class="cls-1" x="390.34" y="701.54" width="49.01" height="81"/>
    <text class="cls-6" transform="translate(400.35 746.9) scale(.93 1)"><tspan x="0" y="0">307</tspan></text>
  </g>
  <g id="Layer_17" data-name="Layer 17">
    <rect class="cls-1" x="439.82" y="701.18" width="49.01" height="81"/>
    <text class="cls-6" transform="translate(451.68 747.54) scale(.93 1)"><tspan x="0" y="0">308</tspan></text>
  </g>
  <g id="Layer_18" data-name="Layer 18">
    <rect class="cls-1" x="489.06" y="701.18" width="49.01" height="81"/>
    <text class="cls-6" transform="translate(500.92 747.54) scale(.93 1)"><tspan x="0" y="0">309</tspan></text>
  </g>
  <g id="Layer_19" data-name="Layer 19">
    <rect class="cls-1" x="538.3" y="701.18" width="49.01" height="81"/>
    <text class="cls-6" transform="translate(550.16 747.54) scale(.93 1)"><tspan x="0" y="0">310</tspan></text>
  </g>
  <g id="Layer_20" data-name="Layer 20">
    <rect class="cls-1" x="587.75" y="700.81" width="49.01" height="81"/>
    <text class="cls-6" transform="translate(602.62 747.17) scale(.93 1)"><tspan x="0" y="0">311</tspan></text>
  </g>
  <g id="Layer_21" data-name="Layer 21">
    <rect class="cls-1" x="636.99" y="700.81" width="49.01" height="81"/>
    <text class="cls-6" transform="translate(648.86 747.17) scale(.93 1)"><tspan x="0" y="0">312</tspan></text>
  </g>
  <g id="Layer_22" data-name="Layer 22">
    <rect class="cls-1" x="685.3" y="700.81" width="49.01" height="81"/>
    <text class="cls-6" transform="translate(697.17 747.17) scale(.93 1)"><tspan x="0" y="0">313</tspan></text>
  </g>
  <g id="Layer_23" data-name="Layer 23">
    <rect class="cls-1" x="734.54" y="700.81" width="49.01" height="81"/>
    <text class="cls-6" transform="translate(746.41 747.17) scale(.93 1)"><tspan x="0" y="0">314</tspan></text>
  </g>
  <g id="Layer_24" data-name="Layer 24">
    <rect class="cls-1" x="785.68" y="700.67" width="49.01" height="81"/>
    <text class="cls-6" transform="translate(797.55 747.03) scale(.93 1)"><tspan x="0" y="0">315</tspan></text>
  </g>
  <g id="Layer_25" data-name="Layer 25">
    <rect class="cls-1" x="834.93" y="700.67" width="49.01" height="81"/>
    <text class="cls-6" transform="translate(846.79 747.03) scale(.93 1)"><tspan x="0" y="0">316</tspan></text>
  </g>
  <g id="Layer_26" data-name="Layer 26">
    <rect class="cls-1" x="885.94" y="700.67" width="49.01" height="81"/>
    <text class="cls-6" transform="translate(897.8 747.03) scale(.93 1)"><tspan x="0" y="0">317</tspan></text>
  </g>
  <g id="Layer_27" data-name="Layer 27">
    <rect class="cls-1" x="936.11" y="700.67" width="49.01" height="81"/>
    <text class="cls-6" transform="translate(947.97 747.03) scale(.93 1)"><tspan x="0" y="0">318</tspan></text>
  </g>
  <g id="Layer_28" data-name="Layer 28">
    <rect class="cls-1" x="985.35" y="700.67" width="49.01" height="81"/>
    <text class="cls-6" transform="translate(997.21 747.03) scale(.93 1)"><tspan x="0" y="0">319</tspan></text>
  </g>
  <g id="Layer_29" data-name="Layer 29">
    <rect class="cls-1" x="1034.59" y="700.67" width="49.01" height="81"/>
    <text class="cls-6" transform="translate(1046.45 747.03) scale(.93 1)"><tspan x="0" y="0">320</tspan></text>
  </g>
  <g id="Layer_30" data-name="Layer 30">
    <rect class="cls-1" x="1083.83" y="700.67" width="49.01" height="81"/>
    <text class="cls-6" transform="translate(1095.7 747.03) scale(.93 1)"><tspan x="0" y="0">321</tspan></text>
  </g>
  <g id="Layer_31" data-name="Layer 31">
    <rect class="cls-1" x="1132.69" y="700.53" width="49.01" height="81"/>
    <text class="cls-6" transform="translate(1144.56 746.89) scale(.93 1)"><tspan x="0" y="0">322</tspan></text>
  </g>
  <g id="Layer_32" data-name="Layer 32">
    <rect class="cls-1" x="1104.1" y="554.5" width="77.32" height="115"/>
    <text class="cls-6" transform="translate(1133.34 611.54) scale(.93 1)"><tspan x="0" y="0">323</tspan></text>
  </g>
  <g id="Layer_33" data-name="Layer 33">
    <rect class="cls-1" x="1014.75" y="554.5" width="89.34" height="115"/>
    <text class="cls-6" transform="translate(1048.06 612.94)"><tspan x="0" y="0">324</tspan></text>
  </g>
  <g id="Layer_34" data-name="Layer 34">
    <rect class="cls-1" x="928.92" y="554.5" width="85.84" height="115"/>
    <text class="cls-6" transform="translate(961.06 615.94)"><tspan x="0" y="0">325</tspan></text>
  </g>
  <g id="Layer_35" data-name="Layer 35">
    <rect class="cls-1" x="832.5" y="554.5" width="96.42" height="115"/>
    <text class="cls-6" transform="translate(863.04 618.38)"><tspan x="0" y="0">326</tspan></text>
  </g>
  <g id="Layer_36" data-name="Layer 36">
    <rect class="cls-3" x="783.5" y="554.5" width="26" height="115"/>
  </g>
  <g id="Layer_37" data-name="Layer 37">
    <rect class="cls-1" x="729.21" y="632.5" width="54" height="37"/>
    <text class="cls-4" transform="translate(742.21 654.34) scale(.93 1)"><tspan x="0" y="0">327A</tspan></text>
  </g>
  <g id="Layer_38" data-name="Layer 38">
    <rect class="cls-1" x="729.21" y="598.5" width="54" height="34"/>
    <text class="cls-4" transform="translate(743.07 617.55) scale(.93 1)"><tspan x="0" y="0">327B</tspan></text>
  </g>
  <g id="Layer_39" data-name="Layer 39">
    <rect class="cls-1" x="729.21" y="568.5" width="54" height="30"/>
    <text class="cls-4" transform="translate(742.14 586.83) scale(.93 1)"><tspan x="0" y="0">327C</tspan></text>
  </g>
  <g id="Layer_40" data-name="Layer 40">
    <rect class="cls-1" x="729.21" y="512.5" width="54" height="56"/>
    <text class="cls-4" transform="translate(743.49 545.33) scale(.93 1)"><tspan x="0" y="0">327D</tspan></text>
  </g>
  <g id="Layer_41" data-name="Layer 41">
    <rect class="cls-1" x="721.21" y="374.5" width="138" height="138"/>
    <text class="cls-6" transform="translate(778.15 444.58) scale(.93 1)"><tspan x="0" y="0">328</tspan></text>
  </g>
  <g id="Layer_42" data-name="Layer 42">
    <rect class="cls-1" x="782.92" y="299.5" width="77" height="75"/>
    <text class="cls-6" transform="translate(809.82 346.01) scale(.93 1)"><tspan x="0" y="0">329</tspan></text>
  </g>
  <g id="Layer_43" data-name="Layer 43">
    <path class="cls-1" d="M719.14,188.5c-1.9,28.67.76,65.33-1.14,94,44.22,17.31,42.05,16.89,43.25,17h96.75c-1.28-10.65-17.01-38.45-47.8-67-35.61-33.02-80.14-43.24-91.06-44Z"/>
    <text class="cls-6" transform="translate(763.57 259.27)"><tspan x="0" y="0">330</tspan></text>
  </g>
  <g id="Layer_44" data-name="Layer 44">
    <path class="cls-1" d="M666.86,192c1.9,28.67-.76,65.33,1.14,94-44.22,17.31-42.05,16.89-43.25,17h-96.75c1.28-10.65,17.01-38.45,47.8-67,35.61-33.02,80.14-43.24,91.06-44Z"/>
    <text class="cls-6" transform="translate(598.21 260.85)"><tspan x="0" y="0">331</tspan></text>
  </g>
  <g id="Layer_45" data-name="Layer 45">
    <rect class="cls-3" x="528.5" y="303.5" width="85" height="40"/>
  </g>
  <g id="Layer_46" data-name="Layer 46">
    <rect class="cls-3" x="527.5" y="343.5" width="86" height="31"/>
  </g>
  <g id="Layer_48" data-name="Layer 48">
    <rect class="cls-1" x="528.21" y="412.5" width="112" height="50"/>
    <text class="cls-6" transform="translate(569.47 442.74) scale(.93 1)"><tspan x="0" y="0">334A</tspan></text>
  </g>
  <g id="Layer_49" data-name="Layer 49">
    <rect class="cls-1" x="528.5" y="462.5" width="112" height="49"/>
    <text class="cls-6" transform="translate(568.21 486.85)"><tspan x="0" y="0">334B</tspan></text>
  </g>
  <g id="Layer_50" data-name="Layer 50">
    <rect class="cls-1" x="613.21" y="512.5" width="27" height="52"/>
    <text class="cls-5" transform="translate(615.38 542.94) scale(1.08 1)"><tspan x="0" y="0">335A</tspan></text>
  </g>
  <g id="Layer_51" data-name="Layer 51">
    <rect class="cls-1" x="614.21" y="564.5" width="26" height="28"/>
    <text class="cls-5" transform="translate(616.92 579.94)"><tspan x="0" y="0">335B</tspan></text>
  </g>
  <g id="Layer_52" data-name="Layer 52">
    <rect class="cls-3" x="532.42" y="555.5" width="37.08" height="113"/>
  </g>
  <g id="Layer_53" data-name="Layer 53">
    <rect class="cls-1" x="423.42" y="555.5" width="109" height="113"/>
    <text class="cls-6" transform="translate(458.88 614.83)"><tspan x="0" y="0">336</tspan></text>
  </g>
  <g id="Layer_54" data-name="Layer 54">
    <polygon class="cls-1" points="289.23 555.28 289.23 610 324.28 610 324.28 667.54 423.42 668.5 423.42 555.5 289.23 555.28"/>
    <text class="cls-6" transform="translate(347.04 612.38)"><tspan x="0" y="0">337</tspan></text>
  </g>
  <g id="Layer_55" data-name="Layer 55">
    <polygon class="cls-1" points="253 555.28 289.23 555.28 289.23 610 267.63 610 253 610 253 555.28"/>
  </g>
  <g id="Layer_56" data-name="Layer 56">
    <polygon class="cls-1" points="243.71 555.28 243.71 443 327 443 326.62 554.3 243.71 555.28"/>
    <text class="cls-6" transform="translate(270.83 495.4)"><tspan x="0" y="0">338</tspan></text>
  </g>
  <g id="Layer_57" data-name="Layer 57">
    <rect class="cls-1" x="242.92" y="369.5" width="83" height="73"/>
    <text class="cls-6" transform="translate(270.83 406.4)"><tspan x="0" y="0">339</tspan></text>
  </g>
  <g id="Layer_58" data-name="Layer 58">
    <rect class="cls-1" x="242.92" y="350.5" width="85" height="19"/>
    <text class="cls-6" transform="translate(270.85 362.96)"><tspan x="0" y="0">340A</tspan></text>
  </g>
  <g id="Layer_59" data-name="Layer 59">
    <rect class="cls-1" x="242.92" y="328.5" width="85" height="22"/>
    <text class="cls-6" transform="translate(272.73 343.82)"><tspan x="0" y="0">340</tspan></text>
  </g>
  <g id="Layer_60" data-name="Layer 60">
    <rect class="cls-1" x="242.92" y="304.5" width="83" height="24"/>
    <text class="cls-6" transform="translate(270.73 321.82)"><tspan x="0" y="0">340B</tspan></text>
  </g>
  <g id="Layer_61" data-name="Layer 61">
    <rect class="cls-1" x="243.5" y="233.5" width="83" height="71"/>
    <text class="cls-6" transform="translate(273.93 274.55)"><tspan x="0" y="0">341</tspan></text>
  </g>
  <g id="Layer_47" data-name="Layer 47">
    <polygon class="cls-1" points="98.29 230.73 196.71 230.73 196.71 343 98.59 343 98.29 230.73"/>
    <text class="cls-4" transform="translate(135.35 294.27)"><tspan x="0" y="0">342</tspan></text>
  </g>
  <g id="Layer_others">
    <g>
      <rect class="cls-3" x="147.35" y="194.92" width="21.54" height="23.79"/>
      <line class="cls-3" x1="180.35" y1="218.72" x2="180.35" y2="194.54"/>
      <line class="cls-3" x1="192.37" y1="218.36" x2="192.37" y2="194.92"/>
      <line class="cls-3" x1="204.29" y1="218.41" x2="204.29" y2="194.97"/>
      <line class="cls-3" x1="214.86" y1="218.41" x2="214.86" y2="194.97"/>
      <line class="cls-3" x1="226.6" y1="218.41" x2="226.6" y2="194.97"/>
      <line class="cls-3" x1="238.35" y1="218.41" x2="238.35" y2="194.97"/>
      <line class="cls-3" x1="169.29" y1="219" x2="248" y2="218.44"/>
    </g>
    <rect class="cls-3" x="147.5" y="194.5" width="101" height="37"/>
    <g>
      <rect class="cls-3" x="809.5" y="554.5" width="23" height="115"/>
      <g>
        <rect class="cls-3" x="809.5" y="554.5" width="23" height="20"/>
        <rect class="cls-3" x="809.5" y="574.5" width="23" height="6"/>
        <rect class="cls-3" x="809.5" y="580.5" width="23" height="6"/>
        <rect class="cls-3" x="809.5" y="586.5" width="23" height="6"/>
        <rect class="cls-3" x="809.5" y="592.5" width="23" height="6"/>
        <rect class="cls-3" x="809.5" y="598.5" width="23" height="6"/>
        <rect class="cls-3" x="809.5" y="604.5" width="23" height="6"/>
        <rect class="cls-3" x="809.5" y="611.5" width="23" height="6"/>
        <rect class="cls-3" x="809.5" y="617.5" width="23" height="6"/>
        <rect class="cls-3" x="809.5" y="623.5" width="23" height="6"/>
        <rect class="cls-3" x="809.5" y="629.5" width="23" height="6"/>
      </g>
    </g>
    <g>
      <rect class="cls-3" x="527.5" y="374.5" width="113" height="38"/>
      <g>
        <rect class="cls-3" x="519.87" y="382.63" width="37.5" height="21.23" transform="translate(145.37 931.87) rotate(-90)"/>
        <rect class="cls-3" x="533.67" y="390.06" width="37.5" height="6.37" transform="translate(159.17 945.67) rotate(-90)"/>
        <rect class="cls-3" x="540.04" y="390.06" width="37.5" height="6.37" transform="translate(165.54 952.04) rotate(-90)"/>
        <rect class="cls-3" x="546.41" y="390.06" width="37.5" height="6.37" transform="translate(171.91 958.41) rotate(-90)"/>
        <rect class="cls-3" x="552.78" y="390.06" width="37.5" height="6.37" transform="translate(178.28 964.78) rotate(-90)"/>
        <rect class="cls-3" x="559.15" y="390.06" width="37.5" height="6.37" transform="translate(184.65 971.15) rotate(-90)"/>
        <rect class="cls-3" x="565.52" y="390.06" width="37.5" height="6.37" transform="translate(191.02 977.52) rotate(-90)"/>
        <rect class="cls-3" x="572.95" y="390.06" width="37.5" height="6.37" transform="translate(198.45 984.95) rotate(-90)"/>
        <rect class="cls-3" x="579.32" y="390.06" width="37.5" height="6.37" transform="translate(204.82 991.32) rotate(-90)"/>
        <rect class="cls-3" x="585.69" y="390.06" width="37.5" height="6.37" transform="translate(211.19 997.69) rotate(-90)"/>
        <rect class="cls-3" x="592.07" y="390.06" width="37.5" height="6.37" transform="translate(217.57 1004.07) rotate(-90)"/>
      </g>
    </g>
    <rect class="cls-3" x="569.5" y="555.5" width="44" height="113"/>
    <rect class="cls-1" x="569.5" y="606.5" width="44" height="33"/>
    <rect class="cls-1" x="569.5" y="639.5" width="44" height="29"/>
    <g>
      <rect class="cls-3" x="253" y="625" width="20.25" height="42.32"/>
      <line class="cls-3" x1="284.02" y1="625" x2="284.02" y2="668"/>
      <line class="cls-3" x1="295.33" y1="625.64" x2="295.33" y2="667.32"/>
      <line class="cls-3" x1="306.53" y1="625.56" x2="306.53" y2="667.24"/>
      <line class="cls-3" x1="316.47" y1="625.56" x2="316.47" y2="667.24"/>
      <line class="cls-3" x1="273.63" y1="624.5" x2="324.28" y2="625.18"/>
    </g>
    <rect class="cls-3" x="253" y="610" width="71.28" height="57.54"/>
  </g>
</svg>