<?xml version="1.0" encoding="UTF-8"?><svg xmlns="http://www.w3.org/2000/svg" viewBox="0 0 2500 1100"><g id="Layer_border"><rect x="1076.98" y="748.59" width="380.55" height="138.9" fill="#fef3f2"/><path d="m1452.74,753.38v129.32h-370.97v-129.32h370.97m9.58-9.58h-390.12v148.48h390.12v-148.48h0Z" fill="#ea8b8b"/><rect x="100.18" y="327.32" width="36.46" height="160.53" fill="#fef3f2" stroke="#ea8b8b" stroke-miterlimit="10" stroke-width="9.72"/><rect x="100.18" y="607.04" width="36.46" height="160.53" fill="#fef3f2" stroke="#ea8b8b" stroke-miterlimit="10" stroke-width="9.72"/><rect x="528.48" y="248.1" width="99.96" height="60.81" fill="#fef3f2" stroke="#ea8b8b" stroke-miterlimit="10" stroke-width="10"/><rect x="1907.63" y="248.1" width="99.96" height="60.81" fill="#fef3f2" stroke="#ea8b8b" stroke-miterlimit="10" stroke-width="10"/><polygon points="1459.09 838.02 1459.09 793.34 1412.37 793.34 1412.37 760.26 1123.71 760.26 1123.71 793.34 1076.98 793.34 1076.98 838.02 131.25 838.02 131.25 259.09 372.04 259.09 372.04 301.96 1071.25 301.96 1071.25 212.3 1128.97 212.3 1128.97 266.09 1407.11 266.09 1407.11 212.3 1464.83 212.3 1464.83 301.96 2164.04 301.96 2164.04 259.09 2404.82 259.09 2404.82 838.02 1459.09 838.02" fill="#fef3f2"/><path d="m1459.83,217.3v89.66h709.21v-42.86h230.78v568.93h-935.73v-44.68h-46.73v-33.09h-298.66v33.09h-46.73v44.68H136.25V264.09h230.78v42.86h709.21v-89.66h47.72v53.79h288.14v-53.79h47.72m10-10h-67.72v53.79h-268.14v-53.79h-67.72v89.66H377.03v-42.86H126.25v588.93h955.73v-44.68h46.73v-33.09h278.66v33.09h46.73v44.68h955.73V254.09h-250.78v42.86h-689.21v-89.66h0Z" fill="#ea8b8b"/><polygon points="2169.04 264.09 2169.04 306.96 1459.83 306.96 1459.83 217.3 1412.11 217.3 1412.11 271.09 1123.97 271.09 1123.97 217.3 1076.25 217.3 1076.25 306.96 367.03 306.96 367.03 264.09 136.25 264.09 136.25 306.96 136.25 462.33 136.25 833.02 1071.98 833.02 1071.98 788.34 1118.71 788.34 1118.71 755.26 1417.37 755.26 1417.37 788.34 1464.09 788.34 1464.09 833.02 2399.82 833.02 2399.82 462.33 2399.82 306.96 2399.82 264.09 2169.04 264.09" fill="none"/></g><g id="Layer_others"><rect x="2283.69" y="262.5" width="116.77" height="230.44" fill="#fed0d0" stroke="#ea8b8b" stroke-miterlimit="10" stroke-width="2.9"/><rect x="2283.68" y="264.44" width="116.11" height="141.95" fill="#fef3f2" stroke="#ea8b8b" stroke-miterlimit="10" stroke-width="3"/><line x1="2400.43" y1="280.49" x2="2283" y2="280.49" fill="none" stroke="#ea8b8b" stroke-miterlimit="10" stroke-width="2"/><line x1="2400.43" y1="298.79" x2="2283" y2="298.79" fill="none" stroke="#ea8b8b" stroke-miterlimit="10" stroke-width="2"/><line x1="2400.43" y1="317.1" x2="2283" y2="317.1" fill="none" stroke="#ea8b8b" stroke-miterlimit="10" stroke-width="2"/><line x1="2400.43" y1="335.41" x2="2283" y2="335.41" fill="none" stroke="#ea8b8b" stroke-miterlimit="10" stroke-width="2"/><line x1="2400.43" y1="353.72" x2="2283" y2="353.72" fill="none" stroke="#ea8b8b" stroke-miterlimit="10" stroke-width="2"/><line x1="2400.43" y1="372.03" x2="2283" y2="372.03" fill="none" stroke="#ea8b8b" stroke-miterlimit="10" stroke-width="2"/><line x1="2400.45" y1="390.34" x2="2283.02" y2="390.34" fill="none" stroke="#ea8b8b" stroke-miterlimit="10" stroke-width="2"/><rect x="134.68" y="262.5" width="124.4" height="230.44" fill="#fed0d0" stroke="#ea8b8b" stroke-miterlimit="10" stroke-width="2.89"/><rect x="135.04" y="275.16" width="123.69" height="141.95" fill="#fef3f2" stroke="#ea8b8b" stroke-miterlimit="10" stroke-width="3.1"/><line x1="259.41" y1="291.21" x2="134.31" y2="291.21" fill="none" stroke="#ea8b8b" stroke-miterlimit="10" stroke-width="2.06"/><line x1="259.41" y1="309.52" x2="134.31" y2="309.52" fill="none" stroke="#ea8b8b" stroke-miterlimit="10" stroke-width="2.06"/><line x1="259.41" y1="327.83" x2="134.31" y2="327.83" fill="none" stroke="#ea8b8b" stroke-miterlimit="10" stroke-width="2.06"/><line x1="259.41" y1="346.14" x2="134.31" y2="346.14" fill="none" stroke="#ea8b8b" stroke-miterlimit="10" stroke-width="2.06"/><line x1="259.41" y1="364.45" x2="134.31" y2="364.45" fill="none" stroke="#ea8b8b" stroke-miterlimit="10" stroke-width="2.06"/><line x1="259.41" y1="382.76" x2="134.31" y2="382.76" fill="none" stroke="#ea8b8b" stroke-miterlimit="10" stroke-width="2.06"/><line x1="259.44" y1="401.07" x2="134.34" y2="401.07" fill="none" stroke="#ea8b8b" stroke-miterlimit="10" stroke-width="2.06"/><line x1="1258.41" y1="271.09" x2="1258.41" y2="502.59" fill="none" opacity=".7" stroke="#ea8b8b" stroke-miterlimit="10" stroke-width="9.88"/><rect x="1259.59" y="319.13" width="200.38" height="89.29" fill="#fef3f2" stroke="#ea8b8b" stroke-miterlimit="10" stroke-width="3.13"/><line x1="1461.07" y1="333.65" x2="1258.41" y2="333.65" fill="none" stroke="#ea8b8b" stroke-miterlimit="10" stroke-width="2.08"/><line x1="1461.07" y1="348.71" x2="1258.41" y2="348.71" fill="none" stroke="#ea8b8b" stroke-miterlimit="10" stroke-width="2.08"/><line x1="1461.07" y1="363.77" x2="1258.41" y2="363.77" fill="none" stroke="#ea8b8b" stroke-miterlimit="10" stroke-width="2.08"/><line x1="1461.07" y1="378.83" x2="1258.41" y2="378.83" fill="none" stroke="#ea8b8b" stroke-miterlimit="10" stroke-width="2.08"/><line x1="1461.07" y1="393.89" x2="1258.41" y2="393.89" fill="none" stroke="#ea8b8b" stroke-miterlimit="10" stroke-width="2.08"/></g><g id="Layer_toilet1"><rect x="900.86" y="308.09" width="174.19" height="186.82" fill="none" stroke="#ea8b8b" stroke-miterlimit="10" stroke-width="3"/></g><g id="Layer_toilet2"><rect x="1461.07" y="308.09" width="177.61" height="186.82" fill="none" stroke="#ea8b8b" stroke-miterlimit="10" stroke-width="3"/></g><g id="Layer_201"><rect x="1638.68" y="586.21" width="390.15" height="246.81" fill="#fed0d0" stroke="#ea8b8b" stroke-miterlimit="10" stroke-width="3"/><text transform="translate(1802.41 713.49)" fill="#424142" font-family="NanumSquareNeovariable-Heavy, &apos;NanumSquare Neo variable&apos;" font-size="32" font-variation-settings="&apos;wght&apos; 900" font-weight="800"><tspan x="0" y="0">201</tspan></text></g><g id="Layer_202"><rect x="2028.83" y="586.21" width="370.99" height="246.81" fill="#fed0d0" stroke="#ea8b8b" stroke-miterlimit="10" stroke-width="3"/><text transform="translate(2180.02 709.61)" fill="#424142" font-family="NanumSquareNeovariable-Heavy, &apos;NanumSquare Neo variable&apos;" font-size="32" font-variation-settings="&apos;wght&apos; 900" font-weight="800"><tspan x="0" y="0">202</tspan></text></g><g id="Layer_203"><rect x="2028.83" y="308.09" width="254.89" height="186.82" fill="#fed0d0" stroke="#ea8b8b" stroke-miterlimit="10" stroke-width="3"/><text transform="translate(2121.6 410.3)" fill="#424142" font-family="NanumSquareNeovariable-Heavy, &apos;NanumSquare Neo variable&apos;" font-size="32" font-variation-settings="&apos;wght&apos; 900" font-weight="800"><tspan x="0" y="0">203</tspan></text></g><g id="Layer_204"><rect x="1638.68" y="308.09" width="390.15" height="186.82" fill="#fed0d0" stroke="#ea8b8b" stroke-miterlimit="10" stroke-width="3"/><text transform="translate(1799.18 410.3)" fill="#424142" font-family="NanumSquareNeovariable-Heavy, &apos;NanumSquare Neo variable&apos;" font-size="32" font-variation-settings="&apos;wght&apos; 900" font-weight="800"><tspan x="0" y="0">204</tspan></text></g><g id="Layer_207"><rect x="522.78" y="308.09" width="378.08" height="186.82" fill="#fed0d0" stroke="#ea8b8b" stroke-miterlimit="10" stroke-width="3"/><text transform="translate(676.82 406.43)" fill="#424142" font-family="NanumSquareNeovariable-Heavy, &apos;NanumSquare Neo variable&apos;" font-size="32" font-variation-settings="&apos;wght&apos; 900" font-weight="800"><tspan x="0" y="0">207</tspan></text></g><g id="Layer_208"><rect x="259.42" y="308.09" width="263.36" height="186.82" fill="#fed0d0" stroke="#ea8b8b" stroke-miterlimit="10" stroke-width="3"/><text transform="translate(355.62 406.43)" fill="#424142" font-family="NanumSquareNeovariable-Heavy, &apos;NanumSquare Neo variable&apos;" font-size="32" font-variation-settings="&apos;wght&apos; 900" font-weight="800"><tspan x="0" y="0">208</tspan></text></g><g id="Layer_209"><rect x="136.63" y="586.21" width="385.11" height="246.81" fill="#fed0d0" stroke="#ea8b8b" stroke-miterlimit="10" stroke-width="3"/><text transform="translate(294.53 721.23)" fill="#424142" font-family="NanumSquareNeovariable-Heavy, &apos;NanumSquare Neo variable&apos;" font-size="32" font-variation-settings="&apos;wght&apos; 900" font-weight="800"><tspan x="0" y="0">209</tspan></text></g><g id="Layer_210"><rect x="521.74" y="586.21" width="286.03" height="246.81" fill="#fed0d0" stroke="#ea8b8b" stroke-miterlimit="10" stroke-width="3"/><text transform="translate(633.41 725.1)" fill="#424142" font-family="NanumSquareNeovariable-Heavy, &apos;NanumSquare Neo variable&apos;" font-size="32" font-variation-settings="&apos;wght&apos; 900" font-weight="800"><tspan x="0" y="0">210</tspan></text></g></svg>