<?xml version="1.0" encoding="UTF-8"?><svg xmlns="http://www.w3.org/2000/svg" viewBox="0 0 1800 1400"><defs><style>.cls-1{letter-spacing:0em;}.cls-2{font-size:8px;}.cls-2,.cls-3,.cls-4{fill:#434142;font-family:NanumSquareNeovariable-Heavy, 'NanumSquare Neo variable';font-variation-settings:'wght' 900;font-weight:800;}.cls-5{letter-spacing:-.01em;}.cls-3{font-size:12px;}.cls-6{letter-spacing:-.02em;}.cls-7{fill:#fdf2f2;stroke-width:2.96px;}.cls-7,.cls-8,.cls-9,.cls-10,.cls-11,.cls-12{stroke:#d88282;stroke-miterlimit:10;}.cls-13{letter-spacing:-.03em;}.cls-8{stroke-width:2.09px;}.cls-8,.cls-11,.cls-12{fill:none;}.cls-4{font-size:18px;}.cls-9,.cls-10{fill:#f5cbcc;}.cls-9,.cls-11{stroke-width:2px;}.cls-10{stroke-width:2.07px;}.cls-12{stroke-width:2.04px;}</style></defs><g id="Layer_border"><path class="cls-7" d="m1562.66,889.16h-358.02v39.09h-57.75v-19.15c-180.8.06-361.6.11-542.39.17l.57-646.02h-115.02v-54.12h-51v54.12h-132.17v646.02h-136.33v222.01h976.33v-40.93h57.75v40.93h57.13v34.7h63.82v-34.7h237.07v-242.12Z"/></g><g id="Layer_others"><rect class="cls-12" x="517.87" y="918.02" width="31.38" height="31.38"/><rect class="cls-12" x="517.87" y="949.4" width="44.95" height="40.48"/><line class="cls-12" x1="402.49" y1="989.88" x2="517.87" y2="989.88"/><line class="cls-12" x1="517.87" y1="897.24" x2="517.87" y2="920.11"/><line class="cls-11" x1="562.82" y1="962.32" x2="574.02" y2="962.32"/><line class="cls-12" x1="433.39" y1="925.07" x2="433.39" y2="989.88"/><line class="cls-12" x1="484.95" y1="925.07" x2="484.95" y2="989.88"/><line class="cls-12" x1="433.39" y1="932.12" x2="484.95" y2="932.12"/><line class="cls-12" x1="433.39" y1="937.94" x2="484.95" y2="937.94"/><line class="cls-12" x1="433.39" y1="943.77" x2="484.95" y2="943.77"/><line class="cls-12" x1="433.39" y1="949.6" x2="484.95" y2="949.6"/><line class="cls-12" x1="433.39" y1="955.42" x2="484.95" y2="955.42"/><line class="cls-12" x1="433.39" y1="961.25" x2="484.95" y2="961.25"/><line class="cls-12" x1="433.39" y1="967.08" x2="484.95" y2="967.08"/><line class="cls-12" x1="433.39" y1="972.9" x2="484.95" y2="972.9"/><line class="cls-12" x1="433.39" y1="978.73" x2="484.95" y2="978.73"/><line class="cls-12" x1="433.39" y1="984.56" x2="484.95" y2="984.56"/><line class="cls-11" x1="400.8" y1="932.12" x2="517.87" y2="932.12"/><line class="cls-11" x1="400.8" y1="937.94" x2="517.87" y2="937.94"/><line class="cls-11" x1="400.8" y1="943.77" x2="517.87" y2="943.77"/><line class="cls-11" x1="400.8" y1="949.6" x2="517.87" y2="949.6"/><line class="cls-11" x1="400.8" y1="955.42" x2="517.87" y2="955.42"/><line class="cls-8" x1="1089.37" y1="934.47" x2="1146.42" y2="934.47"/><line class="cls-8" x1="1089.37" y1="940.02" x2="1146.42" y2="940.02"/><line class="cls-8" x1="1089.37" y1="945.57" x2="1146.42" y2="945.57"/><line class="cls-8" x1="1089.37" y1="951.12" x2="1146.42" y2="951.12"/><line class="cls-8" x1="1089.37" y1="956.67" x2="1146.42" y2="956.67"/><line class="cls-8" x1="1089.37" y1="962.22" x2="1146.42" y2="962.22"/><line class="cls-8" x1="1089.37" y1="967.77" x2="1146.42" y2="967.77"/><line class="cls-8" x1="1089.37" y1="973.32" x2="1146.42" y2="973.32"/><polyline class="cls-11" points="1088.11 1002.91 1088.11 1022.33 1146.42 1022.33 1146.42 928.92 1141.38 928.92 1089.37 928.92"/><line class="cls-11" x1="506.82" y1="264.59" x2="506.82" y2="342.19"/><line class="cls-11" x1="515.8" y1="264.59" x2="515.8" y2="342.19"/><line class="cls-11" x1="524.77" y1="264.59" x2="524.77" y2="342.19"/><line class="cls-11" x1="533.75" y1="264.59" x2="533.75" y2="342.19"/><line class="cls-11" x1="542.73" y1="264.59" x2="542.73" y2="342.19"/><line class="cls-11" x1="551.7" y1="264.59" x2="551.7" y2="342.19"/><line class="cls-11" x1="560.68" y1="264.59" x2="560.68" y2="342.19"/><polyline class="cls-11" points="491.48 263.24 476.63 263.24 476.63 342.19"/><line class="cls-11" x1="586.28" y1="1025.52" x2="586.28" y2="1057.57"/><line class="cls-11" x1="390.49" y1="990.09" x2="390.49" y2="1011.55"/><line class="cls-11" x1="1264.17" y1="938.29" x2="1304.26" y2="938.29"/><line class="cls-11" x1="1264.17" y1="943.77" x2="1304.26" y2="943.77"/><line class="cls-11" x1="1264.17" y1="949.25" x2="1304.26" y2="949.25"/><line class="cls-11" x1="1263.97" y1="954.73" x2="1304.06" y2="954.73"/><line class="cls-11" x1="1263.97" y1="965.69" x2="1304.06" y2="965.69"/><line class="cls-11" x1="1263.97" y1="960.21" x2="1304.06" y2="960.21"/><line class="cls-11" x1="1263.97" y1="971.17" x2="1304.06" y2="971.17"/><line class="cls-11" x1="1263.97" y1="976.65" x2="1304.06" y2="976.65"/><line class="cls-11" x1="1264.17" y1="987.61" x2="1304.26" y2="987.61"/><line class="cls-11" x1="1263.97" y1="982.13" x2="1304.06" y2="982.13"/><polyline class="cls-11" points="1253.76 987.62 1253.76 1028.34 1309.08 1028.34 1309.08 1012.4"/></g><g id="Layer_301"><rect class="cls-9" x="171.57" y="1012.99" width="231.19" height="117.07"/><text class="cls-4" transform="translate(266.37 1073.31)"><tspan x="0" y="0">301</tspan></text></g><g id="Layer_303"><rect class="cls-10" x="402.78" y="1057.57" width="55.04" height="72.49"/><text class="cls-4" transform="translate(410.59 1099.11)"><tspan x="0" y="0">303</tspan></text></g><g id="Layer_304"><rect class="cls-9" x="457.82" y="1057.57" width="59.35" height="72.49"/><text class="cls-4" transform="translate(467.84 1098.09)"><tspan x="0" y="0">304</tspan></text></g><g id="Layer_305"><rect class="cls-9" x="516.18" y="1057.57" width="57.65" height="72.49"/><text class="cls-4" transform="translate(525.51 1097.08)"><tspan x="0" y="0">305</tspan></text></g><g id="Layer_306"><rect class="cls-9" x="573.84" y="1057.57" width="57.65" height="72.49"/><text class="cls-4" transform="translate(582.96 1097.08)"><tspan x="0" y="0">306</tspan></text></g><g id="Layer_307"><rect class="cls-9" x="631.49" y="1057.57" width="57.65" height="72.49"/><text class="cls-4" transform="translate(641.42 1097.08)"><tspan x="0" y="0">307</tspan></text></g><g id="Layer_308"><rect class="cls-9" x="686.79" y="1057.57" width="57.65" height="72.49"/><text class="cls-4" transform="translate(695.74 1097.08)"><tspan x="0" y="0">308</tspan></text></g><g id="Layer_309"><rect class="cls-9" x="744.44" y="1057.57" width="57.65" height="72.49"/><text class="cls-4" transform="translate(753.57 1097.08)"><tspan x="0" y="0">309</tspan></text></g><g id="Layer_310"><rect class="cls-9" x="802.1" y="1057.57" width="57.65" height="72.49"/><text class="cls-4" transform="translate(813.17 1097.08)"><tspan class="cls-5" x="0" y="0">3</tspan><tspan x="12.82" y="0">10</tspan></text></g><g id="Layer_311"><rect class="cls-9" x="859.75" y="1057.57" width="57.65" height="72.49"/><text class="cls-4" transform="translate(872.91 1097.08)"><tspan class="cls-5" x="0" y="0">3</tspan><tspan x="12.82" y="0">11</tspan></text></g><g id="Layer_312"><rect class="cls-9" x="917.4" y="1057.57" width="57.65" height="72.49"/><text class="cls-4" transform="translate(928.9 1097.08)"><tspan class="cls-5" x="0" y="0">3</tspan><tspan x="12.82" y="0">12</tspan></text></g><g id="Layer_313"><rect class="cls-9" x="975.06" y="1057.22" width="57.65" height="72.49"/><text class="cls-4" transform="translate(986.35 1096.74)"><tspan class="cls-5" x="0" y="0">3</tspan><tspan x="12.82" y="0">13</tspan></text></g><g id="Layer_314"><rect class="cls-9" x="1032.71" y="1057.22" width="57.65" height="72.49"/><text class="cls-4" transform="translate(1044.06 1096.74)"><tspan class="cls-5" x="0" y="0">3</tspan><tspan x="12.82" y="0">14</tspan></text></g><g id="Layer_315"><rect class="cls-9" x="1088.33" y="1057.22" width="57.65" height="72.49"/><text class="cls-4" transform="translate(1099.83 1096.74)"><tspan class="cls-5" x="0" y="0">3</tspan><tspan x="12.82" y="0">15</tspan></text></g><g id="Layer_316"><rect class="cls-9" x="1206.52" y="1057.22" width="57.65" height="72.49"/><text class="cls-4" transform="translate(1217.82 1096.74)"><tspan class="cls-5" x="0" y="0">3</tspan><tspan x="12.82" y="0">16</tspan></text></g><g id="Layer_317"><rect class="cls-9" x="1261.72" y="1057.22" width="57.65" height="72.49"/><text class="cls-4" transform="translate(1273.83 1096.74)"><tspan class="cls-5" x="0" y="0">3</tspan><tspan x="12.82" y="0">17</tspan></text></g><g id="Layer_318"><rect class="cls-9" x="1319.39" y="1057.22" width="57.65" height="72.49"/><text class="cls-4" transform="translate(1330.52 1096.74)"><tspan class="cls-5" x="0" y="0">3</tspan><tspan x="12.82" y="0">18</tspan></text></g><g id="Layer_319"><rect class="cls-9" x="1375.83" y="1057.22" width="57.65" height="72.49"/><text class="cls-4" transform="translate(1387.14 1096.74)"><tspan class="cls-5" x="0" y="0">3</tspan><tspan x="12.82" y="0">19</tspan></text></g><g id="Layer_320"><rect class="cls-9" x="1433.64" y="1057.22" width="57.65" height="72.49"/><text class="cls-4" transform="translate(1442.97 1096.74)"><tspan x="0" y="0">320</tspan></text></g><g id="Layer_321"><rect class="cls-9" x="1491.3" y="1057.22" width="69.56" height="72.49"/><text class="cls-4" transform="translate(1508.94 1096.74)"><tspan x="0" y="0">321</tspan></text></g><g id="Layer_322"><rect class="cls-9" x="1435.01" y="890.61" width="126.58" height="120.94"/><text class="cls-4" transform="translate(1479.95 955.94)"><tspan x="0" y="0">322</tspan></text></g><g id="Layer_323"><rect class="cls-9" x="1369.63" y="890.61" width="65.38" height="120.94" transform="translate(2804.65 1902.15) rotate(180)"/><text class="cls-4" transform="translate(1382.27 955.94)"><tspan x="0" y="0">323</tspan></text></g><g id="Layer_324"><rect class="cls-9" x="1304.26" y="890.61" width="65.38" height="120.94" transform="translate(2673.89 1902.15) rotate(180)"/><text class="cls-4" transform="translate(1317.22 955.94)"><tspan x="0" y="0">3</tspan><tspan class="cls-13" x="13" y="0">2</tspan><tspan class="cls-1" x="25.04" y="0">4</tspan></text></g><g id="Layer_325"><rect class="cls-9" x="1206.03" y="889.56" width="58.09" height="98.06"/><text class="cls-4" transform="translate(1216.27 947.01)"><tspan x="0" y="0">325</tspan></text></g><g id="Layer_326A"><rect class="cls-9" x="1206.03" y="987.61" width="27.12" height="34.72"/><text class="cls-2" transform="translate(1208.37 1006.59)"><tspan x="0" y="0">222A</tspan></text></g><g id="Layer_326"><rect class="cls-9" x="1146.42" y="973.02" width="59.79" height="49.31"/><text class="cls-4" transform="translate(1157.04 1002.05)"><tspan x="0" y="0">326</tspan></text></g><g id="Layer_327"><rect class="cls-9" x="1028.55" y="911.13" width="59.78" height="100.41"/><text class="cls-4" transform="translate(1039.97 965.86)"><tspan x="0" y="0">327</tspan></text></g><g id="Layer_328"><rect class="cls-9" x="913.63" y="911.13" width="114.92" height="100.41" transform="translate(1942.18 1922.68) rotate(180)"/><text class="cls-4" transform="translate(952.94 966.21)"><tspan x="0" y="0">328</tspan></text></g><g id="Layer_329A"><rect class="cls-9" x="849.43" y="911.13" width="64.2" height="100.41"/><text class="cls-4" transform="translate(854.06 967.08)"><tspan x="0" y="0">329A</tspan></text></g><g id="Layer_329"><rect class="cls-9" x="798.46" y="911.13" width="50.97" height="100.41" transform="translate(1647.89 1922.68) rotate(180)"/><text class="cls-4" transform="translate(804.6 967.08)"><tspan x="0" y="0">329</tspan></text></g><g id="Layer_330"><rect class="cls-9" x="692.68" y="911.13" width="105.78" height="100.41"/><text class="cls-4" transform="translate(724.73 968.04)"><tspan x="0" y="0">330</tspan></text></g><g id="Layer_335"><rect class="cls-9" x="171.57" y="910.57" width="115.97" height="102.41"/><text class="cls-4" transform="translate(210.27 966.21)"><tspan x="0" y="0">335</tspan></text></g><g id="Layer_334"><rect class="cls-9" x="287.55" y="910.57" width="113.25" height="79.52" transform="translate(688.34 1900.66) rotate(180)"/><text class="cls-4" transform="translate(327.25 954.65)"><tspan x="0" y="0">334</tspan></text></g><g id="Layer_L401"><rect class="cls-9" x="307.98" y="793.28" width="131.18" height="116.79"/><text class="cls-4" transform="translate(351.94 853.37)"><tspan x="0" y="0">L401</tspan></text></g><g id="Layer_L402"><rect class="cls-9" x="307.98" y="737.11" width="131.18" height="56.17"/><text class="cls-4" transform="translate(348.93 771.8)"><tspan x="0" y="0">L402</tspan></text></g><g id="Layer_L403"><rect class="cls-9" x="307.98" y="626.1" width="131.18" height="111.01"/><text class="cls-4" transform="translate(347.05 687.55)"><tspan x="0" y="0">L403</tspan></text></g><g id="Layer_L404"><rect class="cls-9" x="307.98" y="515.96" width="131.18" height="111.01"/><text class="cls-4" transform="translate(347.11 577.41)"><tspan x="0" y="0">L404</tspan></text></g><g id="Layer_L405"><polygon class="cls-9" points="356.84 396.2 356.84 478.6 307.98 478.6 307.98 515.96 439.16 515.96 439.16 501.97 439.16 478.6 439.16 396.2 356.84 396.2"/><text class="cls-4" transform="translate(372.42 452.79)"><tspan x="0" y="0">L405</tspan></text></g><g id="Layer_L405A"><rect class="cls-9" x="307.98" y="396.2" width="48.86" height="82.41"/><text class="cls-3" transform="translate(312.71 441.95)"><tspan x="0" y="0">L405A</tspan></text></g><g id="Layer_L406"><polygon class="cls-9" points="406.2 308.02 406.2 264.59 308.8 264.59 308.8 396.2 383.64 396.2 406.2 396.2 439.16 396.2 439.16 308.02 406.2 308.02"/><text class="cls-4" transform="translate(346.75 347.36)"><tspan x="0" y="0">L406</tspan></text></g><g id="Layer_L411"><rect class="cls-9" x="471.13" y="794.98" width="131.18" height="115.1"/><text class="cls-4" transform="translate(517.36 855.07)"><tspan x="0" y="0">L</tspan><tspan class="cls-6" x="10.94" y="0">4</tspan><tspan x="23.47" y="0">11</tspan></text></g><g id="Layer_L410"><polygon class="cls-9" points="603.26 678.98 542.68 678.98 496.75 678.98 471.13 678.98 471.13 794.98 542.68 794.98 542.68 725.57 603.26 725.57 603.26 678.98"/><text class="cls-4" transform="translate(513.23 707.58)"><tspan x="0" y="0">L</tspan><tspan class="cls-6" x="10.94" y="0">4</tspan><tspan x="23.47" y="0">10</tspan></text></g><g id="Layer_L410A"><rect class="cls-9" x="542.68" y="725.57" width="60.59" height="69.4"/><text class="cls-4" transform="translate(551.32 764.3)"><tspan x="0" y="0">L</tspan><tspan class="cls-6" x="10.94" y="0">4</tspan><tspan x="23.47" y="0">10</tspan></text></g><g id="Layer_L409"><polygon class="cls-9" points="603.62 602.53 521.06 602.53 521.06 566.65 471.13 566.65 471.13 678.98 494.97 678.98 521.06 678.98 550.35 678.98 550.35 653.85 603.62 653.85 603.62 602.53"/><text class="cls-4" transform="translate(509.27 633.32)"><tspan x="0" y="0">L409</tspan></text></g><g id="Layer_L409B"><rect class="cls-9" x="550.35" y="653.85" width="52.91" height="25.13"/><text class="cls-3" transform="translate(555.97 669.39)"><tspan x="0" y="0">L409B</tspan></text></g><g id="Layer_L409A"><rect class="cls-9" x="521.06" y="566.65" width="82.57" height="35.88"/><text class="cls-3" transform="translate(540.11 587.46)"><tspan x="0" y="0">L409A</tspan></text></g><g id="Layer_L408"><rect class="cls-9" x="471.29" y="452.79" width="132.33" height="113.87"/><text class="cls-4" transform="translate(511.01 515.96)"><tspan x="0" y="0">L408</tspan></text></g><g id="Layer_L408A"><rect class="cls-9" x="471.29" y="396.2" width="132.33" height="56.59"/><text class="cls-4" transform="translate(503.83 429.51)"><tspan x="0" y="0">L408A</tspan></text></g><g id="Layer_L407"><rect class="cls-9" x="471.29" y="342.19" width="103.1" height="54.01"/><text class="cls-4" transform="translate(498.54 372.7)"><tspan x="0" y="0">L407</tspan></text></g><g id="Layer_toilet1"><path class="cls-11" d="m572.77,910v115.62h60.54v-115.62h-60.54Z"/></g><g id="Layer_toilet2"><rect class="cls-11" x="633.31" y="910" width="59.7" height="115.62" transform="translate(1326.31 1935.61) rotate(180)"/></g></svg>