<?xml version="1.0" encoding="UTF-8"?>
<svg id="Layer_1" xmlns="http://www.w3.org/2000/svg" viewBox="0 0 1093.53 605">
  <defs>
    <style>
      .cls-1 {
        fill: #fed0d0;
      }

      .cls-1, .cls-2 {
        stroke-width: 3px;
      }

      .cls-1, .cls-2, .cls-3 {
        stroke: #ea8b8b;
        stroke-miterlimit: 10;
      }

      .cls-2 {
        fill: none;
      }

      .cls-3 {
        fill: #fef3f2;
        stroke-width: 10px;
      }

      .cls-4 {
        letter-spacing: 0em;
      }

      .cls-5 {
        font-size: 12px;
      }

      .cls-5, .cls-6 {
        font-family: NanumSquareNeoTTF-dEb, 'NanumSquare Neo';
      }

      .cls-6 {
        font-size: 14.58px;
      }

      .cls-7 {
        letter-spacing: -.03em;
      }
    </style>
  </defs>
  <g id="Layer_x5F_border">
    <g>
      <path class="cls-3" d="M743.71,138.68v.28s0,.03,0,.05v-.32Z"/>
      <path class="cls-3" d="M650.71,372.5v-42.5h92l1-191.05c-1.01-49.98-21.34-88.48-31-95.95-13.04-10.09-56.05-39.99-118.55-37.89-13.82.46-27.36,2.96-27.36,2.96-7.45,1.38-13.52,2.98-17.69,4.19,0,0-28.76,8.45-52.35,24.87-2.61,1.82-4.67,3.36-6.15,4.48-8.43,6.39-59.81,45.37-55.43,97.08h-.68l.49,191.32h85v43l-200-.5-.29.5-86.38-.5,1.38-322.5-79.5.12V12.4H54.58v37.71H5v549.75l188.12.13h157.59v-40h388v40h349.82v-227.5h-437.82Z"/>
    </g>
  </g>
  <g id="toilet">
    <rect class="cls-2" x="4.21" y="443.5" width="99" height="43"/>
  </g>
  <g id="Layer_3">
    <rect class="cls-1" x="5.21" y="390.5" width="98" height="53"/>
    <text class="cls-5" transform="translate(42.95 419.98)"><tspan x="0" y="0">125</tspan></text>
  </g>
  <g id="Layer_4">
    <rect class="cls-1" x="5.21" y="343.5" width="98" height="47"/>
    <text class="cls-5" transform="translate(38.46 369.98)"><tspan x="0" y="0">1</tspan><tspan class="cls-7" x="5.94" y="0">2</tspan><tspan class="cls-4" x="13.86" y="0">4B</tspan></text>
  </g>
  <g id="Layer_5">
    <rect class="cls-1" x="5.21" y="220.5" width="98" height="123"/>
    <text class="cls-5" transform="translate(38.27 284.98)"><tspan x="0" y="0">1</tspan><tspan class="cls-7" x="5.94" y="0">2</tspan><tspan class="cls-4" x="13.86" y="0">4A</tspan></text>
  </g>
  <g id="Layer_6">
    <rect class="cls-1" x="5.21" y="186.5" width="98" height="34"/>
    <text class="cls-5" transform="translate(38.12 206.48)"><tspan x="0" y="0">123A</tspan></text>
  </g>
  <g id="Layer_7">
    <rect class="cls-1" x="5.21" y="51.5" width="98" height="71"/>
    <text class="cls-5" transform="translate(38.19 89.98)"><tspan x="0" y="0">123C</tspan></text>
  </g>
  <g id="Layer_8">
    <rect class="cls-1" x="5.21" y="122.5" width="98" height="64"/>
    <text class="cls-5" transform="translate(38.31 157.48)"><tspan x="0" y="0">123B</tspan></text>
  </g>
  <g id="Layer_x5F_others">
    <g>
      <rect class="cls-2" x="54.06" y="12.92" width="21.54" height="23.79"/>
      <line class="cls-2" x1="87.06" y1="36.72" x2="87.06" y2="12.54"/>
      <line class="cls-2" x1="99.08" y1="36.36" x2="99.08" y2="12.92"/>
      <line class="cls-2" x1="110.99" y1="36.41" x2="110.99" y2="12.97"/>
      <line class="cls-2" x1="121.57" y1="36.41" x2="121.57" y2="12.97"/>
      <line class="cls-2" x1="133.31" y1="36.41" x2="133.31" y2="12.97"/>
      <line class="cls-2" x1="145.06" y1="36.41" x2="145.06" y2="12.97"/>
      <line class="cls-2" x1="76" y1="37" x2="154.71" y2="36.44"/>
    </g>
    <rect class="cls-2" x="54.21" y="12.5" width="101" height="39"/>
    <rect class="cls-2" x="159.71" y="428" width="99" height="57.54"/>
    <rect class="cls-2" x="476.21" y="373.5" width="44" height="113"/>
    <rect class="cls-1" x="476.21" y="424.5" width="44" height="33"/>
    <rect class="cls-1" x="476.21" y="457.5" width="44" height="29"/>
    <rect class="cls-1" x="520.21" y="330.5" width="44" height="70"/>
    <g>
      <rect class="cls-2" x="434.21" y="192.5" width="113" height="38"/>
      <g>
        <rect class="cls-2" x="426.58" y="200.63" width="37.5" height="21.23" transform="translate(234.08 656.58) rotate(-90)"/>
        <rect class="cls-2" x="440.38" y="208.06" width="37.5" height="6.37" transform="translate(247.88 670.38) rotate(-90)"/>
        <rect class="cls-2" x="446.75" y="208.06" width="37.5" height="6.37" transform="translate(254.25 676.75) rotate(-90)"/>
        <rect class="cls-2" x="453.12" y="208.06" width="37.5" height="6.37" transform="translate(260.62 683.12) rotate(-90)"/>
        <rect class="cls-2" x="459.49" y="208.06" width="37.5" height="6.37" transform="translate(266.99 689.49) rotate(-90)"/>
        <rect class="cls-2" x="465.86" y="208.06" width="37.5" height="6.37" transform="translate(273.36 695.86) rotate(-90)"/>
        <rect class="cls-2" x="472.23" y="208.06" width="37.5" height="6.37" transform="translate(279.73 702.23) rotate(-90)"/>
        <rect class="cls-2" x="479.66" y="208.06" width="37.5" height="6.37" transform="translate(287.16 709.66) rotate(-90)"/>
        <rect class="cls-2" x="486.03" y="208.06" width="37.5" height="6.37" transform="translate(293.53 716.03) rotate(-90)"/>
        <rect class="cls-2" x="492.4" y="208.06" width="37.5" height="6.37" transform="translate(299.9 722.4) rotate(-90)"/>
        <rect class="cls-2" x="498.77" y="208.06" width="37.5" height="6.37" transform="translate(306.27 728.77) rotate(-90)"/>
      </g>
    </g>
    <rect class="cls-2" x="611.21" y="329.5" width="40" height="158"/>
    <g>
      <rect class="cls-2" x="705.71" y="372.5" width="33.5" height="115"/>
      <g>
        <rect class="cls-2" x="705.71" y="372.5" width="33.5" height="20"/>
        <rect class="cls-2" x="705.71" y="392.5" width="33.5" height="6"/>
        <rect class="cls-2" x="705.71" y="398.5" width="33.5" height="6"/>
        <rect class="cls-2" x="705.71" y="404.5" width="33.5" height="6"/>
        <rect class="cls-2" x="705.71" y="410.5" width="33.5" height="6"/>
        <rect class="cls-2" x="705.71" y="416.5" width="33.5" height="6"/>
        <rect class="cls-2" x="705.71" y="422.5" width="33.5" height="6"/>
        <rect class="cls-2" x="705.71" y="429.5" width="33.5" height="6"/>
        <rect class="cls-2" x="705.71" y="435.5" width="33.5" height="6"/>
        <rect class="cls-2" x="705.71" y="441.5" width="33.5" height="6"/>
        <rect class="cls-2" x="705.71" y="447.5" width="33.5" height="6"/>
      </g>
    </g>
    <rect class="cls-1" x="351.21" y="518.5" width="41" height="41"/>
  </g>
  <g id="Layer_11">
    <polygon class="cls-1" points="150.53 373.28 150.53 284.72 233.71 284.72 233.33 372.5 150.53 373.28"/>
    <text class="cls-5" transform="translate(180.54 330.4)"><tspan x="0" y="0">121A</tspan></text>
  </g>
  <g id="Layer_12">
    <rect class="cls-1" x="150.21" y="200.5" width="83" height="84"/>
    <text class="cls-5" transform="translate(177.54 247.4)"><tspan x="0" y="0">121B</tspan></text>
  </g>
  <g id="Layer_13">
    <rect class="cls-1" x="150.21" y="152.5" width="83" height="48"/>
    <text class="cls-5" transform="translate(178.61 176.25)"><tspan x="0" y="0">122</tspan></text>
  </g>
  <g id="Layer_14">
    <rect class="cls-1" x="150.21" y="117.5" width="83" height="35"/>
    <text class="cls-5" transform="translate(175.75 137.98)"><tspan x="0" y="0">122A</tspan></text>
  </g>
  <g id="Layer_15">
    <rect class="cls-1" x="150.21" y="51.5" width="83" height="66"/>
    <text class="cls-5" transform="translate(175.94 87.48)"><tspan x="0" y="0">122B</tspan></text>
  </g>
  <g id="Layer_16">
    <polygon class="cls-1" points="456.35 559.5 456.35 519 391.94 518.5 391.94 559.5 456.35 559.5"/>
    <text class="cls-5" transform="translate(409.35 543.8)"><tspan x="0" y="0">103A</tspan></text>
  </g>
  <g id="Layer_17">
    <rect class="cls-1" x="204.21" y="518.5" width="147" height="82"/>
    <text class="cls-5" transform="translate(266.06 555.28)"><tspan x="0" y="0">103</tspan><tspan x="-29.66" y="14.4">이과대학 행정실</tspan></text>
  </g>
  <g id="Layer_18">
    <rect class="cls-1" x="102.21" y="518.5" width="102" height="82"/>
    <text class="cls-5" transform="translate(141.69 555.28)"><tspan x="0" y="0">102</tspan><tspan x="-5.54" y="14.4">학장실</tspan></text>
  </g>
  <g id="Layer_19">
    <rect class="cls-1" x="4.71" y="519" width="98" height="81"/>
    <text class="cls-5" transform="translate(38.93 563.54)"><tspan x="0" y="0">101</tspan></text>
  </g>
  <g>
    <rect class="cls-2" x="159.71" y="443" width="21.13" height="42.32"/>
    <line class="cls-2" x1="192.08" y1="443" x2="192.08" y2="486"/>
    <line class="cls-2" x1="203.88" y1="443.64" x2="203.88" y2="485.32"/>
    <line class="cls-2" x1="215.57" y1="443.56" x2="215.57" y2="485.24"/>
    <line class="cls-2" x1="225.94" y1="443.56" x2="225.94" y2="485.24"/>
    <line class="cls-2" x1="237.47" y1="443.56" x2="237.47" y2="485.24"/>
    <line class="cls-2" x1="248.99" y1="443.56" x2="248.99" y2="485.24"/>
    <line class="cls-2" x1="181.24" y1="442.5" x2="258.46" y2="443.5"/>
  </g>
  <g id="toilet5">
    <rect class="cls-2" x="651.21" y="372.5" width="55" height="115"/>
  </g>
  <g id="Layer_21">
    <rect class="cls-1" x="628.21" y="192.5" width="113" height="137"/>
    <text class="cls-5" transform="translate(675.8 256.78)"><tspan x="0" y="0">111</tspan><tspan x="-8.15" y="14.4">강의실</tspan></text>
  </g>
  <g id="Layer_22">
    <path class="cls-1" d="M625.85,6.5c-1.9,28.67.76,65.33-1.14,94,44.22,17.31,42.05,16.89,43.25,17,76.24,0-24.5,0,72.24,0-1.28-10.65,0-37-23.3-67-29.79-38.35-80.14-43.24-91.06-44Z"/>
    <text class="cls-5" transform="translate(669.2 70.27)"><tspan x="0" y="0">112</tspan><tspan x="-6.98" y="14.4">강의실</tspan></text>
  </g>
  <g id="Layer_23">
    <path class="cls-1" d="M573.57,10c1.9,28.67-.76,65.33,1.14,94-44.22,17.31-42.05,16.89-43.25,17h-96.75c1.28-10.65,17.01-38.45,47.8-67,35.61-33.02,80.14-43.24,91.06-44Z"/>
    <text class="cls-5" transform="translate(507.72 75.85)"><tspan x="0" y="0">113</tspan><tspan x="-6.86" y="14.4">강의실</tspan></text>
  </g>
  <g id="toilet4">
    <rect class="cls-2" x="435.21" y="121.5" width="85" height="40"/>
  </g>
  <g id="toilet3">
    <rect class="cls-2" x="434.21" y="161.5" width="86" height="31"/>
  </g>
  <g id="Layer_26">
    <rect class="cls-1" x="435.21" y="229.5" width="112" height="100"/>
    <text class="cls-5" transform="translate(481.48 275.28)"><tspan x="0" y="0">117</tspan><tspan x="-7.34" y="14.4">강의실</tspan></text>
  </g>
  <g id="toilet2">
    <rect class="cls-2" x="435.21" y="373.5" width="41" height="113"/>
  </g>
  <g id="Layer_28">
    <polygon class="cls-1" points="195.94 373.28 195.94 428 258.31 428 258.31 485.54 434.71 486.5 434.71 373.5 195.94 373.28"/>
    <text class="cls-5" transform="translate(320.54 432.4)"><tspan x="0" y="0">120</tspan></text>
  </g>
  <g id="Layer_29">
    <rect class="cls-1" x="699.22" y="518.5" width="39.99" height="41"/>
    <text class="cls-5" transform="translate(705.13 541.98) scale(.87 1)"><tspan x="0" y="0">104B</tspan></text>
  </g>
  <g id="Layer_37">
    <rect class="cls-1" x="668.79" y="518.5" width="30.43" height="41"/>
    <text class="cls-5" transform="translate(669.76 541.98) scale(.87 1)"><tspan x="0" y="0">104A</tspan></text>
  </g>
  <g id="Layer_38">
    <rect class="cls-1" x="642.71" y="518.5" width="26.08" height="41"/>
    <text class="cls-5" transform="translate(645.6 541.98) scale(.87 1)"><tspan x="0" y="0">104</tspan></text>
  </g>
  <g id="Layer_30">
    <rect class="cls-1" x="739.21" y="518.5" width="148" height="81"/>
    <text class="cls-5" transform="translate(801.68 554.78)"><tspan x="0" y="0">105</tspan><tspan x="-16.92" y="14.4">교수휴게실</tspan></text>
  </g>
  <g id="Layer_31">
    <rect class="cls-1" x="887.21" y="518.5" width="201" height="81"/>
    <text class="cls-5" transform="translate(976.06 561.98)"><tspan x="0" y="0">106</tspan></text>
  </g>
  <g id="Layer_32">
    <rect class="cls-1" x="987.21" y="374.43" width="102.05" height="112.29"/>
    <text class="cls-6" transform="translate(1021.6 434.93)"><tspan x="0" y="0">107</tspan></text>
  </g>
  <g id="Layer_33">
    <rect class="cls-1" x="935.01" y="374.43" width="52.5" height="112.29"/>
    <text class="cls-5" transform="translate(950.09 434.67)"><tspan x="0" y="0">108</tspan></text>
  </g>
  <g id="Layer_34">
    <rect class="cls-1" x="887.21" y="373.5" width="48" height="114"/>
    <text class="cls-5" transform="translate(893.69 434.81)"><tspan x="0" y="0">109A</tspan></text>
  </g>
  <g id="Layer_35">
    <rect class="cls-1" x="792.21" y="372.5" width="95" height="115"/>
    <text class="cls-5" transform="translate(824.69 436.81)"><tspan x="0" y="0">109B</tspan></text>
  </g>
  <g id="Layer_36">
    <rect class="cls-1" x="739.21" y="372.5" width="53" height="115"/>
    <text class="cls-5" transform="translate(749.43 436.38)"><tspan x="0" y="0">109C</tspan></text>
  </g>
  <g id="Layer_39">
    <polygon class="cls-1" points="159.71 373.28 195.94 373.28 195.94 428 174.34 428 159.71 428 159.71 373.28"/>
  </g>
</svg>