<svg width="328" height="328" viewBox="0 0 328 328" fill="none" xmlns="http://www.w3.org/2000/svg">
<mask id="mask0_725_1373" style="mask-type:luminance" maskUnits="userSpaceOnUse" x="3" y="3" width="321" height="321">
<path d="M323.564 163.638C323.564 75.3141 251.966 3.71613 163.642 3.71613C120.019 3.71613 80.4759 21.1818 51.6241 49.5021L30.5799 25.2657L9.53937 43.5341L33.3224 70.9254C14.6824 97.0755 3.71997 129.079 3.71997 163.638C3.71997 251.962 75.3179 323.56 163.642 323.56C203.571 323.56 240.078 308.926 268.101 284.731L282.628 296.176L299.874 274.292L287.633 264.645C310.093 237.105 323.568 201.947 323.568 163.638H323.564Z" fill="white"/>
</mask>
<g mask="url(#mask0_725_1373)">
<path d="M264.667 246.56L247.421 268.445L282.626 296.189L299.873 274.304L264.667 246.56Z" fill="#FEF3F2" stroke="#EA8B8B" stroke-width="1.11" stroke-miterlimit="10"/>
<path d="M294.028 269.688L276.946 291.699" stroke="#EA8B8B" stroke-width="1.11" stroke-miterlimit="10"/>
<path d="M288.131 265.043L271.048 287.053" stroke="#EA8B8B" stroke-width="1.11" stroke-miterlimit="10"/>
<path d="M282.483 259.985L265.4 282" stroke="#EA8B8B" stroke-width="1.11" stroke-miterlimit="10"/>
<path d="M276.344 255.221L259.261 277.236" stroke="#EA8B8B" stroke-width="1.11" stroke-miterlimit="10"/>
<path d="M270.126 251.137L253.043 273.148" stroke="#EA8B8B" stroke-width="1.11" stroke-miterlimit="10"/>
</g>
</svg>
