<svg width="328" height="328" viewBox="0 0 328 328" fill="none" xmlns="http://www.w3.org/2000/svg">
<mask id="mask0_725_1370" style="mask-type:luminance" maskUnits="userSpaceOnUse" x="3" y="3" width="321" height="321">
<path d="M323.564 163.638C323.564 75.3141 251.966 3.71613 163.642 3.71613C120.019 3.71613 80.4759 21.1818 51.6241 49.5021L30.5799 25.2657L9.53937 43.5341L33.3224 70.9254C14.6824 97.0755 3.71997 129.079 3.71997 163.638C3.71997 251.962 75.3179 323.56 163.642 323.56C203.571 323.56 240.078 308.926 268.101 284.731L282.628 296.176L299.874 274.292L287.633 264.645C310.093 237.105 323.568 201.947 323.568 163.638H323.564Z" fill="white"/>
</mask>
<g mask="url(#mask0_725_1370)">
<path d="M163.642 73.2331C214.853 73.2331 256.369 114.749 256.369 165.961C256.369 170.242 256.072 174.452 255.511 178.581C285.125 183.103 314.738 187.626 344.352 192.148C345.582 183.597 346.217 174.853 346.217 165.964C346.217 65.1245 264.478 -16.6183 163.642 -16.6183C135.05 -16.6183 107.993 -10.0446 83.8982 1.67226C96.9305 28.6474 109.959 55.6225 122.991 82.5976C135.266 76.5998 149.06 73.2331 163.638 73.2331H163.642Z" fill="#FED0D0" stroke="#EA8B8B" stroke-width="1.11" stroke-miterlimit="10"/>
<path d="M230.963 62.3041C230.933 62.4268 230.836 62.5754 230.673 62.7501C230.509 62.9247 230.316 63.1105 230.1 63.3075C229.781 63.6085 229.458 63.8983 229.134 64.177C228.811 64.4557 228.425 64.7716 227.982 65.1321L226.882 63.8314C227.25 63.549 227.622 63.2443 227.997 62.9136C228.372 62.5828 228.726 62.2632 229.056 61.9548C229.394 61.6241 229.636 61.2971 229.785 60.9663C229.93 60.6356 230.004 60.2305 230.004 59.7512V58.0157H231.81V59.6806C231.81 59.9333 231.825 60.1599 231.851 60.3569C231.88 60.5538 231.925 60.7322 231.992 60.892C232.059 61.0518 232.148 61.2042 232.267 61.3528C232.386 61.4977 232.538 61.6501 232.728 61.8099C233.066 62.1035 233.412 62.3822 233.765 62.6497C234.118 62.9173 234.463 63.1737 234.801 63.4189L233.772 64.6601C233.497 64.4632 233.203 64.2439 232.888 64.0024C232.572 63.7608 232.248 63.5044 231.921 63.2331C231.676 63.0362 231.468 62.8615 231.301 62.7092C231.13 62.5568 231.022 62.423 230.977 62.3004H230.963V62.3041ZM229.041 65.7787H237.741V70.8065H235.961V67.2911H229.041V65.7787ZM237.741 65.1841H235.961V57.5178H237.741V65.1841Z" fill="#424142"/>
<path d="M240.212 58.3093H246.355V59.8217H241.977V62.8577C242.468 62.8577 242.932 62.8578 243.374 62.8503C243.817 62.8466 244.248 62.8355 244.668 62.8206C245.087 62.8057 245.507 62.7834 245.931 62.75C246.355 62.7165 246.793 62.6757 247.243 62.6311L247.399 64.1138C246.975 64.1695 246.529 64.2141 246.065 64.2476C245.6 64.281 245.084 64.307 244.519 64.3256C243.954 64.3442 243.322 64.3553 242.62 64.3591C241.918 64.3628 241.115 64.3665 240.212 64.3665V58.3093ZM246.113 71.048C245.511 71.048 244.961 70.9848 244.467 70.8659C243.973 70.747 243.549 70.5686 243.196 70.342C242.843 70.1153 242.568 69.844 242.378 69.5319C242.185 69.216 242.089 68.8704 242.089 68.4951V67.9005C242.089 67.5252 242.185 67.1796 242.378 66.8637C242.572 66.5478 242.843 66.2766 243.196 66.0536C243.549 65.8306 243.973 65.6523 244.467 65.5296C244.961 65.407 245.511 65.3475 246.113 65.3475C246.715 65.3475 247.265 65.4107 247.759 65.5296C248.254 65.6523 248.677 65.8269 249.03 66.0536C249.383 66.2803 249.655 66.5515 249.848 66.8637C250.041 67.1796 250.138 67.5252 250.138 67.9005V68.4951C250.138 68.8704 250.041 69.216 249.848 69.5319C249.655 69.8477 249.383 70.119 249.03 70.342C248.677 70.5686 248.254 70.7433 247.759 70.8659C247.265 70.9886 246.715 71.048 246.113 71.048ZM246.113 66.7968C245.756 66.7968 245.437 66.834 245.154 66.9083C244.872 66.9826 244.634 67.0792 244.441 67.1981C244.248 67.3171 244.099 67.4471 243.995 67.5846C243.891 67.7258 243.839 67.867 243.839 68.0083V68.3761C243.839 68.5174 243.891 68.6586 243.995 68.7998C244.099 68.941 244.248 69.0711 244.441 69.1863C244.634 69.3052 244.872 69.4018 245.154 69.4761C245.437 69.5504 245.756 69.5876 246.113 69.5876C246.47 69.5876 246.789 69.5504 247.072 69.4761C247.354 69.4018 247.592 69.3052 247.785 69.1863C247.979 69.0673 248.127 68.9373 248.231 68.7998C248.335 68.6586 248.387 68.5174 248.387 68.3761V68.0083C248.387 67.867 248.335 67.7258 248.231 67.5846C248.127 67.4434 247.979 67.3133 247.785 67.1981C247.592 67.0792 247.354 66.9826 247.072 66.9083C246.789 66.834 246.47 66.7968 246.113 66.7968ZM250.097 60.4014H251.821V61.9547H250.097V65.2881H248.317V57.5214H250.097V60.4014Z" fill="#424142"/>
</g>
</svg>
