<svg width="328" height="328" viewBox="0 0 328 328" fill="none" xmlns="http://www.w3.org/2000/svg">
<mask id="mask0_725_1371" style="mask-type:luminance" maskUnits="userSpaceOnUse" x="3" y="3" width="321" height="321">
<path d="M323.564 163.638C323.564 75.3141 251.966 3.71613 163.642 3.71613C120.019 3.71613 80.4759 21.1818 51.6241 49.5021L30.5799 25.2657L9.53937 43.5341L33.3224 70.9254C14.6824 97.0755 3.71997 129.079 3.71997 163.638C3.71997 251.962 75.3179 323.56 163.642 323.56C203.571 323.56 240.078 308.926 268.101 284.731L282.628 296.176L299.874 274.292L287.633 264.645C310.093 237.105 323.568 201.947 323.568 163.638H323.564Z" fill="white"/>
</mask>
<g mask="url(#mask0_725_1371)">
<path d="M163.114 234.471C201.218 234.471 232.107 203.581 232.107 165.478C232.107 127.374 201.218 96.4847 163.114 96.4847C125.01 96.4847 94.1211 127.374 94.1211 165.478C94.1211 203.581 125.01 234.471 163.114 234.471Z" fill="#FED0D0" stroke="#EA8B8B" stroke-width="1.11" stroke-miterlimit="10"/>
<path d="M149.904 167.674V165.091H151.684V167.674H156.808V169.186H144.775V167.674H149.9H149.904ZM146.262 158.763H155.329V160.275H151.698V160.628C151.698 161.081 151.791 161.461 151.981 161.765C152.17 162.07 152.509 162.371 152.999 162.661C153.441 162.936 153.91 163.2 154.404 163.46C154.898 163.72 155.433 163.995 156.005 164.285L155.214 165.667C154.98 165.556 154.727 165.426 154.46 165.284C154.192 165.143 153.917 164.998 153.642 164.846C153.363 164.694 153.092 164.545 152.824 164.393C152.557 164.244 152.308 164.103 152.081 163.969C151.713 163.753 151.435 163.564 151.241 163.404C151.048 163.244 150.918 163.099 150.855 162.966H150.84C150.784 163.099 150.647 163.244 150.431 163.411C150.216 163.575 149.915 163.772 149.528 163.999C149.302 164.132 149.056 164.274 148.785 164.422C148.517 164.575 148.246 164.723 147.975 164.876C147.7 165.028 147.429 165.173 147.157 165.314C146.882 165.455 146.63 165.582 146.396 165.697L145.589 164.285C146.161 163.991 146.697 163.716 147.191 163.46C147.685 163.2 148.153 162.936 148.596 162.661C149.086 162.371 149.424 162.07 149.614 161.765C149.803 161.461 149.896 161.081 149.896 160.628V160.275H146.266V158.763H146.262Z" fill="#424142"/>
<path d="M160.309 166.206H161.68C162.33 166.206 163.003 166.184 163.698 166.143C164.393 166.102 165.073 166.035 165.73 165.953L165.927 167.451C165.258 167.555 164.53 167.626 163.739 167.663C162.947 167.7 162.118 167.718 161.253 167.718H158.54V162.382H162.776V160.234H158.54V158.722H164.541V163.835H160.305V166.206H160.309ZM168.681 170.836H166.886V157.704H168.681V170.836Z" fill="#424142"/>
<path d="M174.63 161.929C174.582 162.051 174.474 162.204 174.3 162.382C174.125 162.561 173.917 162.75 173.672 162.947C173.371 163.192 173.058 163.445 172.731 163.709C172.404 163.973 172.033 164.255 171.609 164.556L170.58 163.255C171.015 162.954 171.39 162.676 171.71 162.423C172.029 162.17 172.349 161.907 172.668 161.632C173.025 161.319 173.281 161 173.43 160.673C173.579 160.346 173.657 159.967 173.657 159.543V158.031H175.463V159.513C175.463 159.74 175.478 159.941 175.504 160.119C175.533 160.297 175.582 160.465 175.66 160.621C175.734 160.777 175.838 160.925 175.964 161.067C176.091 161.208 176.254 161.36 176.451 161.52C176.563 161.605 176.7 161.702 176.853 161.817C177.009 161.929 177.172 162.048 177.347 162.17C177.521 162.293 177.7 162.416 177.882 162.538C178.064 162.661 178.242 162.78 178.41 162.891L177.421 164.121C177.128 163.932 176.834 163.731 176.533 163.516C176.232 163.3 175.931 163.081 175.63 162.865C175.348 162.65 175.125 162.468 174.961 162.323C174.798 162.178 174.69 162.048 174.642 161.936H174.627L174.63 161.929ZM181.394 164.824V168.566H174.883V169.554H181.788V170.966H173.159V167.224H179.669V166.236H173.088V164.824H181.39H181.394ZM181.394 164.229H179.614V157.704H181.394V164.229Z" fill="#424142"/>
</g>
</svg>
