<svg width="328" height="328" viewBox="0 0 328 328" fill="none" xmlns="http://www.w3.org/2000/svg">
<mask id="mask0_725_1368" style="mask-type:luminance" maskUnits="userSpaceOnUse" x="3" y="3" width="321" height="321">
<path d="M323.564 163.638C323.564 75.3141 251.966 3.71613 163.642 3.71613C120.019 3.71613 80.4759 21.1818 51.6241 49.5021L30.5799 25.2657L9.53937 43.5341L33.3224 70.9254C14.6824 97.0755 3.71997 129.079 3.71997 163.638C3.71997 251.962 75.3179 323.56 163.642 323.56C203.571 323.56 240.078 308.926 268.101 284.731L282.628 296.176L299.874 274.292L287.633 264.645C310.093 237.105 323.568 201.947 323.568 163.638H323.564Z" fill="white"/>
</mask>
<g mask="url(#mask0_725_1368)">
<path d="M-12.7872 118.826C-16.7931 133.861 -18.9336 149.658 -18.9336 165.957C-18.9336 174.98 -18.2758 183.846 -17.0124 192.516C12.4971 187.165 42.0029 181.814 71.5124 176.459C71.1222 173.01 70.9178 169.506 70.9178 165.957C70.9178 157.146 72.1478 148.625 74.4444 140.554C45.3697 133.311 16.2913 126.069 -12.7835 118.826H-12.7872Z" fill="#FED0D0" stroke="#EA8B8B" stroke-width="1.11" stroke-miterlimit="10"/>
<path d="M22.0475 160.665C22.7052 160.309 23.2849 159.982 23.7792 159.684C24.2734 159.387 24.6933 159.112 25.0426 158.852C25.392 158.592 25.6707 158.347 25.8825 158.109C26.0943 157.875 26.2578 157.637 26.3693 157.403L22.0623 157.514L22.0066 155.991L26.5551 155.92V154.155H22.3039V152.631H28.3054V155.879C28.3054 156.555 28.231 157.146 28.0861 157.652C27.9412 158.157 27.6699 158.636 27.276 159.093C26.8821 159.551 26.3321 160.015 25.6298 160.491C24.9274 160.966 24.0207 161.509 22.9133 162.122L22.0512 160.669L22.0475 160.665ZM32.1144 156.202H33.9204V157.756H32.1144V164.619H30.3195V151.487H32.1144V156.202Z" fill="#424142"/>
<path d="M35.6747 159.677V154.185H34.6156V152.758H41.1262V154.185H40.1377V159.591C40.3272 159.573 40.5131 159.554 40.6951 159.536C40.8772 159.517 41.0593 159.499 41.2377 159.48L41.3938 160.877C40.9032 160.952 40.3421 161.007 39.7141 161.048C39.0861 161.089 38.3763 161.104 37.5959 161.104H34.5896V159.677H35.6784H35.6747ZM38.4581 154.185H37.3581V159.677H38.4581V154.185ZM41.9029 157.588H40.7026V156.05H41.9029V151.758H43.5825V163.988H41.9029V157.592V157.588ZM44.3889 151.487H46.0686V164.619H44.3889V151.487Z" fill="#424142"/>
</g>
</svg>
