<svg width="328" height="328" viewBox="0 0 328 328" fill="none" xmlns="http://www.w3.org/2000/svg">
<mask id="mask0_1099_108" style="mask-type:luminance" maskUnits="userSpaceOnUse" x="3" y="3" width="321" height="321">
<path d="M323.564 163.638C323.564 75.3141 251.966 3.71613 163.642 3.71613C120.019 3.71613 80.4759 21.1818 51.6241 49.5021L30.5799 25.2657L9.53937 43.5341L33.3224 70.9254C14.6824 97.0755 3.71997 129.079 3.71997 163.638C3.71997 251.962 75.3179 323.56 163.642 323.56C203.571 323.56 240.078 308.926 268.101 284.731L282.628 296.176L299.874 274.292L287.633 264.645C310.093 237.105 323.568 201.947 323.568 163.638H323.564Z" fill="white"/>
</mask>
<g mask="url(#mask0_1099_108)">
<path d="M328.28 244.965C336.161 228.566 341.669 210.81 344.352 192.144C314.738 187.622 285.125 183.099 255.511 178.577C254.032 189.432 250.673 199.688 245.779 209.012C273.278 220.996 300.78 232.98 328.28 244.965Z" fill="#FED0D0" stroke="#EA8B8B" stroke-width="1.11" stroke-miterlimit="10"/>
<path d="M294.833 192H278.167C276.418 192 275 193.418 275 195.167V211.833C275 213.582 276.418 215 278.167 215H294.833C296.582 215 298 213.582 298 211.833V195.167C298 193.418 296.582 192 294.833 192Z" fill="#F85C5C"/>
<path d="M277.893 199.608H279.128L280.724 205.736L282.301 199.618L283.546 199.608L285.123 205.736L286.719 199.608H287.954L285.911 207.36H284.429L282.919 201.584L281.418 207.36H279.936L277.893 199.608Z" fill="#FDFDFD"/>
<path d="M288.409 204.159V202.8C288.409 200.691 289.929 199.466 291.725 199.466C293.349 199.466 294.499 200.416 294.879 201.974L293.71 202.306C293.435 201.195 292.808 200.606 291.725 200.606C290.575 200.606 289.635 201.366 289.635 202.867V204.102C289.635 205.603 290.575 206.363 291.725 206.363C292.808 206.363 293.435 205.774 293.71 204.662L294.879 204.995C294.499 206.553 293.349 207.503 291.725 207.503C289.929 207.503 288.409 206.287 288.409 204.159Z" fill="#FDFDFD"/>
</g>
</svg>
