<svg width="328" height="328" viewBox="0 0 328 328" fill="none" xmlns="http://www.w3.org/2000/svg">
<mask id="mask0_1099_107" style="mask-type:luminance" maskUnits="userSpaceOnUse" x="3" y="3" width="321" height="321">
<path d="M323.564 163.638C323.564 75.3141 251.966 3.71613 163.642 3.71613C120.019 3.71613 80.4759 21.1818 51.6241 49.5021L30.5799 25.2657L9.53937 43.5341L33.3224 70.9254C14.6824 97.0755 3.71997 129.079 3.71997 163.638C3.71997 251.962 75.3179 323.56 163.642 323.56C203.571 323.56 240.078 308.926 268.101 284.731L282.628 296.176L299.874 274.292L287.633 264.645C310.093 237.105 323.568 201.947 323.568 163.638H323.564Z" fill="white"/>
</mask>
<g mask="url(#mask0_1099_107)">
<path d="M81.0554 128.48C58.6659 107.038 36.2765 85.6002 13.887 64.1584C8.70306 70.6876 2.70157 79.4352 -2.63474 90.4609C-7.78525 101.107 -10.877 110.907 -12.7871 118.826C16.2876 126.069 45.366 133.311 74.4407 140.554C75.013 138.759 75.8491 136.615 77.0977 134.315C78.4021 131.914 79.8105 129.974 81.0517 128.48H81.0554Z" fill="#FED0D0" stroke="#EA8B8B" stroke-width="1.11" stroke-miterlimit="10"/>
<path d="M50.8333 103H34.1667C32.4178 103 31 104.418 31 106.167V122.833C31 124.582 32.4178 126 34.1667 126H50.8333C52.5822 126 54 124.582 54 122.833V106.167C54 104.418 52.5822 103 50.8333 103Z" fill="#F85C5C"/>
<path d="M33.8931 110.608H35.1281L36.7241 116.736L38.3012 110.618L39.5457 110.608L41.1227 116.736L42.7188 110.608H43.9538L41.9112 118.36H40.4292L38.9187 112.584L37.4176 118.36H35.9356L33.8931 110.608Z" fill="#FDFDFD"/>
<path d="M44.4092 115.159V113.8C44.4092 111.691 45.9292 110.466 47.7248 110.466C49.3493 110.466 50.4988 111.416 50.8788 112.974L49.7103 113.306C49.4348 112.195 48.8078 111.606 47.7248 111.606C46.5752 111.606 45.6347 112.366 45.6347 113.867V115.102C45.6347 116.603 46.5752 117.363 47.7248 117.363C48.8078 117.363 49.4348 116.774 49.7103 115.662L50.8788 115.995C50.4988 117.553 49.3493 118.503 47.7248 118.503C45.9292 118.503 44.4092 117.287 44.4092 115.159Z" fill="#FDFDFD"/>
</g>
</svg>
