<?xml version="1.0" encoding="UTF-8"?>
<svg id="_x36_" xmlns="http://www.w3.org/2000/svg" viewBox="0 0 1505.97 958.41">
  <defs>
    <style>
      .cls-1 {
        fill: #fcf2f2;
        stroke-width: 10px;
      }

      .cls-1, .cls-2, .cls-3 {
        stroke: #e68b8b;
        stroke-miterlimit: 10;
      }

      .cls-2 {
        fill: none;
      }

      .cls-2, .cls-3 {
        stroke-width: 3px;
      }

      .cls-4 {
        letter-spacing: 0em;
      }

      .cls-5 {
        fill: #221f20;
        font-family: NanumSquareNeoTTF-dEb, 'NanumSquare Neo';
        font-size: 12px;
      }

      .cls-6 {
        letter-spacing: -.06em;
      }

      .cls-7 {
        letter-spacing: -.03em;
      }

      .cls-8 {
        letter-spacing: -.01em;
      }

      .cls-9 {
        letter-spacing: -.01em;
      }

      .cls-10 {
        letter-spacing: 0em;
      }

      .cls-3 {
        fill: #f3cdcf;
      }
    </style>
  </defs>
  <g id="Layer_x5F_border-6" data-name="Layer_x5F_border">
    <polygon class="cls-1" points="1246.41 362.7 1034.33 362.7 1034.33 383.05 961.45 383.05 961.45 302.1 640.79 302.1 640.79 315.67 542.66 315.67 542.66 244.79 231 244.79 231 653.55 961.75 653.55 1246.41 651.08 1354.6 651.08 1354.6 363.17 1246.41 362.7"/>
  </g>
  <g id="Layer_x5F_others-6" data-name="Layer_x5F_others">
    <rect class="cls-2" x="961.75" y="518.08" width="68.48" height="133"/>
    <g>
      <rect class="cls-2" x="961.75" y="552.18" width="32.82" height="7.81"/>
      <rect class="cls-2" x="961.75" y="559.98" width="32.82" height="8.12"/>
      <rect class="cls-2" x="961.75" y="568.1" width="32.82" height="9.37"/>
      <rect class="cls-2" x="961.75" y="577.46" width="32.82" height="7.49"/>
      <rect class="cls-2" x="961.75" y="584.96" width="32.82" height="9.37"/>
      <rect class="cls-2" x="961.75" y="594.32" width="32.82" height="6.71"/>
      <rect class="cls-2" x="961.75" y="601.04" width="32.82" height="10.15"/>
      <rect class="cls-2" x="961.75" y="611.18" width="32.82" height="9.37"/>
      <rect class="cls-2" x="961.75" y="620.55" width="32.82" height="8.12"/>
      <rect class="cls-2" x="961.75" y="628.67" width="32.82" height="8.12"/>
    </g>
    <g>
      <rect class="cls-2" x="994.57" y="552.32" width="35.66" height="7.79"/>
      <rect class="cls-2" x="994.57" y="560.11" width="35.66" height="8.1"/>
      <rect class="cls-2" x="994.57" y="568.22" width="35.66" height="9.35"/>
      <rect class="cls-2" x="994.57" y="577.57" width="35.66" height="7.48"/>
      <rect class="cls-2" x="994.57" y="585.05" width="35.66" height="9.35"/>
      <rect class="cls-2" x="994.57" y="594.4" width="35.66" height="6.7"/>
      <rect class="cls-2" x="994.57" y="601.1" width="35.66" height="10.13"/>
      <rect class="cls-2" x="994.57" y="611.23" width="35.66" height="9.35"/>
      <rect class="cls-2" x="994.57" y="620.58" width="35.66" height="8.1"/>
      <rect class="cls-2" x="994.57" y="628.68" width="35.66" height="8.1"/>
    </g>
    <rect class="cls-3" x="856.51" y="620.55" width="105.24" height="33"/>
    <rect class="cls-2" x="1030.23" y="620.55" width="324.37" height="30.53"/>
    <rect class="cls-2" x="565.38" y="315.67" width="58.48" height="101.88"/>
    <g>
      <rect class="cls-2" x="565.38" y="315.62" width="28.86" height="8.16"/>
      <rect class="cls-2" x="565.38" y="323.77" width="28.86" height="8.48"/>
      <rect class="cls-2" x="565.38" y="332.26" width="28.86" height="9.79"/>
      <rect class="cls-2" x="565.38" y="342.05" width="28.86" height="7.83"/>
      <rect class="cls-2" x="565.38" y="349.88" width="28.86" height="9.79"/>
      <rect class="cls-2" x="565.38" y="359.66" width="28.86" height="7.01"/>
      <rect class="cls-2" x="565.38" y="366.68" width="28.86" height="10.6"/>
      <rect class="cls-2" x="565.38" y="377.28" width="28.86" height="9.79"/>
      <rect class="cls-2" x="565.38" y="387.07" width="28.86" height="8.48"/>
      <rect class="cls-2" x="565.38" y="395.55" width="28.86" height="8.48"/>
    </g>
    <g>
      <rect class="cls-2" x="594.24" y="315.62" width="29.61" height="8.16"/>
      <rect class="cls-2" x="594.24" y="323.77" width="29.61" height="8.48"/>
      <rect class="cls-2" x="594.24" y="332.26" width="29.61" height="9.79"/>
      <rect class="cls-2" x="594.24" y="342.05" width="29.61" height="7.83"/>
      <rect class="cls-2" x="594.24" y="349.88" width="29.61" height="9.79"/>
      <rect class="cls-2" x="594.24" y="359.66" width="29.61" height="7.01"/>
      <rect class="cls-2" x="594.24" y="366.68" width="29.61" height="10.6"/>
      <rect class="cls-2" x="594.24" y="377.28" width="29.61" height="9.79"/>
      <rect class="cls-2" x="594.24" y="387.07" width="29.61" height="8.48"/>
      <rect class="cls-2" x="594.24" y="395.55" width="29.61" height="8.48"/>
    </g>
    <rect class="cls-2" x="623.85" y="391.31" width="18.18" height="26.24"/>
    <rect class="cls-2" x="753.18" y="302.1" width="30.93" height="115.45"/>
    <rect class="cls-3" x="758.88" y="309.64" width="25.23" height="29.01"/>
    <rect class="cls-3" x="758.88" y="347.48" width="25.23" height="28.38"/>
    <rect class="cls-3" x="758.88" y="384.68" width="25.23" height="27.75"/>
    <rect class="cls-3" x="542.66" y="315.67" width="22.72" height="34.21"/>
    <rect class="cls-3" x="542.66" y="394.83" width="22.72" height="22.72"/>
    <polygon class="cls-3" points="853.01 302.1 865.24 302.1 865.24 332.26 877.47 332.26 877.47 417.55 853.01 417.55 853.01 302.1"/>
  </g>
  <g id="Layer_110">
    <rect class="cls-3" x="1080.14" y="518.08" width="52.36" height="102.47"/>
    <text class="cls-5" transform="translate(1093.8 565.1)"><tspan x="0" y="0">6</tspan><tspan class="cls-7" x="8.53" y="0">2</tspan><tspan class="cls-4" x="16.45" y="0">4</tspan><tspan x="-4.54" y="14.4">연구실</tspan></text>
  </g>
  <g id="Layer_126">
    <rect class="cls-3" x="747.47" y="454.72" width="77.4" height="69.6"/>
    <text class="cls-5" transform="translate(773.85 478.1)"><tspan x="0" y="0">637</tspan><tspan x="-4.75" y="14.4">대학원</tspan><tspan x="-10.43" y="28.8">세미나실</tspan></text>
  </g>
  <g id="Layer_127">
    <rect class="cls-3" x="677.86" y="454.72" width="69.6" height="69.6"/>
    <text class="cls-5" transform="translate(699.74 478.1)"><tspan x="0" y="0">638</tspan><tspan x="-4.14" y="14.4">대학원</tspan><tspan x="-9.83" y="28.8">세미나실</tspan></text>
  </g>
  <g id="Layer_128">
    <rect class="cls-3" x="534.77" y="454.72" width="118.04" height="69.6"/>
    <text class="cls-5" transform="translate(580.99 478.1)"><tspan x="0" y="0">639</tspan><tspan x="-9.95" y="14.4">영어카페</tspan><tspan x="-15.64" y="28.8">영어교과실</tspan></text>
  </g>
  <g id="Layer_129">
    <polygon class="cls-3" points="365.5 368.97 365.5 508.73 385.54 508.73 385.54 524.32 504.14 524.32 504.14 387.07 486.66 387.07 486.66 368.97 365.5 368.97"/>
    <text class="cls-5" transform="translate(423.17 442.43)"><tspan x="0" y="0">601</tspan><tspan x="-16.79" y="14.4">교수휴게실</tspan></text>
  </g>
  <g id="Layer_130">
    <rect class="cls-3" x="371.81" y="244.79" width="62.94" height="92.36"/>
    <text class="cls-5" transform="translate(390.31 286.75)"><tspan x="0" y="0">604</tspan><tspan x="-4.09" y="14.4">연구실</tspan></text>
  </g>
  <g id="Layer_131">
    <rect class="cls-3" x="434.75" y="244.79" width="54.86" height="92.36"/>
    <text class="cls-5" transform="translate(449.24 286.75)"><tspan x="0" y="0">603</tspan><tspan x="-4.12" y="14.4">연구실</tspan></text>
  </g>
  <g id="Layer_132">
    <rect class="cls-3" x="489.61" y="244.79" width="53.05" height="92.36"/>
    <text class="cls-5" transform="translate(503.32 286.75)"><tspan x="0" y="0">602</tspan><tspan x="-4.25" y="14.4">연구실</tspan></text>
  </g>
  <g id="Layer_133">
    <rect class="cls-2" x="642.04" y="391.31" width="30.69" height="26.24"/>
  </g>
  <g id="Layer_111">
    <rect class="cls-3" x="1132.51" y="518.08" width="53.26" height="102.47"/>
    <text class="cls-5" transform="translate(1146.59 565.1)"><tspan x="0" y="0">625</tspan><tspan x="-4.51" y="14.4">연구실</tspan></text>
  </g>
  <g id="Layer_112">
    <rect class="cls-3" x="1185.77" y="518.08" width="54.6" height="102.47"/>
    <text class="cls-5" transform="translate(1200.4 565.1)"><tspan x="0" y="0">626</tspan><tspan x="-4.39" y="14.4">연구실</tspan></text>
  </g>
  <g id="Layer_113">
    <rect class="cls-3" x="1240.37" y="518.08" width="52.36" height="102.47"/>
    <text class="cls-5" transform="translate(1254.36 565.1)"><tspan x="0" y="0">627</tspan><tspan x="-4.87" y="14.4">연구실</tspan></text>
  </g>
  <g id="Layer_114">
    <rect class="cls-3" x="1292.74" y="518.08" width="61.87" height="102.47"/>
    <text class="cls-5" transform="translate(1310.87 565.1)"><tspan x="0" y="0">628</tspan><tspan x="-4.27" y="14.4">연구실</tspan></text>
  </g>
  <g id="Layer_115">
    <rect class="cls-3" x="1295.87" y="388.26" width="58.73" height="93.54"/>
    <text class="cls-5" transform="translate(1312.56 430.81)"><tspan x="0" y="0">629</tspan><tspan x="-4.39" y="14.4">연구실</tspan></text>
  </g>
  <g id="Layer_116">
    <rect class="cls-3" x="1240.37" y="388.26" width="55.5" height="93.54"/>
    <text class="cls-5" transform="translate(1255.18 430.81)"><tspan x="0" y="0">630</tspan><tspan x="-4.12" y="14.4">연구실</tspan></text>
  </g>
  <g id="Layer_117">
    <rect class="cls-3" x="1185.77" y="388.26" width="54.6" height="93.54"/>
    <text class="cls-5" transform="translate(1201.63 430.81)"><tspan x="0" y="0">6</tspan><tspan class="cls-9" x="8.53" y="0">3</tspan><tspan x="16.94" y="0">1</tspan><tspan x="-5.62" y="14.4">연구실</tspan></text>
  </g>
  <g id="Layer_118">
    <rect class="cls-3" x="1132.51" y="388.26" width="53.26" height="93.54"/>
    <text class="cls-5" transform="translate(1146.47 430.81)"><tspan x="0" y="0">632</tspan><tspan x="-4.39" y="14.4">연구실</tspan></text>
  </g>
  <g id="Layer_119">
    <rect class="cls-3" x="1080.14" y="388.26" width="52.36" height="93.54"/>
    <text class="cls-5" transform="translate(1093.53 430.81)"><tspan x="0" y="0">633</tspan><tspan x="-4.27" y="14.4">연구실</tspan></text>
  </g>
  <g id="Layer_120">
    <rect class="cls-3" x="1030.23" y="388.26" width="49.92" height="93.54"/>
    <text class="cls-5" transform="translate(1042.36 430.81)"><tspan x="0" y="0">634</tspan><tspan x="-4.24" y="14.4">연구실</tspan></text>
  </g>
  <g id="Layer_121">
    <rect class="cls-3" x="856.51" y="454.72" width="113.68" height="37.86"/>
    <text class="cls-5" transform="translate(900.55 469.43)"><tspan x="0" y="0">636</tspan><tspan class="cls-6" x="-35.68" y="14.4">K</tspan><tspan x="-27.76" y="14.4">U:CEAM 강의실</tspan></text>
  </g>
  <g id="Layer_122">
    <polygon class="cls-3" points="865.24 302.1 865.24 332.26 877.47 332.26 877.47 417.55 961.75 417.55 961.75 302.1 865.24 302.1"/>
    <text class="cls-5" transform="translate(900.82 348.41)"><tspan x="0" y="0">635</tspan><tspan x="-4.39" y="14.4">대학원</tspan><tspan x="-10.07" y="28.8">세미나실</tspan></text>
  </g>
  <g id="Layer_123">
    <rect class="cls-2" x="694.56" y="303.18" width="58.43" height="114.37"/>
  </g>
  <g id="Layer_124">
    <polygon class="cls-2" points="694.56 417.55 672.73 417.55 672.73 391.31 623.85 391.31 623.85 315.62 640.79 315.62 640.79 302.1 694.56 302.1 694.56 417.55"/>
  </g>
  <g id="Layer_91">
    <rect class="cls-3" x="231" y="246.33" width="102.7" height="57.32"/>
    <text class="cls-5" transform="translate(269.53 270.78)"><tspan x="0" y="0">605</tspan><tspan x="-4.24" y="14.4">연구실</tspan></text>
  </g>
  <g id="Layer_92">
    <rect class="cls-3" x="231" y="302.1" width="102.7" height="57.72"/>
    <text class="cls-5" transform="translate(269.41 326.75)"><tspan x="0" y="0">606</tspan><tspan x="-4.12" y="14.4">연구실</tspan></text>
  </g>
  <g id="Layer_93">
    <rect class="cls-3" x="231" y="359.83" width="102.7" height="57.72"/>
    <text class="cls-5" transform="translate(269.89 384.47)"><tspan x="0" y="0">607</tspan><tspan x="-4.6" y="14.4">연구실</tspan></text>
  </g>
  <g id="Layer_94">
    <rect class="cls-3" x="242.56" y="417.55" width="91.14" height="57.48"/>
    <text class="cls-5" transform="translate(275.06 442.07)"><tspan x="0" y="0">608</tspan><tspan x="-4" y="14.4">연구실</tspan></text>
  </g>
  <g id="Layer_95">
    <rect class="cls-3" x="231" y="475.03" width="102.7" height="57.74"/>
    <text class="cls-5" transform="translate(269.41 499.69)"><tspan x="0" y="0">609</tspan><tspan x="-4.12" y="14.4">연구실</tspan></text>
  </g>
  <g id="Layer_96">
    <rect class="cls-3" x="231" y="532.78" width="102.7" height="60.63"/>
    <text class="cls-5" transform="translate(270.77 558.87)"><tspan class="cls-10" x="0" y="0">6</tspan><tspan x="8.41" y="0">10</tspan><tspan x="-5.48" y="14.4">연구실</tspan></text>
  </g>
  <g id="Layer_97">
    <rect class="cls-3" x="231" y="593.41" width="102.7" height="60.15"/>
    <text class="cls-5" transform="translate(272.21 619.26)"><tspan class="cls-8" x="0" y="0">6</tspan><tspan x="8.41" y="0">11</tspan><tspan x="-6.92" y="14.4">연구실</tspan></text>
  </g>
  <g id="Layer_98">
    <rect class="cls-3" x="371.81" y="557.14" width="62.94" height="96.42"/>
    <text class="cls-5" transform="translate(391.96 601.13)"><tspan class="cls-8" x="0" y="0">6</tspan><tspan x="8.41" y="0">12</tspan><tspan x="-5.75" y="14.4">연구실</tspan></text>
  </g>
  <g id="Layer_99">
    <rect class="cls-3" x="434.75" y="557.14" width="51.9" height="96.42"/>
    <text class="cls-5" transform="translate(449.26 601.13)"><tspan class="cls-8" x="0" y="0">6</tspan><tspan x="8.41" y="0">13</tspan><tspan x="-5.62" y="14.4">연구실</tspan></text>
  </g>
  <g id="Layer_100">
    <rect class="cls-3" x="486.66" y="557.14" width="56" height="96.42"/>
    <text class="cls-5" transform="translate(503.18 601.13)"><tspan class="cls-8" x="0" y="0">6</tspan><tspan x="8.41" y="0">14</tspan><tspan x="-5.59" y="14.4">연구실</tspan></text>
  </g>
  <g id="Layer_101">
    <rect class="cls-3" x="542.66" y="557.14" width="51.96" height="96.42"/>
    <text class="cls-5" transform="translate(557.31 601.13)"><tspan class="cls-8" x="0" y="0">6</tspan><tspan x="8.41" y="0">15</tspan><tspan x="-5.74" y="14.4">연구실</tspan></text>
  </g>
  <g id="Layer_102">
    <rect class="cls-3" x="594.62" y="557.14" width="54.12" height="96.42"/>
    <text class="cls-5" transform="translate(610.23 601.13)"><tspan class="cls-8" x="0" y="0">6</tspan><tspan x="8.41" y="0">16</tspan><tspan x="-5.62" y="14.4">연구실</tspan></text>
  </g>
  <g id="Layer_103">
    <rect class="cls-3" x="648.74" y="557.14" width="52.37" height="96.42"/>
    <text class="cls-5" transform="translate(663.96 601.13)"><tspan class="cls-10" x="0" y="0">6</tspan><tspan x="8.41" y="0">17</tspan><tspan x="-6.1" y="14.4">연구실</tspan></text>
  </g>
  <g id="Layer_104">
    <rect class="cls-3" x="701.11" y="557.14" width="51.88" height="96.42"/>
    <text class="cls-5" transform="translate(715.48 601.13)"><tspan class="cls-8" x="0" y="0">6</tspan><tspan x="8.41" y="0">18</tspan><tspan x="-5.5" y="14.4">연구실</tspan></text>
  </g>
  <g id="Layer_105">
    <rect class="cls-3" x="752.99" y="557.14" width="54.14" height="96.42"/>
    <text class="cls-5" transform="translate(768.61 601.13)"><tspan class="cls-8" x="0" y="0">6</tspan><tspan x="8.41" y="0">19</tspan><tspan x="-5.62" y="14.4">연구실</tspan></text>
  </g>
  <g id="Layer_106">
    <rect class="cls-3" x="807.12" y="557.14" width="49.39" height="96.42"/>
    <text class="cls-5" transform="translate(819 601.13)"><tspan x="0" y="0">620</tspan><tspan x="-4.25" y="14.4">연구실</tspan></text>
  </g>
  <g id="Layer_107">
    <rect class="cls-3" x="856.51" y="518.08" width="52.62" height="102.47"/>
    <text class="cls-5" transform="translate(871.45 565.1)"><tspan x="0" y="0">621</tspan><tspan x="-5.69" y="14.4">연구실</tspan></text>
  </g>
  <g id="Layer_108">
    <rect class="cls-3" x="909.13" y="518.08" width="52.62" height="102.49"/>
    <text class="cls-5" transform="translate(922.9 565.11)"><tspan x="0" y="0">622</tspan><tspan x="-4.52" y="14.4">연구실</tspan></text>
  </g>
  <g id="Layer_109">
    <rect class="cls-3" x="1030.23" y="518.08" width="49.92" height="102.49"/>
    <text class="cls-5" transform="translate(1042.51 565.11)"><tspan x="0" y="0">623</tspan><tspan x="-4.39" y="14.4">연구실</tspan></text>
  </g>
</svg>