<?xml version="1.0" encoding="UTF-8"?>
<svg id="_x34_" xmlns="http://www.w3.org/2000/svg" viewBox="0 0 1215.05 601.97">
  <defs>
    <style>
      .cls-1, .cls-2 {
        fill: #231f20;
        font-family: NanumSquareNeoTTF-dEb, 'NanumSquare Neo';
      }

      .cls-3 {
        fill: #fef3f2;
        stroke-width: 10px;
      }

      .cls-3, .cls-4, .cls-5 {
        stroke: #f48589;
        stroke-miterlimit: 10;
      }

      .cls-6 {
        font-size: 6px;
      }

      .cls-7 {
        font-size: 8px;
      }

      .cls-4 {
        fill: none;
      }

      .cls-4, .cls-5 {
        stroke-width: 3px;
      }

      .cls-5 {
        fill: #facbcf;
      }

      .cls-8, .cls-2 {
        font-size: 12px;
      }

      .cls-9 {
        letter-spacing: 0em;
      }

      .cls-10 {
        letter-spacing: -.02em;
      }

      .cls-11 {
        letter-spacing: -.05em;
      }

      .cls-12 {
        letter-spacing: -.03em;
      }
    </style>
  </defs>
  <g id="Layer_x5F_border-4" data-name="Layer_x5F_border">
    <polygon class="cls-3" points="55.14 111.02 55.14 485.69 100.38 485.69 463.65 485.69 763.3 485.69 1164.06 485.69 1164.06 111.02 55.14 111.02"/>
  </g>
  <g id="Layer_x5F_others-4" data-name="Layer_x5F_others">
    <g>
      <rect class="cls-5" x="789.15" y="275.3" width="80.75" height="29.09"/>
      <rect class="cls-5" x="758.89" y="275.3" width="30.26" height="29.09"/>
      <rect class="cls-4" x="758.89" y="304.39" width="111.01" height="55.86"/>
      <rect class="cls-5" x="653.45" y="311.44" width="58.3" height="48.81"/>
      <rect class="cls-5" x="711.76" y="311.44" width="17.62" height="48.81"/>
      <rect class="cls-5" x="552.73" y="275.3" width="46.25" height="41.87"/>
      <rect class="cls-5" x="552.73" y="317.16" width="46.25" height="43.09"/>
      <g>
        <rect class="cls-4" x="789.21" y="304.41" width="5.35" height="27.76"/>
        <rect class="cls-4" x="794.56" y="304.41" width="5.35" height="27.76"/>
        <rect class="cls-4" x="799.91" y="304.41" width="5.35" height="27.76"/>
        <rect class="cls-4" x="805.26" y="304.41" width="5.35" height="27.76"/>
        <rect class="cls-4" x="810.6" y="304.41" width="5.35" height="27.76"/>
        <rect class="cls-4" x="815.98" y="304.41" width="5.35" height="27.76"/>
        <rect class="cls-4" x="821.33" y="304.41" width="5.35" height="27.76"/>
        <rect class="cls-4" x="826.67" y="304.41" width="5.35" height="27.76"/>
        <rect class="cls-4" x="832.02" y="304.41" width="5.35" height="27.76"/>
        <rect class="cls-4" x="837.37" y="304.41" width="5.35" height="27.76"/>
      </g>
      <g>
        <rect class="cls-4" x="789.11" y="332.17" width="5.35" height="27.76"/>
        <rect class="cls-4" x="794.46" y="332.17" width="5.35" height="27.76"/>
        <rect class="cls-4" x="799.81" y="332.17" width="5.35" height="27.76"/>
        <rect class="cls-4" x="805.15" y="332.17" width="5.35" height="27.76"/>
        <rect class="cls-4" x="810.5" y="332.17" width="5.35" height="27.76"/>
        <rect class="cls-4" x="815.88" y="332.17" width="5.35" height="27.76"/>
        <rect class="cls-4" x="821.22" y="332.17" width="5.35" height="27.76"/>
        <rect class="cls-4" x="826.57" y="332.17" width="5.35" height="27.76"/>
        <rect class="cls-4" x="831.92" y="332.17" width="5.35" height="27.76"/>
        <rect class="cls-4" x="837.27" y="332.17" width="5.35" height="27.76"/>
      </g>
    </g>
    <g>
      <rect class="cls-4" x="352.85" y="275.3" width="106.04" height="55.52"/>
      <rect class="cls-5" x="352.53" y="330.82" width="106.36" height="29.43"/>
      <g>
        <rect class="cls-4" x="377.39" y="275.3" width="5.35" height="27.76"/>
        <rect class="cls-4" x="382.73" y="275.3" width="5.35" height="27.76"/>
        <rect class="cls-4" x="388.08" y="275.3" width="5.35" height="27.76"/>
        <rect class="cls-4" x="393.43" y="275.3" width="5.35" height="27.76"/>
        <rect class="cls-4" x="398.78" y="275.3" width="5.35" height="27.76"/>
        <rect class="cls-4" x="404.15" y="275.3" width="5.35" height="27.76"/>
        <rect class="cls-4" x="409.5" y="275.3" width="5.35" height="27.76"/>
        <rect class="cls-4" x="414.85" y="275.3" width="5.35" height="27.76"/>
        <rect class="cls-4" x="420.19" y="275.3" width="5.35" height="27.76"/>
        <rect class="cls-4" x="425.54" y="275.3" width="5.35" height="27.76"/>
      </g>
      <g>
        <rect class="cls-4" x="377.28" y="303.06" width="5.35" height="27.76"/>
        <rect class="cls-4" x="382.63" y="303.06" width="5.35" height="27.76"/>
        <rect class="cls-4" x="387.98" y="303.06" width="5.35" height="27.76"/>
        <rect class="cls-4" x="393.33" y="303.06" width="5.35" height="27.76"/>
        <rect class="cls-4" x="398.67" y="303.06" width="5.35" height="27.76"/>
        <rect class="cls-4" x="404.05" y="303.06" width="5.35" height="27.76"/>
        <rect class="cls-4" x="409.4" y="303.06" width="5.35" height="27.76"/>
        <rect class="cls-4" x="414.74" y="303.06" width="5.35" height="27.76"/>
        <rect class="cls-4" x="420.09" y="303.06" width="5.35" height="27.76"/>
        <rect class="cls-4" x="425.44" y="303.06" width="5.35" height="27.76"/>
      </g>
    </g>
  </g>
  <g id="Layer_91">
    <rect class="cls-5" x="55.14" y="111.02" width="90.48" height="133.55"/>
    <text class="cls-2" transform="translate(87.53 173.58)"><tspan x="0" y="0">420</tspan><tspan x="-4.22" y="14.4">공조실</tspan></text>
  </g>
  <g id="Layer_92">
    <rect class="cls-5" x="145.61" y="111.02" width="410.54" height="133.55"/>
    <text class="cls-2" transform="translate(338.04 173.58)"><tspan x="0" y="0">402</tspan><tspan x="-71.29" y="14.4">(주)뉴라클제네틱스 </tspan><tspan class="cls-10" x="32.56" y="14.4">R</tspan><tspan x="41.2" y="14.4">&amp;D 연구소</tspan></text>
  </g>
  <g id="Layer_93">
    <rect class="cls-5" x="55.16" y="244.24" width="39" height="31"/>
  </g>
  <g id="Layer_94">
    <polygon class="cls-5" points="352.53 361.25 352.85 276.3 249.71 276.3 55.14 276.3 55.14 486.69 249.71 486.69 407.94 486.69 407.94 361.25 352.53 361.25"/>
    <text class="cls-2" transform="translate(218.57 377.28)"><tspan x="0" y="0">406</tspan><tspan x="-37.46" y="14.4">(주)뉴라클사이언스</tspan></text>
  </g>
  <g id="Layer_96">
    <rect class="cls-5" x="407.94" y="391.17" width="66.22" height="94.52"/>
    <text class="cls-1" transform="translate(425.2 422.82)"><tspan class="cls-8"><tspan class="cls-10" x="0" y="0">4</tspan><tspan class="cls-9" x="8.35" y="0">11-1</tspan></tspan><tspan class="cls-7"><tspan x="8.77" y="9.6">(주)</tspan></tspan><tspan class="cls-7"><tspan x="-6.91" y="19.2">코리아이앤피</tspan></tspan><tspan class="cls-7"><tspan x=".68" y="28.8">유디클럽</tspan></tspan><tspan class="cls-7"><tspan x="1.03" y="38.4">U</tspan><tspan class="cls-12" x="7.39" y="38.4">DT</tspan><tspan class="cls-11" x="18.76" y="38.4">O</tspan><tspan x="24.74" y="38.4">X</tspan></tspan></text>
    <rect class="cls-5" x="474.16" y="391.24" width="52" height="94"/>
    <text class="cls-1" transform="translate(483.14 422.63)"><tspan class="cls-8"><tspan class="cls-10" x="0" y="0">4</tspan><tspan class="cls-9" x="8.35" y="0">11-2</tspan></tspan><tspan class="cls-7"><tspan x="9.94" y="9.6">(주)</tspan></tspan><tspan class="cls-7"><tspan x="-5.74" y="19.2">코리아이앤피</tspan></tspan><tspan class="cls-7"><tspan x="1.85" y="28.8">유디클럽</tspan></tspan><tspan class="cls-7"><tspan x="2.2" y="38.4">U</tspan><tspan class="cls-12" x="8.56" y="38.4">DT</tspan><tspan class="cls-11" x="19.93" y="38.4">O</tspan><tspan x="25.91" y="38.4">X</tspan></tspan></text>
  </g>
  <g id="Layer_97">
    <rect class="cls-5" x="526.16" y="391.24" width="118" height="94"/>
    <text class="cls-2" transform="translate(568.02 434.02)"><tspan class="cls-10" x="0" y="0">4</tspan><tspan x="8.35" y="0">11-3</tspan><tspan x="-21.92" y="14.4">(주)에스엠하엘</tspan></text>
  </g>
  <g id="Layer_98">
    <rect class="cls-5" x="644.16" y="391.24" width="102" height="94"/>
    <text class="cls-2" transform="translate(677.99 426.82)"><tspan class="cls-10" x="0" y="0">4</tspan><tspan class="cls-9" x="8.35" y="0">11-4</tspan><tspan x="-10.51" y="14.4">(주)씨앤피</tspan><tspan x="-5.58" y="28.8">솔루션즈</tspan></text>
    <rect class="cls-5" x="746.16" y="391.17" width="71.91" height="94.52"/>
    <text class="cls-2" transform="translate(765.09 427.01)"><tspan class="cls-10" x="0" y="0">4</tspan><tspan class="cls-9" x="8.35" y="0">11-5</tspan><tspan x="-10.66" y="14.4">(주)씨앤피</tspan><tspan x="-5.73" y="28.8">솔루션즈</tspan></text>
  </g>
  <g id="Layer_100">
    <polygon class="cls-5" points="819.06 484.69 969.66 484.69 969.66 274.3 870.9 274.3 870.9 359.25 819.16 359.24 819.06 484.69"/>
    <text class="cls-2" transform="translate(877.35 375.28)"><tspan class="cls-10" x="0" y="0">4</tspan><tspan class="cls-9" x="8.35" y="0">12-1</tspan><tspan x="-33.42" y="14.4">(주)넥스트앤바이오</tspan></text>
  </g>
  <g id="Layer_101">
    <polygon class="cls-5" points="1061.22 275.3 1055.22 275.3 968.66 275.3 968.66 485.69 1055.22 485.69 1061.22 485.69 1164.03 485.69 1164.16 274.24 1061.22 275.3"/>
    <text class="cls-2" transform="translate(1048.22 375.75)"><tspan class="cls-10" x="0" y="0">4</tspan><tspan class="cls-9" x="8.35" y="0">12-2</tspan><tspan x="-20.87" y="14.4">(주)루미나엑스</tspan></text>
  </g>
  <g id="Layer_102">
    <rect class="cls-5" x="1124.16" y="245.24" width="40" height="29"/>
    <text class="cls-2" transform="translate(1127.09 262.72)"><tspan x="0" y="0">휴게실</tspan></text>
  </g>
  <g id="Layer_103">
    <rect class="cls-5" x="1071.71" y="111.02" width="92.35" height="134.51"/>
    <text class="cls-2" transform="translate(1106.48 174.06)"><tspan class="cls-10" x="0" y="0">4</tspan><tspan class="cls-9" x="8.35" y="0">19</tspan><tspan x="-5.65" y="14.4">공조실</tspan></text>
  </g>
  <g id="Layer_104">
    <rect class="cls-5" x="766.23" y="111.02" width="305.93" height="134.51"/>
    <text class="cls-2" transform="translate(899.32 174.06)"><tspan x="0" y="0">403-2</tspan><tspan x="-62.78" y="14.4">(주)뉴라클제네틱스 </tspan><tspan class="cls-10" x="41.07" y="14.4">R</tspan><tspan x="49.71" y="14.4">&amp;D오피스</tspan></text>
  </g>
  <g id="Layer_105">
    <rect class="cls-5" x="556.16" y="111.02" width="210.07" height="134.51"/>
    <text class="cls-2" transform="translate(642.49 174.06)"><tspan x="0" y="0">403-1</tspan><tspan x="-31.73" y="14.4">(주)씨앤피솔루션즈</tspan></text>
  </g>
  <g id="Layer_106">
    <polygon class="cls-4" points="506.91 296.02 506.91 311.44 484.01 311.44 484.01 360.25 552.73 360.25 552.73 296.02 506.91 296.02"/>
  </g>
  <g id="Layer_107">
    <polygon class="cls-4" points="653.45 311.44 653.45 275.3 729.38 275.3 729.38 298.35 706.47 298.35 706.47 311.44 653.45 311.44"/>
  </g>
  <g id="Layer_108">
    <rect class="cls-5" x="520.57" y="275.3" width="32.16" height="20.72"/>
    <text class="cls-1" transform="translate(525.72 285.95)"><tspan class="cls-8"><tspan class="cls-10" x="0" y="0">4</tspan><tspan class="cls-9" x="8.35" y="0">17</tspan></tspan><tspan class="cls-6"><tspan x="5.24" y="7.2">창고</tspan></tspan></text>
  </g>
  <g id="Layer_109">
    <rect class="cls-5" x="484.01" y="275.3" width="36.56" height="20.72"/>
    <text class="cls-1" transform="translate(490.75 285.95)"><tspan class="cls-8"><tspan class="cls-10" x="0" y="0">4</tspan><tspan x="8.35" y="0">18</tspan></tspan><tspan class="cls-6"><tspan x="5.85" y="7.2">창고</tspan></tspan></text>
  </g>
</svg>