<?xml version="1.0" encoding="UTF-8"?><svg xmlns="http://www.w3.org/2000/svg" viewBox="0 0 1920 1080"><g id="Layer_border"><polygon points="1499.46 817 1430.64 770 484.86 770 416.04 817 74.5 817 74.5 192 419.5 192 419.5 471 729.5 471 729.5 418 1186 418 1186 471 1496 471 1496 192 1841 192 1841 817 1499.46 817" fill="#fdf3f2"/><path d="m1836,197v615h-335c-22.94-15.67-45.88-31.33-68.82-47H483.32c-22.94,15.67-45.88,31.33-68.82,47H79.5V197h335v279h320v-53h446.5v53h320V197h335m10-10h-355v279h-300v-53h-466.5v53h-300V187H69.5v635h348.09l2.55-1.74,19.87-13.57,46.4-31.69h942.69l11.99,8.19,54.28,37.07,2.55,1.74h348.09V187h0Z" fill="#e18686"/></g><g id="Layer_others"><polyline points="1431 633.5 1500.5 633.5 1500.5 703.93" fill="none" stroke="#e18686" stroke-miterlimit="10" stroke-width="3"/><line x1="1802" y1="321" x2="1836" y2="321" fill="none" stroke="#e18686" stroke-miterlimit="10" stroke-width="3"/><rect x="411.5" y="633.5" width="71" height="133" fill="none" stroke="#e18686" stroke-miterlimit="10" stroke-width="3"/><line x1="411.5" y1="767" x2="411.5" y2="813.5" fill="none" stroke="#e18686" stroke-miterlimit="10" stroke-width="3"/><polygon points="163.5 517.5 97.78 532.48 97.78 607.5 130.64 638.57 163.5 638.57 163.5 517.5" fill="none" opacity=".4" stroke="#e18686" stroke-miterlimit="10" stroke-width="3"/><polygon points="319.78 517.5 385.5 532.48 385.5 607.5 352.64 638.57 319.78 638.57 319.78 517.5" fill="none" opacity=".4" stroke="#e18686" stroke-miterlimit="10" stroke-width="3"/><rect x="184.75" y="513" width="111" height="128" fill="none" opacity=".4" stroke="#e18686" stroke-miterlimit="10" stroke-width="3"/><rect x="176.25" y="378" width="128" height="114" fill="none" opacity=".4" stroke="#e18686" stroke-miterlimit="10" stroke-width="3"/><polygon points="78.62 378 78.62 509.5 148 497.5 148 378 78.62 378" fill="none" opacity=".4" stroke="#e18686" stroke-miterlimit="10" stroke-width="3"/><polygon points="415 378 415 509.5 345.62 497.5 345.62 378 415 378" fill="none" opacity=".4" stroke="#e18686" stroke-miterlimit="10" stroke-width="3"/><path d="m415.5,611.5c-17.67,26.67-35.33,53.33-53,80v8" fill="none" stroke="#e18686" stroke-miterlimit="10" stroke-width="3"/><path d="m75.5,611c17.67,26.67,35.33,53.33,53,80v8" fill="none" stroke="#e18686" stroke-miterlimit="10" stroke-width="3"/><line x1="1430.5" y1="680.5" x2="1500.5" y2="680.5" fill="none" stroke="#e18686" stroke-miterlimit="10" stroke-width="3"/><line x1="1430.5" y1="691" x2="1500.5" y2="691" fill="none" stroke="#e18686" stroke-miterlimit="10" stroke-width="3"/><line x1="1430.5" y1="701.5" x2="1500.5" y2="701.5" fill="none" stroke="#e18686" stroke-miterlimit="10" stroke-width="3"/><line x1="1430.5" y1="712" x2="1500.5" y2="712" fill="none" stroke="#e18686" stroke-miterlimit="10" stroke-width="3"/><line x1="1430.5" y1="722.5" x2="1500.5" y2="722.5" fill="none" stroke="#e18686" stroke-miterlimit="10" stroke-width="3"/><line x1="1430.5" y1="733" x2="1500.5" y2="733" fill="none" stroke="#e18686" stroke-miterlimit="10" stroke-width="3"/><line x1="1430.5" y1="743.5" x2="1500.5" y2="743.5" fill="none" stroke="#e18686" stroke-miterlimit="10" stroke-width="3"/><line x1="1430.5" y1="754" x2="1500.5" y2="754" fill="none" stroke="#e18686" stroke-miterlimit="10" stroke-width="3"/><line x1="1430.5" y1="764.5" x2="1500.5" y2="764.5" fill="none" stroke="#e18686" stroke-miterlimit="10" stroke-width="3"/><line x1="411.5" y1="683.5" x2="481.5" y2="683.5" fill="none" stroke="#e18686" stroke-miterlimit="10" stroke-width="3"/><line x1="411.5" y1="694" x2="481.5" y2="694" fill="none" stroke="#e18686" stroke-miterlimit="10" stroke-width="3"/><line x1="411.5" y1="704.5" x2="481.5" y2="704.5" fill="none" stroke="#e18686" stroke-miterlimit="10" stroke-width="3"/><line x1="411.5" y1="715" x2="481.5" y2="715" fill="none" stroke="#e18686" stroke-miterlimit="10" stroke-width="3"/><line x1="411.5" y1="725.5" x2="481.5" y2="725.5" fill="none" stroke="#e18686" stroke-miterlimit="10" stroke-width="3"/><line x1="411.5" y1="736" x2="481.5" y2="736" fill="none" stroke="#e18686" stroke-miterlimit="10" stroke-width="3"/><line x1="411.5" y1="746.5" x2="481.5" y2="746.5" fill="none" stroke="#e18686" stroke-miterlimit="10" stroke-width="3"/><line x1="411.5" y1="757" x2="481.5" y2="757" fill="none" stroke="#e18686" stroke-miterlimit="10" stroke-width="3"/><rect x="1005.5" y="421.5" width="47" height="126" fill="none" stroke="#e18686" stroke-miterlimit="10" stroke-width="3"/><rect x="1135.5" y="421.5" width="47" height="126" fill="none" stroke="#e18686" stroke-miterlimit="10" stroke-width="3"/><rect x="1012.5" y="433.5" width="33.5" height="27" fill="none" stroke="#e18686" stroke-miterlimit="10" stroke-width="2.98"/><rect x="1012.5" y="469.5" width="33.5" height="27" fill="none" stroke="#e18686" stroke-miterlimit="10" stroke-width="2.98"/><rect x="1012.5" y="505.5" width="33.5" height="27" fill="none" stroke="#e18686" stroke-miterlimit="10" stroke-width="2.98"/><rect x="1142.5" y="433.5" width="33.5" height="27" fill="none" stroke="#e18686" stroke-miterlimit="10" stroke-width="2.98"/><rect x="1142.5" y="469.5" width="33.5" height="27" fill="none" stroke="#e18686" stroke-miterlimit="10" stroke-width="2.98"/><rect x="1142.5" y="505.5" width="33.5" height="27" fill="none" stroke="#e18686" stroke-miterlimit="10" stroke-width="2.98"/><line x1="910.5" y1="542.5" x2="1005.5" y2="542.5" fill="none" stroke="#e18686" stroke-miterlimit="10" stroke-width="3"/><line x1="911" y1="491" x2="1005" y2="491" fill="none" stroke="#e18686" stroke-miterlimit="10" stroke-width="3"/><line x1="911" y1="498.08" x2="1005" y2="498.08" fill="none" stroke="#e18686" stroke-miterlimit="10" stroke-width="3"/><line x1="911" y1="505.17" x2="1005" y2="505.17" fill="none" stroke="#e18686" stroke-miterlimit="10" stroke-width="3"/><line x1="911" y1="512.25" x2="1005" y2="512.25" fill="none" stroke="#e18686" stroke-miterlimit="10" stroke-width="3"/><line x1="911" y1="519.33" x2="1005" y2="519.33" fill="none" stroke="#e18686" stroke-miterlimit="10" stroke-width="3"/><line x1="911" y1="526.42" x2="1005" y2="526.42" fill="none" stroke="#e18686" stroke-miterlimit="10" stroke-width="3"/><line x1="911" y1="533.5" x2="1005" y2="533.5" fill="none" stroke="#e18686" stroke-miterlimit="10" stroke-width="3"/><line x1="353" y1="238.13" x2="415.41" y2="238.13" fill="none" stroke="#e18686" stroke-miterlimit="10" stroke-width="2.83"/><line x1="353" y1="248.63" x2="415.41" y2="248.63" fill="none" stroke="#e18686" stroke-miterlimit="10" stroke-width="2.83"/><line x1="353" y1="259.13" x2="415.41" y2="259.13" fill="none" stroke="#e18686" stroke-miterlimit="10" stroke-width="2.83"/><line x1="353" y1="269.63" x2="415.41" y2="269.63" fill="none" stroke="#e18686" stroke-miterlimit="10" stroke-width="2.83"/><line x1="353" y1="280.13" x2="415.41" y2="280.13" fill="none" stroke="#e18686" stroke-miterlimit="10" stroke-width="2.83"/><line x1="353" y1="290.63" x2="415.41" y2="290.63" fill="none" stroke="#e18686" stroke-miterlimit="10" stroke-width="2.83"/><line x1="353" y1="301.13" x2="415.41" y2="301.13" fill="none" stroke="#e18686" stroke-miterlimit="10" stroke-width="2.83"/><line x1="353" y1="311.63" x2="415.41" y2="311.63" fill="none" stroke="#e18686" stroke-miterlimit="10" stroke-width="2.83"/><line x1="134" y1="238.13" x2="79" y2="238.13" fill="none" stroke="#e18686" stroke-miterlimit="10" stroke-width="3"/><line x1="134" y1="248.63" x2="79" y2="248.63" fill="none" stroke="#e18686" stroke-miterlimit="10" stroke-width="3"/><line x1="134" y1="259.13" x2="79" y2="259.13" fill="none" stroke="#e18686" stroke-miterlimit="10" stroke-width="3"/><line x1="134" y1="269.63" x2="79" y2="269.63" fill="none" stroke="#e18686" stroke-miterlimit="10" stroke-width="3"/><line x1="134" y1="280.13" x2="79" y2="280.13" fill="none" stroke="#e18686" stroke-miterlimit="10" stroke-width="3"/><line x1="134" y1="290.63" x2="79" y2="290.63" fill="none" stroke="#e18686" stroke-miterlimit="10" stroke-width="3"/><line x1="134" y1="301.13" x2="79" y2="301.13" fill="none" stroke="#e18686" stroke-miterlimit="10" stroke-width="3"/><line x1="134" y1="311.63" x2="79" y2="311.63" fill="none" stroke="#e18686" stroke-miterlimit="10" stroke-width="3"/><rect x="75.5" y="194.5" width="59" height="127" fill="none" stroke="#e18686" stroke-miterlimit="10" stroke-width="3"/><rect x="353.5" y="194.5" width="62" height="127" transform="translate(769 516) rotate(180)" fill="none" stroke="#e18686" stroke-miterlimit="10" stroke-width="3"/><line x1="1787" y1="215" x2="1836.92" y2="215" fill="none" stroke="#e18686" stroke-miterlimit="10" stroke-width="3"/><line x1="1787" y1="225.5" x2="1836.92" y2="225.5" fill="none" stroke="#e18686" stroke-miterlimit="10" stroke-width="3"/><line x1="1787" y1="236" x2="1836.92" y2="236" fill="none" stroke="#e18686" stroke-miterlimit="10" stroke-width="3"/><line x1="1787" y1="246.5" x2="1836.92" y2="246.5" fill="none" stroke="#e18686" stroke-miterlimit="10" stroke-width="3"/><line x1="1787" y1="257" x2="1836.92" y2="257" fill="none" stroke="#e18686" stroke-miterlimit="10" stroke-width="3"/><line x1="1787" y1="267.5" x2="1836.92" y2="267.5" fill="none" stroke="#e18686" stroke-miterlimit="10" stroke-width="3"/><line x1="1787" y1="278" x2="1836.92" y2="278" fill="none" stroke="#e18686" stroke-miterlimit="10" stroke-width="3"/><line x1="1787" y1="288.5" x2="1836.92" y2="288.5" fill="none" stroke="#e18686" stroke-miterlimit="10" stroke-width="3"/><rect x="1500.5" y="499.5" width="29" height="58" fill="none" stroke="#e18686" stroke-miterlimit="10" stroke-width="2.96"/></g><g id="Layer_516C"><rect x="1500.5" y="655.5" width="335.5" height="156.5" fill="#f8cdce" stroke="#e18686" stroke-miterlimit="10" stroke-width="3"/><text transform="translate(1640.79 730.72)" fill="#434142" font-family="NanumSquareNeovariable-Heavy, &apos;NanumSquare Neo variable&apos;" font-size="22" font-variation-settings="&apos;wght&apos; 900" font-weight="800"><tspan x="0" y="0" letter-spacing="-.01em">5</tspan><tspan x="15.16" y="0" letter-spacing="0em">16C</tspan></text><text transform="translate(1611.04 753.21)" fill="#434142" font-family="NanumSquareNeovariable-Regular, &apos;NanumSquare Neo variable&apos;" font-size="10" font-variation-settings="&apos;wght&apos; 300"><tspan x="0" y="0">특수열람실 (심화 학습 코너)</tspan></text></g><g id="Layer_516B"><polygon points="1500.5 320.5 1500.5 499.5 1529.5 499.5 1529.5 557.5 1500.5 557.5 1500.5 655.5 1835.5 655.5 1835.5 320.5 1500.5 320.5" fill="#f8cdce" stroke="#e18686" stroke-miterlimit="10" stroke-width="3"/><text transform="translate(1638.36 478.53)" fill="#434142" font-family="NanumSquareNeovariable-Heavy, &apos;NanumSquare Neo variable&apos;" font-size="22" font-variation-settings="&apos;wght&apos; 900" font-weight="800"><tspan x="0" y="0" letter-spacing="-.01em">5</tspan><tspan x="15.16" y="0" letter-spacing="0em">16B</tspan></text><text transform="translate(1606.38 498.44)" fill="#434142" font-family="NanumSquareNeovariable-Regular, &apos;NanumSquare Neo variable&apos;" font-size="10" font-variation-settings="&apos;wght&apos; 300"><tspan x="0" y="0">특수열람실 (칸막이 열람 코너)</tspan></text></g><g id="Layer_516A"><rect x="1498.36" y="197.25" width="289.14" height="123.25" fill="#f8cdce" stroke="#e18686" stroke-miterlimit="10" stroke-width="3"/><text transform="translate(1589.36 267.72)" fill="#434142" font-family="NanumSquareNeovariable-Heavy, &apos;NanumSquare Neo variable&apos;" font-size="22" font-variation-settings="&apos;wght&apos; 900" font-weight="800"><tspan x="0" y="0" letter-spacing="-.01em">5</tspan><tspan x="15.16" y="0" letter-spacing="0em">16A</tspan></text><text transform="translate(1569.2 284.66)" fill="#434142" font-family="NanumSquareNeovariable-Regular, &apos;NanumSquare Neo variable&apos;" font-size="10" font-variation-settings="&apos;wght&apos; 300"><tspan x="0" y="0">특수열람실 (노트북 코너)</tspan></text></g><g id="Layer_514B"><rect x="1320.5" y="666.5" width="53" height="100" fill="#f8cdce" stroke="#e18686" stroke-miterlimit="10" stroke-width="3"/><text transform="translate(1325.53 724.07)" fill="#434142" font-family="NanumSquareNeovariable-Heavy, &apos;NanumSquare Neo variable&apos;" font-size="16" font-variation-settings="&apos;wght&apos; 900" font-weight="800"><tspan x="0" y="0" letter-spacing="0em">5</tspan><tspan x="11.02" y="0" letter-spacing="0em">14B</tspan></text></g><g id="Layer_514A"><rect x="1268.5" y="633.5" width="52" height="133" transform="translate(2589 1400) rotate(180)" fill="#f8cdce" stroke="#e18686" stroke-miterlimit="10" stroke-width="3.49"/><text transform="translate(1272.22 706.44)" fill="#434142" font-family="NanumSquareNeovariable-Heavy, &apos;NanumSquare Neo variable&apos;" font-size="16" font-variation-settings="&apos;wght&apos; 900" font-weight="800"><tspan x="0" y="0" letter-spacing="-.01em">5</tspan><tspan x="11.02" y="0">14A</tspan></text><rect x="1320.5" y="633.15" width="53" height="33" fill="#f8cdce" stroke="#e18686" stroke-miterlimit="10" stroke-width="3"/></g><g id="Layer_513"><rect x="915.5" y="633.5" width="353" height="133" fill="#f8cdce" stroke="#e18686" stroke-miterlimit="10" stroke-width="3"/><text transform="translate(1073.05 703.78)" fill="#434142" font-family="NanumSquareNeovariable-Heavy, &apos;NanumSquare Neo variable&apos;" font-size="22" font-variation-settings="&apos;wght&apos; 900" font-weight="800"><tspan x="0" y="0" letter-spacing="-.01em">5</tspan><tspan x="15.16" y="0" letter-spacing="0em">13</tspan></text><text transform="translate(1070.52 722.91)" fill="#434142" font-family="NanumSquareNeovariable-Regular, &apos;NanumSquare Neo variable&apos;" font-size="10" font-variation-settings="&apos;wght&apos; 300"><tspan x="0" y="0">건축제도실</tspan></text></g><g id="Layer_512"><rect x="748.5" y="633.5" width="167" height="133" transform="translate(1664 1400) rotate(180)" fill="#f8cdce" stroke="#e18686" stroke-miterlimit="10" stroke-width="3"/><text transform="translate(811.27 704.25)" fill="#434142" font-family="NanumSquareNeovariable-Heavy, &apos;NanumSquare Neo variable&apos;" font-size="22" font-variation-settings="&apos;wght&apos; 900" font-weight="800"><tspan x="0" y="0" letter-spacing="-.01em">5</tspan><tspan x="15.16" y="0" letter-spacing="0em">12</tspan></text></g><g id="Layer_511"><rect x="640.5" y="633.5" width="108" height="133" fill="#f8cdce" stroke="#e18686" stroke-miterlimit="10" stroke-width="3"/><text transform="translate(675.39 704.8)" fill="#434142" font-family="NanumSquareNeovariable-Heavy, &apos;NanumSquare Neo variable&apos;" font-size="22" font-variation-settings="&apos;wght&apos; 900" font-weight="800"><tspan x="0" y="0" letter-spacing="-.01em">5</tspan><tspan x="15.16" y="0" letter-spacing="0em">11</tspan></text></g><g id="Layer_510B"><rect x="531.5" y="633.5" width="109" height="133" transform="translate(1172 1400) rotate(180)" fill="#f8cdce" stroke="#e18686" stroke-miterlimit="10" stroke-width="3"/><text transform="translate(556.72 703.93)" fill="#434142" font-family="NanumSquareNeovariable-Heavy, &apos;NanumSquare Neo variable&apos;" font-size="22" font-variation-settings="&apos;wght&apos; 900" font-weight="800"><tspan x="0" y="0" letter-spacing="-.01em">5</tspan><tspan x="15.16" y="0" letter-spacing="0em">10B</tspan></text></g><g id="Layer_506"><rect x="191.5" y="194.5" width="109" height="133" transform="translate(492 522) rotate(180)" fill="#f8cdce" stroke="#e18686" stroke-miterlimit="10" stroke-width="3"/><text transform="translate(222.02 267.56)" fill="#434142" font-family="NanumSquareNeovariable-Heavy, &apos;NanumSquare Neo variable&apos;" font-size="22" font-variation-settings="&apos;wght&apos; 900" font-weight="800"><tspan x="0" y="0">506</tspan></text></g><g id="Layer_505"><rect x="300.5" y="194.5" width="53" height="133" fill="#f8cdce" stroke="#e18686" stroke-miterlimit="10" stroke-width="3"/><text transform="translate(302.99 267.36)" fill="#434142" font-family="NanumSquareNeovariable-Heavy, &apos;NanumSquare Neo variable&apos;" font-size="22" font-variation-settings="&apos;wght&apos; 900" font-weight="800"><tspan x="0" y="0">505</tspan></text></g><g id="Layer_504"><rect x="531.5" y="474.5" width="202" height="133" transform="translate(1265 1082) rotate(180)" fill="#f8cdce" stroke="#e18686" stroke-miterlimit="10" stroke-width="3"/><text transform="translate(608.25 548.57)" fill="#434142" font-family="NanumSquareNeovariable-Heavy, &apos;NanumSquare Neo variable&apos;" font-size="22" font-variation-settings="&apos;wght&apos; 900" font-weight="800"><tspan x="0" y="0">504</tspan></text></g><g id="Layer_503"><rect x="733.5" y="422.5" width="69" height="121.5" fill="#f8cdce" stroke="#e18686" stroke-miterlimit="10" stroke-width="3"/><text transform="translate(744.63 487.31)" fill="#434142" font-family="NanumSquareNeovariable-Heavy, &apos;NanumSquare Neo variable&apos;" font-size="22" font-variation-settings="&apos;wght&apos; 900" font-weight="800"><tspan x="0" y="0">503</tspan></text></g><g id="Layer_carrels"><rect x="1182.5" y="476.5" width="317" height="133" fill="#fdf3f2" stroke="#e18686" stroke-miterlimit="10" stroke-width="3"/><text transform="translate(1268.22 547.36)" fill="#434142" font-family="NanumSquareNeovariable-Heavy, &apos;NanumSquare Neo variable&apos;" font-size="22" font-variation-settings="&apos;wght&apos; 900" font-weight="800"><tspan x="0" y="0" letter-spacing="0em">C</tspan><tspan x="17.05" y="0">ar</tspan><tspan x="40.99" y="0" letter-spacing="-.03em">r</tspan><tspan x="50.33" y="0">els Bee</tspan></text></g><g id="Layer_508"><rect x="75.5" y="368.5" width="340" height="450.5" fill="#fdf3f2" stroke="#e18686" stroke-miterlimit="10" stroke-width="5.71"/><text transform="translate(214.88 595.79)" fill="#434142" font-family="NanumSquareNeovariable-Heavy, &apos;NanumSquare Neo variable&apos;" font-size="22" font-variation-settings="&apos;wght&apos; 900" font-weight="800"><tspan x="0" y="0">대강당</tspan></text><text transform="translate(222.13 565.79)" fill="#434142" font-family="NanumSquareNeovariable-Heavy, &apos;NanumSquare Neo variable&apos;" font-size="22" font-variation-settings="&apos;wght&apos; 900" font-weight="800"><tspan x="0" y="0">508</tspan></text></g><g id="Layer_toilet1"><rect x="482.5" y="633.5" width="49" height="133" transform="translate(1014 1400) rotate(180)" fill="none" stroke="#e18686" stroke-miterlimit="10" stroke-width="3"/></g><g id="Layer_toilet2"><rect x="803.5" y="422.5" width="54.71" height="121" fill="none" stroke="#e18686" stroke-miterlimit="10" stroke-width="2.94"/></g><g id="Layer_toilet3"><rect x="858.21" y="422.5" width="52.79" height="121" transform="translate(1769.21 966) rotate(180)" fill="none" stroke="#e18686" stroke-miterlimit="10" stroke-width="2.94"/></g><g id="Layer_toilet4"><rect x="1373.5" y="633.15" width="57" height="133" fill="none" stroke="#e18686" stroke-miterlimit="10" stroke-width="3"/></g><g id="Layer_toilet5"><polygon points="191.5 194.5 134.5 194.5 134.5 253.5 134.5 257.5 134.5 291.5 165.5 291.5 165.5 257.5 191.5 257.5 191.5 194.5" fill="none" stroke="#e18686" stroke-miterlimit="10" stroke-width="3"/></g></svg>