<?xml version="1.0" encoding="UTF-8"?><svg
  xmlns="http://www.w3.org/2000/svg"
  viewBox="0 0 1100 1600"
>
  <g id="Layer_border">
    <polygon
      points="768.25 1230.5 768.25 1405.5 512.25 1405.5 512.25 1449.5 864.25 1449.5 864.25 1422.5 864.25 1405.5 864.25 1230.5 768.25 1230.5"
      fill="none"
      stroke="#e18686"
      stroke-miterlimit="10"
      stroke-width="5"
    />
    <path
      d="m826.99,799.76l23.7-23.7-258-258-33.82,33.82-59.89-59.89-36.35,36.35c-85.81-86.27-171.61-172.53-257.42-258.8l-107.95,107.95,114.04,114.04.48-.48,135.98,136.94v371h113v426h283v-36h39v-346c48.1-47.87,96.21-95.73,144.31-143.6-33.36-33.21-66.72-66.42-100.07-99.64Z"
      fill="#fdf3f2"
      stroke="#e18686"
      stroke-linecap="round"
      stroke-linejoin="round"
      stroke-width="5"
    />
  </g>
  <g id="Layer_others">
    <rect
      x="520.25"
      y="829.5"
      width="139"
      height="46"
      fill="none"
      stroke="#e18686"
      stroke-miterlimit="10"
      stroke-width="2"
    />
    <rect
      x="532.25"
      y="843.5"
      width="35"
      height="25"
      fill="none"
      stroke="#e18686"
      stroke-miterlimit="10"
      stroke-width="2"
    />
    <rect
      x="573.25"
      y="843.5"
      width="35"
      height="25"
      fill="none"
      stroke="#e18686"
      stroke-miterlimit="10"
      stroke-width="2"
    />
    <rect
      x="614.25"
      y="843.5"
      width="35"
      height="25"
      fill="none"
      stroke="#e18686"
      stroke-miterlimit="10"
      stroke-width="2"
    />
    <rect
      x="508.48"
      y="980.64"
      width="55.92"
      height="22.8"
      transform="translate(-455.6 1528.48) rotate(-90)"
      fill="none"
      stroke="#e18686"
      stroke-miterlimit="10"
      stroke-width="2"
    />
    <line
      x1="525.45"
      y1="995.42"
      x2="548.25"
      y2="995.42"
      fill="none"
      stroke="#e18686"
      stroke-miterlimit="10"
      stroke-width="2"
    />
    <line
      x1="525.45"
      y1="991.44"
      x2="548.25"
      y2="991.44"
      fill="none"
      stroke="#e18686"
      stroke-miterlimit="10"
      stroke-width="2"
    />
    <line
      x1="525.45"
      y1="987.46"
      x2="548.25"
      y2="987.46"
      fill="none"
      stroke="#e18686"
      stroke-miterlimit="10"
      stroke-width="2"
    />
    <line
      x1="525.45"
      y1="983.48"
      x2="548.25"
      y2="983.48"
      fill="none"
      stroke="#e18686"
      stroke-miterlimit="10"
      stroke-width="2"
    />
    <line
      x1="525.45"
      y1="979.5"
      x2="548.25"
      y2="979.5"
      fill="none"
      stroke="#e18686"
      stroke-miterlimit="10"
      stroke-width="2"
    />
    <line
      x1="525.45"
      y1="975.52"
      x2="548.25"
      y2="975.52"
      fill="none"
      stroke="#e18686"
      stroke-miterlimit="10"
      stroke-width="2"
    />
    <line
      x1="525.45"
      y1="971.54"
      x2="548.25"
      y2="971.54"
      fill="none"
      stroke="#e18686"
      stroke-miterlimit="10"
      stroke-width="2"
    />
    <line
      x1="525.45"
      y1="967.56"
      x2="548.25"
      y2="967.56"
      fill="none"
      stroke="#e18686"
      stroke-miterlimit="10"
      stroke-width="2"
    />
    <line
      x1="525.45"
      y1="1007.42"
      x2="548.25"
      y2="1007.42"
      fill="none"
      stroke="#e18686"
      stroke-miterlimit="10"
      stroke-width="2"
    />
    <line
      x1="525.45"
      y1="1003.44"
      x2="548.25"
      y2="1003.44"
      fill="none"
      stroke="#e18686"
      stroke-miterlimit="10"
      stroke-width="2"
    />
    <line
      x1="525.45"
      y1="999.46"
      x2="548.25"
      y2="999.46"
      fill="none"
      stroke="#e18686"
      stroke-miterlimit="10"
      stroke-width="2"
    />
    <line
      x1="525.45"
      y1="1015.42"
      x2="548.25"
      y2="1015.42"
      fill="none"
      stroke="#e18686"
      stroke-miterlimit="10"
      stroke-width="2"
    />
    <line
      x1="525.45"
      y1="1011.44"
      x2="548.25"
      y2="1011.44"
      fill="none"
      stroke="#e18686"
      stroke-miterlimit="10"
      stroke-width="2"
    />
    <rect
      x="525.25"
      y="942.5"
      width="118"
      height="162"
      fill="none"
      stroke="#e18686"
      stroke-miterlimit="10"
      stroke-width="2"
    />
    <rect
      x="535.48"
      y="980.64"
      width="55.92"
      height="22.8"
      transform="translate(-428.6 1555.48) rotate(-90)"
      fill="none"
      stroke="#e18686"
      stroke-miterlimit="10"
      stroke-width="2"
    />
    <line
      x1="552.45"
      y1="995.42"
      x2="575.25"
      y2="995.42"
      fill="none"
      stroke="#e18686"
      stroke-miterlimit="10"
      stroke-width="2"
    />
    <line
      x1="552.45"
      y1="991.44"
      x2="575.25"
      y2="991.44"
      fill="none"
      stroke="#e18686"
      stroke-miterlimit="10"
      stroke-width="2"
    />
    <line
      x1="552.45"
      y1="987.46"
      x2="575.25"
      y2="987.46"
      fill="none"
      stroke="#e18686"
      stroke-miterlimit="10"
      stroke-width="2"
    />
    <line
      x1="552.45"
      y1="983.48"
      x2="575.25"
      y2="983.48"
      fill="none"
      stroke="#e18686"
      stroke-miterlimit="10"
      stroke-width="2"
    />
    <line
      x1="552.45"
      y1="979.5"
      x2="575.25"
      y2="979.5"
      fill="none"
      stroke="#e18686"
      stroke-miterlimit="10"
      stroke-width="2"
    />
    <line
      x1="552.45"
      y1="975.52"
      x2="575.25"
      y2="975.52"
      fill="none"
      stroke="#e18686"
      stroke-miterlimit="10"
      stroke-width="2"
    />
    <line
      x1="552.45"
      y1="971.54"
      x2="575.25"
      y2="971.54"
      fill="none"
      stroke="#e18686"
      stroke-miterlimit="10"
      stroke-width="2"
    />
    <line
      x1="552.45"
      y1="967.56"
      x2="575.25"
      y2="967.56"
      fill="none"
      stroke="#e18686"
      stroke-miterlimit="10"
      stroke-width="2"
    />
    <line
      x1="552.45"
      y1="1007.42"
      x2="575.25"
      y2="1007.42"
      fill="none"
      stroke="#e18686"
      stroke-miterlimit="10"
      stroke-width="2"
    />
    <line
      x1="552.45"
      y1="1003.44"
      x2="575.25"
      y2="1003.44"
      fill="none"
      stroke="#e18686"
      stroke-miterlimit="10"
      stroke-width="2"
    />
    <line
      x1="552.45"
      y1="999.46"
      x2="575.25"
      y2="999.46"
      fill="none"
      stroke="#e18686"
      stroke-miterlimit="10"
      stroke-width="2"
    />
    <line
      x1="552.45"
      y1="1015.42"
      x2="575.25"
      y2="1015.42"
      fill="none"
      stroke="#e18686"
      stroke-miterlimit="10"
      stroke-width="2"
    />
    <line
      x1="552.45"
      y1="1011.44"
      x2="575.25"
      y2="1011.44"
      fill="none"
      stroke="#e18686"
      stroke-miterlimit="10"
      stroke-width="2"
    />
    <rect
      x="508.48"
      y="1046.64"
      width="55.92"
      height="22.8"
      transform="translate(-521.6 1594.48) rotate(-90)"
      fill="none"
      stroke="#e18686"
      stroke-miterlimit="10"
      stroke-width="2"
    />
    <line
      x1="525.45"
      y1="1061.42"
      x2="548.25"
      y2="1061.42"
      fill="none"
      stroke="#e18686"
      stroke-miterlimit="10"
      stroke-width="2"
    />
    <line
      x1="525.45"
      y1="1057.44"
      x2="548.25"
      y2="1057.44"
      fill="none"
      stroke="#e18686"
      stroke-miterlimit="10"
      stroke-width="2"
    />
    <line
      x1="525.45"
      y1="1053.46"
      x2="548.25"
      y2="1053.46"
      fill="none"
      stroke="#e18686"
      stroke-miterlimit="10"
      stroke-width="2"
    />
    <line
      x1="525.45"
      y1="1049.48"
      x2="548.25"
      y2="1049.48"
      fill="none"
      stroke="#e18686"
      stroke-miterlimit="10"
      stroke-width="2"
    />
    <line
      x1="525.45"
      y1="1045.5"
      x2="548.25"
      y2="1045.5"
      fill="none"
      stroke="#e18686"
      stroke-miterlimit="10"
      stroke-width="2"
    />
    <line
      x1="525.45"
      y1="1041.52"
      x2="548.25"
      y2="1041.52"
      fill="none"
      stroke="#e18686"
      stroke-miterlimit="10"
      stroke-width="2"
    />
    <line
      x1="525.45"
      y1="1037.54"
      x2="548.25"
      y2="1037.54"
      fill="none"
      stroke="#e18686"
      stroke-miterlimit="10"
      stroke-width="2"
    />
    <line
      x1="525.45"
      y1="1033.56"
      x2="548.25"
      y2="1033.56"
      fill="none"
      stroke="#e18686"
      stroke-miterlimit="10"
      stroke-width="2"
    />
    <line
      x1="525.45"
      y1="1073.42"
      x2="548.25"
      y2="1073.42"
      fill="none"
      stroke="#e18686"
      stroke-miterlimit="10"
      stroke-width="2"
    />
    <line
      x1="525.45"
      y1="1069.44"
      x2="548.25"
      y2="1069.44"
      fill="none"
      stroke="#e18686"
      stroke-miterlimit="10"
      stroke-width="2"
    />
    <line
      x1="525.45"
      y1="1065.46"
      x2="548.25"
      y2="1065.46"
      fill="none"
      stroke="#e18686"
      stroke-miterlimit="10"
      stroke-width="2"
    />
    <line
      x1="525.45"
      y1="1081.42"
      x2="548.25"
      y2="1081.42"
      fill="none"
      stroke="#e18686"
      stroke-miterlimit="10"
      stroke-width="2"
    />
    <line
      x1="525.45"
      y1="1077.44"
      x2="548.25"
      y2="1077.44"
      fill="none"
      stroke="#e18686"
      stroke-miterlimit="10"
      stroke-width="2"
    />
    <rect
      x="535.48"
      y="1046.64"
      width="55.92"
      height="22.8"
      transform="translate(-494.6 1621.48) rotate(-90)"
      fill="none"
      stroke="#e18686"
      stroke-miterlimit="10"
      stroke-width="2"
    />
    <line
      x1="552.45"
      y1="1061.42"
      x2="575.25"
      y2="1061.42"
      fill="none"
      stroke="#e18686"
      stroke-miterlimit="10"
      stroke-width="2"
    />
    <line
      x1="552.45"
      y1="1057.44"
      x2="575.25"
      y2="1057.44"
      fill="none"
      stroke="#e18686"
      stroke-miterlimit="10"
      stroke-width="2"
    />
    <line
      x1="552.45"
      y1="1053.46"
      x2="575.25"
      y2="1053.46"
      fill="none"
      stroke="#e18686"
      stroke-miterlimit="10"
      stroke-width="2"
    />
    <line
      x1="552.45"
      y1="1049.48"
      x2="575.25"
      y2="1049.48"
      fill="none"
      stroke="#e18686"
      stroke-miterlimit="10"
      stroke-width="2"
    />
    <line
      x1="552.45"
      y1="1045.5"
      x2="575.25"
      y2="1045.5"
      fill="none"
      stroke="#e18686"
      stroke-miterlimit="10"
      stroke-width="2"
    />
    <line
      x1="552.45"
      y1="1041.52"
      x2="575.25"
      y2="1041.52"
      fill="none"
      stroke="#e18686"
      stroke-miterlimit="10"
      stroke-width="2"
    />
    <line
      x1="552.45"
      y1="1037.54"
      x2="575.25"
      y2="1037.54"
      fill="none"
      stroke="#e18686"
      stroke-miterlimit="10"
      stroke-width="2"
    />
    <line
      x1="552.45"
      y1="1033.56"
      x2="575.25"
      y2="1033.56"
      fill="none"
      stroke="#e18686"
      stroke-miterlimit="10"
      stroke-width="2"
    />
    <line
      x1="552.45"
      y1="1073.42"
      x2="575.25"
      y2="1073.42"
      fill="none"
      stroke="#e18686"
      stroke-miterlimit="10"
      stroke-width="2"
    />
    <line
      x1="552.45"
      y1="1069.44"
      x2="575.25"
      y2="1069.44"
      fill="none"
      stroke="#e18686"
      stroke-miterlimit="10"
      stroke-width="2"
    />
    <line
      x1="552.45"
      y1="1065.46"
      x2="575.25"
      y2="1065.46"
      fill="none"
      stroke="#e18686"
      stroke-miterlimit="10"
      stroke-width="2"
    />
    <line
      x1="552.45"
      y1="1081.42"
      x2="575.25"
      y2="1081.42"
      fill="none"
      stroke="#e18686"
      stroke-miterlimit="10"
      stroke-width="2"
    />
    <line
      x1="552.45"
      y1="1077.44"
      x2="575.25"
      y2="1077.44"
      fill="none"
      stroke="#e18686"
      stroke-miterlimit="10"
      stroke-width="2"
    />
    <rect
      x="578.25"
      y="968.5"
      width="64"
      height="46"
      fill="none"
      stroke="#e18686"
      stroke-miterlimit="10"
      stroke-width="2"
    />
    <rect
      x="578.25"
      y="1020.5"
      width="64"
      height="62"
      fill="none"
      stroke="#e18686"
      stroke-miterlimit="10"
      stroke-width="2"
    />
    <path
      d="m463.75,529l120.5,120.5-24.5,24.5c43.53,43.53,87.05,87.05,130.58,130.58l-23.5,23.5c-44.58-44.58-89.16-89.16-133.74-133.74l-.35-.35"
      fill="none"
      stroke="#e18686"
      stroke-linecap="round"
      stroke-linejoin="round"
      stroke-width="5"
    />
    <path
      d="m570.75,667c97.67,97.67,195.33,195.33,293,293"
      fill="none"
      stroke="#e18686"
      stroke-linecap="round"
      stroke-linejoin="round"
      stroke-width="5"
    />
    <polyline
      points="666.83 828.08 685.75 847 685.75 1125 648.58 1125 648.58 942.5"
      fill="none"
      stroke="#e18686"
      stroke-linecap="round"
      stroke-linejoin="round"
      stroke-width="5"
    />
    <path
      d="m349.6,586.5c28.22-28.67,56.43-57.33,84.65-86"
      fill="none"
      stroke="#e18686"
      stroke-miterlimit="10"
      stroke-width="2"
    />
    <line
      x1="190.84"
      y1="469.03"
      x2="296.81"
      y2="363.06"
      fill="none"
      stroke="#e18686"
      stroke-miterlimit="10"
      stroke-width="2"
    />
    <line
      x1="193.67"
      y1="471.86"
      x2="299.64"
      y2="365.89"
      fill="none"
      stroke="#e18686"
      stroke-miterlimit="10"
      stroke-width="2"
    />
    <line
      x1="196.5"
      y1="474.68"
      x2="302.47"
      y2="368.72"
      fill="none"
      stroke="#e18686"
      stroke-miterlimit="10"
      stroke-width="2"
    />
    <line
      x1="199.33"
      y1="477.51"
      x2="305.29"
      y2="371.54"
      fill="none"
      stroke="#e18686"
      stroke-miterlimit="10"
      stroke-width="2"
    />
    <line
      x1="202.15"
      y1="480.34"
      x2="308.12"
      y2="374.37"
      fill="none"
      stroke="#e18686"
      stroke-miterlimit="10"
      stroke-width="2"
    />
    <line
      x1="204.98"
      y1="483.17"
      x2="310.95"
      y2="377.2"
      fill="none"
      stroke="#e18686"
      stroke-miterlimit="10"
      stroke-width="2"
    />
    <line
      x1="207.81"
      y1="486"
      x2="313.78"
      y2="380.03"
      fill="none"
      stroke="#e18686"
      stroke-miterlimit="10"
      stroke-width="2"
    />
    <line
      x1="210.64"
      y1="488.83"
      x2="316.61"
      y2="382.86"
      fill="none"
      stroke="#e18686"
      stroke-miterlimit="10"
      stroke-width="2"
    />
    <line
      x1="213.47"
      y1="491.65"
      x2="319.44"
      y2="385.69"
      fill="none"
      stroke="#e18686"
      stroke-miterlimit="10"
      stroke-width="2"
    />
    <line
      x1="216.3"
      y1="494.48"
      x2="322.26"
      y2="388.51"
      fill="none"
      stroke="#e18686"
      stroke-miterlimit="10"
      stroke-width="2"
    />
    <line
      x1="219.13"
      y1="497.31"
      x2="325.09"
      y2="391.34"
      fill="none"
      stroke="#e18686"
      stroke-miterlimit="10"
      stroke-width="2"
    />
    <line
      x1="221.95"
      y1="500.14"
      x2="327.92"
      y2="394.17"
      fill="none"
      stroke="#e18686"
      stroke-miterlimit="10"
      stroke-width="2"
    />
    <line
      x1="224.78"
      y1="502.97"
      x2="330.75"
      y2="397"
      fill="none"
      stroke="#e18686"
      stroke-miterlimit="10"
      stroke-width="2"
    />
    <line
      x1="227.61"
      y1="505.8"
      x2="333.58"
      y2="399.83"
      fill="none"
      stroke="#e18686"
      stroke-miterlimit="10"
      stroke-width="2"
    />
    <line
      x1="230.44"
      y1="508.62"
      x2="336.41"
      y2="402.66"
      fill="none"
      stroke="#e18686"
      stroke-miterlimit="10"
      stroke-width="2"
    />
    <line
      x1="233.27"
      y1="511.45"
      x2="339.24"
      y2="405.49"
      fill="none"
      stroke="#e18686"
      stroke-miterlimit="10"
      stroke-width="2"
    />
    <line
      x1="236.1"
      y1="514.28"
      x2="342.06"
      y2="408.31"
      fill="none"
      stroke="#e18686"
      stroke-miterlimit="10"
      stroke-width="2"
    />
    <line
      x1="238.92"
      y1="517.11"
      x2="344.89"
      y2="411.14"
      fill="none"
      stroke="#e18686"
      stroke-miterlimit="10"
      stroke-width="2"
    />
    <line
      x1="241.75"
      y1="519.94"
      x2="347.72"
      y2="413.97"
      fill="none"
      stroke="#e18686"
      stroke-miterlimit="10"
      stroke-width="2"
    />
    <line
      x1="244.58"
      y1="522.77"
      x2="350.55"
      y2="416.8"
      fill="none"
      stroke="#e18686"
      stroke-miterlimit="10"
      stroke-width="2"
    />
    <line
      x1="247.41"
      y1="525.6"
      x2="353.38"
      y2="419.63"
      fill="none"
      stroke="#e18686"
      stroke-miterlimit="10"
      stroke-width="2"
    />
    <line
      x1="250.24"
      y1="528.42"
      x2="356.21"
      y2="422.46"
      fill="none"
      stroke="#e18686"
      stroke-miterlimit="10"
      stroke-width="2"
    />
    <line
      x1="253.07"
      y1="531.25"
      x2="359.03"
      y2="425.28"
      fill="none"
      stroke="#e18686"
      stroke-miterlimit="10"
      stroke-width="2"
    />
    <line
      x1="255.89"
      y1="534.08"
      x2="361.86"
      y2="428.11"
      fill="none"
      stroke="#e18686"
      stroke-miterlimit="10"
      stroke-width="2"
    />
    <line
      x1="258.72"
      y1="536.91"
      x2="364.69"
      y2="430.94"
      fill="none"
      stroke="#e18686"
      stroke-miterlimit="10"
      stroke-width="2"
    />
    <line
      x1="550.04"
      y1="707.54"
      x2="571.67"
      y2="685.92"
      fill="none"
      stroke="#e18686"
      stroke-miterlimit="10"
      stroke-width="2"
    />
    <line
      x1="554.28"
      y1="711.78"
      x2="575.91"
      y2="690.16"
      fill="none"
      stroke="#e18686"
      stroke-miterlimit="10"
      stroke-width="2"
    />
    <line
      x1="558.53"
      y1="716.03"
      x2="580.15"
      y2="694.4"
      fill="none"
      stroke="#e18686"
      stroke-miterlimit="10"
      stroke-width="2"
    />
    <line
      x1="562.77"
      y1="720.27"
      x2="584.39"
      y2="698.64"
      fill="none"
      stroke="#e18686"
      stroke-miterlimit="10"
      stroke-width="2"
    />
    <line
      x1="567.01"
      y1="724.51"
      x2="588.64"
      y2="702.89"
      fill="none"
      stroke="#e18686"
      stroke-miterlimit="10"
      stroke-width="2"
    />
    <line
      x1="571.25"
      y1="728.75"
      x2="592.88"
      y2="707.13"
      fill="none"
      stroke="#e18686"
      stroke-miterlimit="10"
      stroke-width="2"
    />
    <line
      x1="575.5"
      y1="733"
      x2="597.12"
      y2="711.37"
      fill="none"
      stroke="#e18686"
      stroke-miterlimit="10"
      stroke-width="2"
    />
    <line
      x1="579.74"
      y1="737.24"
      x2="601.36"
      y2="715.61"
      fill="none"
      stroke="#e18686"
      stroke-miterlimit="10"
      stroke-width="2"
    />
    <line
      x1="583.98"
      y1="741.48"
      x2="605.61"
      y2="719.86"
      fill="none"
      stroke="#e18686"
      stroke-miterlimit="10"
      stroke-width="2"
    />
    <line
      x1="588.22"
      y1="745.72"
      x2="609.85"
      y2="724.1"
      fill="none"
      stroke="#e18686"
      stroke-miterlimit="10"
      stroke-width="2"
    />
    <line
      x1="592.47"
      y1="749.97"
      x2="614.09"
      y2="728.34"
      fill="none"
      stroke="#e18686"
      stroke-miterlimit="10"
      stroke-width="2"
    />
    <line
      x1="596.71"
      y1="754.21"
      x2="618.33"
      y2="732.58"
      fill="none"
      stroke="#e18686"
      stroke-miterlimit="10"
      stroke-width="2"
    />
    <line
      x1="615.04"
      y1="774.54"
      x2="636.67"
      y2="752.92"
      fill="none"
      stroke="#e18686"
      stroke-miterlimit="10"
      stroke-width="2"
    />
    <line
      x1="619.28"
      y1="778.78"
      x2="640.91"
      y2="757.16"
      fill="none"
      stroke="#e18686"
      stroke-miterlimit="10"
      stroke-width="2"
    />
    <line
      x1="623.53"
      y1="783.03"
      x2="645.15"
      y2="761.4"
      fill="none"
      stroke="#e18686"
      stroke-miterlimit="10"
      stroke-width="2"
    />
    <line
      x1="627.77"
      y1="787.27"
      x2="649.39"
      y2="765.64"
      fill="none"
      stroke="#e18686"
      stroke-miterlimit="10"
      stroke-width="2"
    />
    <line
      x1="632.01"
      y1="791.51"
      x2="653.64"
      y2="769.89"
      fill="none"
      stroke="#e18686"
      stroke-miterlimit="10"
      stroke-width="2"
    />
    <line
      x1="636.25"
      y1="795.75"
      x2="657.88"
      y2="774.13"
      fill="none"
      stroke="#e18686"
      stroke-miterlimit="10"
      stroke-width="2"
    />
    <line
      x1="640.5"
      y1="800"
      x2="662.12"
      y2="778.37"
      fill="none"
      stroke="#e18686"
      stroke-miterlimit="10"
      stroke-width="2"
    />
    <line
      x1="644.74"
      y1="804.24"
      x2="666.36"
      y2="782.61"
      fill="none"
      stroke="#e18686"
      stroke-miterlimit="10"
      stroke-width="2"
    />
    <line
      x1="648.98"
      y1="808.48"
      x2="670.61"
      y2="786.86"
      fill="none"
      stroke="#e18686"
      stroke-miterlimit="10"
      stroke-width="2"
    />
    <line
      x1="653.22"
      y1="812.72"
      x2="674.85"
      y2="791.1"
      fill="none"
      stroke="#e18686"
      stroke-miterlimit="10"
      stroke-width="2"
    />
    <line
      x1="657.47"
      y1="816.97"
      x2="679.09"
      y2="795.34"
      fill="none"
      stroke="#e18686"
      stroke-miterlimit="10"
      stroke-width="2"
    />
    <line
      x1="661.71"
      y1="821.21"
      x2="683.33"
      y2="799.58"
      fill="none"
      stroke="#e18686"
      stroke-miterlimit="10"
      stroke-width="2"
    />
    <path
      d="m571.25,735.5c-16.99-.12-33.97-.25-50.96-.37,0,13.79,0,27.59,0,41.38h51.31v53.64"
      fill="none"
      stroke="#e18686"
      stroke-miterlimit="10"
      stroke-width="2"
    />
    <rect
      x="572"
      y="796"
      width="35"
      height="25"
      transform="translate(1398 219) rotate(90)"
      fill="none"
      stroke="#e18686"
      stroke-miterlimit="10"
      stroke-width="2"
    />
    <rect
      x="520"
      y="777"
      width="52"
      height="53"
      fill="none"
      stroke="#e18686"
      stroke-miterlimit="10"
      stroke-width="2"
    />
    <polyline
      points="316.31 646.55 210.33 543.5 78.37 370.93 212.88 236.42 351.7 343.21 330.57 370.7 367.98 399.7 449.17 480.67 473.25 512.23"
      fill="none"
      stroke="#e18686"
      stroke-miterlimit="10"
      stroke-width="5"
    />
    <line
      x1="213.75"
      y1="236"
      x2="307.25"
      y2="142.5"
      fill="none"
      stroke="#e18686"
      stroke-miterlimit="10"
      stroke-width="5"
    />
    <polyline
      points="350.22 181.55 288.88 242.9 304.21 258.23"
      fill="none"
      stroke="#e18686"
      stroke-miterlimit="10"
      stroke-width="5"
    />
    <line
      x1="304.03"
      y1="144.6"
      x2="345.41"
      y2="185.98"
      fill="none"
      stroke="#e18686"
      stroke-miterlimit="10"
      stroke-width="2"
    />
    <line
      x1="299.79"
      y1="148.84"
      x2="341.17"
      y2="190.22"
      fill="none"
      stroke="#e18686"
      stroke-miterlimit="10"
      stroke-width="2"
    />
    <line
      x1="295.55"
      y1="153.08"
      x2="336.92"
      y2="194.46"
      fill="none"
      stroke="#e18686"
      stroke-miterlimit="10"
      stroke-width="2"
    />
    <line
      x1="291.3"
      y1="157.33"
      x2="332.68"
      y2="198.7"
      fill="none"
      stroke="#e18686"
      stroke-miterlimit="10"
      stroke-width="2"
    />
    <line
      x1="287.06"
      y1="161.57"
      x2="328.44"
      y2="202.95"
      fill="none"
      stroke="#e18686"
      stroke-miterlimit="10"
      stroke-width="2"
    />
    <line
      x1="282.82"
      y1="165.81"
      x2="324.2"
      y2="207.19"
      fill="none"
      stroke="#e18686"
      stroke-miterlimit="10"
      stroke-width="2"
    />
    <line
      x1="278.58"
      y1="170.05"
      x2="319.95"
      y2="211.43"
      fill="none"
      stroke="#e18686"
      stroke-miterlimit="10"
      stroke-width="2"
    />
    <line
      x1="274.33"
      y1="174.3"
      x2="315.71"
      y2="215.67"
      fill="none"
      stroke="#e18686"
      stroke-miterlimit="10"
      stroke-width="2"
    />
    <line
      x1="270.09"
      y1="178.54"
      x2="311.47"
      y2="219.92"
      fill="none"
      stroke="#e18686"
      stroke-miterlimit="10"
      stroke-width="2"
    />
    <line
      x1="265.85"
      y1="182.78"
      x2="307.23"
      y2="224.16"
      fill="none"
      stroke="#e18686"
      stroke-miterlimit="10"
      stroke-width="2"
    />
    <line
      x1="261.61"
      y1="187.02"
      x2="302.98"
      y2="228.4"
      fill="none"
      stroke="#e18686"
      stroke-miterlimit="10"
      stroke-width="2"
    />
    <line
      x1="263.25"
      y1="272.5"
      x2="291.25"
      y2="244.5"
      fill="none"
      stroke="#e18686"
      stroke-miterlimit="10"
      stroke-width="2"
    />
    <line
      x1="267.25"
      y1="276.5"
      x2="294.75"
      y2="249"
      fill="none"
      stroke="#e18686"
      stroke-miterlimit="10"
      stroke-width="2"
    />
    <line
      x1="271.25"
      y1="279.5"
      x2="298.25"
      y2="252.5"
      fill="none"
      stroke="#e18686"
      stroke-miterlimit="10"
      stroke-width="2"
    />
    <line
      x1="275.25"
      y1="282.5"
      x2="302.25"
      y2="255.5"
      fill="none"
      stroke="#e18686"
      stroke-miterlimit="10"
      stroke-width="2"
    />
  </g>
  <g id="Layer_toilet1">
    <rect
      x="347.75"
      y="928"
      width="105"
      height="71"
      fill="none"
      stroke="#e18686"
      stroke-miterlimit="10"
      stroke-width="2"
    />
    <rect
      x="453.25"
      y="928"
      width="20"
      height="34"
      fill="none"
      stroke="#e18686"
      stroke-miterlimit="10"
      stroke-width="2"
    />
  </g>
  <g id="Layer_toilet2">
    <rect
      x="431.75"
      y="1035"
      width="118"
      height="57"
      transform="translate(1554.25 572.75) rotate(90)"
      fill="none"
      stroke="#e18686"
      stroke-miterlimit="10"
      stroke-width="2"
    />
  </g>
  <g id="Layer_201A">
    <rect
      x="347.25"
      y="855.5"
      width="126"
      height="72"
      fill="#f8cdce"
      stroke="#e18686"
      stroke-miterlimit="10"
      stroke-width="2"
    />
    <text
      transform="translate(388.67 895.43)"
      fill="#434142"
      font-family="NanumSquareNeovariable-Heavy, 'NanumSquare Neo variable'"
      font-size="16"
      font-variation-settings="'wght' 900"
      font-weight="800"
    >
      <tspan x="0" y="0">201A</tspan>
    </text>
  </g>
  <g id="Layer_201">
    <path
      d="m350.05,586.3l-21.15,21.15,18.34,18.34v229.7h126v-146l-123.2-123.2Z"
      fill="#f8cdce"
      stroke="#e18686"
      stroke-miterlimit="10"
      stroke-width="2.07"
    />
    <text
      transform="translate(394.26 767.6)"
      fill="#434142"
      font-family="NanumSquareNeovariable-Heavy, 'NanumSquare Neo variable'"
      font-size="16"
      font-variation-settings="'wght' 900"
      font-weight="800"
    >
      <tspan x="0" y="0">201</tspan>
    </text>
  </g>
</svg>
