<?xml version="1.0" encoding="UTF-8"?>
<svg id="_x33_" xmlns="http://www.w3.org/2000/svg" viewBox="0 0 1350.69 867.01">
  <defs>
    <style>
      .cls-1 {
        stroke-width: 10px;
      }

      .cls-1,
      .cls-2,
      .cls-3,
      .cls-4 {
        stroke: #e68b8b;
        stroke-miterlimit: 10;
      }

      .cls-1,
      .cls-3 {
        fill: #fcf2f2;
      }

      .cls-2 {
        fill: none;
      }

      .cls-2,
      .cls-4 {
        stroke-width: 3px;
      }

      .cls-5 {
        letter-spacing: 0em;
      }

      .cls-6 {
        fill: #221f20;
        font-family: NanumSquareNeoTTF-dEb, "NanumSquare Neo";
        font-size: 12px;
      }

      .cls-7 {
        letter-spacing: -0.04em;
      }

      .cls-8 {
        letter-spacing: -0.03em;
      }

      .cls-9 {
        letter-spacing: -0.03em;
      }

      .cls-10 {
        letter-spacing: -0.01em;
      }

      .cls-11 {
        letter-spacing: 0em;
      }

      .cls-4 {
        fill: #f3cdcf;
      }
    </style>
  </defs>
  <g id="Layer_x5F_border-5" data-name="Layer_x5F_border">
    <rect class="cls-1" x="90.96" y="188.88" width="1175.42" height="517.29" />
  </g>
  <g id="Layer_x5F_others-5" data-name="Layer_x5F_others">
    <rect class="cls-2" x="242.01" y="505.03" width="74.26" height="22.39" />
    <rect class="cls-4" x="351.16" y="456.65" width="42.04" height="42.04" />
    <rect class="cls-2" x="271.05" y="339.12" width="124.9" height="50.11" />
    <rect class="cls-4" x="295.64" y="389.23" width="55.52" height="55.52" />
    <polygon
      class="cls-2"
      points="351.16 444.75 351.16 498.69 393.2 498.69 393.2 527.42 338.12 527.42 338.12 444.75 351.16 444.75"
    />
    <g>
      <rect class="cls-2" x="272.58" y="340.97" width="8.59" height="25.11" />
      <rect class="cls-2" x="281.17" y="340.97" width="8.93" height="25.11" />
      <rect class="cls-2" x="290.1" y="340.97" width="10.3" height="25.11" />
      <rect class="cls-2" x="300.4" y="340.97" width="8.24" height="25.11" />
      <rect class="cls-2" x="308.64" y="340.97" width="10.3" height="25.11" />
      <rect class="cls-2" x="318.95" y="340.97" width="7.38" height="25.11" />
      <rect class="cls-2" x="326.33" y="340.97" width="11.16" height="25.11" />
      <rect class="cls-2" x="337.5" y="340.97" width="10.3" height="25.11" />
      <rect class="cls-2" x="347.8" y="340.97" width="8.93" height="25.11" />
      <rect class="cls-2" x="356.73" y="340.97" width="8.93" height="25.11" />
    </g>
    <g>
      <rect class="cls-2" x="272.44" y="365.79" width="8.59" height="22.73" />
      <rect class="cls-2" x="281.02" y="365.79" width="8.93" height="22.73" />
      <rect class="cls-2" x="289.95" y="365.79" width="10.3" height="22.73" />
      <rect class="cls-2" x="300.26" y="365.79" width="8.24" height="22.73" />
      <rect class="cls-2" x="308.5" y="365.79" width="10.3" height="22.73" />
      <rect class="cls-2" x="318.81" y="365.79" width="7.38" height="22.73" />
      <rect class="cls-2" x="326.19" y="365.79" width="11.16" height="22.73" />
      <rect class="cls-2" x="337.35" y="365.79" width="10.3" height="22.73" />
      <rect class="cls-2" x="347.66" y="365.79" width="8.93" height="22.73" />
      <rect class="cls-2" x="356.59" y="365.79" width="8.93" height="22.73" />
    </g>
    <rect class="cls-2" x="621.85" y="350.06" width="213.44" height="166.22" />
    <rect class="cls-2" x="934.17" y="340.92" width="126.24" height="48.59" />
    <rect class="cls-2" x="934.17" y="389.51" width="48.41" height="137.84" />
    <rect class="cls-4" x="934.17" y="395.36" width="48.41" height="48.41" />
    <rect class="cls-4" x="934.17" y="450.61" width="48.41" height="41.99" />
    <rect class="cls-4" x="1002.69" y="502.76" width="87.07" height="24.59" />
    <g>
      <rect class="cls-2" x="967.33" y="340.92" width="8.59" height="22.73" />
      <rect class="cls-2" x="975.91" y="340.92" width="8.93" height="22.73" />
      <rect class="cls-2" x="984.84" y="340.92" width="10.3" height="22.73" />
      <rect class="cls-2" x="995.15" y="340.92" width="8.24" height="22.73" />
      <rect class="cls-2" x="1003.39" y="340.92" width="10.3" height="22.73" />
      <rect class="cls-2" x="1013.7" y="340.92" width="7.38" height="22.73" />
      <rect class="cls-2" x="1021.08" y="340.92" width="11.16" height="22.73" />
      <rect class="cls-2" x="1032.24" y="340.92" width="10.3" height="22.73" />
      <rect class="cls-2" x="1042.55" y="340.92" width="8.93" height="22.73" />
      <rect class="cls-2" x="1051.48" y="340.92" width="8.93" height="22.73" />
    </g>
    <g>
      <rect class="cls-2" x="967.16" y="365.21" width="8.59" height="22.73" />
      <rect class="cls-2" x="975.74" y="365.21" width="8.93" height="22.73" />
      <rect class="cls-2" x="984.67" y="365.21" width="10.3" height="22.73" />
      <rect class="cls-2" x="994.98" y="365.21" width="8.24" height="22.73" />
      <rect class="cls-2" x="1003.22" y="365.21" width="10.3" height="22.73" />
      <rect class="cls-2" x="1013.52" y="365.21" width="7.38" height="22.73" />
      <rect class="cls-2" x="1020.91" y="365.21" width="11.16" height="22.73" />
      <rect class="cls-2" x="1032.07" y="365.21" width="10.3" height="22.73" />
      <rect class="cls-2" x="1042.38" y="365.21" width="8.93" height="22.73" />
      <rect class="cls-2" x="1051.31" y="365.21" width="8.93" height="22.73" />
    </g>
    <g>
      <rect class="cls-2" x="796.96" y="350.6" width="22.73" height="6.94" />
      <rect class="cls-2" x="796.96" y="357.54" width="22.73" height="7.22" />
      <rect class="cls-2" x="796.96" y="364.76" width="22.73" height="8.33" />
      <rect class="cls-2" x="796.96" y="373.08" width="22.73" height="6.66" />
      <rect class="cls-2" x="796.96" y="379.74" width="22.73" height="8.33" />
      <rect class="cls-2" x="796.96" y="388.07" width="22.73" height="5.97" />
      <rect class="cls-2" x="796.96" y="394.04" width="22.73" height="9.02" />
      <rect class="cls-2" x="796.96" y="403.06" width="22.73" height="8.33" />
      <rect class="cls-2" x="796.96" y="411.39" width="22.73" height="7.22" />
      <rect class="cls-2" x="796.96" y="418.6" width="22.73" height="7.22" />
    </g>
    <g>
      <rect class="cls-2" x="796.96" y="425.85" width="22.73" height="6.94" />
      <rect class="cls-2" x="796.96" y="432.79" width="22.73" height="7.22" />
      <rect class="cls-2" x="796.96" y="440.01" width="22.73" height="8.33" />
      <rect class="cls-2" x="796.96" y="448.33" width="22.73" height="6.66" />
      <rect class="cls-2" x="796.96" y="455" width="22.73" height="8.33" />
      <rect class="cls-2" x="796.96" y="463.32" width="22.73" height="5.97" />
      <rect class="cls-2" x="796.96" y="469.29" width="22.73" height="9.02" />
      <rect class="cls-2" x="796.96" y="478.31" width="22.73" height="8.33" />
      <rect class="cls-2" x="796.96" y="486.64" width="22.73" height="7.22" />
      <rect class="cls-2" x="796.96" y="493.86" width="22.73" height="7.22" />
    </g>
    <rect class="cls-2" x="1060.41" y="340.92" width="29.35" height="48.59" />
    <rect class="cls-2" x="399.18" y="251.49" width="53.26" height="32.24" />
    <line class="cls-4" x1="509.14" y1="251.49" x2="399.18" y2="251.49" />
    <rect class="cls-2" x="887.33" y="250.75" width="54.97" height="32.24" />
    <line class="cls-4" x1="942.29" y1="250.75" x2="832.34" y2="250.75" />
    <polyline
      class="cls-2"
      points="792.41 516.28 792.41 504.59 774.08 504.59 774.08 482.49 792.41 482.49 792.41 430.44 774.08 430.44 774.08 408.73 792.41 408.73 792.41 350.06"
    />
    <rect class="cls-2" x="242.01" y="339.12" width="29.04" height="50.11" />
    <line class="cls-3" x1="612.39" y1="566.62" x2="934.17" y2="566.62" />
    <rect class="cls-4" x="289.95" y="285.96" width="57.7" height="14.75" />
  </g>
  <g id="Layer_94">
    <polygon
      class="cls-2"
      points="242.01 389.23 242.01 505.03 316.26 505.03 316.26 527.42 338.12 527.42 338.12 444.75 295.64 444.75 295.64 389.23 242.01 389.23"
    />
  </g>
  <g id="Layer_75">
    <rect class="cls-4" x="1159.54" y="612" width="106.85" height="94.18" />
    <text class="cls-6" transform="translate(1196.6 647.67)">
      <tspan x="0" y="0">301A</tspan>
      <tspan x="-18.02" y="14.4">N</tspan>
      <tspan class="cls-7" x="-8.48" y="14.4">O</tspan>
      <tspan class="cls-5" x=".62" y="14.4">VEL 구조</tspan>
      <tspan x="-.71" y="28.8">연구실</tspan>
    </text>
  </g>
  <g id="Layer_93">
    <rect class="cls-4" x="457.62" y="433.5" width="82.82" height="93.92" />
    <text class="cls-6" transform="translate(486.48 469.05)">
      <tspan x="0" y="0">322</tspan>
      <tspan x="-4.52" y="14.4">정규문</tspan>
      <tspan x="-10.21" y="28.8">스터디룸</tspan>
    </text>
  </g>
  <g id="Layer_76">
    <rect class="cls-4" x="1177.96" y="429.34" width="88.42" height="98.02" />
    <text class="cls-6" transform="translate(1204.94 466.93)">
      <tspan x="0" y="0">3</tspan>
      <tspan class="cls-9" x="8.53" y="0">2</tspan>
      <tspan class="cls-5" x="16.45" y="0">4A</tspan>
      <tspan class="cls-8" x="-16.4" y="14.4">A</tspan>
      <tspan x="-7.34" y="14.4">OP 시스템</tspan>
      <tspan x=".17" y="28.8">연구실</tspan>
    </text>
  </g>
  <g id="Layer_77">
    <rect class="cls-4" x="1089.76" y="429.34" width="88.2" height="98.02" />
    <text class="cls-6" transform="translate(1121.34 466.93)">
      <tspan x="0" y="0">3</tspan>
      <tspan class="cls-9" x="8.53" y="0">2</tspan>
      <tspan class="cls-5" x="16.45" y="0">4</tspan>
      <tspan class="cls-8" x="-21.11" y="14.4">A</tspan>
      <tspan x="-12.05" y="14.4">OP 시스템</tspan>
      <tspan x="-4.54" y="28.8">연구실</tspan>
    </text>
  </g>
  <g id="Layer_78">
    <rect class="cls-4" x="1177.96" y="340.92" width="88.42" height="88.42" />
    <text class="cls-6" transform="translate(1206.02 373.71)">
      <tspan class="cls-10" x="0" y="0">3</tspan>
      <tspan x="8.41" y="0">19A</tspan>
      <tspan x="-17.98" y="14.4">환경재료촉매</tspan>
      <tspan x="-.91" y="28.8">연구실</tspan>
    </text>
  </g>
  <g id="Layer_79">
    <rect class="cls-4" x="1089.76" y="340.92" width="88.2" height="88.42" />
    <text class="cls-6" transform="translate(1122.42 373.71)">
      <tspan class="cls-10" x="0" y="0">3</tspan>
      <tspan x="8.41" y="0">19</tspan>
      <tspan x="-22.69" y="14.4">환경재료촉매</tspan>
      <tspan x="-5.62" y="28.8">연구실</tspan>
    </text>
  </g>
  <g id="Layer_80">
    <polygon
      class="cls-2"
      points="1002.69 527.35 1002.69 502.76 1089.76 502.76 1089.76 389.51 982.58 389.51 982.58 527.35 1002.69 527.35"
    />
  </g>
  <g id="Layer_81">
    <rect class="cls-4" x="1178.07" y="188.88" width="88.31" height="111.82" />
    <text class="cls-6" transform="translate(1205.95 240.58)">
      <tspan class="cls-10" x="0" y="0">3</tspan>
      <tspan x="8.41" y="0">18A</tspan>
      <tspan class="cls-8" x="-17.48" y="14.4">A</tspan>
      <tspan x="-8.42" y="14.4">CE La</tspan>
      <tspan class="cls-10" x="26.29" y="14.4">b</tspan>
      <tspan x="34.33" y="14.4">. D</tspan>
    </text>
  </g>
  <g id="Layer_82">
    <rect class="cls-4" x="1108.99" y="188.88" width="69.08" height="111.82" />
    <text class="cls-6" transform="translate(1131.96 233.38)">
      <tspan class="cls-10" x="0" y="0">3</tspan>
      <tspan x="8.41" y="0">18</tspan>
      <tspan class="cls-8" x="-2.99" y="14.4">A</tspan>
      <tspan x="6.07" y="14.4">CE</tspan>
      <tspan x="-7.63" y="28.8">La</tspan>
      <tspan class="cls-10" x="7.02" y="28.8">b</tspan>
      <tspan x="15.06" y="28.8">. D</tspan>
    </text>
  </g>
  <g id="Layer_83">
    <rect class="cls-4" x="942.32" y="188.88" width="166.67" height="111.82" />
    <text class="cls-6" transform="translate(1014.69 233.38)">
      <tspan class="cls-11" x="0" y="0">3</tspan>
      <tspan x="8.41" y="0">17</tspan>
      <tspan x="-17.48" y="14.4">에너지재료</tspan>
      <tspan x="-6.1" y="28.8">연구실</tspan>
    </text>
  </g>
  <g id="Layer_84">
    <rect class="cls-4" x="724.22" y="188.88" width="108.12" height="111.82" />
    <text class="cls-6" transform="translate(766.84 240.58)">
      <tspan class="cls-10" x="0" y="0">3</tspan>
      <tspan x="8.41" y="0">16</tspan>
      <tspan x="-11.31" y="14.4">세미나실</tspan>
    </text>
  </g>
  <g id="Layer_85">
    <rect class="cls-4" x="612.39" y="188.88" width="111.82" height="111.82" />
    <text class="cls-6" transform="translate(656.99 233.38)">
      <tspan class="cls-10" x="0" y="0">3</tspan>
      <tspan x="8.41" y="0">15</tspan>
      <tspan x="-11.43" y="14.4">이디앤씨</tspan>
      <tspan x="-11.43" y="28.8">세미나실</tspan>
    </text>
  </g>
  <g id="Layer_86">
    <rect class="cls-4" x="509.14" y="188.88" width="103.25" height="111.82" />
    <text class="cls-6" transform="translate(549.3 240.58)">
      <tspan class="cls-10" x="0" y="0">3</tspan>
      <tspan x="8.41" y="0">14</tspan>
      <tspan x="-18.46" y="14.4">위험물 창고</tspan>
    </text>
  </g>
  <g id="Layer_87">
    <polygon
      class="cls-4"
      points="347.66 300.71 399.18 300.71 399.18 188.88 316.26 188.88 316.26 285.96 347.66 285.96 347.66 300.71"
    />
    <text class="cls-6" transform="translate(346.28 240.58)">
      <tspan class="cls-10" x="0" y="0">3</tspan>
      <tspan x="8.41" y="0">13</tspan>
      <tspan x="-16.94" y="14.4">세미나실 2</tspan>
    </text>
  </g>
  <g id="Layer_88">
    <polygon
      class="cls-4"
      points="166.48 188.88 316.26 188.88 316.26 285.96 289.95 285.96 289.95 300.71 213.1 300.71 213.1 285.96 166.48 285.96 166.48 188.88"
    />
    <text class="cls-6" transform="translate(230.06 233.38)">
      <tspan class="cls-10" x="0" y="0">3</tspan>
      <tspan x="8.41" y="0">12</tspan>
      <tspan x="-11.44" y="14.4">지반공학</tspan>
      <tspan x="-5.75" y="28.8">연구실</tspan>
    </text>
  </g>
  <g id="Layer_89">
    <rect class="cls-4" x="540.43" y="340.97" width="81.41" height="92.54" />
    <text class="cls-6" transform="translate(568.32 375.82)">
      <tspan x="0" y="0">320</tspan>
      <tspan x="-7.22" y="14.4">83학번</tspan>
      <tspan x="-9.94" y="28.8">스터디룸</tspan>
    </text>
  </g>
  <g id="Layer_90">
    <rect class="cls-4" x="457.62" y="340.97" width="82.82" height="92.54" />
    <text class="cls-6" transform="translate(487.65 375.82)">
      <tspan x="0" y="0">321</tspan>
      <tspan x="-5.69" y="14.4">배영곤</tspan>
      <tspan x="-11.38" y="28.8">스터디룸</tspan>
    </text>
  </g>
  <g id="Layer_91">
    <rect class="cls-4" x="540.43" y="433.5" width="81.41" height="93.92" />
    <text class="cls-6" transform="translate(568.47 469.04)">
      <tspan x="0" y="0">323</tspan>
      <tspan x="-4.39" y="14.4">김원경</tspan>
      <tspan x="-10.08" y="28.8">스터디룸</tspan>
    </text>
  </g>
  <g id="Layer_59">
    <rect class="cls-4" x="90.96" y="188.88" width="75.52" height="97.08" />
    <text class="cls-6" transform="translate(112.7 226)">
      <tspan class="cls-10" x="0" y="0">3</tspan>
      <tspan x="8.41" y="0">12A</tspan>
      <tspan x="-6.73" y="14.4">지반공학</tspan>
      <tspan x="-1.04" y="28.8">연구실</tspan>
    </text>
  </g>
  <g id="Layer_60">
    <rect class="cls-4" x="90.96" y="285.96" width="122.14" height="53.16" />
    <text class="cls-6" transform="translate(141.88 301.12)">
      <tspan class="cls-10" x="0" y="0">3</tspan>
      <tspan x="8.41" y="0">11</tspan>
      <tspan x="-29.67" y="14.4">스마트모빌리티</tspan>
      <tspan x="-34.31" y="28.8">운영, 계획 연구실</tspan>
    </text>
  </g>
  <g id="Layer_61">
    <rect class="cls-4" x="90.96" y="339.12" width="151.05" height="97.3" />
    <text class="cls-6" transform="translate(154.9 376.35)">
      <tspan class="cls-11" x="0" y="0">3</tspan>
      <tspan x="8.41" y="0">10</tspan>
      <tspan x="-29.72" y="14.4">고성능 콘트리트</tspan>
      <tspan x="-5.48" y="28.8">연구실</tspan>
    </text>
  </g>
  <g id="Layer_62">
    <rect class="cls-4" x="90.96" y="436.41" width="151.05" height="90.32" />
    <text class="cls-6" transform="translate(153.54 477.36)">
      <tspan x="0" y="0">309</tspan>
      <tspan class="cls-8" x="-20.75" y="14.4">A</tspan>
      <tspan x="-11.69" y="14.4">CE La</tspan>
      <tspan class="cls-10" x="23.01" y="14.4">b</tspan>
      <tspan x="31.05" y="14.4">. C</tspan>
    </text>
  </g>
  <g id="Layer_63">
    <rect class="cls-4" x="90.96" y="566.62" width="91.21" height="139.55" />
    <text class="cls-6" transform="translate(123.5 624.98)">
      <tspan x="0" y="0">308</tspan>
      <tspan x="-21.06" y="14.4">구조물안정론</tspan>
      <tspan x="-4" y="28.8">연구실</tspan>
    </text>
  </g>
  <g id="Layer_64">
    <rect class="cls-4" x="182.17" y="605.76" width="53.94" height="100.41" />
    <text class="cls-6" transform="translate(191.96 658.95)">
      <tspan x="0" y="0">307A</tspan>
    </text>
  </g>
  <g id="Layer_65">
    <polygon
      class="cls-4"
      points="182.17 605.76 236.11 605.76 236.11 644.47 289.95 644.47 290.1 566.62 182.17 566.62 182.17 605.76"
    />
    <text class="cls-6" transform="translate(250.57 595.54)">
      <tspan x="0" y="0">307</tspan>
      <tspan class="cls-8" x="-.61" y="14.4">A</tspan>
      <tspan x="8.45" y="14.4">CE</tspan>
      <tspan x="-8.05" y="28.8" xml:space="preserve">La</tspan>
      <tspan class="cls-10" x="9.58" y="28.8">b</tspan>
      <tspan x="17.62" y="28.8">. B</tspan>
    </text>
  </g>
  <g id="Layer_66">
    <rect class="cls-4" x="236.11" y="644.47" width="53.85" height="61.71" />
    <text class="cls-6" transform="translate(243.04 678.3)">
      <tspan x="0" y="0">307B</tspan>
    </text>
  </g>
  <g id="Layer_67">
    <rect class="cls-4" x="290.1" y="566.62" width="109.09" height="89.19" />
    <text class="cls-6" transform="translate(331.7 599.8)">
      <tspan x="0" y="0">306</tspan>
      <tspan x="-9.81" y="14.4">건설재료</tspan>
      <tspan x="-4.12" y="28.8">실험실</tspan>
    </text>
  </g>
  <g id="Layer_68">
    <rect class="cls-4" x="290.1" y="655.81" width="109.09" height="50.37" />
    <text class="cls-6" transform="translate(326.99 669.57)">
      <tspan x="0" y="0">306A</tspan>
      <tspan x="-5.1" y="14.4">건설재료</tspan>
      <tspan x=".59" y="28.8">실험실</tspan>
    </text>
  </g>
  <g id="Layer_69">
    <rect class="cls-4" x="399.18" y="566.62" width="109.96" height="139.55" />
    <text class="cls-6" transform="translate(441.34 632.18)">
      <tspan x="0" y="0">305</tspan>
      <tspan class="cls-8" x="-20.95" y="14.4">A</tspan>
      <tspan x="-11.89" y="14.4">CE La</tspan>
      <tspan class="cls-10" x="22.82" y="14.4">b</tspan>
      <tspan x="30.86" y="14.4">. A</tspan>
    </text>
  </g>
  <g id="Layer_70">
    <rect class="cls-4" x="509.14" y="566.62" width="103.25" height="139.55" />
    <text class="cls-6" transform="translate(547.8 624.98)">
      <tspan x="0" y="0">304</tspan>
      <tspan x="-9.78" y="14.4">블루워터</tspan>
      <tspan x="-9.78" y="28.8">클러스터</tspan>
    </text>
  </g>
  <g id="Layer_71">
    <rect class="cls-4" x="934.17" y="566.62" width="112.05" height="139.55" />
    <text class="cls-6" transform="translate(977.26 624.98)">
      <tspan x="0" y="0">303</tspan>
      <tspan x="-41.25" y="14.4">지하공간/지반시스템</tspan>
      <tspan x="-4.12" y="28.8">연구실</tspan>
    </text>
  </g>
  <g id="Layer_72">
    <rect class="cls-4" x="1046.23" y="566.62" width="113.31" height="80.54" />
    <text class="cls-6" transform="translate(1090.06 595.48)">
      <tspan x="0" y="0">302</tspan>
      <tspan x="-22.8" y="14.4">증강 가상현실</tspan>
      <tspan x="-4.25" y="28.8">실험실</tspan>
    </text>
  </g>
  <g id="Layer_73">
    <rect class="cls-4" x="1046.23" y="647.16" width="113.31" height="59.01" />
    <text class="cls-6" transform="translate(1085.35 672.45)">
      <tspan x="0" y="0">302A</tspan>
      <tspan x=".46" y="14.4">서버실</tspan>
    </text>
  </g>
  <g id="Layer_74">
    <rect class="cls-4" x="1159.54" y="566.62" width="106.85" height="45.38" />
    <text class="cls-6" transform="translate(1201.31 577.89)">
      <tspan x="0" y="0">301</tspan>
      <tspan x="-12.59" y="14.4">학부 모형</tspan>
      <tspan x="-5.42" y="28.8">제작실</tspan>
    </text>
  </g>
</svg>
