<?xml version="1.0" encoding="UTF-8"?>
<svg id="_x35_" xmlns="http://www.w3.org/2000/svg" viewBox="0 0 965 902">
  <defs>
    <style>
      .cls-1 {
        fill: #fcf2f2;
        stroke-width: 10px;
      }

      .cls-1, .cls-2, .cls-3 {
        stroke: #e68b8b;
        stroke-miterlimit: 10;
      }

      .cls-4 {
        font-size: 4.44px;
      }

      .cls-5 {
        font-size: 9.51px;
      }

      .cls-2 {
        fill: none;
      }

      .cls-2, .cls-3 {
        stroke-width: 3px;
      }

      .cls-6, .cls-7 {
        fill: #221f20;
        font-family: NanumSquareNeoTTF-dEb, 'NanumSquare Neo';
      }

      .cls-7 {
        font-size: 15px;
      }

      .cls-3 {
        fill: #f3cdcf;
      }
    </style>
  </defs>
  <g id="Layer_x5F_border-6" data-name="Layer_x5F_border">
    <polygon class="cls-1" points="740.62 418.89 740.62 61 628.6 61 628.6 48.98 348.14 48.98 348.14 58.75 348.79 74.97 311.82 74.97 311.83 59.48 237.02 61 237.02 524.01 223.04 524.01 215.9 531.99 215.9 645.38 223.46 652.52 237.02 652.1 237.02 837.85 740.62 837.85 740.62 623.13 722.38 623.13 722.38 555.72 738.06 555.72 738.06 486.61 722.38 486.61 722.38 418.89 740.62 418.89"/>
  </g>
  <g id="Layer_x5F_others-6" data-name="Layer_x5F_others">
    <g>
      <rect class="cls-2" x="461.18" y="186.69" width="7.03" height="23.62" transform="translate(266.19 663.2) rotate(-90)"/>
      <rect class="cls-2" x="461.18" y="179.66" width="7.03" height="23.62" transform="translate(273.22 656.17) rotate(-90)"/>
      <rect class="cls-2" x="461.18" y="172.63" width="7.03" height="23.62" transform="translate(280.25 649.14) rotate(-90)"/>
      <rect class="cls-2" x="461.18" y="165.6" width="7.03" height="23.62" transform="translate(287.28 642.11) rotate(-90)"/>
      <rect class="cls-2" x="461.18" y="158.57" width="7.03" height="23.62" transform="translate(294.31 635.08) rotate(-90)"/>
      <rect class="cls-2" x="461.18" y="151.51" width="7.03" height="23.62" transform="translate(301.37 628.01) rotate(-90)"/>
      <rect class="cls-2" x="461.18" y="144.48" width="7.03" height="23.62" transform="translate(308.4 620.98) rotate(-90)"/>
      <rect class="cls-2" x="461.18" y="137.45" width="7.03" height="23.62" transform="translate(315.43 613.95) rotate(-90)"/>
      <rect class="cls-2" x="461.18" y="130.42" width="7.03" height="23.62" transform="translate(322.46 606.92) rotate(-90)"/>
      <rect class="cls-2" x="461.18" y="123.39" width="7.03" height="23.62" transform="translate(329.49 599.89) rotate(-90)"/>
    </g>
    <line class="cls-2" x1="476.5" y1="273.49" x2="452.83" y2="273.49"/>
    <path class="cls-2" d="M584.57,559.89c-4.34,8.46-11.69,20.38-23.66,31.98-14.08,13.63-28.5,20.95-37.85,24.8v36.9c10.15-2.74,24.31-7.8,39.34-17.54,12.93-8.38,22.37-17.54,28.82-24.83-2.22-17.1-4.43-34.2-6.65-51.31Z"/>
    <g>
      <path class="cls-2" d="M570.26,608.23c-3.65-4.95-7.3-9.9-10.95-14.86-3.81,3.55-8.44,7.41-13.95,11.2-5.96,4.1-11.63,7.21-16.61,9.56,2.44,5.53,4.88,11.06,7.32,16.6,5.45-2.2,12.03-5.4,18.99-10.07,6.26-4.21,11.29-8.57,15.19-12.44Z"/>
      <polyline class="cls-2" points="566.64 611.65 555.32 596.94 550.87 600.56 562.29 615.35 557.65 618.87 547.1 603.36 542.13 606.73 552.15 622.56 547.49 625.3 537.76 609.4 533.23 611.91 541.22 628.5"/>
    </g>
    <g>
      <path class="cls-2" d="M581.33,621.3c-3.99-4.74-7.07-8.33-11.06-13.07-4.17,3.4-9.23,8.28-15.26,11.92-6.52,3.93-13.48,8.34-18.92,10.59,2.67,5.3,4.99,10.14,7.66,15.44,5.97-2.11,13.13-7.06,20.74-11.54,6.85-4.03,12.57-9.64,16.84-13.34Z"/>
      <polyline class="cls-2" points="576.84 625.28 565.89 612.83 561.03 616.29 572.25 629.02 567.46 632.58 556.9 618.98 551.46 622.2 561.66 636.32 556.78 639.21 546.68 624.76 541.72 627.17 550.46 643.06"/>
    </g>
    <circle class="cls-3" cx="487.52" cy="519.62" r="104.17"/>
    <rect class="cls-3" x="455.41" y="590.05" width="32.11" height="26.62"/>
    <rect class="cls-3" x="487.52" y="590.05" width="35.49" height="26.62"/>
    <path class="cls-2" d="M326.33,652.52c35.27,0,78.02-1.01,113.3-1.01v33.99c2.27,5.49,8.7,18.86,23.51,28.06,4.87,3.03,16.77,10.42,32.66,8.49,15.02-1.82,24.5-10.87,28.74-15.02,10.84-10.64,14.44-22.78,15.68-28.09v-31.23h0c-5.72,1.95-11.43,3.91-17.15,5.86h0c-.02-10.63-.03-21.25-.05-31.88-65.56.7-131.12,1.4-196.68,2.09.15,6.68-.15,22.05,0,28.73Z"/>
    <path class="cls-2" d="M722.38,623.13c-43.12.35-86.23.69-129.35,1.04-.92-3.97-1.83-7.93-2.75-11.9h0c6.03-5.74,47.53-46.58,43.29-108.52-5.05-73.89-70.49-109.14-76-112-65.74-34.13-128.94-1.17-136,2.67-1.56.85-3.79,2.08-6.52,3.73,0,0-39.98,24.42-58.37,68.71-17.97,43.28-6.33,107.12,38.04,156.91"/>
    <rect class="cls-2" x="348.14" y="48.98" width="104.69" height="224.51"/>
  </g>
  <g id="Layer_175">
    <polygon class="cls-3" points="476.5 273.49 476.5 131.68 452.88 131.68 452.83 70.2 523 70.2 523 48.98 628.6 48.98 628.6 202.02 596.72 202.02 596.72 173.9 525.76 173.9 525.76 273.49 476.5 273.49"/>
    <text class="cls-7" transform="translate(533.64 123.12)"><tspan x="0" y="0">502</tspan><tspan x="-5.46" y="18">공조실</tspan></text>
  </g>
  <g id="Layer_176">
    <rect class="cls-3" x="525.76" y="173.9" width="70.96" height="99.59"/>
    <text class="cls-7" transform="translate(539.48 209.42)"><tspan x="0" y="0">502A</tspan><tspan x="1.64" y="18">ELEV</tspan><tspan x=".43" y="36">기계실</tspan></text>
  </g>
  <g id="Layer_177">
    <rect class="cls-3" x="596.72" y="202.02" width="31.88" height="71.47"/>
    <text class="cls-6" transform="translate(599.02 238.22)"><tspan class="cls-5"><tspan x="0" y="0">502B</tspan></tspan><tspan class="cls-4"><tspan x="5.23" y="5.32">물탱크실</tspan></tspan></text>
  </g>
  <g id="Layer_178">
    <polygon class="cls-3" points="237.02 524.01 223.04 524.01 215.9 531.99 215.9 641.99 223.46 652.52 326.33 652.52 326.33 524.01 237.02 524.01"/>
    <text class="cls-7" transform="translate(256.71 582.99)"><tspan x="0" y="0">501</tspan><tspan x="-21.14" y="18">일민라운지</tspan></text>
  </g>
</svg>