<svg width="328" height="328" viewBox="0 0 328 328" fill="none" xmlns="http://www.w3.org/2000/svg">
<path d="M163.642 3.71609C251.966 3.71609 323.564 75.3141 323.564 163.638C323.564 201.947 310.093 237.109 287.629 264.645L299.87 274.292L282.624 296.176L268.098 284.731C240.074 308.926 203.568 323.56 163.638 323.56C75.314 323.56 3.71609 251.962 3.71609 163.638C3.71609 129.078 14.6786 97.0755 33.3185 70.9254L9.53549 43.534L30.576 25.2657L51.6202 49.5021C80.472 21.1817 120.015 3.71609 163.638 3.71609M163.638 0C141.817 0 120.628 4.2252 100.658 12.5604C82.5827 20.1041 66.1873 30.7135 51.8655 44.1212L33.3817 22.8317L30.9439 20.026L28.1383 22.4638L7.09774 40.7321L4.29209 43.1699L6.72984 45.9755L28.6102 71.178C19.7548 84.084 12.8205 98.1383 7.99331 112.984C2.69045 129.29 0 146.336 0 163.646C0 185.734 4.32553 207.165 12.8614 227.343C21.1037 246.83 32.9023 264.329 47.9302 279.357C62.958 294.385 80.4571 306.184 99.9443 314.426C120.123 322.958 141.55 327.287 163.642 327.287C183.62 327.287 203.136 323.727 221.654 316.704C238.584 310.283 254.225 301.152 268.187 289.539L280.327 299.105L283.244 301.405L285.545 298.488L302.791 276.604L305.091 273.687L302.174 271.386L292.865 264.051C303.397 250.52 311.68 235.537 317.514 219.458C323.995 201.598 327.28 182.821 327.28 163.646C327.28 141.557 322.954 120.126 314.419 99.948C306.176 80.4608 294.378 62.9618 279.35 47.9339C264.322 32.906 246.823 21.1074 227.336 12.8651C207.161 4.33296 185.73 0.00371547 163.638 0.00371547V0Z" fill="#EA8B8B"/>
</svg>
