<svg width="328" height="328" viewBox="0 0 328 328" fill="none" xmlns="http://www.w3.org/2000/svg">
<path d="M163.642 325.418C141.802 325.418 120.617 321.141 100.669 312.705C81.4045 304.556 64.1024 292.891 49.2455 278.034C34.3885 263.177 22.7237 245.875 14.5743 226.611C6.13879 206.667 1.86157 185.478 1.86157 163.638C1.86157 130.256 11.921 98.2757 30.966 71.0442L6.91917 43.3482L30.7653 22.6458L51.739 46.8041C81.9954 17.8038 121.654 1.858 163.638 1.858C185.477 1.858 206.663 6.13522 226.611 14.5708C245.875 22.7201 263.177 34.385 278.034 49.2419C292.891 64.0988 304.556 81.401 312.705 100.665C321.141 120.613 325.418 141.799 325.418 163.638C325.418 182.594 322.17 201.156 315.764 218.815C309.788 235.288 301.208 250.598 290.253 264.352L302.479 273.984L282.932 298.789L268.146 287.139C254.054 299.079 238.198 308.436 220.992 314.961C202.687 321.903 183.393 325.422 163.638 325.422L163.642 325.418Z" fill="#FEF3F2"/>
</svg>
