<svg width="328" height="328" viewBox="0 0 328 328" fill="none" xmlns="http://www.w3.org/2000/svg">
<mask id="mask0_725_1369" style="mask-type:luminance" maskUnits="userSpaceOnUse" x="3" y="3" width="321" height="321">
<path d="M323.564 163.638C323.564 75.3141 251.966 3.71613 163.642 3.71613C120.019 3.71613 80.4759 21.1818 51.6241 49.5021L30.5799 25.2657L9.53937 43.5341L33.3224 70.9254C14.6824 97.0755 3.71997 129.079 3.71997 163.638C3.71997 251.962 75.3179 323.56 163.642 323.56C203.571 323.56 240.078 308.926 268.101 284.731L282.628 296.176L299.874 274.292L287.633 264.645C310.093 237.105 323.568 201.947 323.568 163.638H323.564Z" fill="white"/>
</mask>
<g mask="url(#mask0_725_1369)">
<path d="M163.642 258.685C155.648 258.517 126.73 257.473 101.661 234.924C85.2395 220.153 74.121 199.595 71.5123 176.462C42.0028 181.814 12.497 187.165 -17.0125 192.52C-4.15105 280.766 71.8282 348.536 163.642 348.536C188.725 348.536 208.725 343.189 217.863 340.35C246.425 331.472 266.786 317.388 278.621 307.789C255.158 288.202 231.698 268.614 208.235 249.027C199.818 253.014 184.017 259.112 163.642 258.688V258.685Z" fill="#FED0D0" stroke="#EA8B8B" stroke-width="1.11" stroke-miterlimit="10"/>
<path d="M98.2648 272.457C98.2351 272.579 98.1385 272.728 97.975 272.902C97.8115 273.077 97.6182 273.263 97.4027 273.46C97.0831 273.761 96.7598 274.051 96.4365 274.329C96.1132 274.608 95.7267 274.924 95.2845 275.284L94.1846 273.984C94.5525 273.701 94.9241 273.397 95.2994 273.066C95.6747 272.735 96.0278 272.416 96.3585 272.107C96.6967 271.777 96.9382 271.449 97.0868 271.119C97.2318 270.788 97.3061 270.383 97.3061 269.904V268.168H99.1121V269.833C99.1121 270.086 99.127 270.312 99.153 270.509C99.1827 270.706 99.2273 270.885 99.2942 271.044C99.3611 271.204 99.4503 271.357 99.5692 271.505C99.6881 271.65 99.8405 271.803 100.03 271.962C100.368 272.256 100.714 272.535 101.067 272.802C101.42 273.07 101.765 273.326 102.104 273.571L101.074 274.813C100.799 274.616 100.506 274.396 100.19 274.155C99.8739 273.913 99.5506 273.657 99.2236 273.386C98.9783 273.189 98.7702 273.014 98.603 272.862C98.4321 272.709 98.3243 272.575 98.2797 272.453H98.2648V272.457ZM96.3436 275.931H105.043V280.959H103.263V277.444H96.3436V275.931ZM105.043 275.337H103.263V267.67H105.043V275.337Z" fill="#424142"/>
<path d="M107.514 268.462H113.657V269.974H109.279V273.01C109.77 273.01 110.234 273.01 110.676 273.003C111.119 272.999 111.55 272.988 111.97 272.973C112.389 272.958 112.809 272.936 113.233 272.902C113.657 272.869 114.095 272.828 114.545 272.784L114.701 274.266C114.277 274.322 113.831 274.367 113.367 274.4C112.902 274.433 112.386 274.459 111.821 274.478C111.256 274.497 110.624 274.508 109.922 274.511C109.22 274.515 108.417 274.519 107.514 274.519V268.462ZM113.415 281.2C112.813 281.2 112.263 281.137 111.769 281.018C111.275 280.899 110.851 280.721 110.498 280.494C110.145 280.268 109.87 279.996 109.68 279.684C109.487 279.368 109.391 279.023 109.391 278.648V278.053C109.391 277.678 109.487 277.332 109.68 277.016C109.874 276.7 110.145 276.429 110.498 276.206C110.851 275.983 111.275 275.805 111.769 275.682C112.263 275.559 112.813 275.5 113.415 275.5C114.017 275.5 114.567 275.563 115.061 275.682C115.556 275.805 115.979 275.979 116.332 276.206C116.685 276.433 116.957 276.704 117.15 277.016C117.343 277.332 117.44 277.678 117.44 278.053V278.648C117.44 279.023 117.343 279.368 117.15 279.684C116.957 280 116.685 280.271 116.332 280.494C115.979 280.721 115.556 280.896 115.061 281.018C114.567 281.141 114.017 281.2 113.415 281.2ZM113.415 276.949C113.058 276.949 112.739 276.986 112.456 277.061C112.174 277.135 111.936 277.232 111.743 277.351C111.55 277.47 111.401 277.6 111.297 277.737C111.193 277.878 111.141 278.019 111.141 278.161V278.529C111.141 278.67 111.193 278.811 111.297 278.952C111.401 279.093 111.55 279.223 111.743 279.339C111.936 279.458 112.174 279.554 112.456 279.629C112.739 279.703 113.058 279.74 113.415 279.74C113.772 279.74 114.091 279.703 114.374 279.629C114.656 279.554 114.894 279.458 115.087 279.339C115.281 279.22 115.429 279.09 115.533 278.952C115.637 278.811 115.689 278.67 115.689 278.529V278.161C115.689 278.019 115.637 277.878 115.533 277.737C115.429 277.596 115.281 277.466 115.087 277.351C114.894 277.232 114.656 277.135 114.374 277.061C114.091 276.986 113.772 276.949 113.415 276.949ZM117.399 270.554H119.123V272.107H117.399V275.441H115.619V267.674H117.399V270.554Z" fill="#424142"/>
</g>
</svg>
