<?xml version="1.0" encoding="UTF-8"?>
<svg id="_x32_" xmlns="http://www.w3.org/2000/svg" viewBox="0 0 1052.7 859.13">
  <defs>
    <style>
      .cls-1, .cls-2, .cls-3, .cls-4, .cls-5, .cls-6 {
        fill: #231f20;
        font-family: NanumSquareNeoTTF-dEb, 'NanumSquare Neo';
      }

      .cls-7 {
        stroke-width: 2px;
      }

      .cls-7, .cls-8 {
        fill: none;
      }

      .cls-7, .cls-8, .cls-9, .cls-10 {
        stroke: #f48589;
        stroke-miterlimit: 10;
      }

      .cls-11 {
        font-size: 6px;
      }

      .cls-12 {
        font-size: 7px;
      }

      .cls-13, .cls-2 {
        font-size: 9px;
      }

      .cls-8, .cls-9 {
        stroke-width: 3px;
      }

      .cls-9 {
        fill: #facbcf;
      }

      .cls-3 {
        font-size: 8px;
      }

      .cls-14 {
        letter-spacing: 0em;
      }

      .cls-15 {
        letter-spacing: -.1em;
      }

      .cls-16 {
        letter-spacing: -.07em;
      }

      .cls-17 {
        letter-spacing: -.02em;
      }

      .cls-4 {
        font-size: 25px;
      }

      .cls-18 {
        letter-spacing: -.03em;
      }

      .cls-5 {
        font-size: 12px;
      }

      .cls-6 {
        font-size: 9.61px;
      }

      .cls-19 {
        letter-spacing: -.01em;
      }

      .cls-20 {
        letter-spacing: -.01em;
      }

      .cls-21 {
        letter-spacing: 0em;
      }

      .cls-10 {
        fill: #fef2f2;
        stroke-width: 10px;
      }
    </style>
  </defs>
  <g id="Layer_x5F_border-4" data-name="Layer_x5F_border">
    <polygon class="cls-10" points="422.25 536.14 422.25 677.51 976.98 677.51 976.98 370.92 815.71 370.92 796.88 393.83 796.88 514.12 436.94 514.12 422.25 536.14"/>
    <polygon class="cls-10" points="259.12 677.51 64.65 677.51 64.65 552.59 346.82 148.67 658.58 148.67 766.67 223.99 669.09 367.66 598.41 320.41 433.32 320.41 259.12 561.95 259.12 677.51"/>
  </g>
  <g id="Layer_x5F_others-4" data-name="Layer_x5F_others">
    <line class="cls-9" x1="394.7" y1="244.54" x2="178.34" y2="551.69"/>
    <polygon class="cls-9" points="166.76 569.19 178.34 551.69 194.26 562.94 182.24 579.73 166.76 569.19"/>
    <polygon class="cls-9" points="200.9 553.57 182.24 579.73 208.25 597.51 226.28 571.15 200.9 553.57"/>
    <polygon class="cls-9" points="231.79 600.32 259.12 600.32 259.12 561.95 231.79 600.32"/>
    <g>
      <rect class="cls-7" x="221.86" y="583.12" width="6.29" height="20.33" transform="translate(-392.23 446.17) rotate(-55.82)"/>
      <rect class="cls-7" x="225.39" y="577.92" width="6.29" height="20.33" transform="translate(-386.37 446.81) rotate(-55.82)"/>
      <rect class="cls-7" x="228.93" y="572.72" width="6.29" height="20.33" transform="translate(-380.52 447.46) rotate(-55.82)"/>
      <rect class="cls-7" x="232.46" y="567.51" width="6.29" height="20.33" transform="translate(-374.67 448.1) rotate(-55.82)"/>
      <rect class="cls-7" x="235.99" y="562.31" width="6.29" height="20.33" transform="translate(-368.82 448.74) rotate(-55.82)"/>
      <rect class="cls-7" x="239.54" y="557.08" width="6.29" height="20.33" transform="translate(-362.93 449.39) rotate(-55.82)"/>
      <rect class="cls-7" x="243.07" y="551.88" width="6.29" height="20.33" transform="translate(-357.08 450.03) rotate(-55.82)"/>
      <rect class="cls-7" x="246.61" y="546.68" width="6.29" height="20.33" transform="translate(-351.23 450.67) rotate(-55.82)"/>
      <rect class="cls-7" x="250.14" y="541.47" width="6.29" height="20.33" transform="translate(-345.38 451.31) rotate(-55.82)"/>
      <rect class="cls-7" x="253.67" y="536.27" width="6.29" height="20.33" transform="translate(-339.53 451.96) rotate(-55.82)"/>
    </g>
    <g>
      <rect class="cls-7" x="464.91" y="304.49" width="5.49" height="26.34" transform="translate(150 785.32) rotate(-90)"/>
      <rect class="cls-7" x="464.91" y="299" width="5.49" height="26.34" transform="translate(155.5 779.83) rotate(-90)"/>
      <rect class="cls-7" x="464.91" y="293.5" width="5.49" height="26.34" transform="translate(160.99 774.33) rotate(-90)"/>
      <rect class="cls-7" x="464.91" y="288.01" width="5.49" height="26.34" transform="translate(166.48 768.84) rotate(-90)"/>
      <rect class="cls-7" x="464.91" y="282.51" width="5.49" height="26.34" transform="translate(171.98 763.34) rotate(-90)"/>
      <rect class="cls-7" x="464.91" y="276.99" width="5.49" height="26.34" transform="translate(177.5 757.82) rotate(-90)"/>
      <rect class="cls-7" x="464.91" y="271.5" width="5.49" height="26.34" transform="translate(183 752.33) rotate(-90)"/>
      <rect class="cls-7" x="464.91" y="266" width="5.49" height="26.34" transform="translate(188.49 746.83) rotate(-90)"/>
      <rect class="cls-7" x="464.91" y="260.51" width="5.49" height="26.34" transform="translate(193.99 741.34) rotate(-90)"/>
      <rect class="cls-7" x="464.91" y="255.01" width="5.49" height="26.34" transform="translate(199.48 735.84) rotate(-90)"/>
    </g>
    <rect class="cls-9" x="454.49" y="244.54" width="26.34" height="20.9"/>
    <rect class="cls-9" x="511.89" y="244.54" width="22.82" height="26.08"/>
    <rect class="cls-9" x="511.89" y="270.61" width="22.82" height="23.79"/>
    <rect class="cls-9" x="511.89" y="294.4" width="22.82" height="26"/>
    <polygon class="cls-8" points="670.86 299.35 646.02 282.45 615.94 325.96 640.75 343.38 670.86 299.35"/>
    <g>
      <rect class="cls-7" x="621.11" y="320.52" width="4.5" height="15.78" transform="translate(-10.18 636.71) rotate(-53.73)"/>
      <rect class="cls-7" x="623.77" y="316.89" width="4.5" height="15.78" transform="translate(-6.17 637.38) rotate(-53.73)"/>
      <rect class="cls-7" x="626.44" y="313.26" width="4.5" height="15.78" transform="translate(-2.16 638.04) rotate(-53.73)"/>
      <rect class="cls-7" x="629.1" y="309.63" width="4.5" height="15.78" transform="translate(1.86 638.71) rotate(-53.73)"/>
      <rect class="cls-7" x="631.76" y="306" width="4.5" height="15.78" transform="translate(5.87 639.37) rotate(-53.73)"/>
      <rect class="cls-7" x="634.44" y="302.35" width="4.5" height="15.78" transform="translate(9.91 640.04) rotate(-53.73)"/>
      <rect class="cls-7" x="637.1" y="298.72" width="4.5" height="15.78" transform="translate(13.92 640.7) rotate(-53.73)"/>
      <rect class="cls-7" x="639.77" y="295.1" width="4.5" height="15.78" transform="translate(17.93 641.37) rotate(-53.73)"/>
      <rect class="cls-7" x="642.43" y="291.47" width="4.5" height="15.78" transform="translate(21.95 642.03) rotate(-53.73)"/>
      <rect class="cls-7" x="645.09" y="287.84" width="4.5" height="15.78" transform="translate(25.96 642.7) rotate(-53.73)"/>
    </g>
    <g>
      <rect class="cls-7" x="633.6" y="329.87" width="4.5" height="14.45" transform="translate(-12.09 650.33) rotate(-53.73)"/>
      <rect class="cls-7" x="636.26" y="326.24" width="4.5" height="14.45" transform="translate(-8.08 650.99) rotate(-53.73)"/>
      <rect class="cls-7" x="638.92" y="322.61" width="4.5" height="14.45" transform="translate(-4.06 651.66) rotate(-53.73)"/>
      <rect class="cls-7" x="641.59" y="318.98" width="4.5" height="14.45" transform="translate(-.05 652.32) rotate(-53.73)"/>
      <rect class="cls-7" x="644.25" y="315.35" width="4.5" height="14.45" transform="translate(3.96 652.99) rotate(-53.73)"/>
      <rect class="cls-7" x="646.92" y="311.71" width="4.5" height="14.45" transform="translate(8 653.66) rotate(-53.73)"/>
      <rect class="cls-7" x="649.59" y="308.08" width="4.5" height="14.45" transform="translate(12.01 654.32) rotate(-53.73)"/>
      <rect class="cls-7" x="652.25" y="304.45" width="4.5" height="14.45" transform="translate(16.03 654.99) rotate(-53.73)"/>
      <rect class="cls-7" x="654.91" y="300.82" width="4.5" height="14.45" transform="translate(20.04 655.65) rotate(-53.73)"/>
      <rect class="cls-7" x="657.58" y="297.19" width="4.5" height="14.45" transform="translate(24.05 656.31) rotate(-53.73)"/>
    </g>
    <rect class="cls-8" x="422.25" y="536.35" width="29.37" height="64.79"/>
    <g>
      <rect class="cls-7" x="434.6" y="570.46" width="4.67" height="29.37" transform="translate(-148.2 1022.08) rotate(-90)"/>
      <rect class="cls-7" x="434.6" y="565.78" width="4.67" height="29.37" transform="translate(-143.53 1017.41) rotate(-90)"/>
      <rect class="cls-7" x="434.6" y="561.11" width="4.67" height="29.37" transform="translate(-138.86 1012.74) rotate(-90)"/>
      <rect class="cls-7" x="434.6" y="556.44" width="4.67" height="29.37" transform="translate(-134.19 1008.07) rotate(-90)"/>
      <rect class="cls-7" x="434.6" y="551.77" width="4.67" height="29.37" transform="translate(-129.52 1003.4) rotate(-90)"/>
      <rect class="cls-7" x="434.6" y="547.08" width="4.67" height="29.37" transform="translate(-124.82 998.7) rotate(-90)"/>
      <rect class="cls-7" x="434.6" y="542.41" width="4.67" height="29.37" transform="translate(-120.15 994.03) rotate(-90)"/>
      <rect class="cls-7" x="434.6" y="537.74" width="4.67" height="29.37" transform="translate(-115.48 989.36) rotate(-90)"/>
      <rect class="cls-7" x="434.6" y="533.06" width="4.67" height="29.37" transform="translate(-110.81 984.69) rotate(-90)"/>
      <rect class="cls-7" x="434.6" y="528.39" width="4.67" height="29.37" transform="translate(-106.14 980.02) rotate(-90)"/>
    </g>
    <rect class="cls-8" x="798.89" y="509.77" width="33.65" height="51.05"/>
    <rect class="cls-9" x="798.89" y="560.82" width="33.65" height="32.81"/>
    <rect class="cls-9" x="832.54" y="548.64" width="18.85" height="24.08"/>
    <rect class="cls-9" x="832.54" y="572.72" width="18.85" height="20.91"/>
    <rect class="cls-9" x="851.39" y="548.64" width="17.11" height="44.99"/>
    <g>
      <rect class="cls-7" x="805.8" y="550.04" width="4.05" height="15.78" transform="translate(249.9 1365.76) rotate(-90)"/>
      <rect class="cls-7" x="805.8" y="545.99" width="4.05" height="15.78" transform="translate(253.95 1361.71) rotate(-90)"/>
      <rect class="cls-7" x="805.8" y="541.94" width="4.05" height="15.78" transform="translate(258 1357.65) rotate(-90)"/>
      <rect class="cls-7" x="805.8" y="537.89" width="4.05" height="15.78" transform="translate(262.05 1353.6) rotate(-90)"/>
      <rect class="cls-7" x="805.8" y="533.84" width="4.05" height="15.78" transform="translate(266.1 1349.55) rotate(-90)"/>
      <rect class="cls-7" x="805.8" y="529.76" width="4.05" height="15.78" transform="translate(270.18 1345.48) rotate(-90)"/>
      <rect class="cls-7" x="805.8" y="525.71" width="4.05" height="15.78" transform="translate(274.23 1341.43) rotate(-90)"/>
      <rect class="cls-7" x="805.8" y="521.66" width="4.05" height="15.78" transform="translate(278.28 1337.38) rotate(-90)"/>
      <rect class="cls-7" x="805.8" y="517.61" width="4.05" height="15.78" transform="translate(282.33 1333.32) rotate(-90)"/>
      <rect class="cls-7" x="805.8" y="513.56" width="4.05" height="15.78" transform="translate(286.38 1329.27) rotate(-90)"/>
    </g>
    <g>
      <rect class="cls-7" x="821.58" y="550.05" width="4.05" height="15.78" transform="translate(265.66 1381.54) rotate(-90)"/>
      <rect class="cls-7" x="821.58" y="546" width="4.05" height="15.78" transform="translate(269.71 1377.49) rotate(-90)"/>
      <rect class="cls-7" x="821.58" y="541.95" width="4.05" height="15.78" transform="translate(273.76 1373.44) rotate(-90)"/>
      <rect class="cls-7" x="821.58" y="537.9" width="4.05" height="15.78" transform="translate(277.82 1369.39) rotate(-90)"/>
      <rect class="cls-7" x="821.58" y="533.85" width="4.05" height="15.78" transform="translate(281.87 1365.34) rotate(-90)"/>
      <rect class="cls-7" x="821.58" y="529.77" width="4.05" height="15.78" transform="translate(285.94 1361.26) rotate(-90)"/>
      <rect class="cls-7" x="821.58" y="525.72" width="4.05" height="15.78" transform="translate(289.99 1357.21) rotate(-90)"/>
      <rect class="cls-7" x="821.58" y="521.67" width="4.05" height="15.78" transform="translate(294.04 1353.16) rotate(-90)"/>
      <rect class="cls-7" x="821.58" y="517.62" width="4.05" height="15.78" transform="translate(298.09 1349.11) rotate(-90)"/>
      <rect class="cls-7" x="821.58" y="513.57" width="4.05" height="15.78" transform="translate(302.15 1345.06) rotate(-90)"/>
    </g>
    <text class="cls-4" transform="translate(173 718.7)"><tspan x="0" y="0">B동</tspan></text>
    <text class="cls-4" transform="translate(777.23 718.7)"><tspan x="0" y="0">A동</tspan></text>
  </g>
  <g id="Layer_196">
    <rect class="cls-9" x="887.19" y="545.78" width="89.79" height="57.93"/>
    <text class="cls-2" transform="translate(923.46 571.58)"><tspan x="0" y="0">218</tspan><tspan x="-4.17" y="10.8">연구실</tspan></text>
  </g>
  <g id="Layer_197">
    <rect class="cls-9" x="944.21" y="625.63" width="32.77" height="51.88"/>
    <text class="cls-2" transform="translate(952.42 648.41)"><tspan x="0" y="0">217</tspan><tspan x="-4.63" y="10.8">연구실</tspan></text>
  </g>
  <g id="Layer_198">
    <rect class="cls-9" x="915.44" y="625.63" width="28.77" height="51.88"/>
    <text class="cls-2" transform="translate(921.29 648.41)"><tspan x="0" y="0">216</tspan><tspan x="-4.27" y="10.8">연구실</tspan></text>
  </g>
  <g id="Layer_199">
    <rect class="cls-9" x="887.19" y="625.63" width="28.25" height="51.88"/>
    <text class="cls-2" transform="translate(892.87 648.4)"><tspan x="0" y="0">215</tspan><tspan x="-4.36" y="10.8">연구실</tspan></text>
  </g>
  <g id="Layer_200">
    <rect class="cls-9" x="858.64" y="625.63" width="28.55" height="51.88"/>
    <text class="cls-2" transform="translate(864.36 648.41)"><tspan x="0" y="0">214</tspan><tspan x="-4.24" y="10.8">연구실</tspan></text>
  </g>
  <g id="Layer_201">
    <rect class="cls-9" x="828.76" y="625.63" width="29.88" height="51.88"/>
    <text class="cls-2" transform="translate(835.16 648.41)"><tspan x="0" y="0">213</tspan><tspan x="-4.27" y="10.8">연구실</tspan></text>
  </g>
  <g id="Layer_202">
    <rect class="cls-9" x="799.94" y="625.63" width="28.82" height="51.88"/>
    <text class="cls-2" transform="translate(805.91 648.41)"><tspan x="0" y="0">212</tspan><tspan x="-4.36" y="10.8">연구실</tspan></text>
  </g>
  <g id="Layer_203">
    <rect class="cls-9" x="772.54" y="625.63" width="27.39" height="51.88"/>
    <text class="cls-1" transform="translate(778.68 647.06)"><tspan class="cls-13"><tspan x="0" y="0">211</tspan></tspan><tspan class="cls-11"><tspan x="-3.82" y="14.4">세미나실</tspan></tspan></text>
  </g>
  <g id="Layer_204">
    <rect class="cls-9" x="712.47" y="625.63" width="60.08" height="51.88"/>
    <text class="cls-2" transform="translate(733.87 643)"><tspan x="0" y="0">210</tspan><tspan x="-4.16" y="10.8">대학원</tspan><tspan x="-4.16" y="21.6">휴게실</tspan></text>
  </g>
  <g id="Layer_182">
    <rect class="cls-9" x="422.25" y="625.63" width="119.61" height="51.88"/>
    <text class="cls-2" transform="translate(472.81 648.41)"><tspan x="0" y="0">207</tspan><tspan x="-12.08" y="10.8">화상회의실</tspan></text>
  </g>
  <g id="Layer_183">
    <rect class="cls-9" x="541.86" y="625.63" width="82.85" height="51.88"/>
    <text class="cls-2" transform="translate(573.58 648.4)"><tspan x="0" y="0">208</tspan><tspan x="-11.62" y="10.8">교수휴게실</tspan></text>
  </g>
  <g id="Layer_184">
    <rect class="cls-9" x="624.71" y="625.63" width="87.76" height="51.88"/>
    <text class="cls-2" transform="translate(658.98 648.41)"><tspan x="0" y="0">209</tspan><tspan x="-11.72" y="10.8">공동실험실</tspan></text>
  </g>
  <g id="Layer_185">
    <rect class="cls-9" x="451.62" y="514.12" width="57.66" height="87.02"/>
    <text class="cls-2" transform="translate(470.84 554.06)"><tspan x="0" y="0">206</tspan><tspan x="-3.19" y="10.8">연구실</tspan></text>
  </g>
  <g id="Layer_186">
    <rect class="cls-9" x="509.29" y="514.12" width="60.57" height="87.02"/>
    <text class="cls-2" transform="translate(530.05 554.47)"><tspan x="0" y="0">205</tspan><tspan x="-3.28" y="10.8">연구실</tspan></text>
  </g>
  <g id="Layer_187">
    <rect class="cls-9" x="569.86" y="514.12" width="54.85" height="87.02"/>
    <text class="cls-2" transform="translate(587.65 554.47)"><tspan x="0" y="0">204</tspan><tspan x="-11.7" y="10.8">세포배양실</tspan></text>
  </g>
  <g id="Layer_188">
    <rect class="cls-9" x="624.71" y="514.12" width="60.6" height="87.02"/>
    <text class="cls-2" transform="translate(645.4 554.47)"><tspan x="0" y="0">203</tspan><tspan x="-3.19" y="10.8">연구실</tspan></text>
  </g>
  <g id="Layer_189">
    <rect class="cls-9" x="685.31" y="514.12" width="57.31" height="87.02"/>
    <text class="cls-2" transform="translate(704.45 554.47)"><tspan x="0" y="0">202</tspan><tspan x="-3.28" y="10.8">연구실</tspan></text>
  </g>
  <g id="Layer_190">
    <rect class="cls-9" x="742.62" y="514.12" width="56.27" height="87.02"/>
    <text class="cls-2" transform="translate(762.12 554.47)"><tspan x="0" y="0">201</tspan><tspan x="-8.42" y="10.8">연구센터</tspan></text>
  </g>
  <g id="Layer_191">
    <rect class="cls-8" x="798.89" y="479.61" width="67.3" height="30.17"/>
  </g>
  <g id="Layer_192">
    <rect class="cls-8" x="798.89" y="451.76" width="67.3" height="27.85"/>
  </g>
  <g id="Layer_193">
    <rect class="cls-9" x="797.61" y="422.76" width="68.58" height="29"/>
    <text class="cls-2" transform="translate(822.49 434.1)"><tspan x="0" y="0">223</tspan><tspan x=".88" y="10.8">암실</tspan></text>
  </g>
  <g id="Layer_194">
    <polygon class="cls-9" points="866.19 422.76 866.19 370.92 815.71 370.92 796.88 393.83 796.88 422.76 866.19 422.76"/>
    <text class="cls-2" transform="translate(822.22 393.68)"><tspan x="0" y="0">222</tspan><tspan x="-17.4" y="10.8">위험물 저장소</tspan></text>
  </g>
  <g id="Layer_195">
    <rect class="cls-9" x="887.19" y="370.92" width="89.79" height="58.64"/>
    <text class="cls-2" transform="translate(923.65 397.08)"><tspan x="0" y="0">221</tspan><tspan x="-4.36" y="10.8">기기실</tspan></text>
  </g>
  <g id="Layer_170">
    <polygon class="cls-9" points="411.11 351.2 374.13 402.48 312.6 358.72 350.42 307.41 411.11 351.2"/>
    <text class="cls-2" transform="translate(349.08 351.78)"><tspan x="0" y="0">278A</tspan><tspan x="-.03" y="10.8">연구실</tspan></text>
  </g>
  <g id="Layer_171">
    <polygon class="cls-9" points="433.32 320.41 411.11 351.2 350.42 307.41 371.61 277.33 433.32 320.41"/>
    <text class="cls-1" transform="translate(382.72 311.1)"><tspan class="cls-13"><tspan x="0" y="0">279</tspan></tspan><tspan class="cls-12"><tspan x="-11.56" y="8.4">R</tspan><tspan class="cls-15" x="-6.38" y="8.4">.Y</tspan><tspan class="cls-20" x="-.8" y="8.4">.</tspan><tspan x="1.08" y="8.4">U g</tspan><tspan class="cls-18" x="13.11" y="8.4">r</tspan><tspan x="15.95" y="8.4">oup</tspan></tspan></text>
  </g>
  <g id="Layer_172">
    <polygon class="cls-8" points="420.38 244.54 420.38 312.17 371.61 277.33 394.7 244.54 420.38 244.54"/>
  </g>
  <g id="Layer_173">
    <polygon class="cls-8" points="454.49 320.41 433.32 320.41 420.38 312.17 420.38 244.54 454.49 244.54 454.49 320.41"/>
  </g>
  <g id="Layer_174">
    <rect class="cls-9" x="534.71" y="244.54" width="58.12" height="75.87"/>
    <text class="cls-2" transform="translate(555.38 279.31)"><tspan x="0" y="0">2</tspan><tspan class="cls-21" x="6.21" y="0">5</tspan><tspan x="12.34" y="0">1</tspan><tspan x="-12.93" y="10.8">공용실습실</tspan></text>
  </g>
  <g id="Layer_175">
    <polygon class="cls-9" points="613.28 330.35 598.41 320.41 592.84 320.41 592.84 244.28 634.01 244.28 659.83 263.43 613.28 330.35"/>
    <text class="cls-2" transform="translate(606.62 280.37)"><tspan x="0" y="0">252</tspan><tspan x="-3.48" y="10.8">연구실</tspan></text>
  </g>
  <g id="Layer_176">
    <polygon class="cls-9" points="656.33 321.39 686.77 341.63 713.02 302.98 683.35 282.51 656.33 321.39"/>
    <text class="cls-2" transform="translate(675.26 303.5)"><tspan x="0" y="0">253</tspan><tspan x="-3.38" y="10.8">위험물</tspan><tspan x="-3.38" y="21.6">저장소</tspan></text>
  </g>
  <g id="Layer_177">
    <polygon class="cls-9" points="674.85 239.39 712.07 185.46 766.67 223.99 728.2 280.63 674.85 239.39"/>
    <text class="cls-2" transform="translate(707.96 235.28)"><tspan x="0" y="0">공조실</tspan></text>
  </g>
  <g id="Layer_178">
    <polygon class="cls-9" points="674.85 239.39 642.02 216.91 658.58 148.67 712.07 185.46 674.85 239.39"/>
    <text class="cls-2" transform="translate(667.65 190.86)"><tspan x="0" y="0">2</tspan><tspan class="cls-21" x="6.21" y="0">5</tspan><tspan x="12.34" y="0">4</tspan><tspan x="-3.41" y="10.8">연구실</tspan></text>
  </g>
  <g id="Layer_179">
    <polygon class="cls-9" points="658.58 148.67 642.02 216.91 595.73 216.91 595.73 148.67 658.58 148.67"/>
    <text class="cls-2" transform="translate(617.83 179.63)"><tspan x="0" y="0">255</tspan><tspan x="-3.47" y="10.8">연구실</tspan></text>
  </g>
  <g id="Layer_180">
    <rect class="cls-9" x="887.19" y="487.03" width="89.79" height="58.76"/>
    <text class="cls-2" transform="translate(923.55 513.24)"><tspan x="0" y="0">219</tspan><tspan x="-4.27" y="10.8">분석실</tspan></text>
  </g>
  <g id="Layer_181">
    <rect class="cls-9" x="887.19" y="429.56" width="89.79" height="57.46"/>
    <text class="cls-2" transform="translate(922.57 455.13)"><tspan x="0" y="0">220</tspan><tspan x="-3.28" y="10.8">연구실</tspan></text>
  </g>
  <g id="Layer_158">
    <polygon class="cls-9" points="217.37 446.24 253.06 395.72 200.09 358.72 164.21 410.08 217.37 446.24"/>
    <text class="cls-2" transform="translate(199.22 399.32)"><tspan x="0" y="0">262</tspan><tspan x="-3.39" y="10.8">연구실</tspan></text>
  </g>
  <g id="Layer_159">
    <polygon class="cls-9" points="253.06 395.72 290.22 343.11 236.45 306.67 200.09 358.72 253.06 395.72"/>
    <text class="cls-2" transform="translate(236.67 348.03)"><tspan x="0" y="0">2</tspan><tspan class="cls-19" x="6.21" y="0">6</tspan><tspan x="12.52" y="0">1</tspan><tspan x="-4.31" y="10.8">연구실</tspan></text>
  </g>
  <g id="Layer_160">
    <polygon class="cls-9" points="290.22 343.11 328.71 288.61 275.72 250.46 236.45 306.67 290.22 343.11"/>
    <text class="cls-2" transform="translate(272.97 293.62)"><tspan x="0" y="0">260</tspan><tspan x="-3.19" y="10.8">실험실</tspan></text>
  </g>
  <g id="Layer_161">
    <polygon class="cls-9" points="328.71 288.61 365.04 237.17 310.99 199.95 275.72 250.46 328.71 288.61"/>
    <text class="cls-2" transform="translate(310.96 241.12)"><tspan x="0" y="0">259</tspan><tspan x="-3.38" y="10.8">연구실</tspan></text>
  </g>
  <g id="Layer_162">
    <polygon class="cls-9" points="365.04 237.17 379.5 216.91 404.83 216.91 404.83 148.67 346.82 148.67 310.99 199.95 365.04 237.17"/>
    <text class="cls-5" transform="translate(354.23 177.5)"><tspan x="0" y="0">258</tspan><tspan x="-22.94" y="14.4">보건환경융합 </tspan><tspan x="-4.39" y="28.8">실습실</tspan></text>
  </g>
  <g id="Layer_163">
    <rect class="cls-9" x="404.83" y="148.67" width="62.83" height="68.24"/>
    <text class="cls-2" transform="translate(427.19 174.23)"><tspan x="0" y="0">257</tspan><tspan x="-16.54" y="10.8">보건환경융합</tspan><tspan x="-3.74" y="21.6">실습실</tspan></text>
  </g>
  <g id="Layer_164">
    <rect class="cls-9" x="467.66" y="148.67" width="128.07" height="68.24"/>
    <text class="cls-6" transform="translate(521.64 179.41)"><tspan x="0" y="0">256</tspan><tspan x="-36.71" y="11.54">바이오의공학부 실습실</tspan></text>
  </g>
  <g id="Layer_165">
    <polygon class="cls-9" points="299.83 505.5 266.99 549.55 208.13 509.4 240.45 463.51 299.83 505.5"/>
    <text class="cls-2" transform="translate(245.13 503.37)"><tspan x="0" y="0">2</tspan><tspan class="cls-16" x="6.21" y="0">7</tspan><tspan x="11.26" y="0">4</tspan><tspan x="-3.95" y="10.8">실험실</tspan></text>
  </g>
  <g id="Layer_166">
    <polygon class="cls-9" points="320.61 476.68 299.83 505.5 240.45 463.51 261.1 434.21 320.61 476.68"/>
    <text class="cls-2" transform="translate(271.48 466.69)"><tspan x="0" y="0">275</tspan><tspan x="-3.74" y="10.8">연구실</tspan></text>
  </g>
  <g id="Layer_167">
    <polygon class="cls-9" points="337.64 453.08 320.61 476.68 261.1 434.21 276.55 410.08 337.64 453.08"/>
    <text class="cls-2" transform="translate(290.22 440.22)"><tspan x="0" y="0">276</tspan><tspan x="-3.65" y="10.8">연구실</tspan></text>
  </g>
  <g id="Layer_168">
    <polygon class="cls-9" points="374.13 402.48 337.64 453.08 276.55 410.08 312.6 358.72 374.13 402.48"/>
    <text class="cls-2" transform="translate(316.55 402.74)"><tspan x="0" y="0">277</tspan><tspan x="-4.01" y="10.8">연구실</tspan></text>
  </g>
  <g id="Layer_169">
    <polygon class="cls-9" points="180.51 498.43 217.37 446.24 164.21 410.08 128.26 461.53 180.51 498.43"/>
    <text class="cls-2" transform="translate(163.31 451.09)"><tspan x="0" y="0">263</tspan><tspan x="-3.29" y="10.8">연구실</tspan></text>
  </g>
  <g id="Layer_146">
    <rect class="cls-9" x="64.65" y="624.21" width="24.97" height="53.21"/>
    <text class="cls-2" transform="translate(67.99 647.66)"><tspan x="0" y="0">267</tspan><tspan x="-3.65" y="10.8">연구실</tspan></text>
  </g>
  <g id="Layer_147">
    <rect class="cls-9" x="89.62" y="624.3" width="27.78" height="53.21"/>
    <text class="cls-2" transform="translate(93.91 647.74)"><tspan x="0" y="0">268</tspan><tspan x="-3.2" y="10.8">연구실</tspan></text>
  </g>
  <g id="Layer_148">
    <rect class="cls-9" x="117.39" y="624.3" width="26.78" height="53.21"/>
    <text class="cls-2" transform="translate(121.28 647.74)"><tspan x="0" y="0">269</tspan><tspan x="-3.29" y="10.8">연구실</tspan></text>
  </g>
  <g id="Layer_149">
    <rect class="cls-9" x="144.18" y="624.3" width="28.64" height="53.21"/>
    <text class="cls-2" transform="translate(149.25 647.74)"><tspan x="0" y="0">270</tspan><tspan x="-3.55" y="10.8">연구실</tspan></text>
  </g>
  <g id="Layer_150">
    <rect class="cls-9" x="172.82" y="624.3" width="28.56" height="53.21"/>
    <text class="cls-2" transform="translate(178.93 647.74)"><tspan x="0" y="0">271</tspan><tspan x="-4.63" y="10.8">연구실</tspan></text>
  </g>
  <g id="Layer_151">
    <rect class="cls-9" x="201.38" y="624.3" width="30.41" height="53.21"/>
    <text class="cls-2" transform="translate(207.53 647.74)"><tspan x="0" y="0">272</tspan><tspan x="-3.75" y="10.8">연구실</tspan></text>
  </g>
  <g id="Layer_152">
    <rect class="cls-9" x="231.79" y="624.3" width="27.33" height="53.21"/>
    <text class="cls-2" transform="translate(236.31 647.74)"><tspan x="0" y="0">273</tspan><tspan x="-3.65" y="10.8">연구실</tspan></text>
  </g>
  <g id="Layer_153">
    <polygon class="cls-8" points="196.89 525.35 239.15 554.35 226.28 571.15 185.05 542.17 196.89 525.35"/>
  </g>
  <g id="Layer_154">
    <polygon class="cls-8" points="208.13 509.4 196.89 525.35 239.15 554.35 249.98 538.56 208.13 509.4"/>
  </g>
  <g id="Layer_155">
    <polygon class="cls-9" points="144.46 549.47 107.29 606.69 64.65 606.69 64.65 552.59 91.91 513.57 144.46 549.47"/>
    <text class="cls-2" transform="translate(95.05 556.97)"><tspan x="0" y="0">266</tspan><tspan x="-3.29" y="10.8">연구실</tspan></text>
  </g>
  <g id="Layer_156">
    <polygon class="cls-9" points="144.46 549.47 91.91 513.57 112.61 483.95 164.21 520.21 144.46 549.47"/>
    <text class="cls-2" transform="translate(122.56 513.54)"><tspan x="0" y="0">266</tspan><tspan x="-11.83" y="10.8">공용실습실</tspan></text>
  </g>
  <g id="Layer_157">
    <polygon class="cls-9" points="180.51 498.43 164.21 520.21 112.61 483.95 128.26 461.53 180.51 498.43"/>
    <text class="cls-3" transform="translate(138.17 487.71)"><tspan x="0" y="0">2</tspan><tspan class="cls-17" x="5.52" y="0">6</tspan><tspan class="cls-14" x="11.05" y="0">4</tspan><tspan x="-2.99" y="9.6">실험실</tspan></text>
  </g>
</svg>