<?xml version="1.0" encoding="UTF-8"?><svg
  xmlns="http://www.w3.org/2000/svg"
  viewBox="0 0 2500 1100"
>
  <g id="Layer_border">
    <polygon
      points="2151.47 264.09 2151.47 306.96 1442.26 306.96 1442.26 217.3 1394.54 217.3 1394.54 271.09 1106.4 271.09 1106.4 217.3 1058.68 217.3 1058.68 306.96 349.47 306.96 349.47 264.09 118.68 264.09 118.68 306.96 118.68 462.33 118.68 833.02 923.65 833.02 1054.41 833.02 1068.17 833.02 1068.17 882.7 1435.19 882.7 1435.19 833.02 1446.52 833.02 1511.45 833.02 2382.25 833.02 2382.25 462.33 2382.25 306.96 2382.25 264.09 2151.47 264.09"
      fill="none"
    />
    <polygon
      points="2151.47 264.09 2151.47 306.96 1442.26 306.96 1442.26 217.3 1394.54 217.3 1394.54 271.09 1106.4 271.09 1106.4 217.3 1058.68 217.3 1058.68 306.96 349.47 306.96 349.47 264.09 118.68 264.09 118.68 306.96 118.68 462.33 118.68 833.02 923.65 833.02 1054.41 833.02 1068.17 833.02 1068.17 882.7 1435.19 882.7 1435.19 833.02 1446.52 833.02 1511.45 833.02 2382.25 833.02 2382.25 462.33 2382.25 306.96 2382.25 264.09 2151.47 264.09"
      fill="none"
    />
    <polygon
      points="2151.47 264.09 2151.47 306.96 1442.26 306.96 1442.26 217.3 1394.54 217.3 1394.54 271.09 1106.4 271.09 1106.4 217.3 1058.68 217.3 1058.68 306.96 349.47 306.96 349.47 264.09 118.68 264.09 118.68 306.96 118.68 462.33 118.68 833.02 923.65 833.02 1054.41 833.02 1068.17 833.02 1068.17 882.7 1435.19 882.7 1435.19 833.02 1446.52 833.02 1511.45 833.02 2382.25 833.02 2382.25 462.33 2382.25 306.96 2382.25 264.09 2151.47 264.09"
      fill="none"
    />
    <polygon
      points="1063.38 887.49 1063.38 837.81 301.27 837.81 301.27 887.49 112.31 887.49 113.9 306.94 113.9 259.3 354.25 259.3 354.25 302.17 1053.89 302.17 1053.89 212.51 1111.19 212.51 1111.19 266.3 1389.75 266.3 1389.75 212.51 1447.05 212.51 1447.05 302.17 2146.68 302.17 2146.68 259.3 2387.04 259.3 2387.69 887.49 2198.73 887.49 2198.73 837.81 1439.98 837.81 1439.98 887.49 1063.38 887.49"
      fill="#fef3f2"
    />
    <path
      d="m1442.26,217.3v89.66h709.21v-42.86h230.78c.21,206.2.43,412.41.64,618.61h-179.38v-49.68h-768.33v49.68h-367.02v-49.68H296.48v49.68H117.11c.53-191.91,1.05-383.83,1.58-575.74v-42.86h230.78v42.86h709.21v-89.66h47.72v53.79h288.14v-53.79h47.72m9.58-9.58h-66.87v53.79h-268.98v-53.79h-66.87v89.66H359.04v-42.86H109.11v52.44l-1.58,575.72-.03,9.6h198.56v-49.68h752.53v49.68h386.17v-49.68h749.18v49.68h198.54v-9.59s-.33-309.3-.33-309.3l-.32-309.3v-9.57h-249.94v42.86h-690.06v-89.66h0Z"
      fill="#ea8b8b"
    />
    <polygon
      points="2382.25 795.3 2382.25 462.33 2382.25 306.96 2382.25 264.09 2151.47 264.09 2151.47 306.96 1442.26 306.96 1442.26 217.3 1394.54 217.3 1394.54 271.09 1106.4 271.09 1106.4 217.3 1058.68 217.3 1058.68 306.96 349.47 306.96 349.47 264.09 118.68 264.09 118.68 306.96 118.68 462.33 118.68 795.3 117.11 795.3 117.11 882.7 296.48 882.7 296.48 833.02 923.65 833.02 1054.41 833.02 1068.17 833.02 1068.17 882.7 1435.19 882.7 1435.19 833.02 1446.52 833.02 1511.45 833.02 2203.52 833.02 2203.52 882.7 2382.89 882.7 2382.89 795.3 2382.25 795.3"
      fill="none"
    />
    <path
      d="m2382.25,264.09h-230.78v42.86h-709.21v-89.66h-47.72v53.79h-288.14v-53.79h-47.72v89.66H349.47v-42.86H118.68v42.86c-.53,191.91-1.05,383.83-1.58,575.74h179.38v-49.68h771.69v49.68h367.02v-49.68h768.33v49.68h179.38c-.21-206.2-.43-412.41-.64-618.61Z"
      fill="none"
    />
  </g>
  <g id="Layer_others">
    <line
      x1="1240.84"
      y1="271.09"
      x2="1240.84"
      y2="502.59"
      fill="none"
      opacity=".7"
      stroke="#ea8b8b"
      stroke-miterlimit="10"
      stroke-width="9.88"
    />
    <rect
      x="1242.02"
      y="319.13"
      width="200.38"
      height="89.29"
      fill="#fef3f2"
      stroke="#ea8b8b"
      stroke-miterlimit="10"
      stroke-width="3.13"
    />
    <line
      x1="1443.5"
      y1="333.65"
      x2="1240.84"
      y2="333.65"
      fill="none"
      stroke="#ea8b8b"
      stroke-miterlimit="10"
      stroke-width="2.08"
    />
    <line
      x1="1443.5"
      y1="348.71"
      x2="1240.84"
      y2="348.71"
      fill="none"
      stroke="#ea8b8b"
      stroke-miterlimit="10"
      stroke-width="2.08"
    />
    <line
      x1="1443.5"
      y1="363.77"
      x2="1240.84"
      y2="363.77"
      fill="none"
      stroke="#ea8b8b"
      stroke-miterlimit="10"
      stroke-width="2.08"
    />
    <line
      x1="1443.5"
      y1="378.83"
      x2="1240.84"
      y2="378.83"
      fill="none"
      stroke="#ea8b8b"
      stroke-miterlimit="10"
      stroke-width="2.08"
    />
    <line
      x1="1443.5"
      y1="393.89"
      x2="1240.84"
      y2="393.89"
      fill="none"
      stroke="#ea8b8b"
      stroke-miterlimit="10"
      stroke-width="2.08"
    />
    <rect
      x="117.11"
      y="264.5"
      width="124.4"
      height="230.41"
      fill="#fed0d0"
      stroke="#ea8b8b"
      stroke-miterlimit="10"
      stroke-width="2.89"
    />
    <rect
      x="117.47"
      y="277.14"
      width="123.69"
      height="141.95"
      fill="#fef3f2"
      stroke="#ea8b8b"
      stroke-miterlimit="10"
      stroke-width="3.1"
    />
    <line
      x1="241.84"
      y1="293.19"
      x2="116.74"
      y2="293.19"
      fill="none"
      stroke="#ea8b8b"
      stroke-miterlimit="10"
      stroke-width="2.06"
    />
    <line
      x1="241.84"
      y1="311.5"
      x2="116.74"
      y2="311.5"
      fill="none"
      stroke="#ea8b8b"
      stroke-miterlimit="10"
      stroke-width="2.06"
    />
    <line
      x1="241.84"
      y1="329.81"
      x2="116.74"
      y2="329.81"
      fill="none"
      stroke="#ea8b8b"
      stroke-miterlimit="10"
      stroke-width="2.06"
    />
    <line
      x1="241.84"
      y1="348.12"
      x2="116.74"
      y2="348.12"
      fill="none"
      stroke="#ea8b8b"
      stroke-miterlimit="10"
      stroke-width="2.06"
    />
    <line
      x1="241.84"
      y1="366.43"
      x2="116.74"
      y2="366.43"
      fill="none"
      stroke="#ea8b8b"
      stroke-miterlimit="10"
      stroke-width="2.06"
    />
    <line
      x1="241.84"
      y1="384.74"
      x2="116.74"
      y2="384.74"
      fill="none"
      stroke="#ea8b8b"
      stroke-miterlimit="10"
      stroke-width="2.06"
    />
    <line
      x1="241.87"
      y1="403.04"
      x2="116.77"
      y2="403.04"
      fill="none"
      stroke="#ea8b8b"
      stroke-miterlimit="10"
      stroke-width="2.06"
    />
  </g>
  <g id="Layer_toilet1">
    <rect
      x="915.16"
      y="306.5"
      width="134.4"
      height="204.71"
      fill="none"
      stroke="#ea8b8b"
      stroke-miterlimit="10"
      stroke-width="2.91"
    />
  </g>
  <g id="Layer_toilet2">
    <rect
      x="1442.4"
      y="306.5"
      width="292.77"
      height="160.26"
      fill="none"
      stroke="#ea8b8b"
      stroke-miterlimit="10"
      stroke-width="2.75"
    />
  </g>
  <g id="Layer_601">
    <rect
      x="1435.19"
      y="656.67"
      width="299.99"
      height="176.83"
      fill="#fed0d0"
      stroke="#ea8b8b"
      stroke-miterlimit="10"
      stroke-width="2.65"
    />
    <text
      transform="translate(1557.09 749)"
      fill="#424142"
      font-family="NanumSquareNeovariable-Heavy, 'NanumSquare Neo variable'"
      font-size="32"
      font-variation-settings="'wght' 900"
      font-weight="800"
    >
      <tspan x="0" y="0">601</tspan>
    </text>
  </g>
  <g id="Layer_602">
    <polygon
      points="2340.39 798.33 2340.39 697.35 2189.86 697.35 2189.86 833.02 2305.7 833.02 2340.39 798.33"
      fill="#fed0d0"
      stroke="#ea8b8b"
      stroke-miterlimit="10"
      stroke-width="3"
    />
    <polygon
      points="2151.5 264.5 2151.5 306.5 1733.71 306.5 1733.71 511.21 1774.66 511.21 1774.66 599.8 1733.71 599.8 1733.71 833.02 2266.15 833.02 2266.15 416.5 2266.5 416.5 2266.5 264.5 2151.5 264.5"
      fill="#fed0d0"
      stroke="#ea8b8b"
      stroke-miterlimit="10"
      stroke-width="2.85"
    />
    <text
      transform="translate(1977.42 550)"
      fill="#424142"
      font-family="NanumSquareNeovariable-Heavy, 'NanumSquare Neo variable'"
      font-size="32"
      font-variation-settings="'wght' 900"
      font-weight="800"
    >
      <tspan x="0" y="0">602</tspan>
    </text>
  </g>
  <g id="Layer_602A">
    <rect
      x="1695.68"
      y="511.21"
      width="78.98"
      height="88.59"
      fill="#fed0d0"
      stroke="#ea8b8b"
      stroke-miterlimit="10"
      stroke-width="3"
    />
    <text
      transform="translate(1687.75 564.98)"
      fill="#424142"
      font-family="NanumSquareNeovariable-Heavy, 'NanumSquare Neo variable'"
      font-size="32"
      font-variation-settings="'wght' 900"
      font-weight="800"
    >
      <tspan x="0" y="0">602A</tspan>
    </text>
  </g>
  <g id="Layer_605">
    <rect
      x="578.33"
      y="306.5"
      width="336.83"
      height="320.9"
      fill="#fed0d0"
      stroke="#ea8b8b"
      stroke-miterlimit="10"
      stroke-width="2.69"
    />
    <text
      transform="translate(712.09 431.26)"
      fill="#424142"
      font-family="NanumSquareNeovariable-Heavy, 'NanumSquare Neo variable'"
      font-size="32"
      font-variation-settings="'wght' 900"
      font-weight="800"
    >
      <tspan x="0" y="0">605</tspan>
    </text>
  </g>
  <g id="Layer_606">
    <path
      d="m351,307v79.99c-7.75,10.46-15.5,20.92-23.25,31.38-28.75,0-57.5,0-86.25,0v209.03h336.83v-320.4h-227.33Z"
      fill="#fed0d0"
      stroke="#ea8b8b"
      stroke-miterlimit="10"
      stroke-width="2.68"
    />
    <text
      transform="translate(374.91 431.26)"
      fill="#424142"
      font-family="NanumSquareNeovariable-Heavy, 'NanumSquare Neo variable'"
      font-size="32"
      font-variation-settings="'wght' 900"
      font-weight="800"
    >
      <tspan x="0" y="0">606</tspan>
    </text>
  </g>
  <g id="Layer_606A">
    <path
      d="m327.75,418.37c-28.86,0-57.73,0-86.59,0v-154.37h109.84v122.99c-7.75,10.46-15.5,20.92-23.25,31.38Z"
      fill="#fed0d0"
      stroke="#ea8b8b"
      stroke-miterlimit="10"
      stroke-width="3.01"
    />
    <text
      transform="translate(249.97 327.32)"
      fill="#424142"
      font-family="NanumSquareNeovariable-Heavy, 'NanumSquare Neo variable'"
      font-size="32"
      font-variation-settings="'wght' 900"
      font-weight="800"
    >
      <tspan x="0" y="0">606A</tspan>
    </text>
  </g>
</svg>
