<?xml version="1.0" encoding="UTF-8"?>
<svg id="_x32_" xmlns="http://www.w3.org/2000/svg" viewBox="0 0 1650.12 966.94">
  <defs>
    <style>
      .cls-1 {
        fill: #fcf2f2;
        stroke-width: 10px;
      }

      .cls-1, .cls-2, .cls-3, .cls-4 {
        stroke: #e68b8b;
        stroke-miterlimit: 10;
      }

      .cls-2 {
        stroke-width: 2px;
      }

      .cls-2, .cls-3 {
        fill: none;
      }

      .cls-5 {
        font-size: 9px;
      }

      .cls-5, .cls-6, .cls-7 {
        fill: #221f20;
        font-family: NanumSquareNeoTTF-dEb, 'NanumSquare Neo';
      }

      .cls-3, .cls-4 {
        stroke-width: 3px;
      }

      .cls-6 {
        font-size: 12px;
      }

      .cls-7 {
        font-size: 10px;
      }

      .cls-8 {
        letter-spacing: -.03em;
      }

      .cls-4 {
        fill: #f3cdcf;
      }
    </style>
  </defs>
  <g id="Layer_x5F_border-2" data-name="Layer_x5F_border">
    <path class="cls-1" d="M1581,205.11c-106.62-.32-213.24-.63-319.87-.95.11-37.78.22-75.55.33-113.33-46.73,29.31-93.45,58.62-140.18,87.93-350.39-1.04-700.78-2.07-1051.17-3.11.78,169.25,1.55,338.5,2.33,507.75,73.34.86,146.69,1.71,220.03,2.57l-1.99-.02-.43,145.69,101.73.3c-.08,7.34-.17,14.67-.25,22.01,144.99-5.05,399.57-33.36,674.97-175.58,204.14-105.42,346.1-235.41,434.11-330.23-3.87-7.23-7.73-14.46-11.6-21.69,30.66-40.45,61.32-80.89,91.98-121.34Z"/>
  </g>
  <g id="Layer_x5F_others-2" data-name="Layer_x5F_others">
    <rect class="cls-3" x="72.42" y="656.64" width="61.88" height="27.38" transform="translate(7.79 -1.15) rotate(.67)"/>
    <rect class="cls-3" x="135.48" y="656.41" width="66.69" height="27.38" transform="translate(1.98 -.5) rotate(.17)"/>
    <rect class="cls-3" x="202.17" y="656.57" width="41.87" height="27.38" transform="translate(1.98 -.66) rotate(.17)"/>
    <rect class="cls-3" x="244.04" y="656.7" width="46.71" height="27.38" transform="translate(1.98 -.79) rotate(.17)"/>
    <rect class="cls-3" x="402.7" y="616.14" width="115.92" height="75.05" transform="translate(1.93 -1.36) rotate(.17)"/>
    <polygon class="cls-4" points="323.63 690.79 402.59 691.02 402.73 644.02 316.57 641.48 316.5 666.12 324.12 666.15 323.63 690.79"/>
    <polygon class="cls-3" points="154.68 656.37 290.79 656.77 290.48 690.69 323.63 690.79 324.12 666.15 316.5 666.12 316.73 590.37 154.88 589.89 154.68 656.37"/>
    <rect class="cls-3" x="748.71" y="478.84" width="46.86" height="39.35" transform="translate(-143.7 421.37) rotate(-28.03)"/>
    <rect class="cls-4" x="742.75" y="489.27" width="20.58" height="90.27" transform="translate(-162.81 416.61) rotate(-28.03)"/>
    <rect class="cls-4" x="711.72" y="527.77" width="32.33" height="31.36" transform="translate(-170.01 405.85) rotate(-28.03)"/>
    <rect class="cls-4" x="663.34" y="514.23" width="69.5" height="25.62" transform="translate(-165.8 389.92) rotate(-28.03)"/>
    <rect class="cls-4" x="565.48" y="555.67" width="110.12" height="27.7" transform="translate(-194.86 358.46) rotate(-28.03)"/>
    <rect class="cls-4" x="589.38" y="596.72" width="32.74" height="54.68" transform="translate(-222.23 357.9) rotate(-28.03)"/>
    <rect class="cls-4" x="624.86" y="607.69" width="75.99" height="15.89" transform="translate(-211.57 383.75) rotate(-28.03)"/>
    <g>
      <rect class="cls-2" x="682.5" y="575.47" width="7.09" height="18.24" transform="translate(-194.26 391.01) rotate(-28.03)"/>
      <rect class="cls-2" x="675.97" y="578.87" width="7.37" height="18.24" transform="translate(-196.6 388.41) rotate(-28.03)"/>
      <rect class="cls-2" x="668.39" y="582.6" width="8.51" height="18.24" transform="translate(-199.18 385.55) rotate(-28.03)"/>
      <rect class="cls-2" x="662.49" y="586.2" width="6.81" height="18.24" transform="translate(-201.67 382.8) rotate(-28.03)"/>
      <rect class="cls-2" x="654.87" y="589.8" width="8.51" height="18.24" transform="translate(-204.15 380.04) rotate(-28.03)"/>
      <rect class="cls-2" x="649.63" y="593.23" width="6.1" height="18.24" transform="translate(-206.52 377.42) rotate(-28.03)"/>
      <rect class="cls-2" x="641.31" y="596.83" width="9.22" height="18.24" transform="translate(-209 374.66) rotate(-28.03)"/>
      <rect class="cls-2" x="633.84" y="601" width="8.51" height="18.24" transform="translate(-211.88 371.47) rotate(-28.03)"/>
      <rect class="cls-2" x="627.4" y="604.73" width="7.37" height="18.24" transform="translate(-214.46 368.62) rotate(-28.03)"/>
      <rect class="cls-2" x="620.89" y="608.2" width="7.37" height="18.24" transform="translate(-216.85 365.96) rotate(-28.03)"/>
    </g>
    <g>
      <rect class="cls-2" x="673.17" y="557.65" width="7.09" height="18.24" transform="translate(-186.98 384.54) rotate(-28.03)"/>
      <rect class="cls-2" x="666.65" y="561.05" width="7.37" height="18.24" transform="translate(-189.32 381.94) rotate(-28.03)"/>
      <rect class="cls-2" x="659.07" y="564.78" width="8.51" height="18.24" transform="translate(-191.9 379.08) rotate(-28.03)"/>
      <rect class="cls-2" x="653.16" y="568.38" width="6.81" height="18.24" transform="translate(-194.38 376.32) rotate(-28.03)"/>
      <rect class="cls-2" x="645.55" y="571.98" width="8.51" height="18.24" transform="translate(-196.87 373.57) rotate(-28.03)"/>
      <rect class="cls-2" x="640.31" y="575.41" width="6.1" height="18.24" transform="translate(-199.24 370.94) rotate(-28.03)"/>
      <rect class="cls-2" x="631.99" y="579.01" width="9.22" height="18.24" transform="translate(-201.72 368.19) rotate(-28.03)"/>
      <rect class="cls-2" x="624.52" y="583.18" width="8.51" height="18.24" transform="translate(-204.6 365) rotate(-28.03)"/>
      <rect class="cls-2" x="618.07" y="586.91" width="7.37" height="18.24" transform="translate(-207.18 362.14) rotate(-28.03)"/>
      <rect class="cls-2" x="611.56" y="590.37" width="7.37" height="18.24" transform="translate(-209.57 359.49) rotate(-28.03)"/>
    </g>
    <g>
      <rect class="cls-3" x="793.8" y="727.25" width="23.05" height="10.72" transform="translate(-239.17 425.54) rotate(-25.91)"/>
      <rect class="cls-3" x="789.03" y="717.2" width="23.05" height="11.14" transform="translate(-235.35 422.46) rotate(-25.91)"/>
      <rect class="cls-3" x="783.78" y="705.55" width="23.05" height="12.86" transform="translate(-231.16 419.09) rotate(-25.91)"/>
      <rect class="cls-3" x="778.73" y="696.42" width="23.05" height="10.29" transform="translate(-227.12 415.83) rotate(-25.91)"/>
      <rect class="cls-3" x="773.67" y="684.73" width="23.05" height="12.86" transform="translate(-223.08 412.58) rotate(-25.91)"/>
      <rect class="cls-3" x="768.85" y="676.62" width="23.05" height="9.22" transform="translate(-219.23 409.47) rotate(-25.91)"/>
      <rect class="cls-3" x="763.79" y="663.85" width="23.05" height="13.93" transform="translate(-215.19 406.21) rotate(-25.91)"/>
      <rect class="cls-3" x="757.94" y="652.34" width="23.05" height="12.86" transform="translate(-210.51 402.44) rotate(-25.91)"/>
      <rect class="cls-3" x="752.69" y="642.4" width="23.05" height="11.14" transform="translate(-206.32 399.07) rotate(-25.91)"/>
      <rect class="cls-3" x="747.82" y="632.38" width="23.05" height="11.14" transform="translate(-202.43 395.93) rotate(-25.91)"/>
    </g>
    <line class="cls-3" x1="550.05" y1="684.69" x2="569.17" y2="722.8"/>
    <line class="cls-3" x1="846.04" y1="590.31" x2="569.17" y2="722.8"/>
    <line class="cls-3" x1="802.07" y1="504.87" x2="844.29" y2="591.15"/>
    <rect class="cls-4" x="727.07" y="556.12" width="32.33" height="32.33" transform="translate(-181.76 416.45) rotate(-28.03)"/>
    <g>
      <rect class="cls-3" x="492.53" y="647.28" width="40.29" height="9.24" transform="translate(-145.13 1156.97) rotate(-89.33)"/>
      <rect class="cls-3" x="483.1" y="646.98" width="40.29" height="9.61" transform="translate(-154.34 1147.43) rotate(-89.33)"/>
      <rect class="cls-3" x="472.75" y="646.12" width="40.29" height="11.09" transform="translate(-164.45 1136.96) rotate(-89.33)"/>
      <rect class="cls-3" x="462.76" y="647.11" width="40.29" height="8.87" transform="translate(-174.21 1126.86) rotate(-89.33)"/>
      <rect class="cls-3" x="452.78" y="645.89" width="40.29" height="11.09" transform="translate(-183.96 1116.77) rotate(-89.33)"/>
      <rect class="cls-3" x="443.26" y="647.35" width="40.29" height="7.95" transform="translate(-193.26 1107.14) rotate(-89.33)"/>
      <rect class="cls-3" x="433.27" y="645.2" width="40.29" height="12.02" transform="translate(-203.01 1097.04) rotate(-89.33)"/>
      <rect class="cls-3" x="421.72" y="645.53" width="40.29" height="11.09" transform="translate(-214.3 1085.35) rotate(-89.33)"/>
      <rect class="cls-3" x="411.37" y="646.15" width="40.29" height="9.61" transform="translate(-224.41 1074.88) rotate(-89.33)"/>
      <rect class="cls-3" x="401.75" y="646.04" width="40.29" height="9.61" transform="translate(-233.8 1065.16) rotate(-89.33)"/>
    </g>
    <g>
      <rect class="cls-3" x="1298.21" y="250.99" width="9.17" height="23.05" transform="translate(50.07 706.21) rotate(-30.9)"/>
      <rect class="cls-3" x="1306.06" y="246.18" width="9.54" height="23.05" transform="translate(53.67 709.65) rotate(-30.9)"/>
      <rect class="cls-3" x="1314.14" y="240.91" width="11.01" height="23.05" transform="translate(57.63 713.43) rotate(-30.9)"/>
      <rect class="cls-3" x="1323.74" y="235.82" width="8.81" height="23.05" transform="translate(61.45 717.07) rotate(-30.9)"/>
      <rect class="cls-3" x="1331.14" y="230.73" width="11.01" height="23.05" transform="translate(65.27 720.72) rotate(-30.9)"/>
      <rect class="cls-3" x="1340.81" y="225.88" width="7.89" height="23.05" transform="translate(68.91 724.19) rotate(-30.9)"/>
      <rect class="cls-3" x="1347.3" y="220.79" width="11.93" height="23.05" transform="translate(72.73 727.83) rotate(-30.9)"/>
      <rect class="cls-3" x="1357.59" y="214.91" width="11.01" height="23.05" transform="translate(77.15 732.05) rotate(-30.9)"/>
      <rect class="cls-3" x="1367.14" y="209.63" width="9.54" height="23.05" transform="translate(81.11 735.83) rotate(-30.9)"/>
      <rect class="cls-3" x="1375.33" y="204.73" width="9.54" height="23.05" transform="translate(84.79 739.34) rotate(-30.9)"/>
    </g>
    <g>
      <rect class="cls-2" x="1290.67" y="245.07" width="15.42" height="4.24" transform="translate(55.79 697.59) rotate(-30.7)"/>
      <rect class="cls-2" x="1288.46" y="241.27" width="15.42" height="4.41" transform="translate(57.38 695.95) rotate(-30.7)"/>
      <rect class="cls-2" x="1286.04" y="236.85" width="15.42" height="5.09" transform="translate(59.12 694.14) rotate(-30.7)"/>
      <rect class="cls-2" x="1283.7" y="233.42" width="15.42" height="4.07" transform="translate(60.8 692.39) rotate(-30.7)"/>
      <rect class="cls-2" x="1281.36" y="228.98" width="15.42" height="5.09" transform="translate(62.49 690.65) rotate(-30.7)"/>
      <rect class="cls-2" x="1279.13" y="225.95" width="15.42" height="3.64" transform="translate(64.09 688.98) rotate(-30.7)"/>
      <rect class="cls-2" x="1276.8" y="221.08" width="15.42" height="5.51" transform="translate(65.77 687.24) rotate(-30.7)"/>
      <rect class="cls-2" x="1274.09" y="216.73" width="15.42" height="5.09" transform="translate(67.72 685.22) rotate(-30.7)"/>
      <rect class="cls-2" x="1271.67" y="212.99" width="15.42" height="4.41" transform="translate(69.46 683.41) rotate(-30.7)"/>
      <rect class="cls-2" x="1269.42" y="209.2" width="15.42" height="4.41" transform="translate(71.08 681.73) rotate(-30.7)"/>
    </g>
    <g>
      <rect class="cls-3" x="1346.96" y="204.61" width="5.42" height="14.79" transform="translate(-2.13 14.02) rotate(-.59)"/>
      <rect class="cls-3" x="1341.33" y="204.67" width="5.63" height="14.79" transform="translate(-2.13 13.96) rotate(-.59)"/>
      <rect class="cls-3" x="1334.83" y="204.73" width="6.5" height="14.79" transform="translate(-2.13 13.9) rotate(-.59)"/>
      <rect class="cls-3" x="1329.63" y="204.79" width="5.2" height="14.79" transform="translate(-2.13 13.84) rotate(-.59)"/>
      <rect class="cls-3" x="1323.13" y="204.85" width="6.5" height="14.79" transform="translate(-2.13 13.78) rotate(-.59)"/>
      <rect class="cls-3" x="1318.47" y="204.91" width="4.66" height="14.79" transform="translate(-2.13 13.72) rotate(-.59)"/>
      <rect class="cls-3" x="1311.43" y="204.97" width="7.04" height="14.79" transform="translate(-2.13 13.66) rotate(-.59)"/>
      <rect class="cls-3" x="1304.93" y="205.04" width="6.5" height="14.79" transform="translate(-2.13 13.59) rotate(-.59)"/>
      <rect class="cls-3" x="1299.3" y="205.1" width="5.63" height="14.79" transform="translate(-2.14 13.53) rotate(-.59)"/>
      <rect class="cls-3" x="1293.66" y="205.16" width="5.63" height="14.79" transform="translate(-2.14 13.47) rotate(-.59)"/>
    </g>
    <rect class="cls-4" x="1109.7" y="283.35" width="60.9" height="93.18" transform="translate(-21.3 574.56) rotate(-28.03)"/>
    <polygon class="cls-4" points="1168.8 261.91 1211.8 332.01 1188.93 356.76 1145.13 274.51 1168.8 261.91"/>
    <polygon class="cls-4" points="1027.46 327.74 1027.43 337.18 995.32 354.08 928.33 353.88 928.41 327.45 1027.46 327.74"/>
    <rect class="cls-4" x="890.86" y="316.3" width="26.44" height="48.59" transform="translate(560.81 1243.66) rotate(-89.83)"/>
    <rect class="cls-4" x="956.55" y="178.31" width="17.41" height="53.52" transform="translate(.61 -2.85) rotate(.17)"/>
    <g>
      <rect class="cls-2" x="362.67" y="170.85" width="6.86" height="18.24" transform="translate(185.05 545.54) rotate(-89.83)"/>
      <rect class="cls-2" x="362.51" y="177.85" width="7.14" height="18.24" transform="translate(178.03 552.5) rotate(-89.83)"/>
      <rect class="cls-2" x="361.94" y="185.54" width="8.24" height="18.24" transform="translate(170.32 560.14) rotate(-89.83)"/>
      <rect class="cls-2" x="362.74" y="192.95" width="6.59" height="18.24" transform="translate(162.88 567.51) rotate(-89.83)"/>
      <rect class="cls-2" x="361.89" y="200.36" width="8.24" height="18.24" transform="translate(155.45 574.88) rotate(-89.83)"/>
      <rect class="cls-2" x="363.04" y="207.43" width="5.9" height="18.24" transform="translate(148.36 581.91) rotate(-89.83)"/>
      <rect class="cls-2" x="361.51" y="214.85" width="8.92" height="18.24" transform="translate(140.92 589.28) rotate(-89.83)"/>
      <rect class="cls-2" x="361.83" y="223.43" width="8.24" height="18.24" transform="translate(132.31 597.81) rotate(-89.83)"/>
      <rect class="cls-2" x="362.35" y="231.12" width="7.14" height="18.24" transform="translate(124.6 605.45) rotate(-89.83)"/>
      <rect class="cls-2" x="362.33" y="238.26" width="7.14" height="18.24" transform="translate(117.44 612.55) rotate(-89.83)"/>
    </g>
    <g>
      <rect class="cls-2" x="380.91" y="170.76" width="6.86" height="18.24" transform="translate(203.33 563.7) rotate(-89.83)"/>
      <rect class="cls-2" x="380.76" y="177.76" width="7.14" height="18.24" transform="translate(196.3 570.66) rotate(-89.83)"/>
      <rect class="cls-2" x="380.18" y="185.45" width="8.24" height="18.24" transform="translate(188.59 578.3) rotate(-89.83)"/>
      <rect class="cls-2" x="380.99" y="192.87" width="6.59" height="18.24" transform="translate(181.16 585.67) rotate(-89.83)"/>
      <rect class="cls-2" x="380.14" y="200.28" width="8.24" height="18.24" transform="translate(173.72 593.04) rotate(-89.83)"/>
      <rect class="cls-2" x="381.29" y="207.35" width="5.9" height="18.24" transform="translate(166.63 600.07) rotate(-89.83)"/>
      <rect class="cls-2" x="379.75" y="214.76" width="8.92" height="18.24" transform="translate(159.19 607.44) rotate(-89.83)"/>
      <rect class="cls-2" x="380.07" y="223.35" width="8.24" height="18.24" transform="translate(150.59 615.97) rotate(-89.83)"/>
      <rect class="cls-2" x="380.6" y="231.03" width="7.14" height="18.24" transform="translate(142.88 623.61) rotate(-89.83)"/>
      <rect class="cls-2" x="380.58" y="238.17" width="7.14" height="18.24" transform="translate(135.72 630.71) rotate(-89.83)"/>
    </g>
    <text class="cls-6" transform="translate(471.03 383.49)"><tspan x="0" y="0">216A</tspan><tspan x="-.98" y="14.4">주차장</tspan></text>
  </g>
  <g id="Layer_61">
    <rect class="cls-4" x="70.06" y="175.78" width="83.38" height="39.92" transform="translate(.58 -.33) rotate(.17)"/>
    <text class="cls-6" transform="translate(99.69 192.75)"><tspan x="0" y="0">227</tspan><tspan x=".69" y="14.4">창고</tspan></text>
  </g>
  <g id="Layer_79">
    <polygon class="cls-4" points="1397.51 449.62 1500.62 348.14 1433.51 222.2 1310.94 306.39 1397.51 449.62"/>
    <text class="cls-6" transform="translate(1399.16 326.45)"><tspan x="0" y="0">207</tspan><tspan x="-4.73" y="14.4">강의실</tspan></text>
  </g>
  <g id="Layer_80">
    <polygon class="cls-4" points="1466.23 204.78 1581 205.11 1489.02 326.45 1433.51 222.2 1466.23 204.78"/>
    <text class="cls-6" transform="translate(1489.36 241.14)"><tspan x="0" y="0">215</tspan><tspan x="-5.81" y="14.4">공조실</tspan></text>
  </g>
  <g id="Layer_81">
    <polygon class="cls-3" points="1261.14 204.17 1208.64 235.89 1252.59 305.44 1304.49 274.91 1261.14 204.17"/>
  </g>
  <g id="Layer_82">
    <polygon class="cls-3" points="1211.8 332.01 1252.59 305.44 1208.64 235.89 1168.8 261.91 1211.8 332.01"/>
  </g>
  <g id="Layer_83">
    <rect class="cls-4" x="1000.2" y="325.89" width="120.09" height="93.18" transform="translate(-50.67 542) rotate(-28.03)"/>
    <text class="cls-6" transform="translate(1046.07 370.5)"><tspan x="0" y="0">214</tspan><tspan x="-5.66" y="14.4">강의실</tspan></text>
  </g>
  <g id="Layer_84">
    <rect class="cls-4" x="894.24" y="382.33" width="120.06" height="93.18" transform="translate(-89.63 498.81) rotate(-28.03)"/>
    <text class="cls-6" transform="translate(942.89 428.92)"><tspan x="0" y="0">213</tspan><tspan x="-5.69" y="14.4">강의실</tspan></text>
  </g>
  <g id="Layer_85">
    <rect class="cls-4" x="798.76" y="438.51" width="109.22" height="91.38" transform="translate(-127.63 466.36) rotate(-28.53)"/>
    <text class="cls-6" transform="translate(842.12 481.19)"><tspan x="0" y="0">212</tspan><tspan x="-5.81" y="14.4">강의실</tspan></text>
  </g>
  <g id="Layer_86">
    <polygon class="cls-4" points="782.29 467.73 879.55 417.96 879.62 396.26 782.51 395.97 782.29 467.73"/>
    <text class="cls-6" transform="translate(815.94 416.88)"><tspan x="0" y="0">217</tspan><tspan x="-.48" y="14.4">창고</tspan></text>
  </g>
  <g id="Layer_87">
    <polygon class="cls-4" points="879.55 417.96 995.32 354.08 879.74 353.74 879.55 417.96"/>
    <text class="cls-7" transform="translate(903.17 369.49)"><tspan x="0" y="0">218</tspan><tspan x="-14.11" y="12">주차관리실</tspan></text>
  </g>
  <g id="Layer_88">
    <polygon class="cls-4" points="956.41 251.62 998.87 251.75 1067.84 210.38 1067.93 178.61 974.04 178.33 973.88 231.85 956.47 231.8 956.41 251.62"/>
    <text class="cls-6" transform="translate(999.5 205.07)"><tspan x="0" y="0">228</tspan><tspan x="1.3" y="14.4">창고</tspan></text>
  </g>
  <g id="Layer_89">
    <rect class="cls-4" x="891.02" y="531.11" width="47.48" height="81.94" transform="translate(-161.54 497.03) rotate(-28.03)"/>
    <text class="cls-6" transform="translate(906.35 562.41)"><tspan x="0" y="0">211</tspan><tspan x="-1.3" y="14.4">강사</tspan><tspan x="-6.98" y="28.8">휴게실</tspan></text>
  </g>
  <g id="Layer_90">
    <rect class="cls-4" x="930.59" y="499.42" width="87.39" height="81.94" transform="translate(-139.67 521.29) rotate(-28.03)"/>
    <text class="cls-6" transform="translate(962.76 540.39)"><tspan x="0" y="0">210</tspan><tspan x="-5.54" y="14.4">강의실</tspan></text>
  </g>
  <g id="Layer_91">
    <rect class="cls-4" x="1005.83" y="450.74" width="119.76" height="81.94" transform="translate(-106.06 558.55) rotate(-28.03)"/>
    <text class="cls-6" transform="translate(1052.89 491.71)"><tspan x="0" y="0">209</tspan><tspan x="-4.25" y="14.4">강의실</tspan></text>
  </g>
  <g id="Layer_92">
    <rect class="cls-4" x="1113.08" y="400.64" width="93.44" height="81.94" transform="translate(-71.48 596.89) rotate(-28.03)"/>
    <text class="cls-6" transform="translate(1146.86 441.61)"><tspan x="0" y="0">208</tspan><tspan x="-4.12" y="14.4">강의실</tspan></text>
  </g>
  <g id="Layer_62">
    <rect class="cls-4" x="71.34" y="478.91" width="224.3" height="111.06" transform="translate(1.58 -.54) rotate(.17)"/>
    <text class="cls-6" transform="translate(166.75 527.04)"><tspan x="0" y="0">223</tspan><tspan x="-10.21" y="14.4">대회의실</tspan></text>
  </g>
  <g id="Layer_63">
    <rect class="cls-4" x="71.08" y="589.77" width="83.7" height="66.48" transform="translate(1.84 -.33) rotate(.17)"/>
    <text class="cls-6" transform="translate(100.77 619.78)"><tspan x="0" y="0">222</tspan><tspan x="1.04" y="14.4">창고</tspan></text>
  </g>
  <g id="Layer_64">
    <rect class="cls-4" x="290.35" y="690.77" width="51.91" height="86.42" transform="translate(2.17 -.93) rotate(.17)"/>
    <text class="cls-6" transform="translate(305.05 727.59)"><tspan x="0" y="0">221</tspan><tspan x="-.13" y="14.4">창고</tspan></text>
  </g>
  <g id="Layer_65">
    <rect class="cls-4" x="290.14" y="777.15" width="25.95" height="54.54" transform="translate(2.38 -.89) rotate(.17)"/>
    <text class="cls-5" transform="translate(291.15 799.94)"><tspan x="0" y="0">221A</tspan><tspan x="-.83" y="10.8">서버실</tspan></text>
  </g>
  <g id="Layer_66">
    <rect class="cls-4" x="316.09" y="777.3" width="75.77" height="54.54" transform="translate(2.38 -1.04) rotate(.17)"/>
    <text class="cls-6" transform="translate(337.21 798.98)"><tspan x="0" y="0">220A</tspan><tspan x="-5.35" y="14.4">부처장실</tspan></text>
  </g>
  <g id="Layer_67">
    <rect class="cls-4" x="416.7" y="691.15" width="58.98" height="43.21" transform="translate(2.11 -1.32) rotate(.17)"/>
    <text class="cls-7" transform="translate(431.53 710.23)"><tspan x="0" y="0">220B</tspan><tspan x="-10.15" y="12">탕비/</tspan><tspan class="cls-8" x="13.81" y="12">O</tspan><tspan x="21.49" y="12">A실</tspan></text>
  </g>
  <g id="Layer_68">
    <rect class="cls-4" x="475.67" y="691.3" width="42.77" height="43.21" transform="translate(2.11 -1.47) rotate(.17)"/>
    <text class="cls-6" transform="translate(479.56 710.23)"><tspan x="0" y="0">220C</tspan><tspan x=".26" y="14.4">콜센터</tspan></text>
  </g>
  <g id="Layer_69">
    <polygon class="cls-3" points="566.78 625.73 518.63 651.37 536.88 691.7 587.54 664.73 566.78 625.73"/>
  </g>
  <g id="Layer_70">
    <polygon class="cls-3" points="518.63 651.37 581.48 617.9 565.43 583.17 519.58 600.93 518.63 651.37"/>
  </g>
  <g id="Layer_71">
    <polygon class="cls-4" points="854.98 630.25 796.6 661.33 850.93 770.04 916.43 745.66 854.98 630.25"/>
    <text class="cls-6" transform="translate(837.14 695.05)"><tspan x="0" y="0">201A</tspan><tspan x="-8.01" y="14.4">휴게실 홀</tspan></text>
  </g>
  <g id="Layer_72">
    <polygon class="cls-4" points="916.43 745.66 1038.7 693.32 992.24 606.05 875.26 668.34 916.43 745.66"/>
    <text class="cls-6" transform="translate(942.74 666.25)"><tspan x="0" y="0">201</tspan><tspan x="-16.92" y="14.4">미래교육원</tspan><tspan x="-16.92" y="28.8">교육사업팀</tspan></text>
  </g>
  <g id="Layer_73">
    <rect class="cls-4" x="1012.24" y="587.32" width="55.04" height="98.87" transform="translate(-177.27 563.37) rotate(-28.03)"/>
    <text class="cls-6" transform="translate(1025.13 639.75)"><tspan x="0" y="0">202</tspan></text>
  </g>
  <g id="Layer_74">
    <polygon class="cls-4" points="1087.28 667.45 1193.81 604.9 1149.76 522.18 1040.82 580.18 1087.28 667.45"/>
    <text class="cls-6" transform="translate(1104.5 585.67)"><tspan x="0" y="0">203</tspan><tspan x="-4.25" y="14.4">강의실</tspan></text>
  </g>
  <g id="Layer_75">
    <polygon class="cls-4" points="1193.81 604.9 1244.52 570.97 1203.35 493.64 1149.76 522.18 1193.81 604.9"/>
    <text class="cls-6" transform="translate(1186.3 549.01)"><tspan x="0" y="0">204</tspan></text>
  </g>
  <g id="Layer_76">
    <polygon class="cls-4" points="1244.52 570.97 1203.35 493.64 1255.23 460.43 1297.96 532.02 1244.52 570.97"/>
    <text class="cls-6" transform="translate(1239.89 518.18)"><tspan x="0" y="0">205</tspan></text>
  </g>
  <g id="Layer_77">
    <polygon class="cls-4" points="1297.96 532.02 1397.51 449.62 1310.94 306.39 1200.55 368.8 1297.96 532.02"/>
    <text class="cls-6" transform="translate(1285.56 407.15)"><tspan x="0" y="0">206</tspan><tspan x="-4.25" y="14.4">강의실</tspan></text>
  </g>
</svg>