<?xml version="1.0" encoding="UTF-8"?><svg
  xmlns="http://www.w3.org/2000/svg"
  viewBox="0 0 1100 1100"
>
  <g id="Layer_border">
    <path
      d="m791.08,651.49l1.02-1.02-102.79-102.79c-.6-52.4-1.21-104.79-1.81-157.19-29.33-29-58.67-58-88-87h11c3.83-3.79,7.66-7.59,11.49-11.38-31.61-32.71-63.23-65.41-94.84-98.12h-12.65v.5h-166v705h444v-248c-.47,0-.95,0-1.42,0Z"
      fill="#fdf3f2"
      stroke="#e18686"
      stroke-linecap="round"
      stroke-linejoin="round"
      stroke-width="5"
    />
  </g>
  <g id="Layer_others">
    <rect
      x="407.63"
      y="414.04"
      width="64.57"
      height="26.33"
      transform="translate(12.72 867.12) rotate(-90)"
      fill="none"
      stroke="#e18686"
      stroke-miterlimit="10"
      stroke-width="2"
    />
    <line
      x1="427.23"
      y1="431.1"
      x2="453.55"
      y2="431.1"
      fill="none"
      stroke="#e18686"
      stroke-miterlimit="10"
      stroke-width="2"
    />
    <line
      x1="427.23"
      y1="426.51"
      x2="453.55"
      y2="426.51"
      fill="none"
      stroke="#e18686"
      stroke-miterlimit="10"
      stroke-width="2"
    />
    <line
      x1="427.23"
      y1="421.91"
      x2="453.55"
      y2="421.91"
      fill="none"
      stroke="#e18686"
      stroke-miterlimit="10"
      stroke-width="2"
    />
    <line
      x1="427.23"
      y1="417.32"
      x2="453.55"
      y2="417.32"
      fill="none"
      stroke="#e18686"
      stroke-miterlimit="10"
      stroke-width="2"
    />
    <line
      x1="427.23"
      y1="412.72"
      x2="453.55"
      y2="412.72"
      fill="none"
      stroke="#e18686"
      stroke-miterlimit="10"
      stroke-width="2"
    />
    <line
      x1="427.23"
      y1="408.13"
      x2="453.55"
      y2="408.13"
      fill="none"
      stroke="#e18686"
      stroke-miterlimit="10"
      stroke-width="2"
    />
    <line
      x1="427.23"
      y1="403.53"
      x2="453.55"
      y2="403.53"
      fill="none"
      stroke="#e18686"
      stroke-miterlimit="10"
      stroke-width="2"
    />
    <line
      x1="427.23"
      y1="398.94"
      x2="453.55"
      y2="398.94"
      fill="none"
      stroke="#e18686"
      stroke-miterlimit="10"
      stroke-width="2"
    />
    <line
      x1="427.23"
      y1="444.96"
      x2="453.55"
      y2="444.96"
      fill="none"
      stroke="#e18686"
      stroke-miterlimit="10"
      stroke-width="2"
    />
    <line
      x1="427.23"
      y1="440.36"
      x2="453.55"
      y2="440.36"
      fill="none"
      stroke="#e18686"
      stroke-miterlimit="10"
      stroke-width="2"
    />
    <line
      x1="427.23"
      y1="435.77"
      x2="453.55"
      y2="435.77"
      fill="none"
      stroke="#e18686"
      stroke-miterlimit="10"
      stroke-width="2"
    />
    <line
      x1="427.23"
      y1="454.19"
      x2="453.55"
      y2="454.19"
      fill="none"
      stroke="#e18686"
      stroke-miterlimit="10"
      stroke-width="2"
    />
    <line
      x1="427.23"
      y1="449.6"
      x2="453.55"
      y2="449.6"
      fill="none"
      stroke="#e18686"
      stroke-miterlimit="10"
      stroke-width="2"
    />
    <rect
      x="427"
      y="370"
      width="136.25"
      height="209"
      fill="none"
      stroke="#e18686"
      stroke-miterlimit="10"
      stroke-width="2"
    />
    <rect
      x="438.81"
      y="414.04"
      width="64.57"
      height="26.33"
      transform="translate(43.89 898.3) rotate(-90)"
      fill="none"
      stroke="#e18686"
      stroke-miterlimit="10"
      stroke-width="2"
    />
    <line
      x1="458.4"
      y1="431.1"
      x2="484.73"
      y2="431.1"
      fill="none"
      stroke="#e18686"
      stroke-miterlimit="10"
      stroke-width="2"
    />
    <line
      x1="458.4"
      y1="426.51"
      x2="484.73"
      y2="426.51"
      fill="none"
      stroke="#e18686"
      stroke-miterlimit="10"
      stroke-width="2"
    />
    <line
      x1="458.4"
      y1="421.91"
      x2="484.73"
      y2="421.91"
      fill="none"
      stroke="#e18686"
      stroke-miterlimit="10"
      stroke-width="2"
    />
    <line
      x1="458.4"
      y1="417.32"
      x2="484.73"
      y2="417.32"
      fill="none"
      stroke="#e18686"
      stroke-miterlimit="10"
      stroke-width="2"
    />
    <line
      x1="458.4"
      y1="412.72"
      x2="484.73"
      y2="412.72"
      fill="none"
      stroke="#e18686"
      stroke-miterlimit="10"
      stroke-width="2"
    />
    <line
      x1="458.4"
      y1="408.13"
      x2="484.73"
      y2="408.13"
      fill="none"
      stroke="#e18686"
      stroke-miterlimit="10"
      stroke-width="2"
    />
    <line
      x1="458.4"
      y1="403.53"
      x2="484.73"
      y2="403.53"
      fill="none"
      stroke="#e18686"
      stroke-miterlimit="10"
      stroke-width="2"
    />
    <line
      x1="458.4"
      y1="398.94"
      x2="484.73"
      y2="398.94"
      fill="none"
      stroke="#e18686"
      stroke-miterlimit="10"
      stroke-width="2"
    />
    <line
      x1="458.4"
      y1="444.96"
      x2="484.73"
      y2="444.96"
      fill="none"
      stroke="#e18686"
      stroke-miterlimit="10"
      stroke-width="2"
    />
    <line
      x1="458.4"
      y1="440.36"
      x2="484.73"
      y2="440.36"
      fill="none"
      stroke="#e18686"
      stroke-miterlimit="10"
      stroke-width="2"
    />
    <line
      x1="458.4"
      y1="435.77"
      x2="484.73"
      y2="435.77"
      fill="none"
      stroke="#e18686"
      stroke-miterlimit="10"
      stroke-width="2"
    />
    <line
      x1="458.4"
      y1="454.19"
      x2="484.73"
      y2="454.19"
      fill="none"
      stroke="#e18686"
      stroke-miterlimit="10"
      stroke-width="2"
    />
    <line
      x1="458.4"
      y1="449.6"
      x2="484.73"
      y2="449.6"
      fill="none"
      stroke="#e18686"
      stroke-miterlimit="10"
      stroke-width="2"
    />
    <rect
      x="407.63"
      y="490.25"
      width="64.57"
      height="26.33"
      transform="translate(-63.49 943.33) rotate(-90)"
      fill="none"
      stroke="#e18686"
      stroke-miterlimit="10"
      stroke-width="2"
    />
    <line
      x1="427.23"
      y1="507.31"
      x2="453.55"
      y2="507.31"
      fill="none"
      stroke="#e18686"
      stroke-miterlimit="10"
      stroke-width="2"
    />
    <line
      x1="427.23"
      y1="502.72"
      x2="453.55"
      y2="502.72"
      fill="none"
      stroke="#e18686"
      stroke-miterlimit="10"
      stroke-width="2"
    />
    <line
      x1="427.23"
      y1="498.12"
      x2="453.55"
      y2="498.12"
      fill="none"
      stroke="#e18686"
      stroke-miterlimit="10"
      stroke-width="2"
    />
    <line
      x1="427.23"
      y1="493.53"
      x2="453.55"
      y2="493.53"
      fill="none"
      stroke="#e18686"
      stroke-miterlimit="10"
      stroke-width="2"
    />
    <line
      x1="427.23"
      y1="488.93"
      x2="453.55"
      y2="488.93"
      fill="none"
      stroke="#e18686"
      stroke-miterlimit="10"
      stroke-width="2"
    />
    <line
      x1="427.23"
      y1="484.34"
      x2="453.55"
      y2="484.34"
      fill="none"
      stroke="#e18686"
      stroke-miterlimit="10"
      stroke-width="2"
    />
    <line
      x1="427.23"
      y1="479.74"
      x2="453.55"
      y2="479.74"
      fill="none"
      stroke="#e18686"
      stroke-miterlimit="10"
      stroke-width="2"
    />
    <line
      x1="427.23"
      y1="475.15"
      x2="453.55"
      y2="475.15"
      fill="none"
      stroke="#e18686"
      stroke-miterlimit="10"
      stroke-width="2"
    />
    <line
      x1="427.23"
      y1="521.17"
      x2="453.55"
      y2="521.17"
      fill="none"
      stroke="#e18686"
      stroke-miterlimit="10"
      stroke-width="2"
    />
    <line
      x1="427.23"
      y1="516.57"
      x2="453.55"
      y2="516.57"
      fill="none"
      stroke="#e18686"
      stroke-miterlimit="10"
      stroke-width="2"
    />
    <line
      x1="427.23"
      y1="511.98"
      x2="453.55"
      y2="511.98"
      fill="none"
      stroke="#e18686"
      stroke-miterlimit="10"
      stroke-width="2"
    />
    <line
      x1="427.23"
      y1="530.4"
      x2="453.55"
      y2="530.4"
      fill="none"
      stroke="#e18686"
      stroke-miterlimit="10"
      stroke-width="2"
    />
    <line
      x1="427.23"
      y1="525.81"
      x2="453.55"
      y2="525.81"
      fill="none"
      stroke="#e18686"
      stroke-miterlimit="10"
      stroke-width="2"
    />
    <rect
      x="438.81"
      y="490.25"
      width="64.57"
      height="26.33"
      transform="translate(-32.32 974.51) rotate(-90)"
      fill="none"
      stroke="#e18686"
      stroke-miterlimit="10"
      stroke-width="2"
    />
    <line
      x1="458.4"
      y1="507.31"
      x2="484.73"
      y2="507.31"
      fill="none"
      stroke="#e18686"
      stroke-miterlimit="10"
      stroke-width="2"
    />
    <line
      x1="458.4"
      y1="502.72"
      x2="484.73"
      y2="502.72"
      fill="none"
      stroke="#e18686"
      stroke-miterlimit="10"
      stroke-width="2"
    />
    <line
      x1="458.4"
      y1="498.12"
      x2="484.73"
      y2="498.12"
      fill="none"
      stroke="#e18686"
      stroke-miterlimit="10"
      stroke-width="2"
    />
    <line
      x1="458.4"
      y1="493.53"
      x2="484.73"
      y2="493.53"
      fill="none"
      stroke="#e18686"
      stroke-miterlimit="10"
      stroke-width="2"
    />
    <line
      x1="458.4"
      y1="488.93"
      x2="484.73"
      y2="488.93"
      fill="none"
      stroke="#e18686"
      stroke-miterlimit="10"
      stroke-width="2"
    />
    <line
      x1="458.4"
      y1="484.34"
      x2="484.73"
      y2="484.34"
      fill="none"
      stroke="#e18686"
      stroke-miterlimit="10"
      stroke-width="2"
    />
    <line
      x1="458.4"
      y1="479.74"
      x2="484.73"
      y2="479.74"
      fill="none"
      stroke="#e18686"
      stroke-miterlimit="10"
      stroke-width="2"
    />
    <line
      x1="458.4"
      y1="475.15"
      x2="484.73"
      y2="475.15"
      fill="none"
      stroke="#e18686"
      stroke-miterlimit="10"
      stroke-width="2"
    />
    <line
      x1="458.4"
      y1="521.17"
      x2="484.73"
      y2="521.17"
      fill="none"
      stroke="#e18686"
      stroke-miterlimit="10"
      stroke-width="2"
    />
    <line
      x1="458.4"
      y1="516.57"
      x2="484.73"
      y2="516.57"
      fill="none"
      stroke="#e18686"
      stroke-miterlimit="10"
      stroke-width="2"
    />
    <line
      x1="458.4"
      y1="511.98"
      x2="484.73"
      y2="511.98"
      fill="none"
      stroke="#e18686"
      stroke-miterlimit="10"
      stroke-width="2"
    />
    <line
      x1="458.4"
      y1="530.4"
      x2="484.73"
      y2="530.4"
      fill="none"
      stroke="#e18686"
      stroke-miterlimit="10"
      stroke-width="2"
    />
    <line
      x1="458.4"
      y1="525.81"
      x2="484.73"
      y2="525.81"
      fill="none"
      stroke="#e18686"
      stroke-miterlimit="10"
      stroke-width="2"
    />
    <rect
      x="488.19"
      y="400.02"
      width="73.9"
      height="53.12"
      fill="none"
      stroke="#e18686"
      stroke-miterlimit="10"
      stroke-width="2"
    />
    <rect
      x="488.19"
      y="460.07"
      width="73.9"
      height="71.59"
      fill="none"
      stroke="#e18686"
      stroke-miterlimit="10"
      stroke-width="2"
    />
    <line
      x1="426.71"
      y1="543.2"
      x2="562.96"
      y2="543.2"
      fill="none"
      stroke="#e18686"
      stroke-miterlimit="10"
      stroke-width="2"
    />
    <rect
      x="448.25"
      y="257"
      width="139"
      height="46"
      fill="none"
      stroke="#e18686"
      stroke-miterlimit="10"
      stroke-width="2"
    />
    <rect
      x="460.25"
      y="271"
      width="35"
      height="25"
      fill="none"
      stroke="#e18686"
      stroke-miterlimit="10"
      stroke-width="2"
    />
    <rect
      x="501.25"
      y="271"
      width="35"
      height="25"
      fill="none"
      stroke="#e18686"
      stroke-miterlimit="10"
      stroke-width="2"
    />
    <rect
      x="542.25"
      y="271"
      width="35"
      height="25"
      fill="none"
      stroke="#e18686"
      stroke-miterlimit="10"
      stroke-width="2"
    />
    <rect
      x="500"
      y="223.5"
      width="35"
      height="25"
      transform="translate(753.5 -281.5) rotate(90)"
      fill="none"
      stroke="#e18686"
      stroke-miterlimit="10"
      stroke-width="2"
    />
    <rect
      x="448"
      y="204.5"
      width="52"
      height="53"
      fill="none"
      stroke="#e18686"
      stroke-miterlimit="10"
      stroke-width="2"
    />
    <polyline
      points="587.25 303 610.2 303 622 292"
      fill="none"
      stroke="#e18686"
      stroke-miterlimit="10"
      stroke-width="2"
    />
  </g>
  <g id="Layer_toilet1">
    <rect
      x="563"
      y="450.5"
      width="82"
      height="66"
      fill="none"
      stroke="#e18686"
      stroke-miterlimit="10"
      stroke-width="2"
    />
  </g>
  <g id="Layer_toilet2">
    <path
      d="m605.73,370c-14.24,0-28.49,0-42.73,0v80.5h82v-41c-13.09-13.17-26.18-26.33-39.27-39.5Z"
      fill="none"
      stroke="#e18686"
      stroke-miterlimit="10"
      stroke-width="2"
    />
  </g>
  <g id="Layer_1201A">
    <polygon
      points="478 579 478 654.5 502 654.5 502 679 563 679 563 654.5 563 643 563 579 478 579"
      fill="#f8cdce"
      stroke="#e18686"
      stroke-miterlimit="10"
      stroke-width="2"
    />
    <text
      transform="translate(497.91 625.93)"
      fill="#434142"
      font-family="NanumSquareNeovariable-Heavy, 'NanumSquare Neo variable'"
      font-size="14"
      font-variation-settings="'wght' 900"
      font-weight="800"
    >
      <tspan x="0" y="0">1201A</tspan>
    </text>
  </g>
  <g id="Layer_1201B-2">
    <polygon
      points="478 579 427 579 427 644 427 654 427 679 466 679 466 654 478 654 478 579"
      fill="#f8cdce"
      stroke="#e18686"
      stroke-miterlimit="10"
      stroke-width="2"
    />
    <text
      transform="translate(430.47 625.93)"
      fill="#434142"
      font-family="NanumSquareNeovariable-Heavy, 'NanumSquare Neo variable'"
      font-size="14"
      font-variation-settings="'wght' 900"
      font-weight="800"
    >
      <tspan x="0" y="0">1201B</tspan>
    </text>
  </g>
  <g id="Layer_1201">
    <rect
      x="466"
      y="654"
      width="36"
      height="39"
      fill="none"
      stroke="#e18686"
      stroke-linecap="round"
      stroke-linejoin="round"
      stroke-width="2"
    />
    <path
      d="m691.97,552.65c-1.32-1.22-2.65-2.43-3.97-3.65v-10h-125v140h-136v-309.5h-78.5v528h67.5v.5h375v-247c-33.01-32.78-66.02-65.57-99.03-98.35Z"
      fill="none"
      stroke="#e18686"
      stroke-linecap="round"
      stroke-linejoin="round"
      stroke-width="2"
    />
    <text
      transform="translate(546.98 772.26)"
      fill="#434142"
      font-family="NanumSquareNeovariable-Heavy, 'NanumSquare Neo variable'"
      font-size="16"
      font-variation-settings="'wght' 900"
      font-weight="800"
    >
      <tspan x="0" y="0">1201</tspan>
    </text>
    <text
      transform="translate(521.26 792.26)"
      fill="#434142"
      font-family="NanumSquareNeovariable-Regular, 'NanumSquare Neo variable'"
      font-size="16"
      font-variation-settings="'wght' 300"
    >
      <tspan x="0" y="0">크림슨라운지</tspan>
    </text>
  </g>
</svg>
