<?xml version="1.0" encoding="UTF-8"?><svg xmlns="http://www.w3.org/2000/svg" viewBox="0 0 1800 1400"><defs><style>.cls-1{fill:#fdf2f1;stroke-width:10px;}.cls-1,.cls-2,.cls-3{stroke:#e08686;stroke-miterlimit:10;}.cls-2{fill:none;}.cls-2,.cls-3{stroke-width:3px;}.cls-4{fill:#231815;font-family:NanumSquareNeovariable-ExtraBold, 'NanumSquare Neo variable';font-size:32px;font-variation-settings:'wght' 700;font-weight:700;}.cls-3{fill:#f8cdcd;}</style></defs><g id="_레이어_x5F_배경"><rect class="cls-1" x="150.77" y="47.09" width="1503.78" height="1312.05"/></g><g id="_레이어_x5F_others"><rect class="cls-2" x="1099.8" y="49.6" width="163.11" height="217.94"/><polygon class="cls-2" points="1318.41 49.6 1318.41 191.76 1318.41 262.84 1435.49 262.84 1435.49 191.76 1494.65 191.76 1494.65 49.6 1318.41 49.6"/><rect class="cls-2" x="1099.8" y="340.98" width="303.16" height="140.05"/><rect class="cls-2" x="1099.8" y="481.03" width="303.16" height="157.01"/><rect class="cls-2" x="1581.51" y="395.47" width="69.04" height="65.49"/><rect class="cls-2" x="1493.7" y="460.96" width="156.85" height="95.12"/><rect class="cls-2" x="1493.7" y="556.08" width="156.85" height="86.51"/><rect class="cls-2" x="156.77" y="1185.47" width="302.32" height="168.73"/><line class="cls-2" x1="1205.87" y1="340.98" x2="1205.87" y2="481.03"/><line class="cls-2" x1="1215.87" y1="340.98" x2="1215.87" y2="481.03"/><line class="cls-2" x1="1225.87" y1="340.98" x2="1225.87" y2="481.03"/><line class="cls-2" x1="1235.87" y1="340.98" x2="1235.87" y2="481.03"/><line class="cls-2" x1="1245.87" y1="340.98" x2="1245.87" y2="481.03"/><line class="cls-2" x1="1255.87" y1="340.98" x2="1255.87" y2="481.03"/><line class="cls-2" x1="1265.87" y1="340.98" x2="1265.87" y2="481.03"/><line class="cls-2" x1="1275.87" y1="340.98" x2="1275.87" y2="481.03"/><line class="cls-2" x1="1285.87" y1="340.98" x2="1285.87" y2="481.03"/><line class="cls-2" x1="1295.87" y1="340.98" x2="1295.87" y2="481.03"/><line class="cls-2" x1="1305.87" y1="340.98" x2="1305.87" y2="481.03"/><line class="cls-2" x1="1315.87" y1="340.98" x2="1315.87" y2="481.03"/><line class="cls-2" x1="1325.87" y1="340.98" x2="1325.87" y2="481.03"/><line class="cls-2" x1="1335.87" y1="340.98" x2="1335.87" y2="481.03"/><line class="cls-2" x1="218.15" y1="1185.47" x2="218.15" y2="1354.2"/><line class="cls-2" x1="228.15" y1="1185.47" x2="228.15" y2="1354.2"/><line class="cls-2" x1="238.15" y1="1185.47" x2="238.15" y2="1354.2"/><line class="cls-2" x1="248.15" y1="1185.47" x2="248.15" y2="1354.2"/><line class="cls-2" x1="258.15" y1="1185.47" x2="258.15" y2="1354.2"/><line class="cls-2" x1="268.15" y1="1185.47" x2="268.15" y2="1354.2"/><line class="cls-2" x1="278.15" y1="1185.47" x2="278.15" y2="1354.2"/><line class="cls-2" x1="288.15" y1="1185.47" x2="288.15" y2="1354.2"/><line class="cls-2" x1="298.15" y1="1185.47" x2="298.15" y2="1354.2"/><line class="cls-2" x1="308.15" y1="1185.47" x2="308.15" y2="1354.2"/><line class="cls-2" x1="318.15" y1="1185.47" x2="318.15" y2="1354.2"/><line class="cls-2" x1="328.15" y1="1185.47" x2="328.15" y2="1354.2"/><line class="cls-2" x1="338.15" y1="1185.47" x2="338.15" y2="1354.2"/><line class="cls-2" x1="348.15" y1="1185.47" x2="348.15" y2="1354.2"/><line class="cls-2" x1="358.15" y1="1185.47" x2="358.15" y2="1354.2"/><line class="cls-2" x1="368.15" y1="1185.47" x2="368.15" y2="1354.2"/><line class="cls-2" x1="378.15" y1="1185.47" x2="378.15" y2="1354.2"/></g><g id="_레이어_x5F_701"><rect class="cls-3" x="844.89" y="49.6" width="254.91" height="630.89"/><text class="cls-4" transform="translate(946.52 286.54)"><tspan x="0" y="0">701</tspan><tspan x="-30.9" y="38.4">고압광물</tspan><tspan x="-61.23" y="76.8">물리학연구실</tspan></text></g><g id="_레이어_x5F_702"><rect class="cls-3" x="558.34" y="50.3" width="286.55" height="630.89"/><text class="cls-4" transform="translate(668.72 309.67)"><tspan x="0" y="0">702</tspan><tspan x="-73.28" y="38.4">대학원생연구실</tspan></text></g><g id="_레이어_x5F_703"><rect class="cls-3" x="156.32" y="53.66" width="302.77" height="185.46"/><text class="cls-4" transform="translate(274.47 137.39)"><tspan x="0" y="0">703</tspan><tspan x="-42.61" y="38.4">교수연구실</tspan></text></g><g id="_레이어_x5F_704"><rect class="cls-3" x="156.32" y="237.59" width="302.77" height="198.31"/><text class="cls-4" transform="translate(274.39 336.74)"><tspan x="0" y="0">704</tspan><tspan x="-42.53" y="38.4">교수연구실</tspan></text></g><g id="_레이어_x5F_705"><rect class="cls-3" x="156.32" y="434.37" width="302.77" height="184.66"/><text class="cls-4" transform="translate(274.79 526.7)"><tspan x="0" y="0">705</tspan><tspan x="-27.76" y="38.4">세미나실</tspan></text></g><g id="_레이어_x5F_706"><rect class="cls-3" x="156.32" y="619.03" width="302.77" height="198.89"/><text class="cls-4" transform="translate(274.47 704.99)"><tspan x="0" y="0">706</tspan><tspan x="-42.61" y="38.4">교수연구실</tspan></text></g><g id="_레이어_x5F_707"><rect class="cls-3" x="156.32" y="817.91" width="302.77" height="191.65"/><text class="cls-4" transform="translate(275.75 905.24)"><tspan x="0" y="0">707</tspan><tspan x="-43.89" y="38.4">교수연구실</tspan></text></g><g id="_레이어_x5F_708"><rect class="cls-3" x="156.77" y="1009.56" width="302.77" height="175.91"/><text class="cls-4" transform="translate(274.58 1090.38)"><tspan x="0" y="0">708</tspan><tspan x="-42.27" y="38.4">교수연구실</tspan></text></g><g id="_레이어_x5F_709"><rect class="cls-3" x="536.64" y="794.58" width="286.55" height="559.62"/><text class="cls-4" transform="translate(646.69 1045.71)"><tspan x="0" y="0">709</tspan><tspan x="-72.94" y="38.4">대기화학연구실</tspan></text></g><g id="_레이어_x5F_710"><rect class="cls-3" x="823.19" y="794.58" width="276.61" height="559.62"/><text class="cls-4" transform="translate(931.72 1030.93)"><tspan x="0" y="0">710</tspan><tspan x="-30.9" y="38.4">에어로졸</tspan><tspan x="-76.4" y="76.8">기후화학연구실</tspan></text></g><g id="_레이어_x5F_711"><rect class="cls-3" x="1099.8" y="794.74" width="259.54" height="559.62"/><text class="cls-4" transform="translate(1208.58 1049.49)"><tspan x="0" y="0">711</tspan><tspan x="-19.57" y="38.4">실험실</tspan></text></g><g id="_레이어_x5F_712"><rect class="cls-3" x="1359.34" y="794.74" width="291.21" height="559.62"/><text class="cls-4" transform="translate(1480.63 1034.71)"><tspan x="0" y="0">712</tspan><tspan x="-31.62" y="38.4">환경지구</tspan><tspan x="-77.12" y="76.8">미생물학연구실</tspan></text></g><g id="_레이어_x5F_713"><rect class="cls-3" x="1494.65" y="49.6" width="155.9" height="345.87"/><text class="cls-4" transform="translate(1552.12 239.12)"><tspan x="0" y="0">713</tspan></text></g></svg>