<?xml version="1.0" encoding="UTF-8"?><svg xmlns="http://www.w3.org/2000/svg" viewBox="0 0 1800 1400"><defs><style>.cls-1{fill:#fdf2f1;stroke-width:10px;}.cls-1,.cls-2,.cls-3{stroke:#e08686;stroke-miterlimit:10;}.cls-2{fill:none;}.cls-2,.cls-3{stroke-width:3px;}.cls-4{font-size:32px;}.cls-4,.cls-5{fill:#231815;font-family:NanumSquareNeovariable-ExtraBold, 'NanumSquare Neo variable';font-variation-settings:'wght' 700;font-weight:700;}.cls-3{fill:#f8cdcd;}.cls-6{letter-spacing:0em;}.cls-5{font-size:34.44px;}</style></defs><g id="_레이어_x5F_배경"><rect class="cls-1" x="172.22" y="24.5" width="1552.95" height="1323.88"/></g><g id="_레이어_x5F_others"><rect class="cls-2" x="1143.81" y="28.93" width="168.61" height="204.51"/><polygon class="cls-2" points="1366.82 28.93 1366.82 161.34 1366.82 233.43 1485.78 233.43 1485.78 161.34 1545.81 161.34 1545.81 28.93 1366.82 28.93"/><rect class="cls-2" x="1143.81" y="312.01" width="312.51" height="145.22"/><rect class="cls-2" x="1143.81" y="457.23" width="312.51" height="162.67"/><rect class="cls-2" x="1634.15" y="360.18" width="85.22" height="72.63"/><rect class="cls-2" x="1545.81" y="432.81" width="173.57" height="94.29"/><rect class="cls-2" x="1545.81" y="527.1" width="173.57" height="88.43"/><rect class="cls-2" x="178.93" y="1178.73" width="316.23" height="164.21"/><line class="cls-2" x1="1253.77" y1="312.01" x2="1253.77" y2="457.23"/><line class="cls-2" x1="1263.77" y1="312.01" x2="1263.77" y2="457.23"/><line class="cls-2" x1="1273.77" y1="312.01" x2="1273.77" y2="457.23"/><line class="cls-2" x1="1283.77" y1="312.01" x2="1283.77" y2="457.23"/><line class="cls-2" x1="1293.77" y1="312.01" x2="1293.77" y2="457.23"/><line class="cls-2" x1="1303.77" y1="312.01" x2="1303.77" y2="457.23"/><line class="cls-2" x1="1313.77" y1="312.01" x2="1313.77" y2="457.23"/><line class="cls-2" x1="1323.77" y1="312.01" x2="1323.77" y2="457.23"/><line class="cls-2" x1="1333.77" y1="312.01" x2="1333.77" y2="457.23"/><line class="cls-2" x1="1343.77" y1="312.01" x2="1343.77" y2="457.23"/><line class="cls-2" x1="1353.77" y1="312.01" x2="1353.77" y2="457.23"/><line class="cls-2" x1="1363.77" y1="312.01" x2="1363.77" y2="457.23"/><line class="cls-2" x1="1373.77" y1="312.01" x2="1373.77" y2="457.23"/><line class="cls-2" x1="1383.77" y1="312.01" x2="1383.77" y2="457.23"/><line class="cls-2" x1="1393.77" y1="312.01" x2="1393.77" y2="457.23"/><line class="cls-2" x1="260.25" y1="1178.73" x2="260.25" y2="1342.94"/><line class="cls-2" x1="270.25" y1="1178.73" x2="270.25" y2="1342.94"/><line class="cls-2" x1="280.25" y1="1178.73" x2="280.25" y2="1342.94"/><line class="cls-2" x1="290.25" y1="1178.73" x2="290.25" y2="1342.94"/><line class="cls-2" x1="300.25" y1="1178.73" x2="300.25" y2="1342.94"/><line class="cls-2" x1="310.25" y1="1178.73" x2="310.25" y2="1342.94"/><line class="cls-2" x1="320.25" y1="1178.73" x2="320.25" y2="1342.94"/><line class="cls-2" x1="330.25" y1="1178.73" x2="330.25" y2="1342.94"/><line class="cls-2" x1="340.25" y1="1178.73" x2="340.25" y2="1342.94"/><line class="cls-2" x1="350.25" y1="1178.73" x2="350.25" y2="1342.94"/><line class="cls-2" x1="360.25" y1="1178.73" x2="360.25" y2="1342.94"/><line class="cls-2" x1="370.25" y1="1178.73" x2="370.25" y2="1342.94"/><line class="cls-2" x1="380.25" y1="1178.73" x2="380.25" y2="1342.94"/><line class="cls-2" x1="390.25" y1="1178.73" x2="390.25" y2="1342.94"/><line class="cls-2" x1="400.25" y1="1178.73" x2="400.25" y2="1342.94"/><line class="cls-2" x1="410.25" y1="1178.73" x2="410.25" y2="1342.94"/><line class="cls-2" x1="420.25" y1="1178.73" x2="420.25" y2="1342.94"/></g><g id="_레이어_x5F_501"><rect class="cls-3" x="884.09" y="28.93" width="259.72" height="624.69"/><text class="cls-4" transform="translate(983.21 282.18)"><tspan x="0" y="0">501</tspan><tspan x="-45.1" y="38.4">환경분석실</tspan></text></g><g id="_레이어_x5F_502"><rect class="cls-3" x="595.71" y="28.93" width="288.37" height="624.69"/><text class="cls-4" transform="translate(706.05 282.18)"><tspan x="0" y="0">502</tspan><tspan x="-72.32" y="38.4">대학원생연구실</tspan></text></g><g id="_레이어_x5F_503"><rect class="cls-3" x="178.35" y="28.93" width="316.81" height="189.44"/><text class="cls-4" transform="translate(302.56 106.8)"><tspan x="0" y="0">503</tspan><tspan x="-41.65" y="38.4">교수연구실</tspan></text></g><g id="_레이어_x5F_504"><rect class="cls-3" x="178.35" y="217.29" width="316.81" height="197.61"/><text class="cls-4" transform="translate(302.48 295.16)"><tspan x="0" y="0">504</tspan><tspan x="-41.57" y="38.4">교수연구실</tspan></text></g><g id="_레이어_x5F_505"><rect class="cls-3" x="178.35" y="414.9" width="316.81" height="189.44"/><text class="cls-4" transform="translate(302.88 492.77)"><tspan x="0" y="0">505</tspan><tspan x="-41.97" y="38.4">교수연구실</tspan></text></g><g id="_레이어_x5F_506"><rect class="cls-3" x="178.35" y="605.28" width="316.81" height="203.88"/><text class="cls-5" transform="translate(302.56 689.09) scale(.93 1)"><tspan x="0" y="0">506</tspan><tspan x="-44.82" y="41.33">교수연구실</tspan></text></g><g id="_레이어_x5F_507"><rect class="cls-3" x="178.35" y="810.11" width="316.81" height="189.44"/><text class="cls-4" transform="translate(303.84 887.98)"><tspan x="0" y="0">507</tspan><tspan x="-42.93" y="38.4">교수연구실</tspan></text></g><g id="_레이어_x5F_508"><rect class="cls-3" x="178.35" y="1000.49" width="316.81" height="178.24"/><text class="cls-4" transform="translate(302.23 1078.36)"><tspan x="0" y="0">508</tspan><tspan x="-41.31" y="38.4">교수연구실</tspan></text></g><g id="_레이어_x5F_509"><rect class="cls-3" x="583.82" y="778.77" width="288.37" height="564.17"/><text class="cls-4" transform="translate(693.81 1055.07)"><tspan x="0" y="0">509</tspan><tspan x="-87.15" y="38.4">계면광물학연구실</tspan></text></g><g id="_레이어_x5F_510"><rect class="cls-3" x="869.76" y="778.77" width="288.37" height="564.17"/><text class="cls-4" transform="translate(983.37 1055.07)"><tspan class="cls-6" x="0" y="0">5</tspan><tspan x="21.79" y="0">10</tspan><tspan x="-105.94" y="38.4">환경수리지질연구실</tspan></text></g><g id="_레이어_x5F_511"><rect class="cls-3" x="1159.58" y="778.76" width="288.37" height="564.17"/><text class="cls-4" transform="translate(1277.03 1055.07)"><tspan class="cls-6" x="0" y="0">5</tspan><tspan x="21.79" y="0">11</tspan><tspan x="-109.78" y="38.4">환경지구화학연구실</tspan></text></g><g id="_레이어_x5F_512"><rect class="cls-3" x="1447.96" y="778.79" width="271.41" height="564.17"/><text class="cls-4" transform="translate(1553.81 1055.07)"><tspan class="cls-6" x="0" y="0">5</tspan><tspan x="21.79" y="0">12</tspan><tspan x="-76.32" y="38.4">지구환경과학과</tspan><tspan x="-15.65" y="76.8">도서실</tspan></text></g><g id="_레이어_x5F_513"><rect class="cls-3" x="1546.9" y="28.93" width="172.47" height="331.25"/><text class="cls-4" transform="translate(1603.96 174.79)"><tspan class="cls-6" x="0" y="0">5</tspan><tspan x="21.79" y="0">13</tspan><tspan x="-15.31" y="38.4">휴게실</tspan></text></g></svg>