<?xml version="1.0" encoding="UTF-8"?>
<svg id="B1" xmlns="http://www.w3.org/2000/svg" viewBox="0 0 1505.97 958.41">
  <defs>
    <style>
      .cls-1 {
        fill: #fcf2f2;
        stroke-width: 10px;
      }

      .cls-1,
      .cls-2,
      .cls-3 {
        stroke: #e68b8b;
        stroke-miterlimit: 10;
      }

      .cls-4 {
        font-size: 9px;
      }

      .cls-4,
      .cls-5 {
        fill: #221f20;
        font-family: NanumSquareNeoTTF-dEb, "NanumSquare Neo";
      }

      .cls-2 {
        fill: none;
      }

      .cls-2,
      .cls-3 {
        stroke-width: 3px;
      }

      .cls-5 {
        font-size: 12px;
      }

      .cls-3 {
        fill: #f3cdcf;
      }
    </style>
  </defs>
  <g id="Layer_x5F_border-8" data-name="Layer_x5F_border">
    <polygon
      class="cls-1"
      points="547.25 416.23 419.41 416.23 419.41 654.87 1361.76 654.87 1361.76 362.66 1035.47 362.66 1035.47 387.01 961.2 387.01 961.2 299.35 636.13 299.35 636.13 311.53 548.46 311.53 547.25 416.23"
    />
  </g>
  <g id="Layer_x5F_others-8" data-name="Layer_x5F_others">
    <rect class="cls-2" x="548.25" y="312.28" width="58.48" height="104.99" />
    <g>
      <rect class="cls-2" x="548.25" y="312.23" width="28.86" height="8.41" />
      <rect class="cls-2" x="548.25" y="320.64" width="28.86" height="8.74" />
      <rect class="cls-2" x="548.25" y="329.38" width="28.86" height="10.09" />
      <rect class="cls-2" x="548.25" y="339.46" width="28.86" height="8.07" />
      <rect class="cls-2" x="548.25" y="347.53" width="28.86" height="10.09" />
      <rect class="cls-2" x="548.25" y="357.62" width="28.86" height="7.23" />
      <rect class="cls-2" x="548.25" y="364.85" width="28.86" height="10.93" />
      <rect class="cls-2" x="548.25" y="375.77" width="28.86" height="10.09" />
      <rect class="cls-2" x="548.25" y="385.86" width="28.86" height="8.74" />
      <rect class="cls-2" x="548.25" y="394.6" width="28.86" height="8.74" />
    </g>
    <g>
      <rect class="cls-2" x="577.11" y="312.23" width="29.61" height="8.41" />
      <rect class="cls-2" x="577.11" y="320.64" width="29.61" height="8.74" />
      <rect class="cls-2" x="577.11" y="329.38" width="29.61" height="10.09" />
      <rect class="cls-2" x="577.11" y="339.46" width="29.61" height="8.07" />
      <rect class="cls-2" x="577.11" y="347.53" width="29.61" height="10.09" />
      <rect class="cls-2" x="577.11" y="357.62" width="29.61" height="7.23" />
      <rect class="cls-2" x="577.11" y="364.85" width="29.61" height="10.93" />
      <rect class="cls-2" x="577.11" y="375.77" width="29.61" height="10.09" />
      <rect class="cls-2" x="577.11" y="385.86" width="29.61" height="8.74" />
      <rect class="cls-2" x="577.11" y="394.6" width="29.61" height="8.74" />
    </g>
    <rect class="cls-3" x="744.12" y="380.82" width="33.78" height="36.45" />
    <rect
      class="cls-2"
      x="967.08"
      y="536.84"
      width="62.19"
      height="117.87"
      transform="translate(1996.35 1191.55) rotate(180)"
    />
    <g>
      <rect class="cls-2" x="998.57" y="645.33" width="30.7" height="9.44" />
      <rect class="cls-2" x="998.57" y="635.52" width="30.7" height="9.81" />
      <rect class="cls-2" x="998.57" y="624.19" width="30.7" height="11.32" />
      <rect class="cls-2" x="998.57" y="615.13" width="30.7" height="9.06" />
      <rect class="cls-2" x="998.57" y="603.81" width="30.7" height="11.32" />
      <rect class="cls-2" x="998.57" y="595.69" width="30.7" height="8.12" />
      <rect class="cls-2" x="998.57" y="583.43" width="30.7" height="12.27" />
      <rect class="cls-2" x="998.57" y="572.1" width="30.7" height="11.32" />
      <rect class="cls-2" x="998.57" y="562.29" width="30.7" height="9.81" />
      <rect class="cls-2" x="998.57" y="552.47" width="30.7" height="9.81" />
    </g>
    <g>
      <rect class="cls-2" x="967.08" y="645.33" width="31.5" height="9.44" />
      <rect class="cls-2" x="967.08" y="635.52" width="31.5" height="9.81" />
      <rect class="cls-2" x="967.08" y="624.19" width="31.5" height="11.32" />
      <rect class="cls-2" x="967.08" y="615.13" width="31.5" height="9.06" />
      <rect class="cls-2" x="967.08" y="603.81" width="31.5" height="11.32" />
      <rect class="cls-2" x="967.08" y="595.69" width="31.5" height="8.12" />
      <rect class="cls-2" x="967.08" y="583.43" width="31.5" height="12.27" />
      <rect class="cls-2" x="967.08" y="572.1" width="31.5" height="11.32" />
      <rect class="cls-2" x="967.08" y="562.29" width="31.5" height="9.81" />
      <rect class="cls-2" x="967.08" y="552.47" width="31.5" height="9.81" />
    </g>
    <rect class="cls-2" x="998.17" y="499.8" width="97.04" height="35.75" />
  </g>
  <g id="Layer_181">
    <polygon
      class="cls-3"
      points="606.72 312.23 636.13 311.53 636.13 299.35 744.12 299.35 744.12 417.27 606.72 417.27 606.72 312.23"
    />
    <text class="cls-5" transform="translate(659.38 354.09)">
      <tspan x="0" y="0">B105</tspan>
      <tspan x="4.67" y="14.4">서고</tspan>
    </text>
  </g>
  <g id="Layer_170">
    <polygon
      class="cls-3"
      points="548.25 417.27 548.25 452.15 967.08 452.15 967.08 654.77 419.41 654.87 419.41 416.23 548.25 417.27"
    />
    <text class="cls-5" transform="translate(678.38 539.95)">
      <tspan x="0" y="0">B101</tspan>
      <tspan x="3.49" y="14.4">서고</tspan>
    </text>
  </g>
  <g id="Layer_171">
    <rect class="cls-3" x="1029.27" y="536.84" width="36.1" height="27.95" />
    <text class="cls-4" transform="translate(1031.81 547.65)">
      <tspan x="0" y="0">B102C</tspan>
      <tspan x="2.71" y="10.8">세면실</tspan>
    </text>
  </g>
  <g id="Layer_172">
    <rect class="cls-3" x="1029.27" y="564.78" width="54.14" height="90.08" />
    <text class="cls-5" transform="translate(1035.59 598.41)">
      <tspan x="0" y="0">B102A</tspan>
      <tspan x="9.37" y="14.4">집단</tspan>
      <tspan x="3.68" y="28.8">상담실</tspan>
    </text>
  </g>
  <g id="Layer_173">
    <rect class="cls-3" x="1083.41" y="564.78" width="53.56" height="90.08" />
    <text class="cls-5" transform="translate(1089.64 591.21)">
      <tspan x="0" y="0">B102B</tspan>
      <tspan x="-2.2" y="14.4">안구운동</tspan>
      <tspan x="9.18" y="28.8">측정</tspan>
      <tspan x="3.49" y="43.2">실험실</tspan>
    </text>
  </g>
  <g id="Layer_174">
    <rect class="cls-3" x="1136.98" y="564.78" width="52.98" height="90.08" />
    <text class="cls-5" transform="translate(1142.79 591.21)">
      <tspan x="0" y="0">B102C</tspan>
      <tspan x="3.61" y="14.4">실시각</tspan>
      <tspan x="9.3" y="28.8">인지</tspan>
      <tspan x="3.61" y="43.2">실험실</tspan>
    </text>
  </g>
  <g id="Layer_175">
    <rect class="cls-3" x="1189.95" y="564.78" width="53.56" height="90.08" />
    <text class="cls-5" transform="translate(1196 598.41)">
      <tspan x="0" y="0">B102D</tspan>
      <tspan x="-2.02" y="14.4">가상현실</tspan>
      <tspan x="3.67" y="28.8">실험실</tspan>
    </text>
  </g>
  <g id="Layer_176">
    <rect class="cls-3" x="1243.52" y="564.78" width="54.14" height="90.08" />
    <text class="cls-5" transform="translate(1250.65 591.21)">
      <tspan x="0" y="0">B102E</tspan>
      <tspan x="8.56" y="14.4">뇌와</tspan>
      <tspan x="7.07" y="28.8">마음</tspan>
      <tspan x="2.87" y="43.2">실험실</tspan>
    </text>
  </g>
  <g id="Layer_177">
    <rect class="cls-3" x="1297.66" y="536.84" width="64.1" height="118.03" />
    <text class="cls-5" transform="translate(1309.98 577.23)">
      <tspan x="0" y="0">B102F</tspan>
      <tspan x="-11.47" y="14.4">심리학-산업</tspan>
      <tspan x="8.35" y="28.8">연계</tspan>
      <tspan x="2.66" y="43.2">실험실</tspan>
    </text>
  </g>
  <g id="Layer_178">
    <polygon
      class="cls-3"
      points="1034.31 421.74 998.17 421.74 998.17 387.01 1035.47 387.01 1035.47 362.66 1361.76 362.66 1361.76 536.84 1095.21 535.55 1095.21 499.8 1034.31 499.8 1034.31 421.74"
    />
    <text class="cls-5" transform="translate(1189.71 443.01)">
      <tspan x="0" y="0">B102</tspan>
      <tspan x="4.66" y="14.4">서고</tspan>
    </text>
  </g>
  <g id="Layer_179">
    <polygon
      class="cls-3"
      points="851.41 297.6 961.2 299.35 961.2 387.01 998.17 387.01 998.17 421.74 851.41 421.74 851.41 297.6"
    />
    <text class="cls-5" transform="translate(897.63 355.45)">
      <tspan x="0" y="0">B103</tspan>
      <tspan x="4.79" y="14.4">서고</tspan>
    </text>
  </g>
  <g id="Layer_180">
    <rect class="cls-3" x="744.12" y="297.6" width="107.29" height="83.22" />
    <text class="cls-5" transform="translate(781.57 334.99)">
      <tspan x="0" y="0">B104</tspan>
      <tspan x="4.82" y="14.4">서고</tspan>
    </text>
  </g>
</svg>
