<?xml version="1.0" encoding="UTF-8"?><svg xmlns="http://www.w3.org/2000/svg" viewBox="0 0 1800 1400"><defs><style>.cls-1{font-size:12px;}.cls-1,.cls-2{fill:#434142;font-family:NanumSquareNeovariable-Heavy, 'NanumSquare Neo variable';font-variation-settings:'wght' 900;font-weight:800;}.cls-3{letter-spacing:-.02em;}.cls-4{fill:#fdf2f2;stroke-width:2.96px;}.cls-4,.cls-5,.cls-6,.cls-7,.cls-8,.cls-9,.cls-10{stroke:#d88282;stroke-miterlimit:10;}.cls-11{letter-spacing:-.03em;}.cls-5{stroke-width:2.09px;}.cls-5,.cls-8,.cls-9,.cls-10{fill:none;}.cls-2{font-size:18px;}.cls-6,.cls-7{fill:#f5cbcc;}.cls-6,.cls-9{stroke-width:2px;}.cls-7{stroke-width:2.07px;}.cls-8{stroke-width:1.43px;}.cls-10{stroke-width:2.04px;}.cls-12{letter-spacing:0em;}.cls-13{letter-spacing:0em;}</style></defs><g id="Layer_border"><path class="cls-4" d="m1562.66,889.16h-358.02v39.09h-57.75v-19.15c-180.8.06-361.6.11-542.39.17l.57-646.02h-298.18v646.02h-136.33v222.01h976.33v-40.93h57.75v40.93h358.02v-242.12Z"/></g><g id="Layer_others"><rect class="cls-10" x="517.87" y="918.02" width="31.38" height="31.38"/><rect class="cls-10" x="517.87" y="949.4" width="44.95" height="40.48"/><line class="cls-10" x1="402.49" y1="989.88" x2="517.87" y2="989.88"/><line class="cls-10" x1="517.87" y1="897.24" x2="517.87" y2="920.11"/><line class="cls-9" x1="562.82" y1="962.32" x2="574.02" y2="962.32"/><line class="cls-10" x1="433.39" y1="925.07" x2="433.39" y2="989.88"/><line class="cls-10" x1="484.95" y1="925.07" x2="484.95" y2="989.88"/><line class="cls-10" x1="433.39" y1="932.12" x2="484.95" y2="932.12"/><line class="cls-10" x1="433.39" y1="937.94" x2="484.95" y2="937.94"/><line class="cls-10" x1="433.39" y1="943.77" x2="484.95" y2="943.77"/><line class="cls-10" x1="433.39" y1="949.6" x2="484.95" y2="949.6"/><line class="cls-10" x1="433.39" y1="955.42" x2="484.95" y2="955.42"/><line class="cls-10" x1="433.39" y1="961.25" x2="484.95" y2="961.25"/><line class="cls-10" x1="433.39" y1="967.08" x2="484.95" y2="967.08"/><line class="cls-10" x1="433.39" y1="972.9" x2="484.95" y2="972.9"/><line class="cls-10" x1="433.39" y1="978.73" x2="484.95" y2="978.73"/><line class="cls-10" x1="433.39" y1="984.56" x2="484.95" y2="984.56"/><line class="cls-9" x1="400.8" y1="932.12" x2="517.87" y2="932.12"/><line class="cls-9" x1="400.8" y1="937.94" x2="517.87" y2="937.94"/><line class="cls-9" x1="400.8" y1="943.77" x2="517.87" y2="943.77"/><line class="cls-9" x1="400.8" y1="949.6" x2="517.87" y2="949.6"/><line class="cls-9" x1="400.8" y1="955.42" x2="517.87" y2="955.42"/><line class="cls-5" x1="1089.37" y1="934.47" x2="1146.42" y2="934.47"/><line class="cls-5" x1="1089.37" y1="940.02" x2="1146.42" y2="940.02"/><line class="cls-5" x1="1089.37" y1="945.57" x2="1146.42" y2="945.57"/><line class="cls-5" x1="1089.37" y1="951.12" x2="1146.42" y2="951.12"/><line class="cls-5" x1="1089.37" y1="956.67" x2="1146.42" y2="956.67"/><line class="cls-5" x1="1089.37" y1="962.22" x2="1146.42" y2="962.22"/><line class="cls-5" x1="1089.37" y1="967.77" x2="1146.42" y2="967.77"/><line class="cls-5" x1="1089.37" y1="973.32" x2="1146.42" y2="973.32"/><polyline class="cls-9" points="1088.11 1002.91 1088.11 1022.33 1146.42 1022.33 1146.42 928.92 1141.38 928.92 1089.37 928.92"/><line class="cls-9" x1="1286.81" y1="930.88" x2="1326.89" y2="930.88"/><line class="cls-9" x1="1286.81" y1="936.36" x2="1326.89" y2="936.36"/><line class="cls-9" x1="1286.81" y1="941.84" x2="1326.89" y2="941.84"/><line class="cls-9" x1="1286.61" y1="947.32" x2="1326.69" y2="947.32"/><line class="cls-9" x1="1286.61" y1="958.28" x2="1326.69" y2="958.28"/><line class="cls-9" x1="1286.61" y1="952.8" x2="1326.69" y2="952.8"/><line class="cls-9" x1="1286.61" y1="963.76" x2="1326.69" y2="963.76"/><line class="cls-9" x1="1286.61" y1="969.24" x2="1326.69" y2="969.24"/><line class="cls-9" x1="1286.81" y1="980.2" x2="1326.89" y2="980.2"/><line class="cls-9" x1="1286.61" y1="974.72" x2="1326.69" y2="974.72"/><polyline class="cls-9" points="1276.4 980.22 1276.4 1020.93 1331.72 1020.93 1331.72 1004.99"/><line class="cls-9" x1="506.82" y1="264.07" x2="506.82" y2="311.64"/><line class="cls-9" x1="515.8" y1="264.07" x2="515.8" y2="311.64"/><line class="cls-9" x1="524.77" y1="264.07" x2="524.77" y2="311.64"/><line class="cls-9" x1="533.75" y1="264.07" x2="533.75" y2="311.64"/><line class="cls-9" x1="542.73" y1="264.07" x2="542.73" y2="311.64"/><line class="cls-9" x1="551.7" y1="264.07" x2="551.7" y2="311.64"/><line class="cls-9" x1="560.68" y1="264.07" x2="560.68" y2="311.64"/><polyline class="cls-9" points="491.48 263.24 476.63 263.24 476.63 311.64"/><line class="cls-9" x1="1140.82" y1="1058.36" x2="1221.93" y2="1058.36"/><line class="cls-9" x1="1159.22" y1="1023.64" x2="1159.22" y2="1057.57"/><line class="cls-9" x1="583.47" y1="1025.62" x2="583.47" y2="1057.57"/><line class="cls-9" x1="382.51" y1="990.09" x2="382.51" y2="1012.99"/><line class="cls-9" x1="433.39" y1="880.37" x2="476.26" y2="880.37"/><line class="cls-9" x1="434.02" y1="318.36" x2="476.63" y2="318.36"/></g><g id="Layer_401"><rect class="cls-6" x="171.57" y="1012.99" width="231.19" height="117.07"/><text class="cls-2" transform="translate(266.43 1073.31)"><tspan x="0" y="0">401</tspan></text></g><g id="Layer_403"><rect class="cls-7" x="402.78" y="1057.57" width="55.04" height="72.49"/><text class="cls-2" transform="translate(410.65 1099.11)"><tspan x="0" y="0">403</tspan></text></g><g id="Layer_404"><rect class="cls-6" x="457.82" y="1057.57" width="59.35" height="72.49"/><text class="cls-2" transform="translate(467.9 1098.09)"><tspan x="0" y="0">404</tspan></text></g><g id="Layer_405"><rect class="cls-6" x="516.18" y="1057.57" width="57.65" height="72.49"/><text class="cls-2" transform="translate(525.56 1097.08)"><tspan x="0" y="0">405</tspan></text></g><g id="Layer_406"><rect class="cls-6" x="573.84" y="1057.57" width="57.65" height="72.49"/><text class="cls-2" transform="translate(583.02 1097.08)"><tspan x="0" y="0">406</tspan></text></g><g id="Layer_407"><rect class="cls-6" x="631.49" y="1057.57" width="57.65" height="72.49"/><text class="cls-2" transform="translate(641.48 1097.08)"><tspan x="0" y="0">407</tspan></text></g><g id="Layer_408"><rect class="cls-6" x="686.79" y="1057.57" width="57.65" height="72.49"/><text class="cls-2" transform="translate(695.8 1097.08)"><tspan x="0" y="0">408</tspan></text></g><g id="Layer_409"><rect class="cls-6" x="744.44" y="1057.57" width="57.65" height="72.49"/><text class="cls-2" transform="translate(753.62 1097.08)"><tspan x="0" y="0">409</tspan></text></g><g id="Layer_410"><rect class="cls-6" x="802.1" y="1057.57" width="57.65" height="72.49"/><text class="cls-2" transform="translate(813.32 1097.08)"><tspan class="cls-3" x="0" y="0">4</tspan><tspan x="12.53" y="0">10</tspan></text></g><g id="Layer_411"><rect class="cls-6" x="859.75" y="1057.57" width="57.65" height="72.49"/><text class="cls-2" transform="translate(873.06 1097.08)"><tspan class="cls-3" x="0" y="0">4</tspan><tspan x="12.53" y="0">11</tspan></text></g><g id="Layer_412"><rect class="cls-6" x="917.4" y="1057.57" width="57.65" height="72.49"/><text class="cls-2" transform="translate(929.05 1097.08)"><tspan class="cls-3" x="0" y="0">4</tspan><tspan x="12.53" y="0">12</tspan></text></g><g id="Layer_413"><rect class="cls-6" x="975.06" y="1057.22" width="57.65" height="72.49"/><text class="cls-2" transform="translate(986.49 1096.74)"><tspan class="cls-3" x="0" y="0">4</tspan><tspan x="12.53" y="0">13</tspan></text></g><g id="Layer_414"><rect class="cls-6" x="1032.71" y="1057.22" width="57.65" height="72.49"/><text class="cls-2" transform="translate(1044.2 1096.74)"><tspan class="cls-3" x="0" y="0">4</tspan><tspan x="12.53" y="0">14</tspan></text></g><g id="Layer_415"><rect class="cls-6" x="1088.33" y="1057.22" width="57.65" height="72.49"/><text class="cls-2" transform="translate(1099.97 1096.74)"><tspan class="cls-3" x="0" y="0">4</tspan><tspan x="12.53" y="0">15</tspan></text></g><g id="Layer_416"><rect class="cls-6" x="1206.52" y="1057.22" width="57.65" height="72.49"/><text class="cls-2" transform="translate(1217.97 1096.74)"><tspan class="cls-3" x="0" y="0">4</tspan><tspan x="12.53" y="0">16</tspan></text></g><g id="Layer_417"><rect class="cls-6" x="1261.72" y="1057.22" width="57.65" height="72.49"/><text class="cls-2" transform="translate(1273.98 1096.74)"><tspan class="cls-3" x="0" y="0">4</tspan><tspan x="12.53" y="0">17</tspan></text></g><g id="Layer_418"><rect class="cls-6" x="1319.39" y="1057.22" width="57.65" height="72.49"/><text class="cls-2" transform="translate(1330.66 1096.74)"><tspan class="cls-3" x="0" y="0">4</tspan><tspan x="12.53" y="0">18</tspan></text></g><g id="Layer_419"><rect class="cls-6" x="1375.83" y="1057.22" width="57.65" height="72.49"/><text class="cls-2" transform="translate(1387.28 1096.74)"><tspan class="cls-3" x="0" y="0">4</tspan><tspan x="12.53" y="0">19</tspan></text></g><g id="Layer_420"><rect class="cls-6" x="1433.64" y="1057.22" width="57.65" height="72.49"/><text class="cls-2" transform="translate(1443.02 1096.74)"><tspan x="0" y="0">420</tspan></text></g><g id="Layer_421"><rect class="cls-6" x="1491.3" y="1057.22" width="69.56" height="72.49"/><text class="cls-2" transform="translate(1509 1096.74)"><tspan x="0" y="0">421</tspan></text></g><g id="Layer_422"><rect class="cls-6" x="1326.69" y="889.66" width="63.61" height="131.27"/><text class="cls-2" transform="translate(1339.65 959.61)"><tspan x="0" y="0">425</tspan></text></g><g id="Layer_423"><rect class="cls-6" x="1390.3" y="889.66" width="64.36" height="115.95" transform="translate(2844.96 1895.27) rotate(180)"/><text class="cls-2" transform="translate(1403.57 953.71)"><tspan x="0" y="0">4</tspan><tspan class="cls-11" x="12.89" y="0">2</tspan><tspan x="24.93" y="0">4</tspan></text></g><g id="Layer_424"><rect class="cls-6" x="1451.63" y="889.85" width="58.09" height="115.95" transform="translate(2961.34 1895.64) rotate(180)"/><text class="cls-2" transform="translate(1461.74 953.89)"><tspan x="0" y="0">423</tspan></text></g><g id="Layer_425"><rect class="cls-6" x="1509.72" y="889.85" width="51.85" height="115.95"/><text class="cls-2" transform="translate(1516.5 953.05)"><tspan x="0" y="0">422</tspan></text></g><g id="Layer_426"><polygon class="cls-6" points="1251.85 951.12 1251.85 889.66 1206.52 889.66 1206.52 991.16 1241.72 991.16 1241.72 991.37 1276.4 991.37 1276.4 951.12 1251.85 951.12"/><text class="cls-2" transform="translate(1220.1 975.91)"><tspan x="0" y="0">426</tspan></text></g><g id="Layer_426A"><rect class="cls-6" x="1251.85" y="889.66" width="24.55" height="61.46"/><text class="cls-1" transform="translate(1246.52 925.07)"><tspan x="0" y="0">426A</tspan></text></g><g id="Layer_427"><rect class="cls-6" x="1146.42" y="966.71" width="60.1" height="55.62"/><text class="cls-2" transform="translate(1156.72 999.02)"><tspan x="0" y="0">427</tspan></text></g><g id="Layer_428"><rect class="cls-6" x="1036.84" y="910.93" width="56.47" height="92.41"/><text class="cls-2" transform="translate(1045.9 960.82)"><tspan x="0" y="0">428</tspan></text></g><g id="Layer_429"><rect class="cls-6" x="922.96" y="910.93" width="113.88" height="92.41" transform="translate(1959.8 1914.26) rotate(180)"/><text class="cls-2" transform="translate(960.68 959.61)"><tspan x="0" y="0">429</tspan></text></g><g id="Layer_430"><rect class="cls-6" x="864.89" y="910.93" width="58.07" height="92.41"/><text class="cls-2" transform="translate(874.27 959.61)"><tspan x="0" y="0">430</tspan></text></g><g id="Layer_431"><rect class="cls-6" x="804.17" y="910.93" width="60.72" height="92.41" transform="translate(1669.06 1914.26) rotate(180)"/><text class="cls-2" transform="translate(818.8 959.11)"><tspan x="0" y="0">4</tspan><tspan class="cls-12" x="12.89" y="0">3</tspan><tspan class="cls-13" x="25.7" y="0">1</tspan></text></g><g id="Layer_432"><rect class="cls-6" x="693" y="910.93" width="111.16" height="92.41"/><text class="cls-2" transform="translate(729.64 960.82)"><tspan x="0" y="0">432</tspan></text></g><g id="Layer_toilet1"><path class="cls-9" d="m572.77,910v115.62h60.54v-115.62h-60.54Z"/></g><g id="Layer_toilet2"><rect class="cls-9" x="633.31" y="910" width="59.7" height="115.62" transform="translate(1326.31 1935.61) rotate(180)"/></g><g id="Layer_437"><rect class="cls-6" x="171.57" y="910.57" width="115.97" height="102.41"/><text class="cls-2" transform="translate(210.94 966.21)"><tspan x="0" y="0">437</tspan></text></g><g id="Layer_436"><rect class="cls-6" x="287.55" y="910.57" width="113.25" height="79.52" transform="translate(688.34 1900.66) rotate(180)"/><text class="cls-2" transform="translate(327.25 954.65)"><tspan x="0" y="0">436</tspan></text></g><g id="Layer_L501"><rect class="cls-6" x="307.23" y="838.24" width="126.79" height="72.33"/><text class="cls-2" transform="translate(347.52 880.37)"><tspan x="0" y="0">L501</tspan></text></g><g id="Layer_L502"><rect class="cls-6" x="307.23" y="776.56" width="126.79" height="61.67"/><text class="cls-2" transform="translate(345.86 813.51)"><tspan x="0" y="0">L502</tspan></text></g><g id="Layer_L503"><rect class="cls-6" x="307.23" y="663.65" width="126.79" height="112.91"/><text class="cls-2" transform="translate(345.65 724.36)"><tspan x="0" y="0">L503</tspan></text></g><g id="Layer_L504"><rect class="cls-6" x="307.23" y="604.45" width="126.79" height="59.21"/><text class="cls-2" transform="translate(346.02 640.66)"><tspan x="0" y="0">L504</tspan></text></g><g id="Layer_L505"><rect class="cls-6" x="307.23" y="487.55" width="126.79" height="116.9"/><text class="cls-2" transform="translate(345.86 550.57)"><tspan x="0" y="0">L505</tspan></text></g><g id="Layer_L507"><rect class="cls-6" x="307.23" y="427.39" width="126.79" height="60.16"/><rect class="cls-8" x="307.23" y="427.39" width="65.13" height="60.16"/><text class="cls-2" transform="translate(346.47 461.73)"><tspan x="0" y="0">L507</tspan></text></g><g id="Layer_L508"><rect class="cls-6" x="307.23" y="318.36" width="126.79" height="109.03"/><text class="cls-2" transform="translate(345.49 376.91)"><tspan x="0" y="0">L508</tspan></text></g><g id="Layer_L509"><rect class="cls-6" x="307.23" y="264.07" width="126.79" height="54.3"/><text class="cls-2" transform="translate(345.66 297.32)"><tspan x="0" y="0">L509</tspan></text></g><g id="Layer_L510"><rect class="cls-6" x="476.63" y="311.23" width="126.79" height="116.16"/><text class="cls-2" transform="translate(517.01 372.61)"><tspan x="0" y="0">L</tspan><tspan class="cls-12" x="10.94" y="0">5</tspan><tspan x="23.35" y="0">10</tspan></text></g><g id="Layer_L511"><rect class="cls-6" x="476.63" y="427.39" width="126.79" height="60.16"/><text class="cls-2" transform="translate(519.1 461.36)"><tspan x="0" y="0">L</tspan><tspan class="cls-12" x="10.94" y="0">5</tspan><tspan x="23.35" y="0">11</tspan></text></g><g id="Layer_L512"><rect class="cls-6" x="476.63" y="487.55" width="126.79" height="118.6"/><text class="cls-2" transform="translate(517.43 549.78)"><tspan x="0" y="0">L</tspan><tspan class="cls-12" x="10.94" y="0">5</tspan><tspan x="23.35" y="0">12</tspan></text></g><g id="Layer_L513"><rect class="cls-6" x="476.63" y="606.15" width="126.79" height="113.96"/><text class="cls-2" transform="translate(517.23 666.49)"><tspan x="0" y="0">L</tspan><tspan class="cls-12" x="10.94" y="0">5</tspan><tspan x="23.35" y="0">13</tspan></text></g><g id="Layer_L514"><rect class="cls-6" x="476.63" y="720.11" width="126.79" height="119.65"/><text class="cls-2" transform="translate(517.6 784.52)"><tspan x="0" y="0">L</tspan><tspan class="cls-12" x="10.94" y="0">5</tspan><tspan x="23.35" y="0">14</tspan></text></g><g id="Layer_L515"><rect class="cls-6" x="476.63" y="839.75" width="126.79" height="68.88"/><text class="cls-2" transform="translate(517.76 880.37)"><tspan x="0" y="0">L</tspan><tspan class="cls-12" x="10.94" y="0">5</tspan><tspan x="23.35" y="0">15</tspan></text></g></svg>