<?xml version="1.0" encoding="UTF-8"?><svg
  xmlns="http://www.w3.org/2000/svg"
  viewBox="0 0 1404 1080"
>
  <g id="Layer_border">
    <circle
      cx="314.5"
      cy="221.5"
      r="96"
      fill="#fdf3f2"
      stroke="#e18686"
      stroke-miterlimit="10"
      stroke-width="5"
    />
    <polygon
      points="658 409 599.65 409 578.83 388.17 487 480 520.35 513.35 611.69 422 658 422 658 462 1155 462 1155 409 658 409"
      fill="none"
      stroke="#e18686"
      stroke-miterlimit="10"
      stroke-width="2"
    />
    <path
      d="m921.5,140.5h-493l-3.02.98-15.5,15.5-26-26-159.5,159.5,26,26-19.5,19.5c.17,18.75.34,37.5.52,56.25-10.5,23.69-26,66.83-26,122.76,0,46.4,9.73,89.05,26,122.76v291.74h289v-463.97l57.03-57.03h575.97V140.5h-232Z"
      fill="#fdf3f2"
      stroke="#e18686"
      stroke-miterlimit="10"
      stroke-width="5"
    />
    <rect
      x="340.5"
      y="929.5"
      width="158"
      height="52"
      fill="#fdf3f2"
      stroke="#e18686"
      stroke-miterlimit="10"
      stroke-width="5"
    />
    <rect
      x="529.5"
      y="429.5"
      width="80"
      height="58"
      transform="translate(-157.41 536.99) rotate(-45)"
      fill="#fdf3f2"
      stroke="#e18686"
      stroke-miterlimit="10"
      stroke-width="5"
    />
    <rect
      x="1153.5"
      y="204.5"
      width="45"
      height="176"
      fill="#fdf3f2"
      stroke="#e18686"
      stroke-miterlimit="10"
      stroke-width="5.98"
    />
    <rect
      x="520"
      y="553"
      width="45"
      height="147"
      fill="none"
      stroke="#e18686"
      stroke-miterlimit="10"
      stroke-width="2"
    />
    <polygon
      points="522 732 522 929 340 929 340 1012 522 1012 528 1012 565 1012 565 732 522 732"
      fill="none"
      stroke="#e18686"
      stroke-miterlimit="10"
      stroke-width="2"
    />
    <path
      d="m694,462c-4.43,15.99-16.31,50.55-48,82-31.11,30.88-65.02,42.57-81,47"
      fill="none"
      stroke="#e18686"
      stroke-miterlimit="10"
      stroke-width="2"
    />
  </g>
  <g id="Layer_others">
    <line
      x1="400"
      y1="930"
      x2="400"
      y2="981"
      fill="none"
      stroke="#e18686"
      stroke-miterlimit="10"
      stroke-width="2"
    />
    <line
      x1="410.29"
      y1="930"
      x2="410.29"
      y2="981"
      fill="none"
      stroke="#e18686"
      stroke-miterlimit="10"
      stroke-width="2"
    />
    <line
      x1="420.57"
      y1="930"
      x2="420.57"
      y2="981"
      fill="none"
      stroke="#e18686"
      stroke-miterlimit="10"
      stroke-width="2"
    />
    <line
      x1="430.86"
      y1="930"
      x2="430.86"
      y2="981"
      fill="none"
      stroke="#e18686"
      stroke-miterlimit="10"
      stroke-width="2"
    />
    <line
      x1="441.14"
      y1="930"
      x2="441.14"
      y2="981"
      fill="none"
      stroke="#e18686"
      stroke-miterlimit="10"
      stroke-width="2"
    />
    <line
      x1="451.43"
      y1="930"
      x2="451.43"
      y2="981"
      fill="none"
      stroke="#e18686"
      stroke-miterlimit="10"
      stroke-width="2"
    />
    <line
      x1="461.71"
      y1="930"
      x2="461.71"
      y2="981"
      fill="none"
      stroke="#e18686"
      stroke-miterlimit="10"
      stroke-width="2"
    />
    <line
      x1="472"
      y1="930"
      x2="472"
      y2="981"
      fill="none"
      stroke="#e18686"
      stroke-miterlimit="10"
      stroke-width="2"
    />
    <line
      x1="391.57"
      y1="243.6"
      x2="417.4"
      y2="269.43"
      fill="none"
      stroke="#e18686"
      stroke-miterlimit="10"
      stroke-width="2"
    />
    <line
      x1="394.94"
      y1="240.24"
      x2="420.76"
      y2="266.07"
      fill="none"
      stroke="#e18686"
      stroke-miterlimit="10"
      stroke-width="2"
    />
    <line
      x1="398.3"
      y1="236.88"
      x2="424.13"
      y2="262.7"
      fill="none"
      stroke="#e18686"
      stroke-miterlimit="10"
      stroke-width="2"
    />
    <line
      x1="401.66"
      y1="233.51"
      x2="427.49"
      y2="259.34"
      fill="none"
      stroke="#e18686"
      stroke-miterlimit="10"
      stroke-width="2"
    />
    <line
      x1="405.03"
      y1="230.15"
      x2="430.85"
      y2="255.98"
      fill="none"
      stroke="#e18686"
      stroke-miterlimit="10"
      stroke-width="2"
    />
    <line
      x1="408.39"
      y1="226.78"
      x2="434.22"
      y2="252.61"
      fill="none"
      stroke="#e18686"
      stroke-miterlimit="10"
      stroke-width="2"
    />
    <line
      x1="411.75"
      y1="223.42"
      x2="437.58"
      y2="249.25"
      fill="none"
      stroke="#e18686"
      stroke-miterlimit="10"
      stroke-width="2"
    />
    <line
      x1="415.12"
      y1="220.06"
      x2="440.94"
      y2="245.88"
      fill="none"
      stroke="#e18686"
      stroke-miterlimit="10"
      stroke-width="2"
    />
    <rect
      x="395.16"
      y="226.55"
      width="42.09"
      height="36.52"
      transform="translate(-51.2 366.01) rotate(-45)"
      fill="none"
      stroke="#e18686"
      stroke-miterlimit="10"
      stroke-width="2"
    />
    <line
      x1="415"
      y1="212.45"
      x2="440.83"
      y2="186.62"
      fill="none"
      stroke="#e18686"
      stroke-miterlimit="10"
      stroke-width="2"
    />
    <line
      x1="411.64"
      y1="209.08"
      x2="437.46"
      y2="183.26"
      fill="none"
      stroke="#e18686"
      stroke-miterlimit="10"
      stroke-width="2"
    />
    <line
      x1="408.27"
      y1="205.72"
      x2="434.1"
      y2="179.89"
      fill="none"
      stroke="#e18686"
      stroke-miterlimit="10"
      stroke-width="2"
    />
    <line
      x1="404.91"
      y1="202.36"
      x2="430.73"
      y2="176.53"
      fill="none"
      stroke="#e18686"
      stroke-miterlimit="10"
      stroke-width="2"
    />
    <line
      x1="401.54"
      y1="198.99"
      x2="427.37"
      y2="173.17"
      fill="none"
      stroke="#e18686"
      stroke-miterlimit="10"
      stroke-width="2"
    />
    <line
      x1="398.18"
      y1="195.63"
      x2="424.01"
      y2="169.8"
      fill="none"
      stroke="#e18686"
      stroke-miterlimit="10"
      stroke-width="2"
    />
    <line
      x1="394.82"
      y1="192.26"
      x2="420.64"
      y2="166.44"
      fill="none"
      stroke="#e18686"
      stroke-miterlimit="10"
      stroke-width="2"
    />
    <line
      x1="391.45"
      y1="188.9"
      x2="417.28"
      y2="163.07"
      fill="none"
      stroke="#e18686"
      stroke-miterlimit="10"
      stroke-width="2"
    />
    <rect
      x="395.16"
      y="169.55"
      width="42.09"
      height="36.52"
      transform="translate(577.71 614.92) rotate(-135)"
      fill="none"
      stroke="#e18686"
      stroke-miterlimit="10"
      stroke-width="2"
    />
    <line
      x1="383.84"
      y1="189.02"
      x2="358.02"
      y2="163.19"
      fill="none"
      stroke="#e18686"
      stroke-miterlimit="10"
      stroke-width="2"
    />
    <line
      x1="380.48"
      y1="192.38"
      x2="354.65"
      y2="166.56"
      fill="none"
      stroke="#e18686"
      stroke-miterlimit="10"
      stroke-width="2"
    />
    <line
      x1="377.12"
      y1="195.75"
      x2="351.29"
      y2="169.92"
      fill="none"
      stroke="#e18686"
      stroke-miterlimit="10"
      stroke-width="2"
    />
    <line
      x1="373.75"
      y1="199.11"
      x2="347.92"
      y2="173.28"
      fill="none"
      stroke="#e18686"
      stroke-miterlimit="10"
      stroke-width="2"
    />
    <line
      x1="370.39"
      y1="202.47"
      x2="344.56"
      y2="176.65"
      fill="none"
      stroke="#e18686"
      stroke-miterlimit="10"
      stroke-width="2"
    />
    <line
      x1="367.02"
      y1="205.84"
      x2="341.2"
      y2="180.01"
      fill="none"
      stroke="#e18686"
      stroke-miterlimit="10"
      stroke-width="2"
    />
    <line
      x1="363.66"
      y1="209.2"
      x2="337.83"
      y2="183.37"
      fill="none"
      stroke="#e18686"
      stroke-miterlimit="10"
      stroke-width="2"
    />
    <line
      x1="360.3"
      y1="212.56"
      x2="334.47"
      y2="186.74"
      fill="none"
      stroke="#e18686"
      stroke-miterlimit="10"
      stroke-width="2"
    />
    <rect
      x="338.16"
      y="169.55"
      width="42.09"
      height="36.52"
      transform="translate(746.01 66.62) rotate(135)"
      fill="none"
      stroke="#e18686"
      stroke-miterlimit="10"
      stroke-width="2"
    />
    <rect
      x="265"
      y="272"
      width="38"
      height="38"
      transform="translate(-122.59 286.05) rotate(-45)"
      fill="none"
      stroke="#e18686"
      stroke-miterlimit="10"
      stroke-width="2"
    />
    <rect
      x="306.84"
      y="306.41"
      width="30.31"
      height="30.31"
      transform="translate(-133.07 321.87) rotate(-45)"
      fill="none"
      stroke="#e18686"
      stroke-miterlimit="10"
      stroke-width="2"
    />
    <line
      x1="1197.43"
      y1="255.11"
      x2="1154"
      y2="255.11"
      fill="none"
      stroke="#e18686"
      stroke-miterlimit="10"
      stroke-width="2"
    />
    <line
      x1="1197.43"
      y1="265.4"
      x2="1154"
      y2="265.4"
      fill="none"
      stroke="#e18686"
      stroke-miterlimit="10"
      stroke-width="2"
    />
    <line
      x1="1197.43"
      y1="275.68"
      x2="1154"
      y2="275.68"
      fill="none"
      stroke="#e18686"
      stroke-miterlimit="10"
      stroke-width="2"
    />
    <line
      x1="1197.43"
      y1="285.97"
      x2="1154"
      y2="285.97"
      fill="none"
      stroke="#e18686"
      stroke-miterlimit="10"
      stroke-width="2"
    />
    <line
      x1="1197.43"
      y1="296.25"
      x2="1154"
      y2="296.25"
      fill="none"
      stroke="#e18686"
      stroke-miterlimit="10"
      stroke-width="2"
    />
    <line
      x1="1197.43"
      y1="306.54"
      x2="1154"
      y2="306.54"
      fill="none"
      stroke="#e18686"
      stroke-miterlimit="10"
      stroke-width="2"
    />
    <line
      x1="1197.43"
      y1="316.83"
      x2="1154"
      y2="316.83"
      fill="none"
      stroke="#e18686"
      stroke-miterlimit="10"
      stroke-width="2"
    />
    <line
      x1="1197.43"
      y1="327.11"
      x2="1154"
      y2="327.11"
      fill="none"
      stroke="#e18686"
      stroke-miterlimit="10"
      stroke-width="2"
    />
    <line
      x1="540"
      y1="620.01"
      x2="565"
      y2="620.01"
      fill="none"
      stroke="#e18686"
      stroke-miterlimit="10"
      stroke-width="2"
    />
    <line
      x1="540"
      y1="612.87"
      x2="565"
      y2="612.87"
      fill="none"
      stroke="#e18686"
      stroke-miterlimit="10"
      stroke-width="2"
    />
    <line
      x1="540"
      y1="605.72"
      x2="565"
      y2="605.72"
      fill="none"
      stroke="#e18686"
      stroke-miterlimit="10"
      stroke-width="2"
    />
    <line
      x1="540"
      y1="598.58"
      x2="565"
      y2="598.58"
      fill="none"
      stroke="#e18686"
      stroke-miterlimit="10"
      stroke-width="2"
    />
    <line
      x1="540"
      y1="591.43"
      x2="565"
      y2="591.43"
      fill="none"
      stroke="#e18686"
      stroke-miterlimit="10"
      stroke-width="2"
    />
    <line
      x1="540"
      y1="584.29"
      x2="565"
      y2="584.29"
      fill="none"
      stroke="#e18686"
      stroke-miterlimit="10"
      stroke-width="2"
    />
    <line
      x1="540"
      y1="577.14"
      x2="565"
      y2="577.15"
      fill="none"
      stroke="#e18686"
      stroke-miterlimit="10"
      stroke-width="2"
    />
    <line
      x1="540"
      y1="570"
      x2="565"
      y2="570"
      fill="none"
      stroke="#e18686"
      stroke-miterlimit="10"
      stroke-width="2"
    />
    <line
      x1="540"
      y1="620.01"
      x2="565"
      y2="620.01"
      fill="none"
      stroke="#e18686"
      stroke-miterlimit="10"
      stroke-width="2"
    />
    <line
      x1="540"
      y1="627.87"
      x2="565"
      y2="627.87"
      fill="none"
      stroke="#e18686"
      stroke-miterlimit="10"
      stroke-width="2"
    />
    <line
      x1="540"
      y1="635.72"
      x2="565"
      y2="635.72"
      fill="none"
      stroke="#e18686"
      stroke-miterlimit="10"
      stroke-width="2"
    />
    <line
      x1="540"
      y1="643.58"
      x2="565"
      y2="643.58"
      fill="none"
      stroke="#e18686"
      stroke-miterlimit="10"
      stroke-width="2"
    />
    <line
      x1="540"
      y1="651.43"
      x2="565"
      y2="651.43"
      fill="none"
      stroke="#e18686"
      stroke-miterlimit="10"
      stroke-width="2"
    />
    <line
      x1="540"
      y1="659.29"
      x2="565"
      y2="659.29"
      fill="none"
      stroke="#e18686"
      stroke-miterlimit="10"
      stroke-width="2"
    />
    <line
      x1="540"
      y1="667.14"
      x2="565"
      y2="667.14"
      fill="none"
      stroke="#e18686"
      stroke-miterlimit="10"
      stroke-width="2"
    />
    <line
      x1="540"
      y1="675"
      x2="565"
      y2="675"
      fill="none"
      stroke="#e18686"
      stroke-miterlimit="10"
      stroke-width="2"
    />
    <line
      x1="540"
      y1="553"
      x2="540"
      y2="700"
      fill="none"
      stroke="#e18686"
      stroke-miterlimit="10"
      stroke-width="2"
    />
  </g>
  <g id="Layer_104">
    <rect
      x="425"
      y="700"
      width="93"
      height="173"
      fill="#f8cdce"
      stroke="#e18686"
      stroke-miterlimit="10"
      stroke-width="2"
    />
    <text
      transform="translate(449.79 791.65)"
      fill="#434142"
      font-family="NanumSquareNeovariable-Heavy, 'NanumSquare Neo variable'"
      font-size="22"
      font-variation-settings="'wght' 900"
      font-weight="800"
    >
      <tspan x="0" y="0">104</tspan>
    </text>
  </g>
  <g id="Layer_103">
    <rect
      x="425"
      y="873"
      width="93"
      height="54"
      fill="#f8cdce"
      stroke="#e18686"
      stroke-miterlimit="10"
      stroke-width="2"
    />
    <text
      transform="translate(450.08 905.73)"
      fill="#434142"
      font-family="NanumSquareNeovariable-Heavy, 'NanumSquare Neo variable'"
      font-size="22"
      font-variation-settings="'wght' 900"
      font-weight="800"
    >
      <tspan x="0" y="0">103</tspan>
    </text>
  </g>
  <g id="Layer_105">
    <rect
      x="425"
      y="523"
      width="93"
      height="177"
      fill="#f8cdce"
      stroke="#e18686"
      stroke-miterlimit="10"
      stroke-width="2"
    />
    <text
      transform="translate(449.91 614.37)"
      fill="#434142"
      font-family="NanumSquareNeovariable-Heavy, 'NanumSquare Neo variable'"
      font-size="22"
      font-variation-settings="'wght' 900"
      font-weight="800"
    >
      <tspan x="0" y="0">105</tspan>
    </text>
  </g>
  <g id="Layer_102">
    <rect
      x="234"
      y="700"
      width="145"
      height="227"
      fill="#f8cdce"
      stroke="#e18686"
      stroke-miterlimit="10"
      stroke-width="2"
    />
    <text
      transform="translate(283.65 816.62)"
      fill="#434142"
      font-family="NanumSquareNeovariable-Heavy, 'NanumSquare Neo variable'"
      font-size="22"
      font-variation-settings="'wght' 900"
      font-weight="800"
    >
      <tspan x="0" y="0">102</tspan>
    </text>
  </g>
  <g id="Layer_101">
    <path
      d="m234,700h145v-347h-145v40.58c-10.43,23.31-25.24,64.38-26,117.42-.83,57.65,15.32,102.12,26,126v63Z"
      fill="#f8cdce"
      stroke="#e18686"
      stroke-miterlimit="10"
      stroke-width="2"
    />
    <text
      transform="translate(282.38 528.66)"
      fill="#434142"
      font-family="NanumSquareNeovariable-Heavy, 'NanumSquare Neo variable'"
      font-size="22"
      font-variation-settings="'wght' 900"
      font-weight="800"
    >
      <tspan x="0" y="0">101</tspan>
    </text>
  </g>
  <g id="Layer_106">
    <rect
      x="626"
      y="321"
      width="62"
      height="85"
      fill="#f8cdce"
      stroke="#e18686"
      stroke-miterlimit="10"
      stroke-width="2"
    />
    <text
      transform="translate(635.41 369.19)"
      fill="#434142"
      font-family="NanumSquareNeovariable-Heavy, 'NanumSquare Neo variable'"
      font-size="22"
      font-variation-settings="'wght' 900"
      font-weight="800"
    >
      <tspan x="0" y="0">106</tspan>
    </text>
  </g>
  <g id="Layer_107">
    <rect
      x="687.86"
      y="321"
      width="226"
      height="85"
      transform="translate(1601.73 727) rotate(180)"
      fill="#f8cdce"
      stroke="#e18686"
      stroke-miterlimit="10"
      stroke-width="2"
    />
    <text
      transform="translate(780.06 367.41)"
      fill="#434142"
      font-family="NanumSquareNeovariable-Heavy, 'NanumSquare Neo variable'"
      font-size="22"
      font-variation-settings="'wght' 900"
      font-weight="800"
    >
      <tspan x="0" y="0">107</tspan>
    </text>
  </g>
  <g id="Layer_108">
    <rect
      x="914"
      y="321"
      width="236"
      height="85"
      fill="#f8cdce"
      stroke="#e18686"
      stroke-miterlimit="10"
      stroke-width="2"
    />
    <text
      transform="translate(1015.79 368.58)"
      fill="#434142"
      font-family="NanumSquareNeovariable-Heavy, 'NanumSquare Neo variable'"
      font-size="22"
      font-variation-settings="'wght' 900"
      font-weight="800"
    >
      <tspan x="0" y="0">108</tspan>
    </text>
  </g>
  <g id="Layer_109">
    <rect
      x="901"
      y="141"
      width="249"
      height="145"
      fill="#f8cdce"
      stroke="#e18686"
      stroke-miterlimit="10"
      stroke-width="2"
    />
    <text
      transform="translate(1005.93 219.73)"
      fill="#434142"
      font-family="NanumSquareNeovariable-Heavy, 'NanumSquare Neo variable'"
      font-size="22"
      font-variation-settings="'wght' 900"
      font-weight="800"
    >
      <tspan x="0" y="0">109</tspan>
    </text>
  </g>
  <g id="Layer_109A">
    <rect
      x="800"
      y="141"
      width="101"
      height="145"
      transform="translate(1701 427) rotate(180)"
      fill="#f8cdce"
      stroke="#e18686"
      stroke-miterlimit="10"
      stroke-width="2"
    />
    <text
      transform="translate(820.15 205.73)"
      fill="#434142"
      font-family="NanumSquareNeovariable-Heavy, 'NanumSquare Neo variable'"
      font-size="22"
      font-variation-settings="'wght' 900"
      font-weight="800"
    >
      <tspan x="0" y="0">109A</tspan>
    </text>
    <text
      transform="translate(813.75 226.73)"
      fill="#434142"
      font-family="NanumSquareNeovariable-Regular, 'NanumSquare Neo variable'"
      font-size="13"
      font-variation-settings="'wght' 300"
    >
      <tspan x="0" y="0">건강기능식품</tspan>
      <tspan x="12.32" y="15.6">연구센터</tspan>
    </text>
  </g>
  <g id="Layer_110">
    <rect
      x="577"
      y="141"
      width="223"
      height="145"
      fill="#f8cdce"
      stroke="#e18686"
      stroke-miterlimit="10"
      stroke-width="2"
    />
    <text
      transform="translate(672.21 202.73)"
      fill="#434142"
      font-family="NanumSquareNeovariable-Heavy, 'NanumSquare Neo variable'"
      font-size="22"
      font-variation-settings="'wght' 900"
      font-weight="800"
    >
      <tspan x="0" y="0">110</tspan>
    </text>
    <text
      transform="translate(618.73 232.73)"
      fill="#434142"
      font-family="NanumSquareNeovariable-Regular, 'NanumSquare Neo variable'"
      font-size="22"
      font-variation-settings="'wght' 300"
    >
      <tspan x="0" y="0">일반화학실험실</tspan>
    </text>
  </g>
  <g id="Layer_toilet1">
    <polygon
      points="516.5 142.5 516.5 224.5 546.5 224.5 546.5 285.5 576.5 285.5 576.5 224.5 576.5 142.5 516.5 142.5"
      fill="none"
      stroke="#e18686"
      stroke-miterlimit="10"
      stroke-width="2"
    />
  </g>
  <g id="Layer_toilet2">
    <polygon
      points="516.5 142.5 516.5 224.5 486.25 224.5 486.25 285.5 456 285.5 456 224.5 456 142.5 516.5 142.5"
      fill="none"
      stroke="#e18686"
      stroke-miterlimit="10"
      stroke-width="2.01"
    />
  </g>
</svg>
