<?xml version="1.0" encoding="UTF-8"?><svg xmlns="http://www.w3.org/2000/svg" viewBox="0 0 1800 1400"><defs><style>.cls-1{font-size:25px;}.cls-1,.cls-2{fill:#231815;font-family:NanumSquareNeovariable-ExtraBold, 'NanumSquare Neo variable';font-variation-settings:'wght' 700;font-weight:700;}.cls-3{fill:#fdf2f1;stroke-width:10px;}.cls-3,.cls-4,.cls-5{stroke:#e08686;stroke-miterlimit:10;}.cls-4{fill:none;}.cls-4,.cls-5{stroke-width:3px;}.cls-6{letter-spacing:0em;}.cls-2{font-size:32px;}.cls-7{letter-spacing:-.02em;}.cls-5{fill:#f8cdcd;}</style></defs><g id="_레이어_x5F_배경"><rect class="cls-3" x="100.91" y="72.43" width="1499.56" height="1274.97"/></g><g id="_레이어_x5F_others"><rect class="cls-4" x="1051.5" y="78.05" width="156.88" height="197.44"/><line class="cls-4" x1="1156.37" y1="344.78" x2="1156.37" y2="489.03"/><line class="cls-4" x1="1166.37" y1="344.78" x2="1166.37" y2="489.03"/><line class="cls-4" x1="1176.37" y1="344.78" x2="1176.37" y2="489.03"/><line class="cls-4" x1="1186.37" y1="344.78" x2="1186.37" y2="489.03"/><line class="cls-4" x1="1196.37" y1="344.78" x2="1196.37" y2="489.03"/><line class="cls-4" x1="1206.37" y1="344.78" x2="1206.37" y2="489.03"/><line class="cls-4" x1="1216.37" y1="344.78" x2="1216.37" y2="489.03"/><line class="cls-4" x1="1226.37" y1="344.78" x2="1226.37" y2="489.03"/><line class="cls-4" x1="1236.37" y1="344.78" x2="1236.37" y2="489.03"/><line class="cls-4" x1="1246.37" y1="344.78" x2="1246.37" y2="489.03"/><line class="cls-4" x1="1256.37" y1="344.78" x2="1256.37" y2="489.03"/><line class="cls-4" x1="1266.37" y1="344.78" x2="1266.37" y2="489.03"/><line class="cls-4" x1="1276.37" y1="344.78" x2="1276.37" y2="489.03"/><rect class="cls-4" x="135.81" y="1167.67" width="297.07" height="173.96"/><rect class="cls-4" x="1266.37" y="78.05" width="170.11" height="197.44"/><rect class="cls-4" x="1436.48" y="78.05" width="157.5" height="163.99"/><rect class="cls-4" x="1436.48" y="300.01" width="157.5" height="163.99"/><rect class="cls-4" x="1436.48" y="463.99" width="157.5" height="90.69"/><rect class="cls-4" x="1436.48" y="554.69" width="157.5" height="90.69"/><rect class="cls-4" x="1047.84" y="344.39" width="303.59" height="145.04"/><rect class="cls-4" x="1047.84" y="489.42" width="303.59" height="155.96"/><rect class="cls-4" x="795.56" y="791.81" width="255.94" height="554.6"/><line class="cls-4" x1="199.78" y1="1167.67" x2="199.78" y2="1341.55"/><line class="cls-4" x1="209.78" y1="1167.67" x2="209.78" y2="1341.55"/><line class="cls-4" x1="219.78" y1="1167.67" x2="219.78" y2="1341.55"/><line class="cls-4" x1="229.78" y1="1167.67" x2="229.78" y2="1341.55"/><line class="cls-4" x1="239.78" y1="1167.67" x2="239.78" y2="1341.55"/><line class="cls-4" x1="249.78" y1="1167.67" x2="249.78" y2="1341.55"/><line class="cls-4" x1="259.78" y1="1167.67" x2="259.78" y2="1341.55"/><line class="cls-4" x1="269.78" y1="1167.67" x2="269.78" y2="1341.55"/><line class="cls-4" x1="279.78" y1="1167.67" x2="279.78" y2="1341.55"/><line class="cls-4" x1="289.78" y1="1167.67" x2="289.78" y2="1341.55"/><line class="cls-4" x1="299.78" y1="1167.67" x2="299.78" y2="1341.55"/><line class="cls-4" x1="309.78" y1="1167.67" x2="309.78" y2="1341.55"/><line class="cls-4" x1="319.78" y1="1167.67" x2="319.78" y2="1341.55"/><line class="cls-4" x1="329.78" y1="1167.67" x2="329.78" y2="1341.55"/><line class="cls-4" x1="339.78" y1="1167.67" x2="339.78" y2="1341.55"/><line class="cls-4" x1="349.78" y1="1167.67" x2="349.78" y2="1341.55"/><text class="cls-1" transform="translate(1491.38 366.17)"><tspan x="0" y="0">9</tspan><tspan class="cls-7" x="17.78" y="0">9</tspan><tspan class="cls-6" x="35.05" y="0">4A</tspan></text></g><g id="_레이어_x5F_201"><rect class="cls-5" x="509.02" y="75.43" width="542.48" height="593.98"/><text class="cls-2" transform="translate(749.54 343.6)"><tspan x="0" y="0">201</tspan><tspan x="-105.79" y="38.4">전략광물자원연구소</tspan></text></g><g id="_레이어_x5F_202"><rect class="cls-5" x="514.34" y="791.81" width="281.22" height="554.6"/><text class="cls-2" transform="translate(621.11 1069.11)"><tspan x="0" y="0">202</tspan><tspan x="-87.5" y="38.4">화학분석전처리실</tspan></text></g><g id="_레이어_x5F_203"><rect class="cls-5" x="1051.5" y="791.81" width="542.48" height="549.75"/><text class="cls-2" transform="translate(1300.55 1035.77)"><tspan x="0" y="0">203</tspan><tspan x="-64.19" y="38.4">메디힐-에이스</tspan><tspan x="-56.83" y="76.8">첨단기기센터</tspan></text></g></svg>