<?xml version="1.0" encoding="UTF-8"?><svg
  xmlns="http://www.w3.org/2000/svg"
  viewBox="0 0 2500 1100"
>
  <g id="Layer_border">
    <rect
      x="100.18"
      y="273.35"
      width="36.46"
      height="160.53"
      fill="#fef3f2"
      stroke="#ea8b8b"
      stroke-miterlimit="10"
      stroke-width="9.72"
    />
    <rect
      x="100.18"
      y="553.06"
      width="36.46"
      height="160.53"
      fill="#fef3f2"
      stroke="#ea8b8b"
      stroke-miterlimit="10"
      stroke-width="9.72"
    />
    <rect
      x="528.48"
      y="194.13"
      width="99.96"
      height="60.81"
      fill="#fef3f2"
      stroke="#ea8b8b"
      stroke-miterlimit="10"
      stroke-width="10"
    />
    <rect
      x="1907.63"
      y="194.13"
      width="99.96"
      height="60.81"
      fill="#fef3f2"
      stroke="#ea8b8b"
      stroke-miterlimit="10"
      stroke-width="10"
    />
    <rect x="1080.98" y="694.64" width="376.53" height="246.8" fill="#fef3f2" />
    <path
      d="m1452.74,699.41v237.28h-367v-237.28h367m9.53-9.53h-386.05v256.33h386.05v-256.33h0Z"
      fill="#ea8b8b"
    />
    <rect x="1457.25" y="809.52" width="76.76" height="108.53" fill="#fef3f2" />
    <path
      d="m1529.02,814.51v98.53h-66.77v-98.53h66.77m9.99-9.99h-86.75v118.52h86.75v-118.52h0Z"
      fill="#ea8b8b"
    />
    <rect x="1004.47" y="809.52" width="76.76" height="108.53" fill="#fef3f2" />
    <path
      d="m1076.23,814.51v98.53h-66.77v-98.53h66.77m9.99-9.99h-86.75v118.52h86.75v-118.52h0Z"
      fill="#ea8b8b"
    />
    <polygon
      points="1459.09 784.04 1459.09 739.37 1412.37 739.37 1412.37 706.28 1123.71 706.28 1123.71 739.37 1076.98 739.37 1076.98 784.04 131.25 784.04 131.25 205.12 372.04 205.12 372.04 247.98 1071.25 247.98 1071.25 158.32 1128.97 158.32 1128.97 212.11 1407.11 212.11 1407.11 158.32 1464.83 158.32 1464.83 247.98 2164.04 247.98 2164.04 205.12 2404.82 205.12 2404.82 784.04 1459.09 784.04"
      fill="#fef3f2"
    />
    <path
      d="m1459.83,163.32v89.66h709.21v-42.86h230.78v568.93h-935.73v-44.68h-46.73v-33.09h-298.66v33.09h-46.73v44.68H136.25V210.12h230.78v42.86h709.21v-89.66h47.72v53.79h288.14v-53.79h47.72m10-10h-67.72v53.79h-268.14v-53.79h-67.72v89.66H377.03v-42.86H126.25v588.93h955.73v-44.68h46.73v-33.09h278.66v33.09h46.73v44.68h955.73V200.12h-250.78v42.86h-689.21v-89.66h0Z"
      fill="#ea8b8b"
    />
    <rect
      x="1080.74"
      y="774.04"
      width="377.02"
      height="167.64"
      fill="#fef3f2"
    />
    <path
      d="m1452.76,779.04v157.64h-367.02v-157.64h367.02m10-10h-387.02v177.64h387.02v-177.64h0Z"
      fill="#ea8b8b"
    />
    <polygon
      points="2169.04 210.12 2169.04 252.98 1459.83 252.98 1459.83 163.32 1412.11 163.32 1412.11 217.11 1123.97 217.11 1123.97 163.32 1076.25 163.32 1076.25 252.98 367.03 252.98 367.03 210.12 136.25 210.12 136.25 252.98 136.25 408.35 136.25 779.04 1071.98 779.04 1071.98 734.37 1118.71 734.37 1118.71 701.28 1417.37 701.28 1417.37 734.37 1464.09 734.37 1464.09 779.04 2399.82 779.04 2399.82 408.35 2399.82 252.98 2399.82 210.12 2169.04 210.12"
      fill="none"
    />
  </g>
  <g id="Layer_others">
    <line
      x1="1258.41"
      y1="217.11"
      x2="1258.41"
      y2="448.61"
      fill="none"
      opacity=".7"
      stroke="#ea8b8b"
      stroke-miterlimit="10"
      stroke-width="9.88"
    />
    <rect
      x="1259.59"
      y="265.15"
      width="200.38"
      height="89.29"
      fill="#fef3f2"
      stroke="#ea8b8b"
      stroke-miterlimit="10"
      stroke-width="3.13"
    />
    <line
      x1="1461.07"
      y1="279.67"
      x2="1258.41"
      y2="279.67"
      fill="none"
      stroke="#ea8b8b"
      stroke-miterlimit="10"
      stroke-width="2.08"
    />
    <line
      x1="1461.07"
      y1="294.73"
      x2="1258.41"
      y2="294.73"
      fill="none"
      stroke="#ea8b8b"
      stroke-miterlimit="10"
      stroke-width="2.08"
    />
    <line
      x1="1461.07"
      y1="309.79"
      x2="1258.41"
      y2="309.79"
      fill="none"
      stroke="#ea8b8b"
      stroke-miterlimit="10"
      stroke-width="2.08"
    />
    <line
      x1="1461.07"
      y1="324.85"
      x2="1258.41"
      y2="324.85"
      fill="none"
      stroke="#ea8b8b"
      stroke-miterlimit="10"
      stroke-width="2.08"
    />
    <line
      x1="1461.07"
      y1="339.91"
      x2="1258.41"
      y2="339.91"
      fill="none"
      stroke="#ea8b8b"
      stroke-miterlimit="10"
      stroke-width="2.08"
    />
    <line
      x1="1061.87"
      y1="814.51"
      x2="1061.87"
      y2="913.05"
      fill="none"
      stroke="#ea8b8b"
      stroke-miterlimit="10"
      stroke-width="1.98"
    />
    <line
      x1="1052.36"
      y1="814.51"
      x2="1052.36"
      y2="913.05"
      fill="none"
      stroke="#ea8b8b"
      stroke-miterlimit="10"
      stroke-width="1.98"
    />
    <line
      x1="1042.85"
      y1="814.51"
      x2="1042.85"
      y2="913.05"
      fill="none"
      stroke="#ea8b8b"
      stroke-miterlimit="10"
      stroke-width="1.98"
    />
    <line
      x1="1033.34"
      y1="814.51"
      x2="1033.34"
      y2="913.05"
      fill="none"
      stroke="#ea8b8b"
      stroke-miterlimit="10"
      stroke-width="1.98"
    />
    <line
      x1="1023.83"
      y1="814.51"
      x2="1023.83"
      y2="913.05"
      fill="none"
      stroke="#ea8b8b"
      stroke-miterlimit="10"
      stroke-width="1.98"
    />
    <line
      x1="1514.65"
      y1="814.51"
      x2="1514.65"
      y2="913.05"
      fill="none"
      stroke="#ea8b8b"
      stroke-miterlimit="10"
      stroke-width="1.98"
    />
    <line
      x1="1505.14"
      y1="814.51"
      x2="1505.14"
      y2="913.05"
      fill="none"
      stroke="#ea8b8b"
      stroke-miterlimit="10"
      stroke-width="1.98"
    />
    <line
      x1="1495.63"
      y1="814.51"
      x2="1495.63"
      y2="913.05"
      fill="none"
      stroke="#ea8b8b"
      stroke-miterlimit="10"
      stroke-width="1.98"
    />
    <line
      x1="1486.12"
      y1="814.51"
      x2="1486.12"
      y2="913.05"
      fill="none"
      stroke="#ea8b8b"
      stroke-miterlimit="10"
      stroke-width="1.98"
    />
    <line
      x1="1476.62"
      y1="814.51"
      x2="1476.62"
      y2="913.05"
      fill="none"
      stroke="#ea8b8b"
      stroke-miterlimit="10"
      stroke-width="1.98"
    />
    <rect
      x="2283.69"
      y="210.5"
      width="116.77"
      height="230.44"
      fill="#fed0d0"
      stroke="#ea8b8b"
      stroke-miterlimit="10"
      stroke-width="2.9"
    />
    <rect
      x="2283.68"
      y="212.44"
      width="116.11"
      height="141.95"
      fill="#fef3f2"
      stroke="#ea8b8b"
      stroke-miterlimit="10"
      stroke-width="3"
    />
    <line
      x1="2400.43"
      y1="228.49"
      x2="2283"
      y2="228.49"
      fill="none"
      stroke="#ea8b8b"
      stroke-miterlimit="10"
      stroke-width="2"
    />
    <line
      x1="2400.43"
      y1="246.79"
      x2="2283"
      y2="246.79"
      fill="none"
      stroke="#ea8b8b"
      stroke-miterlimit="10"
      stroke-width="2"
    />
    <line
      x1="2400.43"
      y1="265.1"
      x2="2283"
      y2="265.1"
      fill="none"
      stroke="#ea8b8b"
      stroke-miterlimit="10"
      stroke-width="2"
    />
    <line
      x1="2400.43"
      y1="283.41"
      x2="2283"
      y2="283.41"
      fill="none"
      stroke="#ea8b8b"
      stroke-miterlimit="10"
      stroke-width="2"
    />
    <line
      x1="2400.43"
      y1="301.72"
      x2="2283"
      y2="301.72"
      fill="none"
      stroke="#ea8b8b"
      stroke-miterlimit="10"
      stroke-width="2"
    />
    <line
      x1="2400.43"
      y1="320.03"
      x2="2283"
      y2="320.03"
      fill="none"
      stroke="#ea8b8b"
      stroke-miterlimit="10"
      stroke-width="2"
    />
    <line
      x1="2400.45"
      y1="338.34"
      x2="2283.02"
      y2="338.34"
      fill="none"
      stroke="#ea8b8b"
      stroke-miterlimit="10"
      stroke-width="2"
    />
    <rect
      x="134.68"
      y="210.5"
      width="124.4"
      height="230.44"
      fill="#fed0d0"
      stroke="#ea8b8b"
      stroke-miterlimit="10"
      stroke-width="2.89"
    />
    <rect
      x="135.04"
      y="223.16"
      width="123.69"
      height="141.95"
      fill="#fef3f2"
      stroke="#ea8b8b"
      stroke-miterlimit="10"
      stroke-width="3.1"
    />
    <line
      x1="259.41"
      y1="239.21"
      x2="134.31"
      y2="239.21"
      fill="none"
      stroke="#ea8b8b"
      stroke-miterlimit="10"
      stroke-width="2.06"
    />
    <line
      x1="259.41"
      y1="257.52"
      x2="134.31"
      y2="257.52"
      fill="none"
      stroke="#ea8b8b"
      stroke-miterlimit="10"
      stroke-width="2.06"
    />
    <line
      x1="259.41"
      y1="275.83"
      x2="134.31"
      y2="275.83"
      fill="none"
      stroke="#ea8b8b"
      stroke-miterlimit="10"
      stroke-width="2.06"
    />
    <line
      x1="259.41"
      y1="294.14"
      x2="134.31"
      y2="294.14"
      fill="none"
      stroke="#ea8b8b"
      stroke-miterlimit="10"
      stroke-width="2.06"
    />
    <line
      x1="259.41"
      y1="312.45"
      x2="134.31"
      y2="312.45"
      fill="none"
      stroke="#ea8b8b"
      stroke-miterlimit="10"
      stroke-width="2.06"
    />
    <line
      x1="259.41"
      y1="330.76"
      x2="134.31"
      y2="330.76"
      fill="none"
      stroke="#ea8b8b"
      stroke-miterlimit="10"
      stroke-width="2.06"
    />
    <line
      x1="259.44"
      y1="349.07"
      x2="134.34"
      y2="349.07"
      fill="none"
      stroke="#ea8b8b"
      stroke-miterlimit="10"
      stroke-width="2.06"
    />
  </g>
  <g id="Layer_101">
    <rect
      x="1527.97"
      y="532.24"
      width="110.71"
      height="86.92"
      fill="#fed0d0"
      stroke="#ea8b8b"
      stroke-miterlimit="10"
      stroke-width="3"
    />
    <text
      transform="translate(1554.94 586.85)"
      fill="#424142"
      font-family="NanumSquareNeovariable-Heavy, 'NanumSquare Neo variable'"
      font-size="32"
      font-variation-settings="'wght' 900"
      font-weight="800"
    >
      <tspan x="0" y="0">101</tspan>
    </text>
  </g>
  <g id="Layer_101A">
    <rect
      x="1527.97"
      y="619.15"
      width="110.71"
      height="72.98"
      fill="#fed0d0"
      stroke="#ea8b8b"
      stroke-miterlimit="10"
      stroke-width="3"
    />
    <text
      transform="translate(1542.17 663.38)"
      fill="#424142"
      font-family="NanumSquareNeovariable-Heavy, 'NanumSquare Neo variable'"
      font-size="32"
      font-variation-settings="'wght' 900"
      font-weight="800"
    >
      <tspan x="0" y="0">101A</tspan>
    </text>
  </g>
  <g id="Layer_101B">
    <rect
      x="1527.97"
      y="692.13"
      width="110.71"
      height="86.92"
      fill="#fed0d0"
      stroke="#ea8b8b"
      stroke-miterlimit="10"
      stroke-width="3"
    />
    <text
      transform="translate(1542.76 743.17)"
      fill="#424142"
      font-family="NanumSquareNeovariable-Heavy, 'NanumSquare Neo variable'"
      font-size="32"
      font-variation-settings="'wght' 900"
      font-weight="800"
    >
      <tspan x="0" y="0">101B</tspan>
    </text>
  </g>
  <g id="Layer_102">
    <rect
      x="1638.68"
      y="532.24"
      width="390.15"
      height="246.81"
      fill="#fed0d0"
      stroke="#ea8b8b"
      stroke-miterlimit="10"
      stroke-width="3"
    />
    <text
      transform="translate(1802.41 659.51)"
      fill="#424142"
      font-family="NanumSquareNeovariable-Heavy, 'NanumSquare Neo variable'"
      font-size="32"
      font-variation-settings="'wght' 900"
      font-weight="800"
    >
      <tspan x="0" y="0">102</tspan>
    </text>
  </g>
  <g id="Layer_103">
    <rect
      x="2028.83"
      y="532.24"
      width="370.99"
      height="246.81"
      fill="#fed0d0"
      stroke="#ea8b8b"
      stroke-miterlimit="10"
      stroke-width="3"
    />
    <text
      transform="translate(2182.61 655.64)"
      fill="#424142"
      font-family="NanumSquareNeovariable-Heavy, 'NanumSquare Neo variable'"
      font-size="32"
      font-variation-settings="'wght' 900"
      font-weight="800"
    >
      <tspan x="0" y="0">103</tspan>
    </text>
  </g>
  <g id="Layer_104">
    <rect
      x="2028.83"
      y="254.12"
      width="254.89"
      height="186.82"
      fill="#fed0d0"
      stroke="#ea8b8b"
      stroke-miterlimit="10"
      stroke-width="3"
    />
    <text
      transform="translate(2124.66 356.32)"
      fill="#424142"
      font-family="NanumSquareNeovariable-Heavy, 'NanumSquare Neo variable'"
      font-size="32"
      font-variation-settings="'wght' 900"
      font-weight="800"
    >
      <tspan x="0" y="0">104</tspan>
    </text>
  </g>
  <g id="Layer_105">
    <rect
      x="1638.68"
      y="254.12"
      width="390.15"
      height="186.82"
      fill="#fed0d0"
      stroke="#ea8b8b"
      stroke-miterlimit="10"
      stroke-width="3"
    />
    <text
      transform="translate(1802.41 356.32)"
      fill="#424142"
      font-family="NanumSquareNeovariable-Heavy, 'NanumSquare Neo variable'"
      font-size="32"
      font-variation-settings="'wght' 900"
      font-weight="800"
    >
      <tspan x="0" y="0">105</tspan>
    </text>
  </g>
  <g id="Layer_toilet1">
    <rect
      x="1461.07"
      y="254.12"
      width="177.61"
      height="186.82"
      fill="none"
      stroke="#ea8b8b"
      stroke-miterlimit="10"
      stroke-width="3"
    />
  </g>
  <g id="Layer_toilet2">
    <rect
      x="900.86"
      y="254.12"
      width="174.19"
      height="186.82"
      fill="none"
      stroke="#ea8b8b"
      stroke-miterlimit="10"
      stroke-width="3"
    />
  </g>
  <g id="Layer_108">
    <rect
      x="522.78"
      y="254.12"
      width="378.08"
      height="186.82"
      fill="#fed0d0"
      stroke="#ea8b8b"
      stroke-miterlimit="10"
      stroke-width="3"
    />
    <text
      transform="translate(678.03 352.45)"
      fill="#424142"
      font-family="NanumSquareNeovariable-Heavy, 'NanumSquare Neo variable'"
      font-size="32"
      font-variation-settings="'wght' 900"
      font-weight="800"
    >
      <tspan x="0" y="0">108</tspan>
    </text>
  </g>
  <g id="Layer_109">
    <rect
      x="259.42"
      y="254.12"
      width="263.36"
      height="186.82"
      fill="#fed0d0"
      stroke="#ea8b8b"
      stroke-miterlimit="10"
      stroke-width="3"
    />
    <text
      transform="translate(358.89 352.45)"
      fill="#424142"
      font-family="NanumSquareNeovariable-Heavy, 'NanumSquare Neo variable'"
      font-size="32"
      font-variation-settings="'wght' 900"
      font-weight="800"
    >
      <tspan x="0" y="0">109</tspan>
    </text>
  </g>
  <g id="Layer_110">
    <rect
      x="136.63"
      y="532.24"
      width="385.11"
      height="246.81"
      fill="#fed0d0"
      stroke="#ea8b8b"
      stroke-miterlimit="10"
      stroke-width="3"
    />
    <text
      transform="translate(300.8 667.25)"
      fill="#424142"
      font-family="NanumSquareNeovariable-Heavy, 'NanumSquare Neo variable'"
      font-size="32"
      font-variation-settings="'wght' 900"
      font-weight="800"
    >
      <tspan x="0" y="0">110</tspan>
    </text>
  </g>
  <g id="Layer_111">
    <rect
      x="521.74"
      y="532.24"
      width="286.03"
      height="246.81"
      fill="#fed0d0"
      stroke="#ea8b8b"
      stroke-miterlimit="10"
      stroke-width="3"
    />
    <text
      transform="translate(640.09 671.13)"
      fill="#424142"
      font-family="NanumSquareNeovariable-Heavy, 'NanumSquare Neo variable'"
      font-size="32"
      font-variation-settings="'wght' 900"
      font-weight="800"
    >
      <tspan x="0" y="0">111</tspan>
    </text>
  </g>
</svg>
