<?xml version="1.0" encoding="UTF-8"?><svg xmlns="http://www.w3.org/2000/svg" viewBox="0 0 1920 1080"><g id="Layer_border"><polygon points="628 970 628 677 726 677 726 564 531 564 531 445 484 445 484 130 1456.91 130 1456.91 359.89 1547.86 359.89 1547.86 503.44 1614 503.44 1614 657 1484 657 1484 970 628 970" fill="#fdf3f2"/><path d="m1451.91,135v229.89h90.95v143.56h66.14v143.56h-130v313h-846v-283h98v-123h-195v-119h-47V135h962.91m10-10H479v325h47v119h195v103h-98v303h866v-313h130v-163.56h-66.14v-143.56h-90.95V125h0Z" fill="#e18686"/></g><g id="Layer_others"><rect x="846.57" y="135.39" width="171.31" height="82.61" fill="none" stroke="#e18686" stroke-miterlimit="10" stroke-width="3"/><line x1="861.03" y1="218" x2="861.03" y2="135.39" fill="none" stroke="#e18686" stroke-miterlimit="10" stroke-width="3"/><line x1="876.89" y1="218" x2="876.89" y2="135.39" fill="none" stroke="#e18686" stroke-miterlimit="10" stroke-width="3"/><line x1="892.75" y1="218" x2="892.75" y2="135.39" fill="none" stroke="#e18686" stroke-miterlimit="10" stroke-width="3"/><line x1="908.61" y1="218" x2="908.61" y2="135.39" fill="none" stroke="#e18686" stroke-miterlimit="10" stroke-width="3"/><line x1="924.47" y1="218" x2="924.47" y2="135.39" fill="none" stroke="#e18686" stroke-miterlimit="10" stroke-width="3"/><line x1="940.33" y1="218" x2="940.33" y2="135.39" fill="none" stroke="#e18686" stroke-miterlimit="10" stroke-width="3"/><line x1="956.19" y1="218" x2="956.19" y2="135.39" fill="none" stroke="#e18686" stroke-miterlimit="10" stroke-width="3"/><line x1="972.05" y1="218" x2="972.05" y2="135.39" fill="none" stroke="#e18686" stroke-miterlimit="10" stroke-width="3"/><line x1="987.91" y1="218" x2="987.91" y2="135.39" fill="none" stroke="#e18686" stroke-miterlimit="10" stroke-width="3"/><line x1="1003.77" y1="218" x2="1003.77" y2="135.39" fill="none" stroke="#e18686" stroke-miterlimit="10" stroke-width="3"/><rect x="824.88" y="218.5" width="77" height="77" fill="none" stroke="#e18686" stroke-miterlimit="10" stroke-width="3"/><rect x="901.88" y="218.5" width="59" height="69" transform="translate(1862.77 506) rotate(180)" fill="none" stroke="#e18686" stroke-miterlimit="10" stroke-width="3"/><rect x="960.88" y="218.5" width="57" height="69" fill="none" stroke="#e18686" stroke-miterlimit="10" stroke-width="3"/><rect x="1446" y="506.16" width="163.26" height="148.84" fill="none" stroke="#e18686" stroke-miterlimit="10" stroke-width="3"/><line x1="1456.79" y1="506.16" x2="1456.79" y2="655" fill="none" stroke="#e18686" stroke-miterlimit="10" stroke-width="3"/><line x1="1471.31" y1="506.16" x2="1471.31" y2="655" fill="none" stroke="#e18686" stroke-miterlimit="10" stroke-width="3"/><line x1="1485.84" y1="506.16" x2="1485.84" y2="655" fill="none" stroke="#e18686" stroke-miterlimit="10" stroke-width="3"/><line x1="1500.36" y1="506.16" x2="1500.36" y2="655" fill="none" stroke="#e18686" stroke-miterlimit="10" stroke-width="3"/><line x1="1514.88" y1="506.16" x2="1514.88" y2="655" fill="none" stroke="#e18686" stroke-miterlimit="10" stroke-width="3"/><line x1="1529.41" y1="506.16" x2="1529.41" y2="655" fill="none" stroke="#e18686" stroke-miterlimit="10" stroke-width="3"/><line x1="1543.93" y1="506.16" x2="1543.93" y2="655" fill="none" stroke="#e18686" stroke-miterlimit="10" stroke-width="3"/><line x1="1558.46" y1="506.16" x2="1558.46" y2="655" fill="none" stroke="#e18686" stroke-miterlimit="10" stroke-width="3"/><line x1="1572.98" y1="506.16" x2="1572.98" y2="655" fill="none" stroke="#e18686" stroke-miterlimit="10" stroke-width="3"/><rect x="1191" y="596.84" width="213.7" height="50.16" fill="none" stroke="#e18686" stroke-miterlimit="10" stroke-width="3"/><line x1="1205.12" y1="596.84" x2="1205.12" y2="647" fill="none" stroke="#e18686" stroke-miterlimit="10" stroke-width="3"/><line x1="1222.02" y1="596.84" x2="1222.02" y2="647" fill="none" stroke="#e18686" stroke-miterlimit="10" stroke-width="3"/><line x1="1238.92" y1="596.84" x2="1238.92" y2="647" fill="none" stroke="#e18686" stroke-miterlimit="10" stroke-width="3"/><line x1="1255.82" y1="596.84" x2="1255.82" y2="647" fill="none" stroke="#e18686" stroke-miterlimit="10" stroke-width="3"/><line x1="1272.72" y1="596.84" x2="1272.72" y2="647" fill="none" stroke="#e18686" stroke-miterlimit="10" stroke-width="3"/><line x1="1289.62" y1="596.84" x2="1289.62" y2="647" fill="none" stroke="#e18686" stroke-miterlimit="10" stroke-width="3"/><line x1="1306.52" y1="596.84" x2="1306.52" y2="647" fill="none" stroke="#e18686" stroke-miterlimit="10" stroke-width="3"/><line x1="1323.42" y1="596.84" x2="1323.42" y2="647" fill="none" stroke="#e18686" stroke-miterlimit="10" stroke-width="3"/><line x1="1340.32" y1="596.84" x2="1340.32" y2="647" fill="none" stroke="#e18686" stroke-miterlimit="10" stroke-width="3"/><line x1="1357.21" y1="596.84" x2="1357.21" y2="647" fill="none" stroke="#e18686" stroke-miterlimit="10" stroke-width="3"/><line x1="1374.11" y1="596.84" x2="1374.11" y2="647" fill="none" stroke="#e18686" stroke-miterlimit="10" stroke-width="3"/><line x1="1391.01" y1="596.84" x2="1391.01" y2="647" fill="none" stroke="#e18686" stroke-miterlimit="10" stroke-width="3"/><rect x="869" y="596.84" width="213.7" height="50.16" fill="none" stroke="#e18686" stroke-miterlimit="10" stroke-width="3"/><line x1="883.12" y1="596.84" x2="883.12" y2="647" fill="none" stroke="#e18686" stroke-miterlimit="10" stroke-width="3"/><line x1="900.02" y1="596.84" x2="900.02" y2="647" fill="none" stroke="#e18686" stroke-miterlimit="10" stroke-width="3"/><line x1="916.92" y1="596.84" x2="916.92" y2="647" fill="none" stroke="#e18686" stroke-miterlimit="10" stroke-width="3"/><line x1="933.82" y1="596.84" x2="933.82" y2="647" fill="none" stroke="#e18686" stroke-miterlimit="10" stroke-width="3"/><line x1="950.72" y1="596.84" x2="950.72" y2="647" fill="none" stroke="#e18686" stroke-miterlimit="10" stroke-width="3"/><line x1="967.62" y1="596.84" x2="967.62" y2="647" fill="none" stroke="#e18686" stroke-miterlimit="10" stroke-width="3"/><line x1="984.52" y1="596.84" x2="984.52" y2="647" fill="none" stroke="#e18686" stroke-miterlimit="10" stroke-width="3"/><line x1="1001.42" y1="596.84" x2="1001.42" y2="647" fill="none" stroke="#e18686" stroke-miterlimit="10" stroke-width="3"/><line x1="1018.32" y1="596.84" x2="1018.32" y2="647" fill="none" stroke="#e18686" stroke-miterlimit="10" stroke-width="3"/><line x1="1035.21" y1="596.84" x2="1035.21" y2="647" fill="none" stroke="#e18686" stroke-miterlimit="10" stroke-width="3"/><line x1="1052.11" y1="596.84" x2="1052.11" y2="647" fill="none" stroke="#e18686" stroke-miterlimit="10" stroke-width="3"/><line x1="1069.01" y1="596.84" x2="1069.01" y2="647" fill="none" stroke="#e18686" stroke-miterlimit="10" stroke-width="3"/><rect x="867.37" y="417.95" width="495.63" height="102.05" fill="none" stroke="#e18686" stroke-miterlimit="10" stroke-width="3"/><line x1="886.12" y1="417.95" x2="886.12" y2="520" fill="none" stroke="#e18686" stroke-miterlimit="10" stroke-width="3"/><line x1="906.26" y1="417.95" x2="906.26" y2="520" fill="none" stroke="#e18686" stroke-miterlimit="10" stroke-width="3"/><line x1="926.41" y1="417.95" x2="926.41" y2="520" fill="none" stroke="#e18686" stroke-miterlimit="10" stroke-width="3"/><line x1="946.55" y1="417.95" x2="946.55" y2="520" fill="none" stroke="#e18686" stroke-miterlimit="10" stroke-width="3"/><line x1="966.69" y1="417.95" x2="966.69" y2="520" fill="none" stroke="#e18686" stroke-miterlimit="10" stroke-width="3"/><line x1="986.83" y1="417.95" x2="986.83" y2="520" fill="none" stroke="#e18686" stroke-miterlimit="10" stroke-width="3"/><line x1="1006.97" y1="417.95" x2="1006.97" y2="520" fill="none" stroke="#e18686" stroke-miterlimit="10" stroke-width="3"/><line x1="1047.26" y1="417.95" x2="1047.26" y2="520" fill="none" stroke="#e18686" stroke-miterlimit="10" stroke-width="3"/><line x1="1147.97" y1="417.95" x2="1147.97" y2="520" fill="none" stroke="#e18686" stroke-miterlimit="10" stroke-width="3"/><line x1="1188.25" y1="417.95" x2="1188.25" y2="520" fill="none" stroke="#e18686" stroke-miterlimit="10" stroke-width="3"/><line x1="1208.39" y1="417.95" x2="1208.39" y2="520" fill="none" stroke="#e18686" stroke-miterlimit="10" stroke-width="3"/><line x1="1329.25" y1="417.95" x2="1329.25" y2="520" fill="none" stroke="#e18686" stroke-miterlimit="10" stroke-width="3"/><line x1="1168.11" y1="417.95" x2="1168.11" y2="520" fill="none" stroke="#e18686" stroke-miterlimit="10" stroke-width="3"/><line x1="1027.12" y1="417.95" x2="1027.12" y2="520" fill="none" stroke="#e18686" stroke-miterlimit="10" stroke-width="3"/><line x1="1107.68" y1="417.95" x2="1107.68" y2="520" fill="none" stroke="#e18686" stroke-miterlimit="10" stroke-width="3"/><line x1="1268.82" y1="417.95" x2="1268.82" y2="520" fill="none" stroke="#e18686" stroke-miterlimit="10" stroke-width="3"/><line x1="1228.54" y1="417.95" x2="1228.54" y2="520" fill="none" stroke="#e18686" stroke-miterlimit="10" stroke-width="3"/><line x1="1067.4" y1="417.95" x2="1067.4" y2="520" fill="none" stroke="#e18686" stroke-miterlimit="10" stroke-width="3"/><line x1="1087.54" y1="417.95" x2="1087.54" y2="520" fill="none" stroke="#e18686" stroke-miterlimit="10" stroke-width="3"/><line x1="1127.83" y1="417.95" x2="1127.83" y2="520" fill="none" stroke="#e18686" stroke-miterlimit="10" stroke-width="3"/><line x1="1309.1" y1="417.95" x2="1309.1" y2="520" fill="none" stroke="#e18686" stroke-miterlimit="10" stroke-width="3"/><line x1="1288.96" y1="417.95" x2="1288.96" y2="520" fill="none" stroke="#e18686" stroke-miterlimit="10" stroke-width="3"/><line x1="1248.68" y1="417.95" x2="1248.68" y2="520" fill="none" stroke="#e18686" stroke-miterlimit="10" stroke-width="3"/><rect x="823.5" y="830.27" width="217.77" height="61.23" transform="translate(1793.27 -71.5) rotate(90)" fill="none" stroke="#e18686" stroke-miterlimit="10" stroke-width="3"/><line x1="963" y1="766.39" x2="901.77" y2="766.39" fill="none" stroke="#e18686" stroke-miterlimit="10" stroke-width="3"/><line x1="963" y1="783.61" x2="901.77" y2="783.61" fill="none" stroke="#e18686" stroke-miterlimit="10" stroke-width="3"/><line x1="963" y1="800.83" x2="901.77" y2="800.83" fill="none" stroke="#e18686" stroke-miterlimit="10" stroke-width="3"/><line x1="963" y1="818.05" x2="901.77" y2="818.05" fill="none" stroke="#e18686" stroke-miterlimit="10" stroke-width="3"/><line x1="963" y1="835.27" x2="901.77" y2="835.27" fill="none" stroke="#e18686" stroke-miterlimit="10" stroke-width="3"/><line x1="963" y1="852.49" x2="901.77" y2="852.49" fill="none" stroke="#e18686" stroke-miterlimit="10" stroke-width="3"/><line x1="963" y1="869.72" x2="901.77" y2="869.72" fill="none" stroke="#e18686" stroke-miterlimit="10" stroke-width="3"/><line x1="963" y1="886.94" x2="901.77" y2="886.94" fill="none" stroke="#e18686" stroke-miterlimit="10" stroke-width="3"/><line x1="963" y1="904.16" x2="901.77" y2="904.16" fill="none" stroke="#e18686" stroke-miterlimit="10" stroke-width="3"/><line x1="963" y1="921.38" x2="901.77" y2="921.38" fill="none" stroke="#e18686" stroke-miterlimit="10" stroke-width="3"/><line x1="963" y1="938.6" x2="901.77" y2="938.6" fill="none" stroke="#e18686" stroke-miterlimit="10" stroke-width="3"/><line x1="963" y1="955.82" x2="901.77" y2="955.82" fill="none" stroke="#e18686" stroke-miterlimit="10" stroke-width="3"/><rect x="963.5" y="752" width="67" height="65.22" fill="none" stroke="#e18686" stroke-miterlimit="10" stroke-width="3"/><polyline points="1082.7 596.84 1082.7 550 818.5 550 818.5 660.5 1404.7 660.5 1404.7 550 1191 550 1191 600.11" fill="none" stroke="#e18686" stroke-miterlimit="10" stroke-width="3"/><rect x="766.18" y="40" width="67" height="90" fill="#fdf3f2"/><path d="m828.18,45v80h-57V45h57m10-10h-77v100h77V35h0Z" fill="#e18686"/><text transform="translate(740.49 108.11)" fill="#434142" font-family="NanumSquareNeovariable-Heavy, &apos;NanumSquare Neo variable&apos;" font-size="22" font-variation-settings="&apos;wght&apos; 900" font-weight="800"><tspan x="0" y="0">경영본관 4F</tspan></text></g><g id="Layer_락커룸"><rect x="1370.5" y="417.5" width="46" height="103" fill="#f8cdce" stroke="#e18686" stroke-miterlimit="10" stroke-width="3.54"/><text transform="translate(1373.39 473.69)" fill="#434142" font-family="NanumSquareNeovariable-Heavy, &apos;NanumSquare Neo variable&apos;" font-size="14" font-variation-settings="&apos;wght&apos; 900" font-weight="800"><tspan x="0" y="0">락커룸</tspan></text></g><g id="Layer_301"><rect x="489.5" y="134.5" width="242" height="306" fill="#f8cdce" stroke="#e18686" stroke-miterlimit="10" stroke-width="3"/><text transform="translate(588.88 295.98)" fill="#434142" font-family="NanumSquareNeovariable-Heavy, &apos;NanumSquare Neo variable&apos;" font-size="22" font-variation-settings="&apos;wght&apos; 900" font-weight="800"><tspan x="0" y="0">301</tspan></text></g><g id="Layer_302"><rect x="1018.5" y="134.5" width="74" height="164.5" fill="#f8cdce" stroke="#e18686" stroke-miterlimit="10" stroke-width="3"/><text transform="translate(1031.84 223.98)" fill="#434142" font-family="NanumSquareNeovariable-Heavy, &apos;NanumSquare Neo variable&apos;" font-size="22" font-variation-settings="&apos;wght&apos; 900" font-weight="800"><tspan x="0" y="0">302</tspan></text></g><g id="Layer_303"><rect x="1092.5" y="134.5" width="361" height="229" transform="translate(2546 498) rotate(180)" fill="#f8cdce" stroke="#e18686" stroke-miterlimit="10" stroke-width="3.54"/><text transform="translate(1249.14 264.88)" fill="#434142" font-family="NanumSquareNeovariable-Heavy, &apos;NanumSquare Neo variable&apos;" font-size="22" font-variation-settings="&apos;wght&apos; 900" font-weight="800"><tspan x="0" y="0">305</tspan></text></g><g id="Layer_304"><rect x="1392" y="751.53" width="89.04" height="91.97" fill="#f8cdce" stroke="#e18686" stroke-miterlimit="10" stroke-width="3"/><text transform="translate(1412.2 806.01)" fill="#434142" font-family="NanumSquareNeovariable-Heavy, &apos;NanumSquare Neo variable&apos;" font-size="22" font-variation-settings="&apos;wght&apos; 900" font-weight="800"><tspan x="0" y="0">304</tspan></text></g><g id="Layer_305"><rect x="1392" y="843.53" width="89.04" height="120.97" fill="#f8cdce" stroke="#e18686" stroke-miterlimit="10" stroke-width="3"/><text transform="translate(1412.38 912.01)" fill="#434142" font-family="NanumSquareNeovariable-Heavy, &apos;NanumSquare Neo variable&apos;" font-size="22" font-variation-settings="&apos;wght&apos; 900" font-weight="800"><tspan x="0" y="0">305</tspan></text></g><g id="Layer_306"><rect x="1303.12" y="871.5" width="89.04" height="92.77" fill="#f8cdce" stroke="#e18686" stroke-miterlimit="10" stroke-width="2.63"/><text transform="translate(1323.26 885.78)" fill="#434142" font-family="NanumSquareNeovariable-Heavy, &apos;NanumSquare Neo variable&apos;" font-size="22" font-variation-settings="&apos;wght&apos; 900" font-weight="800"><tspan x="0" y="0">306</tspan></text></g><g id="Layer_307"><rect x="1229.5" y="845" width="73.66" height="119.27" fill="#f8cdce" stroke="#e18686" stroke-miterlimit="10" stroke-width="3"/><text transform="translate(1243.25 914.78)" fill="#434142" font-family="NanumSquareNeovariable-Heavy, &apos;NanumSquare Neo variable&apos;" font-size="22" font-variation-settings="&apos;wght&apos; 900" font-weight="800"><tspan x="0" y="0">307</tspan></text></g><g id="Layer_308"><rect x="1229.5" y="751.5" width="73.66" height="93.5" fill="#f8cdce" stroke="#e18686" stroke-miterlimit="10" stroke-width="3"/><text transform="translate(1242.05 804.78)" fill="#434142" font-family="NanumSquareNeovariable-Heavy, &apos;NanumSquare Neo variable&apos;" font-size="22" font-variation-settings="&apos;wght&apos; 900" font-weight="800"><tspan x="0" y="0">308</tspan></text></g><g id="Layer_309"><rect x="1185.5" y="751.5" width="43.66" height="213" fill="#f8cdce" stroke="#e18686" stroke-miterlimit="10" stroke-width="3"/><text transform="translate(1187.43 871.78)" fill="#434142" font-family="NanumSquareNeovariable-Heavy, &apos;NanumSquare Neo variable&apos;" font-size="14" font-variation-settings="&apos;wght&apos; 900" font-weight="800"><tspan x="0" y="0">락커룸</tspan></text></g><g id="Layer_310"><rect x="630.76" y="679.84" width="270.74" height="286.66" fill="#f8cdce" stroke="#e18686" stroke-miterlimit="10" stroke-width="3"/><text transform="translate(744.91 815.13)" fill="#434142" font-family="NanumSquareNeovariable-Heavy, &apos;NanumSquare Neo variable&apos;" font-size="22" font-variation-settings="&apos;wght&apos; 900" font-weight="800"><tspan x="0" y="0" letter-spacing="0em">3</tspan><tspan x="15.66" y="0">10</tspan></text><text transform="translate(735.32 845.13)" fill="#434142" font-family="NanumSquareNeovariable-Regular, &apos;NanumSquare Neo variable&apos;" font-size="22" font-variation-settings="&apos;wght&apos; 300"><tspan x="0" y="0">남령홀</tspan></text></g><g id="Layer_toilet1"><polygon points="1103.5 752 1030.5 752 1030.5 817.66 962.5 817.66 962.5 965.42 1024.5 965.42 1042.5 965.42 1097.5 965.42 1097.5 865.55 1103.5 865.55 1103.5 752" fill="none" stroke="#e18686" stroke-miterlimit="10" stroke-width="3"/></g><g id="Layer_toilet2"><polygon points="1103.5 752.44 1103.5 820.72 1103.5 826.83 1103.5 865.55 1097.5 865.55 1097.5 966.44 1103.5 966.44 1127.5 966.44 1185.5 966.44 1185.5 826.83 1185.5 820.72 1185.5 752.44 1103.5 752.44" fill="none" stroke="#e18686" stroke-miterlimit="10" stroke-width="3"/></g></svg>