<?xml version="1.0" encoding="UTF-8"?><svg xmlns="http://www.w3.org/2000/svg" viewBox="0 0 1920 1080"><g id="Layer_border"><polygon points="521.35 933.77 521.35 703.88 430.4 703.88 430.4 560.33 364.26 560.33 364.26 406.77 494.26 406.77 494.26 93.77 1350.26 93.77 1350.26 386.77 1252.26 386.77 1252.26 499.77 1447.26 499.77 1447.26 618.77 1494.26 618.77 1494.26 933.77 521.35 933.77" fill="#fdf3f2"/><path d="m1345.26,98.77v283h-98v123h195v119h47v305h-962.91v-229.89h-90.95v-143.56h-66.14v-143.56h130V98.77h846m10-10H489.26v313h-130v163.56h66.14v143.56h90.95v229.89h982.91v-325h-47v-119h-195v-103h98V88.77h0Z" fill="#e18686"/></g><g id="Layer_others"><rect x="960.38" y="845.77" width="171.31" height="82.61" transform="translate(2092.06 1774.16) rotate(180)" fill="none" stroke="#e18686" stroke-miterlimit="10" stroke-width="3"/><line x1="1117.23" y1="845.77" x2="1117.23" y2="928.39" fill="none" stroke="#e18686" stroke-miterlimit="10" stroke-width="3"/><line x1="1101.37" y1="845.77" x2="1101.37" y2="928.39" fill="none" stroke="#e18686" stroke-miterlimit="10" stroke-width="3"/><line x1="1085.51" y1="845.77" x2="1085.51" y2="928.39" fill="none" stroke="#e18686" stroke-miterlimit="10" stroke-width="3"/><line x1="1069.65" y1="845.77" x2="1069.65" y2="928.39" fill="none" stroke="#e18686" stroke-miterlimit="10" stroke-width="3"/><line x1="1053.79" y1="845.77" x2="1053.79" y2="928.39" fill="none" stroke="#e18686" stroke-miterlimit="10" stroke-width="3"/><line x1="1037.93" y1="845.77" x2="1037.93" y2="928.39" fill="none" stroke="#e18686" stroke-miterlimit="10" stroke-width="3"/><line x1="1022.07" y1="845.77" x2="1022.07" y2="928.39" fill="none" stroke="#e18686" stroke-miterlimit="10" stroke-width="3"/><line x1="1006.21" y1="845.77" x2="1006.21" y2="928.39" fill="none" stroke="#e18686" stroke-miterlimit="10" stroke-width="3"/><line x1="990.35" y1="845.77" x2="990.35" y2="928.39" fill="none" stroke="#e18686" stroke-miterlimit="10" stroke-width="3"/><line x1="974.49" y1="845.77" x2="974.49" y2="928.39" fill="none" stroke="#e18686" stroke-miterlimit="10" stroke-width="3"/><rect x="1076.38" y="768.27" width="77" height="77" transform="translate(2229.75 1613.54) rotate(180)" fill="none" stroke="#e18686" stroke-miterlimit="10" stroke-width="3"/><rect x="1017.38" y="776.27" width="59" height="69" fill="none" stroke="#e18686" stroke-miterlimit="10" stroke-width="3"/><rect x="960.38" y="776.27" width="57" height="69" transform="translate(1977.75 1621.54) rotate(180)" fill="none" stroke="#e18686" stroke-miterlimit="10" stroke-width="3"/><rect x="369" y="408.77" width="163.26" height="148.84" transform="translate(901.26 966.38) rotate(180)" fill="none" stroke="#e18686" stroke-miterlimit="10" stroke-width="3"/><line x1="521.47" y1="557.61" x2="521.47" y2="408.77" fill="none" stroke="#e18686" stroke-miterlimit="10" stroke-width="3"/><line x1="506.95" y1="557.61" x2="506.95" y2="408.77" fill="none" stroke="#e18686" stroke-miterlimit="10" stroke-width="3"/><line x1="492.42" y1="557.61" x2="492.42" y2="408.77" fill="none" stroke="#e18686" stroke-miterlimit="10" stroke-width="3"/><line x1="477.9" y1="557.61" x2="477.9" y2="408.77" fill="none" stroke="#e18686" stroke-miterlimit="10" stroke-width="3"/><line x1="463.38" y1="557.61" x2="463.38" y2="408.77" fill="none" stroke="#e18686" stroke-miterlimit="10" stroke-width="3"/><line x1="448.85" y1="557.61" x2="448.85" y2="408.77" fill="none" stroke="#e18686" stroke-miterlimit="10" stroke-width="3"/><line x1="434.33" y1="557.61" x2="434.33" y2="408.77" fill="none" stroke="#e18686" stroke-miterlimit="10" stroke-width="3"/><line x1="419.8" y1="557.61" x2="419.8" y2="408.77" fill="none" stroke="#e18686" stroke-miterlimit="10" stroke-width="3"/><line x1="405.28" y1="557.61" x2="405.28" y2="408.77" fill="none" stroke="#e18686" stroke-miterlimit="10" stroke-width="3"/><rect x="573.55" y="416.77" width="213.7" height="50.16" transform="translate(1360.81 883.7) rotate(180)" fill="none" stroke="#e18686" stroke-miterlimit="10" stroke-width="3"/><line x1="773.14" y1="466.93" x2="773.14" y2="416.77" fill="none" stroke="#e18686" stroke-miterlimit="10" stroke-width="3"/><line x1="756.24" y1="466.93" x2="756.24" y2="416.77" fill="none" stroke="#e18686" stroke-miterlimit="10" stroke-width="3"/><line x1="739.34" y1="466.93" x2="739.34" y2="416.77" fill="none" stroke="#e18686" stroke-miterlimit="10" stroke-width="3"/><line x1="722.44" y1="466.93" x2="722.44" y2="416.77" fill="none" stroke="#e18686" stroke-miterlimit="10" stroke-width="3"/><line x1="705.54" y1="466.93" x2="705.54" y2="416.77" fill="none" stroke="#e18686" stroke-miterlimit="10" stroke-width="3"/><line x1="688.64" y1="466.93" x2="688.64" y2="416.77" fill="none" stroke="#e18686" stroke-miterlimit="10" stroke-width="3"/><line x1="671.74" y1="466.93" x2="671.74" y2="416.77" fill="none" stroke="#e18686" stroke-miterlimit="10" stroke-width="3"/><line x1="654.84" y1="466.93" x2="654.84" y2="416.77" fill="none" stroke="#e18686" stroke-miterlimit="10" stroke-width="3"/><line x1="637.94" y1="466.93" x2="637.94" y2="416.77" fill="none" stroke="#e18686" stroke-miterlimit="10" stroke-width="3"/><line x1="621.05" y1="466.93" x2="621.05" y2="416.77" fill="none" stroke="#e18686" stroke-miterlimit="10" stroke-width="3"/><line x1="604.15" y1="466.93" x2="604.15" y2="416.77" fill="none" stroke="#e18686" stroke-miterlimit="10" stroke-width="3"/><line x1="587.25" y1="466.93" x2="587.25" y2="416.77" fill="none" stroke="#e18686" stroke-miterlimit="10" stroke-width="3"/><rect x="895.55" y="416.77" width="213.7" height="50.16" transform="translate(2004.81 883.7) rotate(180)" fill="none" stroke="#e18686" stroke-miterlimit="10" stroke-width="3"/><line x1="1095.14" y1="466.93" x2="1095.14" y2="416.77" fill="none" stroke="#e18686" stroke-miterlimit="10" stroke-width="3"/><line x1="1078.24" y1="466.93" x2="1078.24" y2="416.77" fill="none" stroke="#e18686" stroke-miterlimit="10" stroke-width="3"/><line x1="1061.34" y1="466.93" x2="1061.34" y2="416.77" fill="none" stroke="#e18686" stroke-miterlimit="10" stroke-width="3"/><line x1="1044.44" y1="466.93" x2="1044.44" y2="416.77" fill="none" stroke="#e18686" stroke-miterlimit="10" stroke-width="3"/><line x1="1027.54" y1="466.93" x2="1027.54" y2="416.77" fill="none" stroke="#e18686" stroke-miterlimit="10" stroke-width="3"/><line x1="1010.64" y1="466.93" x2="1010.64" y2="416.77" fill="none" stroke="#e18686" stroke-miterlimit="10" stroke-width="3"/><line x1="993.74" y1="466.93" x2="993.74" y2="416.77" fill="none" stroke="#e18686" stroke-miterlimit="10" stroke-width="3"/><line x1="976.84" y1="466.93" x2="976.84" y2="416.77" fill="none" stroke="#e18686" stroke-miterlimit="10" stroke-width="3"/><line x1="959.94" y1="466.93" x2="959.94" y2="416.77" fill="none" stroke="#e18686" stroke-miterlimit="10" stroke-width="3"/><line x1="943.05" y1="466.93" x2="943.05" y2="416.77" fill="none" stroke="#e18686" stroke-miterlimit="10" stroke-width="3"/><line x1="926.15" y1="466.93" x2="926.15" y2="416.77" fill="none" stroke="#e18686" stroke-miterlimit="10" stroke-width="3"/><line x1="909.25" y1="466.93" x2="909.25" y2="416.77" fill="none" stroke="#e18686" stroke-miterlimit="10" stroke-width="3"/><rect x="615.26" y="543.77" width="495.63" height="102.05" transform="translate(1726.15 1189.6) rotate(180)" fill="none" stroke="#e18686" stroke-miterlimit="10" stroke-width="3"/><line x1="1092.14" y1="645.83" x2="1092.14" y2="543.77" fill="none" stroke="#e18686" stroke-miterlimit="10" stroke-width="3"/><line x1="1072" y1="645.83" x2="1072" y2="543.77" fill="none" stroke="#e18686" stroke-miterlimit="10" stroke-width="3"/><line x1="1051.85" y1="645.83" x2="1051.85" y2="543.77" fill="none" stroke="#e18686" stroke-miterlimit="10" stroke-width="3"/><line x1="1031.71" y1="645.83" x2="1031.71" y2="543.77" fill="none" stroke="#e18686" stroke-miterlimit="10" stroke-width="3"/><line x1="1011.57" y1="645.83" x2="1011.57" y2="543.77" fill="none" stroke="#e18686" stroke-miterlimit="10" stroke-width="3"/><line x1="991.43" y1="645.83" x2="991.43" y2="543.77" fill="none" stroke="#e18686" stroke-miterlimit="10" stroke-width="3"/><line x1="971.29" y1="645.83" x2="971.29" y2="543.77" fill="none" stroke="#e18686" stroke-miterlimit="10" stroke-width="3"/><line x1="931" y1="645.83" x2="931" y2="543.77" fill="none" stroke="#e18686" stroke-miterlimit="10" stroke-width="3"/><line x1="830.29" y1="645.83" x2="830.29" y2="543.77" fill="none" stroke="#e18686" stroke-miterlimit="10" stroke-width="3"/><line x1="790.01" y1="645.83" x2="790.01" y2="543.77" fill="none" stroke="#e18686" stroke-miterlimit="10" stroke-width="3"/><line x1="769.87" y1="645.83" x2="769.87" y2="543.77" fill="none" stroke="#e18686" stroke-miterlimit="10" stroke-width="3"/><line x1="649.01" y1="645.83" x2="649.01" y2="543.77" fill="none" stroke="#e18686" stroke-miterlimit="10" stroke-width="3"/><line x1="810.15" y1="645.83" x2="810.15" y2="543.77" fill="none" stroke="#e18686" stroke-miterlimit="10" stroke-width="3"/><line x1="951.14" y1="645.83" x2="951.14" y2="543.77" fill="none" stroke="#e18686" stroke-miterlimit="10" stroke-width="3"/><line x1="870.58" y1="645.83" x2="870.58" y2="543.77" fill="none" stroke="#e18686" stroke-miterlimit="10" stroke-width="3"/><line x1="709.44" y1="645.83" x2="709.44" y2="543.77" fill="none" stroke="#e18686" stroke-miterlimit="10" stroke-width="3"/><line x1="749.72" y1="645.83" x2="749.72" y2="543.77" fill="none" stroke="#e18686" stroke-miterlimit="10" stroke-width="3"/><line x1="910.86" y1="645.83" x2="910.86" y2="543.77" fill="none" stroke="#e18686" stroke-miterlimit="10" stroke-width="3"/><line x1="890.72" y1="645.83" x2="890.72" y2="543.77" fill="none" stroke="#e18686" stroke-miterlimit="10" stroke-width="3"/><line x1="850.43" y1="645.83" x2="850.43" y2="543.77" fill="none" stroke="#e18686" stroke-miterlimit="10" stroke-width="3"/><line x1="669.16" y1="645.83" x2="669.16" y2="543.77" fill="none" stroke="#e18686" stroke-miterlimit="10" stroke-width="3"/><line x1="689.3" y1="645.83" x2="689.3" y2="543.77" fill="none" stroke="#e18686" stroke-miterlimit="10" stroke-width="3"/><line x1="729.58" y1="645.83" x2="729.58" y2="543.77" fill="none" stroke="#e18686" stroke-miterlimit="10" stroke-width="3"/><rect x="936.99" y="172.27" width="217.77" height="61.23" transform="translate(842.99 1248.76) rotate(-90)" fill="none" stroke="#e18686" stroke-miterlimit="10" stroke-width="3"/><line x1="1015.26" y1="297.38" x2="1076.49" y2="297.38" fill="none" stroke="#e18686" stroke-miterlimit="10" stroke-width="3"/><line x1="1015.26" y1="280.16" x2="1076.49" y2="280.16" fill="none" stroke="#e18686" stroke-miterlimit="10" stroke-width="3"/><line x1="1015.26" y1="262.94" x2="1076.49" y2="262.94" fill="none" stroke="#e18686" stroke-miterlimit="10" stroke-width="3"/><line x1="1015.26" y1="245.72" x2="1076.49" y2="245.72" fill="none" stroke="#e18686" stroke-miterlimit="10" stroke-width="3"/><line x1="1015.26" y1="228.5" x2="1076.49" y2="228.5" fill="none" stroke="#e18686" stroke-miterlimit="10" stroke-width="3"/><line x1="1015.26" y1="211.28" x2="1076.49" y2="211.28" fill="none" stroke="#e18686" stroke-miterlimit="10" stroke-width="3"/><line x1="1015.26" y1="194.06" x2="1076.49" y2="194.06" fill="none" stroke="#e18686" stroke-miterlimit="10" stroke-width="3"/><line x1="1015.26" y1="176.84" x2="1076.49" y2="176.84" fill="none" stroke="#e18686" stroke-miterlimit="10" stroke-width="3"/><line x1="1015.26" y1="159.61" x2="1076.49" y2="159.61" fill="none" stroke="#e18686" stroke-miterlimit="10" stroke-width="3"/><line x1="1015.26" y1="142.39" x2="1076.49" y2="142.39" fill="none" stroke="#e18686" stroke-miterlimit="10" stroke-width="3"/><line x1="1015.26" y1="125.17" x2="1076.49" y2="125.17" fill="none" stroke="#e18686" stroke-miterlimit="10" stroke-width="3"/><line x1="1015.26" y1="107.95" x2="1076.49" y2="107.95" fill="none" stroke="#e18686" stroke-miterlimit="10" stroke-width="3"/><rect x="947.76" y="246.55" width="67" height="65.22" transform="translate(1962.52 558.33) rotate(180)" fill="none" stroke="#e18686" stroke-miterlimit="10" stroke-width="3"/><polyline points="895.55 466.93 895.55 513.77 1159.76 513.77 1159.76 403.27 573.55 403.27 573.55 513.77 787.26 513.77 787.26 463.66" fill="none" stroke="#e18686" stroke-miterlimit="10" stroke-width="3"/><rect x="1145.08" y="933.77" width="67" height="90" fill="#fdf3f2"/><path d="m1207.08,938.77v80h-57v-80h57m10-10h-77v100h77v-100h0Z" fill="#e18686"/><text transform="translate(1119.39 966.73)" fill="#434142" font-family="NanumSquareNeovariable-Heavy, &apos;NanumSquare Neo variable&apos;" font-size="22" font-variation-settings="&apos;wght&apos; 900" font-weight="800"><tspan x="0" y="0">경영본관 4F</tspan></text></g><g id="Layer_락커룸"><rect x="561.76" y="543.27" width="46" height="103" transform="translate(1169.52 1189.54) rotate(180)" fill="#f8cdce" stroke="#e18686" stroke-miterlimit="10" stroke-width="3.54"/><text transform="translate(565.05 597.13)" fill="#434142" font-family="NanumSquareNeovariable-Heavy, &apos;NanumSquare Neo variable&apos;" font-size="14" font-variation-settings="&apos;wght&apos; 900" font-weight="800"><tspan x="0" y="0">락커룸</tspan></text></g><g id="Layer_301"><rect x="1246.76" y="623.27" width="242" height="306" transform="translate(2735.52 1552.54) rotate(180)" fill="#f8cdce" stroke="#e18686" stroke-miterlimit="10" stroke-width="3"/><text transform="translate(1345.78 778.86)" fill="#434142" font-family="NanumSquareNeovariable-Heavy, &apos;NanumSquare Neo variable&apos;" font-size="22" font-variation-settings="&apos;wght&apos; 900" font-weight="800"><tspan x="0" y="0">301</tspan></text></g><g id="Layer_302"><rect x="885.76" y="764.77" width="74" height="164.5" transform="translate(1845.52 1694.04) rotate(180)" fill="#f8cdce" stroke="#e18686" stroke-miterlimit="10" stroke-width="3"/><text transform="translate(898.74 850.86)" fill="#434142" font-family="NanumSquareNeovariable-Heavy, &apos;NanumSquare Neo variable&apos;" font-size="22" font-variation-settings="&apos;wght&apos; 900" font-weight="800"><tspan x="0" y="0">302</tspan></text></g><g id="Layer_303"><rect x="524.76" y="700.27" width="361" height="229" fill="#f8cdce" stroke="#e18686" stroke-miterlimit="10" stroke-width="3.54"/><text transform="translate(681.44 809.96)" fill="#434142" font-family="NanumSquareNeovariable-Heavy, &apos;NanumSquare Neo variable&apos;" font-size="22" font-variation-settings="&apos;wght&apos; 900" font-weight="800"><tspan x="0" y="0">305</tspan></text></g><g id="Layer_304"><rect x="497.22" y="220.27" width="89.04" height="91.97" transform="translate(1083.48 532.51) rotate(180)" fill="#f8cdce" stroke="#e18686" stroke-miterlimit="10" stroke-width="3"/><text transform="translate(518.01 268.83)" fill="#434142" font-family="NanumSquareNeovariable-Heavy, &apos;NanumSquare Neo variable&apos;" font-size="22" font-variation-settings="&apos;wght&apos; 900" font-weight="800"><tspan x="0" y="0">304</tspan></text></g><g id="Layer_305"><rect x="497.22" y="99.27" width="89.04" height="120.97" transform="translate(1083.48 319.51) rotate(180)" fill="#f8cdce" stroke="#e18686" stroke-miterlimit="10" stroke-width="3"/><text transform="translate(518.2 162.83)" fill="#434142" font-family="NanumSquareNeovariable-Heavy, &apos;NanumSquare Neo variable&apos;" font-size="22" font-variation-settings="&apos;wght&apos; 900" font-weight="800"><tspan x="0" y="0">305</tspan></text></g><g id="Layer_306"><rect x="586.1" y="99.5" width="89.04" height="92.77" transform="translate(1261.24 291.77) rotate(180)" fill="#f8cdce" stroke="#e18686" stroke-miterlimit="10" stroke-width="2.63"/><text transform="translate(606.84 149.06)" fill="#434142" font-family="NanumSquareNeovariable-Heavy, &apos;NanumSquare Neo variable&apos;" font-size="22" font-variation-settings="&apos;wght&apos; 900" font-weight="800"><tspan x="0" y="0">306</tspan></text></g><g id="Layer_307"><rect x="675.1" y="99.5" width="73.66" height="119.27" transform="translate(1423.86 318.27) rotate(180)" fill="#f8cdce" stroke="#e18686" stroke-miterlimit="10" stroke-width="3"/><text transform="translate(688.83 160.06)" fill="#434142" font-family="NanumSquareNeovariable-Heavy, &apos;NanumSquare Neo variable&apos;" font-size="22" font-variation-settings="&apos;wght&apos; 900" font-weight="800"><tspan x="0" y="0">307</tspan></text></g><g id="Layer_308"><rect x="675.1" y="218.77" width="73.66" height="93.5" transform="translate(1423.86 531.04) rotate(180)" fill="#f8cdce" stroke="#e18686" stroke-miterlimit="10" stroke-width="3"/><text transform="translate(687.63 270.06)" fill="#434142" font-family="NanumSquareNeovariable-Heavy, &apos;NanumSquare Neo variable&apos;" font-size="22" font-variation-settings="&apos;wght&apos; 900" font-weight="800"><tspan x="0" y="0">308</tspan></text></g><g id="Layer_309"><rect x="749.1" y="99.27" width="43.66" height="213" transform="translate(1541.86 411.54) rotate(180)" fill="#f8cdce" stroke="#e18686" stroke-miterlimit="10" stroke-width="3"/><text transform="translate(751.01 199.03)" fill="#434142" font-family="NanumSquareNeovariable-Heavy, &apos;NanumSquare Neo variable&apos;" font-size="14" font-variation-settings="&apos;wght&apos; 900" font-weight="800"><tspan x="0" y="0">락커룸</tspan></text></g><g id="Layer_310"><rect x="1076.76" y="97.27" width="270.74" height="286.66" transform="translate(2424.26 481.2) rotate(180)" fill="#f8cdce" stroke="#e18686" stroke-miterlimit="10" stroke-width="3"/><text transform="translate(1189.96 229.72)" fill="#434142" font-family="NanumSquareNeovariable-Heavy, &apos;NanumSquare Neo variable&apos;" font-size="22" font-variation-settings="&apos;wght&apos; 900" font-weight="800"><tspan x="0" y="0" letter-spacing="0em">3</tspan><tspan x="15.66" y="0">10</tspan></text><text transform="translate(1180.37 259.72)" fill="#434142" font-family="NanumSquareNeovariable-Regular, &apos;NanumSquare Neo variable&apos;" font-size="22" font-variation-settings="&apos;wght&apos; 300"><tspan x="0" y="0">남령홀</tspan></text></g><g id="Layer_toilet1"><polygon points="874.76 311.77 947.76 311.77 947.76 246.11 1015.76 246.11 1015.76 98.35 953.76 98.35 935.76 98.35 880.76 98.35 880.76 198.22 874.76 198.22 874.76 311.77" fill="none" stroke="#e18686" stroke-miterlimit="10" stroke-width="3"/></g><g id="Layer_toilet2"><polygon points="874.76 311.33 874.76 243.06 874.76 236.94 874.76 198.22 880.76 198.22 880.76 97.33 874.76 97.33 850.76 97.33 792.76 97.33 792.76 236.94 792.76 243.06 792.76 311.33 874.76 311.33" fill="none" stroke="#e18686" stroke-miterlimit="10" stroke-width="3"/></g></svg>