<?xml version="1.0" encoding="UTF-8"?>
<svg id="_x34_" xmlns="http://www.w3.org/2000/svg" viewBox="0 0 1394 788">
  <defs>
    <style>
      .cls-1 {
        fill: #fcf2f2;
        stroke-width: 10px;
      }

      .cls-1,
      .cls-2,
      .cls-3 {
        stroke: #e68b8b;
        stroke-miterlimit: 10;
      }

      .cls-4 {
        font-size: 10px;
      }

      .cls-5 {
        font-size: 11.59px;
      }

      .cls-6 {
        font-size: 13.52px;
      }

      .cls-7,
      .cls-8 {
        font-size: 14px;
      }

      .cls-9 {
        letter-spacing: 0em;
      }

      .cls-2 {
        fill: none;
      }

      .cls-2,
      .cls-3 {
        stroke-width: 3px;
      }

      .cls-10,
      .cls-8 {
        fill: #221f20;
        font-family: NanumSquareNeoTTF-dEb, "NanumSquare Neo";
      }

      .cls-11 {
        letter-spacing: 0em;
      }

      .cls-12 {
        letter-spacing: -0.02em;
      }

      .cls-13 {
        letter-spacing: -0.03em;
      }

      .cls-14 {
        letter-spacing: -0.01em;
      }

      .cls-3 {
        fill: #f3cdcf;
      }
    </style>
  </defs>
  <g id="Layer_x5F_border-4" data-name="Layer_x5F_border">
    <polygon
      class="cls-1"
      points="40 253 40 600.4 1351.67 600.4 1351.67 401 1257.65 401 1257.65 253 40 253"
    />
  </g>
  <g id="Layer_x5F_others-4" data-name="Layer_x5F_others">
    <rect class="cls-3" x="40.5" y="253.5" width="69" height="147" />
    <g>
      <rect
        class="cls-2"
        x="61.18"
        y="301.18"
        width="146.64"
        height="51"
        transform="translate(461.18 192.18) rotate(90)"
      />
      <g>
        <rect
          class="cls-2"
          x="143.55"
          y="278.23"
          width="7.39"
          height="25.5"
          transform="translate(438.23 143.73) rotate(90)"
        />
        <rect
          class="cls-2"
          x="143.55"
          y="285.62"
          width="7.39"
          height="25.5"
          transform="translate(445.62 151.12) rotate(90)"
        />
        <rect
          class="cls-2"
          x="143.55"
          y="293.02"
          width="7.39"
          height="25.5"
          transform="translate(453.02 158.52) rotate(90)"
        />
        <rect
          class="cls-2"
          x="143.55"
          y="300.41"
          width="7.39"
          height="25.5"
          transform="translate(460.41 165.91) rotate(90)"
        />
        <rect
          class="cls-2"
          x="143.55"
          y="307.81"
          width="7.39"
          height="25.5"
          transform="translate(467.81 173.31) rotate(90)"
        />
        <rect
          class="cls-2"
          x="143.55"
          y="315.24"
          width="7.39"
          height="25.5"
          transform="translate(475.24 180.74) rotate(90)"
        />
        <rect
          class="cls-2"
          x="143.55"
          y="322.64"
          width="7.39"
          height="25.5"
          transform="translate(482.63 188.13) rotate(90)"
        />
        <rect
          class="cls-2"
          x="143.55"
          y="330.03"
          width="7.39"
          height="25.5"
          transform="translate(490.03 195.53) rotate(90)"
        />
        <rect
          class="cls-2"
          x="143.55"
          y="337.42"
          width="7.39"
          height="25.5"
          transform="translate(497.42 202.92) rotate(90)"
        />
        <rect
          class="cls-2"
          x="143.55"
          y="344.82"
          width="7.39"
          height="25.5"
          transform="translate(504.82 210.32) rotate(90)"
        />
      </g>
      <g>
        <rect
          class="cls-2"
          x="118.05"
          y="278.09"
          width="7.39"
          height="25.5"
          transform="translate(412.59 169.09) rotate(90)"
        />
        <rect
          class="cls-2"
          x="118.05"
          y="285.48"
          width="7.39"
          height="25.5"
          transform="translate(419.98 176.48) rotate(90)"
        />
        <rect
          class="cls-2"
          x="118.05"
          y="292.88"
          width="7.39"
          height="25.5"
          transform="translate(427.38 183.87) rotate(90)"
        />
        <rect
          class="cls-2"
          x="118.05"
          y="300.27"
          width="7.39"
          height="25.5"
          transform="translate(434.77 191.27) rotate(90)"
        />
        <rect
          class="cls-2"
          x="118.05"
          y="307.67"
          width="7.39"
          height="25.5"
          transform="translate(442.17 198.66) rotate(90)"
        />
        <rect
          class="cls-2"
          x="118.05"
          y="315.1"
          width="7.39"
          height="25.5"
          transform="translate(449.6 206.1) rotate(90)"
        />
        <rect
          class="cls-2"
          x="118.05"
          y="322.49"
          width="7.39"
          height="25.5"
          transform="translate(456.99 213.49) rotate(90)"
        />
        <rect
          class="cls-2"
          x="118.05"
          y="329.89"
          width="7.39"
          height="25.5"
          transform="translate(464.39 220.89) rotate(90)"
        />
        <rect
          class="cls-2"
          x="118.05"
          y="337.28"
          width="7.39"
          height="25.5"
          transform="translate(471.78 228.28) rotate(90)"
        />
        <rect
          class="cls-2"
          x="118.05"
          y="344.68"
          width="7.39"
          height="25.5"
          transform="translate(479.18 235.68) rotate(90)"
        />
      </g>
    </g>
    <g>
      <polygon
        class="cls-3"
        points="895.82 404.29 951.6 404.29 951.6 315.21 929.14 315.21 929.14 347.29 895.82 347.29 895.82 404.29"
      />
      <g>
        <rect
          class="cls-2"
          x="920.39"
          y="285.18"
          width="150.31"
          height="86.91"
          transform="translate(1324.18 -666.91) rotate(90)"
        />
        <g>
          <rect
            class="cls-2"
            x="1013.48"
            y="270.31"
            width="7.58"
            height="43.45"
            transform="translate(1309.31 -725.23) rotate(90)"
          />
          <rect
            class="cls-2"
            x="1013.48"
            y="277.89"
            width="7.58"
            height="43.45"
            transform="translate(1316.89 -717.65) rotate(90)"
          />
          <rect
            class="cls-2"
            x="1013.48"
            y="285.47"
            width="7.58"
            height="43.45"
            transform="translate(1324.47 -710.07) rotate(90)"
          />
          <rect
            class="cls-2"
            x="1013.48"
            y="293.05"
            width="7.58"
            height="43.45"
            transform="translate(1332.05 -702.49) rotate(90)"
          />
          <rect
            class="cls-2"
            x="1013.48"
            y="300.63"
            width="7.58"
            height="43.45"
            transform="translate(1339.63 -694.91) rotate(90)"
          />
          <rect
            class="cls-2"
            x="1013.48"
            y="308.25"
            width="7.58"
            height="43.45"
            transform="translate(1347.25 -687.29) rotate(90)"
          />
          <rect
            class="cls-2"
            x="1013.48"
            y="315.83"
            width="7.58"
            height="43.45"
            transform="translate(1354.83 -679.72) rotate(90)"
          />
          <rect
            class="cls-2"
            x="1013.48"
            y="323.41"
            width="7.58"
            height="43.45"
            transform="translate(1362.41 -672.14) rotate(90)"
          />
          <rect
            class="cls-2"
            x="1013.48"
            y="330.99"
            width="7.58"
            height="43.45"
            transform="translate(1369.99 -664.56) rotate(90)"
          />
          <rect
            class="cls-2"
            x="1013.48"
            y="338.57"
            width="7.58"
            height="43.45"
            transform="translate(1377.57 -656.98) rotate(90)"
          />
        </g>
        <g>
          <rect
            class="cls-2"
            x="970.03"
            y="270.17"
            width="7.58"
            height="43.45"
            transform="translate(1265.71 -681.92) rotate(90)"
          />
          <rect
            class="cls-2"
            x="970.03"
            y="277.75"
            width="7.58"
            height="43.45"
            transform="translate(1273.29 -674.34) rotate(90)"
          />
          <rect
            class="cls-2"
            x="970.03"
            y="285.33"
            width="7.58"
            height="43.45"
            transform="translate(1280.87 -666.76) rotate(90)"
          />
          <rect
            class="cls-2"
            x="970.03"
            y="292.91"
            width="7.58"
            height="43.45"
            transform="translate(1288.45 -659.18) rotate(90)"
          />
          <rect
            class="cls-2"
            x="970.03"
            y="300.49"
            width="7.58"
            height="43.45"
            transform="translate(1296.03 -651.6) rotate(90)"
          />
          <rect
            class="cls-2"
            x="970.03"
            y="308.1"
            width="7.58"
            height="43.45"
            transform="translate(1303.65 -643.99) rotate(90)"
          />
          <rect
            class="cls-2"
            x="970.03"
            y="315.68"
            width="7.58"
            height="43.45"
            transform="translate(1311.23 -636.41) rotate(90)"
          />
          <rect
            class="cls-2"
            x="970.03"
            y="323.26"
            width="7.58"
            height="43.45"
            transform="translate(1318.81 -628.83) rotate(90)"
          />
          <rect
            class="cls-2"
            x="970.03"
            y="330.84"
            width="7.58"
            height="43.45"
            transform="translate(1326.39 -621.25) rotate(90)"
          />
          <rect
            class="cls-2"
            x="970.03"
            y="338.42"
            width="7.58"
            height="43.45"
            transform="translate(1333.97 -613.67) rotate(90)"
          />
        </g>
      </g>
    </g>
    <g>
      <rect class="cls-3" x="1224.5" y="253.5" width="34" height="59" />
      <rect class="cls-3" x="1158.5" y="253.5" width="66" height="59" />
      <rect class="cls-3" x="1114.5" y="312.5" width="44" height="44" />
      <rect class="cls-3" x="1114.5" y="356.5" width="44" height="48" />
      <rect class="cls-3" x="1158.5" y="312.5" width="51" height="92" />
      <rect class="cls-3" x="1114.5" y="253.5" width="44" height="59" />
    </g>
  </g>
  <g id="Layer_99">
    <rect class="cls-3" x="518.5" y="488.5" width="59" height="112" />
    <text class="cls-8" transform="translate(534.83 539.58)">
      <tspan class="cls-12" x="0" y="0">4</tspan>
      <tspan x="9.74" y="0">12</tspan>
      <tspan x="-6.74" y="16.8">연구실</tspan>
    </text>
  </g>
  <g id="Layer_100">
    <rect class="cls-3" x="577.5" y="488.5" width="59" height="112" />
    <text class="cls-8" transform="translate(595.2 539.58)">
      <tspan class="cls-12" x="0" y="0">4</tspan>
      <tspan x="9.74" y="0">11</tspan>
      <tspan x="-8.11" y="16.8">연구실</tspan>
    </text>
  </g>
  <g id="Layer_101">
    <rect class="cls-3" x="636.5" y="488.5" width="59" height="112" />
    <text class="cls-8" transform="translate(652.52 539.58)">
      <tspan class="cls-12" x="0" y="0">4</tspan>
      <tspan class="cls-9" x="9.74" y="0">10</tspan>
      <tspan x="-6.43" y="16.8">연구실</tspan>
    </text>
  </g>
  <g id="Layer_102">
    <rect class="cls-3" x="695.5" y="488.5" width="59" height="112" />
    <text class="cls-8" transform="translate(709.87 539.58)">
      <tspan x="0" y="0">409</tspan>
      <tspan x="-4.77" y="16.8">연구실</tspan>
    </text>
  </g>
  <g id="Layer_103">
    <rect class="cls-3" x="754.5" y="488.5" width="60" height="112" />
    <text class="cls-8" transform="translate(769.22 539.58)">
      <tspan x="0" y="0">408</tspan>
      <tspan x="-4.63" y="16.8">연구실</tspan>
    </text>
  </g>
  <g id="Layer_104">
    <rect class="cls-3" x="814.5" y="488.5" width="57" height="112" />
    <text class="cls-8" transform="translate(827.89 539.58)">
      <tspan x="0" y="0">407</tspan>
      <tspan x="-5.33" y="16.8">연구실</tspan>
    </text>
  </g>
  <g id="Layer_105">
    <rect class="cls-3" x="814.5" y="253.5" width="54" height="197" />
    <text class="cls-8" transform="translate(826.53 347.08)">
      <tspan x="0" y="0">433</tspan>
      <tspan x="-4.94" y="16.8">연구실</tspan>
    </text>
  </g>
  <g id="Layer_106">
    <polygon
      class="cls-2"
      points="868.6 253.29 868.6 364.29 868.6 404.29 895.94 404.29 895.94 364.29 895.82 364.29 895.82 347.29 929.14 347.29 929.14 315.21 951.6 315.21 951.6 253.29 868.6 253.29"
    />
  </g>
  <g id="Layer_107">
    <rect class="cls-3" x="871.5" y="488.5" width="119" height="112" />
    <text class="cls-8" transform="translate(915.87 539.58)">
      <tspan x="0" y="0">406</tspan>
      <tspan x="-52.96" y="16.8">기계공학부 정보자료실</tspan>
    </text>
  </g>
  <g id="Layer_108">
    <rect class="cls-3" x="990.5" y="488.5" width="119" height="112" />
    <text class="cls-8" transform="translate(1035.01 539.58)">
      <tspan x="0" y="0">405</tspan>
      <tspan x="-39.83" y="16.8">기계공학부 행정실</tspan>
    </text>
  </g>
  <g id="Layer_109">
    <rect class="cls-3" x="1109.5" y="441.5" width="62" height="159" />
    <text class="cls-10" transform="translate(1125.33 513.09)">
      <tspan class="cls-7"><tspan x="0" y="0">404</tspan></tspan>
      <tspan class="cls-4"><tspan x="-9.77" y="12">기계공학부</tspan></tspan>
      <tspan class="cls-4"><tspan x="-3.79" y="24">세미나실</tspan></tspan>
    </text>
  </g>
  <g id="Layer_110">
    <rect class="cls-3" x="1171.5" y="441.5" width="56" height="159" />
    <text class="cls-10" transform="translate(1184.37 513.08)">
      <tspan class="cls-7"><tspan x="0" y="0">403</tspan></tspan>
      <tspan class="cls-4"><tspan x="-9.81" y="12">기계공학부</tspan></tspan>
      <tspan class="cls-4"><tspan x="-3.83" y="24">세미나실</tspan></tspan>
    </text>
  </g>
  <g id="Layer_111">
    <rect class="cls-3" x="1227.5" y="441.5" width="58" height="159" />
    <text class="cls-10" transform="translate(1242.02 510.74)">
      <tspan class="cls-6"><tspan x="0" y="0">402</tspan></tspan>
      <tspan class="cls-5">
        <tspan x="-12.99" y="13.91">기계공학부</tspan>
      </tspan>
      <tspan class="cls-5"><tspan x="-2.01" y="27.82">자료실</tspan></tspan>
    </text>
  </g>
  <g id="Layer_112">
    <rect class="cls-3" x="1285.5" y="441.5" width="66" height="159" />
    <text class="cls-8" transform="translate(1304.88 516.08)">
      <tspan x="0" y="0">401</tspan>
      <tspan x="-6.29" y="16.8">연구실</tspan>
    </text>
  </g>
  <g id="Layer_113">
    <rect class="cls-2" x="1209.5" y="312.5" width="49" height="92" />
  </g>
  <g id="Layer_83">
    <rect class="cls-3" x="159.5" y="253.5" width="64" height="197" />
    <text class="cls-8" transform="translate(176.83 347.08)">
      <tspan x="0" y="0">422</tspan>
      <tspan x="-5.24" y="16.8">연구실</tspan>
    </text>
  </g>
  <g id="Layer_84">
    <rect class="cls-3" x="223.5" y="253.5" width="59" height="197" />
    <text class="cls-8" transform="translate(238.18 347.08)">
      <tspan x="0" y="0">423</tspan>
      <tspan x="-5.09" y="16.8">연구실</tspan>
    </text>
  </g>
  <g id="Layer_85">
    <rect class="cls-3" x="342.5" y="253.5" width="58" height="197" />
    <text class="cls-8" transform="translate(356.82 347.08)">
      <tspan x="0" y="0">425</tspan>
      <tspan x="-5.23" y="16.8">연구실</tspan>
    </text>
  </g>
  <g id="Layer_86">
    <rect class="cls-3" x="282.5" y="253.5" width="60" height="197" />
    <text class="cls-8" transform="translate(297.86 347.08)">
      <tspan x="0" y="0">4</tspan>
      <tspan class="cls-13" x="10.02" y="0">2</tspan>
      <tspan x="19.26" y="0">4</tspan>
      <tspan x="-5.26" y="16.8">연구실</tspan>
    </text>
  </g>
  <g id="Layer_87">
    <rect class="cls-3" x="40.5" y="488.5" width="64" height="112" />
    <text class="cls-8" transform="translate(57.51 539.58)">
      <tspan x="0" y="0">420</tspan>
      <tspan x="-4.92" y="16.8">연구실</tspan>
    </text>
  </g>
  <g id="Layer_88">
    <rect class="cls-3" x="104.5" y="488.5" width="55" height="112" />
    <text class="cls-8" transform="translate(118.69 539.58)">
      <tspan class="cls-12" x="0" y="0">4</tspan>
      <tspan class="cls-9" x="9.74" y="0">19</tspan>
      <tspan x="-6.59" y="16.8">연구실</tspan>
    </text>
  </g>
  <g id="Layer_89">
    <rect class="cls-3" x="159.5" y="488.5" width="64" height="112" />
    <text class="cls-8" transform="translate(178.04 539.58)">
      <tspan class="cls-12" x="0" y="0">4</tspan>
      <tspan x="9.74" y="0">18</tspan>
      <tspan x="-6.45" y="16.8">연구실</tspan>
    </text>
  </g>
  <g id="Layer_90">
    <rect class="cls-3" x="223.5" y="488.5" width="59" height="112" />
    <text class="cls-8" transform="translate(240.25 539.58)">
      <tspan class="cls-12" x="0" y="0">4</tspan>
      <tspan x="9.74" y="0">17</tspan>
      <tspan x="-7.15" y="16.8">연구실</tspan>
    </text>
  </g>
  <g id="Layer_91">
    <rect class="cls-3" x="282.5" y="488.5" width="60" height="112" />
    <text class="cls-8" transform="translate(299.19 539.58)">
      <tspan class="cls-12" x="0" y="0">4</tspan>
      <tspan class="cls-9" x="9.74" y="0">16</tspan>
      <tspan x="-6.59" y="16.8">연구실</tspan>
    </text>
  </g>
  <g id="Layer_92">
    <rect class="cls-3" x="342.5" y="488.5" width="58" height="112" />
    <text class="cls-8" transform="translate(358.33 539.58)">
      <tspan class="cls-12" x="0" y="0">4</tspan>
      <tspan x="9.74" y="0">15</tspan>
      <tspan x="-6.73" y="16.8">연구실</tspan>
    </text>
  </g>
  <g id="Layer_93">
    <rect class="cls-3" x="400.5" y="253.5" width="58" height="197" />
    <text class="cls-8" transform="translate(414.68 347.08)">
      <tspan x="0" y="0">426</tspan>
      <tspan x="-5.09" y="16.8">연구실</tspan>
    </text>
  </g>
  <g id="Layer_94">
    <rect class="cls-3" x="458.5" y="253.5" width="60" height="197" />
    <text class="cls-8" transform="translate(474.24 347.08)">
      <tspan x="0" y="0">427</tspan>
      <tspan x="-5.65" y="16.8">연구실</tspan>
    </text>
  </g>
  <g id="Layer_95">
    <rect class="cls-3" x="518.5" y="253.5" width="59" height="197" />
    <text class="cls-8" transform="translate(533.03 347.08)">
      <tspan x="0" y="0">428</tspan>
      <tspan x="-4.94" y="16.8">연구실</tspan>
    </text>
  </g>
  <g id="Layer_96">
    <rect class="cls-3" x="577.5" y="253.5" width="59" height="197" />
    <text class="cls-8" transform="translate(592.18 347.08)">
      <tspan x="0" y="0">429</tspan>
      <tspan x="-5.09" y="16.8">연구실</tspan>
    </text>
  </g>
  <g id="Layer_97">
    <rect class="cls-3" x="636.5" y="253.5" width="61" height="197" />
    <text class="cls-8" transform="translate(651.87 347.08)">
      <tspan x="0" y="0">430</tspan>
      <tspan x="-4.77" y="16.8">연구실</tspan>
    </text>
  </g>
  <g id="Layer_98">
    <rect class="cls-3" x="697.5" y="253.5" width="57" height="197" />
    <text class="cls-8" transform="translate(712.62 347.08)">
      <tspan x="0" y="0">4</tspan>
      <tspan class="cls-14" x="10.02" y="0">3</tspan>
      <tspan class="cls-11" x="19.84" y="0">1</tspan>
      <tspan x="-6.52" y="16.8">연구실</tspan>
    </text>
  </g>
  <g id="Layer_79">
    <rect class="cls-3" x="754.5" y="253.5" width="60" height="197" />
    <text class="cls-8" transform="translate(769.68 347.08)">
      <tspan x="0" y="0">432</tspan>
      <tspan x="-5.09" y="16.8">연구실</tspan>
    </text>
  </g>
  <g id="Layer_80">
    <rect class="cls-3" x="400.5" y="488.5" width="58" height="112" />
    <text class="cls-8" transform="translate(416.15 539.58)">
      <tspan class="cls-12" x="0" y="0">4</tspan>
      <tspan class="cls-9" x="9.74" y="0">14</tspan>
      <tspan x="-6.56" y="16.8">연구실</tspan>
    </text>
  </g>
  <g id="Layer_81">
    <rect class="cls-3" x="458.5" y="488.5" width="60" height="112" />
    <text class="cls-8" transform="translate(475.19 539.58)">
      <tspan class="cls-12" x="0" y="0">4</tspan>
      <tspan class="cls-9" x="9.74" y="0">13</tspan>
      <tspan x="-6.59" y="16.8">연구실</tspan>
    </text>
  </g>
</svg>
