<?xml version="1.0" encoding="UTF-8"?><svg xmlns="http://www.w3.org/2000/svg" viewBox="0 0 1800 1400"><defs><style>.cls-1{fill:#fdf3f2;}.cls-2{fill:#e18686;}.cls-3{fill:#f5cbcc;}.cls-3,.cls-4,.cls-5{stroke-miterlimit:10;stroke-width:2px;}.cls-3,.cls-5{stroke:#d88282;}.cls-6{font-size:22px;}.cls-6,.cls-7{fill:#434142;font-family:NanumSquareNeovariable-Heavy, 'NanumSquare Neo variable';font-variation-settings:'wght' 900;font-weight:800;}.cls-7{font-size:26px;}.cls-4{stroke:#d07e7e;}.cls-4,.cls-5{fill:none;}</style></defs><g id="Layer_border"><rect class="cls-1" x="107.77" y="414.98" width="1590.65" height="543.99"/><path class="cls-2" d="m1693.63,419.77v534.41H112.55V419.77h1581.08m9.58-9.58H102.98v553.57h1600.23V410.19h0Z"/></g><g id="Layer_others"><rect class="cls-4" x="995.86" y="655.8" width="146.07" height="67.36"/><line class="cls-4" x1="1005.65" y1="655.8" x2="1005.65" y2="723.16"/><line class="cls-4" x1="1015.65" y1="655.8" x2="1015.65" y2="723.16"/><line class="cls-4" x1="1025.65" y1="655.8" x2="1025.65" y2="723.16"/><line class="cls-4" x1="1035.65" y1="655.8" x2="1035.65" y2="723.16"/><line class="cls-4" x1="1045.65" y1="655.8" x2="1045.65" y2="723.16"/><line class="cls-4" x1="1055.65" y1="655.8" x2="1055.65" y2="723.16"/><line class="cls-4" x1="1065.65" y1="655.8" x2="1065.65" y2="723.16"/><line class="cls-4" x1="1075.65" y1="655.8" x2="1075.65" y2="723.16"/><line class="cls-4" x1="1085.65" y1="655.8" x2="1085.65" y2="723.16"/><line class="cls-4" x1="1095.65" y1="655.8" x2="1095.65" y2="723.16"/><line class="cls-4" x1="1105.65" y1="655.8" x2="1105.65" y2="723.16"/><line class="cls-4" x1="1115.65" y1="655.8" x2="1115.65" y2="723.16"/><polygon class="cls-4" points="796.2 754.15 796.2 854.6 772.97 854.6 772.97 754.15 713.82 754.15 713.82 907.12 726.83 907.12 772.97 907.12 796.2 907.12 844.28 907.12 855.35 907.12 855.35 754.15 796.2 754.15"/><line class="cls-4" x1="713.82" y1="765.89" x2="772.97" y2="765.89"/><line class="cls-4" x1="713.82" y1="775.89" x2="772.97" y2="775.89"/><line class="cls-4" x1="713.82" y1="785.89" x2="772.97" y2="785.89"/><line class="cls-4" x1="713.82" y1="795.89" x2="772.97" y2="795.89"/><line class="cls-4" x1="713.82" y1="805.89" x2="772.97" y2="805.89"/><line class="cls-4" x1="713.82" y1="815.89" x2="772.97" y2="815.89"/><line class="cls-4" x1="713.82" y1="825.89" x2="772.97" y2="825.89"/><line class="cls-4" x1="796.7" y1="765.89" x2="855.85" y2="765.89"/><line class="cls-4" x1="796.7" y1="775.89" x2="855.85" y2="775.89"/><line class="cls-4" x1="796.7" y1="785.89" x2="855.85" y2="785.89"/><line class="cls-4" x1="796.7" y1="795.89" x2="855.85" y2="795.89"/><line class="cls-4" x1="796.7" y1="805.89" x2="855.85" y2="805.89"/><line class="cls-4" x1="796.7" y1="815.89" x2="855.85" y2="815.89"/><line class="cls-4" x1="796.7" y1="825.89" x2="855.85" y2="825.89"/><line class="cls-4" x1="796.7" y1="836.3" x2="855.85" y2="836.3"/><line class="cls-4" x1="796.7" y1="846.3" x2="855.85" y2="846.3"/><line class="cls-4" x1="713.82" y1="835.89" x2="772.97" y2="835.89"/><line class="cls-4" x1="713.82" y1="845.89" x2="772.97" y2="845.89"/><rect class="cls-4" x="1360.62" y="653.29" width="146.07" height="67.36"/><line class="cls-4" x1="1370.41" y1="653.29" x2="1370.41" y2="720.66"/><line class="cls-4" x1="1380.41" y1="653.29" x2="1380.41" y2="720.66"/><line class="cls-4" x1="1390.41" y1="653.29" x2="1390.41" y2="720.66"/><line class="cls-4" x1="1400.41" y1="653.29" x2="1400.41" y2="720.66"/><line class="cls-4" x1="1410.41" y1="653.29" x2="1410.41" y2="720.66"/><line class="cls-4" x1="1420.41" y1="653.29" x2="1420.41" y2="720.66"/><line class="cls-4" x1="1430.41" y1="653.29" x2="1430.41" y2="720.66"/><line class="cls-4" x1="1440.41" y1="653.29" x2="1440.41" y2="720.66"/><line class="cls-4" x1="1450.41" y1="653.29" x2="1450.41" y2="720.66"/><line class="cls-4" x1="1460.41" y1="653.29" x2="1460.41" y2="720.66"/><line class="cls-4" x1="1470.41" y1="653.29" x2="1470.41" y2="720.66"/><line class="cls-4" x1="1480.41" y1="653.29" x2="1480.41" y2="720.66"/><rect class="cls-4" x="1209.43" y="677.51" width="76.89" height="58.09"/><rect class="cls-4" x="1227.46" y="686.98" width="38.51" height="40.38"/><rect class="cls-4" x="1072.27" y="723.16" width="95.23" height="44.93"/><line class="cls-4" x1="1085.65" y1="723.16" x2="1085.65" y2="768.09"/><line class="cls-4" x1="1095.65" y1="723.16" x2="1095.65" y2="768.09"/><line class="cls-4" x1="1105.65" y1="723.16" x2="1105.65" y2="768.09"/><line class="cls-4" x1="1115.65" y1="719.44" x2="1115.65" y2="768.09"/><line class="cls-4" x1="1125.08" y1="723.16" x2="1125.08" y2="768.09"/><line class="cls-4" x1="1135.27" y1="723.16" x2="1135.27" y2="768.09"/><line class="cls-4" x1="1085.65" y1="607.2" x2="1085.65" y2="655.8"/><line class="cls-4" x1="1075.65" y1="607.2" x2="1075.65" y2="655.8"/><line class="cls-4" x1="1065.65" y1="607.2" x2="1065.65" y2="655.8"/></g><g id="Layer_B10A"><polygon class="cls-3" points="784.35 907.12 855.2 907.12 855.2 860.6 947.87 860.6 947.87 953.65 861.45 953.65 855.2 953.65 784.35 953.65 784.35 907.12"/><text class="cls-6" transform="translate(869.67 914.21)"><tspan x="0" y="0">210A</tspan></text></g><g id="Layer_B10B"><polygon class="cls-3" points="784.35 907.66 713.49 907.66 713.49 861.13 620.82 861.13 620.82 954.18 707.24 954.18 713.49 954.18 784.35 954.18 784.35 907.66"/><text class="cls-6" transform="translate(638.07 914.21)"><tspan x="0" y="0">210B</tspan></text></g><g id="Layer_B203"><rect class="cls-3" x="1025.65" y="768.09" width="260.66" height="186.1"/><text class="cls-7" transform="translate(1117.92 868.22)"><tspan x="0" y="0">B203</tspan></text></g><g id="Layer_B204"><polygon class="cls-3" points="1506.69 768.09 1506.69 719.44 1286.31 719.44 1286.31 768.09 1286.31 841.05 1286.31 954.18 1693.4 954.18 1693.4 768.09 1506.69 768.09"/><text class="cls-7" transform="translate(1451.87 868.22)"><tspan x="0" y="0">B204</tspan></text><rect class="cls-3" x="1506.69" y="719.44" width="186.72" height="51.17"/></g><g id="Layer_B205"><rect class="cls-3" x="1506.69" y="419.77" width="186.72" height="299.67"/><text class="cls-7" transform="translate(1562.28 586.05)"><tspan x="0" y="0">B205</tspan></text></g><g id="Layer_B206"><rect class="cls-3" x="1015.65" y="419.77" width="491.03" height="187.43" transform="translate(2522.34 1026.97) rotate(180)"/><text class="cls-7" transform="translate(1223.12 519.42)"><tspan x="0" y="0">B206</tspan></text></g><g id="Layer_B208"><rect class="cls-3" x="941.15" y="655.8" width="54.71" height="67.36"/><text class="cls-6" transform="translate(936.1 697.88)"><tspan x="0" y="0">B208</tspan></text></g><g id="Layer_toilet1"><rect class="cls-5" x="937.87" y="419.77" width="77.79" height="187.43"/></g><g id="Layer_toilet2"><rect class="cls-5" x="947.87" y="768.09" width="77.79" height="186.1"/></g><g id="Layer_라운지"><rect class="cls-5" x="620.82" y="419.77" width="317.05" height="117.93" transform="translate(1558.69 957.47) rotate(180)"/><text class="cls-6" transform="translate(745.93 487.22)"><tspan x="0" y="0">라운지</tspan></text></g><g id="Layer_강당"><path class="cls-3" d="m507.01,462.15c0-14.13,0-28.26,0-42.38H112.55v534.41h0v-79.63c36.91-.3,73.82-.59,110.73-.89,14.67,7.43,29.34,14.86,44.01,22.29v58.23h239.72v-42.38c10.2-37.45,20.39-74.9,30.59-112.35h83.23v-39.91h-83.23v-134.89h83.23v-50.14h-83.23c-10.2-37.45-20.39-74.9-30.59-112.35Z"/><text class="cls-7" transform="translate(340.49 711.88)"><tspan x="0" y="0">강당</tspan></text><text class="cls-7" transform="translate(329.77 676.17)"><tspan x="0" y="0">B201</tspan></text></g><g id="Layer_B201A"><path class="cls-3" d="m620.82,419.77c-37.94,0-75.88,0-113.82,0,0,14.13,0,28.26,0,42.38,10.2,37.45,20.39,74.9,30.59,112.35,27.74,0,55.49,0,83.23,0v-154.74Z"/><text class="cls-6" transform="translate(532.14 487.22)"><tspan x="0" y="0">B201A</tspan></text></g><g id="Layer_B201B"><rect class="cls-3" x="537.59" y="624.65" width="83.23" height="134.89"/><text class="cls-6" transform="translate(540.92 697.88)"><tspan x="0" y="0">B201B</tspan></text></g><g id="Layer_B201C"><path class="cls-3" d="m620.82,954.18h-113.82v-42.38c10.2-37.45,20.39-74.9,30.59-112.35h83.23v154.74Z"/><text class="cls-6" transform="translate(531.21 889.17)"><tspan x="0" y="0">B201C</tspan></text></g><g id="Layer_B201D"><path class="cls-3" d="m112.55,954.18v-79.63c36.91-.3,73.82-.59,110.73-.89,14.67,7.43,29.34,14.86,44.01,22.29v58.23H112.55Z"/><text class="cls-6" transform="translate(151.3 920.81)"><tspan x="0" y="0">B201D</tspan></text></g></svg>