<?xml version="1.0" encoding="UTF-8"?>
<svg id="_x31_" xmlns="http://www.w3.org/2000/svg" viewBox="0 0 1353.14 958.41">
  <defs>
    <style>
      .cls-1 {
        fill: #fcf2f2;
        stroke-width: 10px;
      }

      .cls-1,
      .cls-2,
      .cls-3 {
        stroke: #e68b8b;
        stroke-miterlimit: 10;
      }

      .cls-2 {
        fill: none;
      }

      .cls-2,
      .cls-3 {
        stroke-width: 3px;
      }

      .cls-4 {
        fill: #221f20;
        font-family: NanumSquareNeoTTF-dEb, "NanumSquare Neo";
        font-size: 12px;
      }

      .cls-5 {
        letter-spacing: -0.03em;
      }

      .cls-3 {
        fill: #f3cdcf;
      }
    </style>
  </defs>
  <g id="Layer_x5F_border">
    <polygon
      class="cls-1"
      points="989.47 377.85 989.47 399.39 912.34 399.39 912.34 313.71 572.93 313.71 572.93 328.06 469.06 328.06 469.06 253.04 139.19 253.04 139.19 685.7 912.65 685.7 912.65 784.22 1093.99 784.22 1213.96 784.22 1213.96 681.92 1213.96 678.2 1213.96 377.85 989.47 377.85"
    />
  </g>
  <g id="Layer_3">
    <rect class="cls-3" x="361.39" y="367.99" width="83.7" height="67.92" />
    <text class="cls-4" transform="translate(387.37 396.38)">
      <tspan x="0" y="0">107A</tspan>
      <tspan x="-1.19" y="14.4">감시실</tspan>
    </text>
  </g>
  <g id="Layer_4">
    <rect class="cls-3" x="445.1" y="367.99" width="48.01" height="67.92" />
    <text class="cls-4" transform="translate(453.42 396.38)">
      <tspan x="0" y="0">107B</tspan>
      <tspan x="-1.38" y="14.4">숙직실</tspan>
    </text>
  </g>
  <g id="Layer_5">
    <rect class="cls-2" x="574.25" y="408.13" width="32.48" height="27.77" />
  </g>
  <g id="Layer_6">
    <polygon
      class="cls-2"
      points="629.84 435.9 606.73 435.9 606.73 408.13 555 408.13 555 328.01 572.93 328.01 572.93 313.71 629.84 313.71 629.84 435.9"
    />
  </g>
  <g id="Layer_7">
    <rect class="cls-2" x="629.84" y="313.71" width="62.04" height="122.19" />
  </g>
  <g id="Layer_8">
    <rect class="cls-3" x="985.13" y="636.73" width="110.91" height="41.46" />
    <text class="cls-4" transform="translate(1031.94 653.47)">
      <tspan x="0" y="0">109</tspan>
      <tspan x="-11.11" y="14.4">카페몰리</tspan>
    </text>
  </g>
  <g id="Layer_9">
    <rect class="cls-3" x="912.65" y="678.2" width="181.34" height="106.02" />
    <text class="cls-4" transform="translate(987.49 731.21)">
      <tspan x="0" y="0">108</tspan>
      <tspan x="-15.12" y="14.4">emart</tspan>
      <tspan class="cls-5" x="22.15" y="14.4">2</tspan>
      <tspan x="30.07" y="14.4">4</tspan>
    </text>
  </g>
  <g id="Layer_10">
    <rect class="cls-3" x="869.73" y="542.31" width="42.92" height="143.39" />
    <text class="cls-4" transform="translate(876.33 608.11)">
      <tspan x="0" y="0">101B</tspan>
      <tspan x="-2.2" y="14.4">전산실</tspan>
    </text>
  </g>
  <g id="Layer_11">
    <rect class="cls-3" x="802.29" y="575.29" width="67.44" height="110.42" />
    <text class="cls-4" transform="translate(820.95 628.49)">
      <tspan x="0" y="0">101A</tspan>
      <tspan x="-2" y="14.4">용원실</tspan>
    </text>
  </g>
  <g id="Layer_12">
    <rect class="cls-3" x="802.29" y="488.36" width="50.96" height="86.92" />
    <text class="cls-4" transform="translate(817.42 531.82)">
      <tspan x="0" y="0">101</tspan>
      <tspan x="-6.71" y="14.4">관리실</tspan>
    </text>
  </g>
  <g id="Layer_13">
    <rect class="cls-3" x="581.48" y="488.36" width="220.81" height="197.34" />
    <text class="cls-4" transform="translate(680.36 581.79)">
      <tspan x="0" y="0">102</tspan>
      <tspan x="-5.54" y="14.4">강의실</tspan>
    </text>
  </g>
  <g id="Layer_14">
    <rect class="cls-3" x="471.57" y="488.36" width="109.91" height="197.34" />
    <text class="cls-4" transform="translate(512.01 580.37)">
      <tspan x="0" y="0">103</tspan>
      <tspan x="-5.42" y="14.4">강의실</tspan>
    </text>
  </g>
  <g id="Layer_15">
    <rect class="cls-3" x="361.5" y="488.36" width="110.07" height="197.34" />
    <text class="cls-4" transform="translate(404.86 580.11)">
      <tspan x="0" y="0">104</tspan>
      <tspan x="-5.39" y="14.4">강의실</tspan>
    </text>
  </g>
  <g id="Layer_16">
    <polygon
      class="cls-3"
      points="361.93 685.7 139.19 685.7 139.19 253.04 469.06 253.04 469.06 328.06 493.11 328.06 493.11 367.99 361.25 367.99 361.93 685.7"
    />
    <text class="cls-4" transform="translate(235.79 462.13)">
      <tspan x="0" y="0">107</tspan>
      <tspan x="-5.9" y="14.4">기계실</tspan>
    </text>
  </g>
  <g id="Layer_x5F_others">
    <rect class="cls-2" x="493.11" y="328.06" width="61.89" height="107.84" />
    <rect class="cls-2" x="361.5" y="435.9" width="15.15" height="52.46" />
    <rect class="cls-2" x="912.65" y="542.31" width="72.48" height="135.88" />
    <rect class="cls-2" x="1189.46" y="442.9" width="24.5" height="101.91" />
    <rect class="cls-3" x="802.29" y="381.98" width="20.88" height="53.92" />
    <rect class="cls-2" x="691.88" y="313.71" width="32.74" height="122.19" />
    <polygon
      class="cls-3"
      points="802.29 313.71 802.29 381.98 823.17 381.98 823.17 342.04 812.73 342.04 812.73 313.71 802.29 313.71"
    />
    <rect class="cls-3" x="697.92" y="321.68" width="26.7" height="30.7" />
    <rect class="cls-3" x="697.92" y="361.73" width="26.7" height="30.04" />
    <rect class="cls-3" x="697.92" y="401.12" width="26.7" height="29.37" />
    <g>
      <rect class="cls-2" x="493.11" y="328.01" width="30.55" height="8.63" />
      <rect class="cls-2" x="493.11" y="336.65" width="30.55" height="8.98" />
      <rect class="cls-2" x="493.11" y="345.62" width="30.55" height="10.36" />
      <rect class="cls-2" x="493.11" y="355.98" width="30.55" height="8.29" />
      <rect class="cls-2" x="493.11" y="364.27" width="30.55" height="10.36" />
      <rect class="cls-2" x="493.11" y="374.63" width="30.55" height="7.42" />
      <rect class="cls-2" x="493.11" y="382.06" width="30.55" height="11.22" />
      <rect class="cls-2" x="493.11" y="393.28" width="30.55" height="10.36" />
      <rect class="cls-2" x="493.11" y="403.64" width="30.55" height="8.98" />
      <rect class="cls-2" x="493.11" y="412.62" width="30.55" height="8.98" />
    </g>
    <g>
      <rect class="cls-2" x="523.66" y="328.01" width="31.35" height="8.63" />
      <rect class="cls-2" x="523.66" y="336.65" width="31.35" height="8.98" />
      <rect class="cls-2" x="523.66" y="345.62" width="31.35" height="10.36" />
      <rect class="cls-2" x="523.66" y="355.98" width="31.35" height="8.29" />
      <rect class="cls-2" x="523.66" y="364.27" width="31.35" height="10.36" />
      <rect class="cls-2" x="523.66" y="374.63" width="31.35" height="7.42" />
      <rect class="cls-2" x="523.66" y="382.06" width="31.35" height="11.22" />
      <rect class="cls-2" x="523.66" y="393.28" width="31.35" height="10.36" />
      <rect class="cls-2" x="523.66" y="403.64" width="31.35" height="8.98" />
      <rect class="cls-2" x="523.66" y="412.62" width="31.35" height="8.98" />
    </g>
    <g>
      <rect class="cls-2" x="912.65" y="578.4" width="34.74" height="9.12" />
      <rect class="cls-2" x="912.65" y="587.52" width="34.74" height="9.49" />
      <rect class="cls-2" x="912.65" y="597.01" width="34.74" height="10.95" />
      <rect class="cls-2" x="912.65" y="607.96" width="34.74" height="8.76" />
      <rect class="cls-2" x="912.65" y="616.71" width="34.74" height="10.95" />
      <rect class="cls-2" x="912.65" y="627.66" width="34.74" height="7.85" />
      <rect class="cls-2" x="912.65" y="635.51" width="34.74" height="11.86" />
      <rect class="cls-2" x="912.65" y="647.37" width="34.74" height="10.95" />
      <rect class="cls-2" x="912.65" y="658.31" width="34.74" height="9.49" />
      <rect class="cls-2" x="912.65" y="667.8" width="34.74" height="9.49" />
    </g>
    <g>
      <rect class="cls-2" x="947.39" y="578.55" width="37.74" height="9.12" />
      <rect class="cls-2" x="947.39" y="587.68" width="37.74" height="9.49" />
      <rect class="cls-2" x="947.39" y="597.16" width="37.74" height="10.95" />
      <rect class="cls-2" x="947.39" y="608.11" width="37.74" height="8.76" />
      <rect class="cls-2" x="947.39" y="616.87" width="37.74" height="10.95" />
      <rect class="cls-2" x="947.39" y="627.81" width="37.74" height="7.85" />
      <rect class="cls-2" x="947.39" y="635.66" width="37.74" height="11.86" />
      <rect class="cls-2" x="947.39" y="647.52" width="37.74" height="10.95" />
      <rect class="cls-2" x="947.39" y="658.47" width="37.74" height="9.49" />
      <rect class="cls-2" x="947.39" y="667.95" width="37.74" height="9.49" />
    </g>
    <rect class="cls-2" x="555" y="408.13" width="19.25" height="27.77" />
    <line class="cls-2" x1="1093.99" y1="678.2" x2="1213.96" y2="678.2" />
  </g>
</svg>
