<?xml version="1.0" encoding="UTF-8"?><svg xmlns="http://www.w3.org/2000/svg" viewBox="0 0 1800 1400"><defs><style>.cls-1{font-size:10px;}.cls-1,.cls-2{fill:#434142;}.cls-1,.cls-2,.cls-3{font-family:NanumSquareNeovariable-Heavy, 'NanumSquare Neo variable';font-variation-settings:'wght' 900;font-weight:800;}.cls-4{letter-spacing:-.03em;}.cls-5{letter-spacing:-.03em;}.cls-6{stroke-width:2.09px;}.cls-6,.cls-7,.cls-8,.cls-9,.cls-10,.cls-11{stroke:#d88282;stroke-miterlimit:10;}.cls-6,.cls-9,.cls-10{fill:none;}.cls-2,.cls-3{font-size:18px;}.cls-7,.cls-8{fill:#f5cbcc;}.cls-7,.cls-9{stroke-width:2px;}.cls-8{stroke-width:2.07px;}.cls-10{stroke-width:2.08px;}.cls-11{fill:#fdf2f2;stroke-width:3px;}.cls-12{letter-spacing:0em;}.cls-3{fill:#003e44;}.cls-13{letter-spacing:0em;}</style></defs><g id="Layer_border"><path class="cls-11" d="m1204.64,889.16v39.09h-56.89v-38.66h-543.23c.18-208.78.37-417.57.55-626.35h-298.18v626.35h-136.73v92.82h.4v148.87h976.33v-40.93h57.75v40.93h358.02v-242.12h-358.02Z"/></g><g id="Layer_others"><line class="cls-6" x1="1089.37" y1="934.47" x2="1146.42" y2="934.47"/><line class="cls-6" x1="1089.37" y1="940.02" x2="1146.42" y2="940.02"/><line class="cls-6" x1="1089.37" y1="945.57" x2="1146.42" y2="945.57"/><line class="cls-6" x1="1089.37" y1="951.12" x2="1146.42" y2="951.12"/><line class="cls-6" x1="1089.37" y1="956.67" x2="1146.42" y2="956.67"/><line class="cls-6" x1="1089.37" y1="962.22" x2="1146.42" y2="962.22"/><line class="cls-6" x1="1089.37" y1="967.77" x2="1146.42" y2="967.77"/><line class="cls-6" x1="1089.37" y1="973.32" x2="1146.42" y2="973.32"/><line class="cls-9" x1="1265.46" y1="935.13" x2="1319.78" y2="935.13"/><line class="cls-9" x1="1265.46" y1="940.61" x2="1319.78" y2="940.61"/><line class="cls-9" x1="1265.46" y1="946.09" x2="1319.78" y2="946.09"/><line class="cls-9" x1="1265.19" y1="951.57" x2="1319.51" y2="951.57"/><line class="cls-9" x1="1265.19" y1="962.54" x2="1319.51" y2="962.54"/><line class="cls-9" x1="1265.19" y1="957.05" x2="1319.51" y2="957.05"/><line class="cls-9" x1="1265.19" y1="968.02" x2="1319.51" y2="968.02"/><line class="cls-9" x1="1265.19" y1="973.5" x2="1319.51" y2="973.5"/><line class="cls-9" x1="1265.46" y1="984.46" x2="1319.78" y2="984.46"/><line class="cls-9" x1="1265.19" y1="978.98" x2="1319.51" y2="978.98"/><polyline class="cls-9" points="1263.64 984.47 1263.64 1025.18 1318.96 1025.18 1318.96 1009.24"/><rect class="cls-9" x="517.87" y="915.87" width="31.38" height="32.41"/><rect class="cls-9" x="517.87" y="948.28" width="44.95" height="41.81"/><line class="cls-9" x1="402.49" y1="990.09" x2="517.87" y2="990.09"/><line class="cls-10" x1="517.87" y1="894.41" x2="517.87" y2="918.02"/><line class="cls-9" x1="562.82" y1="961.63" x2="574.02" y2="961.63"/><line class="cls-9" x1="433.39" y1="923.15" x2="433.39" y2="990.09"/><line class="cls-9" x1="484.95" y1="923.15" x2="484.95" y2="990.09"/><line class="cls-9" x1="433.39" y1="930.43" x2="484.95" y2="930.43"/><line class="cls-9" x1="433.39" y1="936.44" x2="484.95" y2="936.44"/><line class="cls-9" x1="433.39" y1="942.46" x2="484.95" y2="942.46"/><line class="cls-9" x1="433.39" y1="948.48" x2="484.95" y2="948.48"/><line class="cls-9" x1="433.39" y1="954.5" x2="484.95" y2="954.5"/><line class="cls-9" x1="433.39" y1="960.52" x2="484.95" y2="960.52"/><line class="cls-9" x1="433.39" y1="966.54" x2="484.95" y2="966.54"/><line class="cls-9" x1="433.39" y1="972.55" x2="484.95" y2="972.55"/><line class="cls-9" x1="433.39" y1="978.57" x2="484.95" y2="978.57"/><line class="cls-9" x1="433.39" y1="984.59" x2="484.95" y2="984.59"/><line class="cls-9" x1="400.8" y1="930.43" x2="517.87" y2="930.43"/><line class="cls-9" x1="400.8" y1="936.44" x2="517.87" y2="936.44"/><line class="cls-9" x1="400.8" y1="942.46" x2="517.87" y2="942.46"/><line class="cls-9" x1="400.8" y1="948.48" x2="517.87" y2="948.48"/><line class="cls-9" x1="400.8" y1="954.5" x2="517.87" y2="954.5"/><line class="cls-9" x1="583.47" y1="1009.96" x2="583.47" y2="1057.57"/><line class="cls-9" x1="388.58" y1="990.09" x2="388.58" y2="1022.62"/><line class="cls-9" x1="1147.13" y1="925.99" x2="1147.13" y2="975.2"/><line class="cls-9" x1="1264.17" y1="904.33" x2="1319.37" y2="904.33"/><line class="cls-9" x1="1145.98" y1="1057.22" x2="1206.52" y2="1057.22"/><line class="cls-9" x1="1150.24" y1="1028.59" x2="1150.24" y2="1057.22"/><polyline class="cls-9" points="1093.72 1009.96 1093.72 1025.91 1146.42 1025.91"/><line class="cls-9" x1="1232.77" y1="1025.89" x2="1264.17" y2="1025.89"/><line class="cls-9" x1="401.24" y1="890.98" x2="572.77" y2="890.98"/><line class="cls-9" x1="530.57" y1="804.85" x2="530.57" y2="815.32"/><line class="cls-9" x1="489.08" y1="804.91" x2="489.08" y2="815.32"/><line class="cls-9" x1="489.08" y1="808.21" x2="529.98" y2="808.21"/><line class="cls-9" x1="489.08" y1="811.64" x2="530.57" y2="811.64"/><line class="cls-9" x1="435.8" y1="804.91" x2="435.8" y2="856.56"/><line class="cls-9" x1="478.95" y1="804.91" x2="478.95" y2="855.32"/><line class="cls-9" x1="435.8" y1="821.63" x2="478.95" y2="821.63"/><line class="cls-9" x1="435.8" y1="826.04" x2="478.95" y2="826.04"/><line class="cls-9" x1="478.95" y1="830.45" x2="435.8" y2="830.45"/><line class="cls-9" x1="435.8" y1="834.86" x2="478.95" y2="834.86"/><line class="cls-9" x1="435.8" y1="839.26" x2="478.95" y2="839.26"/><line class="cls-9" x1="435.8" y1="843.67" x2="478.95" y2="843.67"/><line class="cls-9" x1="435.8" y1="848.08" x2="478.95" y2="848.08"/><line class="cls-9" x1="435.8" y1="852.49" x2="478.95" y2="852.49"/><line class="cls-9" x1="444.81" y1="804.91" x2="470.35" y2="804.91"/><polyline class="cls-9" points="402.6 297.26 478.92 297.26 478.92 314.52"/><line class="cls-9" x1="404.02" y1="297.26" x2="404.02" y2="315.27"/><line class="cls-9" x1="408.27" y1="297.26" x2="408.27" y2="315.27"/><line class="cls-9" x1="412.57" y1="297.26" x2="412.57" y2="315.27"/><line class="cls-9" x1="416.83" y1="297.26" x2="416.83" y2="315.27"/><line class="cls-9" x1="421.05" y1="297.26" x2="421.05" y2="315.27"/><line class="cls-9" x1="425.3" y1="297.26" x2="425.3" y2="315.27"/><line class="cls-9" x1="429.61" y1="297.26" x2="429.61" y2="315.27"/><line class="cls-9" x1="433.86" y1="297.26" x2="433.86" y2="315.27"/></g><g id="Layer_toilet1"><path class="cls-9" d="m572.77,891.57v118.39h60.54v-118.39h-60.54Z"/></g><g id="Layer_toilet2"><rect class="cls-9" x="633.31" y="891.57" width="59.7" height="118.39" transform="translate(1326.31 1901.53) rotate(180)"/></g><g id="Layer_502"><rect class="cls-8" x="402.78" y="1057.57" width="55.04" height="72.49"/><text class="cls-2" transform="translate(411.01 1099.11)"><tspan x="0" y="0">502</tspan></text></g><g id="Layer_503"><rect class="cls-7" x="457.82" y="1057.57" width="59.35" height="72.49"/><text class="cls-2" transform="translate(467.99 1098.09)"><tspan x="0" y="0">503</tspan></text></g><g id="Layer_504"><rect class="cls-7" x="516.18" y="1057.57" width="57.65" height="72.49"/><text class="cls-2" transform="translate(525.56 1097.08)"><tspan x="0" y="0">504</tspan></text></g><g id="Layer_505"><rect class="cls-7" x="573.84" y="1057.57" width="112.95" height="72.49"/><text class="cls-2" transform="translate(611.02 1096.74)"><tspan x="0" y="0">505</tspan></text></g><g id="Layer_506"><rect class="cls-7" x="686.79" y="1057.57" width="57.65" height="72.49"/><text class="cls-2" transform="translate(696.12 1097.08)"><tspan x="0" y="0">506</tspan></text></g><g id="Layer_507"><rect class="cls-7" x="744.44" y="1057.57" width="57.65" height="72.49"/><text class="cls-2" transform="translate(754.58 1097.08)"><tspan x="0" y="0">507</tspan></text></g><g id="Layer_508"><rect class="cls-7" x="802.1" y="1057.57" width="57.65" height="72.49"/><text class="cls-2" transform="translate(811.26 1097.08)"><tspan x="0" y="0">508</tspan></text></g><g id="Layer_509"><rect class="cls-7" x="859.75" y="1057.57" width="57.65" height="72.49"/><text class="cls-2" transform="translate(869.08 1097.08)"><tspan x="0" y="0">509</tspan></text></g><g id="Layer_510"><rect class="cls-7" x="917.4" y="1057.57" width="57.65" height="72.49"/><text class="cls-2" transform="translate(928.69 1097.08)"><tspan class="cls-12" x="0" y="0">5</tspan><tspan class="cls-13" x="12.4" y="0">10</tspan></text></g><g id="Layer_511"><rect class="cls-7" x="975.06" y="1057.22" width="57.65" height="72.49"/><text class="cls-2" transform="translate(988.43 1096.74)"><tspan class="cls-12" x="0" y="0">5</tspan><tspan class="cls-13" x="12.4" y="0">11</tspan></text></g><g id="Layer_512"><rect class="cls-7" x="1032.71" y="1057.22" width="57.65" height="72.49"/><text class="cls-2" transform="translate(1044.42 1096.74)"><tspan class="cls-12" x="0" y="0">5</tspan><tspan class="cls-13" x="12.4" y="0">12</tspan></text></g><g id="Layer_513"><rect class="cls-7" x="1088.33" y="1057.22" width="57.65" height="72.49"/><text class="cls-2" transform="translate(1099.83 1096.74)"><tspan class="cls-12" x="0" y="0">5</tspan><tspan class="cls-13" x="12.4" y="0">13</tspan></text></g><g id="Layer_514"><rect class="cls-7" x="1206.52" y="1057.22" width="57.65" height="72.49"/><text class="cls-2" transform="translate(1218.08 1096.74)"><tspan class="cls-12" x="0" y="0">5</tspan><tspan class="cls-13" x="12.4" y="0">14</tspan></text></g><g id="Layer_515"><rect class="cls-7" x="1261.72" y="1057.22" width="57.65" height="72.49"/><text class="cls-2" transform="translate(1273.43 1096.74)"><tspan class="cls-12" x="0" y="0">5</tspan><tspan class="cls-13" x="12.4" y="0">15</tspan></text></g><g id="Layer_516"><rect class="cls-7" x="1319.39" y="1057.22" width="57.65" height="72.49"/><text class="cls-2" transform="translate(1330.9 1096.74)"><tspan class="cls-12" x="0" y="0">5</tspan><tspan class="cls-13" x="12.4" y="0">16</tspan></text></g><g id="Layer_517"><rect class="cls-7" x="1375.83" y="1057.22" width="57.65" height="72.49"/><text class="cls-2" transform="translate(1388.15 1096.74)"><tspan class="cls-12" x="0" y="0">5</tspan><tspan class="cls-13" x="12.4" y="0">17</tspan></text></g><g id="Layer_518"><rect class="cls-7" x="1433.64" y="1057.22" width="57.65" height="72.49"/><text class="cls-2" transform="translate(1444.98 1096.74)"><tspan class="cls-12" x="0" y="0">5</tspan><tspan class="cls-13" x="12.4" y="0">18</tspan></text></g><g id="Layer_519"><rect class="cls-7" x="1491.3" y="1057.22" width="69.56" height="72.49"/><text class="cls-2" transform="translate(1509.04 1096.74)"><tspan class="cls-12" x="0" y="0">5</tspan><tspan class="cls-13" x="12.4" y="0">19</tspan></text></g><g id="Layer_520"><rect class="cls-7" x="1495.17" y="889.16" width="65.68" height="120.24"/><text class="cls-2" transform="translate(1508.72 957.05)"><tspan x="0" y="0">520</tspan></text></g><g id="Layer_521"><rect class="cls-7" x="1435.72" y="889.16" width="59.45" height="120.24" transform="translate(2930.89 1898.57) rotate(180)"/><text class="cls-2" transform="translate(1448.23 956.67)"><tspan x="0" y="0">521</tspan></text></g><g id="Layer_522"><rect class="cls-7" x="1319.78" y="889.16" width="115.94" height="120.24"/><text class="cls-2" transform="translate(1360.17 957.24)"><tspan x="0" y="0">522</tspan></text></g><g id="Layer_523"><rect class="cls-7" x="1206.2" y="890.56" width="57.97" height="104.88"/><text class="cls-2" transform="translate(1216.05 950.06)"><tspan x="0" y="0">523</tspan></text></g><g id="Layer_524"><rect class="cls-7" x="1146.42" y="975.2" width="59.89" height="53.39"/><text class="cls-2" transform="translate(1157.91 1006.01)"><tspan x="0" y="0">5</tspan><tspan class="cls-5" x="12.58" y="0">2</tspan><tspan x="24.62" y="0">4</tspan></text></g><g id="Layer_524A"><rect class="cls-7" x="1206.2" y="995.44" width="26.57" height="33.28"/><text class="cls-1" transform="translate(1205.08 1014.27)"><tspan x="0" y="0">5</tspan><tspan class="cls-4" x="6.99" y="0">2</tspan><tspan x="13.68" y="0">4A</tspan></text></g><g id="Layer_525"><rect class="cls-7" x="1034.06" y="891.77" width="59.66" height="118.19"/><text class="cls-2" transform="translate(1045.02 956.13)"><tspan x="0" y="0">525</tspan></text></g><g id="Layer_526"><rect class="cls-7" x="975.06" y="891.77" width="59.01" height="118.19" transform="translate(2009.12 1901.73) rotate(180)"/><text class="cls-2" transform="translate(984.81 956.13)"><tspan x="0" y="0">526</tspan></text></g><g id="Layer_527"><rect class="cls-7" x="859.78" y="891.77" width="115.27" height="118.19"/><text class="cls-2" transform="translate(900.85 957.24)"><tspan x="0" y="0">527</tspan></text></g><g id="Layer_528"><rect class="cls-7" x="744.44" y="891.77" width="115.34" height="118.19" transform="translate(1604.22 1901.73) rotate(180)"/><text class="cls-2" transform="translate(781.1 959.42)"><tspan x="0" y="0">528</tspan></text></g><g id="Layer_529"><rect class="cls-7" x="693" y="891.77" width="51.44" height="118.19"/><text class="cls-2" transform="translate(699.65 959.07)"><tspan x="0" y="0">529</tspan></text></g><g id="Layer_501A-2"><rect class="cls-7" x="171.42" y="1022.53" width="111.25" height="107.5"/><text class="cls-2" transform="translate(202.23 1082.88)"><tspan x="0" y="0">501A</tspan></text></g><g id="Layer_501B-2"><rect class="cls-7" x="282.27" y="1022.53" width="120.22" height="107.5"/><text class="cls-3" transform="translate(319.09 1082.88)"><tspan x="0" y="0">501B</tspan></text></g><g id="Layer_534"><rect class="cls-7" x="170.16" y="890.98" width="111.25" height="99.11"/><text class="cls-2" transform="translate(207.81 946.91)"><tspan x="0" y="0">534</tspan></text></g><g id="Layer_533"><rect class="cls-7" x="281.02" y="890.98" width="120.22" height="99.11"/><text class="cls-2" transform="translate(323.1 946.91)"><tspan x="0" y="0">533</tspan></text></g><g id="Layer_L608"><rect class="cls-7" x="486.83" y="815.32" width="61.16" height="76.35"/><text class="cls-2" transform="translate(492.08 858.1)"><tspan x="0" y="0">L608</tspan></text></g><g id="Layer_L601"><polygon class="cls-7" points="439.14 771.46 439.14 739.82 444.81 739.82 444.81 674.53 384.59 674.53 384.59 804.91 444.81 804.91 444.81 771.46 439.14 771.46"/><text class="cls-2" transform="translate(391.4 724.99)"><tspan x="0" y="0">L601</tspan></text></g><g id="Layer_L602"><polygon class="cls-7" points="439.36 645.93 439.36 615.78 445.03 615.78 445.03 553.55 384.81 553.55 384.81 677.81 445.03 677.81 445.03 645.93 439.36 645.93"/><text class="cls-2" transform="translate(389.95 602.15)"><tspan x="0" y="0">L602</tspan></text></g><g id="Layer_L603"><polygon class="cls-7" points="439.36 530.99 439.36 502.55 445.03 502.55 445.03 443.84 384.81 443.84 384.81 561.07 445.03 561.07 445.03 530.99 439.36 530.99"/><text class="cls-2" transform="translate(389.75 485.4)"><tspan x="0" y="0">L603</tspan></text></g><g id="Layer_L604"><rect class="cls-7" x="384.81" y="315.27" width="145.77" height="128.51"/></g><g id="Layer_L605"><polygon class="cls-7" points="475.81 530.93 475.81 502.49 470.14 502.49 470.14 443.78 530.36 443.78 530.36 561.01 470.14 561.01 470.14 530.93 475.81 530.93"/><text class="cls-2" transform="translate(475.5 485.4)"><tspan x="0" y="0">L605</tspan></text></g><g id="Layer_L606"><polygon class="cls-7" points="475.81 645.87 475.81 615.72 470.14 615.72 470.14 553.49 530.36 553.49 530.36 677.75 470.14 677.75 470.14 645.87 475.81 645.87"/><text class="cls-2" transform="translate(475.08 602.15)"><tspan x="0" y="0">L606</tspan></text></g><g id="Layer_L607"><polygon class="cls-7" points="476.02 771.4 476.02 739.76 470.35 739.76 470.35 674.47 530.57 674.47 530.57 804.85 470.35 804.85 470.35 771.4 476.02 771.4"/><text class="cls-2" transform="translate(475.89 724.99)"><tspan x="0" y="0">L607</tspan></text></g></svg>