<?xml version="1.0" encoding="UTF-8"?><svg xmlns="http://www.w3.org/2000/svg" viewBox="0 0 1800 1400"><defs><style>.cls-1{letter-spacing:-.01em;}.cls-2{fill:#fdf2f2;}.cls-2,.cls-3,.cls-4,.cls-5,.cls-6,.cls-7,.cls-8{stroke:#d88282;stroke-miterlimit:10;}.cls-2,.cls-5{stroke-width:5px;}.cls-9{letter-spacing:-.02em;}.cls-10{letter-spacing:-.01em;}.cls-11{font-size:12px;}.cls-11,.cls-12,.cls-13,.cls-14{fill:#434142;font-family:NanumSquareNeovariable-Heavy, 'NanumSquare Neo variable';font-variation-settings:'wght' 900;font-weight:800;}.cls-15{letter-spacing:-.04em;}.cls-16{letter-spacing:-.02em;}.cls-17{letter-spacing:-.02em;}.cls-18{letter-spacing:-.03em;}.cls-3{stroke-width:2.23px;}.cls-3,.cls-5,.cls-6,.cls-7,.cls-8{fill:none;}.cls-12{font-size:18px;}.cls-4{fill:#f5cbcc;}.cls-4,.cls-6{stroke-width:2px;}.cls-13{font-size:22px;}.cls-19{letter-spacing:0em;}.cls-20{letter-spacing:0em;}.cls-21{letter-spacing:0em;}.cls-22{letter-spacing:-.02em;}.cls-23{letter-spacing:0em;}.cls-7{stroke-width:2.19px;}.cls-24{letter-spacing:-.02em;}.cls-8{stroke-width:2.09px;}.cls-14{font-size:16px;}</style></defs><g id="Layer_border"><path class="cls-2" d="m1614.43,451.21h-51.09v-101.1H446.01v-76.66h-206.7c.11,292.79.23,585.57.34,878.36h20.49v43.42h211.13c.14-198.96.28-397.92.42-596.88h1087.56v-20.29h55.47c-.09-42.28-.19-84.57-.28-126.85Z"/><path class="cls-5" d="m1436.14,598.35v28.71h-536.14c2.08,6.52,22.18,73.02-17.32,121.65-41.89,51.57-121.46,46.88-171.36,20.25-51.27-27.35-82.57-83.9-81.77-145.77h-157.88"/><polyline class="cls-5" points="568.56 623.18 568.56 844.34 943.45 844.34 943.45 627.06"/><path class="cls-5" d="m1193.17,627.06v12.38c-29.22,9.94-67.4,19.9-112.77,24.2-55.45,5.27-102.61.29-136.95-6.05"/></g><g id="Layer_others"><line class="cls-6" x1="330.72" y1="1162.74" x2="471.28" y2="1162.74"/><line class="cls-6" x1="366.81" y1="1134.52" x2="366.81" y2="1162.74"/><line class="cls-6" x1="372.91" y1="1134.52" x2="372.91" y2="1162.74"/><line class="cls-6" x1="379.01" y1="1134.52" x2="379.01" y2="1162.74"/><line class="cls-6" x1="385.11" y1="1134.52" x2="385.11" y2="1162.74"/><line class="cls-6" x1="391.2" y1="1134.52" x2="391.2" y2="1162.74"/><line class="cls-6" x1="397.3" y1="1134.52" x2="397.3" y2="1162.74"/><line class="cls-6" x1="403.4" y1="1134.52" x2="403.4" y2="1162.74"/><line class="cls-6" x1="409.5" y1="1134.52" x2="409.5" y2="1162.74"/><line class="cls-6" x1="415.6" y1="1134.52" x2="415.6" y2="1162.74"/><line class="cls-6" x1="421.7" y1="1134.52" x2="421.7" y2="1162.74"/><line class="cls-6" x1="427.8" y1="1134.52" x2="427.8" y2="1162.74"/><line class="cls-6" x1="433.89" y1="1134.52" x2="433.89" y2="1162.74"/><line class="cls-6" x1="366.81" y1="1193.92" x2="366.81" y2="1162.74"/><line class="cls-6" x1="372.91" y1="1193.92" x2="372.91" y2="1162.74"/><line class="cls-6" x1="379.01" y1="1193.92" x2="379.01" y2="1162.74"/><line class="cls-6" x1="385.11" y1="1193.92" x2="385.11" y2="1162.74"/><line class="cls-6" x1="391.21" y1="1193.92" x2="391.21" y2="1162.74"/><line class="cls-6" x1="397.3" y1="1193.92" x2="397.3" y2="1162.74"/><line class="cls-6" x1="403.4" y1="1193.92" x2="403.4" y2="1162.74"/><line class="cls-6" x1="409.5" y1="1193.92" x2="409.5" y2="1162.74"/><line class="cls-6" x1="415.6" y1="1193.92" x2="415.6" y2="1162.74"/><line class="cls-6" x1="421.7" y1="1193.92" x2="421.7" y2="1162.74"/><line class="cls-6" x1="427.8" y1="1193.92" x2="427.8" y2="1162.74"/><line class="cls-6" x1="433.89" y1="1193.92" x2="433.89" y2="1162.74"/><polygon class="cls-8" points="330.72 1078.74 241.29 1078.74 241.29 1144.64 261.7 1144.64 261.7 1193.92 330.61 1193.92 330.61 1144.64 330.72 1144.64 330.72 1078.74"/><line class="cls-6" x1="566.95" y1="440.88" x2="566.95" y2="552.84"/><line class="cls-6" x1="592.99" y1="467.16" x2="566.95" y2="467.16"/><line class="cls-6" x1="592.99" y1="472.16" x2="566.95" y2="472.16"/><line class="cls-6" x1="592.99" y1="477.17" x2="566.95" y2="477.17"/><line class="cls-6" x1="592.99" y1="482.17" x2="566.95" y2="482.17"/><line class="cls-6" x1="592.99" y1="487.17" x2="566.95" y2="487.17"/><line class="cls-6" x1="592.99" y1="492.17" x2="566.95" y2="492.17"/><line class="cls-6" x1="592.99" y1="497.17" x2="566.95" y2="497.17"/><line class="cls-6" x1="592.99" y1="502.17" x2="566.95" y2="502.17"/><line class="cls-6" x1="592.99" y1="507.17" x2="566.95" y2="507.17"/><line class="cls-6" x1="592.99" y1="512.17" x2="566.95" y2="512.17"/><line class="cls-6" x1="592.99" y1="517.18" x2="566.95" y2="517.18"/><line class="cls-6" x1="592.99" y1="522.18" x2="566.95" y2="522.18"/><line class="cls-6" x1="538.17" y1="467.16" x2="566.95" y2="467.16"/><line class="cls-6" x1="538.17" y1="472.16" x2="566.95" y2="472.16"/><line class="cls-6" x1="538.17" y1="477.17" x2="566.95" y2="477.17"/><line class="cls-6" x1="538.17" y1="482.17" x2="566.95" y2="482.17"/><line class="cls-6" x1="538.17" y1="487.17" x2="566.95" y2="487.17"/><line class="cls-6" x1="538.17" y1="492.17" x2="566.95" y2="492.17"/><line class="cls-6" x1="538.17" y1="497.17" x2="566.95" y2="497.17"/><line class="cls-6" x1="538.17" y1="502.17" x2="566.95" y2="502.17"/><line class="cls-6" x1="538.17" y1="507.17" x2="566.95" y2="507.17"/><line class="cls-6" x1="538.17" y1="512.17" x2="566.95" y2="512.17"/><line class="cls-6" x1="538.17" y1="517.18" x2="566.95" y2="517.18"/><line class="cls-6" x1="538.17" y1="522.18" x2="566.95" y2="522.18"/><rect class="cls-6" x="506.02" y="480.02" width="26.67" height="32.51"/><rect class="cls-6" x="506.02" y="519.18" width="26.67" height="32.51"/><polyline class="cls-6" points="538.17 440.88 492.12 440.88 492.12 473.35"/><line class="cls-6" x1="538.17" y1="472.16" x2="459.17" y2="472.16"/><rect class="cls-6" x="538.17" y="440.88" width="54.82" height="110.81"/><rect class="cls-6" x="408.49" y="351.25" width="36.51" height="84.27"/><rect class="cls-6" x="408.49" y="435.53" width="36.51" height="41.64"/><polyline class="cls-6" points="587.89 377.55 559.13 377.55 559.13 435.53"/><line class="cls-6" x1="536.77" y1="403.02" x2="559.13" y2="403.02"/><rect class="cls-6" x="587.89" y="352.35" width="87.13" height="48.57"/><rect class="cls-6" x="587.89" y="404.87" width="40.68" height="30.66"/><rect class="cls-6" x="634.34" y="404.87" width="40.68" height="30.66"/><line class="cls-6" x1="445.01" y1="598.35" x2="445.01" y2="477.17"/><line class="cls-6" x1="1590.49" y1="452.87" x2="1590.49" y2="576.55"/><line class="cls-6" x1="1612.3" y1="468.58" x2="1590.49" y2="468.58"/><line class="cls-6" x1="1612.3" y1="474.88" x2="1590.49" y2="474.88"/><line class="cls-6" x1="1612.3" y1="481.18" x2="1590.49" y2="481.18"/><line class="cls-6" x1="1612.3" y1="487.49" x2="1590.49" y2="487.49"/><line class="cls-6" x1="1612.3" y1="493.79" x2="1590.49" y2="493.79"/><line class="cls-6" x1="1612.3" y1="500.09" x2="1590.49" y2="500.09"/><line class="cls-6" x1="1612.3" y1="506.39" x2="1590.49" y2="506.39"/><line class="cls-6" x1="1612.3" y1="512.7" x2="1590.49" y2="512.7"/><line class="cls-6" x1="1612.3" y1="519" x2="1590.49" y2="519"/><line class="cls-6" x1="1612.3" y1="525.3" x2="1590.49" y2="525.3"/><line class="cls-6" x1="1612.3" y1="531.61" x2="1590.49" y2="531.61"/><line class="cls-6" x1="1612.3" y1="537.91" x2="1590.49" y2="537.91"/><line class="cls-6" x1="1566.39" y1="468.58" x2="1590.49" y2="468.58"/><line class="cls-6" x1="1566.39" y1="474.88" x2="1590.49" y2="474.88"/><line class="cls-6" x1="1566.39" y1="481.19" x2="1590.49" y2="481.19"/><line class="cls-6" x1="1566.39" y1="487.49" x2="1590.49" y2="487.49"/><line class="cls-6" x1="1566.39" y1="493.79" x2="1590.49" y2="493.79"/><line class="cls-6" x1="1566.39" y1="500.09" x2="1590.49" y2="500.09"/><line class="cls-6" x1="1566.39" y1="506.4" x2="1590.49" y2="506.4"/><line class="cls-6" x1="1566.39" y1="512.7" x2="1590.49" y2="512.7"/><line class="cls-6" x1="1566.39" y1="519" x2="1590.49" y2="519"/><line class="cls-6" x1="1566.39" y1="525.3" x2="1590.49" y2="525.3"/><line class="cls-6" x1="1566.39" y1="531.61" x2="1590.49" y2="531.61"/><line class="cls-6" x1="1566.39" y1="537.91" x2="1590.49" y2="537.91"/><polyline class="cls-6" points="1441.34 352.35 1475.18 352.35 1475.18 468.46"/><rect class="cls-3" x="1433.11" y="351.76" width="42.06" height="37.68"/></g><g id="Layer_toilet3"><rect class="cls-7" x="1475.18" y="498.38" width="91.21" height="46.56"/></g><g id="Layer_toilet4"><rect class="cls-6" x="1475.18" y="468.46" width="91.21" height="29.91"/></g><g id="Layer_toilet1"><rect class="cls-6" x="445.01" y="351.25" width="49.83" height="84.27"/></g><g id="Layer_toilet2"><rect class="cls-6" x="494.84" y="351.25" width="41.93" height="84.27" transform="translate(1031.6 786.78) rotate(180)"/></g><g id="Layer_606"><rect class="cls-4" x="379.01" y="1075.62" width="90.32" height="58.9"/><text class="cls-13" transform="translate(400.1 1111.74)"><tspan x="0" y="0">606</tspan></text></g><g id="Layer_605"><rect class="cls-4" x="379.01" y="940.34" width="90.32" height="135.28"/><text class="cls-13" transform="translate(400.34 1014.89)"><tspan x="0" y="0">605</tspan></text></g><g id="Layer_604"><rect class="cls-4" x="379.01" y="850.82" width="90.32" height="89.52"/><text class="cls-13" transform="translate(400.15 901.38)"><tspan x="0" y="0">604</tspan></text></g><g id="Layer_lounge"><rect class="cls-4" x="379.01" y="791.66" width="90.32" height="59.16"/><text class="cls-12" transform="translate(388.72 826.77)"><tspan class="cls-16" x="0" y="0">L</tspan><tspan x="10.58" y="0">ounge</tspan></text></g><g id="Layer_602"><rect class="cls-4" x="379.01" y="708.13" width="90.32" height="83.53"/><text class="cls-13" transform="translate(400.34 754.12)"><tspan x="0" y="0">602</tspan></text></g><g id="Layer_601"><rect class="cls-4" x="379.01" y="595.29" width="90.32" height="112.85"/><text class="cls-13" transform="translate(402.38 657.47)"><tspan x="0" y="0">601</tspan></text></g><g id="Layer_608"><rect class="cls-4" x="240.85" y="1019.83" width="90.32" height="58.9"/><text class="cls-13" transform="translate(261.73 1055.95)"><tspan x="0" y="0">608</tspan></text></g><g id="Layer_609"><rect class="cls-4" x="240.85" y="952.56" width="104.71" height="67.27"/><text class="cls-13" transform="translate(269.13 991.87)"><tspan x="0" y="0">609</tspan></text></g><g id="Layer_610"><rect class="cls-4" x="240.85" y="885.29" width="104.71" height="67.27"/><text class="cls-13" transform="translate(271.52 926.81)"><tspan class="cls-10" x="0" y="0">6</tspan><tspan class="cls-21" x="15.64" y="0">10</tspan></text></g><g id="Layer_611"><polygon class="cls-4" points="347.05 817.75 329.64 817.75 310.77 817.75 240.85 817.75 240.85 885.02 329.64 885.02 329.64 849.62 347.05 849.62 347.05 817.75"/><text class="cls-13" transform="translate(265.56 856.54)"><tspan class="cls-10" x="0" y="0">6</tspan><tspan class="cls-21" x="15.64" y="0">11</tspan></text></g><g id="Layer_612"><polygon class="cls-4" points="347.05 817.75 329.64 817.75 310.77 817.75 240.85 817.75 240.85 756.78 329.64 756.78 329.64 788.86 347.05 788.86 347.05 817.75"/><text class="cls-13" transform="translate(264.84 796.07)"><tspan class="cls-10" x="0" y="0">6</tspan><tspan class="cls-21" x="15.64" y="0">12</tspan></text></g><g id="Layer_613"><rect class="cls-4" x="240.85" y="702.9" width="106.2" height="53.88"/><text class="cls-13" transform="translate(271.79 736)"><tspan class="cls-10" x="0" y="0">6</tspan><tspan class="cls-21" x="15.64" y="0">13</tspan></text></g><g id="Layer_614"><rect class="cls-4" x="240.85" y="649.02" width="106.2" height="53.88"/><text class="cls-13" transform="translate(271.85 682.12)"><tspan class="cls-10" x="0" y="0">6</tspan><tspan class="cls-21" x="15.64" y="0">14</tspan></text></g><g id="Layer_615"><polygon class="cls-4" points="347.05 582.79 327.96 582.79 307.56 582.79 240.85 582.79 240.85 649.02 327.96 649.02 327.96 615.9 347.05 615.9 347.05 582.79"/><text class="cls-13" transform="translate(264.84 621.76)"><tspan class="cls-10" x="0" y="0">6</tspan><tspan class="cls-21" x="15.64" y="0">15</tspan></text></g><g id="Layer_616"><polygon class="cls-4" points="347.05 582.79 327.96 582.79 307.56 582.79 240.85 582.79 240.85 525.32 327.96 525.32 327.96 554.06 347.05 554.06 347.05 582.79"/><text class="cls-13" transform="translate(263.28 562.32)"><tspan class="cls-10" x="0" y="0">6</tspan><tspan class="cls-21" x="15.64" y="0">16</tspan></text></g><g id="Layer_617"><rect class="cls-4" x="240.85" y="477.17" width="106.2" height="48.16"/><text class="cls-13" transform="translate(272.79 507.38)"><tspan class="cls-10" x="0" y="0">6</tspan><tspan class="cls-21" x="15.64" y="0">17</tspan></text></g><g id="Layer_618"><rect class="cls-4" x="240.85" y="430.14" width="106.2" height="47.03"/><text class="cls-13" transform="translate(272.33 460.59)"><tspan class="cls-10" x="0" y="0">6</tspan><tspan class="cls-21" x="15.64" y="0">18</tspan></text></g><g id="Layer_619"><rect class="cls-4" x="240.85" y="351.25" width="92.35" height="78.89"/><text class="cls-13" transform="translate(264.6 396.71)"><tspan class="cls-10" x="0" y="0">6</tspan><tspan class="cls-21" x="15.64" y="0">19</tspan></text></g><g id="Layer_620"><rect class="cls-4" x="240.85" y="276.24" width="204.16" height="75.02"/><text class="cls-13" transform="translate(319.1 319.31)"><tspan x="0" y="0">620</tspan></text></g><g id="Layer_623"><rect class="cls-4" x="675.02" y="352.35" width="134.09" height="183.09"/><text class="cls-13" transform="translate(718.51 448.35)"><tspan x="0" y="0">623</tspan></text></g><g id="Layer_624"><rect class="cls-4" x="809.12" y="352.35" width="134.09" height="183.09"/><text class="cls-13" transform="translate(853 448.35)"><tspan x="0" y="0">6</tspan><tspan class="cls-18" x="15.86" y="0">2</tspan><tspan class="cls-20" x="30.58" y="0">4</tspan></text></g><g id="Layer_625"><rect class="cls-4" x="943.21" y="352.35" width="379.89" height="183.09" transform="translate(2266.32 887.78) rotate(180)"/><text class="cls-13" transform="translate(1105.68 443.89)"><tspan x="0" y="0">625</tspan></text></g><g id="Layer_storage"><rect class="cls-7" x="1475.18" y="564.7" width="81.95" height="31.8"/><rect class="cls-7" x="1372.69" y="448.35" width="60.42" height="87.08"/><text class="cls-11" transform="translate(1377.6 493.79)"><tspan class="cls-1" x="0" y="0">St</tspan><tspan x="13.74" y="0">o</tspan><tspan class="cls-9" x="21.7" y="0">r</tspan><tspan x="26.92" y="0">age</tspan></text><text class="cls-14" transform="translate(1482.42 584.49)"><tspan class="cls-1" x="0" y="0">St</tspan><tspan class="cls-23" x="18.32" y="0">o</tspan><tspan class="cls-17" x="28.93" y="0">r</tspan><tspan x="35.89" y="0">age</tspan></text></g><g id="Layer_service"><rect class="cls-7" x="1323.11" y="448.35" width="49.59" height="87.08" transform="translate(2695.8 983.79) rotate(180)"/><text class="cls-11" transform="translate(1323.65 487.49)"><tspan x="0" y="0">Serv</tspan><tspan class="cls-22" x="29.38" y="0">i</tspan><tspan x="32.99" y="0">ce</tspan><tspan class="cls-24" x="6.04" y="14.4">R</tspan><tspan class="cls-19" x="14.81" y="14.4">oom</tspan></text></g><g id="Layer_Kitcheneife"><rect class="cls-6" x="1323.11" y="352.35" width="110.01" height="96"/><text class="cls-11" transform="translate(1341.04 406.97)"><tspan x="0" y="0">Ki</tspan><tspan class="cls-1" x="12.71" y="0">t</tspan><tspan x="18.02" y="0">chenei</tspan><tspan class="cls-15" x="61.31" y="0">f</tspan><tspan x="66.3" y="0">e</tspan></text></g></svg>