<?xml version="1.0" encoding="UTF-8"?>
<svg id="Layer_1" data-name="Layer 1" xmlns="http://www.w3.org/2000/svg" version="1.1" viewBox="0 0 1000 1000">
  <defs>
    <style>
      .cls-1, .cls-2, .cls-3, .cls-4, .cls-5, .cls-6, .cls-7, .cls-8, .cls-9 {
        stroke: #ea8b8b;
        stroke-miterlimit: 10;
      }

      .cls-1, .cls-3, .cls-4, .cls-5, .cls-6, .cls-7 {
        stroke-width: 3px;
      }

      .cls-1, .cls-6 {
        fill: #fed0d0;
      }

      .cls-2 {
        stroke-width: .25px;
      }

      .cls-2, .cls-3, .cls-5, .cls-8 {
        fill: none;
      }

      .cls-3, .cls-6, .cls-7, .cls-9 {
        isolation: isolate;
      }

      .cls-4, .cls-7 {
        fill: #ffcecf;
      }

      .cls-8 {
        stroke-width: .75px;
      }

      .cls-9 {
        fill: #fef3f2;
        stroke-width: 10px;
      }

      .cls-10 {
        fill: #000;
        font-family: NanumSquareNeoTTF-dEb, 'NanumSquare Neo';
        font-size: 8px;
      }
    </style>
  </defs>
  <g id="Layer_border">
    <polygon class="cls-9" points="93 284.47 93 796.57 763.58 792.48 762.85 858.15 876 857.98 876 584.7 731.08 584.7 727.55 342.52 394.84 342.52 394.84 142.52 239.2 142.52 239.2 283.32 93 284.47"/>
  </g>
  <g id="Layer_2" data-name="Layer 2">
    <rect class="cls-1" x="344.5" y="236.5" width="50" height="58"/>
    <text class="cls-10" transform="translate(360.34 262.41)"><tspan x="0" y="0">209</tspan><tspan x="-10.42" y="9.6">학업코칭실</tspan></text>
  </g>
  <g id="Layer_3" data-name="Layer 3">
    <rect class="cls-1" x="344.5" y="294.5" width="50" height="48"/>
    <text class="cls-10" transform="translate(359.5 315.97)"><tspan x="0" y="0">210</tspan><tspan x="-11.28" y="9.6">학업코칭실</tspan></text>
  </g>
  <g id="Layer_4" data-name="Layer 4">
    <rect class="cls-1" x="344.5" y="342.5" width="50.14" height="55.61"/>
    <text class="cls-10" transform="translate(362.57 363.11)"><tspan x="0" y="0">211</tspan><tspan x="-.86" y="9.6">그룹</tspan><tspan x="-8.45" y="19.2">스터디룸</tspan></text>
  </g>
  <g id="Layer_5" data-name="Layer 5">
    <rect class="cls-1" x="344.5" y="398.11" width="50.14" height="45.44"/>
    <text class="cls-10" transform="translate(362.07 413.3)"><tspan x="0" y="0">212</tspan><tspan x="-1.08" y="9.6">그룹 </tspan><tspan x="-7.67" y="19.2">스터디룸</tspan></text>
  </g>
  <g id="Layer_6" data-name="Layer 6">
    <rect class="cls-1" x="344.5" y="443.55" width="50.14" height="43.08"/>
    <text class="cls-10" transform="translate(361.3 457.44)"><tspan x="0" y="0">213</tspan><tspan x="-.99" y="9.6">그룹 </tspan><tspan x="-7.58" y="19.2">스터디룸</tspan></text>
  </g>
  <g id="Layer_7" data-name="Layer 7">
    <rect class="cls-1" x="394.5" y="342.5" width="215.62" height="144.13"/>
  </g>
  <g id="Layer_8" data-name="Layer 8">
    <polygon class="cls-4" points="610.12 365.66 610.12 427.36 728.32 427.36 727.55 342.52 648.29 342.5 648.29 365.66 610.12 365.66"/>
    <text class="cls-10" transform="translate(664.66 394.87)"><tspan x="0" y="0">206</tspan></text>
  </g>
  <g id="Layer_9" data-name="Layer 9">
    <rect class="cls-1" x="610.12" y="342.5" width="38.17" height="23.16"/>
  </g>
  <g id="Layer_10" data-name="Layer 10">
    <rect class="cls-1" x="610.12" y="427.36" width="38.17" height="59.27"/>
    <text class="cls-10" transform="translate(619.4 451.17)"><tspan x="0" y="0">208</tspan><tspan x="1.04" y="9.6">그룹</tspan><tspan x="-6.54" y="19.2">스터디룸</tspan></text>
  </g>
  <g id="Layer_11" data-name="Layer 11">
    <rect class="cls-1" x="672.57" y="427.36" width="55.75" height="38.49"/>
    <text class="cls-10" transform="translate(690.28 445.4)"><tspan x="0" y="0">205</tspan><tspan x="-14.29" y="9.6">그룹스터디룸</tspan></text>
  </g>
  <g id="Layer_12" data-name="Layer 12">
    <rect class="cls-1" x="672.57" y="465.85" width="55.75" height="40.27"/>
    <text class="cls-10" transform="translate(691.88 484.42)"><tspan x="0" y="0">204</tspan><tspan x="-14.19" y="9.6">그룹스터디룸</tspan></text>
  </g>
  <g id="Layer_13" data-name="Layer 13">
    <rect class="cls-1" x="672.57" y="506.12" width="55.75" height="40.25"/>
    <text class="cls-10" transform="translate(690.64 524.29)"><tspan x="0" y="0">203</tspan><tspan x="-14.21" y="9.6">그룹스터디룸</tspan></text>
  </g>
  <g id="Layer_14" data-name="Layer 14">
    <rect class="cls-1" x="672.57" y="546.37" width="55.75" height="38.59"/>
    <text class="cls-10" transform="translate(691.99 562.6)"><tspan x="0" y="0">202</tspan><tspan x="-14.29" y="9.6">그룹스터디룸</tspan></text>
  </g>
  <g id="Layer_15" data-name="Layer 15">
    <rect class="cls-4" x="801.36" y="582.85" width="74.64" height="205.4"/>
    <text class="cls-10" transform="translate(833.1 693.48)"><tspan x="0" y="0">201</tspan></text>
  </g>
  <g id="Layer_18" data-name="Layer 18">
    <rect class="cls-5" x="762.85" y="684.2" width="38.33" height="104.05"/>
  </g>
  <g id="Layer_19" data-name="Layer 19">
    <rect class="cls-5" x="722.32" y="684.2" width="40.53" height="104.05"/>
  </g>
  <g id="Layer_20" data-name="Layer 20">
    <rect class="cls-4" x="617.27" y="606.44" width="31.02" height="40.61"/>
    <text class="cls-10" transform="translate(624.37 618.65)"><tspan x="0" y="0">223</tspan><tspan x="-.21" y="9.6">그룹 </tspan><tspan x="-6.8" y="19.2">스터디룸</tspan></text>
  </g>
  <g id="Layer_21" data-name="Layer 21">
    <rect class="cls-4" x="617.27" y="567.29" width="31.02" height="39.15"/>
    <text class="cls-10" transform="translate(622.82 578.66)"><tspan x="0" y="0">222</tspan><tspan x=".7" y="9.6">그룹</tspan><tspan x="-6.89" y="19.2">스터디룸</tspan></text>
  </g>
  <g id="Layer_22" data-name="Layer 22">
    <rect class="cls-4" x="617.27" y="524.29" width="30.93" height="43.08"/>
    <text class="cls-10" transform="translate(624.67 538.76)"><tspan x="0" y="0">221</tspan><tspan x="-.08" y="9.6">그룹</tspan><tspan x="-7.67" y="19.2">스터디룸</tspan></text>
  </g>
  <g id="Layer_23" data-name="Layer 23">
    <rect class="cls-4" x="540.17" y="567.29" width="77.1" height="79.76"/>
    <text class="cls-10" transform="translate(571.72 609.58)"><tspan x="0" y="0">219</tspan></text>
  </g>
  <g id="Layer_24" data-name="Layer 24">
    <rect class="cls-4" x="463.07" y="567.37" width="78.09" height="79.69"/>
    <text class="cls-10" transform="translate(491.94 609.58)"><tspan x="0" y="0">218</tspan></text>
  </g>
  <g id="Layer_25" data-name="Layer 25">
    <rect class="cls-4" x="395.22" y="603.01" width="39.48" height="42.46"/>
    <text class="cls-10" transform="translate(407.14 617.05)"><tspan x="0" y="0">216</tspan><tspan x="0" y="9.6">그룹</tspan><tspan x="-7.58" y="19.2">스터디룸</tspan></text>
  </g>
  <g id="Layer_26" data-name="Layer 26">
    <rect class="cls-4" x="395.74" y="560.92" width="38.96" height="41.95"/>
    <text class="cls-10" transform="translate(407.96 574.72)"><tspan x="0" y="0">217</tspan><tspan x="-.32" y="9.6">그룹</tspan><tspan x="-7.9" y="19.2">스터디룸</tspan></text>
  </g>
  <g id="Layer_27" data-name="Layer 27">
    <rect class="cls-7" x="344.27" y="560.92" width="51.47" height="42.09"/>
    <text class="cls-10" transform="translate(363.03 580.54)"><tspan x="0" y="0">214</tspan><tspan x="-15.15" y="9.6">그룹스터디룸</tspan></text>
  </g>
  <g id="Layer_28" data-name="Layer 28">
    <rect class="cls-4" x="344.27" y="603.01" width="50.95" height="42.46"/>
    <text class="cls-10" transform="translate(362.52 621.84)"><tspan x="0" y="0">215</tspan><tspan x="-15.25" y="9.6">그룹스터디룸</tspan></text>
  </g>
  <g id="Layer_others">
    <rect class="cls-3" x="315.65" y="140.8" width="80.13" height="34.34"/>
    <g>
      <path class="cls-2" d="M394.07,174.17v.4M361.37,140.23v.4"/>
      <path class="cls-2" d="M361.37,141.04v32.73"/>
      <path class="cls-2" d="M361.37,174.17v.4M350.06,140.23v.4"/>
      <path class="cls-2" d="M350.06,141.04v32.73"/>
      <path class="cls-2" d="M350.06,174.17v.4"/>
      <path class="cls-2" d="M390.06,174.57h-28.72"/>
      <path class="cls-2" d="M388.01,140.23h2.06M394.07,140.23h-.11"/>
      <path class="cls-2" d="M385.95,140.23h-24.6"/>
      <path class="cls-2" d="M350.06,174.57h-30.78"/>
      <path class="cls-2" d="M350.06,140.23h-30.78"/>
      <path class="cls-2" d="M388.01,140.23v.4"/>
      <path class="cls-2" d="M388.01,141.04v32.73"/>
      <path class="cls-2" d="M388.01,174.17v.4M385.95,140.23v.4"/>
      <path class="cls-2" d="M385.95,141.04v32.73"/>
      <path class="cls-2" d="M385.95,174.17v.4M383.89,140.23v.4"/>
      <path class="cls-2" d="M383.89,141.04v32.73"/>
      <path class="cls-2" d="M383.89,174.17v.4M381.83,140.23v.4"/>
      <path class="cls-2" d="M381.83,141.04v32.73"/>
      <path class="cls-2" d="M381.83,174.17v.4M379.78,140.23v.4"/>
      <path class="cls-2" d="M379.78,141.04v32.73"/>
      <path class="cls-2" d="M379.78,174.17v.4M377.72,140.23v.4"/>
      <path class="cls-2" d="M377.72,141.04v32.73"/>
      <path class="cls-2" d="M377.72,174.17v.4M375.66,140.23v.4"/>
      <path class="cls-2" d="M375.66,141.04v32.73"/>
      <path class="cls-2" d="M375.66,174.17v.4M373.6,140.23v.4"/>
      <path class="cls-2" d="M373.6,141.04v32.73"/>
      <path class="cls-2" d="M373.6,174.17v.4M371.55,140.23v.4"/>
      <path class="cls-2" d="M371.55,141.04v32.73"/>
      <path class="cls-2" d="M371.55,174.17v.4M369.6,140.23v.4"/>
      <path class="cls-2" d="M369.6,141.04v32.73"/>
      <path class="cls-2" d="M369.6,174.17v.4M367.55,140.23v.4"/>
      <path class="cls-2" d="M367.55,141.04v32.73"/>
      <path class="cls-2" d="M367.55,174.17v.4M365.49,140.23v.4"/>
      <path class="cls-2" d="M365.49,141.04v32.73"/>
      <path class="cls-2" d="M365.49,174.17v.4M363.43,140.23v.4"/>
      <path class="cls-2" d="M363.43,141.04v32.73"/>
      <path class="cls-2" d="M363.43,174.17v.4M361.37,140.23v.4"/>
      <path class="cls-2" d="M361.37,141.04v32.73"/>
      <path class="cls-2" d="M361.37,174.17v.4M350.06,140.23v.4"/>
      <path class="cls-2" d="M350.06,141.04v32.73"/>
      <path class="cls-2" d="M350.06,174.17v.4M348,140.23v.4"/>
      <path class="cls-2" d="M348,141.04v32.73"/>
      <path class="cls-2" d="M348,174.17v.4M345.94,140.23v.4"/>
      <path class="cls-2" d="M345.94,141.04v32.73"/>
      <path class="cls-2" d="M345.94,174.17v.4M343.88,140.23v.4"/>
      <path class="cls-2" d="M343.88,141.04v32.73"/>
      <path class="cls-2" d="M343.88,174.17v.4M341.83,140.23v.4"/>
      <path class="cls-2" d="M341.83,141.04v32.73"/>
      <path class="cls-2" d="M341.83,174.17v.4M339.77,140.23v.4"/>
      <path class="cls-2" d="M339.77,141.04v32.73"/>
      <path class="cls-2" d="M339.77,174.17v.4M337.71,140.23v.4"/>
      <path class="cls-2" d="M337.71,141.04v32.73"/>
      <path class="cls-2" d="M337.71,174.17v.4M335.65,140.23v.4"/>
      <path class="cls-2" d="M335.65,141.04v32.73"/>
      <path class="cls-2" d="M335.65,174.17v.4M333.6,140.23v.4"/>
      <path class="cls-2" d="M333.6,141.04v32.73"/>
      <path class="cls-2" d="M333.6,174.17v.4M331.65,140.23v.4"/>
      <path class="cls-2" d="M331.65,141.04v32.73"/>
      <path class="cls-2" d="M331.65,174.17v.4M329.6,140.23v.4"/>
      <path class="cls-2" d="M329.6,141.04v32.73"/>
      <path class="cls-2" d="M329.6,174.17v.4M327.54,140.23v.4"/>
      <path class="cls-2" d="M327.54,141.04v32.73"/>
      <path class="cls-2" d="M327.54,174.17v.4M325.48,140.23v.4"/>
      <path class="cls-2" d="M325.48,141.04v32.73"/>
      <path class="cls-2" d="M325.48,174.17v.4M323.42,140.23v.4"/>
      <path class="cls-2" d="M323.42,141.04v32.73"/>
      <path class="cls-2" d="M323.42,174.17v.4M321.37,140.23v.4"/>
      <path class="cls-2" d="M321.37,141.04v32.73"/>
      <path class="cls-2" d="M321.37,174.17v.4M388.01,140.23v.4"/>
      <path class="cls-2" d="M388.01,141.04v32.73"/>
      <path class="cls-2" d="M388.01,174.17v.4M385.95,140.23v.4"/>
      <path class="cls-2" d="M385.95,141.04v32.73"/>
      <path class="cls-2" d="M385.95,174.17v.4M383.89,140.23v.4"/>
      <path class="cls-2" d="M383.89,141.04v32.73"/>
      <path class="cls-2" d="M383.89,174.17v.4M381.83,140.23v.4"/>
      <path class="cls-2" d="M381.83,141.04v32.73"/>
      <path class="cls-2" d="M381.83,174.17v.4M379.78,140.23v.4"/>
      <path class="cls-2" d="M379.78,141.04v32.73"/>
      <path class="cls-2" d="M379.78,174.17v.4M377.72,140.23v.4"/>
      <path class="cls-2" d="M377.72,141.04v32.73"/>
      <path class="cls-2" d="M377.72,174.17v.4M375.66,140.23v.4"/>
      <path class="cls-2" d="M375.66,141.04v32.73"/>
      <path class="cls-2" d="M375.66,174.17v.4M373.6,140.23v.4"/>
      <path class="cls-2" d="M373.6,141.04v32.73"/>
      <path class="cls-2" d="M373.6,174.17v.4M371.55,140.23v.4"/>
      <path class="cls-2" d="M371.55,141.04v32.73"/>
      <path class="cls-2" d="M371.55,174.17v.4M369.6,140.23v.4"/>
      <path class="cls-2" d="M369.6,141.04v32.73"/>
      <path class="cls-2" d="M369.6,174.17v.4M367.55,140.23v.4"/>
      <path class="cls-2" d="M367.55,141.04v32.73"/>
      <path class="cls-2" d="M367.55,174.17v.4M365.49,140.23v.4"/>
      <path class="cls-2" d="M365.49,141.04v32.73"/>
      <path class="cls-2" d="M365.49,174.17v.4M363.43,140.23v.4"/>
      <path class="cls-2" d="M363.43,141.04v32.73"/>
      <path class="cls-2" d="M363.43,174.17v.4M348,140.23v.4"/>
      <path class="cls-2" d="M348,141.04v32.73"/>
      <path class="cls-2" d="M348,174.17v.4M345.94,140.23v.4"/>
      <path class="cls-2" d="M345.94,141.04v32.73"/>
      <path class="cls-2" d="M345.94,174.17v.4M343.88,140.23v.4"/>
      <path class="cls-2" d="M343.88,141.04v32.73"/>
      <path class="cls-2" d="M343.88,174.17v.4M341.83,140.23v.4"/>
      <path class="cls-2" d="M341.83,141.04v32.73"/>
      <path class="cls-2" d="M341.83,174.17v.4M339.77,140.23v.4"/>
      <path class="cls-2" d="M339.77,141.04v32.73"/>
      <path class="cls-2" d="M339.77,174.17v.4M337.71,140.23v.4"/>
      <path class="cls-2" d="M337.71,141.04v32.73"/>
      <path class="cls-2" d="M337.71,174.17v.4M335.65,140.23v.4"/>
      <path class="cls-2" d="M335.65,141.04v32.73"/>
      <path class="cls-2" d="M335.65,174.17v.4M333.6,140.23v.4"/>
      <path class="cls-2" d="M333.6,141.04v32.73"/>
      <path class="cls-2" d="M333.6,174.17v.4M331.65,140.23v.4"/>
      <path class="cls-2" d="M331.65,141.04v32.73"/>
      <path class="cls-2" d="M331.65,174.17v.4M329.6,140.23v.4"/>
      <path class="cls-2" d="M329.6,141.04v32.73"/>
      <path class="cls-2" d="M329.6,174.17v.4M327.54,140.23v.4"/>
      <path class="cls-2" d="M327.54,141.04v32.73"/>
      <path class="cls-2" d="M327.54,174.17v.4M325.48,140.23v.4"/>
      <path class="cls-2" d="M325.48,141.04v32.73"/>
      <path class="cls-2" d="M325.48,174.17v.4M323.42,140.23v.4"/>
      <path class="cls-2" d="M323.42,141.04v32.73"/>
      <path class="cls-2" d="M323.42,174.17v.4M321.37,140.23v.4"/>
      <path class="cls-2" d="M321.37,141.04v32.73"/>
      <path class="cls-2" d="M321.37,174.17v.4"/>
      <path class="cls-2" d="M394.07,174.17v-.4h-78.87v.4"/>
      <path class="cls-2" d="M394.07,174.17h-78.87"/>
      <path class="cls-2" d="M394.07,141.04v-.4h-78.87v.4"/>
      <path class="cls-2" d="M394.07,141.04h-78.87"/>
      <path class="cls-2" d="M316.79,159.35l-1.6-2.02,1.6-1.89"/>
      <path class="cls-2" d="M316.79,159.35l.34-.54M316.79,155.45l.34.54"/>
      <path class="cls-2" d="M317.14,158.81l-1.14-1.48,1.14-1.35"/>
      <path class="cls-2" d="M319.31,140.23v.4"/>
      <path class="cls-2" d="M319.31,141.04v32.73"/>
      <path class="cls-2" d="M319.31,174.17v.4M319.31,140.23v.4"/>
      <path class="cls-2" d="M319.31,141.04v32.73"/>
      <path class="cls-2" d="M319.31,174.17v.4M317.25,140.23v.4"/>
      <path class="cls-2" d="M317.25,141.04v32.73"/>
      <path class="cls-2" d="M317.25,174.17v.4M317.25,140.23v.4"/>
      <path class="cls-2" d="M317.25,141.04v32.73"/>
      <path class="cls-2" d="M317.25,174.17v.4M315.19,140.23v.4"/>
      <path class="cls-2" d="M315.19,141.04v32.73"/>
      <path class="cls-2" d="M315.19,174.17v.4M315.19,140.23v.4"/>
      <path class="cls-2" d="M315.19,141.04v32.73"/>
      <path class="cls-2" d="M315.19,174.17v.4M317.25,174.57h2.06M317.25,140.23h2.06M315.19,174.57h2.06M315.19,140.23h2.06M390.06,140.23v.4"/>
      <path class="cls-2" d="M390.06,141.04v32.73"/>
      <path class="cls-2" d="M390.06,174.17v.4M390.06,140.23v.4"/>
      <path class="cls-2" d="M390.06,141.04v32.73"/>
      <path class="cls-2" d="M390.06,140.23h2.06v.4"/>
      <path class="cls-2" d="M392.12,141.04v32.73"/>
      <path class="cls-2" d="M392.12,174.17v.4M392.12,140.23v.4"/>
      <path class="cls-2" d="M392.12,141.04v32.73"/>
      <path class="cls-2" d="M392.12,174.17v.4h1.94"/>
      <path class="cls-2" d="M315.19,140.9v-.13"/>
      <path class="cls-2" d="M315.19,173.9v.13"/>
      <path class="cls-2" d="M315.19,173.9h-.11"/>
    </g>
    <rect class="cls-3" x="344.27" y="175.14" width="50.37" height="61.82"/>
    <rect class="cls-3" x="728.09" y="584.79" width="73.26" height="33.2"/>
    <rect class="cls-6" x="785.33" y="617.99" width="16.03" height="34.34"/>
    <rect class="cls-6" x="752.13" y="617.99" width="33.2" height="34.34"/>
    <g>
      <path class="cls-2" d="M800.78,617.01v.41M771.09,582.85v.41"/>
      <path class="cls-2" d="M771.09,583.67v32.94"/>
      <path class="cls-2" d="M771.09,617.01v.41M760.81,582.85v.41"/>
      <path class="cls-2" d="M760.81,583.67v32.94"/>
      <path class="cls-2" d="M760.81,617.01v.41"/>
      <path class="cls-2" d="M797.15,617.41h-26.07"/>
      <path class="cls-2" d="M795.28,582.85h1.87M800.78,582.85h-.1"/>
      <path class="cls-2" d="M793.41,582.85h-22.33"/>
      <path class="cls-2" d="M760.81,617.41h-27.94"/>
      <path class="cls-2" d="M760.81,582.85h-27.94"/>
      <path class="cls-2" d="M795.28,582.85v.41"/>
      <path class="cls-2" d="M795.28,583.67v32.94"/>
      <path class="cls-2" d="M795.28,617.01v.41M793.41,582.85v.41"/>
      <path class="cls-2" d="M793.41,583.67v32.94"/>
      <path class="cls-2" d="M793.41,617.01v.41M791.54,582.85v.41"/>
      <path class="cls-2" d="M791.54,583.67v32.94"/>
      <path class="cls-2" d="M791.54,617.01v.41M789.67,582.85v.41"/>
      <path class="cls-2" d="M789.67,583.67v32.94"/>
      <path class="cls-2" d="M789.67,617.01v.41M787.8,582.85v.41"/>
      <path class="cls-2" d="M787.8,583.67v32.94"/>
      <path class="cls-2" d="M787.8,617.01v.41M785.93,582.85v.41"/>
      <path class="cls-2" d="M785.93,583.67v32.94"/>
      <path class="cls-2" d="M785.93,617.01v.41M784.07,582.85v.41"/>
      <path class="cls-2" d="M784.07,583.67v32.94"/>
      <path class="cls-2" d="M784.07,617.01v.41M782.2,582.85v.41"/>
      <path class="cls-2" d="M782.2,583.67v32.94"/>
      <path class="cls-2" d="M782.2,617.01v.41M780.33,582.85v.41"/>
      <path class="cls-2" d="M780.33,583.67v32.94"/>
      <path class="cls-2" d="M780.33,617.01v.41M778.56,582.85v.41"/>
      <path class="cls-2" d="M778.56,583.67v32.94"/>
      <path class="cls-2" d="M778.56,617.01v.41M776.69,582.85v.41"/>
      <path class="cls-2" d="M776.69,583.67v32.94"/>
      <path class="cls-2" d="M776.69,617.01v.41M774.83,582.85v.41"/>
      <path class="cls-2" d="M774.83,583.67v32.94"/>
      <path class="cls-2" d="M774.83,617.01v.41M772.96,582.85v.41"/>
      <path class="cls-2" d="M772.96,583.67v32.94"/>
      <path class="cls-2" d="M772.96,617.01v.41M771.09,582.85v.41"/>
      <path class="cls-2" d="M771.09,583.67v32.94"/>
      <path class="cls-2" d="M771.09,617.01v.41M760.81,582.85v.41"/>
      <path class="cls-2" d="M760.81,583.67v32.94"/>
      <path class="cls-2" d="M760.81,617.01v.41M758.94,582.85v.41"/>
      <path class="cls-2" d="M758.94,583.67v32.94"/>
      <path class="cls-2" d="M758.94,617.01v.41M757.07,582.85v.41"/>
      <path class="cls-2" d="M757.07,583.67v32.94"/>
      <path class="cls-2" d="M757.07,617.01v.41M755.2,582.85v.41"/>
      <path class="cls-2" d="M755.2,583.67v32.94"/>
      <path class="cls-2" d="M755.2,617.01v.41M753.33,582.85v.41"/>
      <path class="cls-2" d="M753.33,583.67v32.94"/>
      <path class="cls-2" d="M753.33,617.01v.41M751.47,582.85v.41"/>
      <path class="cls-2" d="M751.47,583.67v32.94"/>
      <path class="cls-2" d="M751.47,617.01v.41M749.6,582.85v.41"/>
      <path class="cls-2" d="M749.6,583.67v32.94"/>
      <path class="cls-2" d="M749.6,617.01v.41M747.73,582.85v.41"/>
      <path class="cls-2" d="M747.73,583.67v32.94"/>
      <path class="cls-2" d="M747.73,617.01v.41M745.86,582.85v.41"/>
      <path class="cls-2" d="M745.86,583.67v32.94"/>
      <path class="cls-2" d="M745.86,617.01v.41M744.09,582.85v.41"/>
      <path class="cls-2" d="M744.09,583.67v32.94"/>
      <path class="cls-2" d="M744.09,617.01v.41M742.23,582.85v.41"/>
      <path class="cls-2" d="M742.23,583.67v32.94"/>
      <path class="cls-2" d="M742.23,617.01v.41M740.36,582.85v.41"/>
      <path class="cls-2" d="M740.36,583.67v32.94"/>
      <path class="cls-2" d="M740.36,617.01v.41M738.49,582.85v.41"/>
      <path class="cls-2" d="M738.49,583.67v32.94"/>
      <path class="cls-2" d="M738.49,617.01v.41M736.62,582.85v.41"/>
      <path class="cls-2" d="M736.62,583.67v32.94"/>
      <path class="cls-2" d="M736.62,617.01v.41M734.75,582.85v.41"/>
      <path class="cls-2" d="M734.75,583.67v32.94"/>
      <path class="cls-2" d="M734.75,617.01v.41M795.28,582.85v.41"/>
      <path class="cls-2" d="M795.28,583.67v32.94"/>
      <path class="cls-2" d="M795.28,617.01v.41M793.41,582.85v.41"/>
      <path class="cls-2" d="M793.41,583.67v32.94"/>
      <path class="cls-2" d="M793.41,617.01v.41M791.54,582.85v.41"/>
      <path class="cls-2" d="M791.54,583.67v32.94"/>
      <path class="cls-2" d="M791.54,617.01v.41M789.67,582.85v.41"/>
      <path class="cls-2" d="M789.67,583.67v32.94"/>
      <path class="cls-2" d="M789.67,617.01v.41M787.8,582.85v.41"/>
      <path class="cls-2" d="M787.8,583.67v32.94"/>
      <path class="cls-2" d="M787.8,617.01v.41M785.93,582.85v.41"/>
      <path class="cls-2" d="M785.93,583.67v32.94"/>
      <path class="cls-2" d="M785.93,617.01v.41M784.07,582.85v.41"/>
      <path class="cls-2" d="M784.07,583.67v32.94"/>
      <path class="cls-2" d="M784.07,617.01v.41M782.2,582.85v.41"/>
      <path class="cls-2" d="M782.2,583.67v32.94"/>
      <path class="cls-2" d="M782.2,617.01v.41M780.33,582.85v.41"/>
      <path class="cls-2" d="M780.33,583.67v32.94"/>
      <path class="cls-2" d="M780.33,617.01v.41M778.56,582.85v.41"/>
      <path class="cls-2" d="M778.56,583.67v32.94"/>
      <path class="cls-2" d="M778.56,617.01v.41M776.69,582.85v.41"/>
      <path class="cls-2" d="M776.69,583.67v32.94"/>
      <path class="cls-2" d="M776.69,617.01v.41M774.83,582.85v.41"/>
      <path class="cls-2" d="M774.83,583.67v32.94"/>
      <path class="cls-2" d="M774.83,617.01v.41M772.96,582.85v.41"/>
      <path class="cls-2" d="M772.96,583.67v32.94"/>
      <path class="cls-2" d="M772.96,617.01v.41M758.94,582.85v.41"/>
      <path class="cls-2" d="M758.94,583.67v32.94"/>
      <path class="cls-2" d="M758.94,617.01v.41M757.07,582.85v.41"/>
      <path class="cls-2" d="M757.07,583.67v32.94"/>
      <path class="cls-2" d="M757.07,617.01v.41M755.2,582.85v.41"/>
      <path class="cls-2" d="M755.2,583.67v32.94"/>
      <path class="cls-2" d="M755.2,617.01v.41M753.33,582.85v.41"/>
      <path class="cls-2" d="M753.33,583.67v32.94"/>
      <path class="cls-2" d="M753.33,617.01v.41M751.47,582.85v.41"/>
      <path class="cls-2" d="M751.47,583.67v32.94"/>
      <path class="cls-2" d="M751.47,617.01v.41M749.6,582.85v.41"/>
      <path class="cls-2" d="M749.6,583.67v32.94"/>
      <path class="cls-2" d="M749.6,617.01v.41M747.73,582.85v.41"/>
      <path class="cls-2" d="M747.73,583.67v32.94"/>
      <path class="cls-2" d="M747.73,617.01v.41M745.86,582.85v.41"/>
      <path class="cls-2" d="M745.86,583.67v32.94"/>
      <path class="cls-2" d="M745.86,617.01v.41M744.09,582.85v.41"/>
      <path class="cls-2" d="M744.09,583.67v32.94"/>
      <path class="cls-2" d="M744.09,617.01v.41M742.23,582.85v.41"/>
      <path class="cls-2" d="M742.23,583.67v32.94"/>
      <path class="cls-2" d="M742.23,617.01v.41M740.36,582.85v.41"/>
      <path class="cls-2" d="M740.36,583.67v32.94"/>
      <path class="cls-2" d="M740.36,617.01v.41M738.49,582.85v.41"/>
      <path class="cls-2" d="M738.49,583.67v32.94"/>
      <path class="cls-2" d="M738.49,617.01v.41M736.62,582.85v.41"/>
      <path class="cls-2" d="M736.62,583.67v32.94"/>
      <path class="cls-2" d="M736.62,617.01v.41M734.75,582.85v.41"/>
      <path class="cls-2" d="M734.75,583.67v32.94"/>
      <path class="cls-2" d="M734.75,617.01v.41"/>
      <path class="cls-2" d="M800.78,617.01v-.41h-71.64v.41"/>
      <path class="cls-2" d="M800.78,617.01h-71.64"/>
      <path class="cls-2" d="M800.78,583.67v-.41h-71.64v.41"/>
      <path class="cls-2" d="M800.78,583.67h-71.64"/>
      <path class="cls-2" d="M730.6,602.1l-1.45-2.03,1.45-1.9"/>
      <path class="cls-2" d="M730.6,602.1l.31-.54M730.6,598.17l.31.54"/>
      <path class="cls-2" d="M730.91,601.56l-1.04-1.49,1.04-1.36"/>
      <path class="cls-2" d="M732.88,582.85v.41"/>
      <path class="cls-2" d="M732.88,583.67v32.94"/>
      <path class="cls-2" d="M732.88,617.01v.41M732.88,582.85v.41"/>
      <path class="cls-2" d="M732.88,583.67v32.94"/>
      <path class="cls-2" d="M732.88,617.01v.41M731.01,582.85v.41"/>
      <path class="cls-2" d="M731.01,583.67v32.94"/>
      <path class="cls-2" d="M731.01,617.01v.41M731.01,582.85v.41"/>
      <path class="cls-2" d="M731.01,583.67v32.94"/>
      <path class="cls-2" d="M731.01,617.01v.41M729.14,582.85v.41"/>
      <path class="cls-2" d="M729.14,583.67v32.94"/>
      <path class="cls-2" d="M729.14,617.01v.41M729.14,582.85v.41"/>
      <path class="cls-2" d="M729.14,583.67v32.94"/>
      <path class="cls-2" d="M729.14,617.01v.41M731.01,617.41h1.87M731.01,582.85h1.87M729.14,617.41h1.87M729.14,582.85h1.87M797.15,582.85v.41"/>
      <path class="cls-2" d="M797.15,583.67v32.94"/>
      <path class="cls-2" d="M797.15,617.01v.41M797.15,582.85v.41"/>
      <path class="cls-2" d="M797.15,583.67v32.94"/>
      <path class="cls-2" d="M797.15,582.85h1.87v.41"/>
      <path class="cls-2" d="M799.02,583.67v32.94"/>
      <path class="cls-2" d="M799.02,617.01v.41M799.02,582.85v.41"/>
      <path class="cls-2" d="M799.02,583.67v32.94"/>
      <path class="cls-2" d="M799.02,617.01v.41h1.76"/>
      <path class="cls-2" d="M729.14,583.53v-.14"/>
      <path class="cls-2" d="M729.14,583.53h-.1"/>
      <path class="cls-2" d="M729.14,616.74v.14"/>
      <path class="cls-2" d="M729.14,616.74h-.1"/>
    </g>
    <rect class="cls-1" x="707.88" y="584.96" width="20.21" height="33.03"/>
    <rect class="cls-1" x="707.88" y="617.99" width="20.21" height="34.34"/>
    <rect class="cls-1" x="686.73" y="584.96" width="21.15" height="67.37"/>
    <rect class="cls-4" x="801.36" y="788.69" width="74.64" height="69.46"/>
    <rect class="cls-4" x="762.85" y="788.25" width="38.33" height="69.9"/>
    <rect class="cls-4" x="686.3" y="743.09" width="36.02" height="45.6"/>
    <rect class="cls-4" x="652.15" y="743.09" width="34.15" height="45.6"/>
    <g>
      <path class="cls-2" d="M548.85,699.11l-.14-.75,63.05-10.51h1.24l.27.6-64.43,10.66h.01Z"/>
      <path class="cls-2" d="M564.1,791.28v1.2M563,784.52v7.96M561.9,777.92v14.56M560.67,771.17v21.32M559.57,750.45v.45M559.57,764.41v28.07M558.47,749.85v1.2M558.47,757.66v34.83M557.37,749.1v2.25M557.37,753.45v39.03M556.27,744v7.51M556.27,752.7v39.78M555.17,737.24v14.56M555.17,752.1v40.38M554.07,730.49v62M552.97,723.73v68.75M551.74,716.98v75.51M550.64,710.22v82.26M549.54,703.47v81.36M548.44,698.36v86.46M547.34,698.51v86.31M546.24,698.81v86.01M545.14,698.96v85.86M544.04,699.11v85.71M542.81,699.26v85.56M541.71,699.56v85.26M540.61,699.71v92.77M539.51,699.86v92.62M538.41,700.01v92.47M537.31,700.31v92.17M536.21,700.46v92.02M535.12,700.61v91.87M533.88,700.76v91.72M532.78,701.06v91.42M531.68,701.21v91.27M530.58,701.36v91.12M529.48,701.51v90.97M528.38,701.81v90.67M527.29,701.96v90.52M526.19,702.11v90.37M524.95,702.26v90.22M523.85,702.41v19.81M522.75,702.71v19.51M521.65,702.86v19.51M520.55,703.01v19.36M548.44,699.41l.55.6M543.77,699.11l.27.3M546.24,701.81l1.1,1.2M549.54,705.42l.41.45M540.61,700.61l1.1,1.2M544.04,704.22l1.1,1.2M547.34,707.97l1.1,1.2M550.64,711.57l.27.3M536.08,700.46l.14.15M538.41,703.01l1.1,1.2M541.71,706.62l1.1,1.35M545.14,710.37l1.1,1.2M548.44,713.97l1.1,1.2M551.74,717.73l.27.15M532.78,701.81l1.1,1.2M536.21,705.42l1.1,1.2M539.51,709.17l1.1,1.2M542.81,712.77l1.24,1.2M546.24,716.37l1.1,1.35M549.54,720.13l1.1,1.2M552.97,723.73v.15M528.25,701.81h.14M530.58,704.22l1.1,1.2M533.88,707.97l1.24,1.2M537.31,711.57l1.1,1.2M540.61,715.17l1.1,1.2M544.04,718.93l1.1,1.2M547.34,722.53l1.1,1.2M550.64,726.13l1.1,1.35M524.95,703.01l1.24,1.2M528.38,706.62l1.1,1.35M531.68,710.37l1.1,1.2M535.12,713.97l1.1,1.2M538.41,717.73l1.1,1.2M541.71,721.33l1.1,1.2M545.14,724.93l1.1,1.2M548.44,728.68l1.1,1.2M551.74,732.29l1.24,1.2M522.75,705.42l1.1,1.2M526.19,709.17l1.1,1.2M529.48,712.77l1.1,1.2M532.78,716.37l1.1,1.35M536.21,720.13l1.1,1.2M539.51,723.73l1.1,1.2M542.81,727.48l1.24,1.2M546.24,731.09l1.1,1.2M549.54,734.69l1.1,1.2M552.97,738.44l1.1,1.2M520.55,707.97l1.1,1.2M523.85,711.57l1.1,1.2M527.29,715.17l1.1,1.2M530.58,718.93l1.1,1.2M533.88,722.53l1.24,1.2M537.31,726.13l1.1,1.35M540.61,729.88l1.1,1.2M544.04,733.49l1.1,1.2M547.34,737.24l1.1,1.2M550.64,740.84l1.1,1.2M554.07,744.45l1.1,1.2M521.65,713.97l1.1,1.2M524.95,717.73l1.24,1.2M528.38,721.33l1.1,1.2M531.68,724.93l1.1,1.2M535.12,728.68l1.1,1.2M538.41,732.29l1.1,1.2M541.71,735.89l1.1,1.35M545.14,739.64l1.1,1.2M548.44,743.24l1.1,1.2M551.74,747l1.24,1.2M555.17,750.6l.96,1.05M519.46,716.52l1.1,1.2M522.75,720.13l1.1,1.2M526.19,723.73l1.1,1.2M529.48,727.48l1.1,1.2M532.78,731.09l1.1,1.2M536.21,734.69l1.1,1.2M539.51,738.44l1.1,1.2M542.81,742.04l1.24,1.2M546.24,745.65l1.1,1.35M549.54,749.4l1.1,1.2M552.97,753l1.1,1.2M556.27,756.75l1.1,1.2M524.68,727.03l.27.45"/>
      <path class="cls-2" d="M527.29,729.88l1.1,1.2M530.58,733.49l1.1,1.2M533.88,737.24l1.24,1.2M537.31,740.84l1.1,1.2M540.61,744.45l1.1,1.2M544.04,748.2l1.1,1.2M547.34,751.8l1.1,1.2M550.64,755.4l1.1,1.35M554.07,759.16l1.1,1.2M557.37,762.76l1.1,1.2M524.95,732.29l1.24,1.2M528.38,735.89l1.1,1.35M531.68,739.64l1.1,1.2M535.12,743.24l1.1,1.2M538.41,747l1.1,1.2M541.71,750.6l1.1,1.2M545.14,754.2l1.1,1.2M548.44,757.96l1.1,1.2M551.74,761.56l1.24,1.2M555.17,765.16l1.1,1.35M558.47,768.91l1.1,1.2M526.19,738.44l1.1,1.2M529.48,742.04l1.1,1.2M532.78,745.65l1.1,1.35M536.21,749.4l1.1,1.2M539.51,753l1.1,1.2M542.81,756.75l1.24,1.2M546.24,760.36l1.1,1.2M549.54,763.96l1.1,1.2M552.97,767.71l1.1,1.2M556.27,771.32l1.1,1.2M559.57,774.92l1.1,1.2M524.68,741.74l.27.3M527.29,744.45l1.1,1.2M530.58,748.2l1.1,1.2M533.88,751.8l1.24,1.2M537.31,755.4l1.1,1.35M540.61,759.16l1.1,1.2M544.04,762.76l1.1,1.2M547.34,766.51l1.1,1.2M550.64,770.11l1.1,1.2M554.07,773.72l1.1,1.2M557.37,777.47l1.1,1.2M560.67,781.07l1.24,1.2M524.95,747l1.24,1.2M528.38,750.6l1.1,1.2M531.68,754.2l1.1,1.2M535.12,757.96l1.1,1.2M538.41,761.56l1.1,1.2M541.71,765.16l1.1,1.35M545.14,768.91l1.1,1.2M548.44,772.52l1.1,1.2M551.74,776.12l1.24,1.35M555.17,779.87l1.1,1.2M558.47,783.47l1.1,1.2M561.9,787.23l1.1,1.2M526.19,753l1.1,1.2M529.48,756.75l1.1,1.2M532.78,760.36l1.1,1.2M536.21,763.96l1.1,1.2M539.51,767.71l1.1,1.2M542.81,771.32l1.24,1.2M546.24,774.92l1.1,1.2M549.54,778.67l1.1,1.2M552.97,782.27l1.1,1.2M556.27,785.88l1.1,1.35M559.57,789.63l1.1,1.2M524.68,756.3l.27.45M527.29,759.16l1.1,1.2M530.58,762.76l1.1,1.2M533.88,766.51l1.24,1.2M537.31,770.11l1.1,1.2M540.61,773.72l1.1,1.2M544.04,777.47l1.1,1.2M547.34,781.07l1.1,1.2M550.64,784.68l1.1,1.2M554.07,788.43l1.1,1.2M557.37,792.03l.41.45M524.95,761.56l1.24,1.2M528.38,765.16l1.1,1.35M531.68,768.91l1.1,1.2M535.12,772.52l1.1,1.2M538.41,776.12l1.1,1.35M541.71,779.87l1.1,1.2M545.14,783.47l1.1,1.2M551.74,790.83l1.24,1.2M526.19,767.71l1.1,1.2M529.48,771.32l1.1,1.2M532.78,774.92l1.1,1.2M536.21,778.67l1.1,1.2M539.51,782.27l1.1,1.2M524.68,771.01l.27.3M527.29,773.72l1.1,1.2M530.58,777.47l1.1,1.2M533.88,781.07l1.24,1.2M537.31,784.68l1.1,1.2M540.61,788.43l.41.3M524.95,776.12l1.24,1.35M528.38,779.87l1.1,1.2M531.68,783.47l1.1,1.2M535.12,787.23l1.1,1.2M538.41,790.83l1.1,1.2M526.19,782.27l1.1,1.2M529.48,785.88l1.1,1.35M532.78,789.63l1.1,1.2M524.68,785.58l.27.3M527.29,788.43l1.1,1.2M530.58,792.03l.41.45M524.95,790.83l1.24,1.2M603.8,689.2v28.37M595.97,690.56v27.47M580.04,693.11v25.82M572.21,694.46v24.92M564.24,695.81v24.02M548.44,698.36v22.37M540.61,699.71v21.47M532.64,701.06v20.57M524.68,702.41v19.66M609.16,717.28v-28.97M606.41,717.43v-28.67M601.19,689.66v28.07M598.58,690.11v27.77M590.61,691.31v27.02M593.22,691.01v27.17M574.82,694.01v25.22M577.43,693.56v25.52M566.85,695.36v24.32M569.6,694.91v24.62"/>
      <path class="cls-2" d="M559.02,696.71v23.42M561.63,696.26v23.72M543.22,699.26v21.77M545.83,698.81v22.07M535.25,700.61v20.87M537.86,700.16v21.17M527.42,701.96v19.96M530.03,701.51v20.26M519.46,703.16v19.21"/>
      <path class="cls-2" d="M611.77,687.85l-63.05,10.51M548.3,698.36l-28.85,4.8"/>
      <path class="cls-2" d="M519.46,722.38l5.22-.3,7.97-.45,7.97-.45"/>
      <path class="cls-2" d="M552.37,720.66l11.79-.75M603.63,717.66l7.95-.45M611.58,687.97l-63.33,10.5M524.68,722.16v70.32M532.63,721.71v70.77M540.58,721.26v71.22M564.15,719.91v72.57M595.82,718.11v74.37M603.63,717.66v74.82M611.58,687.97v104.51M721.65,578.66h4.39"/>
      <path class="cls-2" d="M519.46,703.16v.9l29.4-4.95-.14-.75-26.65,4.35-2.61.45Z"/>
      <path class="cls-2" d="M540.61,721.18l7.83-.45v64.1"/>
      <path class="cls-2" d="M548.44,720.73l3.98-.15"/>
      <path class="cls-2" d="M564.24,719.83l7.97-.45v73.1"/>
      <path class="cls-2" d="M572.21,719.38l7.83-.45v72.2"/>
      <path class="cls-2" d="M580.04,718.93l15.93-.9,7.83-.45"/>
      <path class="cls-2" d="M548.72,698.21l64.15-10.81-64.15,10.66"/>
      <path class="cls-2" d="M593.63,734.54v6.75h.14"/>
      <path class="cls-2" d="M593.77,740.84v-5.7M593.77,734.54h-.14"/>
      <path class="cls-2" d="M593.77,735.14v-43.83l20.19-3.3.82.9,1.1.75-20.33,3.3v42.18h-1.79.01Z"/>
      <path class="cls-2" d="M595.56,740.84v53.59h-1.79v-53.59h1.79Z"/>
    </g>
    <path class="cls-5" d="M610.84,797.97l.92-110.12-295.63,3.35-.94-550.3h-.11"/>
    <rect class="cls-6" x="155.39" y="584.96" width="64.11" height="26.33"/>
    <rect class="cls-3" x="155.39" y="610.14" width="64.11" height="29.76"/>
    <rect class="cls-6" x="155.39" y="639.91" width="64.11" height="21.75"/>
    <rect class="cls-6" x="219.49" y="615.87" width="22.89" height="45.79"/>
    <g>
      <path class="cls-2" d="M218.92,640.14v.34M192.75,611.64v.34"/>
      <path class="cls-2" d="M192.75,612.32v27.49"/>
      <path class="cls-2" d="M192.75,640.14v.34M183.69,611.64v.34"/>
      <path class="cls-2" d="M183.69,612.32v27.49"/>
      <path class="cls-2" d="M183.69,640.14v.34"/>
      <path class="cls-2" d="M215.72,640.48h-23.01"/>
      <path class="cls-2" d="M214.07,611.64h1.65M218.92,611.64h-.09"/>
      <path class="cls-2" d="M212.42,611.64h-19.71"/>
      <path class="cls-2" d="M183.69,640.48h-24.66"/>
      <path class="cls-2" d="M183.69,611.64h-24.66"/>
      <path class="cls-2" d="M214.07,611.64v.34"/>
      <path class="cls-2" d="M214.07,612.32v27.49"/>
      <path class="cls-2" d="M214.07,640.14v.34M212.42,611.64v.34"/>
      <path class="cls-2" d="M212.42,612.32v27.49"/>
      <path class="cls-2" d="M212.42,640.14v.34M210.78,611.64v.34"/>
      <path class="cls-2" d="M210.78,612.32v27.49"/>
      <path class="cls-2" d="M210.78,640.14v.34M209.13,611.64v.34"/>
      <path class="cls-2" d="M209.13,612.32v27.49"/>
      <path class="cls-2" d="M209.13,640.14v.34M207.48,611.64v.34"/>
      <path class="cls-2" d="M207.48,612.32v27.49"/>
      <path class="cls-2" d="M207.48,640.14v.34M205.84,611.64v.34"/>
      <path class="cls-2" d="M205.84,612.32v27.49"/>
      <path class="cls-2" d="M205.84,640.14v.34M204.19,611.64v.34"/>
      <path class="cls-2" d="M204.19,612.32v27.49"/>
      <path class="cls-2" d="M204.19,640.14v.34M202.54,611.64v.34"/>
      <path class="cls-2" d="M202.54,612.32v27.49"/>
      <path class="cls-2" d="M202.54,640.14v.34M200.9,611.64v.34"/>
      <path class="cls-2" d="M200.9,612.32v27.49"/>
      <path class="cls-2" d="M200.9,640.14v.34M199.34,611.64v.34"/>
      <path class="cls-2" d="M199.34,612.32v27.49"/>
      <path class="cls-2" d="M199.34,640.14v.34M197.69,611.64v.34"/>
      <path class="cls-2" d="M197.69,612.32v27.49"/>
      <path class="cls-2" d="M197.69,640.14v.34M196.05,611.64v.34"/>
      <path class="cls-2" d="M196.05,612.32v27.49"/>
      <path class="cls-2" d="M196.05,640.14v.34M194.4,611.64v.34"/>
      <path class="cls-2" d="M194.4,612.32v27.49"/>
      <path class="cls-2" d="M194.4,640.14v.34M192.75,611.64v.34"/>
      <path class="cls-2" d="M192.75,612.32v27.49"/>
      <path class="cls-2" d="M192.75,640.14v.34M183.69,611.64v.34"/>
      <path class="cls-2" d="M183.69,612.32v27.49"/>
      <path class="cls-2" d="M183.69,640.14v.34M182.05,611.64v.34"/>
      <path class="cls-2" d="M182.05,612.32v27.49"/>
      <path class="cls-2" d="M182.05,640.14v.34M180.4,611.64v.34"/>
      <path class="cls-2" d="M180.4,612.32v27.49"/>
      <path class="cls-2" d="M180.4,640.14v.34M178.75,611.64v.34"/>
      <path class="cls-2" d="M178.75,612.32v27.49"/>
      <path class="cls-2" d="M178.75,640.14v.34M177.11,611.64v.34"/>
      <path class="cls-2" d="M177.11,612.32v27.49"/>
      <path class="cls-2" d="M177.11,640.14v.34M175.46,611.64v.34"/>
      <path class="cls-2" d="M175.46,612.32v27.49"/>
      <path class="cls-2" d="M175.46,640.14v.34M173.81,611.64v.34"/>
      <path class="cls-2" d="M173.81,612.32v27.49"/>
      <path class="cls-2" d="M173.81,640.14v.34M172.17,611.64v.34"/>
      <path class="cls-2" d="M172.17,612.32v27.49"/>
      <path class="cls-2" d="M172.17,640.14v.34M170.52,611.64v.34"/>
      <path class="cls-2" d="M170.52,612.32v27.49"/>
      <path class="cls-2" d="M170.52,640.14v.34M168.96,611.64v.34"/>
      <path class="cls-2" d="M168.96,612.32v27.49"/>
      <path class="cls-2" d="M168.96,640.14v.34M167.32,611.64v.34"/>
      <path class="cls-2" d="M167.32,612.32v27.49"/>
      <path class="cls-2" d="M167.32,640.14v.34M165.67,611.64v.34"/>
      <path class="cls-2" d="M165.67,612.32v27.49"/>
      <path class="cls-2" d="M165.67,640.14v.34M164.02,611.64v.34"/>
      <path class="cls-2" d="M164.02,612.32v27.49"/>
      <path class="cls-2" d="M164.02,640.14v.34M162.38,611.64v.34"/>
      <path class="cls-2" d="M162.38,612.32v27.49"/>
      <path class="cls-2" d="M162.38,640.14v.34M160.73,611.64v.34"/>
      <path class="cls-2" d="M160.73,612.32v27.49"/>
      <path class="cls-2" d="M160.73,640.14v.34M214.07,611.64v.34"/>
      <path class="cls-2" d="M214.07,612.32v27.49"/>
      <path class="cls-2" d="M214.07,640.14v.34M212.42,611.64v.34"/>
      <path class="cls-2" d="M212.42,612.32v27.49"/>
      <path class="cls-2" d="M212.42,640.14v.34M210.78,611.64v.34"/>
      <path class="cls-2" d="M210.78,612.32v27.49"/>
      <path class="cls-2" d="M210.78,640.14v.34M209.13,611.64v.34"/>
      <path class="cls-2" d="M209.13,612.32v27.49"/>
      <path class="cls-2" d="M209.13,640.14v.34M207.48,611.64v.34"/>
      <path class="cls-2" d="M207.48,612.32v27.49"/>
      <path class="cls-2" d="M207.48,640.14v.34M205.84,611.64v.34"/>
      <path class="cls-2" d="M205.84,612.32v27.49"/>
      <path class="cls-2" d="M205.84,640.14v.34M204.19,611.64v.34"/>
      <path class="cls-2" d="M204.19,612.32v27.49"/>
      <path class="cls-2" d="M204.19,640.14v.34M202.54,611.64v.34"/>
      <path class="cls-2" d="M202.54,612.32v27.49"/>
      <path class="cls-2" d="M202.54,640.14v.34M200.9,611.64v.34"/>
      <path class="cls-2" d="M200.9,612.32v27.49"/>
      <path class="cls-2" d="M200.9,640.14v.34M199.34,611.64v.34"/>
      <path class="cls-2" d="M199.34,612.32v27.49"/>
      <path class="cls-2" d="M199.34,640.14v.34M197.69,611.64v.34"/>
      <path class="cls-2" d="M197.69,612.32v27.49"/>
      <path class="cls-2" d="M197.69,640.14v.34M196.05,611.64v.34"/>
      <path class="cls-2" d="M196.05,612.32v27.49"/>
      <path class="cls-2" d="M196.05,640.14v.34M194.4,611.64v.34"/>
      <path class="cls-2" d="M194.4,612.32v27.49"/>
      <path class="cls-2" d="M194.4,640.14v.34M182.05,611.64v.34"/>
      <path class="cls-2" d="M182.05,612.32v27.49"/>
      <path class="cls-2" d="M182.05,640.14v.34M180.4,611.64v.34"/>
      <path class="cls-2" d="M180.4,612.32v27.49"/>
      <path class="cls-2" d="M180.4,640.14v.34M178.75,611.64v.34"/>
      <path class="cls-2" d="M178.75,612.32v27.49"/>
      <path class="cls-2" d="M178.75,640.14v.34M177.11,611.64v.34"/>
      <path class="cls-2" d="M177.11,612.32v27.49"/>
      <path class="cls-2" d="M177.11,640.14v.34M175.46,611.64v.34"/>
      <path class="cls-2" d="M175.46,612.32v27.49"/>
      <path class="cls-2" d="M175.46,640.14v.34M173.81,611.64v.34"/>
      <path class="cls-2" d="M173.81,612.32v27.49"/>
      <path class="cls-2" d="M173.81,640.14v.34M172.17,611.64v.34"/>
      <path class="cls-2" d="M172.17,612.32v27.49"/>
      <path class="cls-2" d="M172.17,640.14v.34M170.52,611.64v.34"/>
      <path class="cls-2" d="M170.52,612.32v27.49"/>
      <path class="cls-2" d="M170.52,640.14v.34M168.96,611.64v.34"/>
      <path class="cls-2" d="M168.96,612.32v27.49"/>
      <path class="cls-2" d="M168.96,640.14v.34M167.32,611.64v.34"/>
      <path class="cls-2" d="M167.32,612.32v27.49"/>
      <path class="cls-2" d="M167.32,640.14v.34M165.67,611.64v.34"/>
      <path class="cls-2" d="M165.67,612.32v27.49"/>
      <path class="cls-2" d="M165.67,640.14v.34M164.02,611.64v.34"/>
      <path class="cls-2" d="M164.02,612.32v27.49"/>
      <path class="cls-2" d="M164.02,640.14v.34M162.38,611.64v.34"/>
      <path class="cls-2" d="M162.38,612.32v27.49"/>
      <path class="cls-2" d="M162.38,640.14v.34M160.73,611.64v.34"/>
      <path class="cls-2" d="M160.73,612.32v27.49"/>
      <path class="cls-2" d="M160.73,640.14v.34"/>
      <path class="cls-2" d="M218.92,640.14v-.34h-63.14v.34"/>
      <path class="cls-2" d="M218.92,640.14h-63.14"/>
      <path class="cls-2" d="M218.92,612.32v-.34h-63.14v.34"/>
      <path class="cls-2" d="M218.92,612.32h-63.14"/>
      <path class="cls-2" d="M157.07,627.7l-1.28-1.7,1.28-1.58"/>
      <path class="cls-2" d="M157.07,627.7l.27-.45M157.07,624.42l.27.45"/>
      <path class="cls-2" d="M157.34,627.25l-.91-1.24.91-1.13"/>
      <path class="cls-2" d="M159.08,611.64v.34"/>
      <path class="cls-2" d="M159.08,612.32v27.49"/>
      <path class="cls-2" d="M159.08,640.14v.34M159.08,611.64v.34"/>
      <path class="cls-2" d="M159.08,612.32v27.49"/>
      <path class="cls-2" d="M159.08,640.14v.34M157.44,611.64v.34"/>
      <path class="cls-2" d="M157.44,612.32v27.49"/>
      <path class="cls-2" d="M157.44,640.14v.34M157.44,611.64v.34"/>
      <path class="cls-2" d="M157.44,612.32v27.49"/>
      <path class="cls-2" d="M157.44,640.14v.34M155.79,611.64v.34"/>
      <path class="cls-2" d="M155.79,612.32v27.49"/>
      <path class="cls-2" d="M155.79,640.14v.34M155.79,611.64v.34"/>
      <path class="cls-2" d="M155.79,612.32v27.49"/>
      <path class="cls-2" d="M155.79,640.14v.34M157.44,640.48h1.65M157.44,611.64h1.65M155.79,640.48h1.65M155.79,611.64h1.65M215.72,611.64v.34"/>
      <path class="cls-2" d="M215.72,612.32v27.49"/>
      <path class="cls-2" d="M215.72,640.14v.34M215.72,611.64v.34"/>
      <path class="cls-2" d="M215.72,612.32v27.49"/>
      <path class="cls-2" d="M215.72,611.64h1.65v.34"/>
      <path class="cls-2" d="M217.37,612.32v27.49"/>
      <path class="cls-2" d="M217.37,640.14v.34M217.37,611.64v.34"/>
      <path class="cls-2" d="M217.37,612.32v27.49"/>
      <path class="cls-2" d="M217.37,640.14v.34h1.56"/>
      <path class="cls-2" d="M155.79,612.2v-.11"/>
      <path class="cls-2" d="M155.79,612.2h-.09"/>
      <path class="cls-2" d="M155.79,639.91v.11"/>
      <path class="cls-2" d="M155.79,639.91h-.09"/>
    </g>
    <rect class="cls-5" x="463.07" y="524.29" width="154.2" height="43"/>
    <g>
      <path class="cls-8" d="M617.27,566.86v.51M553.72,524.35v.51"/>
      <path class="cls-8" d="M553.72,525.38v40.98"/>
      <path class="cls-8" d="M553.72,566.86v.51M531.73,524.35v.51"/>
      <path class="cls-8" d="M531.73,525.38v40.98"/>
      <path class="cls-8" d="M531.73,566.86v.51"/>
      <path class="cls-8" d="M609.49,567.37h-55.79"/>
      <path class="cls-8" d="M605.49,524.35h4M617.27,524.35h-.23"/>
      <path class="cls-8" d="M601.49,524.35h-47.79"/>
      <path class="cls-8" d="M531.73,567.37h-59.8"/>
      <path class="cls-8" d="M531.73,524.35h-59.8"/>
      <path class="cls-8" d="M605.49,524.35v.51"/>
      <path class="cls-8" d="M605.49,525.38v40.98"/>
      <path class="cls-8" d="M605.49,566.86v.51M601.49,524.35v.51"/>
      <path class="cls-8" d="M601.49,525.38v40.98"/>
      <path class="cls-8" d="M601.49,566.86v.51M597.49,524.35v.51"/>
      <path class="cls-8" d="M597.49,525.38v40.98"/>
      <path class="cls-8" d="M597.49,566.86v.51M593.49,524.35v.51"/>
      <path class="cls-8" d="M593.49,525.38v40.98"/>
      <path class="cls-8" d="M593.49,566.86v.51M589.49,524.35v.51"/>
      <path class="cls-8" d="M589.49,525.38v40.98"/>
      <path class="cls-8" d="M589.49,566.86v.51M585.48,524.35v.51"/>
      <path class="cls-8" d="M585.48,525.38v40.98"/>
      <path class="cls-8" d="M585.48,566.86v.51M581.48,524.35v.51"/>
      <path class="cls-8" d="M581.48,525.38v40.98"/>
      <path class="cls-8" d="M581.48,566.86v.51M577.5,524.35v.51"/>
      <path class="cls-8" d="M577.5,525.38v40.98"/>
      <path class="cls-8" d="M577.5,566.86v.51M573.5,524.35v.51"/>
      <path class="cls-8" d="M573.5,525.38v40.98"/>
      <path class="cls-8" d="M573.5,566.86v.51M569.72,524.35v.51"/>
      <path class="cls-8" d="M569.72,525.38v40.98"/>
      <path class="cls-8" d="M569.72,566.86v.51M565.72,524.35v.51"/>
      <path class="cls-8" d="M565.72,525.38v40.98"/>
      <path class="cls-8" d="M565.72,566.86v.51M561.72,524.35v.51"/>
      <path class="cls-8" d="M561.72,525.38v40.98"/>
      <path class="cls-8" d="M561.72,566.86v.51M557.72,524.35v.51"/>
      <path class="cls-8" d="M557.72,525.38v40.98"/>
      <path class="cls-8" d="M557.72,566.86v.51M553.72,524.35v.51"/>
      <path class="cls-8" d="M553.72,525.38v40.98"/>
      <path class="cls-8" d="M553.72,566.86v.51M531.73,524.35v.51"/>
      <path class="cls-8" d="M531.73,525.38v40.98"/>
      <path class="cls-8" d="M531.73,566.86v.51M527.72,524.35v.51"/>
      <path class="cls-8" d="M527.72,525.38v40.98"/>
      <path class="cls-8" d="M527.72,566.86v.51M523.72,524.35v.51"/>
      <path class="cls-8" d="M523.72,525.38v40.98"/>
      <path class="cls-8" d="M523.72,566.86v.51M519.72,524.35v.51"/>
      <path class="cls-8" d="M519.72,525.38v40.98"/>
      <path class="cls-8" d="M519.72,566.86v.51M515.72,524.35v.51"/>
      <path class="cls-8" d="M515.72,525.38v40.98"/>
      <path class="cls-8" d="M515.72,566.86v.51M511.72,524.35v.51"/>
      <path class="cls-8" d="M511.72,525.38v40.98"/>
      <path class="cls-8" d="M511.72,566.86v.51M507.72,524.35v.51"/>
      <path class="cls-8" d="M507.72,525.38v40.98"/>
      <path class="cls-8" d="M507.72,566.86v.51M503.72,524.35v.51"/>
      <path class="cls-8" d="M503.72,525.38v40.98"/>
      <path class="cls-8" d="M503.72,566.86v.51M499.71,524.35v.51"/>
      <path class="cls-8" d="M499.71,525.38v40.98"/>
      <path class="cls-8" d="M499.71,566.86v.51M495.94,524.35v.51"/>
      <path class="cls-8" d="M495.94,525.38v40.98"/>
      <path class="cls-8" d="M495.94,566.86v.51M491.94,524.35v.51"/>
      <path class="cls-8" d="M491.94,525.38v40.98"/>
      <path class="cls-8" d="M491.94,566.86v.51M487.95,524.35v.51"/>
      <path class="cls-8" d="M487.95,525.38v40.98"/>
      <path class="cls-8" d="M487.95,566.86v.51M483.95,524.35v.51"/>
      <path class="cls-8" d="M483.95,525.38v40.98"/>
      <path class="cls-8" d="M483.95,566.86v.51M479.95,524.35v.51"/>
      <path class="cls-8" d="M479.95,525.38v40.98"/>
      <path class="cls-8" d="M479.95,566.86v.51M475.95,524.35v.51"/>
      <path class="cls-8" d="M475.95,525.38v40.98"/>
      <path class="cls-8" d="M475.95,566.86v.51M605.49,524.35v.51"/>
      <path class="cls-8" d="M605.49,525.38v40.98"/>
      <path class="cls-8" d="M605.49,566.86v.51M601.49,524.35v.51"/>
      <path class="cls-8" d="M601.49,525.38v40.98"/>
      <path class="cls-8" d="M601.49,566.86v.51M597.49,524.35v.51"/>
      <path class="cls-8" d="M597.49,525.38v40.98"/>
      <path class="cls-8" d="M597.49,566.86v.51M593.49,524.35v.51"/>
      <path class="cls-8" d="M593.49,525.38v40.98"/>
      <path class="cls-8" d="M593.49,566.86v.51M589.49,524.35v.51"/>
      <path class="cls-8" d="M589.49,525.38v40.98"/>
      <path class="cls-8" d="M589.49,566.86v.51M585.48,524.35v.51"/>
      <path class="cls-8" d="M585.48,525.38v40.98"/>
      <path class="cls-8" d="M585.48,566.86v.51M581.48,524.35v.51"/>
      <path class="cls-8" d="M581.48,525.38v40.98"/>
      <path class="cls-8" d="M581.48,566.86v.51M577.5,524.35v.51"/>
      <path class="cls-8" d="M577.5,525.38v40.98"/>
      <path class="cls-8" d="M577.5,566.86v.51M573.5,524.35v.51"/>
      <path class="cls-8" d="M573.5,525.38v40.98"/>
      <path class="cls-8" d="M573.5,566.86v.51M569.72,524.35v.51"/>
      <path class="cls-8" d="M569.72,525.38v40.98"/>
      <path class="cls-8" d="M569.72,566.86v.51M565.72,524.35v.51"/>
      <path class="cls-8" d="M565.72,525.38v40.98"/>
      <path class="cls-8" d="M565.72,566.86v.51M561.72,524.35v.51"/>
      <path class="cls-8" d="M561.72,525.38v40.98"/>
      <path class="cls-8" d="M561.72,566.86v.51M557.72,524.35v.51"/>
      <path class="cls-8" d="M557.72,525.38v40.98"/>
      <path class="cls-8" d="M557.72,566.86v.51M527.72,524.35v.51"/>
      <path class="cls-8" d="M527.72,525.38v40.98"/>
      <path class="cls-8" d="M527.72,566.86v.51M523.72,524.35v.51"/>
      <path class="cls-8" d="M523.72,525.38v40.98"/>
      <path class="cls-8" d="M523.72,566.86v.51M519.72,524.35v.51"/>
      <path class="cls-8" d="M519.72,525.38v40.98"/>
      <path class="cls-8" d="M519.72,566.86v.51M515.72,524.35v.51"/>
      <path class="cls-8" d="M515.72,525.38v40.98"/>
      <path class="cls-8" d="M515.72,566.86v.51M511.72,524.35v.51"/>
      <path class="cls-8" d="M511.72,525.38v40.98"/>
      <path class="cls-8" d="M511.72,566.86v.51M507.72,524.35v.51"/>
      <path class="cls-8" d="M507.72,525.38v40.98"/>
      <path class="cls-8" d="M507.72,566.86v.51M503.72,524.35v.51"/>
      <path class="cls-8" d="M503.72,525.38v40.98"/>
      <path class="cls-8" d="M503.72,566.86v.51M499.71,524.35v.51"/>
      <path class="cls-8" d="M499.71,525.38v40.98"/>
      <path class="cls-8" d="M499.71,566.86v.51M495.94,524.35v.51"/>
      <path class="cls-8" d="M495.94,525.38v40.98"/>
      <path class="cls-8" d="M495.94,566.86v.51M491.94,524.35v.51"/>
      <path class="cls-8" d="M491.94,525.38v40.98"/>
      <path class="cls-8" d="M491.94,566.86v.51M487.95,524.35v.51"/>
      <path class="cls-8" d="M487.95,525.38v40.98"/>
      <path class="cls-8" d="M487.95,566.86v.51M483.95,524.35v.51"/>
      <path class="cls-8" d="M483.95,525.38v40.98"/>
      <path class="cls-8" d="M483.95,566.86v.51M479.95,524.35v.51"/>
      <path class="cls-8" d="M479.95,525.38v40.98"/>
      <path class="cls-8" d="M479.95,566.86v.51M475.95,524.35v.51"/>
      <path class="cls-8" d="M475.95,525.38v40.98"/>
      <path class="cls-8" d="M475.95,566.86v.51"/>
      <path class="cls-8" d="M617.27,566.86v-.51h-153.31v.51"/>
      <path class="cls-8" d="M617.27,566.86h-153.31"/>
      <path class="cls-8" d="M617.27,525.38v-.51h-153.31v.51"/>
      <path class="cls-8" d="M617.27,525.38h-153.31"/>
      <path class="cls-8" d="M467.06,548.31l-3.11-2.53,3.11-2.37"/>
      <path class="cls-8" d="M467.06,548.31l.66-.68M467.06,543.42l.66.68"/>
      <path class="cls-8" d="M467.72,547.63l-2.23-1.86,2.23-1.69"/>
      <path class="cls-8" d="M471.95,524.35v.51"/>
      <path class="cls-8" d="M471.95,525.38v40.98"/>
      <path class="cls-8" d="M471.95,566.86v.51M471.95,524.35v.51"/>
      <path class="cls-8" d="M471.95,525.38v40.98"/>
      <path class="cls-8" d="M471.95,566.86v.51M467.95,524.35v.51"/>
      <path class="cls-8" d="M467.95,525.38v40.98"/>
      <path class="cls-8" d="M467.95,566.86v.51M467.95,524.35v.51"/>
      <path class="cls-8" d="M467.95,525.38v40.98"/>
      <path class="cls-8" d="M467.95,566.86v.51M463.94,524.35v.51"/>
      <path class="cls-8" d="M463.94,525.38v40.98"/>
      <path class="cls-8" d="M463.94,566.86v.51M463.94,524.35v.51"/>
      <path class="cls-8" d="M463.94,525.38v40.98"/>
      <path class="cls-8" d="M463.94,566.86v.51M467.95,567.37h4M467.95,524.35h4M463.94,567.37h4M463.94,524.35h4M609.49,524.35v.51"/>
      <path class="cls-8" d="M609.49,525.38v40.98"/>
      <path class="cls-8" d="M609.49,566.86v.51M609.49,524.35v.51"/>
      <path class="cls-8" d="M609.49,525.38v40.98"/>
      <path class="cls-8" d="M609.49,524.35h4v.51"/>
      <path class="cls-8" d="M613.49,525.38v40.98"/>
      <path class="cls-8" d="M613.49,566.86v.51M613.49,524.35v.51"/>
      <path class="cls-8" d="M613.49,525.38v40.98"/>
      <path class="cls-8" d="M613.49,566.86v.51h3.78"/>
      <path class="cls-8" d="M463.94,525.2v-.17"/>
      <path class="cls-8" d="M463.94,525.2h-.23"/>
      <path class="cls-8" d="M463.94,566.52v.17"/>
      <path class="cls-8" d="M463.94,566.52h-.23"/>
    </g>
    <rect class="cls-3" x="344.27" y="524.29" width="90.43" height="36.63"/>
    <g>
      <path class="cls-2" d="M432.99,559.94v.41M396.46,525.44v.41"/>
      <path class="cls-2" d="M396.46,526.27v33.26"/>
      <path class="cls-2" d="M396.46,559.94v.41M383.82,525.44v.41"/>
      <path class="cls-2" d="M383.82,526.27v33.26"/>
      <path class="cls-2" d="M383.82,559.94v.41"/>
      <path class="cls-2" d="M428.52,560.35h-32.07"/>
      <path class="cls-2" d="M426.22,525.44h2.3M432.99,525.44h-.13"/>
      <path class="cls-2" d="M423.92,525.44h-27.47"/>
      <path class="cls-2" d="M383.82,560.35h-34.37"/>
      <path class="cls-2" d="M383.82,525.44h-34.37"/>
      <path class="cls-2" d="M426.22,525.44v.41"/>
      <path class="cls-2" d="M426.22,526.27v33.26"/>
      <path class="cls-2" d="M426.22,559.94v.41M423.92,525.44v.41"/>
      <path class="cls-2" d="M423.92,526.27v33.26"/>
      <path class="cls-2" d="M423.92,559.94v.41M421.62,525.44v.41"/>
      <path class="cls-2" d="M421.62,526.27v33.26"/>
      <path class="cls-2" d="M421.62,559.94v.41M419.32,525.44v.41"/>
      <path class="cls-2" d="M419.32,526.27v33.26"/>
      <path class="cls-2" d="M419.32,559.94v.41M417.02,525.44v.41"/>
      <path class="cls-2" d="M417.02,526.27v33.26"/>
      <path class="cls-2" d="M417.02,559.94v.41M414.72,525.44v.41"/>
      <path class="cls-2" d="M414.72,526.27v33.26"/>
      <path class="cls-2" d="M414.72,559.94v.41M412.42,525.44v.41"/>
      <path class="cls-2" d="M412.42,526.27v33.26"/>
      <path class="cls-2" d="M412.42,559.94v.41M410.13,525.44v.41"/>
      <path class="cls-2" d="M410.13,526.27v33.26"/>
      <path class="cls-2" d="M410.13,559.94v.41M407.83,525.44v.41"/>
      <path class="cls-2" d="M407.83,526.27v33.26"/>
      <path class="cls-2" d="M407.83,559.94v.41M405.66,525.44v.41"/>
      <path class="cls-2" d="M405.66,526.27v33.26"/>
      <path class="cls-2" d="M405.66,559.94v.41M403.36,525.44v.41"/>
      <path class="cls-2" d="M403.36,526.27v33.26"/>
      <path class="cls-2" d="M403.36,559.94v.41M401.06,525.44v.41"/>
      <path class="cls-2" d="M401.06,526.27v33.26"/>
      <path class="cls-2" d="M401.06,559.94v.41M398.76,525.44v.41"/>
      <path class="cls-2" d="M398.76,526.27v33.26"/>
      <path class="cls-2" d="M398.76,559.94v.41M396.46,525.44v.41"/>
      <path class="cls-2" d="M396.46,526.27v33.26"/>
      <path class="cls-2" d="M396.46,559.94v.41M383.82,525.44v.41"/>
      <path class="cls-2" d="M383.82,526.27v33.26"/>
      <path class="cls-2" d="M383.82,559.94v.41M381.52,525.44v.41"/>
      <path class="cls-2" d="M381.52,526.27v33.26"/>
      <path class="cls-2" d="M381.52,559.94v.41M379.22,525.44v.41"/>
      <path class="cls-2" d="M379.22,526.27v33.26"/>
      <path class="cls-2" d="M379.22,559.94v.41M376.92,525.44v.41"/>
      <path class="cls-2" d="M376.92,526.27v33.26"/>
      <path class="cls-2" d="M376.92,559.94v.41M374.62,525.44v.41"/>
      <path class="cls-2" d="M374.62,526.27v33.26"/>
      <path class="cls-2" d="M374.62,559.94v.41M372.32,525.44v.41"/>
      <path class="cls-2" d="M372.32,526.27v33.26"/>
      <path class="cls-2" d="M372.32,559.94v.41M370.02,525.44v.41"/>
      <path class="cls-2" d="M370.02,526.27v33.26"/>
      <path class="cls-2" d="M370.02,559.94v.41M367.72,525.44v.41"/>
      <path class="cls-2" d="M367.72,526.27v33.26"/>
      <path class="cls-2" d="M367.72,559.94v.41M365.42,525.44v.41"/>
      <path class="cls-2" d="M365.42,526.27v33.26"/>
      <path class="cls-2" d="M365.42,559.94v.41M363.25,525.44v.41"/>
      <path class="cls-2" d="M363.25,526.27v33.26"/>
      <path class="cls-2" d="M363.25,559.94v.41M360.95,525.44v.41"/>
      <path class="cls-2" d="M360.95,526.27v33.26"/>
      <path class="cls-2" d="M360.95,559.94v.41M358.66,525.44v.41"/>
      <path class="cls-2" d="M358.66,526.27v33.26"/>
      <path class="cls-2" d="M358.66,559.94v.41M356.36,525.44v.41"/>
      <path class="cls-2" d="M356.36,526.27v33.26"/>
      <path class="cls-2" d="M356.36,559.94v.41M354.06,525.44v.41"/>
      <path class="cls-2" d="M354.06,526.27v33.26"/>
      <path class="cls-2" d="M354.06,559.94v.41M351.76,525.44v.41"/>
      <path class="cls-2" d="M351.76,526.27v33.26"/>
      <path class="cls-2" d="M351.76,559.94v.41M426.22,525.44v.41"/>
      <path class="cls-2" d="M426.22,526.27v33.26"/>
      <path class="cls-2" d="M426.22,559.94v.41M423.92,525.44v.41"/>
      <path class="cls-2" d="M423.92,526.27v33.26"/>
      <path class="cls-2" d="M423.92,559.94v.41M421.62,525.44v.41"/>
      <path class="cls-2" d="M421.62,526.27v33.26"/>
      <path class="cls-2" d="M421.62,559.94v.41M419.32,525.44v.41"/>
      <path class="cls-2" d="M419.32,526.27v33.26"/>
      <path class="cls-2" d="M419.32,559.94v.41M417.02,525.44v.41"/>
      <path class="cls-2" d="M417.02,526.27v33.26"/>
      <path class="cls-2" d="M417.02,559.94v.41M414.72,525.44v.41"/>
      <path class="cls-2" d="M414.72,526.27v33.26"/>
      <path class="cls-2" d="M414.72,559.94v.41M412.42,525.44v.41"/>
      <path class="cls-2" d="M412.42,526.27v33.26"/>
      <path class="cls-2" d="M412.42,559.94v.41M410.13,525.44v.41"/>
      <path class="cls-2" d="M410.13,526.27v33.26"/>
      <path class="cls-2" d="M410.13,559.94v.41M407.83,525.44v.41"/>
      <path class="cls-2" d="M407.83,526.27v33.26"/>
      <path class="cls-2" d="M407.83,559.94v.41M405.66,525.44v.41"/>
      <path class="cls-2" d="M405.66,526.27v33.26"/>
      <path class="cls-2" d="M405.66,559.94v.41M403.36,525.44v.41"/>
      <path class="cls-2" d="M403.36,526.27v33.26"/>
      <path class="cls-2" d="M403.36,559.94v.41M401.06,525.44v.41"/>
      <path class="cls-2" d="M401.06,526.27v33.26"/>
      <path class="cls-2" d="M401.06,559.94v.41M398.76,525.44v.41"/>
      <path class="cls-2" d="M398.76,526.27v33.26"/>
      <path class="cls-2" d="M398.76,559.94v.41M381.52,525.44v.41"/>
      <path class="cls-2" d="M381.52,526.27v33.26"/>
      <path class="cls-2" d="M381.52,559.94v.41M379.22,525.44v.41"/>
      <path class="cls-2" d="M379.22,526.27v33.26"/>
      <path class="cls-2" d="M379.22,559.94v.41M376.92,525.44v.41"/>
      <path class="cls-2" d="M376.92,526.27v33.26"/>
      <path class="cls-2" d="M376.92,559.94v.41M374.62,525.44v.41"/>
      <path class="cls-2" d="M374.62,526.27v33.26"/>
      <path class="cls-2" d="M374.62,559.94v.41M372.32,525.44v.41"/>
      <path class="cls-2" d="M372.32,526.27v33.26"/>
      <path class="cls-2" d="M372.32,559.94v.41M370.02,525.44v.41"/>
      <path class="cls-2" d="M370.02,526.27v33.26"/>
      <path class="cls-2" d="M370.02,559.94v.41M367.72,525.44v.41"/>
      <path class="cls-2" d="M367.72,526.27v33.26"/>
      <path class="cls-2" d="M367.72,559.94v.41M365.42,525.44v.41"/>
      <path class="cls-2" d="M365.42,526.27v33.26"/>
      <path class="cls-2" d="M365.42,559.94v.41M363.25,525.44v.41"/>
      <path class="cls-2" d="M363.25,526.27v33.26"/>
      <path class="cls-2" d="M363.25,559.94v.41M360.95,525.44v.41"/>
      <path class="cls-2" d="M360.95,526.27v33.26"/>
      <path class="cls-2" d="M360.95,559.94v.41M358.66,525.44v.41"/>
      <path class="cls-2" d="M358.66,526.27v33.26"/>
      <path class="cls-2" d="M358.66,559.94v.41M356.36,525.44v.41"/>
      <path class="cls-2" d="M356.36,526.27v33.26"/>
      <path class="cls-2" d="M356.36,559.94v.41M354.06,525.44v.41"/>
      <path class="cls-2" d="M354.06,526.27v33.26"/>
      <path class="cls-2" d="M354.06,559.94v.41M351.76,525.44v.41"/>
      <path class="cls-2" d="M351.76,526.27v33.26"/>
      <path class="cls-2" d="M351.76,559.94v.41"/>
      <path class="cls-2" d="M432.99,559.94v-.41h-88.12v.41"/>
      <path class="cls-2" d="M432.99,559.94h-88.12"/>
      <path class="cls-2" d="M432.99,526.27v-.41h-88.12v.41"/>
      <path class="cls-2" d="M432.99,526.27h-88.12"/>
      <path class="cls-2" d="M346.65,544.88l-1.79-2.05,1.79-1.92"/>
      <path class="cls-2" d="M346.65,544.88l.38-.55M346.65,540.91l.38.55"/>
      <path class="cls-2" d="M347.03,544.33l-1.28-1.51,1.28-1.37"/>
      <path class="cls-2" d="M349.46,525.44v.41"/>
      <path class="cls-2" d="M349.46,526.27v33.26"/>
      <path class="cls-2" d="M349.46,559.94v.41M349.46,525.44v.41"/>
      <path class="cls-2" d="M349.46,526.27v33.26"/>
      <path class="cls-2" d="M349.46,559.94v.41M347.16,525.44v.41"/>
      <path class="cls-2" d="M347.16,526.27v33.26"/>
      <path class="cls-2" d="M347.16,559.94v.41M347.16,525.44v.41"/>
      <path class="cls-2" d="M347.16,526.27v33.26"/>
      <path class="cls-2" d="M347.16,559.94v.41M344.86,525.44v.41"/>
      <path class="cls-2" d="M344.86,526.27v33.26"/>
      <path class="cls-2" d="M344.86,559.94v.41M344.86,525.44v.41"/>
      <path class="cls-2" d="M344.86,526.27v33.26"/>
      <path class="cls-2" d="M344.86,559.94v.41M347.16,560.35h2.3M347.16,525.44h2.3M344.86,560.35h2.3M344.86,525.44h2.3M428.52,525.44v.41"/>
      <path class="cls-2" d="M428.52,526.27v33.26"/>
      <path class="cls-2" d="M428.52,559.94v.41M428.52,525.44v.41"/>
      <path class="cls-2" d="M428.52,526.27v33.26"/>
      <path class="cls-2" d="M428.52,525.44h2.3v.41"/>
      <path class="cls-2" d="M430.82,526.27v33.26"/>
      <path class="cls-2" d="M430.82,559.94v.41M430.82,525.44v.41"/>
      <path class="cls-2" d="M430.82,526.27v33.26"/>
      <path class="cls-2" d="M430.82,559.94v.41h2.17"/>
      <path class="cls-2" d="M344.86,526.13v-.14"/>
      <path class="cls-2" d="M344.86,526.13h-.13"/>
      <path class="cls-2" d="M344.86,559.66v.14"/>
      <path class="cls-2" d="M344.86,559.66h-.13"/>
    </g>
  </g>
</svg>