<?xml version="1.0" encoding="UTF-8"?><svg xmlns="http://www.w3.org/2000/svg" viewBox="0 0 1800 1400"><defs><style>.cls-1{font-size:18px;}.cls-1,.cls-2,.cls-3{fill:#434142;font-family:NanumSquareNeovariable-Heavy, 'NanumSquare Neo variable';font-variation-settings:'wght' 900;font-weight:800;}.cls-4{stroke-width:2.02px;}.cls-4,.cls-5{fill:#f5cbcc;}.cls-4,.cls-5,.cls-6,.cls-7,.cls-8,.cls-9,.cls-10{stroke:#d88282;stroke-miterlimit:10;}.cls-5,.cls-7{stroke-width:2px;}.cls-2{font-size:22px;}.cls-6{stroke-width:2.01px;}.cls-6,.cls-7,.cls-8{fill:none;}.cls-8{stroke-width:2.04px;}.cls-9{stroke-width:3px;}.cls-9,.cls-10{fill:#fdf2f2;}.cls-3{font-size:16px;}.cls-10{stroke-width:3.07px;}</style></defs><g id="Layer_border"><rect class="cls-9" x="647.34" y="892.15" width="55.22" height="26.95"/><rect class="cls-9" x="223.54" y="892.15" width="55.18" height="26.67"/><rect class="cls-10" x="168.07" y="892.15" width="13.03" height="270.69"/><rect class="cls-9" x="217.24" y="1146.99" width="57.42" height="26.49"/><rect class="cls-9" x="279.83" y="1146.99" width="57.42" height="26.49"/><rect class="cls-9" x="588.38" y="1146.99" width="57.42" height="26.49"/><rect class="cls-9" x="650.97" y="1146.99" width="57.42" height="26.49"/><rect class="cls-9" x="337.25" y="1146.99" width="251.13" height="75.84"/><polygon class="cls-9" points="1189.12 981.94 1189.12 918.64 717.9 918.64 717.9 918.82 602.29 918.82 602.29 312.04 643.15 312.04 643.15 254.89 602.29 254.89 580.34 254.89 487.84 254.89 487.84 199.26 436.84 199.26 436.84 254.89 304.68 254.89 304.68 918.82 168.35 918.82 168.35 1146.99 717.9 1146.99 737.87 1146.99 1189.12 1146.99 1189.12 1046.26 1246.71 1046.26 1246.71 981.94 1189.12 981.94"/><polygon class="cls-9" points="1245.11 1152.23 1245.11 1223.58 1111.45 1223.58 1111.45 1227.18 1245.11 1227.18 1265.51 1227.18 1265.51 1223.58 1265.51 1152.23 1245.11 1152.23"/><rect class="cls-9" x="1245.11" y="902.38" width="386.82" height="258.05"/><rect class="cls-9" x="1245.11" y="1006.18" width="40.8" height="26.5"/><polyline class="cls-9" points="1285.91 1006.18 1488.91 1006.18 1488.91 902.38 1514.52 902.38 1514.52 1160.44 1488.91 1160.44 1488.91 1041.7 1371.09 1041.7 1371.09 1032.61 1285.91 1032.61"/></g><g id="Layer_others"><line class="cls-8" x1="1132.09" y1="1008.8" x2="1159.57" y2="1008.8"/><line class="cls-8" x1="1132.09" y1="1004.43" x2="1159.57" y2="1004.43"/><line class="cls-8" x1="1130.88" y1="1000.06" x2="1159.57" y2="1000.06"/><line class="cls-8" x1="1132.09" y1="995.69" x2="1159.57" y2="995.69"/><line class="cls-8" x1="1132.09" y1="991.32" x2="1159.57" y2="991.32"/><line class="cls-8" x1="1130.88" y1="986.96" x2="1159.57" y2="986.96"/><line class="cls-8" x1="1159.57" y1="982.59" x2="1139.56" y2="982.59"/><line class="cls-8" x1="1159.57" y1="978.22" x2="1143.98" y2="978.22"/><line class="cls-8" x1="1159.57" y1="973.85" x2="1147.55" y2="973.85"/><rect class="cls-8" x="1131.73" y="919.1" width="57.39" height="125.55"/><rect class="cls-8" x="1114.28" y="1026.59" width="17.46" height="18.06"/><rect class="cls-8" x="1051.69" y="1026.59" width="33.89" height="18.06"/><rect class="cls-8" x="992.02" y="1026.59" width="32.96" height="18.06"/><rect class="cls-8" x="932.68" y="1026.59" width="29.21" height="18.06"/><rect class="cls-8" x="872.08" y="1026.59" width="34.06" height="18.06"/><rect class="cls-8" x="522.12" y="939.28" width="31.38" height="31.38"/><rect class="cls-8" x="522.12" y="970.66" width="44.95" height="40.48"/><line class="cls-8" x1="406.74" y1="1011.14" x2="522.12" y2="1011.14"/><line class="cls-8" x1="582.32" y1="919.1" x2="582.32" y2="1011.14"/><line class="cls-8" x1="522.12" y1="918.5" x2="522.12" y2="941.37"/><line class="cls-8" x1="567.07" y1="983.58" x2="582.32" y2="983.58"/><line class="cls-8" x1="437.65" y1="946.33" x2="437.65" y2="1011.14"/><line class="cls-8" x1="489.2" y1="946.33" x2="489.2" y2="1011.14"/><line class="cls-8" x1="437.65" y1="953.38" x2="489.2" y2="953.38"/><line class="cls-8" x1="437.65" y1="959.2" x2="489.2" y2="959.2"/><line class="cls-8" x1="437.65" y1="965.03" x2="489.2" y2="965.03"/><line class="cls-8" x1="437.65" y1="970.86" x2="489.2" y2="970.86"/><line class="cls-8" x1="437.65" y1="976.68" x2="489.2" y2="976.68"/><line class="cls-8" x1="437.65" y1="982.51" x2="489.2" y2="982.51"/><line class="cls-8" x1="437.65" y1="988.34" x2="489.2" y2="988.34"/><line class="cls-8" x1="437.65" y1="994.16" x2="489.2" y2="994.16"/><line class="cls-8" x1="437.65" y1="999.99" x2="489.2" y2="999.99"/><line class="cls-8" x1="437.65" y1="1005.82" x2="489.2" y2="1005.82"/><line class="cls-8" x1="405.05" y1="953.38" x2="456.6" y2="953.38"/><line class="cls-8" x1="405.05" y1="959.2" x2="456.6" y2="959.2"/><line class="cls-8" x1="405.05" y1="965.03" x2="456.6" y2="965.03"/><line class="cls-8" x1="405.05" y1="970.86" x2="456.6" y2="970.86"/><line class="cls-8" x1="405.05" y1="976.68" x2="456.6" y2="976.68"/><line class="cls-8" x1="599.61" y1="1044.95" x2="599.61" y2="1081.37"/><rect class="cls-8" x="408.15" y="1099.23" width="108.96" height="47.76"/><rect class="cls-8" x="436.56" y="167.48" width="52.23" height="29.94"/><line class="cls-8" x1="436.56" y1="204.12" x2="488.79" y2="204.12"/><line class="cls-8" x1="436.56" y1="209.79" x2="488.79" y2="209.79"/><line class="cls-8" x1="436.56" y1="215.46" x2="488.79" y2="215.46"/><line class="cls-8" x1="436.56" y1="221.13" x2="488.79" y2="221.13"/><line class="cls-7" x1="531.55" y1="254.89" x2="531.55" y2="312.05"/><line class="cls-7" x1="525.88" y1="254.89" x2="525.88" y2="312.05"/><line class="cls-7" x1="520.21" y1="254.89" x2="520.21" y2="312.05"/><line class="cls-7" x1="514.54" y1="254.89" x2="514.54" y2="312.05"/><line class="cls-7" x1="554.23" y1="254.89" x2="554.23" y2="312.05"/><line class="cls-7" x1="548.56" y1="254.89" x2="548.56" y2="312.05"/><line class="cls-7" x1="542.89" y1="254.89" x2="542.89" y2="312.05"/><line class="cls-7" x1="537.22" y1="254.89" x2="537.22" y2="312.05"/><line class="cls-7" x1="513.3" y1="282.54" x2="554.23" y2="282.54"/><line class="cls-7" x1="626.87" y1="256.53" x2="626.87" y2="288.01"/><line class="cls-7" x1="626.87" y1="261.94" x2="643.52" y2="261.94"/><line class="cls-7" x1="627.87" y1="267.11" x2="643.52" y2="267.11"/><line class="cls-7" x1="627.31" y1="272.27" x2="643.52" y2="272.27"/></g><g id="Layer_toilet1"><rect class="cls-8" x="582.32" y="919.1" width="60.54" height="125.85"/></g><g id="Layer_toilet2"><rect class="cls-8" x="642.86" y="919.1" width="59.7" height="125.85" transform="translate(1345.43 1964.05) rotate(180)"/></g><g id="Layer_101"><rect class="cls-5" x="168.35" y="1044.65" width="113.47" height="102.34"/><text class="cls-2" transform="translate(205.57 1103.17)"><tspan x="0" y="0">101</tspan></text></g><g id="Layer_102A"><rect class="cls-5" x="281.82" y="1078.9" width="55.43" height="68.09" transform="translate(619.06 2225.89) rotate(180)"/><text class="cls-3" transform="translate(287.48 1119.36)"><tspan x="0" y="0">102A</tspan></text></g><g id="Layer_102"><rect class="cls-5" x="337.25" y="1078.9" width="38.1" height="68.09"/><text class="cls-3" transform="translate(340.62 1119.36)"><tspan x="0" y="0">102</tspan></text></g><g id="Layer_121"><rect class="cls-5" x="168.35" y="918.82" width="172.6" height="126.13"/><text class="cls-2" transform="translate(232.98 988.74)"><tspan x="0" y="0">121</tspan></text></g><g id="Layer_120"><rect class="cls-5" x="340.94" y="918.82" width="63.79" height="80.76"/><text class="cls-2" transform="translate(351.29 966.56)"><tspan x="0" y="0">120</tspan></text><rect class="cls-6" x="340.94" y="999.58" width="63.79" height="45.37"/></g><g id="Layer_L201"><rect class="cls-7" x="306.58" y="731.85" width="139.94" height="186.97"/><path class="cls-4" d="m446.51,731.85c-46.65.24-93.29.48-139.94.71v170.45h69.12v-59.8h70.82v-111.37Z"/><text class="cls-2" transform="translate(348.58 786.77)"><tspan x="0" y="0">L201</tspan></text></g><g id="Layer_L202B"><rect class="cls-4" x="306.58" y="673.13" width="139.94" height="58.72"/><text class="cls-2" transform="translate(338.18 709.28)"><tspan x="0" y="0">L202B</tspan></text></g><g id="Layer_L202A"><rect class="cls-4" x="306.58" y="554.23" width="139.94" height="118.89"/><text class="cls-2" transform="translate(337.77 619.02)"><tspan x="0" y="0">L202A</tspan></text></g><g id="Layer_L203"><rect class="cls-4" x="306.58" y="430.63" width="139.94" height="123.61"/><text class="cls-2" transform="translate(346.29 501.26)"><tspan x="0" y="0">L203</tspan></text></g><g id="Layer_L204"><rect class="cls-4" x="306.58" y="310.63" width="139.94" height="120"/><text class="cls-2" transform="translate(346.36 378.93)"><tspan x="0" y="0">L204</tspan></text></g><g id="Layer_L205"><rect class="cls-5" x="306.58" y="254.89" width="139.94" height="55.74"/><text class="cls-2" transform="translate(346.55 290.26)"><tspan x="0" y="0">L205</tspan></text></g><g id="Layer_L206"><rect class="cls-5" x="483" y="312.05" width="119.29" height="121.8"/><text class="cls-2" transform="translate(512.13 378.93)"><tspan x="0" y="0">L206</tspan></text></g><g id="Layer_L207A"><rect class="cls-5" x="516.71" y="433.85" width="85.58" height="37.51"/><text class="cls-1" transform="translate(528.16 458.46)"><tspan x="0" y="0">L207A</tspan></text></g><g id="Layer_L207B"><rect class="cls-5" x="516.75" y="470.63" width="85.58" height="42.46"/><text class="cls-1" transform="translate(528.54 496.66)"><tspan x="0" y="0">L207B</tspan></text></g><g id="Layer_L207C"><rect class="cls-5" x="516.75" y="511.74" width="85.58" height="42.46"/><text class="cls-1" transform="translate(528.54 537.76)"><tspan x="0" y="0">L207B</tspan></text></g><g id="Layer_L208"><rect class="cls-5" x="483" y="552.83" width="119.29" height="119.29"/><text class="cls-1" transform="translate(517.51 617.46)"><tspan x="0" y="0">L208</tspan></text></g><g id="Layer_L209"><rect class="cls-5" x="483" y="672.12" width="119.29" height="59.72"/><text class="cls-1" transform="translate(517.68 706.31)"><tspan x="0" y="0">L209</tspan></text></g><g id="Layer_L210"><rect class="cls-5" x="483" y="731.85" width="119.29" height="62.38"/><text class="cls-1" transform="translate(519.54 766.63)"><tspan x="0" y="0">L210</tspan></text></g><g id="Layer_L211"><rect class="cls-5" x="483" y="794.23" width="119.29" height="124.21"/><text class="cls-1" transform="translate(523 859.17)"><tspan x="0" y="0">L211</tspan></text></g><g id="Layer_L116"><rect class="cls-5" x="702.56" y="919.1" width="123.62" height="122.48"/><text class="cls-1" transform="translate(745.15 981.84)"><tspan x="0" y="0">L116</tspan></text></g><g id="Layer_L115"><rect class="cls-5" x="825.78" y="919.1" width="184.15" height="107.49"/><text class="cls-1" transform="translate(896.84 978.17)"><tspan x="0" y="0">L115</tspan></text></g><g id="Layer_L114"><rect class="cls-5" x="1009.93" y="919.1" width="121.8" height="107.49" transform="translate(2141.67 1945.69) rotate(180)"/><text class="cls-1" transform="translate(1051.21 978.17)"><tspan x="0" y="0">L114</tspan></text></g><g id="Layer_104"><rect class="cls-5" x="705.53" y="1081.16" width="60.4" height="65.01"/><text class="cls-1" transform="translate(718.22 1117.86)"><tspan x="0" y="0">104</tspan></text></g><g id="Layer_105"><rect class="cls-5" x="765.17" y="1081.16" width="60.4" height="65.01"/><text class="cls-1" transform="translate(778.02 1117.86)"><tspan x="0" y="0">105</tspan></text></g><g id="Layer_105A"><rect class="cls-5" x="826.12" y="1081.16" width="60.4" height="65.01"/><text class="cls-1" transform="translate(831.78 1117.86)"><tspan x="0" y="0">105A</tspan></text></g><g id="Layer_106"><rect class="cls-5" x="887.06" y="1081.16" width="60.4" height="65.01"/><text class="cls-1" transform="translate(899.71 1117.86)"><tspan x="0" y="0">106</tspan></text></g><g id="Layer_107"><rect class="cls-5" x="947.16" y="1080.92" width="60.4" height="65.01"/><text class="cls-1" transform="translate(960.62 1117.62)"><tspan x="0" y="0">107</tspan></text></g><g id="Layer_108"><rect class="cls-5" x="1007.75" y="1080.92" width="60.4" height="65.01"/><text class="cls-1" transform="translate(1020.23 1117.62)"><tspan x="0" y="0">108</tspan></text></g><g id="Layer_109"><rect class="cls-5" x="1068.15" y="1080.92" width="60.4" height="65.01"/><text class="cls-1" transform="translate(1080.8 1117.62)"><tspan x="0" y="0">109</tspan></text></g><g id="Layer_110"><rect class="cls-5" x="1129.1" y="1080.92" width="60.4" height="65.01"/><text class="cls-1" transform="translate(1143.61 1117.62)"><tspan x="0" y="0">110</tspan></text></g><g id="Layer_103"><rect class="cls-5" x="551.82" y="1081.37" width="153.71" height="64.8"/><text class="cls-1" transform="translate(612.26 1118.36)"><tspan x="0" y="0">103</tspan></text></g><g id="Layer_112"><rect class="cls-5" x="1189.12" y="984" width="55.98" height="60.65"/><text class="cls-1" transform="translate(1201.57 1018.63)"><tspan x="0" y="0">112</tspan></text></g></svg>