<?xml version="1.0" encoding="UTF-8"?><svg
  xmlns="http://www.w3.org/2000/svg"
  viewBox="0 0 1920 1080"
>
  <g id="Layer_border">
    <polygon
      points="285 901 285 694 202 694 202 550 140 550 140 417 285 417 285 131 1235 131 1235 413 965 413 965 574 1251 574 1251 633 1798 633 1798 746 1579 746 1579 901 285 901"
      fill="#fdf3f2"
    />
    <path
      d="m1230,136v272h-270v171h286v59h547v103h-219v155H290v-207h-83v-144h-62v-123h145V136h940m10-10H280v286h-145v143h62v144h83v207h1304v-155h219v-123h-547v-59h-286v-151h270V126h0Z"
      fill="#e18686"
    />
  </g>
  <g id="Layer_others">
    <rect
      x="1477.64"
      y="797.78"
      width="139.14"
      height="57.59"
      transform="translate(2373.78 -720.64) rotate(90)"
      fill="none"
      stroke="#e18686"
      stroke-miterlimit="10"
      stroke-width="3"
    />
    <line
      x1="1576"
      y1="769.2"
      x2="1518.41"
      y2="769.2"
      fill="none"
      stroke="#e18686"
      stroke-miterlimit="10"
      stroke-width="3"
    />
    <line
      x1="1576"
      y1="781"
      x2="1518.41"
      y2="781"
      fill="none"
      stroke="#e18686"
      stroke-miterlimit="10"
      stroke-width="3"
    />
    <line
      x1="1576"
      y1="792.8"
      x2="1518.41"
      y2="792.8"
      fill="none"
      stroke="#e18686"
      stroke-miterlimit="10"
      stroke-width="3"
    />
    <line
      x1="1576"
      y1="804.6"
      x2="1518.41"
      y2="804.6"
      fill="none"
      stroke="#e18686"
      stroke-miterlimit="10"
      stroke-width="3"
    />
    <line
      x1="1576"
      y1="816.41"
      x2="1518.41"
      y2="816.41"
      fill="none"
      stroke="#e18686"
      stroke-miterlimit="10"
      stroke-width="3"
    />
    <line
      x1="1576"
      y1="828.21"
      x2="1518.41"
      y2="828.21"
      fill="none"
      stroke="#e18686"
      stroke-miterlimit="10"
      stroke-width="3"
    />
    <line
      x1="1576"
      y1="840.01"
      x2="1518.41"
      y2="840.01"
      fill="none"
      stroke="#e18686"
      stroke-miterlimit="10"
      stroke-width="3"
    />
    <line
      x1="1576"
      y1="851.81"
      x2="1518.41"
      y2="851.81"
      fill="none"
      stroke="#e18686"
      stroke-miterlimit="10"
      stroke-width="3"
    />
    <line
      x1="1576"
      y1="863.62"
      x2="1518.41"
      y2="863.62"
      fill="none"
      stroke="#e18686"
      stroke-miterlimit="10"
      stroke-width="3"
    />
    <line
      x1="1576"
      y1="875.42"
      x2="1518.41"
      y2="875.42"
      fill="none"
      stroke="#e18686"
      stroke-miterlimit="10"
      stroke-width="3"
    />
    <line
      x1="1576"
      y1="887.22"
      x2="1518.41"
      y2="887.22"
      fill="none"
      stroke="#e18686"
      stroke-miterlimit="10"
      stroke-width="3"
    />
    <rect
      x="709.5"
      y="764.5"
      width="53"
      height="56"
      fill="none"
      stroke="#e18686"
      stroke-miterlimit="10"
      stroke-width="3"
    />
    <rect
      x="762.5"
      y="764.5"
      width="53"
      height="56"
      fill="none"
      stroke="#e18686"
      stroke-miterlimit="10"
      stroke-width="3"
    />
    <rect
      x="816"
      y="750.5"
      width="65"
      height="70"
      fill="none"
      stroke="#e18686"
      stroke-miterlimit="10"
      stroke-width="3"
    />
    <rect
      x="709.16"
      y="821"
      width="171.84"
      height="78.3"
      fill="none"
      stroke="#e18686"
      stroke-miterlimit="10"
      stroke-width="3"
    />
    <line
      x1="720.51"
      y1="821"
      x2="720.51"
      y2="899.3"
      fill="none"
      stroke="#e18686"
      stroke-miterlimit="10"
      stroke-width="3"
    />
    <line
      x1="735.8"
      y1="821"
      x2="735.8"
      y2="899.3"
      fill="none"
      stroke="#e18686"
      stroke-miterlimit="10"
      stroke-width="3"
    />
    <line
      x1="751.09"
      y1="821"
      x2="751.09"
      y2="899.3"
      fill="none"
      stroke="#e18686"
      stroke-miterlimit="10"
      stroke-width="3"
    />
    <line
      x1="766.37"
      y1="821"
      x2="766.37"
      y2="899.3"
      fill="none"
      stroke="#e18686"
      stroke-miterlimit="10"
      stroke-width="3"
    />
    <line
      x1="781.66"
      y1="821"
      x2="781.66"
      y2="899.3"
      fill="none"
      stroke="#e18686"
      stroke-miterlimit="10"
      stroke-width="3"
    />
    <line
      x1="796.95"
      y1="821"
      x2="796.95"
      y2="899.3"
      fill="none"
      stroke="#e18686"
      stroke-miterlimit="10"
      stroke-width="3"
    />
    <line
      x1="812.24"
      y1="821"
      x2="812.24"
      y2="899.3"
      fill="none"
      stroke="#e18686"
      stroke-miterlimit="10"
      stroke-width="3"
    />
    <line
      x1="827.52"
      y1="821"
      x2="827.52"
      y2="899.3"
      fill="none"
      stroke="#e18686"
      stroke-miterlimit="10"
      stroke-width="3"
    />
    <line
      x1="842.81"
      y1="821"
      x2="842.81"
      y2="899.3"
      fill="none"
      stroke="#e18686"
      stroke-miterlimit="10"
      stroke-width="3"
    />
    <rect
      x="143.42"
      y="420.74"
      width="145.58"
      height="125.26"
      transform="translate(432.42 966.74) rotate(180)"
      fill="none"
      stroke="#e18686"
      stroke-miterlimit="10"
      stroke-width="2.83"
    />
    <line
      x1="275.38"
      y1="546"
      x2="275.38"
      y2="420.74"
      fill="none"
      stroke="#e18686"
      stroke-miterlimit="10"
      stroke-width="2.83"
    />
    <line
      x1="260.27"
      y1="546"
      x2="260.27"
      y2="420.74"
      fill="none"
      stroke="#e18686"
      stroke-miterlimit="10"
      stroke-width="2.83"
    />
    <line
      x1="245.16"
      y1="546"
      x2="245.16"
      y2="420.74"
      fill="none"
      stroke="#e18686"
      stroke-miterlimit="10"
      stroke-width="2.83"
    />
    <line
      x1="230.05"
      y1="546"
      x2="230.05"
      y2="420.74"
      fill="none"
      stroke="#e18686"
      stroke-miterlimit="10"
      stroke-width="2.83"
    />
    <line
      x1="214.94"
      y1="546"
      x2="214.94"
      y2="420.74"
      fill="none"
      stroke="#e18686"
      stroke-miterlimit="10"
      stroke-width="2.83"
    />
    <line
      x1="199.83"
      y1="546"
      x2="199.83"
      y2="420.74"
      fill="none"
      stroke="#e18686"
      stroke-miterlimit="10"
      stroke-width="2.83"
    />
    <line
      x1="184.72"
      y1="546"
      x2="184.72"
      y2="420.74"
      fill="none"
      stroke="#e18686"
      stroke-miterlimit="10"
      stroke-width="2.83"
    />
    <rect
      x="566.35"
      y="436.32"
      width="213.7"
      height="38.68"
      fill="none"
      stroke="#e18686"
      stroke-miterlimit="10"
      stroke-width="3"
    />
    <line
      x1="580.48"
      y1="436.32"
      x2="580.48"
      y2="475"
      fill="none"
      stroke="#e18686"
      stroke-miterlimit="10"
      stroke-width="3"
    />
    <line
      x1="597.37"
      y1="436.32"
      x2="597.37"
      y2="475"
      fill="none"
      stroke="#e18686"
      stroke-miterlimit="10"
      stroke-width="3"
    />
    <polyline
      points="614.27 475 614.27 436.32 614.27 394.17 888.75 394.17 888.75 536.5 401.5 536.5 401.5 475 566.35 475"
      fill="none"
      stroke="#e18686"
      stroke-miterlimit="10"
      stroke-width="3"
    />
    <line
      x1="631.17"
      y1="436.32"
      x2="631.17"
      y2="475"
      fill="none"
      stroke="#e18686"
      stroke-miterlimit="10"
      stroke-width="3"
    />
    <line
      x1="648.07"
      y1="436.32"
      x2="648.07"
      y2="475"
      fill="none"
      stroke="#e18686"
      stroke-miterlimit="10"
      stroke-width="3"
    />
    <line
      x1="664.97"
      y1="436.32"
      x2="664.97"
      y2="475"
      fill="none"
      stroke="#e18686"
      stroke-miterlimit="10"
      stroke-width="3"
    />
    <line
      x1="681.87"
      y1="436.32"
      x2="681.87"
      y2="475"
      fill="none"
      stroke="#e18686"
      stroke-miterlimit="10"
      stroke-width="3"
    />
    <line
      x1="698.77"
      y1="436.32"
      x2="698.77"
      y2="475"
      fill="none"
      stroke="#e18686"
      stroke-miterlimit="10"
      stroke-width="3"
    />
    <line
      x1="715.67"
      y1="436.32"
      x2="715.67"
      y2="475"
      fill="none"
      stroke="#e18686"
      stroke-miterlimit="10"
      stroke-width="3"
    />
    <line
      x1="732.57"
      y1="436.32"
      x2="732.57"
      y2="475"
      fill="none"
      stroke="#e18686"
      stroke-miterlimit="10"
      stroke-width="3"
    />
    <line
      x1="749.47"
      y1="436.32"
      x2="749.47"
      y2="475"
      fill="none"
      stroke="#e18686"
      stroke-miterlimit="10"
      stroke-width="3"
    />
    <line
      x1="766.37"
      y1="436.32"
      x2="766.37"
      y2="475"
      fill="none"
      stroke="#e18686"
      stroke-miterlimit="10"
      stroke-width="3"
    />
    <rect
      x="690.54"
      y="206.28"
      width="199.69"
      height="56.76"
      transform="translate(555.72 1025.04) rotate(-90)"
      fill="none"
      stroke="#e18686"
      stroke-miterlimit="10"
      stroke-width="3"
    />
    <line
      x1="762"
      y1="289.72"
      x2="818.76"
      y2="289.72"
      fill="none"
      stroke="#e18686"
      stroke-miterlimit="10"
      stroke-width="3"
    />
    <line
      x1="762"
      y1="273.93"
      x2="818.76"
      y2="273.93"
      fill="none"
      stroke="#e18686"
      stroke-miterlimit="10"
      stroke-width="3"
    />
    <line
      x1="762"
      y1="258.14"
      x2="818.76"
      y2="258.14"
      fill="none"
      stroke="#e18686"
      stroke-miterlimit="10"
      stroke-width="3"
    />
    <line
      x1="762"
      y1="242.35"
      x2="818.76"
      y2="242.35"
      fill="none"
      stroke="#e18686"
      stroke-miterlimit="10"
      stroke-width="3"
    />
    <line
      x1="762"
      y1="226.56"
      x2="818.76"
      y2="226.56"
      fill="none"
      stroke="#e18686"
      stroke-miterlimit="10"
      stroke-width="3"
    />
    <line
      x1="762"
      y1="210.77"
      x2="818.76"
      y2="210.77"
      fill="none"
      stroke="#e18686"
      stroke-miterlimit="10"
      stroke-width="3"
    />
    <line
      x1="762"
      y1="194.98"
      x2="818.76"
      y2="194.98"
      fill="none"
      stroke="#e18686"
      stroke-miterlimit="10"
      stroke-width="3"
    />
    <line
      x1="762"
      y1="179.19"
      x2="818.76"
      y2="179.19"
      fill="none"
      stroke="#e18686"
      stroke-miterlimit="10"
      stroke-width="3"
    />
    <line
      x1="762"
      y1="163.4"
      x2="818.76"
      y2="163.4"
      fill="none"
      stroke="#e18686"
      stroke-miterlimit="10"
      stroke-width="3"
    />
    <line
      x1="762"
      y1="147.61"
      x2="818.76"
      y2="147.61"
      fill="none"
      stroke="#e18686"
      stroke-miterlimit="10"
      stroke-width="3"
    />
    <rect
      x="705.5"
      y="279.5"
      width="56"
      height="55"
      fill="none"
      stroke="#e18686"
      stroke-miterlimit="10"
      stroke-width="3"
    />
    <rect
      x="1624"
      y="637.11"
      width="169.15"
      height="105.89"
      fill="none"
      stroke="#e18686"
      stroke-miterlimit="10"
      stroke-width="3"
    />
    <line
      x1="1667.52"
      y1="637.11"
      x2="1667.52"
      y2="743"
      fill="none"
      stroke="#e18686"
      stroke-miterlimit="10"
      stroke-width="3"
    />
    <line
      x1="1681.87"
      y1="637.11"
      x2="1681.87"
      y2="743"
      fill="none"
      stroke="#e18686"
      stroke-miterlimit="10"
      stroke-width="3"
    />
    <line
      x1="1696.22"
      y1="637.11"
      x2="1696.22"
      y2="743"
      fill="none"
      stroke="#e18686"
      stroke-miterlimit="10"
      stroke-width="3"
    />
    <line
      x1="1710.57"
      y1="637.11"
      x2="1710.57"
      y2="743"
      fill="none"
      stroke="#e18686"
      stroke-miterlimit="10"
      stroke-width="3"
    />
    <line
      x1="1724.92"
      y1="637.11"
      x2="1724.92"
      y2="743"
      fill="none"
      stroke="#e18686"
      stroke-miterlimit="10"
      stroke-width="3"
    />
    <line
      x1="1739.26"
      y1="637.11"
      x2="1739.26"
      y2="743"
      fill="none"
      stroke="#e18686"
      stroke-miterlimit="10"
      stroke-width="3"
    />
    <line
      x1="1753.61"
      y1="637.11"
      x2="1753.61"
      y2="743"
      fill="none"
      stroke="#e18686"
      stroke-miterlimit="10"
      stroke-width="3"
    />
    <line
      x1="1767.96"
      y1="637.11"
      x2="1767.96"
      y2="743"
      fill="none"
      stroke="#e18686"
      stroke-miterlimit="10"
      stroke-width="3"
    />
    <line
      x1="1782.31"
      y1="637.11"
      x2="1782.31"
      y2="743"
      fill="none"
      stroke="#e18686"
      stroke-miterlimit="10"
      stroke-width="3"
    />
    <line
      x1="1518.5"
      y1="638"
      x2="1518.5"
      y2="733"
      fill="none"
      stroke="#e18686"
      stroke-miterlimit="10"
      stroke-width="3"
    />
    <rect
      x="289.5"
      y="387.5"
      width="247"
      height="33"
      fill="none"
      stroke="#e18686"
      stroke-miterlimit="10"
      stroke-width="3"
    />
    <rect
      x="353.5"
      y="661.5"
      width="242"
      height="20"
      fill="none"
      stroke="#e18686"
      stroke-miterlimit="10"
      stroke-width="3"
    />
    <rect
      x="566.11"
      y="563.86"
      width="213.7"
      height="50.16"
      fill="none"
      stroke="#e18686"
      stroke-miterlimit="10"
      stroke-width="3"
    />
    <line
      x1="580.23"
      y1="563.86"
      x2="580.23"
      y2="614.02"
      fill="none"
      stroke="#e18686"
      stroke-miterlimit="10"
      stroke-width="3"
    />
    <line
      x1="597.13"
      y1="563.86"
      x2="597.13"
      y2="614.02"
      fill="none"
      stroke="#e18686"
      stroke-miterlimit="10"
      stroke-width="3"
    />
    <line
      x1="614.03"
      y1="563.86"
      x2="614.03"
      y2="614.02"
      fill="none"
      stroke="#e18686"
      stroke-miterlimit="10"
      stroke-width="3"
    />
    <line
      x1="630.93"
      y1="563.86"
      x2="630.93"
      y2="614.02"
      fill="none"
      stroke="#e18686"
      stroke-miterlimit="10"
      stroke-width="3"
    />
    <line
      x1="647.83"
      y1="563.86"
      x2="647.83"
      y2="614.02"
      fill="none"
      stroke="#e18686"
      stroke-miterlimit="10"
      stroke-width="3"
    />
    <line
      x1="664.73"
      y1="563.86"
      x2="664.73"
      y2="614.02"
      fill="none"
      stroke="#e18686"
      stroke-miterlimit="10"
      stroke-width="3"
    />
    <line
      x1="681.63"
      y1="563.86"
      x2="681.63"
      y2="614.02"
      fill="none"
      stroke="#e18686"
      stroke-miterlimit="10"
      stroke-width="3"
    />
    <line
      x1="698.53"
      y1="563.86"
      x2="698.53"
      y2="614.02"
      fill="none"
      stroke="#e18686"
      stroke-miterlimit="10"
      stroke-width="3"
    />
    <line
      x1="715.43"
      y1="563.86"
      x2="715.43"
      y2="614.02"
      fill="none"
      stroke="#e18686"
      stroke-miterlimit="10"
      stroke-width="3"
    />
    <line
      x1="732.33"
      y1="563.86"
      x2="732.33"
      y2="614.02"
      fill="none"
      stroke="#e18686"
      stroke-miterlimit="10"
      stroke-width="3"
    />
    <line
      x1="749.23"
      y1="563.86"
      x2="749.23"
      y2="614.02"
      fill="none"
      stroke="#e18686"
      stroke-miterlimit="10"
      stroke-width="3"
    />
    <line
      x1="766.12"
      y1="563.86"
      x2="766.12"
      y2="614.02"
      fill="none"
      stroke="#e18686"
      stroke-miterlimit="10"
      stroke-width="3"
    />
    <rect
      x="894.92"
      y="905.29"
      width="55"
      height="68"
      fill="none"
      stroke="#e18686"
      stroke-miterlimit="10"
      stroke-width="3"
    />
    <line
      x1="894.92"
      y1="944.29"
      x2="949.92"
      y2="944.29"
      fill="none"
      stroke="#e18686"
      stroke-miterlimit="10"
      stroke-width="3"
    />
    <line
      x1="894.92"
      y1="953.29"
      x2="949.92"
      y2="953.29"
      fill="none"
      stroke="#e18686"
      stroke-miterlimit="10"
      stroke-width="3"
    />
    <line
      x1="894.92"
      y1="963.29"
      x2="949.92"
      y2="963.29"
      fill="none"
      stroke="#e18686"
      stroke-miterlimit="10"
      stroke-width="3"
    />
    <text
      transform="translate(862.94 940.51)"
      fill="#434142"
      font-family="NanumSquareNeovariable-Heavy, 'NanumSquare Neo variable'"
      font-size="22"
      font-variation-settings="'wght' 900"
      font-weight="800"
    >
      <tspan x="0" y="0">경영본관 5F</tspan>
    </text>
    <text
      transform="translate(1546.01 702.74)"
      fill="#434142"
      font-family="NanumSquareNeovariable-Heavy, 'NanumSquare Neo variable'"
      font-size="22"
      font-variation-settings="'wght' 900"
      font-weight="800"
    >
      <tspan x="0" y="0" letter-spacing="-.04em">L</tspan>
      <tspan x="12.5" y="0">G-P</tspan>
      <tspan x="55.7" y="0" letter-spacing="-.02em">O</tspan>
      <tspan x="73" y="0">SCO 경영관 6F</tspan>
    </text>
  </g>
  <g id="Layer_401">
    <rect
      x="1192"
      y="732.42"
      width="326.5"
      height="163.58"
      fill="#f8cdce"
      stroke="#e18686"
      stroke-miterlimit="10"
      stroke-width="3"
    />
    <text
      transform="translate(1332.93 824.7)"
      fill="#434142"
      font-family="NanumSquareNeovariable-Heavy, 'NanumSquare Neo variable'"
      font-size="22"
      font-variation-settings="'wght' 900"
      font-weight="800"
    >
      <tspan x="0" y="0">401</tspan>
    </text>
  </g>
  <g id="Layer_402">
    <rect
      x="630.5"
      y="750.5"
      width="78.55"
      height="146"
      fill="#f8cdce"
      stroke="#e18686"
      stroke-miterlimit="10"
      stroke-width="3"
    />
    <text
      transform="translate(646.44 831.72)"
      fill="#434142"
      font-family="NanumSquareNeovariable-Heavy, 'NanumSquare Neo variable'"
      font-size="22"
      font-variation-settings="'wght' 900"
      font-weight="800"
    >
      <tspan x="0" y="0">402</tspan>
    </text>
  </g>
  <g id="Layer_403">
    <rect
      x="289.5"
      y="681.5"
      width="341"
      height="215"
      transform="translate(920 1578) rotate(180)"
      fill="#f8cdce"
      stroke="#e18686"
      stroke-miterlimit="10"
      stroke-width="3"
    />
    <text
      transform="translate(436.35 798.14)"
      fill="#434142"
      font-family="NanumSquareNeovariable-Heavy, 'NanumSquare Neo variable'"
      font-size="22"
      font-variation-settings="'wght' 900"
      font-weight="800"
    >
      <tspan x="0" y="0">403</tspan>
    </text>
  </g>
  <g id="Layer_412">
    <rect
      x="969"
      y="135"
      width="261"
      height="273"
      fill="#f8cdce"
      stroke="#e18686"
      stroke-miterlimit="10"
      stroke-width="3"
    />
    <text
      transform="translate(1081.87 275.97)"
      fill="#434142"
      font-family="NanumSquareNeovariable-Heavy, 'NanumSquare Neo variable'"
      font-size="22"
      font-variation-settings="'wght' 900"
      font-weight="800"
    >
      <tspan x="0" y="0" letter-spacing="-.02em">4</tspan>
      <tspan x="15.31" y="0" letter-spacing="0em">12</tspan>
    </text>
  </g>
  <g id="Layer_404">
    <rect
      x="288.5"
      y="247.5"
      width="83"
      height="79"
      fill="#f8cdce"
      stroke="#e18686"
      stroke-miterlimit="10"
      stroke-width="3"
    />
    <text
      transform="translate(306.45 293.47)"
      fill="#434142"
      font-family="NanumSquareNeovariable-Heavy, 'NanumSquare Neo variable'"
      font-size="22"
      font-variation-settings="'wght' 900"
      font-weight="800"
    >
      <tspan x="0" y="0">404</tspan>
    </text>
  </g>
  <g id="Layer_405">
    <rect
      x="288.5"
      y="134.5"
      width="83"
      height="113"
      fill="#f8cdce"
      stroke="#e18686"
      stroke-miterlimit="10"
      stroke-width="3.59"
    />
    <text
      transform="translate(306.64 198.47)"
      fill="#434142"
      font-family="NanumSquareNeovariable-Heavy, 'NanumSquare Neo variable'"
      font-size="22"
      font-variation-settings="'wght' 900"
      font-weight="800"
    >
      <tspan x="0" y="0">405</tspan>
    </text>
  </g>
  <g id="Layer_406">
    <rect
      x="371.5"
      y="134.5"
      width="74.5"
      height="79.5"
      transform="translate(817.5 348.5) rotate(180)"
      fill="#f8cdce"
      stroke="#e18686"
      stroke-miterlimit="10"
      stroke-width="3"
    />
    <text
      transform="translate(384.4 182.47)"
      fill="#434142"
      font-family="NanumSquareNeovariable-Heavy, 'NanumSquare Neo variable'"
      font-size="22"
      font-variation-settings="'wght' 900"
      font-weight="800"
    >
      <tspan x="0" y="0">406</tspan>
    </text>
  </g>
  <g id="Layer_407">
    <rect
      x="445.5"
      y="134.5"
      width="66"
      height="113"
      transform="translate(957 382) rotate(180)"
      fill="#f8cdce"
      stroke="#e18686"
      stroke-miterlimit="10"
      stroke-width="3"
    />
    <text
      transform="translate(455.39 196.47)"
      fill="#434142"
      font-family="NanumSquareNeovariable-Heavy, 'NanumSquare Neo variable'"
      font-size="22"
      font-variation-settings="'wght' 900"
      font-weight="800"
    >
      <tspan x="0" y="0">407</tspan>
    </text>
  </g>
  <g id="Layer_408">
    <rect
      x="445.5"
      y="247.5"
      width="66"
      height="79"
      transform="translate(957 574) rotate(180)"
      fill="#f8cdce"
      stroke="#e18686"
      stroke-miterlimit="10"
      stroke-width="3"
    />
    <text
      transform="translate(454.19 292.47)"
      fill="#434142"
      font-family="NanumSquareNeovariable-Heavy, 'NanumSquare Neo variable'"
      font-size="22"
      font-variation-settings="'wght' 900"
      font-weight="800"
    >
      <tspan x="0" y="0">408</tspan>
    </text>
  </g>
  <g id="Layer_409">
    <rect
      x="511.5"
      y="134.5"
      width="49"
      height="192"
      fill="#f8cdce"
      stroke="#e18686"
      stroke-miterlimit="10"
      stroke-width="3"
    />
    <text
      transform="translate(516.77 236.47)"
      fill="#434142"
      font-family="NanumSquareNeovariable-Heavy, 'NanumSquare Neo variable'"
      font-size="18"
      font-variation-settings="'wght' 900"
      font-weight="800"
    >
      <tspan x="0" y="0">409</tspan>
    </text>
  </g>
  <g id="Layer_411">
    <rect
      x="818.5"
      y="134.5"
      width="65"
      height="96"
      fill="#f8cdce"
      stroke="#e18686"
      stroke-miterlimit="10"
      stroke-width="3"
    />
    <text
      transform="translate(831.58 190.56)"
      fill="#434142"
      font-family="NanumSquareNeovariable-Heavy, 'NanumSquare Neo variable'"
      font-size="22"
      font-variation-settings="'wght' 900"
      font-weight="800"
    >
      <tspan x="0" y="0" letter-spacing="-.02em">4</tspan>
      <tspan x="15.31" y="0" letter-spacing="0em">11</tspan>
    </text>
  </g>
  <g id="Layer_410">
    <rect
      x="818.5"
      y="230.5"
      width="65"
      height="85"
      fill="#f8cdce"
      stroke="#e18686"
      stroke-miterlimit="10"
      stroke-width="3"
    />
    <text
      transform="translate(829.03 276.56)"
      fill="#434142"
      font-family="NanumSquareNeovariable-Heavy, 'NanumSquare Neo variable'"
      font-size="22"
      font-variation-settings="'wght' 900"
      font-weight="800"
    >
      <tspan x="0" y="0" letter-spacing="-.02em">4</tspan>
      <tspan x="15.31" y="0" letter-spacing="0em">10</tspan>
    </text>
  </g>
  <g id="Layer_toilet1">
    <polygon
      points="560.5 134.5 560.5 268.5 560.5 326.5 589.5 326.5 589.5 268.5 638.5 268.5 638.5 134.5 560.5 134.5"
      fill="none"
      stroke="#e18686"
      stroke-miterlimit="10"
      stroke-width="3"
    />
  </g>
  <g id="Layer_toilet2">
    <polygon
      points="761.5 134.5 739.5 134.5 736.5 134.5 638.5 134.5 638.5 268.5 633.5 268.5 633.5 334.5 705.5 334.5 705.5 268.5 739.5 268.5 739.5 169.5 761.5 169.5 761.5 134.5"
      fill="none"
      stroke="#e18686"
      stroke-miterlimit="10"
      stroke-width="3"
    />
  </g>
  <g id="Layer_남영">
    <rect
      x="961.5"
      y="579.5"
      width="285"
      height="102"
      fill="none"
      stroke="#e18686"
      stroke-miterlimit="10"
      stroke-width="3"
    />
    <text
      transform="translate(1040.52 638.35)"
      fill="#434142"
      font-family="NanumSquareNeovariable-Heavy, 'NanumSquare Neo variable'"
      font-size="22"
      font-variation-settings="'wght' 900"
      font-weight="800"
    >
      <tspan x="0" y="0">M</tspan>
      <tspan x="22.62" y="0" letter-spacing="-.03em">B</tspan>
      <tspan x="38.7" y="0" letter-spacing="0em">A 라운지</tspan>
    </text>
  </g>
  <g id="Layer_장치평">
    <rect
      x="961"
      y="732.5"
      width="230.5"
      height="164"
      fill="none"
      stroke="#e18686"
      stroke-miterlimit="10"
      stroke-width="3"
    />
    <text
      transform="translate(1013.87 826.18)"
      fill="#434142"
      font-family="NanumSquareNeovariable-Heavy, 'NanumSquare Neo variable'"
      font-size="22"
      font-variation-settings="'wght' 900"
      font-weight="800"
    >
      <tspan x="0" y="0">장치평라운지</tspan>
    </text>
  </g>
</svg>
