<?xml version="1.0" encoding="UTF-8"?>
<svg xmlns="http://www.w3.org/2000/svg" version="1.1" viewBox="0 0 1287.3 919.1">
  <defs>
    <style>
      .cls-1 {
        fill: #fed0d0;
      }

      .cls-1, .cls-2 {
        stroke-width: 3px;
      }

      .cls-1, .cls-2, .cls-3 {
        stroke: #ea8b8b;
        stroke-miterlimit: 10;
      }

      .cls-2 {
        fill: none;
      }

      .cls-3 {
        fill: #fef3f2;
        stroke-width: 10px;
      }

      .cls-4 {
        font-size: 10.2px;
      }

      .cls-4, .cls-5 {
        font-family: NanumSquareOTFEB-KSCpc-EUC-H, NanumSquareOTF;
      }

      .cls-5, .cls-6 {
        font-size: 14.6px;
      }

      .cls-7 {
        fill: #ccbaba;
      }

      .cls-6 {
        font-family: NanumSquareNeoTTF-dEb, 'NanumSquare Neo';
      }
    </style>
  </defs>
  <!-- Generator: Adobe Illustrator 28.7.1, SVG Export Plug-In . SVG Version: 1.2.0 Build 142)  -->
  <g>
    <g id="Layer_1">
      <g id="Layer_x5F_border">
        <path class="cls-3" d="M783.9,554.5l-.6-42.5h77l-.5-191.3h-.3c4.2-50.9-44.3-88.4-54-95.9-13-10.1-55.6-39.8-118.1-37.7-56.8,1.9-93.5,28.9-103.5,36.5-8.4,6.4-59.8,45.4-55.4,97.1h-.7l.5,191.3h85v43l-200-.5v-267.6h-81.7v267.6l-45.3-.4V232.1c.1,0-37.8,0-37.8,0v-37.7h-100.6v37.7h-49.6v549.7s188.1.1,188.1.1h895.4v-227.5h-397.9Z"/>
      </g>
      <g id="Layer_2">
        <rect class="cls-1" x="530.9" y="700.3" width="54.7" height="81.9"/>
        <text class="cls-6" transform="translate(532.9 744.8)"><tspan x="0" y="0">B103A</tspan></text>
      </g>
      <g id="Layer_3">
        <rect class="cls-1" x="371" y="700.3" width="159.9" height="81.9"/>
        <text class="cls-6" transform="translate(426 744.8)"><tspan x="0" y="0">B102B</tspan></text>
      </g>
      <g id="Layer_8">
        <rect class="cls-1" x="318.2" y="700.3" width="52.8" height="81.9"/>
        <text class="cls-6" transform="translate(319.4 744.8)"><tspan x="0" y="0">B102A</tspan></text>
      </g>
      <g id="Layer_9">
        <polygon class="cls-1" points="98.3 556 207.8 556 207.8 700.3 318.2 700.3 318.2 782.2 98.3 782.2 98.3 556"/>
        <text class="cls-6" transform="translate(142 722.9)"><tspan x="0" y="0">B101</tspan></text>
      </g>
      <g id="Layer_6">
        <rect class="cls-1" x="586.1" y="700.8" width="54" height="81.7"/>
        <text class="cls-6" transform="translate(587.9 745.3)"><tspan x="0" y="0">B103B</tspan></text>
      </g>
      <g id="Layer_7">
        <rect class="cls-1" x="640.1" y="700.8" width="212.9" height="81.7"/>
        <text class="cls-6" transform="translate(726.8 745.3)"><tspan x="0" y="0">B104</tspan></text>
      </g>
      <g id="Layer_10">
        <rect class="cls-1" x="853" y="700.8" width="110.8" height="81.7"/>
        <text class="cls-6" transform="translate(888.9 745.3)"><tspan x="0" y="0">B105</tspan></text>
      </g>
      <g id="Layer_11">
        <rect class="cls-1" x="963.8" y="700.8" width="110" height="81.7"/>
        <text class="cls-6" transform="translate(999.2 745.3)"><tspan x="0" y="0">B106</tspan></text>
      </g>
      <g id="Layer_13">
        <rect class="cls-1" x="1016.8" y="556.4" width="165.8" height="112.3"/>
        <text class="cls-6" transform="translate(1080 616.2)"><tspan x="0" y="0">B109</tspan></text>
      </g>
      <g id="Layer_14">
        <rect class="cls-1" x="1073.8" y="700.8" width="108.8" height="81.7"/>
        <text class="cls-6" transform="translate(1108.4 745.3)"><tspan x="0" y="0">B108</tspan></text>
      </g>
      <g id="Layer_15">
        <rect class="cls-1" x="746.5" y="556.4" width="42.3" height="112.3"/>
        <text class="cls-5" transform="translate(749.3 616.6)"><tspan x="0" y="0">B113</tspan></text>
      </g>
      <g id="Layer_26">
        <polygon class="cls-1" points="267.2 645 267.2 621.3 334.7 621.3 334.7 668.7 305.9 668.7 294.2 645 267.2 645"/>
        <text class="cls-5" transform="translate(292.2 640.3)"><tspan x="0" y="0">B120</tspan></text>
      </g>
      <g id="Layer_27">
        <polygon class="cls-1" points="334.7 668.7 334.7 621.3 294.2 621.3 294.2 556.4 368.8 556.4 368.8 668.7 334.7 668.7"/>
        <text class="cls-5" transform="translate(312 606)"><tspan x="0" y="0">B119</tspan></text>
      </g>
      <g id="Layer_28">
        <rect class="cls-1" x="368.8" y="556.4" width="55.4" height="112.3"/>
        <text class="cls-5" transform="translate(377.2 616.8)"><tspan x="0" y="0">B118</tspan></text>
      </g>
      <g id="Layer_29">
        <rect class="cls-1" x="424.2" y="556.4" width="55.4" height="112.3"/>
        <text class="cls-5" transform="translate(428.4 616.6)"><tspan x="0" y="0">B117A</tspan></text>
      </g>
      <g id="Layer_30">
        <rect class="cls-1" x="479.6" y="556.4" width="52.5" height="112.3"/>
        <text class="cls-5" transform="translate(484 616.2)"><tspan x="0" y="0">B117B</tspan></text>
      </g>
      <g id="t">
        <rect class="cls-2" x="532.1" y="556.4" width="35" height="112.3"/>
      </g>
      <g id="Layer_32">
        <rect class="cls-1" x="599.2" y="556.4" width="40.8" height="40.8"/>
        <text class="cls-5" transform="translate(600.9 580.7)"><tspan x="0" y="0">B115</tspan></text>
      </g>
      <g id="Layer_x5F_others">
        <g>
          <rect class="cls-2" x="882.4" y="639.1" width="26" height="10.7"/>
          <line class="cls-2" x1="882.1" y1="620.6" x2="882.1" y2="638.1"/>
          <line class="cls-2" x1="882.1" y1="632.3" x2="908.4" y2="632.3"/>
          <line class="cls-2" x1="882.1" y1="625" x2="908.4" y2="625"/>
          <line class="cls-2" x1="882.1" y1="616.2" x2="908.4" y2="616.2"/>
          <line class="cls-2" x1="882.1" y1="608.9" x2="908.4" y2="608.9"/>
          <line class="cls-2" x1="890.9" y1="600.2" x2="906.9" y2="600.2"/>
        </g>
        <rect class="cls-2" x="567.1" y="556.4" width="32.1" height="112.3"/>
        <rect class="cls-1" x="567.1" y="607.5" width="32.1" height="32.1"/>
        <rect class="cls-1" x="567.1" y="639.6" width="32.1" height="29.2"/>
        <g>
          <rect class="cls-2" x="248.8" y="645" width="18.3" height="23.7"/>
          <line class="cls-2" x1="276.9" y1="645" x2="276.9" y2="669.1"/>
          <line class="cls-2" x1="287.1" y1="645.4" x2="287.1" y2="668.7"/>
          <line class="cls-2" x1="297.4" y1="652.7" x2="297.4" y2="668.7"/>
        </g>
        <polygon class="cls-1" points="248.8 576.3 294.2 576.3 294.2 621.3 267.2 621.3 248.8 621.3 248.8 576.3"/>
        <rect class="cls-2" x="248.8" y="621.3" width="85.9" height="47.4"/>
        <g id="Layer_16">
          <rect class="cls-2" x="788.3" y="556.4" width="68" height="112.3"/>
        </g>
        <polygon class="cls-7" points="286.3 541 98.3 541 98.3 230.7 147.9 230.7 147.9 194.4 248.5 194.4 248.5 230.7 286.4 230.7 286.3 541"/>
      </g>
      <g id="Layer_17">
        <rect class="cls-1" x="908.4" y="556.4" width="33.5" height="36.5"/>
        <text class="cls-4" transform="translate(907.9 578.7)"><tspan x="0" y="0">110E</tspan></text>
        <rect class="cls-1" x="908.4" y="556.4" width="33.5" height="36.5"/>
        <text class="cls-4" transform="translate(912.6 577.4)"><tspan x="0" y="0">110E</tspan></text>
      </g>
      <g id="Layer_18">
        <polygon class="cls-1" points="856.4 556.4 908.4 556.4 908.4 592.9 882.4 603.3 882.4 621.2 856.4 621.2 856.4 556.4"/>
        <text class="cls-5" transform="translate(863.8 587.5)"><tspan x="0" y="0">B111</tspan></text>
      </g>
      <g id="Layer_19">
        <polygon class="cls-1" points="941.9 556.4 941.9 592.9 908.4 592.9 908.4 668.7 963.8 668.7 963.8 592.9 963.8 556.4 941.9 556.4"/>
        <text class="cls-5" transform="translate(918.2 629.4)"><tspan x="0" y="0">B110</tspan></text>
      </g>
      <g id="Layer_20">
        <rect class="cls-1" x="963.8" y="635.2" width="52.5" height="33.5"/>
        <text class="cls-5" transform="translate(966.6 655.9)"><tspan x="0" y="0">B110A</tspan></text>
      </g>
      <g id="Layer_21">
        <rect class="cls-1" x="963.8" y="611.8" width="52.5" height="23.3"/>
        <text class="cls-5" transform="translate(966.9 627.5)"><tspan x="0" y="0">B110B</tspan></text>
      </g>
      <g id="Layer_22">
        <rect class="cls-1" x="963.8" y="584.1" width="52.5" height="27.7"/>
        <text class="cls-5" transform="translate(966.9 602)"><tspan x="0" y="0">B110C</tspan></text>
      </g>
      <g id="Layer_23">
        <rect class="cls-1" x="963.8" y="556.4" width="52.5" height="27.7"/>
        <text class="cls-5" transform="translate(966.6 574.3)"><tspan x="0" y="0">B110D</tspan></text>
      </g>
      <g id="Layer_31">
        <rect class="cls-1" x="640.1" y="556.4" width="106.5" height="112.3"/>
        <text class="cls-5" transform="translate(670.2 616.6)"><tspan x="0" y="0">B114</tspan></text>
      </g>
    </g>
  </g>
</svg>