<?xml version="1.0" encoding="UTF-8"?><svg xmlns="http://www.w3.org/2000/svg" viewBox="0 0 1920 1080"><g id="Layer_border"><path d="m247.5,290.5c250.41,121.3,500.82,242.6,751.22,363.89l244.71,228.36c100.02-107.42,200.05-214.83,300.07-322.25-7-6.67-14-13.33-21-20,12.13.08,24.25.17,36.38.25v-237.99c-437.13-4.09-874.25-8.18-1311.38-12.26Z" fill="#fdf3f2" stroke="#e18686" stroke-linecap="round" stroke-linejoin="round" stroke-width="5"/></g><g id="Layer_others"><rect x="1289.68" y="610.64" width="90" height="62.69" transform="translate(778.47 -730.66) rotate(42.25)" fill="none" stroke="#e18686" stroke-miterlimit="10" stroke-width="1.67"/><polyline points="1318.5 519.07 1454.15 651.05 1324 792 1184.8 660.11 1318.5 519.07" fill="none" stroke="#e18686" stroke-miterlimit="10" stroke-width="2.27"/><line x1="1274.73" y1="567.1" x2="1311.07" y2="602.51" fill="none" stroke="#e18686" stroke-miterlimit="10" stroke-width="2.12"/><line x1="1268.68" y1="573.31" x2="1305.02" y2="608.72" fill="none" stroke="#e18686" stroke-miterlimit="10" stroke-width="2.12"/><line x1="1262.64" y1="579.51" x2="1298.97" y2="614.92" fill="none" stroke="#e18686" stroke-miterlimit="10" stroke-width="2.12"/><line x1="1256.59" y1="585.72" x2="1292.92" y2="621.13" fill="none" stroke="#e18686" stroke-miterlimit="10" stroke-width="2.12"/><line x1="1250.31" y1="592.16" x2="1286.64" y2="627.58" fill="none" stroke="#e18686" stroke-miterlimit="10" stroke-width="2.12"/><line x1="1244.03" y1="598.61" x2="1280.36" y2="634.02" fill="none" stroke="#e18686" stroke-miterlimit="10" stroke-width="2.12"/><line x1="1377.56" y1="661.22" x2="1414.08" y2="694.4" fill="none" stroke="#e18686" stroke-miterlimit="10" stroke-width="2.1"/><line x1="1371.74" y1="667.63" x2="1408.26" y2="700.81" fill="none" stroke="#e18686" stroke-miterlimit="10" stroke-width="2.1"/><line x1="1365.91" y1="674.05" x2="1402.43" y2="707.22" fill="none" stroke="#e18686" stroke-miterlimit="10" stroke-width="2.1"/><line x1="1360.08" y1="680.46" x2="1396.6" y2="713.64" fill="none" stroke="#e18686" stroke-miterlimit="10" stroke-width="2.1"/><line x1="1354.03" y1="687.12" x2="1390.55" y2="720.3" fill="none" stroke="#e18686" stroke-miterlimit="10" stroke-width="2.1"/><line x1="1347.98" y1="693.78" x2="1384.5" y2="726.96" fill="none" stroke="#e18686" stroke-miterlimit="10" stroke-width="2.1"/><line x1="1330.56" y1="595.11" x2="1361.98" y2="562.33" fill="none" stroke="#e18686" stroke-miterlimit="10" stroke-width="2.01"/><line x1="1336.81" y1="601.11" x2="1368.24" y2="568.33" fill="none" stroke="#e18686" stroke-miterlimit="10" stroke-width="2.01"/><line x1="1343.07" y1="607.11" x2="1374.5" y2="574.32" fill="none" stroke="#e18686" stroke-miterlimit="10" stroke-width="2.01"/><line x1="1349.33" y1="613.1" x2="1380.75" y2="580.32" fill="none" stroke="#e18686" stroke-miterlimit="10" stroke-width="2.01"/><line x1="1355.82" y1="619.33" x2="1387.25" y2="586.55" fill="none" stroke="#e18686" stroke-miterlimit="10" stroke-width="2.01"/><line x1="1362.32" y1="625.56" x2="1393.75" y2="592.78" fill="none" stroke="#e18686" stroke-miterlimit="10" stroke-width="2.01"/><line x1="1368.04" y1="630.98" x2="1399.47" y2="598.2" fill="none" stroke="#e18686" stroke-miterlimit="10" stroke-width="2.01"/><line x1="1374.54" y1="636.18" x2="1405.95" y2="603.93" fill="none" stroke="#e18686" stroke-miterlimit="10" stroke-width="2.01"/><line x1="1379.4" y1="641.31" x2="1410.81" y2="609.06" fill="none" stroke="#e18686" stroke-miterlimit="10" stroke-width="2.01"/><rect x="1324.92" y="806.76" width="11.76" height="67.85" transform="translate(2847.91 420.96) rotate(132.25)" fill="none" stroke="#e18686" stroke-miterlimit="10" stroke-width="2"/><rect x="1280.51" y="855.65" width="11.76" height="67.85" transform="translate(2809.82 535.58) rotate(132.25)" fill="none" stroke="#e18686" stroke-miterlimit="10" stroke-width="2"/><line x1="1346.6" y1="862.99" x2="1310.1" y2="903.16" fill="none" stroke="#e18686" stroke-miterlimit="10" stroke-width="2"/><line x1="1341.61" y1="858.46" x2="1305.12" y2="898.64" fill="none" stroke="#e18686" stroke-miterlimit="10" stroke-width="2"/><line x1="1336.63" y1="853.93" x2="1300.13" y2="894.11" fill="none" stroke="#e18686" stroke-miterlimit="10" stroke-width="2"/><line x1="1331.65" y1="849.4" x2="1295.15" y2="889.58" fill="none" stroke="#e18686" stroke-miterlimit="10" stroke-width="2"/><line x1="1326.66" y1="844.87" x2="1290.16" y2="885.05" fill="none" stroke="#e18686" stroke-miterlimit="10" stroke-width="2"/><line x1="1321.68" y1="840.34" x2="1285.18" y2="880.52" fill="none" stroke="#e18686" stroke-miterlimit="10" stroke-width="2"/><line x1="1316.69" y1="835.82" x2="1280.19" y2="875.99" fill="none" stroke="#e18686" stroke-miterlimit="10" stroke-width="2"/><line x1="1311.71" y1="831.29" x2="1275.21" y2="871.46" fill="none" stroke="#e18686" stroke-miterlimit="10" stroke-width="2"/><line x1="1306.72" y1="826.76" x2="1270.22" y2="866.94" fill="none" stroke="#e18686" stroke-miterlimit="10" stroke-width="2"/><line x1="1301.74" y1="822.23" x2="1265.24" y2="862.41" fill="none" stroke="#e18686" stroke-miterlimit="10" stroke-width="2"/><path d="m454,339h87.02v44.01c-29.01-14.67-58.02-29.34-87.02-44.01Z" fill="none" stroke="#e18686" stroke-linecap="round" stroke-linejoin="round" stroke-width="2"/><line x1="463" y1="294" x2="463" y2="339" fill="none" stroke="#e18686" stroke-linecap="round" stroke-linejoin="round" stroke-width="2"/><line x1="469.44" y1="294" x2="469.44" y2="339" fill="none" stroke="#e18686" stroke-linecap="round" stroke-linejoin="round" stroke-width="2"/><line x1="475.89" y1="294" x2="475.89" y2="339" fill="none" stroke="#e18686" stroke-linecap="round" stroke-linejoin="round" stroke-width="2"/><line x1="482.33" y1="294" x2="482.33" y2="339" fill="none" stroke="#e18686" stroke-linecap="round" stroke-linejoin="round" stroke-width="2"/><line x1="488.78" y1="294" x2="488.78" y2="339" fill="none" stroke="#e18686" stroke-linecap="round" stroke-linejoin="round" stroke-width="2"/><line x1="495.22" y1="294" x2="495.22" y2="339" fill="none" stroke="#e18686" stroke-linecap="round" stroke-linejoin="round" stroke-width="2"/><line x1="501.67" y1="294" x2="501.67" y2="339" fill="none" stroke="#e18686" stroke-linecap="round" stroke-linejoin="round" stroke-width="2"/><line x1="508.11" y1="294" x2="508.11" y2="339" fill="none" stroke="#e18686" stroke-linecap="round" stroke-linejoin="round" stroke-width="2"/><line x1="514.56" y1="294" x2="514.56" y2="339" fill="none" stroke="#e18686" stroke-linecap="round" stroke-linejoin="round" stroke-width="2"/><line x1="521" y1="294" x2="521" y2="339" fill="none" stroke="#e18686" stroke-linecap="round" stroke-linejoin="round" stroke-width="2"/><line x1="480" y1="351.99" x2="459.58" y2="392.09" fill="none" stroke="#e18686" stroke-linecap="round" stroke-linejoin="round" stroke-width="2"/><line x1="485.74" y1="354.91" x2="465.32" y2="395.01" fill="none" stroke="#e18686" stroke-linecap="round" stroke-linejoin="round" stroke-width="2"/><line x1="491.48" y1="357.84" x2="471.07" y2="397.94" fill="none" stroke="#e18686" stroke-linecap="round" stroke-linejoin="round" stroke-width="2"/><line x1="497.23" y1="360.76" x2="476.81" y2="400.86" fill="none" stroke="#e18686" stroke-linecap="round" stroke-linejoin="round" stroke-width="2"/><line x1="502.97" y1="363.68" x2="482.55" y2="403.79" fill="none" stroke="#e18686" stroke-linecap="round" stroke-linejoin="round" stroke-width="2"/><line x1="508.71" y1="366.61" x2="488.3" y2="406.71" fill="none" stroke="#e18686" stroke-linecap="round" stroke-linejoin="round" stroke-width="2"/><line x1="514.45" y1="369.53" x2="494.04" y2="409.63" fill="none" stroke="#e18686" stroke-linecap="round" stroke-linejoin="round" stroke-width="2"/><line x1="520.2" y1="372.45" x2="499.78" y2="412.56" fill="none" stroke="#e18686" stroke-linecap="round" stroke-linejoin="round" stroke-width="2"/><line x1="525.94" y1="375.38" x2="505.53" y2="415.48" fill="none" stroke="#e18686" stroke-linecap="round" stroke-linejoin="round" stroke-width="2"/><line x1="531.68" y1="378.3" x2="511.27" y2="418.4" fill="none" stroke="#e18686" stroke-linecap="round" stroke-linejoin="round" stroke-width="2"/></g><g id="Layer_toilet1"><rect x="1365.74" y="455.48" width="93.91" height="65.1" transform="translate(739.17 -846.23) rotate(44.16)" fill="none" stroke="#e18686" stroke-miterlimit="10" stroke-width="2"/></g><g id="Layer_toilet2"><polygon points="1469.06 497.39 1423.71 544.09 1357.05 479.37 1318.5 519.07 1431.73 629.01 1470.28 589.31 1515.63 542.61 1469.06 497.39" fill="none" stroke="#e18686" stroke-miterlimit="10" stroke-width="2"/></g><g id="Layer_101B"><path d="m812,297.96c49.33.37,98.67.74,148,1.11-136-1.02-272-2.05-408-3.07v145.4l260,123.96v-267.41Z" fill="#f8cdce" stroke="#e18686" stroke-miterlimit="10" stroke-width="2"/><text transform="translate(651.01 422.16)" fill="#434142" font-family="NanumSquareNeovariable-Heavy, &apos;NanumSquare Neo variable&apos;" font-size="22" font-variation-settings="&apos;wght&apos; 900" font-weight="800"><tspan x="0" y="0">101B</tspan></text></g><g id="Layer_101A"><path d="m812,297.96v267.41l148,70.56v-336.86c-49.33-.37-98.67-.74-148-1.11Z" fill="#f8cdce" stroke="#e18686" stroke-miterlimit="10" stroke-width="2"/><text transform="translate(857.61 431.16)" fill="#434142" font-family="NanumSquareNeovariable-Heavy, &apos;NanumSquare Neo variable&apos;" font-size="22" font-variation-settings="&apos;wght&apos; 900" font-weight="800"><tspan x="0" y="0">101A</tspan></text></g><g id="Layer_101"><path d="m1522,539c-1.67,1.33-3.33,2.67-5,4-38.33-37-76.67-74-115-111-72.33,76-144.67,152-217,228-44.67-40.67-89.33-81.33-134-122-30.33,32.67-60.67,65.33-91,98v-337c199,1.33,398,2.67,597,4,.33,78.33.67,156.67,1,235-12,.33-24,.67-36,1Z" fill="#f8cdce" stroke="#e18686" stroke-miterlimit="10" stroke-width="2.15"/><text transform="translate(1185.38 438.16)" fill="#434142" font-family="NanumSquareNeovariable-Heavy, &apos;NanumSquare Neo variable&apos;" font-size="22" font-variation-settings="&apos;wght&apos; 900" font-weight="800"><tspan x="0" y="0">101</tspan></text></g></svg>