<?xml version="1.0" encoding="UTF-8"?><svg
  xmlns="http://www.w3.org/2000/svg"
  viewBox="0 0 1100 1100"
>
  <g id="Layer_border">
    <path
      d="m550,985.35c-58.77,0-115.78-11.51-169.46-34.21-51.84-21.93-98.4-53.32-138.38-93.3s-71.37-86.54-93.3-138.38c-22.7-53.67-34.21-110.69-34.21-169.46,0-89.82,27.07-175.89,78.32-249.17l-64.7-74.53,64.17-55.71,56.44,65.01c81.42-78.04,188.14-120.95,301.13-120.95,58.77,0,115.78,11.51,169.46,34.21,51.84,21.93,98.4,53.32,138.38,93.3s71.37,86.54,93.3,138.38c22.7,53.68,34.21,110.69,34.21,169.46,0,51.01-8.74,100.96-25.98,148.48-16.08,44.33-39.17,85.53-68.65,122.54l32.9,25.92-52.6,66.75-39.79-31.35c-37.92,32.13-80.59,57.31-126.89,74.87-49.26,18.68-101.18,28.15-154.34,28.15Z"
      fill="#fef3f2"
    />
    <path
      d="m550,119.65c237.68,0,430.35,192.67,430.35,430.35,0,103.09-36.25,197.71-96.7,271.81l32.94,25.96-46.41,58.89-39.09-30.8c-75.41,65.11-173.65,104.49-281.1,104.49-237.68,0-430.35-192.67-430.35-430.35,0-93,29.5-179.12,79.66-249.49l-64-73.71,56.62-49.16,56.63,65.22c77.64-76.21,184.05-123.21,301.44-123.21m0-10c-58.72,0-115.74,11.37-169.48,33.8-48.64,20.3-92.76,48.85-131.3,84.93l-49.74-57.29-6.56-7.55-7.55,6.56-56.62,49.16-7.55,6.56,6.56,7.55,58.88,67.82c-23.84,34.74-42.49,72.54-55.48,112.5-14.27,43.88-21.51,89.75-21.51,136.33,0,59.44,11.64,117.11,34.61,171.41,22.18,52.44,53.93,99.53,94.37,139.97,40.44,40.44,87.53,72.19,139.97,94.37,54.29,22.96,111.96,34.61,171.41,34.61,53.76,0,106.28-9.58,156.11-28.48,45.56-17.28,87.65-41.85,125.22-73.1l32.67,25.74,7.85,6.19,6.19-7.85,46.41-58.89,6.19-7.85-7.85-6.19-25.05-19.74c28.34-36.41,50.63-76.73,66.33-120,17.44-48.06,26.28-98.59,26.28-150.18,0-59.44-11.64-117.11-34.61-171.41-22.18-52.44-53.93-99.53-94.37-139.97-40.44-40.44-87.53-72.19-139.97-94.37-54.29-22.96-111.96-34.61-171.41-34.61h0Z"
      fill="#ea8b8b"
    />
    <path
      d="m980.35,550c0-237.68-192.67-430.35-430.35-430.35-117.39,0-223.8,47-301.44,123.21l-56.63-65.22-56.62,49.16,64,73.71c-50.16,70.37-79.66,156.49-79.66,249.49,0,237.68,192.67,430.35,430.35,430.35,107.45,0,205.69-39.38,281.1-104.49l39.09,30.8,46.41-58.89-32.94-25.96c60.44-74.11,96.7-168.72,96.7-271.81Z"
      fill="none"
    />
  </g>
  <g id="Layer_others">
    <rect
      x="808.53"
      y="779.58"
      width="74.98"
      height="120.62"
      transform="translate(-337.3 984.55) rotate(-51.76)"
      fill="#fef3f2"
      stroke="#ea8b8b"
      stroke-miterlimit="10"
      stroke-width="3"
    />
    <line
      x1="900.87"
      y1="835.38"
      x2="854.89"
      y2="894.61"
      fill="none"
      stroke="#ea8b8b"
      stroke-miterlimit="10"
      stroke-width="3"
    />
    <line
      x1="885"
      y1="822.88"
      x2="839.03"
      y2="882.11"
      fill="none"
      stroke="#ea8b8b"
      stroke-miterlimit="10"
      stroke-width="3"
    />
    <line
      x1="869.8"
      y1="809.27"
      x2="823.82"
      y2="868.51"
      fill="none"
      stroke="#ea8b8b"
      stroke-miterlimit="10"
      stroke-width="3"
    />
    <line
      x1="853.28"
      y1="796.45"
      x2="807.3"
      y2="855.68"
      fill="none"
      stroke="#ea8b8b"
      stroke-miterlimit="10"
      stroke-width="3"
    />
    <line
      x1="836.55"
      y1="785.46"
      x2="790.58"
      y2="844.69"
      fill="none"
      stroke="#ea8b8b"
      stroke-miterlimit="10"
      stroke-width="3"
    />
    <rect
      x="165.67"
      y="187.45"
      width="74.98"
      height="120.62"
      transform="translate(-112.68 193.87) rotate(-40.96)"
      fill="#fef3f2"
      stroke="#ea8b8b"
      stroke-miterlimit="10"
      stroke-width="3"
    />
    <line
      x1="257.88"
      y1="253.6"
      x2="201.63"
      y2="303.17"
      fill="none"
      stroke="#ea8b8b"
      stroke-miterlimit="10"
      stroke-width="3"
    />
    <line
      x1="244.64"
      y1="238.35"
      x2="188.38"
      y2="287.92"
      fill="none"
      stroke="#ea8b8b"
      stroke-miterlimit="10"
      stroke-width="3"
    />
    <line
      x1="232.26"
      y1="222.14"
      x2="176"
      y2="271.71"
      fill="none"
      stroke="#ea8b8b"
      stroke-miterlimit="10"
      stroke-width="3"
    />
    <line
      x1="218.43"
      y1="206.45"
      x2="162.17"
      y2="256.02"
      fill="none"
      stroke="#ea8b8b"
      stroke-miterlimit="10"
      stroke-width="3"
    />
    <line
      x1="204.06"
      y1="192.51"
      x2="147.8"
      y2="242.09"
      fill="none"
      stroke="#ea8b8b"
      stroke-miterlimit="10"
      stroke-width="3"
    />
    <path
      d="m222.89,368.83c-17.31-7.34-34.63-14.69-51.94-22.03-8.19,15.25-15.49,31.04-21.82,47.32,32.51,14.78,65.01,29.57,97.52,44.35,15.7-28.05,31.4-56.09,47.1-84.14-15.43-10.74-30.87-21.47-46.3-32.21-8.19,15.57-16.37,31.13-24.56,46.7Z"
      fill="#fed0d0"
      stroke="#ea8b8b"
      stroke-miterlimit="10"
      stroke-width="3"
    />
    <path
      d="m940.53,730.19c21.35-46.19,34.74-96.81,38.42-150.1-38.17-1.4-76.33-2.8-114.5-4.2-8.45,39.22-16.91,78.43-25.36,117.65,33.81,12.22,67.63,24.43,101.44,36.65Z"
      fill="#fed0d0"
      stroke="#ea8b8b"
      stroke-miterlimit="10"
      stroke-width="3"
    />
  </g>
  <g id="Layer_301">
    <path
      d="m405.91,342.32c-16.1,11.86-32.2,23.73-48.3,35.59-17.58,28.39-35.17,56.78-52.75,85.17-5.3,32.84-10.59,65.68-15.89,98.51,8.05,32.84,16.1,65.68,24.15,98.51,19.07,27.12,38.13,54.23,57.2,81.35,28.6,18.43,57.2,36.86,85.8,55.29,21.61-57.84,43.22-115.67,64.83-173.51-1.48-44.49-2.97-88.98-4.45-133.47-25.21-55.93-50.42-111.86-75.63-167.79-11.65,6.78-23.3,13.56-34.96,20.34Z"
      fill="#fed0d0"
      stroke="#ea8b8b"
      stroke-miterlimit="10"
      stroke-width="3"
    />
    <path
      d="m376.4,571.79l.84-3.8c1.29.8,4.22,1.44,6.23,1.44,3.19,0,4.9-1.33,4.9-4.07s-1.75-3.57-4.83-3.65l-2.85-.08v-3.76l2.55-.08c2.85-.08,4.6-1.29,4.6-3.61s-1.52-3.27-4.26-3.27c-1.86,0-4.03.57-5.55,1.22l-.57-3.91c1.67-.87,4.9-1.48,7.6-1.48,4.94,0,8.09,2.24,8.09,6.5,0,3.12-1.75,5.13-4.6,6.16,3.27.61,5.47,2.51,5.47,6.34,0,4.9-3.57,7.87-9.61,7.87-3.19,0-6.5-.87-8.02-1.82Z"
      fill="#424142"
    />
    <path
      d="m397.57,561.04v-1.37c0-9.46,5.05-12.92,10.52-12.92s10.41,3.53,10.41,12.8v1.33c0,9.38-4.9,12.8-10.49,12.8s-10.45-3.65-10.45-12.65Zm15.35.15v-1.63c0-6.04-1.63-8.78-4.86-8.78s-4.83,2.58-4.83,8.51v1.63c0,5.89,1.48,8.74,4.79,8.74s4.9-2.39,4.9-8.47Z"
      fill="#424142"
    />
    <path
      d="m425.57,552.45l-4.25.8v-3.15l6.91-3.04h2.77v26.33h-5.43v-20.93Z"
      fill="#424142"
    />
  </g>
  <g id="Layer_302">
    <path
      d="m642.82,512.38c-44.92-13.77-89.83-27.54-134.75-41.3-22.4-49.7-44.8-99.39-67.2-149.09,30.3-8.77,60.6-17.53,90.9-26.3,35.65,4.8,71.3,9.6,106.96,14.4,29.48,18.74,58.96,37.48,88.44,56.22,19.55,28.14,39.1,56.27,58.65,84.41-47.67,20.55-95.34,41.11-143,61.66Z"
      fill="#fed0d0"
      stroke="#ea8b8b"
      stroke-miterlimit="10"
      stroke-width="3"
    />
    <path
      d="m569.99,410.73l.84-3.8c1.29.8,4.22,1.44,6.23,1.44,3.19,0,4.9-1.33,4.9-4.07s-1.75-3.57-4.83-3.65l-2.85-.08v-3.76l2.55-.08c2.85-.08,4.6-1.29,4.6-3.61s-1.52-3.27-4.26-3.27c-1.86,0-4.03.57-5.55,1.22l-.57-3.91c1.67-.87,4.9-1.48,7.6-1.48,4.94,0,8.09,2.24,8.09,6.5,0,3.12-1.75,5.13-4.6,6.16,3.27.61,5.47,2.51,5.47,6.34,0,4.9-3.57,7.87-9.61,7.87-3.19,0-6.5-.87-8.02-1.82Z"
      fill="#424142"
    />
    <path
      d="m591.16,399.98v-1.37c0-9.46,5.05-12.92,10.52-12.92s10.41,3.53,10.41,12.8v1.33c0,9.38-4.9,12.8-10.49,12.8s-10.45-3.65-10.45-12.65Zm15.35.15v-1.63c0-6.04-1.63-8.78-4.86-8.78s-4.83,2.58-4.83,8.51v1.63c0,5.89,1.48,8.74,4.79,8.74s4.9-2.39,4.9-8.47Z"
      fill="#424142"
    />
    <path
      d="m615.56,409.06l4.52-4.83c3.57-3.8,6.69-7.22,6.69-10.3s-1.75-4.1-4.98-4.1c-1.63,0-3.8.8-5.24,1.56l-.68-3.84c1.82-1.03,4.48-1.86,7.52-1.86,6,0,8.97,2.7,8.97,7.49s-4.52,9.35-7.18,12.12l-2.7,2.74h9.95v4.14h-16.87v-3.12Z"
      fill="#424142"
    />
  </g>
  <g id="Layer_303">
    <path
      d="m642.82,512.38c47.67-20.55,95.34-41.11,143-61.66,7.43,32.8,14.87,65.6,22.3,98.4-6.84,32.24-13.68,64.47-20.53,96.71-47.81-18.72-95.62-37.44-143.43-56.15-.45-25.76-.9-51.53-1.35-77.29Z"
      fill="#fed0d0"
      stroke="#ea8b8b"
      stroke-miterlimit="10"
      stroke-width="3"
    />
    <path
      d="m696.2,560.95l.84-3.8c1.29.8,4.22,1.44,6.23,1.44,3.19,0,4.9-1.33,4.9-4.07s-1.75-3.57-4.83-3.65l-2.85-.08v-3.76l2.55-.08c2.85-.08,4.6-1.29,4.6-3.61s-1.52-3.27-4.25-3.27c-1.86,0-4.03.57-5.55,1.22l-.57-3.91c1.67-.87,4.9-1.48,7.6-1.48,4.94,0,8.09,2.24,8.09,6.5,0,3.12-1.75,5.13-4.6,6.16,3.27.61,5.47,2.51,5.47,6.34,0,4.9-3.57,7.87-9.61,7.87-3.19,0-6.5-.87-8.02-1.82Z"
      fill="#424142"
    />
    <path
      d="m717.37,550.2v-1.37c0-9.46,5.05-12.92,10.52-12.92s10.41,3.53,10.41,12.8v1.33c0,9.38-4.9,12.8-10.49,12.8s-10.45-3.65-10.45-12.65Zm15.35.15v-1.63c0-6.04-1.63-8.78-4.86-8.78s-4.83,2.58-4.83,8.51v1.63c0,5.89,1.48,8.74,4.79,8.74s4.9-2.39,4.9-8.47Z"
      fill="#424142"
    />
    <path
      d="m740.66,560.95l.84-3.8c1.29.8,4.22,1.44,6.23,1.44,3.19,0,4.9-1.33,4.9-4.07s-1.75-3.57-4.83-3.65l-2.85-.08v-3.76l2.55-.08c2.85-.08,4.6-1.29,4.6-3.61s-1.52-3.27-4.26-3.27c-1.86,0-4.03.57-5.55,1.22l-.57-3.91c1.67-.87,4.9-1.48,7.6-1.48,4.94,0,8.09,2.24,8.09,6.5,0,3.12-1.75,5.13-4.6,6.16,3.27.61,5.47,2.51,5.47,6.34,0,4.9-3.57,7.87-9.61,7.87-3.19,0-6.5-.87-8.02-1.82Z"
      fill="#424142"
    />
  </g>
  <g id="Layer_304">
    <path
      d="m590.13,651.67c18.01-20.67,36.02-41.33,54.03-62,47.81,18.72,95.62,37.44,143.43,56.15-17.7,29.7-35.4,59.41-53.1,89.11-26.34,18.49-52.68,36.97-79.02,55.46-21.78-46.24-43.57-92.48-65.35-138.72Z"
      fill="#fed0d0"
      stroke="#ea8b8b"
      stroke-miterlimit="10"
      stroke-width="3"
    />
    <path
      d="m652.97,687.76l.84-3.8c1.29.8,4.22,1.44,6.23,1.44,3.19,0,4.9-1.33,4.9-4.07s-1.75-3.57-4.83-3.65l-2.85-.08v-3.76l2.55-.08c2.85-.08,4.6-1.29,4.6-3.61s-1.52-3.27-4.26-3.27c-1.86,0-4.03.57-5.55,1.22l-.57-3.91c1.67-.87,4.9-1.48,7.6-1.48,4.94,0,8.09,2.24,8.09,6.5,0,3.12-1.75,5.13-4.6,6.16,3.27.61,5.47,2.51,5.47,6.34,0,4.9-3.57,7.87-9.61,7.87-3.19,0-6.5-.87-8.02-1.82Z"
      fill="#424142"
    />
    <path
      d="m674.14,677.01v-1.37c0-9.46,5.05-12.92,10.52-12.92s10.41,3.53,10.41,12.8v1.33c0,9.38-4.9,12.8-10.49,12.8s-10.45-3.65-10.45-12.65Zm15.35.15v-1.63c0-6.04-1.63-8.78-4.86-8.78s-4.83,2.58-4.83,8.51v1.63c0,5.89,1.48,8.74,4.79,8.74s4.9-2.39,4.9-8.47Z"
      fill="#424142"
    />
    <path
      d="m709.63,684.57h-11.74v-2.89l13.3-18.66h3.53v17.67h3.95v3.88h-3.95v5.17h-5.09v-5.17Zm.04-3.88v-8.78l-6.27,8.78h6.27Z"
      fill="#424142"
    />
  </g>
  <g id="Layer_304A">
    <path
      d="m520.18,600.19c39.05-.92,78.1-1.84,117.15-2.76-15.73,18.08-31.47,36.16-47.2,54.25-26.46.14-52.91.28-79.37.42,3.4-9.62,6.79-19.23,10.19-28.85-.26-7.69-.51-15.37-.77-23.06Z"
      fill="#fed0d0"
      stroke="#ea8b8b"
      stroke-miterlimit="10"
      stroke-width="3"
    />
    <path
      d="m527.59,635.68l.66-3c1.02.63,3.33,1.14,4.92,1.14,2.52,0,3.87-1.05,3.87-3.21s-1.38-2.82-3.81-2.88l-2.25-.06v-2.97l2.01-.06c2.25-.06,3.63-1.02,3.63-2.85s-1.2-2.58-3.36-2.58c-1.47,0-3.18.45-4.38.96l-.45-3.09c1.32-.69,3.87-1.17,6-1.17,3.9,0,6.39,1.77,6.39,5.13,0,2.46-1.38,4.05-3.63,4.86,2.58.48,4.32,1.98,4.32,5.01,0,3.87-2.82,6.21-7.59,6.21-2.52,0-5.13-.69-6.33-1.44Z"
      fill="#424142"
    />
    <path
      d="m544.3,627.19v-1.08c0-7.47,3.99-10.2,8.31-10.2s8.22,2.79,8.22,10.11v1.05c0,7.41-3.87,10.11-8.28,10.11s-8.25-2.88-8.25-9.99Zm12.12.12v-1.29c0-4.77-1.29-6.93-3.84-6.93s-3.81,2.04-3.81,6.72v1.29c0,4.65,1.17,6.9,3.78,6.9s3.87-1.89,3.87-6.69Z"
      fill="#424142"
    />
    <path
      d="m572.32,633.16h-9.27v-2.28l10.5-14.73h2.79v13.95h3.12v3.06h-3.12v4.08h-4.02v-4.08Zm.03-3.06v-6.93l-4.95,6.93h4.95Z"
      fill="#424142"
    />
    <path
      d="m588.16,616.24h4.44l7.23,20.58h-4.38l-1.71-4.92h-7.32l-1.68,4.92h-3.9l7.32-20.58Zm-.78,12.63h5.37l-2.67-7.8h-.12l-2.58,7.8Z"
      fill="#424142"
    />
  </g>
  <g id="Layer_305">
    <path
      d="m590.13,651.67l-42.47.05c-12.3.12-24.6.25-36.9.37-18.21,48.22-36.43,96.44-54.64,144.66,33.88,5.43,67.77,10.87,101.65,16.3,32.57-7.55,65.14-15.11,97.71-22.66-21.78-46.24-43.57-92.48-65.35-138.72Z"
      fill="#fed0d0"
      stroke="#ea8b8b"
      stroke-miterlimit="10"
      stroke-width="3"
    />
    <path
      d="m520.77,759.54l.85-3.84c1.31.81,4.26,1.46,6.3,1.46,3.23,0,4.96-1.35,4.96-4.11s-1.77-3.61-4.88-3.69l-2.88-.08v-3.8l2.57-.08c2.88-.08,4.65-1.31,4.65-3.65s-1.54-3.3-4.3-3.3c-1.88,0-4.07.58-5.61,1.23l-.58-3.96c1.69-.88,4.96-1.5,7.68-1.5,4.99,0,8.18,2.27,8.18,6.57,0,3.15-1.77,5.19-4.65,6.22,3.3.61,5.53,2.53,5.53,6.42,0,4.96-3.61,7.95-9.72,7.95-3.23,0-6.57-.88-8.1-1.84Z"
      fill="#424142"
    />
    <path
      d="m542.17,748.67v-1.38c0-9.57,5.11-13.06,10.64-13.06s10.53,3.57,10.53,12.95v1.34c0,9.49-4.95,12.95-10.6,12.95s-10.56-3.69-10.56-12.79Zm15.52.15v-1.65c0-6.11-1.65-8.87-4.92-8.87s-4.88,2.61-4.88,8.6v1.65c0,5.95,1.5,8.83,4.84,8.83s4.95-2.42,4.95-8.57Z"
      fill="#424142"
    />
    <path
      d="m566.64,759.62l.92-4.07c1.5.77,3.26,1.46,5.22,1.46,3.49,0,5.61-1.54,5.61-4.49,0-3.11-1.88-4.42-5.38-4.42-1.58,0-4.07.85-5.3,1.46l1-14.9h13.98v4.11h-9.95l-.38,5.88c.73-.27,2.15-.46,3.07-.46,5.34,0,8.57,2.76,8.57,8.41,0,4.99-3.65,8.8-9.76,8.8-3.03,0-5.84-.77-7.61-1.77Z"
      fill="#424142"
    />
  </g>
  <g id="Layer_307">
    <path
      d="m419.26,274.42c37.89-9.2,75.78-18.4,113.66-27.59-1.9-42.08-3.79-84.15-5.69-126.23-58.5,3.05-113.9,17.79-163.92,41.93,18.65,37.3,37.3,74.59,55.95,111.89Z"
      fill="#fed0d0"
      stroke="#ea8b8b"
      stroke-miterlimit="10"
      stroke-width="3"
    />
    <path
      d="m424.51,199.91l.84-3.8c1.29.8,4.22,1.44,6.23,1.44,3.19,0,4.9-1.33,4.9-4.07s-1.75-3.57-4.83-3.65l-2.85-.08v-3.76l2.55-.08c2.85-.08,4.6-1.29,4.6-3.61s-1.52-3.27-4.26-3.27c-1.86,0-4.03.57-5.55,1.22l-.57-3.91c1.67-.87,4.9-1.48,7.6-1.48,4.94,0,8.09,2.24,8.09,6.5,0,3.12-1.75,5.13-4.6,6.16,3.27.61,5.47,2.51,5.47,6.34,0,4.9-3.57,7.87-9.61,7.87-3.19,0-6.5-.87-8.02-1.82Z"
      fill="#424142"
    />
    <path
      d="m445.67,189.16v-1.37c0-9.46,5.05-12.92,10.52-12.92s10.41,3.53,10.41,12.8v1.33c0,9.38-4.9,12.8-10.49,12.8s-10.45-3.65-10.45-12.65Zm15.35.15v-1.63c0-6.04-1.63-8.78-4.86-8.78s-4.83,2.58-4.83,8.51v1.63c0,5.89,1.48,8.74,4.79,8.74s4.9-2.39,4.9-8.47Z"
      fill="#424142"
    />
    <path
      d="m480.48,179.43h-11.32v-4.14h17.17v3.12l-9.16,22.95h-5.93l9.23-21.92Z"
      fill="#424142"
    />
  </g>
  <g id="Layer_308">
    <path
      d="m532.93,246.83c40.38,6.92,80.75,13.83,121.13,20.75,14.86-40.39,29.73-80.79,44.59-121.18-46.33-17.07-96.4-26.39-148.65-26.39-7.64,0-15.23.2-22.77.6,1.9,42.08,3.79,84.15,5.69,126.23Z"
      fill="#fed0d0"
      stroke="#ea8b8b"
      stroke-miterlimit="10"
      stroke-width="3"
    />
    <path
      d="m569.41,198.81l.84-3.8c1.29.8,4.22,1.44,6.23,1.44,3.19,0,4.9-1.33,4.9-4.07s-1.75-3.57-4.83-3.65l-2.85-.08v-3.76l2.55-.08c2.85-.08,4.6-1.29,4.6-3.61s-1.52-3.27-4.25-3.27c-1.86,0-4.03.57-5.55,1.22l-.57-3.91c1.67-.87,4.9-1.48,7.6-1.48,4.94,0,8.09,2.24,8.09,6.5,0,3.12-1.75,5.13-4.6,6.16,3.27.61,5.47,2.51,5.47,6.34,0,4.9-3.57,7.87-9.61,7.87-3.19,0-6.5-.87-8.02-1.82Z"
      fill="#424142"
    />
    <path
      d="m590.58,188.06v-1.37c0-9.46,5.05-12.92,10.52-12.92s10.41,3.53,10.41,12.8v1.33c0,9.38-4.9,12.8-10.49,12.8s-10.45-3.65-10.45-12.65Zm15.35.15v-1.63c0-6.04-1.63-8.78-4.86-8.78s-4.83,2.58-4.83,8.51v1.63c0,5.89,1.48,8.74,4.79,8.74s4.9-2.39,4.9-8.47Z"
      fill="#424142"
    />
    <path
      d="m614.98,193.68c0-3.23,2.32-5.58,5.17-6.72-2.66-1.25-4.45-3-4.45-6.19,0-4.22,3.57-6.99,9.31-6.99s9.12,2.43,9.12,6.57c0,2.74-1.82,4.9-4.56,6.12,3,1.06,5.59,3,5.59,6.61,0,4.48-3.72,7.64-10.18,7.64s-9.99-2.85-9.99-7.03Zm14.82-.34c0-2.47-1.94-3.91-5.58-4.75-2.24.76-4.33,2.47-4.33,4.56,0,2.36,1.82,3.8,4.94,3.8s4.98-1.48,4.98-3.61Zm-.57-12.58c0-1.86-1.33-3.19-4.14-3.19-2.55,0-4.07,1.18-4.07,3.04,0,2.09,1.44,3.42,4.64,4.14,1.86-.72,3.57-2.05,3.57-3.99Z"
      fill="#424142"
    />
  </g>
  <g id="Layer_309">
    <path
      d="m698.65,146.39c-14.86,40.39-29.73,80.79-44.59,121.18,35.65,21.75,71.29,43.49,106.94,65.24,28.16-31.74,56.32-63.47,84.48-95.21-41.87-39.61-91.69-70.9-146.83-91.21Z"
      fill="#fed0d0"
      stroke="#ea8b8b"
      stroke-miterlimit="10"
      stroke-width="3"
    />
    <path
      d="m711.36,248.91l.84-3.8c1.29.8,4.22,1.44,6.23,1.44,3.19,0,4.9-1.33,4.9-4.07s-1.75-3.57-4.83-3.65l-2.85-.08v-3.76l2.55-.08c2.85-.08,4.6-1.29,4.6-3.61s-1.52-3.27-4.25-3.27c-1.86,0-4.03.57-5.55,1.22l-.57-3.91c1.67-.87,4.9-1.48,7.6-1.48,4.94,0,8.09,2.24,8.09,6.5,0,3.12-1.75,5.13-4.6,6.16,3.27.61,5.47,2.51,5.47,6.34,0,4.9-3.57,7.87-9.61,7.87-3.19,0-6.5-.87-8.02-1.82Z"
      fill="#424142"
    />
    <path
      d="m732.53,238.16v-1.37c0-9.46,5.05-12.92,10.52-12.92s10.41,3.53,10.41,12.8v1.33c0,9.38-4.9,12.8-10.49,12.8s-10.45-3.65-10.45-12.65Zm15.35.15v-1.63c0-6.04-1.63-8.78-4.86-8.78s-4.83,2.58-4.83,8.51v1.63c0,5.89,1.48,8.74,4.79,8.74s4.9-2.39,4.9-8.47Z"
      fill="#424142"
    />
    <path
      d="m775.81,235.5v1.79c0,10.52-5.17,13.53-11.51,13.53-2.62,0-5.17-.95-6.38-1.67l.76-3.91c1.06.57,3.53,1.33,5.32,1.33,3.61,0,6.27-1.1,6.5-7.48-1.29,1.06-3.38,2.09-6,2.09-4.6,0-7.75-3.04-7.75-8.06,0-5.28,2.85-9.19,8.89-9.19,6.54,0,10.18,4.18,10.18,11.59Zm-13.98-2.85c0,3.3,1.82,4.75,4.29,4.75,1.67,0,3.53-1.1,4.33-2.2v-.61c0-4.14-1.41-6.84-4.67-6.84-2.58,0-3.95,1.86-3.95,4.9Z"
      fill="#424142"
    />
  </g>
  <g id="Layer_310">
    <path
      d="m845.47,237.61c-28.16,31.74-56.32,63.47-84.48,95.21,23.83,29.31,47.65,58.63,71.48,87.94,37.2-14.36,74.4-28.72,111.61-43.08-23.29-53.17-57.02-100.73-98.6-140.07Z"
      fill="#fed0d0"
      stroke="#ea8b8b"
      stroke-miterlimit="10"
      stroke-width="3"
    />
    <path
      d="m818.16,352.46l.84-3.8c1.29.8,4.22,1.44,6.23,1.44,3.19,0,4.9-1.33,4.9-4.07s-1.75-3.57-4.83-3.65l-2.85-.08v-3.76l2.55-.08c2.85-.08,4.6-1.29,4.6-3.61s-1.52-3.27-4.26-3.27c-1.86,0-4.03.57-5.55,1.22l-.57-3.91c1.67-.87,4.9-1.48,7.6-1.48,4.94,0,8.09,2.24,8.09,6.5,0,3.12-1.75,5.13-4.6,6.16,3.27.61,5.47,2.51,5.47,6.34,0,4.9-3.57,7.87-9.61,7.87-3.19,0-6.5-.87-8.02-1.82Z"
      fill="#424142"
    />
    <path
      d="m842.74,333.12l-4.26.8v-3.15l6.92-3.04h2.77v26.33h-5.43v-20.93Z"
      fill="#424142"
    />
    <path
      d="m853.38,341.7v-1.37c0-9.46,5.05-12.92,10.52-12.92s10.41,3.53,10.41,12.8v1.33c0,9.38-4.9,12.8-10.49,12.8s-10.45-3.65-10.45-12.65Zm15.35.15v-1.63c0-6.04-1.63-8.78-4.86-8.78s-4.83,2.58-4.83,8.51v1.63c0,5.89,1.48,8.74,4.79,8.74s4.9-2.39,4.9-8.47Z"
      fill="#424142"
    />
  </g>
  <g id="Layer_311">
    <path
      d="m832.47,420.75c10.66,41.39,21.32,82.78,31.98,124.18,38.5-.64,76.99-1.28,115.49-1.92-.94-58.72-13.64-114.58-35.86-165.33-37.2,14.36-74.4,28.72-111.61,43.08Z"
      fill="#fed0d0"
      stroke="#ea8b8b"
      stroke-miterlimit="10"
      stroke-width="3"
    />
    <path
      d="m882.7,484.32l.84-3.8c1.29.8,4.22,1.44,6.23,1.44,3.19,0,4.9-1.33,4.9-4.07s-1.75-3.57-4.83-3.65l-2.85-.08v-3.76l2.55-.08c2.85-.08,4.6-1.29,4.6-3.61s-1.52-3.27-4.25-3.27c-1.86,0-4.03.57-5.55,1.22l-.57-3.91c1.67-.87,4.9-1.48,7.6-1.48,4.94,0,8.09,2.24,8.09,6.5,0,3.12-1.75,5.13-4.6,6.16,3.27.61,5.47,2.51,5.47,6.34,0,4.9-3.57,7.87-9.61,7.87-3.19,0-6.5-.87-8.02-1.82Z"
      fill="#424142"
    />
    <path
      d="m907.29,464.98l-4.25.8v-3.15l6.91-3.04h2.77v26.33h-5.43v-20.93Z"
      fill="#424142"
    />
    <path
      d="m921.35,464.98l-4.25.8v-3.15l6.91-3.04h2.77v26.33h-5.43v-20.93Z"
      fill="#424142"
    />
  </g>
  <g id="Layer_312">
    <path
      d="m813.42,700.08c-8.22,13.58-16.44,27.17-24.66,40.75,29.91,21.34,59.81,42.69,89.72,64.03,10.96-19.86,21.92-39.72,32.87-59.58-32.65-15.07-65.29-30.13-97.94-45.2Z"
      fill="#fed0d0"
      stroke="#ea8b8b"
      stroke-miterlimit="10"
      stroke-width="3"
    />
    <path
      d="m820.36,758.48l.84-3.8c1.29.8,4.22,1.44,6.23,1.44,3.19,0,4.9-1.33,4.9-4.07s-1.75-3.57-4.83-3.65l-2.85-.08v-3.76l2.55-.08c2.85-.08,4.6-1.29,4.6-3.61s-1.52-3.27-4.26-3.27c-1.86,0-4.03.57-5.55,1.22l-.57-3.91c1.67-.87,4.9-1.48,7.6-1.48,4.94,0,8.09,2.24,8.09,6.5,0,3.12-1.75,5.13-4.6,6.16,3.27.61,5.47,2.51,5.47,6.34,0,4.9-3.57,7.87-9.61,7.87-3.19,0-6.5-.87-8.02-1.82Z"
      fill="#424142"
    />
    <path
      d="m844.95,739.14l-4.26.8v-3.15l6.92-3.04h2.77v26.33h-5.43v-20.93Z"
      fill="#424142"
    />
    <path
      d="m855.66,756.81l4.52-4.83c3.57-3.8,6.69-7.22,6.69-10.3s-1.75-4.1-4.98-4.1c-1.63,0-3.8.8-5.24,1.56l-.68-3.84c1.82-1.03,4.48-1.86,7.52-1.86,6,0,8.97,2.7,8.97,7.49s-4.52,9.35-7.18,12.12l-2.7,2.74h9.96v4.14h-16.87v-3.12Z"
      fill="#424142"
    />
  </g>
  <g id="Layer_313">
    <path
      d="m736.64,792.4c-19.57,14.88-39.15,29.76-58.72,44.65-20.13,3.95-40.26,7.89-60.39,11.84,9.03,40.22,18.07,80.44,27.1,120.66,70.45-15.82,134.36-48.93,187.04-94.64-31.68-27.5-63.35-55.01-95.03-82.51Z"
      fill="#fed0d0"
      stroke="#ea8b8b"
      stroke-miterlimit="10"
      stroke-width="3"
    />
    <path
      d="m685.75,899.35l.84-3.8c1.29.8,4.22,1.44,6.23,1.44,3.19,0,4.9-1.33,4.9-4.07s-1.75-3.57-4.83-3.65l-2.85-.08v-3.76l2.55-.08c2.85-.08,4.6-1.29,4.6-3.61s-1.52-3.27-4.25-3.27c-1.86,0-4.03.57-5.55,1.22l-.57-3.91c1.67-.87,4.9-1.48,7.6-1.48,4.94,0,8.09,2.24,8.09,6.5,0,3.12-1.75,5.13-4.6,6.16,3.27.61,5.47,2.51,5.47,6.34,0,4.9-3.57,7.87-9.61,7.87-3.19,0-6.5-.87-8.02-1.82Z"
      fill="#424142"
    />
    <path
      d="m710.33,880.01l-4.25.8v-3.15l6.91-3.04h2.77v26.33h-5.43v-20.93Z"
      fill="#424142"
    />
    <path
      d="m720.18,899.35l.84-3.8c1.29.8,4.22,1.44,6.23,1.44,3.19,0,4.9-1.33,4.9-4.07s-1.75-3.57-4.83-3.65l-2.85-.08v-3.76l2.55-.08c2.85-.08,4.6-1.29,4.6-3.61s-1.52-3.27-4.26-3.27c-1.86,0-4.03.57-5.55,1.22l-.57-3.91c1.67-.87,4.9-1.48,7.6-1.48,4.94,0,8.09,2.24,8.09,6.5,0,3.12-1.75,5.13-4.6,6.16,3.27.61,5.47,2.51,5.47,6.34,0,4.9-3.57,7.87-9.61,7.87-3.19,0-6.5-.87-8.02-1.82Z"
      fill="#424142"
    />
  </g>
  <g id="Layer_314">
    <path
      d="m617.53,848.88c-19.36,4-38.72,8.01-58.08,12.01,1.04,39.64,2.08,79.28,3.12,118.92,28.11-.81,55.55-4.31,82.06-10.27-9.03-40.22-18.07-80.44-27.1-120.66Z"
      fill="#fed0d0"
      stroke="#ea8b8b"
      stroke-miterlimit="10"
      stroke-width="3"
    />
    <path
      d="m573.79,915.74l.66-3c1.02.63,3.33,1.14,4.92,1.14,2.52,0,3.87-1.05,3.87-3.21s-1.38-2.82-3.81-2.88l-2.25-.06v-2.97l2.01-.06c2.25-.06,3.63-1.02,3.63-2.85s-1.2-2.58-3.36-2.58c-1.47,0-3.18.45-4.38.96l-.45-3.09c1.32-.69,3.87-1.17,6-1.17,3.9,0,6.39,1.77,6.39,5.13,0,2.46-1.38,4.05-3.63,4.86,2.58.48,4.32,1.98,4.32,5.01,0,3.87-2.82,6.21-7.59,6.21-2.52,0-5.13-.69-6.33-1.44Z"
      fill="#424142"
    />
    <path
      d="m593.2,900.47l-3.36.63v-2.49l5.46-2.4h2.19v20.79h-4.29v-16.53Z"
      fill="#424142"
    />
    <path
      d="m610.06,913.22h-9.27v-2.28l10.5-14.73h2.79v13.95h3.12v3.06h-3.12v4.08h-4.02v-4.08Zm.03-3.06v-6.93l-4.95,6.93h4.95Z"
      fill="#424142"
    />
  </g>
  <g id="Layer_315">
    <path
      d="m478.18,974.02c23.36,3.93,47.35,5.98,71.82,5.98,4.2,0,8.39-.07,12.57-.19-1.04-39.64-2.08-79.28-3.12-118.92-20.02-3.29-40.04-6.57-60.06-9.86-7.07,41-14.14,81.99-21.21,122.99Z"
      fill="#fed0d0"
      stroke="#ea8b8b"
      stroke-miterlimit="10"
      stroke-width="3"
    />
    <path
      d="m506.96,915.74l.66-3c1.02.63,3.33,1.14,4.92,1.14,2.52,0,3.87-1.05,3.87-3.21s-1.38-2.82-3.81-2.88l-2.25-.06v-2.97l2.01-.06c2.25-.06,3.63-1.02,3.63-2.85s-1.2-2.58-3.36-2.58c-1.47,0-3.18.45-4.38.96l-.45-3.09c1.32-.69,3.87-1.17,6-1.17,3.9,0,6.39,1.77,6.39,5.13,0,2.46-1.38,4.05-3.63,4.86,2.58.48,4.32,1.98,4.32,5.01,0,3.87-2.82,6.21-7.59,6.21-2.52,0-5.13-.69-6.33-1.44Z"
      fill="#424142"
    />
    <path
      d="m526.37,900.47l-3.36.63v-2.49l5.46-2.4h2.19v20.79h-4.29v-16.53Z"
      fill="#424142"
    />
    <path
      d="m534.32,915.8l.72-3.18c1.17.6,2.55,1.14,4.08,1.14,2.73,0,4.38-1.2,4.38-3.51,0-2.43-1.47-3.45-4.2-3.45-1.23,0-3.18.66-4.14,1.14l.78-11.64h10.92v3.21h-7.77l-.3,4.59c.57-.21,1.68-.36,2.4-.36,4.17,0,6.69,2.16,6.69,6.57,0,3.9-2.85,6.87-7.62,6.87-2.37,0-4.56-.6-5.94-1.38Z"
      fill="#424142"
    />
  </g>
  <g id="Layer_316">
    <path
      d="m399.82,953.04c25.09,9.35,51.29,16.43,78.35,20.98l21.21-122.99c-19.55-3.89-39.11-7.79-58.66-11.68-13.63,37.9-27.26,75.79-40.89,113.69Z"
      fill="#fed0d0"
      stroke="#ea8b8b"
      stroke-miterlimit="10"
      stroke-width="3"
    />
    <path
      d="m433.96,905.05l.66-3c1.02.63,3.33,1.14,4.92,1.14,2.52,0,3.87-1.05,3.87-3.21s-1.38-2.82-3.81-2.88l-2.25-.06v-2.97l2.01-.06c2.25-.06,3.63-1.02,3.63-2.85s-1.2-2.58-3.36-2.58c-1.47,0-3.18.45-4.38.96l-.45-3.09c1.32-.69,3.87-1.17,6-1.17,3.9,0,6.39,1.77,6.39,5.13,0,2.46-1.38,4.05-3.63,4.86,2.58.48,4.32,1.98,4.32,5.01,0,3.87-2.82,6.21-7.59,6.21-2.52,0-5.13-.69-6.33-1.44Z"
      fill="#424142"
    />
    <path
      d="m453.37,889.78l-3.36.63v-2.49l5.46-2.4h2.19v20.79h-4.29v-16.53Z"
      fill="#424142"
    />
    <path
      d="m461.71,897.4v-1.41c0-7.95,4.26-10.68,9.27-10.68,2.07,0,3.93.63,4.83,1.14l-.72,3.12c-.84-.42-2.55-.9-3.96-.9-2.85,0-4.92,1.41-5.22,6.24,1.02-.84,2.67-1.68,4.74-1.68,3.6,0,6.12,2.22,6.12,6.15s-2.46,7.17-7.23,7.17c-5.16,0-7.83-3.54-7.83-9.15Zm11.04,2.31c0-2.58-1.47-3.54-3.42-3.54-1.32,0-2.73.9-3.39,1.77v.18c0,3.36,1.02,5.37,3.51,5.37,2.01,0,3.3-1.35,3.3-3.78Z"
      fill="#424142"
    />
  </g>
  <g id="Layer_317">
    <path
      d="m323.08,915.31c24.09,15,49.78,27.67,76.75,37.73,13.63-37.9,27.26-75.79,40.89-113.69l-51.04-29.1c-22.2,35.02-44.4,70.04-66.6,105.07Z"
      fill="#fed0d0"
      stroke="#ea8b8b"
      stroke-miterlimit="10"
      stroke-width="3"
    />
    <path
      d="m368.95,887.7l.66-3c1.02.63,3.33,1.14,4.92,1.14,2.52,0,3.87-1.05,3.87-3.21s-1.38-2.82-3.81-2.88l-2.25-.06v-2.97l2.01-.06c2.25-.06,3.63-1.02,3.63-2.85s-1.2-2.58-3.36-2.58c-1.47,0-3.18.45-4.38.96l-.45-3.09c1.32-.69,3.87-1.17,6-1.17,3.9,0,6.39,1.77,6.39,5.13,0,2.46-1.38,4.05-3.63,4.86,2.58.48,4.32,1.98,4.32,5.01,0,3.87-2.82,6.21-7.59,6.21-2.52,0-5.13-.69-6.33-1.44Z"
      fill="#424142"
    />
    <path
      d="m388.36,872.43l-3.36.63v-2.49l5.46-2.4h2.19v20.79h-4.29v-16.53Z"
      fill="#424142"
    />
    <path
      d="m405.49,871.53h-8.94v-3.27h13.56v2.46l-7.23,18.12h-4.68l7.29-17.31Z"
      fill="#424142"
    />
  </g>
  <g id="Layer_318">
    <path
      d="m257.83,865.49c20.04,18.57,41.86,35.25,65.16,49.77,22.23-35,44.46-70.01,66.69-105.01-16.77-11.71-33.53-23.42-50.3-35.13-27.18,30.12-54.37,60.25-81.55,90.37Z"
      fill="#fed0d0"
      stroke="#ea8b8b"
      stroke-miterlimit="10"
      stroke-width="3"
    />
    <path
      d="m307.32,848.66l.66-3c1.02.63,3.33,1.14,4.92,1.14,2.52,0,3.87-1.05,3.87-3.21s-1.38-2.82-3.81-2.88l-2.25-.06v-2.97l2.01-.06c2.25-.06,3.63-1.02,3.63-2.85s-1.2-2.58-3.36-2.58c-1.47,0-3.18.45-4.38.96l-.45-3.09c1.32-.69,3.87-1.17,6-1.17,3.9,0,6.39,1.77,6.39,5.13,0,2.46-1.38,4.05-3.63,4.86,2.58.48,4.32,1.98,4.32,5.01,0,3.87-2.82,6.21-7.59,6.21-2.52,0-5.13-.69-6.33-1.44Z"
      fill="#424142"
    />
    <path
      d="m326.73,833.39l-3.36.63v-2.49l5.46-2.4h2.19v20.79h-4.29v-16.53Z"
      fill="#424142"
    />
    <path
      d="m334.83,844.61c0-2.55,1.83-4.41,4.08-5.31-2.1-.99-3.51-2.37-3.51-4.89,0-3.33,2.82-5.52,7.35-5.52s7.2,1.92,7.2,5.19c0,2.16-1.44,3.87-3.6,4.83,2.37.84,4.41,2.37,4.41,5.22,0,3.54-2.94,6.03-8.04,6.03s-7.89-2.25-7.89-5.55Zm11.7-.27c0-1.95-1.53-3.09-4.41-3.75-1.77.6-3.42,1.95-3.42,3.6,0,1.86,1.44,3,3.9,3s3.93-1.17,3.93-2.85Zm-.45-9.93c0-1.47-1.05-2.52-3.27-2.52-2.01,0-3.21.93-3.21,2.4,0,1.65,1.14,2.7,3.66,3.27,1.47-.57,2.82-1.62,2.82-3.15Z"
      fill="#424142"
    />
  </g>
  <g id="Layer_319">
    <path
      d="m201.16,801.47c16.74,23.18,35.74,44.63,56.67,64.02,27.18-30.12,54.37-60.25,81.55-90.37-11.71-15.21-23.42-30.42-35.13-45.63-34.36,23.99-68.73,47.99-103.09,71.98Z"
      fill="#fed0d0"
      stroke="#ea8b8b"
      stroke-miterlimit="10"
      stroke-width="3"
    />
    <path
      d="m260.37,801.03l.66-3c1.02.63,3.33,1.14,4.92,1.14,2.52,0,3.87-1.05,3.87-3.21s-1.38-2.82-3.81-2.88l-2.25-.06v-2.97l2.01-.06c2.25-.06,3.63-1.02,3.63-2.85s-1.2-2.58-3.36-2.58c-1.47,0-3.18.45-4.38.96l-.45-3.09c1.32-.69,3.87-1.17,6-1.17,3.9,0,6.39,1.77,6.39,5.13,0,2.46-1.38,4.05-3.63,4.86,2.58.48,4.32,1.98,4.32,5.01,0,3.87-2.82,6.21-7.59,6.21-2.52,0-5.13-.69-6.33-1.44Z"
      fill="#424142"
    />
    <path
      d="m279.78,785.76l-3.36.63v-2.49l5.46-2.4h2.19v20.79h-4.29v-16.53Z"
      fill="#424142"
    />
    <path
      d="m302.94,790.44v1.41c0,8.31-4.08,10.68-9.09,10.68-2.07,0-4.08-.75-5.04-1.32l.6-3.09c.84.45,2.79,1.05,4.2,1.05,2.85,0,4.95-.87,5.13-5.91-1.02.84-2.67,1.65-4.74,1.65-3.63,0-6.12-2.4-6.12-6.36,0-4.17,2.25-7.26,7.02-7.26,5.16,0,8.04,3.3,8.04,9.15Zm-11.04-2.25c0,2.61,1.44,3.75,3.39,3.75,1.32,0,2.79-.87,3.42-1.74v-.48c0-3.27-1.11-5.4-3.69-5.4-2.04,0-3.12,1.47-3.12,3.87Z"
      fill="#424142"
    />
  </g>
  <g id="Layer_320">
    <path
      d="m201.16,801.47c34.36-23.99,68.73-47.99,103.09-71.98-11.29-15.43-22.59-30.86-33.88-46.3-36.73,16.18-73.46,32.36-110.2,48.54,11.49,24.6,25.24,47.93,40.99,69.73Z"
      fill="#fed0d0"
      stroke="#ea8b8b"
      stroke-miterlimit="10"
      stroke-width="3"
    />
    <path
      d="m217.84,743.51l.66-3c1.02.63,3.33,1.14,4.92,1.14,2.52,0,3.87-1.05,3.87-3.21s-1.38-2.82-3.81-2.88l-2.25-.06v-2.97l2.01-.06c2.25-.06,3.63-1.02,3.63-2.85s-1.2-2.58-3.36-2.58c-1.47,0-3.18.45-4.38.96l-.45-3.09c1.32-.69,3.87-1.17,6-1.17,3.9,0,6.39,1.77,6.39,5.13,0,2.46-1.38,4.05-3.63,4.86,2.58.48,4.32,1.98,4.32,5.01,0,3.87-2.82,6.21-7.59,6.21-2.52,0-5.13-.69-6.33-1.44Z"
      fill="#424142"
    />
    <path
      d="m234.16,742.19l3.57-3.81c2.82-3,5.28-5.7,5.28-8.13s-1.38-3.24-3.93-3.24c-1.29,0-3,.63-4.14,1.23l-.54-3.03c1.44-.81,3.54-1.47,5.94-1.47,4.74,0,7.08,2.13,7.08,5.91s-3.57,7.38-5.67,9.57l-2.13,2.16h7.86v3.27h-13.32v-2.46Z"
      fill="#424142"
    />
    <path
      d="m250.03,735.02v-1.08c0-7.47,3.99-10.2,8.31-10.2s8.22,2.79,8.22,10.11v1.05c0,7.41-3.87,10.11-8.28,10.11s-8.25-2.88-8.25-9.99Zm12.12.12v-1.29c0-4.77-1.29-6.93-3.84-6.93s-3.81,2.04-3.81,6.72v1.29c0,4.65,1.17,6.9,3.78,6.9s3.87-1.89,3.87-6.69Z"
      fill="#424142"
    />
  </g>
  <g id="Layer_321">
    <path
      d="m120.37,567.93c2.38,58.09,16.29,113.21,39.5,163.13,36.83-15.96,73.67-31.92,110.5-47.87-9.66-39.75-19.32-79.49-28.98-119.24-40.34,1.33-80.68,2.66-121.03,3.98Z"
      fill="#fed0d0"
      stroke="#ea8b8b"
      stroke-miterlimit="10"
      stroke-width="3"
    />
    <path
      d="m169.35,648.67l.84-3.8c1.29.8,4.22,1.44,6.23,1.44,3.19,0,4.9-1.33,4.9-4.07s-1.75-3.57-4.83-3.65l-2.85-.08v-3.76l2.55-.08c2.85-.08,4.6-1.29,4.6-3.61s-1.52-3.27-4.26-3.27c-1.86,0-4.03.57-5.55,1.22l-.57-3.91c1.67-.87,4.9-1.48,7.6-1.48,4.94,0,8.09,2.24,8.09,6.5,0,3.12-1.75,5.13-4.6,6.16,3.27.61,5.47,2.51,5.47,6.34,0,4.9-3.57,7.87-9.61,7.87-3.19,0-6.5-.87-8.02-1.82Z"
      fill="#424142"
    />
    <path
      d="m190.02,647l4.52-4.83c3.57-3.8,6.69-7.22,6.69-10.3s-1.75-4.1-4.98-4.1c-1.63,0-3.8.8-5.24,1.56l-.68-3.84c1.82-1.03,4.48-1.86,7.52-1.86,6,0,8.97,2.7,8.97,7.49s-4.52,9.35-7.18,12.12l-2.7,2.74h9.95v4.14h-16.87v-3.12Z"
      fill="#424142"
    />
    <path
      d="m213.92,629.33l-4.26.8v-3.15l6.92-3.04h2.77v26.33h-5.43v-20.93Z"
      fill="#424142"
    />
  </g>
  <g id="Layer_322">
    <path
      d="m142.53,412.29c-14.61,43.23-22.53,89.55-22.53,137.71,0,6.01.13,11.99.37,17.93,40.34-1.33,80.68-2.66,121.03-3.98l15.78-110.99c-38.22-13.56-76.43-27.11-114.65-40.67Z"
      fill="#fed0d0"
      stroke="#ea8b8b"
      stroke-miterlimit="10"
      stroke-width="3"
    />
    <path
      d="m158.11,515.13l.84-3.8c1.29.8,4.22,1.44,6.23,1.44,3.19,0,4.9-1.33,4.9-4.07s-1.75-3.57-4.83-3.65l-2.85-.08v-3.76l2.55-.08c2.85-.08,4.6-1.29,4.6-3.61s-1.52-3.27-4.25-3.27c-1.86,0-4.03.57-5.55,1.22l-.57-3.91c1.67-.87,4.9-1.48,7.6-1.48,4.94,0,8.09,2.24,8.09,6.5,0,3.12-1.75,5.13-4.6,6.16,3.27.61,5.47,2.51,5.47,6.34,0,4.9-3.57,7.87-9.61,7.87-3.19,0-6.5-.87-8.02-1.82Z"
      fill="#424142"
    />
    <path
      d="m178.79,513.46l4.52-4.83c3.57-3.8,6.69-7.22,6.69-10.3s-1.75-4.1-4.98-4.1c-1.63,0-3.8.8-5.24,1.56l-.68-3.84c1.82-1.03,4.48-1.86,7.52-1.86,6,0,8.97,2.7,8.97,7.49s-4.52,9.35-7.18,12.12l-2.7,2.74h9.96v4.14h-16.87v-3.12Z"
      fill="#424142"
    />
    <path
      d="m199.15,513.46l4.52-4.83c3.57-3.8,6.69-7.22,6.69-10.3s-1.75-4.1-4.98-4.1c-1.63,0-3.8.8-5.24,1.56l-.68-3.84c1.82-1.03,4.48-1.86,7.52-1.86,6,0,8.97,2.7,8.97,7.49s-4.52,9.35-7.18,12.12l-2.7,2.74h9.95v4.14h-16.87v-3.12Z"
      fill="#424142"
    />
  </g>
</svg>
