<?xml version="1.0" encoding="UTF-8"?><svg xmlns="http://www.w3.org/2000/svg" viewBox="0 0 1100 1100"><defs><style>.cls-1,.cls-2{fill:none;}.cls-3{font-size:24px;}.cls-3,.cls-4,.cls-5,.cls-6{fill:#424041;font-family:NanumSquareNeovariable-Heavy, 'NanumSquare Neo variable';font-variation-settings:'wght' 900;font-weight:800;}.cls-7{letter-spacing:-.01em;}.cls-2,.cls-8,.cls-9{stroke:#ea8b8b;stroke-miterlimit:10;stroke-width:3px;}.cls-4{font-size:32px;}.cls-10{fill:#ea8b8b;}.cls-11,.cls-8{fill:#fef3f2;}.cls-5{font-size:36px;}.cls-12{letter-spacing:0em;}.cls-9{fill:#fed0d0;}.cls-13{letter-spacing:0em;}.cls-6{font-size:21px;}</style></defs><g id="Layer_border"><path class="cls-11" d="m550,985.35c-58.77,0-115.78-11.51-169.46-34.21-51.84-21.93-98.4-53.32-138.38-93.3s-71.37-86.54-93.3-138.38c-22.7-53.67-34.21-110.69-34.21-169.46,0-89.82,27.07-175.89,78.32-249.17l-64.7-74.53,64.17-55.71,56.44,65.01c81.42-78.04,188.14-120.95,301.13-120.95,58.77,0,115.78,11.51,169.46,34.21,51.84,21.93,98.4,53.32,138.38,93.3s71.37,86.54,93.3,138.38c22.7,53.68,34.21,110.69,34.21,169.46,0,51.01-8.74,100.96-25.98,148.48-16.08,44.33-39.17,85.53-68.65,122.54l32.9,25.92-52.6,66.75-39.79-31.35c-37.92,32.13-80.59,57.31-126.89,74.87-49.26,18.68-101.18,28.15-154.34,28.15Z"/><path class="cls-10" d="m550,119.65c237.68,0,430.35,192.67,430.35,430.35,0,103.09-36.25,197.71-96.7,271.81l32.94,25.96-46.41,58.89-39.09-30.8c-75.41,65.11-173.65,104.49-281.1,104.49-237.68,0-430.35-192.67-430.35-430.35,0-93,29.5-179.12,79.66-249.49l-64-73.71,56.62-49.16,56.63,65.22c77.64-76.21,184.05-123.21,301.44-123.21m0-10c-58.72,0-115.74,11.37-169.48,33.8-48.64,20.3-92.76,48.85-131.3,84.93l-49.74-57.29-6.56-7.55-7.55,6.56-56.62,49.16-7.55,6.56,6.56,7.55,58.88,67.82c-23.84,34.74-42.49,72.54-55.48,112.5-14.27,43.88-21.51,89.75-21.51,136.33,0,59.44,11.64,117.11,34.61,171.41,22.18,52.44,53.93,99.53,94.37,139.97,40.44,40.44,87.53,72.19,139.97,94.37,54.29,22.96,111.96,34.61,171.41,34.61,53.76,0,106.28-9.58,156.11-28.48,45.56-17.28,87.65-41.85,125.22-73.1l32.67,25.74,7.85,6.19,6.19-7.85,46.41-58.89,6.19-7.85-7.85-6.19-25.05-19.74c28.34-36.41,50.63-76.73,66.33-120,17.44-48.06,26.28-98.59,26.28-150.18,0-59.44-11.64-117.11-34.61-171.41-22.18-52.44-53.93-99.53-94.37-139.97-40.44-40.44-87.53-72.19-139.97-94.37-54.29-22.96-111.96-34.61-171.41-34.61h0Z"/><path class="cls-1" d="m980.35,550c0-237.68-192.67-430.35-430.35-430.35-117.39,0-223.8,47-301.44,123.21l-56.63-65.22-56.62,49.16,64,73.71c-50.16,70.37-79.66,156.49-79.66,249.49,0,237.68,192.67,430.35,430.35,430.35,107.45,0,205.69-39.38,281.1-104.49l39.09,30.8,46.41-58.89-32.94-25.96c60.44-74.11,96.7-168.72,96.7-271.81Z"/></g><g id="Layer_others"><rect class="cls-8" x="808.53" y="779.58" width="74.98" height="120.62" transform="translate(-337.3 984.55) rotate(-51.76)"/><line class="cls-2" x1="900.87" y1="835.38" x2="854.89" y2="894.61"/><line class="cls-2" x1="885" y1="822.88" x2="839.03" y2="882.11"/><line class="cls-2" x1="869.8" y1="809.27" x2="823.82" y2="868.51"/><line class="cls-2" x1="853.28" y1="796.45" x2="807.3" y2="855.68"/><line class="cls-2" x1="836.55" y1="785.46" x2="790.58" y2="844.69"/><rect class="cls-8" x="165.67" y="187.45" width="74.98" height="120.62" transform="translate(-112.68 193.87) rotate(-40.96)"/><line class="cls-2" x1="257.88" y1="253.6" x2="201.63" y2="303.17"/><line class="cls-2" x1="244.64" y1="238.35" x2="188.38" y2="287.92"/><line class="cls-2" x1="232.26" y1="222.14" x2="176" y2="271.71"/><line class="cls-2" x1="218.43" y1="206.45" x2="162.17" y2="256.02"/><line class="cls-2" x1="204.06" y1="192.51" x2="147.8" y2="242.09"/></g><g id="Layer_toilet2"><path class="cls-2" d="m926.5,585.5c-20.8-5.28-41.6-10.56-62.4-15.84l-34.92,111.03c20.11,7.27,40.22,14.53,60.32,21.8,2.36-7.27,4.73-14.53,7.09-21.8l-40.92-13.94c3.28-9.75,6.56-19.5,9.84-29.25,13.33,4.33,26.67,8.67,40,13,7-21.67,14-43.33,21-65Z"/><path class="cls-2" d="m980.35,597.42l-53.85-11.92-29.91,95.2,30.19,9.34-8.28,23.28,25.58,9.86c8.07-16.53,16.51-36.86,23.42-60.68,7.07-24.35,10.85-46.49,12.85-65.08Z"/></g><g id="Layer_toilet3"><rect class="cls-2" x="860.5" y="643.5" width="41" height="30" transform="translate(255.4 -246.16) rotate(18.56)"/></g><g id="Layer_toilet4"><path class="cls-2" d="m247.73,362.42l-29.57-13.79c-4.72-2.54-9.44-5.08-14.16-7.62,3.46-7.71,6.93-15.42,10.39-23.12-5.03-5.79-10.05-11.58-15.08-17.37-9.28,12.5-19.04,27.31-28.31,44.49-13.23,24.53-22.04,47.52-28,67,17.67,5.67,35.33,11.33,53,17,7.27-15.81,14.53-31.63,21.8-47.44l17.25,8.05,12.68-27.19Z"/></g><g id="Layer_toilet5"><path class="cls-2" d="m257.5,452.5c15-30.33,30-60.67,45-91-14.67-7.33-29.33-14.67-44-22-7.67,16.67-15.33,33.33-23,50-6-2.67-12-5.33-18-8-7.33,15.67-14.67,31.33-22,47,20.67,8,41.33,16,62,24Z"/></g><g id="Layer_301"><path class="cls-9" d="m405.91,342.32c-16.1,11.86-32.2,23.73-48.3,35.59-17.58,28.39-35.17,56.78-52.75,85.17-5.3,32.84-10.59,65.68-15.89,98.51,8.05,32.84,16.1,65.68,24.15,98.51,19.07,27.12,38.13,54.23,57.2,81.35,28.6,18.43,57.2,36.86,85.8,55.29,21.61-57.84,43.22-115.67,64.83-173.51-1.48-44.49-2.97-88.98-4.45-133.47-25.21-55.93-50.42-111.86-75.63-167.79-11.65,6.78-23.3,13.56-34.96,20.34Z"/><text class="cls-5" transform="translate(374.82 569.47)"><tspan x="0" y="0">301</tspan></text></g><g id="Layer_302"><path class="cls-9" d="m642.82,512.38c-44.92-13.77-89.83-27.54-134.75-41.3-22.4-49.7-44.8-99.39-67.2-149.09,30.3-8.77,60.6-17.53,90.9-26.3,35.65,4.8,71.3,9.6,106.96,14.4,29.48,18.74,58.96,37.48,88.44,56.22,19.55,28.14,39.1,56.27,58.65,84.41-47.67,20.55-95.34,41.11-143,61.66Z"/><text class="cls-5" transform="translate(554.49 412.47)"><tspan x="0" y="0">302</tspan></text></g><g id="Layer_303"><path class="cls-9" d="m642.82,512.38c47.67-20.55,95.34-41.11,143-61.66,7.43,32.8,14.87,65.6,22.3,98.4-6.84,32.24-13.68,64.47-20.53,96.71-47.81-18.72-95.62-37.44-143.43-56.15-.45-25.76-.9-51.53-1.35-77.29Z"/><text class="cls-5" transform="translate(686.08 559.47)"><tspan x="0" y="0">303</tspan></text></g><g id="Layer_304"><path class="cls-9" d="m590.13,651.67c18.01-20.67,36.02-41.33,54.03-62,47.81,18.72,95.62,37.44,143.43,56.15-17.7,29.7-35.4,59.41-53.1,89.11-26.34,18.49-52.68,36.97-79.02,55.46-21.78-46.24-43.57-92.48-65.35-138.72Z"/><text class="cls-5" transform="translate(648.18 690.47)"><tspan x="0" y="0">304</tspan></text></g><g id="Layer_304A"><path class="cls-9" d="m520.18,600.19c39.05-.92,78.1-1.84,117.15-2.76-15.73,18.08-31.47,36.16-47.2,54.25-26.46.14-52.91.28-79.37.42,3.4-9.62,6.79-19.23,10.19-28.85-.26-7.69-.51-15.37-.77-23.06Z"/><text class="cls-6" transform="translate(535.62 630.34)"><tspan x="0" y="0">304A</tspan></text></g><g id="Layer_305"><path class="cls-9" d="m590.13,651.67l-42.47.05c-12.3.12-24.6.25-36.9.37-18.21,48.22-36.43,96.44-54.64,144.66,33.88,5.43,67.77,10.87,101.65,16.3,32.57-7.55,65.14-15.11,97.71-22.66-21.78-46.24-43.57-92.48-65.35-138.72Z"/><text class="cls-5" transform="translate(516.49 745.47)"><tspan x="0" y="0">305</tspan></text></g><g id="Layer_307"><path class="cls-9" d="m419.26,274.42c37.89-9.2,75.78-18.4,113.66-27.59-1.9-42.08-3.79-84.15-5.69-126.23-58.5,3.05-113.9,17.79-163.92,41.93,18.65,37.3,37.3,74.59,55.95,111.89Z"/><text class="cls-5" transform="translate(419.82 203.43)"><tspan x="0" y="0">307</tspan></text></g><g id="Layer_308"><path class="cls-9" d="m532.93,246.83c40.38,6.92,80.75,13.83,121.13,20.75,14.86-40.39,29.73-80.79,44.59-121.18-46.33-17.07-96.4-26.39-148.65-26.39-7.64,0-15.23.2-22.77.6,1.9,42.08,3.79,84.15,5.69,126.23Z"/><text class="cls-5" transform="translate(562.07 200.21)"><tspan x="0" y="0">308</tspan></text></g><g id="Layer_309"><path class="cls-9" d="m698.65,146.39c-14.86,40.39-29.73,80.79-44.59,121.18,35.65,21.75,71.29,43.49,106.94,65.24,28.16-31.74,56.32-63.47,84.48-95.21-41.87-39.61-91.69-70.9-146.83-91.21Z"/><text class="cls-5" transform="translate(698.97 252.68)"><tspan x="0" y="0">309</tspan></text></g><g id="Layer_310"><path class="cls-9" d="m845.47,237.61c-28.16,31.74-56.32,63.47-84.48,95.21,23.83,29.31,47.65,58.63,71.48,87.94,37.2-14.36,74.4-28.72,111.61-43.08-23.29-53.17-57.02-100.73-98.6-140.07Z"/><text class="cls-5" transform="translate(813.87 343.68)"><tspan class="cls-13" x="0" y="0">3</tspan><tspan x="25.63" y="0">10</tspan></text></g><g id="Layer_311"><path class="cls-9" d="m832.47,420.75c10.66,41.39,21.32,82.78,31.98,124.18,38.5-.64,76.99-1.28,115.49-1.92-.94-58.72-13.64-114.58-35.86-165.33-37.2,14.36-74.4,28.72-111.61,43.08Z"/><text class="cls-5" transform="translate(874.88 476.74)"><tspan class="cls-13" x="0" y="0">3</tspan><tspan x="25.63" y="0">11</tspan></text></g><g id="Layer_312"><path class="cls-9" d="m813.42,700.08c-8.22,13.58-16.44,27.17-24.66,40.75,29.91,21.34,59.81,42.69,89.72,64.03,10.96-19.86,21.92-39.72,32.87-59.58-32.65-15.07-65.29-30.13-97.94-45.2Z"/><text class="cls-5" transform="translate(815.26 757.18)"><tspan class="cls-13" x="0" y="0">3</tspan><tspan x="25.63" y="0">12</tspan></text></g><g id="Layer_313"><path class="cls-9" d="m736.64,792.4c-19.57,14.88-39.15,29.76-58.72,44.65-20.13,3.95-40.26,7.89-60.39,11.84,9.03,40.22,18.07,80.44,27.1,120.66,70.45-15.82,134.36-48.93,187.04-94.64-31.68-27.5-63.35-55.01-95.03-82.51Z"/><text class="cls-5" transform="translate(679.02 895.44)"><tspan class="cls-13" x="0" y="0">3</tspan><tspan x="25.63" y="0">13</tspan></text></g><g id="Layer_314"><path class="cls-9" d="m617.53,848.88c-19.36,4-38.72,8.01-58.08,12.01,1.04,39.64,2.08,79.28,3.12,118.92,28.11-.81,55.55-4.31,82.06-10.27-9.03-40.22-18.07-80.44-27.1-120.66Z"/><text class="cls-3" transform="translate(569.91 915.26)"><tspan class="cls-12" x="0" y="0">3</tspan><tspan x="17.09" y="0">14</tspan></text></g><g id="Layer_315"><path class="cls-9" d="m478.18,974.02c23.36,3.93,47.35,5.98,71.82,5.98,4.2,0,8.39-.07,12.57-.19-1.04-39.64-2.08-79.28-3.12-118.92-20.02-3.29-40.04-6.57-60.06-9.86-7.07,41-14.14,81.99-21.21,122.99Z"/><text class="cls-3" transform="translate(500.15 914.77)"><tspan class="cls-7" x="0" y="0">3</tspan><tspan x="17.09" y="0">15</tspan></text></g><g id="Layer_316"><path class="cls-9" d="m399.82,953.04c25.09,9.35,51.29,16.43,78.35,20.98l21.21-122.99c-19.55-3.89-39.11-7.79-58.66-11.68-13.63,37.9-27.26,75.79-40.89,113.69Z"/><text class="cls-3" transform="translate(429.88 906.77)"><tspan class="cls-7" x="0" y="0">3</tspan><tspan x="17.09" y="0">16</tspan></text></g><g id="Layer_317"><path class="cls-9" d="m323.08,915.31c24.09,15,49.78,27.67,76.75,37.73,13.63-37.9,27.26-75.79,40.89-113.69-17.01-9.7-34.03-19.4-51.04-29.1-22.2,35.02-44.4,70.04-66.6,105.07Z"/><text class="cls-3" transform="translate(363.7 889.19)"><tspan class="cls-12" x="0" y="0">3</tspan><tspan x="17.09" y="0">17</tspan></text></g><g id="Layer_318"><path class="cls-9" d="m257.83,865.49c20.04,18.57,41.86,35.25,65.16,49.77,22.23-35,44.46-70.01,66.69-105.01-16.77-11.71-33.53-23.42-50.3-35.13-27.18,30.12-54.37,60.25-81.55,90.37Z"/><text class="cls-3" transform="translate(306.73 842.1)"><tspan class="cls-7" x="0" y="0">3</tspan><tspan x="17.09" y="0">18</tspan></text></g><g id="Layer_319"><path class="cls-9" d="m201.16,801.47c16.74,23.18,35.74,44.63,56.67,64.02,27.18-30.12,54.37-60.25,81.55-90.37-11.71-15.21-23.42-30.42-35.13-45.63-34.36,23.99-68.73,47.99-103.09,71.98Z"/><text class="cls-3" transform="translate(251.34 796.67)"><tspan class="cls-7" x="0" y="0">3</tspan><tspan x="17.09" y="0">19</tspan></text></g><g id="Layer_320"><path class="cls-9" d="m201.16,801.47c34.36-23.99,68.73-47.99,103.09-71.98-11.29-15.43-22.59-30.86-33.88-46.3-36.73,16.18-73.46,32.36-110.2,48.54,11.49,24.6,25.24,47.93,40.99,69.73Z"/><text class="cls-3" transform="translate(206.7 742.67)"><tspan x="0" y="0">320</tspan></text></g><g id="Layer_321"><path class="cls-9" d="m120.37,567.93c2.38,58.09,16.29,113.21,39.5,163.13,36.83-15.96,73.67-31.92,110.5-47.87-9.66-39.75-19.32-79.49-28.98-119.24-40.34,1.33-80.68,2.66-121.03,3.98Z"/><text class="cls-4" transform="translate(157.82 645.44)"><tspan x="0" y="0">321</tspan></text></g><g id="Layer_322"><path class="cls-9" d="m142.53,412.29c-14.61,43.23-22.53,89.55-22.53,137.71,0,6.01.13,11.99.37,17.93,40.34-1.33,80.68-2.66,121.03-3.98,5.26-37,10.52-74,15.78-110.99-38.22-13.56-76.43-27.11-114.65-40.67Z"/><text class="cls-4" transform="translate(150.96 512.45)"><tspan x="0" y="0">322</tspan></text></g></svg>