<?xml version="1.0" encoding="UTF-8"?><svg xmlns="http://www.w3.org/2000/svg" viewBox="0 0 1920 1080"><g id="Layer_border"><polyline points="710.5 944.5 710.5 989.27 1316.9 989.27 1316.9 944.5" fill="none" stroke="#e18686" stroke-miterlimit="10" stroke-width="9.34"/><polygon points="398 941 398 237 1419 237 1419 451 1451 451 1451 648 1717 648 1717 729 1610 729 1610 941 398 941" fill="#fdf3f2"/><path d="m1414,242v214h32v197h266v71h-107v212H403V242h1011m10-10H393v714h1222v-212h107v-91h-266v-197h-32v-214h0Z" fill="#e18686"/><rect x="1319" y="95" width="100" height="142" fill="#fdf3f2"/><path d="m1414,100v132h-90V100h90m10-10h-110v152h110V90h0Z" fill="#e18686"/><rect x="1233" y="53" width="86" height="184" fill="#fdf3f2"/><path d="m1314,58v174h-76V58h76m10-10h-96v194h96V48h0Z" fill="#e18686"/></g><g id="Layer_others"><line x1="923.5" y1="256.5" x2="976.5" y2="256.5" fill="none" stroke="#e18686" stroke-miterlimit="10" stroke-width="3"/><line x1="923.5" y1="268.37" x2="976.5" y2="268.37" fill="none" stroke="#e18686" stroke-miterlimit="10" stroke-width="3"/><line x1="923.5" y1="280.25" x2="976.5" y2="280.25" fill="none" stroke="#e18686" stroke-miterlimit="10" stroke-width="3"/><line x1="923.5" y1="292.12" x2="976.5" y2="292.12" fill="none" stroke="#e18686" stroke-miterlimit="10" stroke-width="3"/><line x1="923.5" y1="304" x2="976.5" y2="304" fill="none" stroke="#e18686" stroke-miterlimit="10" stroke-width="3"/><line x1="923.5" y1="315.87" x2="976.5" y2="315.87" fill="none" stroke="#e18686" stroke-miterlimit="10" stroke-width="3"/><line x1="923.5" y1="327.75" x2="976.5" y2="327.75" fill="none" stroke="#e18686" stroke-miterlimit="10" stroke-width="3"/><line x1="923.5" y1="339.62" x2="976.5" y2="339.62" fill="none" stroke="#e18686" stroke-miterlimit="10" stroke-width="3"/><line x1="923.5" y1="351.5" x2="976.5" y2="351.5" fill="none" stroke="#e18686" stroke-miterlimit="10" stroke-width="3"/><rect x="923.5" y="241.5" width="53" height="166" fill="none" stroke="#e18686" stroke-miterlimit="10" stroke-width="3"/><rect x="836" y="498.5" width="129.5" height="41.5" fill="none" stroke="#e18686" stroke-miterlimit="10" stroke-width="3"/><line x1="846.93" y1="498.5" x2="846.93" y2="540" fill="none" stroke="#e18686" stroke-miterlimit="10" stroke-width="3"/><line x1="857.72" y1="498.5" x2="857.72" y2="540" fill="none" stroke="#e18686" stroke-miterlimit="10" stroke-width="3"/><line x1="868.51" y1="498.5" x2="868.51" y2="540" fill="none" stroke="#e18686" stroke-miterlimit="10" stroke-width="3"/><line x1="879.3" y1="498.5" x2="879.3" y2="540" fill="none" stroke="#e18686" stroke-miterlimit="10" stroke-width="3"/><line x1="890.09" y1="498.5" x2="890.09" y2="540" fill="none" stroke="#e18686" stroke-miterlimit="10" stroke-width="3"/><line x1="900.88" y1="498.5" x2="900.88" y2="540" fill="none" stroke="#e18686" stroke-miterlimit="10" stroke-width="3"/><line x1="911.67" y1="498.5" x2="911.67" y2="540" fill="none" stroke="#e18686" stroke-miterlimit="10" stroke-width="3"/><line x1="922.46" y1="498.5" x2="922.46" y2="540" fill="none" stroke="#e18686" stroke-miterlimit="10" stroke-width="3"/><line x1="933.25" y1="498.5" x2="933.25" y2="540" fill="none" stroke="#e18686" stroke-miterlimit="10" stroke-width="3"/><line x1="944.04" y1="498.5" x2="944.04" y2="540" fill="none" stroke="#e18686" stroke-miterlimit="10" stroke-width="3"/><line x1="954.83" y1="498.5" x2="954.83" y2="540" fill="none" stroke="#e18686" stroke-miterlimit="10" stroke-width="3"/><rect x="836" y="498.5" width="129.5" height="41.5" fill="none" stroke="#e18686" stroke-miterlimit="10" stroke-width="3"/><line x1="846.93" y1="498.5" x2="846.93" y2="540" fill="none" stroke="#e18686" stroke-miterlimit="10" stroke-width="3"/><line x1="857.72" y1="498.5" x2="857.72" y2="540" fill="none" stroke="#e18686" stroke-miterlimit="10" stroke-width="3"/><line x1="868.51" y1="498.5" x2="868.51" y2="540" fill="none" stroke="#e18686" stroke-miterlimit="10" stroke-width="3"/><line x1="879.3" y1="498.5" x2="879.3" y2="540" fill="none" stroke="#e18686" stroke-miterlimit="10" stroke-width="3"/><line x1="890.09" y1="498.5" x2="890.09" y2="540" fill="none" stroke="#e18686" stroke-miterlimit="10" stroke-width="3"/><line x1="900.88" y1="498.5" x2="900.88" y2="540" fill="none" stroke="#e18686" stroke-miterlimit="10" stroke-width="3"/><line x1="911.67" y1="498.5" x2="911.67" y2="540" fill="none" stroke="#e18686" stroke-miterlimit="10" stroke-width="3"/><line x1="922.46" y1="498.5" x2="922.46" y2="540" fill="none" stroke="#e18686" stroke-miterlimit="10" stroke-width="3"/><line x1="933.25" y1="498.5" x2="933.25" y2="540" fill="none" stroke="#e18686" stroke-miterlimit="10" stroke-width="3"/><line x1="944.04" y1="498.5" x2="944.04" y2="540" fill="none" stroke="#e18686" stroke-miterlimit="10" stroke-width="3"/><line x1="954.83" y1="498.5" x2="954.83" y2="540" fill="none" stroke="#e18686" stroke-miterlimit="10" stroke-width="3"/><rect x="981" y="498.5" width="129.5" height="41.5" fill="none" stroke="#e18686" stroke-miterlimit="10" stroke-width="3"/><line x1="991.93" y1="498.5" x2="991.93" y2="540" fill="none" stroke="#e18686" stroke-miterlimit="10" stroke-width="3"/><line x1="1002.72" y1="498.5" x2="1002.72" y2="540" fill="none" stroke="#e18686" stroke-miterlimit="10" stroke-width="3"/><line x1="1013.51" y1="498.5" x2="1013.51" y2="540" fill="none" stroke="#e18686" stroke-miterlimit="10" stroke-width="3"/><line x1="1024.3" y1="498.5" x2="1024.3" y2="540" fill="none" stroke="#e18686" stroke-miterlimit="10" stroke-width="3"/><line x1="1035.09" y1="498.5" x2="1035.09" y2="540" fill="none" stroke="#e18686" stroke-miterlimit="10" stroke-width="3"/><line x1="1045.88" y1="498.5" x2="1045.88" y2="540" fill="none" stroke="#e18686" stroke-miterlimit="10" stroke-width="3"/><line x1="1056.67" y1="498.5" x2="1056.67" y2="540" fill="none" stroke="#e18686" stroke-miterlimit="10" stroke-width="3"/><line x1="1067.46" y1="498.5" x2="1067.46" y2="540" fill="none" stroke="#e18686" stroke-miterlimit="10" stroke-width="3"/><line x1="1078.25" y1="498.5" x2="1078.25" y2="540" fill="none" stroke="#e18686" stroke-miterlimit="10" stroke-width="3"/><line x1="1089.04" y1="498.5" x2="1089.04" y2="540" fill="none" stroke="#e18686" stroke-miterlimit="10" stroke-width="3"/><line x1="1099.83" y1="498.5" x2="1099.83" y2="540" fill="none" stroke="#e18686" stroke-miterlimit="10" stroke-width="3"/><rect x="981" y="498.5" width="129.5" height="41.5" fill="none" stroke="#e18686" stroke-miterlimit="10" stroke-width="3"/><line x1="991.93" y1="498.5" x2="991.93" y2="540" fill="none" stroke="#e18686" stroke-miterlimit="10" stroke-width="3"/><line x1="1002.72" y1="498.5" x2="1002.72" y2="540" fill="none" stroke="#e18686" stroke-miterlimit="10" stroke-width="3"/><line x1="1013.51" y1="498.5" x2="1013.51" y2="540" fill="none" stroke="#e18686" stroke-miterlimit="10" stroke-width="3"/><line x1="1024.3" y1="498.5" x2="1024.3" y2="540" fill="none" stroke="#e18686" stroke-miterlimit="10" stroke-width="3"/><line x1="1035.09" y1="498.5" x2="1035.09" y2="540" fill="none" stroke="#e18686" stroke-miterlimit="10" stroke-width="3"/><line x1="1045.88" y1="498.5" x2="1045.88" y2="540" fill="none" stroke="#e18686" stroke-miterlimit="10" stroke-width="3"/><line x1="1056.67" y1="498.5" x2="1056.67" y2="540" fill="none" stroke="#e18686" stroke-miterlimit="10" stroke-width="3"/><line x1="1067.46" y1="498.5" x2="1067.46" y2="540" fill="none" stroke="#e18686" stroke-miterlimit="10" stroke-width="3"/><line x1="1078.25" y1="498.5" x2="1078.25" y2="540" fill="none" stroke="#e18686" stroke-miterlimit="10" stroke-width="3"/><line x1="1089.04" y1="498.5" x2="1089.04" y2="540" fill="none" stroke="#e18686" stroke-miterlimit="10" stroke-width="3"/><line x1="1099.83" y1="498.5" x2="1099.83" y2="540" fill="none" stroke="#e18686" stroke-miterlimit="10" stroke-width="3"/><rect x="836.5" y="456.5" width="129" height="209" fill="none" stroke="#e18686" stroke-miterlimit="10" stroke-width="3"/><rect x="1013.5" y="456.5" width="438" height="205" fill="none" stroke="#e18686" stroke-miterlimit="10" stroke-width="3"/><rect x="861.5" y="811.5" width="55" height="60" fill="none" stroke="#e18686" stroke-miterlimit="10" stroke-width="3"/><rect x="916.5" y="811.5" width="53" height="60" transform="translate(1886 1683) rotate(180)" fill="none" stroke="#e18686" stroke-miterlimit="10" stroke-width="3"/><rect x="969.5" y="803.5" width="65" height="68" fill="none" stroke="#e18686" stroke-miterlimit="10" stroke-width="3"/><rect x="916.5" y="871.5" width="118" height="66" fill="none" stroke="#e18686" stroke-miterlimit="10" stroke-width="3"/><line x1="928.5" y1="872.5" x2="928.5" y2="937.5" fill="none" stroke="#e18686" stroke-miterlimit="10" stroke-width="3"/><line x1="940.5" y1="872.5" x2="940.5" y2="937.5" fill="none" stroke="#e18686" stroke-miterlimit="10" stroke-width="3"/><line x1="952.5" y1="872.5" x2="952.5" y2="937.5" fill="none" stroke="#e18686" stroke-miterlimit="10" stroke-width="3"/><line x1="964.5" y1="872.5" x2="964.5" y2="937.5" fill="none" stroke="#e18686" stroke-miterlimit="10" stroke-width="3"/><line x1="976.5" y1="872.5" x2="976.5" y2="937.5" fill="none" stroke="#e18686" stroke-miterlimit="10" stroke-width="3"/><line x1="988.5" y1="872.5" x2="988.5" y2="937.5" fill="none" stroke="#e18686" stroke-miterlimit="10" stroke-width="3"/><rect x="1055.49" y="254.65" width="66.51" height="51.04" fill="none" stroke="#e18686" stroke-miterlimit="10" stroke-width="3"/><line x1="1064.77" y1="255.42" x2="1064.77" y2="305.69" fill="none" stroke="#e18686" stroke-miterlimit="10" stroke-width="3"/><line x1="1074.05" y1="255.42" x2="1074.05" y2="305.69" fill="none" stroke="#e18686" stroke-miterlimit="10" stroke-width="3"/><line x1="1083.33" y1="255.42" x2="1083.33" y2="305.69" fill="none" stroke="#e18686" stroke-miterlimit="10" stroke-width="3"/><line x1="1092.61" y1="255.42" x2="1092.61" y2="305.69" fill="none" stroke="#e18686" stroke-miterlimit="10" stroke-width="3"/><line x1="1101.89" y1="255.42" x2="1101.89" y2="305.69" fill="none" stroke="#e18686" stroke-miterlimit="10" stroke-width="3"/><line x1="1111.17" y1="255.42" x2="1111.17" y2="305.69" fill="none" stroke="#e18686" stroke-miterlimit="10" stroke-width="3"/><line x1="1321.5" y1="119.5" x2="1413.5" y2="119.5" fill="none" stroke="#e18686" stroke-miterlimit="10" stroke-width="3"/><line x1="1321.5" y1="135.5" x2="1413.5" y2="135.5" fill="none" stroke="#e18686" stroke-miterlimit="10" stroke-width="3"/><line x1="1321.5" y1="151.5" x2="1413.5" y2="151.5" fill="none" stroke="#e18686" stroke-miterlimit="10" stroke-width="3"/><line x1="1321.5" y1="167.5" x2="1413.5" y2="167.5" fill="none" stroke="#e18686" stroke-miterlimit="10" stroke-width="3"/><line x1="1321.5" y1="183.5" x2="1413.5" y2="183.5" fill="none" stroke="#e18686" stroke-miterlimit="10" stroke-width="3"/><line x1="1321.5" y1="199.5" x2="1413.5" y2="199.5" fill="none" stroke="#e18686" stroke-miterlimit="10" stroke-width="3"/><line x1="1321.5" y1="215.5" x2="1413.5" y2="215.5" fill="none" stroke="#e18686" stroke-miterlimit="10" stroke-width="3"/><rect x="868.5" y="328.5" width="55" height="46" fill="none" stroke="#e18686" stroke-miterlimit="10" stroke-width="3"/><rect x="1332.5" y="363.5" width="82" height="92" fill="none" stroke="#e18686" stroke-miterlimit="10" stroke-width="3"/><line x1="1588.5" y1="653.5" x2="1588.5" y2="725.5" fill="none" stroke="#e18686" stroke-miterlimit="10" stroke-width="3"/><line x1="1329.5" y1="661.5" x2="1329.5" y2="725.5" fill="none" stroke="#e18686" stroke-miterlimit="10" stroke-width="3"/></g><g id="Layer_toilet1"><polygon points="718.5 241.5 718.5 327.5 718.5 388.5 757.5 388.5 757.5 327.5 796.5 327.5 796.5 241.5 718.5 241.5" fill="none" stroke="#e18686" stroke-miterlimit="10" stroke-width="3"/></g><g id="Layer_toilet2"><polygon points="796.5 241.5 796.5 328.5 796.5 392.5 868.5 392.5 868.5 328.5 895.5 328.5 895.5 241.5 796.5 241.5" fill="none" stroke="#e18686" stroke-miterlimit="10" stroke-width="3"/></g><g id="Layer_오픈시어터"><rect x="530.5" y="422.5" width="153" height="195" fill="none" stroke="#e18686" stroke-miterlimit="10" stroke-width="3"/><text transform="translate(538.5 511.35)" fill="#434142" font-family="NanumSquareNeovariable-Heavy, &apos;NanumSquare Neo variable&apos;" font-size="20" font-variation-settings="&apos;wght&apos; 900" font-weight="800"><tspan x="0" y="0">학우 오픈시어터</tspan></text><text transform="translate(543.91 531.35)" fill="#434142" font-family="NanumSquareNeovariable-Regular, &apos;NanumSquare Neo variable&apos;" font-size="16" font-variation-settings="&apos;wght&apos; 300"><tspan x="0" y="0">HAKWOO OPEN</tspan><tspan x="24.96" y="19.2">THEATER</tspan></text></g><g id="Layer_B113"><rect x="528" y="242" width="62.5" height="151" transform="translate(1118.5 635) rotate(180)" fill="#f8cdce" stroke="#e18686" stroke-miterlimit="10" stroke-width="3"/><text transform="translate(531.22 324.06)" fill="#434142" font-family="NanumSquareNeovariable-Heavy, &apos;NanumSquare Neo variable&apos;" font-size="22" font-variation-settings="&apos;wght&apos; 900" font-weight="800"><tspan x="0" y="0">B113</tspan></text></g><g id="Layer_B114"><rect x="591" y="242" width="62.5" height="151" transform="translate(1244.5 635) rotate(180)" fill="#f8cdce" stroke="#e18686" stroke-miterlimit="10" stroke-width="3"/><text transform="translate(594.28 324.06)" fill="#434142" font-family="NanumSquareNeovariable-Heavy, &apos;NanumSquare Neo variable&apos;" font-size="22" font-variation-settings="&apos;wght&apos; 900" font-weight="800"><tspan x="0" y="0">B114</tspan></text></g><g id="Layer_B112"><rect x="398.1" y="241.1" width="87.4" height="62.9" transform="translate(883.6 545.1) rotate(180)" fill="#f8cdce" stroke="#e18686" stroke-miterlimit="10" stroke-width="3"/><text transform="translate(414.57 280.16)" fill="#434142" font-family="NanumSquareNeovariable-Heavy, &apos;NanumSquare Neo variable&apos;" font-size="22" font-variation-settings="&apos;wght&apos; 900" font-weight="800"><tspan x="0" y="0">B112</tspan></text></g><g id="Layer_B111"><rect x="398.1" y="302.1" width="87.4" height="72.4" transform="translate(883.6 676.6) rotate(180)" fill="#f8cdce" stroke="#e18686" stroke-miterlimit="10" stroke-width="3.22"/><text transform="translate(416.6 343.16)" fill="#434142" font-family="NanumSquareNeovariable-Heavy, &apos;NanumSquare Neo variable&apos;" font-size="22" font-variation-settings="&apos;wght&apos; 900" font-weight="800"><tspan x="0" y="0">B111</tspan></text></g><g id="Layer_B110"><rect x="398.1" y="374.1" width="87.4" height="67.4" transform="translate(883.6 815.6) rotate(180)" fill="#f8cdce" stroke="#e18686" stroke-miterlimit="10" stroke-width="3"/><text transform="translate(414.05 413.16)" fill="#434142" font-family="NanumSquareNeovariable-Heavy, &apos;NanumSquare Neo variable&apos;" font-size="22" font-variation-settings="&apos;wght&apos; 900" font-weight="800"><tspan x="0" y="0">B110</tspan></text></g><g id="Layer_B109"><rect x="398.1" y="441.1" width="87.4" height="67.4" transform="translate(883.6 949.6) rotate(180)" fill="#f8cdce" stroke="#e18686" stroke-miterlimit="10" stroke-width="3"/><text transform="translate(411.78 480.16)" fill="#434142" font-family="NanumSquareNeovariable-Heavy, &apos;NanumSquare Neo variable&apos;" font-size="22" font-variation-settings="&apos;wght&apos; 900" font-weight="800"><tspan x="0" y="0">B109</tspan></text></g><g id="Layer_B108"><rect x="398.1" y="508.1" width="87.4" height="67.4" transform="translate(883.6 1083.6) rotate(180)" fill="#f8cdce" stroke="#e18686" stroke-miterlimit="10" stroke-width="3"/><text transform="translate(411.57 547.16)" fill="#434142" font-family="NanumSquareNeovariable-Heavy, &apos;NanumSquare Neo variable&apos;" font-size="22" font-variation-settings="&apos;wght&apos; 900" font-weight="800"><tspan x="0" y="0">B108</tspan></text></g><g id="Layer_B107"><rect x="398.1" y="575.1" width="87.4" height="154.4" transform="translate(883.6 1304.6) rotate(180)" fill="#f8cdce" stroke="#e18686" stroke-miterlimit="10" stroke-width="3"/><text transform="translate(412.77 657.16)" fill="#434142" font-family="NanumSquareNeovariable-Heavy, &apos;NanumSquare Neo variable&apos;" font-size="22" font-variation-settings="&apos;wght&apos; 900" font-weight="800"><tspan x="0" y="0">B107</tspan></text></g><g id="Layer_B106"><rect x="398.72" y="729.86" width="87.4" height="67.4" transform="translate(884.84 1527.12) rotate(180)" fill="#f8cdce" stroke="#e18686" stroke-miterlimit="10" stroke-width="3"/><text transform="translate(412.39 768.92)" fill="#434142" font-family="NanumSquareNeovariable-Heavy, &apos;NanumSquare Neo variable&apos;" font-size="22" font-variation-settings="&apos;wght&apos; 900" font-weight="800"><tspan x="0" y="0">B106</tspan></text></g><g id="Layer_B105"><rect x="398.72" y="796.86" width="87.4" height="67.4" transform="translate(884.84 1661.12) rotate(180)" fill="#f8cdce" stroke="#e18686" stroke-miterlimit="10" stroke-width="3"/><text transform="translate(412.64 835.92)" fill="#434142" font-family="NanumSquareNeovariable-Heavy, &apos;NanumSquare Neo variable&apos;" font-size="22" font-variation-settings="&apos;wght&apos; 900" font-weight="800"><tspan x="0" y="0">B105</tspan></text></g><g id="Layer_B104"><rect x="398.72" y="863.86" width="87.4" height="72.64" transform="translate(884.84 1800.36) rotate(180)" fill="#f8cdce" stroke="#e18686" stroke-miterlimit="10" stroke-width="3"/><text transform="translate(412.45 904.92)" fill="#434142" font-family="NanumSquareNeovariable-Heavy, &apos;NanumSquare Neo variable&apos;" font-size="22" font-variation-settings="&apos;wght&apos; 900" font-weight="800"><tspan x="0" y="0">B104</tspan></text></g><g id="Layer_Bluepot"><rect x="1099.5" y="725.5" width="506" height="211" fill="#f8cdce" stroke="#e18686" stroke-miterlimit="10" stroke-width="3.03"/><text transform="translate(1276.43 835.98)" fill="#434142" font-family="NanumSquareNeovariable-Heavy, &apos;NanumSquare Neo variable&apos;" font-size="22" font-variation-settings="&apos;wght&apos; 900" font-weight="800"><tspan x="0" y="0">BLUE POT 카페</tspan></text></g><g id="Layer_제자사랑라운지"><rect x="485.5" y="729.5" width="376" height="208" fill="none" stroke="#e18686" stroke-miterlimit="10" stroke-width="3"/><text transform="translate(595.51 832.13)" fill="#434142" font-family="NanumSquareNeovariable-Heavy, &apos;NanumSquare Neo variable&apos;" font-size="22" font-variation-settings="&apos;wght&apos; 900" font-weight="800"><tspan x="0" y="0">제자사랑 라운지</tspan></text><text transform="translate(589.64 852.13)" fill="#434142" font-family="NanumSquareNeovariable-Regular, &apos;NanumSquare Neo variable&apos;" font-size="16" font-variation-settings="&apos;wght&apos; 300"><tspan x="0" y="0">SCHOLARS LOUNGE</tspan></text></g><g id="Layer_KCC라운지"><polygon points="1303 364 1414.5 364 1414.5 241.5 1134.5 241.5 1134.5 456.5 1303 456.5 1303 364" fill="none" stroke="#e18686" stroke-miterlimit="10" stroke-width="3"/><text transform="translate(1217.06 306.77)" fill="#434142" font-family="NanumSquareNeovariable-Heavy, &apos;NanumSquare Neo variable&apos;" font-size="22" font-variation-settings="&apos;wght&apos; 900" font-weight="800"><tspan x="0" y="0" letter-spacing="-.08em">KCC 라운지</tspan></text><text transform="translate(1160.33 326.77)" fill="#434142" font-family="NanumSquareNeovariable-Regular, &apos;NanumSquare Neo variable&apos;" font-size="16" font-variation-settings="&apos;wght&apos; 300"><tspan x="0" y="0" letter-spacing="-.08em">KCC CORPORATION LOUNGE</tspan></text></g></svg>