<?xml version="1.0" encoding="UTF-8"?><svg xmlns="http://www.w3.org/2000/svg" viewBox="0 0 1800 1400"><defs><style>.cls-1{font-size:12px;}.cls-1,.cls-2{font-family:NanumSquareNeovariable-Heavy, 'NanumSquare Neo variable';font-variation-settings:'wght' 900;font-weight:800;}.cls-1,.cls-2,.cls-3{fill:#434142;}.cls-4{fill:#fdf3f2;}.cls-5{fill:#e18686;}.cls-6{fill:#f5cbcc;}.cls-6,.cls-7,.cls-8{stroke-miterlimit:10;stroke-width:2px;}.cls-6,.cls-8{stroke:#d88282;}.cls-2{font-size:22px;}.cls-7{stroke:#d07e7e;}.cls-7,.cls-8{fill:none;}.cls-3{font-family:NanumSquareNeovariable-Regular, 'NanumSquare Neo variable';font-size:20px;font-variation-settings:'wght' 300;}</style></defs><g id="Layer_border"><rect class="cls-4" x="107.77" y="414.98" width="1590.65" height="543.99"/><path class="cls-5" d="m1693.63,419.77v534.41H112.55V419.77h1581.08m9.58-9.58H102.98v553.57h1600.23V410.19h0Z"/></g><g id="Layer_others"><rect class="cls-7" x="995.86" y="655.8" width="146.07" height="67.36"/><line class="cls-7" x1="1005.65" y1="655.8" x2="1005.65" y2="723.16"/><line class="cls-7" x1="1015.65" y1="655.8" x2="1015.65" y2="723.16"/><line class="cls-7" x1="1025.65" y1="655.8" x2="1025.65" y2="723.16"/><line class="cls-7" x1="1035.65" y1="655.8" x2="1035.65" y2="723.16"/><line class="cls-7" x1="1045.65" y1="655.8" x2="1045.65" y2="723.16"/><line class="cls-7" x1="1055.65" y1="655.8" x2="1055.65" y2="723.16"/><line class="cls-7" x1="1065.65" y1="655.8" x2="1065.65" y2="723.16"/><line class="cls-7" x1="1075.65" y1="655.8" x2="1075.65" y2="723.16"/><line class="cls-7" x1="1085.65" y1="655.8" x2="1085.65" y2="723.16"/><line class="cls-7" x1="1095.65" y1="655.8" x2="1095.65" y2="723.16"/><line class="cls-7" x1="1105.65" y1="655.8" x2="1105.65" y2="723.16"/><line class="cls-7" x1="1115.65" y1="655.8" x2="1115.65" y2="723.16"/><polygon class="cls-7" points="796.2 754.15 796.2 854.6 772.97 854.6 772.97 754.15 713.82 754.15 713.82 907.12 726.83 907.12 772.97 907.12 796.2 907.12 844.28 907.12 855.35 907.12 855.35 754.15 796.2 754.15"/><line class="cls-7" x1="713.82" y1="765.89" x2="772.97" y2="765.89"/><line class="cls-7" x1="713.82" y1="775.89" x2="772.97" y2="775.89"/><line class="cls-7" x1="713.82" y1="785.89" x2="772.97" y2="785.89"/><line class="cls-7" x1="713.82" y1="795.89" x2="772.97" y2="795.89"/><line class="cls-7" x1="713.82" y1="805.89" x2="772.97" y2="805.89"/><line class="cls-7" x1="713.82" y1="815.89" x2="772.97" y2="815.89"/><line class="cls-7" x1="713.82" y1="825.89" x2="772.97" y2="825.89"/><line class="cls-7" x1="796.7" y1="765.89" x2="855.85" y2="765.89"/><line class="cls-7" x1="796.7" y1="775.89" x2="855.85" y2="775.89"/><line class="cls-7" x1="796.7" y1="785.89" x2="855.85" y2="785.89"/><line class="cls-7" x1="796.7" y1="795.89" x2="855.85" y2="795.89"/><line class="cls-7" x1="796.7" y1="805.89" x2="855.85" y2="805.89"/><line class="cls-7" x1="796.7" y1="815.89" x2="855.85" y2="815.89"/><line class="cls-7" x1="796.7" y1="825.89" x2="855.85" y2="825.89"/><line class="cls-7" x1="796.7" y1="836.3" x2="855.85" y2="836.3"/><line class="cls-7" x1="796.7" y1="846.3" x2="855.85" y2="846.3"/><line class="cls-7" x1="713.82" y1="835.89" x2="772.97" y2="835.89"/><line class="cls-7" x1="713.82" y1="845.89" x2="772.97" y2="845.89"/><rect class="cls-7" x="1380.2" y="653.29" width="136.28" height="67.36"/><line class="cls-7" x1="1389.34" y1="653.29" x2="1389.34" y2="720.66"/><line class="cls-7" x1="1398.67" y1="653.29" x2="1398.67" y2="720.66"/><line class="cls-7" x1="1408" y1="653.29" x2="1408" y2="720.66"/><line class="cls-7" x1="1417.33" y1="653.29" x2="1417.33" y2="720.66"/><line class="cls-7" x1="1426.66" y1="653.29" x2="1426.66" y2="720.66"/><line class="cls-7" x1="1435.99" y1="653.29" x2="1435.99" y2="720.66"/><line class="cls-7" x1="1445.32" y1="653.29" x2="1445.32" y2="720.66"/><line class="cls-7" x1="1454.65" y1="653.29" x2="1454.65" y2="720.66"/><line class="cls-7" x1="1463.98" y1="653.29" x2="1463.98" y2="720.66"/><line class="cls-7" x1="1473.31" y1="653.29" x2="1473.31" y2="720.66"/><line class="cls-7" x1="1482.64" y1="653.29" x2="1482.64" y2="720.66"/><line class="cls-7" x1="1491.97" y1="653.29" x2="1491.97" y2="720.66"/><rect class="cls-7" x="1209.43" y="677.51" width="76.89" height="58.09"/><rect class="cls-7" x="1227.46" y="686.98" width="38.51" height="40.38"/><path class="cls-8" d="m507.01,419.77H112.55v534.41h508.27V419.77h-113.82Z"/><rect class="cls-8" x="1517.65" y="416.71" width="175.98" height="303.94"/><rect class="cls-8" x="947.87" y="655.8" width="47.99" height="153.41"/><line class="cls-8" x1="947.87" y1="774.21" x2="995.61" y2="774.21"/><line class="cls-8" x1="947.87" y1="767.12" x2="995.61" y2="767.12"/><line class="cls-8" x1="947.87" y1="760.03" x2="995.61" y2="760.03"/><line class="cls-8" x1="947.87" y1="752.95" x2="995.61" y2="752.95"/><line class="cls-8" x1="947.87" y1="747.28" x2="995.61" y2="747.28"/><path class="cls-8" d="m238.78,504.7c-42.12,0-84.25,0-126.37,0v-84.57h147.03v60.93c-6.89,7.88-13.77,15.76-20.66,23.64Z"/><line class="cls-8" x1="151.88" y1="420.12" x2="151.88" y2="504.7"/><line class="cls-8" x1="159.88" y1="420.12" x2="159.88" y2="504.7"/><line class="cls-8" x1="167.88" y1="420.12" x2="167.88" y2="504.7"/><line class="cls-8" x1="175.88" y1="420.12" x2="175.88" y2="504.7"/><line class="cls-8" x1="183.88" y1="420.12" x2="183.88" y2="504.7"/><line class="cls-8" x1="191.88" y1="420.12" x2="191.88" y2="504.7"/><line class="cls-8" x1="199.88" y1="420.12" x2="199.88" y2="504.7"/><line class="cls-8" x1="207.88" y1="420.12" x2="207.88" y2="504.7"/><line class="cls-8" x1="215.88" y1="420.12" x2="215.88" y2="504.7"/><line class="cls-8" x1="622.61" y1="774.21" x2="947.87" y2="774.21"/><path class="cls-8" d="m267.29,954.18H112.55v-84.08c39.71,0,79.42,0,119.13,0,11.87,10.64,23.74,21.28,35.61,31.91v52.16Z"/><path class="cls-8" d="m620.82,954.18c-35.32.16-70.65.32-105.97.48-.64-15.4-1.28-30.81-1.93-46.21,9.84-31.24,19.68-62.47,29.52-93.71-.32-78.73-.64-157.46-.96-236.19-12.09-33.37-24.18-66.75-36.27-100.12-.32-19.47-.64-38.94-.96-58.41,38.85-.08,77.71-.17,116.56-.25v534.41Z"/><line class="cls-8" x1="541.49" y1="578.55" x2="620.82" y2="578.55"/><line class="cls-8" x1="542.45" y1="814.74" x2="620.82" y2="814.74"/></g><g id="Layer_B102"><rect class="cls-6" x="947.87" y="809.2" width="134" height="144.98"/><text class="cls-2" transform="translate(984.95 887.36)"><tspan x="0" y="0">B102</tspan></text></g><g id="Layer_B103"><rect class="cls-6" x="1081.87" y="835.89" width="133.89" height="118.3" transform="translate(2297.62 1790.07) rotate(180)"/><text class="cls-2" transform="translate(1118.77 898.12)"><tspan x="0" y="0">B103</tspan></text></g><g id="Layer_B104"><rect class="cls-6" x="1215.76" y="773.42" width="132.65" height="180.76"/><text class="cls-2" transform="translate(1251.97 871.77)"><tspan x="0" y="0">B104</tspan></text></g><g id="Layer_B105"><polygon class="cls-6" points="1380.41 720.66 1380.41 773.42 1348.4 773.42 1348.4 954.18 1517.65 954.18 1517.65 773.42 1517.65 720.66 1380.41 720.66"/><text class="cls-2" transform="translate(1403.73 841.27)"><tspan x="0" y="0">B105</tspan></text><text class="cls-3" transform="translate(1405.21 870.1)"><tspan x="0" y="0">전시실</tspan></text></g><g id="Layer_B105A"><rect class="cls-6" x="1517.65" y="720.66" width="175.98" height="233.53"/><text class="cls-2" transform="translate(1566.94 839.86)"><tspan x="0" y="0">B105A</tspan></text><text class="cls-3" transform="translate(1577.2 868.69)"><tspan x="0" y="0">전시실</tspan></text></g><g id="Layer_B106"><polygon class="cls-6" points="1348.4 416.71 1348.4 605.21 1380.41 605.21 1380.41 653.29 1517.65 653.29 1517.65 605.21 1517.65 581.48 1517.65 416.71 1348.4 416.71"/><text class="cls-2" transform="translate(1405.83 505.87)"><tspan x="0" y="0">B106</tspan></text><text class="cls-3" transform="translate(1388.59 534.44)"><tspan x="0" y="0">공연연습실</tspan></text></g><g id="Layer_B107"><rect class="cls-6" x="1159.45" y="416.71" width="190.49" height="190.49"/><text class="cls-2" transform="translate(1225.52 504.7)"><tspan x="0" y="0">B107</tspan></text><text class="cls-3" transform="translate(1207.3 533.27)"><tspan x="0" y="0">공연연습실</tspan></text></g><g id="Layer_B101"><polygon class="cls-6" points="995.86 416.71 995.86 580.31 1121.45 580.31 1121.45 607.2 1159.45 607.2 1159.45 580.31 1159.45 556.1 1159.45 416.71 995.86 416.71"/><text class="cls-2" transform="translate(1047.77 501.86)"><tspan x="0" y="0">B101</tspan></text></g><g id="Layer_B101A"><rect class="cls-6" x="947.87" y="416.71" width="47.99" height="239.08"/><text class="cls-1" transform="translate(951.87 499.2)"><tspan x="0" y="0">B101A</tspan></text></g><g id="Layer_toilet1"><polygon class="cls-8" points="1089.15 751.68 1089.15 723.16 995.86 723.16 995.86 809.2 1068.9 809.2 1089.15 809.2 1126.42 809.2 1126.42 751.68 1089.15 751.68"/></g><g id="Layer_toilet2"><polygon class="cls-8" points="1085.39 630.75 1085.39 655.8 995.61 655.8 995.61 580.23 1065.9 580.23 1085.39 580.23 1121.26 580.23 1121.26 630.75 1085.39 630.75"/></g></svg>