<?xml version="1.0" encoding="UTF-8"?><svg xmlns="http://www.w3.org/2000/svg" viewBox="0 0 1800 1400"><defs><style>.cls-1{fill:#fdf2f1;stroke-width:10px;}.cls-1,.cls-2,.cls-3{stroke:#e08686;stroke-miterlimit:10;}.cls-4{font-size:28px;}.cls-4,.cls-5{fill:#231815;font-family:NanumSquareNeovariable-ExtraBold, 'NanumSquare Neo variable';font-variation-settings:'wght' 700;font-weight:700;}.cls-2{fill:none;}.cls-2,.cls-3{stroke-width:3px;}.cls-5{font-size:32px;}.cls-3{fill:#f8cdcd;}</style></defs><g id="_레이어_x5F_바탕"><rect class="cls-1" x="114.47" y="101.9" width="1475.98" height="1261.14"/></g><g id="_레이어_x5F_others"><rect class="cls-2" x="1037.56" y="107.9" width="153.23" height="189.77"/><polygon class="cls-2" points="1248.24 107.9 1248.24 226.65 1248.24 293.49 1358.32 293.49 1358.32 226.65 1415.37 226.65 1415.37 107.9 1248.24 107.9"/><rect class="cls-2" x="1415.37" y="107.9" width="168.4" height="204.93"/><rect class="cls-2" x="1415.37" y="367.14" width="168.4" height="115.46"/><rect class="cls-2" x="1415.37" y="482.6" width="168.4" height="94.88"/><rect class="cls-2" x="1415.37" y="577.49" width="168.4" height="79.04"/><rect class="cls-2" x="1037.56" y="370.86" width="294.24" height="134.18"/><rect class="cls-2" x="1037.56" y="505.05" width="294.24" height="151.48"/><rect class="cls-2" x="120.98" y="1193.75" width="298.83" height="163.16"/><line class="cls-2" x1="1139.62" y1="370.86" x2="1139.62" y2="505.05"/><line class="cls-2" x1="1149.62" y1="370.86" x2="1149.62" y2="505.05"/><line class="cls-2" x1="1159.62" y1="370.86" x2="1159.62" y2="505.05"/><line class="cls-2" x1="1169.62" y1="370.86" x2="1169.62" y2="505.05"/><line class="cls-2" x1="1179.62" y1="370.86" x2="1179.62" y2="505.05"/><line class="cls-2" x1="1189.62" y1="370.86" x2="1189.62" y2="505.05"/><line class="cls-2" x1="1199.62" y1="370.86" x2="1199.62" y2="505.05"/><line class="cls-2" x1="1209.62" y1="370.86" x2="1209.62" y2="505.05"/><line class="cls-2" x1="1219.62" y1="370.86" x2="1219.62" y2="505.05"/><line class="cls-2" x1="1229.62" y1="370.86" x2="1229.62" y2="505.05"/><line class="cls-2" x1="1239.62" y1="370.86" x2="1239.62" y2="505.05"/><line class="cls-2" x1="1249.62" y1="370.86" x2="1249.62" y2="505.05"/><line class="cls-2" x1="1259.62" y1="370.86" x2="1259.62" y2="505.05"/><line class="cls-2" x1="1269.62" y1="370.86" x2="1269.62" y2="505.05"/><line class="cls-2" x1="196.27" y1="1193.75" x2="195.49" y2="1356.91"/><line class="cls-2" x1="206.27" y1="1193.75" x2="205.49" y2="1356.91"/><line class="cls-2" x1="216.27" y1="1193.75" x2="215.49" y2="1356.91"/><line class="cls-2" x1="226.27" y1="1193.75" x2="225.49" y2="1356.91"/><line class="cls-2" x1="236.27" y1="1193.75" x2="235.49" y2="1356.91"/><line class="cls-2" x1="246.27" y1="1193.75" x2="245.49" y2="1356.91"/><line class="cls-2" x1="256.27" y1="1193.75" x2="255.49" y2="1356.91"/><line class="cls-2" x1="266.27" y1="1193.75" x2="265.49" y2="1356.91"/><line class="cls-2" x1="276.27" y1="1193.75" x2="275.49" y2="1356.91"/><line class="cls-2" x1="286.27" y1="1193.75" x2="285.49" y2="1356.91"/><line class="cls-2" x1="296.27" y1="1193.75" x2="295.49" y2="1356.91"/><line class="cls-2" x1="306.27" y1="1193.75" x2="305.49" y2="1356.91"/><line class="cls-2" x1="316.27" y1="1193.75" x2="315.49" y2="1356.91"/><line class="cls-2" x1="326.27" y1="1193.75" x2="325.49" y2="1356.91"/><line class="cls-2" x1="336.27" y1="1193.75" x2="335.49" y2="1356.91"/><line class="cls-2" x1="346.27" y1="1193.75" x2="345.49" y2="1356.91"/><line class="cls-2" x1="356.27" y1="1193.75" x2="355.49" y2="1356.91"/></g><g id="_레이어_x5F_301"><rect class="cls-3" x="723.47" y="107.9" width="314.09" height="592.1"/><text class="cls-5" transform="translate(845.59 370.86)"><tspan x="0" y="0">301</tspan><tspan x="-59.95" y="38.4">현미경실습실</tspan></text></g><g id="_레이어_x5F_302A"><rect class="cls-3" x="390.84" y="107.9" width="332.63" height="592.1"/><text class="cls-5" transform="translate(510.42 374.64)"><tspan x="0" y="0">302A</tspan><tspan x="-74.61" y="38.4">소칠섭국제회의실</tspan></text></g><g id="_레이어_x5F_302B"><rect class="cls-3" x="121.91" y="107.9" width="268.93" height="592.1"/><text class="cls-5" transform="translate(210.15 378.42)"><tspan x="0" y="0">302B</tspan><tspan x="-29.62" y="38.4">교수회의실</tspan></text></g><g id="_레이어_x5F_303"><rect class="cls-3" x="122.19" y="816.95" width="297.63" height="376.8"/><text class="cls-4" transform="translate(239.68 1014.77)"><tspan x="0" y="0">303</tspan><tspan x="-102.52" y="33.6">지구환경과학과행정실</tspan></text></g><g id="_레이어_x5F_304"><rect class="cls-3" x="509.78" y="816.95" width="527.78" height="539.96"/><text class="cls-5" transform="translate(739.08 1053.1)"><tspan x="0" y="0">304</tspan><tspan x="-71.58" y="38.4">지질실험실습실</tspan></text></g><g id="_레이어_x5F_305"><rect class="cls-3" x="1037.56" y="816.95" width="552.89" height="539.96"/><text class="cls-5" transform="translate(1297.61 1056.88)"><tspan x="0" y="0">305</tspan><tspan x="-71.98" y="38.4">환경실험실습실</tspan></text></g></svg>