<?xml version="1.0" encoding="UTF-8"?>
<svg xmlns="http://www.w3.org/2000/svg" version="1.1" viewBox="0 0 4083.1 2452.9">
  <defs>
    <style>
      .cls-1 {
        fill: none;
      }

      .cls-1, .cls-2, .cls-3 {
        stroke: #e38789;
        stroke-miterlimit: 10;
      }

      .cls-1, .cls-3 {
        stroke-width: 3px;
      }

      .cls-4, .cls-5, .cls-6, .cls-7 {
        isolation: isolate;
      }

      .cls-4, .cls-6, .cls-7 {
        fill: #221f20;
        font-family: NanumSquareNeoTTF-dEb, 'NanumSquare Neo';
        font-size: 36px;
      }

      .cls-2 {
        fill: #fcf4f3;
        stroke-width: 10px;
      }

      .cls-6 {
        letter-spacing: 0em;
      }

      .cls-7 {
        letter-spacing: 0em;
      }

      .cls-3 {
        fill: #f4d1d1;
      }
    </style>
  </defs>
  <!-- Generator: Adobe Illustrator 28.6.0, SVG Export Plug-In . SVG Version: 1.2.0 Build 709)  -->
  <g>
    <g id="_x34_">
      <g id="Layer_x5F_border">
        <rect class="cls-2" x="348.8" y="597.5" width="3419" height="1178.4"/>
      </g>
      <g id="Layer_66">
        <rect class="cls-3" x="602" y="595.6" width="250" height="493.2"/>
        <g class="cls-5">
          <text class="cls-7" transform="translate(693.1 805.2)"><tspan x="0" y="0">4</tspan></text>
          <text class="cls-4" transform="translate(718.2 805.2)"><tspan x="0" y="0">15</tspan></text>
          <text class="cls-4" transform="translate(658.8 848.5)"><tspan x="0" y="0">기업경영</tspan></text>
          <text class="cls-4" transform="translate(641.7 891.7)"><tspan x="0" y="0">연구원장실</tspan></text>
        </g>
      </g>
      <g id="Layer_85">
        <rect class="cls-3" x="1820.4" y="1266.4" width="237.9" height="509.6"/>
        <g class="cls-5">
          <text class="cls-4" transform="translate(1900 1495)"><tspan x="0" y="0">408</tspan></text>
          <text class="cls-4" transform="translate(1854 1538.2)"><tspan x="0" y="0">교수연구실</tspan></text>
        </g>
      </g>
      <g id="Layer_86">
        <rect class="cls-3" x="1573.8" y="1266.4" width="246.6" height="509.6"/>
        <g class="cls-5">
          <text class="cls-4" transform="translate(1658.2 1501.5)"><tspan x="0" y="0">409</tspan></text>
          <text class="cls-4" transform="translate(1611.8 1544.7)"><tspan x="0" y="0">교수연구실</tspan></text>
        </g>
      </g>
      <g id="Layer_87">
        <rect class="cls-3" x="1333" y="1266.4" width="240.8" height="509.6"/>
        <g class="cls-5">
          <text class="cls-7" transform="translate(1421 1505.7)"><tspan x="0" y="0">4</tspan></text>
          <text class="cls-4" transform="translate(1446 1505.7)"><tspan x="0" y="0">10</tspan></text>
          <text class="cls-4" transform="translate(1370.3 1548.9)"><tspan x="0" y="0">교수연구실</tspan></text>
        </g>
      </g>
      <g id="Layer_88">
        <rect class="cls-3" x="1090.9" y="1266.4" width="242.2" height="509.6"/>
        <g class="cls-5">
          <text class="cls-7" transform="translate(1181.6 1501.5)"><tspan x="0" y="0">4</tspan></text>
          <text class="cls-4" transform="translate(1206.6 1501.5)"><tspan x="0" y="0">11</tspan></text>
          <text class="cls-4" transform="translate(1126.6 1544.7)"><tspan x="0" y="0">명예교수실</tspan></text>
        </g>
      </g>
      <g id="Layer_89">
        <rect class="cls-3" x="852" y="1266.4" width="238.9" height="509.6"/>
        <g class="cls-5">
          <text class="cls-7" transform="translate(937.6 1501.5)"><tspan x="0" y="0">4</tspan></text>
          <text class="cls-4" transform="translate(962.6 1501.5)"><tspan x="0" y="0">12</tspan></text>
          <text class="cls-4" transform="translate(886.1 1544.7)"><tspan x="0" y="0">교수연구실</tspan></text>
        </g>
      </g>
      <g id="Layer_90">
        <rect class="cls-3" x="602" y="1266.4" width="250" height="509.6"/>
        <g class="cls-5">
          <text class="cls-7" transform="translate(692.8 1505.7)"><tspan x="0" y="0">4</tspan></text>
          <text class="cls-4" transform="translate(717.8 1505.7)"><tspan x="0" y="0">13</tspan></text>
          <text class="cls-4" transform="translate(641.7 1548.9)"><tspan x="0" y="0">교수연구실</tspan></text>
        </g>
      </g>
      <g id="Layer_91">
        <rect class="cls-3" x="348.8" y="1266.4" width="253.3" height="509.6"/>
        <g class="cls-5">
          <text class="cls-7" transform="translate(441.1 1505.8)"><tspan x="0" y="0">4</tspan></text>
          <text class="cls-4" transform="translate(466.1 1505.8)"><tspan x="0" y="0">14</tspan></text>
          <text class="cls-4" transform="translate(373 1549)"><tspan x="0" y="0">여학생휴게실</tspan></text>
        </g>
      </g>
      <g id="Layer_67">
        <rect class="cls-3" x="852" y="595.6" width="238.9" height="493.2"/>
        <g class="cls-5">
          <text class="cls-7" transform="translate(946.5 808.8)"><tspan x="0" y="0">4</tspan></text>
          <text class="cls-4" transform="translate(971.5 808.8)"><tspan x="0" y="0">16</tspan></text>
          <text class="cls-4" transform="translate(942.4 852)"><tspan x="0" y="0">ESG</tspan></text>
          <text class="cls-4" transform="translate(929.5 895.2)"><tspan x="0" y="0">연구원</tspan></text>
        </g>
      </g>
      <g id="Layer_68">
        <rect class="cls-3" x="1090.9" y="595.6" width="729.5" height="493.2"/>
        <g class="cls-5">
          <text class="cls-7" transform="translate(1422.8 816)"><tspan x="0" y="0">4</tspan></text>
          <text class="cls-4" transform="translate(1447.9 816)"><tspan x="0" y="0">17</tspan></text>
          <text class="cls-4" transform="translate(1336.2 859.2)"><tspan x="0" y="0">기업경영연구원</tspan></text>
          <text class="cls-4" transform="translate(1404.4 902.4)"><tspan x="0" y="0">센터실</tspan></text>
        </g>
      </g>
      <g id="Layer_69">
        <rect class="cls-3" x="1820.4" y="755.4" width="153.3" height="265.6"/>
        <g class="cls-5">
          <text class="cls-7" transform="translate(1862.5 846.5)"><tspan x="0" y="0">4</tspan></text>
          <text class="cls-4" transform="translate(1887.5 846.5)"><tspan x="0" y="0">18</tspan></text>
          <text class="cls-4" transform="translate(1836.9 889.7)"><tspan x="0" y="0">복사실/</tspan></text>
          <text class="cls-4" transform="translate(1828.8 932.8)"><tspan x="0" y="0">우편함실</tspan></text>
        </g>
      </g>
      <g id="Layer_70">
        <rect class="cls-3" x="1820.4" y="595.6" width="261.8" height="159.8"/>
        <g class="cls-5">
          <text class="cls-7" transform="translate(1923.1 667.5)"><tspan x="0" y="0">4</tspan></text>
          <text class="cls-4" transform="translate(1948.1 667.5)"><tspan x="0" y="0">19</tspan></text>
          <text class="cls-4" transform="translate(1923.2 710.7)"><tspan x="0" y="0">랜실</tspan></text>
        </g>
      </g>
      <g id="Layer_71">
        <rect class="cls-1" x="2311.7" y="597.5" width="232.6" height="491.3"/>
      </g>
      <g id="Layer_72">
        <rect class="cls-1" x="2544.2" y="597.5" width="236.5" height="491.3"/>
      </g>
      <g id="Layer_73">
        <rect class="cls-3" x="2780.8" y="595.6" width="257.8" height="493.2"/>
        <g class="cls-5">
          <text class="cls-4" transform="translate(2871.9 842.2)"><tspan x="0" y="0">422</tspan></text>
          <text class="cls-4" transform="translate(2807.2 885.4)"><tspan x="0" y="0">정보시스템실</tspan></text>
        </g>
      </g>
      <g id="Layer_74">
        <rect class="cls-3" x="3038.5" y="595.6" width="236.6" height="493.2"/>
        <g class="cls-5">
          <text class="cls-4" transform="translate(3118.7 837.5)"><tspan x="0" y="0">423</tspan></text>
          <text class="cls-4" transform="translate(3111.6 880.7)"><tspan x="0" y="0">M</tspan></text>
          <text class="cls-6" transform="translate(3147.8 880.7)"><tspan x="0" y="0">B</tspan></text>
          <text class="cls-4" transform="translate(3173.8 880.7)"><tspan x="0" y="0">A</tspan></text>
          <text class="cls-4" transform="translate(3088.6 923.9)"><tspan x="0" y="0">학생회실</tspan></text>
        </g>
      </g>
      <g id="Layer_75">
        <rect class="cls-3" x="3275.1" y="595.6" width="256.9" height="493.2"/>
        <g class="cls-5">
          <text class="cls-4" transform="translate(3365.9 842.2)"><tspan x="0" y="0">4</tspan></text>
          <text class="cls-6" transform="translate(3391.7 842.2)"><tspan x="0" y="0">2</tspan></text>
          <text class="cls-4" transform="translate(3415.4 842.2)"><tspan x="0" y="0">4</tspan></text>
          <text class="cls-4" transform="translate(3369.4 885.4)"><tspan x="0" y="0">학부</tspan></text>
          <text class="cls-4" transform="translate(3335.3 928.6)"><tspan x="0" y="0">학생회실</tspan></text>
        </g>
      </g>
      <g id="Layer_76">
        <rect class="cls-3" x="3518" y="1266.4" width="249.8" height="509.6"/>
        <g class="cls-5">
          <text class="cls-4" transform="translate(3614.9 1479.5)"><tspan x="0" y="0">401</tspan></text>
          <text class="cls-4" transform="translate(3594.2 1522.7)"><tspan x="0" y="0">경영대 </tspan></text>
          <text class="cls-4" transform="translate(3615.8 1565.9)"><tspan x="0" y="0">학생</tspan></text>
          <text class="cls-4" transform="translate(3598.7 1609.1)"><tspan x="0" y="0">라운지</tspan></text>
        </g>
      </g>
      <g id="Layer_77">
        <rect class="cls-3" x="3275.1" y="1266.4" width="242.9" height="509.6"/>
        <g class="cls-5">
          <text class="cls-4" transform="translate(3358 1501.4)"><tspan x="0" y="0">402</tspan></text>
          <text class="cls-4" transform="translate(3311.2 1544.6)"><tspan x="0" y="0">교수연구실</tspan></text>
        </g>
      </g>
      <g id="Layer_78">
        <rect class="cls-3" x="3038.5" y="1266.4" width="236.6" height="509.6"/>
        <g class="cls-5">
          <text class="cls-4" transform="translate(3117.9 1479.5)"><tspan x="0" y="0">403</tspan></text>
          <text class="cls-4" transform="translate(3088.5 1522.7)"><tspan x="0" y="0">기업경영</tspan></text>
          <text class="cls-4" transform="translate(3105.6 1565.9)"><tspan x="0" y="0">연구원</tspan></text>
        </g>
      </g>
      <g id="Layer_79">
        <rect class="cls-3" x="2790.7" y="1266.4" width="247.8" height="509.6"/>
        <g class="cls-5">
          <text class="cls-4" transform="translate(2875.6 1497.2)"><tspan x="0" y="0">404</tspan></text>
          <text class="cls-4" transform="translate(2829.3 1540.4)"><tspan x="0" y="0">교수연구실</tspan></text>
        </g>
      </g>
      <g id="Layer_80">
        <rect class="cls-3" x="2544.2" y="1266.4" width="246.5" height="509.6"/>
        <g class="cls-5">
          <text class="cls-4" transform="translate(2628.9 1499.2)"><tspan x="0" y="0">405</tspan></text>
          <text class="cls-4" transform="translate(2582.2 1542.4)"><tspan x="0" y="0">교수연구실</tspan></text>
        </g>
      </g>
      <g id="Layer_81">
        <rect class="cls-3" x="2302.7" y="1266.4" width="241.5" height="509.6"/>
        <g class="cls-5">
          <text class="cls-4" transform="translate(2389 1490.6)"><tspan x="0" y="0">406</tspan></text>
          <text class="cls-4" transform="translate(2325.6 1533.8)"><tspan x="0" y="0">기업지배구조</tspan></text>
          <text class="cls-4" transform="translate(2376.8 1577)"><tspan x="0" y="0">연구소</tspan></text>
        </g>
      </g>
      <g id="Layer_82">
        <rect class="cls-3" x="2058.3" y="1266.4" width="244.4" height="509.6"/>
        <g class="cls-5">
          <text class="cls-4" transform="translate(2143 1499.2)"><tspan x="0" y="0">407</tspan></text>
          <text class="cls-4" transform="translate(2095.2 1542.4)"><tspan x="0" y="0">교수연구실</tspan></text>
        </g>
      </g>
      <g id="Layer_x5F_others">
        <rect class="cls-1" x="348.8" y="597.5" width="253.3" height="491.3"/>
        <g>
          <rect class="cls-1" x="348.8" y="602.1" width="126.6" height="32.5"/>
          <rect class="cls-1" x="348.8" y="634.5" width="126.6" height="33.8"/>
          <rect class="cls-1" x="348.8" y="668.3" width="126.6" height="38.9"/>
          <rect class="cls-1" x="348.8" y="707.2" width="126.6" height="31.2"/>
          <rect class="cls-1" x="348.8" y="738.4" width="126.6" height="38.9"/>
          <rect class="cls-1" x="348.8" y="777.3" width="126.6" height="27.9"/>
          <rect class="cls-1" x="348.8" y="805.2" width="126.6" height="42.2"/>
          <rect class="cls-1" x="348.8" y="847.4" width="126.6" height="38.9"/>
          <rect class="cls-1" x="348.8" y="886.4" width="126.6" height="33.8"/>
          <rect class="cls-1" x="348.8" y="920.1" width="126.6" height="33.8"/>
        </g>
        <g>
          <rect class="cls-1" x="475.4" y="601.5" width="126.6" height="32.5"/>
          <rect class="cls-1" x="475.4" y="633.9" width="126.6" height="33.8"/>
          <rect class="cls-1" x="475.4" y="667.7" width="126.6" height="38.9"/>
          <rect class="cls-1" x="475.4" y="706.6" width="126.6" height="31.2"/>
          <rect class="cls-1" x="475.4" y="737.8" width="126.6" height="38.9"/>
          <rect class="cls-1" x="475.4" y="776.7" width="126.6" height="27.9"/>
          <rect class="cls-1" x="475.4" y="804.6" width="126.6" height="42.2"/>
          <rect class="cls-1" x="475.4" y="846.8" width="126.6" height="38.9"/>
          <rect class="cls-1" x="475.4" y="885.7" width="126.6" height="33.8"/>
          <rect class="cls-1" x="475.4" y="919.5" width="126.6" height="33.8"/>
        </g>
        <rect class="cls-1" x="1973.8" y="755.4" width="187.9" height="265.6"/>
        <rect class="cls-3" x="1973.8" y="875" width="187.9" height="146.1"/>
        <rect class="cls-1" x="3532" y="597.5" width="235.8" height="491.3"/>
        <g>
          <rect class="cls-1" x="3530.4" y="597.5" width="116.1" height="34"/>
          <rect class="cls-1" x="3530.4" y="631.5" width="116.1" height="35.3"/>
          <rect class="cls-1" x="3530.4" y="666.8" width="116.1" height="40.8"/>
          <rect class="cls-1" x="3530.4" y="707.6" width="116.1" height="32.6"/>
          <rect class="cls-1" x="3530.4" y="740.2" width="116.1" height="40.8"/>
          <rect class="cls-1" x="3530.4" y="781" width="116.1" height="29.2"/>
          <rect class="cls-1" x="3530.4" y="810.2" width="116.1" height="44.2"/>
          <rect class="cls-1" x="3530.4" y="854.3" width="116.1" height="40.8"/>
          <rect class="cls-1" x="3530.4" y="895.1" width="116.1" height="35.3"/>
          <rect class="cls-1" x="3530.4" y="930.4" width="116.1" height="35.3"/>
        </g>
        <g>
          <rect class="cls-1" x="3649.9" y="597.5" width="116.1" height="34"/>
          <rect class="cls-1" x="3649.9" y="631.5" width="116.1" height="35.3"/>
          <rect class="cls-1" x="3649.9" y="666.8" width="116.1" height="40.8"/>
          <rect class="cls-1" x="3649.9" y="707.6" width="116.1" height="32.6"/>
          <rect class="cls-1" x="3649.9" y="740.2" width="116.1" height="40.8"/>
          <rect class="cls-1" x="3649.9" y="781" width="116.1" height="29.2"/>
          <rect class="cls-1" x="3649.9" y="810.2" width="116.1" height="44.2"/>
          <rect class="cls-1" x="3649.9" y="854.3" width="116.1" height="40.8"/>
          <rect class="cls-1" x="3649.9" y="895.1" width="116.1" height="35.3"/>
          <rect class="cls-1" x="3649.9" y="930.4" width="116.1" height="35.3"/>
        </g>
      </g>
    </g>
  </g>
</svg>