<?xml version="1.0" encoding="UTF-8"?><svg xmlns="http://www.w3.org/2000/svg" viewBox="0 0 1404 1080"><g id="Layer_border"><rect x="340.5" y="929.5" width="158" height="52" fill="#fdf3f2" stroke="#e18686" stroke-miterlimit="10" stroke-width="5"/><rect x="1153.5" y="204.5" width="45" height="176" fill="#fdf3f2" stroke="#e18686" stroke-miterlimit="10" stroke-width="5.98"/><path d="m921.5,140.5h-493l-3.02.98-15.5,15.5-26-26-56.16,56.16-11.22-9.64c-6.72,6.72-13.45,13.45-20.17,20.17l-20.17,20.17,9.64,11.22-61.41,61.41,26,26-19.5,19.5c.12,13.17.24,26.34.36,39.52h.15v554h289v-463.97l57.03-57.03h575.97V140.5h-232Z" fill="#fdf3f2" stroke="#e18686" stroke-miterlimit="10" stroke-width="5"/></g><g id="Layer_others"><line x1="391.57" y1="243.6" x2="417.4" y2="269.43" fill="none" stroke="#e18686" stroke-miterlimit="10" stroke-width="2"/><line x1="394.94" y1="240.24" x2="420.76" y2="266.07" fill="none" stroke="#e18686" stroke-miterlimit="10" stroke-width="2"/><line x1="398.3" y1="236.88" x2="424.13" y2="262.7" fill="none" stroke="#e18686" stroke-miterlimit="10" stroke-width="2"/><line x1="401.66" y1="233.51" x2="427.49" y2="259.34" fill="none" stroke="#e18686" stroke-miterlimit="10" stroke-width="2"/><line x1="405.03" y1="230.15" x2="430.85" y2="255.98" fill="none" stroke="#e18686" stroke-miterlimit="10" stroke-width="2"/><line x1="408.39" y1="226.78" x2="434.22" y2="252.61" fill="none" stroke="#e18686" stroke-miterlimit="10" stroke-width="2"/><line x1="411.75" y1="223.42" x2="437.58" y2="249.25" fill="none" stroke="#e18686" stroke-miterlimit="10" stroke-width="2"/><line x1="415.12" y1="220.06" x2="440.94" y2="245.88" fill="none" stroke="#e18686" stroke-miterlimit="10" stroke-width="2"/><rect x="395.16" y="226.55" width="42.09" height="36.52" transform="translate(-51.2 366.01) rotate(-45)" fill="none" stroke="#e18686" stroke-miterlimit="10" stroke-width="2"/><line x1="415" y1="212.45" x2="440.83" y2="186.62" fill="none" stroke="#e18686" stroke-miterlimit="10" stroke-width="2"/><line x1="411.64" y1="209.08" x2="437.46" y2="183.26" fill="none" stroke="#e18686" stroke-miterlimit="10" stroke-width="2"/><line x1="408.27" y1="205.72" x2="434.1" y2="179.89" fill="none" stroke="#e18686" stroke-miterlimit="10" stroke-width="2"/><line x1="404.91" y1="202.36" x2="430.73" y2="176.53" fill="none" stroke="#e18686" stroke-miterlimit="10" stroke-width="2"/><line x1="401.54" y1="198.99" x2="427.37" y2="173.17" fill="none" stroke="#e18686" stroke-miterlimit="10" stroke-width="2"/><line x1="398.18" y1="195.63" x2="424.01" y2="169.8" fill="none" stroke="#e18686" stroke-miterlimit="10" stroke-width="2"/><line x1="394.82" y1="192.26" x2="420.64" y2="166.44" fill="none" stroke="#e18686" stroke-miterlimit="10" stroke-width="2"/><line x1="391.45" y1="188.9" x2="417.28" y2="163.07" fill="none" stroke="#e18686" stroke-miterlimit="10" stroke-width="2"/><rect x="395.16" y="169.55" width="42.09" height="36.52" transform="translate(577.71 614.92) rotate(-135)" fill="none" stroke="#e18686" stroke-miterlimit="10" stroke-width="2"/><line x1="383.84" y1="189.02" x2="358.02" y2="163.19" fill="none" stroke="#e18686" stroke-miterlimit="10" stroke-width="2"/><line x1="380.48" y1="192.38" x2="354.65" y2="166.56" fill="none" stroke="#e18686" stroke-miterlimit="10" stroke-width="2"/><line x1="377.12" y1="195.75" x2="351.29" y2="169.92" fill="none" stroke="#e18686" stroke-miterlimit="10" stroke-width="2"/><line x1="373.75" y1="199.11" x2="347.92" y2="173.28" fill="none" stroke="#e18686" stroke-miterlimit="10" stroke-width="2"/><line x1="370.39" y1="202.47" x2="344.56" y2="176.65" fill="none" stroke="#e18686" stroke-miterlimit="10" stroke-width="2"/><line x1="367.02" y1="205.84" x2="341.2" y2="180.01" fill="none" stroke="#e18686" stroke-miterlimit="10" stroke-width="2"/><line x1="363.66" y1="209.2" x2="337.83" y2="183.37" fill="none" stroke="#e18686" stroke-miterlimit="10" stroke-width="2"/><line x1="360.3" y1="212.56" x2="334.47" y2="186.74" fill="none" stroke="#e18686" stroke-miterlimit="10" stroke-width="2"/><rect x="338.16" y="169.55" width="42.09" height="36.52" transform="translate(746.01 66.62) rotate(135)" fill="none" stroke="#e18686" stroke-miterlimit="10" stroke-width="2"/><rect x="265" y="272" width="38" height="38" transform="translate(-122.59 286.05) rotate(-45)" fill="none" stroke="#e18686" stroke-miterlimit="10" stroke-width="2"/><rect x="306.84" y="306.41" width="30.31" height="30.31" transform="translate(-133.07 321.87) rotate(-45)" fill="none" stroke="#e18686" stroke-miterlimit="10" stroke-width="2"/><line x1="400" y1="930" x2="400" y2="981" fill="none" stroke="#e18686" stroke-miterlimit="10" stroke-width="2"/><line x1="410.29" y1="930" x2="410.29" y2="981" fill="none" stroke="#e18686" stroke-miterlimit="10" stroke-width="2"/><line x1="420.57" y1="930" x2="420.57" y2="981" fill="none" stroke="#e18686" stroke-miterlimit="10" stroke-width="2"/><line x1="430.86" y1="930" x2="430.86" y2="981" fill="none" stroke="#e18686" stroke-miterlimit="10" stroke-width="2"/><line x1="441.14" y1="930" x2="441.14" y2="981" fill="none" stroke="#e18686" stroke-miterlimit="10" stroke-width="2"/><line x1="451.43" y1="930" x2="451.43" y2="981" fill="none" stroke="#e18686" stroke-miterlimit="10" stroke-width="2"/><line x1="461.71" y1="930" x2="461.71" y2="981" fill="none" stroke="#e18686" stroke-miterlimit="10" stroke-width="2"/><line x1="472" y1="930" x2="472" y2="981" fill="none" stroke="#e18686" stroke-miterlimit="10" stroke-width="2"/><line x1="1197.43" y1="255.11" x2="1154" y2="255.11" fill="none" stroke="#e18686" stroke-miterlimit="10" stroke-width="2"/><line x1="1197.43" y1="265.4" x2="1154" y2="265.4" fill="none" stroke="#e18686" stroke-miterlimit="10" stroke-width="2"/><line x1="1197.43" y1="275.68" x2="1154" y2="275.68" fill="none" stroke="#e18686" stroke-miterlimit="10" stroke-width="2"/><line x1="1197.43" y1="285.97" x2="1154" y2="285.97" fill="none" stroke="#e18686" stroke-miterlimit="10" stroke-width="2"/><line x1="1197.43" y1="296.25" x2="1154" y2="296.25" fill="none" stroke="#e18686" stroke-miterlimit="10" stroke-width="2"/><line x1="1197.43" y1="306.54" x2="1154" y2="306.54" fill="none" stroke="#e18686" stroke-miterlimit="10" stroke-width="2"/><line x1="1197.43" y1="316.83" x2="1154" y2="316.83" fill="none" stroke="#e18686" stroke-miterlimit="10" stroke-width="2"/><line x1="1197.43" y1="327.11" x2="1154" y2="327.11" fill="none" stroke="#e18686" stroke-miterlimit="10" stroke-width="2"/><line x1="788" y1="317" x2="788" y2="406" fill="none" stroke="#e18686" stroke-miterlimit="10" stroke-width="2"/><line x1="788" y1="327" x2="851" y2="327" fill="none" stroke="#e18686" stroke-miterlimit="10" stroke-width="2"/><line x1="788" y1="333" x2="851" y2="333" fill="none" stroke="#e18686" stroke-miterlimit="10" stroke-width="2"/><line x1="788" y1="339" x2="851" y2="339" fill="none" stroke="#e18686" stroke-miterlimit="10" stroke-width="2"/><line x1="788" y1="345" x2="851" y2="345" fill="none" stroke="#e18686" stroke-miterlimit="10" stroke-width="2"/><line x1="788" y1="351" x2="851" y2="351" fill="none" stroke="#e18686" stroke-miterlimit="10" stroke-width="2"/><line x1="788" y1="357" x2="851" y2="357" fill="none" stroke="#e18686" stroke-miterlimit="10" stroke-width="2"/><line x1="788" y1="363" x2="851" y2="363" fill="none" stroke="#e18686" stroke-miterlimit="10" stroke-width="2"/><line x1="788" y1="369" x2="851" y2="369" fill="none" stroke="#e18686" stroke-miterlimit="10" stroke-width="2"/><line x1="788" y1="375" x2="851" y2="375" fill="none" stroke="#e18686" stroke-miterlimit="10" stroke-width="2"/><line x1="788" y1="381" x2="851" y2="381" fill="none" stroke="#e18686" stroke-miterlimit="10" stroke-width="2"/><line x1="788" y1="387" x2="851" y2="387" fill="none" stroke="#e18686" stroke-miterlimit="10" stroke-width="2"/><line x1="788" y1="393" x2="851" y2="393" fill="none" stroke="#e18686" stroke-miterlimit="10" stroke-width="2"/></g><g id="Layer_toilet1"><polygon points="516.5 142.5 516.5 222.49 487.25 222.49 487.25 282 458 282 458 222.49 458 142.5 516.5 142.5" fill="none" stroke="#e18686" stroke-miterlimit="10" stroke-width="1.97"/></g><g id="Layer_406"><rect x="418" y="870" width="100" height="56" fill="#f8cdce" stroke="#e18686" stroke-miterlimit="10" stroke-width="2"/><text transform="translate(443.67 904.09)" fill="#434142" font-family="NanumSquareNeovariable-Heavy, &apos;NanumSquare Neo variable&apos;" font-size="22" font-variation-settings="&apos;wght&apos; 900" font-weight="800"><tspan x="0" y="0">406</tspan></text></g><g id="Layer_407"><rect x="418" y="812" width="100" height="61" fill="#f8cdce" stroke="#e18686" stroke-miterlimit="10" stroke-width="2"/><text transform="translate(444.66 849.09)" fill="#434142" font-family="NanumSquareNeovariable-Heavy, &apos;NanumSquare Neo variable&apos;" font-size="22" font-variation-settings="&apos;wght&apos; 900" font-weight="800"><tspan x="0" y="0">407</tspan></text></g><g id="Layer_408"><rect x="418" y="751" width="100" height="61" fill="#f8cdce" stroke="#e18686" stroke-miterlimit="10" stroke-width="2"/><text transform="translate(443.46 788.09)" fill="#434142" font-family="NanumSquareNeovariable-Heavy, &apos;NanumSquare Neo variable&apos;" font-size="22" font-variation-settings="&apos;wght&apos; 900" font-weight="800"><tspan x="0" y="0">408</tspan></text></g><g id="Layer_409"><rect x="418" y="697" width="100" height="54" fill="#f8cdce" stroke="#e18686" stroke-miterlimit="10" stroke-width="2"/><text transform="translate(443.67 729.09)" fill="#434142" font-family="NanumSquareNeovariable-Heavy, &apos;NanumSquare Neo variable&apos;" font-size="22" font-variation-settings="&apos;wght&apos; 900" font-weight="800"><tspan x="0" y="0">409</tspan></text></g><g id="Layer_410"><rect x="418" y="644" width="100" height="54" fill="#f8cdce" stroke="#e18686" stroke-miterlimit="10" stroke-width="2"/><text transform="translate(446.17 676.09)" fill="#434142" font-family="NanumSquareNeovariable-Heavy, &apos;NanumSquare Neo variable&apos;" font-size="22" font-variation-settings="&apos;wght&apos; 900" font-weight="800"><tspan x="0" y="0" letter-spacing="-.02em">4</tspan><tspan x="15.31" y="0" letter-spacing="0em">10</tspan></text></g><g id="Layer_411"><rect x="418" y="467" width="100" height="178" fill="#f8cdce" stroke="#e18686" stroke-miterlimit="10" stroke-width="2"/><text transform="translate(448.72 564.09)" fill="#434142" font-family="NanumSquareNeovariable-Heavy, &apos;NanumSquare Neo variable&apos;" font-size="22" font-variation-settings="&apos;wght&apos; 900" font-weight="800"><tspan x="0" y="0" letter-spacing="-.02em">4</tspan><tspan x="15.31" y="0" letter-spacing="0em">11</tspan></text></g><g id="Layer_412"><polygon points="456.54 320 418 357.05 418 468 515.67 468 576 410 576 320 456.54 320" fill="#f8cdce" stroke="#e18686" stroke-miterlimit="10" stroke-width="2"/><text transform="translate(474.24 395.9)" fill="#434142" font-family="NanumSquareNeovariable-Heavy, &apos;NanumSquare Neo variable&apos;" font-size="22" font-variation-settings="&apos;wght&apos; 900" font-weight="800"><tspan x="0" y="0" letter-spacing="-.02em">4</tspan><tspan x="15.31" y="0" letter-spacing="0em">12</tspan></text></g><g id="Layer_413"><rect x="577" y="320" width="53" height="86" fill="#f8cdce" stroke="#e18686" stroke-miterlimit="10" stroke-width="2"/><text transform="translate(582.32 368.65)" fill="#434142" font-family="NanumSquareNeovariable-Heavy, &apos;NanumSquare Neo variable&apos;" font-size="22" font-variation-settings="&apos;wght&apos; 900" font-weight="800"><tspan x="0" y="0" letter-spacing="-.02em">4</tspan><tspan x="15.31" y="0" letter-spacing="0em">13</tspan></text></g><g id="Layer_414"><rect x="627" y="320" width="53" height="86" fill="#f8cdce" stroke="#e18686" stroke-miterlimit="10" stroke-width="2"/><text transform="translate(632.38 368.65)" fill="#434142" font-family="NanumSquareNeovariable-Heavy, &apos;NanumSquare Neo variable&apos;" font-size="22" font-variation-settings="&apos;wght&apos; 900" font-weight="800"><tspan x="0" y="0" letter-spacing="-.02em">4</tspan><tspan x="15.31" y="0" letter-spacing="0em">14</tspan></text></g><g id="Layer_415"><rect x="680" y="320" width="53" height="86" fill="#f8cdce" stroke="#e18686" stroke-miterlimit="10" stroke-width="2"/><text transform="translate(685.57 368.65)" fill="#434142" font-family="NanumSquareNeovariable-Heavy, &apos;NanumSquare Neo variable&apos;" font-size="22" font-variation-settings="&apos;wght&apos; 900" font-weight="800"><tspan x="0" y="0" letter-spacing="-.02em">4</tspan><tspan x="15.31" y="0" letter-spacing="0em">15</tspan></text></g><g id="Layer_415A"><rect x="733" y="327" width="53" height="79" fill="#f8cdce" stroke="#e18686" stroke-miterlimit="10" stroke-width="2"/><text transform="translate(737.91 368.65)" fill="#434142" font-family="NanumSquareNeovariable-Heavy, &apos;NanumSquare Neo variable&apos;" font-size="16" font-variation-settings="&apos;wght&apos; 900" font-weight="800"><tspan x="0" y="0" letter-spacing="-.02em">4</tspan><tspan x="11.14" y="0">15A</tspan></text></g><g id="Layer_416"><rect x="851" y="143" width="300" height="263" fill="#f8cdce" stroke="#e18686" stroke-miterlimit="10" stroke-width="2"/><text transform="translate(979.74 280.34)" fill="#434142" font-family="NanumSquareNeovariable-Heavy, &apos;NanumSquare Neo variable&apos;" font-size="22" font-variation-settings="&apos;wght&apos; 900" font-weight="800"><tspan x="0" y="0" letter-spacing="-.02em">4</tspan><tspan x="15.31" y="0" letter-spacing="0em">16</tspan></text></g><g id="Layer_417"><rect x="682" y="143" width="120" height="139" fill="#f8cdce" stroke="#e18686" stroke-miterlimit="10" stroke-width="2"/><text transform="translate(722.07 214.43)" fill="#434142" font-family="NanumSquareNeovariable-Heavy, &apos;NanumSquare Neo variable&apos;" font-size="22" font-variation-settings="&apos;wght&apos; 900" font-weight="800"><tspan x="0" y="0" letter-spacing="-.02em">4</tspan><tspan x="15.31" y="0" letter-spacing="0em">17</tspan></text></g><g id="Layer_418"><rect x="577" y="143" width="105" height="139" transform="translate(1259 425) rotate(180)" fill="#f8cdce" stroke="#e18686" stroke-miterlimit="10" stroke-width="2"/><text transform="translate(608.87 195.43)" fill="#434142" font-family="NanumSquareNeovariable-Heavy, &apos;NanumSquare Neo variable&apos;" font-size="22" font-variation-settings="&apos;wght&apos; 900" font-weight="800"><tspan x="0" y="0" letter-spacing="-.02em">4</tspan><tspan x="15.31" y="0" letter-spacing="0em">18</tspan></text><rect x="577" y="220" width="105" height="62" transform="translate(1259 502) rotate(180)" fill="#f8cdce" stroke="#e18686" stroke-miterlimit="10" stroke-width="2"/></g><g id="Layer_401"><rect x="233" y="350" width="142" height="120" fill="#f8cdce" stroke="#e18686" stroke-miterlimit="10" stroke-width="2"/><text transform="translate(281.94 414.74)" fill="#434142" font-family="NanumSquareNeovariable-Heavy, &apos;NanumSquare Neo variable&apos;" font-size="22" font-variation-settings="&apos;wght&apos; 900" font-weight="800"><tspan x="0" y="0">401</tspan></text></g><g id="Layer_402"><rect x="233" y="470" width="142" height="112" fill="#f8cdce" stroke="#e18686" stroke-miterlimit="10" stroke-width="2"/><text transform="translate(279.9 532.74)" fill="#434142" font-family="NanumSquareNeovariable-Heavy, &apos;NanumSquare Neo variable&apos;" font-size="22" font-variation-settings="&apos;wght&apos; 900" font-weight="800"><tspan x="0" y="0">402</tspan></text></g><g id="Layer_403"><rect x="233" y="582" width="142" height="112" fill="#f8cdce" stroke="#e18686" stroke-miterlimit="10" stroke-width="2"/><text transform="translate(279.65 644.74)" fill="#434142" font-family="NanumSquareNeovariable-Heavy, &apos;NanumSquare Neo variable&apos;" font-size="22" font-variation-settings="&apos;wght&apos; 900" font-weight="800"><tspan x="0" y="0">403</tspan></text></g><g id="Layer_404"><rect x="233" y="694" width="142" height="119" fill="#f8cdce" stroke="#e18686" stroke-miterlimit="10" stroke-width="2"/><text transform="translate(279.71 757.74)" fill="#434142" font-family="NanumSquareNeovariable-Heavy, &apos;NanumSquare Neo variable&apos;" font-size="22" font-variation-settings="&apos;wght&apos; 900" font-weight="800"><tspan x="0" y="0">404</tspan></text></g><g id="Layer_405"><rect x="233" y="813" width="142" height="114" fill="#f8cdce" stroke="#e18686" stroke-miterlimit="10" stroke-width="2"/><text transform="translate(279.9 876.74)" fill="#434142" font-family="NanumSquareNeovariable-Heavy, &apos;NanumSquare Neo variable&apos;" font-size="22" font-variation-settings="&apos;wght&apos; 900" font-weight="800"><tspan x="0" y="0">405</tspan></text></g><g id="Layer_toilet2"><polygon points="516.5 142.5 516.5 222.49 546.5 222.49 546.5 282 576.5 282 576.5 222.49 576.5 142.5 516.5 142.5" fill="none" stroke="#e18686" stroke-miterlimit="10" stroke-width="2"/></g></svg>