<?xml version="1.0" encoding="UTF-8"?><svg xmlns="http://www.w3.org/2000/svg" viewBox="0 0 1920 1080"><g id="Layer_border"><polygon points="1499.46 817 1430.64 770 484.86 770 416.04 817 74.5 817 74.5 192 419.5 192 419.5 471 729.5 471 729.5 418 1186 418 1186 471 1496 471 1496 192 1841 192 1841 817 1499.46 817" fill="#fdf3f2"/><path d="m1836,197v615h-335c-22.94-15.67-45.88-31.33-68.82-47H483.32c-22.94,15.67-45.88,31.33-68.82,47H79.5V197h335v279h320v-53h446.5v53h320V197h335m10-10h-355v279h-300v-53h-466.5v53h-300V187H69.5v635h348.09l2.55-1.74,19.87-13.57,46.4-31.69h942.69l11.99,8.19,54.28,37.07,2.55,1.74h348.09V187h0Z" fill="#e18686"/><line x1="1548" y1="595" x2="1500" y2="595" fill="none" stroke="#e18686" stroke-miterlimit="10" stroke-width="3"/><line x1="1837" y1="321.5" x2="1773" y2="321.5" fill="none" stroke="#e18686" stroke-miterlimit="10" stroke-width="3"/><line x1="907.5" y1="492.5" x2="1005.5" y2="492.5" fill="none" stroke="#e18686" stroke-miterlimit="10" stroke-width="3"/><polygon points="400.5 636.5 400.5 673 378.5 673 378.5 776 415.5 776 415.5 680.5 415.5 673 415.5 636.5 400.5 636.5" fill="none" stroke="#e18686" stroke-miterlimit="10" stroke-width="3"/></g><g id="Layer_others"><rect x="1005.5" y="421.5" width="47" height="126" fill="none" stroke="#e18686" stroke-miterlimit="10" stroke-width="3"/><rect x="1135.5" y="421.5" width="47" height="126" fill="none" stroke="#e18686" stroke-miterlimit="10" stroke-width="3"/><rect x="415.5" y="636.5" width="52" height="140" fill="none" stroke="#e18686" stroke-miterlimit="10" stroke-width="3"/><line x1="415.5" y1="600.5" x2="415.5" y2="812.5" fill="none" stroke="#e18686" stroke-miterlimit="10" stroke-width="3"/><path d="m415.5,611.5c-17.67,26.67-35.33,53.33-53,80v8" fill="none" stroke="#e18686" stroke-miterlimit="10" stroke-width="3"/><rect x="78.5" y="196.5" width="337" height="121" fill="none" stroke="#e18686" stroke-miterlimit="10" stroke-width="3"/><polygon points="133.5 196.5 78.5 196.5 78.5 241.5 78.5 248.5 78.5 287.5 106.5 287.5 106.5 248.5 133.5 248.5 133.5 196.5" fill="none" stroke="#e18686" stroke-miterlimit="10" stroke-width="3"/><line x1="132" y1="231" x2="80" y2="231" fill="none" stroke="#e18686" stroke-miterlimit="10" stroke-width="3"/><line x1="132" y1="236.33" x2="80" y2="236.33" fill="none" stroke="#e18686" stroke-miterlimit="10" stroke-width="3"/><line x1="132" y1="241.67" x2="80" y2="241.67" fill="none" stroke="#e18686" stroke-miterlimit="10" stroke-width="3"/><line x1="132" y1="247" x2="80" y2="247" fill="none" stroke="#e18686" stroke-miterlimit="10" stroke-width="3"/><line x1="105.5" y1="252.33" x2="80" y2="252.33" fill="none" stroke="#e18686" stroke-miterlimit="10" stroke-width="3"/><line x1="105.5" y1="257.67" x2="80" y2="257.67" fill="none" stroke="#e18686" stroke-miterlimit="10" stroke-width="3"/><line x1="105.5" y1="263" x2="80" y2="263" fill="none" stroke="#e18686" stroke-miterlimit="10" stroke-width="3"/><line x1="105.5" y1="268.33" x2="80" y2="268.33" fill="none" stroke="#e18686" stroke-miterlimit="10" stroke-width="3"/><line x1="105.5" y1="273.67" x2="80" y2="273.67" fill="none" stroke="#e18686" stroke-miterlimit="10" stroke-width="3"/><line x1="105.5" y1="279" x2="80" y2="279" fill="none" stroke="#e18686" stroke-miterlimit="10" stroke-width="3"/><polygon points="360.5 196.5 415.5 196.5 415.5 241.5 415.5 248.5 415.5 287.5 387.5 287.5 387.5 248.5 360.5 248.5 360.5 196.5" fill="none" stroke="#e18686" stroke-miterlimit="10" stroke-width="3"/><line x1="362" y1="231" x2="414" y2="231" fill="none" stroke="#e18686" stroke-miterlimit="10" stroke-width="3"/><line x1="362" y1="236.33" x2="414" y2="236.33" fill="none" stroke="#e18686" stroke-miterlimit="10" stroke-width="3"/><line x1="362" y1="241.67" x2="414" y2="241.67" fill="none" stroke="#e18686" stroke-miterlimit="10" stroke-width="3"/><line x1="362" y1="247" x2="414" y2="247" fill="none" stroke="#e18686" stroke-miterlimit="10" stroke-width="3"/><line x1="388.5" y1="252.33" x2="414" y2="252.33" fill="none" stroke="#e18686" stroke-miterlimit="10" stroke-width="3"/><line x1="388.5" y1="257.67" x2="414" y2="257.67" fill="none" stroke="#e18686" stroke-miterlimit="10" stroke-width="3"/><line x1="388.5" y1="263" x2="414" y2="263" fill="none" stroke="#e18686" stroke-miterlimit="10" stroke-width="3"/><line x1="388.5" y1="268.33" x2="414" y2="268.33" fill="none" stroke="#e18686" stroke-miterlimit="10" stroke-width="3"/><line x1="388.5" y1="273.67" x2="414" y2="273.67" fill="none" stroke="#e18686" stroke-miterlimit="10" stroke-width="3"/><line x1="388.5" y1="279" x2="414" y2="279" fill="none" stroke="#e18686" stroke-miterlimit="10" stroke-width="3"/><path d="m75.5,611c17.67,26.67,35.33,53.33,53,80v8" fill="none" stroke="#e18686" stroke-miterlimit="10" stroke-width="3"/><rect x="1431.5" y="636.5" width="74.5" height="128" fill="none" stroke="#e18686" stroke-miterlimit="10" stroke-width="2.94"/><line x1="1431.5" y1="692.5" x2="1505.5" y2="692.5" fill="none" stroke="#e18686" stroke-miterlimit="10" stroke-width="2.94"/><line x1="1431.5" y1="702.5" x2="1505.5" y2="702.5" fill="none" stroke="#e18686" stroke-miterlimit="10" stroke-width="2.94"/><line x1="1431.5" y1="712.5" x2="1505.5" y2="712.5" fill="none" stroke="#e18686" stroke-miterlimit="10" stroke-width="2.94"/><line x1="1431.5" y1="722.5" x2="1505.5" y2="722.5" fill="none" stroke="#e18686" stroke-miterlimit="10" stroke-width="2.94"/><line x1="1431.5" y1="732.5" x2="1505.5" y2="732.5" fill="none" stroke="#e18686" stroke-miterlimit="10" stroke-width="2.94"/><line x1="1431.5" y1="742.5" x2="1505.5" y2="742.5" fill="none" stroke="#e18686" stroke-miterlimit="10" stroke-width="2.94"/><line x1="1431.5" y1="752.5" x2="1505.5" y2="752.5" fill="none" stroke="#e18686" stroke-miterlimit="10" stroke-width="2.94"/><line x1="417" y1="704.5" x2="467" y2="704.5" fill="none" stroke="#e18686" stroke-miterlimit="10" stroke-width="3"/><line x1="417" y1="714.5" x2="467" y2="714.5" fill="none" stroke="#e18686" stroke-miterlimit="10" stroke-width="3"/><line x1="417" y1="724.5" x2="467" y2="724.5" fill="none" stroke="#e18686" stroke-miterlimit="10" stroke-width="3"/><line x1="417" y1="734.5" x2="467" y2="734.5" fill="none" stroke="#e18686" stroke-miterlimit="10" stroke-width="3"/><line x1="417" y1="744.5" x2="467" y2="744.5" fill="none" stroke="#e18686" stroke-miterlimit="10" stroke-width="3"/><line x1="417" y1="754.5" x2="467" y2="754.5" fill="none" stroke="#e18686" stroke-miterlimit="10" stroke-width="3"/><line x1="417" y1="764.5" x2="467" y2="764.5" fill="none" stroke="#e18686" stroke-miterlimit="10" stroke-width="3"/><line x1="911" y1="441" x2="1005" y2="441" fill="none" stroke="#e18686" stroke-miterlimit="10" stroke-width="3"/><line x1="911" y1="448.08" x2="1005" y2="448.08" fill="none" stroke="#e18686" stroke-miterlimit="10" stroke-width="3"/><line x1="911" y1="455.17" x2="1005" y2="455.17" fill="none" stroke="#e18686" stroke-miterlimit="10" stroke-width="3"/><line x1="911" y1="462.25" x2="1005" y2="462.25" fill="none" stroke="#e18686" stroke-miterlimit="10" stroke-width="3"/><line x1="911" y1="469.33" x2="1005" y2="469.33" fill="none" stroke="#e18686" stroke-miterlimit="10" stroke-width="3"/><line x1="911" y1="476.42" x2="1005" y2="476.42" fill="none" stroke="#e18686" stroke-miterlimit="10" stroke-width="3"/><line x1="911" y1="483.5" x2="1005" y2="483.5" fill="none" stroke="#e18686" stroke-miterlimit="10" stroke-width="3"/><line x1="1773" y1="240.5" x2="1838" y2="240.5" fill="none" stroke="#e18686" stroke-miterlimit="10" stroke-width="2.75"/><line x1="1773" y1="250.5" x2="1838" y2="250.5" fill="none" stroke="#e18686" stroke-miterlimit="10" stroke-width="2.75"/><line x1="1773" y1="260.5" x2="1838" y2="260.5" fill="none" stroke="#e18686" stroke-miterlimit="10" stroke-width="2.75"/><line x1="1773" y1="270.5" x2="1838" y2="270.5" fill="none" stroke="#e18686" stroke-miterlimit="10" stroke-width="2.75"/><line x1="1773" y1="280.5" x2="1838" y2="280.5" fill="none" stroke="#e18686" stroke-miterlimit="10" stroke-width="2.75"/><line x1="1773" y1="290.5" x2="1838" y2="290.5" fill="none" stroke="#e18686" stroke-miterlimit="10" stroke-width="2.75"/><line x1="1773" y1="300.5" x2="1838" y2="300.5" fill="none" stroke="#e18686" stroke-miterlimit="10" stroke-width="2.75"/><rect x="1012.5" y="433.5" width="33.5" height="27" fill="none" stroke="#e18686" stroke-miterlimit="10" stroke-width="2.98"/><rect x="1012.5" y="469.5" width="33.5" height="27" fill="none" stroke="#e18686" stroke-miterlimit="10" stroke-width="2.98"/><rect x="1012.5" y="505.5" width="33.5" height="27" fill="none" stroke="#e18686" stroke-miterlimit="10" stroke-width="2.98"/><rect x="1142.5" y="433.5" width="33.5" height="27" fill="none" stroke="#e18686" stroke-miterlimit="10" stroke-width="2.98"/><rect x="1142.5" y="469.5" width="33.5" height="27" fill="none" stroke="#e18686" stroke-miterlimit="10" stroke-width="2.98"/><rect x="1142.5" y="505.5" width="33.5" height="27" fill="none" stroke="#e18686" stroke-miterlimit="10" stroke-width="2.98"/></g><g id="Layer_623"><rect x="1182.5" y="475.5" width="94" height="120" fill="#f8cdce" stroke="#e18686" stroke-miterlimit="10" stroke-width="3"/><text transform="translate(1204.33 541.47)" fill="#434142" font-family="NanumSquareNeovariable-Heavy, &apos;NanumSquare Neo variable&apos;" font-size="22" font-variation-settings="&apos;wght&apos; 900" font-weight="800"><tspan x="0" y="0">623</tspan></text></g><g id="Layer_622"><rect x="1276.5" y="475.5" width="112" height="120" transform="translate(2665 1071) rotate(180)" fill="#f8cdce" stroke="#e18686" stroke-miterlimit="10" stroke-width="3"/><text transform="translate(1309.6 541.27)" fill="#434142" font-family="NanumSquareNeovariable-Heavy, &apos;NanumSquare Neo variable&apos;" font-size="22" font-variation-settings="&apos;wght&apos; 900" font-weight="800"><tspan x="0" y="0">622</tspan></text></g><g id="Layer_621"><rect x="1388.5" y="475.5" width="111" height="120" fill="#f8cdce" stroke="#e18686" stroke-miterlimit="10" stroke-width="3"/><text transform="translate(1422.64 541.27)" fill="#434142" font-family="NanumSquareNeovariable-Heavy, &apos;NanumSquare Neo variable&apos;" font-size="22" font-variation-settings="&apos;wght&apos; 900" font-weight="800"><tspan x="0" y="0">621</tspan></text></g><g id="Layer_620"><rect x="1547.5" y="488" width="66" height="107.5" transform="translate(3161 1083.5) rotate(180)" fill="#f8cdce" stroke="#e18686" stroke-miterlimit="10" stroke-width="3"/><text transform="translate(1557.08 547.68)" fill="#434142" font-family="NanumSquareNeovariable-Heavy, &apos;NanumSquare Neo variable&apos;" font-size="22" font-variation-settings="&apos;wght&apos; 900" font-weight="800"><tspan x="0" y="0">620</tspan></text></g><g id="Layer_619"><rect x="1499.5" y="373" width="114" height="114.5" transform="translate(3113 860.5) rotate(180)" fill="#f8cdce" stroke="#e18686" stroke-miterlimit="10" stroke-width="3"/><text transform="translate(1535.25 435.9)" fill="#434142" font-family="NanumSquareNeovariable-Heavy, &apos;NanumSquare Neo variable&apos;" font-size="22" font-variation-settings="&apos;wght&apos; 900" font-weight="800"><tspan x="0" y="0" letter-spacing="0em">6</tspan><tspan x="15.64" y="0">19</tspan></text></g><g id="Layer_618"><polygon points="1624.5 270.5 1613.5 270.5 1608.5 270.5 1499.5 270.5 1499.5 373 1613.5 373 1613.5 321.5 1624.5 321.5 1624.5 270.5" fill="#f8cdce" stroke="#e18686" stroke-miterlimit="10" stroke-width="3"/><text transform="translate(1538.13 327.22)" fill="#434142" font-family="NanumSquareNeovariable-Heavy, &apos;NanumSquare Neo variable&apos;" font-size="22" font-variation-settings="&apos;wght&apos; 900" font-weight="800"><tspan x="0" y="0" letter-spacing="0em">6</tspan><tspan x="15.64" y="0">18</tspan></text></g><g id="Layer_619D"><rect x="905.21" y="636.42" width="54.21" height="128" fill="#f8cdce" stroke="#e18686" stroke-miterlimit="10" stroke-width="3"/><text transform="translate(910.36 702.45)" fill="#434142" font-family="NanumSquareNeovariable-Heavy, &apos;NanumSquare Neo variable&apos;" font-size="16" font-variation-settings="&apos;wght&apos; 900" font-weight="800"><tspan x="0" y="0" letter-spacing="-.01em">6</tspan><tspan x="11.38" y="0">19D</tspan></text></g><g id="Layer_619C"><rect x="851.21" y="636.42" width="54.21" height="128" fill="#f8cdce" stroke="#e18686" stroke-miterlimit="10" stroke-width="3"/><text transform="translate(856.41 702.45)" fill="#434142" font-family="NanumSquareNeovariable-Heavy, &apos;NanumSquare Neo variable&apos;" font-size="16" font-variation-settings="&apos;wght&apos; 900" font-weight="800"><tspan x="0" y="0" letter-spacing="-.01em">6</tspan><tspan x="11.38" y="0">19C</tspan></text></g><g id="Layer_619B"><rect x="797.09" y="636.33" width="54.21" height="128" fill="#f8cdce" stroke="#e18686" stroke-miterlimit="10" stroke-width="3"/><text transform="translate(803.26 702.45)" fill="#434142" font-family="NanumSquareNeovariable-Heavy, &apos;NanumSquare Neo variable&apos;" font-size="16" font-variation-settings="&apos;wght&apos; 900" font-weight="800"><tspan x="0" y="0" letter-spacing="-.01em">6</tspan><tspan x="11.38" y="0">19B</tspan></text></g><g id="Layer_619A"><rect x="743.29" y="636.54" width="54.21" height="128" fill="#f8cdce" stroke="#e18686" stroke-miterlimit="10" stroke-width="3"/><text transform="translate(748.26 702.45)" fill="#434142" font-family="NanumSquareNeovariable-Heavy, &apos;NanumSquare Neo variable&apos;" font-size="16" font-variation-settings="&apos;wght&apos; 900" font-weight="800"><tspan x="0" y="0" letter-spacing="-.01em">6</tspan><tspan x="11.38" y="0">19A</tspan></text></g><g id="Layer_618A"><path d="m1499.5,197v73.5h125v51h38v-124.5h-163Z" fill="#f8cdce" stroke="#e18686" stroke-miterlimit="10" stroke-width="3"/><text transform="translate(1550.1 243.21)" fill="#434142" font-family="NanumSquareNeovariable-Heavy, &apos;NanumSquare Neo variable&apos;" font-size="22" font-variation-settings="&apos;wght&apos; 900" font-weight="800"><tspan x="0" y="0" letter-spacing="0em">6</tspan><tspan x="15.64" y="0">18A</tspan></text></g><g id="Layer_617B"><rect x="1660.5" y="197.5" width="57" height="124" fill="#f8cdce" stroke="#e18686" stroke-miterlimit="10" stroke-width="3"/><text transform="translate(1665.94 259.21)" fill="#434142" font-family="NanumSquareNeovariable-Heavy, &apos;NanumSquare Neo variable&apos;" font-size="18" font-variation-settings="&apos;wght&apos; 900" font-weight="800"><tspan x="0" y="0" letter-spacing="-.01em">6</tspan><tspan x="12.8" y="0">17B</tspan></text></g><g id="Layer_617A"><rect x="1717.5" y="197.5" width="55" height="124" transform="translate(3490 519) rotate(180)" fill="#f8cdce" stroke="#e18686" stroke-miterlimit="10" stroke-width="3"/><text transform="translate(1721.15 259.89)" fill="#434142" font-family="NanumSquareNeovariable-Heavy, &apos;NanumSquare Neo variable&apos;" font-size="18" font-variation-settings="&apos;wght&apos; 900" font-weight="800"><tspan x="0" y="0" letter-spacing="-.01em">6</tspan><tspan x="12.8" y="0">17A</tspan></text></g><g id="Layer_616D"><rect x="1717.5" y="372.5" width="119" height="61.5" transform="translate(3554 806.5) rotate(180)" fill="#f8cdce" stroke="#e18686" stroke-miterlimit="10" stroke-width="3"/><text transform="translate(1752.85 409.17)" fill="#434142" font-family="NanumSquareNeovariable-Heavy, &apos;NanumSquare Neo variable&apos;" font-size="18" font-variation-settings="&apos;wght&apos; 900" font-weight="800"><tspan x="0" y="0" letter-spacing="-.01em">6</tspan><tspan x="12.8" y="0">16D</tspan></text></g><g id="Layer_616C"><rect x="1717.5" y="433.5" width="119" height="61.5" transform="translate(3554 928.5) rotate(180)" fill="#f8cdce" stroke="#e18686" stroke-miterlimit="10" stroke-width="3"/><text transform="translate(1752.43 468.38)" fill="#434142" font-family="NanumSquareNeovariable-Heavy, &apos;NanumSquare Neo variable&apos;" font-size="18" font-variation-settings="&apos;wght&apos; 900" font-weight="800"><tspan x="0" y="0" letter-spacing="-.01em">6</tspan><tspan x="12.8" y="0">16C</tspan></text></g><g id="Layer_616B"><rect x="1717.5" y="494.5" width="119" height="61.5" transform="translate(3554 1050.5) rotate(180)" fill="#f8cdce" stroke="#e18686" stroke-miterlimit="10" stroke-width="3"/><text transform="translate(1752.64 530.38)" fill="#434142" font-family="NanumSquareNeovariable-Heavy, &apos;NanumSquare Neo variable&apos;" font-size="18" font-variation-settings="&apos;wght&apos; 900" font-weight="800"><tspan x="0" y="0" letter-spacing="-.01em">6</tspan><tspan x="12.8" y="0">16B</tspan></text></g><g id="Layer_616A"><rect x="1717.5" y="554.5" width="119" height="61.5" transform="translate(3554 1170.5) rotate(180)" fill="#f8cdce" stroke="#e18686" stroke-miterlimit="10" stroke-width="3"/><text transform="translate(1752.31 590.38)" fill="#434142" font-family="NanumSquareNeovariable-Heavy, &apos;NanumSquare Neo variable&apos;" font-size="18" font-variation-settings="&apos;wght&apos; 900" font-weight="800"><tspan x="0" y="0" letter-spacing="-.01em">6</tspan><tspan x="12.8" y="0">16A</tspan></text></g><g id="Layer_615"><rect x="1717.5" y="616" width="119" height="195.5" transform="translate(3554 1427.5) rotate(180)" fill="#f8cdce" stroke="#e18686" stroke-miterlimit="10" stroke-width="3"/><text transform="translate(1755.84 726.38)" fill="#434142" font-family="NanumSquareNeovariable-Heavy, &apos;NanumSquare Neo variable&apos;" font-size="22" font-variation-settings="&apos;wght&apos; 900" font-weight="800"><tspan x="0" y="0" letter-spacing="0em">6</tspan><tspan x="15.64" y="0">15</tspan></text></g><g id="Layer_614B"><rect x="1613.5" y="663.5" width="104" height="148" fill="#f8cdce" stroke="#e18686" stroke-miterlimit="10" stroke-width="3"/><text transform="translate(1637.28 726.38)" fill="#434142" font-family="NanumSquareNeovariable-Heavy, &apos;NanumSquare Neo variable&apos;" font-size="22" font-variation-settings="&apos;wght&apos; 900" font-weight="800"><tspan x="0" y="0" letter-spacing="0em">6</tspan><tspan x="15.64" y="0">14B</tspan></text></g><g id="Layer_614A"><rect x="1506.5" y="663.5" width="107" height="148" transform="translate(3120 1475) rotate(180)" fill="#f8cdce" stroke="#e18686" stroke-miterlimit="10" stroke-width="3"/><rect x="1506.5" y="663.5" width="37" height="106" fill="#f8cdce" stroke="#e18686" stroke-miterlimit="10" stroke-width="3"/><text transform="translate(1548.88 726.38)" fill="#434142" font-family="NanumSquareNeovariable-Heavy, &apos;NanumSquare Neo variable&apos;" font-size="22" font-variation-settings="&apos;wght&apos; 900" font-weight="800"><tspan x="0" y="0" letter-spacing="0em">6</tspan><tspan x="15.64" y="0">14A</tspan></text></g><g id="Layer_612"><rect x="1281.5" y="636.42" width="107" height="128" transform="translate(2670 1400.84) rotate(180)" fill="#f8cdce" stroke="#e18686" stroke-miterlimit="10" stroke-width="3"/><text transform="translate(1313.65 705.85)" fill="#434142" font-family="NanumSquareNeovariable-Heavy, &apos;NanumSquare Neo variable&apos;" font-size="22" font-variation-settings="&apos;wght&apos; 900" font-weight="800"><tspan x="0" y="0" letter-spacing="0em">6</tspan><tspan x="15.64" y="0">12</tspan></text></g><g id="Layer_611"><rect x="1063.5" y="636.42" width="218" height="128" fill="#f8cdce" stroke="#e18686" stroke-miterlimit="10" stroke-width="3"/><text transform="translate(1153.2 705.64)" fill="#434142" font-family="NanumSquareNeovariable-Heavy, &apos;NanumSquare Neo variable&apos;" font-size="22" font-variation-settings="&apos;wght&apos; 900" font-weight="800"><tspan x="0" y="0" letter-spacing="0em">6</tspan><tspan x="15.64" y="0">11</tspan></text></g><g id="Layer_610"><rect x="959.42" y="636.42" width="104.08" height="128" transform="translate(2022.92 1400.84) rotate(180)" fill="#f8cdce" stroke="#e18686" stroke-miterlimit="10" stroke-width="3"/><text transform="translate(989.49 705.64)" fill="#434142" font-family="NanumSquareNeovariable-Heavy, &apos;NanumSquare Neo variable&apos;" font-size="22" font-variation-settings="&apos;wght&apos; 900" font-weight="800"><tspan x="0" y="0" letter-spacing="0em">6</tspan><tspan x="15.64" y="0">10</tspan></text></g><g id="Layer_608B"><rect x="637.85" y="636.54" width="105.65" height="128" fill="#f8cdce" stroke="#e18686" stroke-miterlimit="10" stroke-width="3"/><text transform="translate(659.33 706.16)" fill="#434142" font-family="NanumSquareNeovariable-Heavy, &apos;NanumSquare Neo variable&apos;" font-size="22" font-variation-settings="&apos;wght&apos; 900" font-weight="800"><tspan x="0" y="0">608B</tspan></text></g><g id="Layer_608A"><rect x="523" y="636.54" width="114.5" height="128" fill="#f8cdce" stroke="#e18686" stroke-miterlimit="10" stroke-width="2.92"/><text transform="translate(547.33 706.16)" fill="#434142" font-family="NanumSquareNeovariable-Heavy, &apos;NanumSquare Neo variable&apos;" font-size="22" font-variation-settings="&apos;wght&apos; 900" font-weight="800"><tspan x="0" y="0">608A</tspan></text></g><g id="Layer_606"><rect x="185.5" y="260.5" width="116" height="66" fill="#f8cdce" stroke="#e18686" stroke-miterlimit="10" stroke-width="3"/><text transform="translate(219.02 298.23)" fill="#434142" font-family="NanumSquareNeovariable-Heavy, &apos;NanumSquare Neo variable&apos;" font-size="22" font-variation-settings="&apos;wght&apos; 900" font-weight="800"><tspan x="0" y="0">606</tspan></text></g><g id="Layer_605"><rect x="416.35" y="476" width="115.5" height="124" fill="#f8cdce" stroke="#e18686" stroke-miterlimit="10" stroke-width="3"/><text transform="translate(450.27 543.78)" fill="#434142" font-family="NanumSquareNeovariable-Heavy, &apos;NanumSquare Neo variable&apos;" font-size="22" font-variation-settings="&apos;wght&apos; 900" font-weight="800"><tspan x="0" y="0">605</tspan></text></g><g id="Layer_604D"><rect x="531" y="476" width="51.5" height="124" transform="translate(1113.5 1076) rotate(180)" fill="#f8cdce" stroke="#e18686" stroke-miterlimit="10" stroke-width="3.06"/></g><g id="Layer_604C"><rect x="582.5" y="476" width="53" height="124" fill="#f8cdce" stroke="#e18686" stroke-miterlimit="10" stroke-width="3.06"/><text transform="translate(585.57 543.83)" fill="#434142" font-family="NanumSquareNeovariable-Heavy, &apos;NanumSquare Neo variable&apos;" font-size="16" font-variation-settings="&apos;wght&apos; 900" font-weight="800"><tspan x="0" y="0">604C</tspan></text><text transform="translate(532.52 544.05)" fill="#434142" font-family="NanumSquareNeovariable-Heavy, &apos;NanumSquare Neo variable&apos;" font-size="16" font-variation-settings="&apos;wght&apos; 900" font-weight="800"><tspan x="0" y="0">604D</tspan></text></g><g id="Layer_604B"><rect x="635.5" y="476" width="55" height="124" transform="translate(1326 1076) rotate(180)" fill="#f8cdce" stroke="#e18686" stroke-miterlimit="10" stroke-width="3.06"/><text transform="translate(639.71 544.2)" fill="#434142" font-family="NanumSquareNeovariable-Heavy, &apos;NanumSquare Neo variable&apos;" font-size="16" font-variation-settings="&apos;wght&apos; 900" font-weight="800"><tspan x="0" y="0">604B</tspan></text></g><g id="Layer_604A"><polygon points="734.5 423.5 734.5 476 690.5 476 690.5 600 797.5 600 797.5 509.5 797.5 476 797.5 423.5 734.5 423.5" fill="#f8cdce" stroke="#e18686" stroke-miterlimit="10" stroke-width="3"/><rect x="738.5" y="546.5" width="59" height="53" fill="#f8cdce" stroke="#e18686" stroke-miterlimit="10" stroke-width="3"/><text transform="translate(709.54 512.16)" fill="#434142" font-family="NanumSquareNeovariable-Heavy, &apos;NanumSquare Neo variable&apos;" font-size="22" font-variation-settings="&apos;wght&apos; 900" font-weight="800"><tspan x="0" y="0">604A</tspan></text></g><g id="Layer_toilet1"><rect x="797.5" y="423.5" width="57" height="124" fill="#fdf3f2"/><path d="m853,425v121h-54v-121h54m3-3h-60v127h60v-127h0Z" fill="#e18686"/></g><g id="Layer_toilet2"><rect x="853.5" y="423.5" width="57" height="124" fill="#fdf3f2"/><path d="m909,425v121h-54v-121h54m3-3h-60v127h60v-127h0Z" fill="#e18686"/></g><g id="Layer_toilet3"><rect x="1388.5" y="636.5" width="43" height="128" transform="translate(2820 1401) rotate(180)" fill="none" stroke="#e18686" stroke-miterlimit="10" stroke-width="2.66"/></g><g id="Layer_toilet4"><rect x="467.5" y="636.5" width="56" height="128" fill="none" stroke="#e18686" stroke-miterlimit="10" stroke-width="3.06"/></g></svg>