<?xml version="1.0" encoding="UTF-8"?>
<svg
  id="Layer_1"
  data-name="Layer 1"
  xmlns="http://www.w3.org/2000/svg"
  version="1.1"
  viewBox="0 0 3364 1627"
>
  <defs>
    <style>
      .cls-1 {
        fill: #fed0d0;
        stroke: #ea8b8b;
      }

      .cls-1,
      .cls-2,
      .cls-3,
      .cls-4 {
        stroke-miterlimit: 10;
      }

      .cls-1,
      .cls-3,
      .cls-4 {
        stroke-width: 3px;
      }

      .cls-2 {
        fill: #fef3f2;
        stroke-width: 10px;
      }

      .cls-2,
      .cls-3,
      .cls-4 {
        stroke: #f88487;
      }

      .cls-5 {
        font-size: 24px;
      }

      .cls-5,
      .cls-6 {
        fill: #000;
        font-family: NanumSquareNeoTTF-dEb, "NanumSquare Neo";
      }

      .cls-3 {
        fill: none;
      }

      .cls-6 {
        font-size: 48px;
      }

      .cls-4 {
        fill: #ffcdce;
      }
    </style>
  </defs>
  <g id="Layer_border">
    <rect class="cls-2" x="231" y="144" width="2773" height="758" />
    <text class="cls-6" transform="translate(1515 528.05)">
      <tspan x="0" y="0">주차장</tspan>
    </text>
  </g>
  <g id="Layer_8" data-name="Layer 8">
    <polygon
      class="cls-1"
      points="2205.35 813 2234.56 902.42 2319 902.42 2319 813 2205.35 813"
    />
    <text class="cls-5" transform="translate(2231.03 867.46)">
      <tspan x="0" y="0">B203B</tspan>
    </text>
  </g>
  <g id="Layer_9" data-name="Layer 9">
    <rect class="cls-4" x="2716" y="813" width="148" height="89" />
    <text class="cls-5" transform="translate(2748.19 864.23)">
      <tspan x="0" y="0">B202C</tspan>
    </text>
  </g>
  <g id="Layer_10" data-name="Layer 10">
    <rect class="cls-1" x="2702" y="144" width="162" height="89" />
    <text class="cls-5" transform="translate(2747.88 199.49)">
      <tspan x="0" y="0">B202B</tspan>
    </text>
  </g>
  <g id="Layer_11" data-name="Layer 11">
    <polygon
      class="cls-1"
      points="2205.09 233.03 2234.31 149 2318.75 149 2318.75 233.03 2205.09 233.03"
    />
    <text class="cls-5" transform="translate(2240.57 196.92)">
      <tspan x="0" y="0">B203</tspan>
    </text>
  </g>
  <g id="Layer_12" data-name="Layer 12">
    <rect class="cls-1" x="306" y="813" width="104" height="89" />
    <text class="cls-5" transform="translate(315.14 869.29)">
      <tspan x="0" y="0">B202A</tspan>
    </text>
  </g>
  <g id="Layer_13" data-name="Layer 13">
    <rect class="cls-1" x="322" y="144" width="104" height="104" />
    <text class="cls-5" transform="translate(342.13 207.1)">
      <tspan x="0" y="0">B202</tspan>
    </text>
  </g>
  <g id="Layer_others">
    <g>
      <line class="cls-4" x1="374" y1="264.5" x2="232" y2="263.5" />
      <line class="cls-4" x1="232" y1="340.5" x2="374" y2="338.5" />
      <line class="cls-3" x1="373.47" y1="264" x2="373.47" y2="338" />
      <line class="cls-3" x1="361.9" y1="264" x2="361.9" y2="339" />
      <line class="cls-3" x1="348.23" y1="264" x2="348.23" y2="338" />
      <line class="cls-3" x1="336.66" y1="264" x2="336.66" y2="338" />
      <line class="cls-3" x1="325.09" y1="264" x2="325.09" y2="339" />
      <line class="cls-3" x1="311.41" y1="264" x2="312.47" y2="339" />
      <line class="cls-3" x1="301.95" y1="264" x2="301.95" y2="338" />
      <line class="cls-3" x1="291.43" y1="264" x2="292.48" y2="340" />
      <line class="cls-3" x1="280.91" y1="264" x2="281.96" y2="340" />
      <line class="cls-3" x1="269.34" y1="264" x2="270.39" y2="340" />
      <line class="cls-3" x1="259.87" y1="264" x2="260.93" y2="340" />
    </g>
    <rect class="cls-1" x="306" y="585" width="44" height="44" />
    <rect class="cls-1" x="350" y="585" width="44" height="44" />
    <g>
      <line class="cls-4" x1="231" y1="431.06" x2="395" y2="430.5" />
      <line class="cls-4" x1="395" y1="474" x2="231" y2="472.87" />
      <line class="cls-3" x1="231.61" y1="430.78" x2="231.61" y2="472.59" />
      <line class="cls-3" x1="244.97" y1="430.78" x2="244.97" y2="473.15" />
      <line class="cls-3" x1="260.76" y1="430.78" x2="260.76" y2="472.59" />
      <line class="cls-3" x1="274.13" y1="430.78" x2="274.13" y2="472.59" />
      <line class="cls-3" x1="287.49" y1="430.78" x2="287.49" y2="473.15" />
      <line class="cls-3" x1="303.28" y1="430.78" x2="302.07" y2="473.15" />
      <line class="cls-3" x1="314.21" y1="430.78" x2="314.21" y2="472.59" />
      <line class="cls-3" x1="326.36" y1="430.78" x2="325.15" y2="473.72" />
      <line class="cls-3" x1="338.51" y1="430.78" x2="337.3" y2="473.72" />
      <line class="cls-3" x1="351.87" y1="430.78" x2="350.66" y2="473.72" />
      <line class="cls-3" x1="362.81" y1="430.78" x2="361.59" y2="473.72" />
    </g>
    <rect class="cls-3" x="231" y="430" width="163" height="199" />
    <g>
      <g>
        <line class="cls-3" x1="1538.5" y1="144.65" x2="1538.5" y2="234.57" />
        <line class="cls-3" x1="1527.5" y1="144.65" x2="1527.5" y2="235.78" />
        <line class="cls-3" x1="1514.5" y1="144.65" x2="1514.5" y2="234.57" />
        <line class="cls-3" x1="1503.5" y1="144.65" x2="1503.5" y2="234.57" />
        <line class="cls-3" x1="1492.5" y1="144.65" x2="1492.5" y2="235.78" />
        <line class="cls-3" x1="1479.5" y1="144.65" x2="1480.5" y2="235.78" />
        <line class="cls-3" x1="1470.5" y1="144.65" x2="1470.5" y2="234.57" />
        <line class="cls-3" x1="1460.5" y1="144.65" x2="1461.5" y2="237" />
        <line class="cls-3" x1="1450.5" y1="144.65" x2="1451.5" y2="237" />
        <line class="cls-3" x1="1439.5" y1="144.65" x2="1440.5" y2="237" />
        <line class="cls-3" x1="1430.5" y1="144.65" x2="1431.5" y2="237" />
      </g>
      <g>
        <line class="cls-3" x1="1659.5" y1="143.43" x2="1659.5" y2="233.35" />
        <line class="cls-3" x1="1648.5" y1="143.43" x2="1648.5" y2="234.57" />
        <line class="cls-3" x1="1635.5" y1="143.43" x2="1635.5" y2="233.35" />
        <line class="cls-3" x1="1624.5" y1="143.43" x2="1624.5" y2="233.35" />
        <line class="cls-3" x1="1613.5" y1="143.43" x2="1613.5" y2="234.57" />
        <line class="cls-3" x1="1600.5" y1="143.43" x2="1601.5" y2="234.57" />
        <line class="cls-3" x1="1591.5" y1="143.43" x2="1591.5" y2="233.35" />
        <line class="cls-3" x1="1581.5" y1="143.43" x2="1582.5" y2="235.78" />
        <line class="cls-3" x1="1571.5" y1="143.43" x2="1572.5" y2="235.78" />
        <line class="cls-3" x1="1560.5" y1="143.43" x2="1561.5" y2="235.78" />
        <line class="cls-3" x1="1551.5" y1="143.43" x2="1552.5" y2="235.78" />
      </g>
      <line class="cls-3" x1="1735.5" y1="141" x2="1735.5" y2="232.14" />
      <line class="cls-3" x1="1722.5" y1="141" x2="1723.5" y2="232.14" />
      <line class="cls-3" x1="1713.5" y1="141" x2="1713.5" y2="230.92" />
      <line class="cls-3" x1="1703.5" y1="141" x2="1704.5" y2="233.35" />
      <line class="cls-3" x1="1693.5" y1="141" x2="1694.5" y2="233.35" />
      <line class="cls-3" x1="1682.5" y1="141" x2="1683.5" y2="233.35" />
      <line class="cls-3" x1="1673.5" y1="141" x2="1674.5" y2="233.35" />
      <line class="cls-3" x1="1767.5" y1="144.04" x2="1767.5" y2="230.32" />
      <line class="cls-3" x1="1431.5" y1="236.39" x2="1767.5" y2="230.32" />
    </g>
    <g>
      <g>
        <line class="cls-3" x1="2086.26" y1="811.4" x2="2086.26" y2="902.54" />
        <line class="cls-3" x1="2099.26" y1="811.4" x2="2098.26" y2="902.54" />
        <line class="cls-3" x1="2108.26" y1="811.4" x2="2108.26" y2="901.33" />
        <line class="cls-3" x1="2118.26" y1="811.4" x2="2117.26" y2="903.76" />
        <line class="cls-3" x1="2128.26" y1="811.4" x2="2127.26" y2="903.76" />
        <line class="cls-3" x1="2139.26" y1="811.4" x2="2138.26" y2="903.76" />
        <line class="cls-3" x1="2148.26" y1="811.4" x2="2147.26" y2="903.76" />
        <line class="cls-3" x1="2054.26" y1="814.44" x2="2054.26" y2="900.72" />
      </g>
      <line class="cls-3" x1="2196.14" y1="811.49" x2="2196.14" y2="901.42" />
      <line class="cls-3" x1="2186.14" y1="811.49" x2="2187.14" y2="903.85" />
      <line class="cls-3" x1="2176.14" y1="811.49" x2="2177.14" y2="903.85" />
      <line class="cls-3" x1="2165.14" y1="811.49" x2="2166.14" y2="903.85" />
      <line class="cls-3" x1="2156.14" y1="811.49" x2="2157.14" y2="903.85" />
      <line class="cls-3" x1="2054.5" y1="814.5" x2="2205.5" y2="812.5" />
    </g>
    <g>
      <line class="cls-4" x1="374" y1="704.5" x2="232" y2="703.5" />
      <line class="cls-4" x1="232" y1="780.5" x2="374" y2="778.5" />
      <line class="cls-3" x1="373.47" y1="704" x2="373.47" y2="778" />
      <line class="cls-3" x1="361.9" y1="704" x2="361.9" y2="779" />
      <line class="cls-3" x1="348.23" y1="704" x2="348.23" y2="778" />
      <line class="cls-3" x1="336.66" y1="704" x2="336.66" y2="778" />
      <line class="cls-3" x1="325.09" y1="704" x2="325.09" y2="779" />
      <line class="cls-3" x1="311.41" y1="704" x2="312.47" y2="779" />
      <line class="cls-3" x1="301.95" y1="704" x2="301.95" y2="778" />
      <line class="cls-3" x1="291.43" y1="704" x2="292.48" y2="780" />
      <line class="cls-3" x1="280.91" y1="704" x2="281.96" y2="780" />
      <line class="cls-3" x1="269.34" y1="704" x2="270.39" y2="780" />
      <line class="cls-3" x1="259.87" y1="704" x2="260.93" y2="780" />
    </g>
    <g>
      <g>
        <line class="cls-3" x1="2172.82" y1="144.84" x2="2172.82" y2="235.98" />
        <line class="cls-3" x1="2159.82" y1="144.84" x2="2160.82" y2="235.98" />
        <line class="cls-3" x1="2150.82" y1="144.84" x2="2150.82" y2="234.77" />
        <line class="cls-3" x1="2140.82" y1="144.84" x2="2141.82" y2="237.2" />
        <line class="cls-3" x1="2130.82" y1="144.84" x2="2131.82" y2="237.2" />
        <line class="cls-3" x1="2119.82" y1="144.84" x2="2120.82" y2="237.2" />
        <line class="cls-3" x1="2110.82" y1="144.84" x2="2111.82" y2="237.2" />
        <line class="cls-3" x1="2204.82" y1="147.88" x2="2204.82" y2="234.16" />
      </g>
      <line class="cls-3" x1="2101.14" y1="145.49" x2="2101.14" y2="236.63" />
      <line class="cls-3" x1="2088.14" y1="145.49" x2="2089.14" y2="236.63" />
      <line class="cls-3" x1="2079.14" y1="145.49" x2="2079.14" y2="235.42" />
      <line class="cls-3" x1="2069.14" y1="145.49" x2="2070.14" y2="237.85" />
      <line class="cls-3" x1="2059.14" y1="145.49" x2="2060.14" y2="237.85" />
      <line class="cls-3" x1="2048.14" y1="145.49" x2="2049.14" y2="237.85" />
      <line class="cls-3" x1="2039.14" y1="145.49" x2="2040.14" y2="237.85" />
      <line class="cls-3" x1="2040.5" y1="237.5" x2="2204.5" y2="234.5" />
    </g>
    <rect class="cls-1" x="2122" y="573" width="41" height="41" />
    <rect class="cls-1" x="2205" y="573" width="41" height="41" />
    <rect class="cls-3" x="2122" y="435" width="124" height="179" />
    <g>
      <line class="cls-4" x1="2120" y1="436" x2="2245" y2="435.5" />
      <line class="cls-4" x1="2245" y1="474" x2="2120" y2="473" />
      <line class="cls-3" x1="2120.46" y1="435.75" x2="2120.46" y2="472.75" />
      <line class="cls-3" x1="2130.65" y1="435.75" x2="2130.65" y2="473.25" />
      <line class="cls-3" x1="2142.69" y1="435.75" x2="2142.69" y2="472.75" />
      <line class="cls-3" x1="2152.87" y1="435.75" x2="2152.87" y2="472.75" />
      <line class="cls-3" x1="2163.06" y1="435.75" x2="2163.06" y2="473.25" />
      <line class="cls-3" x1="2175.09" y1="435.75" x2="2174.17" y2="473.25" />
      <line class="cls-3" x1="2183.43" y1="435.75" x2="2183.43" y2="472.75" />
      <line class="cls-3" x1="2192.69" y1="435.75" x2="2191.76" y2="473.75" />
      <line class="cls-3" x1="2201.94" y1="435.75" x2="2201.02" y2="473.75" />
      <line class="cls-3" x1="2212.13" y1="435.75" x2="2211.2" y2="473.75" />
      <line class="cls-3" x1="2220.46" y1="435.75" x2="2219.54" y2="473.75" />
    </g>
    <g>
      <line class="cls-3" x1="1496.81" y1="901.88" x2="1495.81" y2="817.34" />
      <line class="cls-3" x1="1506.81" y1="901.88" x2="1505.81" y2="817.34" />
      <line class="cls-3" x1="1517.81" y1="901.88" x2="1516.81" y2="817.34" />
      <line class="cls-3" x1="1526.81" y1="901.88" x2="1525.81" y2="817.34" />
      <line class="cls-3" x1="1432.81" y1="899.1" x2="1432.81" y2="820.12" />
      <g>
        <g>
          <line
            class="cls-3"
            x1="1661.81"
            y1="898.54"
            x2="1661.81"
            y2="816.22"
          />
          <line
            class="cls-3"
            x1="1672.81"
            y1="898.54"
            x2="1672.81"
            y2="815.11"
          />
          <line
            class="cls-3"
            x1="1685.81"
            y1="898.54"
            x2="1685.81"
            y2="816.22"
          />
          <line
            class="cls-3"
            x1="1696.81"
            y1="898.54"
            x2="1696.81"
            y2="816.22"
          />
          <line
            class="cls-3"
            x1="1707.81"
            y1="898.54"
            x2="1707.81"
            y2="815.11"
          />
          <line
            class="cls-3"
            x1="1720.81"
            y1="898.54"
            x2="1719.81"
            y2="815.11"
          />
          <line
            class="cls-3"
            x1="1729.81"
            y1="898.54"
            x2="1729.81"
            y2="816.22"
          />
          <line class="cls-3" x1="1739.81" y1="898.54" x2="1738.81" y2="814" />
          <line class="cls-3" x1="1749.81" y1="898.54" x2="1748.81" y2="814" />
          <line class="cls-3" x1="1760.81" y1="898.54" x2="1759.81" y2="814" />
          <line class="cls-3" x1="1769.81" y1="898.54" x2="1768.81" y2="814" />
        </g>
        <g>
          <line
            class="cls-3"
            x1="1540.81"
            y1="899.65"
            x2="1540.81"
            y2="817.34"
          />
          <line
            class="cls-3"
            x1="1551.81"
            y1="899.65"
            x2="1551.81"
            y2="816.22"
          />
          <line
            class="cls-3"
            x1="1564.81"
            y1="899.65"
            x2="1564.81"
            y2="817.34"
          />
          <line
            class="cls-3"
            x1="1575.81"
            y1="899.65"
            x2="1575.81"
            y2="817.34"
          />
          <line
            class="cls-3"
            x1="1586.81"
            y1="899.65"
            x2="1586.81"
            y2="816.22"
          />
          <line
            class="cls-3"
            x1="1599.81"
            y1="899.65"
            x2="1598.81"
            y2="816.22"
          />
          <line
            class="cls-3"
            x1="1608.81"
            y1="899.65"
            x2="1608.81"
            y2="817.34"
          />
          <line
            class="cls-3"
            x1="1618.81"
            y1="899.65"
            x2="1617.81"
            y2="815.11"
          />
          <line
            class="cls-3"
            x1="1628.81"
            y1="899.65"
            x2="1627.81"
            y2="815.11"
          />
          <line
            class="cls-3"
            x1="1639.81"
            y1="899.65"
            x2="1638.81"
            y2="815.11"
          />
          <line
            class="cls-3"
            x1="1648.81"
            y1="899.65"
            x2="1647.81"
            y2="815.11"
          />
        </g>
        <line class="cls-3" x1="1464.81" y1="901.88" x2="1464.81" y2="818.45" />
        <line class="cls-3" x1="1477.81" y1="901.88" x2="1476.81" y2="818.45" />
        <line class="cls-3" x1="1486.81" y1="901.88" x2="1486.81" y2="819.56" />
        <line class="cls-3" x1="1768.81" y1="814.56" x2="1432.81" y2="820.12" />
      </g>
    </g>
  </g>
</svg>
