<?xml version="1.0" encoding="UTF-8"?>
<svg xmlns="http://www.w3.org/2000/svg" version="1.1" viewBox="0 0 1527.6 717.5">
  <defs>
    <style>
      .cls-1 {
        stroke: #e38789;
      }

      .cls-1, .cls-2, .cls-3 {
        stroke-width: 3px;
      }

      .cls-1, .cls-2, .cls-3, .cls-4 {
        stroke-miterlimit: 10;
      }

      .cls-1, .cls-3 {
        fill: none;
      }

      .cls-5, .cls-6, .cls-7 {
        isolation: isolate;
      }

      .cls-6 {
        letter-spacing: 0em;
      }

      .cls-6, .cls-7 {
        fill: #221f20;
        font-family: NanumSquareNeoTTF-dEb, 'NanumSquare Neo';
        font-size: 12px;
      }

      .cls-2 {
        fill: #f3cdcf;
      }

      .cls-2, .cls-3, .cls-4 {
        stroke: #e68b8b;
      }

      .cls-4 {
        fill: #fcf2f2;
        stroke-width: 10px;
      }
    </style>
  </defs>
  <!-- Generator: Adobe Illustrator 28.6.0, SVG Export Plug-In . SVG Version: 1.2.0 Build 709)  -->
  <g>
    <g id="_x33_">
      <g id="Layer_x5F_border">
        <rect class="cls-4" x="56.5" y="166.1" width="1421" height="387.9"/>
      </g>
      <g id="Layer_47">
        <polygon class="cls-2" points="242 554.1 56.5 554.1 56.5 166.1 148.8 166.1 148.8 328.5 242 328.5 242 554.1"/>
        <g class="cls-5">
          <text class="cls-7" transform="translate(128 416.1)"><tspan x="0" y="0">301</tspan></text>
          <text class="cls-7" transform="translate(111.2 430.5)"><tspan x="0" y="0">일반물리학</tspan></text>
          <text class="cls-7" transform="translate(117.9 444.9)"><tspan x="0" y="0">실험실D</tspan></text>
        </g>
      </g>
      <g id="Layer_48">
        <rect class="cls-2" x="242" y="401.7" width="94.2" height="152.4"/>
        <g class="cls-5">
          <text class="cls-7" transform="translate(277.7 477.9)"><tspan x="0" y="0">3</tspan></text>
          <text class="cls-7" transform="translate(286.1 477.9)"><tspan x="0" y="0">12</tspan></text>
          <text class="cls-7" transform="translate(249.2 492.3)"><tspan x="0" y="0">기초과학연구소</tspan></text>
        </g>
      </g>
      <g id="Layer_49">
        <rect class="cls-2" x="336.1" y="401.7" width="94.2" height="152.4"/>
        <g class="cls-5">
          <text class="cls-7" transform="translate(369.7 479.3)"><tspan x="0" y="0">3</tspan></text>
          <text class="cls-7" transform="translate(378.1 479.3)"><tspan x="0" y="0">11A</tspan></text>
          <text class="cls-7" transform="translate(344.7 493.7)"><tspan x="0" y="0">기초과학연구소</tspan></text>
        </g>
      </g>
      <g id="Layer_50">
        <rect class="cls-2" x="430.3" y="401.7" width="296.4" height="152.4"/>
        <g class="cls-5">
          <text class="cls-7" transform="translate(568.3 469.1)"><tspan x="0" y="0">3</tspan></text>
          <text class="cls-7" transform="translate(576.8 469.1)"><tspan x="0" y="0">11</tspan></text>
          <text class="cls-7" transform="translate(521.6 483.5)"><tspan x="0" y="0">첨단재료화학연구센터</tspan></text>
          <text class="cls-7" transform="translate(561.4 497.9)"><tspan x="0" y="0">기기실</tspan></text>
        </g>
      </g>
      <g id="Layer_51">
        <rect class="cls-2" x="726.7" y="401.7" width="89.3" height="152.4"/>
        <g class="cls-5">
          <text class="cls-6" transform="translate(760.7 477.5)"><tspan x="0" y="0">3</tspan></text>
          <text class="cls-7" transform="translate(769.1 477.5)"><tspan x="0" y="0">10</tspan></text>
          <text class="cls-7" transform="translate(755.2 491.9)"><tspan x="0" y="0">준비실</tspan></text>
        </g>
      </g>
      <g id="Layer_52">
        <rect class="cls-2" x="816" y="401.7" width="373.1" height="152.4"/>
        <g class="cls-5">
          <text class="cls-7" transform="translate(989.5 477.9)"><tspan x="0" y="0">309</tspan></text>
          <text class="cls-7" transform="translate(962.7 492.3)"><tspan x="0" y="0">일반화학실험실</tspan></text>
        </g>
      </g>
      <g id="Layer_53">
        <rect class="cls-2" x="1189" y="401.7" width="98.9" height="152.4"/>
        <g class="cls-5">
          <text class="cls-7" transform="translate(1225.4 477.9)"><tspan x="0" y="0">308</tspan></text>
          <text class="cls-7" transform="translate(1221.4 492.3)"><tspan x="0" y="0">준비실</tspan></text>
        </g>
      </g>
      <g id="Layer_54">
        <rect class="cls-2" x="1287.9" y="166.1" width="189.6" height="387.9"/>
        <g class="cls-5">
          <text class="cls-7" transform="translate(1370.2 360.1)"><tspan x="0" y="0">307</tspan></text>
          <text class="cls-7" transform="translate(1342.9 374.5)"><tspan x="0" y="0">일반화학실험실</tspan></text>
        </g>
      </g>
      <g id="Layer_55">
        <rect class="cls-2" x="1189" y="166.1" width="98.9" height="162.4"/>
        <g class="cls-5">
          <text class="cls-7" transform="translate(1225.5 244.3)"><tspan x="0" y="0">306</tspan></text>
          <text class="cls-7" transform="translate(1221.4 258.7)"><tspan x="0" y="0">준비실</tspan></text>
        </g>
      </g>
      <g id="Layer_56">
        <rect class="cls-2" x="827.8" y="166.1" width="361.3" height="162.4"/>
        <g class="cls-5">
          <text class="cls-7" transform="translate(989.7 245.9)"><tspan x="0" y="0">305</tspan></text>
          <text class="cls-7" transform="translate(962.7 260.3)"><tspan x="0" y="0">일반화학실험실</tspan></text>
        </g>
      </g>
      <g id="Layer_57">
        <rect class="cls-2" x="726.7" y="166.1" width="101.1" height="162.4"/>
        <g class="cls-5">
          <text class="cls-7" transform="translate(764.2 247.9)"><tspan x="0" y="0">304</tspan></text>
          <text class="cls-7" transform="translate(754.5 262.3)"><tspan x="0" y="0">증류수실</tspan></text>
        </g>
      </g>
      <g id="Layer_60">
        <rect class="cls-3" x="633" y="166.1" width="93.7" height="162.4"/>
      </g>
      <g id="Layer_61">
        <polygon class="cls-2" points="539.2 328.5 242 328.5 148.8 328.5 148.8 166.1 539.2 166.1 539.2 328.5"/>
        <g class="cls-5">
          <text class="cls-7" transform="translate(328.3 247.7)"><tspan x="0" y="0">302</tspan></text>
          <text class="cls-7" transform="translate(301.3 262.1)"><tspan x="0" y="0">일반화학실험실</tspan></text>
        </g>
      </g>
      <g id="Layer_x5F_others">
        <rect class="cls-3" x="539.2" y="166.1" width="93.7" height="162.4"/>
        <g>
          <rect class="cls-1" x="539.2" y="217.8" width="46.9" height="9.1"/>
          <rect class="cls-1" x="539.2" y="226.9" width="46.9" height="9.5"/>
          <rect class="cls-1" x="539.2" y="236.4" width="46.9" height="10.9"/>
          <rect class="cls-1" x="539.2" y="247.4" width="46.9" height="8.8"/>
          <rect class="cls-1" x="539.2" y="256.1" width="46.9" height="11"/>
          <rect class="cls-1" x="539.2" y="267.1" width="46.9" height="7.9"/>
          <rect class="cls-1" x="539.2" y="274.9" width="46.9" height="11.9"/>
          <rect class="cls-1" x="539.2" y="286.8" width="46.9" height="11"/>
          <rect class="cls-1" x="539.2" y="297.7" width="46.9" height="9.5"/>
          <rect class="cls-1" x="539.2" y="307.2" width="46.9" height="9.5"/>
        </g>
        <g>
          <rect class="cls-1" x="586.1" y="217.6" width="45" height="9.1"/>
          <rect class="cls-1" x="586.1" y="226.7" width="45" height="9.5"/>
          <rect class="cls-1" x="586.1" y="236.2" width="45" height="10.9"/>
          <rect class="cls-1" x="586.1" y="247.2" width="45" height="8.8"/>
          <rect class="cls-1" x="586.1" y="255.9" width="45" height="11"/>
          <rect class="cls-1" x="586.1" y="266.9" width="45" height="7.9"/>
          <rect class="cls-1" x="586.1" y="274.7" width="45" height="11.9"/>
          <rect class="cls-1" x="586.1" y="286.6" width="45" height="11"/>
          <rect class="cls-1" x="586.1" y="297.5" width="45" height="9.5"/>
          <rect class="cls-1" x="586.1" y="307" width="45" height="9.5"/>
        </g>
      </g>
    </g>
  </g>
</svg>