<?xml version="1.0" encoding="UTF-8"?><svg xmlns="http://www.w3.org/2000/svg" viewBox="0 0 1920 1080"><g id="Layer_border"><path d="m247.5,290.5c355.33,168.67,710.67,337.33,1066,506,76.67-78.67,153.33-157.33,230-236-7-6.67-14-13.33-21-20,12.13.08,24.25.17,36.38.25v-237.99c-437.13-4.09-874.25-8.18-1311.38-12.26Z" fill="#fdf3f2" stroke="#e18686" stroke-linecap="round" stroke-linejoin="round" stroke-width="5"/></g><g id="Layer_others"><rect x="1289.68" y="610.64" width="90" height="62.69" transform="translate(778.47 -730.66) rotate(42.25)" fill="none" stroke="#e18686" stroke-miterlimit="10" stroke-width="1.67"/><line x1="1274.73" y1="567.1" x2="1311.07" y2="602.51" fill="none" stroke="#e18686" stroke-miterlimit="10" stroke-width="2.12"/><line x1="1268.68" y1="573.31" x2="1305.02" y2="608.72" fill="none" stroke="#e18686" stroke-miterlimit="10" stroke-width="2.12"/><line x1="1262.64" y1="579.51" x2="1298.97" y2="614.92" fill="none" stroke="#e18686" stroke-miterlimit="10" stroke-width="2.12"/><line x1="1256.59" y1="585.72" x2="1292.92" y2="621.13" fill="none" stroke="#e18686" stroke-miterlimit="10" stroke-width="2.12"/><line x1="1250.31" y1="592.16" x2="1286.64" y2="627.58" fill="none" stroke="#e18686" stroke-miterlimit="10" stroke-width="2.12"/><line x1="1244.03" y1="598.61" x2="1280.36" y2="634.02" fill="none" stroke="#e18686" stroke-miterlimit="10" stroke-width="2.12"/><line x1="1377.56" y1="661.22" x2="1414.08" y2="694.4" fill="none" stroke="#e18686" stroke-miterlimit="10" stroke-width="2.1"/><line x1="1371.74" y1="667.63" x2="1408.26" y2="700.81" fill="none" stroke="#e18686" stroke-miterlimit="10" stroke-width="2.1"/><line x1="1365.91" y1="674.05" x2="1402.43" y2="707.22" fill="none" stroke="#e18686" stroke-miterlimit="10" stroke-width="2.1"/><line x1="1360.08" y1="680.46" x2="1396.6" y2="713.64" fill="none" stroke="#e18686" stroke-miterlimit="10" stroke-width="2.1"/><line x1="1354.03" y1="687.12" x2="1390.55" y2="720.3" fill="none" stroke="#e18686" stroke-miterlimit="10" stroke-width="2.1"/><line x1="1347.98" y1="693.78" x2="1384.5" y2="726.96" fill="none" stroke="#e18686" stroke-miterlimit="10" stroke-width="2.1"/><line x1="1330.56" y1="595.11" x2="1361.98" y2="562.33" fill="none" stroke="#e18686" stroke-miterlimit="10" stroke-width="2.01"/><line x1="1336.81" y1="601.11" x2="1368.24" y2="568.33" fill="none" stroke="#e18686" stroke-miterlimit="10" stroke-width="2.01"/><line x1="1343.07" y1="607.11" x2="1374.5" y2="574.32" fill="none" stroke="#e18686" stroke-miterlimit="10" stroke-width="2.01"/><line x1="1349.33" y1="613.1" x2="1380.75" y2="580.32" fill="none" stroke="#e18686" stroke-miterlimit="10" stroke-width="2.01"/><line x1="1355.82" y1="619.33" x2="1387.25" y2="586.55" fill="none" stroke="#e18686" stroke-miterlimit="10" stroke-width="2.01"/><line x1="1362.32" y1="625.56" x2="1393.75" y2="592.78" fill="none" stroke="#e18686" stroke-miterlimit="10" stroke-width="2.01"/><line x1="1368.04" y1="630.98" x2="1399.47" y2="598.2" fill="none" stroke="#e18686" stroke-miterlimit="10" stroke-width="2.01"/><line x1="1374.54" y1="636.18" x2="1405.95" y2="603.93" fill="none" stroke="#e18686" stroke-miterlimit="10" stroke-width="2.01"/><line x1="1379.4" y1="641.31" x2="1410.81" y2="609.06" fill="none" stroke="#e18686" stroke-miterlimit="10" stroke-width="2.01"/></g><g id="Layer_301"><path d="m1415,301.91c-385.67-2.97-771.33-5.94-1157-8.91,301,142.33,602,284.67,903,427,11.33-22.67,22.67-45.33,34-68-2.33-2.33-4.67-4.67-7-7,9.67-10.33,19.33-20.67,29-31,2.33,2,4.67,4,7,6,59.33-62.67,118.67-125.33,178-188,4.33,4.18,8.67,8.37,13,12.55v-142.64Z" fill="#f8cdce" stroke="#e18686" stroke-miterlimit="10" stroke-width="2.15"/><text transform="translate(895.35 443.17)" fill="#434142" font-family="NanumSquareNeovariable-Heavy, &apos;NanumSquare Neo variable&apos;" font-size="22" font-variation-settings="&apos;wght&apos; 900" font-weight="800"><tspan x="0" y="0">301</tspan></text></g><g id="Layer_302B"><path d="m1415,303v141.06c-4.67-4.02-9.33-8.04-14-12.06-15.67,16.67-31.33,33.33-47,50h-107c0-60,0-120,0-180,56,.33,112,.67,168,1Z" fill="#f8cdce" stroke="#e18686" stroke-miterlimit="10" stroke-width="2.15"/><text transform="translate(1298.48 390.55)" fill="#434142" font-family="NanumSquareNeovariable-Heavy, &apos;NanumSquare Neo variable&apos;" font-size="22" font-variation-settings="&apos;wght&apos; 900" font-weight="800"><tspan x="0" y="0">302B</tspan></text></g><g id="Layer_toilet1"><rect x="1365.74" y="455.48" width="93.91" height="65.1" transform="translate(739.17 -846.23) rotate(44.16)" fill="none" stroke="#e18686" stroke-miterlimit="10" stroke-width="2"/></g><g id="Layer_toilet2"><polygon points="1469.06 497.39 1423.71 544.09 1357.05 479.37 1318.5 519.07 1431.73 629.01 1470.28 589.31 1515.63 542.61 1469.06 497.39" fill="none" stroke="#e18686" stroke-miterlimit="10" stroke-width="2"/></g></svg>