<?xml version="1.0" encoding="UTF-8"?><svg xmlns="http://www.w3.org/2000/svg" viewBox="0 0 1800 1400"><defs><style>.cls-1,.cls-2,.cls-3,.cls-4,.cls-5,.cls-6,.cls-7{fill:none;}.cls-8{fill:#fdf2f2;stroke-width:5px;}.cls-8,.cls-9,.cls-2,.cls-3,.cls-4,.cls-5,.cls-6,.cls-7{stroke:#d88282;stroke-miterlimit:10;}.cls-10{letter-spacing:-.04em;}.cls-11{letter-spacing:-.04em;}.cls-12{letter-spacing:-.04em;}.cls-13{letter-spacing:-.03em;}.cls-9{fill:#f5cbcc;}.cls-9,.cls-2{stroke-width:2px;}.cls-14{font-family:NanumSquareNeovariable-Heavy, 'NanumSquare Neo variable';font-size:22px;font-variation-settings:'wght' 900;font-weight:800;}.cls-14,.cls-15,.cls-16{fill:#434142;}.cls-3{stroke-width:2.04px;}.cls-4{stroke-width:2.04px;}.cls-17{letter-spacing:0em;}.cls-15{font-size:18px;}.cls-15,.cls-16{font-family:NanumSquareNeovariable-Regular, 'NanumSquare Neo variable';font-variation-settings:'wght' 300;}.cls-5{stroke-width:2.16px;}.cls-18{letter-spacing:0em;}.cls-6{stroke-width:2.19px;}.cls-16{font-size:20px;}.cls-7{stroke-width:1.92px;}</style></defs><g id="Layer_border"><path class="cls-8" d="m1614.19,343.72h-787.61v-70.27h-29.83c-10-17.24-35.19-29.48-64.71-29.48s-54.71,12.24-64.71,29.48H239.31c.11,292.79.23,585.57.34,878.36h20.49v43.42h189.14v-46.67h107.44c-.03-118.73-.05-237.47-.08-356.2h30.73v.21h293.43v-163.25h37.08v38.91c36.15,7.46,89.75,14.21,153.77,6.6,54.57-6.49,98.85-21.28,130.31-34.59h232v-23.91h125.29v-38.26h55.47l-.52-234.34Z"/></g><g id="Layer_others"><line class="cls-7" x1="334.16" y1="1168.69" x2="450.36" y2="1168.69"/><line class="cls-7" x1="361.44" y1="1145.86" x2="361.44" y2="1168.69"/><line class="cls-7" x1="366.63" y1="1145.86" x2="366.63" y2="1168.69"/><line class="cls-7" x1="371.82" y1="1145.86" x2="371.82" y2="1168.69"/><line class="cls-7" x1="377.01" y1="1145.86" x2="377.01" y2="1168.69"/><line class="cls-7" x1="382.2" y1="1145.86" x2="382.2" y2="1168.69"/><line class="cls-7" x1="387.39" y1="1145.86" x2="387.39" y2="1168.69"/><line class="cls-7" x1="392.58" y1="1145.86" x2="392.58" y2="1168.69"/><line class="cls-7" x1="397.78" y1="1145.86" x2="397.78" y2="1168.69"/><line class="cls-7" x1="402.97" y1="1145.86" x2="402.97" y2="1168.69"/><line class="cls-7" x1="408.16" y1="1145.86" x2="408.16" y2="1168.69"/><line class="cls-7" x1="413.35" y1="1145.86" x2="413.35" y2="1168.69"/><line class="cls-7" x1="418.54" y1="1145.86" x2="418.54" y2="1168.69"/><line class="cls-7" x1="361.44" y1="1193.92" x2="361.44" y2="1168.69"/><line class="cls-7" x1="366.63" y1="1193.92" x2="366.63" y2="1168.69"/><line class="cls-7" x1="371.82" y1="1193.92" x2="371.82" y2="1168.69"/><line class="cls-7" x1="377.01" y1="1193.92" x2="377.01" y2="1168.69"/><line class="cls-7" x1="382.2" y1="1193.92" x2="382.2" y2="1168.69"/><line class="cls-7" x1="387.39" y1="1193.92" x2="387.39" y2="1168.69"/><line class="cls-7" x1="392.59" y1="1193.92" x2="392.59" y2="1168.69"/><line class="cls-7" x1="397.78" y1="1193.92" x2="397.78" y2="1168.69"/><line class="cls-7" x1="402.97" y1="1193.92" x2="402.97" y2="1168.69"/><line class="cls-7" x1="408.16" y1="1193.92" x2="408.16" y2="1168.69"/><line class="cls-7" x1="413.35" y1="1193.92" x2="413.35" y2="1168.69"/><line class="cls-7" x1="418.54" y1="1193.92" x2="418.54" y2="1168.69"/><rect class="cls-2" x="333.41" y="1145.86" width="114.13" height="49.36"/><polyline class="cls-2" points="239.64 1088.24 333.41 1088.24 333.41 1157.28"/><polygon class="cls-2" points="341.25 376.08 341.25 413.7 375.22 413.7 375.22 463.17 434.38 463.17 434.38 413.7 434.38 397.69 434.38 376.08 341.25 376.08"/><rect class="cls-2" x="375.22" y="463.17" width="59.16" height="36.82"/><rect class="cls-2" x="529.35" y="376.08" width="43.4" height="82"/><rect class="cls-2" x="572.75" y="376.08" width="88.45" height="82"/><rect class="cls-4" x="616.97" y="415.12" width="44.22" height="42.96"/><rect class="cls-4" x="572.75" y="415.12" width="44.22" height="42.96" transform="translate(1189.72 873.2) rotate(180)"/><line class="cls-2" x1="549.9" y1="458.36" x2="549.9" y2="558.32"/><line class="cls-2" x1="568.49" y1="481.82" x2="549.9" y2="481.82"/><line class="cls-2" x1="568.49" y1="486.29" x2="549.9" y2="486.29"/><line class="cls-2" x1="568.49" y1="490.75" x2="549.9" y2="490.75"/><line class="cls-2" x1="568.49" y1="495.22" x2="549.9" y2="495.22"/><line class="cls-2" x1="568.49" y1="499.68" x2="549.9" y2="499.68"/><line class="cls-2" x1="568.49" y1="504.15" x2="549.9" y2="504.15"/><line class="cls-2" x1="568.49" y1="508.61" x2="549.9" y2="508.61"/><line class="cls-2" x1="568.49" y1="513.08" x2="549.9" y2="513.08"/><line class="cls-2" x1="568.49" y1="517.54" x2="549.9" y2="517.54"/><line class="cls-2" x1="568.49" y1="522.01" x2="549.9" y2="522.01"/><line class="cls-2" x1="568.49" y1="526.48" x2="549.9" y2="526.48"/><line class="cls-2" x1="568.49" y1="530.94" x2="549.9" y2="530.94"/><line class="cls-2" x1="529.35" y1="481.82" x2="549.89" y2="481.82"/><line class="cls-2" x1="529.35" y1="486.29" x2="549.89" y2="486.29"/><line class="cls-2" x1="529.35" y1="490.75" x2="549.89" y2="490.75"/><line class="cls-2" x1="529.35" y1="495.22" x2="549.89" y2="495.22"/><line class="cls-2" x1="529.35" y1="499.68" x2="549.89" y2="499.68"/><line class="cls-2" x1="529.35" y1="504.15" x2="549.89" y2="504.15"/><line class="cls-2" x1="529.35" y1="508.61" x2="549.89" y2="508.61"/><line class="cls-2" x1="529.35" y1="513.08" x2="549.89" y2="513.08"/><line class="cls-2" x1="529.35" y1="517.55" x2="549.89" y2="517.55"/><line class="cls-2" x1="529.35" y1="522.01" x2="549.89" y2="522.01"/><line class="cls-2" x1="529.35" y1="526.48" x2="549.89" y2="526.48"/><line class="cls-2" x1="529.35" y1="530.94" x2="549.89" y2="530.94"/><rect class="cls-2" x="529.35" y="458.36" width="39.14" height="99.96"/><rect class="cls-2" x="493.36" y="492.21" width="25.17" height="29.03"/><rect class="cls-2" x="493.36" y="527.16" width="25.17" height="29.03"/><rect class="cls-2" x="482.52" y="463.17" width="46.83" height="27.58"/><line class="cls-2" x1="460.76" y1="490.75" x2="484.48" y2="490.75"/><line class="cls-2" x1="434.38" y1="463.17" x2="460.76" y2="463.17"/><polyline class="cls-2" points="571.92 397.21 544.79 397.21 544.79 458.17 544.79 417.08 529.35 417.08"/><line class="cls-3" x1="434.38" y1="500" x2="434.38" y2="605.85"/><line class="cls-3" x1="568.49" y1="558.32" x2="568.49" y2="792.36"/><line class="cls-3" x1="880.79" y1="647.53" x2="568.49" y2="647.53"/><polyline class="cls-3" points="661.19 388.26 815.04 388.26 815.04 376.08 1614.27 376.08"/><rect class="cls-3" x="675.21" y="349.73" width="113.38" height="38.52"/><rect class="cls-3" x="803.43" y="539.51" width="18.81" height="18.81"/><rect class="cls-3" x="643.68" y="601.76" width="18.81" height="18.81"/><rect class="cls-3" x="643.68" y="543.4" width="18.81" height="18.81"/><rect class="cls-3" x="803.43" y="601.76" width="18.81" height="18.81"/><rect class="cls-3" x="803.43" y="453.77" width="18.81" height="18.81"/><rect class="cls-3" x="927.01" y="599.82" width="18.81" height="18.81"/><rect class="cls-3" x="1169.68" y="599.82" width="18.81" height="18.81"/><polygon class="cls-3" points="1067.16 618.63 1048.35 618.63 1048.35 612.74 1048.35 599.82 1067.16 599.82 1067.16 618.63"/><rect class="cls-3" x="927.01" y="376.08" width="18.81" height="180.11"/><rect class="cls-3" x="1461.19" y="376.08" width="99.14" height="83.16"/><rect class="cls-3" x="1416.58" y="459.24" width="44.62" height="39.66"/><rect class="cls-3" x="1416.58" y="515.76" width="44.62" height="40.44"/><rect class="cls-3" x="1552.41" y="459.24" width="15.86" height="96.95"/><line class="cls-2" x1="1591.9" y1="484.44" x2="1591.9" y2="578.06"/><line class="cls-2" x1="1612.41" y1="496.33" x2="1591.9" y2="496.33"/><line class="cls-2" x1="1612.41" y1="501.1" x2="1591.9" y2="501.1"/><line class="cls-2" x1="1612.41" y1="505.87" x2="1591.9" y2="505.87"/><line class="cls-2" x1="1612.41" y1="510.64" x2="1591.9" y2="510.64"/><line class="cls-2" x1="1612.41" y1="515.41" x2="1591.9" y2="515.41"/><line class="cls-2" x1="1612.41" y1="520.18" x2="1591.9" y2="520.18"/><line class="cls-2" x1="1612.41" y1="524.95" x2="1591.9" y2="524.95"/><line class="cls-2" x1="1612.41" y1="529.72" x2="1591.9" y2="529.72"/><line class="cls-2" x1="1612.41" y1="534.49" x2="1591.9" y2="534.49"/><line class="cls-2" x1="1612.41" y1="539.27" x2="1591.9" y2="539.27"/><line class="cls-2" x1="1612.41" y1="544.04" x2="1591.9" y2="544.04"/><line class="cls-2" x1="1612.41" y1="548.81" x2="1591.9" y2="548.81"/><line class="cls-2" x1="1569.24" y1="496.33" x2="1591.9" y2="496.33"/><line class="cls-2" x1="1569.24" y1="501.1" x2="1591.9" y2="501.1"/><line class="cls-2" x1="1569.24" y1="505.87" x2="1591.9" y2="505.87"/><line class="cls-2" x1="1569.24" y1="510.64" x2="1591.9" y2="510.64"/><line class="cls-2" x1="1569.24" y1="515.41" x2="1591.9" y2="515.41"/><line class="cls-2" x1="1569.24" y1="520.18" x2="1591.9" y2="520.18"/><line class="cls-2" x1="1569.24" y1="524.95" x2="1591.9" y2="524.95"/><line class="cls-2" x1="1569.24" y1="529.72" x2="1591.9" y2="529.72"/><line class="cls-2" x1="1569.24" y1="534.5" x2="1591.9" y2="534.5"/><line class="cls-2" x1="1569.24" y1="539.27" x2="1591.9" y2="539.27"/><line class="cls-2" x1="1569.24" y1="544.04" x2="1591.9" y2="544.04"/><line class="cls-2" x1="1569.24" y1="548.81" x2="1591.9" y2="548.81"/><line class="cls-2" x1="1557.53" y1="556.19" x2="1557.53" y2="579.78"/><path class="cls-3" d="m1048.35,612.74c-25.65.49-51.29.99-76.94,1.48.04,5.02.08,10.04.12,15.07h86.23l75.25-10.65v-5.9h-65.84"/><polyline class="cls-3" points="975.3 640.22 1044.37 640.22 1044.37 662.46 975.3 662.46"/><line class="cls-2" x1="975.3" y1="629.28" x2="975.3" y2="672.39"/><line class="cls-2" x1="981.3" y1="629.28" x2="981.3" y2="672.39"/><line class="cls-2" x1="987.3" y1="629.28" x2="987.3" y2="672.39"/><line class="cls-2" x1="993.3" y1="629.28" x2="993.3" y2="672.39"/><line class="cls-2" x1="999.3" y1="629.28" x2="999.3" y2="672.39"/><line class="cls-2" x1="1005.3" y1="629.28" x2="1005.3" y2="672.39"/><line class="cls-2" x1="1011.3" y1="629.28" x2="1011.3" y2="672.39"/><line class="cls-2" x1="1017.3" y1="629.28" x2="1017.3" y2="672.39"/><line class="cls-2" x1="1023.3" y1="629.28" x2="1023.3" y2="672.39"/><line class="cls-2" x1="1029.3" y1="629.28" x2="1029.3" y2="672.39"/><line class="cls-2" x1="1035.3" y1="629.28" x2="1035.3" y2="672.39"/><line class="cls-2" x1="1073.23" y1="627.89" x2="1078.89" y2="666.58"/><line class="cls-2" x1="1079.17" y1="627.02" x2="1084.83" y2="665.71"/><line class="cls-2" x1="1085.1" y1="626.15" x2="1090.77" y2="664.84"/><line class="cls-2" x1="1091.04" y1="625.28" x2="1096.7" y2="663.97"/><line class="cls-2" x1="1096.98" y1="624.41" x2="1102.64" y2="663.1"/><line class="cls-2" x1="1102.91" y1="623.54" x2="1108.58" y2="662.23"/><line class="cls-2" x1="1108.85" y1="622.67" x2="1114.51" y2="661.36"/><line class="cls-2" x1="1114.79" y1="621.8" x2="1120.45" y2="660.49"/><line class="cls-2" x1="1120.72" y1="620.94" x2="1126.39" y2="659.62"/><line class="cls-2" x1="1126.66" y1="620.07" x2="1132.32" y2="658.76"/><line class="cls-2" x1="1132.6" y1="619.2" x2="1138.26" y2="657.89"/><polyline class="cls-2" points="1139.96 628.11 1064.57 639.14 1067.79 661.14 1143.18 650.11"/></g><g id="Layer_310"><rect class="cls-9" x="363.39" y="1084.14" width="93.7" height="61.72"/><text class="cls-14" transform="translate(388.54 1119.39)"><tspan class="cls-18" x="0" y="0">3</tspan><tspan x="15.66" y="0">10</tspan></text></g><g id="Layer_309"><rect class="cls-9" x="457.08" y="1084.14" width="96.96" height="61.72"/><text class="cls-14" transform="translate(482.69 1119.39)"><tspan x="0" y="0">309</tspan></text></g><g id="Layer_308"><rect class="cls-9" x="477.64" y="1025.36" width="76.4" height="58.78"/><text class="cls-14" transform="translate(491.55 1060.46)"><tspan x="0" y="0">308</tspan></text></g><g id="Layer_307"><rect class="cls-9" x="457.08" y="966.36" width="96.96" height="59"/><text class="cls-14" transform="translate(482.47 1003.43)"><tspan x="0" y="0">307</tspan></text></g><g id="Layer_306"><rect class="cls-9" x="479.23" y="906.32" width="74.81" height="60.04"/><text class="cls-14" transform="translate(491.76 943.02)"><tspan x="0" y="0">306</tspan></text></g><g id="Layer_305"><rect class="cls-9" x="458.79" y="847.42" width="95.26" height="58.9"/><text class="cls-14" transform="translate(481.73 882.3)"><tspan x="0" y="0">305</tspan></text></g><g id="Layer_304"><rect class="cls-9" x="363.53" y="847.42" width="95.26" height="58.9"/><text class="cls-14" transform="translate(386.28 882.3)"><tspan x="0" y="0">304</tspan></text></g><g id="Layer_303"><rect class="cls-9" x="363.53" y="732.12" width="81.58" height="115.7"/><text class="cls-14" transform="translate(380.23 797.04)"><tspan x="0" y="0">303</tspan></text></g><g id="Layer_302"><rect class="cls-9" x="445.11" y="732.12" width="78.3" height="115.7"/><text class="cls-14" transform="translate(460.64 797.04)"><tspan x="0" y="0">302</tspan></text></g><g id="Layer_301"><rect class="cls-9" x="363.53" y="605.85" width="159.87" height="126.27"/><text class="cls-14" transform="translate(423.31 677.16)"><tspan x="0" y="0">301</tspan></text></g><g id="Layer_311"><rect class="cls-9" x="363.53" y="936.53" width="63.56" height="118.22"/><text class="cls-14" transform="translate(376.17 1000.11)"><tspan class="cls-18" x="0" y="0">3</tspan><tspan x="15.66" y="0">11</tspan></text></g><g id="Layer_313"><rect class="cls-9" x="241.66" y="1031.54" width="75.98" height="56.71"/><text class="cls-14" transform="translate(256.37 1066.58)"><tspan class="cls-18" x="0" y="0">3</tspan><tspan x="15.66" y="0">13</tspan></text></g><g id="Layer_314"><rect class="cls-9" x="241.66" y="969.15" width="97.2" height="62.63"/><text class="cls-14" transform="translate(268.9 1006.18)"><tspan class="cls-18" x="0" y="0">3</tspan><tspan x="15.66" y="0">14</tspan></text></g><g id="Layer_315"><rect class="cls-9" x="241.66" y="906.32" width="97.2" height="62.63"/><text class="cls-14" transform="translate(269.08 943.34)"><tspan class="cls-18" x="0" y="0">3</tspan><tspan x="15.66" y="0">15</tspan></text></g><g id="Layer_316"><polygon class="cls-9" points="327.25 846.08 318.7 846.08 307.46 846.08 242.02 846.08 242.02 906.32 318.7 906.32 318.7 878.83 327.25 878.83 327.25 846.08"/><text class="cls-14" transform="translate(260.7 880.72)"><tspan class="cls-18" x="0" y="0">3</tspan><tspan x="15.66" y="0">16</tspan></text></g><g id="Layer_317"><polygon class="cls-9" points="327.25 846.08 318.7 846.08 307.46 846.08 242.02 846.08 242.02 788.5 318.7 788.5 318.7 814.78 327.25 814.78 327.25 846.08"/><text class="cls-14" transform="translate(261.21 823.1)"><tspan class="cls-18" x="0" y="0">3</tspan><tspan x="15.66" y="0">17</tspan></text></g><g id="Layer_318"><rect class="cls-9" x="241.66" y="730.07" width="99.59" height="58.43"/><text class="cls-14" transform="translate(268.63 765.11)"><tspan class="cls-18" x="0" y="0">3</tspan><tspan x="15.66" y="0">18</tspan></text></g><g id="Layer_319"><rect class="cls-9" x="241.66" y="668.98" width="99.59" height="61.65"/><text class="cls-14" transform="translate(268.84 705.82)"><tspan class="cls-18" x="0" y="0">3</tspan><tspan x="15.66" y="0">19</tspan></text></g><g id="Layer_320"><polygon class="cls-9" points="333.98 609.23 323.65 609.23 306.34 609.23 241.66 609.23 241.66 668.98 323.65 668.98 323.65 641.43 333.98 641.43 333.98 609.23"/><text class="cls-14" transform="translate(260.8 644.87)"><tspan x="0" y="0">320</tspan></text></g><g id="Layer_321"><polygon class="cls-9" points="333.98 609.23 323.65 609.23 306.34 609.23 241.66 609.23 241.66 550.27 323.65 550.27 323.65 577.45 333.98 577.45 333.98 609.23"/><text class="cls-14" transform="translate(260.83 587.03)"><tspan x="0" y="0">321</tspan></text></g><g id="Layer_322"><rect class="cls-9" x="241.66" y="492.21" width="99.59" height="58.06"/><text class="cls-14" transform="translate(266.94 527.16)"><tspan x="0" y="0">322</tspan></text></g><g id="Layer_323"><rect class="cls-2" x="241.66" y="434.14" width="99.59" height="58.06"/><text class="cls-14" transform="translate(266.69 469.1)"><tspan x="0" y="0">323</tspan></text></g><g id="Layer_324"><rect class="cls-9" x="241.66" y="376.08" width="99.59" height="58.06"/><text class="cls-14" transform="translate(267.08 411.04)"><tspan x="0" y="0">3</tspan><tspan class="cls-13" x="15.88" y="0">2</tspan><tspan x="30.6" y="0">4</tspan></text></g><g id="Layer_toilet1"><rect class="cls-2" x="434.38" y="376.08" width="43.48" height="75.24"/></g><g id="Layer_toilet2"><rect class="cls-2" x="477.85" y="376.08" width="51.5" height="75.24" transform="translate(1007.2 827.41) rotate(180)"/></g><g id="Layer_toilet3"><rect class="cls-5" x="1461.19" y="459.24" width="91.21" height="50.39"/></g><g id="Layer_toilet4"><rect class="cls-6" x="1461.19" y="509.63" width="91.21" height="46.56"/></g><g id="Layer_328A"><rect class="cls-9" x="945.82" y="376.08" width="159.87" height="180.11"/><text class="cls-14" transform="translate(994.03 460.15)"><tspan x="0" y="0">328A</tspan></text><text class="cls-16" transform="translate(978.37 487.58)"><tspan x="0" y="0">C</tspan><tspan class="cls-10" x="15" y="0">L</tspan><tspan x="25.86" y="0">C LAB1</tspan></text></g><g id="Layer_328B"><rect class="cls-9" x="1105.69" y="376.08" width="85.66" height="180.11" transform="translate(2297.05 932.28) rotate(180)"/><text class="cls-14" transform="translate(1116.38 451.78)"><tspan x="0" y="0">328B</tspan></text><text class="cls-15" transform="translate(1130.14 479.21)"><tspan x="0" y="0">C</tspan><tspan class="cls-11" x="13.5" y="0">L</tspan><tspan x="23.27" y="0">C</tspan><tspan class="cls-11" x="-19.88" y="21.6">L</tspan><tspan x="-10.11" y="21.6">OUNGE</tspan></text></g><g id="Layer_328C"><rect class="cls-9" x="1191.36" y="376.08" width="200.84" height="180.11"/><text class="cls-14" transform="translate(1259.37 458.87)"><tspan x="0" y="0">328C</tspan></text><text class="cls-16" transform="translate(1241.42 486.3)"><tspan x="0" y="0">C</tspan><tspan class="cls-10" x="15" y="0">L</tspan><tspan x="25.86" y="0">C LAB2</tspan></text></g><g id="Layer_lounge"><text class="cls-14" transform="translate(1261.87 609.22)"><tspan class="cls-12" x="0" y="0">L</tspan><tspan class="cls-17" x="12.5" y="0">OUNGE</tspan></text><rect class="cls-1" x="1201.03" y="567.99" width="232.93" height="72.23"/></g></svg>