<?xml version="1.0" encoding="UTF-8"?>
<svg xmlns="http://www.w3.org/2000/svg" version="1.1" viewBox="0 0 1527.6 717.5">
  <defs>
    <style>
      .cls-1 {
        stroke: #e38789;
      }

      .cls-1, .cls-2, .cls-3 {
        stroke-width: 3px;
      }

      .cls-1, .cls-2, .cls-3, .cls-4 {
        stroke-miterlimit: 10;
      }

      .cls-1, .cls-3 {
        fill: none;
      }

      .cls-5, .cls-6 {
        isolation: isolate;
      }

      .cls-2 {
        fill: #f3cdcf;
      }

      .cls-2, .cls-3, .cls-4 {
        stroke: #e68b8b;
      }

      .cls-6 {
        fill: #221f20;
        font-family: NanumSquareNeoTTF-dEb, 'NanumSquare Neo';
        font-size: 12px;
      }

      .cls-4 {
        fill: #fcf2f2;
        stroke-width: 10px;
      }
    </style>
  </defs>
  <!-- Generator: Adobe Illustrator 28.6.0, SVG Export Plug-In . SVG Version: 1.2.0 Build 709)  -->
  <g>
    <g id="_x35_">
      <g id="Layer_x5F_border">
        <rect class="cls-4" x="56.5" y="166.1" width="1421" height="387.9"/>
      </g>
      <g id="Layer_63">
        <rect class="cls-2" x="56.5" y="166.1" width="281.9" height="198.9"/>
        <g class="cls-5">
          <text class="cls-6" transform="translate(165.6 266.9)"><tspan x="0" y="0">501A</tspan></text>
          <text class="cls-6" transform="translate(126.2 281.3)"><tspan x="0" y="0">지구환경과학 실험실1</tspan></text>
        </g>
      </g>
      <g id="Layer_64">
        <rect class="cls-2" x="56.5" y="365.1" width="281.9" height="189"/>
        <g class="cls-5">
          <text class="cls-6" transform="translate(169.5 449.4)"><tspan x="0" y="0">501B</tspan></text>
          <text class="cls-6" transform="translate(128.7 463.8)"><tspan x="0" y="0">지구환경과학 실험실2</tspan></text>
        </g>
      </g>
      <g id="Layer_65">
        <rect class="cls-2" x="338.4" y="397.6" width="200.9" height="156.5"/>
        <g class="cls-5">
          <text class="cls-6" transform="translate(419.5 468.2)"><tspan x="0" y="0">509</tspan></text>
          <text class="cls-6" transform="translate(375.5 482.6)"><tspan x="0" y="0">교양지구환경 준비실2</tspan></text>
        </g>
      </g>
      <g id="Layer_66">
        <rect class="cls-2" x="539.2" y="397.6" width="377.3" height="156.5"/>
        <g class="cls-5">
          <text class="cls-6" transform="translate(713.5 469.6)"><tspan x="0" y="0">508</tspan></text>
          <text class="cls-6" transform="translate(673.2 484)"><tspan x="0" y="0">일반물리학 실험실 A</tspan></text>
        </g>
      </g>
      <g id="Layer_67">
        <rect class="cls-2" x="916.6" y="397.6" width="371.3" height="156.5"/>
        <g class="cls-5">
          <text class="cls-6" transform="translate(1089.9 473.8)"><tspan x="0" y="0">507</tspan></text>
          <text class="cls-6" transform="translate(1049.2 488.2)"><tspan x="0" y="0">일반물리학 실험실 B</tspan></text>
        </g>
      </g>
      <g id="Layer_68">
        <rect class="cls-2" x="1287.9" y="166.1" width="189.6" height="387.9"/>
        <g class="cls-5">
          <text class="cls-6" transform="translate(1369.9 360.1)"><tspan x="0" y="0">506</tspan></text>
          <text class="cls-6" transform="translate(1331.1 374.5)"><tspan x="0" y="0">일반물리학 실험실C</tspan></text>
        </g>
      </g>
      <g id="Layer_69">
        <rect class="cls-2" x="1189" y="166.1" width="98.9" height="162.4"/>
        <g class="cls-5">
          <text class="cls-6" transform="translate(1225.8 244.3)"><tspan x="0" y="0">505</tspan></text>
          <text class="cls-6" transform="translate(1193.9 258.7)"><tspan x="0" y="0">교양물리준비실A</tspan></text>
        </g>
      </g>
      <g id="Layer_70">
        <rect class="cls-2" x="1102.2" y="166.1" width="86.8" height="83.3"/>
        <g class="cls-5">
          <text class="cls-6" transform="translate(1128.3 197)"><tspan x="0" y="0">504B</tspan></text>
          <text class="cls-6" transform="translate(1117.2 211.4)"><tspan x="0" y="0">일반생물학</tspan></text>
          <text class="cls-6" transform="translate(1128.6 225.8)"><tspan x="0" y="0">준비실</tspan></text>
        </g>
      </g>
      <g id="Layer_71">
        <rect class="cls-2" x="1102.2" y="249.4" width="86.8" height="79.1"/>
        <g class="cls-5">
          <text class="cls-6" transform="translate(1128.1 276)"><tspan x="0" y="0">504A</tspan></text>
          <text class="cls-6" transform="translate(1117.2 290.4)"><tspan x="0" y="0">일반생물학</tspan></text>
          <text class="cls-6" transform="translate(1128.6 304.8)"><tspan x="0" y="0">준비실</tspan></text>
        </g>
      </g>
      <g id="Layer_72">
        <rect class="cls-2" x="726.7" y="166.1" width="375.6" height="162.4"/>
        <g class="cls-5">
          <text class="cls-6" transform="translate(901.6 247.3)"><tspan x="0" y="0">504</tspan></text>
          <text class="cls-6" transform="translate(868.9 261.7)"><tspan x="0" y="0">일반생물학실험실</tspan></text>
        </g>
      </g>
      <g id="Layer_73">
        <rect class="cls-2" x="633" y="166.1" width="93.7" height="162.4"/>
        <g class="cls-5">
          <text class="cls-6" transform="translate(667 247.3)"><tspan x="0" y="0">503</tspan></text>
          <text class="cls-6" transform="translate(657.1 261.7)"><tspan x="0" y="0">교양물리</tspan></text>
          <text class="cls-6" transform="translate(658.2 276.1)"><tspan x="0" y="0">준비실B</tspan></text>
        </g>
      </g>
      <g id="Layer_74">
        <rect class="cls-2" x="338.4" y="166.1" width="200.9" height="162.4"/>
        <g class="cls-5">
          <text class="cls-6" transform="translate(426.1 247.3)"><tspan x="0" y="0">502</tspan></text>
          <text class="cls-6" transform="translate(383.1 261.7)"><tspan x="0" y="0">교양지구환경 준비실1</tspan></text>
        </g>
      </g>
      <g id="Layer_x5F_others">
        <rect class="cls-3" x="539.2" y="166.1" width="93.7" height="162.4"/>
        <g>
          <rect class="cls-1" x="539.2" y="217.8" width="46.9" height="9.1"/>
          <rect class="cls-1" x="539.2" y="226.9" width="46.9" height="9.5"/>
          <rect class="cls-1" x="539.2" y="236.4" width="46.9" height="10.9"/>
          <rect class="cls-1" x="539.2" y="247.4" width="46.9" height="8.8"/>
          <rect class="cls-1" x="539.2" y="256.1" width="46.9" height="11"/>
          <rect class="cls-1" x="539.2" y="267.1" width="46.9" height="7.9"/>
          <rect class="cls-1" x="539.2" y="274.9" width="46.9" height="11.9"/>
          <rect class="cls-1" x="539.2" y="286.8" width="46.9" height="11"/>
          <rect class="cls-1" x="539.2" y="297.7" width="46.9" height="9.5"/>
          <rect class="cls-1" x="539.2" y="307.2" width="46.9" height="9.5"/>
        </g>
        <g>
          <rect class="cls-1" x="586.1" y="217.6" width="45" height="9.1"/>
          <rect class="cls-1" x="586.1" y="226.7" width="45" height="9.5"/>
          <rect class="cls-1" x="586.1" y="236.2" width="45" height="10.9"/>
          <rect class="cls-1" x="586.1" y="247.2" width="45" height="8.8"/>
          <rect class="cls-1" x="586.1" y="255.9" width="45" height="11"/>
          <rect class="cls-1" x="586.1" y="266.9" width="45" height="7.9"/>
          <rect class="cls-1" x="586.1" y="274.7" width="45" height="11.9"/>
          <rect class="cls-1" x="586.1" y="286.6" width="45" height="11"/>
          <rect class="cls-1" x="586.1" y="297.5" width="45" height="9.5"/>
          <rect class="cls-1" x="586.1" y="307" width="45" height="9.5"/>
        </g>
      </g>
    </g>
  </g>
</svg>