<?xml version="1.0" encoding="UTF-8"?><svg xmlns="http://www.w3.org/2000/svg" viewBox="0 0 1100 1600"><g id="Layer_border"><path d="m852.5,1236.5v-262.41l-.87-34.81c-65.52-65.52-131.04-131.04-196.56-196.56l-125.58-212.22c-4-8.33-8-16.67-12-25-39.33-41-78.67-82-118-123-12.67-9.33-25.33-18.67-38-28-45.86-30.75-91.71-61.5-137.57-92.25l-124.18,127.09c13.3,16.41,26.6,32.82,39.9,49.23l-.1.1c30.81,40.11,61.63,80.22,92.44,120.33l78,78c6.17,4.76,12.33,9.52,18.5,14.28v300.72h186v442.5h258v55h91v-213h-11Z" fill="#fdf3f2" stroke="#e18686" stroke-linecap="round" stroke-linejoin="round" stroke-width="5.18"/></g><g id="Layer_others"><rect x="520.25" y="829.5" width="139" height="46" fill="none" stroke="#e18686" stroke-miterlimit="10" stroke-width="2"/><rect x="532.25" y="843.5" width="35" height="25" fill="none" stroke="#e18686" stroke-miterlimit="10" stroke-width="2"/><rect x="573.25" y="843.5" width="35" height="25" fill="none" stroke="#e18686" stroke-miterlimit="10" stroke-width="2"/><rect x="614.25" y="843.5" width="35" height="25" fill="none" stroke="#e18686" stroke-miterlimit="10" stroke-width="2"/><rect x="572" y="796" width="35" height="25" transform="translate(1398 219) rotate(90)" fill="none" stroke="#e18686" stroke-miterlimit="10" stroke-width="2"/><rect x="520" y="777" width="52" height="53" fill="none" stroke="#e18686" stroke-miterlimit="10" stroke-width="2"/><rect x="508.48" y="980.64" width="55.92" height="22.8" transform="translate(-455.6 1528.48) rotate(-90)" fill="none" stroke="#e18686" stroke-miterlimit="10" stroke-width="2"/><line x1="525.45" y1="995.42" x2="548.25" y2="995.42" fill="none" stroke="#e18686" stroke-miterlimit="10" stroke-width="2"/><line x1="525.45" y1="991.44" x2="548.25" y2="991.44" fill="none" stroke="#e18686" stroke-miterlimit="10" stroke-width="2"/><line x1="525.45" y1="987.46" x2="548.25" y2="987.46" fill="none" stroke="#e18686" stroke-miterlimit="10" stroke-width="2"/><line x1="525.45" y1="983.48" x2="548.25" y2="983.48" fill="none" stroke="#e18686" stroke-miterlimit="10" stroke-width="2"/><line x1="525.45" y1="979.5" x2="548.25" y2="979.5" fill="none" stroke="#e18686" stroke-miterlimit="10" stroke-width="2"/><line x1="525.45" y1="975.52" x2="548.25" y2="975.52" fill="none" stroke="#e18686" stroke-miterlimit="10" stroke-width="2"/><line x1="525.45" y1="971.54" x2="548.25" y2="971.54" fill="none" stroke="#e18686" stroke-miterlimit="10" stroke-width="2"/><line x1="525.45" y1="967.56" x2="548.25" y2="967.56" fill="none" stroke="#e18686" stroke-miterlimit="10" stroke-width="2"/><line x1="525.45" y1="1007.42" x2="548.25" y2="1007.42" fill="none" stroke="#e18686" stroke-miterlimit="10" stroke-width="2"/><line x1="525.45" y1="1003.44" x2="548.25" y2="1003.44" fill="none" stroke="#e18686" stroke-miterlimit="10" stroke-width="2"/><line x1="525.45" y1="999.46" x2="548.25" y2="999.46" fill="none" stroke="#e18686" stroke-miterlimit="10" stroke-width="2"/><line x1="525.45" y1="1015.42" x2="548.25" y2="1015.42" fill="none" stroke="#e18686" stroke-miterlimit="10" stroke-width="2"/><line x1="525.45" y1="1011.44" x2="548.25" y2="1011.44" fill="none" stroke="#e18686" stroke-miterlimit="10" stroke-width="2"/><rect x="525.25" y="942.5" width="118" height="162" fill="none" stroke="#e18686" stroke-miterlimit="10" stroke-width="2"/><rect x="535.48" y="980.64" width="55.92" height="22.8" transform="translate(-428.6 1555.48) rotate(-90)" fill="none" stroke="#e18686" stroke-miterlimit="10" stroke-width="2"/><line x1="552.45" y1="995.42" x2="575.25" y2="995.42" fill="none" stroke="#e18686" stroke-miterlimit="10" stroke-width="2"/><line x1="552.45" y1="991.44" x2="575.25" y2="991.44" fill="none" stroke="#e18686" stroke-miterlimit="10" stroke-width="2"/><line x1="552.45" y1="987.46" x2="575.25" y2="987.46" fill="none" stroke="#e18686" stroke-miterlimit="10" stroke-width="2"/><line x1="552.45" y1="983.48" x2="575.25" y2="983.48" fill="none" stroke="#e18686" stroke-miterlimit="10" stroke-width="2"/><line x1="552.45" y1="979.5" x2="575.25" y2="979.5" fill="none" stroke="#e18686" stroke-miterlimit="10" stroke-width="2"/><line x1="552.45" y1="975.52" x2="575.25" y2="975.52" fill="none" stroke="#e18686" stroke-miterlimit="10" stroke-width="2"/><line x1="552.45" y1="971.54" x2="575.25" y2="971.54" fill="none" stroke="#e18686" stroke-miterlimit="10" stroke-width="2"/><line x1="552.45" y1="967.56" x2="575.25" y2="967.56" fill="none" stroke="#e18686" stroke-miterlimit="10" stroke-width="2"/><line x1="552.45" y1="1007.42" x2="575.25" y2="1007.42" fill="none" stroke="#e18686" stroke-miterlimit="10" stroke-width="2"/><line x1="552.45" y1="1003.44" x2="575.25" y2="1003.44" fill="none" stroke="#e18686" stroke-miterlimit="10" stroke-width="2"/><line x1="552.45" y1="999.46" x2="575.25" y2="999.46" fill="none" stroke="#e18686" stroke-miterlimit="10" stroke-width="2"/><line x1="552.45" y1="1015.42" x2="575.25" y2="1015.42" fill="none" stroke="#e18686" stroke-miterlimit="10" stroke-width="2"/><line x1="552.45" y1="1011.44" x2="575.25" y2="1011.44" fill="none" stroke="#e18686" stroke-miterlimit="10" stroke-width="2"/><rect x="508.48" y="1046.64" width="55.92" height="22.8" transform="translate(-521.6 1594.48) rotate(-90)" fill="none" stroke="#e18686" stroke-miterlimit="10" stroke-width="2"/><line x1="525.45" y1="1061.42" x2="548.25" y2="1061.42" fill="none" stroke="#e18686" stroke-miterlimit="10" stroke-width="2"/><line x1="525.45" y1="1057.44" x2="548.25" y2="1057.44" fill="none" stroke="#e18686" stroke-miterlimit="10" stroke-width="2"/><line x1="525.45" y1="1053.46" x2="548.25" y2="1053.46" fill="none" stroke="#e18686" stroke-miterlimit="10" stroke-width="2"/><line x1="525.45" y1="1049.48" x2="548.25" y2="1049.48" fill="none" stroke="#e18686" stroke-miterlimit="10" stroke-width="2"/><line x1="525.45" y1="1045.5" x2="548.25" y2="1045.5" fill="none" stroke="#e18686" stroke-miterlimit="10" stroke-width="2"/><line x1="525.45" y1="1041.52" x2="548.25" y2="1041.52" fill="none" stroke="#e18686" stroke-miterlimit="10" stroke-width="2"/><line x1="525.45" y1="1037.54" x2="548.25" y2="1037.54" fill="none" stroke="#e18686" stroke-miterlimit="10" stroke-width="2"/><line x1="525.45" y1="1033.56" x2="548.25" y2="1033.56" fill="none" stroke="#e18686" stroke-miterlimit="10" stroke-width="2"/><line x1="525.45" y1="1073.42" x2="548.25" y2="1073.42" fill="none" stroke="#e18686" stroke-miterlimit="10" stroke-width="2"/><line x1="525.45" y1="1069.44" x2="548.25" y2="1069.44" fill="none" stroke="#e18686" stroke-miterlimit="10" stroke-width="2"/><line x1="525.45" y1="1065.46" x2="548.25" y2="1065.46" fill="none" stroke="#e18686" stroke-miterlimit="10" stroke-width="2"/><line x1="525.45" y1="1081.42" x2="548.25" y2="1081.42" fill="none" stroke="#e18686" stroke-miterlimit="10" stroke-width="2"/><line x1="525.45" y1="1077.44" x2="548.25" y2="1077.44" fill="none" stroke="#e18686" stroke-miterlimit="10" stroke-width="2"/><rect x="535.48" y="1046.64" width="55.92" height="22.8" transform="translate(-494.6 1621.48) rotate(-90)" fill="none" stroke="#e18686" stroke-miterlimit="10" stroke-width="2"/><line x1="552.45" y1="1061.42" x2="575.25" y2="1061.42" fill="none" stroke="#e18686" stroke-miterlimit="10" stroke-width="2"/><line x1="552.45" y1="1057.44" x2="575.25" y2="1057.44" fill="none" stroke="#e18686" stroke-miterlimit="10" stroke-width="2"/><line x1="552.45" y1="1053.46" x2="575.25" y2="1053.46" fill="none" stroke="#e18686" stroke-miterlimit="10" stroke-width="2"/><line x1="552.45" y1="1049.48" x2="575.25" y2="1049.48" fill="none" stroke="#e18686" stroke-miterlimit="10" stroke-width="2"/><line x1="552.45" y1="1045.5" x2="575.25" y2="1045.5" fill="none" stroke="#e18686" stroke-miterlimit="10" stroke-width="2"/><line x1="552.45" y1="1041.52" x2="575.25" y2="1041.52" fill="none" stroke="#e18686" stroke-miterlimit="10" stroke-width="2"/><line x1="552.45" y1="1037.54" x2="575.25" y2="1037.54" fill="none" stroke="#e18686" stroke-miterlimit="10" stroke-width="2"/><line x1="552.45" y1="1033.56" x2="575.25" y2="1033.56" fill="none" stroke="#e18686" stroke-miterlimit="10" stroke-width="2"/><line x1="552.45" y1="1073.42" x2="575.25" y2="1073.42" fill="none" stroke="#e18686" stroke-miterlimit="10" stroke-width="2"/><line x1="552.45" y1="1069.44" x2="575.25" y2="1069.44" fill="none" stroke="#e18686" stroke-miterlimit="10" stroke-width="2"/><line x1="552.45" y1="1065.46" x2="575.25" y2="1065.46" fill="none" stroke="#e18686" stroke-miterlimit="10" stroke-width="2"/><line x1="552.45" y1="1081.42" x2="575.25" y2="1081.42" fill="none" stroke="#e18686" stroke-miterlimit="10" stroke-width="2"/><line x1="552.45" y1="1077.44" x2="575.25" y2="1077.44" fill="none" stroke="#e18686" stroke-miterlimit="10" stroke-width="2"/><rect x="578.25" y="968.5" width="64" height="46" fill="none" stroke="#e18686" stroke-miterlimit="10" stroke-width="2"/><rect x="578.25" y="1020.5" width="64" height="62" fill="none" stroke="#e18686" stroke-miterlimit="10" stroke-width="2"/><path d="m511.5,932.5h-160c-.33-84.33-.67-168.67-1-253,62,0,123.99,0,185.99,0v80.01h63.01l222,228c-16.14,16.15-32.28,32.31-48.42,48.46l1.42,201.54h76" fill="none" stroke="#e18686" stroke-linecap="round" stroke-linejoin="round" stroke-width="2"/></g><g id="Layer_toilet1"><rect x="643" y="1023" width="82" height="66" fill="none" stroke="#e18686" stroke-miterlimit="10" stroke-width="2"/></g><g id="Layer_toilet2"><path d="m685.73,942.5c-14.24,0-28.49,0-42.73,0v80.5h82v-41c-13.09-13.17-26.18-26.33-39.27-39.5Z" fill="none" stroke="#e18686" stroke-miterlimit="10" stroke-width="2"/></g><g id="Layer_DECK"><text transform="translate(530.38 1256.12)" fill="#434142" font-family="NanumSquareNeovariable-Heavy, &apos;NanumSquare Neo variable&apos;" font-size="12" font-variation-settings="&apos;wght&apos; 900" font-weight="800"><tspan x="0" y="0">DECK</tspan></text><rect x="516" y="1132" width="63" height="260" fill="none" stroke="#e18686" stroke-miterlimit="10" stroke-width="2"/><text transform="translate(795.84 1153.37)" fill="#434142" font-family="NanumSquareNeovariable-Heavy, &apos;NanumSquare Neo variable&apos;" font-size="12" font-variation-settings="&apos;wght&apos; 900" font-weight="800"><tspan x="0" y="0">DECK</tspan></text><text transform="translate(404.71 663.89)" fill="#434142" font-family="NanumSquareNeovariable-Heavy, &apos;NanumSquare Neo variable&apos;" font-size="12" font-variation-settings="&apos;wght&apos; 900" font-weight="800"><tspan x="0" y="0">DECK</tspan></text><path d="m822,988c-16.33,16-32.67,32-49,48,.33,67.33.67,134.67,1,202h76v-297l-200-200c-45-77.33-90-154.67-135-232l-117.67-123.87-170.49-120.93-124.85,122.85,119.69,158.52,105.61,104.78v29.15h209.2v80.01h63.01c74.17,76.17,148.33,152.33,222.5,228.5Z" fill="none" stroke="#e18686" stroke-miterlimit="10" stroke-width="2"/></g><g id="Layer_504"><rect x="579" y="1315" width="151" height="77" fill="#f8cdce" stroke="#e18686" stroke-miterlimit="10" stroke-width="1.9"/><text transform="translate(641.62 1355.78)" fill="#434142" font-family="NanumSquareNeovariable-Heavy, &apos;NanumSquare Neo variable&apos;" font-size="12" font-variation-settings="&apos;wght&apos; 900" font-weight="800"><tspan x="0" y="0">504</tspan></text></g><g id="Layer_503"><rect x="579" y="1251" width="151" height="64" fill="#f8cdce" stroke="#e18686" stroke-miterlimit="10" stroke-width="2"/><text transform="translate(641.58 1285.78)" fill="#434142" font-family="NanumSquareNeovariable-Heavy, &apos;NanumSquare Neo variable&apos;" font-size="12" font-variation-settings="&apos;wght&apos; 900" font-weight="800"><tspan x="0" y="0">503</tspan></text></g><g id="Layer_502"><rect x="579" y="1187" width="151" height="64" fill="#f8cdce" stroke="#e18686" stroke-miterlimit="10" stroke-width="2"/><text transform="translate(641.72 1221.78)" fill="#434142" font-family="NanumSquareNeovariable-Heavy, &apos;NanumSquare Neo variable&apos;" font-size="12" font-variation-settings="&apos;wght&apos; 900" font-weight="800"><tspan x="0" y="0">502</tspan></text></g><g id="Layer_501"><rect x="579" y="1132" width="151" height="55" fill="#f8cdce" stroke="#e18686" stroke-miterlimit="10" stroke-width="2"/><text transform="translate(642.83 1162.78)" fill="#434142" font-family="NanumSquareNeovariable-Heavy, &apos;NanumSquare Neo variable&apos;" font-size="12" font-variation-settings="&apos;wght&apos; 900" font-weight="800"><tspan x="0" y="0">501</tspan></text></g><g id="Layer_505"><rect x="774" y="1237" width="86" height="209" fill="#f8cdce" stroke="#e18686" stroke-miterlimit="10" stroke-width="2"/><text transform="translate(804.25 1345.49)" fill="#434142" font-family="NanumSquareNeovariable-Heavy, &apos;NanumSquare Neo variable&apos;" font-size="12" font-variation-settings="&apos;wght&apos; 900" font-weight="800"><tspan x="0" y="0">505</tspan></text></g><g id="Layer_506"><rect x="380" y="723" width="94" height="197" fill="#f8cdce" stroke="#e18686" stroke-miterlimit="10" stroke-width="2"/><text transform="translate(414.36 818.1)" fill="#434142" font-family="NanumSquareNeovariable-Heavy, &apos;NanumSquare Neo variable&apos;" font-size="12" font-variation-settings="&apos;wght&apos; 900" font-weight="800"><tspan x="0" y="0">506</tspan></text></g></svg>