<?xml version="1.0" encoding="UTF-8"?><svg
  xmlns="http://www.w3.org/2000/svg"
  viewBox="0 0 1920 1080"
>
  <g id="Layer_border">
    <g fill="none" opacity=".7">
      <polygon
        points="1499.46 817 1430.64 770 484.86 770 416.04 817 74.5 817 74.5 192 419.5 192 419.5 471 729.5 471 729.5 418 1186 418 1186 471 1496 471 1496 192 1841 192 1841 817 1499.46 817"
        fill="#fdf3f2"
      />
      <path
        d="m1836,197v615h-335c-22.94-15.67-45.88-31.33-68.82-47H483.32c-22.94,15.67-45.88,31.33-68.82,47H79.5V197h335v279h320v-53h446.5v53h320V197h335m10-10h-355v279h-300v-53h-466.5v53h-300V187H69.5v635h348.09l2.55-1.74,19.87-13.57,46.4-31.69h942.69l11.99,8.19,54.28,37.07,2.55,1.74h348.09V187h0Z"
        fill="#e18686"
      />
    </g>
  </g>
  <g id="Layer_others">
    <line
      x1="353"
      y1="238.13"
      x2="415.41"
      y2="238.13"
      fill="none"
      stroke="#e18686"
      stroke-miterlimit="10"
      stroke-width="2.83"
    />
    <line
      x1="353"
      y1="248.63"
      x2="415.41"
      y2="248.63"
      fill="none"
      stroke="#e18686"
      stroke-miterlimit="10"
      stroke-width="2.83"
    />
    <line
      x1="353"
      y1="259.13"
      x2="415.41"
      y2="259.13"
      fill="none"
      stroke="#e18686"
      stroke-miterlimit="10"
      stroke-width="2.83"
    />
    <line
      x1="353"
      y1="269.63"
      x2="415.41"
      y2="269.63"
      fill="none"
      stroke="#e18686"
      stroke-miterlimit="10"
      stroke-width="2.83"
    />
    <line
      x1="353"
      y1="280.13"
      x2="415.41"
      y2="280.13"
      fill="none"
      stroke="#e18686"
      stroke-miterlimit="10"
      stroke-width="2.83"
    />
    <line
      x1="353"
      y1="290.63"
      x2="415.41"
      y2="290.63"
      fill="none"
      stroke="#e18686"
      stroke-miterlimit="10"
      stroke-width="2.83"
    />
    <line
      x1="353"
      y1="301.13"
      x2="415.41"
      y2="301.13"
      fill="none"
      stroke="#e18686"
      stroke-miterlimit="10"
      stroke-width="2.83"
    />
    <line
      x1="353"
      y1="311.63"
      x2="415.41"
      y2="311.63"
      fill="none"
      stroke="#e18686"
      stroke-miterlimit="10"
      stroke-width="2.83"
    />
    <line
      x1="134"
      y1="238.13"
      x2="79"
      y2="238.13"
      fill="none"
      stroke="#e18686"
      stroke-miterlimit="10"
      stroke-width="3"
    />
    <line
      x1="134"
      y1="248.63"
      x2="79"
      y2="248.63"
      fill="none"
      stroke="#e18686"
      stroke-miterlimit="10"
      stroke-width="3"
    />
    <line
      x1="134"
      y1="259.13"
      x2="79"
      y2="259.13"
      fill="none"
      stroke="#e18686"
      stroke-miterlimit="10"
      stroke-width="3"
    />
    <line
      x1="134"
      y1="269.63"
      x2="79"
      y2="269.63"
      fill="none"
      stroke="#e18686"
      stroke-miterlimit="10"
      stroke-width="3"
    />
    <line
      x1="134"
      y1="280.13"
      x2="79"
      y2="280.13"
      fill="none"
      stroke="#e18686"
      stroke-miterlimit="10"
      stroke-width="3"
    />
    <line
      x1="134"
      y1="290.63"
      x2="79"
      y2="290.63"
      fill="none"
      stroke="#e18686"
      stroke-miterlimit="10"
      stroke-width="3"
    />
    <line
      x1="134"
      y1="301.13"
      x2="79"
      y2="301.13"
      fill="none"
      stroke="#e18686"
      stroke-miterlimit="10"
      stroke-width="3"
    />
    <line
      x1="134"
      y1="311.63"
      x2="79"
      y2="311.63"
      fill="none"
      stroke="#e18686"
      stroke-miterlimit="10"
      stroke-width="3"
    />
    <rect
      x="75.5"
      y="194.5"
      width="59"
      height="127"
      fill="none"
      stroke="#e18686"
      stroke-miterlimit="10"
      stroke-width="3"
    />
    <rect
      x="353.5"
      y="194.5"
      width="62"
      height="127"
      transform="translate(769 516) rotate(180)"
      fill="none"
      stroke="#e18686"
      stroke-miterlimit="10"
      stroke-width="3"
    />
    <rect
      x="411.5"
      y="633.5"
      width="71"
      height="133"
      fill="none"
      stroke="#e18686"
      stroke-miterlimit="10"
      stroke-width="3"
    />
    <line
      x1="411.5"
      y1="683.5"
      x2="481.5"
      y2="683.5"
      fill="none"
      stroke="#e18686"
      stroke-miterlimit="10"
      stroke-width="3"
    />
    <line
      x1="411.5"
      y1="694"
      x2="481.5"
      y2="694"
      fill="none"
      stroke="#e18686"
      stroke-miterlimit="10"
      stroke-width="3"
    />
    <line
      x1="411.5"
      y1="704.5"
      x2="481.5"
      y2="704.5"
      fill="none"
      stroke="#e18686"
      stroke-miterlimit="10"
      stroke-width="3"
    />
    <line
      x1="411.5"
      y1="715"
      x2="481.5"
      y2="715"
      fill="none"
      stroke="#e18686"
      stroke-miterlimit="10"
      stroke-width="3"
    />
    <line
      x1="411.5"
      y1="725.5"
      x2="481.5"
      y2="725.5"
      fill="none"
      stroke="#e18686"
      stroke-miterlimit="10"
      stroke-width="3"
    />
    <line
      x1="411.5"
      y1="736"
      x2="481.5"
      y2="736"
      fill="none"
      stroke="#e18686"
      stroke-miterlimit="10"
      stroke-width="3"
    />
    <line
      x1="411.5"
      y1="746.5"
      x2="481.5"
      y2="746.5"
      fill="none"
      stroke="#e18686"
      stroke-miterlimit="10"
      stroke-width="3"
    />
    <line
      x1="411.5"
      y1="757"
      x2="481.5"
      y2="757"
      fill="none"
      stroke="#e18686"
      stroke-miterlimit="10"
      stroke-width="3"
    />
    <rect
      x="1005.5"
      y="421.5"
      width="47"
      height="126"
      fill="none"
      stroke="#e18686"
      stroke-miterlimit="10"
      stroke-width="3"
    />
    <rect
      x="1135.5"
      y="421.5"
      width="47"
      height="126"
      fill="none"
      stroke="#e18686"
      stroke-miterlimit="10"
      stroke-width="3"
    />
    <rect
      x="1012.5"
      y="433.5"
      width="33.5"
      height="27"
      fill="none"
      stroke="#e18686"
      stroke-miterlimit="10"
      stroke-width="2.98"
    />
    <rect
      x="1012.5"
      y="469.5"
      width="33.5"
      height="27"
      fill="none"
      stroke="#e18686"
      stroke-miterlimit="10"
      stroke-width="2.98"
    />
    <rect
      x="1012.5"
      y="505.5"
      width="33.5"
      height="27"
      fill="none"
      stroke="#e18686"
      stroke-miterlimit="10"
      stroke-width="2.98"
    />
    <rect
      x="1142.5"
      y="433.5"
      width="33.5"
      height="27"
      fill="none"
      stroke="#e18686"
      stroke-miterlimit="10"
      stroke-width="2.98"
    />
    <rect
      x="1142.5"
      y="469.5"
      width="33.5"
      height="27"
      fill="none"
      stroke="#e18686"
      stroke-miterlimit="10"
      stroke-width="2.98"
    />
    <rect
      x="1142.5"
      y="505.5"
      width="33.5"
      height="27"
      fill="none"
      stroke="#e18686"
      stroke-miterlimit="10"
      stroke-width="2.98"
    />
    <line
      x1="910.5"
      y1="542.5"
      x2="1005.5"
      y2="542.5"
      fill="none"
      stroke="#e18686"
      stroke-miterlimit="10"
      stroke-width="3"
    />
    <line
      x1="911"
      y1="491"
      x2="1005"
      y2="491"
      fill="none"
      stroke="#e18686"
      stroke-miterlimit="10"
      stroke-width="3"
    />
    <line
      x1="911"
      y1="498.08"
      x2="1005"
      y2="498.08"
      fill="none"
      stroke="#e18686"
      stroke-miterlimit="10"
      stroke-width="3"
    />
    <line
      x1="911"
      y1="505.17"
      x2="1005"
      y2="505.17"
      fill="none"
      stroke="#e18686"
      stroke-miterlimit="10"
      stroke-width="3"
    />
    <line
      x1="911"
      y1="512.25"
      x2="1005"
      y2="512.25"
      fill="none"
      stroke="#e18686"
      stroke-miterlimit="10"
      stroke-width="3"
    />
    <line
      x1="911"
      y1="519.33"
      x2="1005"
      y2="519.33"
      fill="none"
      stroke="#e18686"
      stroke-miterlimit="10"
      stroke-width="3"
    />
    <line
      x1="911"
      y1="526.42"
      x2="1005"
      y2="526.42"
      fill="none"
      stroke="#e18686"
      stroke-miterlimit="10"
      stroke-width="3"
    />
    <line
      x1="911"
      y1="533.5"
      x2="1005"
      y2="533.5"
      fill="none"
      stroke="#e18686"
      stroke-miterlimit="10"
      stroke-width="3"
    />
    <polyline
      points="1431 633.5 1500.5 633.5 1500.5 703.93"
      fill="none"
      stroke="#e18686"
      stroke-miterlimit="10"
      stroke-width="3"
    />
    <line
      x1="1430.5"
      y1="680.5"
      x2="1500.5"
      y2="680.5"
      fill="none"
      stroke="#e18686"
      stroke-miterlimit="10"
      stroke-width="3"
    />
    <line
      x1="1430.5"
      y1="691"
      x2="1500.5"
      y2="691"
      fill="none"
      stroke="#e18686"
      stroke-miterlimit="10"
      stroke-width="3"
    />
    <line
      x1="1430.5"
      y1="701.5"
      x2="1500.5"
      y2="701.5"
      fill="none"
      stroke="#e18686"
      stroke-miterlimit="10"
      stroke-width="3"
    />
    <line
      x1="1430.5"
      y1="712"
      x2="1500.5"
      y2="712"
      fill="none"
      stroke="#e18686"
      stroke-miterlimit="10"
      stroke-width="3"
    />
    <line
      x1="1430.5"
      y1="722.5"
      x2="1500.5"
      y2="722.5"
      fill="none"
      stroke="#e18686"
      stroke-miterlimit="10"
      stroke-width="3"
    />
    <line
      x1="1430.5"
      y1="733"
      x2="1500.5"
      y2="733"
      fill="none"
      stroke="#e18686"
      stroke-miterlimit="10"
      stroke-width="3"
    />
    <line
      x1="1430.5"
      y1="743.5"
      x2="1500.5"
      y2="743.5"
      fill="none"
      stroke="#e18686"
      stroke-miterlimit="10"
      stroke-width="3"
    />
    <line
      x1="1430.5"
      y1="754"
      x2="1500.5"
      y2="754"
      fill="none"
      stroke="#e18686"
      stroke-miterlimit="10"
      stroke-width="3"
    />
    <line
      x1="1430.5"
      y1="764.5"
      x2="1500.5"
      y2="764.5"
      fill="none"
      stroke="#e18686"
      stroke-miterlimit="10"
      stroke-width="3"
    />
  </g>
  <g id="Layer_410">
    <polygon
      points="371.5 770.5 371.5 667.5 187 667.5 187 814.5 362.5 814.5 371.5 814.5 380.5 814.5 380.5 770.5 371.5 770.5"
      fill="#f8cdce"
      stroke="#e18686"
      stroke-miterlimit="10"
      stroke-width="3"
    />
    <text
      transform="translate(258.23 746.73)"
      fill="#434142"
      font-family="NanumSquareNeovariable-Heavy, 'NanumSquare Neo variable'"
      font-size="22"
      font-variation-settings="'wght' 900"
      font-weight="800"
    >
      <tspan x="0" y="0" letter-spacing="-.02em">4</tspan>
      <tspan x="15.31" y="0">10</tspan>
    </text>
  </g>
  <g id="Layer_409">
    <rect
      x="77.48"
      y="547.1"
      width="109.52"
      height="267.4"
      transform="translate(264.48 1361.6) rotate(180)"
      fill="#f8cdce"
      stroke="#e18686"
      stroke-miterlimit="10"
      stroke-width="3"
    />
    <text
      transform="translate(108.53 684.58)"
      fill="#434142"
      font-family="NanumSquareNeovariable-Heavy, 'NanumSquare Neo variable'"
      font-size="22"
      font-variation-settings="'wght' 900"
      font-weight="800"
    >
      <tspan x="0" y="0">409</tspan>
    </text>
  </g>
  <g id="Layer_408">
    <rect
      x="77.48"
      y="345"
      width="109.52"
      height="202.1"
      transform="translate(264.48 892.1) rotate(180)"
      fill="#f8cdce"
      stroke="#e18686"
      stroke-miterlimit="10"
      stroke-width="3"
    />
    <text
      transform="translate(108.4 440.91)"
      fill="#434142"
      font-family="NanumSquareNeovariable-Heavy, 'NanumSquare Neo variable'"
      font-size="22"
      font-variation-settings="'wght' 900"
      font-weight="800"
    >
      <tspan x="0" y="0">408</tspan>
    </text>
  </g>
  <g id="Layer_406C">
    <rect
      x="191.5"
      y="195.5"
      width="162"
      height="98.5"
      fill="#f8cdce"
      stroke="#e18686"
      stroke-miterlimit="10"
      stroke-width="3.04"
    />
    <text
      transform="translate(240.98 251.91)"
      fill="#434142"
      font-family="NanumSquareNeovariable-Heavy, 'NanumSquare Neo variable'"
      font-size="22"
      font-variation-settings="'wght' 900"
      font-weight="800"
    >
      <tspan x="0" y="0">406C</tspan>
    </text>
  </g>
  <g id="Layer_406B">
    <rect
      x="300.5"
      y="345"
      width="114"
      height="53.4"
      fill="#f8cdce"
      stroke="#e18686"
      stroke-miterlimit="10"
      stroke-width="3"
    />
    <text
      transform="translate(325.24 377.91)"
      fill="#434142"
      font-family="NanumSquareNeovariable-Heavy, 'NanumSquare Neo variable'"
      font-size="22"
      font-variation-settings="'wght' 900"
      font-weight="800"
    >
      <tspan x="0" y="0">406B</tspan>
    </text>
  </g>
  <g id="Layer_406A">
    <rect
      x="300.5"
      y="398.4"
      width="114"
      height="52.48"
      fill="#f8cdce"
      stroke="#e18686"
      stroke-miterlimit="10"
      stroke-width="3"
    />
    <text
      transform="translate(324.84 421.91)"
      fill="#434142"
      font-family="NanumSquareNeovariable-Heavy, 'NanumSquare Neo variable'"
      font-size="22"
      font-variation-settings="'wght' 900"
      font-weight="800"
    >
      <tspan x="0" y="0">406A</tspan>
    </text>
  </g>
  <g id="Layer_406">
    <rect
      x="300.5"
      y="443.5"
      width="114"
      height="155"
      fill="#f8cdce"
      stroke="#e18686"
      stroke-miterlimit="10"
      stroke-width="3"
    />
    <text
      transform="translate(333.58 541.39)"
      fill="#434142"
      font-family="NanumSquareNeovariable-Heavy, 'NanumSquare Neo variable'"
      font-size="22"
      font-variation-settings="'wght' 900"
      font-weight="800"
    >
      <tspan x="0" y="0">406</tspan>
    </text>
  </g>
  <g id="Layer_405">
    <rect
      x="414.5"
      y="474.5"
      width="116"
      height="124"
      transform="translate(945 1073) rotate(180)"
      fill="#f8cdce"
      stroke="#e18686"
      stroke-miterlimit="10"
      stroke-width="3"
    />
    <text
      transform="translate(448.91 541.55)"
      fill="#434142"
      font-family="NanumSquareNeovariable-Heavy, 'NanumSquare Neo variable'"
      font-size="22"
      font-variation-settings="'wght' 900"
      font-weight="800"
    >
      <tspan x="0" y="0">405</tspan>
    </text>
  </g>
  <g id="Layer_404D">
    <rect
      x="530.5"
      y="474.5"
      width="55"
      height="124"
      fill="#f8cdce"
      stroke="#e18686"
      stroke-miterlimit="10"
      stroke-width="3"
    />
    <text
      transform="translate(534.51 542.16)"
      fill="#434142"
      font-family="NanumSquareNeovariable-Heavy, 'NanumSquare Neo variable'"
      font-size="16"
      font-variation-settings="'wght' 900"
      font-weight="800"
    >
      <tspan x="0" y="0">404D</tspan>
    </text>
  </g>
  <g id="Layer_404C">
    <rect
      x="584.5"
      y="474.5"
      width="55"
      height="124"
      fill="#f8cdce"
      stroke="#e18686"
      stroke-miterlimit="10"
      stroke-width="3"
    />
    <text
      transform="translate(588.16 541.73)"
      fill="#434142"
      font-family="NanumSquareNeovariable-Heavy, 'NanumSquare Neo variable'"
      font-size="16"
      font-variation-settings="'wght' 900"
      font-weight="800"
    >
      <tspan x="0" y="0">404C</tspan>
    </text>
  </g>
  <g id="Layer_404B">
    <rect
      x="638.5"
      y="474.5"
      width="55"
      height="124"
      fill="#f8cdce"
      stroke="#e18686"
      stroke-miterlimit="10"
      stroke-width="3"
    />
    <text
      transform="translate(642.99 541.94)"
      fill="#434142"
      font-family="NanumSquareNeovariable-Heavy, 'NanumSquare Neo variable'"
      font-size="16"
      font-variation-settings="'wght' 900"
      font-weight="800"
    >
      <tspan x="0" y="0">404B</tspan>
    </text>
  </g>
  <g id="Layer_404A">
    <path
      d="m742.57,550h60.43v-129h-68.7c.34,17.67.69,35.33,1.03,53h-41.32c-.17,41.5-.34,83-.52,124.5h49.07v-48.5Z"
      fill="#f8cdce"
      stroke="#e18686"
      stroke-miterlimit="10"
      stroke-width="3.05"
    />
    <text
      transform="translate(713.77 511.43)"
      fill="#434142"
      font-family="NanumSquareNeovariable-Heavy, 'NanumSquare Neo variable'"
      font-size="22"
      font-variation-settings="'wght' 900"
      font-weight="800"
    >
      <tspan x="0" y="0">404A</tspan>
    </text>
  </g>
  <g id="Layer_415">
    <path
      d="m1499,474h-311.2v158.04h-113.3v131.96c99.67.83,199.33,1.67,299,2.5v-133c42.67-.33,85.33-.67,128-1-.83-52.83-1.67-105.67-2.5-158.5Z"
      fill="#f8cdce"
      stroke="#e18686"
      stroke-miterlimit="10"
      stroke-width="3"
    />
    <text
      transform="translate(1315.05 566.31)"
      fill="#434142"
      font-family="NanumSquareNeovariable-Heavy, 'NanumSquare Neo variable'"
      font-size="22"
      font-variation-settings="'wght' 900"
      font-weight="800"
    >
      <tspan x="0" y="0" letter-spacing="-.02em">4</tspan>
      <tspan x="15.31" y="0">15</tspan>
    </text>
    <text
      transform="translate(1304.77 596.31)"
      fill="#434142"
      font-family="NanumSquareNeovariable-Heavy, 'NanumSquare Neo variable'"
      font-size="22"
      font-variation-settings="'wght' 900"
      font-weight="800"
    >
      <tspan x="0" y="0">열람실</tspan>
    </text>
  </g>
  <g id="Layer_417">
    <rect
      x="1501.5"
      y="197.5"
      width="335"
      height="615"
      fill="#f8cdce"
      stroke="#e18686"
      stroke-miterlimit="10"
      stroke-width="3"
    />
    <text
      transform="translate(1655.02 482.36)"
      fill="#434142"
      font-family="NanumSquareNeovariable-Heavy, 'NanumSquare Neo variable'"
      font-size="22"
      font-variation-settings="'wght' 900"
      font-weight="800"
    >
      <tspan x="0" y="0" letter-spacing="-.02em">4</tspan>
      <tspan x="15.31" y="0">17</tspan>
    </text>
    <text
      transform="translate(1643.99 516.36)"
      fill="#434142"
      font-family="NanumSquareNeovariable-Heavy, 'NanumSquare Neo variable'"
      font-size="22"
      font-variation-settings="'wght' 900"
      font-weight="800"
    >
      <tspan x="0" y="0">열람실</tspan>
    </text>
  </g>
  <g id="Layer_412">
    <text
      transform="translate(794.34 642.75)"
      fill="#434142"
      font-family="NanumSquareNeovariable-Heavy, 'NanumSquare Neo variable'"
      font-size="22"
      font-variation-settings="'wght' 900"
      font-weight="800"
    >
      <tspan x="0" y="0" letter-spacing="-.02em">4</tspan>
      <tspan x="15.31" y="0">12</tspan>
    </text>
    <text
      transform="translate(754.28 658.75)"
      fill="#434142"
      font-family="NanumSquareNeovariable-Heavy, 'NanumSquare Neo variable'"
      font-size="14"
      font-variation-settings="'wght' 900"
      font-weight="800"
    >
      <tspan x="0" y="0">I</tspan>
      <tspan x="4.16" y="0" letter-spacing="0em">nt</tspan>
      <tspan x="19.64" y="0">e</tspan>
      <tspan x="28.78" y="0" letter-spacing="-.03em">r</tspan>
      <tspan x="34.73" y="0">g</tspan>
      <tspan x="44.37" y="0" letter-spacing="-.02em">r</tspan>
      <tspan x="50.46" y="0">al</tspan>
      <tspan x="66.98" y="0" letter-spacing="-.02em">L</tspan>
      <tspan x="75.21" y="0">ounge</tspan>
    </text>
  </g>
  <g id="Layer_toilet1">
    <polygon
      points="191.5 194.5 134.5 194.5 134.5 253.5 134.5 257.5 134.5 291.5 165.5 291.5 165.5 257.5 191.5 257.5 191.5 194.5"
      fill="none"
      stroke="#e18686"
      stroke-miterlimit="10"
      stroke-width="3"
    />
  </g>
  <g id="Layer_toilet2">
    <rect
      x="482.5"
      y="633.5"
      width="49"
      height="133"
      transform="translate(1014 1400) rotate(180)"
      fill="none"
      stroke="#e18686"
      stroke-miterlimit="10"
      stroke-width="3"
    />
  </g>
  <g id="Layer_toilet3">
    <rect
      x="858.21"
      y="422.5"
      width="52.79"
      height="121"
      transform="translate(1769.21 966) rotate(180)"
      fill="none"
      stroke="#e18686"
      stroke-miterlimit="10"
      stroke-width="2.94"
    />
  </g>
  <g id="Layer_toilet4">
    <rect
      x="803.5"
      y="422.5"
      width="54.71"
      height="121"
      fill="none"
      stroke="#e18686"
      stroke-miterlimit="10"
      stroke-width="2.94"
    />
  </g>
  <g id="Layer_toilet5">
    <rect
      x="1373.5"
      y="633.15"
      width="57"
      height="133"
      fill="none"
      stroke="#e18686"
      stroke-miterlimit="10"
      stroke-width="3"
    />
  </g>
</svg>
