<?xml version="1.0" encoding="UTF-8"?>
<svg id="Layer_1" data-name="Layer 1" xmlns="http://www.w3.org/2000/svg" version="1.1" viewBox="0 0 1000 1000">
  <defs>
    <style>
      .cls-1 {
        fill: #fed0d0;
      }

      .cls-1, .cls-2, .cls-3 {
        stroke: #ea8b8b;
      }

      .cls-1, .cls-2, .cls-3, .cls-4 {
        stroke-miterlimit: 10;
      }

      .cls-1, .cls-3 {
        stroke-width: 3px;
      }

      .cls-2 {
        fill: #fef3f2;
        stroke-width: 8px;
      }

      .cls-3, .cls-4 {
        fill: none;
      }

      .cls-4 {
        stroke: #dc8e8c;
      }

      .cls-5 {
        fill: #000;
        font-family: NanumSquareNeoTTF-dEb, 'NanumSquare Neo';
        font-size: 12px;
      }
    </style>
  </defs>
  <g id="Layer_border">
    <polygon class="cls-2" points="883.9 474.2 883.9 545.8 862.6 545.8 862.6 444 314 444 314 226.6 154.7 226.6 154.7 444.2 99.1 444 99.1 685.4 862.6 685.4 862.6 585.7 924.2 585.7 924.2 474.2 883.9 474.2"/>
  </g>
  <g id="Layer_2" data-name="Layer 2">
    <rect class="cls-1" x="584.8" y="585.7" width="69" height="99.8"/>
    <text class="cls-5" transform="translate(606.2 635.5)"><tspan x="0" y="0">308</tspan></text>
  </g>
  <g id="Layer_16" data-name="Layer 16">
    <rect class="cls-1" x="653.8" y="585.7" width="68.4" height="99.8"/>
    <text class="cls-5" transform="translate(675.1 635.5)"><tspan x="0" y="0">309</tspan><tspan x="11.5" y="14.4"> </tspan></text>
  </g>
  <g id="Layer_17" data-name="Layer 17">
    <rect class="cls-1" x="722.2" y="585.7" width="69.4" height="99.8"/>
    <text class="cls-5" transform="translate(745.2 636.4)"><tspan x="0" y="0">310</tspan><tspan x="10.2" y="14.4"> </tspan></text>
  </g>
  <g id="Layer_18" data-name="Layer 18">
    <rect class="cls-1" x="791.5" y="585.7" width="71" height="99.8"/>
    <text class="cls-5" transform="translate(816.8 635.5)"><tspan x="0" y="0">311</tspan><tspan x="8.7" y="14.4"> </tspan></text>
  </g>
  <g id="Layer_21" data-name="Layer 21">
    <rect class="cls-3" x="516.1" y="444" width="68.7" height="102"/>
  </g>
  <g id="Layer_22" data-name="Layer 22">
    <rect class="cls-1" x="791.5" y="444" width="71" height="101.9"/>
    <text class="cls-5" transform="translate(811 492.9)"><tspan x="0" y="0">312A</tspan><tspan x="-1" y="14.4">상담실</tspan></text>
  </g>
  <g id="Layer_23" data-name="Layer 23">
    <rect class="cls-1" x="584.8" y="444" width="69" height="102"/>
    <text class="cls-5" transform="translate(607.8 491)"><tspan x="0" y="0">313</tspan><tspan x="-5.6" y="14.4">연구소</tspan></text>
  </g>
  <g id="Layer_24" data-name="Layer 24">
    <rect class="cls-1" x="722.2" y="444" width="69.4" height="102"/>
    <text class="cls-5" transform="translate(741 484.7)"><tspan x="0" y="0">312B</tspan><tspan x="-6.9" y="14.4">심리검사</tspan><tspan x="-1.2" y="28.8">실습실</tspan></text>
  </g>
  <g id="Layer_25" data-name="Layer 25">
    <rect class="cls-3" x="378.7" y="444" width="68" height="102"/>
  </g>
  <g id="Layer_26" data-name="Layer 26">
    <rect class="cls-1" x="314" y="444" width="64.8" height="102"/>
    <text class="cls-5" transform="translate(334.9 486.7)"><tspan x="0" y="0">316</tspan><tspan x="-5.6" y="14.4">연구소</tspan></text>
  </g>
  <g id="Layer_3" data-name="Layer 3">
    <rect class="cls-1" x="516.1" y="585.7" width="68.7" height="99.8"/>
    <text class="cls-5" transform="translate(535.4 635.5)"><tspan x="0" y="0">307</tspan></text>
  </g>
  <g id="Layer_4" data-name="Layer 4">
    <rect class="cls-1" x="378.7" y="585.7" width="68" height="99.8"/>
    <text class="cls-5" transform="translate(399.9 638.6)"><tspan x="0" y="0">305</tspan></text>
  </g>
  <g id="Layer_5" data-name="Layer 5">
    <rect class="cls-1" x="310.4" y="585.7" width="68.4" height="99.8"/>
    <text class="cls-5" transform="translate(330.6 638.5)"><tspan x="0" y="0">304</tspan></text>
  </g>
  <g id="Layer_6" data-name="Layer 6">
    <rect class="cls-1" x="240.7" y="585.7" width="69.7" height="99.8"/>
    <text class="cls-5" transform="translate(261.8 640)"><tspan x="0" y="0">303</tspan></text>
  </g>
  <g id="Layer_7" data-name="Layer 7">
    <rect class="cls-1" x="168.3" y="585.7" width="72.4" height="99.8"/>
    <text class="cls-5" transform="translate(191.1 639.7)"><tspan x="0" y="0">302</tspan></text>
  </g>
  <g id="Layer_8" data-name="Layer 8">
    <rect class="cls-1" x="653.8" y="444" width="68.4" height="102"/>
    <text class="cls-5" transform="translate(672 491)"><tspan x="0" y="0">312C</tspan><tspan x="-1.1" y="14.4">연구소</tspan></text>
  </g>
  <g id="Layer_9" data-name="Layer 9">
    <rect class="cls-1" x="99.1" y="585.7" width="69.2" height="99.8"/>
    <text class="cls-5" transform="translate(120 641.5)"><tspan x="0" y="0">301</tspan></text>
  </g>
  <g id="Layer_10" data-name="Layer 10">
    <rect class="cls-1" x="446.7" y="585.7" width="69.4" height="99.8"/>
    <text class="cls-5" transform="translate(467.9 637.8)"><tspan x="0" y="0">306</tspan></text>
  </g>
  <g id="Layer_11" data-name="Layer 11">
    <rect class="cls-1" x="99.1" y="444" width="69.2" height="102"/>
    <text class="cls-5" transform="translate(122.2 488.8)"><tspan x="0" y="0">319</tspan><tspan x="-5.6" y="14.4">연구소</tspan></text>
  </g>
  <g id="Layer_27" data-name="Layer 27">
    <rect class="cls-1" x="241.1" y="444" width="72.8" height="101.8"/>
    <text class="cls-5" transform="translate(266.5 486.3)"><tspan x="0" y="0">317</tspan><tspan x="-6" y="14.4">연구소</tspan></text>
  </g>
  <g id="Layer_28" data-name="Layer 28">
    <rect class="cls-1" x="168.3" y="444" width="72.8" height="102"/>
    <text class="cls-5" transform="translate(196.5 488.1)"><tspan x="0" y="0">318</tspan><tspan x="-5.4" y="14.4">연구소</tspan></text>
  </g>
  <g id="Layer_others">
    <rect class="cls-3" x="446.7" y="444" width="69.4" height="102"/>
    <g>
      <path class="cls-4" d="M462,546h-.4M500,503.6h-.4"/>
      <path class="cls-4" d="M499,503.6h-36.5"/>
      <path class="cls-4" d="M462,503.6h-.4M500,489h-.4"/>
      <path class="cls-4" d="M499,489h-36.5"/>
      <path class="cls-4" d="M462,489h-.4"/>
      <path class="cls-4" d="M461.6,540.8v-37.1"/>
      <path class="cls-4" d="M500,538v2.7M500,546h0"/>
      <path class="cls-4" d="M500,535.4v-31.8"/>
      <path class="cls-4" d="M461.6,489v-39.7"/>
      <path class="cls-4" d="M500,489v-39.7"/>
      <path class="cls-4" d="M500,538h-.4"/>
      <path class="cls-4" d="M499,538h-36.5"/>
      <path class="cls-4" d="M462,538h-.4M500,535.4h-.4"/>
      <path class="cls-4" d="M499,535.4h-36.5"/>
      <path class="cls-4" d="M462,535.4h-.4M500,532.7h-.4"/>
      <path class="cls-4" d="M499,532.7h-36.5"/>
      <path class="cls-4" d="M462,532.7h-.4M500,530.1h-.4"/>
      <path class="cls-4" d="M499,530.1h-36.5"/>
      <path class="cls-4" d="M462,530.1h-.4M500,527.4h-.4"/>
      <path class="cls-4" d="M499,527.4h-36.5"/>
      <path class="cls-4" d="M462,527.4h-.4M500,524.8h-.4"/>
      <path class="cls-4" d="M499,524.8h-36.5"/>
      <path class="cls-4" d="M462,524.8h-.4M500,522.1h-.4"/>
      <path class="cls-4" d="M499,522.1h-36.5"/>
      <path class="cls-4" d="M462,522.1h-.4M500,519.5h-.4"/>
      <path class="cls-4" d="M499,519.5h-36.5"/>
      <path class="cls-4" d="M462,519.5h-.4M500,516.7h-.4"/>
      <path class="cls-4" d="M499,516.7h-36.5"/>
      <path class="cls-4" d="M462,516.7h-.4M500,514.3h-.4"/>
      <path class="cls-4" d="M499,514.3h-36.5"/>
      <path class="cls-4" d="M462,514.3h-.4M500,511.6h-.4"/>
      <path class="cls-4" d="M499,511.6h-36.5"/>
      <path class="cls-4" d="M462,511.6h-.4M500,509h-.4"/>
      <path class="cls-4" d="M499,509h-36.5"/>
      <path class="cls-4" d="M462,509h-.4M500,506.2h-.4"/>
      <path class="cls-4" d="M499,506.2h-36.5"/>
      <path class="cls-4" d="M462,506.2h-.4M500,503.6h-.4"/>
      <path class="cls-4" d="M499,503.6h-36.5"/>
      <path class="cls-4" d="M462,503.6h-.4M500,489h-.4"/>
      <path class="cls-4" d="M499,489h-36.5"/>
      <path class="cls-4" d="M462,489h-.4M500,486.3h-.4"/>
      <path class="cls-4" d="M499,486.3h-36.5"/>
      <path class="cls-4" d="M462,486.3h-.4M500,483.7h-.4"/>
      <path class="cls-4" d="M499,483.7h-36.5"/>
      <path class="cls-4" d="M462,483.7h-.4M500,481h-.4"/>
      <path class="cls-4" d="M499,481h-36.5"/>
      <path class="cls-4" d="M462,481h-.4M500,478.4h-.4"/>
      <path class="cls-4" d="M499,478.4h-36.5"/>
      <path class="cls-4" d="M462,478.4h-.4M500,475.7h-.4"/>
      <path class="cls-4" d="M499,475.7h-36.5"/>
      <path class="cls-4" d="M462,475.7h-.4M500,473.1h-.4"/>
      <path class="cls-4" d="M499,473.1h-36.5"/>
      <path class="cls-4" d="M462,473.1h-.4M500,470.3h-.4"/>
      <path class="cls-4" d="M499,470.3h-36.5"/>
      <path class="cls-4" d="M462,470.3h-.4M500,467.7h-.4"/>
      <path class="cls-4" d="M499,467.7h-36.5"/>
      <path class="cls-4" d="M462,467.7h-.4M500,465.1h-.4"/>
      <path class="cls-4" d="M499,465.1h-36.5"/>
      <path class="cls-4" d="M462,465.1h-.4M500,462.5h-.4"/>
      <path class="cls-4" d="M499,462.5h-36.5"/>
      <path class="cls-4" d="M462,462.5h-.4M500,460h-.4"/>
      <path class="cls-4" d="M499,460h-36.5"/>
      <path class="cls-4" d="M462,460h-.4M500,457.2h-.4"/>
      <path class="cls-4" d="M499,457.2h-36.5"/>
      <path class="cls-4" d="M462,457.2h-.4M500,454.6h-.4"/>
      <path class="cls-4" d="M499,454.6h-36.5"/>
      <path class="cls-4" d="M462,454.6h-.4M500,451.9h-.4"/>
      <path class="cls-4" d="M499,451.9h-36.5"/>
      <path class="cls-4" d="M462,451.9h-.4M500,538h-.4"/>
      <path class="cls-4" d="M499,538h-36.5"/>
      <path class="cls-4" d="M462,538h-.4M500,535.4h-.4"/>
      <path class="cls-4" d="M499,535.4h-36.5"/>
      <path class="cls-4" d="M462,535.4h-.4M500,532.7h-.4"/>
      <path class="cls-4" d="M499,532.7h-36.5"/>
      <path class="cls-4" d="M462,532.7h-.4M500,530.1h-.4"/>
      <path class="cls-4" d="M499,530.1h-36.5"/>
      <path class="cls-4" d="M462,530.1h-.4M500,527.4h-.4"/>
      <path class="cls-4" d="M499,527.4h-36.5"/>
      <path class="cls-4" d="M462,527.4h-.4M500,524.8h-.4"/>
      <path class="cls-4" d="M499,524.8h-36.5"/>
      <path class="cls-4" d="M462,524.8h-.4M500,522.1h-.4"/>
      <path class="cls-4" d="M499,522.1h-36.5"/>
      <path class="cls-4" d="M462,522.1h-.4M500,519.5h-.4"/>
      <path class="cls-4" d="M499,519.5h-36.5"/>
      <path class="cls-4" d="M462,519.5h-.4M500,516.7h-.4"/>
      <path class="cls-4" d="M499,516.7h-36.5"/>
      <path class="cls-4" d="M462,516.7h-.4M500,514.3h-.4"/>
      <path class="cls-4" d="M499,514.3h-36.5"/>
      <path class="cls-4" d="M462,514.3h-.4M500,511.6h-.4"/>
      <path class="cls-4" d="M499,511.6h-36.5"/>
      <path class="cls-4" d="M462,511.6h-.4M500,509h-.4"/>
      <path class="cls-4" d="M499,509h-36.5"/>
      <path class="cls-4" d="M462,509h-.4M500,506.2h-.4"/>
      <path class="cls-4" d="M499,506.2h-36.5"/>
      <path class="cls-4" d="M462,506.2h-.4M500,486.3h-.4"/>
      <path class="cls-4" d="M499,486.3h-36.5"/>
      <path class="cls-4" d="M462,486.3h-.4M500,483.7h-.4"/>
      <path class="cls-4" d="M499,483.7h-36.5"/>
      <path class="cls-4" d="M462,483.7h-.4M500,481h-.4"/>
      <path class="cls-4" d="M499,481h-36.5"/>
      <path class="cls-4" d="M462,481h-.4M500,478.4h-.4"/>
      <path class="cls-4" d="M499,478.4h-36.5"/>
      <path class="cls-4" d="M462,478.4h-.4M500,475.7h-.4"/>
      <path class="cls-4" d="M499,475.7h-36.5"/>
      <path class="cls-4" d="M462,475.7h-.4M500,473.1h-.4"/>
      <path class="cls-4" d="M499,473.1h-36.5"/>
      <path class="cls-4" d="M462,473.1h-.4M500,470.3h-.4"/>
      <path class="cls-4" d="M499,470.3h-36.5"/>
      <path class="cls-4" d="M462,470.3h-.4M500,467.7h-.4"/>
      <path class="cls-4" d="M499,467.7h-36.5"/>
      <path class="cls-4" d="M462,467.7h-.4M500,465.1h-.4"/>
      <path class="cls-4" d="M499,465.1h-36.5"/>
      <path class="cls-4" d="M462,465.1h-.4M500,462.5h-.4"/>
      <path class="cls-4" d="M499,462.5h-36.5"/>
      <path class="cls-4" d="M462,462.5h-.4M500,460h-.4"/>
      <path class="cls-4" d="M499,460h-36.5"/>
      <path class="cls-4" d="M462,460h-.4M500,457.2h-.4"/>
      <path class="cls-4" d="M499,457.2h-36.5"/>
      <path class="cls-4" d="M462,457.2h-.4M500,454.6h-.4"/>
      <path class="cls-4" d="M499,454.6h-36.5"/>
      <path class="cls-4" d="M462,454.6h-.4M500,451.9h-.4"/>
      <path class="cls-4" d="M499,451.9h-36.5"/>
      <path class="cls-4" d="M462,451.9h-.4"/>
      <path class="cls-4" d="M462,546h.4v-102h-.4"/>
      <path class="cls-4" d="M462,546v-102"/>
      <path class="cls-4" d="M499,546h.4v-102h-.4"/>
      <path class="cls-4" d="M499,546v-102"/>
      <path class="cls-4" d="M478.6,446l2.3-2,2.1,2"/>
      <path class="cls-4" d="M478.6,446l.6.4M483,446l-.6.4"/>
      <path class="cls-4" d="M479.2,446.4l1.6-1.5,1.5,1.5"/>
      <path class="cls-4" d="M500,449.3h-.4"/>
      <path class="cls-4" d="M499,449.3h-36.5"/>
      <path class="cls-4" d="M462,449.3h-.4M500,449.3h-.4"/>
      <path class="cls-4" d="M499,449.3h-36.5"/>
      <path class="cls-4" d="M462,449.3h-.4M500,446.6h-.4"/>
      <path class="cls-4" d="M499,446.6h-36.5"/>
      <path class="cls-4" d="M462,446.6h-.4M500,446.6h-.4"/>
      <path class="cls-4" d="M499,446.6h-36.5"/>
      <path class="cls-4" d="M462,446.6h-.4M500,444h-.4"/>
      <path class="cls-4" d="M499,444h-36.5"/>
      <path class="cls-4" d="M462,444h-.4M500,444h-.4"/>
      <path class="cls-4" d="M499,444h-36.5"/>
      <path class="cls-4" d="M462,444h-.4M461.6,446.6v2.7M500,446.6v2.7M461.6,444v2.7M500,444v2.7M500,540.8h-.4"/>
      <path class="cls-4" d="M499,540.8h-36.5"/>
      <path class="cls-4" d="M462,540.8h-.4M500,540.8h-.4"/>
      <path class="cls-4" d="M499,540.8h-36.5"/>
      <path class="cls-4" d="M500,540.8v2.7h-.4"/>
      <path class="cls-4" d="M499,543.4h-36.5"/>
      <path class="cls-4" d="M462,543.4h-.4M500,543.4h-.4"/>
      <path class="cls-4" d="M499,543.4h-36.5"/>
      <path class="cls-4" d="M462,543.4h-.4v2.5"/>
    </g>
    <g>
      <path class="cls-4" d="M903,561.9h-.2M924.2,525h-.2"/>
      <path class="cls-4" d="M923.7,525h-20.3"/>
      <path class="cls-4" d="M903,525h-.2M924.2,512.3h-.2"/>
      <path class="cls-4" d="M923.7,512.3h-20.3"/>
      <path class="cls-4" d="M903,512.3h-.2"/>
      <path class="cls-4" d="M902.8,557.4v-32.3"/>
      <path class="cls-4" d="M924.2,555v2.4M924.2,561.9h0"/>
      <path class="cls-4" d="M924.2,552.7v-27.7"/>
      <path class="cls-4" d="M902.8,512.3v-34.6"/>
      <path class="cls-4" d="M924.2,512.3v-34.6"/>
      <path class="cls-4" d="M924.2,555h-.2"/>
      <path class="cls-4" d="M923.7,555h-20.3"/>
      <path class="cls-4" d="M903,555h-.2M924.2,552.7h-.2"/>
      <path class="cls-4" d="M923.7,552.7h-20.3"/>
      <path class="cls-4" d="M903,552.7h-.2M924.2,550.3h-.2"/>
      <path class="cls-4" d="M923.7,550.3h-20.3"/>
      <path class="cls-4" d="M903,550.3h-.2M924.2,548.1h-.2"/>
      <path class="cls-4" d="M923.7,548.1h-20.3"/>
      <path class="cls-4" d="M903,548.1h-.2M924.2,545.7h-.2"/>
      <path class="cls-4" d="M923.7,545.7h-20.3"/>
      <path class="cls-4" d="M903,545.7h-.2M924.2,543.5h-.2"/>
      <path class="cls-4" d="M923.7,543.5h-20.3"/>
      <path class="cls-4" d="M903,543.5h-.2M924.2,541.1h-.2"/>
      <path class="cls-4" d="M923.7,541.1h-20.3"/>
      <path class="cls-4" d="M903,541.1h-.2M924.2,538.8h-.2"/>
      <path class="cls-4" d="M923.7,538.8h-20.3"/>
      <path class="cls-4" d="M903,538.8h-.2M924.2,536.4h-.2"/>
      <path class="cls-4" d="M923.7,536.4h-20.3"/>
      <path class="cls-4" d="M903,536.4h-.2M924.2,534.3h-.2"/>
      <path class="cls-4" d="M923.7,534.3h-20.3"/>
      <path class="cls-4" d="M903,534.3h-.2M924.2,531.9h-.2"/>
      <path class="cls-4" d="M923.7,531.9h-20.3"/>
      <path class="cls-4" d="M903,531.9h-.2M924.2,529.7h-.2"/>
      <path class="cls-4" d="M923.7,529.7h-20.3"/>
      <path class="cls-4" d="M903,529.7h-.2M924.2,527.3h-.2"/>
      <path class="cls-4" d="M923.7,527.3h-20.3"/>
      <path class="cls-4" d="M903,527.3h-.2M924.2,525h-.2"/>
      <path class="cls-4" d="M923.7,525h-20.3"/>
      <path class="cls-4" d="M903,525h-.2M924.2,512.3h-.2"/>
      <path class="cls-4" d="M923.7,512.3h-20.3"/>
      <path class="cls-4" d="M903,512.3h-.2M924.2,510h-.2"/>
      <path class="cls-4" d="M923.7,510h-20.3"/>
      <path class="cls-4" d="M903,510h-.2M924.2,507.7h-.2"/>
      <path class="cls-4" d="M923.7,507.7h-20.3"/>
      <path class="cls-4" d="M903,507.7h-.2M924.2,505.3h-.2"/>
      <path class="cls-4" d="M923.7,505.3h-20.3"/>
      <path class="cls-4" d="M903,505.3h-.2M924.2,503.1h-.2"/>
      <path class="cls-4" d="M923.7,503.1h-20.3"/>
      <path class="cls-4" d="M903,503.1h-.2M924.2,500.7h-.2"/>
      <path class="cls-4" d="M923.7,500.7h-20.3"/>
      <path class="cls-4" d="M903,500.7h-.2M924.2,498.4h-.2"/>
      <path class="cls-4" d="M923.7,498.4h-20.3"/>
      <path class="cls-4" d="M903,498.4h-.2M924.2,496.1h-.2"/>
      <path class="cls-4" d="M923.7,496.1h-20.3"/>
      <path class="cls-4" d="M903,496.1h-.2M924.2,493.8h-.2"/>
      <path class="cls-4" d="M923.7,493.8h-20.3"/>
      <path class="cls-4" d="M903,493.8h-.2M924.2,491.6h-.2"/>
      <path class="cls-4" d="M923.7,491.6h-20.3"/>
      <path class="cls-4" d="M903,491.6h-.2M924.2,489.3h-.2"/>
      <path class="cls-4" d="M923.7,489.3h-20.3"/>
      <path class="cls-4" d="M903,489.3h-.2M924.2,487h-.2"/>
      <path class="cls-4" d="M923.7,487h-20.3"/>
      <path class="cls-4" d="M903,487h-.2M924.2,484.7h-.2"/>
      <path class="cls-4" d="M923.7,484.7h-20.3"/>
      <path class="cls-4" d="M903,484.7h-.2M924.2,482.4h-.2"/>
      <path class="cls-4" d="M923.7,482.4h-20.3"/>
      <path class="cls-4" d="M903,482.4h-.2M924.2,480h-.2"/>
      <path class="cls-4" d="M923.7,480h-20.3"/>
      <path class="cls-4" d="M903,480h-.2M924.2,555h-.2"/>
      <path class="cls-4" d="M923.7,555h-20.3"/>
      <path class="cls-4" d="M903,555h-.2M924.2,552.7h-.2"/>
      <path class="cls-4" d="M923.7,552.7h-20.3"/>
      <path class="cls-4" d="M903,552.7h-.2M924.2,550.3h-.2"/>
      <path class="cls-4" d="M923.7,550.3h-20.3"/>
      <path class="cls-4" d="M903,550.3h-.2M924.2,548.1h-.2"/>
      <path class="cls-4" d="M923.7,548.1h-20.3"/>
      <path class="cls-4" d="M903,548.1h-.2M924.2,545.7h-.2"/>
      <path class="cls-4" d="M923.7,545.7h-20.3"/>
      <path class="cls-4" d="M903,545.7h-.2M924.2,543.5h-.2"/>
      <path class="cls-4" d="M923.7,543.5h-20.3"/>
      <path class="cls-4" d="M903,543.5h-.2M924.2,541.1h-.2"/>
      <path class="cls-4" d="M923.7,541.1h-20.3"/>
      <path class="cls-4" d="M903,541.1h-.2M924.2,538.8h-.2"/>
      <path class="cls-4" d="M923.7,538.8h-20.3"/>
      <path class="cls-4" d="M903,538.8h-.2M924.2,536.4h-.2"/>
      <path class="cls-4" d="M923.7,536.4h-20.3"/>
      <path class="cls-4" d="M903,536.4h-.2M924.2,534.3h-.2"/>
      <path class="cls-4" d="M923.7,534.3h-20.3"/>
      <path class="cls-4" d="M903,534.3h-.2M924.2,531.9h-.2"/>
      <path class="cls-4" d="M923.7,531.9h-20.3"/>
      <path class="cls-4" d="M903,531.9h-.2M924.2,529.7h-.2"/>
      <path class="cls-4" d="M923.7,529.7h-20.3"/>
      <path class="cls-4" d="M903,529.7h-.2M924.2,527.3h-.2"/>
      <path class="cls-4" d="M923.7,527.3h-20.3"/>
      <path class="cls-4" d="M903,527.3h-.2M924.2,510h-.2"/>
      <path class="cls-4" d="M923.7,510h-20.3"/>
      <path class="cls-4" d="M903,510h-.2M924.2,507.7h-.2"/>
      <path class="cls-4" d="M923.7,507.7h-20.3"/>
      <path class="cls-4" d="M903,507.7h-.2M924.2,505.3h-.2"/>
      <path class="cls-4" d="M923.7,505.3h-20.3"/>
      <path class="cls-4" d="M903,505.3h-.2M924.2,503.1h-.2"/>
      <path class="cls-4" d="M923.7,503.1h-20.3"/>
      <path class="cls-4" d="M903,503.1h-.2M924.2,500.7h-.2"/>
      <path class="cls-4" d="M923.7,500.7h-20.3"/>
      <path class="cls-4" d="M903,500.7h-.2M924.2,498.4h-.2"/>
      <path class="cls-4" d="M923.7,498.4h-20.3"/>
      <path class="cls-4" d="M903,498.4h-.2M924.2,496.1h-.2"/>
      <path class="cls-4" d="M923.7,496.1h-20.3"/>
      <path class="cls-4" d="M903,496.1h-.2M924.2,493.8h-.2"/>
      <path class="cls-4" d="M923.7,493.8h-20.3"/>
      <path class="cls-4" d="M903,493.8h-.2M924.2,491.6h-.2"/>
      <path class="cls-4" d="M923.7,491.6h-20.3"/>
      <path class="cls-4" d="M903,491.6h-.2M924.2,489.3h-.2"/>
      <path class="cls-4" d="M923.7,489.3h-20.3"/>
      <path class="cls-4" d="M903,489.3h-.2M924.2,487h-.2"/>
      <path class="cls-4" d="M923.7,487h-20.3"/>
      <path class="cls-4" d="M903,487h-.2M924.2,484.7h-.2"/>
      <path class="cls-4" d="M923.7,484.7h-20.3"/>
      <path class="cls-4" d="M903,484.7h-.2M924.2,482.4h-.2"/>
      <path class="cls-4" d="M923.7,482.4h-20.3"/>
      <path class="cls-4" d="M903,482.4h-.2M924.2,480h-.2"/>
      <path class="cls-4" d="M923.7,480h-20.3"/>
      <path class="cls-4" d="M903,480h-.2"/>
      <path class="cls-4" d="M903,561.9h.2v-88.7h-.2"/>
      <path class="cls-4" d="M903,561.9v-88.7"/>
      <path class="cls-4" d="M923.7,561.9h.2v-88.7h-.2"/>
      <path class="cls-4" d="M923.7,561.9v-88.7"/>
      <path class="cls-4" d="M912.3,474.9l1.3-1.8,1.2,1.8"/>
      <path class="cls-4" d="M912.3,474.9l.4.4M914.8,474.9l-.4.4"/>
      <path class="cls-4" d="M912.6,475.3l.9-1.3.8,1.3"/>
      <path class="cls-4" d="M924.2,477.8h-.2"/>
      <path class="cls-4" d="M923.7,477.8h-20.3"/>
      <path class="cls-4" d="M903,477.8h-.2M924.2,477.8h-.2"/>
      <path class="cls-4" d="M923.7,477.8h-20.3"/>
      <path class="cls-4" d="M903,477.8h-.2M924.2,475.4h-.2"/>
      <path class="cls-4" d="M923.7,475.4h-20.3"/>
      <path class="cls-4" d="M903,475.4h-.2M924.2,475.4h-.2"/>
      <path class="cls-4" d="M923.7,475.4h-20.3"/>
      <path class="cls-4" d="M903,475.4h-.2M924.2,473.1h-.2"/>
      <path class="cls-4" d="M923.7,473.1h-20.3"/>
      <path class="cls-4" d="M903,473.1h-.2M924.2,473.1h-.2"/>
      <path class="cls-4" d="M923.7,473.1h-20.3"/>
      <path class="cls-4" d="M903,473.1h-.2M902.8,475.4v2.4M924.2,475.4v2.4M902.8,473.1v2.4M924.2,473.1v2.4M924.2,557.4h-.2"/>
      <path class="cls-4" d="M923.7,557.4h-20.3"/>
      <path class="cls-4" d="M903,557.4h-.2M924.2,557.4h-.2"/>
      <path class="cls-4" d="M923.7,557.4h-20.3"/>
      <path class="cls-4" d="M924.2,557.4v2.4h-.2"/>
      <path class="cls-4" d="M923.7,559.6h-20.3"/>
      <path class="cls-4" d="M903,559.6h-.2M924.2,559.6h-.2"/>
      <path class="cls-4" d="M923.7,559.6h-20.3"/>
      <path class="cls-4" d="M903,559.6h-.2v2.1"/>
    </g>
  </g>
</svg>