<?xml version="1.0" encoding="UTF-8"?><svg
  xmlns="http://www.w3.org/2000/svg"
  viewBox="0 0 1776.5 635"
>
  <g id="Layer_border">
    <polygon
      points="1429.96 630 1361.14 583 415.36 583 346.54 630 5 630 5 5 350 5 350 284 656.5 284 656.5 163 824.5 163 824.5 116 942.5 116 942.5 163 1118.5 163 1118.5 284 1426.5 284 1426.5 5 1771.5 5 1771.5 630 1429.96 630"
      fill="#fdf3f2"
    />
    <path
      d="m1766.5,10v615h-335c-22.94-15.67-45.88-31.33-68.82-47H413.82c-22.94,15.67-45.88,31.33-68.82,47H10V10h335v279h316.5v-121h168v-47h108v47h176v121h318V10h335m10-10h-355v279h-298v-121h-176v-47h-128v47h-168v121h-296.5V0H0v635h348.09l2.55-1.74,19.87-13.57,46.4-31.69h942.69l11.99,8.19,54.28,37.07,2.55,1.74h348.09V0h0Z"
      fill="#e18686"
    />
  </g>
  <g id="Layer_others">
    <line
      x1="841"
      y1="355.5"
      x2="936"
      y2="355.5"
      fill="none"
      stroke="#e18686"
      stroke-miterlimit="10"
      stroke-width="3"
    />
    <line
      x1="841.5"
      y1="304"
      x2="935.5"
      y2="304"
      fill="none"
      stroke="#e18686"
      stroke-miterlimit="10"
      stroke-width="3"
    />
    <line
      x1="841.5"
      y1="311.08"
      x2="935.5"
      y2="311.08"
      fill="none"
      stroke="#e18686"
      stroke-miterlimit="10"
      stroke-width="3"
    />
    <line
      x1="841.5"
      y1="318.17"
      x2="935.5"
      y2="318.17"
      fill="none"
      stroke="#e18686"
      stroke-miterlimit="10"
      stroke-width="3"
    />
    <line
      x1="841.5"
      y1="325.25"
      x2="935.5"
      y2="325.25"
      fill="none"
      stroke="#e18686"
      stroke-miterlimit="10"
      stroke-width="3"
    />
    <line
      x1="841.5"
      y1="332.33"
      x2="935.5"
      y2="332.33"
      fill="none"
      stroke="#e18686"
      stroke-miterlimit="10"
      stroke-width="3"
    />
    <line
      x1="841.5"
      y1="339.42"
      x2="935.5"
      y2="339.42"
      fill="none"
      stroke="#e18686"
      stroke-miterlimit="10"
      stroke-width="3"
    />
    <line
      x1="841.5"
      y1="346.5"
      x2="935.5"
      y2="346.5"
      fill="none"
      stroke="#e18686"
      stroke-miterlimit="10"
      stroke-width="3"
    />
    <line
      x1="841.5"
      y1="236"
      x2="841.5"
      y2="361"
      fill="none"
      stroke="#e18686"
      stroke-miterlimit="10"
      stroke-width="3"
    />
    <rect
      x="936"
      y="234.5"
      width="47"
      height="126"
      fill="none"
      stroke="#e18686"
      stroke-miterlimit="10"
      stroke-width="3"
    />
    <rect
      x="1066"
      y="234.5"
      width="47"
      height="126"
      fill="none"
      stroke="#e18686"
      stroke-miterlimit="10"
      stroke-width="3"
    />
    <rect
      x="943"
      y="246.5"
      width="33.5"
      height="27"
      fill="none"
      stroke="#e18686"
      stroke-miterlimit="10"
      stroke-width="2.98"
    />
    <rect
      x="943"
      y="282.5"
      width="33.5"
      height="27"
      fill="none"
      stroke="#e18686"
      stroke-miterlimit="10"
      stroke-width="2.98"
    />
    <rect
      x="943"
      y="318.5"
      width="33.5"
      height="27"
      fill="none"
      stroke="#e18686"
      stroke-miterlimit="10"
      stroke-width="2.98"
    />
    <rect
      x="1073"
      y="246.5"
      width="33.5"
      height="27"
      fill="none"
      stroke="#e18686"
      stroke-miterlimit="10"
      stroke-width="2.98"
    />
    <rect
      x="1073"
      y="282.5"
      width="33.5"
      height="27"
      fill="none"
      stroke="#e18686"
      stroke-miterlimit="10"
      stroke-width="2.98"
    />
    <rect
      x="1073"
      y="318.5"
      width="33.5"
      height="27"
      fill="none"
      stroke="#e18686"
      stroke-miterlimit="10"
      stroke-width="2.98"
    />
    <path d="m1766.5,10v132h-62V10h62m3-3h-68v138h68V7h0Z" fill="#e18686" />
    <line
      x1="1703.5"
      y1="71"
      x2="1768.5"
      y2="71"
      fill="none"
      stroke="#e18686"
      stroke-miterlimit="10"
      stroke-width="3"
    />
    <line
      x1="1703.5"
      y1="81.14"
      x2="1768.5"
      y2="81.14"
      fill="none"
      stroke="#e18686"
      stroke-miterlimit="10"
      stroke-width="3"
    />
    <line
      x1="1703.5"
      y1="91.29"
      x2="1768.5"
      y2="91.29"
      fill="none"
      stroke="#e18686"
      stroke-miterlimit="10"
      stroke-width="3"
    />
    <line
      x1="1703.5"
      y1="101.43"
      x2="1768.5"
      y2="101.43"
      fill="none"
      stroke="#e18686"
      stroke-miterlimit="10"
      stroke-width="3"
    />
    <line
      x1="1703.5"
      y1="111.57"
      x2="1768.5"
      y2="111.57"
      fill="none"
      stroke="#e18686"
      stroke-miterlimit="10"
      stroke-width="3"
    />
    <line
      x1="1703.5"
      y1="131.86"
      x2="1768.5"
      y2="131.86"
      fill="none"
      stroke="#e18686"
      stroke-miterlimit="10"
      stroke-width="3"
    />
    <line
      x1="1703.5"
      y1="121.71"
      x2="1768.5"
      y2="121.71"
      fill="none"
      stroke="#e18686"
      stroke-miterlimit="10"
      stroke-width="3"
    />
    <path
      d="m1408.51,448v107.08h-30.68v-107.08h30.68m3-3h-36.68v113.08h36.68v-113.08h0Z"
      fill="#e18686"
    />
    <line
      x1="1377.34"
      y1="497.49"
      x2="1409.5"
      y2="497.49"
      fill="none"
      stroke="#e18686"
      stroke-miterlimit="10"
      stroke-width="3"
    />
    <line
      x1="1377.34"
      y1="505.71"
      x2="1409.5"
      y2="505.71"
      fill="none"
      stroke="#e18686"
      stroke-miterlimit="10"
      stroke-width="3"
    />
    <line
      x1="1377.34"
      y1="513.94"
      x2="1409.5"
      y2="513.94"
      fill="none"
      stroke="#e18686"
      stroke-miterlimit="10"
      stroke-width="3"
    />
    <line
      x1="1377.34"
      y1="522.17"
      x2="1409.5"
      y2="522.17"
      fill="none"
      stroke="#e18686"
      stroke-miterlimit="10"
      stroke-width="3"
    />
    <line
      x1="1377.34"
      y1="530.4"
      x2="1409.5"
      y2="530.4"
      fill="none"
      stroke="#e18686"
      stroke-miterlimit="10"
      stroke-width="3"
    />
    <line
      x1="1377.34"
      y1="546.85"
      x2="1409.5"
      y2="546.85"
      fill="none"
      stroke="#e18686"
      stroke-miterlimit="10"
      stroke-width="3"
    />
    <line
      x1="1377.34"
      y1="538.63"
      x2="1409.5"
      y2="538.63"
      fill="none"
      stroke="#e18686"
      stroke-miterlimit="10"
      stroke-width="3"
    />
    <path
      d="m416.18,444.25v107.08h-30.68v-107.08h30.68m3-3h-36.68v113.08h36.68v-113.08h0Z"
      fill="#e18686"
    />
    <line
      x1="385.01"
      y1="493.74"
      x2="417.17"
      y2="493.74"
      fill="none"
      stroke="#e18686"
      stroke-miterlimit="10"
      stroke-width="3"
    />
    <line
      x1="385.01"
      y1="501.96"
      x2="417.17"
      y2="501.96"
      fill="none"
      stroke="#e18686"
      stroke-miterlimit="10"
      stroke-width="3"
    />
    <line
      x1="385.01"
      y1="510.19"
      x2="417.17"
      y2="510.19"
      fill="none"
      stroke="#e18686"
      stroke-miterlimit="10"
      stroke-width="3"
    />
    <line
      x1="385.01"
      y1="518.42"
      x2="417.17"
      y2="518.42"
      fill="none"
      stroke="#e18686"
      stroke-miterlimit="10"
      stroke-width="3"
    />
    <line
      x1="385.01"
      y1="526.65"
      x2="417.17"
      y2="526.65"
      fill="none"
      stroke="#e18686"
      stroke-miterlimit="10"
      stroke-width="3"
    />
    <line
      x1="385.01"
      y1="543.11"
      x2="417.17"
      y2="543.11"
      fill="none"
      stroke="#e18686"
      stroke-miterlimit="10"
      stroke-width="3"
    />
    <line
      x1="385.01"
      y1="534.88"
      x2="417.17"
      y2="534.88"
      fill="none"
      stroke="#e18686"
      stroke-miterlimit="10"
      stroke-width="3"
    />
    <line
      x1="64.5"
      y1="51.13"
      x2="9.5"
      y2="51.13"
      fill="none"
      stroke="#e18686"
      stroke-miterlimit="10"
      stroke-width="3"
    />
    <line
      x1="64.5"
      y1="61.63"
      x2="9.5"
      y2="61.63"
      fill="none"
      stroke="#e18686"
      stroke-miterlimit="10"
      stroke-width="3"
    />
    <line
      x1="64.5"
      y1="72.13"
      x2="9.5"
      y2="72.13"
      fill="none"
      stroke="#e18686"
      stroke-miterlimit="10"
      stroke-width="3"
    />
    <line
      x1="64.5"
      y1="82.63"
      x2="9.5"
      y2="82.63"
      fill="none"
      stroke="#e18686"
      stroke-miterlimit="10"
      stroke-width="3"
    />
    <line
      x1="64.5"
      y1="93.13"
      x2="9.5"
      y2="93.13"
      fill="none"
      stroke="#e18686"
      stroke-miterlimit="10"
      stroke-width="3"
    />
    <line
      x1="64.5"
      y1="103.63"
      x2="9.5"
      y2="103.63"
      fill="none"
      stroke="#e18686"
      stroke-miterlimit="10"
      stroke-width="3"
    />
    <line
      x1="64.5"
      y1="114.13"
      x2="9.5"
      y2="114.13"
      fill="none"
      stroke="#e18686"
      stroke-miterlimit="10"
      stroke-width="3"
    />
    <line
      x1="64.5"
      y1="124.63"
      x2="9.5"
      y2="124.63"
      fill="none"
      stroke="#e18686"
      stroke-miterlimit="10"
      stroke-width="3"
    />
  </g>
  <g id="Layer_B124">
    <rect
      x="1411.27"
      y="446"
      width="27.73"
      height="128.5"
      transform="translate(2850.27 1020.5) rotate(180)"
      fill="#f8cdce"
      stroke="#e18686"
      stroke-miterlimit="10"
      stroke-width="3"
    />
    <text
      transform="translate(1411.5 512.33)"
      fill="#434142"
      font-family="NanumSquareNeovariable-Heavy, 'NanumSquare Neo variable'"
      font-size="10"
      font-variation-settings="'wght' 900"
      font-weight="800"
    >
      <tspan x="0" y="0">B1</tspan>
      <tspan x="12.75" y="0" letter-spacing="-.03em">2</tspan>
      <tspan x="19.44" y="0">4</tspan>
    </text>
  </g>
  <g id="Layer_B114">
    <rect
      x="1318"
      y="446"
      width="58.45"
      height="110.27"
      fill="#f8cdce"
      stroke="#e18686"
      stroke-miterlimit="10"
      stroke-width="3.02"
    />
    <text
      transform="translate(1321.95 508.06)"
      font-family="NanumSquareNeovariable-Heavy, 'NanumSquare Neo variable'"
      font-size="20.22"
      font-variation-settings="'wght' 900"
      font-weight="800"
    >
      <tspan x="0" y="0">B114</tspan>
    </text>
  </g>
  <g id="Layer_B107">
    <rect
      x="812"
      y="442.5"
      width="51"
      height="124"
      fill="#f8cdce"
      stroke="#e18686"
      stroke-miterlimit="10"
      stroke-width="3"
    />
    <text
      transform="translate(824.28 497.54)"
      font-family="NanumSquareNeovariable-Heavy, 'NanumSquare Neo variable'"
      font-size="14"
      font-variation-settings="'wght' 900"
      font-weight="800"
    >
      <tspan x="0" y="0">커피</tspan>
      <tspan x="-6.64" y="16.8">스퀘어</tspan>
    </text>
  </g>
  <g id="Layer_B101A">
    <rect
      x="662"
      y="166.5"
      width="166"
      height="69"
      fill="#f8cdce"
      stroke="#e18686"
      stroke-miterlimit="10"
      stroke-width="3"
    />
    <text
      transform="translate(708.67 196.11)"
      font-family="NanumSquareNeovariable-Heavy, 'NanumSquare Neo variable'"
      font-size="22"
      font-variation-settings="'wght' 900"
      font-weight="800"
    >
      <tspan x="0" y="0">B101A</tspan>
    </text>
    <text
      transform="translate(709.13 220.11)"
      font-family="NanumSquareNeovariable-Regular, 'NanumSquare Neo variable'"
      font-size="18"
      font-variation-settings="'wght' 300"
    >
      <tspan x="0" y="0" letter-spacing="-.02em">L</tspan>
      <tspan x="10.13" y="0" letter-spacing="0em">oc</tspan>
      <tspan x="32.54" y="0" letter-spacing="-.04em">k</tspan>
      <tspan x="41.8" y="0">er2</tspan>
    </text>
  </g>
  <g id="Layer_B101">
    <rect
      x="939"
      y="164.5"
      width="176"
      height="70"
      fill="#f8cdce"
      stroke="#e18686"
      stroke-miterlimit="10"
      stroke-width="3"
    />
    <text
      transform="translate(1004.45 194.11)"
      font-family="NanumSquareNeovariable-Heavy, 'NanumSquare Neo variable'"
      font-size="22"
      font-variation-settings="'wght' 900"
      font-weight="800"
    >
      <tspan x="0" y="0">B101</tspan>
    </text>
    <text
      transform="translate(998.06 218.11)"
      font-family="NanumSquareNeovariable-Regular, 'NanumSquare Neo variable'"
      font-size="18"
      font-variation-settings="'wght' 300"
    >
      <tspan x="0" y="0" letter-spacing="-.02em">L</tspan>
      <tspan x="10.13" y="0" letter-spacing="0em">oc</tspan>
      <tspan x="32.54" y="0" letter-spacing="-.04em">k</tspan>
      <tspan x="41.8" y="0">er1</tspan>
    </text>
  </g>
  <g id="Layer_B105A">
    <polygon
      points="662.5 235.5 662.5 339.5 637 339.5 637 404.5 662.5 404.5 734 404.5 734 235.5 662.5 235.5"
      fill="#f8cdce"
      stroke="#e18686"
      stroke-miterlimit="10"
      stroke-width="3"
    />
    <text
      transform="translate(648.35 366.54)"
      font-family="NanumSquareNeovariable-Heavy, 'NanumSquare Neo variable'"
      font-size="22"
      font-variation-settings="'wght' 900"
      font-weight="800"
    >
      <tspan x="0" y="0">B105A</tspan>
    </text>
    <text
      transform="translate(651.47 383.54)"
      font-family="NanumSquareNeovariable-Regular, 'NanumSquare Neo variable'"
      font-size="12"
      font-variation-settings="'wght' 300"
    >
      <tspan x="0" y="0">전기실 사무실</tspan>
    </text>
  </g>
  <g id="Layer_B111">
    <path
      d="m1317.38,556.27c-25.46-.09-50.92-.18-76.38-.27l17.93-110h58.45v110.27Z"
      fill="#f8cdce"
      stroke="#e18686"
      stroke-miterlimit="10"
      stroke-width="3.02"
    />
    <text
      transform="translate(1264.92 492.32)"
      font-family="NanumSquareNeovariable-Heavy, 'NanumSquare Neo variable'"
      font-size="20.22"
      font-variation-settings="'wght' 900"
      font-weight="800"
    >
      <tspan x="0" y="0">B111</tspan>
    </text>
    <text
      transform="translate(1252.12 514.54)"
      font-family="NanumSquareNeovariable-Regular, 'NanumSquare Neo variable'"
      font-size="14"
      font-variation-settings="'wght' 300"
    >
      <tspan x="0" y="0">수면실(여)</tspan>
    </text>
  </g>
  <g id="Layer_B109">
    <rect
      x="935.55"
      y="446"
      width="66.45"
      height="132.47"
      fill="#f8cdce"
      stroke="#e18686"
      stroke-miterlimit="10"
      stroke-width="3"
    />
    <text
      transform="translate(938.18 500.25)"
      font-family="NanumSquareNeovariable-Heavy, 'NanumSquare Neo variable'"
      font-size="22"
      font-variation-settings="'wght' 900"
      font-weight="800"
    >
      <tspan x="0" y="0">B109</tspan>
    </text>
    <text
      transform="translate(936.42 525.25)"
      font-family="NanumSquareNeovariable-Regular, 'NanumSquare Neo variable'"
      font-size="14"
      font-variation-settings="'wght' 300"
    >
      <tspan x="0" y="0">수면실(남)</tspan>
    </text>
  </g>
  <g id="Layer_B110A">
    <rect
      x="1001.91"
      y="492.5"
      width="142.59"
      height="86.37"
      fill="#f8cdce"
      stroke="#e18686"
      stroke-miterlimit="10"
      stroke-width="3"
    />
    <text
      transform="translate(1036.14 543.4)"
      font-family="NanumSquareNeovariable-Heavy, 'NanumSquare Neo variable'"
      font-size="22"
      font-variation-settings="'wght' 900"
      font-weight="800"
    >
      <tspan x="0" y="0">B110A</tspan>
    </text>
  </g>
  <g id="Layer_B115">
    <rect
      x="1439"
      y="470.5"
      width="332"
      height="159"
      fill="#f8cdce"
      stroke="#e18686"
      stroke-miterlimit="10"
      stroke-width="3"
    />
    <text
      transform="translate(1534.94 562.75)"
      font-family="NanumSquareNeovariable-Regular, 'NanumSquare Neo variable'"
      font-size="16"
      font-variation-settings="'wght' 300"
    >
      <tspan x="0" y="0">연속간행물 밀집서고</tspan>
    </text>
    <text
      transform="translate(1577.78 538.75)"
      font-family="NanumSquareNeovariable-Heavy, 'NanumSquare Neo variable'"
      font-size="22"
      font-variation-settings="'wght' 900"
      font-weight="800"
    >
      <tspan x="0" y="0">B115</tspan>
    </text>
  </g>
  <g id="Layer_B123">
    <rect
      x="349.5"
      y="442.5"
      width="34.5"
      height="110.5"
      fill="#f8cdce"
      stroke="#e18686"
      stroke-miterlimit="10"
      stroke-width="3"
    />
    <text
      transform="translate(349.53 502.04)"
      font-family="NanumSquareNeovariable-Heavy, 'NanumSquare Neo variable'"
      font-size="13"
      font-variation-settings="'wght' 900"
      font-weight="800"
    >
      <tspan x="0" y="0">B123</tspan>
    </text>
  </g>
  <g id="Layer_B105D">
    <rect
      x="417.5"
      y="442.5"
      width="57.5"
      height="110.5"
      fill="#f8cdce"
      stroke="#e18686"
      stroke-miterlimit="10"
      stroke-width="3"
    />
    <text
      transform="translate(423.12 503.94)"
      font-family="NanumSquareNeovariable-Heavy, 'NanumSquare Neo variable'"
      font-size="13"
      font-variation-settings="'wght' 900"
      font-weight="800"
    >
      <tspan x="0" y="0">B105D</tspan>
    </text>
  </g>
  <g id="Layer_B105">
    <rect
      x="475"
      y="442.5"
      width="337"
      height="110.5"
      transform="translate(1287 995.5) rotate(180)"
      fill="#f8cdce"
      stroke="#e18686"
      stroke-miterlimit="10"
      stroke-width="3"
    />
    <text
      transform="translate(619.73 494.95)"
      font-family="NanumSquareNeovariable-Heavy, 'NanumSquare Neo variable'"
      font-size="22"
      font-variation-settings="'wght' 900"
      font-weight="800"
    >
      <tspan x="0" y="0">B105</tspan>
    </text>
    <text
      transform="translate(632.59 512.95)"
      font-family="NanumSquareNeovariable-Regular, 'NanumSquare Neo variable'"
      font-size="12"
      font-variation-settings="'wght' 300"
    >
      <tspan x="0" y="0">전기실</tspan>
    </text>
  </g>
  <g id="Layer_B106">
    <text
      transform="translate(154.74 354.72)"
      font-family="NanumSquareNeovariable-Heavy, 'NanumSquare Neo variable'"
      font-size="22"
      font-variation-settings="'wght' 900"
      font-weight="800"
    >
      <tspan x="0" y="0">B106</tspan>
    </text>
    <polygon
      points="301 124.5 301 181.5 229 181.5 229 124.5 7 124.5 7 630.5 348 630.5 348 124.5 301 124.5"
      fill="#f8cdce"
      stroke="#e18686"
      stroke-miterlimit="10"
      stroke-width="3.28"
    />
    <text
      transform="translate(153.61 382.72)"
      font-family="NanumSquareNeovariable-Heavy, 'NanumSquare Neo variable'"
      font-size="22"
      font-variation-settings="'wght' 900"
      font-weight="800"
    >
      <tspan x="0" y="0">기계실</tspan>
    </text>
  </g>
  <g id="Layer_Delte">
    <path
      d="m1241,556l17.93-110h-256.93v46.5h142.5v64h141.5v-.34c-15-.05-30-.1-45-.16Z"
      fill="#f8cdce"
      stroke="#e18686"
      stroke-miterlimit="10"
      stroke-width="3.46"
    />
    <text
      transform="translate(1059.91 474.8)"
      font-family="NanumSquareNeovariable-Heavy, 'NanumSquare Neo variable'"
      font-size="22"
      font-variation-settings="'wght' 900"
      font-weight="800"
    >
      <tspan x="0" y="0">Del</tspan>
      <tspan x="38.3" y="0" letter-spacing="0em">t</tspan>
      <tspan x="48.05" y="0" letter-spacing="0em">e</tspan>
      <tspan x="67.91" y="0" letter-spacing="-.02em">L</tspan>
      <tspan x="80.85" y="0">ounge</tspan>
    </text>
  </g>
  <g id="Layer_toilet3">
    <rect
      x="93"
      y="9.5"
      width="26.5"
      height="43.5"
      transform="translate(212.5 62.5) rotate(180)"
      fill="none"
      stroke="#e18686"
      stroke-miterlimit="10"
      stroke-width="3"
    />
  </g>
  <g id="Layer_B106F">
    <rect
      x="64"
      y="9.5"
      width="29"
      height="43.5"
      fill="#f8cdce"
      stroke="#e18686"
      stroke-miterlimit="10"
      stroke-width="3"
    />
    <text
      transform="translate(59.47 27.19)"
      font-family="NanumSquareNeovariable-Heavy, 'NanumSquare Neo variable'"
      font-size="12"
      font-variation-settings="'wght' 900"
      font-weight="800"
    >
      <tspan x="0" y="0">B106F</tspan>
    </text>
    <text
      transform="translate(62.6 42.19)"
      font-family="NanumSquareNeovariable-Heavy, 'NanumSquare Neo variable'"
      font-size="12"
      font-variation-settings="'wght' 900"
      font-weight="800"
    >
      <tspan x="0" y="0">샤워실</tspan>
    </text>
  </g>
  <g id="Layer_B106A">
    <rect
      x="119.09"
      y="9.86"
      width="109.91"
      height="114.14"
      fill="#f8cdce"
      stroke="#e18686"
      stroke-miterlimit="10"
      stroke-width="3"
    />
    <text
      transform="translate(134.81 72.63)"
      font-family="NanumSquareNeovariable-Heavy, 'NanumSquare Neo variable'"
      font-size="22"
      font-variation-settings="'wght' 900"
      font-weight="800"
    >
      <tspan x="0" y="0">B106A</tspan>
    </text>
  </g>
  <g id="Layer_B106B">
    <rect
      x="229"
      y="9.86"
      width="55"
      height="62.64"
      transform="translate(513 82.36) rotate(180)"
      fill="#f8cdce"
      stroke="#e18686"
      stroke-miterlimit="10"
      stroke-width="3"
    />
    <text
      transform="translate(228.29 45.96)"
      font-family="NanumSquareNeovariable-Heavy, 'NanumSquare Neo variable'"
      font-size="16"
      font-variation-settings="'wght' 900"
      font-weight="800"
    >
      <tspan x="0" y="0">B106B</tspan>
    </text>
  </g>
  <g id="Layer_B106D">
    <rect
      x="284"
      y="9.86"
      width="63"
      height="114.64"
      transform="translate(631 134.36) rotate(180)"
      fill="#f8cdce"
      stroke="#e18686"
      stroke-miterlimit="10"
      stroke-width="4.34"
    />
    <text
      transform="translate(287.05 68.96)"
      font-family="NanumSquareNeovariable-Heavy, 'NanumSquare Neo variable'"
      font-size="16"
      font-variation-settings="'wght' 900"
      font-weight="800"
    >
      <tspan x="0" y="0">B106D</tspan>
    </text>
  </g>
  <g id="Layer_B106C">
    <rect
      x="229"
      y="72.5"
      width="55"
      height="52"
      transform="translate(513 197) rotate(180)"
      fill="#f8cdce"
      stroke="#e18686"
      stroke-miterlimit="10"
      stroke-width="3"
    />
    <text
      transform="translate(228.29 101.96)"
      font-family="NanumSquareNeovariable-Heavy, 'NanumSquare Neo variable'"
      font-size="16"
      font-variation-settings="'wght' 900"
      font-weight="800"
    >
      <tspan x="0" y="0">B106B</tspan>
    </text>
  </g>
  <g id="Layer_휴게공간">
    <rect
      x="229"
      y="124.5"
      width="72"
      height="57"
      fill="#f8cdce"
      stroke="#e18686"
      stroke-miterlimit="10"
      stroke-width="3.28"
    />
    <text
      transform="translate(234.82 158.19)"
      font-family="NanumSquareNeovariable-Heavy, 'NanumSquare Neo variable'"
      font-size="16"
      font-variation-settings="'wght' 900"
      font-weight="800"
    >
      <tspan x="0" y="0">휴게공간</tspan>
    </text>
  </g>
  <g id="Layer_B105C">
    <rect
      x="348"
      y="284.5"
      width="107"
      height="124"
      fill="#f8cdce"
      stroke="#e18686"
      stroke-miterlimit="10"
      stroke-width="3"
    />
    <text
      transform="translate(365 356.54)"
      font-family="NanumSquareNeovariable-Heavy, 'NanumSquare Neo variable'"
      font-size="22"
      font-variation-settings="'wght' 900"
      font-weight="800"
    >
      <tspan x="0" y="0">B105C</tspan>
    </text>
  </g>
  <g id="Layer_B119">
    <rect
      x="1255"
      y="285.5"
      width="170"
      height="126.5"
      fill="#f8cdce"
      stroke="#e18686"
      stroke-miterlimit="10"
      stroke-width="3"
    />
    <text
      transform="translate(1314.21 355.15)"
      font-family="NanumSquareNeovariable-Heavy, 'NanumSquare Neo variable'"
      font-size="22"
      font-variation-settings="'wght' 900"
      font-weight="800"
    >
      <tspan x="0" y="0">B119</tspan>
    </text>
  </g>
  <g id="Layer_B120">
    <rect
      x="1113"
      y="285.5"
      width="142"
      height="126.5"
      fill="#f8cdce"
      stroke="#e18686"
      stroke-miterlimit="10"
      stroke-width="3"
    />
    <text
      transform="translate(1153.9 355.15)"
      font-family="NanumSquareNeovariable-Heavy, 'NanumSquare Neo variable'"
      font-size="22"
      font-variation-settings="'wght' 900"
      font-weight="800"
    >
      <tspan x="0" y="0">B120</tspan>
    </text>
  </g>
  <g id="Layer_B121">
    <rect
      x="1066"
      y="360.5"
      width="47"
      height="51.5"
      transform="translate(2179 772.5) rotate(180)"
      fill="#f8cdce"
      stroke="#e18686"
      stroke-miterlimit="10"
      stroke-width="3"
    />
    <text
      transform="translate(1062.14 393.09)"
      font-family="NanumSquareNeovariable-Heavy, 'NanumSquare Neo variable'"
      font-size="22"
      font-variation-settings="'wght' 900"
      font-weight="800"
    >
      <tspan x="0" y="0">B121</tspan>
    </text>
  </g>
  <g id="Layer_B116C">
    <rect
      x="1579"
      y="391.5"
      width="40.5"
      height="79"
      fill="#f8cdce"
      stroke="#e18686"
      stroke-miterlimit="10"
      stroke-width="3"
    />
    <text
      transform="translate(1568.08 431.65)"
      font-family="NanumSquareNeovariable-Heavy, 'NanumSquare Neo variable'"
      font-size="22"
      font-variation-settings="'wght' 900"
      font-weight="800"
    >
      <tspan x="0" y="0">B16C</tspan>
    </text>
  </g>
  <g id="Layer_B116A">
    <rect
      x="1655"
      y="357.5"
      width="116"
      height="113"
      transform="translate(3426 828) rotate(180)"
      fill="#f8cdce"
      stroke="#e18686"
      stroke-miterlimit="10"
      stroke-width="3.14"
    />
    <text
      transform="translate(1683.94 411.65)"
      font-family="NanumSquareNeovariable-Heavy, 'NanumSquare Neo variable'"
      font-size="22"
      font-variation-settings="'wght' 900"
      font-weight="800"
    >
      <tspan x="0" y="0">B16A</tspan>
    </text>
    <text
      transform="translate(1693.34 430.14)"
      font-family="NanumSquareNeovariable-Regular, 'NanumSquare Neo variable'"
      font-size="16"
      font-variation-settings="'wght' 300"
    >
      <tspan x="0" y="0">리빙랩</tspan>
    </text>
  </g>
  <g id="Layer_B116B">
    <rect
      x="1609"
      y="245.5"
      width="162"
      height="112"
      transform="translate(3380 603) rotate(180)"
      fill="#f8cdce"
      stroke="#e18686"
      stroke-miterlimit="10"
      stroke-width="3"
    />
    <text
      transform="translate(1658.63 306.88)"
      font-family="NanumSquareNeovariable-Heavy, 'NanumSquare Neo variable'"
      font-size="22"
      font-variation-settings="'wght' 900"
      font-weight="800"
    >
      <tspan x="0" y="0">B16B</tspan>
    </text>
  </g>
  <g id="Layer_B118">
    <rect
      x="1609"
      y="144.5"
      width="162"
      height="101"
      transform="translate(3380 390) rotate(180)"
      fill="#f8cdce"
      stroke="#e18686"
      stroke-miterlimit="10"
      stroke-width="3"
    />
    <text
      transform="translate(1662.3 201.32)"
      font-family="NanumSquareNeovariable-Heavy, 'NanumSquare Neo variable'"
      font-size="22"
      font-variation-settings="'wght' 900"
      font-weight="800"
    >
      <tspan x="0" y="0">B118</tspan>
    </text>
  </g>
  <g id="Layer_B117">
    <polygon
      points="1425 5.5 1425 144.5 1425 424 1548.5 424 1548.5 144.5 1703.5 144.5 1703.5 5.5 1425 5.5"
      fill="#f8cdce"
      stroke="#e18686"
      stroke-miterlimit="10"
      stroke-width="3"
    />
    <text
      transform="translate(1537.7 65.85)"
      font-family="NanumSquareNeovariable-Heavy, 'NanumSquare Neo variable'"
      font-size="22"
      font-variation-settings="'wght' 900"
      font-weight="800"
    >
      <tspan x="0" y="0">B117</tspan>
    </text>
    <text
      transform="translate(1509.29 87.85)"
      font-family="NanumSquareNeovariable-Regular, 'NanumSquare Neo variable'"
      font-size="16"
      font-variation-settings="'wght' 300"
    >
      <tspan x="0" y="0">단행본 밀집서고</tspan>
    </text>
  </g>
  <g id="Layer_toilet1">
    <rect
      x="734"
      y="235.5"
      width="54.71"
      height="121"
      fill="none"
      stroke="#e18686"
      stroke-miterlimit="10"
      stroke-width="3"
    />
  </g>
  <g id="Layer_toilet2">
    <rect
      x="788.71"
      y="235.5"
      width="52.79"
      height="121"
      transform="translate(1630.21 592) rotate(180)"
      fill="none"
      stroke="#e18686"
      stroke-miterlimit="10"
      stroke-width="3"
    />
  </g>
</svg>
