<?xml version="1.0" encoding="UTF-8"?>
<svg id="_x34_" xmlns="http://www.w3.org/2000/svg" viewBox="0 0 1350.69 867.01">
  <defs>
    <style>
      .cls-1 {
        fill: #fcf2f2;
        stroke-width: 10px;
      }

      .cls-1, .cls-2, .cls-3 {
        stroke: #e68b8b;
        stroke-miterlimit: 10;
      }

      .cls-2 {
        fill: none;
      }

      .cls-2, .cls-3 {
        stroke-width: 3px;
      }

      .cls-4 {
        letter-spacing: 0em;
      }

      .cls-5 {
        font-size: 12px;
      }

      .cls-5, .cls-6 {
        fill: #221f20;
        font-family: NanumSquareNeoTTF-dEb, 'NanumSquare Neo';
      }

      .cls-6 {
        font-size: 10px;
      }

      .cls-7 {
        letter-spacing: -.02em;
      }

      .cls-8 {
        letter-spacing: -.03em;
      }

      .cls-3 {
        fill: #f3cdcf;
      }
    </style>
  </defs>
  <g id="Layer_x5F_border-6" data-name="Layer_x5F_border">
    <rect class="cls-1" x="90.96" y="188.88" width="1175.42" height="517.29"/>
  </g>
  <g id="Layer_112">
    <rect class="cls-3" x="1229.09" y="340.92" width="37.3" height="88.42"/>
    <text class="cls-6" transform="translate(1237.25 369.61)"><tspan x="0" y="0">425</tspan><tspan x="1" y="12">여자</tspan><tspan x="-3.74" y="24">탈의실</tspan><tspan x="-3.74" y="36">샤워실</tspan></text>
  </g>
  <g id="Layer_113">
    <rect class="cls-3" x="1089.76" y="340.92" width="139.32" height="186.44"/>
    <text class="cls-5" transform="translate(1142.36 437.12)"><tspan x="0" y="0">공조실</tspan></text>
  </g>
  <g id="Layer_114">
    <rect class="cls-3" x="1159.54" y="188.88" width="106.85" height="111.82"/>
    <text class="cls-5" transform="translate(1200.41 233.38)"><tspan x="0" y="0">4</tspan><tspan class="cls-8" x="8.59" y="0">2</tspan><tspan x="16.51" y="0">4</tspan><tspan x="-34.17" y="14.4">RF 회로 및 시스템</tspan><tspan x="-4.51" y="28.8">연구실</tspan></text>
  </g>
  <g id="Layer_115">
    <rect class="cls-3" x="1108.99" y="188.88" width="49.22" height="111.82"/>
    <text class="cls-5" transform="translate(1116.38 240.58)"><tspan x="0" y="0">423B</tspan><tspan x=".16" y="14.4">연구실</tspan></text>
  </g>
  <g id="Layer_116">
    <rect class="cls-3" x="1051.31" y="188.88" width="57.68" height="111.82"/>
    <text class="cls-6" transform="translate(1065.64 223.28)"><tspan x="0" y="0">423A</tspan><tspan x="-10.43" y="12">컴퓨터구조 </tspan><tspan x="-6.93" y="24">및 시스템 </tspan><tspan x="-9.19" y="36">소프트웨어</tspan><tspan x=".29" y="48">연구실</tspan></text>
  </g>
  <g id="Layer_117">
    <rect class="cls-3" x="942.32" y="188.88" width="108.99" height="111.82"/>
    <text class="cls-5" transform="translate(984.24 233.38)"><tspan x="0" y="0">422</tspan><tspan x="-32.93" y="14.4">초고속집적시스템</tspan><tspan x="-4.49" y="28.8">연구실</tspan></text>
  </g>
  <g id="Layer_118">
    <rect class="cls-3" x="832.34" y="188.88" width="109.98" height="111.82"/>
    <text class="cls-5" transform="translate(875.92 233.38)"><tspan x="0" y="0">421</tspan><tspan x="-5.66" y="14.4">실시간</tspan><tspan x="-22.72" y="28.8">시뮬레이터룸</tspan></text>
  </g>
  <g id="Layer_119">
    <rect class="cls-3" x="724.22" y="188.88" width="108.12" height="111.82"/>
    <text class="cls-5" transform="translate(765.43 233.38)"><tspan x="0" y="0">420</tspan><tspan x="-26.97" y="14.4">복잡데이터분석</tspan><tspan x="-4.22" y="28.8">연구실</tspan></text>
  </g>
  <g id="Layer_120">
    <rect class="cls-3" x="612.39" y="188.88" width="111.82" height="111.82"/>
    <text class="cls-5" transform="translate(656.89 233.38)"><tspan class="cls-7" x="0" y="0">4</tspan><tspan x="8.35" y="0">19</tspan><tspan x="-25.72" y="14.4">고성능/지능형</tspan><tspan x="-24.2" y="28.8">컴퓨팅 연구실</tspan></text>
  </g>
  <g id="Layer_121">
    <rect class="cls-3" x="509.14" y="188.88" width="103.25" height="111.82"/>
    <text class="cls-5" transform="translate(549.23 233.38)"><tspan class="cls-7" x="0" y="0">4</tspan><tspan x="8.35" y="0">18</tspan><tspan x="-24.08" y="14.4">무선네트워크 </tspan><tspan x="-18.39" y="28.8">응용 연구실</tspan></text>
  </g>
  <g id="Layer_122">
    <rect class="cls-3" x="395.95" y="188.88" width="113.19" height="111.82"/>
    <text class="cls-5" transform="translate(441.61 233.38)"><tspan class="cls-7" x="0" y="0">4</tspan><tspan x="8.35" y="0">17</tspan><tspan x="-17.51" y="14.4">멀티미디어</tspan><tspan x="-19" y="28.8">정보 연구실</tspan></text>
  </g>
  <g id="Layer_123">
    <rect class="cls-3" x="318.95" y="188.88" width="77" height="111.82"/>
    <text class="cls-5" transform="translate(346.04 240.58)"><tspan class="cls-7" x="0" y="0">4</tspan><tspan x="8.35" y="0">16</tspan><tspan x="-17.03" y="14.4">공동연구실</tspan></text>
  </g>
  <g id="Layer_124">
    <rect class="cls-3" x="177.3" y="188.88" width="141.65" height="111.82"/>
    <text class="cls-5" transform="translate(236.83 226.18)"><tspan class="cls-7" x="0" y="0">4</tspan><tspan x="8.35" y="0">15</tspan><tspan x="-20.12" y="14.4">컴파일러 및 </tspan><tspan x="-35.7" y="28.8">마이크로 아키텍쳐</tspan><tspan x="-5.77" y="43.2">연구실</tspan></text>
  </g>
  <g id="Layer_125">
    <rect class="cls-3" x="457.62" y="433.5" width="164.23" height="93.92"/>
    <text class="cls-5" transform="translate(527.51 469.04)"><tspan x="0" y="0">427</tspan><tspan x="-23.39" y="14.4">융합회로 설계</tspan><tspan x="-4.84" y="28.8">연구실</tspan></text>
  </g>
  <g id="Layer_126">
    <rect class="cls-3" x="540.43" y="340.97" width="81.41" height="92.54"/>
    <text class="cls-5" transform="translate(563.73 375.82)"><tspan x="0" y="0">426A</tspan><tspan x="-11.03" y="14.4">전기공학과</tspan><tspan x="-5.34" y="28.8">스터디룸</tspan></text>
  </g>
  <g id="Layer_127">
    <rect class="cls-3" x="457.62" y="340.97" width="82.82" height="92.54"/>
    <text class="cls-5" transform="translate(481.81 383.02)"><tspan x="0" y="0">426B</tspan><tspan x="-11.16" y="14.4">세미나실 2</tspan></text>
  </g>
  <g id="Layer_128">
    <polygon class="cls-2" points="242.01 389.23 242.01 505.03 316.26 505.03 316.26 527.42 338.12 527.42 338.12 444.75 295.64 444.75 295.64 389.23 242.01 389.23"/>
  </g>
  <g id="Layer_129">
    <polygon class="cls-2" points="1002.69 527.35 1002.69 502.76 1089.76 502.76 1089.76 389.51 982.58 389.51 982.58 527.35 1002.69 527.35"/>
  </g>
  <g id="Layer_96">
    <rect class="cls-3" x="90.96" y="188.88" width="86.34" height="111.82"/>
    <text class="cls-5" transform="translate(122.69 233.38)"><tspan class="cls-7" x="0" y="0">4</tspan><tspan x="8.35" y="0">14</tspan><tspan x="-24.17" y="14.4">컴퓨터 시스템</tspan><tspan x="-5.62" y="28.8">연구실</tspan></text>
  </g>
  <g id="Layer_x5F_others-6" data-name="Layer_x5F_others">
    <rect class="cls-2" x="242.01" y="505.03" width="74.26" height="22.39"/>
    <rect class="cls-3" x="351.16" y="456.65" width="42.04" height="42.04"/>
    <rect class="cls-2" x="271.05" y="339.12" width="124.9" height="50.11"/>
    <rect class="cls-3" x="295.64" y="389.23" width="55.52" height="55.52"/>
    <polygon class="cls-2" points="351.16 444.75 351.16 498.69 393.2 498.69 393.2 527.42 338.12 527.42 338.12 444.75 351.16 444.75"/>
    <g>
      <rect class="cls-2" x="272.58" y="340.97" width="8.59" height="25.11"/>
      <rect class="cls-2" x="281.17" y="340.97" width="8.93" height="25.11"/>
      <rect class="cls-2" x="290.1" y="340.97" width="10.3" height="25.11"/>
      <rect class="cls-2" x="300.4" y="340.97" width="8.24" height="25.11"/>
      <rect class="cls-2" x="308.64" y="340.97" width="10.3" height="25.11"/>
      <rect class="cls-2" x="318.95" y="340.97" width="7.38" height="25.11"/>
      <rect class="cls-2" x="326.33" y="340.97" width="11.16" height="25.11"/>
      <rect class="cls-2" x="337.5" y="340.97" width="10.3" height="25.11"/>
      <rect class="cls-2" x="347.8" y="340.97" width="8.93" height="25.11"/>
      <rect class="cls-2" x="356.73" y="340.97" width="8.93" height="25.11"/>
    </g>
    <g>
      <rect class="cls-2" x="272.44" y="365.79" width="8.59" height="22.73"/>
      <rect class="cls-2" x="281.02" y="365.79" width="8.93" height="22.73"/>
      <rect class="cls-2" x="289.95" y="365.79" width="10.3" height="22.73"/>
      <rect class="cls-2" x="300.26" y="365.79" width="8.24" height="22.73"/>
      <rect class="cls-2" x="308.5" y="365.79" width="10.3" height="22.73"/>
      <rect class="cls-2" x="318.81" y="365.79" width="7.38" height="22.73"/>
      <rect class="cls-2" x="326.19" y="365.79" width="11.16" height="22.73"/>
      <rect class="cls-2" x="337.35" y="365.79" width="10.3" height="22.73"/>
      <rect class="cls-2" x="347.66" y="365.79" width="8.93" height="22.73"/>
      <rect class="cls-2" x="356.59" y="365.79" width="8.93" height="22.73"/>
    </g>
    <rect class="cls-2" x="621.85" y="350.06" width="213.44" height="166.22"/>
    <rect class="cls-2" x="934.17" y="340.92" width="126.24" height="48.59"/>
    <rect class="cls-2" x="934.17" y="389.51" width="48.41" height="137.84"/>
    <rect class="cls-3" x="934.17" y="395.36" width="48.41" height="48.41"/>
    <rect class="cls-3" x="934.17" y="450.61" width="48.41" height="41.99"/>
    <rect class="cls-3" x="1002.69" y="502.76" width="87.07" height="24.59"/>
    <g>
      <rect class="cls-2" x="967.33" y="340.92" width="8.59" height="22.73"/>
      <rect class="cls-2" x="975.91" y="340.92" width="8.93" height="22.73"/>
      <rect class="cls-2" x="984.84" y="340.92" width="10.3" height="22.73"/>
      <rect class="cls-2" x="995.15" y="340.92" width="8.24" height="22.73"/>
      <rect class="cls-2" x="1003.39" y="340.92" width="10.3" height="22.73"/>
      <rect class="cls-2" x="1013.7" y="340.92" width="7.38" height="22.73"/>
      <rect class="cls-2" x="1021.08" y="340.92" width="11.16" height="22.73"/>
      <rect class="cls-2" x="1032.24" y="340.92" width="10.3" height="22.73"/>
      <rect class="cls-2" x="1042.55" y="340.92" width="8.93" height="22.73"/>
      <rect class="cls-2" x="1051.48" y="340.92" width="8.93" height="22.73"/>
    </g>
    <g>
      <rect class="cls-2" x="967.16" y="365.21" width="8.59" height="22.73"/>
      <rect class="cls-2" x="975.74" y="365.21" width="8.93" height="22.73"/>
      <rect class="cls-2" x="984.67" y="365.21" width="10.3" height="22.73"/>
      <rect class="cls-2" x="994.98" y="365.21" width="8.24" height="22.73"/>
      <rect class="cls-2" x="1003.22" y="365.21" width="10.3" height="22.73"/>
      <rect class="cls-2" x="1013.52" y="365.21" width="7.38" height="22.73"/>
      <rect class="cls-2" x="1020.91" y="365.21" width="11.16" height="22.73"/>
      <rect class="cls-2" x="1032.07" y="365.21" width="10.3" height="22.73"/>
      <rect class="cls-2" x="1042.38" y="365.21" width="8.93" height="22.73"/>
      <rect class="cls-2" x="1051.31" y="365.21" width="8.93" height="22.73"/>
    </g>
    <rect class="cls-2" x="1060.41" y="340.92" width="29.35" height="48.59"/>
    <rect class="cls-2" x="242.01" y="339.12" width="29.04" height="50.11"/>
  </g>
  <g id="Layer_98">
    <rect class="cls-3" x="90.96" y="339.12" width="151.05" height="97.3"/>
    <text class="cls-5" transform="translate(155.07 376.35)"><tspan class="cls-7" x="0" y="0">4</tspan><tspan x="8.35" y="0">13</tspan><tspan x="-11.34" y="14.4">전력전자</tspan><tspan x="-5.65" y="28.8">연구실</tspan></text>
  </g>
  <g id="Layer_99">
    <rect class="cls-3" x="90.96" y="436.41" width="151.05" height="90.32"/>
    <text class="cls-5" transform="translate(155.2 470.16)"><tspan class="cls-7" x="0" y="0">4</tspan><tspan x="8.35" y="0">12</tspan><tspan x="-38.68" y="14.4">차세대 전자 소자 및</tspan><tspan x="-55.75" y="28.8">에너지 변환 시스템 연구실</tspan></text>
  </g>
  <g id="Layer_100">
    <rect class="cls-3" x="90.96" y="566.62" width="91.21" height="139.55"/>
    <text class="cls-5" transform="translate(126.45 617.78)"><tspan class="cls-7" x="0" y="0">4</tspan><tspan x="8.35" y="0">11</tspan><tspan x="-14.12" y="14.4">인공지능 </tspan><tspan x="-18.32" y="28.8">정보시스템</tspan><tspan x="-18.32" y="43.2">공학연구실</tspan></text>
  </g>
  <g id="Layer_101">
    <rect class="cls-3" x="182.17" y="566.62" width="107.79" height="139.55"/>
    <text class="cls-5" transform="translate(224.5 632.18)"><tspan class="cls-7" x="0" y="0">4</tspan><tspan x="8.35" y="0">10</tspan><tspan x="-16.88" y="14.4">공동연구실</tspan></text>
  </g>
  <g id="Layer_102">
    <rect class="cls-3" x="290.1" y="566.62" width="109.09" height="139.55"/>
    <text class="cls-5" transform="translate(331.67 624.98)"><tspan x="0" y="0">409</tspan><tspan x="-15.47" y="14.4">집적시스템</tspan><tspan x="-4.09" y="28.8">연구실</tspan></text>
  </g>
  <g id="Layer_103">
    <rect class="cls-3" x="399.18" y="566.62" width="109.96" height="139.55"/>
    <text class="cls-5" transform="translate(441.06 624.98)"><tspan x="0" y="0">408</tspan><tspan x="-25.19" y="14.4">V</tspan><tspan class="cls-7" x="-15.81" y="14.4">L</tspan><tspan class="cls-4" x="-8.85" y="14.4">SI 신호처리</tspan><tspan x="-3.97" y="28.8">연구실</tspan></text>
  </g>
  <g id="Layer_104">
    <rect class="cls-3" x="509.14" y="566.62" width="103.25" height="139.55"/>
    <text class="cls-5" transform="translate(546.79 624.98)"><tspan x="0" y="0">407 </tspan><tspan x="-27.32" y="14.4">집적회로 최적화</tspan><tspan x="-3.08" y="28.8">연구실</tspan></text>
  </g>
  <g id="Layer_105">
    <rect class="cls-3" x="612.39" y="566.62" width="111.82" height="139.55"/>
    <text class="cls-5" transform="translate(655.33 624.98)"><tspan x="0" y="0">406</tspan><tspan x="-15.47" y="14.4">지능미디어</tspan><tspan x="-4.09" y="28.8">연구실</tspan></text>
  </g>
  <g id="Layer_106">
    <rect class="cls-3" x="724.22" y="566.62" width="108.12" height="139.55"/>
    <text class="cls-5" transform="translate(765.43 624.98)"><tspan x="0" y="0">405</tspan><tspan x="-17.08" y="14.4">미디어 통신</tspan><tspan x="-4.21" y="28.8">연구실</tspan></text>
  </g>
  <g id="Layer_107">
    <rect class="cls-3" x="832.34" y="566.62" width="101.84" height="139.55"/>
    <text class="cls-5" transform="translate(870.25 617.78)"><tspan x="0" y="0">404</tspan><tspan x="-22.61" y="14.4">유연반도체 및</tspan><tspan x="-15.44" y="28.8">에너지소자</tspan><tspan x="-4.06" y="43.2">연구실</tspan></text>
  </g>
  <g id="Layer_108">
    <rect class="cls-3" x="934.17" y="566.62" width="112.05" height="139.55"/>
    <text class="cls-5" transform="translate(977.23 624.98)"><tspan x="0" y="0">403</tspan><tspan x="-15.47" y="14.4">전력시스템</tspan><tspan x="-16.96" y="28.8">기술 연구소</tspan></text>
  </g>
  <g id="Layer_109">
    <rect class="cls-3" x="1046.23" y="566.62" width="113.31" height="139.55"/>
    <text class="cls-5" transform="translate(1090.04 624.98)"><tspan x="0" y="0">402</tspan><tspan x="-21.28" y="14.4">지능영상처리</tspan><tspan x="-4.22" y="28.8">연구실</tspan></text>
  </g>
  <g id="Layer_110">
    <rect class="cls-3" x="1159.54" y="566.62" width="106.85" height="139.55"/>
    <text class="cls-5" transform="translate(1201.28 624.98)"><tspan x="0" y="0">401</tspan><tspan x="-22.45" y="14.4">지능신호처리</tspan><tspan x="-5.39" y="28.8">연구실</tspan></text>
  </g>
  <g id="Layer_111">
    <rect class="cls-3" x="1229.09" y="429.34" width="37.3" height="98.02"/>
    <text class="cls-6" transform="translate(1237.04 462.83)"><tspan x="0" y="0">428</tspan><tspan x="1.21" y="12">남자</tspan><tspan x="-3.53" y="24">탈의실</tspan><tspan x="-3.53" y="36">샤워실</tspan></text>
  </g>
</svg>