<?xml version="1.0" encoding="UTF-8"?><svg xmlns="http://www.w3.org/2000/svg" viewBox="0 0 1800 1400"><defs><style>.cls-1{fill:#fdf2f1;stroke-width:10px;}.cls-1,.cls-2,.cls-3{stroke:#e08686;stroke-miterlimit:10;}.cls-2{fill:none;}.cls-2,.cls-3{stroke-width:3px;}.cls-4{font-size:30.38px;}.cls-4,.cls-5{fill:#231815;font-family:NanumSquareNeovariable-ExtraBold, 'NanumSquare Neo variable';font-variation-settings:'wght' 700;font-weight:700;}.cls-5{font-size:32px;}.cls-3{fill:#f8cdcd;}.cls-6{letter-spacing:0em;}</style></defs><g id="_레이어_x5F_배경"><rect class="cls-1" x="75.5" y="16.55" width="1563.15" height="1356.93"/></g><g id="_레이어_x5F_others"><rect class="cls-2" x="1058.83" y="22.98" width="166.08" height="215.59"/><polygon class="cls-2" points="1285.99 22.98 1285.99 160.52 1285.99 238.57 1405.1 238.57 1405.1 160.52 1464 160.52 1464 22.98 1285.99 22.98"/><rect class="cls-2" x="1058.83" y="314.64" width="316.17" height="151.92"/><rect class="cls-2" x="1058.83" y="466.56" width="316.17" height="159.14"/><rect class="cls-2" x="1558.3" y="375.24" width="76.93" height="68.11"/><rect class="cls-2" x="1464.07" y="443.35" width="171.15" height="97.68"/><rect class="cls-2" x="1464.07" y="541.03" width="171.15" height="88.22"/><rect class="cls-2" x="81.57" y="1182.63" width="319.27" height="184.48"/><line class="cls-2" x1="1177.99" y1="314.64" x2="1177.99" y2="466.56"/><line class="cls-2" x1="1187.99" y1="314.64" x2="1187.99" y2="466.56"/><line class="cls-2" x1="1197.99" y1="314.64" x2="1197.99" y2="466.56"/><line class="cls-2" x1="1207.99" y1="314.64" x2="1207.99" y2="466.56"/><line class="cls-2" x1="1217.99" y1="314.64" x2="1217.99" y2="466.56"/><line class="cls-2" x1="1227.99" y1="314.64" x2="1227.99" y2="466.56"/><line class="cls-2" x1="1237.99" y1="314.64" x2="1237.99" y2="466.56"/><line class="cls-2" x1="1247.99" y1="314.64" x2="1247.99" y2="466.56"/><line class="cls-2" x1="1257.99" y1="314.64" x2="1257.99" y2="466.56"/><line class="cls-2" x1="1267.99" y1="314.64" x2="1267.99" y2="466.56"/><line class="cls-2" x1="1277.99" y1="314.64" x2="1277.99" y2="466.56"/><line class="cls-2" x1="1287.99" y1="314.64" x2="1287.99" y2="466.56"/><line class="cls-2" x1="1297.99" y1="314.64" x2="1297.99" y2="466.56"/><line class="cls-2" x1="1307.99" y1="314.64" x2="1307.99" y2="466.56"/><line class="cls-2" x1="152.23" y1="1182.63" x2="152.23" y2="1367.12"/><line class="cls-2" x1="162.23" y1="1182.63" x2="162.23" y2="1367.12"/><line class="cls-2" x1="172.23" y1="1182.63" x2="172.23" y2="1367.12"/><line class="cls-2" x1="182.23" y1="1182.63" x2="182.23" y2="1367.12"/><line class="cls-2" x1="192.23" y1="1182.63" x2="192.23" y2="1367.12"/><line class="cls-2" x1="202.23" y1="1182.63" x2="202.23" y2="1367.12"/><line class="cls-2" x1="212.23" y1="1182.63" x2="212.23" y2="1367.12"/><line class="cls-2" x1="222.23" y1="1182.63" x2="222.23" y2="1367.12"/><line class="cls-2" x1="232.23" y1="1182.63" x2="232.23" y2="1367.12"/><line class="cls-2" x1="242.23" y1="1182.63" x2="242.23" y2="1367.12"/><line class="cls-2" x1="252.23" y1="1182.63" x2="252.23" y2="1367.12"/><line class="cls-2" x1="262.23" y1="1182.63" x2="262.23" y2="1367.12"/><line class="cls-2" x1="272.23" y1="1182.63" x2="272.23" y2="1367.12"/><line class="cls-2" x1="282.23" y1="1182.63" x2="282.23" y2="1367.12"/><line class="cls-2" x1="292.23" y1="1182.63" x2="292.23" y2="1367.12"/><line class="cls-2" x1="302.23" y1="1182.63" x2="302.23" y2="1367.12"/><line class="cls-2" x1="312.23" y1="1182.63" x2="312.23" y2="1367.12"/></g><g id="_레이어_x5F_601"><rect class="cls-3" x="799.93" y="22.98" width="258.9" height="640.62"/><text class="cls-5" transform="translate(898.32 299.61)"><tspan x="0" y="0">601</tspan><tspan x="-14.45" y="38.4">실험실</tspan></text></g><g id="_레이어_x5F_602"><rect class="cls-3" x="500.16" y="22.98" width="299.77" height="640.62"/><text class="cls-5" transform="translate(615.87 299.61)"><tspan x="0" y="0">602</tspan><tspan x="-72" y="38.4">대학원생연구실</tspan></text></g><g id="_레이어_x5F_603"><rect class="cls-3" x="80.56" y="23.11" width="320.29" height="186.82"/><text class="cls-5" transform="translate(211.92 107.09)"><tspan x="0" y="0">603</tspan><tspan x="-41.33" y="38.4">교수연구실</tspan></text></g><g id="_레이어_x5F_604"><rect class="cls-3" x="80.56" y="209.98" width="320.29" height="200.08"/><text class="cls-5" transform="translate(219.11 299.61)"><tspan x="0" y="0">604</tspan><tspan x="-41.25" y="38.4">교수연구실</tspan></text></g><g id="_레이어_x5F_605"><rect class="cls-3" x="80.56" y="410.05" width="320.29" height="186.82"/><text class="cls-5" transform="translate(218.04 494.04)"><tspan x="0" y="0">605</tspan><tspan x="-41.65" y="38.4">교수연구실</tspan></text></g><g id="_레이어_x5F_606"><rect class="cls-3" x="80.56" y="596.87" width="320.29" height="210.72"/><text class="cls-5" transform="translate(213.61 688.66)"><tspan x="0" y="0">606</tspan><tspan x="-26.16" y="38.4">세미나실</tspan></text></g><g id="_레이어_x5F_607"><rect class="cls-3" x="80.56" y="807.59" width="320.29" height="197.66"/><text class="cls-5" transform="translate(207.47 906.42)"><tspan x="0" y="0">607</tspan><tspan x="-42.61" y="38.4">교수연구실</tspan></text></g><g id="_레이어_x5F_608"><rect class="cls-3" x="82.09" y="1005.25" width="318.75" height="177.38"/><text class="cls-4" transform="translate(206.62 1093.94) scale(1.05 1)"><tspan x="0" y="0">608</tspan><tspan x="-38.92" y="36.46">교수연구실</tspan></text></g><g id="_레이어_x5F_609"><rect class="cls-3" x="478.93" y="784.28" width="299.77" height="582.84"/><text class="cls-5" transform="translate(594.31 1035.72)"><tspan x="0" y="0">609</tspan><tspan x="-71.66" y="38.4">지질공학연구실</tspan></text></g><g id="_레이어_x5F_610"><rect class="cls-3" x="779.49" y="784.28" width="279.34" height="582.84"/><text class="cls-5" transform="translate(888.27 1035.72)"><tspan class="cls-6" x="0" y="0">6</tspan><tspan x="22.43" y="0">10</tspan><tspan x="-90.45" y="38.4">변성암석학연구실</tspan></text></g><g id="_레이어_x5F_611"><rect class="cls-3" x="1058.83" y="784.28" width="273.28" height="582.84"/><text class="cls-5" transform="translate(1168.42 1035.72)"><tspan class="cls-6" x="0" y="0">6</tspan><tspan x="22.43" y="0">11</tspan><tspan x="-63.95" y="38.4">지진학연구실</tspan></text></g><g id="_레이어_x5F_612"><rect class="cls-3" x="1332.11" y="784.28" width="300.51" height="582.84"/><text class="cls-5" transform="translate(1455.72 1035.72)"><tspan class="cls-6" x="0" y="0">6</tspan><tspan x="22.43" y="0">12</tspan><tspan x="-60.83" y="38.4">퇴적암연구실</tspan></text></g><g id="_레이어_x5F_613"><rect class="cls-3" x="1464.07" y="23.11" width="171.15" height="352.13"/><text class="cls-5" transform="translate(1519.45 199.17)"><tspan class="cls-6" x="0" y="0">6</tspan><tspan x="22.43" y="0">13</tspan></text></g></svg>