<?xml version="1.0" encoding="UTF-8"?><svg
  xmlns="http://www.w3.org/2000/svg"
  viewBox="0 0 1920 1080"
>
  <g id="Layer_border">
    <polygon
      points="1499.46 817 1430.64 770 484.86 770 416.04 817 74.5 817 74.5 192 419.5 192 419.5 471 726 471 726 350 894 350 894 303 1012 303 1012 350 1188 350 1188 471 1496 471 1496 192 1841 192 1841 817 1499.46 817"
      fill="#fdf3f2"
    />
    <path
      d="m1836,197v615h-335c-22.94-15.67-45.88-31.33-68.82-47H483.32c-22.94,15.67-45.88,31.33-68.82,47H79.5V197h335v279h316.5v-121h168v-47h108v47h176v121h318V197h335m10-10h-355v279h-298v-121h-176v-47h-128v47h-168v121h-296.5V187H69.5v635h348.09l2.55-1.74,19.87-13.57,46.4-31.69h942.69l11.99,8.19,54.28,37.07,2.55,1.74h348.09V187h0Z"
      fill="#e18686"
    />
  </g>
  <g id="Layer_others">
    <line
      x1="910.5"
      y1="542.5"
      x2="1005.5"
      y2="542.5"
      fill="none"
      stroke="#e18686"
      stroke-miterlimit="10"
      stroke-width="3"
    />
    <line
      x1="911"
      y1="491"
      x2="1005"
      y2="491"
      fill="none"
      stroke="#e18686"
      stroke-miterlimit="10"
      stroke-width="3"
    />
    <line
      x1="911"
      y1="498.08"
      x2="1005"
      y2="498.08"
      fill="none"
      stroke="#e18686"
      stroke-miterlimit="10"
      stroke-width="3"
    />
    <line
      x1="911"
      y1="505.17"
      x2="1005"
      y2="505.17"
      fill="none"
      stroke="#e18686"
      stroke-miterlimit="10"
      stroke-width="3"
    />
    <line
      x1="911"
      y1="512.25"
      x2="1005"
      y2="512.25"
      fill="none"
      stroke="#e18686"
      stroke-miterlimit="10"
      stroke-width="3"
    />
    <line
      x1="911"
      y1="519.33"
      x2="1005"
      y2="519.33"
      fill="none"
      stroke="#e18686"
      stroke-miterlimit="10"
      stroke-width="3"
    />
    <line
      x1="911"
      y1="526.42"
      x2="1005"
      y2="526.42"
      fill="none"
      stroke="#e18686"
      stroke-miterlimit="10"
      stroke-width="3"
    />
    <line
      x1="911"
      y1="533.5"
      x2="1005"
      y2="533.5"
      fill="none"
      stroke="#e18686"
      stroke-miterlimit="10"
      stroke-width="3"
    />
    <line
      x1="911"
      y1="423"
      x2="911"
      y2="548"
      fill="none"
      stroke="#e18686"
      stroke-miterlimit="10"
      stroke-width="3"
    />
    <rect
      x="1005.5"
      y="421.5"
      width="47"
      height="126"
      fill="none"
      stroke="#e18686"
      stroke-miterlimit="10"
      stroke-width="3"
    />
    <rect
      x="1135.5"
      y="421.5"
      width="47"
      height="126"
      fill="none"
      stroke="#e18686"
      stroke-miterlimit="10"
      stroke-width="3"
    />
    <rect
      x="1012.5"
      y="433.5"
      width="33.5"
      height="27"
      fill="none"
      stroke="#e18686"
      stroke-miterlimit="10"
      stroke-width="2.98"
    />
    <rect
      x="1012.5"
      y="469.5"
      width="33.5"
      height="27"
      fill="none"
      stroke="#e18686"
      stroke-miterlimit="10"
      stroke-width="2.98"
    />
    <rect
      x="1012.5"
      y="505.5"
      width="33.5"
      height="27"
      fill="none"
      stroke="#e18686"
      stroke-miterlimit="10"
      stroke-width="2.98"
    />
    <rect
      x="1142.5"
      y="433.5"
      width="33.5"
      height="27"
      fill="none"
      stroke="#e18686"
      stroke-miterlimit="10"
      stroke-width="2.98"
    />
    <rect
      x="1142.5"
      y="469.5"
      width="33.5"
      height="27"
      fill="none"
      stroke="#e18686"
      stroke-miterlimit="10"
      stroke-width="2.98"
    />
    <rect
      x="1142.5"
      y="505.5"
      width="33.5"
      height="27"
      fill="none"
      stroke="#e18686"
      stroke-miterlimit="10"
      stroke-width="2.98"
    />
    <path d="m1836,197v132h-62v-132h62m3-3h-68v138h68v-138h0Z" fill="#e18686" />
    <line
      x1="1773"
      y1="258"
      x2="1838"
      y2="258"
      fill="none"
      stroke="#e18686"
      stroke-miterlimit="10"
      stroke-width="3"
    />
    <line
      x1="1773"
      y1="268.14"
      x2="1838"
      y2="268.14"
      fill="none"
      stroke="#e18686"
      stroke-miterlimit="10"
      stroke-width="3"
    />
    <line
      x1="1773"
      y1="278.29"
      x2="1838"
      y2="278.29"
      fill="none"
      stroke="#e18686"
      stroke-miterlimit="10"
      stroke-width="3"
    />
    <line
      x1="1773"
      y1="288.43"
      x2="1838"
      y2="288.43"
      fill="none"
      stroke="#e18686"
      stroke-miterlimit="10"
      stroke-width="3"
    />
    <line
      x1="1773"
      y1="298.57"
      x2="1838"
      y2="298.57"
      fill="none"
      stroke="#e18686"
      stroke-miterlimit="10"
      stroke-width="3"
    />
    <line
      x1="1773"
      y1="318.86"
      x2="1838"
      y2="318.86"
      fill="none"
      stroke="#e18686"
      stroke-miterlimit="10"
      stroke-width="3"
    />
    <line
      x1="1773"
      y1="308.71"
      x2="1838"
      y2="308.71"
      fill="none"
      stroke="#e18686"
      stroke-miterlimit="10"
      stroke-width="3"
    />
    <path
      d="m1478.01,635v107.08h-30.68v-107.08h30.68m3-3h-36.68v113.08h36.68v-113.08h0Z"
      fill="#e18686"
    />
    <line
      x1="1446.84"
      y1="684.49"
      x2="1479"
      y2="684.49"
      fill="none"
      stroke="#e18686"
      stroke-miterlimit="10"
      stroke-width="3"
    />
    <line
      x1="1446.84"
      y1="692.71"
      x2="1479"
      y2="692.71"
      fill="none"
      stroke="#e18686"
      stroke-miterlimit="10"
      stroke-width="3"
    />
    <line
      x1="1446.84"
      y1="700.94"
      x2="1479"
      y2="700.94"
      fill="none"
      stroke="#e18686"
      stroke-miterlimit="10"
      stroke-width="3"
    />
    <line
      x1="1446.84"
      y1="709.17"
      x2="1479"
      y2="709.17"
      fill="none"
      stroke="#e18686"
      stroke-miterlimit="10"
      stroke-width="3"
    />
    <line
      x1="1446.84"
      y1="717.4"
      x2="1479"
      y2="717.4"
      fill="none"
      stroke="#e18686"
      stroke-miterlimit="10"
      stroke-width="3"
    />
    <line
      x1="1446.84"
      y1="733.85"
      x2="1479"
      y2="733.85"
      fill="none"
      stroke="#e18686"
      stroke-miterlimit="10"
      stroke-width="3"
    />
    <line
      x1="1446.84"
      y1="725.63"
      x2="1479"
      y2="725.63"
      fill="none"
      stroke="#e18686"
      stroke-miterlimit="10"
      stroke-width="3"
    />
    <path
      d="m485.68,633.76v107.77h-30.68v-107.77h30.68m2.97-2.97h-36.61v113.71h36.61v-113.71h0Z"
      fill="#e18686"
    />
    <line
      x1="454.51"
      y1="683.57"
      x2="486.67"
      y2="683.57"
      fill="none"
      stroke="#e18686"
      stroke-miterlimit="10"
      stroke-width="2.97"
    />
    <line
      x1="454.51"
      y1="691.85"
      x2="486.67"
      y2="691.85"
      fill="none"
      stroke="#e18686"
      stroke-miterlimit="10"
      stroke-width="2.97"
    />
    <line
      x1="454.51"
      y1="700.13"
      x2="486.67"
      y2="700.13"
      fill="none"
      stroke="#e18686"
      stroke-miterlimit="10"
      stroke-width="2.97"
    />
    <line
      x1="454.51"
      y1="708.41"
      x2="486.67"
      y2="708.41"
      fill="none"
      stroke="#e18686"
      stroke-miterlimit="10"
      stroke-width="2.97"
    />
    <line
      x1="454.51"
      y1="716.69"
      x2="486.67"
      y2="716.69"
      fill="none"
      stroke="#e18686"
      stroke-miterlimit="10"
      stroke-width="2.97"
    />
    <line
      x1="454.51"
      y1="733.25"
      x2="486.67"
      y2="733.25"
      fill="none"
      stroke="#e18686"
      stroke-miterlimit="10"
      stroke-width="2.97"
    />
    <line
      x1="454.51"
      y1="724.97"
      x2="486.67"
      y2="724.97"
      fill="none"
      stroke="#e18686"
      stroke-miterlimit="10"
      stroke-width="2.97"
    />
    <line
      x1="134"
      y1="238.13"
      x2="79"
      y2="238.13"
      fill="none"
      stroke="#e18686"
      stroke-miterlimit="10"
      stroke-width="3"
    />
    <line
      x1="134"
      y1="248.63"
      x2="79"
      y2="248.63"
      fill="none"
      stroke="#e18686"
      stroke-miterlimit="10"
      stroke-width="3"
    />
    <line
      x1="134"
      y1="259.13"
      x2="79"
      y2="259.13"
      fill="none"
      stroke="#e18686"
      stroke-miterlimit="10"
      stroke-width="3"
    />
    <line
      x1="134"
      y1="269.63"
      x2="79"
      y2="269.63"
      fill="none"
      stroke="#e18686"
      stroke-miterlimit="10"
      stroke-width="3"
    />
    <line
      x1="134"
      y1="280.13"
      x2="79"
      y2="280.13"
      fill="none"
      stroke="#e18686"
      stroke-miterlimit="10"
      stroke-width="3"
    />
    <line
      x1="134"
      y1="290.63"
      x2="79"
      y2="290.63"
      fill="none"
      stroke="#e18686"
      stroke-miterlimit="10"
      stroke-width="3"
    />
    <line
      x1="134"
      y1="301.13"
      x2="79"
      y2="301.13"
      fill="none"
      stroke="#e18686"
      stroke-miterlimit="10"
      stroke-width="3"
    />
    <line
      x1="134"
      y1="311.63"
      x2="79"
      y2="311.63"
      fill="none"
      stroke="#e18686"
      stroke-miterlimit="10"
      stroke-width="3"
    />
    <rect
      x="1494.5"
      y="499.5"
      width="35"
      height="58"
      fill="none"
      stroke="#e18686"
      stroke-miterlimit="10"
      stroke-width="3"
    />
  </g>
  <g id="Layer_B124">
    <rect
      x="1480.77"
      y="633"
      width="27.73"
      height="128.5"
      transform="translate(2989.27 1394.5) rotate(180)"
      fill="#f8cdce"
      stroke="#e18686"
      stroke-miterlimit="10"
      stroke-width="3"
    />
    <text
      transform="translate(1481 699.33)"
      fill="#434142"
      font-family="NanumSquareNeovariable-Heavy, 'NanumSquare Neo variable'"
      font-size="10"
      font-variation-settings="'wght' 900"
      font-weight="800"
    >
      <tspan x="0" y="0">B1</tspan>
      <tspan x="12.75" y="0" letter-spacing="-.03em">2</tspan>
      <tspan x="19.44" y="0">4</tspan>
    </text>
  </g>
  <g id="Layer_B114">
    <rect
      x="1387.5"
      y="633"
      width="58.45"
      height="110.27"
      fill="#f8cdce"
      stroke="#e18686"
      stroke-miterlimit="10"
      stroke-width="3.02"
    />
    <text
      transform="translate(1391.45 695.06)"
      font-family="NanumSquareNeovariable-Heavy, 'NanumSquare Neo variable'"
      font-size="20.22"
      font-variation-settings="'wght' 900"
      font-weight="800"
    >
      <tspan x="0" y="0">B114</tspan>
    </text>
  </g>
  <g id="Layer_B107">
    <rect
      x="881.5"
      y="632"
      width="51"
      height="121.5"
      fill="#f8cdce"
      stroke="#e18686"
      stroke-miterlimit="10"
      stroke-width="2.97"
    />
    <text
      transform="translate(893.78 684.54)"
      font-family="NanumSquareNeovariable-Heavy, 'NanumSquare Neo variable'"
      font-size="14"
      font-variation-settings="'wght' 900"
      font-weight="800"
    >
      <tspan x="0" y="0">커피</tspan>
      <tspan x="-6.64" y="16.8">스퀘어</tspan>
    </text>
  </g>
  <g id="Layer_B101A">
    <rect
      x="731.5"
      y="353.5"
      width="166"
      height="69"
      fill="#f8cdce"
      stroke="#e18686"
      stroke-miterlimit="10"
      stroke-width="3"
    />
    <text
      transform="translate(778.17 383.11)"
      font-family="NanumSquareNeovariable-Heavy, 'NanumSquare Neo variable'"
      font-size="22"
      font-variation-settings="'wght' 900"
      font-weight="800"
    >
      <tspan x="0" y="0">B101A</tspan>
    </text>
    <text
      transform="translate(778.63 407.11)"
      font-family="NanumSquareNeovariable-Regular, 'NanumSquare Neo variable'"
      font-size="18"
      font-variation-settings="'wght' 300"
    >
      <tspan x="0" y="0" letter-spacing="-.02em">L</tspan>
      <tspan x="10.13" y="0" letter-spacing="0em">oc</tspan>
      <tspan x="32.54" y="0" letter-spacing="-.04em">k</tspan>
      <tspan x="41.8" y="0">er2</tspan>
    </text>
  </g>
  <g id="Layer_B101">
    <rect
      x="1008.5"
      y="351.5"
      width="176"
      height="70"
      fill="#f8cdce"
      stroke="#e18686"
      stroke-miterlimit="10"
      stroke-width="3"
    />
    <text
      transform="translate(1073.95 381.11)"
      font-family="NanumSquareNeovariable-Heavy, 'NanumSquare Neo variable'"
      font-size="22"
      font-variation-settings="'wght' 900"
      font-weight="800"
    >
      <tspan x="0" y="0">B101</tspan>
    </text>
    <text
      transform="translate(1067.56 405.11)"
      font-family="NanumSquareNeovariable-Regular, 'NanumSquare Neo variable'"
      font-size="18"
      font-variation-settings="'wght' 300"
    >
      <tspan x="0" y="0" letter-spacing="-.02em">L</tspan>
      <tspan x="10.13" y="0" letter-spacing="0em">oc</tspan>
      <tspan x="32.54" y="0" letter-spacing="-.04em">k</tspan>
      <tspan x="41.8" y="0">er1</tspan>
    </text>
  </g>
  <g id="Layer_B105A">
    <polygon
      points="732 422.5 732 526.5 706.5 526.5 706.5 591.5 732 591.5 803.5 591.5 803.5 422.5 732 422.5"
      fill="#f8cdce"
      stroke="#e18686"
      stroke-miterlimit="10"
      stroke-width="3"
    />
    <text
      transform="translate(717.85 553.54)"
      font-family="NanumSquareNeovariable-Heavy, 'NanumSquare Neo variable'"
      font-size="22"
      font-variation-settings="'wght' 900"
      font-weight="800"
    >
      <tspan x="0" y="0">B105A</tspan>
    </text>
    <text
      transform="translate(720.97 570.54)"
      font-family="NanumSquareNeovariable-Regular, 'NanumSquare Neo variable'"
      font-size="12"
      font-variation-settings="'wght' 300"
    >
      <tspan x="0" y="0">전기실 사무실</tspan>
    </text>
  </g>
  <g id="Layer_B111">
    <path
      d="m1386.88,743.27c-25.46-.09-50.92-.18-76.38-.27,5.98-36.67,11.96-73.34,17.93-110h58.45v110.27Z"
      fill="#f8cdce"
      stroke="#e18686"
      stroke-miterlimit="10"
      stroke-width="3.02"
    />
    <text
      transform="translate(1334.42 679.32)"
      font-family="NanumSquareNeovariable-Heavy, 'NanumSquare Neo variable'"
      font-size="20.22"
      font-variation-settings="'wght' 900"
      font-weight="800"
    >
      <tspan x="0" y="0">B111</tspan>
    </text>
    <text
      transform="translate(1321.62 701.54)"
      font-family="NanumSquareNeovariable-Regular, 'NanumSquare Neo variable'"
      font-size="14"
      font-variation-settings="'wght' 300"
    >
      <tspan x="0" y="0">수면실(여)</tspan>
    </text>
  </g>
  <g id="Layer_B109">
    <rect
      x="1005.05"
      y="633"
      width="66.45"
      height="132.47"
      fill="#f8cdce"
      stroke="#e18686"
      stroke-miterlimit="10"
      stroke-width="3"
    />
    <text
      transform="translate(1007.68 687.25)"
      font-family="NanumSquareNeovariable-Heavy, 'NanumSquare Neo variable'"
      font-size="22"
      font-variation-settings="'wght' 900"
      font-weight="800"
    >
      <tspan x="0" y="0">B109</tspan>
    </text>
    <text
      transform="translate(1005.92 712.25)"
      font-family="NanumSquareNeovariable-Regular, 'NanumSquare Neo variable'"
      font-size="14"
      font-variation-settings="'wght' 300"
    >
      <tspan x="0" y="0">수면실(남)</tspan>
    </text>
  </g>
  <g id="Layer_B110A">
    <rect
      x="1071.41"
      y="679.5"
      width="142.59"
      height="86.37"
      fill="#f8cdce"
      stroke="#e18686"
      stroke-miterlimit="10"
      stroke-width="3"
    />
    <text
      transform="translate(1105.64 730.4)"
      font-family="NanumSquareNeovariable-Heavy, 'NanumSquare Neo variable'"
      font-size="22"
      font-variation-settings="'wght' 900"
      font-weight="800"
    >
      <tspan x="0" y="0">B110A</tspan>
    </text>
  </g>
  <g id="Layer_B115">
    <rect
      x="1508.5"
      y="657.5"
      width="332"
      height="159"
      fill="#f8cdce"
      stroke="#e18686"
      stroke-miterlimit="10"
      stroke-width="3"
    />
    <text
      transform="translate(1604.44 749.75)"
      font-family="NanumSquareNeovariable-Regular, 'NanumSquare Neo variable'"
      font-size="16"
      font-variation-settings="'wght' 300"
    >
      <tspan x="0" y="0">연속간행물 밀집서고</tspan>
    </text>
    <text
      transform="translate(1647.28 725.75)"
      font-family="NanumSquareNeovariable-Heavy, 'NanumSquare Neo variable'"
      font-size="22"
      font-variation-settings="'wght' 900"
      font-weight="800"
    >
      <tspan x="0" y="0">B115</tspan>
    </text>
  </g>
  <g id="Layer_B123">
    <rect
      x="419"
      y="632"
      width="34.5"
      height="111.21"
      fill="#f8cdce"
      stroke="#e18686"
      stroke-miterlimit="10"
      stroke-width="2.97"
    />
    <text
      transform="translate(419.03 689.04)"
      font-family="NanumSquareNeovariable-Heavy, 'NanumSquare Neo variable'"
      font-size="13"
      font-variation-settings="'wght' 900"
      font-weight="800"
    >
      <tspan x="0" y="0">B123</tspan>
    </text>
  </g>
  <g id="Layer_B105D">
    <rect
      x="487"
      y="632"
      width="57.5"
      height="111.21"
      fill="#f8cdce"
      stroke="#e18686"
      stroke-miterlimit="10"
      stroke-width="2.97"
    />
    <text
      transform="translate(492.62 690.94)"
      font-family="NanumSquareNeovariable-Heavy, 'NanumSquare Neo variable'"
      font-size="13"
      font-variation-settings="'wght' 900"
      font-weight="800"
    >
      <tspan x="0" y="0">B105D</tspan>
    </text>
  </g>
  <g id="Layer_B105">
    <rect
      x="544.5"
      y="632"
      width="337"
      height="111.21"
      transform="translate(1426 1375.21) rotate(180)"
      fill="#f8cdce"
      stroke="#e18686"
      stroke-miterlimit="10"
      stroke-width="2.97"
    />
    <text
      transform="translate(689.23 681.95)"
      font-family="NanumSquareNeovariable-Heavy, 'NanumSquare Neo variable'"
      font-size="22"
      font-variation-settings="'wght' 900"
      font-weight="800"
    >
      <tspan x="0" y="0">B105</tspan>
    </text>
    <text
      transform="translate(702.09 699.95)"
      font-family="NanumSquareNeovariable-Regular, 'NanumSquare Neo variable'"
      font-size="12"
      font-variation-settings="'wght' 300"
    >
      <tspan x="0" y="0">전기실</tspan>
    </text>
  </g>
  <g id="Layer_B106">
    <text
      transform="translate(224.24 541.72)"
      font-family="NanumSquareNeovariable-Heavy, 'NanumSquare Neo variable'"
      font-size="22"
      font-variation-settings="'wght' 900"
      font-weight="800"
    >
      <tspan x="0" y="0">B106</tspan>
    </text>
    <polygon
      points="370.5 311.5 370.5 368.5 298.5 368.5 298.5 311.5 76.5 311.5 76.5 817.5 417.5 817.5 417.5 311.5 370.5 311.5"
      fill="#f8cdce"
      stroke="#e18686"
      stroke-miterlimit="10"
      stroke-width="3.28"
    />
    <text
      transform="translate(222.11 569.72)"
      font-family="NanumSquareNeovariable-Regular, 'NanumSquare Neo variable'"
      font-size="22"
      font-variation-settings="'wght' 300"
    >
      <tspan x="0" y="0">기계실</tspan>
    </text>
    <text
      transform="translate(223.24 539.72)"
      font-family="NanumSquareNeovariable-Heavy, 'NanumSquare Neo variable'"
      font-size="22"
      font-variation-settings="'wght' 900"
      font-weight="800"
    >
      <tspan x="0" y="0">B106</tspan>
    </text>
  </g>
  <g id="Layer_Delte">
    <path
      d="m1310.5,743c5.98-36.67,11.96-73.34,17.93-110h-256.93v46.5h142.5v64h141.5v-.34c-15-.05-30-.1-45-.16Z"
      fill="#f8cdce"
      stroke="#e18686"
      stroke-miterlimit="10"
      stroke-width="3.46"
    />
    <text
      transform="translate(1129.41 661.8)"
      font-family="NanumSquareNeovariable-Heavy, 'NanumSquare Neo variable'"
      font-size="22"
      font-variation-settings="'wght' 900"
      font-weight="800"
    >
      <tspan x="0" y="0">Del</tspan>
      <tspan x="38.3" y="0" letter-spacing="0em">t</tspan>
      <tspan x="48.05" y="0" letter-spacing="0em">e</tspan>
      <tspan x="67.91" y="0" letter-spacing="-.02em">L</tspan>
      <tspan x="80.85" y="0">ounge</tspan>
    </text>
  </g>
  <g id="Layer_toilet3">
    <rect
      x="162.5"
      y="196.5"
      width="26.5"
      height="43.5"
      transform="translate(351.5 436.5) rotate(180)"
      fill="none"
      stroke="#e18686"
      stroke-miterlimit="10"
      stroke-width="3"
    />
  </g>
  <g id="Layer_B106F">
    <rect
      x="133.5"
      y="196.5"
      width="29"
      height="43.5"
      fill="#f8cdce"
      stroke="#e18686"
      stroke-miterlimit="10"
      stroke-width="3"
    />
    <text
      transform="translate(128.97 214.19)"
      font-family="NanumSquareNeovariable-Heavy, 'NanumSquare Neo variable'"
      font-size="12"
      font-variation-settings="'wght' 900"
      font-weight="800"
    >
      <tspan x="0" y="0">B106F</tspan>
    </text>
    <text
      transform="translate(132.1 229.19)"
      font-family="NanumSquareNeovariable-Heavy, 'NanumSquare Neo variable'"
      font-size="12"
      font-variation-settings="'wght' 900"
      font-weight="800"
    >
      <tspan x="0" y="0">샤워실</tspan>
    </text>
  </g>
  <g id="Layer_B106A">
    <rect
      x="188.59"
      y="196.86"
      width="109.91"
      height="114.14"
      fill="#f8cdce"
      stroke="#e18686"
      stroke-miterlimit="10"
      stroke-width="3"
    />
    <text
      transform="translate(204.31 259.63)"
      font-family="NanumSquareNeovariable-Heavy, 'NanumSquare Neo variable'"
      font-size="22"
      font-variation-settings="'wght' 900"
      font-weight="800"
    >
      <tspan x="0" y="0">B106A</tspan>
    </text>
  </g>
  <g id="Layer_B106B">
    <rect
      x="298.5"
      y="196.86"
      width="55"
      height="62.64"
      transform="translate(652 456.36) rotate(180)"
      fill="#f8cdce"
      stroke="#e18686"
      stroke-miterlimit="10"
      stroke-width="3"
    />
    <text
      transform="translate(297.79 232.96)"
      font-family="NanumSquareNeovariable-Heavy, 'NanumSquare Neo variable'"
      font-size="16"
      font-variation-settings="'wght' 900"
      font-weight="800"
    >
      <tspan x="0" y="0">B106B</tspan>
    </text>
  </g>
  <g id="Layer_B106D">
    <rect
      x="353.5"
      y="196.86"
      width="63"
      height="114.64"
      transform="translate(770 508.36) rotate(180)"
      fill="#f8cdce"
      stroke="#e18686"
      stroke-miterlimit="10"
      stroke-width="4.34"
    />
    <text
      transform="translate(356.55 255.96)"
      font-family="NanumSquareNeovariable-Heavy, 'NanumSquare Neo variable'"
      font-size="16"
      font-variation-settings="'wght' 900"
      font-weight="800"
    >
      <tspan x="0" y="0">B106D</tspan>
    </text>
  </g>
  <g id="Layer_B106C">
    <rect
      x="298.5"
      y="259.5"
      width="55"
      height="52"
      transform="translate(652 571) rotate(180)"
      fill="#f8cdce"
      stroke="#e18686"
      stroke-miterlimit="10"
      stroke-width="3"
    />
    <text
      transform="translate(297.59 288.96)"
      font-family="NanumSquareNeovariable-Heavy, 'NanumSquare Neo variable'"
      font-size="16"
      font-variation-settings="'wght' 900"
      font-weight="800"
    >
      <tspan x="0" y="0">B106C</tspan>
    </text>
  </g>
  <g id="Layer_휴게공간">
    <rect
      x="298.5"
      y="311.5"
      width="72"
      height="57"
      fill="#f8cdce"
      stroke="#e18686"
      stroke-miterlimit="10"
      stroke-width="3.28"
    />
    <text
      transform="translate(304.32 345.19)"
      font-family="NanumSquareNeovariable-Heavy, 'NanumSquare Neo variable'"
      font-size="16"
      font-variation-settings="'wght' 900"
      font-weight="800"
    >
      <tspan x="0" y="0">휴게공간</tspan>
    </text>
  </g>
  <g id="Layer_B105C">
    <rect
      x="417.5"
      y="471.5"
      width="107"
      height="124"
      fill="#f8cdce"
      stroke="#e18686"
      stroke-miterlimit="10"
      stroke-width="3"
    />
    <text
      transform="translate(434.5 543.54)"
      font-family="NanumSquareNeovariable-Heavy, 'NanumSquare Neo variable'"
      font-size="22"
      font-variation-settings="'wght' 900"
      font-weight="800"
    >
      <tspan x="0" y="0">B105C</tspan>
    </text>
  </g>
  <g id="Layer_B119">
    <rect
      x="1324.5"
      y="472.5"
      width="170"
      height="126.5"
      fill="#f8cdce"
      stroke="#e18686"
      stroke-miterlimit="10"
      stroke-width="3"
    />
    <text
      transform="translate(1383.71 542.15)"
      font-family="NanumSquareNeovariable-Heavy, 'NanumSquare Neo variable'"
      font-size="22"
      font-variation-settings="'wght' 900"
      font-weight="800"
    >
      <tspan x="0" y="0">B119</tspan>
    </text>
  </g>
  <g id="Layer_B120">
    <rect
      x="1182.5"
      y="472.5"
      width="142"
      height="126.5"
      fill="#f8cdce"
      stroke="#e18686"
      stroke-miterlimit="10"
      stroke-width="3"
    />
    <text
      transform="translate(1223.4 542.15)"
      font-family="NanumSquareNeovariable-Heavy, 'NanumSquare Neo variable'"
      font-size="22"
      font-variation-settings="'wght' 900"
      font-weight="800"
    >
      <tspan x="0" y="0">B120</tspan>
    </text>
  </g>
  <g id="Layer_B121">
    <rect
      x="1135.5"
      y="547.5"
      width="47"
      height="51.5"
      transform="translate(2318 1146.5) rotate(180)"
      fill="#f8cdce"
      stroke="#e18686"
      stroke-miterlimit="10"
      stroke-width="3"
    />
    <text
      transform="translate(1131.64 580.09)"
      font-family="NanumSquareNeovariable-Heavy, 'NanumSquare Neo variable'"
      font-size="22"
      font-variation-settings="'wght' 900"
      font-weight="800"
    >
      <tspan x="0" y="0">B121</tspan>
    </text>
  </g>
  <g id="Layer_B116C">
    <rect
      x="1648.5"
      y="578.5"
      width="40.5"
      height="79"
      fill="#f8cdce"
      stroke="#e18686"
      stroke-miterlimit="10"
      stroke-width="3"
    />
    <text
      transform="translate(1631.93 618.65)"
      font-family="NanumSquareNeovariable-Heavy, 'NanumSquare Neo variable'"
      font-size="22"
      font-variation-settings="'wght' 900"
      font-weight="800"
    >
      <tspan x="0" y="0">B116C</tspan>
    </text>
  </g>
  <g id="Layer_B116A">
    <rect
      x="1724.5"
      y="544.5"
      width="116"
      height="113"
      transform="translate(3565 1202) rotate(180)"
      fill="#f8cdce"
      stroke="#e18686"
      stroke-miterlimit="10"
      stroke-width="3.14"
    />
    <text
      transform="translate(1747.79 598.65)"
      font-family="NanumSquareNeovariable-Heavy, 'NanumSquare Neo variable'"
      font-size="22"
      font-variation-settings="'wght' 900"
      font-weight="800"
    >
      <tspan x="0" y="0">B116A</tspan>
    </text>
    <text
      transform="translate(1762.84 617.14)"
      font-family="NanumSquareNeovariable-Regular, 'NanumSquare Neo variable'"
      font-size="16"
      font-variation-settings="'wght' 300"
    >
      <tspan x="0" y="0">리빙랩</tspan>
    </text>
  </g>
  <g id="Layer_B116B">
    <rect
      x="1678.5"
      y="432.5"
      width="162"
      height="112"
      transform="translate(3519 977) rotate(180)"
      fill="#f8cdce"
      stroke="#e18686"
      stroke-miterlimit="10"
      stroke-width="3"
    />
    <text
      transform="translate(1722.48 493.88)"
      font-family="NanumSquareNeovariable-Heavy, 'NanumSquare Neo variable'"
      font-size="22"
      font-variation-settings="'wght' 900"
      font-weight="800"
    >
      <tspan x="0" y="0">B116B</tspan>
    </text>
  </g>
  <g id="Layer_B118">
    <rect
      x="1678.5"
      y="331.5"
      width="162"
      height="101"
      transform="translate(3519 764) rotate(180)"
      fill="#f8cdce"
      stroke="#e18686"
      stroke-miterlimit="10"
      stroke-width="3"
    />
    <text
      transform="translate(1731.8 388.32)"
      font-family="NanumSquareNeovariable-Heavy, 'NanumSquare Neo variable'"
      font-size="22"
      font-variation-settings="'wght' 900"
      font-weight="800"
    >
      <tspan x="0" y="0">B118</tspan>
    </text>
  </g>
  <g id="Layer_B117">
    <text
      transform="translate(1607.2 252.85)"
      font-family="NanumSquareNeovariable-Heavy, 'NanumSquare Neo variable'"
      font-size="22"
      font-variation-settings="'wght' 900"
      font-weight="800"
    >
      <tspan x="0" y="0">B117</tspan>
    </text>
    <polygon
      points="1494.5 192.5 1494.5 331.5 1494.5 499.5 1529.5 499.5 1529.5 557.5 1494.5 557.5 1494.5 611 1618 611 1618 331.5 1773 331.5 1773 192.5 1494.5 192.5"
      fill="#f8cdce"
      stroke="#e18686"
      stroke-miterlimit="10"
      stroke-width="3"
    />
    <text
      transform="translate(1578.79 274.85)"
      font-family="NanumSquareNeovariable-Regular, 'NanumSquare Neo variable'"
      font-size="16"
      font-variation-settings="'wght' 300"
    >
      <tspan x="0" y="0">단행본 밀집서고</tspan>
    </text>
  </g>
  <g id="Layer_toilet1">
    <rect
      x="803.5"
      y="422.5"
      width="54.71"
      height="121"
      fill="none"
      stroke="#e18686"
      stroke-miterlimit="10"
      stroke-width="3"
    />
  </g>
  <g id="Layer_toilet2">
    <rect
      x="858.21"
      y="422.5"
      width="52.79"
      height="121"
      transform="translate(1769.21 966) rotate(180)"
      fill="none"
      stroke="#e18686"
      stroke-miterlimit="10"
      stroke-width="3"
    />
  </g>
</svg>
