<?xml version="1.0" encoding="UTF-8"?><svg xmlns="http://www.w3.org/2000/svg" viewBox="0 0 1920 1080"><g id="Layer_border"><polygon points="398 941 398 237 1247 237 1247 82 1515 82 1515 941 398 941" fill="#fdf3f2"/><path d="m1510,87v849H403V242h849V87h258m10-10h-278v155H393v714h1127V77h0Z" fill="#e18686"/><polyline points="710.5 944.5 710.5 989.27 1316.9 989.27 1316.9 944.5" fill="none" stroke="#e18686" stroke-miterlimit="10" stroke-width="9.34"/></g><g id="Layer_others"><rect x="861.5" y="811.5" width="55" height="60" fill="none" stroke="#e18686" stroke-miterlimit="10" stroke-width="3"/><rect x="916.5" y="811.5" width="53" height="60" transform="translate(1886 1683) rotate(180)" fill="none" stroke="#e18686" stroke-miterlimit="10" stroke-width="3"/><rect x="969.5" y="803.5" width="65" height="68" fill="none" stroke="#e18686" stroke-miterlimit="10" stroke-width="3"/><rect x="916.5" y="871.5" width="118" height="66" fill="none" stroke="#e18686" stroke-miterlimit="10" stroke-width="3"/><rect x="1239.5" y="502.5" width="179" height="58" fill="none" stroke="#e18686" stroke-miterlimit="10" stroke-width="3"/><line x1="928.5" y1="872.5" x2="928.5" y2="937.5" fill="none" stroke="#e18686" stroke-miterlimit="10" stroke-width="3"/><line x1="940.5" y1="872.5" x2="940.5" y2="937.5" fill="none" stroke="#e18686" stroke-miterlimit="10" stroke-width="3"/><line x1="952.5" y1="872.5" x2="952.5" y2="937.5" fill="none" stroke="#e18686" stroke-miterlimit="10" stroke-width="3"/><line x1="964.5" y1="872.5" x2="964.5" y2="937.5" fill="none" stroke="#e18686" stroke-miterlimit="10" stroke-width="3"/><line x1="976.5" y1="872.5" x2="976.5" y2="937.5" fill="none" stroke="#e18686" stroke-miterlimit="10" stroke-width="3"/><line x1="988.5" y1="872.5" x2="988.5" y2="937.5" fill="none" stroke="#e18686" stroke-miterlimit="10" stroke-width="3"/><line x1="1252.5" y1="502.5" x2="1252.5" y2="560.5" fill="none" stroke="#e18686" stroke-miterlimit="10" stroke-width="3"/><line x1="1264.35" y1="502.5" x2="1264.35" y2="560.5" fill="none" stroke="#e18686" stroke-miterlimit="10" stroke-width="3"/><line x1="1276.19" y1="502.5" x2="1276.19" y2="560.5" fill="none" stroke="#e18686" stroke-miterlimit="10" stroke-width="3"/><line x1="1288.04" y1="502.5" x2="1288.04" y2="560.5" fill="none" stroke="#e18686" stroke-miterlimit="10" stroke-width="3"/><line x1="1299.88" y1="502.5" x2="1299.88" y2="560.5" fill="none" stroke="#e18686" stroke-miterlimit="10" stroke-width="3"/><line x1="1311.73" y1="502.5" x2="1311.73" y2="560.5" fill="none" stroke="#e18686" stroke-miterlimit="10" stroke-width="3"/><line x1="1323.58" y1="502.5" x2="1323.58" y2="560.5" fill="none" stroke="#e18686" stroke-miterlimit="10" stroke-width="3"/><line x1="1335.42" y1="502.5" x2="1335.42" y2="560.5" fill="none" stroke="#e18686" stroke-miterlimit="10" stroke-width="3"/><line x1="1347.27" y1="502.5" x2="1347.27" y2="560.5" fill="none" stroke="#e18686" stroke-miterlimit="10" stroke-width="3"/><line x1="1359.12" y1="502.5" x2="1359.12" y2="560.5" fill="none" stroke="#e18686" stroke-miterlimit="10" stroke-width="3"/><line x1="1370.96" y1="502.5" x2="1370.96" y2="560.5" fill="none" stroke="#e18686" stroke-miterlimit="10" stroke-width="3"/><line x1="1382.81" y1="502.5" x2="1382.81" y2="560.5" fill="none" stroke="#e18686" stroke-miterlimit="10" stroke-width="3"/><line x1="1394.65" y1="502.5" x2="1394.65" y2="560.5" fill="none" stroke="#e18686" stroke-miterlimit="10" stroke-width="3"/><line x1="1406.5" y1="502.5" x2="1406.5" y2="560.5" fill="none" stroke="#e18686" stroke-miterlimit="10" stroke-width="3"/><line x1="923.5" y1="256.5" x2="976.5" y2="256.5" fill="none" stroke="#e18686" stroke-miterlimit="10" stroke-width="3"/><line x1="923.5" y1="268.37" x2="976.5" y2="268.37" fill="none" stroke="#e18686" stroke-miterlimit="10" stroke-width="3"/><line x1="923.5" y1="280.25" x2="976.5" y2="280.25" fill="none" stroke="#e18686" stroke-miterlimit="10" stroke-width="3"/><line x1="923.5" y1="292.12" x2="976.5" y2="292.12" fill="none" stroke="#e18686" stroke-miterlimit="10" stroke-width="3"/><line x1="923.5" y1="304" x2="976.5" y2="304" fill="none" stroke="#e18686" stroke-miterlimit="10" stroke-width="3"/><line x1="923.5" y1="315.87" x2="976.5" y2="315.87" fill="none" stroke="#e18686" stroke-miterlimit="10" stroke-width="3"/><line x1="923.5" y1="327.75" x2="976.5" y2="327.75" fill="none" stroke="#e18686" stroke-miterlimit="10" stroke-width="3"/><line x1="923.5" y1="339.62" x2="976.5" y2="339.62" fill="none" stroke="#e18686" stroke-miterlimit="10" stroke-width="3"/><line x1="923.5" y1="351.5" x2="976.5" y2="351.5" fill="none" stroke="#e18686" stroke-miterlimit="10" stroke-width="3"/></g><g id="Layer_B308"><polygon points="398.61 241.69 398.61 446.5 702.5 446.5 702.5 462.5 752.5 462.5 752.5 446.5 752.5 431.5 752.5 241.69 398.61 241.69" fill="#f8cdce" stroke="#e18686" stroke-miterlimit="10" stroke-width="3"/><text transform="translate(543.18 347.59)" fill="#434142" font-family="NanumSquareNeovariable-Heavy, &apos;NanumSquare Neo variable&apos;" font-size="22" font-variation-settings="&apos;wght&apos; 900" font-weight="800"><tspan x="0" y="0">B308</tspan></text></g><g id="Layer_B307"><rect x="398.26" y="446.5" width="265" height="280" fill="#f8cdce" stroke="#e18686" stroke-miterlimit="10" stroke-width="3"/><text transform="translate(499.3 592.95)" fill="#434142" font-family="NanumSquareNeovariable-Heavy, &apos;NanumSquare Neo variable&apos;" font-size="22" font-variation-settings="&apos;wght&apos; 900" font-weight="800"><tspan x="0" y="0">B307</tspan></text></g><g id="Layer_B306"><rect x="398.26" y="726.5" width="356.24" height="213" fill="#f8cdce" stroke="#e18686" stroke-miterlimit="10" stroke-width="3"/><text transform="translate(544.42 840.7)" fill="#434142" font-family="NanumSquareNeovariable-Heavy, &apos;NanumSquare Neo variable&apos;" font-size="22" font-variation-settings="&apos;wght&apos; 900" font-weight="800"><tspan x="0" y="0">B306</tspan></text></g><g id="Layer_B305"><rect x="754.5" y="811.5" width="107" height="128" transform="translate(1616 1751) rotate(180)" fill="#f8cdce" stroke="#e18686" stroke-miterlimit="10" stroke-width="3"/><text transform="translate(776.28 869.93)" fill="#434142" font-family="NanumSquareNeovariable-Heavy, &apos;NanumSquare Neo variable&apos;" font-size="22" font-variation-settings="&apos;wght&apos; 900" font-weight="800"><tspan x="0" y="0">B305</tspan></text><text transform="translate(782.89 895.93)" fill="#434142" font-family="NanumSquareNeovariable-Bold, &apos;NanumSquare Neo variable&apos;" font-size="18" font-variation-settings="&apos;wght&apos; 500" font-weight="700"><tspan x="0" y="0">락커룸</tspan></text></g><g id="Layer_B301"><rect x="1177.16" y="724.5" width="333.92" height="213" fill="#f8cdce" stroke="#e18686" stroke-miterlimit="10" stroke-width="3"/><text transform="translate(1313.95 838.7)" fill="#434142" font-family="NanumSquareNeovariable-Heavy, &apos;NanumSquare Neo variable&apos;" font-size="22" font-variation-settings="&apos;wght&apos; 900" font-weight="800"><tspan x="0" y="0">B301</tspan></text></g><g id="Layer_B302"><rect x="1069.5" y="724.5" width="107.66" height="71" transform="translate(2246.66 1520) rotate(180)" fill="#f8cdce" stroke="#e18686" stroke-miterlimit="10" stroke-width="3"/><text transform="translate(1090.68 767)" fill="#434142" font-family="NanumSquareNeovariable-Heavy, &apos;NanumSquare Neo variable&apos;" font-size="22" font-variation-settings="&apos;wght&apos; 900" font-weight="800"><tspan x="0" y="0">B302</tspan></text></g><g id="Layer_B303"><rect x="1069.5" y="794.5" width="107.66" height="71" transform="translate(2246.66 1660) rotate(180)" fill="#f8cdce" stroke="#e18686" stroke-miterlimit="10" stroke-width="3"/><text transform="translate(1090.43 837)" fill="#434142" font-family="NanumSquareNeovariable-Heavy, &apos;NanumSquare Neo variable&apos;" font-size="22" font-variation-settings="&apos;wght&apos; 900" font-weight="800"><tspan x="0" y="0">B303</tspan></text></g><g id="Layer_B304"><rect x="1069.5" y="864.5" width="107.66" height="73" transform="translate(2246.66 1802) rotate(180)" fill="#f8cdce" stroke="#e18686" stroke-miterlimit="10" stroke-width="3"/><text transform="translate(1090.49 907)" fill="#434142" font-family="NanumSquareNeovariable-Heavy, &apos;NanumSquare Neo variable&apos;" font-size="22" font-variation-settings="&apos;wght&apos; 900" font-weight="800"><tspan x="0" y="0">B304</tspan></text></g><g id="Layer_B310"><rect x="1041.45" y="242" width="71.05" height="66.56" transform="translate(2153.95 550.56) rotate(180)" fill="#f8cdce" stroke="#e18686" stroke-miterlimit="10" stroke-width="3"/><text transform="translate(1046.77 282.06)" fill="#434142" font-family="NanumSquareNeovariable-Heavy, &apos;NanumSquare Neo variable&apos;" font-size="22" font-variation-settings="&apos;wght&apos; 900" font-weight="800"><tspan x="0" y="0">B</tspan><tspan x="16.74" y="0" letter-spacing="-.01em">3</tspan><tspan x="32.41" y="0">10</tspan></text></g><g id="Layer_B309"><rect x="1041.45" y="308" width="71.05" height="66.56" transform="translate(2153.95 682.56) rotate(180)" fill="#f8cdce" stroke="#e18686" stroke-miterlimit="10" stroke-width="3"/><text transform="translate(1044.39 348.06)" fill="#434142" font-family="NanumSquareNeovariable-Heavy, &apos;NanumSquare Neo variable&apos;" font-size="22" font-variation-settings="&apos;wght&apos; 900" font-weight="800"><tspan x="0" y="0">B309</tspan></text></g><g id="Layer_B311"><rect x="1134.38" y="242" width="83.05" height="66.56" transform="translate(2351.81 550.56) rotate(180)" fill="#f8cdce" stroke="#e18686" stroke-miterlimit="10" stroke-width="3"/><text transform="translate(1148.4 282.06)" fill="#434142" font-family="NanumSquareNeovariable-Heavy, &apos;NanumSquare Neo variable&apos;" font-size="22" font-variation-settings="&apos;wght&apos; 900" font-weight="800"><tspan x="0" y="0">B</tspan><tspan x="16.74" y="0" letter-spacing="0em">3</tspan><tspan x="32.41" y="0">11</tspan></text></g><g id="Layer_B312"><rect x="1134.38" y="308" width="83.05" height="66.56" transform="translate(2351.81 682.56) rotate(180)" fill="#f8cdce" stroke="#e18686" stroke-miterlimit="10" stroke-width="3"/><text transform="translate(1146.36 348.06)" fill="#434142" font-family="NanumSquareNeovariable-Heavy, &apos;NanumSquare Neo variable&apos;" font-size="22" font-variation-settings="&apos;wght&apos; 900" font-weight="800"><tspan x="0" y="0">B</tspan><tspan x="16.74" y="0" letter-spacing="0em">3</tspan><tspan x="32.41" y="0">12</tspan></text></g><g id="Layer_B313"><rect x="1217.38" y="308" width="69.12" height="66.56" transform="translate(2503.88 682.56) rotate(180)" fill="#f8cdce" stroke="#e18686" stroke-miterlimit="10" stroke-width="3"/><text transform="translate(1223.11 348.06)" fill="#434142" font-family="NanumSquareNeovariable-Heavy, &apos;NanumSquare Neo variable&apos;" font-size="22" font-variation-settings="&apos;wght&apos; 900" font-weight="800"><tspan x="0" y="0">B</tspan><tspan x="16.74" y="0" letter-spacing="-.01em">3</tspan><tspan x="32.41" y="0">13</tspan></text></g><g id="Layer_B314"><rect x="1217.38" y="242" width="69.12" height="66.56" transform="translate(2503.88 550.56) rotate(180)" fill="#f8cdce" stroke="#e18686" stroke-miterlimit="10" stroke-width="3"/><text transform="translate(1223.17 282.06)" fill="#434142" font-family="NanumSquareNeovariable-Heavy, &apos;NanumSquare Neo variable&apos;" font-size="22" font-variation-settings="&apos;wght&apos; 900" font-weight="800"><tspan x="0" y="0">B</tspan><tspan x="16.74" y="0" letter-spacing="-.01em">3</tspan><tspan x="32.41" y="0">14</tspan></text></g><g id="Layer_B317"><rect x="1319.07" y="86.71" width="96.43" height="158.29" transform="translate(2734.57 331.71) rotate(180)" fill="#f8cdce" stroke="#e18686" stroke-miterlimit="10" stroke-width="3"/><text transform="translate(1338.8 170.77)" fill="#434142" font-family="NanumSquareNeovariable-Heavy, &apos;NanumSquare Neo variable&apos;" font-size="22" font-variation-settings="&apos;wght&apos; 900" font-weight="800"><tspan x="0" y="0">B</tspan><tspan x="16.74" y="0" letter-spacing="0em">3</tspan><tspan x="32.41" y="0">17</tspan></text></g><g id="Layer_B318"><rect x="1415.07" y="86.71" width="96.43" height="158.29" transform="translate(2926.57 331.71) rotate(180)" fill="#f8cdce" stroke="#e18686" stroke-miterlimit="10" stroke-width="3"/><text transform="translate(1433.6 170.77)" fill="#434142" font-family="NanumSquareNeovariable-Heavy, &apos;NanumSquare Neo variable&apos;" font-size="22" font-variation-settings="&apos;wght&apos; 900" font-weight="800"><tspan x="0" y="0">B</tspan><tspan x="16.74" y="0" letter-spacing="-.01em">3</tspan><tspan x="32.41" y="0">18</tspan></text></g><g id="Layer_B319"><polygon points="1510.63 245.42 1425 245.42 1425 292 1425 298.5 1425 305 1482 305 1482 298.5 1510.63 298.5 1510.63 245.42" fill="#f8cdce" stroke="#e18686" stroke-miterlimit="10" stroke-width="3"/><text transform="translate(1438.44 279.49)" fill="#434142" font-family="NanumSquareNeovariable-Heavy, &apos;NanumSquare Neo variable&apos;" font-size="22" font-variation-settings="&apos;wght&apos; 900" font-weight="800"><tspan x="0" y="0">B</tspan><tspan x="16.74" y="0" letter-spacing="-.01em">3</tspan><tspan x="32.41" y="0">19</tspan></text></g><g id="Layer_B320"><path d="m1424.83,305.11h57.67v27.55c11,12.94,22,25.89,33,38.83-11-.17-22-.33-33-.5h-57.67v-65.89Z" fill="#f8cdce" stroke="#e18686" stroke-miterlimit="10" stroke-width="3"/><text transform="translate(1434.07 358.17)" fill="#434142" font-family="NanumSquareNeovariable-Heavy, &apos;NanumSquare Neo variable&apos;" font-size="20" font-variation-settings="&apos;wght&apos; 900" font-weight="800"><tspan x="0" y="0">B320</tspan></text></g><g id="Layer_B316"><rect x="1319.07" y="245.71" width="66.43" height="59.29" transform="translate(2704.57 550.71) rotate(180)" fill="#f8cdce" stroke="#e18686" stroke-miterlimit="10" stroke-width="3"/><text transform="translate(1322.85 281.75)" fill="#434142" font-family="NanumSquareNeovariable-Heavy, &apos;NanumSquare Neo variable&apos;" font-size="22" font-variation-settings="&apos;wght&apos; 900" font-weight="800"><tspan x="0" y="0">B</tspan><tspan x="16.74" y="0" letter-spacing="-.01em">3</tspan><tspan x="32.41" y="0">16</tspan></text></g><g id="Layer_B315"><rect x="1319.07" y="305.71" width="66.43" height="65.79" transform="translate(2704.57 677.21) rotate(180)" fill="#f8cdce" stroke="#e18686" stroke-miterlimit="10" stroke-width="3"/><text transform="translate(1323.09 341.75)" fill="#434142" font-family="NanumSquareNeovariable-Heavy, &apos;NanumSquare Neo variable&apos;" font-size="22" font-variation-settings="&apos;wght&apos; 900" font-weight="800"><tspan x="0" y="0">B</tspan><tspan x="16.74" y="0" letter-spacing="0em">3</tspan><tspan x="32.41" y="0">15</tspan></text></g><g id="Layer_라운지"><rect x="801.5" y="482.5" width="139" height="184" fill="none" stroke="#e18686" stroke-miterlimit="10" stroke-width="3"/><rect x="866.5" y="350.5" width="57" height="57" fill="none" stroke="#e18686" stroke-miterlimit="10" stroke-width="3"/><rect x="923.5" y="241.5" width="53" height="166" fill="none" stroke="#e18686" stroke-miterlimit="10" stroke-width="3"/><text transform="translate(804.27 574.56)" fill="#434142" font-family="NanumSquareNeovariable-Heavy, &apos;NanumSquare Neo variable&apos;" font-size="18" font-variation-settings="&apos;wght&apos; 900" font-weight="800"><tspan x="0" y="0">이상일, 이동섭 홀</tspan></text></g><g id="Layer_toilet1"><polygon points="895.5 241.5 752.5 241.5 752.5 344.5 752.5 350.5 752.5 407.5 866.5 407.5 866.5 350.5 895.5 350.5 895.5 241.5" fill="none" stroke="#e18686" stroke-miterlimit="10" stroke-width="3"/></g><g id="Layer_toilet2"><rect x="976.5" y="241.5" width="63" height="166" fill="none" stroke="#e18686" stroke-miterlimit="10" stroke-width="3"/></g><g id="Layer_정원"><polygon points="1424.5 565.5 1086.5 565.5 1034.5 565.5 988.5 565.5 988.5 679.5 1086.5 679.5 1086.5 642.5 1424.5 642.5 1424.5 565.5" fill="none" stroke="#e18686" stroke-miterlimit="10" stroke-width="3"/><text transform="translate(1186.13 613.07)" fill="#434142" font-family="NanumSquareNeovariable-Heavy, &apos;NanumSquare Neo variable&apos;" font-size="22" font-variation-settings="&apos;wght&apos; 900" font-weight="800"><tspan x="0" y="0">정원</tspan></text><rect x="988.5" y="474.5" width="206" height="78" fill="none" stroke="#e18686" stroke-miterlimit="10" stroke-width="3"/><rect x="1226.5" y="474.5" width="192" height="23" fill="none" stroke="#e18686" stroke-miterlimit="10" stroke-width="3"/><rect x="1086.5" y="642.5" width="338" height="53" fill="none" stroke="#e18686" stroke-miterlimit="10" stroke-width="3"/></g></svg>