<?xml version="1.0" encoding="UTF-8"?><svg
  xmlns="http://www.w3.org/2000/svg"
  viewBox="0 0 1470 1080"
>
  <g id="Layer_border">
    <path
      d="m981.5,790.5c-29.62.12-59.24.25-88.86.37v-101.67h-194.68v74h-60.78"
      fill="none"
      stroke="#e18686"
      stroke-linecap="round"
      stroke-linejoin="round"
      stroke-width="5"
    />
    <rect
      x="117.88"
      y="470.77"
      width="190.27"
      height="300.2"
      fill="none"
      stroke="#e18686"
      stroke-linecap="round"
      stroke-linejoin="round"
      stroke-width="5.29"
    />
    <rect
      x="1102.5"
      y="480.5"
      width="152"
      height="40"
      fill="none"
      stroke="#e18686"
      stroke-linecap="round"
      stroke-linejoin="round"
      stroke-width="5"
    />
    <polyline
      points="1241.49 790.51 1241.49 829.27 1156.5 829.27"
      fill="none"
      stroke="#e18686"
      stroke-linecap="round"
      stroke-linejoin="round"
      stroke-width="5"
    />
    <polyline
      points="818.64 690.08 818.64 790.51 892.64 790.51 892.64 833.72 968.46 833.72"
      fill="none"
      stroke="#e18686"
      stroke-linecap="round"
      stroke-linejoin="round"
      stroke-width="5"
    />
    <polygon
      points="1101.5 314.5 1101.5 339.5 1033.5 339.5 1033.5 314.5 961.5 314.5 961.5 501.5 1033.5 501.5 1033.5 383.5 1101.5 383.5 1101.5 501.5 1173.5 501.5 1173.5 314.5 1101.5 314.5"
      fill="#fdf3f2"
      stroke="#e18686"
      stroke-linecap="round"
      stroke-linejoin="round"
      stroke-width="5"
    />
    <rect
      x="1102.5"
      y="568.5"
      width="152"
      height="93"
      fill="none"
      stroke="#e18686"
      stroke-linecap="round"
      stroke-linejoin="round"
      stroke-width="5"
    />
    <polygon
      points="1101.5 661.5 1101.5 733.5 1033.5 733.5 1033.5 661.5 961.5 661.5 961.5 848.5 1033.5 848.5 1033.5 794.5 1101.5 794.5 1101.5 848.5 1173.5 848.5 1173.5 661.5 1101.5 661.5"
      fill="#fdf3f2"
      stroke="#e18686"
      stroke-linecap="round"
      stroke-linejoin="round"
      stroke-width="5"
    />
    <path
      d="m663.5,470.5h35.34v147.35h192.92V254.91c47.25.2,94.49.4,141.74.59v59"
      fill="none"
      stroke="#e18686"
      stroke-linecap="round"
      stroke-linejoin="round"
      stroke-width="5"
    />
    <polyline
      points="1222.18 254.91 1315.48 254.91 1315.48 730.6 1245.01 730.6"
      fill="none"
      stroke="#e18686"
      stroke-linecap="round"
      stroke-linejoin="round"
      stroke-width="5"
    />
    <polyline
      points="889 372.95 818.64 372.95 818.64 617"
      fill="none"
      stroke="#e18686"
      stroke-linecap="round"
      stroke-linejoin="round"
      stroke-width="5"
    />
    <rect
      x="1102.5"
      y="520.5"
      width="152"
      height="48"
      fill="none"
      stroke="#e18686"
      stroke-linecap="round"
      stroke-linejoin="round"
      stroke-width="5"
    />
    <polygon
      points="308.5 470.5 308.5 691.5 263.5 691.5 263.5 759.5 308.5 759.5 308.5 770.5 663.5 770.5 663.5 470.5 308.5 470.5"
      fill="#fdf3f2"
      stroke="#e18686"
      stroke-linecap="round"
      stroke-linejoin="round"
      stroke-width="5"
    />
  </g>
  <g id="Layer_others">
    <rect
      x="265"
      y="691.54"
      width="215"
      height="67.46"
      fill="none"
      stroke="#e18686"
      stroke-miterlimit="10"
      stroke-width="2"
    />
    <line
      x1="313.53"
      y1="759"
      x2="313.53"
      y2="691.54"
      fill="none"
      stroke="#e18686"
      stroke-miterlimit="10"
      stroke-width="2"
    />
    <line
      x1="326.25"
      y1="759"
      x2="326.25"
      y2="691.54"
      fill="none"
      stroke="#e18686"
      stroke-miterlimit="10"
      stroke-width="2"
    />
    <line
      x1="338.97"
      y1="759"
      x2="338.97"
      y2="691.54"
      fill="none"
      stroke="#e18686"
      stroke-miterlimit="10"
      stroke-width="2"
    />
    <line
      x1="351.69"
      y1="759"
      x2="351.69"
      y2="691.54"
      fill="none"
      stroke="#e18686"
      stroke-miterlimit="10"
      stroke-width="2"
    />
    <line
      x1="364.41"
      y1="759"
      x2="364.41"
      y2="691.54"
      fill="none"
      stroke="#e18686"
      stroke-miterlimit="10"
      stroke-width="2"
    />
    <line
      x1="377.12"
      y1="759"
      x2="377.12"
      y2="691.54"
      fill="none"
      stroke="#e18686"
      stroke-miterlimit="10"
      stroke-width="2"
    />
    <line
      x1="389.84"
      y1="759"
      x2="389.84"
      y2="691.54"
      fill="none"
      stroke="#e18686"
      stroke-miterlimit="10"
      stroke-width="2"
    />
    <line
      x1="402.56"
      y1="759"
      x2="402.56"
      y2="691.54"
      fill="none"
      stroke="#e18686"
      stroke-miterlimit="10"
      stroke-width="2"
    />
    <line
      x1="415.28"
      y1="759"
      x2="415.28"
      y2="691.54"
      fill="none"
      stroke="#e18686"
      stroke-miterlimit="10"
      stroke-width="2"
    />
    <line
      x1="428"
      y1="759"
      x2="428"
      y2="691.54"
      fill="none"
      stroke="#e18686"
      stroke-miterlimit="10"
      stroke-width="2"
    />
    <line
      x1="440.71"
      y1="759"
      x2="440.71"
      y2="691.54"
      fill="none"
      stroke="#e18686"
      stroke-miterlimit="10"
      stroke-width="2"
    />
    <line
      x1="453.43"
      y1="759"
      x2="453.43"
      y2="691.54"
      fill="none"
      stroke="#e18686"
      stroke-miterlimit="10"
      stroke-width="2"
    />
    <line
      x1="466.15"
      y1="759"
      x2="466.15"
      y2="691.54"
      fill="none"
      stroke="#e18686"
      stroke-miterlimit="10"
      stroke-width="2"
    />
    <line
      x1="1112.35"
      y1="569"
      x2="1112.35"
      y2="520.21"
      fill="none"
      stroke="#e18686"
      stroke-miterlimit="10"
      stroke-width="2"
    />
    <line
      x1="1120.64"
      y1="569"
      x2="1120.64"
      y2="520.21"
      fill="none"
      stroke="#e18686"
      stroke-miterlimit="10"
      stroke-width="2"
    />
    <line
      x1="1128.93"
      y1="569"
      x2="1128.93"
      y2="520.21"
      fill="none"
      stroke="#e18686"
      stroke-miterlimit="10"
      stroke-width="2"
    />
    <line
      x1="1137.22"
      y1="569"
      x2="1137.22"
      y2="520.21"
      fill="none"
      stroke="#e18686"
      stroke-miterlimit="10"
      stroke-width="2"
    />
    <line
      x1="1145.51"
      y1="569"
      x2="1145.51"
      y2="520.21"
      fill="none"
      stroke="#e18686"
      stroke-miterlimit="10"
      stroke-width="2"
    />
    <line
      x1="1153.8"
      y1="569"
      x2="1153.8"
      y2="520.21"
      fill="none"
      stroke="#e18686"
      stroke-miterlimit="10"
      stroke-width="2"
    />
    <line
      x1="1162.09"
      y1="569"
      x2="1162.09"
      y2="520.21"
      fill="none"
      stroke="#e18686"
      stroke-miterlimit="10"
      stroke-width="2"
    />
    <line
      x1="1170.38"
      y1="569"
      x2="1170.38"
      y2="520.21"
      fill="none"
      stroke="#e18686"
      stroke-miterlimit="10"
      stroke-width="2"
    />
    <line
      x1="1178.67"
      y1="569"
      x2="1178.67"
      y2="520.21"
      fill="none"
      stroke="#e18686"
      stroke-miterlimit="10"
      stroke-width="2"
    />
    <line
      x1="1186.97"
      y1="569"
      x2="1186.97"
      y2="520.21"
      fill="none"
      stroke="#e18686"
      stroke-miterlimit="10"
      stroke-width="2"
    />
    <line
      x1="1195.26"
      y1="569"
      x2="1195.26"
      y2="520.21"
      fill="none"
      stroke="#e18686"
      stroke-miterlimit="10"
      stroke-width="2"
    />
    <line
      x1="1203.55"
      y1="569"
      x2="1203.55"
      y2="520.21"
      fill="none"
      stroke="#e18686"
      stroke-miterlimit="10"
      stroke-width="2"
    />
    <line
      x1="1211.84"
      y1="569"
      x2="1211.84"
      y2="520.21"
      fill="none"
      stroke="#e18686"
      stroke-miterlimit="10"
      stroke-width="2"
    />
    <line
      x1="1220.13"
      y1="569"
      x2="1220.13"
      y2="520.21"
      fill="none"
      stroke="#e18686"
      stroke-miterlimit="10"
      stroke-width="2"
    />
    <line
      x1="1228.42"
      y1="569"
      x2="1228.42"
      y2="520.21"
      fill="none"
      stroke="#e18686"
      stroke-miterlimit="10"
      stroke-width="2"
    />
    <line
      x1="1236.71"
      y1="569"
      x2="1236.71"
      y2="520.21"
      fill="none"
      stroke="#e18686"
      stroke-miterlimit="10"
      stroke-width="2"
    />
    <line
      x1="1245"
      y1="569"
      x2="1245"
      y2="520.21"
      fill="none"
      stroke="#e18686"
      stroke-miterlimit="10"
      stroke-width="2"
    />
    <line
      x1="1112.35"
      y1="569"
      x2="1112.35"
      y2="613"
      fill="none"
      stroke="#e18686"
      stroke-miterlimit="10"
      stroke-width="1.9"
    />
    <line
      x1="1120.64"
      y1="569"
      x2="1120.64"
      y2="613"
      fill="none"
      stroke="#e18686"
      stroke-miterlimit="10"
      stroke-width="1.9"
    />
    <line
      x1="1128.93"
      y1="569"
      x2="1128.93"
      y2="613"
      fill="none"
      stroke="#e18686"
      stroke-miterlimit="10"
      stroke-width="1.9"
    />
    <line
      x1="1137.22"
      y1="569"
      x2="1137.22"
      y2="613"
      fill="none"
      stroke="#e18686"
      stroke-miterlimit="10"
      stroke-width="1.9"
    />
    <line
      x1="1145.51"
      y1="569"
      x2="1145.51"
      y2="613"
      fill="none"
      stroke="#e18686"
      stroke-miterlimit="10"
      stroke-width="1.9"
    />
    <line
      x1="1153.8"
      y1="569"
      x2="1153.8"
      y2="613"
      fill="none"
      stroke="#e18686"
      stroke-miterlimit="10"
      stroke-width="1.9"
    />
    <line
      x1="1162.09"
      y1="569"
      x2="1162.09"
      y2="613"
      fill="none"
      stroke="#e18686"
      stroke-miterlimit="10"
      stroke-width="1.9"
    />
    <line
      x1="1170.38"
      y1="569"
      x2="1170.38"
      y2="613"
      fill="none"
      stroke="#e18686"
      stroke-miterlimit="10"
      stroke-width="1.9"
    />
    <line
      x1="1178.68"
      y1="569"
      x2="1178.68"
      y2="613"
      fill="none"
      stroke="#e18686"
      stroke-miterlimit="10"
      stroke-width="1.9"
    />
    <line
      x1="1186.97"
      y1="569"
      x2="1186.97"
      y2="613"
      fill="none"
      stroke="#e18686"
      stroke-miterlimit="10"
      stroke-width="1.9"
    />
    <line
      x1="1195.26"
      y1="569"
      x2="1195.26"
      y2="613"
      fill="none"
      stroke="#e18686"
      stroke-miterlimit="10"
      stroke-width="1.9"
    />
    <line
      x1="1203.55"
      y1="569"
      x2="1203.55"
      y2="613"
      fill="none"
      stroke="#e18686"
      stroke-miterlimit="10"
      stroke-width="1.9"
    />
    <line
      x1="1211.84"
      y1="569"
      x2="1211.84"
      y2="613"
      fill="none"
      stroke="#e18686"
      stroke-miterlimit="10"
      stroke-width="1.9"
    />
    <line
      x1="1220.13"
      y1="569"
      x2="1220.13"
      y2="613"
      fill="none"
      stroke="#e18686"
      stroke-miterlimit="10"
      stroke-width="1.9"
    />
    <line
      x1="1228.42"
      y1="569"
      x2="1228.42"
      y2="613"
      fill="none"
      stroke="#e18686"
      stroke-miterlimit="10"
      stroke-width="1.9"
    />
    <line
      x1="1236.71"
      y1="569"
      x2="1236.71"
      y2="613"
      fill="none"
      stroke="#e18686"
      stroke-miterlimit="10"
      stroke-width="1.9"
    />
    <line
      x1="1245"
      y1="569"
      x2="1245"
      y2="613"
      fill="none"
      stroke="#e18686"
      stroke-miterlimit="10"
      stroke-width="1.9"
    />
    <line
      x1="1104"
      y1="613"
      x2="1254"
      y2="613"
      fill="none"
      stroke="#e18686"
      stroke-miterlimit="10"
      stroke-width="1.9"
    />
    <line
      x1="1112.35"
      y1="501"
      x2="1112.35"
      y2="520.21"
      fill="none"
      stroke="#e18686"
      stroke-miterlimit="10"
      stroke-width="2"
    />
    <line
      x1="1120.64"
      y1="501"
      x2="1120.64"
      y2="520.21"
      fill="none"
      stroke="#e18686"
      stroke-miterlimit="10"
      stroke-width="2"
    />
    <line
      x1="1128.93"
      y1="501"
      x2="1128.93"
      y2="520.21"
      fill="none"
      stroke="#e18686"
      stroke-miterlimit="10"
      stroke-width="2"
    />
    <line
      x1="1137.22"
      y1="501"
      x2="1137.22"
      y2="520.21"
      fill="none"
      stroke="#e18686"
      stroke-miterlimit="10"
      stroke-width="2"
    />
    <line
      x1="1145.51"
      y1="501"
      x2="1145.51"
      y2="520.21"
      fill="none"
      stroke="#e18686"
      stroke-miterlimit="10"
      stroke-width="2"
    />
    <line
      x1="1153.8"
      y1="501"
      x2="1153.8"
      y2="520.21"
      fill="none"
      stroke="#e18686"
      stroke-miterlimit="10"
      stroke-width="2"
    />
    <line
      x1="1162.09"
      y1="501"
      x2="1162.09"
      y2="520.21"
      fill="none"
      stroke="#e18686"
      stroke-miterlimit="10"
      stroke-width="2"
    />
    <line
      x1="1170.38"
      y1="501"
      x2="1170.38"
      y2="520.21"
      fill="none"
      stroke="#e18686"
      stroke-miterlimit="10"
      stroke-width="2"
    />
    <line
      x1="1178.68"
      y1="480"
      x2="1178.68"
      y2="520.21"
      fill="none"
      stroke="#e18686"
      stroke-miterlimit="10"
      stroke-width="1.82"
    />
    <line
      x1="1186.97"
      y1="480"
      x2="1186.97"
      y2="520.21"
      fill="none"
      stroke="#e18686"
      stroke-miterlimit="10"
      stroke-width="1.82"
    />
    <line
      x1="1195.26"
      y1="480"
      x2="1195.26"
      y2="520.21"
      fill="none"
      stroke="#e18686"
      stroke-miterlimit="10"
      stroke-width="1.82"
    />
    <line
      x1="1203.55"
      y1="480"
      x2="1203.55"
      y2="520.21"
      fill="none"
      stroke="#e18686"
      stroke-miterlimit="10"
      stroke-width="1.82"
    />
    <line
      x1="1211.84"
      y1="480"
      x2="1211.84"
      y2="520.21"
      fill="none"
      stroke="#e18686"
      stroke-miterlimit="10"
      stroke-width="1.82"
    />
    <line
      x1="1220.13"
      y1="480"
      x2="1220.13"
      y2="520.21"
      fill="none"
      stroke="#e18686"
      stroke-miterlimit="10"
      stroke-width="1.82"
    />
    <line
      x1="1228.42"
      y1="480"
      x2="1228.42"
      y2="520.21"
      fill="none"
      stroke="#e18686"
      stroke-miterlimit="10"
      stroke-width="1.82"
    />
    <line
      x1="1236.71"
      y1="480"
      x2="1236.71"
      y2="520.21"
      fill="none"
      stroke="#e18686"
      stroke-miterlimit="10"
      stroke-width="1.82"
    />
    <line
      x1="1245"
      y1="480"
      x2="1245"
      y2="520.21"
      fill="none"
      stroke="#e18686"
      stroke-miterlimit="10"
      stroke-width="1.82"
    />
  </g>
  <g id="Layer_S501">
    <rect
      x="1035"
      y="383"
      width="66"
      height="349"
      fill="#f8cdce"
      stroke="#e18686"
      stroke-miterlimit="10"
      stroke-width="2"
    />
    <text
      transform="translate(1038.32 563.36)"
      fill="#434142"
      font-family="NanumSquareNeovariable-Heavy, 'NanumSquare Neo variable'"
      font-size="22"
      font-variation-settings="'wght' 900"
      font-weight="800"
    >
      <tspan x="0" y="0">S501</tspan>
    </text>
  </g>
</svg>
