<?xml version="1.0" encoding="UTF-8"?><svg xmlns="http://www.w3.org/2000/svg" viewBox="0 0 1920 1080"><g id="Layer_border"><polygon points="484 930 484 90 1352 90 1352 353 1225 353 1225 607 1484 607 1484 930 484 930" fill="#fdf3f2"/><path d="m1347,95v253h-127v264h259v313H489V95h858m10-10H479v850h1010v-333h-259v-244h127V85h0Z" fill="#e18686"/></g><g id="Layer_others"><rect x="880.66" y="413.3" width="218.34" height="41.5" fill="none" stroke="#e18686" stroke-miterlimit="10" stroke-width="3"/><line x1="895.09" y1="413.3" x2="895.09" y2="454.8" fill="none" stroke="#e18686" stroke-miterlimit="10" stroke-width="3"/><line x1="912.35" y1="413.3" x2="912.35" y2="454.8" fill="none" stroke="#e18686" stroke-miterlimit="10" stroke-width="3"/><line x1="929.62" y1="413.3" x2="929.62" y2="454.8" fill="none" stroke="#e18686" stroke-miterlimit="10" stroke-width="3"/><line x1="946.89" y1="413.3" x2="946.89" y2="454.8" fill="none" stroke="#e18686" stroke-miterlimit="10" stroke-width="3"/><line x1="964.15" y1="413.3" x2="964.15" y2="454.8" fill="none" stroke="#e18686" stroke-miterlimit="10" stroke-width="3"/><line x1="981.42" y1="413.3" x2="981.42" y2="454.8" fill="none" stroke="#e18686" stroke-miterlimit="10" stroke-width="3"/><line x1="998.68" y1="413.3" x2="998.68" y2="454.8" fill="none" stroke="#e18686" stroke-miterlimit="10" stroke-width="3"/><line x1="1015.95" y1="413.3" x2="1015.95" y2="454.8" fill="none" stroke="#e18686" stroke-miterlimit="10" stroke-width="3"/><line x1="1033.21" y1="413.3" x2="1033.21" y2="454.8" fill="none" stroke="#e18686" stroke-miterlimit="10" stroke-width="3"/><line x1="1050.48" y1="413.3" x2="1050.48" y2="454.8" fill="none" stroke="#e18686" stroke-miterlimit="10" stroke-width="3"/><line x1="1067.75" y1="413.3" x2="1067.75" y2="454.8" fill="none" stroke="#e18686" stroke-miterlimit="10" stroke-width="3"/><line x1="1085.01" y1="413.3" x2="1085.01" y2="454.8" fill="none" stroke="#e18686" stroke-miterlimit="10" stroke-width="3"/><rect x="681" y="413.3" width="171" height="41.5" transform="translate(1533 868.1) rotate(180)" fill="none" stroke="#e18686" stroke-miterlimit="10" stroke-width="3"/><line x1="837.57" y1="413.3" x2="837.57" y2="454.8" fill="none" stroke="#e18686" stroke-miterlimit="10" stroke-width="3"/><line x1="821.74" y1="413.3" x2="821.74" y2="454.8" fill="none" stroke="#e18686" stroke-miterlimit="10" stroke-width="3"/><line x1="805.91" y1="413.3" x2="805.91" y2="454.8" fill="none" stroke="#e18686" stroke-miterlimit="10" stroke-width="3"/><line x1="790.07" y1="413.3" x2="790.07" y2="454.8" fill="none" stroke="#e18686" stroke-miterlimit="10" stroke-width="3"/><line x1="774.24" y1="413.3" x2="774.24" y2="454.8" fill="none" stroke="#e18686" stroke-miterlimit="10" stroke-width="3"/><line x1="758.41" y1="413.3" x2="758.41" y2="454.8" fill="none" stroke="#e18686" stroke-miterlimit="10" stroke-width="3"/><line x1="742.58" y1="413.3" x2="742.58" y2="454.8" fill="none" stroke="#e18686" stroke-miterlimit="10" stroke-width="3"/><line x1="726.75" y1="413.3" x2="726.75" y2="454.8" fill="none" stroke="#e18686" stroke-miterlimit="10" stroke-width="3"/><line x1="710.92" y1="413.3" x2="710.92" y2="454.8" fill="none" stroke="#e18686" stroke-miterlimit="10" stroke-width="3"/><line x1="695.09" y1="413.3" x2="695.09" y2="454.8" fill="none" stroke="#e18686" stroke-miterlimit="10" stroke-width="3"/><rect x="880.5" y="380.5" width="242" height="159" fill="none" stroke="#e18686" stroke-miterlimit="10" stroke-width="3"/><rect x="579.5" y="380.5" width="243" height="159" fill="none" stroke="#e18686" stroke-miterlimit="10" stroke-width="3"/><rect x="950.19" y="148.41" width="171.31" height="63.88" transform="translate(855.5 1216.19) rotate(-90)" fill="none" stroke="#e18686" stroke-miterlimit="10" stroke-width="3"/><line x1="1067.78" y1="251.54" x2="1003.91" y2="251.54" fill="none" stroke="#e18686" stroke-miterlimit="10" stroke-width="3"/><line x1="1067.78" y1="235.68" x2="1003.91" y2="235.68" fill="none" stroke="#e18686" stroke-miterlimit="10" stroke-width="3"/><line x1="1067.78" y1="219.82" x2="1003.91" y2="219.82" fill="none" stroke="#e18686" stroke-miterlimit="10" stroke-width="3"/><line x1="1067.78" y1="203.96" x2="1003.91" y2="203.96" fill="none" stroke="#e18686" stroke-miterlimit="10" stroke-width="3"/><line x1="1067.78" y1="188.1" x2="1003.91" y2="188.1" fill="none" stroke="#e18686" stroke-miterlimit="10" stroke-width="3"/><line x1="1067.78" y1="172.24" x2="1003.91" y2="172.24" fill="none" stroke="#e18686" stroke-miterlimit="10" stroke-width="3"/><line x1="1067.78" y1="156.38" x2="1003.91" y2="156.38" fill="none" stroke="#e18686" stroke-miterlimit="10" stroke-width="3"/><line x1="1067.78" y1="140.52" x2="1003.91" y2="140.52" fill="none" stroke="#e18686" stroke-miterlimit="10" stroke-width="3"/><line x1="1067.78" y1="124.66" x2="1003.91" y2="124.66" fill="none" stroke="#e18686" stroke-miterlimit="10" stroke-width="3"/><line x1="1067.78" y1="108.81" x2="1003.91" y2="108.81" fill="none" stroke="#e18686" stroke-miterlimit="10" stroke-width="3"/><rect x="1004.09" y="266.5" width="63.5" height="34" fill="none" stroke="#e18686" stroke-miterlimit="10" stroke-width="3.01"/><rect x="937.5" y="233.5" width="66" height="50" fill="none" stroke="#e18686" stroke-miterlimit="10" stroke-width="3.01"/><rect x="1222" y="612.5" width="260.5" height="313.5" fill="none" stroke="#e18686" stroke-miterlimit="10" stroke-width="3"/><rect x="946.5" y="772.5" width="59" height="65" fill="none" stroke="#e18686" stroke-miterlimit="10" stroke-width="3"/><rect x="1005.5" y="772.5" width="59" height="65" fill="none" stroke="#e18686" stroke-miterlimit="10" stroke-width="3"/><rect x="1064.5" y="764.5" width="73" height="73" fill="none" stroke="#e18686" stroke-miterlimit="10" stroke-width="3"/><rect x="946.52" y="837.32" width="210.48" height="86.68" fill="none" stroke="#e18686" stroke-miterlimit="10" stroke-width="3"/><line x1="960.43" y1="837.32" x2="960.43" y2="924" fill="none" stroke="#e18686" stroke-miterlimit="10" stroke-width="3"/><line x1="977.07" y1="837.32" x2="977.07" y2="924" fill="none" stroke="#e18686" stroke-miterlimit="10" stroke-width="3"/><line x1="993.72" y1="837.32" x2="993.72" y2="924" fill="none" stroke="#e18686" stroke-miterlimit="10" stroke-width="3"/><line x1="1010.36" y1="837.32" x2="1010.36" y2="924" fill="none" stroke="#e18686" stroke-miterlimit="10" stroke-width="3"/><line x1="1027.01" y1="837.32" x2="1027.01" y2="924" fill="none" stroke="#e18686" stroke-miterlimit="10" stroke-width="3"/><line x1="1043.65" y1="837.32" x2="1043.65" y2="924" fill="none" stroke="#e18686" stroke-miterlimit="10" stroke-width="3"/><line x1="1060.29" y1="837.32" x2="1060.29" y2="924" fill="none" stroke="#e18686" stroke-miterlimit="10" stroke-width="3"/><line x1="1076.94" y1="837.32" x2="1076.94" y2="924" fill="none" stroke="#e18686" stroke-miterlimit="10" stroke-width="3"/><line x1="1093.58" y1="837.32" x2="1093.58" y2="924" fill="none" stroke="#e18686" stroke-miterlimit="10" stroke-width="3"/><line x1="1110.23" y1="837.32" x2="1110.23" y2="924" fill="none" stroke="#e18686" stroke-miterlimit="10" stroke-width="3"/><rect x="1173.5" y="300.5" width="98" height="28" fill="none" stroke="#e18686" stroke-miterlimit="10" stroke-width="3"/><rect x="1156.5" y="930.5" width="55" height="68" fill="none" stroke="#e18686" stroke-miterlimit="10" stroke-width="3"/><line x1="1156.5" y1="969.5" x2="1211.5" y2="969.5" fill="none" stroke="#e18686" stroke-miterlimit="10" stroke-width="3"/><line x1="1156.5" y1="978.5" x2="1211.5" y2="978.5" fill="none" stroke="#e18686" stroke-miterlimit="10" stroke-width="3"/><line x1="1156.5" y1="988.5" x2="1211.5" y2="988.5" fill="none" stroke="#e18686" stroke-miterlimit="10" stroke-width="3"/><text transform="translate(1124.27 965.72)" fill="#434142" font-family="NanumSquareNeovariable-Heavy, &apos;NanumSquare Neo variable&apos;" font-size="22" font-variation-settings="&apos;wght&apos; 900" font-weight="800"><tspan x="0" y="0">경영본관 3F</tspan></text></g><g id="Layer_202"><rect x="489.5" y="588.5" width="269" height="336" fill="#f8cdce" stroke="#e18686" stroke-miterlimit="10" stroke-width="3.03"/><text transform="translate(600.09 765.98)" fill="#434142" font-family="NanumSquareNeovariable-Heavy, &apos;NanumSquare Neo variable&apos;" font-size="22" font-variation-settings="&apos;wght&apos; 900" font-weight="800"><tspan x="0" y="0">202</tspan></text></g><g id="Layer_라운지"><rect x="759" y="687" width="188" height="103" fill="none" stroke="#e18686" stroke-miterlimit="10" stroke-width="3.03"/><text transform="translate(822.48 745.23)" fill="#434142" font-family="NanumSquareNeovariable-Heavy, &apos;NanumSquare Neo variable&apos;" font-size="22" font-variation-settings="&apos;wght&apos; 900" font-weight="800"><tspan x="0" y="0">라운지</tspan></text></g><g id="Layer_락커룸"><rect x="759" y="790" width="188" height="134.5" fill="#f8cdce" stroke="#e18686" stroke-miterlimit="10" stroke-width="3.03"/><text transform="translate(822.48 863.23)" fill="#434142" font-family="NanumSquareNeovariable-Heavy, &apos;NanumSquare Neo variable&apos;" font-size="22" font-variation-settings="&apos;wght&apos; 900" font-weight="800"><tspan x="0" y="0">락커룸</tspan></text></g><g id="Layer_203"><rect x="489" y="208" width="96" height="93" fill="#f8cdce" stroke="#e18686" stroke-miterlimit="10" stroke-width="3.03"/><text transform="translate(512.82 260.06)" fill="#434142" font-family="NanumSquareNeovariable-Heavy, &apos;NanumSquare Neo variable&apos;" font-size="22" font-variation-settings="&apos;wght&apos; 900" font-weight="800"><tspan x="0" y="0">203</tspan></text></g><g id="Layer_204"><rect x="489" y="95" width="96" height="114.98" fill="#f8cdce" stroke="#e18686" stroke-miterlimit="10" stroke-width="3"/><text transform="translate(512.89 156.06)" fill="#434142" font-family="NanumSquareNeovariable-Heavy, &apos;NanumSquare Neo variable&apos;" font-size="22" font-variation-settings="&apos;wght&apos; 900" font-weight="800"><tspan x="0" y="0">204</tspan></text></g><g id="Layer_205"><rect x="585" y="95" width="77.5" height="84.16" transform="translate(1247.5 274.16) rotate(180)" fill="#f8cdce" stroke="#e18686" stroke-miterlimit="10" stroke-width="3"/><text transform="translate(600.08 140.06)" fill="#434142" font-family="NanumSquareNeovariable-Heavy, &apos;NanumSquare Neo variable&apos;" font-size="22" font-variation-settings="&apos;wght&apos; 900" font-weight="800"><tspan x="0" y="0">205</tspan></text></g><g id="Layer_206"><rect x="662.5" y="95" width="64" height="114.49" fill="#f8cdce" stroke="#e18686" stroke-miterlimit="10" stroke-width="3"/><text transform="translate(670.83 140.06)" fill="#434142" font-family="NanumSquareNeovariable-Heavy, &apos;NanumSquare Neo variable&apos;" font-size="22" font-variation-settings="&apos;wght&apos; 900" font-weight="800"><tspan x="0" y="0">206</tspan></text></g><g id="Layer_207"><rect x="662.5" y="207.5" width="64" height="93" fill="#f8cdce" stroke="#e18686" stroke-miterlimit="10" stroke-width="3.5"/><text transform="translate(671.82 258.06)" fill="#434142" font-family="NanumSquareNeovariable-Heavy, &apos;NanumSquare Neo variable&apos;" font-size="22" font-variation-settings="&apos;wght&apos; 900" font-weight="800"><tspan x="0" y="0">207</tspan></text></g><g id="Layer_208"><rect x="726.5" y="95" width="57" height="205.5" fill="#f8cdce" stroke="#e18686" stroke-miterlimit="10" stroke-width="3"/><text transform="translate(730.63 211.06)" fill="#434142" font-family="NanumSquareNeovariable-Heavy, &apos;NanumSquare Neo variable&apos;" font-size="22" font-variation-settings="&apos;wght&apos; 900" font-weight="800"><tspan x="0" y="0">208</tspan></text></g><g id="Layer_209"><rect x="1067.5" y="94.5" width="280" height="206" fill="#f8cdce" stroke="#e18686" stroke-miterlimit="10" stroke-width="3"/><text transform="translate(1187.26 205.76)" fill="#434142" font-family="NanumSquareNeovariable-Heavy, &apos;NanumSquare Neo variable&apos;" font-size="22" font-variation-settings="&apos;wght&apos; 900" font-weight="800"><tspan x="0" y="0">209</tspan></text></g><g id="Layer_toilet1"><polygon points="872 91 784 91 784 176.5 783.5 176.5 783.5 223.5 783.5 233.5 783.5 300.5 815.5 300.5 815.5 233.5 866.5 233.5 866.5 184 872 184 872 91" fill="none" stroke="#e18686" stroke-miterlimit="10" stroke-width="3"/><rect x="815.5" y="233.5" width="51" height="67" fill="none" stroke="#e18686" stroke-miterlimit="10" stroke-width="3"/></g><g id="Layer_toilet2"><polygon points="1003.5 91.5 872.5 91.5 872.5 113.5 872.5 121.5 872.5 184.5 866.5 184.5 866.5 300.5 937.5 300.5 937.5 233.5 978.5 233.5 978.5 121.5 1003.5 121.5 1003.5 91.5" fill="none" stroke="#e18686" stroke-miterlimit="10" stroke-width="3"/></g></svg>