<?xml version="1.0" encoding="UTF-8"?><svg xmlns="http://www.w3.org/2000/svg" viewBox="0 0 1800 1400"><defs><style>.cls-1{fill:#fdf2f1;stroke-width:10px;}.cls-1,.cls-2,.cls-3{stroke:#e08686;stroke-miterlimit:10;}.cls-2{fill:none;}.cls-2,.cls-3{stroke-width:3px;}.cls-4{fill:#231815;font-family:NanumSquareNeovariable-ExtraBold, 'NanumSquare Neo variable';font-size:32px;font-variation-settings:'wght' 700;font-weight:700;}.cls-3{fill:#f8cdcd;}</style></defs><g id="_레이어_x5F_바탕"><rect class="cls-1" x="198.29" y="87.05" width="1480.62" height="1268.73"/></g><g id="_레이어_x5F_others"><rect class="cls-2" x="1136.03" y="92.22" width="152.24" height="201.26"/><polygon class="cls-2" points="1345.03 92.22 1345.03 230.01 1345.03 293.49 1456.78 293.49 1456.78 230.01 1510.37 230.01 1510.37 92.22 1345.03 92.22"/><rect class="cls-2" x="1136.03" y="369.76" width="284.69" height="133.3"/><rect class="cls-2" x="1136.03" y="503.06" width="284.69" height="148.31"/><rect class="cls-2" x="1510.37" y="485.44" width="162.36" height="91.78"/><rect class="cls-2" x="1510.37" y="577.22" width="162.36" height="85.91"/><rect class="cls-2" x="203.62" y="1171.34" width="303.78" height="177.74"/><line class="cls-2" x1="1235.24" y1="369.76" x2="1235.24" y2="503.06"/><line class="cls-2" x1="1245.24" y1="369.76" x2="1245.24" y2="503.06"/><line class="cls-2" x1="1255.24" y1="369.76" x2="1255.24" y2="503.06"/><line class="cls-2" x1="1265.24" y1="369.76" x2="1265.24" y2="503.06"/><line class="cls-2" x1="1275.24" y1="369.76" x2="1275.24" y2="503.06"/><line class="cls-2" x1="1285.24" y1="369.76" x2="1285.24" y2="503.06"/><line class="cls-2" x1="1295.24" y1="369.76" x2="1295.24" y2="503.06"/><line class="cls-2" x1="1305.24" y1="369.76" x2="1305.24" y2="503.06"/><line class="cls-2" x1="1315.24" y1="369.76" x2="1315.24" y2="503.06"/><line class="cls-2" x1="1325.24" y1="369.76" x2="1325.24" y2="503.06"/><line class="cls-2" x1="1335.24" y1="369.76" x2="1335.24" y2="503.06"/><line class="cls-2" x1="1345.24" y1="369.76" x2="1345.24" y2="503.06"/><line class="cls-2" x1="1355.24" y1="369.76" x2="1355.24" y2="503.06"/><line class="cls-2" x1="287.12" y1="1171.34" x2="287.12" y2="1349.08"/><line class="cls-2" x1="297.12" y1="1171.34" x2="297.12" y2="1349.08"/><line class="cls-2" x1="307.12" y1="1171.34" x2="307.12" y2="1349.08"/><line class="cls-2" x1="317.12" y1="1171.34" x2="317.12" y2="1349.08"/><line class="cls-2" x1="327.12" y1="1171.34" x2="327.12" y2="1349.08"/><line class="cls-2" x1="337.12" y1="1171.34" x2="337.12" y2="1349.08"/><line class="cls-2" x1="347.12" y1="1171.34" x2="347.12" y2="1349.08"/><line class="cls-2" x1="357.12" y1="1171.34" x2="357.12" y2="1349.08"/><line class="cls-2" x1="367.12" y1="1171.34" x2="367.12" y2="1349.08"/><line class="cls-2" x1="377.12" y1="1171.34" x2="377.12" y2="1349.08"/><line class="cls-2" x1="387.12" y1="1171.34" x2="387.12" y2="1349.08"/><line class="cls-2" x1="397.12" y1="1171.34" x2="397.12" y2="1349.08"/><line class="cls-2" x1="407.12" y1="1171.34" x2="407.12" y2="1349.08"/><line class="cls-2" x1="417.12" y1="1171.34" x2="417.12" y2="1349.08"/><line class="cls-2" x1="427.12" y1="1171.34" x2="427.12" y2="1349.08"/><line class="cls-2" x1="437.12" y1="1171.34" x2="437.12" y2="1349.08"/><rect class="cls-2" x="1591.55" y="421.3" width="81.18" height="64.14"/></g><g id="_레이어_x5F_401"><rect class="cls-3" x="900" y="92.22" width="236.03" height="607.78"/><text class="cls-4" transform="translate(986.88 354.8)"><tspan x="0" y="0">401</tspan><tspan x="-75.04" y="38.4">지질시료보관실</tspan></text></g><g id="_레이어_x5F_402"><rect class="cls-3" x="601.28" y="92.22" width="298.72" height="607.78"/><text class="cls-4" transform="translate(716.38 354.8)"><tspan x="0" y="0">402</tspan><tspan x="-71.92" y="38.4">환경시료보관실</tspan></text></g><g id="_레이어_x5F_403"><rect class="cls-3" x="204.69" y="91.99" width="396.59" height="607.78"/><text class="cls-4" transform="translate(384.08 354.8)"><tspan x="0" y="0">403</tspan><tspan x="-56.42" y="38.4">대학원강의실</tspan></text></g><g id="_레이어_x5F_404"><rect class="cls-3" x="204.69" y="794.81" width="302.59" height="376.53"/><text class="cls-4" transform="translate(322.45 951.93)"><tspan x="0" y="0">404</tspan><tspan x="-86.67" y="38.4">멀티미디어회의실</tspan></text></g><g id="_레이어_x5F_405"><rect class="cls-3" x="585.9" y="794.81" width="534.88" height="554.26"/><text class="cls-4" transform="translate(820.14 1061.1)"><tspan x="0" y="0">405</tspan><tspan x="-71.9" y="38.4">환경공동실습실</tspan></text></g><g id="_레이어_x5F_406"><rect class="cls-3" x="1121.79" y="794.81" width="550.94" height="554.26"/><text class="cls-4" transform="translate(1386.12 1061.09)"><tspan x="0" y="0">406</tspan><tspan x="-71.58" y="38.4">지질공동실습실</tspan></text></g><g id="_레이어_x5F_407"><rect class="cls-3" x="1510.37" y="92.22" width="162.36" height="329.08"/><text class="cls-4" transform="translate(1558.24 226.61)"><tspan x="0" y="0">407</tspan><tspan x="-12.19" y="38.4">휴게실</tspan></text></g></svg>