<?xml version="1.0" encoding="UTF-8"?><svg xmlns="http://www.w3.org/2000/svg" viewBox="0 0 1920 1080"><g id="Layer_border"><polygon points="483.5 932 483.5 92 1351.5 92 1351.5 355 1224.5 355 1224.5 609 1483.5 609 1483.5 932 483.5 932" fill="#fdf3f2"/><path d="m1346.5,97v253h-127v264h259v313H488.5V97h858m10-10H478.5v850h1010v-333h-259v-244h127V87h0Z" fill="#e18686"/></g><g id="Layer_others"><rect x="786" y="457.5" width="311" height="89" transform="translate(1883 1004) rotate(180)" fill="none" stroke="#e18686" stroke-miterlimit="10" stroke-width="3"/><rect x="786" y="370.5" width="311" height="29" transform="translate(1883 770) rotate(180)" fill="none" stroke="#e18686" stroke-miterlimit="10" stroke-width="3"/><rect x="574" y="370.5" width="192" height="29" transform="translate(1340 770) rotate(180)" fill="none" stroke="#e18686" stroke-miterlimit="10" stroke-width="3"/><rect x="574" y="457.5" width="192" height="63" transform="translate(1340 978) rotate(180)" fill="none" stroke="#e18686" stroke-miterlimit="10" stroke-width="3"/><rect x="489" y="604.5" width="63" height="322" transform="translate(1041 1531) rotate(180)" fill="none" stroke="#e18686" stroke-miterlimit="10" stroke-width="3"/><rect x="786" y="684.5" width="146" height="244" transform="translate(1718 1613) rotate(180)" fill="none" stroke="#e18686" stroke-miterlimit="10" stroke-width="3"/><rect x="1059" y="752.5" width="81" height="81" transform="translate(2199 1586) rotate(180)" fill="none" stroke="#e18686" stroke-miterlimit="10" stroke-width="3"/><rect x="1140" y="778.5" width="65" height="94" transform="translate(2345 1651) rotate(180)" fill="none" stroke="#e18686" stroke-miterlimit="10" stroke-width="3"/><rect x="1100" y="833.5" width="40" height="95" transform="translate(2240 1762) rotate(180)" fill="none" stroke="#e18686" stroke-miterlimit="10" stroke-width="3"/><rect x="932" y="833.5" width="168" height="95" transform="translate(2032 1762) rotate(180)" fill="none" stroke="#e18686" stroke-miterlimit="10" stroke-width="3"/><rect x="995" y="762.5" width="64" height="71" transform="translate(2054 1596) rotate(180)" fill="none" stroke="#e18686" stroke-miterlimit="10" stroke-width="3"/><rect x="932" y="762.5" width="63" height="71" transform="translate(1927 1596) rotate(180)" fill="none" stroke="#e18686" stroke-miterlimit="10" stroke-width="3"/><rect x="1216" y="650.5" width="263" height="276" transform="translate(2695 1577) rotate(180)" fill="none" stroke="#e18686" stroke-miterlimit="10" stroke-width="3"/><polygon points="1115 281.5 1221 281.5 1221 350.5 1347 350.5 1347 89.5 1221 89.5 1221 159.5 1115 159.5 1115 281.5" fill="none" stroke="#e18686" stroke-miterlimit="10" stroke-width="3"/><rect x="786.5" y="408.2" width="170.34" height="41.5" transform="translate(1743.34 857.9) rotate(180)" fill="none" stroke="#e18686" stroke-miterlimit="10" stroke-width="3.03"/><line x1="942.46" y1="449.7" x2="942.46" y2="408.2" fill="none" stroke="#e18686" stroke-miterlimit="10" stroke-width="3.03"/><line x1="928.27" y1="449.7" x2="928.27" y2="408.2" fill="none" stroke="#e18686" stroke-miterlimit="10" stroke-width="3.03"/><line x1="914.08" y1="449.7" x2="914.08" y2="408.2" fill="none" stroke="#e18686" stroke-miterlimit="10" stroke-width="3.03"/><line x1="899.88" y1="449.7" x2="899.88" y2="408.2" fill="none" stroke="#e18686" stroke-miterlimit="10" stroke-width="3.03"/><line x1="885.69" y1="449.7" x2="885.69" y2="408.2" fill="none" stroke="#e18686" stroke-miterlimit="10" stroke-width="3.03"/><line x1="871.5" y1="449.7" x2="871.5" y2="408.2" fill="none" stroke="#e18686" stroke-miterlimit="10" stroke-width="3.03"/><line x1="857.31" y1="449.7" x2="857.31" y2="408.2" fill="none" stroke="#e18686" stroke-miterlimit="10" stroke-width="3.03"/><line x1="843.11" y1="449.7" x2="843.11" y2="408.2" fill="none" stroke="#e18686" stroke-miterlimit="10" stroke-width="3.03"/><line x1="828.92" y1="449.7" x2="828.92" y2="408.2" fill="none" stroke="#e18686" stroke-miterlimit="10" stroke-width="3.03"/><line x1="814.73" y1="449.7" x2="814.73" y2="408.2" fill="none" stroke="#e18686" stroke-miterlimit="10" stroke-width="3.03"/><line x1="800.53" y1="449.7" x2="800.53" y2="408.2" fill="none" stroke="#e18686" stroke-miterlimit="10" stroke-width="3.03"/><rect x="970.84" y="408.2" width="126.66" height="41.5" fill="none" stroke="#e18686" stroke-miterlimit="10" stroke-width="3"/><line x1="981.53" y1="449.7" x2="981.53" y2="408.2" fill="none" stroke="#e18686" stroke-miterlimit="10" stroke-width="3"/><line x1="993.26" y1="449.7" x2="993.26" y2="408.2" fill="none" stroke="#e18686" stroke-miterlimit="10" stroke-width="3"/><line x1="1004.98" y1="449.7" x2="1004.98" y2="408.2" fill="none" stroke="#e18686" stroke-miterlimit="10" stroke-width="3"/><line x1="1016.71" y1="449.7" x2="1016.71" y2="408.2" fill="none" stroke="#e18686" stroke-miterlimit="10" stroke-width="3"/><line x1="1028.43" y1="449.7" x2="1028.43" y2="408.2" fill="none" stroke="#e18686" stroke-miterlimit="10" stroke-width="3"/><line x1="1040.16" y1="449.7" x2="1040.16" y2="408.2" fill="none" stroke="#e18686" stroke-miterlimit="10" stroke-width="3"/><line x1="1051.89" y1="449.7" x2="1051.89" y2="408.2" fill="none" stroke="#e18686" stroke-miterlimit="10" stroke-width="3"/><line x1="1063.61" y1="449.7" x2="1063.61" y2="408.2" fill="none" stroke="#e18686" stroke-miterlimit="10" stroke-width="3"/><line x1="1075.34" y1="449.7" x2="1075.34" y2="408.2" fill="none" stroke="#e18686" stroke-miterlimit="10" stroke-width="3"/><line x1="1087.06" y1="449.7" x2="1087.06" y2="408.2" fill="none" stroke="#e18686" stroke-miterlimit="10" stroke-width="3"/><line x1="1075" y1="928.5" x2="1075" y2="833" fill="none" stroke="#e18686" stroke-miterlimit="10" stroke-width="3"/><line x1="1062" y1="928.5" x2="1062" y2="833" fill="none" stroke="#e18686" stroke-miterlimit="10" stroke-width="3"/><line x1="1049" y1="928.5" x2="1049" y2="833" fill="none" stroke="#e18686" stroke-miterlimit="10" stroke-width="3"/><line x1="1036" y1="928.5" x2="1036" y2="833" fill="none" stroke="#e18686" stroke-miterlimit="10" stroke-width="3"/><line x1="1023" y1="928.5" x2="1023" y2="833" fill="none" stroke="#e18686" stroke-miterlimit="10" stroke-width="3"/><line x1="1010" y1="928.5" x2="1010" y2="833" fill="none" stroke="#e18686" stroke-miterlimit="10" stroke-width="3"/><line x1="997" y1="928.5" x2="997" y2="833" fill="none" stroke="#e18686" stroke-miterlimit="10" stroke-width="3"/><line x1="984" y1="928.5" x2="984" y2="833" fill="none" stroke="#e18686" stroke-miterlimit="10" stroke-width="3"/><line x1="971" y1="928.5" x2="971" y2="833" fill="none" stroke="#e18686" stroke-miterlimit="10" stroke-width="3"/><line x1="958" y1="928.5" x2="958" y2="833" fill="none" stroke="#e18686" stroke-miterlimit="10" stroke-width="3"/><line x1="945" y1="928.5" x2="945" y2="833" fill="none" stroke="#e18686" stroke-miterlimit="10" stroke-width="3"/><rect x="1002" y="97.5" width="65" height="183" transform="translate(2069 378) rotate(180)" fill="none" stroke="#e18686" stroke-miterlimit="10" stroke-width="3"/><rect x="1071" y="159.5" width="39" height="121" transform="translate(2181 440) rotate(180)" fill="none" stroke="#e18686" stroke-miterlimit="10" stroke-width="3"/><rect x="1115" y="113.5" width="100" height="46" transform="translate(2330 273) rotate(180)" fill="none" stroke="#e18686" stroke-miterlimit="10" stroke-width="3"/><line x1="1067" y1="214.5" x2="1002" y2="214.5" fill="none" stroke="#e18686" stroke-miterlimit="10" stroke-width="3"/><line x1="1067" y1="204.86" x2="1002" y2="204.86" fill="none" stroke="#e18686" stroke-miterlimit="10" stroke-width="3"/><line x1="1067" y1="195.23" x2="1002" y2="195.23" fill="none" stroke="#e18686" stroke-miterlimit="10" stroke-width="3"/><line x1="1067" y1="185.59" x2="1002" y2="185.59" fill="none" stroke="#e18686" stroke-miterlimit="10" stroke-width="3"/><line x1="1067" y1="175.95" x2="1002" y2="175.95" fill="none" stroke="#e18686" stroke-miterlimit="10" stroke-width="3"/><line x1="1067" y1="166.32" x2="1002" y2="166.32" fill="none" stroke="#e18686" stroke-miterlimit="10" stroke-width="3"/><line x1="1067" y1="156.68" x2="1002" y2="156.68" fill="none" stroke="#e18686" stroke-miterlimit="10" stroke-width="3"/><line x1="1067" y1="147.05" x2="1002" y2="147.05" fill="none" stroke="#e18686" stroke-miterlimit="10" stroke-width="3"/><line x1="1067" y1="137.41" x2="1002" y2="137.41" fill="none" stroke="#e18686" stroke-miterlimit="10" stroke-width="3"/><line x1="1067" y1="127.77" x2="1002" y2="127.77" fill="none" stroke="#e18686" stroke-miterlimit="10" stroke-width="3"/><line x1="1067" y1="118.14" x2="1002" y2="118.14" fill="none" stroke="#e18686" stroke-miterlimit="10" stroke-width="3"/><line x1="1067" y1="108.5" x2="1002" y2="108.5" fill="none" stroke="#e18686" stroke-miterlimit="10" stroke-width="3"/><line x1="1110" y1="268.5" x2="1071" y2="268.5" fill="none" stroke="#e18686" stroke-miterlimit="10" stroke-width="3"/><line x1="1110" y1="259.77" x2="1071" y2="259.77" fill="none" stroke="#e18686" stroke-miterlimit="10" stroke-width="3"/><line x1="1110" y1="251.05" x2="1071" y2="251.05" fill="none" stroke="#e18686" stroke-miterlimit="10" stroke-width="3"/><line x1="1110" y1="242.32" x2="1071" y2="242.32" fill="none" stroke="#e18686" stroke-miterlimit="10" stroke-width="3"/><line x1="1110" y1="233.59" x2="1071" y2="233.59" fill="none" stroke="#e18686" stroke-miterlimit="10" stroke-width="3"/><line x1="1110" y1="224.86" x2="1071" y2="224.86" fill="none" stroke="#e18686" stroke-miterlimit="10" stroke-width="3"/><line x1="1110" y1="216.14" x2="1071" y2="216.14" fill="none" stroke="#e18686" stroke-miterlimit="10" stroke-width="3"/><line x1="1110" y1="207.41" x2="1071" y2="207.41" fill="none" stroke="#e18686" stroke-miterlimit="10" stroke-width="3"/><line x1="1110" y1="198.68" x2="1071" y2="198.68" fill="none" stroke="#e18686" stroke-miterlimit="10" stroke-width="3"/><line x1="1110" y1="189.95" x2="1071" y2="189.95" fill="none" stroke="#e18686" stroke-miterlimit="10" stroke-width="3"/><line x1="1110" y1="181.23" x2="1071" y2="181.23" fill="none" stroke="#e18686" stroke-miterlimit="10" stroke-width="3"/><line x1="1110" y1="172.5" x2="1071" y2="172.5" fill="none" stroke="#e18686" stroke-miterlimit="10" stroke-width="3"/><line x1="1205" y1="159.5" x2="1205" y2="113.5" fill="none" stroke="#e18686" stroke-miterlimit="10" stroke-width="3"/><line x1="1195.12" y1="159.5" x2="1195.12" y2="113.5" fill="none" stroke="#e18686" stroke-miterlimit="10" stroke-width="3"/><line x1="1185.25" y1="159.5" x2="1185.25" y2="113.5" fill="none" stroke="#e18686" stroke-miterlimit="10" stroke-width="3"/><line x1="1175.38" y1="159.5" x2="1175.38" y2="113.5" fill="none" stroke="#e18686" stroke-miterlimit="10" stroke-width="3"/><line x1="1165.5" y1="159.5" x2="1165.5" y2="113.5" fill="none" stroke="#e18686" stroke-miterlimit="10" stroke-width="3"/><line x1="1155.62" y1="159.5" x2="1155.62" y2="113.5" fill="none" stroke="#e18686" stroke-miterlimit="10" stroke-width="3"/><line x1="1145.75" y1="159.5" x2="1145.75" y2="113.5" fill="none" stroke="#e18686" stroke-miterlimit="10" stroke-width="3"/><line x1="1135.88" y1="159.5" x2="1135.88" y2="113.5" fill="none" stroke="#e18686" stroke-miterlimit="10" stroke-width="3"/><line x1="1126" y1="159.5" x2="1126" y2="113.5" fill="none" stroke="#e18686" stroke-miterlimit="10" stroke-width="3"/><rect x="928" y="224.5" width="74" height="47" transform="translate(1930 496) rotate(180)" fill="none" stroke="#e18686" stroke-miterlimit="10" stroke-width="3"/><rect x="971" y="108.5" width="31" height="116" transform="translate(1973 333) rotate(180)" fill="none" stroke="#e18686" stroke-miterlimit="10" stroke-width="3"/><rect x="805" y="214.5" width="48" height="73" transform="translate(1658 502) rotate(180)" fill="none" stroke="#e18686" stroke-miterlimit="10" stroke-width="3"/><rect x="853" y="254.5" width="45" height="33" transform="translate(1751 542) rotate(180)" fill="none" stroke="#e18686" stroke-miterlimit="10" stroke-width="3"/><rect x="544.67" y="147.56" width="170.34" height="115.33" transform="translate(835.06 -424.61) rotate(90)" fill="none" stroke="#e18686" stroke-miterlimit="10" stroke-width="3"/><line x1="687.5" y1="134.43" x2="572.17" y2="134.43" fill="none" stroke="#e18686" stroke-miterlimit="10" stroke-width="3"/><line x1="687.5" y1="148.62" x2="572.17" y2="148.62" fill="none" stroke="#e18686" stroke-miterlimit="10" stroke-width="3"/><line x1="687.5" y1="162.81" x2="572.17" y2="162.81" fill="none" stroke="#e18686" stroke-miterlimit="10" stroke-width="3"/><line x1="687.5" y1="177.01" x2="572.17" y2="177.01" fill="none" stroke="#e18686" stroke-miterlimit="10" stroke-width="3"/><line x1="687.5" y1="191.2" x2="572.17" y2="191.2" fill="none" stroke="#e18686" stroke-miterlimit="10" stroke-width="3"/><line x1="687.5" y1="205.39" x2="572.17" y2="205.39" fill="none" stroke="#e18686" stroke-miterlimit="10" stroke-width="3"/><line x1="687.5" y1="219.58" x2="572.17" y2="219.58" fill="none" stroke="#e18686" stroke-miterlimit="10" stroke-width="3"/><line x1="687.5" y1="233.78" x2="572.17" y2="233.78" fill="none" stroke="#e18686" stroke-miterlimit="10" stroke-width="3"/><line x1="687.5" y1="247.97" x2="572.17" y2="247.97" fill="none" stroke="#e18686" stroke-miterlimit="10" stroke-width="3"/><line x1="687.5" y1="262.16" x2="572.17" y2="262.16" fill="none" stroke="#e18686" stroke-miterlimit="10" stroke-width="3"/><line x1="687.5" y1="276.36" x2="572.17" y2="276.36" fill="none" stroke="#e18686" stroke-miterlimit="10" stroke-width="3"/></g><g id="Layer_toilet1"><rect x="853" y="207.5" width="45" height="47" transform="translate(1751 462) rotate(180)" fill="none" stroke="#e18686" stroke-miterlimit="10" stroke-width="3"/></g><g id="Layer_toilet2"><polygon points="898 207.5 898 224.5 971 224.5 971 94.5 865 94.5 865 207.5 898 207.5" fill="none" stroke="#e18686" stroke-miterlimit="10" stroke-width="3"/></g><g id="Layer_toilet3"><polygon points="802 131.5 802 214.5 853 214.5 853 207.5 865 207.5 865 94.5 818 94.5 802 94.5 751 94.5 751 131.5 802 131.5" fill="none" stroke="#e18686" stroke-miterlimit="10" stroke-width="3"/></g><g id="Layer_toilet4"><rect x="759" y="131.5" width="43" height="54" transform="translate(1561 317) rotate(180)" fill="none" stroke="#e18686" stroke-miterlimit="10" stroke-width="3"/></g><g id="Layer_라운지"><rect x="552" y="604.5" width="234" height="324" transform="translate(1338 1533) rotate(180)" fill="none" stroke="#e18686" stroke-miterlimit="10" stroke-width="3"/><text transform="translate(617.24 764.8)" fill="#434142" font-family="NanumSquareNeovariable-Heavy, &apos;NanumSquare Neo variable&apos;" font-size="22" font-variation-settings="&apos;wght&apos; 900" font-weight="800"><tspan x="0" y="0">고려대학교</tspan><tspan x="-23.61" y="26.4">경영대학 역사관</tspan></text></g></svg>