<?xml version="1.0" encoding="UTF-8"?><svg
  xmlns="http://www.w3.org/2000/svg"
  viewBox="0 0 1920 1080"
>
  <g id="Layer_border">
    <polygon
      points="616 930 616 667 743 667 743 413 484 413 484 90 1484 90 1484 930 616 930"
      fill="#fdf3f2"
    />
    <path
      d="m1479,95v830h-858v-253h127v-264h-259V95h990m10-10H479v333h259v244h-127v273h878V85h0Z"
      fill="#e18686"
    />
  </g>
  <g id="Layer_others">
    <rect
      x="870.5"
      y="475.5"
      width="311"
      height="89"
      fill="none"
      stroke="#e18686"
      stroke-miterlimit="10"
      stroke-width="3"
    />
    <rect
      x="870.5"
      y="622.5"
      width="311"
      height="29"
      fill="none"
      stroke="#e18686"
      stroke-miterlimit="10"
      stroke-width="3"
    />
    <rect
      x="1201.5"
      y="622.5"
      width="192"
      height="29"
      fill="none"
      stroke="#e18686"
      stroke-miterlimit="10"
      stroke-width="3"
    />
    <rect
      x="1201.5"
      y="501.5"
      width="192"
      height="63"
      fill="none"
      stroke="#e18686"
      stroke-miterlimit="10"
      stroke-width="3"
    />
    <rect
      x="1415.5"
      y="95.5"
      width="63"
      height="322"
      fill="none"
      stroke="#e18686"
      stroke-miterlimit="10"
      stroke-width="3"
    />
    <rect
      x="1035.5"
      y="93.5"
      width="146"
      height="244"
      fill="none"
      stroke="#e18686"
      stroke-miterlimit="10"
      stroke-width="3"
    />
    <rect
      x="827.5"
      y="188.5"
      width="81"
      height="81"
      fill="none"
      stroke="#e18686"
      stroke-miterlimit="10"
      stroke-width="3"
    />
    <rect
      x="762.5"
      y="149.5"
      width="65"
      height="94"
      fill="none"
      stroke="#e18686"
      stroke-miterlimit="10"
      stroke-width="3"
    />
    <rect
      x="827.5"
      y="93.5"
      width="40"
      height="95"
      fill="none"
      stroke="#e18686"
      stroke-miterlimit="10"
      stroke-width="3"
    />
    <rect
      x="867.5"
      y="93.5"
      width="168"
      height="95"
      fill="none"
      stroke="#e18686"
      stroke-miterlimit="10"
      stroke-width="3"
    />
    <rect
      x="908.5"
      y="188.5"
      width="64"
      height="71"
      fill="none"
      stroke="#e18686"
      stroke-miterlimit="10"
      stroke-width="3"
    />
    <rect
      x="972.5"
      y="188.5"
      width="63"
      height="71"
      fill="none"
      stroke="#e18686"
      stroke-miterlimit="10"
      stroke-width="3"
    />
    <rect
      x="488.5"
      y="95.5"
      width="263"
      height="276"
      fill="none"
      stroke="#e18686"
      stroke-miterlimit="10"
      stroke-width="3"
    />
    <polygon
      points="852.5 740.5 746.5 740.5 746.5 671.5 620.5 671.5 620.5 932.5 746.5 932.5 746.5 862.5 852.5 862.5 852.5 740.5"
      fill="none"
      stroke="#e18686"
      stroke-miterlimit="10"
      stroke-width="3"
    />
    <rect
      x="1010.66"
      y="572.3"
      width="170.34"
      height="41.5"
      fill="none"
      stroke="#e18686"
      stroke-miterlimit="10"
      stroke-width="3.03"
    />
    <line
      x1="1025.04"
      y1="572.3"
      x2="1025.04"
      y2="613.8"
      fill="none"
      stroke="#e18686"
      stroke-miterlimit="10"
      stroke-width="3.03"
    />
    <line
      x1="1039.23"
      y1="572.3"
      x2="1039.23"
      y2="613.8"
      fill="none"
      stroke="#e18686"
      stroke-miterlimit="10"
      stroke-width="3.03"
    />
    <line
      x1="1053.42"
      y1="572.3"
      x2="1053.42"
      y2="613.8"
      fill="none"
      stroke="#e18686"
      stroke-miterlimit="10"
      stroke-width="3.03"
    />
    <line
      x1="1067.62"
      y1="572.3"
      x2="1067.62"
      y2="613.8"
      fill="none"
      stroke="#e18686"
      stroke-miterlimit="10"
      stroke-width="3.03"
    />
    <line
      x1="1081.81"
      y1="572.3"
      x2="1081.81"
      y2="613.8"
      fill="none"
      stroke="#e18686"
      stroke-miterlimit="10"
      stroke-width="3.03"
    />
    <line
      x1="1096"
      y1="572.3"
      x2="1096"
      y2="613.8"
      fill="none"
      stroke="#e18686"
      stroke-miterlimit="10"
      stroke-width="3.03"
    />
    <line
      x1="1110.19"
      y1="572.3"
      x2="1110.19"
      y2="613.8"
      fill="none"
      stroke="#e18686"
      stroke-miterlimit="10"
      stroke-width="3.03"
    />
    <line
      x1="1124.39"
      y1="572.3"
      x2="1124.39"
      y2="613.8"
      fill="none"
      stroke="#e18686"
      stroke-miterlimit="10"
      stroke-width="3.03"
    />
    <line
      x1="1138.58"
      y1="572.3"
      x2="1138.58"
      y2="613.8"
      fill="none"
      stroke="#e18686"
      stroke-miterlimit="10"
      stroke-width="3.03"
    />
    <line
      x1="1152.77"
      y1="572.3"
      x2="1152.77"
      y2="613.8"
      fill="none"
      stroke="#e18686"
      stroke-miterlimit="10"
      stroke-width="3.03"
    />
    <line
      x1="1166.97"
      y1="572.3"
      x2="1166.97"
      y2="613.8"
      fill="none"
      stroke="#e18686"
      stroke-miterlimit="10"
      stroke-width="3.03"
    />
    <rect
      x="870"
      y="572.3"
      width="126.66"
      height="41.5"
      transform="translate(1866.66 1186.1) rotate(180)"
      fill="none"
      stroke="#e18686"
      stroke-miterlimit="10"
      stroke-width="3"
    />
    <line
      x1="985.97"
      y1="572.3"
      x2="985.97"
      y2="613.8"
      fill="none"
      stroke="#e18686"
      stroke-miterlimit="10"
      stroke-width="3"
    />
    <line
      x1="974.24"
      y1="572.3"
      x2="974.24"
      y2="613.8"
      fill="none"
      stroke="#e18686"
      stroke-miterlimit="10"
      stroke-width="3"
    />
    <line
      x1="962.52"
      y1="572.3"
      x2="962.52"
      y2="613.8"
      fill="none"
      stroke="#e18686"
      stroke-miterlimit="10"
      stroke-width="3"
    />
    <line
      x1="950.79"
      y1="572.3"
      x2="950.79"
      y2="613.8"
      fill="none"
      stroke="#e18686"
      stroke-miterlimit="10"
      stroke-width="3"
    />
    <line
      x1="939.07"
      y1="572.3"
      x2="939.07"
      y2="613.8"
      fill="none"
      stroke="#e18686"
      stroke-miterlimit="10"
      stroke-width="3"
    />
    <line
      x1="927.34"
      y1="572.3"
      x2="927.34"
      y2="613.8"
      fill="none"
      stroke="#e18686"
      stroke-miterlimit="10"
      stroke-width="3"
    />
    <line
      x1="915.61"
      y1="572.3"
      x2="915.61"
      y2="613.8"
      fill="none"
      stroke="#e18686"
      stroke-miterlimit="10"
      stroke-width="3"
    />
    <line
      x1="903.89"
      y1="572.3"
      x2="903.89"
      y2="613.8"
      fill="none"
      stroke="#e18686"
      stroke-miterlimit="10"
      stroke-width="3"
    />
    <line
      x1="892.16"
      y1="572.3"
      x2="892.16"
      y2="613.8"
      fill="none"
      stroke="#e18686"
      stroke-miterlimit="10"
      stroke-width="3"
    />
    <line
      x1="880.44"
      y1="572.3"
      x2="880.44"
      y2="613.8"
      fill="none"
      stroke="#e18686"
      stroke-miterlimit="10"
      stroke-width="3"
    />
    <line
      x1="892.5"
      y1="93.5"
      x2="892.5"
      y2="189"
      fill="none"
      stroke="#e18686"
      stroke-miterlimit="10"
      stroke-width="3"
    />
    <line
      x1="905.5"
      y1="93.5"
      x2="905.5"
      y2="189"
      fill="none"
      stroke="#e18686"
      stroke-miterlimit="10"
      stroke-width="3"
    />
    <line
      x1="918.5"
      y1="93.5"
      x2="918.5"
      y2="189"
      fill="none"
      stroke="#e18686"
      stroke-miterlimit="10"
      stroke-width="3"
    />
    <line
      x1="931.5"
      y1="93.5"
      x2="931.5"
      y2="189"
      fill="none"
      stroke="#e18686"
      stroke-miterlimit="10"
      stroke-width="3"
    />
    <line
      x1="944.5"
      y1="93.5"
      x2="944.5"
      y2="189"
      fill="none"
      stroke="#e18686"
      stroke-miterlimit="10"
      stroke-width="3"
    />
    <line
      x1="957.5"
      y1="93.5"
      x2="957.5"
      y2="189"
      fill="none"
      stroke="#e18686"
      stroke-miterlimit="10"
      stroke-width="3"
    />
    <line
      x1="970.5"
      y1="93.5"
      x2="970.5"
      y2="189"
      fill="none"
      stroke="#e18686"
      stroke-miterlimit="10"
      stroke-width="3"
    />
    <line
      x1="983.5"
      y1="93.5"
      x2="983.5"
      y2="189"
      fill="none"
      stroke="#e18686"
      stroke-miterlimit="10"
      stroke-width="3"
    />
    <line
      x1="996.5"
      y1="93.5"
      x2="996.5"
      y2="189"
      fill="none"
      stroke="#e18686"
      stroke-miterlimit="10"
      stroke-width="3"
    />
    <line
      x1="1009.5"
      y1="93.5"
      x2="1009.5"
      y2="189"
      fill="none"
      stroke="#e18686"
      stroke-miterlimit="10"
      stroke-width="3"
    />
    <line
      x1="1022.5"
      y1="93.5"
      x2="1022.5"
      y2="189"
      fill="none"
      stroke="#e18686"
      stroke-miterlimit="10"
      stroke-width="3"
    />
    <rect
      x="900.5"
      y="741.5"
      width="65"
      height="183"
      fill="none"
      stroke="#e18686"
      stroke-miterlimit="10"
      stroke-width="3"
    />
    <rect
      x="857.5"
      y="741.5"
      width="39"
      height="121"
      fill="none"
      stroke="#e18686"
      stroke-miterlimit="10"
      stroke-width="3"
    />
    <rect
      x="752.5"
      y="862.5"
      width="100"
      height="46"
      fill="none"
      stroke="#e18686"
      stroke-miterlimit="10"
      stroke-width="3"
    />
    <line
      x1="900.5"
      y1="807.5"
      x2="965.5"
      y2="807.5"
      fill="none"
      stroke="#e18686"
      stroke-miterlimit="10"
      stroke-width="3"
    />
    <line
      x1="900.5"
      y1="817.14"
      x2="965.5"
      y2="817.14"
      fill="none"
      stroke="#e18686"
      stroke-miterlimit="10"
      stroke-width="3"
    />
    <line
      x1="900.5"
      y1="826.77"
      x2="965.5"
      y2="826.77"
      fill="none"
      stroke="#e18686"
      stroke-miterlimit="10"
      stroke-width="3"
    />
    <line
      x1="900.5"
      y1="836.41"
      x2="965.5"
      y2="836.41"
      fill="none"
      stroke="#e18686"
      stroke-miterlimit="10"
      stroke-width="3"
    />
    <line
      x1="900.5"
      y1="846.05"
      x2="965.5"
      y2="846.05"
      fill="none"
      stroke="#e18686"
      stroke-miterlimit="10"
      stroke-width="3"
    />
    <line
      x1="900.5"
      y1="855.68"
      x2="965.5"
      y2="855.68"
      fill="none"
      stroke="#e18686"
      stroke-miterlimit="10"
      stroke-width="3"
    />
    <line
      x1="900.5"
      y1="865.32"
      x2="965.5"
      y2="865.32"
      fill="none"
      stroke="#e18686"
      stroke-miterlimit="10"
      stroke-width="3"
    />
    <line
      x1="900.5"
      y1="874.95"
      x2="965.5"
      y2="874.95"
      fill="none"
      stroke="#e18686"
      stroke-miterlimit="10"
      stroke-width="3"
    />
    <line
      x1="900.5"
      y1="884.59"
      x2="965.5"
      y2="884.59"
      fill="none"
      stroke="#e18686"
      stroke-miterlimit="10"
      stroke-width="3"
    />
    <line
      x1="900.5"
      y1="894.23"
      x2="965.5"
      y2="894.23"
      fill="none"
      stroke="#e18686"
      stroke-miterlimit="10"
      stroke-width="3"
    />
    <line
      x1="900.5"
      y1="903.86"
      x2="965.5"
      y2="903.86"
      fill="none"
      stroke="#e18686"
      stroke-miterlimit="10"
      stroke-width="3"
    />
    <line
      x1="900.5"
      y1="913.5"
      x2="965.5"
      y2="913.5"
      fill="none"
      stroke="#e18686"
      stroke-miterlimit="10"
      stroke-width="3"
    />
    <line
      x1="857.5"
      y1="753.5"
      x2="896.5"
      y2="753.5"
      fill="none"
      stroke="#e18686"
      stroke-miterlimit="10"
      stroke-width="3"
    />
    <line
      x1="857.5"
      y1="762.23"
      x2="896.5"
      y2="762.23"
      fill="none"
      stroke="#e18686"
      stroke-miterlimit="10"
      stroke-width="3"
    />
    <line
      x1="857.5"
      y1="770.95"
      x2="896.5"
      y2="770.95"
      fill="none"
      stroke="#e18686"
      stroke-miterlimit="10"
      stroke-width="3"
    />
    <line
      x1="857.5"
      y1="779.68"
      x2="896.5"
      y2="779.68"
      fill="none"
      stroke="#e18686"
      stroke-miterlimit="10"
      stroke-width="3"
    />
    <line
      x1="857.5"
      y1="788.41"
      x2="896.5"
      y2="788.41"
      fill="none"
      stroke="#e18686"
      stroke-miterlimit="10"
      stroke-width="3"
    />
    <line
      x1="857.5"
      y1="797.14"
      x2="896.5"
      y2="797.14"
      fill="none"
      stroke="#e18686"
      stroke-miterlimit="10"
      stroke-width="3"
    />
    <line
      x1="857.5"
      y1="805.86"
      x2="896.5"
      y2="805.86"
      fill="none"
      stroke="#e18686"
      stroke-miterlimit="10"
      stroke-width="3"
    />
    <line
      x1="857.5"
      y1="814.59"
      x2="896.5"
      y2="814.59"
      fill="none"
      stroke="#e18686"
      stroke-miterlimit="10"
      stroke-width="3"
    />
    <line
      x1="857.5"
      y1="823.32"
      x2="896.5"
      y2="823.32"
      fill="none"
      stroke="#e18686"
      stroke-miterlimit="10"
      stroke-width="3"
    />
    <line
      x1="857.5"
      y1="832.05"
      x2="896.5"
      y2="832.05"
      fill="none"
      stroke="#e18686"
      stroke-miterlimit="10"
      stroke-width="3"
    />
    <line
      x1="857.5"
      y1="840.77"
      x2="896.5"
      y2="840.77"
      fill="none"
      stroke="#e18686"
      stroke-miterlimit="10"
      stroke-width="3"
    />
    <line
      x1="857.5"
      y1="849.5"
      x2="896.5"
      y2="849.5"
      fill="none"
      stroke="#e18686"
      stroke-miterlimit="10"
      stroke-width="3"
    />
    <line
      x1="762.5"
      y1="862.5"
      x2="762.5"
      y2="908.5"
      fill="none"
      stroke="#e18686"
      stroke-miterlimit="10"
      stroke-width="3"
    />
    <line
      x1="772.38"
      y1="862.5"
      x2="772.38"
      y2="908.5"
      fill="none"
      stroke="#e18686"
      stroke-miterlimit="10"
      stroke-width="3"
    />
    <line
      x1="782.25"
      y1="862.5"
      x2="782.25"
      y2="908.5"
      fill="none"
      stroke="#e18686"
      stroke-miterlimit="10"
      stroke-width="3"
    />
    <line
      x1="792.12"
      y1="862.5"
      x2="792.12"
      y2="908.5"
      fill="none"
      stroke="#e18686"
      stroke-miterlimit="10"
      stroke-width="3"
    />
    <line
      x1="802"
      y1="862.5"
      x2="802"
      y2="908.5"
      fill="none"
      stroke="#e18686"
      stroke-miterlimit="10"
      stroke-width="3"
    />
    <line
      x1="811.88"
      y1="862.5"
      x2="811.88"
      y2="908.5"
      fill="none"
      stroke="#e18686"
      stroke-miterlimit="10"
      stroke-width="3"
    />
    <line
      x1="821.75"
      y1="862.5"
      x2="821.75"
      y2="908.5"
      fill="none"
      stroke="#e18686"
      stroke-miterlimit="10"
      stroke-width="3"
    />
    <line
      x1="831.62"
      y1="862.5"
      x2="831.62"
      y2="908.5"
      fill="none"
      stroke="#e18686"
      stroke-miterlimit="10"
      stroke-width="3"
    />
    <line
      x1="841.5"
      y1="862.5"
      x2="841.5"
      y2="908.5"
      fill="none"
      stroke="#e18686"
      stroke-miterlimit="10"
      stroke-width="3"
    />
    <rect
      x="965.5"
      y="750.5"
      width="74"
      height="47"
      fill="none"
      stroke="#e18686"
      stroke-miterlimit="10"
      stroke-width="3"
    />
    <rect
      x="965.5"
      y="797.5"
      width="31"
      height="116"
      fill="none"
      stroke="#e18686"
      stroke-miterlimit="10"
      stroke-width="3"
    />
    <rect
      x="1114.5"
      y="734.5"
      width="48"
      height="73"
      fill="none"
      stroke="#e18686"
      stroke-miterlimit="10"
      stroke-width="3"
    />
    <rect
      x="1069.5"
      y="734.5"
      width="45"
      height="33"
      fill="none"
      stroke="#e18686"
      stroke-miterlimit="10"
      stroke-width="3"
    />
    <rect
      x="1252.49"
      y="759.11"
      width="170.34"
      height="115.33"
      transform="translate(520.89 2154.44) rotate(-90)"
      fill="none"
      stroke="#e18686"
      stroke-miterlimit="10"
      stroke-width="3"
    />
    <line
      x1="1280"
      y1="887.57"
      x2="1395.33"
      y2="887.57"
      fill="none"
      stroke="#e18686"
      stroke-miterlimit="10"
      stroke-width="3"
    />
    <line
      x1="1280"
      y1="873.38"
      x2="1395.33"
      y2="873.38"
      fill="none"
      stroke="#e18686"
      stroke-miterlimit="10"
      stroke-width="3"
    />
    <line
      x1="1280"
      y1="859.19"
      x2="1395.33"
      y2="859.19"
      fill="none"
      stroke="#e18686"
      stroke-miterlimit="10"
      stroke-width="3"
    />
    <line
      x1="1280"
      y1="844.99"
      x2="1395.33"
      y2="844.99"
      fill="none"
      stroke="#e18686"
      stroke-miterlimit="10"
      stroke-width="3"
    />
    <line
      x1="1280"
      y1="830.8"
      x2="1395.33"
      y2="830.8"
      fill="none"
      stroke="#e18686"
      stroke-miterlimit="10"
      stroke-width="3"
    />
    <line
      x1="1280"
      y1="816.61"
      x2="1395.33"
      y2="816.61"
      fill="none"
      stroke="#e18686"
      stroke-miterlimit="10"
      stroke-width="3"
    />
    <line
      x1="1280"
      y1="802.42"
      x2="1395.33"
      y2="802.42"
      fill="none"
      stroke="#e18686"
      stroke-miterlimit="10"
      stroke-width="3"
    />
    <line
      x1="1280"
      y1="788.22"
      x2="1395.33"
      y2="788.22"
      fill="none"
      stroke="#e18686"
      stroke-miterlimit="10"
      stroke-width="3"
    />
    <line
      x1="1280"
      y1="774.03"
      x2="1395.33"
      y2="774.03"
      fill="none"
      stroke="#e18686"
      stroke-miterlimit="10"
      stroke-width="3"
    />
    <line
      x1="1280"
      y1="759.84"
      x2="1395.33"
      y2="759.84"
      fill="none"
      stroke="#e18686"
      stroke-miterlimit="10"
      stroke-width="3"
    />
    <line
      x1="1280"
      y1="745.64"
      x2="1395.33"
      y2="745.64"
      fill="none"
      stroke="#e18686"
      stroke-miterlimit="10"
      stroke-width="3"
    />
  </g>
  <g id="Layer_toilet1">
    <rect
      x="1069.5"
      y="767.5"
      width="45"
      height="47"
      fill="none"
      stroke="#e18686"
      stroke-miterlimit="10"
      stroke-width="3"
    />
  </g>
  <g id="Layer_toilet2">
    <polygon
      points="1069.5 814.5 1069.5 797.5 996.5 797.5 996.5 927.5 1102.5 927.5 1102.5 814.5 1069.5 814.5"
      fill="none"
      stroke="#e18686"
      stroke-miterlimit="10"
      stroke-width="3"
    />
  </g>
  <g id="Layer_toilet3">
    <polygon
      points="1165.5 890.5 1165.5 807.5 1114.5 807.5 1114.5 814.5 1102.5 814.5 1102.5 927.5 1149.5 927.5 1165.5 927.5 1216.5 927.5 1216.5 890.5 1165.5 890.5"
      fill="none"
      stroke="#e18686"
      stroke-miterlimit="10"
      stroke-width="3"
    />
  </g>
  <g id="Layer_toilet4">
    <rect
      x="1165.5"
      y="836.5"
      width="43"
      height="54"
      fill="none"
      stroke="#e18686"
      stroke-miterlimit="10"
      stroke-width="3"
    />
  </g>
  <g id="Layer_라운지">
    <rect
      x="1181.5"
      y="93.5"
      width="234"
      height="324"
      fill="none"
      stroke="#e18686"
      stroke-miterlimit="10"
      stroke-width="3"
    />
    <text
      transform="translate(1245.98 241.87)"
      fill="#434142"
      font-family="NanumSquareNeovariable-Heavy, 'NanumSquare Neo variable'"
      font-size="22"
      font-variation-settings="'wght' 900"
      font-weight="800"
    >
      <tspan x="0" y="0">고려대학교</tspan>
      <tspan x="-23.61" y="26.4">경영대학 역사관</tspan>
    </text>
  </g>
</svg>
