<?xml version="1.0" encoding="UTF-8"?><svg xmlns="http://www.w3.org/2000/svg" viewBox="0 0 1920 1080"><g id="Layer_border"><polygon points="1667.5 235.5 224.5 235.5 224.5 760.5 404.5 760.5 404.5 817.5 998.5 817.5 998.5 760.5 1667.5 760.5 1667.5 235.5" fill="#fdf3f2" stroke="#e18686" stroke-miterlimit="10" stroke-width="5"/></g><g id="Layer_others"><rect x="573.5" y="560.5" width="81" height="60" fill="none" stroke="#e18686" stroke-miterlimit="10" stroke-width="2"/><rect x="679.78" y="276.99" width="175.23" height="96.79" transform="translate(442.01 1092.78) rotate(-90)" fill="none" stroke="#e18686" stroke-miterlimit="10" stroke-width="2"/><line x1="719" y1="373.71" x2="815.79" y2="373.71" fill="none" stroke="#e18686" stroke-miterlimit="10" stroke-width="2"/><line x1="719" y1="358.12" x2="815.79" y2="358.12" fill="none" stroke="#e18686" stroke-miterlimit="10" stroke-width="2"/><line x1="719" y1="342.53" x2="815.79" y2="342.53" fill="none" stroke="#e18686" stroke-miterlimit="10" stroke-width="2"/><line x1="719" y1="326.94" x2="815.79" y2="326.94" fill="none" stroke="#e18686" stroke-miterlimit="10" stroke-width="2"/><line x1="719" y1="311.35" x2="815.79" y2="311.35" fill="none" stroke="#e18686" stroke-miterlimit="10" stroke-width="2"/><line x1="719" y1="295.77" x2="815.79" y2="295.77" fill="none" stroke="#e18686" stroke-miterlimit="10" stroke-width="2"/><line x1="719" y1="280.18" x2="815.79" y2="280.18" fill="none" stroke="#e18686" stroke-miterlimit="10" stroke-width="2"/><line x1="719" y1="264.59" x2="815.79" y2="264.59" fill="none" stroke="#e18686" stroke-miterlimit="10" stroke-width="2"/><line x1="719" y1="249" x2="815.79" y2="249" fill="none" stroke="#e18686" stroke-miterlimit="10" stroke-width="2"/><rect x="573.5" y="504" width="81" height="56.5" fill="none" stroke="#e18686" stroke-miterlimit="10" stroke-width="2"/><line x1="422" y1="758" x2="422" y2="815" fill="none" stroke="#e18686" stroke-miterlimit="10" stroke-width="2"/><line x1="434.73" y1="758" x2="434.73" y2="815" fill="none" stroke="#e18686" stroke-miterlimit="10" stroke-width="2"/><line x1="447.45" y1="758" x2="447.45" y2="815" fill="none" stroke="#e18686" stroke-miterlimit="10" stroke-width="2"/><line x1="460.18" y1="758" x2="460.18" y2="815" fill="none" stroke="#e18686" stroke-miterlimit="10" stroke-width="2"/><line x1="472.91" y1="758" x2="472.91" y2="815" fill="none" stroke="#e18686" stroke-miterlimit="10" stroke-width="2"/><line x1="485.64" y1="758" x2="485.64" y2="815" fill="none" stroke="#e18686" stroke-miterlimit="10" stroke-width="2"/><line x1="498.36" y1="758" x2="498.36" y2="815" fill="none" stroke="#e18686" stroke-miterlimit="10" stroke-width="2"/><line x1="511.09" y1="758" x2="511.09" y2="815" fill="none" stroke="#e18686" stroke-miterlimit="10" stroke-width="2"/><line x1="523.82" y1="758" x2="523.82" y2="815" fill="none" stroke="#e18686" stroke-miterlimit="10" stroke-width="2"/><line x1="536.55" y1="758" x2="536.55" y2="815" fill="none" stroke="#e18686" stroke-miterlimit="10" stroke-width="2"/><line x1="549.27" y1="758" x2="549.27" y2="815" fill="none" stroke="#e18686" stroke-miterlimit="10" stroke-width="2"/><line x1="562" y1="758" x2="562" y2="815" fill="none" stroke="#e18686" stroke-miterlimit="10" stroke-width="2"/><line x1="910" y1="707" x2="837.34" y2="707" fill="none" stroke="#e18686" stroke-miterlimit="10" stroke-width="2"/><line x1="910" y1="719.43" x2="837.34" y2="719.43" fill="none" stroke="#e18686" stroke-miterlimit="10" stroke-width="2"/><line x1="910" y1="731.86" x2="837.34" y2="731.86" fill="none" stroke="#e18686" stroke-miterlimit="10" stroke-width="2"/><line x1="910" y1="744.28" x2="837.34" y2="744.28" fill="none" stroke="#e18686" stroke-miterlimit="10" stroke-width="2"/><line x1="910" y1="756.71" x2="837.34" y2="756.71" fill="none" stroke="#e18686" stroke-miterlimit="10" stroke-width="2"/><line x1="910" y1="769.14" x2="837.34" y2="769.14" fill="none" stroke="#e18686" stroke-miterlimit="10" stroke-width="2"/><line x1="910" y1="781.57" x2="837.34" y2="781.57" fill="none" stroke="#e18686" stroke-miterlimit="10" stroke-width="2"/><line x1="910" y1="794" x2="837.34" y2="794" fill="none" stroke="#e18686" stroke-miterlimit="10" stroke-width="2"/><line x1="910" y1="806.42" x2="837.34" y2="806.42" fill="none" stroke="#e18686" stroke-miterlimit="10" stroke-width="2"/><rect x="996" y="238" width="147" height="175" transform="translate(2139 651) rotate(180)" fill="none" stroke="#e18686" stroke-miterlimit="10" stroke-width="2"/></g><g id="Layer_B105"><rect x="227" y="238.5" width="115" height="106" fill="#f8cdce" stroke="#e18686" stroke-miterlimit="10" stroke-width="2"/><text transform="translate(255.07 282.62)" fill="#434142" font-family="NanumSquareNeovariable-Heavy, &apos;NanumSquare Neo variable&apos;" font-size="22" font-variation-settings="&apos;wght&apos; 900" font-weight="800"><tspan x="0" y="0">B105</tspan></text><text transform="translate(253.7 312.62)" fill="#434142" font-family="NanumSquareNeovariable-Regular, &apos;NanumSquare Neo variable&apos;" font-size="22" font-variation-settings="&apos;wght&apos; 300"><tspan x="0" y="0">기계실</tspan></text></g><g id="Layer_B104"><polygon points="341 238.5 341 345 227 345 227 633 227 758 363 758 574 758 574 633 574 372.5 574 345 574 238.5 341 238.5" fill="#f8cdce" stroke="#e18686" stroke-miterlimit="10" stroke-width="2"/><text transform="translate(373.59 459.04)" fill="#434142" font-family="NanumSquareNeovariable-Heavy, &apos;NanumSquare Neo variable&apos;" font-size="22" font-variation-settings="&apos;wght&apos; 900" font-weight="800"><tspan x="0" y="0">B104</tspan></text><text transform="translate(372.41 489.04)" fill="#434142" font-family="NanumSquareNeovariable-Regular, &apos;NanumSquare Neo variable&apos;" font-size="22" font-variation-settings="&apos;wght&apos; 300"><tspan x="0" y="0">전기실</tspan></text></g><g id="Layer_B103"><polygon points="654.5 599 654.5 620.5 574 620.5 574 815 837 815 837 599 654.5 599" fill="#f8cdce" stroke="#e18686" stroke-miterlimit="10" stroke-width="2"/><text transform="translate(680.02 702.9)" fill="#434142" font-family="NanumSquareNeovariable-Heavy, &apos;NanumSquare Neo variable&apos;" font-size="22" font-variation-settings="&apos;wght&apos; 900" font-weight="800"><tspan x="0" y="0">B103</tspan></text><text transform="translate(650.65 732.9)" fill="#434142" font-family="NanumSquareNeovariable-Regular, &apos;NanumSquare Neo variable&apos;" font-size="22" font-variation-settings="&apos;wght&apos; 300"><tspan x="0" y="0">교수라운지2</tspan></text></g><g id="Layer_toilet1"><rect x="573.5" y="238.5" width="114" height="84" fill="none" stroke="#e18686" stroke-miterlimit="10" stroke-width="2"/></g><g id="Layer_toilet2"><rect x="573.5" y="322.5" width="114" height="90.5" fill="none" stroke="#e18686" stroke-miterlimit="10" stroke-width="2"/></g><g id="Layer_B108"><polygon points="886.57 365.64 886.21 363.29 885.13 361.12 883.5 359.31 881.15 358.22 878.8 357.86 876.44 358.22 874.27 359.31 872.47 361.12 871.38 363.29 871.02 365.64 871.38 368.17 872.47 370.34 874.27 372.15 876.44 373.24 878.8 373.6 881.15 373.24 883.5 372.15 885.13 370.34 886.21 368.17 886.57 365.64" fill="none" stroke="#ffc7c7" stroke-miterlimit="10" stroke-width="2"/><polygon points="946.26 302.7 945.72 300.35 944.63 298 943 296.37 940.83 295.28 938.3 294.92 935.95 295.28 933.78 296.37 931.97 298 930.88 300.35 930.52 302.7 930.88 305.05 931.97 307.22 933.78 309.03 935.95 310.11 938.3 310.48 940.83 310.11 943 309.03 944.63 307.22 945.72 305.05 946.26 302.7" fill="none" stroke="#ffc7c7" stroke-miterlimit="10" stroke-width="2"/><polygon points="887.48 290.4 887.12 287.87 886.03 285.7 884.22 283.89 882.05 282.8 879.52 282.44 877.17 282.8 875 283.89 873.19 285.7 872.1 287.87 871.74 290.4 872.1 292.75 873.19 294.92 875 296.73 877.17 297.82 879.52 298.18 882.05 297.82 884.22 296.73 886.03 294.92 887.12 292.75 887.48 290.4" fill="none" stroke="#ffc7c7" stroke-miterlimit="10" stroke-width="2"/><polyline points="911.35 267.25 908.1 263.27 904.3 259.83 900.14 256.76 895.43 254.41 890.73 252.6 885.67 251.51 880.6 251.15 875.36 251.33 870.29 252.24 865.41 253.68 860.89 255.86 856.55 258.57" fill="none" stroke="#ffc7c7" stroke-miterlimit="10" stroke-width="2"/><polyline points="897.61 277.2 895.07 274.3 892 271.95 888.56 269.96 884.94 268.7 881.15 268.15 877.17 268.15 873.37 268.88 869.75 270.32 866.5 272.31" fill="none" stroke="#ffc7c7" stroke-miterlimit="10" stroke-width="2"/><polyline points="907.55 269.96 904.48 266.16 900.68 262.91 896.52 260.2 892.18 258.03 887.48 256.58 882.59 255.86 877.53 255.67 872.65 256.4 867.94 257.66 863.42 259.65 859.08 262.37" fill="none" stroke="#ffc7c7" stroke-miterlimit="10" stroke-width="2"/><path d="m962.36,339.23l15.01-7.96m-17.72-22.07l16.28,5.06m-78.31-37.08l13.75-9.95m-44.85,5.06l-9.95-13.75" fill="none" stroke="#ffc7c7" stroke-miterlimit="10" stroke-width="2"/><polyline points="959.64 309.21 958.38 314.27 957.83 319.34 958.01 324.4 958.92 329.47 960.37 334.53 962.36 339.23" fill="none" stroke="#ffc7c7" stroke-miterlimit="10" stroke-width="2"/><polyline points="975.92 314.27 975.02 317.71 974.83 321.15 975.2 324.58 976.1 328.02 977.37 331.28" fill="none" stroke="#ffc7c7" stroke-miterlimit="10" stroke-width="2"/><polyline points="971.4 312.83 970.49 316.99 970.31 321.15 970.67 325.31 971.76 329.47 973.39 333.27" fill="none" stroke="#ffc7c7" stroke-miterlimit="10" stroke-width="2"/><path d="m973.03,284.25l-15.01,7.96m17.91,22.07l-16.28-5.06" fill="none" stroke="#ffc7c7" stroke-miterlimit="10" stroke-width="2"/><polyline points="975.92 314.27 977.01 309.21 977.55 304.15 977.37 299.08 976.64 294.02 975.2 288.95 973.03 284.25" fill="none" stroke="#ffc7c7" stroke-miterlimit="10" stroke-width="2"/><polyline points="959.64 309.21 960.37 305.77 960.55 302.34 960.18 298.9 959.46 295.46 958.01 292.21" fill="none" stroke="#ffc7c7" stroke-miterlimit="10" stroke-width="2"/><polyline points="971.4 312.83 972.48 308.49 973.03 303.97 972.85 299.44 972.12 294.92 970.86 290.58 969.05 286.42" fill="none" stroke="#ffc7c7" stroke-miterlimit="10" stroke-width="2"/><polyline points="973.03 284.25 970.31 279.91 967.06 275.93 963.44 272.49 959.28 269.42 954.76 267.07 949.88 265.26 944.81 263.99 939.75 263.45 934.68 263.63 929.62 264.36 924.74 265.98 920.03 267.97" fill="none" stroke="#ffc7c7" stroke-miterlimit="10" stroke-width="2"/><polyline points="958.01 292.21 955.84 288.95 953.31 286.24 950.24 283.89 946.62 282.08 943 281 939.2 280.45 935.23 280.63 931.43 281.54 927.99 282.99" fill="none" stroke="#ffc7c7" stroke-miterlimit="10" stroke-width="2"/><polyline points="969.05 286.42 966.33 282.26 963.08 278.46 959.46 275.21 955.3 272.49 950.96 270.32 946.08 268.88 941.19 268.15 936.31 268.15 931.43 268.7 926.72 269.96 922.2 271.95" fill="none" stroke="#ffc7c7" stroke-miterlimit="10" stroke-width="2"/><path d="m958.01,292.21l15.01-7.96m-45.04-1.27l-7.96-15.01" fill="none" stroke="#ffc7c7" stroke-miterlimit="10" stroke-width="2"/><polyline points="856.55 258.57 852.57 261.82 849.13 265.62 846.06 269.78 843.71 274.48 841.9 279.19 840.81 284.25 840.27 289.32 840.63 294.56 841.36 299.62 842.98 304.51 845.15 309.03 847.87 313.37" fill="none" stroke="#ffc7c7" stroke-miterlimit="10" stroke-width="2"/><polyline points="866.5 272.31 863.6 274.85 861.07 277.92 859.26 281.36 858 284.97 857.45 288.77 857.45 292.75 858.18 296.55 859.62 300.17 861.61 303.42" fill="none" stroke="#ffc7c7" stroke-miterlimit="10" stroke-width="2"/><polyline points="859.08 262.37 855.46 265.44 852.03 269.24 849.31 273.4 847.32 277.74 845.88 282.44 844.97 287.33 844.97 292.39 845.7 297.27 846.96 301.98 848.95 306.5 851.48 310.66" fill="none" stroke="#ffc7c7" stroke-miterlimit="10" stroke-width="2"/><path d="m861.61,303.42l-13.75,9.95m18.63-41.06l-9.95-13.75" fill="none" stroke="#ffc7c7" stroke-miterlimit="10" stroke-width="2"/><polyline points="861.61 401.09 866.5 402.9 871.38 404.35 876.44 404.89 881.69 404.89 886.75 404.16 891.64 402.72 896.34 400.73 900.86 398.2 904.84 395.12 908.46 391.32 911.53 387.34 914.06 382.82" fill="none" stroke="#ffc7c7" stroke-miterlimit="10" stroke-width="2"/><polyline points="869.03 385.72 872.65 387.16 876.44 387.89 880.42 387.89 884.22 387.34 887.84 386.08 891.28 384.09 894.35 381.74 896.88 378.84 898.87 375.41" fill="none" stroke="#ffc7c7" stroke-miterlimit="10" stroke-width="2"/><polyline points="863.6 396.93 868.31 398.74 873.01 399.82 878.07 400.37 882.96 400.19 887.84 399.28 892.54 397.65 896.88 395.3 900.86 392.41 904.48 388.97 907.55 385.17 910.09 380.83" fill="none" stroke="#ffc7c7" stroke-miterlimit="10" stroke-width="2"/><path d="m860.53,326.03l-16.1,5.61m14.29,24.42l-15.19-7.42m25.5,37.08l-7.42,15.37m37.26-25.68l15.19,7.42" fill="none" stroke="#ffc7c7" stroke-miterlimit="10" stroke-width="2"/><polyline points="858.72 356.05 860.71 351.17 861.97 346.29 862.7 341.22 862.7 335.98 861.97 330.91 860.53 326.03" fill="none" stroke="#ffc7c7" stroke-miterlimit="10" stroke-width="2"/><polyline points="843.53 348.64 844.79 345.38 845.52 341.95 845.7 338.51 845.34 334.89 844.43 331.64" fill="none" stroke="#ffc7c7" stroke-miterlimit="10" stroke-width="2"/><polyline points="847.69 350.63 849.13 346.65 850.04 342.49 850.22 338.33 849.86 334.17 848.77 330.01" fill="none" stroke="#ffc7c7" stroke-miterlimit="10" stroke-width="2"/><polyline points="843.53 348.64 841.54 353.34 840.27 358.22 839.55 363.47 839.73 368.53 840.27 373.6 841.72 378.48 843.71 383.37 846.24 387.71 849.5 391.87 853.11 395.3 857.27 398.56 861.61 401.09" fill="none" stroke="#ffc7c7" stroke-miterlimit="10" stroke-width="2"/><polyline points="858.72 356.05 857.45 359.67 856.73 363.47 856.55 367.27 857.27 371.07 858.54 374.86 860.35 378.12 862.88 381.19 865.77 383.73 869.03 385.72" fill="none" stroke="#ffc7c7" stroke-miterlimit="10" stroke-width="2"/><polyline points="847.69 350.63 845.7 355.15 844.61 360.03 844.07 364.92 844.43 369.8 845.34 374.68 846.96 379.39 849.13 383.73 852.03 387.89 855.46 391.32 859.44 394.4 863.6 396.93" fill="none" stroke="#ffc7c7" stroke-miterlimit="10" stroke-width="2"/><path d="m858.72,356.05l-15.19-7.42m25.5,37.08l-7.42,15.37" fill="none" stroke="#ffc7c7" stroke-miterlimit="10" stroke-width="2"/><rect x="816" y="238" width="180" height="175" fill="none" stroke="#e18686" stroke-miterlimit="10" stroke-width="2"/><text transform="translate(879.54 316.69)" fill="#434142" font-family="NanumSquareNeovariable-Heavy, &apos;NanumSquare Neo variable&apos;" font-size="22" font-variation-settings="&apos;wght&apos; 900" font-weight="800"><tspan x="0" y="0">B108</tspan></text><text transform="translate(857.77 346.69)" fill="#434142" font-family="NanumSquareNeovariable-Regular, &apos;NanumSquare Neo variable&apos;" font-size="22" font-variation-settings="&apos;wght&apos; 300"><tspan x="0" y="0">자유토론실</tspan></text></g><g id="Layer_B102"><polygon points="1666 501 837 501 837 698 910 698 910 758 910 816 997 816 997 758 1666 758 1666 501" fill="#f8cdce" stroke="#e18686" stroke-miterlimit="10" stroke-width="2"/><text transform="translate(1225.59 612.38)" fill="#434142" font-family="NanumSquareNeovariable-Heavy, &apos;NanumSquare Neo variable&apos;" font-size="22" font-variation-settings="&apos;wght&apos; 900" font-weight="800"><tspan x="0" y="0">B102</tspan></text><text transform="translate(1203.37 642.38)" fill="#434142" font-family="NanumSquareNeovariable-Regular, &apos;NanumSquare Neo variable&apos;" font-size="22" font-variation-settings="&apos;wght&apos; 300"><tspan x="0" y="0">법학도서실</tspan></text></g><g id="Layer_B101"><rect x="1142.41" y="237" width="524" height="263" fill="#f8cdce" stroke="#e18686" stroke-miterlimit="10" stroke-width="2"/><text transform="translate(1376.53 356.68)" fill="#434142" font-family="NanumSquareNeovariable-Heavy, &apos;NanumSquare Neo variable&apos;" font-size="22" font-variation-settings="&apos;wght&apos; 900" font-weight="800"><tspan x="0" y="0">B101</tspan></text><text transform="translate(1352.27 386.68)" fill="#434142" font-family="NanumSquareNeovariable-Regular, &apos;NanumSquare Neo variable&apos;" font-size="22" font-variation-settings="&apos;wght&apos; 300"><tspan x="0" y="0">학술회의실</tspan></text></g></svg>