<?xml version="1.0" encoding="UTF-8"?>
<svg id="_x31_" xmlns="http://www.w3.org/2000/svg" viewBox="0 0 1058.58 507.77">
  <defs>
    <style>
      .cls-1, .cls-2, .cls-3 {
        fill: #231f20;
        font-family: NanumSquareNeoTTF-dEb, 'NanumSquare Neo';
      }

      .cls-4 {
        stroke: #eb8b8b;
      }

      .cls-4, .cls-5 {
        fill: none;
      }

      .cls-4, .cls-5, .cls-6, .cls-7 {
        stroke-miterlimit: 10;
      }

      .cls-8 {
        font-size: 8px;
      }

      .cls-5, .cls-6 {
        stroke-width: 3px;
      }

      .cls-5, .cls-6, .cls-7 {
        stroke: #f48589;
      }

      .cls-6 {
        fill: #facbcf;
      }

      .cls-9, .cls-3 {
        font-size: 12px;
      }

      .cls-2 {
        font-size: 9px;
      }

      .cls-7 {
        fill: #fef2f2;
        stroke-width: 10px;
      }
    </style>
  </defs>
  <g id="Layer_x5F_border-3" data-name="Layer_x5F_border">
    <polygon class="cls-7" points="151.05 189.53 87.91 189.53 87.91 250.22 151.05 250.22 151.05 387.52 896.54 387.52 896.54 50.77 151.55 50.77 151.05 189.53"/>
  </g>
  <g id="Layer_31">
    <rect class="cls-6" x="151.55" y="250.22" width="83.22" height="137.31"/>
    <text class="cls-3" transform="translate(182.93 314.65)"><tspan x="0" y="0">114</tspan><tspan x="-18.2" y="14.4">독립기구실</tspan></text>
  </g>
  <g id="Layer_32">
    <rect class="cls-6" x="234.77" y="250.22" width="50.56" height="137.31"/>
    <text class="cls-3" transform="translate(249.97 307.45)"><tspan x="0" y="0">115</tspan><tspan x="-1.29" y="14.4">교수</tspan><tspan x="-6.98" y="28.8">연구실</tspan></text>
  </g>
  <g id="Layer_33">
    <rect class="cls-6" x="285.33" y="250.22" width="43.17" height="137.31"/>
    <text class="cls-3" transform="translate(296.71 293.05)"><tspan x="0" y="0">116</tspan><tspan x="-1.17" y="14.4">심리</tspan><tspan x="-6.86" y="28.8">데이터</tspan><tspan x="-1.17" y="43.2">과학</tspan><tspan x="-6.86" y="57.6">실험실</tspan></text>
  </g>
  <g id="Layer_12">
    <rect class="cls-5" x="737.21" y="50.77" width="72.12" height="141.16"/>
  </g>
  <g id="Layer_13">
    <rect class="cls-5" x="664.97" y="50.77" width="72.25" height="141.16"/>
  </g>
  <g id="Layer_14">
    <rect class="cls-6" x="519.94" y="50.77" width="145.03" height="141.16"/>
    <text class="cls-3" transform="translate(580.81 102.73)"><tspan x="0" y="0">109</tspan><tspan x="-11.11" y="14.4">심리학부</tspan><tspan x="-18.46" y="28.8">교육연구단,</tspan><tspan x="-5.42" y="43.2">행정실</tspan></text>
  </g>
  <g id="Layer_15">
    <rect class="cls-6" x="448.74" y="50.77" width="71.19" height="141.16"/>
    <text class="cls-3" transform="translate(473.99 109.93)"><tspan x="0" y="0">110</tspan><tspan x="-1.03" y="14.4">교수</tspan><tspan x="-6.71" y="28.8">연구실</tspan></text>
  </g>
  <g id="Layer_16">
    <rect class="cls-6" x="377.55" y="50.77" width="71.19" height="141.16"/>
    <text class="cls-3" transform="translate(404.24 109.93)"><tspan x="0" y="0">111</tspan><tspan x="-2.47" y="14.4">교수</tspan><tspan x="-8.15" y="28.8">연구실</tspan></text>
  </g>
  <g id="Layer_17">
    <rect class="cls-6" x="328.5" y="51.01" width="49.05" height="140.91"/>
    <text class="cls-3" transform="translate(342.95 112.75)"><tspan x="0" y="0">112</tspan><tspan x="-1.3" y="14.4">교수</tspan><tspan x="-6.98" y="28.8">연구실</tspan></text>
  </g>
  <g id="Layer_18">
    <rect class="cls-6" x="283.15" y="51.45" width="45.35" height="140.48"/>
    <text class="cls-3" transform="translate(295.62 112.97)"><tspan x="0" y="0">113</tspan><tspan x="-1.17" y="14.4">역사</tspan><tspan x="-6.86" y="28.8">연구소</tspan></text>
  </g>
  <g id="Layer_19">
    <rect class="cls-6" x="240.48" y="51.45" width="42.67" height="140.48"/>
    <text class="cls-3" transform="translate(246.9 112.97)"><tspan x="0" y="0">113A</tspan><tspan x="3.54" y="14.4">교수</tspan><tspan x="-2.15" y="28.8">연구실</tspan></text>
  </g>
  <g id="Layer_x5F_others-3" data-name="Layer_x5F_others">
    <rect class="cls-6" x="87.91" y="189.53" width="50" height="60.69"/>
    <rect class="cls-5" x="151.55" y="50.77" width="88.92" height="141.16"/>
    <g>
      <path class="cls-4" d="M188.61,48.5h.39M152.98,93.38h.39"/>
      <path class="cls-4" d="M153.89,93.38h34.46"/>
      <path class="cls-4" d="M188.61,93.38h.39M152.98,108.8h.39"/>
      <path class="cls-4" d="M153.89,108.8h34.46"/>
      <path class="cls-4" d="M188.61,108.8h.39"/>
      <path class="cls-4" d="M189.13,54.04v39.34"/>
      <path class="cls-4" d="M152.98,56.82v-2.77M152.98,48.5h0"/>
      <path class="cls-4" d="M152.98,59.59v33.62"/>
      <path class="cls-4" d="M189.13,108.8v42.11"/>
      <path class="cls-4" d="M152.98,108.8v42.11"/>
      <path class="cls-4" d="M152.98,56.82h.39"/>
      <path class="cls-4" d="M153.89,56.82h34.46"/>
      <path class="cls-4" d="M188.61,56.82h.39M152.98,59.59h.39"/>
      <path class="cls-4" d="M153.89,59.59h34.46"/>
      <path class="cls-4" d="M188.61,59.59h.39M152.98,62.54h.39"/>
      <path class="cls-4" d="M153.89,62.54h34.46"/>
      <path class="cls-4" d="M188.61,62.54h.39M152.98,65.31h.39"/>
      <path class="cls-4" d="M153.89,65.31h34.46"/>
      <path class="cls-4" d="M188.61,65.31h.39M152.98,68.08h.39"/>
      <path class="cls-4" d="M153.89,68.08h34.46"/>
      <path class="cls-4" d="M188.61,68.08h.39M152.98,71.03h.39"/>
      <path class="cls-4" d="M153.89,71.03h34.46"/>
      <path class="cls-4" d="M188.61,71.03h.39M152.98,73.8h.39"/>
      <path class="cls-4" d="M153.89,73.8h34.46"/>
      <path class="cls-4" d="M188.61,73.8h.39M152.98,76.57h.39"/>
      <path class="cls-4" d="M153.89,76.57h34.46"/>
      <path class="cls-4" d="M188.61,76.57h.39M152.98,79.34h.39"/>
      <path class="cls-4" d="M153.89,79.34h34.46"/>
      <path class="cls-4" d="M188.61,79.34h.39M152.98,82.12h.39"/>
      <path class="cls-4" d="M153.89,82.12h34.46"/>
      <path class="cls-4" d="M188.61,82.12h.39M152.98,84.89h.39"/>
      <path class="cls-4" d="M153.89,84.89h34.46"/>
      <path class="cls-4" d="M188.61,84.89h.39M152.98,87.66h.39"/>
      <path class="cls-4" d="M153.89,87.66h34.46"/>
      <path class="cls-4" d="M188.61,87.66h.39M152.98,90.43h.39"/>
      <path class="cls-4" d="M153.89,90.43h34.46"/>
      <path class="cls-4" d="M188.61,90.43h.39M152.98,93.38h.39"/>
      <path class="cls-4" d="M153.89,93.38h34.46"/>
      <path class="cls-4" d="M188.61,93.38h.39M152.98,108.8h.39"/>
      <path class="cls-4" d="M153.89,108.8h34.46"/>
      <path class="cls-4" d="M188.61,108.8h.39M152.98,111.58h.39"/>
      <path class="cls-4" d="M153.89,111.58h34.46"/>
      <path class="cls-4" d="M188.61,111.58h.39M152.98,114.52h.39"/>
      <path class="cls-4" d="M153.89,114.52h34.46"/>
      <path class="cls-4" d="M188.61,114.52h.39M152.98,117.29h.39"/>
      <path class="cls-4" d="M153.89,117.29h34.46"/>
      <path class="cls-4" d="M188.61,117.29h.39M152.98,120.07h.39"/>
      <path class="cls-4" d="M153.89,120.07h34.46"/>
      <path class="cls-4" d="M188.61,120.07h.39M152.98,122.84h.39"/>
      <path class="cls-4" d="M153.89,122.84h34.46"/>
      <path class="cls-4" d="M188.61,122.84h.39M152.98,125.78h.39"/>
      <path class="cls-4" d="M153.89,125.78h34.46"/>
      <path class="cls-4" d="M188.61,125.78h.39M152.98,128.56h.39"/>
      <path class="cls-4" d="M153.89,128.56h34.46"/>
      <path class="cls-4" d="M188.61,128.56h.39M152.98,131.33h.39"/>
      <path class="cls-4" d="M153.89,131.33h34.46"/>
      <path class="cls-4" d="M188.61,131.33h.39M152.98,134.1h.39"/>
      <path class="cls-4" d="M153.89,134.1h34.46"/>
      <path class="cls-4" d="M188.61,134.1h.39M152.98,136.88h.39"/>
      <path class="cls-4" d="M153.89,136.88h34.46"/>
      <path class="cls-4" d="M188.61,136.88h.39M152.98,139.65h.39"/>
      <path class="cls-4" d="M153.89,139.65h34.46"/>
      <path class="cls-4" d="M188.61,139.65h.39M152.98,142.42h.39"/>
      <path class="cls-4" d="M153.89,142.42h34.46"/>
      <path class="cls-4" d="M188.61,142.42h.39M152.98,145.37h.39"/>
      <path class="cls-4" d="M153.89,145.37h34.46"/>
      <path class="cls-4" d="M188.61,145.37h.39M152.98,148.14h.39"/>
      <path class="cls-4" d="M153.89,148.14h34.46"/>
      <path class="cls-4" d="M188.61,148.14h.39M152.98,56.82h.39"/>
      <path class="cls-4" d="M153.89,56.82h34.46"/>
      <path class="cls-4" d="M188.61,56.82h.39M152.98,59.59h.39"/>
      <path class="cls-4" d="M153.89,59.59h34.46"/>
      <path class="cls-4" d="M188.61,59.59h.39M152.98,62.54h.39"/>
      <path class="cls-4" d="M153.89,62.54h34.46"/>
      <path class="cls-4" d="M188.61,62.54h.39M152.98,65.31h.39"/>
      <path class="cls-4" d="M153.89,65.31h34.46"/>
      <path class="cls-4" d="M188.61,65.31h.39M152.98,68.08h.39"/>
      <path class="cls-4" d="M153.89,68.08h34.46"/>
      <path class="cls-4" d="M188.61,68.08h.39M152.98,71.03h.39"/>
      <path class="cls-4" d="M153.89,71.03h34.46"/>
      <path class="cls-4" d="M188.61,71.03h.39M152.98,73.8h.39"/>
      <path class="cls-4" d="M153.89,73.8h34.46"/>
      <path class="cls-4" d="M188.61,73.8h.39M152.98,76.57h.39"/>
      <path class="cls-4" d="M153.89,76.57h34.46"/>
      <path class="cls-4" d="M188.61,76.57h.39M152.98,79.34h.39"/>
      <path class="cls-4" d="M153.89,79.34h34.46"/>
      <path class="cls-4" d="M188.61,79.34h.39M152.98,82.12h.39"/>
      <path class="cls-4" d="M153.89,82.12h34.46"/>
      <path class="cls-4" d="M188.61,82.12h.39M152.98,84.89h.39"/>
      <path class="cls-4" d="M153.89,84.89h34.46"/>
      <path class="cls-4" d="M188.61,84.89h.39M152.98,87.66h.39"/>
      <path class="cls-4" d="M153.89,87.66h34.46"/>
      <path class="cls-4" d="M188.61,87.66h.39M152.98,90.43h.39"/>
      <path class="cls-4" d="M153.89,90.43h34.46"/>
      <path class="cls-4" d="M188.61,90.43h.39M152.98,111.58h.39"/>
      <path class="cls-4" d="M153.89,111.58h34.46"/>
      <path class="cls-4" d="M188.61,111.58h.39M152.98,114.52h.39"/>
      <path class="cls-4" d="M153.89,114.52h34.46"/>
      <path class="cls-4" d="M188.61,114.52h.39M152.98,117.29h.39"/>
      <path class="cls-4" d="M153.89,117.29h34.46"/>
      <path class="cls-4" d="M188.61,117.29h.39M152.98,120.07h.39"/>
      <path class="cls-4" d="M153.89,120.07h34.46"/>
      <path class="cls-4" d="M188.61,120.07h.39M152.98,122.84h.39"/>
      <path class="cls-4" d="M153.89,122.84h34.46"/>
      <path class="cls-4" d="M188.61,122.84h.39M152.98,125.78h.39"/>
      <path class="cls-4" d="M153.89,125.78h34.46"/>
      <path class="cls-4" d="M188.61,125.78h.39M152.98,128.56h.39"/>
      <path class="cls-4" d="M153.89,128.56h34.46"/>
      <path class="cls-4" d="M188.61,128.56h.39M152.98,131.33h.39"/>
      <path class="cls-4" d="M153.89,131.33h34.46"/>
      <path class="cls-4" d="M188.61,131.33h.39M152.98,134.1h.39"/>
      <path class="cls-4" d="M153.89,134.1h34.46"/>
      <path class="cls-4" d="M188.61,134.1h.39M152.98,136.88h.39"/>
      <path class="cls-4" d="M153.89,136.88h34.46"/>
      <path class="cls-4" d="M188.61,136.88h.39M152.98,139.65h.39"/>
      <path class="cls-4" d="M153.89,139.65h34.46"/>
      <path class="cls-4" d="M188.61,139.65h.39M152.98,142.42h.39"/>
      <path class="cls-4" d="M153.89,142.42h34.46"/>
      <path class="cls-4" d="M188.61,142.42h.39M152.98,145.37h.39"/>
      <path class="cls-4" d="M153.89,145.37h34.46"/>
      <path class="cls-4" d="M188.61,145.37h.39M152.98,148.14h.39"/>
      <path class="cls-4" d="M153.89,148.14h34.46"/>
      <path class="cls-4" d="M188.61,148.14h.39"/>
      <path class="cls-4" d="M188.61,48.5h-.39v107.96h.39"/>
      <path class="cls-4" d="M188.61,48.5v107.96"/>
      <path class="cls-4" d="M153.89,48.5h-.39v107.96h.39"/>
      <path class="cls-4" d="M153.89,48.5v107.96"/>
      <path class="cls-4" d="M173.14,154.38l-2.08,2.25-1.95-2.25"/>
      <path class="cls-4" d="M173.14,154.38l-.52-.52M168.98,154.38l.52-.52"/>
      <path class="cls-4" d="M172.49,153.86l-1.56,1.56-1.43-1.56"/>
      <path class="cls-4" d="M152.98,150.91h.39"/>
      <path class="cls-4" d="M153.89,150.91h34.46"/>
      <path class="cls-4" d="M188.61,150.91h.39M152.98,150.91h.39"/>
      <path class="cls-4" d="M153.89,150.91h34.46"/>
      <path class="cls-4" d="M188.61,150.91h.39M152.98,153.68h.39"/>
      <path class="cls-4" d="M153.89,153.68h34.46"/>
      <path class="cls-4" d="M188.61,153.68h.39M152.98,153.68h.39"/>
      <path class="cls-4" d="M153.89,153.68h34.46"/>
      <path class="cls-4" d="M188.61,153.68h.39M152.98,156.63h.39"/>
      <path class="cls-4" d="M153.89,156.63h34.46"/>
      <path class="cls-4" d="M188.61,156.63h.39M152.98,156.63h.39"/>
      <path class="cls-4" d="M153.89,156.63h34.46"/>
      <path class="cls-4" d="M188.61,156.63h.39M189.13,153.68v-2.77M152.98,153.68v-2.77M189.13,156.63v-2.77M152.98,156.63v-2.77M152.98,54.04h.39"/>
      <path class="cls-4" d="M153.89,54.04h34.46"/>
      <path class="cls-4" d="M188.61,54.04h.39M152.98,54.04h.39"/>
      <path class="cls-4" d="M153.89,54.04h34.46"/>
      <path class="cls-4" d="M152.98,54.04v-2.77h.39"/>
      <path class="cls-4" d="M153.89,51.27h34.46"/>
      <path class="cls-4" d="M188.61,51.27h.39M152.98,51.27h.39"/>
      <path class="cls-4" d="M153.89,51.27h34.46"/>
      <path class="cls-4" d="M188.61,51.27h.39v-2.6"/>
    </g>
    <g>
      <path class="cls-4" d="M240.35,156.63h-.39M204.72,111.75h-.39"/>
      <path class="cls-4" d="M239.7,111.75h-34.46"/>
      <path class="cls-4" d="M240.35,111.75h-.39M204.72,96.33h-.39"/>
      <path class="cls-4" d="M239.7,96.33h-34.46"/>
      <path class="cls-4" d="M240.35,96.33h-.39"/>
      <path class="cls-4" d="M240.48,111.75v39.34"/>
      <path class="cls-4" d="M204.33,151.08v-2.77M204.33,156.63h0"/>
      <path class="cls-4" d="M204.33,111.92v33.62"/>
      <path class="cls-4" d="M240.48,54.22v42.11"/>
      <path class="cls-4" d="M204.33,54.22v42.11"/>
      <path class="cls-4" d="M204.72,148.31h-.39"/>
      <path class="cls-4" d="M239.7,148.31h-34.46"/>
      <path class="cls-4" d="M240.35,148.31h-.39M204.72,145.54h-.39"/>
      <path class="cls-4" d="M239.7,145.54h-34.46"/>
      <path class="cls-4" d="M240.35,145.54h-.39M204.72,142.59h-.39"/>
      <path class="cls-4" d="M239.7,142.59h-34.46"/>
      <path class="cls-4" d="M240.35,142.59h-.39M204.72,139.82h-.39"/>
      <path class="cls-4" d="M239.7,139.82h-34.46"/>
      <path class="cls-4" d="M240.35,139.82h-.39M204.72,137.05h-.39"/>
      <path class="cls-4" d="M239.7,137.05h-34.46"/>
      <path class="cls-4" d="M240.35,137.05h-.39M204.72,134.1h-.39"/>
      <path class="cls-4" d="M239.7,134.1h-34.46"/>
      <path class="cls-4" d="M240.35,134.1h-.39M204.72,131.33h-.39"/>
      <path class="cls-4" d="M239.7,131.33h-34.46"/>
      <path class="cls-4" d="M240.35,131.33h-.39M204.72,128.56h-.39"/>
      <path class="cls-4" d="M239.7,128.56h-34.46"/>
      <path class="cls-4" d="M240.35,128.56h-.39M204.72,125.78h-.39"/>
      <path class="cls-4" d="M239.7,125.78h-34.46"/>
      <path class="cls-4" d="M240.35,125.78h-.39M204.72,123.01h-.39"/>
      <path class="cls-4" d="M239.7,123.01h-34.46"/>
      <path class="cls-4" d="M240.35,123.01h-.39M204.72,120.24h-.39"/>
      <path class="cls-4" d="M239.7,120.24h-34.46"/>
      <path class="cls-4" d="M240.35,120.24h-.39M204.72,117.47h-.39"/>
      <path class="cls-4" d="M239.7,117.47h-34.46"/>
      <path class="cls-4" d="M240.35,117.47h-.39M204.72,114.69h-.39"/>
      <path class="cls-4" d="M239.7,114.69h-34.46"/>
      <path class="cls-4" d="M240.35,114.69h-.39M204.72,111.75h-.39"/>
      <path class="cls-4" d="M239.7,111.75h-34.46"/>
      <path class="cls-4" d="M240.35,111.75h-.39M204.72,96.33h-.39"/>
      <path class="cls-4" d="M239.7,96.33h-34.46"/>
      <path class="cls-4" d="M240.35,96.33h-.39M204.72,93.55h-.39"/>
      <path class="cls-4" d="M239.7,93.55h-34.46"/>
      <path class="cls-4" d="M240.35,93.55h-.39M204.72,90.61h-.39"/>
      <path class="cls-4" d="M239.7,90.61h-34.46"/>
      <path class="cls-4" d="M240.35,90.61h-.39M204.72,87.84h-.39"/>
      <path class="cls-4" d="M239.7,87.84h-34.46"/>
      <path class="cls-4" d="M240.35,87.84h-.39M204.72,85.06h-.39"/>
      <path class="cls-4" d="M239.7,85.06h-34.46"/>
      <path class="cls-4" d="M240.35,85.06h-.39M204.72,82.29h-.39"/>
      <path class="cls-4" d="M239.7,82.29h-34.46"/>
      <path class="cls-4" d="M240.35,82.29h-.39M204.72,79.34h-.39"/>
      <path class="cls-4" d="M239.7,79.34h-34.46"/>
      <path class="cls-4" d="M240.35,79.34h-.39M204.72,76.57h-.39"/>
      <path class="cls-4" d="M239.7,76.57h-34.46"/>
      <path class="cls-4" d="M240.35,76.57h-.39M204.72,73.8h-.39"/>
      <path class="cls-4" d="M239.7,73.8h-34.46"/>
      <path class="cls-4" d="M240.35,73.8h-.39M204.72,71.03h-.39"/>
      <path class="cls-4" d="M239.7,71.03h-34.46"/>
      <path class="cls-4" d="M240.35,71.03h-.39M204.72,68.25h-.39"/>
      <path class="cls-4" d="M239.7,68.25h-34.46"/>
      <path class="cls-4" d="M240.35,68.25h-.39M204.72,65.48h-.39"/>
      <path class="cls-4" d="M239.7,65.48h-34.46"/>
      <path class="cls-4" d="M240.35,65.48h-.39M204.72,62.71h-.39"/>
      <path class="cls-4" d="M239.7,62.71h-34.46"/>
      <path class="cls-4" d="M240.35,62.71h-.39M204.72,59.76h-.39"/>
      <path class="cls-4" d="M239.7,59.76h-34.46"/>
      <path class="cls-4" d="M240.35,59.76h-.39M204.72,56.99h-.39"/>
      <path class="cls-4" d="M239.7,56.99h-34.46"/>
      <path class="cls-4" d="M240.35,56.99h-.39M204.72,148.31h-.39"/>
      <path class="cls-4" d="M239.7,148.31h-34.46"/>
      <path class="cls-4" d="M240.35,148.31h-.39M204.72,145.54h-.39"/>
      <path class="cls-4" d="M239.7,145.54h-34.46"/>
      <path class="cls-4" d="M240.35,145.54h-.39M204.72,142.59h-.39"/>
      <path class="cls-4" d="M239.7,142.59h-34.46"/>
      <path class="cls-4" d="M240.35,142.59h-.39M204.72,139.82h-.39"/>
      <path class="cls-4" d="M239.7,139.82h-34.46"/>
      <path class="cls-4" d="M240.35,139.82h-.39M204.72,137.05h-.39"/>
      <path class="cls-4" d="M239.7,137.05h-34.46"/>
      <path class="cls-4" d="M240.35,137.05h-.39M204.72,134.1h-.39"/>
      <path class="cls-4" d="M239.7,134.1h-34.46"/>
      <path class="cls-4" d="M240.35,134.1h-.39M204.72,131.33h-.39"/>
      <path class="cls-4" d="M239.7,131.33h-34.46"/>
      <path class="cls-4" d="M240.35,131.33h-.39M204.72,128.56h-.39"/>
      <path class="cls-4" d="M239.7,128.56h-34.46"/>
      <path class="cls-4" d="M240.35,128.56h-.39M204.72,125.78h-.39"/>
      <path class="cls-4" d="M239.7,125.78h-34.46"/>
      <path class="cls-4" d="M240.35,125.78h-.39M204.72,123.01h-.39"/>
      <path class="cls-4" d="M239.7,123.01h-34.46"/>
      <path class="cls-4" d="M240.35,123.01h-.39M204.72,120.24h-.39"/>
      <path class="cls-4" d="M239.7,120.24h-34.46"/>
      <path class="cls-4" d="M240.35,120.24h-.39M204.72,117.47h-.39"/>
      <path class="cls-4" d="M239.7,117.47h-34.46"/>
      <path class="cls-4" d="M240.35,117.47h-.39M204.72,114.69h-.39"/>
      <path class="cls-4" d="M239.7,114.69h-34.46"/>
      <path class="cls-4" d="M240.35,114.69h-.39M204.72,93.55h-.39"/>
      <path class="cls-4" d="M239.7,93.55h-34.46"/>
      <path class="cls-4" d="M240.35,93.55h-.39M204.72,90.61h-.39"/>
      <path class="cls-4" d="M239.7,90.61h-34.46"/>
      <path class="cls-4" d="M240.35,90.61h-.39M204.72,87.84h-.39"/>
      <path class="cls-4" d="M239.7,87.84h-34.46"/>
      <path class="cls-4" d="M240.35,87.84h-.39M204.72,85.06h-.39"/>
      <path class="cls-4" d="M239.7,85.06h-34.46"/>
      <path class="cls-4" d="M240.35,85.06h-.39M204.72,82.29h-.39"/>
      <path class="cls-4" d="M239.7,82.29h-34.46"/>
      <path class="cls-4" d="M240.35,82.29h-.39M204.72,79.34h-.39"/>
      <path class="cls-4" d="M239.7,79.34h-34.46"/>
      <path class="cls-4" d="M240.35,79.34h-.39M204.72,76.57h-.39"/>
      <path class="cls-4" d="M239.7,76.57h-34.46"/>
      <path class="cls-4" d="M240.35,76.57h-.39M204.72,73.8h-.39"/>
      <path class="cls-4" d="M239.7,73.8h-34.46"/>
      <path class="cls-4" d="M240.35,73.8h-.39M204.72,71.03h-.39"/>
      <path class="cls-4" d="M239.7,71.03h-34.46"/>
      <path class="cls-4" d="M240.35,71.03h-.39M204.72,68.25h-.39"/>
      <path class="cls-4" d="M239.7,68.25h-34.46"/>
      <path class="cls-4" d="M240.35,68.25h-.39M204.72,65.48h-.39"/>
      <path class="cls-4" d="M239.7,65.48h-34.46"/>
      <path class="cls-4" d="M240.35,65.48h-.39M204.72,62.71h-.39"/>
      <path class="cls-4" d="M239.7,62.71h-34.46"/>
      <path class="cls-4" d="M240.35,62.71h-.39M204.72,59.76h-.39"/>
      <path class="cls-4" d="M239.7,59.76h-34.46"/>
      <path class="cls-4" d="M240.35,59.76h-.39M204.72,56.99h-.39"/>
      <path class="cls-4" d="M239.7,56.99h-34.46"/>
      <path class="cls-4" d="M240.35,56.99h-.39"/>
      <path class="cls-4" d="M239.96,48.67h-.39v107.96h.39"/>
      <path class="cls-4" d="M239.96,48.67v107.96"/>
      <path class="cls-4" d="M205.24,48.67h-.39v107.96h.39"/>
      <path class="cls-4" d="M205.24,48.67v107.96"/>
      <path class="cls-4" d="M220.45,50.75l1.95-2.25,2.08,2.25"/>
      <path class="cls-4" d="M223.96,51.27l.52-.52M220.84,51.27l-.52-.52"/>
      <path class="cls-4" d="M220.84,51.27l1.43-1.56,1.56,1.56"/>
      <path class="cls-4" d="M204.72,54.22h-.39"/>
      <path class="cls-4" d="M239.7,54.22h-34.46"/>
      <path class="cls-4" d="M240.35,54.22h-.39M204.72,54.22h-.39"/>
      <path class="cls-4" d="M239.7,54.22h-34.46"/>
      <path class="cls-4" d="M240.35,54.22h-.39M204.72,51.45h-.39"/>
      <path class="cls-4" d="M239.7,51.45h-34.46"/>
      <path class="cls-4" d="M240.35,51.45h-.39M204.72,51.45h-.39"/>
      <path class="cls-4" d="M239.7,51.45h-34.46"/>
      <path class="cls-4" d="M240.35,51.45h-.39M204.72,48.5h-.39"/>
      <path class="cls-4" d="M239.7,48.5h-34.46"/>
      <path class="cls-4" d="M240.35,48.5h-.39M204.72,48.5h-.39"/>
      <path class="cls-4" d="M239.7,48.5h-34.46"/>
      <path class="cls-4" d="M240.35,48.5h-.39M240.48,54.22v-2.77M204.33,54.22v-2.77M240.48,51.27v-2.77M204.33,51.27v-2.77M204.72,151.08h-.39"/>
      <path class="cls-4" d="M239.7,151.08h-34.46"/>
      <path class="cls-4" d="M240.35,151.08h-.39M204.72,151.08h-.39"/>
      <path class="cls-4" d="M239.7,151.08h-34.46"/>
      <path class="cls-4" d="M204.72,153.86h-.39v-2.77"/>
      <path class="cls-4" d="M239.7,153.86h-34.46"/>
      <path class="cls-4" d="M240.35,153.86h-.39M204.72,153.86h-.39"/>
      <path class="cls-4" d="M239.7,153.86h-34.46"/>
      <path class="cls-4" d="M240.35,156.46v-2.6h-.39"/>
    </g>
    <rect class="cls-5" x="809.33" y="50.77" width="87.21" height="141.16"/>
    <g>
      <path class="cls-4" d="M896.02,50.77h.39M860.39,95.65h.39"/>
      <path class="cls-4" d="M861.3,95.65h34.46"/>
      <path class="cls-4" d="M896.02,95.65h.39M860.39,111.07h.39"/>
      <path class="cls-4" d="M861.3,111.07h34.46"/>
      <path class="cls-4" d="M896.02,111.07h.39"/>
      <path class="cls-4" d="M896.54,56.31v39.34"/>
      <path class="cls-4" d="M860.39,59.08v-2.77M860.39,50.77h0"/>
      <path class="cls-4" d="M860.39,61.86v33.62"/>
      <path class="cls-4" d="M896.54,111.07v42.11"/>
      <path class="cls-4" d="M860.39,111.07v42.11"/>
      <path class="cls-4" d="M860.39,59.08h.39"/>
      <path class="cls-4" d="M861.3,59.08h34.46"/>
      <path class="cls-4" d="M896.02,59.08h.39M860.39,61.86h.39"/>
      <path class="cls-4" d="M861.3,61.86h34.46"/>
      <path class="cls-4" d="M896.02,61.86h.39M860.39,64.8h.39"/>
      <path class="cls-4" d="M861.3,64.8h34.46"/>
      <path class="cls-4" d="M896.02,64.8h.39M860.39,67.57h.39"/>
      <path class="cls-4" d="M861.3,67.57h34.46"/>
      <path class="cls-4" d="M896.02,67.57h.39M860.39,70.35h.39"/>
      <path class="cls-4" d="M861.3,70.35h34.46"/>
      <path class="cls-4" d="M896.02,70.35h.39M860.39,73.29h.39"/>
      <path class="cls-4" d="M861.3,73.29h34.46"/>
      <path class="cls-4" d="M896.02,73.29h.39M860.39,76.06h.39"/>
      <path class="cls-4" d="M861.3,76.06h34.46"/>
      <path class="cls-4" d="M896.02,76.06h.39M860.39,78.84h.39"/>
      <path class="cls-4" d="M861.3,78.84h34.46"/>
      <path class="cls-4" d="M896.02,78.84h.39M860.39,81.61h.39"/>
      <path class="cls-4" d="M861.3,81.61h34.46"/>
      <path class="cls-4" d="M896.02,81.61h.39M860.39,84.38h.39"/>
      <path class="cls-4" d="M861.3,84.38h34.46"/>
      <path class="cls-4" d="M896.02,84.38h.39M860.39,87.16h.39"/>
      <path class="cls-4" d="M861.3,87.16h34.46"/>
      <path class="cls-4" d="M896.02,87.16h.39M860.39,89.93h.39"/>
      <path class="cls-4" d="M861.3,89.93h34.46"/>
      <path class="cls-4" d="M896.02,89.93h.39M860.39,92.7h.39"/>
      <path class="cls-4" d="M861.3,92.7h34.46"/>
      <path class="cls-4" d="M896.02,92.7h.39M860.39,95.65h.39"/>
      <path class="cls-4" d="M861.3,95.65h34.46"/>
      <path class="cls-4" d="M896.02,95.65h.39M860.39,111.07h.39"/>
      <path class="cls-4" d="M861.3,111.07h34.46"/>
      <path class="cls-4" d="M896.02,111.07h.39M860.39,113.84h.39"/>
      <path class="cls-4" d="M861.3,113.84h34.46"/>
      <path class="cls-4" d="M896.02,113.84h.39M860.39,116.79h.39"/>
      <path class="cls-4" d="M861.3,116.79h34.46"/>
      <path class="cls-4" d="M896.02,116.79h.39M860.39,119.56h.39"/>
      <path class="cls-4" d="M861.3,119.56h34.46"/>
      <path class="cls-4" d="M896.02,119.56h.39M860.39,122.33h.39"/>
      <path class="cls-4" d="M861.3,122.33h34.46"/>
      <path class="cls-4" d="M896.02,122.33h.39M860.39,125.1h.39"/>
      <path class="cls-4" d="M861.3,125.1h34.46"/>
      <path class="cls-4" d="M896.02,125.1h.39M860.39,128.05h.39"/>
      <path class="cls-4" d="M861.3,128.05h34.46"/>
      <path class="cls-4" d="M896.02,128.05h.39M860.39,130.82h.39"/>
      <path class="cls-4" d="M861.3,130.82h34.46"/>
      <path class="cls-4" d="M896.02,130.82h.39M860.39,133.6h.39"/>
      <path class="cls-4" d="M861.3,133.6h34.46"/>
      <path class="cls-4" d="M896.02,133.6h.39M860.39,136.37h.39"/>
      <path class="cls-4" d="M861.3,136.37h34.46"/>
      <path class="cls-4" d="M896.02,136.37h.39M860.39,139.14h.39"/>
      <path class="cls-4" d="M861.3,139.14h34.46"/>
      <path class="cls-4" d="M896.02,139.14h.39M860.39,141.91h.39"/>
      <path class="cls-4" d="M861.3,141.91h34.46"/>
      <path class="cls-4" d="M896.02,141.91h.39M860.39,144.69h.39"/>
      <path class="cls-4" d="M861.3,144.69h34.46"/>
      <path class="cls-4" d="M896.02,144.69h.39M860.39,147.63h.39"/>
      <path class="cls-4" d="M861.3,147.63h34.46"/>
      <path class="cls-4" d="M896.02,147.63h.39M860.39,150.4h.39"/>
      <path class="cls-4" d="M861.3,150.4h34.46"/>
      <path class="cls-4" d="M896.02,150.4h.39M860.39,59.08h.39"/>
      <path class="cls-4" d="M861.3,59.08h34.46"/>
      <path class="cls-4" d="M896.02,59.08h.39M860.39,61.86h.39"/>
      <path class="cls-4" d="M861.3,61.86h34.46"/>
      <path class="cls-4" d="M896.02,61.86h.39M860.39,64.8h.39"/>
      <path class="cls-4" d="M861.3,64.8h34.46"/>
      <path class="cls-4" d="M896.02,64.8h.39M860.39,67.57h.39"/>
      <path class="cls-4" d="M861.3,67.57h34.46"/>
      <path class="cls-4" d="M896.02,67.57h.39M860.39,70.35h.39"/>
      <path class="cls-4" d="M861.3,70.35h34.46"/>
      <path class="cls-4" d="M896.02,70.35h.39M860.39,73.29h.39"/>
      <path class="cls-4" d="M861.3,73.29h34.46"/>
      <path class="cls-4" d="M896.02,73.29h.39M860.39,76.06h.39"/>
      <path class="cls-4" d="M861.3,76.06h34.46"/>
      <path class="cls-4" d="M896.02,76.06h.39M860.39,78.84h.39"/>
      <path class="cls-4" d="M861.3,78.84h34.46"/>
      <path class="cls-4" d="M896.02,78.84h.39M860.39,81.61h.39"/>
      <path class="cls-4" d="M861.3,81.61h34.46"/>
      <path class="cls-4" d="M896.02,81.61h.39M860.39,84.38h.39"/>
      <path class="cls-4" d="M861.3,84.38h34.46"/>
      <path class="cls-4" d="M896.02,84.38h.39M860.39,87.16h.39"/>
      <path class="cls-4" d="M861.3,87.16h34.46"/>
      <path class="cls-4" d="M896.02,87.16h.39M860.39,89.93h.39"/>
      <path class="cls-4" d="M861.3,89.93h34.46"/>
      <path class="cls-4" d="M896.02,89.93h.39M860.39,92.7h.39"/>
      <path class="cls-4" d="M861.3,92.7h34.46"/>
      <path class="cls-4" d="M896.02,92.7h.39M860.39,113.84h.39"/>
      <path class="cls-4" d="M861.3,113.84h34.46"/>
      <path class="cls-4" d="M896.02,113.84h.39M860.39,116.79h.39"/>
      <path class="cls-4" d="M861.3,116.79h34.46"/>
      <path class="cls-4" d="M896.02,116.79h.39M860.39,119.56h.39"/>
      <path class="cls-4" d="M861.3,119.56h34.46"/>
      <path class="cls-4" d="M896.02,119.56h.39M860.39,122.33h.39"/>
      <path class="cls-4" d="M861.3,122.33h34.46"/>
      <path class="cls-4" d="M896.02,122.33h.39M860.39,125.1h.39"/>
      <path class="cls-4" d="M861.3,125.1h34.46"/>
      <path class="cls-4" d="M896.02,125.1h.39M860.39,128.05h.39"/>
      <path class="cls-4" d="M861.3,128.05h34.46"/>
      <path class="cls-4" d="M896.02,128.05h.39M860.39,130.82h.39"/>
      <path class="cls-4" d="M861.3,130.82h34.46"/>
      <path class="cls-4" d="M896.02,130.82h.39M860.39,133.6h.39"/>
      <path class="cls-4" d="M861.3,133.6h34.46"/>
      <path class="cls-4" d="M896.02,133.6h.39M860.39,136.37h.39"/>
      <path class="cls-4" d="M861.3,136.37h34.46"/>
      <path class="cls-4" d="M896.02,136.37h.39M860.39,139.14h.39"/>
      <path class="cls-4" d="M861.3,139.14h34.46"/>
      <path class="cls-4" d="M896.02,139.14h.39M860.39,141.91h.39"/>
      <path class="cls-4" d="M861.3,141.91h34.46"/>
      <path class="cls-4" d="M896.02,141.91h.39M860.39,144.69h.39"/>
      <path class="cls-4" d="M861.3,144.69h34.46"/>
      <path class="cls-4" d="M896.02,144.69h.39M860.39,147.63h.39"/>
      <path class="cls-4" d="M861.3,147.63h34.46"/>
      <path class="cls-4" d="M896.02,147.63h.39M860.39,150.4h.39"/>
      <path class="cls-4" d="M861.3,150.4h34.46"/>
      <path class="cls-4" d="M896.02,150.4h.39"/>
      <path class="cls-4" d="M896.02,50.77h-.39v107.96h.39"/>
      <path class="cls-4" d="M896.02,50.77v107.96"/>
      <path class="cls-4" d="M861.3,50.77h-.39v107.96h.39"/>
      <path class="cls-4" d="M861.3,50.77v107.96"/>
      <path class="cls-4" d="M880.55,156.64l-2.08,2.25-1.95-2.25"/>
      <path class="cls-4" d="M880.55,156.64l-.52-.52M876.39,156.64l.52-.52"/>
      <path class="cls-4" d="M879.9,156.12l-1.56,1.56-1.43-1.56"/>
      <path class="cls-4" d="M860.39,153.18h.39"/>
      <path class="cls-4" d="M861.3,153.18h34.46"/>
      <path class="cls-4" d="M896.02,153.18h.39M860.39,153.18h.39"/>
      <path class="cls-4" d="M861.3,153.18h34.46"/>
      <path class="cls-4" d="M896.02,153.18h.39M860.39,155.95h.39"/>
      <path class="cls-4" d="M861.3,155.95h34.46"/>
      <path class="cls-4" d="M896.02,155.95h.39M860.39,155.95h.39"/>
      <path class="cls-4" d="M861.3,155.95h34.46"/>
      <path class="cls-4" d="M896.02,155.95h.39M860.39,158.9h.39"/>
      <path class="cls-4" d="M861.3,158.9h34.46"/>
      <path class="cls-4" d="M896.02,158.9h.39M860.39,158.9h.39"/>
      <path class="cls-4" d="M861.3,158.9h34.46"/>
      <path class="cls-4" d="M896.02,158.9h.39M896.54,155.95v-2.77M860.39,155.95v-2.77M896.54,158.9v-2.77M860.39,158.9v-2.77M860.39,56.31h.39"/>
      <path class="cls-4" d="M861.3,56.31h34.46"/>
      <path class="cls-4" d="M896.02,56.31h.39M860.39,56.31h.39"/>
      <path class="cls-4" d="M861.3,56.31h34.46"/>
      <path class="cls-4" d="M860.39,56.31v-2.77h.39"/>
      <path class="cls-4" d="M861.3,53.54h34.46"/>
      <path class="cls-4" d="M896.02,53.54h.39M860.39,53.54h.39"/>
      <path class="cls-4" d="M861.3,53.54h34.46"/>
      <path class="cls-4" d="M896.02,53.54h.39v-2.6"/>
    </g>
    <g>
      <path class="cls-4" d="M845.35,156.97h-.39M809.72,112.98h-.39"/>
      <path class="cls-4" d="M844.7,112.98h-34.46"/>
      <path class="cls-4" d="M845.35,112.98h-.39M809.72,97.87h-.39"/>
      <path class="cls-4" d="M844.7,97.87h-34.46"/>
      <path class="cls-4" d="M845.35,97.87h-.39"/>
      <path class="cls-4" d="M845.48,112.98v38.55"/>
      <path class="cls-4" d="M809.33,151.54v-2.72M809.33,156.97h0"/>
      <path class="cls-4" d="M809.33,113.15v32.95"/>
      <path class="cls-4" d="M845.48,56.6v41.27"/>
      <path class="cls-4" d="M809.33,56.6v41.27"/>
      <path class="cls-4" d="M809.72,148.82h-.39"/>
      <path class="cls-4" d="M844.7,148.82h-34.46"/>
      <path class="cls-4" d="M845.35,148.82h-.39M809.72,146.1h-.39"/>
      <path class="cls-4" d="M844.7,146.1h-34.46"/>
      <path class="cls-4" d="M845.35,146.1h-.39M809.72,143.22h-.39"/>
      <path class="cls-4" d="M844.7,143.22h-34.46"/>
      <path class="cls-4" d="M845.35,143.22h-.39M809.72,140.5h-.39"/>
      <path class="cls-4" d="M844.7,140.5h-34.46"/>
      <path class="cls-4" d="M845.35,140.5h-.39M809.72,137.78h-.39"/>
      <path class="cls-4" d="M844.7,137.78h-34.46"/>
      <path class="cls-4" d="M845.35,137.78h-.39M809.72,134.89h-.39"/>
      <path class="cls-4" d="M844.7,134.89h-34.46"/>
      <path class="cls-4" d="M845.35,134.89h-.39M809.72,132.18h-.39"/>
      <path class="cls-4" d="M844.7,132.18h-34.46"/>
      <path class="cls-4" d="M845.35,132.18h-.39M809.72,129.46h-.39"/>
      <path class="cls-4" d="M844.7,129.46h-34.46"/>
      <path class="cls-4" d="M845.35,129.46h-.39M809.72,126.74h-.39"/>
      <path class="cls-4" d="M844.7,126.74h-34.46"/>
      <path class="cls-4" d="M845.35,126.74h-.39M809.72,124.02h-.39"/>
      <path class="cls-4" d="M844.7,124.02h-34.46"/>
      <path class="cls-4" d="M845.35,124.02h-.39M809.72,121.31h-.39"/>
      <path class="cls-4" d="M844.7,121.31h-34.46"/>
      <path class="cls-4" d="M845.35,121.31h-.39M809.72,118.59h-.39"/>
      <path class="cls-4" d="M844.7,118.59h-34.46"/>
      <path class="cls-4" d="M845.35,118.59h-.39M809.72,115.87h-.39"/>
      <path class="cls-4" d="M844.7,115.87h-34.46"/>
      <path class="cls-4" d="M845.35,115.87h-.39M809.72,112.98h-.39"/>
      <path class="cls-4" d="M844.7,112.98h-34.46"/>
      <path class="cls-4" d="M845.35,112.98h-.39M809.72,97.87h-.39"/>
      <path class="cls-4" d="M844.7,97.87h-34.46"/>
      <path class="cls-4" d="M845.35,97.87h-.39M809.72,95.15h-.39"/>
      <path class="cls-4" d="M844.7,95.15h-34.46"/>
      <path class="cls-4" d="M845.35,95.15h-.39M809.72,92.26h-.39"/>
      <path class="cls-4" d="M844.7,92.26h-34.46"/>
      <path class="cls-4" d="M845.35,92.26h-.39M809.72,89.55h-.39"/>
      <path class="cls-4" d="M844.7,89.55h-34.46"/>
      <path class="cls-4" d="M845.35,89.55h-.39M809.72,86.83h-.39"/>
      <path class="cls-4" d="M844.7,86.83h-34.46"/>
      <path class="cls-4" d="M845.35,86.83h-.39M809.72,84.11h-.39"/>
      <path class="cls-4" d="M844.7,84.11h-34.46"/>
      <path class="cls-4" d="M845.35,84.11h-.39M809.72,81.22h-.39"/>
      <path class="cls-4" d="M844.7,81.22h-34.46"/>
      <path class="cls-4" d="M845.35,81.22h-.39M809.72,78.51h-.39"/>
      <path class="cls-4" d="M844.7,78.51h-34.46"/>
      <path class="cls-4" d="M845.35,78.51h-.39M809.72,75.79h-.39"/>
      <path class="cls-4" d="M844.7,75.79h-34.46"/>
      <path class="cls-4" d="M845.35,75.79h-.39M809.72,73.07h-.39"/>
      <path class="cls-4" d="M844.7,73.07h-34.46"/>
      <path class="cls-4" d="M845.35,73.07h-.39M809.72,70.35h-.39"/>
      <path class="cls-4" d="M844.7,70.35h-34.46"/>
      <path class="cls-4" d="M845.35,70.35h-.39M809.72,67.64h-.39"/>
      <path class="cls-4" d="M844.7,67.64h-34.46"/>
      <path class="cls-4" d="M845.35,67.64h-.39M809.72,64.92h-.39"/>
      <path class="cls-4" d="M844.7,64.92h-34.46"/>
      <path class="cls-4" d="M845.35,64.92h-.39M809.72,62.03h-.39"/>
      <path class="cls-4" d="M844.7,62.03h-34.46"/>
      <path class="cls-4" d="M845.35,62.03h-.39M809.72,59.31h-.39"/>
      <path class="cls-4" d="M844.7,59.31h-34.46"/>
      <path class="cls-4" d="M845.35,59.31h-.39M809.72,148.82h-.39"/>
      <path class="cls-4" d="M844.7,148.82h-34.46"/>
      <path class="cls-4" d="M845.35,148.82h-.39M809.72,146.1h-.39"/>
      <path class="cls-4" d="M844.7,146.1h-34.46"/>
      <path class="cls-4" d="M845.35,146.1h-.39M809.72,143.22h-.39"/>
      <path class="cls-4" d="M844.7,143.22h-34.46"/>
      <path class="cls-4" d="M845.35,143.22h-.39M809.72,140.5h-.39"/>
      <path class="cls-4" d="M844.7,140.5h-34.46"/>
      <path class="cls-4" d="M845.35,140.5h-.39M809.72,137.78h-.39"/>
      <path class="cls-4" d="M844.7,137.78h-34.46"/>
      <path class="cls-4" d="M845.35,137.78h-.39M809.72,134.89h-.39"/>
      <path class="cls-4" d="M844.7,134.89h-34.46"/>
      <path class="cls-4" d="M845.35,134.89h-.39M809.72,132.18h-.39"/>
      <path class="cls-4" d="M844.7,132.18h-34.46"/>
      <path class="cls-4" d="M845.35,132.18h-.39M809.72,129.46h-.39"/>
      <path class="cls-4" d="M844.7,129.46h-34.46"/>
      <path class="cls-4" d="M845.35,129.46h-.39M809.72,126.74h-.39"/>
      <path class="cls-4" d="M844.7,126.74h-34.46"/>
      <path class="cls-4" d="M845.35,126.74h-.39M809.72,124.02h-.39"/>
      <path class="cls-4" d="M844.7,124.02h-34.46"/>
      <path class="cls-4" d="M845.35,124.02h-.39M809.72,121.31h-.39"/>
      <path class="cls-4" d="M844.7,121.31h-34.46"/>
      <path class="cls-4" d="M845.35,121.31h-.39M809.72,118.59h-.39"/>
      <path class="cls-4" d="M844.7,118.59h-34.46"/>
      <path class="cls-4" d="M845.35,118.59h-.39M809.72,115.87h-.39"/>
      <path class="cls-4" d="M844.7,115.87h-34.46"/>
      <path class="cls-4" d="M845.35,115.87h-.39M809.72,95.15h-.39"/>
      <path class="cls-4" d="M844.7,95.15h-34.46"/>
      <path class="cls-4" d="M845.35,95.15h-.39M809.72,92.26h-.39"/>
      <path class="cls-4" d="M844.7,92.26h-34.46"/>
      <path class="cls-4" d="M845.35,92.26h-.39M809.72,89.55h-.39"/>
      <path class="cls-4" d="M844.7,89.55h-34.46"/>
      <path class="cls-4" d="M845.35,89.55h-.39M809.72,86.83h-.39"/>
      <path class="cls-4" d="M844.7,86.83h-34.46"/>
      <path class="cls-4" d="M845.35,86.83h-.39M809.72,84.11h-.39"/>
      <path class="cls-4" d="M844.7,84.11h-34.46"/>
      <path class="cls-4" d="M845.35,84.11h-.39M809.72,81.22h-.39"/>
      <path class="cls-4" d="M844.7,81.22h-34.46"/>
      <path class="cls-4" d="M845.35,81.22h-.39M809.72,78.51h-.39"/>
      <path class="cls-4" d="M844.7,78.51h-34.46"/>
      <path class="cls-4" d="M845.35,78.51h-.39M809.72,75.79h-.39"/>
      <path class="cls-4" d="M844.7,75.79h-34.46"/>
      <path class="cls-4" d="M845.35,75.79h-.39M809.72,73.07h-.39"/>
      <path class="cls-4" d="M844.7,73.07h-34.46"/>
      <path class="cls-4" d="M845.35,73.07h-.39M809.72,70.35h-.39"/>
      <path class="cls-4" d="M844.7,70.35h-34.46"/>
      <path class="cls-4" d="M845.35,70.35h-.39M809.72,67.64h-.39"/>
      <path class="cls-4" d="M844.7,67.64h-34.46"/>
      <path class="cls-4" d="M845.35,67.64h-.39M809.72,64.92h-.39"/>
      <path class="cls-4" d="M844.7,64.92h-34.46"/>
      <path class="cls-4" d="M845.35,64.92h-.39M809.72,62.03h-.39"/>
      <path class="cls-4" d="M844.7,62.03h-34.46"/>
      <path class="cls-4" d="M845.35,62.03h-.39M809.72,59.31h-.39"/>
      <path class="cls-4" d="M844.7,59.31h-34.46"/>
      <path class="cls-4" d="M845.35,59.31h-.39"/>
      <path class="cls-4" d="M844.96,51.16h-.39v105.81h.39"/>
      <path class="cls-4" d="M844.96,51.16v105.81"/>
      <path class="cls-4" d="M810.25,51.16h-.39v105.81h.39"/>
      <path class="cls-4" d="M810.25,51.16v105.81"/>
      <path class="cls-4" d="M825.46,53.2l1.95-2.21,2.08,2.21"/>
      <path class="cls-4" d="M828.97,53.71l.52-.51M825.85,53.71l-.52-.51"/>
      <path class="cls-4" d="M825.85,53.71l1.43-1.53,1.56,1.53"/>
      <path class="cls-4" d="M809.72,56.6h-.39"/>
      <path class="cls-4" d="M844.7,56.6h-34.46"/>
      <path class="cls-4" d="M845.35,56.6h-.39M809.72,56.6h-.39"/>
      <path class="cls-4" d="M844.7,56.6h-34.46"/>
      <path class="cls-4" d="M845.35,56.6h-.39M809.72,53.88h-.39"/>
      <path class="cls-4" d="M844.7,53.88h-34.46"/>
      <path class="cls-4" d="M845.35,53.88h-.39M809.72,53.88h-.39"/>
      <path class="cls-4" d="M844.7,53.88h-34.46"/>
      <path class="cls-4" d="M845.35,53.88h-.39M809.72,50.99h-.39"/>
      <path class="cls-4" d="M844.7,50.99h-34.46"/>
      <path class="cls-4" d="M845.35,50.99h-.39M809.72,50.99h-.39"/>
      <path class="cls-4" d="M844.7,50.99h-34.46"/>
      <path class="cls-4" d="M845.35,50.99h-.39M845.48,56.6v-2.72M809.33,56.6v-2.72M845.48,53.71v-2.72M809.33,53.71v-2.72M809.72,151.54h-.39"/>
      <path class="cls-4" d="M844.7,151.54h-34.46"/>
      <path class="cls-4" d="M845.35,151.54h-.39M809.72,151.54h-.39"/>
      <path class="cls-4" d="M844.7,151.54h-34.46"/>
      <path class="cls-4" d="M809.72,154.26h-.39v-2.72"/>
      <path class="cls-4" d="M844.7,154.26h-34.46"/>
      <path class="cls-4" d="M845.35,154.26h-.39M809.72,154.26h-.39"/>
      <path class="cls-4" d="M844.7,154.26h-34.46"/>
      <path class="cls-4" d="M845.35,156.8v-2.55h-.39"/>
    </g>
    <rect class="cls-5" x="448.74" y="291.54" width="143.35" height="54.08"/>
  </g>
  <g id="Layer_22">
    <polygon class="cls-6" points="838.95 250.22 838.95 276.37 896.54 276.37 896.54 387.52 810.25 387.52 810.25 250.22 838.95 250.22"/>
    <text class="cls-3" transform="translate(841.41 314.65)"><tspan x="0" y="0">105</tspan><tspan x="-11.23" y="14.4">형사문제</tspan><tspan x="-5.54" y="28.8">연구회</tspan></text>
  </g>
  <g id="Layer_23">
    <rect class="cls-6" x="838.95" y="250.22" width="57.59" height="26.16"/>
    <text class="cls-2" transform="translate(855.57 260.73)"><tspan x="0" y="0">105A</tspan><tspan x="-9.15" y="10.8">법대철학회</tspan></text>
  </g>
  <g id="Layer_24">
    <rect class="cls-6" x="737.21" y="250.22" width="73.03" height="137.31"/>
    <text class="cls-3" transform="translate(762.05 300.25)"><tspan x="0" y="0">104</tspan><tspan x="-22.45" y="14.4">자유전공학부</tspan><tspan x="-5.39" y="28.8">학생회</tspan><tspan x="1.29" y="43.2">D반</tspan></text>
  </g>
  <g id="Layer_25">
    <rect class="cls-6" x="687.01" y="250.22" width="50.2" height="137.31"/>
    <text class="cls-1" transform="translate(700.47 308.06)"><tspan class="cls-9"><tspan x="0" y="0">103</tspan></tspan><tspan class="cls-8"><tspan x="-11.11" y="9.6">자유전공학부</tspan></tspan><tspan class="cls-8"><tspan x=".27" y="19.2">학생회</tspan></tspan><tspan class="cls-8"><tspan x="4.76" y="28.8">C반</tspan></tspan></text>
  </g>
  <g id="Layer_26">
    <rect class="cls-6" x="637.04" y="250.22" width="49.97" height="137.31"/>
    <text class="cls-1" transform="translate(650.51 308.06)"><tspan class="cls-9"><tspan x="0" y="0">102</tspan></tspan><tspan class="cls-8"><tspan x="-11.23" y="9.6">자유전공학부</tspan></tspan><tspan class="cls-8"><tspan x=".14" y="19.2">학생회</tspan></tspan><tspan class="cls-8"><tspan x="4.72" y="28.8">B반</tspan></tspan></text>
  </g>
  <g id="Layer_27">
    <rect class="cls-6" x="592.45" y="250.22" width="44.59" height="137.31"/>
    <text class="cls-1" transform="translate(604.4 308.06)"><tspan class="cls-9"><tspan x="0" y="0">101</tspan></tspan><tspan class="cls-8"><tspan x="-12.4" y="9.6">자유전공학부</tspan></tspan><tspan class="cls-8"><tspan x="-1.03" y="19.2">학생회</tspan></tspan><tspan class="cls-8"><tspan x="3.42" y="28.8">A반</tspan></tspan></text>
  </g>
  <g id="Layer_28">
    <rect class="cls-6" x="377.55" y="250.22" width="71.19" height="137.31"/>
    <text class="cls-3" transform="translate(402.81 307.45)"><tspan x="0" y="0">118</tspan><tspan x="-6.73" y="14.4">기자재</tspan><tspan x="-6.73" y="28.8">대여실</tspan></text>
  </g>
  <g id="Layer_29">
    <rect class="cls-6" x="328.5" y="250.22" width="49.05" height="137.31"/>
    <text class="cls-3" transform="translate(343.3 308.8)"><tspan x="0" y="0">117</tspan><tspan x="-1.65" y="14.4">교수</tspan><tspan x="-7.34" y="28.8">연구실</tspan></text>
  </g>
</svg>