<?xml version="1.0" encoding="UTF-8"?><svg xmlns="http://www.w3.org/2000/svg" viewBox="0 0 1800 1400"><defs><style>.cls-1{letter-spacing:-.03em;}.cls-2{fill:#f5cbcc;}.cls-2,.cls-3,.cls-4,.cls-5,.cls-6{stroke:#d88282;stroke-miterlimit:10;}.cls-2,.cls-4{stroke-width:2px;}.cls-3,.cls-4,.cls-5{fill:none;}.cls-3,.cls-6{stroke-width:5px;}.cls-7{font-family:NanumSquareNeovariable-Heavy, 'NanumSquare Neo variable';font-size:22px;font-variation-settings:'wght' 900;font-weight:800;}.cls-7,.cls-8{fill:#434142;}.cls-9{letter-spacing:-.05em;}.cls-5{stroke-width:2.1px;}.cls-10{letter-spacing:0em;}.cls-8{font-family:NanumSquareNeovariable-Regular, 'NanumSquare Neo variable';font-size:20px;font-variation-settings:'wght' 300;}.cls-6{fill:#fdf2f2;opacity:.6;}</style></defs><g id="Layer_border"><path class="cls-6" d="m537.27,312.89v-97.83H168.81v959.25h15.45v64.45h239.32v-64.45h90.82v-207.52h297.52v-62.9h127.62v-43.76h154.97v-44.62c130.99-21.53,286.23-63.09,448.5-143.16,52.69-26,100.99-53.53,145.03-81.42v-278.04H537.27Z"/><line class="cls-3" x1="537.72" y1="313.79" x2="537.72" y2="966.79"/></g><g id="Layer_others"><line class="cls-4" x1="289.27" y1="1203.26" x2="423.58" y2="1203.26"/><line class="cls-4" x1="320.8" y1="1173.32" x2="320.8" y2="1203.26"/><line class="cls-4" x1="326.8" y1="1173.32" x2="326.8" y2="1203.26"/><line class="cls-4" x1="332.8" y1="1173.32" x2="332.8" y2="1203.26"/><line class="cls-4" x1="338.8" y1="1173.32" x2="338.8" y2="1203.26"/><line class="cls-4" x1="344.8" y1="1173.32" x2="344.8" y2="1203.26"/><line class="cls-4" x1="350.8" y1="1173.32" x2="350.8" y2="1203.26"/><line class="cls-4" x1="356.8" y1="1173.32" x2="356.8" y2="1203.26"/><line class="cls-4" x1="362.8" y1="1173.32" x2="362.8" y2="1203.26"/><line class="cls-4" x1="368.8" y1="1173.32" x2="368.8" y2="1203.26"/><line class="cls-4" x1="374.8" y1="1173.32" x2="374.8" y2="1203.26"/><line class="cls-4" x1="380.8" y1="1173.32" x2="380.8" y2="1203.26"/><line class="cls-4" x1="386.8" y1="1173.32" x2="386.8" y2="1203.26"/><line class="cls-5" x1="320.8" y1="1236.34" x2="320.8" y2="1203.26"/><line class="cls-5" x1="326.8" y1="1236.34" x2="326.8" y2="1203.26"/><line class="cls-5" x1="332.8" y1="1236.34" x2="332.8" y2="1203.26"/><line class="cls-5" x1="338.8" y1="1236.34" x2="338.8" y2="1203.26"/><line class="cls-5" x1="344.8" y1="1236.34" x2="344.8" y2="1203.26"/><line class="cls-5" x1="350.8" y1="1236.34" x2="350.8" y2="1203.26"/><line class="cls-5" x1="356.8" y1="1236.34" x2="356.8" y2="1203.26"/><line class="cls-5" x1="362.8" y1="1236.34" x2="362.8" y2="1203.26"/><line class="cls-5" x1="368.8" y1="1236.34" x2="368.8" y2="1203.26"/><line class="cls-5" x1="374.8" y1="1236.34" x2="374.8" y2="1203.26"/><line class="cls-5" x1="380.8" y1="1236.34" x2="380.8" y2="1203.26"/><line class="cls-5" x1="386.8" y1="1236.34" x2="386.8" y2="1203.26"/><line class="cls-5" x1="390.17" y1="1173.32" x2="425.87" y2="1173.32"/><polygon class="cls-5" points="504.07 746 504.07 585.58 425.87 585.58 425.87 844.26 469.21 844.26 504.07 844.26 537.72 844.26 537.72 746 504.07 746"/><rect class="cls-5" x="504.07" y="669.9" width="32" height="76.1"/><line class="cls-5" x1="504.07" y1="701.93" x2="536.06" y2="701.93"/><line class="cls-5" x1="504.07" y1="709.02" x2="536.06" y2="709.02"/><line class="cls-5" x1="504.07" y1="716.11" x2="536.06" y2="716.11"/><line class="cls-5" x1="504.07" y1="723.19" x2="536.06" y2="723.19"/><line class="cls-5" x1="504.07" y1="730.28" x2="536.06" y2="730.28"/><line class="cls-5" x1="504.07" y1="737.37" x2="536.06" y2="737.37"/><line class="cls-4" x1="514.52" y1="414.26" x2="514.52" y2="522.84"/><line class="cls-4" x1="535.58" y1="439.75" x2="514.52" y2="439.75"/><line class="cls-4" x1="535.58" y1="444.6" x2="514.52" y2="444.6"/><line class="cls-4" x1="535.58" y1="449.45" x2="514.52" y2="449.45"/><line class="cls-4" x1="535.58" y1="454.3" x2="514.52" y2="454.3"/><line class="cls-4" x1="535.58" y1="459.15" x2="514.52" y2="459.15"/><line class="cls-4" x1="535.58" y1="464" x2="514.52" y2="464"/><line class="cls-4" x1="535.58" y1="468.85" x2="514.52" y2="468.85"/><line class="cls-4" x1="535.58" y1="473.7" x2="514.52" y2="473.7"/><line class="cls-4" x1="535.58" y1="478.55" x2="514.52" y2="478.55"/><line class="cls-4" x1="535.58" y1="483.4" x2="514.52" y2="483.4"/><line class="cls-4" x1="535.58" y1="488.25" x2="514.52" y2="488.25"/><line class="cls-4" x1="535.58" y1="493.1" x2="514.52" y2="493.1"/><line class="cls-4" x1="491.24" y1="439.75" x2="514.52" y2="439.75"/><line class="cls-4" x1="491.24" y1="444.6" x2="514.52" y2="444.6"/><line class="cls-4" x1="491.24" y1="449.45" x2="514.52" y2="449.45"/><line class="cls-4" x1="491.24" y1="454.3" x2="514.52" y2="454.3"/><line class="cls-4" x1="491.24" y1="459.15" x2="514.52" y2="459.15"/><line class="cls-4" x1="491.24" y1="464" x2="514.52" y2="464"/><line class="cls-4" x1="491.24" y1="468.85" x2="514.52" y2="468.85"/><line class="cls-4" x1="491.24" y1="473.7" x2="514.52" y2="473.7"/><line class="cls-4" x1="491.24" y1="478.55" x2="514.52" y2="478.55"/><line class="cls-4" x1="491.24" y1="483.4" x2="514.52" y2="483.4"/><line class="cls-4" x1="491.24" y1="488.25" x2="514.52" y2="488.25"/><line class="cls-4" x1="491.24" y1="493.11" x2="514.52" y2="493.11"/><rect class="cls-4" x="491.24" y="414.26" width="44.33" height="108.58"/><rect class="cls-4" x="491.24" y="321.47" width="44.33" height="92.79"/><rect class="cls-4" x="437.63" y="216.76" width="97.95" height="54.8"/><rect class="cls-4" x="437.63" y="414.26" width="53.62" height="30.34"/><rect class="cls-4" x="450.78" y="444.6" width="40.46" height="36.69"/><rect class="cls-4" x="450.78" y="481.29" width="40.46" height="37.82"/><line class="cls-4" x1="909.7" y1="333.22" x2="909.7" y2="413.82"/><line class="cls-4" x1="930.76" y1="354.16" x2="909.7" y2="354.16"/><line class="cls-4" x1="930.76" y1="359.01" x2="909.7" y2="359.01"/><line class="cls-4" x1="930.76" y1="363.86" x2="909.7" y2="363.86"/><line class="cls-4" x1="930.76" y1="368.71" x2="909.7" y2="368.71"/><line class="cls-4" x1="930.76" y1="373.56" x2="909.7" y2="373.56"/><line class="cls-4" x1="930.76" y1="378.41" x2="909.7" y2="378.41"/><line class="cls-4" x1="930.76" y1="383.26" x2="909.7" y2="383.26"/><line class="cls-4" x1="930.76" y1="388.11" x2="909.7" y2="388.11"/><line class="cls-4" x1="930.76" y1="392.96" x2="909.7" y2="392.96"/><line class="cls-4" x1="930.76" y1="397.81" x2="909.7" y2="397.81"/><line class="cls-4" x1="930.76" y1="402.66" x2="909.7" y2="402.66"/><line class="cls-4" x1="930.76" y1="407.51" x2="909.7" y2="407.51"/><line class="cls-4" x1="886.43" y1="354.16" x2="909.7" y2="354.16"/><line class="cls-4" x1="886.43" y1="359.01" x2="909.7" y2="359.01"/><line class="cls-4" x1="886.43" y1="363.86" x2="909.7" y2="363.86"/><line class="cls-4" x1="886.43" y1="368.71" x2="909.7" y2="368.71"/><line class="cls-4" x1="886.43" y1="373.56" x2="909.7" y2="373.56"/><line class="cls-4" x1="886.43" y1="378.41" x2="909.7" y2="378.41"/><line class="cls-4" x1="886.43" y1="383.26" x2="909.7" y2="383.26"/><line class="cls-4" x1="886.43" y1="388.11" x2="909.7" y2="388.11"/><line class="cls-4" x1="886.43" y1="392.96" x2="909.7" y2="392.96"/><line class="cls-4" x1="886.43" y1="397.81" x2="909.7" y2="397.81"/><line class="cls-4" x1="886.43" y1="402.66" x2="909.7" y2="402.66"/><line class="cls-4" x1="886.43" y1="407.51" x2="909.7" y2="407.51"/></g><g id="Layer_101"><rect class="cls-2" x="425.87" y="844.26" width="111.85" height="119.43"/><text class="cls-7" transform="translate(462.28 909.03)"><tspan x="0" y="0">101</tspan></text></g><g id="Layer_102"><rect class="cls-2" x="425.87" y="963.69" width="86.67" height="136.89"/><text class="cls-7" transform="translate(447.66 1038.82)"><tspan x="0" y="0">102</tspan></text></g><g id="Layer_103"><rect class="cls-2" x="425.87" y="1100.58" width="86.67" height="70.51"/><text class="cls-7" transform="translate(447.41 1141.27)"><tspan x="0" y="0">103</tspan></text></g><g id="Layer_106"><rect class="cls-2" x="168.81" y="844.26" width="212.85" height="256.32"/><text class="cls-7" transform="translate(255.36 957.4)"><tspan x="0" y="0">106</tspan></text><text class="cls-8" transform="translate(217.84 986.83)"><tspan x="0" y="0">이학수 강의실</tspan></text></g><g id="Layer_107"><rect class="cls-2" x="168.81" y="579.33" width="212.85" height="264.92"/><text class="cls-7" transform="translate(256.35 698.75)"><tspan x="0" y="0">107</tspan></text><text class="cls-8" transform="translate(217.84 726.32)"><tspan x="0" y="0">안영일 강의실</tspan></text></g><g id="Layer_108"><rect class="cls-2" x="168.81" y="313.79" width="212.85" height="264.92"/><text class="cls-7" transform="translate(255.15 434.63)"><tspan x="0" y="0">108</tspan></text><rect class="cls-2" x="168.81" y="218.76" width="212.85" height="95.03"/><text class="cls-8" transform="translate(226.93 463.27)"><tspan x="0" y="0">큰길 강의실</tspan></text></g><g id="Layer_A.H.U"><polygon class="cls-2" points="289.27 1140.21 289.27 1100.58 168.81 1100.58 168.81 1173.32 184.95 1173.32 184.95 1238.76 289.27 1238.76 289.27 1173.32 390.17 1173.32 390.17 1140.21 289.27 1140.21"/><rect class="cls-2" x="289.27" y="1100.58" width="100.9" height="40.69"/><text class="cls-7" transform="translate(198.33 1161.45)"><tspan x="0" y="0">A.H</tspan><tspan class="cls-10" x="42.33" y="0">.</tspan><tspan x="48.66" y="0">U</tspan></text><text class="cls-7" transform="translate(318.87 1127.13)"><tspan x="0" y="0">창고</tspan></text></g><g id="Layer_toilet1"><rect class="cls-4" x="437.63" y="271.56" width="97.95" height="49.9"/></g><g id="Layer_toilet2"><rect class="cls-4" x="437.63" y="321.47" width="53.62" height="92.79"/></g><g id="Layer_주차장"><rect class="cls-4" x="536.06" y="313.79" width="102.2" height="94.51"/><rect class="cls-4" x="559.17" y="418.55" width="79.09" height="35.75"/><rect class="cls-4" x="559.17" y="454.3" width="79.09" height="50.55"/><rect class="cls-4" x="559.17" y="517.42" width="79.09" height="35.75"/><rect class="cls-4" x="559.17" y="586.81" width="79.09" height="35.75"/><rect class="cls-4" x="559.17" y="622.42" width="79.09" height="35.75"/><rect class="cls-4" x="559.17" y="658.02" width="79.09" height="35.75"/><rect class="cls-4" x="559.17" y="716.21" width="79.09" height="35.75"/><rect class="cls-4" x="559.17" y="751.82" width="79.09" height="35.75"/><rect class="cls-4" x="559.17" y="787.42" width="79.09" height="35.75"/><rect class="cls-4" x="559.17" y="845.61" width="79.09" height="35.75"/><rect class="cls-4" x="665.45" y="909.37" width="79.09" height="35.75" transform="translate(1632.24 222.26) rotate(90)"/><rect class="cls-4" x="629.84" y="909.37" width="79.09" height="35.75" transform="translate(1596.64 257.86) rotate(90)"/><rect class="cls-4" x="746.6" y="838.01" width="79.09" height="35.75" transform="translate(1642.03 69.74) rotate(90)"/><rect class="cls-4" x="711" y="838.01" width="79.09" height="35.75" transform="translate(1606.43 105.34) rotate(90)"/><rect class="cls-4" x="875.59" y="838.01" width="79.09" height="35.75" transform="translate(1771.02 -59.25) rotate(90)"/><rect class="cls-4" x="839.99" y="838.01" width="79.09" height="35.75" transform="translate(1735.42 -23.65) rotate(90)"/><rect class="cls-4" x="804.39" y="838.01" width="79.09" height="35.75" transform="translate(1699.82 11.95) rotate(90)"/><rect class="cls-4" x="745.82" y="669.49" width="79.09" height="35.75" transform="translate(1472.73 -98) rotate(90)"/><rect class="cls-4" x="710.22" y="669.49" width="79.09" height="35.75" transform="translate(1437.13 -62.39) rotate(90)"/><rect class="cls-4" x="831.29" y="669.49" width="79.09" height="35.75" transform="translate(1558.2 -183.47) rotate(90)"/><rect class="cls-4" x="795.69" y="669.49" width="79.09" height="35.75" transform="translate(1522.6 -147.86) rotate(90)"/><rect class="cls-4" x="888.89" y="575.88" width="79.09" height="35.75"/><rect class="cls-4" x="888.89" y="611.49" width="79.09" height="35.75"/><rect class="cls-4" x="888.89" y="647.09" width="79.09" height="35.75"/><rect class="cls-4" x="888.89" y="527" width="79.09" height="35.75"/><rect class="cls-4" x="745.82" y="517.42" width="79.09" height="35.75" transform="translate(1320.66 -250.07) rotate(90)"/><rect class="cls-4" x="710.22" y="517.42" width="79.09" height="35.75" transform="translate(1285.05 -214.47) rotate(90)"/><rect class="cls-4" x="831.29" y="517.42" width="79.09" height="35.75" transform="translate(1406.13 -335.54) rotate(90)"/><rect class="cls-4" x="795.69" y="517.42" width="79.09" height="35.75" transform="translate(1370.52 -299.94) rotate(90)"/><rect class="cls-4" x="731.88" y="611.49" width="79.09" height="35.75"/><rect class="cls-4" x="1051.43" y="580.41" width="79.09" height="35.75"/><rect class="cls-4" x="1051.43" y="616.01" width="79.09" height="35.75"/><rect class="cls-4" x="1051.43" y="651.62" width="79.09" height="35.75"/><rect class="cls-4" x="1130.52" y="580.43" width="79.09" height="35.75"/><rect class="cls-4" x="1130.52" y="616.03" width="79.09" height="35.75"/><rect class="cls-4" x="1130.52" y="651.63" width="79.09" height="35.75"/><rect class="cls-4" x="1055.37" y="523.14" width="79.09" height="35.75" transform="translate(553.9 1635.93) rotate(-90)"/><rect class="cls-4" x="1090.97" y="523.14" width="79.09" height="35.75" transform="translate(589.51 1671.53) rotate(-90)"/><rect class="cls-4" x="1126.58" y="523.14" width="79.09" height="35.75" transform="translate(625.11 1707.14) rotate(-90)"/><rect class="cls-4" x="1051.43" y="705.18" width="79.09" height="35.75"/><rect class="cls-4" x="1051.43" y="740.79" width="79.09" height="35.75"/><rect class="cls-4" x="1130.52" y="705.18" width="79.09" height="35.75"/><rect class="cls-4" x="960.95" y="816.34" width="79.09" height="35.75"/><rect class="cls-4" x="1323.09" y="523.14" width="79.09" height="35.75" transform="translate(821.62 1903.64) rotate(-90)"/><rect class="cls-4" x="1358.69" y="523.14" width="79.09" height="35.75" transform="translate(857.22 1939.25) rotate(-90)"/><rect class="cls-4" x="1394.29" y="523.14" width="79.09" height="35.75" transform="translate(892.82 1974.85) rotate(-90)"/><rect class="cls-4" x="1447.76" y="523.14" width="79.09" height="35.75" transform="translate(946.29 2028.32) rotate(-90)"/><rect class="cls-4" x="1483.36" y="523.14" width="79.09" height="35.75" transform="translate(981.9 2063.92) rotate(-90)"/><rect class="cls-4" x="1301.27" y="616.1" width="79.09" height="35.75" transform="translate(2681.63 1267.96) rotate(-180)"/><rect class="cls-4" x="1301.27" y="580.5" width="79.09" height="35.75" transform="translate(2681.63 1196.75) rotate(-180)"/><text class="cls-7" transform="translate(916.23 468.85)"><tspan class="cls-9" x="0" y="0">L</tspan><tspan class="cls-1" x="12.28" y="0">y</tspan><tspan x="25.17" y="0">ceum 주차장</tspan></text><path class="cls-3" d="m537.72,312.89v653.9h274.21v-62.9h127.62v-43.76h154.97v-44.62c130.99-21.53,286.23-63.09,448.5-143.16,52.69-26,100.99-53.53,145.03-81.42v-278.04H537.72Z"/><rect class="cls-4" x="1052.08" y="354.89" width="79.09" height="35.75" transform="translate(718.87 1464.39) rotate(-90)"/><rect class="cls-4" x="1087.69" y="354.89" width="79.09" height="35.75" transform="translate(754.47 1499.99) rotate(-90)"/><rect class="cls-4" x="1123.29" y="354.89" width="79.09" height="35.75" transform="translate(790.07 1535.6) rotate(-90)"/><rect class="cls-4" x="1187.94" y="354.89" width="79.09" height="35.75" transform="translate(854.72 1600.25) rotate(-90)"/><rect class="cls-4" x="1223.54" y="354.89" width="79.09" height="35.75" transform="translate(890.33 1635.85) rotate(-90)"/><rect class="cls-4" x="1259.15" y="354.89" width="79.09" height="35.75" transform="translate(925.93 1671.45) rotate(-90)"/><rect class="cls-4" x="1316.18" y="354.89" width="79.09" height="35.75" transform="translate(982.97 1728.49) rotate(-90)"/><rect class="cls-4" x="1351.79" y="354.89" width="79.09" height="35.75" transform="translate(1018.57 1764.09) rotate(-90)"/><rect class="cls-4" x="1387.39" y="354.89" width="79.09" height="35.75" transform="translate(1054.17 1799.7) rotate(-90)"/><rect class="cls-4" x="963.03" y="354.89" width="79.09" height="35.75" transform="translate(629.81 1375.34) rotate(-90)"/><rect class="cls-4" x="998.63" y="354.89" width="79.09" height="35.75" transform="translate(665.42 1410.94) rotate(-90)"/><rect class="cls-4" x="789.31" y="354.89" width="79.09" height="35.75" transform="translate(456.09 1201.61) rotate(-90)"/><rect class="cls-4" x="824.91" y="354.89" width="79.09" height="35.75" transform="translate(491.69 1237.21) rotate(-90)"/><rect class="cls-4" x="703.86" y="354.89" width="79.09" height="35.75" transform="translate(370.65 1116.17) rotate(-90)"/><rect class="cls-4" x="739.47" y="354.89" width="79.09" height="35.75" transform="translate(406.25 1151.77) rotate(-90)"/><rect class="cls-4" x="632.75" y="354.89" width="79.09" height="35.75" transform="translate(299.54 1045.06) rotate(-90)"/><rect class="cls-4" x="668.36" y="354.89" width="79.09" height="35.75" transform="translate(335.14 1080.66) rotate(-90)"/><rect class="cls-4" x="1521.21" y="354.89" width="79.09" height="35.75" transform="translate(1187.99 1933.52) rotate(-90)"/><rect class="cls-4" x="1570.31" y="351.87" width="79.09" height="35.75" transform="translate(1240.12 1979.6) rotate(-90)"/><rect class="cls-4" x="1605.92" y="351.87" width="79.09" height="35.75" transform="translate(1275.72 2015.2) rotate(-90)"/><rect class="cls-4" x="1445.82" y="341.59" width="79.09" height="62.34" transform="translate(1112.61 1858.13) rotate(-90)"/><rect class="cls-4" x="869.05" y="351.35" width="79.09" height="44.33" transform="translate(535.08 1282.11) rotate(-90)"/><rect class="cls-4" x="930.28" y="334.45" width="39.59" height="38.62" transform="translate(596.31 1303.84) rotate(-90)"/></g></svg>