<?xml version="1.0" encoding="UTF-8"?><svg xmlns="http://www.w3.org/2000/svg" viewBox="0 0 1920 1080"><g id="Layer_border"><polygon points="869 827 869 808 273 808 273 430 705 430 705 136 1178 136 1178 430 1573 430 1573 808 1001 808 1001 827 869 827" fill="#fdf3f2"/><path d="m1173,141v294h395v368h-572v19h-122v-19H278v-368h432V141h463m10-10h-483v294h-432v388h596v19h142v-19h572v-388h-395V131h0Z" fill="#e18686"/><rect x="198" y="554" width="74" height="136" fill="#fdf3f2"/><path d="m267,559v126h-64v-126h64m10-10h-84v146h84v-146h0Z" fill="#e18686"/><rect x="1577.5" y="557.5" width="71" height="129" fill="#fdf3f2"/><path d="m1647,559v126h-68v-126h68m3-3h-74v132h74v-132h0Z" fill="#e18686"/><polygon points="845.5 858.5 845.5 808.5 867.5 808.5 867.5 831.5 1003.5 831.5 1003.5 808.5 1025.5 808.5 1025.5 858.5 845.5 858.5" fill="#fdf3f2"/><path d="m1024,810v47h-177v-47h19v23h139v-23h19m3-3h-25v23h-133v-23h-25v53h183v-53h0Z" fill="#e18686"/></g><g id="Layer_others"><rect x="801.5" y="495.5" width="93" height="137" fill="none" stroke="#e18686" stroke-miterlimit="10" stroke-width="3"/><rect x="801.5" y="495.5" width="93" height="34" fill="none" stroke="#e18686" stroke-miterlimit="10" stroke-width="3"/><rect x="984.5" y="499.5" width="49" height="138" fill="none" stroke="#e18686" stroke-miterlimit="10" stroke-width="3"/><rect x="992.5" y="550.5" width="29" height="29" fill="none" stroke="#e18686" stroke-miterlimit="10" stroke-width="3"/><rect x="992.5" y="590.5" width="29" height="29" fill="none" stroke="#e18686" stroke-miterlimit="10" stroke-width="3"/><rect x="1174" y="434.5" width="62.5" height="65" fill="none" stroke="#e18686" stroke-miterlimit="10" stroke-width="3"/><rect x="170.31" y="588.69" width="127.92" height="66.55" transform="translate(856.24 387.69) rotate(90)" fill="none" stroke="#e18686" stroke-miterlimit="10" stroke-width="3"/><line x1="267.55" y1="569.21" x2="201" y2="569.21" fill="none" stroke="#e18686" stroke-miterlimit="10" stroke-width="3"/><line x1="267.55" y1="580.07" x2="201" y2="580.07" fill="none" stroke="#e18686" stroke-miterlimit="10" stroke-width="3"/><line x1="267.55" y1="590.92" x2="201" y2="590.92" fill="none" stroke="#e18686" stroke-miterlimit="10" stroke-width="3"/><line x1="267.55" y1="601.77" x2="201" y2="601.77" fill="none" stroke="#e18686" stroke-miterlimit="10" stroke-width="3"/><line x1="267.55" y1="612.62" x2="201" y2="612.62" fill="none" stroke="#e18686" stroke-miterlimit="10" stroke-width="3"/><line x1="267.55" y1="623.47" x2="201" y2="623.47" fill="none" stroke="#e18686" stroke-miterlimit="10" stroke-width="3"/><line x1="267.55" y1="634.32" x2="201" y2="634.32" fill="none" stroke="#e18686" stroke-miterlimit="10" stroke-width="3"/><line x1="267.55" y1="645.17" x2="201" y2="645.17" fill="none" stroke="#e18686" stroke-miterlimit="10" stroke-width="3"/><line x1="267.55" y1="656.02" x2="201" y2="656.02" fill="none" stroke="#e18686" stroke-miterlimit="10" stroke-width="3"/><line x1="267.55" y1="666.87" x2="201" y2="666.87" fill="none" stroke="#e18686" stroke-miterlimit="10" stroke-width="3"/><line x1="267.55" y1="677.73" x2="201" y2="677.73" fill="none" stroke="#e18686" stroke-miterlimit="10" stroke-width="3"/><rect x="1549.3" y="588.83" width="127.8" height="66.55" transform="translate(2235.3 -991.09) rotate(90)" fill="none" stroke="#e18686" stroke-miterlimit="10" stroke-width="3"/><line x1="1646.47" y1="569.41" x2="1579.92" y2="569.41" fill="none" stroke="#e18686" stroke-miterlimit="10" stroke-width="3"/><line x1="1646.47" y1="580.25" x2="1579.92" y2="580.25" fill="none" stroke="#e18686" stroke-miterlimit="10" stroke-width="3"/><line x1="1646.47" y1="591.09" x2="1579.92" y2="591.09" fill="none" stroke="#e18686" stroke-miterlimit="10" stroke-width="3"/><line x1="1646.47" y1="601.93" x2="1579.92" y2="601.93" fill="none" stroke="#e18686" stroke-miterlimit="10" stroke-width="3"/><line x1="1646.47" y1="612.77" x2="1579.92" y2="612.77" fill="none" stroke="#e18686" stroke-miterlimit="10" stroke-width="3"/><line x1="1646.47" y1="623.61" x2="1579.92" y2="623.61" fill="none" stroke="#e18686" stroke-miterlimit="10" stroke-width="3"/><line x1="1646.47" y1="634.45" x2="1579.92" y2="634.45" fill="none" stroke="#e18686" stroke-miterlimit="10" stroke-width="3"/><line x1="1646.47" y1="645.29" x2="1579.92" y2="645.29" fill="none" stroke="#e18686" stroke-miterlimit="10" stroke-width="3"/><line x1="1646.47" y1="656.13" x2="1579.92" y2="656.13" fill="none" stroke="#e18686" stroke-miterlimit="10" stroke-width="3"/><line x1="1646.47" y1="666.97" x2="1579.92" y2="666.97" fill="none" stroke="#e18686" stroke-miterlimit="10" stroke-width="3"/><line x1="1646.47" y1="677.81" x2="1579.92" y2="677.81" fill="none" stroke="#e18686" stroke-miterlimit="10" stroke-width="3"/><polygon points="892.5 529.5 892.5 495.5 800.25 495.5 800.25 496 800.25 529.5 800.25 598.5 800.25 632.5 834.25 632.5 892.5 632.5 892.5 598.5 834.25 598.5 834.25 529.5 892.5 529.5" fill="none" stroke="#e18686" stroke-miterlimit="10" stroke-width="3"/><line x1="882" y1="496" x2="882" y2="530" fill="none" stroke="#e18686" stroke-miterlimit="10" stroke-width="3"/><line x1="872.4" y1="496" x2="872.4" y2="530" fill="none" stroke="#e18686" stroke-miterlimit="10" stroke-width="3"/><line x1="862.8" y1="496" x2="862.8" y2="530" fill="none" stroke="#e18686" stroke-miterlimit="10" stroke-width="3"/><line x1="853.2" y1="496" x2="853.2" y2="530" fill="none" stroke="#e18686" stroke-miterlimit="10" stroke-width="3"/><line x1="843.6" y1="496" x2="843.6" y2="530" fill="none" stroke="#e18686" stroke-miterlimit="10" stroke-width="3"/><line x1="834" y1="496" x2="834" y2="530" fill="none" stroke="#e18686" stroke-miterlimit="10" stroke-width="3"/><line x1="882" y1="598" x2="882" y2="632" fill="none" stroke="#e18686" stroke-miterlimit="10" stroke-width="3"/><line x1="872.4" y1="598" x2="872.4" y2="632" fill="none" stroke="#e18686" stroke-miterlimit="10" stroke-width="3"/><line x1="862.8" y1="598" x2="862.8" y2="632" fill="none" stroke="#e18686" stroke-miterlimit="10" stroke-width="3"/><line x1="853.2" y1="598" x2="853.2" y2="632" fill="none" stroke="#e18686" stroke-miterlimit="10" stroke-width="3"/><line x1="843.6" y1="598" x2="843.6" y2="632" fill="none" stroke="#e18686" stroke-miterlimit="10" stroke-width="3"/><line x1="834" y1="598" x2="834" y2="632" fill="none" stroke="#e18686" stroke-miterlimit="10" stroke-width="3"/><line x1="799.46" y1="537.4" x2="833.46" y2="537.4" fill="none" stroke="#e18686" stroke-miterlimit="10" stroke-width="3"/><line x1="799.46" y1="547" x2="833.46" y2="547" fill="none" stroke="#e18686" stroke-miterlimit="10" stroke-width="3"/><line x1="799.46" y1="556.6" x2="833.46" y2="556.6" fill="none" stroke="#e18686" stroke-miterlimit="10" stroke-width="3"/><line x1="799.46" y1="566.2" x2="833.46" y2="566.2" fill="none" stroke="#e18686" stroke-miterlimit="10" stroke-width="3"/><line x1="799.46" y1="575.8" x2="833.46" y2="575.8" fill="none" stroke="#e18686" stroke-miterlimit="10" stroke-width="3"/><line x1="799.46" y1="585.4" x2="833.46" y2="585.4" fill="none" stroke="#e18686" stroke-miterlimit="10" stroke-width="3"/></g><g id="Layer_toilet2"><rect x="1033.5" y="499.5" width="140" height="138" transform="translate(2207 1137) rotate(180)" fill="none" stroke="#e18686" stroke-miterlimit="10" stroke-width="3"/></g><g id="Layer_toilet1"><rect x="1174" y="499.5" width="62.5" height="138" fill="none" stroke="#e18686" stroke-miterlimit="10" stroke-width="3"/></g><g id="Layer_301"><rect x="1006.5" y="350.5" width="167" height="149" fill="#f8cdce" stroke="#e18686" stroke-miterlimit="10" stroke-width="3"/><text transform="translate(1068.64 418.72)" fill="#434142" font-family="NanumSquareNeovariable-Heavy, &apos;NanumSquare Neo variable&apos;" font-size="22" font-variation-settings="&apos;wght&apos; 900" font-weight="800"><tspan x="0" y="0">301</tspan></text><text transform="translate(1027.87 446.72)" fill="#434142" font-family="NanumSquareNeovariable-Regular, &apos;NanumSquare Neo variable&apos;" font-size="22" font-variation-settings="&apos;wght&apos; 300"><tspan x="0" y="0">입학관리본부</tspan></text></g><g id="Layer_302"><rect x="1006.5" y="282.5" width="167" height="68" fill="#f8cdce" stroke="#e18686" stroke-miterlimit="10" stroke-width="3"/><text transform="translate(1065.94 323.46)" fill="#434142" font-family="NanumSquareNeovariable-Heavy, &apos;NanumSquare Neo variable&apos;" font-size="22" font-variation-settings="&apos;wght&apos; 900" font-weight="800"><tspan x="0" y="0">302</tspan></text></g><g id="Layer_303"><rect x="1006.5" y="209.5" width="167" height="73" fill="#f8cdce" stroke="#e18686" stroke-miterlimit="10" stroke-width="3"/><text transform="translate(1065.69 251.46)" fill="#434142" font-family="NanumSquareNeovariable-Heavy, &apos;NanumSquare Neo variable&apos;" font-size="22" font-variation-settings="&apos;wght&apos; 900" font-weight="800"><tspan x="0" y="0">303</tspan></text></g><g id="Layer_304"><rect x="1006.5" y="141.5" width="167" height="68" fill="#f8cdce" stroke="#e18686" stroke-miterlimit="10" stroke-width="3"/><text transform="translate(1065.75 183.46)" fill="#434142" font-family="NanumSquareNeovariable-Heavy, &apos;NanumSquare Neo variable&apos;" font-size="22" font-variation-settings="&apos;wght&apos; 900" font-weight="800"><tspan x="0" y="0">304</tspan></text></g><g id="Layer_344"><rect x="710.5" y="381.5" width="231.5" height="52.5" fill="#f8cdce" stroke="#e18686" stroke-miterlimit="10" stroke-width="3"/><text transform="translate(805.09 414.46)" fill="#434142" font-family="NanumSquareNeovariable-Heavy, &apos;NanumSquare Neo variable&apos;" font-size="22" font-variation-settings="&apos;wght&apos; 900" font-weight="800"><tspan x="0" y="0">344</tspan></text></g><g id="Layer_343"><rect x="710.5" y="323.5" width="231.5" height="58.5" fill="#f8cdce" stroke="#e18686" stroke-miterlimit="10" stroke-width="3"/><text transform="translate(805.02 358.46)" fill="#434142" font-family="NanumSquareNeovariable-Heavy, &apos;NanumSquare Neo variable&apos;" font-size="22" font-variation-settings="&apos;wght&apos; 900" font-weight="800"><tspan x="0" y="0">343</tspan></text></g><g id="Layer_342"><rect x="710.5" y="265.5" width="231.5" height="58.5" fill="#f8cdce" stroke="#e18686" stroke-miterlimit="10" stroke-width="3"/><text transform="translate(805.27 300.46)" fill="#434142" font-family="NanumSquareNeovariable-Heavy, &apos;NanumSquare Neo variable&apos;" font-size="22" font-variation-settings="&apos;wght&apos; 900" font-weight="800"><tspan x="0" y="0">342</tspan></text></g><g id="Layer_341"><rect x="710.5" y="207.5" width="231.5" height="58.5" fill="#f8cdce" stroke="#e18686" stroke-miterlimit="10" stroke-width="3"/><text transform="translate(807.53 242.46)" fill="#434142" font-family="NanumSquareNeovariable-Heavy, &apos;NanumSquare Neo variable&apos;" font-size="22" font-variation-settings="&apos;wght&apos; 900" font-weight="800"><tspan x="0" y="0">3</tspan><tspan x="15.88" y="0" letter-spacing="-.02em">4</tspan><tspan x="31.2" y="0" letter-spacing="0em">1</tspan></text></g><g id="Layer_340"><rect x="710.5" y="139.5" width="231.5" height="68.5" fill="#f8cdce" stroke="#e18686" stroke-miterlimit="10" stroke-width="3"/><text transform="translate(804.75 184.46)" fill="#434142" font-family="NanumSquareNeovariable-Heavy, &apos;NanumSquare Neo variable&apos;" font-size="22" font-variation-settings="&apos;wght&apos; 900" font-weight="800"><tspan x="0" y="0">340</tspan></text></g><g id="Layer_305"><rect x="801" y="434.44" width="94" height="61.06" fill="#f8cdce" stroke="#e18686" stroke-miterlimit="10" stroke-width="3"/><text transform="translate(823.83 471.4)" fill="#434142" font-family="NanumSquareNeovariable-Heavy, &apos;NanumSquare Neo variable&apos;" font-size="22" font-variation-settings="&apos;wght&apos; 900" font-weight="800"><tspan x="0" y="0">305</tspan></text></g><g id="Layer_306"><rect x="658.5" y="435.04" width="143" height="196.96" fill="#f8cdce" stroke="#e18686" stroke-miterlimit="10" stroke-width="3"/><text transform="translate(705.88 541.54)" fill="#434142" font-family="NanumSquareNeovariable-Heavy, &apos;NanumSquare Neo variable&apos;" font-size="22" font-variation-settings="&apos;wght&apos; 900" font-weight="800"><tspan x="0" y="0">306</tspan></text></g><g id="Layer_307"><rect x="521.5" y="435.04" width="137" height="196.96" transform="translate(1180 1067.04) rotate(180)" fill="#f8cdce" stroke="#e18686" stroke-miterlimit="10" stroke-width="3"/><text transform="translate(566.87 541.54)" fill="#434142" font-family="NanumSquareNeovariable-Heavy, &apos;NanumSquare Neo variable&apos;" font-size="22" font-variation-settings="&apos;wght&apos; 900" font-weight="800"><tspan x="0" y="0">307</tspan></text></g><g id="Layer_308"><rect x="443.5" y="435.41" width="78" height="196.96" transform="translate(965 1067.79) rotate(180)" fill="#f8cdce" stroke="#e18686" stroke-miterlimit="10" stroke-width="3"/><text transform="translate(458.67 541.92)" fill="#434142" font-family="NanumSquareNeovariable-Heavy, &apos;NanumSquare Neo variable&apos;" font-size="22" font-variation-settings="&apos;wght&apos; 900" font-weight="800"><tspan x="0" y="0">308</tspan></text></g><g id="Layer_309"><rect x="365.5" y="435.41" width="78" height="196.96" transform="translate(809 1067.79) rotate(180)" fill="#f8cdce" stroke="#e18686" stroke-miterlimit="10" stroke-width="3"/><text transform="translate(380.88 541.92)" fill="#434142" font-family="NanumSquareNeovariable-Heavy, &apos;NanumSquare Neo variable&apos;" font-size="22" font-variation-settings="&apos;wght&apos; 900" font-weight="800"><tspan x="0" y="0">309</tspan></text></g><g id="Layer_310"><rect x="278.5" y="435.41" width="87" height="196.96" transform="translate(644 1067.79) rotate(180)" fill="#f8cdce" stroke="#e18686" stroke-miterlimit="10" stroke-width="3"/><text transform="translate(301.27 541.92)" fill="#434142" font-family="NanumSquareNeovariable-Heavy, &apos;NanumSquare Neo variable&apos;" font-size="22" font-variation-settings="&apos;wght&apos; 900" font-weight="800"><tspan x="0" y="0" letter-spacing="0em">3</tspan><tspan x="15.66" y="0">10</tspan></text></g><g id="Layer_311"><rect x="278.5" y="681.36" width="87" height="122.14" transform="translate(644 1484.86) rotate(180)" fill="#f8cdce" stroke="#e18686" stroke-miterlimit="10" stroke-width="3"/><text transform="translate(303.82 747.86)" fill="#434142" font-family="NanumSquareNeovariable-Heavy, &apos;NanumSquare Neo variable&apos;" font-size="22" font-variation-settings="&apos;wght&apos; 900" font-weight="800"><tspan x="0" y="0" letter-spacing="0em">3</tspan><tspan x="15.66" y="0">11</tspan></text></g><g id="Layer_312"><rect x="364.5" y="681.36" width="47" height="122.14" transform="translate(776 1484.86) rotate(180)" fill="#f8cdce" stroke="#e18686" stroke-miterlimit="10" stroke-width="3"/><text transform="translate(370.63 747.86)" fill="#434142" font-family="NanumSquareNeovariable-Heavy, &apos;NanumSquare Neo variable&apos;" font-size="18" font-variation-settings="&apos;wght&apos; 900" font-weight="800"><tspan x="0" y="0" letter-spacing="-.01em">3</tspan><tspan x="12.82" y="0">12</tspan></text></g><g id="Layer_313"><rect x="410.5" y="681.36" width="47" height="122.14" transform="translate(868 1484.86) rotate(180)" fill="#f8cdce" stroke="#e18686" stroke-miterlimit="10" stroke-width="3"/><text transform="translate(416.43 747.86)" fill="#434142" font-family="NanumSquareNeovariable-Heavy, &apos;NanumSquare Neo variable&apos;" font-size="18" font-variation-settings="&apos;wght&apos; 900" font-weight="800"><tspan x="0" y="0" letter-spacing="-.01em">3</tspan><tspan x="12.82" y="0">13</tspan></text></g><g id="Layer_314"><rect x="457.5" y="681.36" width="61" height="122.14" transform="translate(976 1484.86) rotate(180)" fill="#f8cdce" stroke="#e18686" stroke-miterlimit="10" stroke-width="3"/><text transform="translate(470.48 747.86)" fill="#434142" font-family="NanumSquareNeovariable-Heavy, &apos;NanumSquare Neo variable&apos;" font-size="18" font-variation-settings="&apos;wght&apos; 900" font-weight="800"><tspan x="0" y="0" letter-spacing="-.01em">3</tspan><tspan x="12.82" y="0">14</tspan></text></g><g id="Layer_315"><rect x="518.5" y="681.36" width="66" height="122.14" transform="translate(1103 1484.86) rotate(180)" fill="#f8cdce" stroke="#e18686" stroke-miterlimit="10" stroke-width="3"/><text transform="translate(534.63 747.86)" fill="#434142" font-family="NanumSquareNeovariable-Heavy, &apos;NanumSquare Neo variable&apos;" font-size="18" font-variation-settings="&apos;wght&apos; 900" font-weight="800"><tspan x="0" y="0" letter-spacing="-.01em">3</tspan><tspan x="12.82" y="0">15</tspan></text></g><g id="Layer_316"><rect x="584.5" y="681.36" width="45" height="122.14" fill="#f8cdce" stroke="#e18686" stroke-miterlimit="10" stroke-width="3"/><text transform="translate(589.43 747.86)" fill="#434142" font-family="NanumSquareNeovariable-Heavy, &apos;NanumSquare Neo variable&apos;" font-size="18" font-variation-settings="&apos;wght&apos; 900" font-weight="800"><tspan x="0" y="0" letter-spacing="-.01em">3</tspan><tspan x="12.82" y="0">16</tspan></text></g><g id="Layer_317"><rect x="628.5" y="681.36" width="45" height="122.14" fill="#f8cdce" stroke="#e18686" stroke-miterlimit="10" stroke-width="3"/><text transform="translate(634.24 747.86)" fill="#434142" font-family="NanumSquareNeovariable-Heavy, &apos;NanumSquare Neo variable&apos;" font-size="18" font-variation-settings="&apos;wght&apos; 900" font-weight="800"><tspan x="0" y="0" letter-spacing="-.01em">3</tspan><tspan x="12.82" y="0">17</tspan></text></g><g id="Layer_318"><rect x="673.5" y="681.36" width="60" height="122.14" fill="#f8cdce" stroke="#e18686" stroke-miterlimit="10" stroke-width="3"/><text transform="translate(686.26 746.86)" fill="#434142" font-family="NanumSquareNeovariable-Heavy, &apos;NanumSquare Neo variable&apos;" font-size="18" font-variation-settings="&apos;wght&apos; 900" font-weight="800"><tspan x="0" y="0" letter-spacing="-.01em">3</tspan><tspan x="12.82" y="0">18</tspan></text></g><g id="Layer_319"><rect x="733.5" y="681.36" width="60" height="122.14" fill="#f8cdce" stroke="#e18686" stroke-miterlimit="10" stroke-width="3"/><text transform="translate(746.43 746.86)" fill="#434142" font-family="NanumSquareNeovariable-Heavy, &apos;NanumSquare Neo variable&apos;" font-size="18" font-variation-settings="&apos;wght&apos; 900" font-weight="800"><tspan x="0" y="0" letter-spacing="-.01em">3</tspan><tspan x="12.82" y="0">19</tspan></text></g><g id="Layer_320"><rect x="793.5" y="681.36" width="40.16" height="122.14" fill="#f8cdce" stroke="#e18686" stroke-miterlimit="10" stroke-width="3"/><text transform="translate(796.62 746.86)" fill="#434142" font-family="NanumSquareNeovariable-Heavy, &apos;NanumSquare Neo variable&apos;" font-size="16" font-variation-settings="&apos;wght&apos; 900" font-weight="800"><tspan x="0" y="0">320</tspan></text></g><g id="Layer_321"><rect x="832.84" y="681.36" width="40.16" height="122.14" fill="#f8cdce" stroke="#e18686" stroke-miterlimit="10" stroke-width="3"/><text transform="translate(837.48 746.86)" fill="#434142" font-family="NanumSquareNeovariable-Heavy, &apos;NanumSquare Neo variable&apos;" font-size="16" font-variation-settings="&apos;wght&apos; 900" font-weight="800"><tspan x="0" y="0">321</tspan></text></g><g id="Layer_322"><rect x="872.84" y="681.36" width="63.65" height="143.64" fill="#f8cdce" stroke="#e18686" stroke-miterlimit="10" stroke-width="3"/><text transform="translate(884.88 747.86)" fill="#434142" font-family="NanumSquareNeovariable-Heavy, &apos;NanumSquare Neo variable&apos;" font-size="18" font-variation-settings="&apos;wght&apos; 900" font-weight="800"><tspan x="0" y="0">322</tspan></text></g><g id="Layer_323"><rect x="936.35" y="681.36" width="63.65" height="143.64" fill="#f8cdce" stroke="#e18686" stroke-miterlimit="10" stroke-width="3"/><text transform="translate(948.67 747.86)" fill="#434142" font-family="NanumSquareNeovariable-Heavy, &apos;NanumSquare Neo variable&apos;" font-size="18" font-variation-settings="&apos;wght&apos; 900" font-weight="800"><tspan x="0" y="0">323</tspan></text></g><g id="Layer_324"><rect x="999.35" y="681.36" width="55.15" height="122.14" fill="#f8cdce" stroke="#e18686" stroke-miterlimit="10" stroke-width="3"/><text transform="translate(1007.99 747.86)" fill="#434142" font-family="NanumSquareNeovariable-Heavy, &apos;NanumSquare Neo variable&apos;" font-size="18" font-variation-settings="&apos;wght&apos; 900" font-weight="800"><tspan x="0" y="0">3</tspan><tspan x="13" y="0" letter-spacing="-.03em">2</tspan><tspan x="25.04" y="0" letter-spacing="0em">4</tspan></text></g><g id="Layer_325"><rect x="1054.35" y="681.36" width="42.15" height="122.14" fill="#f8cdce" stroke="#e18686" stroke-miterlimit="10" stroke-width="3"/><text transform="translate(1059 747.86)" fill="#434142" font-family="NanumSquareNeovariable-Heavy, &apos;NanumSquare Neo variable&apos;" font-size="16" font-variation-settings="&apos;wght&apos; 900" font-weight="800"><tspan x="0" y="0">325</tspan></text></g><g id="Layer_326"><rect x="1096.35" y="681.36" width="63.15" height="122.14" fill="#f8cdce" stroke="#e18686" stroke-miterlimit="10" stroke-width="3"/><text transform="translate(1108.68 747.86)" fill="#434142" font-family="NanumSquareNeovariable-Heavy, &apos;NanumSquare Neo variable&apos;" font-size="18" font-variation-settings="&apos;wght&apos; 900" font-weight="800"><tspan x="0" y="0">326</tspan></text></g><g id="Layer_327"><rect x="1159.35" y="681.36" width="63.15" height="122.14" fill="#f8cdce" stroke="#e18686" stroke-miterlimit="10" stroke-width="3"/><text transform="translate(1172.49 747.86)" fill="#434142" font-family="NanumSquareNeovariable-Heavy, &apos;NanumSquare Neo variable&apos;" font-size="18" font-variation-settings="&apos;wght&apos; 900" font-weight="800"><tspan x="0" y="0">327</tspan></text></g><g id="Layer_328"><rect x="1221.35" y="681.36" width="45.15" height="122.14" fill="#f8cdce" stroke="#e18686" stroke-miterlimit="10" stroke-width="3"/><text transform="translate(1226.67 747.86)" fill="#434142" font-family="NanumSquareNeovariable-Heavy, &apos;NanumSquare Neo variable&apos;" font-size="16" font-variation-settings="&apos;wght&apos; 900" font-weight="800"><tspan x="0" y="0">328</tspan></text></g><g id="Layer_329"><rect x="1265.35" y="681.36" width="45.15" height="122.14" fill="#f8cdce" stroke="#e18686" stroke-miterlimit="10" stroke-width="3"/><text transform="translate(1270.82 747.86)" fill="#434142" font-family="NanumSquareNeovariable-Heavy, &apos;NanumSquare Neo variable&apos;" font-size="16" font-variation-settings="&apos;wght&apos; 900" font-weight="800"><tspan x="0" y="0">329</tspan></text></g><g id="Layer_330"><rect x="1309.35" y="681.36" width="61.15" height="122.14" fill="#f8cdce" stroke="#e18686" stroke-miterlimit="10" stroke-width="3"/><text transform="translate(1320.25 747.86)" fill="#434142" font-family="NanumSquareNeovariable-Heavy, &apos;NanumSquare Neo variable&apos;" font-size="18" font-variation-settings="&apos;wght&apos; 900" font-weight="800"><tspan x="0" y="0">330</tspan></text></g><g id="Layer_331"><rect x="1370.35" y="681.36" width="61.15" height="122.14" fill="#f8cdce" stroke="#e18686" stroke-miterlimit="10" stroke-width="3"/><text transform="translate(1383.43 747.86)" fill="#434142" font-family="NanumSquareNeovariable-Heavy, &apos;NanumSquare Neo variable&apos;" font-size="18" font-variation-settings="&apos;wght&apos; 900" font-weight="800"><tspan x="0" y="0">3</tspan><tspan x="13" y="0" letter-spacing="-.01em">3</tspan><tspan x="25.81" y="0">1</tspan></text></g><g id="Layer_332"><rect x="1431.35" y="681.36" width="48.15" height="122.14" fill="#f8cdce" stroke="#e18686" stroke-miterlimit="10" stroke-width="2.66"/><text transform="translate(1436.67 747.86)" fill="#434142" font-family="NanumSquareNeovariable-Heavy, &apos;NanumSquare Neo variable&apos;" font-size="18" font-variation-settings="&apos;wght&apos; 900" font-weight="800"><tspan x="0" y="0">332</tspan></text></g><g id="Layer_333"><rect x="1479.35" y="681.36" width="40.15" height="122.14" fill="#f8cdce" stroke="#e18686" stroke-miterlimit="10" stroke-width="3"/><text transform="translate(1482.63 747.86)" fill="#434142" font-family="NanumSquareNeovariable-Heavy, &apos;NanumSquare Neo variable&apos;" font-size="16" font-variation-settings="&apos;wght&apos; 900" font-weight="800"><tspan x="0" y="0">333</tspan></text></g><g id="Layer_334"><rect x="1519.35" y="681.36" width="48.15" height="122.14" fill="#f8cdce" stroke="#e18686" stroke-miterlimit="10" stroke-width="2.66"/><text transform="translate(1524.52 747.86)" fill="#434142" font-family="NanumSquareNeovariable-Heavy, &apos;NanumSquare Neo variable&apos;" font-size="18" font-variation-settings="&apos;wght&apos; 900" font-weight="800"><tspan x="0" y="0">334</tspan></text></g><g id="Layer_335"><rect x="1509.5" y="435.34" width="57.71" height="177.66" fill="#f8cdce" stroke="#e18686" stroke-miterlimit="10" stroke-width="3"/><text transform="translate(1519.38 529.84)" fill="#434142" font-family="NanumSquareNeovariable-Heavy, &apos;NanumSquare Neo variable&apos;" font-size="18" font-variation-settings="&apos;wght&apos; 900" font-weight="800"><tspan x="0" y="0">335</tspan></text></g><g id="Layer_336"><rect x="1439.5" y="435.34" width="69.71" height="177.66" fill="#f8cdce" stroke="#e18686" stroke-miterlimit="10" stroke-width="3"/><text transform="translate(1455.18 529.84)" fill="#434142" font-family="NanumSquareNeovariable-Heavy, &apos;NanumSquare Neo variable&apos;" font-size="18" font-variation-settings="&apos;wght&apos; 900" font-weight="800"><tspan x="0" y="0">336</tspan></text></g><g id="Layer_337"><rect x="1373.5" y="435.34" width="69.71" height="177.66" fill="#f8cdce" stroke="#e18686" stroke-miterlimit="10" stroke-width="3"/><text transform="translate(1389.99 529.84)" fill="#434142" font-family="NanumSquareNeovariable-Heavy, &apos;NanumSquare Neo variable&apos;" font-size="18" font-variation-settings="&apos;wght&apos; 900" font-weight="800"><tspan x="0" y="0">337</tspan></text></g><g id="Layer_338"><rect x="1303.5" y="435.34" width="71.71" height="177.66" fill="#f8cdce" stroke="#e18686" stroke-miterlimit="10" stroke-width="3"/><text transform="translate(1320.01 529.84)" fill="#434142" font-family="NanumSquareNeovariable-Heavy, &apos;NanumSquare Neo variable&apos;" font-size="18" font-variation-settings="&apos;wght&apos; 900" font-weight="800"><tspan x="0" y="0">338</tspan></text></g><g id="Layer_339"><rect x="1236.5" y="435.34" width="67" height="177.66" fill="#f8cdce" stroke="#e18686" stroke-miterlimit="10" stroke-width="3"/><text transform="translate(1250.18 529.84)" fill="#434142" font-family="NanumSquareNeovariable-Heavy, &apos;NanumSquare Neo variable&apos;" font-size="18" font-variation-settings="&apos;wght&apos; 900" font-weight="800"><tspan x="0" y="0">339</tspan></text></g></svg>