<?xml version="1.0" encoding="UTF-8"?><svg
  xmlns="http://www.w3.org/2000/svg"
  viewBox="0 0 1920 1080"
>
  <g id="Layer_border">
    <polygon
      points="300.89 290.92 300.89 325.29 998.72 654.39 1243.43 882.75 1558.88 540.75 1558.88 302.76 300.89 290.92"
      fill="#fdf3f2"
      stroke="#e18686"
      stroke-miterlimit="10"
      stroke-width="5"
    />
  </g>
  <g id="Layer_others">
    <line
      x1="373"
      y1="293"
      x2="373"
      y2="358.54"
      fill="none"
      stroke="#e18686"
      stroke-miterlimit="10"
      stroke-width="2"
    />
    <line
      x1="386.83"
      y1="293"
      x2="386.83"
      y2="365"
      fill="none"
      stroke="#e18686"
      stroke-miterlimit="10"
      stroke-width="2"
    />
    <line
      x1="400.67"
      y1="293"
      x2="400.67"
      y2="371"
      fill="none"
      stroke="#e18686"
      stroke-miterlimit="10"
      stroke-width="2"
    />
    <line
      x1="414.5"
      y1="293"
      x2="414.5"
      y2="377"
      fill="none"
      stroke="#e18686"
      stroke-miterlimit="10"
      stroke-width="2"
    />
    <line
      x1="428.33"
      y1="293"
      x2="428.33"
      y2="384"
      fill="none"
      stroke="#e18686"
      stroke-miterlimit="10"
      stroke-width="2"
    />
    <line
      x1="442.17"
      y1="293"
      x2="442.17"
      y2="390"
      fill="none"
      stroke="#e18686"
      stroke-miterlimit="10"
      stroke-width="2"
    />
    <line
      x1="456"
      y1="293"
      x2="456"
      y2="398"
      fill="none"
      stroke="#e18686"
      stroke-miterlimit="10"
      stroke-width="2"
    />
    <line
      x1="469.83"
      y1="293"
      x2="469.83"
      y2="403"
      fill="none"
      stroke="#e18686"
      stroke-miterlimit="10"
      stroke-width="2"
    />
    <line
      x1="483.67"
      y1="293"
      x2="483.67"
      y2="410"
      fill="none"
      stroke="#e18686"
      stroke-miterlimit="10"
      stroke-width="2"
    />
    <line
      x1="497.5"
      y1="293"
      x2="497.5"
      y2="417"
      fill="none"
      stroke="#e18686"
      stroke-miterlimit="10"
      stroke-width="2"
    />
    <line
      x1="511.33"
      y1="293"
      x2="511.33"
      y2="422"
      fill="none"
      stroke="#e18686"
      stroke-miterlimit="10"
      stroke-width="2"
    />
    <line
      x1="525.17"
      y1="293"
      x2="525.17"
      y2="430"
      fill="none"
      stroke="#e18686"
      stroke-miterlimit="10"
      stroke-width="2"
    />
    <line
      x1="539"
      y1="293"
      x2="539"
      y2="436"
      fill="none"
      stroke="#e18686"
      stroke-miterlimit="10"
      stroke-width="2"
    />
    <polyline
      points="1318.5 519.07 1454.15 651.05 1324 792 1184.8 660.11 1318.5 519.07"
      fill="none"
      stroke="#e18686"
      stroke-miterlimit="10"
      stroke-width="2.27"
    />
    <line
      x1="1241.34"
      y1="598.83"
      x2="1381.31"
      y2="729.51"
      fill="none"
      stroke="#e18686"
      stroke-miterlimit="10"
      stroke-width="2"
    />
    <line
      x1="1234.59"
      y1="606.05"
      x2="1374.56"
      y2="736.74"
      fill="none"
      stroke="#e18686"
      stroke-miterlimit="10"
      stroke-width="2"
    />
    <line
      x1="1227.85"
      y1="613.28"
      x2="1367.81"
      y2="743.96"
      fill="none"
      stroke="#e18686"
      stroke-miterlimit="10"
      stroke-width="2"
    />
    <line
      x1="1221.1"
      y1="620.5"
      x2="1361.07"
      y2="751.19"
      fill="none"
      stroke="#e18686"
      stroke-miterlimit="10"
      stroke-width="2"
    />
    <line
      x1="1214.35"
      y1="627.73"
      x2="1354.32"
      y2="758.42"
      fill="none"
      stroke="#e18686"
      stroke-miterlimit="10"
      stroke-width="2"
    />
    <line
      x1="1207.6"
      y1="634.95"
      x2="1347.57"
      y2="765.64"
      fill="none"
      stroke="#e18686"
      stroke-miterlimit="10"
      stroke-width="2"
    />
    <line
      x1="1200.86"
      y1="642.18"
      x2="1340.83"
      y2="772.87"
      fill="none"
      stroke="#e18686"
      stroke-miterlimit="10"
      stroke-width="2"
    />
    <line
      x1="1194.11"
      y1="649.41"
      x2="1334.08"
      y2="780.09"
      fill="none"
      stroke="#e18686"
      stroke-miterlimit="10"
      stroke-width="2"
    />
    <rect
      x="1289.68"
      y="610.64"
      width="90"
      height="62.69"
      transform="translate(778.47 -730.66) rotate(42.25)"
      fill="none"
      stroke="#e18686"
      stroke-miterlimit="10"
      stroke-width="1.67"
    />
  </g>
  <g id="Layer_B101">
    <path
      d="m552,296v145.4l446.72,212.99c34.09,31.2,68.18,62.4,102.28,93.61,83.3-87.98,166.6-175.95,249.9-263.93l-36.98-36.98-35.11,35.11-195.8-182.21c-177-1.33-354-2.67-531-4Z"
      fill="#f8cdce"
      stroke="#e18686"
      stroke-miterlimit="10"
      stroke-width="2"
    />
    <text
      transform="translate(899.01 457.16)"
      fill="#434142"
      font-family="NanumSquareNeovariable-Heavy, 'NanumSquare Neo variable'"
      font-size="22"
      font-variation-settings="'wght' 900"
      font-weight="800"
    >
      <tspan x="0" y="0">B101</tspan>
    </text>
  </g>
  <g id="Layer_B101A">
    <polygon
      points="1409.47 423.24 1350.9 484.07 1313.92 447.1 1278.8 482.21 1083 300 1409.09 303.98 1409.47 423.24"
      fill="#f8cdce"
      stroke="#e18686"
      stroke-miterlimit="10"
      stroke-width="2"
    />
    <text
      transform="translate(1256.75 377.83)"
      fill="#434142"
      font-family="NanumSquareNeovariable-Heavy, 'NanumSquare Neo variable'"
      font-size="22"
      font-variation-settings="'wght' 900"
      font-weight="800"
    >
      <tspan x="0" y="0">B101A</tspan>
    </text>
  </g>
  <g id="Layer_B102">
    <path
      d="m1409,304v121l-6.62,7.02,132.95,129.54,21.67-22.29v-235.27h-148Z"
      fill="#f8cdce"
      stroke="#e18686"
      stroke-miterlimit="10"
      stroke-width="2.01"
    />
    <text
      transform="translate(1455.71 376.72)"
      fill="#434142"
      font-family="NanumSquareNeovariable-Heavy, 'NanumSquare Neo variable'"
      font-size="22"
      font-variation-settings="'wght' 900"
      font-weight="800"
    >
      <tspan x="0" y="0">B102</tspan>
    </text>
  </g>
  <g id="Layer_toilet1">
    <rect
      x="1365.74"
      y="455.48"
      width="93.91"
      height="65.1"
      transform="translate(739.17 -846.23) rotate(44.16)"
      fill="none"
      stroke="#e18686"
      stroke-miterlimit="10"
      stroke-width="2"
    />
  </g>
  <g id="Layer_toilet2">
    <polygon
      points="1469.06 497.39 1423.71 544.09 1357.05 479.37 1318.5 519.07 1431.73 629.01 1470.28 589.31 1515.63 542.61 1469.06 497.39"
      fill="none"
      stroke="#e18686"
      stroke-miterlimit="10"
      stroke-width="2"
    />
  </g>
</svg>
