<?xml version="1.0" encoding="UTF-8"?>
<svg id="_x37_" xmlns="http://www.w3.org/2000/svg" viewBox="0 0 1350.69 867.01">
  <defs>
    <style>
      .cls-1 {
        fill: #fcf2f2;
        stroke-width: 10px;
      }

      .cls-1, .cls-2, .cls-3 {
        stroke: #e68b8b;
        stroke-miterlimit: 10;
      }

      .cls-2 {
        fill: #fcf2f2;
      }

      .cls-2, .cls-3 {
        stroke-width: 3px;
      }

      .cls-4 {
        font-size: 12px;
      }

      .cls-4, .cls-5 {
        fill: #221f20;
        font-family: NanumSquareNeoTTF-dEb, 'NanumSquare Neo';
      }

      .cls-5 {
        font-size: 10px;
      }

      .cls-6 {
        letter-spacing: -.03em;
      }

      .cls-7 {
        letter-spacing: -.01em;
      }

      .cls-3 {
        fill: #f3cdcf;
      }
    </style>
  </defs>
  <g id="Layer_x5F_border-9" data-name="Layer_x5F_border">
    <rect class="cls-1" x="90.96" y="188.88" width="1175.42" height="517.29"/>
    <g>
      <rect class="cls-2" x="1266.38" y="539.19" width="4.62" height="28.35"/>
      <rect class="cls-2" x="1271" y="539.19" width="4.8" height="28.35"/>
      <rect class="cls-2" x="1275.8" y="539.19" width="5.54" height="28.35"/>
      <rect class="cls-2" x="1281.34" y="539.19" width="4.43" height="28.35"/>
      <rect class="cls-2" x="1285.78" y="539.19" width="5.54" height="28.35"/>
      <rect class="cls-2" x="1291.32" y="539.19" width="3.97" height="28.35"/>
      <rect class="cls-2" x="1295.29" y="539.19" width="6" height="28.35"/>
      <rect class="cls-2" x="1301.3" y="539.19" width="5.54" height="28.35"/>
      <rect class="cls-2" x="1306.84" y="539.19" width="4.8" height="28.35"/>
      <rect class="cls-2" x="1311.64" y="539.19" width="4.8" height="28.35"/>
    </g>
  </g>
  <g id="Layer_x5F_others-9" data-name="Layer_x5F_others">
    <rect class="cls-3" x="1092.3" y="352.75" width="16.69" height="186.44"/>
    <rect class="cls-2" x="936.71" y="352.75" width="126.24" height="48.59"/>
    <rect class="cls-2" x="936.71" y="401.35" width="48.41" height="137.84"/>
    <rect class="cls-3" x="936.71" y="407.2" width="48.41" height="48.41"/>
    <rect class="cls-3" x="936.71" y="462.45" width="48.41" height="41.99"/>
    <rect class="cls-3" x="1005.22" y="514.6" width="87.07" height="24.59"/>
    <g>
      <rect class="cls-2" x="969.86" y="352.75" width="8.59" height="22.73"/>
      <rect class="cls-2" x="978.45" y="352.75" width="8.93" height="22.73"/>
      <rect class="cls-2" x="987.38" y="352.75" width="10.3" height="22.73"/>
      <rect class="cls-2" x="997.68" y="352.75" width="8.24" height="22.73"/>
      <rect class="cls-2" x="1005.93" y="352.75" width="10.3" height="22.73"/>
      <rect class="cls-2" x="1016.23" y="352.75" width="7.38" height="22.73"/>
      <rect class="cls-2" x="1023.62" y="352.75" width="11.16" height="22.73"/>
      <rect class="cls-2" x="1034.78" y="352.75" width="10.3" height="22.73"/>
      <rect class="cls-2" x="1045.08" y="352.75" width="8.93" height="22.73"/>
      <rect class="cls-2" x="1054.01" y="352.75" width="8.93" height="22.73"/>
    </g>
    <g>
      <rect class="cls-2" x="969.69" y="377.05" width="8.59" height="22.73"/>
      <rect class="cls-2" x="978.28" y="377.05" width="8.93" height="22.73"/>
      <rect class="cls-2" x="987.21" y="377.05" width="10.3" height="22.73"/>
      <rect class="cls-2" x="997.51" y="377.05" width="8.24" height="22.73"/>
      <rect class="cls-2" x="1005.75" y="377.05" width="10.3" height="22.73"/>
      <rect class="cls-2" x="1016.06" y="377.05" width="7.38" height="22.73"/>
      <rect class="cls-2" x="1023.44" y="377.05" width="11.16" height="22.73"/>
      <rect class="cls-2" x="1034.61" y="377.05" width="10.3" height="22.73"/>
      <rect class="cls-2" x="1044.91" y="377.05" width="8.93" height="22.73"/>
      <rect class="cls-2" x="1053.84" y="377.05" width="8.93" height="22.73"/>
    </g>
    <rect class="cls-2" x="1062.94" y="352.75" width="29.35" height="48.59"/>
    <rect class="cls-2" x="280.48" y="515.98" width="74.26" height="22.39"/>
    <rect class="cls-3" x="389.63" y="467.59" width="42.04" height="42.04"/>
    <rect class="cls-2" x="309.52" y="350.06" width="124.9" height="50.11"/>
    <rect class="cls-3" x="334.11" y="400.17" width="55.52" height="55.52"/>
    <polygon class="cls-2" points="389.63 455.7 389.63 509.63 431.67 509.63 431.67 538.37 376.59 538.37 376.59 455.7 389.63 455.7"/>
    <g>
      <rect class="cls-2" x="311.05" y="351.91" width="8.59" height="25.11"/>
      <rect class="cls-2" x="319.64" y="351.91" width="8.93" height="25.11"/>
      <rect class="cls-2" x="328.57" y="351.91" width="10.3" height="25.11"/>
      <rect class="cls-2" x="338.87" y="351.91" width="8.24" height="25.11"/>
      <rect class="cls-2" x="347.11" y="351.91" width="10.3" height="25.11"/>
      <rect class="cls-2" x="357.42" y="351.91" width="7.38" height="25.11"/>
      <rect class="cls-2" x="364.8" y="351.91" width="11.16" height="25.11"/>
      <rect class="cls-2" x="375.97" y="351.91" width="10.3" height="25.11"/>
      <rect class="cls-2" x="386.27" y="351.91" width="8.93" height="25.11"/>
      <rect class="cls-2" x="395.2" y="351.91" width="8.93" height="25.11"/>
    </g>
    <g>
      <rect class="cls-2" x="310.91" y="376.73" width="8.59" height="22.73"/>
      <rect class="cls-2" x="319.49" y="376.73" width="8.93" height="22.73"/>
      <rect class="cls-2" x="328.43" y="376.73" width="10.3" height="22.73"/>
      <rect class="cls-2" x="338.73" y="376.73" width="8.24" height="22.73"/>
      <rect class="cls-2" x="346.97" y="376.73" width="10.3" height="22.73"/>
      <rect class="cls-2" x="357.28" y="376.73" width="7.38" height="22.73"/>
      <rect class="cls-2" x="364.66" y="376.73" width="11.16" height="22.73"/>
      <rect class="cls-2" x="375.82" y="376.73" width="10.3" height="22.73"/>
      <rect class="cls-2" x="386.13" y="376.73" width="8.93" height="22.73"/>
      <rect class="cls-2" x="395.06" y="376.73" width="8.93" height="22.73"/>
    </g>
    <rect class="cls-2" x="280.48" y="350.06" width="29.04" height="50.11"/>
    <rect class="cls-3" x="1137.57" y="305.61" width="57.3" height="17.99"/>
    <rect class="cls-3" x="927.7" y="305.61" width="55.21" height="17.99"/>
    <rect class="cls-3" x="716.5" y="305.61" width="55.96" height="17.99"/>
    <rect class="cls-3" x="505.97" y="305.61" width="56.46" height="17.99"/>
    <rect class="cls-3" x="295" y="305.61" width="57.13" height="17.99"/>
    <rect class="cls-2" x="644.55" y="369.93" width="195.41" height="153.79"/>
  </g>
  <g id="Layer_248">
    <polygon class="cls-2" points="280.48 400.17 280.48 515.98 354.73 515.98 354.73 538.37 376.59 538.37 376.59 455.7 334.11 455.7 334.11 400.17 280.48 400.17"/>
  </g>
  <g id="Layer_244">
    <polygon class="cls-3" points="204.72 323.6 295 323.6 295 305.61 323.56 305.61 324.1 188.88 204.72 188.88 204.72 323.6"/>
    <text class="cls-4" transform="translate(252.08 237.62)"><tspan x="0" y="0">720</tspan><tspan x="-24.77" y="14.4">차세대 전지 및</tspan><tspan x="-23.28" y="28.8">전기화학 촉매</tspan><tspan x="-4.73" y="43.2">연구실</tspan></text>
  </g>
  <g id="Layer_245">
    <polygon class="cls-3" points="352.12 323.6 427.03 323.6 427.03 188.88 324.1 188.88 323.56 305.61 352.12 305.61 352.12 323.6"/>
    <text class="cls-4" transform="translate(364.4 244.82)"><tspan x="0" y="0">721</tspan><tspan x="-23.23" y="14.4">나노생명공학</tspan><tspan x="-6.17" y="28.8">연구실</tspan></text>
  </g>
  <g id="Layer_246">
    <polygon class="cls-3" points="505.97 323.6 427.03 323.6 427.03 188.88 534.2 188.88 534.2 305.61 505.97 305.61 505.97 323.6"/>
    <text class="cls-4" transform="translate(468.55 244.82)"><tspan x="0" y="0">722</tspan><tspan x="-22.06" y="14.4">나노생명공학</tspan><tspan x="-5" y="28.8">연구실</tspan></text>
  </g>
  <g id="Layer_247">
    <polygon class="cls-3" points="562.43 323.6 637.89 323.6 637.89 188.88 534.2 188.88 534.2 305.61 562.43 305.61 562.43 323.6"/>
    <text class="cls-4" transform="translate(573.85 244.82)"><tspan x="0" y="0">723</tspan><tspan x="-23.42" y="14.4">표면나노 공정</tspan><tspan x="-4.87" y="28.8">연구실</tspan></text>
  </g>
  <g id="Layer_229">
    <rect class="cls-3" x="847.11" y="567.54" width="105.43" height="138.63"/>
    <text class="cls-4" transform="translate(887.34 625.44)"><tspan x="0" y="0">704</tspan><tspan x="-21.64" y="14.4">합성대사공학</tspan><tspan x="-4.57" y="28.8">연구실</tspan></text>
  </g>
  <g id="Layer_230">
    <rect class="cls-3" x="952.7" y="567.54" width="105.93" height="138.63"/>
    <text class="cls-5" transform="translate(995.28 609.34)"><tspan x="0" y="0">703</tspan><tspan x="-36.02" y="12">미세유체공학 연구실/</tspan><tspan x="-31.25" y="24">에너지 공정 시스템 </tspan><tspan x="-6.34" y="36">연구실/</tspan><tspan x="-40.73" y="48">차세대 전지 및 전기화학</tspan><tspan x="-14.56" y="60">촉매 연구실</tspan></text>
  </g>
  <g id="Layer_231">
    <rect class="cls-3" x="1058.48" y="567.54" width="105.74" height="138.63"/>
    <text class="cls-5" transform="translate(1101.07 621.34)"><tspan x="0" y="0">702</tspan><tspan x="-36.12" y="12">나노유기재료 연구실/</tspan><tspan x="-31.36" y="24">에너지소재 및 공정 </tspan><tspan x="-3.94" y="36">연구실</tspan></text>
  </g>
  <g id="Layer_232">
    <rect class="cls-3" x="1164.22" y="567.54" width="102.16" height="138.63"/>
    <text class="cls-4" transform="translate(1204.14 611.04)"><tspan x="0" y="0">701</tspan><tspan x="-24.45" y="14.4">분자생물공학 </tspan><tspan x="-8.9" y="28.8">연구실/</tspan><tspan x="-11.59" y="43.2">표면나노</tspan><tspan x="-18.76" y="57.6">공정 연구실</tspan></text>
  </g>
  <g id="Layer_233">
    <rect class="cls-3" x="1108.99" y="352.75" width="157.39" height="186.44"/>
    <text class="cls-4" transform="translate(1175.22 434.55)"><tspan x="0" y="0">730</tspan><tspan x="-21.67" y="14.4">화공생명공학</tspan><tspan x="-4.6" y="28.8">실험실</tspan></text>
  </g>
  <g id="Layer_234">
    <polygon class="cls-2" points="1005.22 539.19 1005.22 514.6 1092.3 514.6 1092.3 401.35 985.11 401.35 985.11 539.19 1005.22 539.19"/>
  </g>
  <g id="Layer_235">
    <rect class="cls-3" x="480.32" y="352.75" width="164.23" height="188"/>
    <text class="cls-4" transform="translate(551.47 428.14)"><tspan x="0" y="0">7</tspan><tspan class="cls-7" x="7.57" y="0">3</tspan><tspan x="15.98" y="0">1</tspan><tspan x="-26.14" y="14.4">분자 모델링 및</tspan><tspan x="-18.97" y="28.8">시뮬레이션 </tspan><tspan x="-6.1" y="43.2">연구실</tspan></text>
  </g>
  <g id="Layer_236">
    <rect class="cls-3" x="204.72" y="350.06" width="75.75" height="146.97"/>
    <text class="cls-4" transform="translate(230.41 404.93)"><tspan x="0" y="0">732</tspan><tspan x="-16.25" y="14.4">나노에너지</tspan><tspan x="-16.25" y="28.8">융합시스템</tspan><tspan x="-4.87" y="43.2">연구실</tspan></text>
  </g>
  <g id="Layer_237">
    <rect class="cls-3" x="204.72" y="497.03" width="75.75" height="41.34"/>
    <text class="cls-4" transform="translate(214.16 520.68)"><tspan x="0" y="0">교수화장실</tspan></text>
  </g>
  <g id="Layer_238">
    <polygon class="cls-3" points="1194.86 323.6 1266.38 323.6 1266.38 188.88 1166.21 188.88 1166.21 305.61 1194.86 305.61 1194.86 323.6"/>
    <text class="cls-4" transform="translate(1204.11 244.82)"><tspan x="0" y="0">729</tspan><tspan x="-21.94" y="14.4">분자생물공학</tspan><tspan x="-4.87" y="28.8">연구실</tspan></text>
  </g>
  <g id="Layer_239">
    <polygon class="cls-3" points="1137.57 323.6 1137.57 305.61 1166.21 305.61 1166.21 188.88 1058.31 188.88 1058.31 323.6 1137.57 323.6"/>
    <text class="cls-4" transform="translate(1099.94 237.62)"><tspan x="0" y="0">728</tspan><tspan x="-17.61" y="14.4">무기재료 및</tspan><tspan x="-10.43" y="28.8">분리반응</tspan><tspan x="-4.75" y="43.2">연구실</tspan></text>
  </g>
  <g id="Layer_240">
    <polygon class="cls-3" points="982.91 323.6 1058.31 323.6 1058.31 188.88 955.31 188.88 955.31 305.61 982.91 305.61 982.91 323.6"/>
    <text class="cls-4" transform="translate(995.09 244.82)"><tspan x="0" y="0">727</tspan><tspan x="-31.08" y="14.4">촉매 및 반응공학</tspan><tspan x="-5.35" y="28.8">연구실</tspan></text>
  </g>
  <g id="Layer_241">
    <polygon class="cls-3" points="927.7 323.6 927.7 305.61 955.31 305.61 955.31 188.88 846.31 188.88 846.31 323.6 927.7 323.6"/>
    <text class="cls-4" transform="translate(888.62 244.82)"><tspan x="0" y="0">726</tspan><tspan x="-30.6" y="14.4">촉매 및 반응공학</tspan><tspan x="-4.87" y="28.8">연구실</tspan></text>
  </g>
  <g id="Layer_242">
    <polygon class="cls-3" points="772.47 323.6 846.31 323.6 846.31 188.88 742.25 188.88 742.25 305.61 772.47 305.61 772.47 323.6"/>
    <text class="cls-4" transform="translate(782.21 244.82)"><tspan x="0" y="0">725</tspan><tspan x="-25.03" y="14.4">에너지 소재 및</tspan><tspan x="-17.86" y="28.8">공정 연구실</tspan></text>
  </g>
  <g id="Layer_243">
    <polygon class="cls-3" points="716.5 323.6 716.5 305.61 742.25 305.61 742.25 188.88 637.89 188.88 637.89 323.6 716.5 323.6"/>
    <text class="cls-4" transform="translate(678.03 244.82)"><tspan x="0" y="0">7</tspan><tspan class="cls-6" x="7.57" y="0">2</tspan><tspan x="15.49" y="0">4</tspan><tspan x="-22.09" y="14.4">미세유체공학</tspan><tspan x="-5.02" y="28.8">연구실</tspan></text>
  </g>
  <g id="Layer_214">
    <rect class="cls-3" x="90.96" y="188.88" width="77.8" height="59.92"/>
    <text class="cls-4" transform="translate(118.84 214.62)"><tspan x="0" y="0">719</tspan><tspan x="-17.42" y="14.4">교수연구실</tspan></text>
  </g>
  <g id="Layer_215">
    <rect class="cls-3" x="90.96" y="248.8" width="77.8" height="54.76"/>
    <text class="cls-4" transform="translate(118.71 271.96)"><tspan x="0" y="0">718</tspan><tspan x="-17.29" y="14.4">교수연구실</tspan></text>
  </g>
  <g id="Layer_216">
    <rect class="cls-3" x="90.96" y="303.56" width="77.8" height="57.3"/>
    <text class="cls-4" transform="translate(119.32 327.99)"><tspan x="0" y="0">717</tspan><tspan x="-17.9" y="14.4">교수연구실</tspan></text>
  </g>
  <g id="Layer_217">
    <rect class="cls-3" x="90.96" y="360.85" width="77.8" height="57.1"/>
    <text class="cls-4" transform="translate(118.84 385.19)"><tspan x="0" y="0">716</tspan><tspan x="-17.42" y="14.4">교수연구실</tspan></text>
  </g>
  <g id="Layer_218">
    <rect class="cls-3" x="90.96" y="417.95" width="77.8" height="55.69"/>
    <text class="cls-4" transform="translate(118.96 441.58)"><tspan x="0" y="0">715</tspan><tspan x="-17.54" y="14.4">교수연구실</tspan></text>
  </g>
  <g id="Layer_219">
    <rect class="cls-3" x="90.96" y="473.64" width="77.8" height="56.22"/>
    <text class="cls-4" transform="translate(118.81 497.54)"><tspan x="0" y="0">714</tspan><tspan x="-17.39" y="14.4">교수연구실</tspan></text>
  </g>
  <g id="Layer_220">
    <rect class="cls-3" x="90.96" y="529.86" width="77.8" height="56.48"/>
    <text class="cls-4" transform="translate(118.84 553.88)"><tspan x="0" y="0">713</tspan><tspan x="-17.42" y="14.4">교수연구실</tspan></text>
  </g>
  <g id="Layer_221">
    <rect class="cls-3" x="90.96" y="586.34" width="77.8" height="56.39"/>
    <text class="cls-4" transform="translate(118.97 610.32)"><tspan x="0" y="0">712</tspan><tspan x="-17.54" y="14.4">교수연구실</tspan></text>
  </g>
  <g id="Layer_222">
    <rect class="cls-3" x="90.96" y="642.73" width="77.8" height="63.44"/>
    <text class="cls-4" transform="translate(120.14 670.24)"><tspan x="0" y="0">711</tspan><tspan x="-18.71" y="14.4">교수연구실</tspan></text>
  </g>
  <g id="Layer_223">
    <rect class="cls-3" x="204.72" y="567.54" width="114.91" height="138.63"/>
    <text class="cls-4" transform="translate(251.01 625.44)"><tspan x="0" y="0">710</tspan><tspan x="-24.45" y="14.4">합성생물학 및</tspan><tspan x="-30.14" y="28.8">효소공학 연구실</tspan></text>
  </g>
  <g id="Layer_224">
    <rect class="cls-3" x="319.64" y="567.54" width="107.39" height="138.63"/>
    <text class="cls-4" transform="translate(360.87 618.24)"><tspan x="0" y="0">709</tspan><tspan x="-31.84" y="14.4">분자설계 연구실/</tspan><tspan x="-33.04" y="28.8">에너지공정시스템</tspan><tspan x="-4.6" y="43.2">연구실</tspan></text>
  </g>
  <g id="Layer_225">
    <rect class="cls-3" x="427.03" y="567.54" width="106.25" height="138.63"/>
    <text class="cls-4" transform="translate(467.56 625.44)"><tspan x="0" y="0">708</tspan><tspan x="-10.16" y="14.4">분자설계</tspan><tspan x="-4.48" y="28.8">연구실</tspan></text>
  </g>
  <g id="Layer_226">
    <rect class="cls-3" x="533.27" y="567.54" width="104.61" height="138.63"/>
    <text class="cls-4" transform="translate(573.6 625.44)"><tspan x="0" y="0">707</tspan><tspan x="-29.32" y="14.4">나노바이오 촉매</tspan><tspan x="-9.22" y="28.8">연구실2</tspan></text>
  </g>
  <g id="Layer_227">
    <rect class="cls-3" x="637.89" y="567.54" width="104.36" height="138.63"/>
    <text class="cls-4" transform="translate(677.61 625.44)"><tspan x="0" y="0">706</tspan><tspan x="-28.84" y="14.4">나노바이오 촉매</tspan><tspan x="-7.57" y="28.8">연구실1</tspan></text>
  </g>
  <g id="Layer_228">
    <rect class="cls-3" x="742.25" y="567.54" width="104.86" height="138.63"/>
    <text class="cls-4" transform="translate(782.34 625.44)"><tspan x="0" y="0">705</tspan><tspan x="-28.96" y="14.4">시스템 생명공학</tspan><tspan x="-4.72" y="28.8">연구실</tspan></text>
  </g>
</svg>