<?xml version="1.0" encoding="UTF-8"?>
<svg id="_x32_" xmlns="http://www.w3.org/2000/svg" viewBox="0 0 1215.05 601.97">
  <defs>
    <style>
      .cls-1, .cls-2, .cls-3 {
        font-family: NanumSquareNeoTTF-dEb, 'NanumSquare Neo';
      }

      .cls-1, .cls-3 {
        fill: #231f20;
      }

      .cls-4 {
        fill: #fef3f2;
        stroke-width: 10px;
      }

      .cls-4, .cls-5, .cls-6 {
        stroke: #f48589;
        stroke-miterlimit: 10;
      }

      .cls-7 {
        font-size: 6px;
      }

      .cls-5 {
        fill: none;
      }

      .cls-5, .cls-6 {
        stroke-width: 3px;
      }

      .cls-6 {
        fill: #facbcf;
      }

      .cls-8 {
        font-size: 10px;
      }

      .cls-9 {
        font-size: 11px;
      }

      .cls-10, .cls-3 {
        font-size: 12px;
      }

      .cls-2 {
        fill: #5f6062;
        font-size: 8px;
      }
    </style>
  </defs>
  <g id="Layer_x5F_border-2" data-name="Layer_x5F_border">
    <polygon class="cls-4" points="55.14 111.02 55.14 485.69 55.14 559.38 100.38 559.38 100.38 485.69 463.65 485.69 463.65 391.17 763.3 391.17 763.3 485.69 1164.06 485.69 1164.06 111.02 55.14 111.02"/>
  </g>
  <g id="Layer_x5F_others-2" data-name="Layer_x5F_others">
    <g>
      <rect class="cls-6" x="789.15" y="275.3" width="80.75" height="29.09"/>
      <rect class="cls-6" x="758.89" y="275.3" width="30.26" height="29.09"/>
      <rect class="cls-5" x="758.89" y="304.39" width="111.01" height="55.86"/>
      <rect class="cls-6" x="653.45" y="311.44" width="58.3" height="48.81"/>
      <rect class="cls-6" x="711.76" y="311.44" width="17.62" height="48.81"/>
      <rect class="cls-6" x="552.73" y="275.3" width="46.25" height="41.87"/>
      <rect class="cls-6" x="552.73" y="317.16" width="46.25" height="43.09"/>
      <g>
        <rect class="cls-5" x="789.21" y="304.41" width="5.35" height="27.76"/>
        <rect class="cls-5" x="794.56" y="304.41" width="5.35" height="27.76"/>
        <rect class="cls-5" x="799.91" y="304.41" width="5.35" height="27.76"/>
        <rect class="cls-5" x="805.26" y="304.41" width="5.35" height="27.76"/>
        <rect class="cls-5" x="810.6" y="304.41" width="5.35" height="27.76"/>
        <rect class="cls-5" x="815.98" y="304.41" width="5.35" height="27.76"/>
        <rect class="cls-5" x="821.33" y="304.41" width="5.35" height="27.76"/>
        <rect class="cls-5" x="826.67" y="304.41" width="5.35" height="27.76"/>
        <rect class="cls-5" x="832.02" y="304.41" width="5.35" height="27.76"/>
        <rect class="cls-5" x="837.37" y="304.41" width="5.35" height="27.76"/>
      </g>
      <g>
        <rect class="cls-5" x="789.11" y="332.17" width="5.35" height="27.76"/>
        <rect class="cls-5" x="794.46" y="332.17" width="5.35" height="27.76"/>
        <rect class="cls-5" x="799.81" y="332.17" width="5.35" height="27.76"/>
        <rect class="cls-5" x="805.15" y="332.17" width="5.35" height="27.76"/>
        <rect class="cls-5" x="810.5" y="332.17" width="5.35" height="27.76"/>
        <rect class="cls-5" x="815.88" y="332.17" width="5.35" height="27.76"/>
        <rect class="cls-5" x="821.22" y="332.17" width="5.35" height="27.76"/>
        <rect class="cls-5" x="826.57" y="332.17" width="5.35" height="27.76"/>
        <rect class="cls-5" x="831.92" y="332.17" width="5.35" height="27.76"/>
        <rect class="cls-5" x="837.27" y="332.17" width="5.35" height="27.76"/>
      </g>
    </g>
    <rect class="cls-6" x="458.9" y="360.25" width="0" height="29.77"/>
    <rect class="cls-6" x="781.09" y="360.25" width="0" height="31.82"/>
    <rect class="cls-6" x="763.3" y="391.17" width="17.8" height="29.53"/>
    <g>
      <rect class="cls-5" x="352.85" y="275.3" width="106.04" height="55.52"/>
      <rect class="cls-6" x="352.53" y="330.82" width="106.36" height="29.43"/>
      <g>
        <rect class="cls-5" x="377.39" y="275.3" width="5.35" height="27.76"/>
        <rect class="cls-5" x="382.73" y="275.3" width="5.35" height="27.76"/>
        <rect class="cls-5" x="388.08" y="275.3" width="5.35" height="27.76"/>
        <rect class="cls-5" x="393.43" y="275.3" width="5.35" height="27.76"/>
        <rect class="cls-5" x="398.78" y="275.3" width="5.35" height="27.76"/>
        <rect class="cls-5" x="404.15" y="275.3" width="5.35" height="27.76"/>
        <rect class="cls-5" x="409.5" y="275.3" width="5.35" height="27.76"/>
        <rect class="cls-5" x="414.85" y="275.3" width="5.35" height="27.76"/>
        <rect class="cls-5" x="420.19" y="275.3" width="5.35" height="27.76"/>
        <rect class="cls-5" x="425.54" y="275.3" width="5.35" height="27.76"/>
      </g>
      <g>
        <rect class="cls-5" x="377.28" y="303.06" width="5.35" height="27.76"/>
        <rect class="cls-5" x="382.63" y="303.06" width="5.35" height="27.76"/>
        <rect class="cls-5" x="387.98" y="303.06" width="5.35" height="27.76"/>
        <rect class="cls-5" x="393.33" y="303.06" width="5.35" height="27.76"/>
        <rect class="cls-5" x="398.67" y="303.06" width="5.35" height="27.76"/>
        <rect class="cls-5" x="404.05" y="303.06" width="5.35" height="27.76"/>
        <rect class="cls-5" x="409.4" y="303.06" width="5.35" height="27.76"/>
        <rect class="cls-5" x="414.74" y="303.06" width="5.35" height="27.76"/>
        <rect class="cls-5" x="420.09" y="303.06" width="5.35" height="27.76"/>
        <rect class="cls-5" x="425.44" y="303.06" width="5.35" height="27.76"/>
      </g>
    </g>
    <rect class="cls-4" x="55.14" y="485.69" width="47.93" height="0"/>
    <text class="cls-2" transform="translate(67.73 513.33)"><tspan x="0" y="0">공학관</tspan><tspan x="-3.79" y="9.6">연결통로</tspan></text>
  </g>
  <g id="Layer_55">
    <rect class="cls-6" x="520.57" y="275.3" width="32.16" height="20.72"/>
    <text class="cls-1" transform="translate(525.75 285.95)"><tspan class="cls-10"><tspan x="0" y="0">217</tspan></tspan><tspan class="cls-7"><tspan x="5.21" y="7.2">창고</tspan></tspan></text>
  </g>
  <g id="Layer_56">
    <rect class="cls-6" x="484.01" y="275.3" width="36.56" height="20.72"/>
    <text class="cls-1" transform="translate(490.79 285.95)"><tspan class="cls-10"><tspan x="0" y="0">218</tspan></tspan><tspan class="cls-7"><tspan x="5.81" y="7.2">창고</tspan></tspan></text>
  </g>
  <g id="Layer_57">
    <rect class="cls-6" x="263.88" y="275.3" width="88.65" height="80.68"/>
    <text class="cls-1" transform="translate(289.66 304.22)"><tspan class="cls-10"><tspan x="0" y="0">206-1</tspan></tspan><tspan class="cls-9"><tspan x="-23.17" y="13.2">미래기술육성센터</tspan></tspan><tspan class="cls-9"><tspan x="2.9" y="26.4">회의실</tspan></tspan></text>
  </g>
  <g id="Layer_58">
    <rect class="cls-6" x="103.07" y="275.3" width="160.81" height="80.68"/>
    <text class="cls-3" transform="translate(163.76 311.42)"><tspan x="0" y="0">206-2</tspan><tspan x="-27.28" y="14.4">산학협력단 휴게실</tspan></text>
  </g>
  <g id="Layer_59">
    <polygon class="cls-6" points="242.86 355.98 242.86 391.17 249.87 391.17 249.87 485.69 103.07 485.69 103.07 355.98 242.86 355.98"/>
    <text class="cls-3" transform="translate(156.63 416.62)"><tspan x="0" y="0">206-3</tspan><tspan x="-7.84" y="14.4">(주)인포카</tspan></text>
  </g>
  <g id="Layer_60">
    <rect class="cls-6" x="249.87" y="391.17" width="50.56" height="94.52"/>
    <text class="cls-1" transform="translate(255.31 429.72)"><tspan class="cls-10"><tspan x="0" y="0">206-6</tspan></tspan><tspan class="cls-8"><tspan x="-3.86" y="12">산학협력단</tspan></tspan><tspan class="cls-8"><tspan x=".88" y="24">노동조합</tspan></tspan></text>
  </g>
  <g id="Layer_61">
    <rect class="cls-6" x="300.43" y="391.17" width="52.43" height="94.52"/>
    <text class="cls-3" transform="translate(307.28 434.21)"><tspan x="0" y="0">206-7</tspan><tspan x="-3.39" y="14.4">인디웨어</tspan></text>
  </g>
  <g id="Layer_62">
    <rect class="cls-6" x="352.85" y="391.17" width="55.09" height="94.52"/>
    <text class="cls-3" transform="translate(360.43 441.41)"><tspan x="0" y="0">206-8</tspan></text>
  </g>
  <g id="Layer_63">
    <rect class="cls-6" x="407.94" y="391.17" width="55.71" height="94.52"/>
    <text class="cls-3" transform="translate(415.95 434.21)"><tspan x="0" y="0">206-9</tspan><tspan x="-2.91" y="14.4">이사장실</tspan></text>
  </g>
  <g id="Layer_65">
    <polygon class="cls-5" points="506.91 296.02 506.91 311.44 484.01 311.44 484.01 360.25 552.73 360.25 552.73 296.02 506.91 296.02"/>
  </g>
  <g id="Layer_36">
    <rect class="cls-6" x="55.14" y="111.02" width="90.48" height="133.55"/>
    <text class="cls-3" transform="translate(87.69 173.58)"><tspan x="0" y="0">220</tspan><tspan x="-4.38" y="14.4">공조실</tspan></text>
  </g>
  <g id="Layer_37">
    <rect class="cls-6" x="145.61" y="111.02" width="104.09" height="133.55"/>
    <text class="cls-3" transform="translate(179.24 173.58)"><tspan x="0" y="0">202-1</tspan><tspan x="-10.02" y="14.4">자료보관실</tspan></text>
  </g>
  <g id="Layer_38">
    <rect class="cls-6" x="249.71" y="111.24" width="103.15" height="134"/>
    <text class="cls-3" transform="translate(281.69 159.66)"><tspan x="0" y="0">202-2</tspan><tspan x="-9.76" y="14.4">(주)스텝렙,</tspan><tspan x="-8.09" y="28.8">(주)에스엘</tspan><tspan x="-8.85" y="43.2">테라퓨틱스</tspan></text>
  </g>
  <g id="Layer_39">
    <rect class="cls-6" x="352.85" y="111.02" width="94.2" height="134.51"/>
    <text class="cls-1" transform="translate(380.24 168.21)"><tspan class="cls-10"><tspan x="0" y="0">202-3</tspan></tspan><tspan class="cls-9"><tspan x="-22" y="13.2">유전자변형생물체</tspan></tspan><tspan class="cls-9"><tspan x="-1.14" y="26.4">연구시설</tspan></tspan></text>
  </g>
  <g id="Layer_40">
    <rect class="cls-6" x="447.05" y="111.02" width="89.6" height="133.55"/>
    <text class="cls-3" transform="translate(479.01 173.58)"><tspan x="0" y="0">204</tspan><tspan x="-4.22" y="14.4">가스실</tspan></text>
  </g>
  <g id="Layer_41">
    <rect class="cls-6" x="535.3" y="111.02" width="74.3" height="134.51"/>
    <text class="cls-3" transform="translate(552.7 159.66)"><tspan x="0" y="0">202-4</tspan><tspan x="-12.12" y="14.4">FE-SEM실,</tspan><tspan x="-3.01" y="28.8">주사전자</tspan><tspan x="-3.01" y="43.2">현미경실</tspan></text>
  </g>
  <g id="Layer_42">
    <rect class="cls-6" x="609.6" y="111.02" width="156.63" height="134.51"/>
    <text class="cls-3" transform="translate(668.04 174.06)"><tspan x="0" y="0">203-4</tspan><tspan x="-13.5" y="14.4">(주)아이노클</tspan></text>
  </g>
  <g id="Layer_43">
    <rect class="cls-6" x="766.23" y="111.02" width="103.68" height="134.51"/>
    <text class="cls-3" transform="translate(799.52 174.06)"><tspan x="0" y="0">203-1</tspan><tspan x="-14.83" y="14.4">(주)앱솔로지</tspan></text>
  </g>
  <g id="Layer_44">
    <rect class="cls-6" x="869.9" y="111.02" width="90.54" height="134.51"/>
    <text class="cls-3" transform="translate(895.46 166.86)"><tspan x="0" y="0">203-2</tspan><tspan x="-14.41" y="14.4">환경기술정책</tspan><tspan x="2.65" y="28.8">연구원</tspan></text>
    <rect class="cls-6" x="960.44" y="111.02" width="111.27" height="134.51"/>
    <text class="cls-3" transform="translate(996.24 166.86)"><tspan x="0" y="0">203-3</tspan><tspan x="-14.29" y="14.4">환경기술정책</tspan><tspan x="2.78" y="28.8">연구원</tspan></text>
  </g>
  <g id="Layer_46">
    <rect class="cls-6" x="1071.71" y="111.02" width="92.35" height="134.51"/>
    <text class="cls-3" transform="translate(1106.51 174.06)"><tspan x="0" y="0">219</tspan><tspan x="-5.69" y="14.4">공조실</tspan></text>
  </g>
  <g id="Layer_47">
    <rect class="cls-6" x="1124.35" y="245.53" width="39.71" height="29.77"/>
    <text class="cls-3" transform="translate(1127.14 263.4)"><tspan x="0" y="0">휴게실</tspan></text>
  </g>
  <g id="Layer_48">
    <rect class="cls-6" x="1079.52" y="275.3" width="84.54" height="210.39"/>
    <text class="cls-3" transform="translate(1103.64 376.28)"><tspan x="0" y="0">212-5</tspan><tspan x="-14.55" y="14.4">연구지원3팀</tspan></text>
  </g>
  <g id="Layer_49">
    <polygon class="cls-6" points="1079.52 275.3 1079.52 485.69 976.1 485.69 976.1 343.1 1010.54 343.1 1010.54 275.3 1079.52 275.3"/>
    <text class="cls-3" transform="translate(1009.5 376.28)"><tspan x="0" y="0">212-4</tspan><tspan x="-14.27" y="14.4">연구지원2팀</tspan></text>
  </g>
  <g id="Layer_50">
    <polygon class="cls-6" points="869.9 275.3 936.02 275.3 936.02 343.1 976.1 343.1 976.1 485.69 869.9 485.69 869.9 275.3"/>
    <text class="cls-3" transform="translate(904.72 376.28)"><tspan x="0" y="0">212-3</tspan><tspan x="-10.16" y="14.4">산학경영팀</tspan></text>
  </g>
  <g id="Layer_51">
    <rect class="cls-6" x="936.02" y="275.3" width="74.52" height="67.8"/>
    <text class="cls-3" transform="translate(955 304.98)"><tspan x="0" y="0">212-6</tspan><tspan x="1.21" y="14.4">회의실</tspan></text>
  </g>
  <g id="Layer_52">
    <rect class="cls-6" x="810.5" y="359.94" width="59.4" height="47.31"/>
    <text class="cls-3" transform="translate(822.05 379.37)"><tspan x="0" y="0">212-2</tspan><tspan x="1.08" y="14.4">회의실</tspan></text>
  </g>
  <g id="Layer_53">
    <polygon class="cls-6" points="763.3 420.7 763.3 485.69 869.9 485.69 869.9 407.24 781.09 407.24 781.09 420.7 763.3 420.7"/>
    <text class="cls-3" transform="translate(799.62 442.25)"><tspan x="0" y="0">212-1</tspan><tspan x="-11.46" y="14.4">산학구매팀</tspan></text>
  </g>
  <g id="Layer_54">
    <polygon class="cls-5" points="653.45 311.44 653.45 275.3 729.38 275.3 729.38 298.35 706.47 298.35 706.47 311.44 653.45 311.44"/>
  </g>
</svg>