<?xml version="1.0" encoding="UTF-8"?><svg xmlns="http://www.w3.org/2000/svg" viewBox="0 0 1920 1080"><g id="Layer_border"><g fill="none" opacity=".7"><polygon points="1499.46 817 1430.64 770 484.86 770 416.04 817 74.5 817 74.5 192 419.5 192 419.5 471 729.5 471 729.5 418 1186 418 1186 471 1496 471 1496 192 1841 192 1841 817 1499.46 817" fill="#fdf3f2"/><path d="m1836,197v615h-335c-22.94-15.67-45.88-31.33-68.82-47H483.32c-22.94,15.67-45.88,31.33-68.82,47H79.5V197h335v279h320v-53h446.5v53h320V197h335m10-10h-355v279h-300v-53h-466.5v53h-300V187H69.5v635h348.09l2.55-1.74,19.87-13.57,46.4-31.69h942.69l11.99,8.19,54.28,37.07,2.55,1.74h348.09V187h0Z" fill="#e18686"/></g></g><g id="Layer_others"><rect x="1005.5" y="421.5" width="47" height="126" fill="none" stroke="#e18686" stroke-miterlimit="10" stroke-width="3"/><rect x="1135.5" y="421.5" width="47" height="126" fill="none" stroke="#e18686" stroke-miterlimit="10" stroke-width="3"/><rect x="1012.5" y="433.5" width="33.5" height="27" fill="none" stroke="#e18686" stroke-miterlimit="10" stroke-width="2.98"/><rect x="1012.5" y="469.5" width="33.5" height="27" fill="none" stroke="#e18686" stroke-miterlimit="10" stroke-width="2.98"/><rect x="1012.5" y="505.5" width="33.5" height="27" fill="none" stroke="#e18686" stroke-miterlimit="10" stroke-width="2.98"/><rect x="1142.5" y="433.5" width="33.5" height="27" fill="none" stroke="#e18686" stroke-miterlimit="10" stroke-width="2.98"/><rect x="1142.5" y="469.5" width="33.5" height="27" fill="none" stroke="#e18686" stroke-miterlimit="10" stroke-width="2.98"/><rect x="1142.5" y="505.5" width="33.5" height="27" fill="none" stroke="#e18686" stroke-miterlimit="10" stroke-width="2.98"/><line x1="134" y1="238.13" x2="79" y2="238.13" fill="none" stroke="#e18686" stroke-miterlimit="10" stroke-width="3"/><line x1="134" y1="248.63" x2="79" y2="248.63" fill="none" stroke="#e18686" stroke-miterlimit="10" stroke-width="3"/><line x1="134" y1="259.13" x2="79" y2="259.13" fill="none" stroke="#e18686" stroke-miterlimit="10" stroke-width="3"/><line x1="134" y1="269.63" x2="79" y2="269.63" fill="none" stroke="#e18686" stroke-miterlimit="10" stroke-width="3"/><line x1="134" y1="280.13" x2="79" y2="280.13" fill="none" stroke="#e18686" stroke-miterlimit="10" stroke-width="3"/><line x1="134" y1="290.63" x2="79" y2="290.63" fill="none" stroke="#e18686" stroke-miterlimit="10" stroke-width="3"/><line x1="134" y1="301.13" x2="79" y2="301.13" fill="none" stroke="#e18686" stroke-miterlimit="10" stroke-width="3"/><line x1="134" y1="311.63" x2="79" y2="311.63" fill="none" stroke="#e18686" stroke-miterlimit="10" stroke-width="3"/><rect x="75.5" y="194.5" width="59" height="127" fill="none" stroke="#e18686" stroke-miterlimit="10" stroke-width="3"/><rect x="401.5" y="641.5" width="71" height="124.5" fill="none" stroke="#e18686" stroke-miterlimit="10" stroke-width="3"/><line x1="401.5" y1="688.8" x2="471.5" y2="688.8" fill="none" stroke="#e18686" stroke-miterlimit="10" stroke-width="3"/><line x1="401.5" y1="698.63" x2="471.5" y2="698.63" fill="none" stroke="#e18686" stroke-miterlimit="10" stroke-width="3"/><line x1="401.5" y1="708.46" x2="471.5" y2="708.46" fill="none" stroke="#e18686" stroke-miterlimit="10" stroke-width="3"/><line x1="401.5" y1="718.29" x2="471.5" y2="718.29" fill="none" stroke="#e18686" stroke-miterlimit="10" stroke-width="3"/><line x1="401.5" y1="728.12" x2="471.5" y2="728.12" fill="none" stroke="#e18686" stroke-miterlimit="10" stroke-width="3"/><line x1="401.5" y1="737.95" x2="471.5" y2="737.95" fill="none" stroke="#e18686" stroke-miterlimit="10" stroke-width="3"/><line x1="401.5" y1="747.78" x2="471.5" y2="747.78" fill="none" stroke="#e18686" stroke-miterlimit="10" stroke-width="3"/><line x1="401.5" y1="757.61" x2="471.5" y2="757.61" fill="none" stroke="#e18686" stroke-miterlimit="10" stroke-width="3"/><line x1="1458.5" y1="680.5" x2="1528.5" y2="680.5" fill="none" stroke="#e18686" stroke-miterlimit="10" stroke-width="3"/><line x1="1458.5" y1="691" x2="1528.5" y2="691" fill="none" stroke="#e18686" stroke-miterlimit="10" stroke-width="3"/><line x1="1458.5" y1="701.5" x2="1528.5" y2="701.5" fill="none" stroke="#e18686" stroke-miterlimit="10" stroke-width="3"/><line x1="1458.5" y1="712" x2="1528.5" y2="712" fill="none" stroke="#e18686" stroke-miterlimit="10" stroke-width="3"/><line x1="1458.5" y1="722.5" x2="1528.5" y2="722.5" fill="none" stroke="#e18686" stroke-miterlimit="10" stroke-width="3"/><line x1="1458.5" y1="733" x2="1528.5" y2="733" fill="none" stroke="#e18686" stroke-miterlimit="10" stroke-width="3"/><line x1="1458.5" y1="743.5" x2="1528.5" y2="743.5" fill="none" stroke="#e18686" stroke-miterlimit="10" stroke-width="3"/><line x1="1458.5" y1="754" x2="1528.5" y2="754" fill="none" stroke="#e18686" stroke-miterlimit="10" stroke-width="3"/><line x1="1458.5" y1="764.5" x2="1528.5" y2="764.5" fill="none" stroke="#e18686" stroke-miterlimit="10" stroke-width="3"/><rect x="72.5" y="365.5" width="270" height="311" fill="none" stroke="#e18686" stroke-miterlimit="10" stroke-width="3"/><rect x="910.5" y="420.5" width="95" height="56" fill="none" stroke="#e18686" stroke-miterlimit="10" stroke-width="3"/><rect x="924.25" y="490.75" width="67.5" height="39" transform="translate(1468.25 -447.75) rotate(90)" fill="none" stroke="#e18686" stroke-miterlimit="10" stroke-width="3"/><line x1="976.5" y1="498.5" x2="938.5" y2="498.5" fill="none" stroke="#e18686" stroke-miterlimit="10" stroke-width="3"/><line x1="976.5" y1="507.75" x2="938.5" y2="507.75" fill="none" stroke="#e18686" stroke-miterlimit="10" stroke-width="3"/><line x1="977.5" y1="517" x2="938.5" y2="517" fill="none" stroke="#e18686" stroke-miterlimit="10" stroke-width="3"/><line x1="977.5" y1="526.25" x2="938.5" y2="526.25" fill="none" stroke="#e18686" stroke-miterlimit="10" stroke-width="3"/><line x1="977.5" y1="535.5" x2="938.5" y2="535.5" fill="none" stroke="#e18686" stroke-miterlimit="10" stroke-width="3"/><polygon points="1105.5 691.5 1105.5 717.5 1072.5 717.5 1072.5 766.5 1182.5 766.5 1182.5 742.5 1182.5 717.5 1182.5 691.5 1105.5 691.5" fill="none" stroke="#e18686" stroke-miterlimit="10" stroke-width="3"/><line x1="1105.5" y1="717.5" x2="1105.5" y2="766.5" fill="none" stroke="#e18686" stroke-miterlimit="10" stroke-width="3"/><line x1="1116" y1="691.5" x2="1116" y2="766.5" fill="none" stroke="#e18686" stroke-miterlimit="10" stroke-width="3"/><line x1="1126.5" y1="691.5" x2="1126.5" y2="766.5" fill="none" stroke="#e18686" stroke-miterlimit="10" stroke-width="3"/><line x1="1137" y1="691.5" x2="1137" y2="766.5" fill="none" stroke="#e18686" stroke-miterlimit="10" stroke-width="3"/><line x1="1147.5" y1="691.5" x2="1147.5" y2="766.5" fill="none" stroke="#e18686" stroke-miterlimit="10" stroke-width="3"/><line x1="1158.5" y1="691.5" x2="1158.5" y2="766.5" fill="none" stroke="#e18686" stroke-miterlimit="10" stroke-width="3"/><rect x="858.5" y="641.5" width="207" height="91" fill="none" stroke="#e18686" stroke-miterlimit="10" stroke-width="3"/></g><g id="Layer_toilet1"><polygon points="191.5 194.5 134.5 194.5 134.5 253.5 134.5 257.5 134.5 291.5 165.5 291.5 165.5 257.5 191.5 257.5 191.5 194.5" fill="#fdf3f2" stroke="#e18686" stroke-miterlimit="10" stroke-width="3"/></g><g id="Layer_toilet2"><rect x="472.5" y="641.5" width="49" height="125" transform="translate(994 1408) rotate(180)" fill="#fdf3f2" stroke="#e18686" stroke-miterlimit="10" stroke-width="3"/></g><g id="Layer_toilet3"><rect x="803.5" y="422.5" width="54.71" height="121" fill="#fdf3f2" stroke="#e18686" stroke-miterlimit="10" stroke-width="3"/></g><g id="Layer_toilet4"><rect x="858.21" y="422.5" width="52.79" height="121" transform="translate(1769.21 966) rotate(180)" fill="#fdf3f2" stroke="#e18686" stroke-miterlimit="10" stroke-width="3"/></g><g id="Layer_toilet5"><rect x="1401.5" y="633.15" width="57" height="133" fill="#fdf3f2" stroke="#e18686" stroke-miterlimit="10" stroke-width="3"/></g><g id="Layer_203"><rect x="731.5" y="421.5" width="72" height="177" fill="#f8cdce" stroke="#e18686" stroke-miterlimit="10" stroke-width="3"/><rect x="191.5" y="194.5" width="106" height="127" fill="#f8cdce" stroke="#e18686" stroke-miterlimit="10" stroke-width="3"/><text transform="translate(743.41 498.39)" fill="#434142" font-family="NanumSquareNeovariable-Heavy, &apos;NanumSquare Neo variable&apos;" font-size="22" font-variation-settings="&apos;wght&apos; 900" font-weight="800"><tspan x="0" y="0">203</tspan></text><text transform="translate(744.33 518.39)" fill="#434142" font-family="NanumSquareNeovariable-Regular, &apos;NanumSquare Neo variable&apos;" font-size="14" font-variation-settings="&apos;wght&apos; 300"><tspan x="0" y="0">MDF실</tspan></text></g><g id="_레이어_22"><rect x="262.5" y="365.5" width="80" height="61" transform="translate(605 792) rotate(180)" fill="#f8cdce" stroke="#e18686" stroke-miterlimit="10" stroke-width="3"/><text transform="translate(279.92 403.02)" fill="#434142" font-family="NanumSquareNeovariable-Heavy, &apos;NanumSquare Neo variable&apos;" font-size="22" font-variation-settings="&apos;wght&apos; 900" font-weight="800"><tspan x="0" y="0">210</tspan></text></g><g id="Layer_211"><rect x="192.5" y="365.5" width="70" height="61" fill="#f8cdce" stroke="#e18686" stroke-miterlimit="10" stroke-width="3"/><text transform="translate(208.48 403.02)" fill="#434142" font-family="NanumSquareNeovariable-Heavy, &apos;NanumSquare Neo variable&apos;" font-size="22" font-variation-settings="&apos;wght&apos; 900" font-weight="800"><tspan x="0" y="0">211</tspan></text></g><g id="Layer_서고"><polygon points="1784.5 330.5 1784.5 194.5 1500.5 194.5 1500.5 499.5 1529.5 499.5 1529.5 557.5 1500.5 557.5 1500.5 811.5 1836.5 811.5 1836.5 330.5 1784.5 330.5" fill="#f8cdce" stroke="#e18686" stroke-miterlimit="10" stroke-width="2.96"/><text transform="translate(1647.65 498.93)" fill="#434142" font-family="NanumSquareNeovariable-Heavy, &apos;NanumSquare Neo variable&apos;" font-size="22" font-variation-settings="&apos;wght&apos; 900" font-weight="800"><tspan x="0" y="0">서고</tspan></text><rect x="1784.5" y="194.5" width="52" height="136" fill="#fdf3f2" stroke="#e18686" stroke-miterlimit="10" stroke-width="2.96"/><line x1="1784.5" y1="227.5" x2="1836.5" y2="227.5" fill="none" stroke="#e18686" stroke-miterlimit="10" stroke-width="2.96"/><line x1="1784.5" y1="238.75" x2="1836.5" y2="238.75" fill="none" stroke="#e18686" stroke-miterlimit="10" stroke-width="2.96"/><line x1="1784.5" y1="250" x2="1836.5" y2="250" fill="none" stroke="#e18686" stroke-miterlimit="10" stroke-width="2.96"/><line x1="1784.5" y1="261.25" x2="1836.5" y2="261.25" fill="none" stroke="#e18686" stroke-miterlimit="10" stroke-width="2.96"/><line x1="1784.5" y1="272.5" x2="1836.5" y2="272.5" fill="none" stroke="#e18686" stroke-miterlimit="10" stroke-width="2.96"/><line x1="1784.5" y1="283.75" x2="1836.5" y2="283.75" fill="none" stroke="#e18686" stroke-miterlimit="10" stroke-width="2.96"/><line x1="1784.5" y1="295" x2="1836.5" y2="295" fill="none" stroke="#e18686" stroke-miterlimit="10" stroke-width="2.96"/><line x1="1784.5" y1="306.25" x2="1836.5" y2="306.25" fill="none" stroke="#e18686" stroke-miterlimit="10" stroke-width="2.96"/><line x1="1784.5" y1="317.5" x2="1836.5" y2="317.5" fill="none" stroke="#e18686" stroke-miterlimit="10" stroke-width="2.96"/><rect x="1500.5" y="499.5" width="29" height="58" fill="#fdf3f2" stroke="#e18686" stroke-miterlimit="10" stroke-width="2.96"/></g><g id="Layer_Sci-info"><path d="m1500.5,476.5c-106-.33-212-.67-318-1v291h219v-133h99v-157Z" fill="#f8cdce" stroke="#e18686" stroke-miterlimit="10" stroke-width="3"/><text transform="translate(1295.79 587.7)" fill="#434142" font-family="NanumSquareNeovariable-Heavy, &apos;NanumSquare Neo variable&apos;" font-size="22" font-variation-settings="&apos;wght&apos; 900" font-weight="800"><tspan x="0" y="0">Sci-i</tspan><tspan x="53.75" y="0" letter-spacing="0em">n</tspan><tspan x="68.33" y="0" letter-spacing="-.04em">f</tspan><tspan x="77.48" y="0">o</tspan></text></g><g id="Layer_Beta"><polygon points="731.5 641.5 731.5 624.5 731.5 609.5 731.5 475.5 414.5 475.5 414.5 641.5 521.5 641.5 521.5 766.5 858.5 766.5 858.5 641.5 731.5 641.5" fill="#f8cdce" stroke="#e18686" stroke-miterlimit="10" stroke-width="3"/><text transform="translate(498.08 560.97)" fill="#434142" font-family="NanumSquareNeovariable-Heavy, &apos;NanumSquare Neo variable&apos;" font-size="22" font-variation-settings="&apos;wght&apos; 900" font-weight="800"><tspan x="0" y="0">B</tspan><tspan x="16.74" y="0" letter-spacing="0em">et</tspan><tspan x="40.63" y="0">a </tspan><tspan x="60.06" y="0" letter-spacing="-.02em">L</tspan><tspan x="73" y="0">ounge</tspan></text></g><g id="Layer_206"><rect x="297.5" y="194.5" width="50" height="127" transform="translate(645 516) rotate(180)" fill="#f8cdce" stroke="#e18686" stroke-miterlimit="10" stroke-width="3"/><text transform="translate(303.27 264.87)" fill="#434142" font-family="NanumSquareNeovariable-Heavy, &apos;NanumSquare Neo variable&apos;" font-size="18" font-variation-settings="&apos;wght&apos; 900" font-weight="800"><tspan x="0" y="0">206</tspan></text></g><g id="Layer_206A"><rect x="191.5" y="194.5" width="106" height="127" fill="#f8cdce" stroke="#e18686" stroke-miterlimit="10" stroke-width="3"/><text transform="translate(212.16 264.87)" fill="#434142" font-family="NanumSquareNeovariable-Heavy, &apos;NanumSquare Neo variable&apos;" font-size="22" font-variation-settings="&apos;wght&apos; 900" font-weight="800"><tspan x="0" y="0">206A</tspan></text></g><g id="Layer_212"><rect x="72.5" y="365.5" width="92" height="61" fill="#f8cdce" stroke="#e18686" stroke-miterlimit="10" stroke-width="3"/><text transform="translate(98.44 403.02)" fill="#434142" font-family="NanumSquareNeovariable-Heavy, &apos;NanumSquare Neo variable&apos;" font-size="22" font-variation-settings="&apos;wght&apos; 900" font-weight="800"><tspan x="0" y="0">212</tspan></text></g><g id="Layer_213"><rect x="72.5" y="426.5" width="92" height="59" fill="#f8cdce" stroke="#e18686" stroke-miterlimit="10" stroke-width="3"/><text transform="translate(97.19 462.02)" fill="#434142" font-family="NanumSquareNeovariable-Heavy, &apos;NanumSquare Neo variable&apos;" font-size="22" font-variation-settings="&apos;wght&apos; 900" font-weight="800"><tspan x="0" y="0">213</tspan></text></g><g id="Layer_214"><rect x="72.5" y="485.5" width="92" height="58" fill="#f8cdce" stroke="#e18686" stroke-miterlimit="10" stroke-width="3"/><text transform="translate(97.34 520.96)" fill="#434142" font-family="NanumSquareNeovariable-Heavy, &apos;NanumSquare Neo variable&apos;" font-size="22" font-variation-settings="&apos;wght&apos; 900" font-weight="800"><tspan x="0" y="0">214</tspan></text></g><g id="Layer_215"><rect x="72.5" y="543.5" width="111" height="133" fill="#f8cdce" stroke="#e18686" stroke-miterlimit="10" stroke-width="3"/><text transform="translate(107.1 600.24)" fill="#434142" font-family="NanumSquareNeovariable-Heavy, &apos;NanumSquare Neo variable&apos;" font-size="22" font-variation-settings="&apos;wght&apos; 900" font-weight="800"><tspan x="0" y="0">215</tspan></text><text transform="translate(88.21 620.23)" fill="#434142" font-family="NanumSquareNeovariable-Regular, &apos;NanumSquare Neo variable&apos;" font-size="14" font-variation-settings="&apos;wght&apos; 300"><tspan x="0" y="0">암호프로토콜</tspan><tspan x="19.91" y="16.8">연구실</tspan></text></g><g id="Layer_208"><rect x="183.5" y="426.5" width="159" height="250" transform="translate(526 1103) rotate(180)" fill="#f8cdce" stroke="#e18686" stroke-miterlimit="10" stroke-width="3"/><text transform="translate(240.26 559.3)" fill="#434142" font-family="NanumSquareNeovariable-Heavy, &apos;NanumSquare Neo variable&apos;" font-size="22" font-variation-settings="&apos;wght&apos; 900" font-weight="800"><tspan x="0" y="0">208</tspan></text></g><g id="Layer_209"><rect x="72.5" y="676.5" width="245" height="136" fill="#f8cdce" stroke="#e18686" stroke-miterlimit="10" stroke-width="3"/><text transform="translate(171.21 741.88)" fill="#434142" font-family="NanumSquareNeovariable-Heavy, &apos;NanumSquare Neo variable&apos;" font-size="22" font-variation-settings="&apos;wght&apos; 900" font-weight="800"><tspan x="0" y="0">209</tspan></text><text transform="translate(120.34 761.88)" fill="#434142" font-family="NanumSquareNeovariable-Regular, &apos;NanumSquare Neo variable&apos;" font-size="14" font-variation-settings="&apos;wght&apos; 300"><tspan x="0" y="0">정보보호교육센터 실습실</tspan></text></g><g id="Layer_209A"><rect x="317.5" y="708.5" width="55" height="103" fill="#f8cdce" stroke="#e18686" stroke-miterlimit="10" stroke-width="3"/><text transform="translate(324.61 761.55)" fill="#434142" font-family="NanumSquareNeovariable-Heavy, &apos;NanumSquare Neo variable&apos;" font-size="14" font-variation-settings="&apos;wght&apos; 900" font-weight="800"><tspan x="0" y="0">209A</tspan></text></g></svg>