<?xml version="1.0" encoding="UTF-8"?><svg xmlns="http://www.w3.org/2000/svg" viewBox="0 0 1100 1100"><g id="Layer_border"><path d="m731.5,723c-1-86.83-2-173.67-3-260.5-29.33-29-58.67-58-88-87h11c3.83-3.79,7.66-7.59,11.49-11.38-31.61-32.71-63.23-65.41-94.84-98.12h-66.65V105.5h-224v399c66,.17,132,.33,198,.5v99h-56v333.5h268v-26h44v60h102v-248c-34-.17-68-.33-102-.5Z" fill="#fdf3f2" stroke="#e18686" stroke-linecap="round" stroke-linejoin="round" stroke-width="5"/></g><g id="Layer_others"><rect x="469.48" y="480.14" width="55.92" height="22.8" transform="translate(5.9 988.98) rotate(-90)" fill="none" stroke="#e18686" stroke-miterlimit="10" stroke-width="2"/><line x1="486.45" y1="494.92" x2="509.25" y2="494.92" fill="none" stroke="#e18686" stroke-miterlimit="10" stroke-width="2"/><line x1="486.45" y1="490.94" x2="509.25" y2="490.94" fill="none" stroke="#e18686" stroke-miterlimit="10" stroke-width="2"/><line x1="486.45" y1="486.96" x2="509.25" y2="486.96" fill="none" stroke="#e18686" stroke-miterlimit="10" stroke-width="2"/><line x1="486.45" y1="482.98" x2="509.25" y2="482.98" fill="none" stroke="#e18686" stroke-miterlimit="10" stroke-width="2"/><line x1="486.45" y1="479" x2="509.25" y2="479" fill="none" stroke="#e18686" stroke-miterlimit="10" stroke-width="2"/><line x1="486.45" y1="475.02" x2="509.25" y2="475.02" fill="none" stroke="#e18686" stroke-miterlimit="10" stroke-width="2"/><line x1="486.45" y1="471.04" x2="509.25" y2="471.04" fill="none" stroke="#e18686" stroke-miterlimit="10" stroke-width="2"/><line x1="486.45" y1="467.06" x2="509.25" y2="467.06" fill="none" stroke="#e18686" stroke-miterlimit="10" stroke-width="2"/><line x1="486.45" y1="506.92" x2="509.25" y2="506.92" fill="none" stroke="#e18686" stroke-miterlimit="10" stroke-width="2"/><line x1="486.45" y1="502.94" x2="509.25" y2="502.94" fill="none" stroke="#e18686" stroke-miterlimit="10" stroke-width="2"/><line x1="486.45" y1="498.96" x2="509.25" y2="498.96" fill="none" stroke="#e18686" stroke-miterlimit="10" stroke-width="2"/><line x1="486.45" y1="514.92" x2="509.25" y2="514.92" fill="none" stroke="#e18686" stroke-miterlimit="10" stroke-width="2"/><line x1="486.45" y1="510.94" x2="509.25" y2="510.94" fill="none" stroke="#e18686" stroke-miterlimit="10" stroke-width="2"/><rect x="486.25" y="442" width="118" height="181" fill="none" stroke="#e18686" stroke-miterlimit="10" stroke-width="2"/><rect x="496.48" y="480.14" width="55.92" height="22.8" transform="translate(32.9 1015.98) rotate(-90)" fill="none" stroke="#e18686" stroke-miterlimit="10" stroke-width="2"/><line x1="513.45" y1="494.92" x2="536.25" y2="494.92" fill="none" stroke="#e18686" stroke-miterlimit="10" stroke-width="2"/><line x1="513.45" y1="490.94" x2="536.25" y2="490.94" fill="none" stroke="#e18686" stroke-miterlimit="10" stroke-width="2"/><line x1="513.45" y1="486.96" x2="536.25" y2="486.96" fill="none" stroke="#e18686" stroke-miterlimit="10" stroke-width="2"/><line x1="513.45" y1="482.98" x2="536.25" y2="482.98" fill="none" stroke="#e18686" stroke-miterlimit="10" stroke-width="2"/><line x1="513.45" y1="479" x2="536.25" y2="479" fill="none" stroke="#e18686" stroke-miterlimit="10" stroke-width="2"/><line x1="513.45" y1="475.02" x2="536.25" y2="475.02" fill="none" stroke="#e18686" stroke-miterlimit="10" stroke-width="2"/><line x1="513.45" y1="471.04" x2="536.25" y2="471.04" fill="none" stroke="#e18686" stroke-miterlimit="10" stroke-width="2"/><line x1="513.45" y1="467.06" x2="536.25" y2="467.06" fill="none" stroke="#e18686" stroke-miterlimit="10" stroke-width="2"/><line x1="513.45" y1="506.92" x2="536.25" y2="506.92" fill="none" stroke="#e18686" stroke-miterlimit="10" stroke-width="2"/><line x1="513.45" y1="502.94" x2="536.25" y2="502.94" fill="none" stroke="#e18686" stroke-miterlimit="10" stroke-width="2"/><line x1="513.45" y1="498.96" x2="536.25" y2="498.96" fill="none" stroke="#e18686" stroke-miterlimit="10" stroke-width="2"/><line x1="513.45" y1="514.92" x2="536.25" y2="514.92" fill="none" stroke="#e18686" stroke-miterlimit="10" stroke-width="2"/><line x1="513.45" y1="510.94" x2="536.25" y2="510.94" fill="none" stroke="#e18686" stroke-miterlimit="10" stroke-width="2"/><rect x="469.48" y="546.14" width="55.92" height="22.8" transform="translate(-60.1 1054.98) rotate(-90)" fill="none" stroke="#e18686" stroke-miterlimit="10" stroke-width="2"/><line x1="486.45" y1="560.92" x2="509.25" y2="560.92" fill="none" stroke="#e18686" stroke-miterlimit="10" stroke-width="2"/><line x1="486.45" y1="556.94" x2="509.25" y2="556.94" fill="none" stroke="#e18686" stroke-miterlimit="10" stroke-width="2"/><line x1="486.45" y1="552.96" x2="509.25" y2="552.96" fill="none" stroke="#e18686" stroke-miterlimit="10" stroke-width="2"/><line x1="486.45" y1="548.98" x2="509.25" y2="548.98" fill="none" stroke="#e18686" stroke-miterlimit="10" stroke-width="2"/><line x1="486.45" y1="545" x2="509.25" y2="545" fill="none" stroke="#e18686" stroke-miterlimit="10" stroke-width="2"/><line x1="486.45" y1="541.02" x2="509.25" y2="541.02" fill="none" stroke="#e18686" stroke-miterlimit="10" stroke-width="2"/><line x1="486.45" y1="537.04" x2="509.25" y2="537.04" fill="none" stroke="#e18686" stroke-miterlimit="10" stroke-width="2"/><line x1="486.45" y1="533.06" x2="509.25" y2="533.06" fill="none" stroke="#e18686" stroke-miterlimit="10" stroke-width="2"/><line x1="486.45" y1="572.92" x2="509.25" y2="572.92" fill="none" stroke="#e18686" stroke-miterlimit="10" stroke-width="2"/><line x1="486.45" y1="568.94" x2="509.25" y2="568.94" fill="none" stroke="#e18686" stroke-miterlimit="10" stroke-width="2"/><line x1="486.45" y1="564.96" x2="509.25" y2="564.96" fill="none" stroke="#e18686" stroke-miterlimit="10" stroke-width="2"/><line x1="486.45" y1="580.92" x2="509.25" y2="580.92" fill="none" stroke="#e18686" stroke-miterlimit="10" stroke-width="2"/><line x1="486.45" y1="576.94" x2="509.25" y2="576.94" fill="none" stroke="#e18686" stroke-miterlimit="10" stroke-width="2"/><rect x="496.48" y="546.14" width="55.92" height="22.8" transform="translate(-33.1 1081.98) rotate(-90)" fill="none" stroke="#e18686" stroke-miterlimit="10" stroke-width="2"/><line x1="513.45" y1="560.92" x2="536.25" y2="560.92" fill="none" stroke="#e18686" stroke-miterlimit="10" stroke-width="2"/><line x1="513.45" y1="556.94" x2="536.25" y2="556.94" fill="none" stroke="#e18686" stroke-miterlimit="10" stroke-width="2"/><line x1="513.45" y1="552.96" x2="536.25" y2="552.96" fill="none" stroke="#e18686" stroke-miterlimit="10" stroke-width="2"/><line x1="513.45" y1="548.98" x2="536.25" y2="548.98" fill="none" stroke="#e18686" stroke-miterlimit="10" stroke-width="2"/><line x1="513.45" y1="545" x2="536.25" y2="545" fill="none" stroke="#e18686" stroke-miterlimit="10" stroke-width="2"/><line x1="513.45" y1="541.02" x2="536.25" y2="541.02" fill="none" stroke="#e18686" stroke-miterlimit="10" stroke-width="2"/><line x1="513.45" y1="537.04" x2="536.25" y2="537.04" fill="none" stroke="#e18686" stroke-miterlimit="10" stroke-width="2"/><line x1="513.45" y1="533.06" x2="536.25" y2="533.06" fill="none" stroke="#e18686" stroke-miterlimit="10" stroke-width="2"/><line x1="513.45" y1="572.92" x2="536.25" y2="572.92" fill="none" stroke="#e18686" stroke-miterlimit="10" stroke-width="2"/><line x1="513.45" y1="568.94" x2="536.25" y2="568.94" fill="none" stroke="#e18686" stroke-miterlimit="10" stroke-width="2"/><line x1="513.45" y1="564.96" x2="536.25" y2="564.96" fill="none" stroke="#e18686" stroke-miterlimit="10" stroke-width="2"/><line x1="513.45" y1="580.92" x2="536.25" y2="580.92" fill="none" stroke="#e18686" stroke-miterlimit="10" stroke-width="2"/><line x1="513.45" y1="576.94" x2="536.25" y2="576.94" fill="none" stroke="#e18686" stroke-miterlimit="10" stroke-width="2"/><rect x="539.25" y="468" width="64" height="46" fill="none" stroke="#e18686" stroke-miterlimit="10" stroke-width="2"/><rect x="539.25" y="520" width="64" height="62" fill="none" stroke="#e18686" stroke-miterlimit="10" stroke-width="2"/><line x1="486" y1="592" x2="604" y2="592" fill="none" stroke="#e18686" stroke-miterlimit="10" stroke-width="2"/><rect x="489.25" y="329" width="139" height="46" fill="none" stroke="#e18686" stroke-miterlimit="10" stroke-width="2"/><rect x="501.25" y="343" width="35" height="25" fill="none" stroke="#e18686" stroke-miterlimit="10" stroke-width="2"/><rect x="542.25" y="343" width="35" height="25" fill="none" stroke="#e18686" stroke-miterlimit="10" stroke-width="2"/><rect x="583.25" y="343" width="35" height="25" fill="none" stroke="#e18686" stroke-miterlimit="10" stroke-width="2"/><rect x="541" y="295.5" width="35" height="25" transform="translate(866.5 -250.5) rotate(90)" fill="none" stroke="#e18686" stroke-miterlimit="10" stroke-width="2"/><rect x="489" y="276.5" width="52" height="53" fill="none" stroke="#e18686" stroke-miterlimit="10" stroke-width="2"/><polyline points="628.25 375 651.2 375 663 364" fill="none" stroke="#e18686" stroke-miterlimit="10" stroke-width="2"/></g><g id="Layer_toilet1"><rect x="604" y="522.5" width="82" height="66" fill="none" stroke="#e18686" stroke-miterlimit="10" stroke-width="2"/></g><g id="Layer_toilet2"><path d="m646.73,442c-14.24,0-28.49,0-42.73,0v80.5h82v-41c-13.09-13.17-26.18-26.33-39.27-39.5Z" fill="none" stroke="#e18686" stroke-miterlimit="10" stroke-width="2"/></g><g id="Layer_1001"><path d="m486,623.15v-19.65h-66v163.5h266v-144c-66.67.05-133.33.1-200,.15Z" fill="#f8cdce" stroke="#e18686" stroke-miterlimit="10" stroke-width="2"/><text transform="translate(532.95 689.76)" fill="#434142" font-family="NanumSquareNeovariable-Heavy, &apos;NanumSquare Neo variable&apos;" font-size="16" font-variation-settings="&apos;wght&apos; 900" font-weight="800"><tspan x="0" y="0">1001</tspan></text><text transform="translate(513.29 708.76)" fill="#434142" font-family="NanumSquareNeovariable-Regular, &apos;NanumSquare Neo variable&apos;" font-size="12" font-variation-settings="&apos;wght&apos; 300"><tspan x="0" y="0">모델링스튜디오</tspan></text></g><g id="Layer_1002"><polygon points="686 767 619 767 613 767 420 767 420 936 619 936 619 803 686 803 686 767" fill="#f8cdce" stroke="#e18686" stroke-miterlimit="10" stroke-width="2"/><text transform="translate(500.64 846.4)" fill="#434142" font-family="NanumSquareNeovariable-Heavy, &apos;NanumSquare Neo variable&apos;" font-size="16" font-variation-settings="&apos;wght&apos; 900" font-weight="800"><tspan x="0" y="0">1002</tspan></text><text transform="translate(486.69 865.4)" fill="#434142" font-family="NanumSquareNeovariable-Regular, &apos;NanumSquare Neo variable&apos;" font-size="12" font-variation-settings="&apos;wght&apos; 300"><tspan x="0" y="0">오픈 스튜디오</tspan></text></g><g id="Layer_1002A"><rect x="619" y="803" width="67" height="133" fill="#f8cdce" stroke="#e18686" stroke-miterlimit="10" stroke-width="2"/><text transform="translate(624.79 869.96)" fill="#434142" font-family="NanumSquareNeovariable-Heavy, &apos;NanumSquare Neo variable&apos;" font-size="16" font-variation-settings="&apos;wght&apos; 900" font-weight="800"><tspan x="0" y="0">1002A</tspan></text></g><g id="Layer_테라스1"><polygon points="499 108 279 108 279 250 279 256 279 503 428 503 428 256 499 256 499 108" fill="none" stroke="#e18686" stroke-miterlimit="10" stroke-width="2"/><text transform="translate(366.08 196.8)" fill="#434142" font-family="NanumSquareNeovariable-Heavy, &apos;NanumSquare Neo variable&apos;" font-size="16" font-variation-settings="&apos;wght&apos; 900" font-weight="800"><tspan x="0" y="0">테라스</tspan></text></g><g id="Layer_테라스2"><rect x="738" y="726" width="93" height="244" fill="none" stroke="#e18686" stroke-miterlimit="10" stroke-width="2"/><text transform="translate(761.64 843.4)" fill="#434142" font-family="NanumSquareNeovariable-Heavy, &apos;NanumSquare Neo variable&apos;" font-size="16" font-variation-settings="&apos;wght&apos; 900" font-weight="800"><tspan x="0" y="0">테라스</tspan></text></g></svg>