<?xml version="1.0" encoding="UTF-8"?><svg xmlns="http://www.w3.org/2000/svg" viewBox="0 0 1100 1100"><defs><style>.cls-1,.cls-2{fill:none;}.cls-2,.cls-3,.cls-4{stroke:#ea8b8b;stroke-miterlimit:10;stroke-width:3px;}.cls-5{fill:#ea8b8b;}.cls-6,.cls-3{fill:#fef3f2;}.cls-7{fill:#424041;font-family:NanumSquareNeovariable-Heavy, 'NanumSquare Neo variable';font-size:36px;font-variation-settings:'wght' 900;font-weight:800;}.cls-4{fill:#fed0d0;}</style></defs><g id="Layer_border"><path class="cls-1" d="m980.35,550c0-237.68-192.67-430.35-430.35-430.35-117.39,0-223.8,47-301.44,123.21l-56.63-65.22-56.62,49.16,64,73.71c-50.16,70.37-79.66,156.49-79.66,249.49,0,237.68,192.67,430.35,430.35,430.35,107.45,0,205.69-39.38,281.1-104.49l39.09,30.8,46.41-58.89-32.94-25.96c60.44-74.11,96.7-168.72,96.7-271.81Z"/><path class="cls-6" d="m550,985.35c-58.77,0-115.78-11.51-169.46-34.21-51.84-21.93-98.4-53.32-138.38-93.3s-71.37-86.54-93.3-138.38c-22.7-53.67-34.21-110.69-34.21-169.46,0-89.82,27.07-175.89,78.32-249.17l-64.7-74.53,64.17-55.71,56.44,65.01c81.42-78.04,188.14-120.95,301.12-120.95,58.77,0,115.78,11.51,169.46,34.21,51.84,21.93,98.4,53.32,138.38,93.3s71.37,86.54,93.3,138.38c22.7,53.68,34.21,110.69,34.21,169.46,0,51.01-8.74,100.96-25.98,148.48-16.08,44.33-39.17,85.53-68.65,122.54l32.9,25.92-52.6,66.75-39.79-31.35c-37.92,32.13-80.59,57.31-126.89,74.87-49.26,18.68-101.18,28.15-154.34,28.15Z"/><path class="cls-5" d="m550,119.65c237.68,0,430.35,192.67,430.35,430.35,0,103.09-36.25,197.71-96.7,271.81l32.94,25.96-46.41,58.89-39.09-30.8c-75.41,65.11-173.65,104.49-281.1,104.49-237.68,0-430.35-192.67-430.35-430.35,0-93,29.5-179.12,79.66-249.49l-64-73.71,56.62-49.16,56.63,65.22c77.64-76.21,184.05-123.21,301.44-123.21m0-10c-58.72,0-115.74,11.37-169.48,33.8-48.64,20.3-92.76,48.85-131.3,84.93l-49.74-57.29-6.56-7.55-7.55,6.56-56.62,49.16-7.55,6.56,6.56,7.55,58.88,67.82c-23.84,34.74-42.49,72.54-55.48,112.5-14.27,43.88-21.51,89.75-21.51,136.33,0,59.44,11.64,117.11,34.61,171.41,22.18,52.44,53.93,99.53,94.37,139.97,40.44,40.44,87.53,72.19,139.97,94.37,54.29,22.96,111.96,34.61,171.41,34.61,53.76,0,106.28-9.58,156.11-28.48,45.56-17.28,87.65-41.85,125.22-73.1l32.67,25.74,7.85,6.19,6.19-7.85,46.41-58.89,6.19-7.85-7.85-6.19-25.05-19.74c28.34-36.41,50.63-76.73,66.33-120,17.44-48.06,26.28-98.59,26.28-150.18,0-59.44-11.64-117.11-34.61-171.41-22.18-52.44-53.93-99.53-94.37-139.97-40.44-40.44-87.53-72.19-139.97-94.37-54.29-22.96-111.96-34.61-171.41-34.61h0Z"/><path class="cls-1" d="m449.59,334.9c-2.99-6.19-5.98-12.38-8.97-18.57-82.98,40.54-140.14,125.75-140.14,224.32,0,9.56.56,18.99,1.6,28.26,13.37-2.43,26.74-4.85,40.11-7.28,113.07,41.01,226.13,82.03,339.2,123.04,11.91,13.75,23.83,27.49,35.74,41.24,42.67-38.51,71.95-91.55,80.09-151.32-17.48-2.67-34.95-5.34-52.43-8.01-98.4-77.23-196.8-154.47-295.2-231.7Z"/><path class="cls-1" d="m980.35,550c0-237.68-192.67-430.35-430.35-430.35-117.39,0-223.8,47-301.44,123.21l-56.63-65.22-56.62,49.16,64,73.71c-50.16,70.37-79.66,156.49-79.66,249.49,0,237.68,192.67,430.35,430.35,430.35,107.45,0,205.69-39.38,281.1-104.49l39.09,30.8,46.41-58.89-32.94-25.96c60.44-74.11,96.7-168.72,96.7-271.81Z"/></g><g id="Layer_others"><rect class="cls-3" x="808.53" y="779.58" width="74.98" height="120.62" transform="translate(-337.3 984.55) rotate(-51.76)"/><line class="cls-2" x1="900.87" y1="835.38" x2="854.89" y2="894.61"/><line class="cls-2" x1="885" y1="822.88" x2="839.03" y2="882.11"/><line class="cls-2" x1="869.8" y1="809.27" x2="823.82" y2="868.51"/><line class="cls-2" x1="853.28" y1="796.45" x2="807.3" y2="855.68"/><line class="cls-2" x1="836.55" y1="785.46" x2="790.58" y2="844.69"/><rect class="cls-3" x="165.67" y="187.45" width="74.98" height="120.62" transform="translate(-112.68 193.87) rotate(-40.96)"/><line class="cls-2" x1="257.88" y1="253.6" x2="201.63" y2="303.17"/><line class="cls-2" x1="244.64" y1="238.35" x2="188.38" y2="287.92"/><line class="cls-2" x1="232.26" y1="222.14" x2="176" y2="271.71"/><line class="cls-2" x1="218.43" y1="206.45" x2="162.17" y2="256.02"/><line class="cls-2" x1="204.06" y1="192.51" x2="147.8" y2="242.09"/></g><g id="Layer_toilet1"><path class="cls-2" d="m889.01,604.21c-13.02,34.09-26.03,68.19-39.05,102.28h0c28.09,12.24,56.19,24.49,84.28,36.73,19.63-38.95,33.5-81.29,40.52-125.91-28.58-4.36-57.16-8.73-85.75-13.09Z"/></g><g id="Layer_toilet2"><path class="cls-2" d="m889.01,604.21c-30.6-4.67-61.19-9.34-91.79-14.02-3.98,29.21-13.02,56.81-26.19,81.9,26.31,11.47,52.62,22.93,78.93,34.4,13.02-34.09,26.03-68.19,39.05-102.28Z"/></g><g id="Layer_toilet3"><path class="cls-2" d="m248.57,379.56c-20.68-19.8-41.36-39.6-62.04-59.41-23.87,37.67-42.05,79.31-53.32,123.7,28.39,7.07,56.79,14.15,85.18,21.22l30.18-85.51Z"/></g><g id="Layer_toilet4"><path class="cls-2" d="m248.57,379.56h0s-30.18,85.51-30.18,85.51h0c30.52,7.6,61.05,15.21,91.57,22.81,1.54-4.83,3.79-10.6,7.15-16.79,3.51-6.46,7.3-11.68,10.64-15.7-26.4-25.28-52.79-50.56-79.19-75.83Z"/></g><g id="Layer_조리실"><circle class="cls-4" cx="548.58" cy="554.95" r="185.66"/><text class="cls-7" transform="translate(497.65 563.91)"><tspan x="0" y="0">조리실</tspan></text></g><g id="Layer_식당1"><path class="cls-4" d="m670,779.77c-22.65,10.73-65.17,27.14-120,26-21.51-.45-99.33-3.26-166.79-63.94-44.19-39.75-74.11-95.07-81.13-157.32-58.98,10.7-117.96,21.4-176.94,32.09,32.01,205.86,210.04,363.4,424.87,363.4,96.53,0,185.64-31.81,257.4-85.52-45.8-38.24-91.6-76.47-137.4-114.71Z"/><text class="cls-7" transform="translate(364.71 870.91)"><tspan x="0" y="0">식당</tspan></text></g><g id="Layer_식당2"><path class="cls-4" d="m550,120c-68.35,0-132.97,15.95-190.35,44.32,26.99,55.86,53.98,111.73,80.96,167.59,33.03-16.14,70.15-25.2,109.38-25.2,137.81,0,249.53,111.72,249.53,249.53,0,11.52-.8,22.85-2.31,33.96,59.18,9.04,118.36,18.07,177.54,27.11,3.45-21.93,5.24-44.41,5.24-67.31,0-237.48-192.52-430-430-430Z"/><text class="cls-7" transform="translate(706.71 285.91)"><tspan x="0" y="0">식당</tspan></text></g><g id="Layer_카페"><path class="cls-4" d="m133.21,443.85c-8.62,33.95-13.21,69.51-13.21,106.15,0,22.65,1.76,44.89,5.13,66.6,58.98-10.7,117.96-21.4,176.94-32.09-1.05-9.28-1.6-18.71-1.6-28.26,0-23.71,3.31-46.64,9.49-68.36-58.92-14.68-117.84-29.35-176.76-44.03Z"/><text class="cls-7" transform="translate(171.71 541.91)"><tspan x="0" y="0">카페</tspan></text></g></svg>