<?xml version="1.0" encoding="UTF-8"?><svg xmlns="http://www.w3.org/2000/svg" viewBox="0 0 1100 1100"><g id="Layer_border"><path d="m980.35,550c0-237.68-192.67-430.35-430.35-430.35-117.39,0-223.8,47-301.44,123.21l-56.63-65.22-56.62,49.16,64,73.71c-50.16,70.37-79.66,156.49-79.66,249.49,0,237.68,192.67,430.35,430.35,430.35,107.45,0,205.69-39.38,281.1-104.49l39.09,30.8,46.41-58.89-32.94-25.96c60.44-74.11,96.7-168.72,96.7-271.81Z" fill="none"/><path d="m550,985.35c-58.77,0-115.78-11.51-169.46-34.21-51.84-21.93-98.4-53.32-138.38-93.3s-71.37-86.54-93.3-138.38c-22.7-53.67-34.21-110.69-34.21-169.46,0-89.82,27.07-175.89,78.32-249.17l-64.7-74.53,64.17-55.71,56.44,65.01c81.42-78.04,188.14-120.95,301.12-120.95,58.77,0,115.78,11.51,169.46,34.21,51.84,21.93,98.4,53.32,138.38,93.3s71.37,86.54,93.3,138.38c22.7,53.68,34.21,110.69,34.21,169.46,0,51.01-8.74,100.96-25.98,148.48-16.08,44.33-39.17,85.53-68.65,122.54l32.9,25.92-52.6,66.75-39.79-31.35c-37.92,32.13-80.59,57.31-126.89,74.87-49.26,18.68-101.18,28.15-154.34,28.15Z" fill="#fef3f2"/><path d="m550,119.65c237.68,0,430.35,192.67,430.35,430.35,0,103.09-36.25,197.71-96.7,271.81l32.94,25.96-46.41,58.89-39.09-30.8c-75.41,65.11-173.65,104.49-281.1,104.49-237.68,0-430.35-192.67-430.35-430.35,0-93,29.5-179.12,79.66-249.49l-64-73.71,56.62-49.16,56.63,65.22c77.64-76.21,184.05-123.21,301.44-123.21m0-10c-58.72,0-115.74,11.37-169.48,33.8-48.64,20.3-92.76,48.85-131.3,84.93l-49.74-57.29-6.56-7.55-7.55,6.56-56.62,49.16-7.55,6.56,6.56,7.55,58.88,67.82c-23.84,34.74-42.49,72.54-55.48,112.5-14.27,43.88-21.51,89.75-21.51,136.33,0,59.44,11.64,117.11,34.61,171.41,22.18,52.44,53.93,99.53,94.37,139.97,40.44,40.44,87.53,72.19,139.97,94.37,54.29,22.96,111.96,34.61,171.41,34.61,53.76,0,106.28-9.58,156.11-28.48,45.56-17.28,87.65-41.85,125.22-73.1l32.67,25.74,7.85,6.19,6.19-7.85,46.41-58.89,6.19-7.85-7.85-6.19-25.05-19.74c28.34-36.41,50.63-76.73,66.33-120,17.44-48.06,26.28-98.59,26.28-150.18,0-59.44-11.64-117.11-34.61-171.41-22.18-52.44-53.93-99.53-94.37-139.97-40.44-40.44-87.53-72.19-139.97-94.37-54.29-22.96-111.96-34.61-171.41-34.61h0Z" fill="#ea8b8b"/><path d="m449.59,334.9c-2.99-6.19-5.98-12.38-8.97-18.57-82.98,40.54-140.14,125.75-140.14,224.32,0,9.56.56,18.99,1.6,28.26,13.37-2.43,26.74-4.85,40.11-7.28,113.07,41.01,226.13,82.03,339.2,123.04,11.91,13.75,23.83,27.49,35.74,41.24,42.67-38.51,71.95-91.55,80.09-151.32-17.48-2.67-34.95-5.34-52.43-8.01-98.4-77.23-196.8-154.47-295.2-231.7Z" fill="none"/><path d="m980.35,550c0-237.68-192.67-430.35-430.35-430.35-117.39,0-223.8,47-301.44,123.21l-56.63-65.22-56.62,49.16,64,73.71c-50.16,70.37-79.66,156.49-79.66,249.49,0,237.68,192.67,430.35,430.35,430.35,107.45,0,205.69-39.38,281.1-104.49l39.09,30.8,46.41-58.89-32.94-25.96c60.44-74.11,96.7-168.72,96.7-271.81Z" fill="none"/></g><g id="Layer_others"><rect x="808.53" y="779.58" width="74.98" height="120.62" transform="translate(-337.3 984.55) rotate(-51.76)" fill="#fef3f2" stroke="#ea8b8b" stroke-miterlimit="10" stroke-width="3"/><line x1="900.87" y1="835.38" x2="854.89" y2="894.61" fill="none" stroke="#ea8b8b" stroke-miterlimit="10" stroke-width="3"/><line x1="885" y1="822.88" x2="839.03" y2="882.11" fill="none" stroke="#ea8b8b" stroke-miterlimit="10" stroke-width="3"/><line x1="869.8" y1="809.27" x2="823.82" y2="868.51" fill="none" stroke="#ea8b8b" stroke-miterlimit="10" stroke-width="3"/><line x1="853.28" y1="796.45" x2="807.3" y2="855.68" fill="none" stroke="#ea8b8b" stroke-miterlimit="10" stroke-width="3"/><line x1="836.55" y1="785.46" x2="790.58" y2="844.69" fill="none" stroke="#ea8b8b" stroke-miterlimit="10" stroke-width="3"/><rect x="165.67" y="187.45" width="74.98" height="120.62" transform="translate(-112.68 193.87) rotate(-40.96)" fill="#fef3f2" stroke="#ea8b8b" stroke-miterlimit="10" stroke-width="3"/><line x1="257.88" y1="253.6" x2="201.63" y2="303.17" fill="none" stroke="#ea8b8b" stroke-miterlimit="10" stroke-width="3"/><line x1="244.64" y1="238.35" x2="188.38" y2="287.92" fill="none" stroke="#ea8b8b" stroke-miterlimit="10" stroke-width="3"/><line x1="232.26" y1="222.14" x2="176" y2="271.71" fill="none" stroke="#ea8b8b" stroke-miterlimit="10" stroke-width="3"/><line x1="218.43" y1="206.45" x2="162.17" y2="256.02" fill="none" stroke="#ea8b8b" stroke-miterlimit="10" stroke-width="3"/><line x1="204.06" y1="192.51" x2="147.8" y2="242.09" fill="none" stroke="#ea8b8b" stroke-miterlimit="10" stroke-width="3"/></g><g id="Layer_toilet1"><path d="m974.76,617.31c-59.18-9.04-118.36-18.07-177.54-27.11-3.98,29.21-13.02,56.81-26.19,81.9,54.4,23.71,108.81,47.42,163.21,71.13,19.63-38.95,33.5-81.29,40.52-125.91Z" fill="none" stroke="#ea8b8b" stroke-miterlimit="10" stroke-width="3"/></g><g id="Layer_toilet2"><path d="m133.21,443.85c58.92,14.68,117.84,29.35,176.76,44.03,1.54-4.83,3.79-10.6,7.15-16.79,3.51-6.46,7.3-11.68,10.64-15.7-47.08-45.08-94.15-90.16-141.23-135.24-23.87,37.67-42.05,79.31-53.32,123.7Z" fill="none" stroke="#ea8b8b" stroke-miterlimit="10" stroke-width="3"/></g><g id="Layer_조리실"><circle cx="548.58" cy="554.95" r="185.66" fill="#fed0d0" stroke="#ea8b8b" stroke-miterlimit="10" stroke-width="3"/><path d="m513.03,560.86v-6.95h4.79v6.95h13.79v4.07h-32.38v-4.07h13.79Zm-9.8-23.98h24.4v4.07h-9.77v.95c0,1.22.25,2.24.76,3.06.51.82,1.42,1.63,2.74,2.41,1.19.74,2.45,1.45,3.78,2.15,1.33.7,2.77,1.44,4.31,2.22l-2.13,3.72c-.63-.3-1.31-.65-2.03-1.03-.72-.38-1.46-.77-2.2-1.18-.75-.41-1.48-.81-2.2-1.22-.72-.4-1.39-.78-2-1.14-.99-.58-1.74-1.09-2.26-1.52-.52-.43-.87-.82-1.04-1.18h-.04c-.15.36-.52.75-1.1,1.2-.58.44-1.39.97-2.43,1.58-.61.36-1.27.74-2,1.14-.72.41-1.45.81-2.18,1.22-.74.41-1.47.8-2.2,1.18-.74.38-1.42.72-2.05,1.03l-2.17-3.8c1.54-.79,2.98-1.53,4.31-2.22,1.33-.7,2.59-1.41,3.78-2.15,1.32-.78,2.23-1.59,2.74-2.41.51-.82.76-1.84.76-3.06v-.95h-9.77v-4.07Z" fill="#424142"/><path d="m541.03,556.91h3.69c1.75,0,3.56-.06,5.43-.17,1.87-.11,3.7-.29,5.47-.51l.53,4.03c-1.8.28-3.76.47-5.89.57-2.13.1-4.36.15-6.69.15h-7.3v-14.36h11.4v-5.78h-11.4v-4.07h16.15v13.76h-11.4v6.38Zm22.53,12.46h-4.83v-35.34h4.83v35.34Z" fill="#424142"/><path d="m579.57,545.4c-.13.33-.42.74-.89,1.22-.47.48-1.03.99-1.69,1.52-.81.66-1.65,1.34-2.53,2.05s-1.88,1.47-3.02,2.28l-2.77-3.5c1.17-.81,2.18-1.56,3.04-2.24.86-.68,1.72-1.39,2.58-2.13.96-.84,1.65-1.7,2.05-2.58s.61-1.9.61-3.04v-4.07h4.86v3.99c0,.61.04,1.15.11,1.63.08.48.21.93.42,1.35.2.42.48.82.82,1.2s.78.79,1.31,1.22c.3.23.67.49,1.08.8.42.3.86.62,1.33.95.47.33.95.66,1.44.99.49.33.97.65,1.42.95l-2.66,3.31c-.79-.51-1.58-1.05-2.39-1.63-.81-.58-1.62-1.17-2.43-1.75-.76-.58-1.36-1.07-1.8-1.46s-.73-.74-.86-1.04h-.04Zm18.2,7.79v10.07h-17.52v2.66h18.58v3.8h-23.22v-10.07h17.52v-2.66h-17.71v-3.8h22.34Zm0-1.6h-4.79v-17.56h4.79v17.56Z" fill="#424142"/></g><g id="Layer_식당1"><path d="m670,779.77c-22.65,10.73-65.17,27.14-120,26-21.51-.45-99.33-3.26-166.79-63.94-44.19-39.75-74.11-95.07-81.13-157.32-58.98,10.7-117.96,21.4-176.94,32.09,32.01,205.86,210.04,363.4,424.87,363.4,96.53,0,185.64-31.81,257.4-85.52-45.8-38.24-91.6-76.47-137.4-114.71Z" fill="#fed0d0" stroke="#ea8b8b" stroke-miterlimit="10" stroke-width="3"/><path d="m374.07,842.83c-.08.33-.34.73-.78,1.2s-.96.97-1.54,1.5c-.86.81-1.73,1.59-2.6,2.34-.87.75-1.91,1.6-3.1,2.57l-2.96-3.5c.99-.76,1.99-1.58,3-2.47,1.01-.89,1.96-1.75,2.85-2.58.91-.89,1.56-1.77,1.96-2.66.39-.89.59-1.98.59-3.27v-4.67h4.86v4.48c0,.68.04,1.29.11,1.82.08.53.2,1.01.38,1.44.18.43.42.84.74,1.24.32.39.73.8,1.24,1.23.91.79,1.84,1.54,2.79,2.26.95.72,1.88,1.41,2.79,2.07l-2.77,3.34c-.74-.53-1.53-1.12-2.38-1.77-.85-.65-1.72-1.34-2.6-2.07-.66-.53-1.22-1-1.67-1.41-.46-.41-.75-.77-.87-1.1h-.04Zm-5.17,9.35h23.41v13.53h-4.79v-9.46h-18.62v-4.07Zm23.41-1.6h-4.79v-20.63h4.79v20.63Z" fill="#424142"/><path d="m398.96,832.07h16.53v4.07h-11.78v8.17c1.32,0,2.57,0,3.76-.02,1.19-.01,2.35-.04,3.48-.08,1.13-.04,2.26-.1,3.4-.19,1.14-.09,2.32-.2,3.53-.32l.42,3.99c-1.14.15-2.34.27-3.59.36s-2.64.16-4.16.21c-1.52.05-3.22.08-5.11.09-1.89.01-4.05.02-6.48.02v-16.3Zm15.88,34.28c-1.62,0-3.1-.17-4.43-.49s-2.47-.8-3.42-1.41c-.95-.61-1.69-1.34-2.2-2.18-.52-.85-.78-1.78-.78-2.79v-1.6c0-1.01.26-1.94.78-2.79.52-.85,1.25-1.58,2.2-2.18s2.09-1.08,3.42-1.41c1.33-.33,2.81-.49,4.43-.49s3.1.17,4.43.49c1.33.33,2.47.8,3.42,1.41.95.61,1.68,1.34,2.2,2.18.52.85.78,1.78.78,2.79v1.6c0,1.01-.26,1.94-.78,2.79-.52.85-1.25,1.58-2.2,2.18-.95.61-2.09,1.08-3.42,1.41-1.33.33-2.81.49-4.43.49Zm0-11.44c-.96,0-1.82.1-2.58.3-.76.2-1.4.46-1.92.78-.52.32-.92.67-1.2,1.04-.28.38-.42.76-.42,1.14v.99c0,.38.14.76.42,1.14.28.38.68.73,1.2,1.04.52.32,1.16.58,1.92.78.76.2,1.62.3,2.58.3s1.82-.1,2.58-.3c.76-.2,1.4-.46,1.92-.78.52-.32.92-.67,1.2-1.04.28-.38.42-.76.42-1.14v-.99c0-.38-.14-.76-.42-1.14-.28-.38-.68-.73-1.2-1.04-.52-.32-1.16-.58-1.92-.78-.76-.2-1.62-.3-2.58-.3Zm10.72-17.21h4.64v4.18h-4.64v8.97h-4.79v-20.9h4.79v7.75Z" fill="#424142"/></g><g id="Layer_식당2"><path d="m550,120c-68.35,0-132.97,15.95-190.35,44.32,26.99,55.86,53.98,111.73,80.96,167.59,33.03-16.14,70.15-25.2,109.38-25.2,137.81,0,249.53,111.72,249.53,249.53,0,11.52-.8,22.85-2.31,33.96,59.18,9.04,118.36,18.07,177.54,27.11,3.45-21.93,5.24-44.41,5.24-67.31,0-237.48-192.52-430-430-430Z" fill="#fed0d0" stroke="#ea8b8b" stroke-miterlimit="10" stroke-width="3"/><path d="m731.16,277.31c-.08.33-.34.73-.78,1.2s-.96.97-1.54,1.5c-.86.81-1.73,1.59-2.6,2.34-.87.75-1.91,1.6-3.1,2.57l-2.96-3.5c.99-.76,1.99-1.58,3-2.47,1.01-.89,1.96-1.75,2.85-2.58.91-.89,1.56-1.77,1.96-2.66.39-.89.59-1.98.59-3.27v-4.67h4.86v4.48c0,.68.04,1.29.11,1.82.08.53.2,1.01.38,1.44.18.43.42.84.74,1.24.32.39.73.8,1.24,1.23.91.79,1.84,1.54,2.79,2.26.95.72,1.88,1.41,2.79,2.07l-2.77,3.34c-.74-.53-1.53-1.12-2.38-1.77-.85-.65-1.72-1.34-2.6-2.07-.66-.53-1.22-1-1.67-1.41-.46-.41-.75-.77-.87-1.1h-.04Zm-5.17,9.35h23.41v13.53h-4.79v-9.46h-18.62v-4.07Zm23.41-1.6h-4.79v-20.63h4.79v20.63Z" fill="#424142"/><path d="m756.05,266.55h16.53v4.07h-11.78v8.17c1.32,0,2.57,0,3.76-.02,1.19-.01,2.35-.04,3.48-.08,1.13-.04,2.26-.1,3.4-.19,1.14-.09,2.32-.2,3.53-.32l.42,3.99c-1.14.15-2.34.27-3.59.36s-2.64.16-4.16.21c-1.52.05-3.22.08-5.11.09-1.89.01-4.05.02-6.48.02v-16.3Zm15.88,34.28c-1.62,0-3.1-.17-4.43-.49s-2.47-.8-3.42-1.41c-.95-.61-1.69-1.34-2.2-2.18-.52-.85-.78-1.78-.78-2.79v-1.6c0-1.01.26-1.94.78-2.79.52-.85,1.25-1.58,2.2-2.18s2.09-1.08,3.42-1.41c1.33-.33,2.81-.49,4.43-.49s3.1.17,4.43.49c1.33.33,2.47.8,3.42,1.41.95.61,1.68,1.34,2.2,2.18.52.85.78,1.78.78,2.79v1.6c0,1.01-.26,1.94-.78,2.79-.52.85-1.25,1.58-2.2,2.18-.95.61-2.09,1.08-3.42,1.41-1.33.33-2.81.49-4.43.49Zm0-11.44c-.96,0-1.82.1-2.58.3-.76.2-1.4.46-1.92.78-.52.32-.92.67-1.2,1.04-.28.38-.42.76-.42,1.14v.99c0,.38.14.76.42,1.14.28.38.68.73,1.2,1.04.52.32,1.16.58,1.92.78.76.2,1.62.3,2.58.3s1.82-.1,2.58-.3c.76-.2,1.4-.46,1.92-.78.52-.32.92-.67,1.2-1.04.28-.38.42-.76.42-1.14v-.99c0-.38-.14-.76-.42-1.14-.28-.38-.68-.73-1.2-1.04-.52-.32-1.16-.58-1.92-.78-.76-.2-1.62-.3-2.58-.3Zm10.72-17.21h4.64v4.18h-4.64v8.97h-4.79v-20.9h4.79v7.75Z" fill="#424142"/></g><g id="Layer_카페"><path d="m133.21,443.85c-8.62,33.95-13.21,69.51-13.21,106.15,0,22.65,1.76,44.89,5.13,66.6,58.98-10.7,117.96-21.4,176.94-32.09-1.05-9.28-1.6-18.71-1.6-28.26,0-23.71,3.31-46.64,9.49-68.36-58.92-14.68-117.84-29.35-176.76-44.03Z" fill="#fed0d0" stroke="#ea8b8b" stroke-miterlimit="10" stroke-width="3"/><path d="m168.97,542c1.77-.96,3.33-1.84,4.66-2.64,1.33-.8,2.46-1.54,3.4-2.24.94-.7,1.69-1.36,2.26-2,.57-.63,1.01-1.27,1.31-1.9l-11.59.3-.15-4.1,12.24-.19v-4.75h-11.44v-4.1h16.15v8.74c0,1.82-.2,3.41-.59,4.77-.39,1.36-1.12,2.65-2.18,3.88-1.06,1.23-2.54,2.48-4.43,3.76-1.89,1.28-4.33,2.74-7.31,4.39l-2.32-3.91Zm27.09-12.01h4.86v4.18h-4.86v18.47h-4.83v-35.34h4.83v12.69Z" fill="#424142"/><path d="m205.64,539.34v-14.78h-2.85v-3.84h17.52v3.84h-2.66v14.55c.51-.05,1.01-.1,1.5-.15.49-.05.98-.1,1.46-.15l.42,3.76c-1.32.2-2.83.35-4.52.46s-3.6.15-5.7.15h-8.09v-3.84h2.93Zm7.49-14.78h-2.96v14.78h2.96v-14.78Zm9.27,9.16h-3.23v-4.14h3.23v-11.55h4.52v32.91h-4.52v-17.21Zm6.69-16.42h4.52v35.34h-4.52v-35.34Z" fill="#424142"/></g></svg>