<?xml version="1.0" encoding="UTF-8"?><svg
  xmlns="http://www.w3.org/2000/svg"
  viewBox="0 0 1920 1080"
>
  <g id="Layer_border">
    <polygon
      points="1499.46 817 1430.64 770 484.86 770 416.04 817 74.5 817 74.5 192 419.5 192 419.5 471 729.5 471 729.5 418 1186 418 1186 471 1496 471 1496 192 1841 192 1841 817 1499.46 817"
      fill="#fdf3f2"
    />
    <path
      d="m1836,197v615h-335c-22.94-15.67-45.88-31.33-68.82-47H483.32c-22.94,15.67-45.88,31.33-68.82,47H79.5V197h335v279h320v-53h446.5v53h320V197h335m10-10h-355v279h-300v-53h-466.5v53h-300V187H69.5v635h348.09l2.55-1.74,19.87-13.57,46.4-31.69h942.69l11.99,8.19,54.28,37.07,2.55,1.74h348.09V187h0Z"
      fill="#e18686"
    />
  </g>
  <g id="Layer_others">
    <line
      x1="910.5"
      y1="542.5"
      x2="1005.5"
      y2="542.5"
      fill="none"
      stroke="#e18686"
      stroke-miterlimit="10"
      stroke-width="3"
    />
    <line
      x1="911"
      y1="491"
      x2="1005"
      y2="491"
      fill="none"
      stroke="#e18686"
      stroke-miterlimit="10"
      stroke-width="3"
    />
    <line
      x1="911"
      y1="498.08"
      x2="1005"
      y2="498.08"
      fill="none"
      stroke="#e18686"
      stroke-miterlimit="10"
      stroke-width="3"
    />
    <line
      x1="911"
      y1="505.17"
      x2="1005"
      y2="505.17"
      fill="none"
      stroke="#e18686"
      stroke-miterlimit="10"
      stroke-width="3"
    />
    <line
      x1="911"
      y1="512.25"
      x2="1005"
      y2="512.25"
      fill="none"
      stroke="#e18686"
      stroke-miterlimit="10"
      stroke-width="3"
    />
    <line
      x1="911"
      y1="519.33"
      x2="1005"
      y2="519.33"
      fill="none"
      stroke="#e18686"
      stroke-miterlimit="10"
      stroke-width="3"
    />
    <line
      x1="911"
      y1="526.42"
      x2="1005"
      y2="526.42"
      fill="none"
      stroke="#e18686"
      stroke-miterlimit="10"
      stroke-width="3"
    />
    <line
      x1="911"
      y1="533.5"
      x2="1005"
      y2="533.5"
      fill="none"
      stroke="#e18686"
      stroke-miterlimit="10"
      stroke-width="3"
    />
    <rect
      x="1005.5"
      y="421.5"
      width="47"
      height="126"
      fill="none"
      stroke="#e18686"
      stroke-miterlimit="10"
      stroke-width="3"
    />
    <rect
      x="1135.5"
      y="421.5"
      width="47"
      height="126"
      fill="none"
      stroke="#e18686"
      stroke-miterlimit="10"
      stroke-width="3"
    />
    <rect
      x="1012.5"
      y="433.5"
      width="33.5"
      height="27"
      fill="none"
      stroke="#e18686"
      stroke-miterlimit="10"
      stroke-width="2.98"
    />
    <rect
      x="1012.5"
      y="469.5"
      width="33.5"
      height="27"
      fill="none"
      stroke="#e18686"
      stroke-miterlimit="10"
      stroke-width="2.98"
    />
    <rect
      x="1012.5"
      y="505.5"
      width="33.5"
      height="27"
      fill="none"
      stroke="#e18686"
      stroke-miterlimit="10"
      stroke-width="2.98"
    />
    <rect
      x="1142.5"
      y="433.5"
      width="33.5"
      height="27"
      fill="none"
      stroke="#e18686"
      stroke-miterlimit="10"
      stroke-width="2.98"
    />
    <rect
      x="1142.5"
      y="469.5"
      width="33.5"
      height="27"
      fill="none"
      stroke="#e18686"
      stroke-miterlimit="10"
      stroke-width="2.98"
    />
    <rect
      x="1142.5"
      y="505.5"
      width="33.5"
      height="27"
      fill="none"
      stroke="#e18686"
      stroke-miterlimit="10"
      stroke-width="2.98"
    />
    <line
      x1="134"
      y1="238.13"
      x2="79"
      y2="238.13"
      fill="none"
      stroke="#e18686"
      stroke-miterlimit="10"
      stroke-width="3"
    />
    <line
      x1="134"
      y1="248.63"
      x2="79"
      y2="248.63"
      fill="none"
      stroke="#e18686"
      stroke-miterlimit="10"
      stroke-width="3"
    />
    <line
      x1="134"
      y1="259.13"
      x2="79"
      y2="259.13"
      fill="none"
      stroke="#e18686"
      stroke-miterlimit="10"
      stroke-width="3"
    />
    <line
      x1="134"
      y1="269.63"
      x2="79"
      y2="269.63"
      fill="none"
      stroke="#e18686"
      stroke-miterlimit="10"
      stroke-width="3"
    />
    <line
      x1="134"
      y1="280.13"
      x2="79"
      y2="280.13"
      fill="none"
      stroke="#e18686"
      stroke-miterlimit="10"
      stroke-width="3"
    />
    <line
      x1="134"
      y1="290.63"
      x2="79"
      y2="290.63"
      fill="none"
      stroke="#e18686"
      stroke-miterlimit="10"
      stroke-width="3"
    />
    <line
      x1="134"
      y1="301.13"
      x2="79"
      y2="301.13"
      fill="none"
      stroke="#e18686"
      stroke-miterlimit="10"
      stroke-width="3"
    />
    <line
      x1="134"
      y1="311.63"
      x2="79"
      y2="311.63"
      fill="none"
      stroke="#e18686"
      stroke-miterlimit="10"
      stroke-width="3"
    />
    <rect
      x="75.5"
      y="194.5"
      width="59"
      height="127"
      fill="none"
      stroke="#e18686"
      stroke-miterlimit="10"
      stroke-width="3"
    />
    <rect
      x="411.5"
      y="641.5"
      width="71"
      height="124.5"
      fill="none"
      stroke="#e18686"
      stroke-miterlimit="10"
      stroke-width="3"
    />
    <line
      x1="411.5"
      y1="688.8"
      x2="481.5"
      y2="688.8"
      fill="none"
      stroke="#e18686"
      stroke-miterlimit="10"
      stroke-width="3"
    />
    <line
      x1="411.5"
      y1="698.63"
      x2="481.5"
      y2="698.63"
      fill="none"
      stroke="#e18686"
      stroke-miterlimit="10"
      stroke-width="3"
    />
    <line
      x1="411.5"
      y1="708.46"
      x2="481.5"
      y2="708.46"
      fill="none"
      stroke="#e18686"
      stroke-miterlimit="10"
      stroke-width="3"
    />
    <line
      x1="411.5"
      y1="718.29"
      x2="481.5"
      y2="718.29"
      fill="none"
      stroke="#e18686"
      stroke-miterlimit="10"
      stroke-width="3"
    />
    <line
      x1="411.5"
      y1="728.12"
      x2="481.5"
      y2="728.12"
      fill="none"
      stroke="#e18686"
      stroke-miterlimit="10"
      stroke-width="3"
    />
    <line
      x1="411.5"
      y1="737.95"
      x2="481.5"
      y2="737.95"
      fill="none"
      stroke="#e18686"
      stroke-miterlimit="10"
      stroke-width="3"
    />
    <line
      x1="411.5"
      y1="747.78"
      x2="481.5"
      y2="747.78"
      fill="none"
      stroke="#e18686"
      stroke-miterlimit="10"
      stroke-width="3"
    />
    <line
      x1="411.5"
      y1="757.61"
      x2="481.5"
      y2="757.61"
      fill="none"
      stroke="#e18686"
      stroke-miterlimit="10"
      stroke-width="3"
    />
    <line
      x1="1430.5"
      y1="680.5"
      x2="1500.5"
      y2="680.5"
      fill="none"
      stroke="#e18686"
      stroke-miterlimit="10"
      stroke-width="3"
    />
    <line
      x1="1430.5"
      y1="691"
      x2="1500.5"
      y2="691"
      fill="none"
      stroke="#e18686"
      stroke-miterlimit="10"
      stroke-width="3"
    />
    <line
      x1="1430.5"
      y1="701.5"
      x2="1500.5"
      y2="701.5"
      fill="none"
      stroke="#e18686"
      stroke-miterlimit="10"
      stroke-width="3"
    />
    <line
      x1="1430.5"
      y1="712"
      x2="1500.5"
      y2="712"
      fill="none"
      stroke="#e18686"
      stroke-miterlimit="10"
      stroke-width="3"
    />
    <line
      x1="1430.5"
      y1="722.5"
      x2="1500.5"
      y2="722.5"
      fill="none"
      stroke="#e18686"
      stroke-miterlimit="10"
      stroke-width="3"
    />
    <line
      x1="1430.5"
      y1="733"
      x2="1500.5"
      y2="733"
      fill="none"
      stroke="#e18686"
      stroke-miterlimit="10"
      stroke-width="3"
    />
    <line
      x1="1430.5"
      y1="743.5"
      x2="1500.5"
      y2="743.5"
      fill="none"
      stroke="#e18686"
      stroke-miterlimit="10"
      stroke-width="3"
    />
    <line
      x1="1430.5"
      y1="754"
      x2="1500.5"
      y2="754"
      fill="none"
      stroke="#e18686"
      stroke-miterlimit="10"
      stroke-width="3"
    />
    <line
      x1="1430.5"
      y1="764.5"
      x2="1500.5"
      y2="764.5"
      fill="none"
      stroke="#e18686"
      stroke-miterlimit="10"
      stroke-width="3"
    />
  </g>
  <g id="Layer_311">
    <rect
      x="198.99"
      y="673"
      width="192.51"
      height="141.63"
      transform="translate(590.49 1487.63) rotate(180)"
      fill="#f8cdce"
      stroke="#e18686"
      stroke-miterlimit="10"
      stroke-width="3"
    />
    <text
      transform="translate(276.17 749.29)"
      fill="#434142"
      font-family="NanumSquareNeovariable-Heavy, 'NanumSquare Neo variable'"
      font-size="22"
      font-variation-settings="'wght' 900"
      font-weight="800"
    >
      <tspan x="0" y="0" letter-spacing="-.01em">3</tspan>
      <tspan x="15.66" y="0" letter-spacing="0em">11</tspan>
    </text>
  </g>
  <g id="Layer_310">
    <rect
      x="76.5"
      y="558.5"
      width="122.49"
      height="256.13"
      fill="#f8cdce"
      stroke="#e18686"
      stroke-miterlimit="10"
      stroke-width="3"
    />
    <text
      transform="translate(116.26 695.96)"
      fill="#434142"
      font-family="NanumSquareNeovariable-Heavy, 'NanumSquare Neo variable'"
      font-size="22"
      font-variation-settings="'wght' 900"
      font-weight="800"
    >
      <tspan x="0" y="0" letter-spacing="-.01em">3</tspan>
      <tspan x="15.66" y="0" letter-spacing="0em">10</tspan>
    </text>
  </g>
  <g id="Layer_309E">
    <rect
      x="76.5"
      y="504.5"
      width="122.49"
      height="54"
      fill="#f8cdce"
      stroke="#e18686"
      stroke-miterlimit="10"
      stroke-width="3"
    />
    <text
      transform="translate(106.73 538.1)"
      fill="#434142"
      font-family="NanumSquareNeovariable-Heavy, 'NanumSquare Neo variable'"
      font-size="22"
      font-variation-settings="'wght' 900"
      font-weight="800"
    >
      <tspan x="0" y="0">309E</tspan>
    </text>
  </g>
  <g id="Layer_309D">
    <rect
      x="76.5"
      y="445.5"
      width="122.49"
      height="59"
      fill="#f8cdce"
      stroke="#e18686"
      stroke-miterlimit="10"
      stroke-width="3"
    />
    <text
      transform="translate(105.25 483.55)"
      fill="#434142"
      font-family="NanumSquareNeovariable-Heavy, 'NanumSquare Neo variable'"
      font-size="22"
      font-variation-settings="'wght' 900"
      font-weight="800"
    >
      <tspan x="0" y="0">309D</tspan>
    </text>
  </g>
  <g id="Layer_309C">
    <rect
      x="76.5"
      y="338.5"
      width="122.49"
      height="107"
      fill="#f8cdce"
      stroke="#e18686"
      stroke-miterlimit="10"
      stroke-width="3"
    />
    <text
      transform="translate(104.63 399.1)"
      fill="#434142"
      font-family="NanumSquareNeovariable-Heavy, 'NanumSquare Neo variable'"
      font-size="22"
      font-variation-settings="'wght' 900"
      font-weight="800"
    >
      <tspan x="0" y="0">309C</tspan>
    </text>
  </g>
  <g id="Layer_309B">
    <polygon
      points="192 197.09 192 269.5 235.61 269.5 235.61 311.5 310.34 311.5 310.34 197.09 192 197.09"
      fill="#f8cdce"
      stroke="#e18686"
      stroke-miterlimit="10"
      stroke-width="3"
    />
    <text
      transform="translate(225.29 241.16)"
      fill="#434142"
      font-family="NanumSquareNeovariable-Heavy, 'NanumSquare Neo variable'"
      font-size="22"
      font-variation-settings="'wght' 900"
      font-weight="800"
    >
      <tspan x="0" y="0">309B</tspan>
    </text>
  </g>
  <g id="Layer_307">
    <rect
      x="309.5"
      y="197.21"
      width="107.09"
      height="195.29"
      fill="#f8cdce"
      stroke="#e18686"
      stroke-miterlimit="10"
      stroke-width="3"
    />
    <text
      transform="translate(340.41 297.72)"
      fill="#434142"
      font-family="NanumSquareNeovariable-Heavy, 'NanumSquare Neo variable'"
      font-size="22"
      font-variation-settings="'wght' 900"
      font-weight="800"
    >
      <tspan x="0" y="0">307</tspan>
    </text>
  </g>
  <g id="Layer_306">
    <rect
      x="309.5"
      y="392.5"
      width="107.09"
      height="213"
      fill="#f8cdce"
      stroke="#e18686"
      stroke-miterlimit="10"
      stroke-width="3"
    />
    <text
      transform="translate(339.33 499.12)"
      fill="#434142"
      font-family="NanumSquareNeovariable-Heavy, 'NanumSquare Neo variable'"
      font-size="22"
      font-variation-settings="'wght' 900"
      font-weight="800"
    >
      <tspan x="0" y="0">306</tspan>
    </text>
  </g>
  <g id="Layer_315">
    <rect
      x="1182.59"
      y="473.5"
      width="275.91"
      height="124"
      fill="#f8cdce"
      stroke="#e18686"
      stroke-miterlimit="10"
      stroke-width="3"
    />
    <text
      transform="translate(1298.8 542.25)"
      fill="#434142"
      font-family="NanumSquareNeovariable-Heavy, 'NanumSquare Neo variable'"
      font-size="22"
      font-variation-settings="'wght' 900"
      font-weight="800"
    >
      <tspan x="0" y="0" letter-spacing="-.01em">3</tspan>
      <tspan x="15.66" y="0" letter-spacing="0em">15</tspan>
    </text>
  </g>
  <g id="Layer_314">
    <rect
      x="1284.5"
      y="642"
      width="108"
      height="126.5"
      fill="#f8cdce"
      stroke="#e18686"
      stroke-miterlimit="10"
      stroke-width="3"
    />
    <text
      transform="translate(1317.49 710.32)"
      fill="#434142"
      font-family="NanumSquareNeovariable-Heavy, 'NanumSquare Neo variable'"
      font-size="18"
      font-variation-settings="'wght' 900"
      font-weight="800"
    >
      <tspan x="0" y="0" letter-spacing="0em">3</tspan>
      <tspan x="12.82" y="0">14</tspan>
    </text>
  </g>
  <g id="Layer_313A">
    <rect
      x="1224.5"
      y="642"
      width="60"
      height="126.5"
      transform="translate(2509 1410.5) rotate(180)"
      fill="#f8cdce"
      stroke="#e18686"
      stroke-miterlimit="10"
      stroke-width="3"
    />
    <text
      transform="translate(1230.25 710.32)"
      fill="#434142"
      font-family="NanumSquareNeovariable-Heavy, 'NanumSquare Neo variable'"
      font-size="18"
      font-variation-settings="'wght' 900"
      font-weight="800"
    >
      <tspan x="0" y="0" letter-spacing="0em">3</tspan>
      <tspan x="12.82" y="0">13A</tspan>
    </text>
  </g>
  <g id="Layer_313">
    <rect
      x="1168.5"
      y="642"
      width="56"
      height="126.5"
      fill="#f8cdce"
      stroke="#e18686"
      stroke-miterlimit="10"
      stroke-width="3"
    />
    <text
      transform="translate(1179.43 710.32)"
      fill="#434142"
      font-family="NanumSquareNeovariable-Heavy, 'NanumSquare Neo variable'"
      font-size="18"
      font-variation-settings="'wght' 900"
      font-weight="800"
    >
      <tspan x="0" y="0" letter-spacing="0em">3</tspan>
      <tspan x="12.82" y="0">13</tspan>
    </text>
  </g>
  <g id="Layer_303">
    <rect
      x="733.77"
      y="421.29"
      width="68.23"
      height="176.21"
      fill="#f8cdce"
      stroke="#e18686"
      stroke-miterlimit="10"
      stroke-width="3"
    />
    <text
      transform="translate(745.22 513.69)"
      fill="#434142"
      font-family="NanumSquareNeovariable-Heavy, 'NanumSquare Neo variable'"
      font-size="22"
      font-variation-settings="'wght' 900"
      font-weight="800"
    >
      <tspan x="0" y="0">303</tspan>
    </text>
  </g>
  <g id="Layer_312A">
    <rect
      x="531.77"
      y="641.5"
      width="380.73"
      height="127"
      fill="#f8cdce"
      stroke="#e18686"
      stroke-miterlimit="10"
      stroke-width="3"
    />
    <text
      transform="translate(691.92 713.51)"
      fill="#434142"
      font-family="NanumSquareNeovariable-Heavy, 'NanumSquare Neo variable'"
      font-size="22"
      font-variation-settings="'wght' 900"
      font-weight="800"
    >
      <tspan x="0" y="0" letter-spacing="-.01em">3</tspan>
      <tspan x="15.66" y="0" letter-spacing="0em">12A</tspan>
    </text>
  </g>
  <g id="Layer_312B">
    <rect
      x="912.5"
      y="641.5"
      width="256"
      height="127"
      transform="translate(2081 1410) rotate(180)"
      fill="#f8cdce"
      stroke="#e18686"
      stroke-miterlimit="10"
      stroke-width="3"
    />
    <text
      transform="translate(1015.99 713.51)"
      fill="#434142"
      font-family="NanumSquareNeovariable-Heavy, 'NanumSquare Neo variable'"
      font-size="22"
      font-variation-settings="'wght' 900"
      font-weight="800"
    >
      <tspan x="0" y="0" letter-spacing="-.01em">3</tspan>
      <tspan x="15.66" y="0" letter-spacing="0em">12B</tspan>
    </text>
  </g>
  <g id="Layer_toilet1">
    <polygon
      points="191.5 194.5 134.5 194.5 134.5 253.5 134.5 257.5 134.5 291.5 165.5 291.5 165.5 257.5 191.5 257.5 191.5 194.5"
      fill="none"
      stroke="#e18686"
      stroke-miterlimit="10"
      stroke-width="3"
    />
  </g>
  <g id="Layer_toilet2">
    <rect
      x="482.5"
      y="641.5"
      width="49"
      height="125"
      transform="translate(1014 1408) rotate(180)"
      fill="none"
      stroke="#e18686"
      stroke-miterlimit="10"
      stroke-width="3"
    />
  </g>
  <g id="Layer_toilet3">
    <rect
      x="858.21"
      y="422.5"
      width="52.79"
      height="121"
      transform="translate(1769.21 966) rotate(180)"
      fill="none"
      stroke="#e18686"
      stroke-miterlimit="10"
      stroke-width="3"
    />
  </g>
  <g id="Layer_toilet4">
    <rect
      x="803.5"
      y="422.5"
      width="54.71"
      height="121"
      fill="none"
      stroke="#e18686"
      stroke-miterlimit="10"
      stroke-width="3"
    />
  </g>
  <g id="Layer_toilet5">
    <rect
      x="1392.5"
      y="642"
      width="38"
      height="124.15"
      fill="none"
      stroke="#e18686"
      stroke-miterlimit="10"
      stroke-width="3"
    />
  </g>
  <g id="Layer_317">
    <rect
      x="1500.5"
      y="194.5"
      width="336"
      height="617"
      fill="#f8cdce"
      stroke="#e18686"
      stroke-miterlimit="10"
      stroke-width="2.96"
    />
    <text
      transform="translate(1648.04 470.82)"
      fill="#434142"
      font-family="NanumSquareNeovariable-Heavy, 'NanumSquare Neo variable'"
      font-size="22"
      font-variation-settings="'wght' 900"
      font-weight="800"
    >
      <tspan x="0" y="0" letter-spacing="-.01em">3</tspan>
      <tspan x="15.66" y="0" letter-spacing="0em">17</tspan>
    </text>
    <text
      transform="translate(1647.61 502.96)"
      fill="#434142"
      font-family="NanumSquareNeovariable-Heavy, 'NanumSquare Neo variable'"
      font-size="22"
      font-variation-settings="'wght' 900"
      font-weight="800"
    >
      <tspan x="0" y="0">서고</tspan>
    </text>
  </g>
  <g id="Layer_리씽크">
    <polygon
      points="734 476 417 476 417 543.5 416.5 543.5 416.5 605.5 463.5 605.5 463.5 567 506.5 567 506.5 605.5 610.5 605.5 610.5 567 657.5 567 657.5 605.5 718.5 605.5 718.5 567 734 567 734 476"
      fill="#f8cdce"
      stroke="#e18686"
      stroke-miterlimit="10"
      stroke-width="3"
    />
    <text
      transform="translate(499.66 531.76)"
      fill="#434142"
      font-family="NanumSquareNeovariable-Heavy, 'NanumSquare Neo variable'"
      font-size="22"
      font-variation-settings="'wght' 900"
      font-weight="800"
    >
      <tspan x="0" y="0">리씽크 스페이스</tspan>
    </text>
  </g>
</svg>
